G75*
%MOIN*%
%OFA0B0*%
%FSLAX25Y25*%
%IPPOS*%
%LPD*%
%AMOC8*
5,1,8,0,0,1.08239X$1,22.5*
%
%ADD10C,0.07400*%
%ADD11R,0.04700X0.04900*%
%ADD12C,0.09000*%
%ADD13C,0.00600*%
%ADD14C,0.03762*%
%ADD15C,0.01600*%
%ADD16C,0.03000*%
%ADD17C,0.03369*%
%ADD18C,0.01200*%
D10*
X0062227Y0082227D03*
X0072227Y0082227D03*
X0092227Y0082227D03*
X0102227Y0082227D03*
D11*
G36*
X0151232Y0133409D02*
X0154189Y0129757D01*
X0150382Y0126673D01*
X0147425Y0130325D01*
X0151232Y0133409D01*
G37*
G36*
X0146072Y0139782D02*
X0149029Y0136130D01*
X0145222Y0133046D01*
X0142265Y0136698D01*
X0146072Y0139782D01*
G37*
G36*
X0136130Y0149029D02*
X0139782Y0146072D01*
X0136698Y0142265D01*
X0133046Y0145222D01*
X0136130Y0149029D01*
G37*
G36*
X0129757Y0154189D02*
X0133409Y0151232D01*
X0130325Y0147425D01*
X0126673Y0150382D01*
X0129757Y0154189D01*
G37*
G36*
X0031046Y0151732D02*
X0034698Y0154689D01*
X0037782Y0150882D01*
X0034130Y0147925D01*
X0031046Y0151732D01*
G37*
G36*
X0024673Y0146572D02*
X0028325Y0149529D01*
X0031409Y0145722D01*
X0027757Y0142765D01*
X0024673Y0146572D01*
G37*
G36*
X0015425Y0136130D02*
X0018382Y0139782D01*
X0022189Y0136698D01*
X0019232Y0133046D01*
X0015425Y0136130D01*
G37*
G36*
X0010265Y0129757D02*
X0013222Y0133409D01*
X0017029Y0130325D01*
X0014072Y0126673D01*
X0010265Y0129757D01*
G37*
D12*
X0022227Y0102227D03*
X0032227Y0102227D03*
X0042227Y0102227D03*
X0052227Y0102227D03*
X0062227Y0102227D03*
X0072227Y0102227D03*
X0082227Y0102227D03*
X0092227Y0102227D03*
X0102227Y0102227D03*
X0112227Y0102227D03*
X0122227Y0102227D03*
X0132227Y0102227D03*
X0132227Y0042227D03*
X0122227Y0042227D03*
X0112227Y0042227D03*
X0102227Y0042227D03*
X0092227Y0042227D03*
X0082227Y0042227D03*
X0072227Y0042227D03*
X0062227Y0042227D03*
X0052227Y0042227D03*
X0042227Y0042227D03*
X0032227Y0042227D03*
X0022227Y0042227D03*
D13*
X0005527Y0018679D02*
X0005527Y0145775D01*
X0006959Y0144343D01*
X0010377Y0142927D01*
X0014077Y0142927D01*
X0017495Y0144343D01*
X0020111Y0146959D01*
X0021527Y0150377D01*
X0021527Y0154077D01*
X0020111Y0157495D01*
X0018679Y0158927D01*
X0145775Y0158927D01*
X0144343Y0157495D01*
X0142927Y0154077D01*
X0142927Y0150377D01*
X0144343Y0146959D01*
X0146959Y0144343D01*
X0150377Y0142927D01*
X0154077Y0142927D01*
X0157495Y0144343D01*
X0158927Y0145775D01*
X0158927Y0018679D01*
X0157495Y0020111D01*
X0154077Y0021527D01*
X0150377Y0021527D01*
X0146959Y0020111D01*
X0144343Y0017495D01*
X0142927Y0014077D01*
X0142927Y0010377D01*
X0144343Y0006959D01*
X0145775Y0005527D01*
X0018679Y0005527D01*
X0020111Y0006959D01*
X0021527Y0010377D01*
X0021527Y0014077D01*
X0020111Y0017495D01*
X0017495Y0020111D01*
X0014077Y0021527D01*
X0010377Y0021527D01*
X0006959Y0020111D01*
X0005527Y0018679D01*
X0005527Y0018986D02*
X0005833Y0018986D01*
X0005527Y0019584D02*
X0006432Y0019584D01*
X0007131Y0020183D02*
X0005527Y0020183D01*
X0005527Y0020781D02*
X0008576Y0020781D01*
X0010021Y0021380D02*
X0005527Y0021380D01*
X0005527Y0021978D02*
X0158927Y0021978D01*
X0158927Y0021380D02*
X0154434Y0021380D01*
X0155878Y0020781D02*
X0158927Y0020781D01*
X0158927Y0020183D02*
X0157323Y0020183D01*
X0158023Y0019584D02*
X0158927Y0019584D01*
X0158927Y0018986D02*
X0158621Y0018986D01*
X0158927Y0022577D02*
X0005527Y0022577D01*
X0005527Y0023175D02*
X0158927Y0023175D01*
X0158927Y0023774D02*
X0005527Y0023774D01*
X0005527Y0024372D02*
X0158927Y0024372D01*
X0158927Y0024971D02*
X0005527Y0024971D01*
X0005527Y0025569D02*
X0158927Y0025569D01*
X0158927Y0026168D02*
X0005527Y0026168D01*
X0005527Y0026766D02*
X0158927Y0026766D01*
X0158927Y0027365D02*
X0005527Y0027365D01*
X0005527Y0027963D02*
X0158927Y0027963D01*
X0158927Y0028562D02*
X0005527Y0028562D01*
X0005527Y0029160D02*
X0158927Y0029160D01*
X0158927Y0029759D02*
X0005527Y0029759D01*
X0005527Y0030357D02*
X0158927Y0030357D01*
X0158927Y0030956D02*
X0005527Y0030956D01*
X0005527Y0031554D02*
X0158927Y0031554D01*
X0158927Y0032153D02*
X0005527Y0032153D01*
X0005527Y0032751D02*
X0158927Y0032751D01*
X0158927Y0033350D02*
X0005527Y0033350D01*
X0005527Y0033948D02*
X0158927Y0033948D01*
X0158927Y0034547D02*
X0005527Y0034547D01*
X0005527Y0035145D02*
X0158927Y0035145D01*
X0158927Y0035744D02*
X0005527Y0035744D01*
X0005527Y0036342D02*
X0158927Y0036342D01*
X0158927Y0036941D02*
X0133576Y0036941D01*
X0133301Y0036827D02*
X0135286Y0037649D01*
X0136805Y0039168D01*
X0137627Y0041153D01*
X0137627Y0043301D01*
X0136805Y0045286D01*
X0135286Y0046805D01*
X0133301Y0047627D01*
X0131153Y0047627D01*
X0129168Y0046805D01*
X0127649Y0045286D01*
X0127227Y0044267D01*
X0126805Y0045286D01*
X0125286Y0046805D01*
X0123301Y0047627D01*
X0121153Y0047627D01*
X0119168Y0046805D01*
X0117649Y0045286D01*
X0117438Y0044776D01*
X0117188Y0045267D01*
X0116651Y0046006D01*
X0116006Y0046651D01*
X0115267Y0047188D01*
X0114454Y0047602D01*
X0113585Y0047884D01*
X0112684Y0048027D01*
X0112527Y0048027D01*
X0112527Y0042527D01*
X0111927Y0042527D01*
X0111927Y0041927D01*
X0112527Y0041927D01*
X0112527Y0036427D01*
X0112684Y0036427D01*
X0113585Y0036570D01*
X0114454Y0036852D01*
X0115267Y0037267D01*
X0116006Y0037803D01*
X0116651Y0038449D01*
X0117188Y0039187D01*
X0117438Y0039678D01*
X0117649Y0039168D01*
X0119168Y0037649D01*
X0121153Y0036827D01*
X0123301Y0036827D01*
X0125286Y0037649D01*
X0126805Y0039168D01*
X0127227Y0040187D01*
X0127649Y0039168D01*
X0129168Y0037649D01*
X0131153Y0036827D01*
X0133301Y0036827D01*
X0135021Y0037539D02*
X0158927Y0037539D01*
X0158927Y0038138D02*
X0135775Y0038138D01*
X0136373Y0038736D02*
X0158927Y0038736D01*
X0158927Y0039335D02*
X0136874Y0039335D01*
X0137122Y0039933D02*
X0158927Y0039933D01*
X0158927Y0040532D02*
X0137370Y0040532D01*
X0137618Y0041130D02*
X0158927Y0041130D01*
X0158927Y0041729D02*
X0137627Y0041729D01*
X0137627Y0042327D02*
X0158927Y0042327D01*
X0158927Y0042926D02*
X0137627Y0042926D01*
X0137535Y0043525D02*
X0158927Y0043525D01*
X0158927Y0044123D02*
X0137287Y0044123D01*
X0137039Y0044722D02*
X0158927Y0044722D01*
X0158927Y0045320D02*
X0136771Y0045320D01*
X0136173Y0045919D02*
X0158927Y0045919D01*
X0158927Y0046517D02*
X0135574Y0046517D01*
X0134537Y0047116D02*
X0158927Y0047116D01*
X0158927Y0047714D02*
X0114110Y0047714D01*
X0115367Y0047116D02*
X0119918Y0047116D01*
X0118880Y0046517D02*
X0116140Y0046517D01*
X0116715Y0045919D02*
X0118282Y0045919D01*
X0117683Y0045320D02*
X0117149Y0045320D01*
X0112527Y0045320D02*
X0111927Y0045320D01*
X0111927Y0044722D02*
X0112527Y0044722D01*
X0112527Y0044123D02*
X0111927Y0044123D01*
X0111927Y0043525D02*
X0112527Y0043525D01*
X0112527Y0042926D02*
X0111927Y0042926D01*
X0111927Y0042527D02*
X0111927Y0048027D01*
X0111771Y0048027D01*
X0110869Y0047884D01*
X0110001Y0047602D01*
X0109187Y0047188D01*
X0108449Y0046651D01*
X0107803Y0046006D01*
X0107267Y0045267D01*
X0107227Y0045190D01*
X0107188Y0045267D01*
X0106651Y0046006D01*
X0106006Y0046651D01*
X0105267Y0047188D01*
X0104454Y0047602D01*
X0103585Y0047884D01*
X0102684Y0048027D01*
X0102527Y0048027D01*
X0102527Y0042527D01*
X0101927Y0042527D01*
X0101927Y0048027D01*
X0101771Y0048027D01*
X0100869Y0047884D01*
X0100001Y0047602D01*
X0099187Y0047188D01*
X0098449Y0046651D01*
X0097803Y0046006D01*
X0097267Y0045267D01*
X0097016Y0044776D01*
X0096805Y0045286D01*
X0095286Y0046805D01*
X0093301Y0047627D01*
X0091153Y0047627D01*
X0089168Y0046805D01*
X0087649Y0045286D01*
X0087227Y0044267D01*
X0086805Y0045286D01*
X0085286Y0046805D01*
X0083301Y0047627D01*
X0081153Y0047627D01*
X0079168Y0046805D01*
X0077649Y0045286D01*
X0077227Y0044267D01*
X0076805Y0045286D01*
X0075286Y0046805D01*
X0073301Y0047627D01*
X0071153Y0047627D01*
X0069168Y0046805D01*
X0067649Y0045286D01*
X0067227Y0044267D01*
X0066805Y0045286D01*
X0065286Y0046805D01*
X0063301Y0047627D01*
X0061153Y0047627D01*
X0059168Y0046805D01*
X0057649Y0045286D01*
X0057227Y0044267D01*
X0056805Y0045286D01*
X0055286Y0046805D01*
X0053301Y0047627D01*
X0051153Y0047627D01*
X0049168Y0046805D01*
X0047649Y0045286D01*
X0047227Y0044267D01*
X0046805Y0045286D01*
X0045286Y0046805D01*
X0043301Y0047627D01*
X0041153Y0047627D01*
X0039168Y0046805D01*
X0037649Y0045286D01*
X0037227Y0044267D01*
X0036805Y0045286D01*
X0035286Y0046805D01*
X0033301Y0047627D01*
X0031153Y0047627D01*
X0029168Y0046805D01*
X0027649Y0045286D01*
X0027227Y0044267D01*
X0026805Y0045286D01*
X0025286Y0046805D01*
X0023301Y0047627D01*
X0021153Y0047627D01*
X0019168Y0046805D01*
X0017649Y0045286D01*
X0016827Y0043301D01*
X0016827Y0041153D01*
X0017649Y0039168D01*
X0019168Y0037649D01*
X0021153Y0036827D01*
X0023301Y0036827D01*
X0025286Y0037649D01*
X0026805Y0039168D01*
X0027227Y0040187D01*
X0027649Y0039168D01*
X0029168Y0037649D01*
X0031153Y0036827D01*
X0033301Y0036827D01*
X0035286Y0037649D01*
X0036805Y0039168D01*
X0037227Y0040187D01*
X0037649Y0039168D01*
X0039168Y0037649D01*
X0041153Y0036827D01*
X0043301Y0036827D01*
X0045286Y0037649D01*
X0046805Y0039168D01*
X0047227Y0040187D01*
X0047649Y0039168D01*
X0049168Y0037649D01*
X0051153Y0036827D01*
X0053301Y0036827D01*
X0055286Y0037649D01*
X0056805Y0039168D01*
X0057227Y0040187D01*
X0057649Y0039168D01*
X0059168Y0037649D01*
X0061153Y0036827D01*
X0063301Y0036827D01*
X0065286Y0037649D01*
X0066805Y0039168D01*
X0067227Y0040187D01*
X0067649Y0039168D01*
X0069168Y0037649D01*
X0071153Y0036827D01*
X0073301Y0036827D01*
X0075286Y0037649D01*
X0076805Y0039168D01*
X0077227Y0040187D01*
X0077649Y0039168D01*
X0079168Y0037649D01*
X0081153Y0036827D01*
X0083301Y0036827D01*
X0085286Y0037649D01*
X0086805Y0039168D01*
X0087227Y0040187D01*
X0087649Y0039168D01*
X0089168Y0037649D01*
X0091153Y0036827D01*
X0093301Y0036827D01*
X0095286Y0037649D01*
X0096805Y0039168D01*
X0097016Y0039678D01*
X0097267Y0039187D01*
X0097803Y0038449D01*
X0098449Y0037803D01*
X0099187Y0037267D01*
X0100001Y0036852D01*
X0100869Y0036570D01*
X0101771Y0036427D01*
X0101927Y0036427D01*
X0101927Y0041927D01*
X0102527Y0041927D01*
X0102527Y0036427D01*
X0102684Y0036427D01*
X0103585Y0036570D01*
X0104454Y0036852D01*
X0105267Y0037267D01*
X0106006Y0037803D01*
X0106651Y0038449D01*
X0107188Y0039187D01*
X0107227Y0039265D01*
X0107267Y0039187D01*
X0107803Y0038449D01*
X0108449Y0037803D01*
X0109187Y0037267D01*
X0110001Y0036852D01*
X0110869Y0036570D01*
X0111771Y0036427D01*
X0111927Y0036427D01*
X0111927Y0041927D01*
X0106427Y0041927D01*
X0102527Y0041927D01*
X0102527Y0042527D01*
X0111927Y0042527D01*
X0111927Y0042327D02*
X0102527Y0042327D01*
X0102527Y0041729D02*
X0101927Y0041729D01*
X0101927Y0041130D02*
X0102527Y0041130D01*
X0102527Y0040532D02*
X0101927Y0040532D01*
X0101927Y0039933D02*
X0102527Y0039933D01*
X0102527Y0039335D02*
X0101927Y0039335D01*
X0101927Y0038736D02*
X0102527Y0038736D01*
X0102527Y0038138D02*
X0101927Y0038138D01*
X0101927Y0037539D02*
X0102527Y0037539D01*
X0102527Y0036941D02*
X0101927Y0036941D01*
X0099827Y0036941D02*
X0093576Y0036941D01*
X0095021Y0037539D02*
X0098812Y0037539D01*
X0098114Y0038138D02*
X0095775Y0038138D01*
X0096373Y0038736D02*
X0097594Y0038736D01*
X0097191Y0039335D02*
X0096874Y0039335D01*
X0101927Y0042926D02*
X0102527Y0042926D01*
X0102527Y0043525D02*
X0101927Y0043525D01*
X0101927Y0044123D02*
X0102527Y0044123D01*
X0102527Y0044722D02*
X0101927Y0044722D01*
X0101927Y0045320D02*
X0102527Y0045320D01*
X0102527Y0045919D02*
X0101927Y0045919D01*
X0101927Y0046517D02*
X0102527Y0046517D01*
X0102527Y0047116D02*
X0101927Y0047116D01*
X0101927Y0047714D02*
X0102527Y0047714D01*
X0104110Y0047714D02*
X0110345Y0047714D01*
X0109088Y0047116D02*
X0105367Y0047116D01*
X0106140Y0046517D02*
X0108315Y0046517D01*
X0107740Y0045919D02*
X0106715Y0045919D01*
X0107149Y0045320D02*
X0107305Y0045320D01*
X0111927Y0045919D02*
X0112527Y0045919D01*
X0112527Y0046517D02*
X0111927Y0046517D01*
X0111927Y0047116D02*
X0112527Y0047116D01*
X0112527Y0047714D02*
X0111927Y0047714D01*
X0111927Y0041729D02*
X0112527Y0041729D01*
X0112527Y0041130D02*
X0111927Y0041130D01*
X0111927Y0040532D02*
X0112527Y0040532D01*
X0112527Y0039933D02*
X0111927Y0039933D01*
X0111927Y0039335D02*
X0112527Y0039335D01*
X0112527Y0038736D02*
X0111927Y0038736D01*
X0111927Y0038138D02*
X0112527Y0038138D01*
X0112527Y0037539D02*
X0111927Y0037539D01*
X0111927Y0036941D02*
X0112527Y0036941D01*
X0114628Y0036941D02*
X0120879Y0036941D01*
X0119434Y0037539D02*
X0115643Y0037539D01*
X0116340Y0038138D02*
X0118680Y0038138D01*
X0118081Y0038736D02*
X0116860Y0038736D01*
X0117263Y0039335D02*
X0117580Y0039335D01*
X0123576Y0036941D02*
X0130879Y0036941D01*
X0129434Y0037539D02*
X0125021Y0037539D01*
X0125775Y0038138D02*
X0128680Y0038138D01*
X0128081Y0038736D02*
X0126373Y0038736D01*
X0126874Y0039335D02*
X0127580Y0039335D01*
X0127332Y0039933D02*
X0127122Y0039933D01*
X0127039Y0044722D02*
X0127416Y0044722D01*
X0127683Y0045320D02*
X0126771Y0045320D01*
X0126173Y0045919D02*
X0128282Y0045919D01*
X0128880Y0046517D02*
X0125574Y0046517D01*
X0124537Y0047116D02*
X0129918Y0047116D01*
X0124931Y0052527D02*
X0125927Y0053523D01*
X0126850Y0054446D01*
X0127780Y0054446D01*
X0128803Y0054870D01*
X0129585Y0055652D01*
X0130008Y0056674D01*
X0130008Y0057780D01*
X0129585Y0058803D01*
X0128803Y0059585D01*
X0127780Y0060008D01*
X0126674Y0060008D01*
X0125652Y0059585D01*
X0124870Y0058803D01*
X0124446Y0057780D01*
X0124446Y0056850D01*
X0123523Y0055927D01*
X0094460Y0055927D01*
X0093803Y0056585D01*
X0092780Y0057008D01*
X0091674Y0057008D01*
X0090652Y0056585D01*
X0089870Y0055803D01*
X0089446Y0054780D01*
X0089446Y0053674D01*
X0089870Y0052652D01*
X0090652Y0051870D01*
X0091674Y0051446D01*
X0092780Y0051446D01*
X0093803Y0051870D01*
X0094460Y0052527D01*
X0124931Y0052527D01*
X0125505Y0053101D02*
X0158927Y0053101D01*
X0158927Y0053699D02*
X0126103Y0053699D01*
X0126702Y0054298D02*
X0158927Y0054298D01*
X0158927Y0054896D02*
X0128829Y0054896D01*
X0129428Y0055495D02*
X0158927Y0055495D01*
X0158927Y0056093D02*
X0129768Y0056093D01*
X0130008Y0056692D02*
X0158927Y0056692D01*
X0158927Y0057290D02*
X0130008Y0057290D01*
X0129963Y0057889D02*
X0158927Y0057889D01*
X0158927Y0058487D02*
X0129716Y0058487D01*
X0129302Y0059086D02*
X0158927Y0059086D01*
X0158927Y0059684D02*
X0128563Y0059684D01*
X0125892Y0059684D02*
X0033927Y0059684D01*
X0033927Y0059460D02*
X0033927Y0066523D01*
X0040431Y0073027D01*
X0063994Y0073027D01*
X0064652Y0072370D01*
X0065674Y0071946D01*
X0066780Y0071946D01*
X0067803Y0072370D01*
X0068585Y0073152D01*
X0069008Y0074174D01*
X0069008Y0075280D01*
X0068585Y0076303D01*
X0067803Y0077085D01*
X0066780Y0077508D01*
X0065674Y0077508D01*
X0064652Y0077085D01*
X0063994Y0076427D01*
X0039023Y0076427D01*
X0038027Y0075431D01*
X0030527Y0067931D01*
X0030527Y0059460D01*
X0029870Y0058803D01*
X0029446Y0057780D01*
X0029446Y0056674D01*
X0029870Y0055652D01*
X0030652Y0054870D01*
X0031674Y0054446D01*
X0032780Y0054446D01*
X0033803Y0054870D01*
X0034585Y0055652D01*
X0035008Y0056674D01*
X0035008Y0057780D01*
X0034585Y0058803D01*
X0033927Y0059460D01*
X0034302Y0059086D02*
X0125153Y0059086D01*
X0124739Y0058487D02*
X0034716Y0058487D01*
X0034963Y0057889D02*
X0124491Y0057889D01*
X0124446Y0057290D02*
X0035008Y0057290D01*
X0035008Y0056692D02*
X0090910Y0056692D01*
X0090160Y0056093D02*
X0034768Y0056093D01*
X0034428Y0055495D02*
X0089742Y0055495D01*
X0089494Y0054896D02*
X0033829Y0054896D01*
X0030625Y0054896D02*
X0005527Y0054896D01*
X0005527Y0054298D02*
X0089446Y0054298D01*
X0089446Y0053699D02*
X0005527Y0053699D01*
X0005527Y0053101D02*
X0089684Y0053101D01*
X0090019Y0052502D02*
X0005527Y0052502D01*
X0005527Y0051904D02*
X0090618Y0051904D01*
X0093837Y0051904D02*
X0158927Y0051904D01*
X0158927Y0052502D02*
X0094435Y0052502D01*
X0094294Y0056093D02*
X0123689Y0056093D01*
X0124288Y0056692D02*
X0093545Y0056692D01*
X0100345Y0047714D02*
X0005527Y0047714D01*
X0005527Y0047116D02*
X0019918Y0047116D01*
X0018880Y0046517D02*
X0005527Y0046517D01*
X0005527Y0045919D02*
X0018282Y0045919D01*
X0017683Y0045320D02*
X0005527Y0045320D01*
X0005527Y0044722D02*
X0017416Y0044722D01*
X0017168Y0044123D02*
X0005527Y0044123D01*
X0005527Y0043525D02*
X0016920Y0043525D01*
X0016827Y0042926D02*
X0005527Y0042926D01*
X0005527Y0042327D02*
X0016827Y0042327D01*
X0016827Y0041729D02*
X0005527Y0041729D01*
X0005527Y0041130D02*
X0016837Y0041130D01*
X0017085Y0040532D02*
X0005527Y0040532D01*
X0005527Y0039933D02*
X0017332Y0039933D01*
X0017580Y0039335D02*
X0005527Y0039335D01*
X0005527Y0038736D02*
X0018081Y0038736D01*
X0018680Y0038138D02*
X0005527Y0038138D01*
X0005527Y0037539D02*
X0019434Y0037539D01*
X0020879Y0036941D02*
X0005527Y0036941D01*
X0005527Y0048313D02*
X0158927Y0048313D01*
X0158927Y0048911D02*
X0005527Y0048911D01*
X0005527Y0049510D02*
X0158927Y0049510D01*
X0158927Y0050108D02*
X0005527Y0050108D01*
X0005527Y0050707D02*
X0158927Y0050707D01*
X0158927Y0051305D02*
X0005527Y0051305D01*
X0005527Y0055495D02*
X0030027Y0055495D01*
X0029687Y0056093D02*
X0005527Y0056093D01*
X0005527Y0056692D02*
X0029446Y0056692D01*
X0029446Y0057290D02*
X0005527Y0057290D01*
X0005527Y0057889D02*
X0029491Y0057889D01*
X0029739Y0058487D02*
X0005527Y0058487D01*
X0005527Y0059086D02*
X0030153Y0059086D01*
X0030527Y0059684D02*
X0005527Y0059684D01*
X0005527Y0060283D02*
X0030527Y0060283D01*
X0030527Y0060881D02*
X0005527Y0060881D01*
X0005527Y0061480D02*
X0030527Y0061480D01*
X0030527Y0062078D02*
X0005527Y0062078D01*
X0005527Y0062677D02*
X0030527Y0062677D01*
X0030527Y0063275D02*
X0005527Y0063275D01*
X0005527Y0063874D02*
X0030527Y0063874D01*
X0030527Y0064472D02*
X0005527Y0064472D01*
X0005527Y0065071D02*
X0030527Y0065071D01*
X0030527Y0065669D02*
X0005527Y0065669D01*
X0005527Y0066268D02*
X0030527Y0066268D01*
X0030527Y0066866D02*
X0005527Y0066866D01*
X0005527Y0067465D02*
X0030527Y0067465D01*
X0030659Y0068063D02*
X0005527Y0068063D01*
X0005527Y0068662D02*
X0031258Y0068662D01*
X0031856Y0069261D02*
X0005527Y0069261D01*
X0005527Y0069859D02*
X0032455Y0069859D01*
X0033053Y0070458D02*
X0005527Y0070458D01*
X0005527Y0071056D02*
X0033652Y0071056D01*
X0034250Y0071655D02*
X0005527Y0071655D01*
X0005527Y0072253D02*
X0034849Y0072253D01*
X0035447Y0072852D02*
X0005527Y0072852D01*
X0005527Y0073450D02*
X0036046Y0073450D01*
X0036644Y0074049D02*
X0005527Y0074049D01*
X0005527Y0074647D02*
X0037243Y0074647D01*
X0037841Y0075246D02*
X0005527Y0075246D01*
X0005527Y0075844D02*
X0038440Y0075844D01*
X0040256Y0072852D02*
X0064170Y0072852D01*
X0064933Y0072253D02*
X0039657Y0072253D01*
X0039059Y0071655D02*
X0158927Y0071655D01*
X0158927Y0072253D02*
X0067521Y0072253D01*
X0068285Y0072852D02*
X0158927Y0072852D01*
X0158927Y0073450D02*
X0068708Y0073450D01*
X0068956Y0074049D02*
X0158927Y0074049D01*
X0158927Y0074647D02*
X0069008Y0074647D01*
X0069008Y0075246D02*
X0158927Y0075246D01*
X0158927Y0075844D02*
X0068775Y0075844D01*
X0068445Y0076443D02*
X0158927Y0076443D01*
X0158927Y0077041D02*
X0067846Y0077041D01*
X0069622Y0078328D02*
X0071312Y0077627D01*
X0073142Y0077627D01*
X0074833Y0078328D01*
X0076127Y0079622D01*
X0076827Y0081312D01*
X0076827Y0083142D01*
X0076127Y0084833D01*
X0074833Y0086127D01*
X0073142Y0086827D01*
X0071312Y0086827D01*
X0069622Y0086127D01*
X0068328Y0084833D01*
X0067627Y0083142D01*
X0067627Y0081312D01*
X0068328Y0079622D01*
X0069622Y0078328D01*
X0069837Y0078238D02*
X0064617Y0078238D01*
X0064833Y0078328D02*
X0066127Y0079622D01*
X0066827Y0081312D01*
X0066827Y0083142D01*
X0066742Y0083348D01*
X0070721Y0087327D01*
X0093733Y0087327D01*
X0097712Y0083348D01*
X0097627Y0083142D01*
X0097627Y0081312D01*
X0098328Y0079622D01*
X0099622Y0078328D01*
X0101312Y0077627D01*
X0103142Y0077627D01*
X0104833Y0078328D01*
X0106127Y0079622D01*
X0106827Y0081312D01*
X0106827Y0083142D01*
X0106127Y0084833D01*
X0104833Y0086127D01*
X0103142Y0086827D01*
X0101312Y0086827D01*
X0101107Y0086742D01*
X0096762Y0091087D01*
X0096087Y0091762D01*
X0095205Y0092127D01*
X0069250Y0092127D01*
X0068368Y0091762D01*
X0063348Y0086742D01*
X0063142Y0086827D01*
X0061312Y0086827D01*
X0059622Y0086127D01*
X0058328Y0084833D01*
X0057627Y0083142D01*
X0057627Y0081312D01*
X0058328Y0079622D01*
X0059622Y0078328D01*
X0061312Y0077627D01*
X0063142Y0077627D01*
X0064833Y0078328D01*
X0065342Y0078837D02*
X0069112Y0078837D01*
X0068514Y0079435D02*
X0065941Y0079435D01*
X0066298Y0080034D02*
X0068157Y0080034D01*
X0067909Y0080632D02*
X0066546Y0080632D01*
X0066793Y0081231D02*
X0067661Y0081231D01*
X0067627Y0081829D02*
X0066827Y0081829D01*
X0066827Y0082428D02*
X0067627Y0082428D01*
X0067627Y0083026D02*
X0066827Y0083026D01*
X0067019Y0083625D02*
X0067827Y0083625D01*
X0067617Y0084223D02*
X0068075Y0084223D01*
X0068216Y0084822D02*
X0068323Y0084822D01*
X0068814Y0085420D02*
X0068915Y0085420D01*
X0069413Y0086019D02*
X0069513Y0086019D01*
X0070011Y0086617D02*
X0070806Y0086617D01*
X0070610Y0087216D02*
X0093845Y0087216D01*
X0093649Y0086617D02*
X0094443Y0086617D01*
X0094833Y0086127D02*
X0093142Y0086827D01*
X0091312Y0086827D01*
X0089622Y0086127D01*
X0088328Y0084833D01*
X0087627Y0083142D01*
X0087627Y0081312D01*
X0088328Y0079622D01*
X0089622Y0078328D01*
X0091312Y0077627D01*
X0093142Y0077627D01*
X0094833Y0078328D01*
X0096127Y0079622D01*
X0096827Y0081312D01*
X0096827Y0083142D01*
X0096127Y0084833D01*
X0094833Y0086127D01*
X0094941Y0086019D02*
X0095042Y0086019D01*
X0095540Y0085420D02*
X0095640Y0085420D01*
X0096132Y0084822D02*
X0096239Y0084822D01*
X0096379Y0084223D02*
X0096837Y0084223D01*
X0096627Y0083625D02*
X0097436Y0083625D01*
X0097627Y0083026D02*
X0096827Y0083026D01*
X0096827Y0082428D02*
X0097627Y0082428D01*
X0097627Y0081829D02*
X0096827Y0081829D01*
X0096793Y0081231D02*
X0097661Y0081231D01*
X0097909Y0080632D02*
X0096546Y0080632D01*
X0096298Y0080034D02*
X0098157Y0080034D01*
X0098514Y0079435D02*
X0095941Y0079435D01*
X0095342Y0078837D02*
X0099112Y0078837D01*
X0099837Y0078238D02*
X0094617Y0078238D01*
X0093172Y0077640D02*
X0101282Y0077640D01*
X0103172Y0077640D02*
X0158927Y0077640D01*
X0158927Y0078238D02*
X0104617Y0078238D01*
X0105342Y0078837D02*
X0158927Y0078837D01*
X0158927Y0079435D02*
X0105941Y0079435D01*
X0106298Y0080034D02*
X0158927Y0080034D01*
X0158927Y0080632D02*
X0106546Y0080632D01*
X0106793Y0081231D02*
X0158927Y0081231D01*
X0158927Y0081829D02*
X0106827Y0081829D01*
X0106827Y0082428D02*
X0158927Y0082428D01*
X0158927Y0083026D02*
X0106827Y0083026D01*
X0106627Y0083625D02*
X0158927Y0083625D01*
X0158927Y0084223D02*
X0106379Y0084223D01*
X0106132Y0084822D02*
X0158927Y0084822D01*
X0158927Y0085420D02*
X0105540Y0085420D01*
X0104941Y0086019D02*
X0158927Y0086019D01*
X0158927Y0086617D02*
X0103649Y0086617D01*
X0100633Y0087216D02*
X0158927Y0087216D01*
X0158927Y0087814D02*
X0100034Y0087814D01*
X0099436Y0088413D02*
X0158927Y0088413D01*
X0158927Y0089011D02*
X0098837Y0089011D01*
X0098239Y0089610D02*
X0158927Y0089610D01*
X0158927Y0090208D02*
X0097640Y0090208D01*
X0097042Y0090807D02*
X0158927Y0090807D01*
X0158927Y0091405D02*
X0096443Y0091405D01*
X0095502Y0092004D02*
X0158927Y0092004D01*
X0158927Y0092602D02*
X0005527Y0092602D01*
X0005527Y0092004D02*
X0068952Y0092004D01*
X0068011Y0091405D02*
X0005527Y0091405D01*
X0005527Y0090807D02*
X0067413Y0090807D01*
X0066814Y0090208D02*
X0005527Y0090208D01*
X0005527Y0089610D02*
X0066216Y0089610D01*
X0065617Y0089011D02*
X0005527Y0089011D01*
X0005527Y0088413D02*
X0065019Y0088413D01*
X0064420Y0087814D02*
X0005527Y0087814D01*
X0005527Y0087216D02*
X0063822Y0087216D01*
X0060806Y0086617D02*
X0005527Y0086617D01*
X0005527Y0086019D02*
X0059513Y0086019D01*
X0058915Y0085420D02*
X0005527Y0085420D01*
X0005527Y0084822D02*
X0058323Y0084822D01*
X0058075Y0084223D02*
X0005527Y0084223D01*
X0005527Y0083625D02*
X0057827Y0083625D01*
X0057627Y0083026D02*
X0005527Y0083026D01*
X0005527Y0082428D02*
X0057627Y0082428D01*
X0057627Y0081829D02*
X0005527Y0081829D01*
X0005527Y0081231D02*
X0057661Y0081231D01*
X0057909Y0080632D02*
X0005527Y0080632D01*
X0005527Y0080034D02*
X0058157Y0080034D01*
X0058514Y0079435D02*
X0005527Y0079435D01*
X0005527Y0078837D02*
X0059112Y0078837D01*
X0059837Y0078238D02*
X0005527Y0078238D01*
X0005527Y0077640D02*
X0061282Y0077640D01*
X0063172Y0077640D02*
X0071282Y0077640D01*
X0073172Y0077640D02*
X0091282Y0077640D01*
X0089837Y0078238D02*
X0074617Y0078238D01*
X0075342Y0078837D02*
X0089112Y0078837D01*
X0088514Y0079435D02*
X0075941Y0079435D01*
X0076298Y0080034D02*
X0088157Y0080034D01*
X0087909Y0080632D02*
X0076546Y0080632D01*
X0076793Y0081231D02*
X0087661Y0081231D01*
X0087627Y0081829D02*
X0076827Y0081829D01*
X0076827Y0082428D02*
X0087627Y0082428D01*
X0087627Y0083026D02*
X0076827Y0083026D01*
X0076627Y0083625D02*
X0087827Y0083625D01*
X0088075Y0084223D02*
X0076379Y0084223D01*
X0076132Y0084822D02*
X0088323Y0084822D01*
X0088915Y0085420D02*
X0075540Y0085420D01*
X0074941Y0086019D02*
X0089513Y0086019D01*
X0090806Y0086617D02*
X0073649Y0086617D01*
X0073301Y0096827D02*
X0071153Y0096827D01*
X0069168Y0097649D01*
X0067649Y0099168D01*
X0067227Y0100187D01*
X0066805Y0099168D01*
X0065286Y0097649D01*
X0063301Y0096827D01*
X0061153Y0096827D01*
X0059168Y0097649D01*
X0057649Y0099168D01*
X0057227Y0100187D01*
X0056805Y0099168D01*
X0055286Y0097649D01*
X0053301Y0096827D01*
X0051153Y0096827D01*
X0049168Y0097649D01*
X0047649Y0099168D01*
X0047227Y0100187D01*
X0046805Y0099168D01*
X0045286Y0097649D01*
X0043301Y0096827D01*
X0041153Y0096827D01*
X0039168Y0097649D01*
X0037649Y0099168D01*
X0037227Y0100187D01*
X0036805Y0099168D01*
X0035286Y0097649D01*
X0033301Y0096827D01*
X0031153Y0096827D01*
X0029168Y0097649D01*
X0027649Y0099168D01*
X0027227Y0100187D01*
X0026805Y0099168D01*
X0025286Y0097649D01*
X0023301Y0096827D01*
X0021153Y0096827D01*
X0019168Y0097649D01*
X0017649Y0099168D01*
X0016827Y0101153D01*
X0016827Y0103301D01*
X0017649Y0105286D01*
X0019168Y0106805D01*
X0021153Y0107627D01*
X0023301Y0107627D01*
X0025286Y0106805D01*
X0026805Y0105286D01*
X0027227Y0104267D01*
X0027649Y0105286D01*
X0029168Y0106805D01*
X0031153Y0107627D01*
X0033301Y0107627D01*
X0035286Y0106805D01*
X0036805Y0105286D01*
X0037227Y0104267D01*
X0037649Y0105286D01*
X0039168Y0106805D01*
X0041153Y0107627D01*
X0043301Y0107627D01*
X0045286Y0106805D01*
X0046805Y0105286D01*
X0047227Y0104267D01*
X0047649Y0105286D01*
X0049168Y0106805D01*
X0051153Y0107627D01*
X0053301Y0107627D01*
X0055286Y0106805D01*
X0056805Y0105286D01*
X0057227Y0104267D01*
X0057649Y0105286D01*
X0059168Y0106805D01*
X0061153Y0107627D01*
X0063301Y0107627D01*
X0065286Y0106805D01*
X0066805Y0105286D01*
X0067227Y0104267D01*
X0067649Y0105286D01*
X0069168Y0106805D01*
X0071153Y0107627D01*
X0073301Y0107627D01*
X0075286Y0106805D01*
X0076805Y0105286D01*
X0077227Y0104267D01*
X0077649Y0105286D01*
X0079168Y0106805D01*
X0081153Y0107627D01*
X0083301Y0107627D01*
X0085286Y0106805D01*
X0086805Y0105286D01*
X0087227Y0104267D01*
X0087649Y0105286D01*
X0089168Y0106805D01*
X0091153Y0107627D01*
X0093301Y0107627D01*
X0095286Y0106805D01*
X0096805Y0105286D01*
X0097227Y0104267D01*
X0097649Y0105286D01*
X0099168Y0106805D01*
X0101153Y0107627D01*
X0103301Y0107627D01*
X0105286Y0106805D01*
X0106805Y0105286D01*
X0107227Y0104267D01*
X0107649Y0105286D01*
X0109168Y0106805D01*
X0111153Y0107627D01*
X0113301Y0107627D01*
X0115286Y0106805D01*
X0116805Y0105286D01*
X0117016Y0104776D01*
X0117267Y0105267D01*
X0117803Y0106006D01*
X0118449Y0106651D01*
X0119187Y0107188D01*
X0120001Y0107602D01*
X0120869Y0107884D01*
X0121771Y0108027D01*
X0121927Y0108027D01*
X0121927Y0102527D01*
X0122527Y0102527D01*
X0122527Y0108027D01*
X0122684Y0108027D01*
X0123585Y0107884D01*
X0124454Y0107602D01*
X0125267Y0107188D01*
X0126006Y0106651D01*
X0126651Y0106006D01*
X0127188Y0105267D01*
X0127438Y0104776D01*
X0127649Y0105286D01*
X0129168Y0106805D01*
X0131153Y0107627D01*
X0133301Y0107627D01*
X0135286Y0106805D01*
X0136805Y0105286D01*
X0137627Y0103301D01*
X0137627Y0101153D01*
X0136805Y0099168D01*
X0135286Y0097649D01*
X0133301Y0096827D01*
X0131153Y0096827D01*
X0129168Y0097649D01*
X0127649Y0099168D01*
X0127438Y0099678D01*
X0127188Y0099187D01*
X0126651Y0098449D01*
X0126006Y0097803D01*
X0125267Y0097267D01*
X0124454Y0096852D01*
X0123585Y0096570D01*
X0122684Y0096427D01*
X0122527Y0096427D01*
X0122527Y0101927D01*
X0121927Y0101927D01*
X0121927Y0096427D01*
X0121771Y0096427D01*
X0120869Y0096570D01*
X0120001Y0096852D01*
X0119187Y0097267D01*
X0118449Y0097803D01*
X0117803Y0098449D01*
X0117267Y0099187D01*
X0117016Y0099678D01*
X0116805Y0099168D01*
X0115286Y0097649D01*
X0113301Y0096827D01*
X0111153Y0096827D01*
X0109168Y0097649D01*
X0107649Y0099168D01*
X0107227Y0100187D01*
X0106805Y0099168D01*
X0105286Y0097649D01*
X0103301Y0096827D01*
X0101153Y0096827D01*
X0099168Y0097649D01*
X0097649Y0099168D01*
X0097227Y0100187D01*
X0096805Y0099168D01*
X0095286Y0097649D01*
X0093301Y0096827D01*
X0091153Y0096827D01*
X0089168Y0097649D01*
X0087649Y0099168D01*
X0087227Y0100187D01*
X0086805Y0099168D01*
X0085286Y0097649D01*
X0083301Y0096827D01*
X0081153Y0096827D01*
X0079168Y0097649D01*
X0077649Y0099168D01*
X0077227Y0100187D01*
X0076805Y0099168D01*
X0075286Y0097649D01*
X0073301Y0096827D01*
X0074661Y0097391D02*
X0079793Y0097391D01*
X0078829Y0097989D02*
X0075626Y0097989D01*
X0076224Y0098588D02*
X0078230Y0098588D01*
X0077642Y0099186D02*
X0076812Y0099186D01*
X0077060Y0099785D02*
X0077394Y0099785D01*
X0077354Y0104573D02*
X0077101Y0104573D01*
X0076853Y0105171D02*
X0077602Y0105171D01*
X0078133Y0105770D02*
X0076322Y0105770D01*
X0075723Y0106368D02*
X0078731Y0106368D01*
X0079559Y0106967D02*
X0074896Y0106967D01*
X0073451Y0107565D02*
X0081003Y0107565D01*
X0083451Y0107565D02*
X0091003Y0107565D01*
X0089559Y0106967D02*
X0084896Y0106967D01*
X0085723Y0106368D02*
X0088731Y0106368D01*
X0088133Y0105770D02*
X0086322Y0105770D01*
X0086853Y0105171D02*
X0087602Y0105171D01*
X0087354Y0104573D02*
X0087101Y0104573D01*
X0087060Y0099785D02*
X0087394Y0099785D01*
X0087642Y0099186D02*
X0086812Y0099186D01*
X0086224Y0098588D02*
X0088230Y0098588D01*
X0088829Y0097989D02*
X0085626Y0097989D01*
X0084661Y0097391D02*
X0089793Y0097391D01*
X0094661Y0097391D02*
X0099793Y0097391D01*
X0098829Y0097989D02*
X0095626Y0097989D01*
X0096224Y0098588D02*
X0098230Y0098588D01*
X0097642Y0099186D02*
X0096812Y0099186D01*
X0097060Y0099785D02*
X0097394Y0099785D01*
X0097354Y0104573D02*
X0097101Y0104573D01*
X0096853Y0105171D02*
X0097602Y0105171D01*
X0098133Y0105770D02*
X0096322Y0105770D01*
X0095723Y0106368D02*
X0098731Y0106368D01*
X0099559Y0106967D02*
X0094896Y0106967D01*
X0093451Y0107565D02*
X0101003Y0107565D01*
X0103451Y0107565D02*
X0111003Y0107565D01*
X0109559Y0106967D02*
X0104896Y0106967D01*
X0105723Y0106368D02*
X0108731Y0106368D01*
X0108133Y0105770D02*
X0106322Y0105770D01*
X0106853Y0105171D02*
X0107602Y0105171D01*
X0107354Y0104573D02*
X0107101Y0104573D01*
X0107060Y0099785D02*
X0107394Y0099785D01*
X0107642Y0099186D02*
X0106812Y0099186D01*
X0106224Y0098588D02*
X0108230Y0098588D01*
X0108829Y0097989D02*
X0105626Y0097989D01*
X0104661Y0097391D02*
X0109793Y0097391D01*
X0114661Y0097391D02*
X0119017Y0097391D01*
X0118263Y0097989D02*
X0115626Y0097989D01*
X0116224Y0098588D02*
X0117702Y0098588D01*
X0117268Y0099186D02*
X0116812Y0099186D01*
X0120186Y0096792D02*
X0005527Y0096792D01*
X0005527Y0096194D02*
X0158927Y0096194D01*
X0158927Y0096792D02*
X0124269Y0096792D01*
X0125438Y0097391D02*
X0129793Y0097391D01*
X0128829Y0097989D02*
X0126191Y0097989D01*
X0126752Y0098588D02*
X0128230Y0098588D01*
X0127642Y0099186D02*
X0127187Y0099186D01*
X0122527Y0099186D02*
X0121927Y0099186D01*
X0121927Y0098588D02*
X0122527Y0098588D01*
X0122527Y0097989D02*
X0121927Y0097989D01*
X0121927Y0097391D02*
X0122527Y0097391D01*
X0122527Y0096792D02*
X0121927Y0096792D01*
X0121927Y0099785D02*
X0122527Y0099785D01*
X0122527Y0100383D02*
X0121927Y0100383D01*
X0121927Y0100982D02*
X0122527Y0100982D01*
X0122527Y0101580D02*
X0121927Y0101580D01*
X0121927Y0102777D02*
X0122527Y0102777D01*
X0122527Y0103376D02*
X0121927Y0103376D01*
X0121927Y0103974D02*
X0122527Y0103974D01*
X0122527Y0104573D02*
X0121927Y0104573D01*
X0121927Y0105171D02*
X0122527Y0105171D01*
X0122527Y0105770D02*
X0121927Y0105770D01*
X0121927Y0106368D02*
X0122527Y0106368D01*
X0122527Y0106967D02*
X0121927Y0106967D01*
X0121927Y0107565D02*
X0122527Y0107565D01*
X0124526Y0107565D02*
X0131003Y0107565D01*
X0129559Y0106967D02*
X0125571Y0106967D01*
X0126289Y0106368D02*
X0128731Y0106368D01*
X0128133Y0105770D02*
X0126823Y0105770D01*
X0127237Y0105171D02*
X0127602Y0105171D01*
X0133451Y0107565D02*
X0158927Y0107565D01*
X0158927Y0106967D02*
X0134896Y0106967D01*
X0135723Y0106368D02*
X0158927Y0106368D01*
X0158927Y0105770D02*
X0136322Y0105770D01*
X0136853Y0105171D02*
X0158927Y0105171D01*
X0158927Y0104573D02*
X0137101Y0104573D01*
X0137349Y0103974D02*
X0158927Y0103974D01*
X0158927Y0103376D02*
X0137596Y0103376D01*
X0137627Y0102777D02*
X0158927Y0102777D01*
X0158927Y0102179D02*
X0137627Y0102179D01*
X0137627Y0101580D02*
X0158927Y0101580D01*
X0158927Y0100982D02*
X0137556Y0100982D01*
X0137308Y0100383D02*
X0158927Y0100383D01*
X0158927Y0099785D02*
X0137060Y0099785D01*
X0136812Y0099186D02*
X0158927Y0099186D01*
X0158927Y0098588D02*
X0136224Y0098588D01*
X0135626Y0097989D02*
X0158927Y0097989D01*
X0158927Y0097391D02*
X0134661Y0097391D01*
X0119928Y0107565D02*
X0113451Y0107565D01*
X0114896Y0106967D02*
X0118883Y0106967D01*
X0118166Y0106368D02*
X0115723Y0106368D01*
X0116322Y0105770D02*
X0117632Y0105770D01*
X0117218Y0105171D02*
X0116853Y0105171D01*
X0112241Y0128143D02*
X0111213Y0128143D01*
X0110263Y0128536D01*
X0109536Y0129263D01*
X0109143Y0130213D01*
X0109143Y0131241D01*
X0109536Y0132191D01*
X0110263Y0132918D01*
X0111213Y0133311D01*
X0112241Y0133311D01*
X0113191Y0132918D01*
X0113682Y0132427D01*
X0144050Y0132427D01*
X0142922Y0133820D01*
X0145603Y0135992D01*
X0146069Y0136369D01*
X0148177Y0133766D01*
X0149981Y0135227D01*
X0150182Y0135503D01*
X0150305Y0135823D01*
X0150341Y0136163D01*
X0150287Y0136501D01*
X0150148Y0136814D01*
X0148750Y0138540D01*
X0146069Y0136369D01*
X0145691Y0136835D01*
X0145225Y0136458D01*
X0143117Y0139061D01*
X0141313Y0137601D01*
X0141112Y0137324D01*
X0140989Y0137004D01*
X0140953Y0136664D01*
X0141007Y0136326D01*
X0141146Y0136013D01*
X0142544Y0134287D01*
X0145225Y0136458D01*
X0145603Y0135992D01*
X0147711Y0133388D01*
X0146524Y0132427D01*
X0148590Y0132427D01*
X0150956Y0134343D01*
X0151697Y0134265D01*
X0155124Y0130033D01*
X0155046Y0129292D01*
X0150659Y0125739D01*
X0149918Y0125817D01*
X0147318Y0129027D01*
X0113682Y0129027D01*
X0113191Y0128536D01*
X0112241Y0128143D01*
X0113135Y0128513D02*
X0147734Y0128513D01*
X0148219Y0127915D02*
X0016751Y0127915D01*
X0016750Y0127914D02*
X0018148Y0129640D01*
X0018287Y0129953D01*
X0018341Y0130291D01*
X0018305Y0130631D01*
X0018182Y0130951D01*
X0017981Y0131228D01*
X0016177Y0132689D01*
X0014069Y0130085D01*
X0016750Y0127914D01*
X0016749Y0127915D02*
X0015796Y0127915D01*
X0016010Y0128513D02*
X0015057Y0128513D01*
X0015271Y0129112D02*
X0014318Y0129112D01*
X0014532Y0129710D02*
X0013765Y0129710D01*
X0013691Y0129619D02*
X0014069Y0130085D01*
X0013603Y0130463D01*
X0015711Y0133066D01*
X0013907Y0134527D01*
X0013594Y0134666D01*
X0013256Y0134720D01*
X0012916Y0134684D01*
X0012596Y0134561D01*
X0012319Y0134360D01*
X0010922Y0132634D01*
X0013603Y0130463D01*
X0013225Y0129997D01*
X0010544Y0132168D01*
X0009146Y0130442D01*
X0009007Y0130129D01*
X0008953Y0129791D01*
X0008989Y0129450D01*
X0009112Y0129131D01*
X0009313Y0128854D01*
X0011117Y0127393D01*
X0013225Y0129997D01*
X0013691Y0129619D01*
X0011583Y0127016D01*
X0013387Y0125555D01*
X0013700Y0125416D01*
X0014038Y0125362D01*
X0014378Y0125398D01*
X0014698Y0125520D01*
X0014975Y0125722D01*
X0016373Y0127448D01*
X0013691Y0129619D01*
X0013579Y0129710D02*
X0012993Y0129710D01*
X0012840Y0130309D02*
X0013478Y0130309D01*
X0013793Y0130309D02*
X0014250Y0130309D01*
X0013963Y0130907D02*
X0014734Y0130907D01*
X0014447Y0131506D02*
X0015219Y0131506D01*
X0014932Y0132104D02*
X0015704Y0132104D01*
X0015416Y0132703D02*
X0018226Y0132703D01*
X0018956Y0132111D02*
X0019697Y0132189D01*
X0021995Y0135027D01*
X0045023Y0135027D01*
X0049143Y0130907D01*
X0018199Y0130907D01*
X0018339Y0130309D02*
X0049143Y0130309D01*
X0049143Y0130213D02*
X0049536Y0129263D01*
X0050263Y0128536D01*
X0051213Y0128143D01*
X0052241Y0128143D01*
X0053191Y0128536D01*
X0053918Y0129263D01*
X0054311Y0130213D01*
X0054311Y0131241D01*
X0053918Y0132191D01*
X0053191Y0132918D01*
X0052241Y0133311D01*
X0051547Y0133311D01*
X0046431Y0138427D01*
X0021485Y0138427D01*
X0018659Y0140716D01*
X0017918Y0140638D01*
X0014491Y0136406D01*
X0014568Y0135664D01*
X0018956Y0132111D01*
X0020113Y0132703D02*
X0047348Y0132703D01*
X0047946Y0132104D02*
X0016899Y0132104D01*
X0017638Y0131506D02*
X0048545Y0131506D01*
X0049143Y0130907D02*
X0049143Y0130213D01*
X0049351Y0129710D02*
X0018179Y0129710D01*
X0017720Y0129112D02*
X0049688Y0129112D01*
X0050320Y0128513D02*
X0017235Y0128513D01*
X0016266Y0127316D02*
X0148703Y0127316D01*
X0149188Y0126718D02*
X0015781Y0126718D01*
X0015297Y0126119D02*
X0149673Y0126119D01*
X0151129Y0126119D02*
X0158927Y0126119D01*
X0158927Y0125521D02*
X0014698Y0125521D01*
X0013464Y0125521D02*
X0005527Y0125521D01*
X0005527Y0126119D02*
X0012690Y0126119D01*
X0011951Y0126718D02*
X0005527Y0126718D01*
X0005527Y0127316D02*
X0011827Y0127316D01*
X0011539Y0127915D02*
X0012311Y0127915D01*
X0012024Y0128513D02*
X0012796Y0128513D01*
X0012509Y0129112D02*
X0013280Y0129112D01*
X0013054Y0130907D02*
X0012101Y0130907D01*
X0012315Y0131506D02*
X0011362Y0131506D01*
X0011576Y0132104D02*
X0010622Y0132104D01*
X0010493Y0132104D02*
X0005527Y0132104D01*
X0005527Y0131506D02*
X0010008Y0131506D01*
X0009523Y0130907D02*
X0005527Y0130907D01*
X0005527Y0130309D02*
X0009087Y0130309D01*
X0008962Y0129710D02*
X0005527Y0129710D01*
X0005527Y0129112D02*
X0009126Y0129112D01*
X0009734Y0128513D02*
X0005527Y0128513D01*
X0005527Y0127915D02*
X0010473Y0127915D01*
X0010977Y0132703D02*
X0005527Y0132703D01*
X0005527Y0133301D02*
X0011462Y0133301D01*
X0011946Y0133900D02*
X0005527Y0133900D01*
X0005527Y0134498D02*
X0012509Y0134498D01*
X0013943Y0134498D02*
X0016008Y0134498D01*
X0015269Y0135097D02*
X0005527Y0135097D01*
X0005527Y0135695D02*
X0014565Y0135695D01*
X0014502Y0136294D02*
X0005527Y0136294D01*
X0005527Y0136892D02*
X0014885Y0136892D01*
X0015369Y0137491D02*
X0005527Y0137491D01*
X0005527Y0138089D02*
X0015854Y0138089D01*
X0016339Y0138688D02*
X0005527Y0138688D01*
X0005527Y0139286D02*
X0016823Y0139286D01*
X0017308Y0139885D02*
X0005527Y0139885D01*
X0005527Y0140483D02*
X0017793Y0140483D01*
X0018946Y0140483D02*
X0059567Y0140483D01*
X0060165Y0139885D02*
X0019685Y0139885D01*
X0020424Y0139286D02*
X0060764Y0139286D01*
X0061362Y0138688D02*
X0021163Y0138688D01*
X0021567Y0134498D02*
X0045552Y0134498D01*
X0046151Y0133900D02*
X0021082Y0133900D01*
X0020598Y0133301D02*
X0046749Y0133301D01*
X0049163Y0135695D02*
X0064355Y0135695D01*
X0064954Y0135097D02*
X0049762Y0135097D01*
X0050360Y0134498D02*
X0065552Y0134498D01*
X0066151Y0133900D02*
X0050959Y0133900D01*
X0052266Y0133301D02*
X0066749Y0133301D01*
X0067348Y0132703D02*
X0053406Y0132703D01*
X0053954Y0132104D02*
X0067946Y0132104D01*
X0068545Y0131506D02*
X0054202Y0131506D01*
X0054311Y0130907D02*
X0069143Y0130907D01*
X0069143Y0130213D01*
X0069536Y0129263D01*
X0070263Y0128536D01*
X0071213Y0128143D01*
X0072241Y0128143D01*
X0073191Y0128536D01*
X0073918Y0129263D01*
X0074311Y0130213D01*
X0074311Y0131241D01*
X0073918Y0132191D01*
X0073191Y0132918D01*
X0072241Y0133311D01*
X0071547Y0133311D01*
X0051931Y0152927D01*
X0037284Y0152927D01*
X0035163Y0155546D01*
X0034421Y0155624D01*
X0030189Y0152197D01*
X0030111Y0151456D01*
X0033664Y0147068D01*
X0034406Y0146991D01*
X0037538Y0149527D01*
X0050523Y0149527D01*
X0069143Y0130907D01*
X0069143Y0130309D02*
X0054311Y0130309D01*
X0054103Y0129710D02*
X0069351Y0129710D01*
X0069688Y0129112D02*
X0053766Y0129112D01*
X0053135Y0128513D02*
X0070320Y0128513D01*
X0073135Y0128513D02*
X0090320Y0128513D01*
X0090263Y0128536D02*
X0091213Y0128143D01*
X0092241Y0128143D01*
X0093191Y0128536D01*
X0093918Y0129263D01*
X0094311Y0130213D01*
X0094311Y0130907D01*
X0109143Y0130907D01*
X0109143Y0130309D02*
X0094311Y0130309D01*
X0094311Y0130907D02*
X0106931Y0143527D01*
X0133708Y0143527D01*
X0136421Y0141330D01*
X0137163Y0141408D01*
X0140716Y0145795D01*
X0140638Y0146537D01*
X0136406Y0149964D01*
X0135664Y0149886D01*
X0133268Y0146927D01*
X0131595Y0146927D01*
X0132689Y0148277D01*
X0130085Y0150385D01*
X0127914Y0147704D01*
X0128874Y0146927D01*
X0105523Y0146927D01*
X0091907Y0133311D01*
X0091213Y0133311D01*
X0090263Y0132918D01*
X0089536Y0132191D01*
X0089143Y0131241D01*
X0089143Y0130213D01*
X0089536Y0129263D01*
X0090263Y0128536D01*
X0089688Y0129112D02*
X0073766Y0129112D01*
X0074103Y0129710D02*
X0089351Y0129710D01*
X0089143Y0130309D02*
X0074311Y0130309D01*
X0074311Y0130907D02*
X0089143Y0130907D01*
X0089253Y0131506D02*
X0074202Y0131506D01*
X0073954Y0132104D02*
X0089500Y0132104D01*
X0090048Y0132703D02*
X0073406Y0132703D01*
X0072266Y0133301D02*
X0091188Y0133301D01*
X0092496Y0133900D02*
X0070959Y0133900D01*
X0070360Y0134498D02*
X0093094Y0134498D01*
X0093693Y0135097D02*
X0069762Y0135097D01*
X0069163Y0135695D02*
X0094291Y0135695D01*
X0094890Y0136294D02*
X0068565Y0136294D01*
X0067966Y0136892D02*
X0095488Y0136892D01*
X0096087Y0137491D02*
X0067368Y0137491D01*
X0066769Y0138089D02*
X0096685Y0138089D01*
X0097284Y0138688D02*
X0066171Y0138688D01*
X0065572Y0139286D02*
X0097882Y0139286D01*
X0098481Y0139885D02*
X0064974Y0139885D01*
X0064375Y0140483D02*
X0099079Y0140483D01*
X0099678Y0141082D02*
X0063777Y0141082D01*
X0063178Y0141680D02*
X0100276Y0141680D01*
X0100875Y0142279D02*
X0062580Y0142279D01*
X0061981Y0142877D02*
X0101473Y0142877D01*
X0102072Y0143476D02*
X0061383Y0143476D01*
X0060784Y0144074D02*
X0102670Y0144074D01*
X0103269Y0144673D02*
X0060186Y0144673D01*
X0059587Y0145271D02*
X0103867Y0145271D01*
X0104466Y0145870D02*
X0058989Y0145870D01*
X0058390Y0146468D02*
X0105064Y0146468D01*
X0106880Y0143476D02*
X0133771Y0143476D01*
X0134511Y0142877D02*
X0106282Y0142877D01*
X0105683Y0142279D02*
X0135250Y0142279D01*
X0135989Y0141680D02*
X0105085Y0141680D01*
X0104486Y0141082D02*
X0145971Y0141082D01*
X0146038Y0141092D02*
X0145700Y0141039D01*
X0145387Y0140900D01*
X0143583Y0139439D01*
X0145691Y0136835D01*
X0148373Y0139007D01*
X0146975Y0140733D01*
X0146698Y0140934D01*
X0146378Y0141057D01*
X0146038Y0141092D01*
X0146138Y0141082D02*
X0158927Y0141082D01*
X0158927Y0141680D02*
X0137383Y0141680D01*
X0137868Y0142279D02*
X0158927Y0142279D01*
X0158927Y0142877D02*
X0138353Y0142877D01*
X0138837Y0143476D02*
X0149053Y0143476D01*
X0147608Y0144074D02*
X0139322Y0144074D01*
X0139807Y0144673D02*
X0146629Y0144673D01*
X0146031Y0145271D02*
X0140291Y0145271D01*
X0140708Y0145870D02*
X0145432Y0145870D01*
X0144834Y0146468D02*
X0140645Y0146468D01*
X0139983Y0147067D02*
X0144298Y0147067D01*
X0144051Y0147665D02*
X0139244Y0147665D01*
X0138505Y0148264D02*
X0143803Y0148264D01*
X0143555Y0148863D02*
X0137766Y0148863D01*
X0137027Y0149461D02*
X0143307Y0149461D01*
X0143059Y0150060D02*
X0134132Y0150060D01*
X0134527Y0150547D02*
X0134666Y0150860D01*
X0134720Y0151198D01*
X0134684Y0151539D01*
X0134561Y0151858D01*
X0134360Y0152135D01*
X0132634Y0153533D01*
X0130463Y0150852D01*
X0129997Y0151229D01*
X0132168Y0153910D01*
X0130442Y0155308D01*
X0130129Y0155448D01*
X0129791Y0155501D01*
X0129450Y0155465D01*
X0129131Y0155343D01*
X0128854Y0155141D01*
X0127393Y0153338D01*
X0129997Y0151229D01*
X0129619Y0150763D01*
X0130085Y0150385D01*
X0130463Y0150852D01*
X0133066Y0148744D01*
X0134527Y0150547D01*
X0134576Y0150658D02*
X0142927Y0150658D01*
X0142927Y0151257D02*
X0134714Y0151257D01*
X0134563Y0151855D02*
X0142927Y0151855D01*
X0142927Y0152454D02*
X0133967Y0152454D01*
X0133228Y0153052D02*
X0142927Y0153052D01*
X0142927Y0153651D02*
X0131957Y0153651D01*
X0131750Y0154249D02*
X0142998Y0154249D01*
X0143246Y0154848D02*
X0131011Y0154848D01*
X0130132Y0155446D02*
X0143494Y0155446D01*
X0143742Y0156045D02*
X0020712Y0156045D01*
X0020464Y0156643D02*
X0143990Y0156643D01*
X0144238Y0157242D02*
X0020216Y0157242D01*
X0019766Y0157840D02*
X0144688Y0157840D01*
X0145287Y0158439D02*
X0019168Y0158439D01*
X0020960Y0155446D02*
X0034201Y0155446D01*
X0033462Y0154848D02*
X0021208Y0154848D01*
X0021456Y0154249D02*
X0032723Y0154249D01*
X0031984Y0153651D02*
X0021527Y0153651D01*
X0021527Y0153052D02*
X0031245Y0153052D01*
X0030506Y0152454D02*
X0021527Y0152454D01*
X0021527Y0151855D02*
X0030153Y0151855D01*
X0030273Y0151257D02*
X0021527Y0151257D01*
X0021527Y0150658D02*
X0027663Y0150658D01*
X0027640Y0150648D02*
X0025914Y0149250D01*
X0028085Y0146569D01*
X0027619Y0146191D01*
X0027997Y0145725D01*
X0028463Y0146103D01*
X0028085Y0146569D01*
X0030689Y0148677D01*
X0029228Y0150481D01*
X0028951Y0150682D01*
X0028631Y0150805D01*
X0028291Y0150841D01*
X0027953Y0150787D01*
X0027640Y0150648D01*
X0026914Y0150060D02*
X0021396Y0150060D01*
X0021148Y0149461D02*
X0026175Y0149461D01*
X0026228Y0148863D02*
X0025456Y0148863D01*
X0025448Y0148873D02*
X0023722Y0147475D01*
X0023520Y0147198D01*
X0023398Y0146878D01*
X0023362Y0146538D01*
X0023416Y0146200D01*
X0023555Y0145887D01*
X0025016Y0144083D01*
X0027619Y0146191D01*
X0025448Y0148873D01*
X0025436Y0148863D02*
X0020900Y0148863D01*
X0020652Y0148264D02*
X0024696Y0148264D01*
X0023957Y0147665D02*
X0020404Y0147665D01*
X0020156Y0147067D02*
X0023470Y0147067D01*
X0023373Y0146468D02*
X0019621Y0146468D01*
X0019022Y0145870D02*
X0023569Y0145870D01*
X0024053Y0145271D02*
X0018424Y0145271D01*
X0017825Y0144673D02*
X0024538Y0144673D01*
X0025744Y0144673D02*
X0026697Y0144673D01*
X0026483Y0145271D02*
X0027436Y0145271D01*
X0027222Y0145870D02*
X0027879Y0145870D01*
X0027997Y0145725D02*
X0025393Y0143617D01*
X0026854Y0141813D01*
X0027131Y0141612D01*
X0027450Y0141489D01*
X0027791Y0141453D01*
X0028129Y0141507D01*
X0028442Y0141646D01*
X0030168Y0143044D01*
X0027997Y0145725D01*
X0028176Y0145870D02*
X0028651Y0145870D01*
X0028463Y0146103D02*
X0030634Y0143421D01*
X0032360Y0144819D01*
X0032561Y0145096D01*
X0032684Y0145416D01*
X0032720Y0145756D01*
X0032666Y0146094D01*
X0032527Y0146407D01*
X0031066Y0148211D01*
X0028463Y0146103D01*
X0028167Y0146468D02*
X0028915Y0146468D01*
X0028700Y0147067D02*
X0029654Y0147067D01*
X0029439Y0147665D02*
X0030393Y0147665D01*
X0030179Y0148264D02*
X0032696Y0148264D01*
X0032211Y0148863D02*
X0030539Y0148863D01*
X0030054Y0149461D02*
X0031727Y0149461D01*
X0031242Y0150060D02*
X0029569Y0150060D01*
X0028984Y0150658D02*
X0030757Y0150658D01*
X0031508Y0147665D02*
X0033181Y0147665D01*
X0033678Y0147067D02*
X0031993Y0147067D01*
X0032477Y0146468D02*
X0053582Y0146468D01*
X0054180Y0145870D02*
X0032702Y0145870D01*
X0032629Y0145271D02*
X0054779Y0145271D01*
X0055377Y0144673D02*
X0032179Y0144673D01*
X0031440Y0144074D02*
X0055976Y0144074D01*
X0056574Y0143476D02*
X0030701Y0143476D01*
X0030590Y0143476D02*
X0029818Y0143476D01*
X0029962Y0142877D02*
X0057173Y0142877D01*
X0057771Y0142279D02*
X0029223Y0142279D01*
X0028484Y0141680D02*
X0058370Y0141680D01*
X0058968Y0141082D02*
X0005527Y0141082D01*
X0005527Y0141680D02*
X0027036Y0141680D01*
X0026477Y0142279D02*
X0005527Y0142279D01*
X0005527Y0142877D02*
X0025992Y0142877D01*
X0025507Y0143476D02*
X0015402Y0143476D01*
X0016847Y0144074D02*
X0025958Y0144074D01*
X0028364Y0145271D02*
X0029136Y0145271D01*
X0028849Y0144673D02*
X0029621Y0144673D01*
X0029333Y0144074D02*
X0030105Y0144074D01*
X0027961Y0146468D02*
X0027395Y0146468D01*
X0027682Y0147067D02*
X0026910Y0147067D01*
X0027197Y0147665D02*
X0026425Y0147665D01*
X0026713Y0148264D02*
X0025941Y0148264D01*
X0034500Y0147067D02*
X0052983Y0147067D01*
X0052385Y0147665D02*
X0035239Y0147665D01*
X0035978Y0148264D02*
X0051786Y0148264D01*
X0051188Y0148863D02*
X0036717Y0148863D01*
X0037457Y0149461D02*
X0050589Y0149461D01*
X0053004Y0151855D02*
X0126193Y0151855D01*
X0126677Y0152454D02*
X0052405Y0152454D01*
X0053602Y0151257D02*
X0125708Y0151257D01*
X0125555Y0151067D02*
X0125416Y0150755D01*
X0125362Y0150417D01*
X0125398Y0150076D01*
X0125520Y0149757D01*
X0125722Y0149480D01*
X0127448Y0148082D01*
X0129619Y0150763D01*
X0127016Y0152871D01*
X0125555Y0151067D01*
X0125400Y0150658D02*
X0054201Y0150658D01*
X0054799Y0150060D02*
X0125404Y0150060D01*
X0125745Y0149461D02*
X0055398Y0149461D01*
X0055996Y0148863D02*
X0126484Y0148863D01*
X0127223Y0148264D02*
X0056595Y0148264D01*
X0057193Y0147665D02*
X0127962Y0147665D01*
X0127595Y0148264D02*
X0128367Y0148264D01*
X0128080Y0148863D02*
X0128852Y0148863D01*
X0128565Y0149461D02*
X0129337Y0149461D01*
X0129049Y0150060D02*
X0129821Y0150060D01*
X0129749Y0150658D02*
X0129534Y0150658D01*
X0129963Y0151257D02*
X0129010Y0151257D01*
X0129224Y0151855D02*
X0128271Y0151855D01*
X0128485Y0152454D02*
X0127531Y0152454D01*
X0127746Y0153052D02*
X0037183Y0153052D01*
X0036698Y0153651D02*
X0127647Y0153651D01*
X0128131Y0154249D02*
X0036213Y0154249D01*
X0035729Y0154848D02*
X0128616Y0154848D01*
X0129400Y0155446D02*
X0035244Y0155446D01*
X0046769Y0138089D02*
X0061961Y0138089D01*
X0062560Y0137491D02*
X0047368Y0137491D01*
X0047966Y0136892D02*
X0063158Y0136892D01*
X0063757Y0136294D02*
X0048565Y0136294D01*
X0057792Y0147067D02*
X0128701Y0147067D01*
X0131227Y0149461D02*
X0132180Y0149461D01*
X0131966Y0148863D02*
X0132919Y0148863D01*
X0133163Y0148863D02*
X0134835Y0148863D01*
X0135320Y0149461D02*
X0133647Y0149461D01*
X0134351Y0148264D02*
X0132678Y0148264D01*
X0132193Y0147665D02*
X0133866Y0147665D01*
X0133381Y0147067D02*
X0131709Y0147067D01*
X0131441Y0150060D02*
X0130488Y0150060D01*
X0130306Y0150658D02*
X0130702Y0150658D01*
X0130791Y0151257D02*
X0130019Y0151257D01*
X0130503Y0151855D02*
X0131275Y0151855D01*
X0130988Y0152454D02*
X0131760Y0152454D01*
X0131473Y0153052D02*
X0132245Y0153052D01*
X0144134Y0139885D02*
X0103289Y0139885D01*
X0103888Y0140483D02*
X0144873Y0140483D01*
X0143707Y0139286D02*
X0102690Y0139286D01*
X0102092Y0138688D02*
X0142656Y0138688D01*
X0143419Y0138688D02*
X0144191Y0138688D01*
X0143904Y0138089D02*
X0144676Y0138089D01*
X0144389Y0137491D02*
X0145161Y0137491D01*
X0144873Y0136892D02*
X0145645Y0136892D01*
X0145762Y0136892D02*
X0146715Y0136892D01*
X0146501Y0137491D02*
X0147454Y0137491D01*
X0147240Y0138089D02*
X0148193Y0138089D01*
X0147979Y0138688D02*
X0158927Y0138688D01*
X0158927Y0139286D02*
X0148146Y0139286D01*
X0147661Y0139885D02*
X0158927Y0139885D01*
X0158927Y0140483D02*
X0147177Y0140483D01*
X0149115Y0138089D02*
X0158927Y0138089D01*
X0158927Y0137491D02*
X0149600Y0137491D01*
X0150085Y0136892D02*
X0158927Y0136892D01*
X0158927Y0136294D02*
X0150320Y0136294D01*
X0150256Y0135695D02*
X0158927Y0135695D01*
X0158927Y0135097D02*
X0149821Y0135097D01*
X0149082Y0134498D02*
X0158927Y0134498D01*
X0158927Y0133900D02*
X0151993Y0133900D01*
X0152478Y0133301D02*
X0158927Y0133301D01*
X0158927Y0132703D02*
X0152963Y0132703D01*
X0153447Y0132104D02*
X0158927Y0132104D01*
X0158927Y0131506D02*
X0153932Y0131506D01*
X0154417Y0130907D02*
X0158927Y0130907D01*
X0158927Y0130309D02*
X0154901Y0130309D01*
X0155090Y0129710D02*
X0158927Y0129710D01*
X0158927Y0129112D02*
X0154824Y0129112D01*
X0154085Y0128513D02*
X0158927Y0128513D01*
X0158927Y0127915D02*
X0153346Y0127915D01*
X0152607Y0127316D02*
X0158927Y0127316D01*
X0158927Y0126718D02*
X0151868Y0126718D01*
X0148930Y0132703D02*
X0146864Y0132703D01*
X0147604Y0133301D02*
X0149669Y0133301D01*
X0150408Y0133900D02*
X0148343Y0133900D01*
X0148069Y0133900D02*
X0147297Y0133900D01*
X0147584Y0134498D02*
X0146812Y0134498D01*
X0147099Y0135097D02*
X0146327Y0135097D01*
X0146615Y0135695D02*
X0145843Y0135695D01*
X0145237Y0135695D02*
X0144283Y0135695D01*
X0144498Y0135097D02*
X0143544Y0135097D01*
X0143759Y0134498D02*
X0142805Y0134498D01*
X0142373Y0134498D02*
X0097902Y0134498D01*
X0097304Y0133900D02*
X0143019Y0133900D01*
X0143342Y0133301D02*
X0112266Y0133301D01*
X0111188Y0133301D02*
X0096705Y0133301D01*
X0096107Y0132703D02*
X0110048Y0132703D01*
X0109500Y0132104D02*
X0095508Y0132104D01*
X0094910Y0131506D02*
X0109253Y0131506D01*
X0109351Y0129710D02*
X0094103Y0129710D01*
X0093766Y0129112D02*
X0109688Y0129112D01*
X0110320Y0128513D02*
X0093135Y0128513D01*
X0098501Y0135097D02*
X0141888Y0135097D01*
X0141403Y0135695D02*
X0099099Y0135695D01*
X0099698Y0136294D02*
X0141021Y0136294D01*
X0140977Y0136892D02*
X0100296Y0136892D01*
X0100895Y0137491D02*
X0141233Y0137491D01*
X0141917Y0138089D02*
X0101493Y0138089D01*
X0113406Y0132703D02*
X0143827Y0132703D01*
X0145022Y0136294D02*
X0145358Y0136294D01*
X0145976Y0136294D02*
X0146130Y0136294D01*
X0155402Y0143476D02*
X0158927Y0143476D01*
X0158927Y0144074D02*
X0156847Y0144074D01*
X0157825Y0144673D02*
X0158927Y0144673D01*
X0158927Y0145271D02*
X0158424Y0145271D01*
X0158927Y0124922D02*
X0005527Y0124922D01*
X0005527Y0124324D02*
X0158927Y0124324D01*
X0158927Y0123725D02*
X0005527Y0123725D01*
X0005527Y0123127D02*
X0158927Y0123127D01*
X0158927Y0122528D02*
X0005527Y0122528D01*
X0005527Y0121930D02*
X0158927Y0121930D01*
X0158927Y0121331D02*
X0005527Y0121331D01*
X0005527Y0120732D02*
X0158927Y0120732D01*
X0158927Y0120134D02*
X0005527Y0120134D01*
X0005527Y0119535D02*
X0158927Y0119535D01*
X0158927Y0118937D02*
X0005527Y0118937D01*
X0005527Y0118338D02*
X0158927Y0118338D01*
X0158927Y0117740D02*
X0005527Y0117740D01*
X0005527Y0117141D02*
X0158927Y0117141D01*
X0158927Y0116543D02*
X0005527Y0116543D01*
X0005527Y0115944D02*
X0158927Y0115944D01*
X0158927Y0115346D02*
X0005527Y0115346D01*
X0005527Y0114747D02*
X0158927Y0114747D01*
X0158927Y0114149D02*
X0005527Y0114149D01*
X0005527Y0113550D02*
X0158927Y0113550D01*
X0158927Y0112952D02*
X0005527Y0112952D01*
X0005527Y0112353D02*
X0158927Y0112353D01*
X0158927Y0111755D02*
X0005527Y0111755D01*
X0005527Y0111156D02*
X0158927Y0111156D01*
X0158927Y0110558D02*
X0005527Y0110558D01*
X0005527Y0109959D02*
X0158927Y0109959D01*
X0158927Y0109361D02*
X0005527Y0109361D01*
X0005527Y0108762D02*
X0158927Y0108762D01*
X0158927Y0108164D02*
X0005527Y0108164D01*
X0005527Y0107565D02*
X0021003Y0107565D01*
X0019559Y0106967D02*
X0005527Y0106967D01*
X0005527Y0106368D02*
X0018731Y0106368D01*
X0018133Y0105770D02*
X0005527Y0105770D01*
X0005527Y0105171D02*
X0017602Y0105171D01*
X0017354Y0104573D02*
X0005527Y0104573D01*
X0005527Y0103974D02*
X0017106Y0103974D01*
X0016858Y0103376D02*
X0005527Y0103376D01*
X0005527Y0102777D02*
X0016827Y0102777D01*
X0016827Y0102179D02*
X0005527Y0102179D01*
X0005527Y0101580D02*
X0016827Y0101580D01*
X0016898Y0100982D02*
X0005527Y0100982D01*
X0005527Y0100383D02*
X0017146Y0100383D01*
X0017394Y0099785D02*
X0005527Y0099785D01*
X0005527Y0099186D02*
X0017642Y0099186D01*
X0018230Y0098588D02*
X0005527Y0098588D01*
X0005527Y0097989D02*
X0018829Y0097989D01*
X0019793Y0097391D02*
X0005527Y0097391D01*
X0005527Y0095595D02*
X0158927Y0095595D01*
X0158927Y0094996D02*
X0005527Y0094996D01*
X0005527Y0094398D02*
X0158927Y0094398D01*
X0158927Y0093799D02*
X0005527Y0093799D01*
X0005527Y0093201D02*
X0158927Y0093201D01*
X0158927Y0071056D02*
X0038460Y0071056D01*
X0037862Y0070458D02*
X0158927Y0070458D01*
X0158927Y0069859D02*
X0037263Y0069859D01*
X0036665Y0069261D02*
X0158927Y0069261D01*
X0158927Y0068662D02*
X0036066Y0068662D01*
X0035468Y0068063D02*
X0158927Y0068063D01*
X0158927Y0067465D02*
X0034869Y0067465D01*
X0034271Y0066866D02*
X0158927Y0066866D01*
X0158927Y0066268D02*
X0033927Y0066268D01*
X0033927Y0065669D02*
X0158927Y0065669D01*
X0158927Y0065071D02*
X0033927Y0065071D01*
X0033927Y0064472D02*
X0158927Y0064472D01*
X0158927Y0063874D02*
X0033927Y0063874D01*
X0033927Y0063275D02*
X0158927Y0063275D01*
X0158927Y0062677D02*
X0033927Y0062677D01*
X0033927Y0062078D02*
X0158927Y0062078D01*
X0158927Y0061480D02*
X0033927Y0061480D01*
X0033927Y0060881D02*
X0158927Y0060881D01*
X0158927Y0060283D02*
X0033927Y0060283D01*
X0034537Y0047116D02*
X0039918Y0047116D01*
X0038880Y0046517D02*
X0035574Y0046517D01*
X0036173Y0045919D02*
X0038282Y0045919D01*
X0037683Y0045320D02*
X0036771Y0045320D01*
X0037039Y0044722D02*
X0037416Y0044722D01*
X0037332Y0039933D02*
X0037122Y0039933D01*
X0036874Y0039335D02*
X0037580Y0039335D01*
X0038081Y0038736D02*
X0036373Y0038736D01*
X0035775Y0038138D02*
X0038680Y0038138D01*
X0039434Y0037539D02*
X0035021Y0037539D01*
X0033576Y0036941D02*
X0040879Y0036941D01*
X0043576Y0036941D02*
X0050879Y0036941D01*
X0049434Y0037539D02*
X0045021Y0037539D01*
X0045775Y0038138D02*
X0048680Y0038138D01*
X0048081Y0038736D02*
X0046373Y0038736D01*
X0046874Y0039335D02*
X0047580Y0039335D01*
X0047332Y0039933D02*
X0047122Y0039933D01*
X0047039Y0044722D02*
X0047416Y0044722D01*
X0047683Y0045320D02*
X0046771Y0045320D01*
X0046173Y0045919D02*
X0048282Y0045919D01*
X0048880Y0046517D02*
X0045574Y0046517D01*
X0044537Y0047116D02*
X0049918Y0047116D01*
X0054537Y0047116D02*
X0059918Y0047116D01*
X0058880Y0046517D02*
X0055574Y0046517D01*
X0056173Y0045919D02*
X0058282Y0045919D01*
X0057683Y0045320D02*
X0056771Y0045320D01*
X0057039Y0044722D02*
X0057416Y0044722D01*
X0057332Y0039933D02*
X0057122Y0039933D01*
X0056874Y0039335D02*
X0057580Y0039335D01*
X0058081Y0038736D02*
X0056373Y0038736D01*
X0055775Y0038138D02*
X0058680Y0038138D01*
X0059434Y0037539D02*
X0055021Y0037539D01*
X0053576Y0036941D02*
X0060879Y0036941D01*
X0063576Y0036941D02*
X0070879Y0036941D01*
X0069434Y0037539D02*
X0065021Y0037539D01*
X0065775Y0038138D02*
X0068680Y0038138D01*
X0068081Y0038736D02*
X0066373Y0038736D01*
X0066874Y0039335D02*
X0067580Y0039335D01*
X0067332Y0039933D02*
X0067122Y0039933D01*
X0067039Y0044722D02*
X0067416Y0044722D01*
X0067683Y0045320D02*
X0066771Y0045320D01*
X0066173Y0045919D02*
X0068282Y0045919D01*
X0068880Y0046517D02*
X0065574Y0046517D01*
X0064537Y0047116D02*
X0069918Y0047116D01*
X0074537Y0047116D02*
X0079918Y0047116D01*
X0078880Y0046517D02*
X0075574Y0046517D01*
X0076173Y0045919D02*
X0078282Y0045919D01*
X0077683Y0045320D02*
X0076771Y0045320D01*
X0077039Y0044722D02*
X0077416Y0044722D01*
X0077332Y0039933D02*
X0077122Y0039933D01*
X0076874Y0039335D02*
X0077580Y0039335D01*
X0078081Y0038736D02*
X0076373Y0038736D01*
X0075775Y0038138D02*
X0078680Y0038138D01*
X0079434Y0037539D02*
X0075021Y0037539D01*
X0073576Y0036941D02*
X0080879Y0036941D01*
X0083576Y0036941D02*
X0090879Y0036941D01*
X0089434Y0037539D02*
X0085021Y0037539D01*
X0085775Y0038138D02*
X0088680Y0038138D01*
X0088081Y0038736D02*
X0086373Y0038736D01*
X0086874Y0039335D02*
X0087580Y0039335D01*
X0087332Y0039933D02*
X0087122Y0039933D01*
X0087039Y0044722D02*
X0087416Y0044722D01*
X0087683Y0045320D02*
X0086771Y0045320D01*
X0086173Y0045919D02*
X0088282Y0045919D01*
X0088880Y0046517D02*
X0085574Y0046517D01*
X0084537Y0047116D02*
X0089918Y0047116D01*
X0094537Y0047116D02*
X0099088Y0047116D01*
X0098315Y0046517D02*
X0095574Y0046517D01*
X0096173Y0045919D02*
X0097740Y0045919D01*
X0097305Y0045320D02*
X0096771Y0045320D01*
X0104628Y0036941D02*
X0109827Y0036941D01*
X0108812Y0037539D02*
X0105643Y0037539D01*
X0106340Y0038138D02*
X0108114Y0038138D01*
X0107594Y0038736D02*
X0106860Y0038736D01*
X0142977Y0014197D02*
X0021477Y0014197D01*
X0021527Y0013599D02*
X0142927Y0013599D01*
X0142927Y0013000D02*
X0021527Y0013000D01*
X0021527Y0012402D02*
X0142927Y0012402D01*
X0142927Y0011803D02*
X0021527Y0011803D01*
X0021527Y0011205D02*
X0142927Y0011205D01*
X0142927Y0010606D02*
X0021527Y0010606D01*
X0021374Y0010008D02*
X0143080Y0010008D01*
X0143328Y0009409D02*
X0021126Y0009409D01*
X0020878Y0008811D02*
X0143576Y0008811D01*
X0143824Y0008212D02*
X0020630Y0008212D01*
X0020383Y0007614D02*
X0144072Y0007614D01*
X0144320Y0007015D02*
X0020135Y0007015D01*
X0019569Y0006417D02*
X0144885Y0006417D01*
X0145484Y0005818D02*
X0018970Y0005818D01*
X0021229Y0014796D02*
X0143225Y0014796D01*
X0143473Y0015394D02*
X0020982Y0015394D01*
X0020734Y0015993D02*
X0143721Y0015993D01*
X0143969Y0016592D02*
X0020486Y0016592D01*
X0020238Y0017190D02*
X0144217Y0017190D01*
X0144636Y0017789D02*
X0019818Y0017789D01*
X0019220Y0018387D02*
X0145235Y0018387D01*
X0145833Y0018986D02*
X0018621Y0018986D01*
X0018023Y0019584D02*
X0146432Y0019584D01*
X0147131Y0020183D02*
X0017323Y0020183D01*
X0015878Y0020781D02*
X0148576Y0020781D01*
X0150021Y0021380D02*
X0014434Y0021380D01*
X0023576Y0036941D02*
X0030879Y0036941D01*
X0029434Y0037539D02*
X0025021Y0037539D01*
X0025775Y0038138D02*
X0028680Y0038138D01*
X0028081Y0038736D02*
X0026373Y0038736D01*
X0026874Y0039335D02*
X0027580Y0039335D01*
X0027332Y0039933D02*
X0027122Y0039933D01*
X0027039Y0044722D02*
X0027416Y0044722D01*
X0027683Y0045320D02*
X0026771Y0045320D01*
X0026173Y0045919D02*
X0028282Y0045919D01*
X0028880Y0046517D02*
X0025574Y0046517D01*
X0024537Y0047116D02*
X0029918Y0047116D01*
X0005527Y0076443D02*
X0064010Y0076443D01*
X0064608Y0077041D02*
X0005527Y0077041D01*
X0024661Y0097391D02*
X0029793Y0097391D01*
X0028829Y0097989D02*
X0025626Y0097989D01*
X0026224Y0098588D02*
X0028230Y0098588D01*
X0027642Y0099186D02*
X0026812Y0099186D01*
X0027060Y0099785D02*
X0027394Y0099785D01*
X0027354Y0104573D02*
X0027101Y0104573D01*
X0026853Y0105171D02*
X0027602Y0105171D01*
X0028133Y0105770D02*
X0026322Y0105770D01*
X0025723Y0106368D02*
X0028731Y0106368D01*
X0029559Y0106967D02*
X0024896Y0106967D01*
X0023451Y0107565D02*
X0031003Y0107565D01*
X0033451Y0107565D02*
X0041003Y0107565D01*
X0039559Y0106967D02*
X0034896Y0106967D01*
X0035723Y0106368D02*
X0038731Y0106368D01*
X0038133Y0105770D02*
X0036322Y0105770D01*
X0036853Y0105171D02*
X0037602Y0105171D01*
X0037354Y0104573D02*
X0037101Y0104573D01*
X0037060Y0099785D02*
X0037394Y0099785D01*
X0037642Y0099186D02*
X0036812Y0099186D01*
X0036224Y0098588D02*
X0038230Y0098588D01*
X0038829Y0097989D02*
X0035626Y0097989D01*
X0034661Y0097391D02*
X0039793Y0097391D01*
X0044661Y0097391D02*
X0049793Y0097391D01*
X0048829Y0097989D02*
X0045626Y0097989D01*
X0046224Y0098588D02*
X0048230Y0098588D01*
X0047642Y0099186D02*
X0046812Y0099186D01*
X0047060Y0099785D02*
X0047394Y0099785D01*
X0047354Y0104573D02*
X0047101Y0104573D01*
X0046853Y0105171D02*
X0047602Y0105171D01*
X0048133Y0105770D02*
X0046322Y0105770D01*
X0045723Y0106368D02*
X0048731Y0106368D01*
X0049559Y0106967D02*
X0044896Y0106967D01*
X0043451Y0107565D02*
X0051003Y0107565D01*
X0053451Y0107565D02*
X0061003Y0107565D01*
X0059559Y0106967D02*
X0054896Y0106967D01*
X0055723Y0106368D02*
X0058731Y0106368D01*
X0058133Y0105770D02*
X0056322Y0105770D01*
X0056853Y0105171D02*
X0057602Y0105171D01*
X0057354Y0104573D02*
X0057101Y0104573D01*
X0057060Y0099785D02*
X0057394Y0099785D01*
X0057642Y0099186D02*
X0056812Y0099186D01*
X0056224Y0098588D02*
X0058230Y0098588D01*
X0058829Y0097989D02*
X0055626Y0097989D01*
X0054661Y0097391D02*
X0059793Y0097391D01*
X0064661Y0097391D02*
X0069793Y0097391D01*
X0068829Y0097989D02*
X0065626Y0097989D01*
X0066224Y0098588D02*
X0068230Y0098588D01*
X0067642Y0099186D02*
X0066812Y0099186D01*
X0067060Y0099785D02*
X0067394Y0099785D01*
X0067354Y0104573D02*
X0067101Y0104573D01*
X0066853Y0105171D02*
X0067602Y0105171D01*
X0068133Y0105770D02*
X0066322Y0105770D01*
X0065723Y0106368D02*
X0068731Y0106368D01*
X0069559Y0106967D02*
X0064896Y0106967D01*
X0063451Y0107565D02*
X0071003Y0107565D01*
X0017487Y0133301D02*
X0015421Y0133301D01*
X0014682Y0133900D02*
X0016747Y0133900D01*
X0009053Y0143476D02*
X0005527Y0143476D01*
X0005527Y0144074D02*
X0007608Y0144074D01*
X0006629Y0144673D02*
X0005527Y0144673D01*
X0005527Y0145271D02*
X0006031Y0145271D01*
D14*
X0066227Y0074727D03*
X0092227Y0054227D03*
X0127227Y0057227D03*
X0032227Y0057227D03*
D15*
X0032227Y0067227D01*
X0039727Y0074727D01*
X0066227Y0074727D01*
X0092227Y0054227D02*
X0124227Y0054227D01*
X0127227Y0057227D01*
X0111727Y0130727D02*
X0150121Y0130727D01*
X0135994Y0145227D02*
X0106227Y0145227D01*
X0091727Y0130727D01*
X0071727Y0130727D02*
X0051227Y0151227D01*
X0034494Y0151227D01*
X0045727Y0136727D02*
X0051727Y0130727D01*
X0045727Y0136727D02*
X0019121Y0136727D01*
D16*
X0069727Y0089727D02*
X0062227Y0082227D01*
X0069727Y0089727D02*
X0094727Y0089727D01*
X0102227Y0082227D01*
D17*
X0111727Y0130727D03*
X0091727Y0130727D03*
X0071727Y0130727D03*
X0051727Y0130727D03*
D18*
X0034494Y0151227D02*
X0034414Y0151307D01*
X0019121Y0136727D02*
X0018807Y0136414D01*
X0135994Y0145227D02*
X0136414Y0145647D01*
X0150121Y0130727D02*
X0150807Y0130041D01*
M02*
