G75*
%MOIN*%
%OFA0B0*%
%FSLAX25Y25*%
%IPPOS*%
%LPD*%
%AMOC8*
5,1,8,0,0,1.08239X$1,22.5*
%
%ADD10C,0.01000*%
%ADD11C,0.00000*%
D10*
X0002227Y0002227D02*
X0002227Y0162227D01*
X0162227Y0162227D01*
X0162227Y0002227D01*
X0002227Y0002227D01*
D11*
X0005727Y0012227D02*
X0005729Y0012388D01*
X0005735Y0012548D01*
X0005745Y0012709D01*
X0005759Y0012869D01*
X0005777Y0013029D01*
X0005798Y0013188D01*
X0005824Y0013347D01*
X0005854Y0013505D01*
X0005887Y0013662D01*
X0005925Y0013819D01*
X0005966Y0013974D01*
X0006011Y0014128D01*
X0006060Y0014281D01*
X0006113Y0014433D01*
X0006169Y0014584D01*
X0006230Y0014733D01*
X0006293Y0014881D01*
X0006361Y0015027D01*
X0006432Y0015171D01*
X0006506Y0015313D01*
X0006584Y0015454D01*
X0006666Y0015592D01*
X0006751Y0015729D01*
X0006839Y0015863D01*
X0006931Y0015995D01*
X0007026Y0016125D01*
X0007124Y0016253D01*
X0007225Y0016378D01*
X0007329Y0016500D01*
X0007436Y0016620D01*
X0007546Y0016737D01*
X0007659Y0016852D01*
X0007775Y0016963D01*
X0007894Y0017072D01*
X0008015Y0017177D01*
X0008139Y0017280D01*
X0008265Y0017380D01*
X0008393Y0017476D01*
X0008524Y0017569D01*
X0008658Y0017659D01*
X0008793Y0017746D01*
X0008931Y0017829D01*
X0009070Y0017909D01*
X0009212Y0017985D01*
X0009355Y0018058D01*
X0009500Y0018127D01*
X0009647Y0018193D01*
X0009795Y0018255D01*
X0009945Y0018313D01*
X0010096Y0018368D01*
X0010249Y0018419D01*
X0010403Y0018466D01*
X0010558Y0018509D01*
X0010714Y0018548D01*
X0010870Y0018584D01*
X0011028Y0018615D01*
X0011186Y0018643D01*
X0011345Y0018667D01*
X0011505Y0018687D01*
X0011665Y0018703D01*
X0011825Y0018715D01*
X0011986Y0018723D01*
X0012147Y0018727D01*
X0012307Y0018727D01*
X0012468Y0018723D01*
X0012629Y0018715D01*
X0012789Y0018703D01*
X0012949Y0018687D01*
X0013109Y0018667D01*
X0013268Y0018643D01*
X0013426Y0018615D01*
X0013584Y0018584D01*
X0013740Y0018548D01*
X0013896Y0018509D01*
X0014051Y0018466D01*
X0014205Y0018419D01*
X0014358Y0018368D01*
X0014509Y0018313D01*
X0014659Y0018255D01*
X0014807Y0018193D01*
X0014954Y0018127D01*
X0015099Y0018058D01*
X0015242Y0017985D01*
X0015384Y0017909D01*
X0015523Y0017829D01*
X0015661Y0017746D01*
X0015796Y0017659D01*
X0015930Y0017569D01*
X0016061Y0017476D01*
X0016189Y0017380D01*
X0016315Y0017280D01*
X0016439Y0017177D01*
X0016560Y0017072D01*
X0016679Y0016963D01*
X0016795Y0016852D01*
X0016908Y0016737D01*
X0017018Y0016620D01*
X0017125Y0016500D01*
X0017229Y0016378D01*
X0017330Y0016253D01*
X0017428Y0016125D01*
X0017523Y0015995D01*
X0017615Y0015863D01*
X0017703Y0015729D01*
X0017788Y0015592D01*
X0017870Y0015454D01*
X0017948Y0015313D01*
X0018022Y0015171D01*
X0018093Y0015027D01*
X0018161Y0014881D01*
X0018224Y0014733D01*
X0018285Y0014584D01*
X0018341Y0014433D01*
X0018394Y0014281D01*
X0018443Y0014128D01*
X0018488Y0013974D01*
X0018529Y0013819D01*
X0018567Y0013662D01*
X0018600Y0013505D01*
X0018630Y0013347D01*
X0018656Y0013188D01*
X0018677Y0013029D01*
X0018695Y0012869D01*
X0018709Y0012709D01*
X0018719Y0012548D01*
X0018725Y0012388D01*
X0018727Y0012227D01*
X0018725Y0012066D01*
X0018719Y0011906D01*
X0018709Y0011745D01*
X0018695Y0011585D01*
X0018677Y0011425D01*
X0018656Y0011266D01*
X0018630Y0011107D01*
X0018600Y0010949D01*
X0018567Y0010792D01*
X0018529Y0010635D01*
X0018488Y0010480D01*
X0018443Y0010326D01*
X0018394Y0010173D01*
X0018341Y0010021D01*
X0018285Y0009870D01*
X0018224Y0009721D01*
X0018161Y0009573D01*
X0018093Y0009427D01*
X0018022Y0009283D01*
X0017948Y0009141D01*
X0017870Y0009000D01*
X0017788Y0008862D01*
X0017703Y0008725D01*
X0017615Y0008591D01*
X0017523Y0008459D01*
X0017428Y0008329D01*
X0017330Y0008201D01*
X0017229Y0008076D01*
X0017125Y0007954D01*
X0017018Y0007834D01*
X0016908Y0007717D01*
X0016795Y0007602D01*
X0016679Y0007491D01*
X0016560Y0007382D01*
X0016439Y0007277D01*
X0016315Y0007174D01*
X0016189Y0007074D01*
X0016061Y0006978D01*
X0015930Y0006885D01*
X0015796Y0006795D01*
X0015661Y0006708D01*
X0015523Y0006625D01*
X0015384Y0006545D01*
X0015242Y0006469D01*
X0015099Y0006396D01*
X0014954Y0006327D01*
X0014807Y0006261D01*
X0014659Y0006199D01*
X0014509Y0006141D01*
X0014358Y0006086D01*
X0014205Y0006035D01*
X0014051Y0005988D01*
X0013896Y0005945D01*
X0013740Y0005906D01*
X0013584Y0005870D01*
X0013426Y0005839D01*
X0013268Y0005811D01*
X0013109Y0005787D01*
X0012949Y0005767D01*
X0012789Y0005751D01*
X0012629Y0005739D01*
X0012468Y0005731D01*
X0012307Y0005727D01*
X0012147Y0005727D01*
X0011986Y0005731D01*
X0011825Y0005739D01*
X0011665Y0005751D01*
X0011505Y0005767D01*
X0011345Y0005787D01*
X0011186Y0005811D01*
X0011028Y0005839D01*
X0010870Y0005870D01*
X0010714Y0005906D01*
X0010558Y0005945D01*
X0010403Y0005988D01*
X0010249Y0006035D01*
X0010096Y0006086D01*
X0009945Y0006141D01*
X0009795Y0006199D01*
X0009647Y0006261D01*
X0009500Y0006327D01*
X0009355Y0006396D01*
X0009212Y0006469D01*
X0009070Y0006545D01*
X0008931Y0006625D01*
X0008793Y0006708D01*
X0008658Y0006795D01*
X0008524Y0006885D01*
X0008393Y0006978D01*
X0008265Y0007074D01*
X0008139Y0007174D01*
X0008015Y0007277D01*
X0007894Y0007382D01*
X0007775Y0007491D01*
X0007659Y0007602D01*
X0007546Y0007717D01*
X0007436Y0007834D01*
X0007329Y0007954D01*
X0007225Y0008076D01*
X0007124Y0008201D01*
X0007026Y0008329D01*
X0006931Y0008459D01*
X0006839Y0008591D01*
X0006751Y0008725D01*
X0006666Y0008862D01*
X0006584Y0009000D01*
X0006506Y0009141D01*
X0006432Y0009283D01*
X0006361Y0009427D01*
X0006293Y0009573D01*
X0006230Y0009721D01*
X0006169Y0009870D01*
X0006113Y0010021D01*
X0006060Y0010173D01*
X0006011Y0010326D01*
X0005966Y0010480D01*
X0005925Y0010635D01*
X0005887Y0010792D01*
X0005854Y0010949D01*
X0005824Y0011107D01*
X0005798Y0011266D01*
X0005777Y0011425D01*
X0005759Y0011585D01*
X0005745Y0011745D01*
X0005735Y0011906D01*
X0005729Y0012066D01*
X0005727Y0012227D01*
X0005727Y0152227D02*
X0005729Y0152388D01*
X0005735Y0152548D01*
X0005745Y0152709D01*
X0005759Y0152869D01*
X0005777Y0153029D01*
X0005798Y0153188D01*
X0005824Y0153347D01*
X0005854Y0153505D01*
X0005887Y0153662D01*
X0005925Y0153819D01*
X0005966Y0153974D01*
X0006011Y0154128D01*
X0006060Y0154281D01*
X0006113Y0154433D01*
X0006169Y0154584D01*
X0006230Y0154733D01*
X0006293Y0154881D01*
X0006361Y0155027D01*
X0006432Y0155171D01*
X0006506Y0155313D01*
X0006584Y0155454D01*
X0006666Y0155592D01*
X0006751Y0155729D01*
X0006839Y0155863D01*
X0006931Y0155995D01*
X0007026Y0156125D01*
X0007124Y0156253D01*
X0007225Y0156378D01*
X0007329Y0156500D01*
X0007436Y0156620D01*
X0007546Y0156737D01*
X0007659Y0156852D01*
X0007775Y0156963D01*
X0007894Y0157072D01*
X0008015Y0157177D01*
X0008139Y0157280D01*
X0008265Y0157380D01*
X0008393Y0157476D01*
X0008524Y0157569D01*
X0008658Y0157659D01*
X0008793Y0157746D01*
X0008931Y0157829D01*
X0009070Y0157909D01*
X0009212Y0157985D01*
X0009355Y0158058D01*
X0009500Y0158127D01*
X0009647Y0158193D01*
X0009795Y0158255D01*
X0009945Y0158313D01*
X0010096Y0158368D01*
X0010249Y0158419D01*
X0010403Y0158466D01*
X0010558Y0158509D01*
X0010714Y0158548D01*
X0010870Y0158584D01*
X0011028Y0158615D01*
X0011186Y0158643D01*
X0011345Y0158667D01*
X0011505Y0158687D01*
X0011665Y0158703D01*
X0011825Y0158715D01*
X0011986Y0158723D01*
X0012147Y0158727D01*
X0012307Y0158727D01*
X0012468Y0158723D01*
X0012629Y0158715D01*
X0012789Y0158703D01*
X0012949Y0158687D01*
X0013109Y0158667D01*
X0013268Y0158643D01*
X0013426Y0158615D01*
X0013584Y0158584D01*
X0013740Y0158548D01*
X0013896Y0158509D01*
X0014051Y0158466D01*
X0014205Y0158419D01*
X0014358Y0158368D01*
X0014509Y0158313D01*
X0014659Y0158255D01*
X0014807Y0158193D01*
X0014954Y0158127D01*
X0015099Y0158058D01*
X0015242Y0157985D01*
X0015384Y0157909D01*
X0015523Y0157829D01*
X0015661Y0157746D01*
X0015796Y0157659D01*
X0015930Y0157569D01*
X0016061Y0157476D01*
X0016189Y0157380D01*
X0016315Y0157280D01*
X0016439Y0157177D01*
X0016560Y0157072D01*
X0016679Y0156963D01*
X0016795Y0156852D01*
X0016908Y0156737D01*
X0017018Y0156620D01*
X0017125Y0156500D01*
X0017229Y0156378D01*
X0017330Y0156253D01*
X0017428Y0156125D01*
X0017523Y0155995D01*
X0017615Y0155863D01*
X0017703Y0155729D01*
X0017788Y0155592D01*
X0017870Y0155454D01*
X0017948Y0155313D01*
X0018022Y0155171D01*
X0018093Y0155027D01*
X0018161Y0154881D01*
X0018224Y0154733D01*
X0018285Y0154584D01*
X0018341Y0154433D01*
X0018394Y0154281D01*
X0018443Y0154128D01*
X0018488Y0153974D01*
X0018529Y0153819D01*
X0018567Y0153662D01*
X0018600Y0153505D01*
X0018630Y0153347D01*
X0018656Y0153188D01*
X0018677Y0153029D01*
X0018695Y0152869D01*
X0018709Y0152709D01*
X0018719Y0152548D01*
X0018725Y0152388D01*
X0018727Y0152227D01*
X0018725Y0152066D01*
X0018719Y0151906D01*
X0018709Y0151745D01*
X0018695Y0151585D01*
X0018677Y0151425D01*
X0018656Y0151266D01*
X0018630Y0151107D01*
X0018600Y0150949D01*
X0018567Y0150792D01*
X0018529Y0150635D01*
X0018488Y0150480D01*
X0018443Y0150326D01*
X0018394Y0150173D01*
X0018341Y0150021D01*
X0018285Y0149870D01*
X0018224Y0149721D01*
X0018161Y0149573D01*
X0018093Y0149427D01*
X0018022Y0149283D01*
X0017948Y0149141D01*
X0017870Y0149000D01*
X0017788Y0148862D01*
X0017703Y0148725D01*
X0017615Y0148591D01*
X0017523Y0148459D01*
X0017428Y0148329D01*
X0017330Y0148201D01*
X0017229Y0148076D01*
X0017125Y0147954D01*
X0017018Y0147834D01*
X0016908Y0147717D01*
X0016795Y0147602D01*
X0016679Y0147491D01*
X0016560Y0147382D01*
X0016439Y0147277D01*
X0016315Y0147174D01*
X0016189Y0147074D01*
X0016061Y0146978D01*
X0015930Y0146885D01*
X0015796Y0146795D01*
X0015661Y0146708D01*
X0015523Y0146625D01*
X0015384Y0146545D01*
X0015242Y0146469D01*
X0015099Y0146396D01*
X0014954Y0146327D01*
X0014807Y0146261D01*
X0014659Y0146199D01*
X0014509Y0146141D01*
X0014358Y0146086D01*
X0014205Y0146035D01*
X0014051Y0145988D01*
X0013896Y0145945D01*
X0013740Y0145906D01*
X0013584Y0145870D01*
X0013426Y0145839D01*
X0013268Y0145811D01*
X0013109Y0145787D01*
X0012949Y0145767D01*
X0012789Y0145751D01*
X0012629Y0145739D01*
X0012468Y0145731D01*
X0012307Y0145727D01*
X0012147Y0145727D01*
X0011986Y0145731D01*
X0011825Y0145739D01*
X0011665Y0145751D01*
X0011505Y0145767D01*
X0011345Y0145787D01*
X0011186Y0145811D01*
X0011028Y0145839D01*
X0010870Y0145870D01*
X0010714Y0145906D01*
X0010558Y0145945D01*
X0010403Y0145988D01*
X0010249Y0146035D01*
X0010096Y0146086D01*
X0009945Y0146141D01*
X0009795Y0146199D01*
X0009647Y0146261D01*
X0009500Y0146327D01*
X0009355Y0146396D01*
X0009212Y0146469D01*
X0009070Y0146545D01*
X0008931Y0146625D01*
X0008793Y0146708D01*
X0008658Y0146795D01*
X0008524Y0146885D01*
X0008393Y0146978D01*
X0008265Y0147074D01*
X0008139Y0147174D01*
X0008015Y0147277D01*
X0007894Y0147382D01*
X0007775Y0147491D01*
X0007659Y0147602D01*
X0007546Y0147717D01*
X0007436Y0147834D01*
X0007329Y0147954D01*
X0007225Y0148076D01*
X0007124Y0148201D01*
X0007026Y0148329D01*
X0006931Y0148459D01*
X0006839Y0148591D01*
X0006751Y0148725D01*
X0006666Y0148862D01*
X0006584Y0149000D01*
X0006506Y0149141D01*
X0006432Y0149283D01*
X0006361Y0149427D01*
X0006293Y0149573D01*
X0006230Y0149721D01*
X0006169Y0149870D01*
X0006113Y0150021D01*
X0006060Y0150173D01*
X0006011Y0150326D01*
X0005966Y0150480D01*
X0005925Y0150635D01*
X0005887Y0150792D01*
X0005854Y0150949D01*
X0005824Y0151107D01*
X0005798Y0151266D01*
X0005777Y0151425D01*
X0005759Y0151585D01*
X0005745Y0151745D01*
X0005735Y0151906D01*
X0005729Y0152066D01*
X0005727Y0152227D01*
X0145727Y0152227D02*
X0145729Y0152388D01*
X0145735Y0152548D01*
X0145745Y0152709D01*
X0145759Y0152869D01*
X0145777Y0153029D01*
X0145798Y0153188D01*
X0145824Y0153347D01*
X0145854Y0153505D01*
X0145887Y0153662D01*
X0145925Y0153819D01*
X0145966Y0153974D01*
X0146011Y0154128D01*
X0146060Y0154281D01*
X0146113Y0154433D01*
X0146169Y0154584D01*
X0146230Y0154733D01*
X0146293Y0154881D01*
X0146361Y0155027D01*
X0146432Y0155171D01*
X0146506Y0155313D01*
X0146584Y0155454D01*
X0146666Y0155592D01*
X0146751Y0155729D01*
X0146839Y0155863D01*
X0146931Y0155995D01*
X0147026Y0156125D01*
X0147124Y0156253D01*
X0147225Y0156378D01*
X0147329Y0156500D01*
X0147436Y0156620D01*
X0147546Y0156737D01*
X0147659Y0156852D01*
X0147775Y0156963D01*
X0147894Y0157072D01*
X0148015Y0157177D01*
X0148139Y0157280D01*
X0148265Y0157380D01*
X0148393Y0157476D01*
X0148524Y0157569D01*
X0148658Y0157659D01*
X0148793Y0157746D01*
X0148931Y0157829D01*
X0149070Y0157909D01*
X0149212Y0157985D01*
X0149355Y0158058D01*
X0149500Y0158127D01*
X0149647Y0158193D01*
X0149795Y0158255D01*
X0149945Y0158313D01*
X0150096Y0158368D01*
X0150249Y0158419D01*
X0150403Y0158466D01*
X0150558Y0158509D01*
X0150714Y0158548D01*
X0150870Y0158584D01*
X0151028Y0158615D01*
X0151186Y0158643D01*
X0151345Y0158667D01*
X0151505Y0158687D01*
X0151665Y0158703D01*
X0151825Y0158715D01*
X0151986Y0158723D01*
X0152147Y0158727D01*
X0152307Y0158727D01*
X0152468Y0158723D01*
X0152629Y0158715D01*
X0152789Y0158703D01*
X0152949Y0158687D01*
X0153109Y0158667D01*
X0153268Y0158643D01*
X0153426Y0158615D01*
X0153584Y0158584D01*
X0153740Y0158548D01*
X0153896Y0158509D01*
X0154051Y0158466D01*
X0154205Y0158419D01*
X0154358Y0158368D01*
X0154509Y0158313D01*
X0154659Y0158255D01*
X0154807Y0158193D01*
X0154954Y0158127D01*
X0155099Y0158058D01*
X0155242Y0157985D01*
X0155384Y0157909D01*
X0155523Y0157829D01*
X0155661Y0157746D01*
X0155796Y0157659D01*
X0155930Y0157569D01*
X0156061Y0157476D01*
X0156189Y0157380D01*
X0156315Y0157280D01*
X0156439Y0157177D01*
X0156560Y0157072D01*
X0156679Y0156963D01*
X0156795Y0156852D01*
X0156908Y0156737D01*
X0157018Y0156620D01*
X0157125Y0156500D01*
X0157229Y0156378D01*
X0157330Y0156253D01*
X0157428Y0156125D01*
X0157523Y0155995D01*
X0157615Y0155863D01*
X0157703Y0155729D01*
X0157788Y0155592D01*
X0157870Y0155454D01*
X0157948Y0155313D01*
X0158022Y0155171D01*
X0158093Y0155027D01*
X0158161Y0154881D01*
X0158224Y0154733D01*
X0158285Y0154584D01*
X0158341Y0154433D01*
X0158394Y0154281D01*
X0158443Y0154128D01*
X0158488Y0153974D01*
X0158529Y0153819D01*
X0158567Y0153662D01*
X0158600Y0153505D01*
X0158630Y0153347D01*
X0158656Y0153188D01*
X0158677Y0153029D01*
X0158695Y0152869D01*
X0158709Y0152709D01*
X0158719Y0152548D01*
X0158725Y0152388D01*
X0158727Y0152227D01*
X0158725Y0152066D01*
X0158719Y0151906D01*
X0158709Y0151745D01*
X0158695Y0151585D01*
X0158677Y0151425D01*
X0158656Y0151266D01*
X0158630Y0151107D01*
X0158600Y0150949D01*
X0158567Y0150792D01*
X0158529Y0150635D01*
X0158488Y0150480D01*
X0158443Y0150326D01*
X0158394Y0150173D01*
X0158341Y0150021D01*
X0158285Y0149870D01*
X0158224Y0149721D01*
X0158161Y0149573D01*
X0158093Y0149427D01*
X0158022Y0149283D01*
X0157948Y0149141D01*
X0157870Y0149000D01*
X0157788Y0148862D01*
X0157703Y0148725D01*
X0157615Y0148591D01*
X0157523Y0148459D01*
X0157428Y0148329D01*
X0157330Y0148201D01*
X0157229Y0148076D01*
X0157125Y0147954D01*
X0157018Y0147834D01*
X0156908Y0147717D01*
X0156795Y0147602D01*
X0156679Y0147491D01*
X0156560Y0147382D01*
X0156439Y0147277D01*
X0156315Y0147174D01*
X0156189Y0147074D01*
X0156061Y0146978D01*
X0155930Y0146885D01*
X0155796Y0146795D01*
X0155661Y0146708D01*
X0155523Y0146625D01*
X0155384Y0146545D01*
X0155242Y0146469D01*
X0155099Y0146396D01*
X0154954Y0146327D01*
X0154807Y0146261D01*
X0154659Y0146199D01*
X0154509Y0146141D01*
X0154358Y0146086D01*
X0154205Y0146035D01*
X0154051Y0145988D01*
X0153896Y0145945D01*
X0153740Y0145906D01*
X0153584Y0145870D01*
X0153426Y0145839D01*
X0153268Y0145811D01*
X0153109Y0145787D01*
X0152949Y0145767D01*
X0152789Y0145751D01*
X0152629Y0145739D01*
X0152468Y0145731D01*
X0152307Y0145727D01*
X0152147Y0145727D01*
X0151986Y0145731D01*
X0151825Y0145739D01*
X0151665Y0145751D01*
X0151505Y0145767D01*
X0151345Y0145787D01*
X0151186Y0145811D01*
X0151028Y0145839D01*
X0150870Y0145870D01*
X0150714Y0145906D01*
X0150558Y0145945D01*
X0150403Y0145988D01*
X0150249Y0146035D01*
X0150096Y0146086D01*
X0149945Y0146141D01*
X0149795Y0146199D01*
X0149647Y0146261D01*
X0149500Y0146327D01*
X0149355Y0146396D01*
X0149212Y0146469D01*
X0149070Y0146545D01*
X0148931Y0146625D01*
X0148793Y0146708D01*
X0148658Y0146795D01*
X0148524Y0146885D01*
X0148393Y0146978D01*
X0148265Y0147074D01*
X0148139Y0147174D01*
X0148015Y0147277D01*
X0147894Y0147382D01*
X0147775Y0147491D01*
X0147659Y0147602D01*
X0147546Y0147717D01*
X0147436Y0147834D01*
X0147329Y0147954D01*
X0147225Y0148076D01*
X0147124Y0148201D01*
X0147026Y0148329D01*
X0146931Y0148459D01*
X0146839Y0148591D01*
X0146751Y0148725D01*
X0146666Y0148862D01*
X0146584Y0149000D01*
X0146506Y0149141D01*
X0146432Y0149283D01*
X0146361Y0149427D01*
X0146293Y0149573D01*
X0146230Y0149721D01*
X0146169Y0149870D01*
X0146113Y0150021D01*
X0146060Y0150173D01*
X0146011Y0150326D01*
X0145966Y0150480D01*
X0145925Y0150635D01*
X0145887Y0150792D01*
X0145854Y0150949D01*
X0145824Y0151107D01*
X0145798Y0151266D01*
X0145777Y0151425D01*
X0145759Y0151585D01*
X0145745Y0151745D01*
X0145735Y0151906D01*
X0145729Y0152066D01*
X0145727Y0152227D01*
X0145727Y0012227D02*
X0145729Y0012388D01*
X0145735Y0012548D01*
X0145745Y0012709D01*
X0145759Y0012869D01*
X0145777Y0013029D01*
X0145798Y0013188D01*
X0145824Y0013347D01*
X0145854Y0013505D01*
X0145887Y0013662D01*
X0145925Y0013819D01*
X0145966Y0013974D01*
X0146011Y0014128D01*
X0146060Y0014281D01*
X0146113Y0014433D01*
X0146169Y0014584D01*
X0146230Y0014733D01*
X0146293Y0014881D01*
X0146361Y0015027D01*
X0146432Y0015171D01*
X0146506Y0015313D01*
X0146584Y0015454D01*
X0146666Y0015592D01*
X0146751Y0015729D01*
X0146839Y0015863D01*
X0146931Y0015995D01*
X0147026Y0016125D01*
X0147124Y0016253D01*
X0147225Y0016378D01*
X0147329Y0016500D01*
X0147436Y0016620D01*
X0147546Y0016737D01*
X0147659Y0016852D01*
X0147775Y0016963D01*
X0147894Y0017072D01*
X0148015Y0017177D01*
X0148139Y0017280D01*
X0148265Y0017380D01*
X0148393Y0017476D01*
X0148524Y0017569D01*
X0148658Y0017659D01*
X0148793Y0017746D01*
X0148931Y0017829D01*
X0149070Y0017909D01*
X0149212Y0017985D01*
X0149355Y0018058D01*
X0149500Y0018127D01*
X0149647Y0018193D01*
X0149795Y0018255D01*
X0149945Y0018313D01*
X0150096Y0018368D01*
X0150249Y0018419D01*
X0150403Y0018466D01*
X0150558Y0018509D01*
X0150714Y0018548D01*
X0150870Y0018584D01*
X0151028Y0018615D01*
X0151186Y0018643D01*
X0151345Y0018667D01*
X0151505Y0018687D01*
X0151665Y0018703D01*
X0151825Y0018715D01*
X0151986Y0018723D01*
X0152147Y0018727D01*
X0152307Y0018727D01*
X0152468Y0018723D01*
X0152629Y0018715D01*
X0152789Y0018703D01*
X0152949Y0018687D01*
X0153109Y0018667D01*
X0153268Y0018643D01*
X0153426Y0018615D01*
X0153584Y0018584D01*
X0153740Y0018548D01*
X0153896Y0018509D01*
X0154051Y0018466D01*
X0154205Y0018419D01*
X0154358Y0018368D01*
X0154509Y0018313D01*
X0154659Y0018255D01*
X0154807Y0018193D01*
X0154954Y0018127D01*
X0155099Y0018058D01*
X0155242Y0017985D01*
X0155384Y0017909D01*
X0155523Y0017829D01*
X0155661Y0017746D01*
X0155796Y0017659D01*
X0155930Y0017569D01*
X0156061Y0017476D01*
X0156189Y0017380D01*
X0156315Y0017280D01*
X0156439Y0017177D01*
X0156560Y0017072D01*
X0156679Y0016963D01*
X0156795Y0016852D01*
X0156908Y0016737D01*
X0157018Y0016620D01*
X0157125Y0016500D01*
X0157229Y0016378D01*
X0157330Y0016253D01*
X0157428Y0016125D01*
X0157523Y0015995D01*
X0157615Y0015863D01*
X0157703Y0015729D01*
X0157788Y0015592D01*
X0157870Y0015454D01*
X0157948Y0015313D01*
X0158022Y0015171D01*
X0158093Y0015027D01*
X0158161Y0014881D01*
X0158224Y0014733D01*
X0158285Y0014584D01*
X0158341Y0014433D01*
X0158394Y0014281D01*
X0158443Y0014128D01*
X0158488Y0013974D01*
X0158529Y0013819D01*
X0158567Y0013662D01*
X0158600Y0013505D01*
X0158630Y0013347D01*
X0158656Y0013188D01*
X0158677Y0013029D01*
X0158695Y0012869D01*
X0158709Y0012709D01*
X0158719Y0012548D01*
X0158725Y0012388D01*
X0158727Y0012227D01*
X0158725Y0012066D01*
X0158719Y0011906D01*
X0158709Y0011745D01*
X0158695Y0011585D01*
X0158677Y0011425D01*
X0158656Y0011266D01*
X0158630Y0011107D01*
X0158600Y0010949D01*
X0158567Y0010792D01*
X0158529Y0010635D01*
X0158488Y0010480D01*
X0158443Y0010326D01*
X0158394Y0010173D01*
X0158341Y0010021D01*
X0158285Y0009870D01*
X0158224Y0009721D01*
X0158161Y0009573D01*
X0158093Y0009427D01*
X0158022Y0009283D01*
X0157948Y0009141D01*
X0157870Y0009000D01*
X0157788Y0008862D01*
X0157703Y0008725D01*
X0157615Y0008591D01*
X0157523Y0008459D01*
X0157428Y0008329D01*
X0157330Y0008201D01*
X0157229Y0008076D01*
X0157125Y0007954D01*
X0157018Y0007834D01*
X0156908Y0007717D01*
X0156795Y0007602D01*
X0156679Y0007491D01*
X0156560Y0007382D01*
X0156439Y0007277D01*
X0156315Y0007174D01*
X0156189Y0007074D01*
X0156061Y0006978D01*
X0155930Y0006885D01*
X0155796Y0006795D01*
X0155661Y0006708D01*
X0155523Y0006625D01*
X0155384Y0006545D01*
X0155242Y0006469D01*
X0155099Y0006396D01*
X0154954Y0006327D01*
X0154807Y0006261D01*
X0154659Y0006199D01*
X0154509Y0006141D01*
X0154358Y0006086D01*
X0154205Y0006035D01*
X0154051Y0005988D01*
X0153896Y0005945D01*
X0153740Y0005906D01*
X0153584Y0005870D01*
X0153426Y0005839D01*
X0153268Y0005811D01*
X0153109Y0005787D01*
X0152949Y0005767D01*
X0152789Y0005751D01*
X0152629Y0005739D01*
X0152468Y0005731D01*
X0152307Y0005727D01*
X0152147Y0005727D01*
X0151986Y0005731D01*
X0151825Y0005739D01*
X0151665Y0005751D01*
X0151505Y0005767D01*
X0151345Y0005787D01*
X0151186Y0005811D01*
X0151028Y0005839D01*
X0150870Y0005870D01*
X0150714Y0005906D01*
X0150558Y0005945D01*
X0150403Y0005988D01*
X0150249Y0006035D01*
X0150096Y0006086D01*
X0149945Y0006141D01*
X0149795Y0006199D01*
X0149647Y0006261D01*
X0149500Y0006327D01*
X0149355Y0006396D01*
X0149212Y0006469D01*
X0149070Y0006545D01*
X0148931Y0006625D01*
X0148793Y0006708D01*
X0148658Y0006795D01*
X0148524Y0006885D01*
X0148393Y0006978D01*
X0148265Y0007074D01*
X0148139Y0007174D01*
X0148015Y0007277D01*
X0147894Y0007382D01*
X0147775Y0007491D01*
X0147659Y0007602D01*
X0147546Y0007717D01*
X0147436Y0007834D01*
X0147329Y0007954D01*
X0147225Y0008076D01*
X0147124Y0008201D01*
X0147026Y0008329D01*
X0146931Y0008459D01*
X0146839Y0008591D01*
X0146751Y0008725D01*
X0146666Y0008862D01*
X0146584Y0009000D01*
X0146506Y0009141D01*
X0146432Y0009283D01*
X0146361Y0009427D01*
X0146293Y0009573D01*
X0146230Y0009721D01*
X0146169Y0009870D01*
X0146113Y0010021D01*
X0146060Y0010173D01*
X0146011Y0010326D01*
X0145966Y0010480D01*
X0145925Y0010635D01*
X0145887Y0010792D01*
X0145854Y0010949D01*
X0145824Y0011107D01*
X0145798Y0011266D01*
X0145777Y0011425D01*
X0145759Y0011585D01*
X0145745Y0011745D01*
X0145735Y0011906D01*
X0145729Y0012066D01*
X0145727Y0012227D01*
M02*
