G75*
%MOIN*%
%OFA0B0*%
%FSLAX25Y25*%
%IPPOS*%
%LPD*%
%AMOC8*
5,1,8,0,0,1.08239X$1,22.5*
%
%ADD10C,0.08400*%
%ADD11R,0.05331X0.04937*%
%ADD12R,0.04543X0.04150*%
%ADD13R,0.04937X0.05331*%
%ADD14C,0.14000*%
%ADD15C,0.10000*%
%ADD16C,0.04762*%
D10*
X0062227Y0082227D03*
X0072227Y0082227D03*
X0092227Y0082227D03*
X0102227Y0082227D03*
D11*
X0121227Y0064074D03*
X0121227Y0057381D03*
X0111127Y0030074D03*
X0111127Y0023381D03*
X0102127Y0023381D03*
X0102127Y0030074D03*
X0043227Y0059381D03*
X0043227Y0066074D03*
X0047227Y0123881D03*
X0047227Y0130574D03*
X0067227Y0130574D03*
X0067227Y0123881D03*
X0087227Y0123881D03*
X0087227Y0130574D03*
X0107227Y0130574D03*
X0107227Y0123881D03*
D12*
X0096290Y0062967D03*
X0096290Y0055487D03*
X0104558Y0059227D03*
X0078164Y0055487D03*
X0078164Y0062967D03*
X0069897Y0059227D03*
D13*
X0043227Y0076381D03*
X0043227Y0083074D03*
D14*
X0012227Y0012227D03*
X0012227Y0152227D03*
X0152227Y0152227D03*
X0152227Y0012227D03*
D15*
X0141227Y0044227D03*
X0131227Y0044227D03*
X0121227Y0044227D03*
X0111227Y0044227D03*
X0101227Y0044227D03*
X0091227Y0044227D03*
X0081227Y0044227D03*
X0071227Y0044227D03*
X0061227Y0044227D03*
X0051227Y0044227D03*
X0041227Y0044227D03*
X0031227Y0044227D03*
X0031227Y0104227D03*
X0041227Y0104227D03*
X0051227Y0104227D03*
X0061227Y0104227D03*
X0071227Y0104227D03*
X0081227Y0104227D03*
X0091227Y0104227D03*
X0101227Y0104227D03*
X0111227Y0104227D03*
X0121227Y0104227D03*
X0131227Y0104227D03*
X0141227Y0104227D03*
D16*
X0085227Y0055227D03*
M02*
