G75*
%MOIN*%
%OFA0B0*%
%FSLAX25Y25*%
%IPPOS*%
%LPD*%
%AMOC8*
5,1,8,0,0,1.08239X$1,22.5*
%
%ADD10C,0.07400*%
%ADD11R,0.04331X0.03937*%
%ADD12R,0.03543X0.03150*%
%ADD13R,0.03937X0.04331*%
%ADD14C,0.09000*%
%ADD15C,0.01600*%
%ADD16C,0.03762*%
%ADD17C,0.03369*%
%ADD18C,0.01200*%
D10*
X0062227Y0082227D03*
X0072227Y0082227D03*
X0092227Y0082227D03*
X0102227Y0082227D03*
D11*
X0121227Y0064074D03*
X0121227Y0057381D03*
X0111127Y0030074D03*
X0111127Y0023381D03*
X0102127Y0023381D03*
X0102127Y0030074D03*
X0043227Y0059381D03*
X0043227Y0066074D03*
X0047227Y0123881D03*
X0047227Y0130574D03*
X0067227Y0130574D03*
X0067227Y0123881D03*
X0087227Y0123881D03*
X0087227Y0130574D03*
X0107227Y0130574D03*
X0107227Y0123881D03*
D12*
X0096290Y0062967D03*
X0096290Y0055487D03*
X0104558Y0059227D03*
X0078164Y0055487D03*
X0078164Y0062967D03*
X0069897Y0059227D03*
D13*
X0043227Y0076381D03*
X0043227Y0083074D03*
D14*
X0041227Y0104227D03*
X0051227Y0104227D03*
X0061227Y0104227D03*
X0071227Y0104227D03*
X0081227Y0104227D03*
X0091227Y0104227D03*
X0101227Y0104227D03*
X0111227Y0104227D03*
X0121227Y0104227D03*
X0131227Y0104227D03*
X0141227Y0104227D03*
X0141227Y0044227D03*
X0131227Y0044227D03*
X0121227Y0044227D03*
X0111227Y0044227D03*
X0101227Y0044227D03*
X0091227Y0044227D03*
X0081227Y0044227D03*
X0071227Y0044227D03*
X0061227Y0044227D03*
X0051227Y0044227D03*
X0041227Y0044227D03*
X0031227Y0044227D03*
X0031227Y0104227D03*
D15*
X0006027Y0144568D02*
X0006027Y0019887D01*
X0006676Y0020535D01*
X0010278Y0022027D01*
X0014177Y0022027D01*
X0017778Y0020535D01*
X0020535Y0017778D01*
X0022027Y0014177D01*
X0022027Y0010278D01*
X0020535Y0006676D01*
X0019887Y0006027D01*
X0144568Y0006027D01*
X0143919Y0006676D01*
X0142427Y0010278D01*
X0142427Y0014177D01*
X0143919Y0017778D01*
X0146676Y0020535D01*
X0150278Y0022027D01*
X0154177Y0022027D01*
X0157778Y0020535D01*
X0158427Y0019887D01*
X0158427Y0144568D01*
X0157778Y0143919D01*
X0154177Y0142427D01*
X0150278Y0142427D01*
X0146676Y0143919D01*
X0143919Y0146676D01*
X0142427Y0150278D01*
X0142427Y0154177D01*
X0143919Y0157778D01*
X0144568Y0158427D01*
X0019887Y0158427D01*
X0020535Y0157778D01*
X0022027Y0154177D01*
X0022027Y0150278D01*
X0020535Y0146676D01*
X0017778Y0143919D01*
X0014177Y0142427D01*
X0010278Y0142427D01*
X0006676Y0143919D01*
X0006027Y0144568D01*
X0006027Y0144495D02*
X0006100Y0144495D01*
X0006027Y0142896D02*
X0009146Y0142896D01*
X0006027Y0141298D02*
X0158427Y0141298D01*
X0158427Y0142896D02*
X0155309Y0142896D01*
X0158354Y0144495D02*
X0158427Y0144495D01*
X0158427Y0139699D02*
X0006027Y0139699D01*
X0006027Y0138101D02*
X0158427Y0138101D01*
X0158427Y0136502D02*
X0006027Y0136502D01*
X0006027Y0134904D02*
X0158427Y0134904D01*
X0158427Y0133305D02*
X0113511Y0133305D01*
X0113474Y0133342D02*
X0112341Y0133811D01*
X0111114Y0133811D01*
X0110399Y0133515D01*
X0109972Y0133942D01*
X0104482Y0133942D01*
X0103662Y0133122D01*
X0103662Y0128025D01*
X0104460Y0127227D01*
X0103662Y0126429D01*
X0103662Y0121332D01*
X0104482Y0120512D01*
X0105027Y0120512D01*
X0105027Y0111139D01*
X0103543Y0109654D01*
X0102401Y0110127D01*
X0100054Y0110127D01*
X0097885Y0109229D01*
X0096227Y0107571D01*
X0094569Y0109229D01*
X0092401Y0110127D01*
X0090054Y0110127D01*
X0089427Y0109868D01*
X0089427Y0120512D01*
X0089972Y0120512D01*
X0090793Y0121332D01*
X0090793Y0126429D01*
X0089995Y0127227D01*
X0090616Y0127849D01*
X0091114Y0127643D01*
X0092341Y0127643D01*
X0093474Y0128113D01*
X0094342Y0128980D01*
X0094811Y0130114D01*
X0094811Y0131341D01*
X0094342Y0132474D01*
X0093474Y0133342D01*
X0092341Y0133811D01*
X0091114Y0133811D01*
X0090399Y0133515D01*
X0089972Y0133942D01*
X0084482Y0133942D01*
X0083662Y0133122D01*
X0083662Y0128025D01*
X0084460Y0127227D01*
X0083662Y0126429D01*
X0083662Y0121332D01*
X0084482Y0120512D01*
X0085027Y0120512D01*
X0085027Y0108771D01*
X0084569Y0109229D01*
X0082401Y0110127D01*
X0080054Y0110127D01*
X0078912Y0109654D01*
X0069427Y0119139D01*
X0069427Y0120512D01*
X0069972Y0120512D01*
X0070793Y0121332D01*
X0070793Y0126429D01*
X0069995Y0127227D01*
X0070616Y0127849D01*
X0071114Y0127643D01*
X0072341Y0127643D01*
X0073474Y0128113D01*
X0074342Y0128980D01*
X0074811Y0130114D01*
X0074811Y0131341D01*
X0074342Y0132474D01*
X0073474Y0133342D01*
X0072341Y0133811D01*
X0071114Y0133811D01*
X0070399Y0133515D01*
X0069972Y0133942D01*
X0064482Y0133942D01*
X0063662Y0133122D01*
X0063662Y0128025D01*
X0064460Y0127227D01*
X0063662Y0126429D01*
X0063662Y0121332D01*
X0064482Y0120512D01*
X0065027Y0120512D01*
X0065027Y0117316D01*
X0072216Y0110127D01*
X0070054Y0110127D01*
X0068912Y0109654D01*
X0062139Y0116427D01*
X0051139Y0116427D01*
X0049427Y0118139D01*
X0049427Y0120512D01*
X0049972Y0120512D01*
X0050793Y0121332D01*
X0050793Y0126429D01*
X0049995Y0127227D01*
X0050616Y0127849D01*
X0051114Y0127643D01*
X0052341Y0127643D01*
X0053474Y0128113D01*
X0054342Y0128980D01*
X0054811Y0130114D01*
X0054811Y0131341D01*
X0054342Y0132474D01*
X0053474Y0133342D01*
X0052341Y0133811D01*
X0051114Y0133811D01*
X0050399Y0133515D01*
X0049972Y0133942D01*
X0044482Y0133942D01*
X0043662Y0133122D01*
X0043662Y0128025D01*
X0044460Y0127227D01*
X0043662Y0126429D01*
X0043662Y0121332D01*
X0044482Y0120512D01*
X0045027Y0120512D01*
X0045027Y0116316D01*
X0048027Y0113316D01*
X0049316Y0112027D01*
X0060316Y0112027D01*
X0062216Y0110127D01*
X0060054Y0110127D01*
X0057885Y0109229D01*
X0056227Y0107571D01*
X0054569Y0109229D01*
X0052401Y0110127D01*
X0050054Y0110127D01*
X0047885Y0109229D01*
X0046434Y0107778D01*
X0046033Y0108331D01*
X0045331Y0109033D01*
X0044529Y0109615D01*
X0043646Y0110066D01*
X0042702Y0110372D01*
X0041723Y0110527D01*
X0041411Y0110527D01*
X0041411Y0104412D01*
X0041043Y0104412D01*
X0041043Y0110527D01*
X0040731Y0110527D01*
X0039752Y0110372D01*
X0038809Y0110066D01*
X0037925Y0109615D01*
X0037123Y0109033D01*
X0036422Y0108331D01*
X0036020Y0107778D01*
X0034569Y0109229D01*
X0032401Y0110127D01*
X0030054Y0110127D01*
X0027885Y0109229D01*
X0026225Y0107569D01*
X0025327Y0105401D01*
X0025327Y0103054D01*
X0026225Y0100885D01*
X0027885Y0099225D01*
X0030054Y0098327D01*
X0032401Y0098327D01*
X0034569Y0099225D01*
X0036020Y0100676D01*
X0036422Y0100123D01*
X0037123Y0099422D01*
X0037925Y0098839D01*
X0038809Y0098389D01*
X0039752Y0098082D01*
X0040731Y0097927D01*
X0041043Y0097927D01*
X0041043Y0104043D01*
X0041411Y0104043D01*
X0041411Y0097927D01*
X0041723Y0097927D01*
X0042702Y0098082D01*
X0043646Y0098389D01*
X0044529Y0098839D01*
X0045331Y0099422D01*
X0046033Y0100123D01*
X0046434Y0100676D01*
X0047885Y0099225D01*
X0050054Y0098327D01*
X0052401Y0098327D01*
X0054569Y0099225D01*
X0056227Y0100883D01*
X0057885Y0099225D01*
X0060054Y0098327D01*
X0062401Y0098327D01*
X0064569Y0099225D01*
X0066227Y0100883D01*
X0067885Y0099225D01*
X0070054Y0098327D01*
X0072401Y0098327D01*
X0074569Y0099225D01*
X0076227Y0100883D01*
X0077885Y0099225D01*
X0080054Y0098327D01*
X0082401Y0098327D01*
X0084569Y0099225D01*
X0086227Y0100883D01*
X0087885Y0099225D01*
X0090054Y0098327D01*
X0092401Y0098327D01*
X0094569Y0099225D01*
X0096227Y0100883D01*
X0097885Y0099225D01*
X0100054Y0098327D01*
X0102401Y0098327D01*
X0104569Y0099225D01*
X0106227Y0100883D01*
X0107885Y0099225D01*
X0110054Y0098327D01*
X0112401Y0098327D01*
X0114569Y0099225D01*
X0116227Y0100883D01*
X0117885Y0099225D01*
X0120054Y0098327D01*
X0122401Y0098327D01*
X0124569Y0099225D01*
X0126227Y0100883D01*
X0127885Y0099225D01*
X0130054Y0098327D01*
X0132401Y0098327D01*
X0134569Y0099225D01*
X0136227Y0100883D01*
X0137885Y0099225D01*
X0140054Y0098327D01*
X0142401Y0098327D01*
X0144569Y0099225D01*
X0146229Y0100885D01*
X0147127Y0103054D01*
X0147127Y0105401D01*
X0146229Y0107569D01*
X0144569Y0109229D01*
X0142401Y0110127D01*
X0140054Y0110127D01*
X0137885Y0109229D01*
X0136227Y0107571D01*
X0134569Y0109229D01*
X0132401Y0110127D01*
X0130054Y0110127D01*
X0127885Y0109229D01*
X0126227Y0107571D01*
X0124569Y0109229D01*
X0122401Y0110127D01*
X0120054Y0110127D01*
X0117885Y0109229D01*
X0116227Y0107571D01*
X0114569Y0109229D01*
X0112401Y0110127D01*
X0110054Y0110127D01*
X0109427Y0109868D01*
X0109427Y0120512D01*
X0109972Y0120512D01*
X0110793Y0121332D01*
X0110793Y0126429D01*
X0109995Y0127227D01*
X0110616Y0127849D01*
X0111114Y0127643D01*
X0112341Y0127643D01*
X0113474Y0128113D01*
X0114342Y0128980D01*
X0114811Y0130114D01*
X0114811Y0131341D01*
X0114342Y0132474D01*
X0113474Y0133342D01*
X0114660Y0131707D02*
X0158427Y0131707D01*
X0158427Y0130108D02*
X0114809Y0130108D01*
X0113871Y0128510D02*
X0158427Y0128510D01*
X0158427Y0126911D02*
X0110311Y0126911D01*
X0110793Y0125313D02*
X0158427Y0125313D01*
X0158427Y0123714D02*
X0110793Y0123714D01*
X0110793Y0122116D02*
X0158427Y0122116D01*
X0158427Y0120517D02*
X0109977Y0120517D01*
X0109427Y0118919D02*
X0158427Y0118919D01*
X0158427Y0117320D02*
X0109427Y0117320D01*
X0109427Y0115722D02*
X0158427Y0115722D01*
X0158427Y0114123D02*
X0109427Y0114123D01*
X0109427Y0112525D02*
X0158427Y0112525D01*
X0158427Y0110926D02*
X0109427Y0110926D01*
X0107227Y0110227D02*
X0101227Y0104227D01*
X0097374Y0099736D02*
X0095080Y0099736D01*
X0091227Y0104227D02*
X0087227Y0108227D01*
X0087227Y0123881D01*
X0090793Y0123714D02*
X0103662Y0123714D01*
X0103662Y0122116D02*
X0090793Y0122116D01*
X0089977Y0120517D02*
X0104477Y0120517D01*
X0105027Y0118919D02*
X0089427Y0118919D01*
X0089427Y0117320D02*
X0105027Y0117320D01*
X0105027Y0115722D02*
X0089427Y0115722D01*
X0089427Y0114123D02*
X0105027Y0114123D01*
X0105027Y0112525D02*
X0089427Y0112525D01*
X0089427Y0110926D02*
X0104815Y0110926D01*
X0107227Y0110227D02*
X0107227Y0123881D01*
X0103662Y0125313D02*
X0090793Y0125313D01*
X0090311Y0126911D02*
X0104144Y0126911D01*
X0103662Y0128510D02*
X0093871Y0128510D01*
X0094809Y0130108D02*
X0103662Y0130108D01*
X0103662Y0131707D02*
X0094660Y0131707D01*
X0093511Y0133305D02*
X0103845Y0133305D01*
X0107381Y0130727D02*
X0111727Y0130727D01*
X0114332Y0109327D02*
X0118123Y0109327D01*
X0116385Y0107729D02*
X0116069Y0107729D01*
X0115080Y0099736D02*
X0117374Y0099736D01*
X0125080Y0099736D02*
X0127374Y0099736D01*
X0135080Y0099736D02*
X0137374Y0099736D01*
X0145080Y0099736D02*
X0158427Y0099736D01*
X0158427Y0098138D02*
X0042873Y0098138D01*
X0041411Y0098138D02*
X0041043Y0098138D01*
X0039581Y0098138D02*
X0006027Y0098138D01*
X0006027Y0099736D02*
X0027374Y0099736D01*
X0026039Y0101335D02*
X0006027Y0101335D01*
X0006027Y0102933D02*
X0025377Y0102933D01*
X0025327Y0104532D02*
X0006027Y0104532D01*
X0006027Y0106130D02*
X0025629Y0106130D01*
X0026385Y0107729D02*
X0006027Y0107729D01*
X0006027Y0109327D02*
X0028123Y0109327D01*
X0034332Y0109327D02*
X0037529Y0109327D01*
X0041043Y0109327D02*
X0041411Y0109327D01*
X0041411Y0107729D02*
X0041043Y0107729D01*
X0041043Y0106130D02*
X0041411Y0106130D01*
X0041411Y0104532D02*
X0041043Y0104532D01*
X0041043Y0102933D02*
X0041411Y0102933D01*
X0041411Y0101335D02*
X0041043Y0101335D01*
X0041043Y0099736D02*
X0041411Y0099736D01*
X0045646Y0099736D02*
X0047374Y0099736D01*
X0055080Y0099736D02*
X0057374Y0099736D01*
X0065080Y0099736D02*
X0067374Y0099736D01*
X0071227Y0104227D02*
X0061227Y0114227D01*
X0050227Y0114227D01*
X0047227Y0117227D01*
X0047227Y0123881D01*
X0043662Y0123714D02*
X0006027Y0123714D01*
X0006027Y0122116D02*
X0043662Y0122116D01*
X0044477Y0120517D02*
X0006027Y0120517D01*
X0006027Y0118919D02*
X0045027Y0118919D01*
X0045027Y0117320D02*
X0006027Y0117320D01*
X0006027Y0115722D02*
X0045622Y0115722D01*
X0047220Y0114123D02*
X0006027Y0114123D01*
X0006027Y0112525D02*
X0048819Y0112525D01*
X0048123Y0109327D02*
X0044926Y0109327D01*
X0050246Y0117320D02*
X0065027Y0117320D01*
X0065027Y0118919D02*
X0049427Y0118919D01*
X0049977Y0120517D02*
X0064477Y0120517D01*
X0063662Y0122116D02*
X0050793Y0122116D01*
X0050793Y0123714D02*
X0063662Y0123714D01*
X0063662Y0125313D02*
X0050793Y0125313D01*
X0050311Y0126911D02*
X0064144Y0126911D01*
X0063662Y0128510D02*
X0053871Y0128510D01*
X0054809Y0130108D02*
X0063662Y0130108D01*
X0063662Y0131707D02*
X0054660Y0131707D01*
X0053511Y0133305D02*
X0063845Y0133305D01*
X0067381Y0130727D02*
X0071727Y0130727D01*
X0073871Y0128510D02*
X0083662Y0128510D01*
X0083662Y0130108D02*
X0074809Y0130108D01*
X0074660Y0131707D02*
X0083662Y0131707D01*
X0083845Y0133305D02*
X0073511Y0133305D01*
X0070311Y0126911D02*
X0084144Y0126911D01*
X0083662Y0125313D02*
X0070793Y0125313D01*
X0070793Y0123714D02*
X0083662Y0123714D01*
X0083662Y0122116D02*
X0070793Y0122116D01*
X0069977Y0120517D02*
X0084477Y0120517D01*
X0085027Y0118919D02*
X0069647Y0118919D01*
X0071246Y0117320D02*
X0085027Y0117320D01*
X0085027Y0115722D02*
X0072844Y0115722D01*
X0074443Y0114123D02*
X0085027Y0114123D01*
X0085027Y0112525D02*
X0076041Y0112525D01*
X0077640Y0110926D02*
X0085027Y0110926D01*
X0085027Y0109327D02*
X0084332Y0109327D01*
X0081227Y0104227D02*
X0067227Y0118227D01*
X0067227Y0123881D01*
X0066622Y0115722D02*
X0062844Y0115722D01*
X0064443Y0114123D02*
X0068220Y0114123D01*
X0069819Y0112525D02*
X0066041Y0112525D01*
X0067640Y0110926D02*
X0071417Y0110926D01*
X0061417Y0110926D02*
X0006027Y0110926D01*
X0006027Y0096539D02*
X0158427Y0096539D01*
X0158427Y0094941D02*
X0006027Y0094941D01*
X0006027Y0093342D02*
X0158427Y0093342D01*
X0158427Y0091744D02*
X0006027Y0091744D01*
X0006027Y0090145D02*
X0158427Y0090145D01*
X0158427Y0088547D02*
X0006027Y0088547D01*
X0006027Y0086948D02*
X0060298Y0086948D01*
X0061213Y0087327D02*
X0059338Y0086551D01*
X0058061Y0085274D01*
X0046596Y0085274D01*
X0046596Y0085819D01*
X0045776Y0086639D01*
X0040679Y0086639D01*
X0039859Y0085819D01*
X0039859Y0080328D01*
X0040183Y0080004D01*
X0040154Y0079986D01*
X0039818Y0079651D01*
X0039581Y0079241D01*
X0039459Y0078783D01*
X0039459Y0076565D01*
X0043043Y0076565D01*
X0043043Y0076197D01*
X0039459Y0076197D01*
X0039459Y0073978D01*
X0039581Y0073521D01*
X0039818Y0073110D01*
X0040154Y0072775D01*
X0040564Y0072538D01*
X0041022Y0072415D01*
X0043043Y0072415D01*
X0043043Y0076196D01*
X0043411Y0076196D01*
X0043411Y0072415D01*
X0045433Y0072415D01*
X0045891Y0072538D01*
X0046301Y0072775D01*
X0046636Y0073110D01*
X0046873Y0073521D01*
X0046996Y0073978D01*
X0046996Y0076197D01*
X0043412Y0076197D01*
X0043412Y0076565D01*
X0046996Y0076565D01*
X0046996Y0078783D01*
X0046873Y0079241D01*
X0046636Y0079651D01*
X0046301Y0079986D01*
X0046271Y0080004D01*
X0046596Y0080328D01*
X0046596Y0080874D01*
X0057268Y0080874D01*
X0057904Y0079338D01*
X0059338Y0077904D01*
X0061213Y0077127D01*
X0063242Y0077127D01*
X0064563Y0077675D01*
X0055162Y0068274D01*
X0046793Y0068274D01*
X0046793Y0068622D01*
X0045972Y0069442D01*
X0040482Y0069442D01*
X0039662Y0068622D01*
X0039662Y0063525D01*
X0040460Y0062727D01*
X0039662Y0061929D01*
X0039662Y0056832D01*
X0040482Y0056012D01*
X0045972Y0056012D01*
X0046793Y0056832D01*
X0046793Y0057181D01*
X0066725Y0057181D01*
X0066725Y0057073D01*
X0067545Y0056252D01*
X0072248Y0056252D01*
X0073068Y0057073D01*
X0073068Y0061382D01*
X0072248Y0062202D01*
X0067545Y0062202D01*
X0066924Y0061581D01*
X0046793Y0061581D01*
X0046793Y0061929D01*
X0045995Y0062727D01*
X0046793Y0063525D01*
X0046793Y0063874D01*
X0056985Y0063874D01*
X0070524Y0077413D01*
X0071213Y0077127D01*
X0073242Y0077127D01*
X0075116Y0077904D01*
X0076551Y0079338D01*
X0077327Y0081213D01*
X0077327Y0083242D01*
X0076551Y0085116D01*
X0075116Y0086551D01*
X0073242Y0087327D01*
X0071213Y0087327D01*
X0069338Y0086551D01*
X0067904Y0085116D01*
X0067227Y0083483D01*
X0066551Y0085116D01*
X0065116Y0086551D01*
X0063242Y0087327D01*
X0061213Y0087327D01*
X0064156Y0086948D02*
X0070298Y0086948D01*
X0068137Y0085350D02*
X0066317Y0085350D01*
X0067116Y0083751D02*
X0067338Y0083751D01*
X0072227Y0082227D02*
X0056074Y0066074D01*
X0043227Y0066074D01*
X0039662Y0066168D02*
X0006027Y0066168D01*
X0006027Y0067766D02*
X0039662Y0067766D01*
X0040405Y0069365D02*
X0006027Y0069365D01*
X0006027Y0070963D02*
X0057852Y0070963D01*
X0056253Y0069365D02*
X0046050Y0069365D01*
X0045931Y0072562D02*
X0059450Y0072562D01*
X0061049Y0074160D02*
X0046996Y0074160D01*
X0046996Y0075759D02*
X0062648Y0075759D01*
X0063797Y0077357D02*
X0064246Y0077357D01*
X0067272Y0074160D02*
X0097183Y0074160D01*
X0098781Y0072562D02*
X0065673Y0072562D01*
X0064074Y0070963D02*
X0100380Y0070963D01*
X0101978Y0069365D02*
X0062476Y0069365D01*
X0060877Y0067766D02*
X0110577Y0067766D01*
X0109316Y0069027D02*
X0116470Y0061874D01*
X0117662Y0061874D01*
X0117662Y0061525D01*
X0118460Y0060727D01*
X0117662Y0059929D01*
X0117662Y0058427D01*
X0111139Y0058427D01*
X0108139Y0061427D01*
X0107684Y0061427D01*
X0106909Y0062202D01*
X0102206Y0062202D01*
X0101386Y0061382D01*
X0101386Y0057073D01*
X0102206Y0056252D01*
X0106909Y0056252D01*
X0107000Y0056343D01*
X0108027Y0055316D01*
X0109316Y0054027D01*
X0118467Y0054027D01*
X0118482Y0054012D01*
X0123972Y0054012D01*
X0124793Y0054832D01*
X0124793Y0059929D01*
X0123995Y0060727D01*
X0124793Y0061525D01*
X0124793Y0066622D01*
X0123972Y0067442D01*
X0118482Y0067442D01*
X0117803Y0066763D01*
X0112427Y0072139D01*
X0111139Y0073427D01*
X0104139Y0073427D01*
X0099891Y0077675D01*
X0101213Y0077127D01*
X0103242Y0077127D01*
X0105116Y0077904D01*
X0106551Y0079338D01*
X0107327Y0081213D01*
X0107327Y0083242D01*
X0106551Y0085116D01*
X0105116Y0086551D01*
X0103242Y0087327D01*
X0101213Y0087327D01*
X0099338Y0086551D01*
X0097904Y0085116D01*
X0097227Y0083483D01*
X0096551Y0085116D01*
X0095116Y0086551D01*
X0093242Y0087327D01*
X0091213Y0087327D01*
X0089338Y0086551D01*
X0087904Y0085116D01*
X0087127Y0083242D01*
X0087127Y0081213D01*
X0087904Y0079338D01*
X0089338Y0077904D01*
X0091213Y0077127D01*
X0093242Y0077127D01*
X0093931Y0077413D01*
X0102316Y0069027D01*
X0109316Y0069027D01*
X0110227Y0071227D02*
X0103227Y0071227D01*
X0092227Y0082227D01*
X0090298Y0086948D02*
X0074156Y0086948D01*
X0076317Y0085350D02*
X0088137Y0085350D01*
X0087338Y0083751D02*
X0077116Y0083751D01*
X0077327Y0082153D02*
X0087127Y0082153D01*
X0087400Y0080554D02*
X0077054Y0080554D01*
X0076168Y0078956D02*
X0088286Y0078956D01*
X0090657Y0077357D02*
X0073797Y0077357D01*
X0070657Y0077357D02*
X0070469Y0077357D01*
X0068870Y0075759D02*
X0095584Y0075759D01*
X0093986Y0077357D02*
X0093797Y0077357D01*
X0100208Y0077357D02*
X0100657Y0077357D01*
X0101807Y0075759D02*
X0158427Y0075759D01*
X0158427Y0077357D02*
X0103797Y0077357D01*
X0106168Y0078956D02*
X0158427Y0078956D01*
X0158427Y0080554D02*
X0107054Y0080554D01*
X0107327Y0082153D02*
X0158427Y0082153D01*
X0158427Y0083751D02*
X0107116Y0083751D01*
X0106317Y0085350D02*
X0158427Y0085350D01*
X0158427Y0086948D02*
X0104156Y0086948D01*
X0100298Y0086948D02*
X0094156Y0086948D01*
X0096317Y0085350D02*
X0098137Y0085350D01*
X0097338Y0083751D02*
X0097116Y0083751D01*
X0103405Y0074160D02*
X0158427Y0074160D01*
X0158427Y0072562D02*
X0112004Y0072562D01*
X0110227Y0071227D02*
X0117381Y0064074D01*
X0121227Y0064074D01*
X0124793Y0064569D02*
X0158427Y0064569D01*
X0158427Y0062971D02*
X0124793Y0062971D01*
X0124639Y0061372D02*
X0158427Y0061372D01*
X0158427Y0059774D02*
X0124793Y0059774D01*
X0124793Y0058175D02*
X0158427Y0058175D01*
X0158427Y0056577D02*
X0124793Y0056577D01*
X0124793Y0054978D02*
X0158427Y0054978D01*
X0158427Y0053380D02*
X0099783Y0053380D01*
X0099739Y0053217D02*
X0099862Y0053675D01*
X0099862Y0055487D01*
X0096290Y0055487D01*
X0092719Y0055487D01*
X0092719Y0053675D01*
X0092785Y0053427D01*
X0092427Y0053427D01*
X0092427Y0059316D01*
X0093521Y0060410D01*
X0093939Y0059993D01*
X0098642Y0059993D01*
X0099462Y0060813D01*
X0099462Y0065122D01*
X0098642Y0065942D01*
X0093939Y0065942D01*
X0093164Y0065167D01*
X0092056Y0065167D01*
X0089316Y0062427D01*
X0088027Y0061139D01*
X0088027Y0057041D01*
X0088009Y0057086D01*
X0087086Y0058009D01*
X0085880Y0058508D01*
X0084575Y0058508D01*
X0083369Y0058009D01*
X0083047Y0057687D01*
X0081291Y0057687D01*
X0080516Y0058462D01*
X0075813Y0058462D01*
X0074993Y0057642D01*
X0074993Y0053332D01*
X0075813Y0052512D01*
X0080516Y0052512D01*
X0081291Y0053287D01*
X0082527Y0053287D01*
X0083369Y0052446D01*
X0084575Y0051946D01*
X0085880Y0051946D01*
X0087086Y0052446D01*
X0088009Y0053369D01*
X0088027Y0053413D01*
X0088027Y0051316D01*
X0089027Y0050316D01*
X0089461Y0049882D01*
X0087885Y0049229D01*
X0086227Y0047571D01*
X0084569Y0049229D01*
X0082401Y0050127D01*
X0080054Y0050127D01*
X0077885Y0049229D01*
X0076227Y0047571D01*
X0074569Y0049229D01*
X0072401Y0050127D01*
X0070054Y0050127D01*
X0067885Y0049229D01*
X0066434Y0047778D01*
X0066033Y0048331D01*
X0065331Y0049033D01*
X0064529Y0049615D01*
X0063646Y0050066D01*
X0062702Y0050372D01*
X0061723Y0050527D01*
X0061411Y0050527D01*
X0061411Y0044412D01*
X0061043Y0044412D01*
X0061043Y0050527D01*
X0060731Y0050527D01*
X0059752Y0050372D01*
X0058809Y0050066D01*
X0057925Y0049615D01*
X0057123Y0049033D01*
X0056422Y0048331D01*
X0056227Y0048064D01*
X0056033Y0048331D01*
X0055331Y0049033D01*
X0054529Y0049615D01*
X0053646Y0050066D01*
X0052702Y0050372D01*
X0051723Y0050527D01*
X0051411Y0050527D01*
X0051411Y0044412D01*
X0051043Y0044412D01*
X0051043Y0050527D01*
X0050731Y0050527D01*
X0049752Y0050372D01*
X0048809Y0050066D01*
X0047925Y0049615D01*
X0047123Y0049033D01*
X0046422Y0048331D01*
X0046020Y0047778D01*
X0044569Y0049229D01*
X0042401Y0050127D01*
X0040054Y0050127D01*
X0037885Y0049229D01*
X0036227Y0047571D01*
X0034569Y0049229D01*
X0032401Y0050127D01*
X0030054Y0050127D01*
X0027885Y0049229D01*
X0026225Y0047569D01*
X0025327Y0045401D01*
X0025327Y0043054D01*
X0026225Y0040885D01*
X0027885Y0039225D01*
X0030054Y0038327D01*
X0032401Y0038327D01*
X0034569Y0039225D01*
X0036227Y0040883D01*
X0037885Y0039225D01*
X0040054Y0038327D01*
X0042401Y0038327D01*
X0044569Y0039225D01*
X0046020Y0040676D01*
X0046422Y0040123D01*
X0047123Y0039422D01*
X0047925Y0038839D01*
X0048809Y0038389D01*
X0049752Y0038082D01*
X0050731Y0037927D01*
X0051043Y0037927D01*
X0051043Y0044043D01*
X0051411Y0044043D01*
X0051411Y0037927D01*
X0051723Y0037927D01*
X0052702Y0038082D01*
X0053646Y0038389D01*
X0054529Y0038839D01*
X0055331Y0039422D01*
X0056033Y0040123D01*
X0056227Y0040391D01*
X0056422Y0040123D01*
X0057123Y0039422D01*
X0057925Y0038839D01*
X0058809Y0038389D01*
X0059752Y0038082D01*
X0060731Y0037927D01*
X0061043Y0037927D01*
X0061043Y0044043D01*
X0061411Y0044043D01*
X0061411Y0037927D01*
X0061723Y0037927D01*
X0062702Y0038082D01*
X0063646Y0038389D01*
X0064529Y0038839D01*
X0065331Y0039422D01*
X0066033Y0040123D01*
X0066434Y0040676D01*
X0067885Y0039225D01*
X0070054Y0038327D01*
X0072401Y0038327D01*
X0074569Y0039225D01*
X0076227Y0040883D01*
X0077885Y0039225D01*
X0080054Y0038327D01*
X0082401Y0038327D01*
X0084569Y0039225D01*
X0086227Y0040883D01*
X0087885Y0039225D01*
X0090054Y0038327D01*
X0092401Y0038327D01*
X0094569Y0039225D01*
X0096227Y0040883D01*
X0097885Y0039225D01*
X0099927Y0038380D01*
X0099927Y0033442D01*
X0099382Y0033442D01*
X0098562Y0032622D01*
X0098562Y0027525D01*
X0099136Y0026951D01*
X0098857Y0026790D01*
X0098522Y0026455D01*
X0098285Y0026044D01*
X0098162Y0025586D01*
X0098162Y0023565D01*
X0101943Y0023565D01*
X0101943Y0023197D01*
X0098162Y0023197D01*
X0098162Y0021175D01*
X0098285Y0020717D01*
X0098522Y0020307D01*
X0098857Y0019972D01*
X0099267Y0019735D01*
X0099725Y0019612D01*
X0101943Y0019612D01*
X0101943Y0023196D01*
X0102311Y0023196D01*
X0102311Y0019612D01*
X0104530Y0019612D01*
X0104987Y0019735D01*
X0105398Y0019972D01*
X0105733Y0020307D01*
X0105970Y0020717D01*
X0106093Y0021175D01*
X0106093Y0023197D01*
X0102312Y0023197D01*
X0102312Y0023565D01*
X0106093Y0023565D01*
X0106093Y0025586D01*
X0105970Y0026044D01*
X0105733Y0026455D01*
X0105398Y0026790D01*
X0105118Y0026951D01*
X0105693Y0027525D01*
X0105693Y0032622D01*
X0104872Y0033442D01*
X0104327Y0033442D01*
X0104327Y0039125D01*
X0104569Y0039225D01*
X0106227Y0040883D01*
X0107885Y0039225D01*
X0108927Y0038794D01*
X0108927Y0033442D01*
X0108382Y0033442D01*
X0107562Y0032622D01*
X0107562Y0027525D01*
X0108136Y0026951D01*
X0107857Y0026790D01*
X0107522Y0026455D01*
X0107285Y0026044D01*
X0107162Y0025586D01*
X0107162Y0023565D01*
X0110943Y0023565D01*
X0110943Y0023197D01*
X0107162Y0023197D01*
X0107162Y0021175D01*
X0107285Y0020717D01*
X0107522Y0020307D01*
X0107857Y0019972D01*
X0108267Y0019735D01*
X0108725Y0019612D01*
X0110943Y0019612D01*
X0110943Y0023196D01*
X0111311Y0023196D01*
X0111311Y0019612D01*
X0113530Y0019612D01*
X0113987Y0019735D01*
X0114398Y0019972D01*
X0114733Y0020307D01*
X0114970Y0020717D01*
X0115093Y0021175D01*
X0115093Y0023197D01*
X0111312Y0023197D01*
X0111312Y0023565D01*
X0115093Y0023565D01*
X0115093Y0025586D01*
X0114970Y0026044D01*
X0114733Y0026455D01*
X0114398Y0026790D01*
X0114118Y0026951D01*
X0114693Y0027525D01*
X0114693Y0032622D01*
X0113872Y0033442D01*
X0113327Y0033442D01*
X0113327Y0038711D01*
X0114569Y0039225D01*
X0116227Y0040883D01*
X0117885Y0039225D01*
X0120054Y0038327D01*
X0122401Y0038327D01*
X0124569Y0039225D01*
X0126227Y0040883D01*
X0127885Y0039225D01*
X0130054Y0038327D01*
X0132401Y0038327D01*
X0134569Y0039225D01*
X0136227Y0040883D01*
X0137885Y0039225D01*
X0140054Y0038327D01*
X0142401Y0038327D01*
X0144569Y0039225D01*
X0146229Y0040885D01*
X0147127Y0043054D01*
X0147127Y0045401D01*
X0146229Y0047569D01*
X0144569Y0049229D01*
X0142401Y0050127D01*
X0140054Y0050127D01*
X0137885Y0049229D01*
X0136227Y0047571D01*
X0134569Y0049229D01*
X0132401Y0050127D01*
X0130054Y0050127D01*
X0127885Y0049229D01*
X0126227Y0047571D01*
X0124569Y0049229D01*
X0122401Y0050127D01*
X0120054Y0050127D01*
X0117885Y0049229D01*
X0116227Y0047571D01*
X0114569Y0049229D01*
X0112401Y0050127D01*
X0110054Y0050127D01*
X0107885Y0049229D01*
X0106227Y0047571D01*
X0104569Y0049229D01*
X0102401Y0050127D01*
X0100054Y0050127D01*
X0098912Y0049654D01*
X0096453Y0052112D01*
X0098299Y0052112D01*
X0098757Y0052235D01*
X0099167Y0052472D01*
X0099502Y0052807D01*
X0099739Y0053217D01*
X0099862Y0054978D02*
X0108365Y0054978D01*
X0110227Y0056227D02*
X0120074Y0056227D01*
X0121227Y0057381D01*
X0117662Y0059774D02*
X0109792Y0059774D01*
X0108194Y0061372D02*
X0117815Y0061372D01*
X0115373Y0062971D02*
X0099462Y0062971D01*
X0099462Y0064569D02*
X0113774Y0064569D01*
X0112176Y0066168D02*
X0080720Y0066168D01*
X0080631Y0066220D02*
X0080173Y0066342D01*
X0078164Y0066342D01*
X0076156Y0066342D01*
X0075698Y0066220D01*
X0075287Y0065983D01*
X0074952Y0065647D01*
X0074715Y0065237D01*
X0074593Y0064779D01*
X0074593Y0062967D01*
X0074593Y0061156D01*
X0074715Y0060698D01*
X0074952Y0060287D01*
X0075287Y0059952D01*
X0075698Y0059715D01*
X0076156Y0059593D01*
X0078164Y0059593D01*
X0078164Y0062967D01*
X0078164Y0062967D01*
X0074593Y0062967D01*
X0078164Y0062967D01*
X0078164Y0062967D01*
X0078164Y0059593D01*
X0080173Y0059593D01*
X0080631Y0059715D01*
X0081041Y0059952D01*
X0081376Y0060287D01*
X0081613Y0060698D01*
X0081736Y0061156D01*
X0081736Y0062967D01*
X0078164Y0062967D01*
X0078164Y0062967D01*
X0078164Y0062968D02*
X0078164Y0066342D01*
X0078164Y0062968D01*
X0078164Y0062968D01*
X0078164Y0062967D02*
X0081736Y0062967D01*
X0081736Y0064779D01*
X0081613Y0065237D01*
X0081376Y0065647D01*
X0081041Y0065983D01*
X0080631Y0066220D01*
X0081736Y0064569D02*
X0091458Y0064569D01*
X0092967Y0062967D02*
X0090227Y0060227D01*
X0090227Y0052227D01*
X0091227Y0051227D01*
X0094227Y0051227D01*
X0101227Y0044227D01*
X0102127Y0043327D01*
X0102127Y0030074D01*
X0105693Y0029402D02*
X0107562Y0029402D01*
X0107562Y0031000D02*
X0105693Y0031000D01*
X0105693Y0032599D02*
X0107562Y0032599D01*
X0108927Y0034197D02*
X0104327Y0034197D01*
X0104327Y0035796D02*
X0108927Y0035796D01*
X0108927Y0037394D02*
X0104327Y0037394D01*
X0104327Y0038993D02*
X0108446Y0038993D01*
X0106519Y0040592D02*
X0105935Y0040592D01*
X0111127Y0044127D02*
X0111227Y0044227D01*
X0111127Y0044127D02*
X0111127Y0030074D01*
X0114693Y0029402D02*
X0158427Y0029402D01*
X0158427Y0031000D02*
X0114693Y0031000D01*
X0114693Y0032599D02*
X0158427Y0032599D01*
X0158427Y0034197D02*
X0113327Y0034197D01*
X0113327Y0035796D02*
X0158427Y0035796D01*
X0158427Y0037394D02*
X0113327Y0037394D01*
X0114008Y0038993D02*
X0118446Y0038993D01*
X0116519Y0040592D02*
X0115935Y0040592D01*
X0115214Y0048584D02*
X0117240Y0048584D01*
X0125214Y0048584D02*
X0127240Y0048584D01*
X0135214Y0048584D02*
X0137240Y0048584D01*
X0145214Y0048584D02*
X0158427Y0048584D01*
X0158427Y0046986D02*
X0146471Y0046986D01*
X0147127Y0045387D02*
X0158427Y0045387D01*
X0158427Y0043789D02*
X0147127Y0043789D01*
X0146770Y0042190D02*
X0158427Y0042190D01*
X0158427Y0040592D02*
X0145935Y0040592D01*
X0144008Y0038993D02*
X0158427Y0038993D01*
X0158427Y0027803D02*
X0114693Y0027803D01*
X0114877Y0026205D02*
X0158427Y0026205D01*
X0158427Y0024606D02*
X0115093Y0024606D01*
X0115093Y0023008D02*
X0158427Y0023008D01*
X0158427Y0021409D02*
X0155668Y0021409D01*
X0148786Y0021409D02*
X0115093Y0021409D01*
X0114119Y0019811D02*
X0145952Y0019811D01*
X0144353Y0018212D02*
X0020101Y0018212D01*
X0021018Y0016614D02*
X0143437Y0016614D01*
X0142775Y0015015D02*
X0021680Y0015015D01*
X0022027Y0013417D02*
X0142427Y0013417D01*
X0142427Y0011818D02*
X0022027Y0011818D01*
X0022003Y0010220D02*
X0142451Y0010220D01*
X0143113Y0008621D02*
X0021341Y0008621D01*
X0020679Y0007023D02*
X0143776Y0007023D01*
X0138446Y0038993D02*
X0134008Y0038993D01*
X0135935Y0040592D02*
X0136519Y0040592D01*
X0128446Y0038993D02*
X0124008Y0038993D01*
X0125935Y0040592D02*
X0126519Y0040592D01*
X0110227Y0056227D02*
X0107227Y0059227D01*
X0104558Y0059227D01*
X0101386Y0059774D02*
X0092885Y0059774D01*
X0093413Y0058502D02*
X0093078Y0058167D01*
X0092841Y0057757D01*
X0092719Y0057299D01*
X0092719Y0055487D01*
X0096290Y0055487D01*
X0096290Y0055487D01*
X0096290Y0058862D01*
X0094282Y0058862D01*
X0093824Y0058739D01*
X0093413Y0058502D01*
X0093086Y0058175D02*
X0092427Y0058175D01*
X0092427Y0056577D02*
X0092719Y0056577D01*
X0092719Y0054978D02*
X0092427Y0054978D01*
X0096290Y0055487D02*
X0096290Y0055487D01*
X0096290Y0058862D01*
X0098299Y0058862D01*
X0098757Y0058739D01*
X0099167Y0058502D01*
X0099502Y0058167D01*
X0099739Y0057757D01*
X0099862Y0057299D01*
X0099862Y0055487D01*
X0096290Y0055487D01*
X0096290Y0055487D01*
X0096290Y0056577D02*
X0096290Y0056577D01*
X0096290Y0058175D02*
X0096290Y0058175D01*
X0099494Y0058175D02*
X0101386Y0058175D01*
X0101882Y0056577D02*
X0099862Y0056577D01*
X0099462Y0061372D02*
X0101386Y0061372D01*
X0096290Y0062967D02*
X0092967Y0062967D01*
X0089859Y0062971D02*
X0081736Y0062971D01*
X0081736Y0061372D02*
X0088261Y0061372D01*
X0088027Y0059774D02*
X0080732Y0059774D01*
X0080803Y0058175D02*
X0083770Y0058175D01*
X0086684Y0058175D02*
X0088027Y0058175D01*
X0085227Y0055227D02*
X0084967Y0055487D01*
X0078164Y0055487D01*
X0074993Y0054978D02*
X0006027Y0054978D01*
X0006027Y0053380D02*
X0074993Y0053380D01*
X0074993Y0056577D02*
X0072572Y0056577D01*
X0073068Y0058175D02*
X0075526Y0058175D01*
X0075597Y0059774D02*
X0073068Y0059774D01*
X0073068Y0061372D02*
X0074593Y0061372D01*
X0074593Y0062971D02*
X0046238Y0062971D01*
X0043227Y0059381D02*
X0069743Y0059381D01*
X0069897Y0059227D01*
X0067221Y0056577D02*
X0046537Y0056577D01*
X0039918Y0056577D02*
X0006027Y0056577D01*
X0006027Y0058175D02*
X0039662Y0058175D01*
X0039662Y0059774D02*
X0006027Y0059774D01*
X0006027Y0061372D02*
X0039662Y0061372D01*
X0040216Y0062971D02*
X0006027Y0062971D01*
X0006027Y0064569D02*
X0039662Y0064569D01*
X0040523Y0072562D02*
X0006027Y0072562D01*
X0006027Y0074160D02*
X0039459Y0074160D01*
X0039459Y0075759D02*
X0006027Y0075759D01*
X0006027Y0077357D02*
X0039459Y0077357D01*
X0039505Y0078956D02*
X0006027Y0078956D01*
X0006027Y0080554D02*
X0039859Y0080554D01*
X0039859Y0082153D02*
X0006027Y0082153D01*
X0006027Y0083751D02*
X0039859Y0083751D01*
X0039859Y0085350D02*
X0006027Y0085350D01*
X0035080Y0099736D02*
X0036808Y0099736D01*
X0046596Y0085350D02*
X0058137Y0085350D01*
X0061381Y0083074D02*
X0062227Y0082227D01*
X0061381Y0083074D02*
X0043227Y0083074D01*
X0046596Y0080554D02*
X0057400Y0080554D01*
X0058286Y0078956D02*
X0046949Y0078956D01*
X0046996Y0077357D02*
X0060657Y0077357D01*
X0059279Y0066168D02*
X0075608Y0066168D01*
X0074593Y0064569D02*
X0057680Y0064569D01*
X0059169Y0050183D02*
X0053286Y0050183D01*
X0051411Y0050183D02*
X0051043Y0050183D01*
X0051043Y0048584D02*
X0051411Y0048584D01*
X0051411Y0046986D02*
X0051043Y0046986D01*
X0051043Y0045387D02*
X0051411Y0045387D01*
X0051412Y0044411D02*
X0057527Y0044411D01*
X0061043Y0044411D01*
X0061043Y0044043D01*
X0051412Y0044043D01*
X0051412Y0044411D01*
X0051411Y0043789D02*
X0051043Y0043789D01*
X0051043Y0042190D02*
X0051411Y0042190D01*
X0051411Y0040592D02*
X0051043Y0040592D01*
X0051043Y0038993D02*
X0051411Y0038993D01*
X0054741Y0038993D02*
X0057713Y0038993D01*
X0061043Y0038993D02*
X0061411Y0038993D01*
X0061411Y0040592D02*
X0061043Y0040592D01*
X0061043Y0042190D02*
X0061411Y0042190D01*
X0061411Y0043789D02*
X0061043Y0043789D01*
X0061043Y0045387D02*
X0061411Y0045387D01*
X0061411Y0046986D02*
X0061043Y0046986D01*
X0061043Y0048584D02*
X0061411Y0048584D01*
X0061411Y0050183D02*
X0061043Y0050183D01*
X0063286Y0050183D02*
X0089161Y0050183D01*
X0088027Y0051781D02*
X0006027Y0051781D01*
X0006027Y0050183D02*
X0049169Y0050183D01*
X0046675Y0048584D02*
X0045214Y0048584D01*
X0037240Y0048584D02*
X0035214Y0048584D01*
X0027240Y0048584D02*
X0006027Y0048584D01*
X0006027Y0046986D02*
X0025984Y0046986D01*
X0025327Y0045387D02*
X0006027Y0045387D01*
X0006027Y0043789D02*
X0025327Y0043789D01*
X0025685Y0042190D02*
X0006027Y0042190D01*
X0006027Y0040592D02*
X0026519Y0040592D01*
X0028446Y0038993D02*
X0006027Y0038993D01*
X0006027Y0037394D02*
X0099927Y0037394D01*
X0099927Y0035796D02*
X0006027Y0035796D01*
X0006027Y0034197D02*
X0099927Y0034197D01*
X0098562Y0032599D02*
X0006027Y0032599D01*
X0006027Y0031000D02*
X0098562Y0031000D01*
X0098562Y0029402D02*
X0006027Y0029402D01*
X0006027Y0027803D02*
X0098562Y0027803D01*
X0098377Y0026205D02*
X0006027Y0026205D01*
X0006027Y0024606D02*
X0098162Y0024606D01*
X0098162Y0023008D02*
X0006027Y0023008D01*
X0006027Y0021409D02*
X0008786Y0021409D01*
X0015668Y0021409D02*
X0098162Y0021409D01*
X0099136Y0019811D02*
X0018503Y0019811D01*
X0034008Y0038993D02*
X0038446Y0038993D01*
X0036519Y0040592D02*
X0035935Y0040592D01*
X0044008Y0038993D02*
X0047713Y0038993D01*
X0046082Y0040592D02*
X0045935Y0040592D01*
X0055780Y0048584D02*
X0056675Y0048584D01*
X0065780Y0048584D02*
X0067240Y0048584D01*
X0075214Y0048584D02*
X0077240Y0048584D01*
X0085214Y0048584D02*
X0087240Y0048584D01*
X0088013Y0053380D02*
X0088027Y0053380D01*
X0096785Y0051781D02*
X0158427Y0051781D01*
X0158427Y0050183D02*
X0098383Y0050183D01*
X0105214Y0048584D02*
X0107240Y0048584D01*
X0098446Y0038993D02*
X0094008Y0038993D01*
X0095935Y0040592D02*
X0096519Y0040592D01*
X0088446Y0038993D02*
X0084008Y0038993D01*
X0085935Y0040592D02*
X0086519Y0040592D01*
X0078446Y0038993D02*
X0074008Y0038993D01*
X0075935Y0040592D02*
X0076519Y0040592D01*
X0068446Y0038993D02*
X0064741Y0038993D01*
X0066373Y0040592D02*
X0066519Y0040592D01*
X0078164Y0059774D02*
X0078164Y0059774D01*
X0078164Y0061372D02*
X0078164Y0061372D01*
X0078164Y0062971D02*
X0078164Y0062971D01*
X0078164Y0064569D02*
X0078164Y0064569D01*
X0078164Y0066168D02*
X0078164Y0066168D01*
X0077374Y0099736D02*
X0075080Y0099736D01*
X0085080Y0099736D02*
X0087374Y0099736D01*
X0096069Y0107729D02*
X0096385Y0107729D01*
X0098123Y0109327D02*
X0094332Y0109327D01*
X0105080Y0099736D02*
X0107374Y0099736D01*
X0124332Y0109327D02*
X0128123Y0109327D01*
X0126385Y0107729D02*
X0126069Y0107729D01*
X0134332Y0109327D02*
X0138123Y0109327D01*
X0136385Y0107729D02*
X0136069Y0107729D01*
X0144332Y0109327D02*
X0158427Y0109327D01*
X0158427Y0107729D02*
X0146069Y0107729D01*
X0146825Y0106130D02*
X0158427Y0106130D01*
X0158427Y0104532D02*
X0147127Y0104532D01*
X0147077Y0102933D02*
X0158427Y0102933D01*
X0158427Y0101335D02*
X0146415Y0101335D01*
X0158427Y0070963D02*
X0113603Y0070963D01*
X0115201Y0069365D02*
X0158427Y0069365D01*
X0158427Y0067766D02*
X0116800Y0067766D01*
X0124793Y0066168D02*
X0158427Y0066168D01*
X0111311Y0023008D02*
X0110943Y0023008D01*
X0110943Y0021409D02*
X0111311Y0021409D01*
X0111311Y0019811D02*
X0110943Y0019811D01*
X0108136Y0019811D02*
X0105119Y0019811D01*
X0106093Y0021409D02*
X0107162Y0021409D01*
X0107162Y0023008D02*
X0106093Y0023008D01*
X0106093Y0024606D02*
X0107162Y0024606D01*
X0107377Y0026205D02*
X0105877Y0026205D01*
X0105693Y0027803D02*
X0107562Y0027803D01*
X0102311Y0023008D02*
X0101943Y0023008D01*
X0101943Y0021409D02*
X0102311Y0021409D01*
X0102311Y0019811D02*
X0101943Y0019811D01*
X0043411Y0072562D02*
X0043043Y0072562D01*
X0043043Y0074160D02*
X0043411Y0074160D01*
X0043411Y0075759D02*
X0043043Y0075759D01*
X0056069Y0107729D02*
X0056385Y0107729D01*
X0058123Y0109327D02*
X0054332Y0109327D01*
X0043662Y0125313D02*
X0006027Y0125313D01*
X0006027Y0126911D02*
X0044144Y0126911D01*
X0043662Y0128510D02*
X0006027Y0128510D01*
X0006027Y0130108D02*
X0043662Y0130108D01*
X0043662Y0131707D02*
X0006027Y0131707D01*
X0006027Y0133305D02*
X0043845Y0133305D01*
X0047381Y0130727D02*
X0051727Y0130727D01*
X0021618Y0149290D02*
X0142836Y0149290D01*
X0142427Y0150889D02*
X0022027Y0150889D01*
X0022027Y0152487D02*
X0142427Y0152487D01*
X0142427Y0154086D02*
X0022027Y0154086D01*
X0021403Y0155684D02*
X0143052Y0155684D01*
X0143714Y0157283D02*
X0020741Y0157283D01*
X0020956Y0147692D02*
X0143498Y0147692D01*
X0144502Y0146093D02*
X0019953Y0146093D01*
X0018354Y0144495D02*
X0146100Y0144495D01*
X0149146Y0142896D02*
X0015309Y0142896D01*
D16*
X0085227Y0055227D03*
D17*
X0091727Y0130727D03*
X0071727Y0130727D03*
X0051727Y0130727D03*
X0111727Y0130727D03*
D18*
X0107381Y0130727D02*
X0107227Y0130574D01*
X0091727Y0130727D02*
X0087381Y0130727D01*
X0087227Y0130574D01*
X0067381Y0130727D02*
X0067227Y0130574D01*
X0047381Y0130727D02*
X0047227Y0130574D01*
M02*
