G75*
%MOIN*%
%OFA0B0*%
%FSLAX25Y25*%
%IPPOS*%
%LPD*%
%AMOC8*
5,1,8,0,0,1.08239X$1,22.5*
%
%ADD10C,0.12500*%
%ADD11C,0.07400*%
%ADD12C,0.09000*%
%ADD13C,0.01600*%
D10*
X0096000Y0090750D03*
X0096000Y0121750D03*
D11*
X0096000Y0066250D03*
X0096000Y0056250D03*
X0096000Y0046250D03*
X0096000Y0031250D03*
X0096000Y0021250D03*
X0096000Y0011250D03*
D12*
X0011000Y0021250D03*
X0011000Y0031250D03*
X0011000Y0041250D03*
X0011000Y0051250D03*
X0011000Y0061250D03*
X0011000Y0071250D03*
X0011000Y0081250D03*
X0011000Y0091250D03*
X0011000Y0101250D03*
X0011000Y0111250D03*
X0011000Y0121250D03*
X0011000Y0131250D03*
X0071000Y0131250D03*
X0071000Y0121250D03*
X0071000Y0111250D03*
X0071000Y0101250D03*
X0071000Y0091250D03*
X0071000Y0081250D03*
X0071000Y0071250D03*
X0071000Y0061250D03*
X0071000Y0051250D03*
X0071000Y0041250D03*
X0071000Y0031250D03*
X0071000Y0021250D03*
D13*
X0081000Y0026250D02*
X0081000Y0081250D01*
X0071000Y0091250D01*
X0071000Y0101250D02*
X0086000Y0086250D01*
X0086000Y0056250D01*
X0096000Y0046250D01*
X0092226Y0042811D02*
X0086000Y0042811D01*
X0086000Y0041213D02*
X0094834Y0041213D01*
X0094986Y0041150D02*
X0097014Y0041150D01*
X0098889Y0041926D01*
X0100324Y0043361D01*
X0101100Y0045236D01*
X0101100Y0047264D01*
X0100324Y0049139D01*
X0098889Y0050574D01*
X0097763Y0051040D01*
X0098111Y0051153D01*
X0098883Y0051546D01*
X0099583Y0052055D01*
X0100195Y0052667D01*
X0100704Y0053367D01*
X0101097Y0054139D01*
X0101365Y0054962D01*
X0101500Y0055817D01*
X0101500Y0056050D01*
X0096200Y0056050D01*
X0096200Y0056450D01*
X0101500Y0056450D01*
X0101500Y0056683D01*
X0101365Y0057538D01*
X0101097Y0058361D01*
X0100704Y0059133D01*
X0100195Y0059833D01*
X0099583Y0060445D01*
X0098883Y0060954D01*
X0098111Y0061347D01*
X0097763Y0061460D01*
X0098889Y0061926D01*
X0100324Y0063361D01*
X0101100Y0065236D01*
X0101100Y0067264D01*
X0100324Y0069139D01*
X0098889Y0070574D01*
X0097014Y0071350D01*
X0094986Y0071350D01*
X0093111Y0070574D01*
X0091676Y0069139D01*
X0090900Y0067264D01*
X0090900Y0065236D01*
X0091676Y0063361D01*
X0093111Y0061926D01*
X0094237Y0061460D01*
X0093889Y0061347D01*
X0093117Y0060954D01*
X0092417Y0060445D01*
X0091805Y0059833D01*
X0091296Y0059133D01*
X0090903Y0058361D01*
X0090635Y0057538D01*
X0090500Y0056683D01*
X0090500Y0056450D01*
X0095800Y0056450D01*
X0095800Y0056050D01*
X0090500Y0056050D01*
X0090500Y0055817D01*
X0090635Y0054962D01*
X0090749Y0054612D01*
X0088200Y0057161D01*
X0088200Y0087161D01*
X0086000Y0089361D01*
X0086000Y0131250D01*
X0106000Y0131250D01*
X0106000Y0016250D01*
X0098302Y0016250D01*
X0098883Y0016546D01*
X0099583Y0017055D01*
X0100195Y0017667D01*
X0100704Y0018367D01*
X0101097Y0019139D01*
X0101365Y0019962D01*
X0101500Y0020817D01*
X0101500Y0021050D01*
X0096200Y0021050D01*
X0096200Y0021450D01*
X0101500Y0021450D01*
X0101500Y0021683D01*
X0101365Y0022538D01*
X0101097Y0023361D01*
X0100704Y0024133D01*
X0100195Y0024833D01*
X0099583Y0025445D01*
X0098883Y0025954D01*
X0098111Y0026347D01*
X0097763Y0026460D01*
X0098889Y0026926D01*
X0100324Y0028361D01*
X0101100Y0030236D01*
X0101100Y0032264D01*
X0100324Y0034139D01*
X0098889Y0035574D01*
X0097014Y0036350D01*
X0094986Y0036350D01*
X0093111Y0035574D01*
X0091676Y0034139D01*
X0090900Y0032264D01*
X0090900Y0030236D01*
X0091676Y0028361D01*
X0093111Y0026926D01*
X0094237Y0026460D01*
X0093889Y0026347D01*
X0093117Y0025954D01*
X0092417Y0025445D01*
X0091805Y0024833D01*
X0091296Y0024133D01*
X0090903Y0023361D01*
X0090635Y0022538D01*
X0090500Y0021683D01*
X0090500Y0021450D01*
X0095800Y0021450D01*
X0095800Y0021050D01*
X0090500Y0021050D01*
X0090500Y0020817D01*
X0090635Y0019962D01*
X0090749Y0019612D01*
X0086000Y0024361D01*
X0086000Y0053139D01*
X0091185Y0047953D01*
X0090900Y0047264D01*
X0090900Y0045236D01*
X0091676Y0043361D01*
X0093111Y0041926D01*
X0094986Y0041150D01*
X0097166Y0041213D02*
X0106000Y0041213D01*
X0106000Y0042811D02*
X0099774Y0042811D01*
X0100758Y0044410D02*
X0106000Y0044410D01*
X0106000Y0046008D02*
X0101100Y0046008D01*
X0100958Y0047607D02*
X0106000Y0047607D01*
X0106000Y0049205D02*
X0100257Y0049205D01*
X0098333Y0050804D02*
X0106000Y0050804D01*
X0106000Y0052402D02*
X0099931Y0052402D01*
X0101027Y0054001D02*
X0106000Y0054001D01*
X0106000Y0055599D02*
X0101465Y0055599D01*
X0101418Y0057198D02*
X0106000Y0057198D01*
X0106000Y0058796D02*
X0100875Y0058796D01*
X0099633Y0060395D02*
X0106000Y0060395D01*
X0106000Y0061993D02*
X0098956Y0061993D01*
X0100419Y0063592D02*
X0106000Y0063592D01*
X0106000Y0065190D02*
X0101081Y0065190D01*
X0101100Y0066789D02*
X0106000Y0066789D01*
X0106000Y0068387D02*
X0100635Y0068387D01*
X0099476Y0069986D02*
X0106000Y0069986D01*
X0106000Y0071584D02*
X0088200Y0071584D01*
X0088200Y0069986D02*
X0092523Y0069986D01*
X0091365Y0068387D02*
X0088200Y0068387D01*
X0088200Y0066789D02*
X0090900Y0066789D01*
X0090919Y0065190D02*
X0088200Y0065190D01*
X0088200Y0063592D02*
X0091581Y0063592D01*
X0093044Y0061993D02*
X0088200Y0061993D01*
X0088200Y0060395D02*
X0092367Y0060395D01*
X0091125Y0058796D02*
X0088200Y0058796D01*
X0088200Y0057198D02*
X0090582Y0057198D01*
X0090534Y0055599D02*
X0089762Y0055599D01*
X0086736Y0052402D02*
X0086000Y0052402D01*
X0086000Y0050804D02*
X0088335Y0050804D01*
X0089933Y0049205D02*
X0086000Y0049205D01*
X0086000Y0047607D02*
X0091042Y0047607D01*
X0090900Y0046008D02*
X0086000Y0046008D01*
X0086000Y0044410D02*
X0091242Y0044410D01*
X0086000Y0039614D02*
X0106000Y0039614D01*
X0106000Y0038016D02*
X0086000Y0038016D01*
X0086000Y0036417D02*
X0106000Y0036417D01*
X0106000Y0034819D02*
X0099644Y0034819D01*
X0100704Y0033220D02*
X0106000Y0033220D01*
X0106000Y0031622D02*
X0101100Y0031622D01*
X0101012Y0030023D02*
X0106000Y0030023D01*
X0106000Y0028425D02*
X0100350Y0028425D01*
X0098647Y0026826D02*
X0106000Y0026826D01*
X0106000Y0025228D02*
X0099800Y0025228D01*
X0100961Y0023629D02*
X0106000Y0023629D01*
X0106000Y0022031D02*
X0101445Y0022031D01*
X0101439Y0020432D02*
X0106000Y0020432D01*
X0106000Y0018834D02*
X0100942Y0018834D01*
X0099763Y0017235D02*
X0106000Y0017235D01*
X0096000Y0011250D02*
X0081000Y0026250D01*
X0086000Y0026826D02*
X0093353Y0026826D01*
X0092200Y0025228D02*
X0086000Y0025228D01*
X0086732Y0023629D02*
X0091039Y0023629D01*
X0090555Y0022031D02*
X0088331Y0022031D01*
X0089929Y0020432D02*
X0090561Y0020432D01*
X0091650Y0028425D02*
X0086000Y0028425D01*
X0086000Y0030023D02*
X0090988Y0030023D01*
X0090900Y0031622D02*
X0086000Y0031622D01*
X0086000Y0033220D02*
X0091296Y0033220D01*
X0092356Y0034819D02*
X0086000Y0034819D01*
X0088200Y0073183D02*
X0106000Y0073183D01*
X0106000Y0074782D02*
X0088200Y0074782D01*
X0088200Y0076380D02*
X0106000Y0076380D01*
X0106000Y0077979D02*
X0088200Y0077979D01*
X0088200Y0079577D02*
X0106000Y0079577D01*
X0106000Y0081176D02*
X0088200Y0081176D01*
X0088200Y0082774D02*
X0106000Y0082774D01*
X0106000Y0084373D02*
X0100441Y0084373D01*
X0100333Y0084265D02*
X0102485Y0086417D01*
X0103650Y0089228D01*
X0103650Y0092272D01*
X0102485Y0095083D01*
X0100333Y0097235D01*
X0097522Y0098400D01*
X0094478Y0098400D01*
X0091667Y0097235D01*
X0089515Y0095083D01*
X0088350Y0092272D01*
X0088350Y0089228D01*
X0089515Y0086417D01*
X0091667Y0084265D01*
X0094478Y0083100D01*
X0097522Y0083100D01*
X0100333Y0084265D01*
X0102040Y0085971D02*
X0106000Y0085971D01*
X0106000Y0087570D02*
X0102963Y0087570D01*
X0103625Y0089168D02*
X0106000Y0089168D01*
X0106000Y0090767D02*
X0103650Y0090767D01*
X0103611Y0092365D02*
X0106000Y0092365D01*
X0106000Y0093964D02*
X0102949Y0093964D01*
X0102007Y0095562D02*
X0106000Y0095562D01*
X0106000Y0097161D02*
X0100408Y0097161D01*
X0106000Y0098759D02*
X0086000Y0098759D01*
X0086000Y0097161D02*
X0091592Y0097161D01*
X0089993Y0095562D02*
X0086000Y0095562D01*
X0086000Y0093964D02*
X0089051Y0093964D01*
X0088389Y0092365D02*
X0086000Y0092365D01*
X0086000Y0090767D02*
X0088350Y0090767D01*
X0088375Y0089168D02*
X0086193Y0089168D01*
X0087792Y0087570D02*
X0089037Y0087570D01*
X0088200Y0085971D02*
X0089960Y0085971D01*
X0091559Y0084373D02*
X0088200Y0084373D01*
X0086000Y0100358D02*
X0106000Y0100358D01*
X0106000Y0101956D02*
X0086000Y0101956D01*
X0086000Y0103555D02*
X0106000Y0103555D01*
X0106000Y0105153D02*
X0086000Y0105153D01*
X0086000Y0106752D02*
X0106000Y0106752D01*
X0106000Y0108350D02*
X0086000Y0108350D01*
X0086000Y0109949D02*
X0106000Y0109949D01*
X0106000Y0111547D02*
X0086000Y0111547D01*
X0086000Y0113146D02*
X0106000Y0113146D01*
X0106000Y0114744D02*
X0099966Y0114744D01*
X0099568Y0114515D02*
X0100482Y0115042D01*
X0101319Y0115685D01*
X0102065Y0116431D01*
X0102708Y0117268D01*
X0103235Y0118182D01*
X0103639Y0119157D01*
X0103912Y0120176D01*
X0104014Y0120950D01*
X0096800Y0120950D01*
X0096800Y0122550D01*
X0095200Y0122550D01*
X0095200Y0129764D01*
X0094426Y0129662D01*
X0093407Y0129389D01*
X0092432Y0128985D01*
X0091518Y0128458D01*
X0090681Y0127815D01*
X0089935Y0127069D01*
X0089292Y0126232D01*
X0088765Y0125318D01*
X0088361Y0124343D01*
X0088088Y0123324D01*
X0087986Y0122550D01*
X0095200Y0122550D01*
X0095200Y0120950D01*
X0087986Y0120950D01*
X0088088Y0120176D01*
X0088361Y0119157D01*
X0088765Y0118182D01*
X0089292Y0117268D01*
X0089935Y0116431D01*
X0090681Y0115685D01*
X0091518Y0115042D01*
X0092432Y0114515D01*
X0093407Y0114111D01*
X0094426Y0113838D01*
X0095200Y0113736D01*
X0095200Y0120950D01*
X0096800Y0120950D01*
X0096800Y0113736D01*
X0097574Y0113838D01*
X0098593Y0114111D01*
X0099568Y0114515D01*
X0096800Y0114744D02*
X0095200Y0114744D01*
X0095200Y0116343D02*
X0096800Y0116343D01*
X0096800Y0117941D02*
X0095200Y0117941D01*
X0095200Y0119540D02*
X0096800Y0119540D01*
X0096800Y0121138D02*
X0106000Y0121138D01*
X0106000Y0119540D02*
X0103742Y0119540D01*
X0103096Y0117941D02*
X0106000Y0117941D01*
X0106000Y0116343D02*
X0101977Y0116343D01*
X0104014Y0122550D02*
X0096800Y0122550D01*
X0096800Y0129764D01*
X0097574Y0129662D01*
X0098593Y0129389D01*
X0099568Y0128985D01*
X0100482Y0128458D01*
X0101319Y0127815D01*
X0102065Y0127069D01*
X0102708Y0126232D01*
X0103235Y0125318D01*
X0103639Y0124343D01*
X0103912Y0123324D01*
X0104014Y0122550D01*
X0103990Y0122737D02*
X0106000Y0122737D01*
X0106000Y0124335D02*
X0103641Y0124335D01*
X0102880Y0125934D02*
X0106000Y0125934D01*
X0106000Y0127532D02*
X0101602Y0127532D01*
X0099217Y0129131D02*
X0106000Y0129131D01*
X0106000Y0130729D02*
X0086000Y0130729D01*
X0086000Y0129131D02*
X0092783Y0129131D01*
X0095200Y0129131D02*
X0096800Y0129131D01*
X0096800Y0127532D02*
X0095200Y0127532D01*
X0095200Y0125934D02*
X0096800Y0125934D01*
X0096800Y0124335D02*
X0095200Y0124335D01*
X0095200Y0122737D02*
X0096800Y0122737D01*
X0095200Y0121138D02*
X0086000Y0121138D01*
X0086000Y0119540D02*
X0088258Y0119540D01*
X0088904Y0117941D02*
X0086000Y0117941D01*
X0086000Y0116343D02*
X0090023Y0116343D01*
X0092034Y0114744D02*
X0086000Y0114744D01*
X0086000Y0122737D02*
X0088010Y0122737D01*
X0088359Y0124335D02*
X0086000Y0124335D01*
X0086000Y0125934D02*
X0089120Y0125934D01*
X0090398Y0127532D02*
X0086000Y0127532D01*
M02*
