G75*
%MOIN*%
%OFA0B0*%
%FSLAX25Y25*%
%IPPOS*%
%LPD*%
%AMOC8*
5,1,8,0,0,1.08239X$1,22.5*
%
%ADD10OC8,0.08600*%
%ADD11C,0.07000*%
%ADD12C,0.08600*%
%ADD13C,0.01600*%
%ADD14C,0.02975*%
%ADD15R,0.04134X0.04134*%
%ADD16R,0.03543X0.03543*%
D10*
X0108750Y0016800D03*
X0118750Y0016800D03*
X0128750Y0016800D03*
X0138750Y0016800D03*
X0148750Y0016800D03*
X0158750Y0016800D03*
X0168750Y0016800D03*
X0178750Y0016800D03*
X0198750Y0016800D03*
X0208750Y0016800D03*
X0218750Y0016800D03*
X0228750Y0016800D03*
X0238750Y0016800D03*
X0248750Y0016800D03*
X0258750Y0016800D03*
X0268750Y0016800D03*
X0288750Y0016800D03*
X0298750Y0016800D03*
X0308750Y0016800D03*
X0318750Y0016800D03*
X0328750Y0016800D03*
X0338750Y0016800D03*
X0348750Y0016800D03*
X0358750Y0016800D03*
X0368750Y0036800D03*
X0378750Y0036800D03*
X0378750Y0046800D03*
X0368750Y0046800D03*
X0368750Y0056800D03*
X0378750Y0056800D03*
X0378750Y0066800D03*
X0368750Y0066800D03*
X0368750Y0076800D03*
X0378750Y0076800D03*
X0378750Y0086800D03*
X0368750Y0086800D03*
X0368750Y0096800D03*
X0378750Y0096800D03*
X0378750Y0106800D03*
X0368750Y0106800D03*
X0368750Y0116800D03*
X0378750Y0116800D03*
X0378750Y0126800D03*
X0368750Y0126800D03*
X0368750Y0136800D03*
X0378750Y0136800D03*
X0378750Y0146800D03*
X0368750Y0146800D03*
X0368750Y0156800D03*
X0378750Y0156800D03*
X0378750Y0166800D03*
X0368750Y0166800D03*
X0368750Y0176800D03*
X0378750Y0176800D03*
X0378750Y0186800D03*
X0368750Y0186800D03*
X0368750Y0196800D03*
X0378750Y0196800D03*
X0378750Y0206800D03*
X0368750Y0206800D03*
X0338750Y0206800D03*
X0328750Y0206800D03*
X0318750Y0206800D03*
X0308750Y0206800D03*
X0298750Y0206800D03*
X0288750Y0206800D03*
X0278750Y0206800D03*
X0268750Y0206800D03*
X0248750Y0206800D03*
X0238750Y0206800D03*
X0228750Y0206800D03*
X0218750Y0206800D03*
X0208750Y0206800D03*
X0198750Y0206800D03*
X0188750Y0206800D03*
X0178750Y0206800D03*
X0162750Y0206800D03*
X0152750Y0206800D03*
X0142750Y0206800D03*
X0132750Y0206800D03*
X0122750Y0206800D03*
X0112750Y0206800D03*
X0102750Y0206800D03*
X0092750Y0206800D03*
X0082750Y0206800D03*
X0072750Y0206800D03*
X0073750Y0186800D03*
X0073750Y0176800D03*
X0073750Y0166800D03*
X0073750Y0156800D03*
X0139750Y0159800D03*
X0139750Y0169800D03*
X0139750Y0179800D03*
X0139750Y0189800D03*
X0206750Y0188800D03*
X0206750Y0178800D03*
X0206750Y0168800D03*
X0206750Y0158800D03*
X0280750Y0155800D03*
X0280750Y0165800D03*
X0280750Y0175800D03*
X0280750Y0185800D03*
X0329750Y0184800D03*
X0329750Y0174800D03*
X0329750Y0164800D03*
X0329750Y0154800D03*
D11*
X0205750Y0072800D03*
X0195750Y0072800D03*
X0185750Y0072800D03*
X0175750Y0072800D03*
X0165750Y0072800D03*
X0155750Y0072800D03*
X0145750Y0072800D03*
X0135750Y0072800D03*
X0135750Y0032800D03*
X0145750Y0032800D03*
X0155750Y0032800D03*
X0165750Y0032800D03*
X0175750Y0032800D03*
X0185750Y0032800D03*
X0195750Y0032800D03*
X0205750Y0032800D03*
D12*
X0304750Y0085800D03*
X0314750Y0072800D03*
X0334750Y0072800D03*
X0088750Y0232800D03*
X0073750Y0232800D03*
X0138750Y0236800D03*
X0153750Y0236800D03*
X0208750Y0236800D03*
X0223750Y0236800D03*
X0278750Y0236800D03*
X0292750Y0236800D03*
X0333750Y0236800D03*
X0348750Y0236800D03*
X0384750Y0237800D03*
X0399750Y0237800D03*
D13*
X0062050Y0248500D02*
X0062050Y0005100D01*
X0430450Y0005100D01*
X0430450Y0248500D01*
X0062050Y0248500D01*
X0062050Y0247971D02*
X0430450Y0247971D01*
X0430450Y0246372D02*
X0062050Y0246372D01*
X0062050Y0244774D02*
X0430450Y0244774D01*
X0430450Y0243175D02*
X0386668Y0243175D01*
X0385884Y0243500D02*
X0383616Y0243500D01*
X0381521Y0242632D01*
X0379918Y0241029D01*
X0379050Y0238934D01*
X0379050Y0236666D01*
X0379918Y0234571D01*
X0381521Y0232968D01*
X0383616Y0232100D01*
X0385884Y0232100D01*
X0387979Y0232968D01*
X0389582Y0234571D01*
X0390450Y0236666D01*
X0390450Y0238934D01*
X0389582Y0241029D01*
X0387979Y0242632D01*
X0385884Y0243500D01*
X0382832Y0243175D02*
X0062050Y0243175D01*
X0062050Y0241577D02*
X0135466Y0241577D01*
X0135521Y0241632D02*
X0133918Y0240029D01*
X0133050Y0237934D01*
X0133050Y0235666D01*
X0133918Y0233571D01*
X0135521Y0231968D01*
X0137616Y0231100D01*
X0139884Y0231100D01*
X0141979Y0231968D01*
X0143582Y0233571D01*
X0144450Y0235666D01*
X0144450Y0237934D01*
X0143582Y0240029D01*
X0141979Y0241632D01*
X0139884Y0242500D01*
X0137616Y0242500D01*
X0135521Y0241632D01*
X0133897Y0239978D02*
X0062050Y0239978D01*
X0062050Y0238380D02*
X0072326Y0238380D01*
X0072616Y0238500D02*
X0070521Y0237632D01*
X0068918Y0236029D01*
X0068050Y0233934D01*
X0068050Y0231666D01*
X0068918Y0229571D01*
X0070521Y0227968D01*
X0071550Y0227542D01*
X0071550Y0216772D01*
X0064850Y0210072D01*
X0064850Y0203528D01*
X0072489Y0195889D01*
X0072489Y0195889D01*
X0073778Y0194600D01*
X0136489Y0194600D01*
X0134050Y0192161D01*
X0134050Y0187439D01*
X0136689Y0184800D01*
X0134050Y0182161D01*
X0134050Y0177439D01*
X0136689Y0174800D01*
X0134050Y0172161D01*
X0134050Y0167439D01*
X0136689Y0164800D01*
X0134050Y0162161D01*
X0134050Y0160550D01*
X0105600Y0189000D01*
X0079450Y0189000D01*
X0079450Y0189161D01*
X0076111Y0192500D01*
X0071389Y0192500D01*
X0068050Y0189161D01*
X0068050Y0184439D01*
X0070689Y0181800D01*
X0068050Y0179161D01*
X0068050Y0174439D01*
X0070689Y0171800D01*
X0068050Y0169161D01*
X0068050Y0164439D01*
X0070689Y0161800D01*
X0068050Y0159161D01*
X0068050Y0154439D01*
X0071389Y0151100D01*
X0076111Y0151100D01*
X0076225Y0151214D01*
X0082839Y0144600D01*
X0084661Y0144600D01*
X0154839Y0144600D01*
X0274039Y0025400D01*
X0383573Y0025400D01*
X0384861Y0026689D01*
X0387561Y0029389D01*
X0387561Y0029389D01*
X0388850Y0030677D01*
X0388850Y0047872D01*
X0387561Y0049161D01*
X0383367Y0053356D01*
X0384450Y0054439D01*
X0384450Y0059161D01*
X0381811Y0061800D01*
X0384450Y0064439D01*
X0384450Y0069161D01*
X0381811Y0071800D01*
X0384450Y0074439D01*
X0384450Y0079161D01*
X0381811Y0081800D01*
X0384450Y0084439D01*
X0384450Y0089161D01*
X0381811Y0091800D01*
X0384450Y0094439D01*
X0384450Y0099161D01*
X0381811Y0101800D01*
X0384450Y0104439D01*
X0384450Y0109161D01*
X0381811Y0111800D01*
X0384450Y0114439D01*
X0384450Y0119161D01*
X0381811Y0121800D01*
X0384450Y0124439D01*
X0384450Y0129161D01*
X0381811Y0131800D01*
X0384450Y0134439D01*
X0384450Y0139161D01*
X0381811Y0141800D01*
X0384450Y0144439D01*
X0384450Y0149161D01*
X0381811Y0151800D01*
X0384450Y0154439D01*
X0384450Y0159161D01*
X0381811Y0161800D01*
X0384450Y0164439D01*
X0384450Y0169161D01*
X0381811Y0171800D01*
X0384450Y0174439D01*
X0384450Y0179161D01*
X0381811Y0181800D01*
X0384450Y0184439D01*
X0384450Y0189161D01*
X0381811Y0191800D01*
X0384450Y0194439D01*
X0384450Y0199161D01*
X0384336Y0199275D01*
X0388661Y0203600D01*
X0389950Y0204889D01*
X0389950Y0212711D01*
X0363922Y0238740D01*
X0363922Y0242152D01*
X0363102Y0242972D01*
X0358398Y0242972D01*
X0357578Y0242152D01*
X0357578Y0237448D01*
X0358398Y0236628D01*
X0359810Y0236628D01*
X0359839Y0236600D01*
X0385550Y0210889D01*
X0385550Y0206711D01*
X0384850Y0206011D01*
X0384850Y0206625D01*
X0378925Y0206625D01*
X0378925Y0206975D01*
X0378575Y0206975D01*
X0378575Y0212900D01*
X0376223Y0212900D01*
X0373467Y0210144D01*
X0371111Y0212500D01*
X0366389Y0212500D01*
X0363050Y0209161D01*
X0363050Y0205611D01*
X0351217Y0217444D01*
X0351217Y0220447D01*
X0350397Y0221267D01*
X0345103Y0221267D01*
X0344283Y0220447D01*
X0344283Y0215153D01*
X0345103Y0214333D01*
X0348106Y0214333D01*
X0360850Y0201589D01*
X0360850Y0183528D01*
X0364133Y0180244D01*
X0363050Y0179161D01*
X0363050Y0175611D01*
X0351661Y0187000D01*
X0335450Y0187000D01*
X0335450Y0187161D01*
X0332111Y0190500D01*
X0327389Y0190500D01*
X0324050Y0187161D01*
X0324050Y0182439D01*
X0326689Y0179800D01*
X0324050Y0177161D01*
X0324050Y0172439D01*
X0326689Y0169800D01*
X0324050Y0167161D01*
X0324050Y0162439D01*
X0326689Y0159800D01*
X0324050Y0157161D01*
X0324050Y0152439D01*
X0327389Y0149100D01*
X0332111Y0149100D01*
X0335450Y0152439D01*
X0335450Y0152600D01*
X0359839Y0152600D01*
X0363164Y0149275D01*
X0363050Y0149161D01*
X0363050Y0144439D01*
X0365689Y0141800D01*
X0363050Y0139161D01*
X0363050Y0139000D01*
X0330661Y0139000D01*
X0286336Y0183325D01*
X0286450Y0183439D01*
X0286450Y0188161D01*
X0283111Y0191500D01*
X0278389Y0191500D01*
X0275050Y0188161D01*
X0275050Y0183439D01*
X0277689Y0180800D01*
X0275050Y0178161D01*
X0275050Y0173439D01*
X0277689Y0170800D01*
X0275050Y0168161D01*
X0275050Y0163439D01*
X0277689Y0160800D01*
X0275050Y0158161D01*
X0275050Y0153439D01*
X0278389Y0150100D01*
X0283111Y0150100D01*
X0283225Y0150214D01*
X0318839Y0114600D01*
X0363050Y0114600D01*
X0363050Y0114439D01*
X0365689Y0111800D01*
X0363050Y0109161D01*
X0363050Y0109000D01*
X0289661Y0109000D01*
X0212336Y0186325D01*
X0212450Y0186439D01*
X0212450Y0191161D01*
X0209111Y0194500D01*
X0204389Y0194500D01*
X0201050Y0191161D01*
X0201050Y0186439D01*
X0203689Y0183800D01*
X0201050Y0181161D01*
X0201050Y0176439D01*
X0203689Y0173800D01*
X0201050Y0171161D01*
X0201050Y0166439D01*
X0203689Y0163800D01*
X0201050Y0161161D01*
X0201050Y0159550D01*
X0168600Y0192000D01*
X0145450Y0192000D01*
X0145450Y0192161D01*
X0143011Y0194600D01*
X0296283Y0194600D01*
X0296283Y0194153D01*
X0297103Y0193333D01*
X0302397Y0193333D01*
X0303217Y0194153D01*
X0303217Y0199447D01*
X0302397Y0200267D01*
X0297103Y0200267D01*
X0296283Y0199447D01*
X0296283Y0199000D01*
X0150033Y0199000D01*
X0150198Y0199164D01*
X0150637Y0200226D01*
X0150637Y0201100D01*
X0155111Y0201100D01*
X0157750Y0203739D01*
X0160389Y0201100D01*
X0165111Y0201100D01*
X0168450Y0204439D01*
X0168450Y0209161D01*
X0165111Y0212500D01*
X0160389Y0212500D01*
X0157750Y0209861D01*
X0155111Y0212500D01*
X0150389Y0212500D01*
X0147750Y0209861D01*
X0145111Y0212500D01*
X0140389Y0212500D01*
X0137750Y0209861D01*
X0135111Y0212500D01*
X0130389Y0212500D01*
X0127750Y0209861D01*
X0125111Y0212500D01*
X0120389Y0212500D01*
X0117750Y0209861D01*
X0115111Y0212500D01*
X0110389Y0212500D01*
X0107750Y0209861D01*
X0105111Y0212500D01*
X0100389Y0212500D01*
X0097750Y0209861D01*
X0095111Y0212500D01*
X0090389Y0212500D01*
X0087750Y0209861D01*
X0085111Y0212500D01*
X0080389Y0212500D01*
X0077750Y0209861D01*
X0075111Y0212500D01*
X0073500Y0212500D01*
X0075950Y0214950D01*
X0075950Y0227542D01*
X0076979Y0227968D01*
X0078582Y0229571D01*
X0079450Y0231666D01*
X0079450Y0233934D01*
X0078582Y0236029D01*
X0076979Y0237632D01*
X0074884Y0238500D01*
X0072616Y0238500D01*
X0075174Y0238380D02*
X0133235Y0238380D01*
X0133050Y0236781D02*
X0077830Y0236781D01*
X0078933Y0235183D02*
X0133250Y0235183D01*
X0133912Y0233584D02*
X0079450Y0233584D01*
X0079450Y0231986D02*
X0135503Y0231986D01*
X0141997Y0231986D02*
X0205503Y0231986D01*
X0205521Y0231968D02*
X0207616Y0231100D01*
X0209884Y0231100D01*
X0211979Y0231968D01*
X0213582Y0233571D01*
X0214450Y0235666D01*
X0214450Y0237934D01*
X0213582Y0240029D01*
X0211979Y0241632D01*
X0209884Y0242500D01*
X0207616Y0242500D01*
X0205521Y0241632D01*
X0203918Y0240029D01*
X0203050Y0237934D01*
X0203050Y0235666D01*
X0203918Y0233571D01*
X0205521Y0231968D01*
X0203912Y0233584D02*
X0143588Y0233584D01*
X0144250Y0235183D02*
X0203250Y0235183D01*
X0203050Y0236781D02*
X0144450Y0236781D01*
X0144265Y0238380D02*
X0203235Y0238380D01*
X0203897Y0239978D02*
X0143603Y0239978D01*
X0142034Y0241577D02*
X0205466Y0241577D01*
X0212034Y0241577D02*
X0275466Y0241577D01*
X0275521Y0241632D02*
X0273918Y0240029D01*
X0273050Y0237934D01*
X0273050Y0235666D01*
X0273918Y0233571D01*
X0275521Y0231968D01*
X0277616Y0231100D01*
X0279884Y0231100D01*
X0281979Y0231968D01*
X0283582Y0233571D01*
X0284450Y0235666D01*
X0284450Y0237934D01*
X0283582Y0240029D01*
X0281979Y0241632D01*
X0279884Y0242500D01*
X0277616Y0242500D01*
X0275521Y0241632D01*
X0273897Y0239978D02*
X0213603Y0239978D01*
X0214265Y0238380D02*
X0273235Y0238380D01*
X0273050Y0236781D02*
X0214450Y0236781D01*
X0214250Y0235183D02*
X0273250Y0235183D01*
X0273912Y0233584D02*
X0213588Y0233584D01*
X0211997Y0231986D02*
X0275503Y0231986D01*
X0281997Y0231986D02*
X0330503Y0231986D01*
X0330521Y0231968D02*
X0332616Y0231100D01*
X0334884Y0231100D01*
X0336979Y0231968D01*
X0338582Y0233571D01*
X0339450Y0235666D01*
X0339450Y0237934D01*
X0338582Y0240029D01*
X0336979Y0241632D01*
X0334884Y0242500D01*
X0332616Y0242500D01*
X0330521Y0241632D01*
X0328918Y0240029D01*
X0328050Y0237934D01*
X0328050Y0235666D01*
X0328918Y0233571D01*
X0330521Y0231968D01*
X0328912Y0233584D02*
X0283588Y0233584D01*
X0284250Y0235183D02*
X0328250Y0235183D01*
X0328050Y0236781D02*
X0284450Y0236781D01*
X0284265Y0238380D02*
X0328235Y0238380D01*
X0328897Y0239978D02*
X0283603Y0239978D01*
X0282034Y0241577D02*
X0330466Y0241577D01*
X0337034Y0241577D02*
X0357578Y0241577D01*
X0357578Y0239978D02*
X0338603Y0239978D01*
X0339265Y0238380D02*
X0357578Y0238380D01*
X0358246Y0236781D02*
X0339450Y0236781D01*
X0339250Y0235183D02*
X0361256Y0235183D01*
X0362855Y0233584D02*
X0338588Y0233584D01*
X0336997Y0231986D02*
X0364453Y0231986D01*
X0366052Y0230387D02*
X0078920Y0230387D01*
X0077800Y0228789D02*
X0367650Y0228789D01*
X0369249Y0227190D02*
X0075950Y0227190D01*
X0075950Y0225592D02*
X0370847Y0225592D01*
X0372446Y0223993D02*
X0075950Y0223993D01*
X0075950Y0222395D02*
X0374044Y0222395D01*
X0375643Y0220796D02*
X0350868Y0220796D01*
X0351217Y0219198D02*
X0377241Y0219198D01*
X0378840Y0217599D02*
X0351217Y0217599D01*
X0352661Y0216001D02*
X0380438Y0216001D01*
X0382037Y0214402D02*
X0354259Y0214402D01*
X0355858Y0212803D02*
X0376127Y0212803D01*
X0374528Y0211205D02*
X0372406Y0211205D01*
X0378575Y0211205D02*
X0378925Y0211205D01*
X0378925Y0212803D02*
X0378575Y0212803D01*
X0378925Y0212900D02*
X0378925Y0206975D01*
X0384850Y0206975D01*
X0384850Y0209327D01*
X0381277Y0212900D01*
X0378925Y0212900D01*
X0381373Y0212803D02*
X0383635Y0212803D01*
X0382972Y0211205D02*
X0385234Y0211205D01*
X0385550Y0209606D02*
X0384570Y0209606D01*
X0384850Y0208008D02*
X0385550Y0208008D01*
X0385248Y0206409D02*
X0384850Y0206409D01*
X0387750Y0205800D02*
X0387750Y0211800D01*
X0360750Y0238800D01*
X0360750Y0239800D01*
X0363922Y0239978D02*
X0379483Y0239978D01*
X0379050Y0238380D02*
X0364282Y0238380D01*
X0365880Y0236781D02*
X0379050Y0236781D01*
X0379664Y0235183D02*
X0367479Y0235183D01*
X0369077Y0233584D02*
X0380905Y0233584D01*
X0388595Y0233584D02*
X0430450Y0233584D01*
X0430450Y0231986D02*
X0370676Y0231986D01*
X0372274Y0230387D02*
X0430450Y0230387D01*
X0430450Y0228789D02*
X0373873Y0228789D01*
X0375471Y0227190D02*
X0430450Y0227190D01*
X0430450Y0225592D02*
X0377070Y0225592D01*
X0378668Y0223993D02*
X0430450Y0223993D01*
X0430450Y0222395D02*
X0380267Y0222395D01*
X0381865Y0220796D02*
X0430450Y0220796D01*
X0430450Y0219198D02*
X0383464Y0219198D01*
X0385062Y0217599D02*
X0430450Y0217599D01*
X0430450Y0216001D02*
X0386661Y0216001D01*
X0388259Y0214402D02*
X0430450Y0214402D01*
X0430450Y0212803D02*
X0389858Y0212803D01*
X0389950Y0211205D02*
X0430450Y0211205D01*
X0430450Y0209606D02*
X0389950Y0209606D01*
X0389950Y0208008D02*
X0430450Y0208008D01*
X0430450Y0206409D02*
X0389950Y0206409D01*
X0389872Y0204811D02*
X0430450Y0204811D01*
X0430450Y0203212D02*
X0388274Y0203212D01*
X0386675Y0201614D02*
X0430450Y0201614D01*
X0430450Y0200015D02*
X0385077Y0200015D01*
X0384450Y0198417D02*
X0430450Y0198417D01*
X0430450Y0196818D02*
X0384450Y0196818D01*
X0384450Y0195220D02*
X0430450Y0195220D01*
X0430450Y0193621D02*
X0383632Y0193621D01*
X0382034Y0192023D02*
X0430450Y0192023D01*
X0430450Y0190424D02*
X0383187Y0190424D01*
X0384450Y0188826D02*
X0430450Y0188826D01*
X0430450Y0187227D02*
X0384450Y0187227D01*
X0384450Y0185629D02*
X0430450Y0185629D01*
X0430450Y0184030D02*
X0384041Y0184030D01*
X0382443Y0182432D02*
X0430450Y0182432D01*
X0430450Y0180833D02*
X0382778Y0180833D01*
X0384376Y0179235D02*
X0430450Y0179235D01*
X0430450Y0177636D02*
X0384450Y0177636D01*
X0384450Y0176038D02*
X0430450Y0176038D01*
X0430450Y0174439D02*
X0384450Y0174439D01*
X0382852Y0172841D02*
X0430450Y0172841D01*
X0430450Y0171242D02*
X0382369Y0171242D01*
X0383967Y0169644D02*
X0430450Y0169644D01*
X0430450Y0168045D02*
X0384450Y0168045D01*
X0384450Y0166447D02*
X0430450Y0166447D01*
X0430450Y0164848D02*
X0384450Y0164848D01*
X0383261Y0163250D02*
X0430450Y0163250D01*
X0430450Y0161651D02*
X0381960Y0161651D01*
X0383558Y0160053D02*
X0430450Y0160053D01*
X0430450Y0158454D02*
X0384450Y0158454D01*
X0384450Y0156856D02*
X0430450Y0156856D01*
X0430450Y0155257D02*
X0384450Y0155257D01*
X0383670Y0153659D02*
X0430450Y0153659D01*
X0430450Y0152060D02*
X0382071Y0152060D01*
X0383149Y0150462D02*
X0430450Y0150462D01*
X0430450Y0148863D02*
X0384450Y0148863D01*
X0384450Y0147265D02*
X0430450Y0147265D01*
X0430450Y0145666D02*
X0384450Y0145666D01*
X0384079Y0144068D02*
X0430450Y0144068D01*
X0430450Y0142469D02*
X0382480Y0142469D01*
X0382741Y0140870D02*
X0430450Y0140870D01*
X0430450Y0139272D02*
X0384339Y0139272D01*
X0384450Y0137673D02*
X0430450Y0137673D01*
X0430450Y0136075D02*
X0384450Y0136075D01*
X0384450Y0134476D02*
X0430450Y0134476D01*
X0430450Y0132878D02*
X0382889Y0132878D01*
X0382332Y0131279D02*
X0430450Y0131279D01*
X0430450Y0129681D02*
X0383930Y0129681D01*
X0384450Y0128082D02*
X0430450Y0128082D01*
X0430450Y0126484D02*
X0384450Y0126484D01*
X0384450Y0124885D02*
X0430450Y0124885D01*
X0430450Y0123287D02*
X0383298Y0123287D01*
X0381923Y0121688D02*
X0430450Y0121688D01*
X0430450Y0120090D02*
X0383521Y0120090D01*
X0384450Y0118491D02*
X0430450Y0118491D01*
X0430450Y0116893D02*
X0384450Y0116893D01*
X0384450Y0115294D02*
X0430450Y0115294D01*
X0430450Y0113696D02*
X0383707Y0113696D01*
X0382108Y0112097D02*
X0430450Y0112097D01*
X0430450Y0110499D02*
X0383112Y0110499D01*
X0384450Y0108900D02*
X0430450Y0108900D01*
X0430450Y0107302D02*
X0384450Y0107302D01*
X0384450Y0105703D02*
X0430450Y0105703D01*
X0430450Y0104105D02*
X0384116Y0104105D01*
X0382517Y0102506D02*
X0430450Y0102506D01*
X0430450Y0100908D02*
X0382703Y0100908D01*
X0384302Y0099309D02*
X0430450Y0099309D01*
X0430450Y0097711D02*
X0384450Y0097711D01*
X0384450Y0096112D02*
X0430450Y0096112D01*
X0430450Y0094514D02*
X0384450Y0094514D01*
X0382926Y0092915D02*
X0430450Y0092915D01*
X0430450Y0091317D02*
X0382294Y0091317D01*
X0383893Y0089718D02*
X0430450Y0089718D01*
X0430450Y0088120D02*
X0384450Y0088120D01*
X0384450Y0086521D02*
X0430450Y0086521D01*
X0430450Y0084923D02*
X0384450Y0084923D01*
X0383335Y0083324D02*
X0430450Y0083324D01*
X0430450Y0081726D02*
X0381885Y0081726D01*
X0383484Y0080127D02*
X0430450Y0080127D01*
X0430450Y0078529D02*
X0384450Y0078529D01*
X0384450Y0076930D02*
X0430450Y0076930D01*
X0430450Y0075332D02*
X0384450Y0075332D01*
X0383744Y0073733D02*
X0430450Y0073733D01*
X0430450Y0072134D02*
X0382145Y0072134D01*
X0383075Y0070536D02*
X0430450Y0070536D01*
X0430450Y0068937D02*
X0384450Y0068937D01*
X0384450Y0067339D02*
X0430450Y0067339D01*
X0430450Y0065740D02*
X0384450Y0065740D01*
X0384153Y0064142D02*
X0430450Y0064142D01*
X0430450Y0062543D02*
X0382554Y0062543D01*
X0382666Y0060945D02*
X0430450Y0060945D01*
X0430450Y0059346D02*
X0384265Y0059346D01*
X0384450Y0057748D02*
X0430450Y0057748D01*
X0430450Y0056149D02*
X0384450Y0056149D01*
X0384450Y0054551D02*
X0430450Y0054551D01*
X0430450Y0052952D02*
X0383770Y0052952D01*
X0385368Y0051354D02*
X0430450Y0051354D01*
X0430450Y0049755D02*
X0386967Y0049755D01*
X0387561Y0049161D02*
X0387561Y0049161D01*
X0388565Y0048157D02*
X0430450Y0048157D01*
X0430450Y0046558D02*
X0388850Y0046558D01*
X0388850Y0044960D02*
X0430450Y0044960D01*
X0430450Y0043361D02*
X0388850Y0043361D01*
X0388850Y0041763D02*
X0430450Y0041763D01*
X0430450Y0040164D02*
X0388850Y0040164D01*
X0388850Y0038566D02*
X0430450Y0038566D01*
X0430450Y0036967D02*
X0388850Y0036967D01*
X0388850Y0035369D02*
X0430450Y0035369D01*
X0430450Y0033770D02*
X0388850Y0033770D01*
X0388850Y0032172D02*
X0430450Y0032172D01*
X0430450Y0030573D02*
X0388746Y0030573D01*
X0387147Y0028975D02*
X0430450Y0028975D01*
X0430450Y0027376D02*
X0385549Y0027376D01*
X0384861Y0026689D02*
X0384861Y0026689D01*
X0383950Y0025778D02*
X0430450Y0025778D01*
X0430450Y0024179D02*
X0062050Y0024179D01*
X0062050Y0022581D02*
X0145904Y0022581D01*
X0146223Y0022900D02*
X0143467Y0020144D01*
X0141111Y0022500D01*
X0136389Y0022500D01*
X0133750Y0019861D01*
X0131111Y0022500D01*
X0126389Y0022500D01*
X0123750Y0019861D01*
X0121111Y0022500D01*
X0116389Y0022500D01*
X0113750Y0019861D01*
X0111111Y0022500D01*
X0106389Y0022500D01*
X0103050Y0019161D01*
X0103050Y0014439D01*
X0106389Y0011100D01*
X0111111Y0011100D01*
X0113750Y0013739D01*
X0116389Y0011100D01*
X0121111Y0011100D01*
X0123750Y0013739D01*
X0126389Y0011100D01*
X0131111Y0011100D01*
X0133750Y0013739D01*
X0136389Y0011100D01*
X0141111Y0011100D01*
X0143467Y0013456D01*
X0146223Y0010700D01*
X0148575Y0010700D01*
X0148575Y0016625D01*
X0148925Y0016625D01*
X0148925Y0010700D01*
X0151277Y0010700D01*
X0154033Y0013456D01*
X0156389Y0011100D01*
X0161111Y0011100D01*
X0163750Y0013739D01*
X0166389Y0011100D01*
X0171111Y0011100D01*
X0173750Y0013739D01*
X0176389Y0011100D01*
X0181111Y0011100D01*
X0184450Y0014439D01*
X0184450Y0019161D01*
X0181111Y0022500D01*
X0176389Y0022500D01*
X0173750Y0019861D01*
X0171111Y0022500D01*
X0166389Y0022500D01*
X0163750Y0019861D01*
X0161111Y0022500D01*
X0156389Y0022500D01*
X0154033Y0020144D01*
X0151277Y0022900D01*
X0148925Y0022900D01*
X0148925Y0016975D01*
X0148575Y0016975D01*
X0148575Y0022900D01*
X0146223Y0022900D01*
X0148575Y0022581D02*
X0148925Y0022581D01*
X0148925Y0020982D02*
X0148575Y0020982D01*
X0148575Y0019384D02*
X0148925Y0019384D01*
X0148925Y0017785D02*
X0148575Y0017785D01*
X0148575Y0016187D02*
X0148925Y0016187D01*
X0148925Y0014588D02*
X0148575Y0014588D01*
X0148575Y0012990D02*
X0148925Y0012990D01*
X0148925Y0011391D02*
X0148575Y0011391D01*
X0145532Y0011391D02*
X0141402Y0011391D01*
X0143001Y0012990D02*
X0143934Y0012990D01*
X0151968Y0011391D02*
X0156098Y0011391D01*
X0154499Y0012990D02*
X0153566Y0012990D01*
X0161402Y0011391D02*
X0166098Y0011391D01*
X0164499Y0012990D02*
X0163001Y0012990D01*
X0171402Y0011391D02*
X0176098Y0011391D01*
X0174499Y0012990D02*
X0173001Y0012990D01*
X0181402Y0011391D02*
X0196098Y0011391D01*
X0196389Y0011100D02*
X0201111Y0011100D01*
X0203750Y0013739D01*
X0206389Y0011100D01*
X0211111Y0011100D01*
X0213750Y0013739D01*
X0216389Y0011100D01*
X0221111Y0011100D01*
X0223750Y0013739D01*
X0226389Y0011100D01*
X0231111Y0011100D01*
X0233750Y0013739D01*
X0236389Y0011100D01*
X0241111Y0011100D01*
X0243750Y0013739D01*
X0246389Y0011100D01*
X0251111Y0011100D01*
X0253750Y0013739D01*
X0256389Y0011100D01*
X0261111Y0011100D01*
X0263750Y0013739D01*
X0266389Y0011100D01*
X0271111Y0011100D01*
X0274450Y0014439D01*
X0274450Y0019161D01*
X0271111Y0022500D01*
X0266389Y0022500D01*
X0263750Y0019861D01*
X0261111Y0022500D01*
X0256389Y0022500D01*
X0253750Y0019861D01*
X0251111Y0022500D01*
X0246389Y0022500D01*
X0243750Y0019861D01*
X0241111Y0022500D01*
X0236389Y0022500D01*
X0233750Y0019861D01*
X0231111Y0022500D01*
X0226389Y0022500D01*
X0223750Y0019861D01*
X0221111Y0022500D01*
X0216389Y0022500D01*
X0213750Y0019861D01*
X0211111Y0022500D01*
X0206389Y0022500D01*
X0203750Y0019861D01*
X0201111Y0022500D01*
X0196389Y0022500D01*
X0193050Y0019161D01*
X0193050Y0014439D01*
X0196389Y0011100D01*
X0194499Y0012990D02*
X0183001Y0012990D01*
X0184450Y0014588D02*
X0193050Y0014588D01*
X0193050Y0016187D02*
X0184450Y0016187D01*
X0184450Y0017785D02*
X0193050Y0017785D01*
X0193273Y0019384D02*
X0184227Y0019384D01*
X0182629Y0020982D02*
X0194871Y0020982D01*
X0202629Y0020982D02*
X0204871Y0020982D01*
X0212629Y0020982D02*
X0214871Y0020982D01*
X0222629Y0020982D02*
X0224871Y0020982D01*
X0232629Y0020982D02*
X0234871Y0020982D01*
X0242629Y0020982D02*
X0244871Y0020982D01*
X0252629Y0020982D02*
X0254871Y0020982D01*
X0262629Y0020982D02*
X0264871Y0020982D01*
X0272629Y0020982D02*
X0284871Y0020982D01*
X0286389Y0022500D02*
X0283050Y0019161D01*
X0283050Y0014439D01*
X0286389Y0011100D01*
X0291111Y0011100D01*
X0293750Y0013739D01*
X0296389Y0011100D01*
X0301111Y0011100D01*
X0303750Y0013739D01*
X0306389Y0011100D01*
X0311111Y0011100D01*
X0313750Y0013739D01*
X0316389Y0011100D01*
X0321111Y0011100D01*
X0323750Y0013739D01*
X0326389Y0011100D01*
X0331111Y0011100D01*
X0333750Y0013739D01*
X0336389Y0011100D01*
X0341111Y0011100D01*
X0343750Y0013739D01*
X0346389Y0011100D01*
X0351111Y0011100D01*
X0353750Y0013739D01*
X0356389Y0011100D01*
X0361111Y0011100D01*
X0364450Y0014439D01*
X0364450Y0019161D01*
X0361111Y0022500D01*
X0356389Y0022500D01*
X0353750Y0019861D01*
X0351111Y0022500D01*
X0346389Y0022500D01*
X0343750Y0019861D01*
X0341111Y0022500D01*
X0336389Y0022500D01*
X0333750Y0019861D01*
X0331111Y0022500D01*
X0326389Y0022500D01*
X0323750Y0019861D01*
X0321111Y0022500D01*
X0316389Y0022500D01*
X0313750Y0019861D01*
X0311111Y0022500D01*
X0306389Y0022500D01*
X0303750Y0019861D01*
X0301111Y0022500D01*
X0296389Y0022500D01*
X0293750Y0019861D01*
X0291111Y0022500D01*
X0286389Y0022500D01*
X0283273Y0019384D02*
X0274227Y0019384D01*
X0274450Y0017785D02*
X0283050Y0017785D01*
X0283050Y0016187D02*
X0274450Y0016187D01*
X0274450Y0014588D02*
X0283050Y0014588D01*
X0284499Y0012990D02*
X0273001Y0012990D01*
X0271402Y0011391D02*
X0286098Y0011391D01*
X0291402Y0011391D02*
X0296098Y0011391D01*
X0294499Y0012990D02*
X0293001Y0012990D01*
X0301402Y0011391D02*
X0306098Y0011391D01*
X0304499Y0012990D02*
X0303001Y0012990D01*
X0311402Y0011391D02*
X0316098Y0011391D01*
X0314499Y0012990D02*
X0313001Y0012990D01*
X0321402Y0011391D02*
X0326098Y0011391D01*
X0324499Y0012990D02*
X0323001Y0012990D01*
X0331402Y0011391D02*
X0336098Y0011391D01*
X0334499Y0012990D02*
X0333001Y0012990D01*
X0341402Y0011391D02*
X0346098Y0011391D01*
X0344499Y0012990D02*
X0343001Y0012990D01*
X0351402Y0011391D02*
X0356098Y0011391D01*
X0354499Y0012990D02*
X0353001Y0012990D01*
X0361402Y0011391D02*
X0430450Y0011391D01*
X0430450Y0009793D02*
X0062050Y0009793D01*
X0062050Y0011391D02*
X0106098Y0011391D01*
X0104499Y0012990D02*
X0062050Y0012990D01*
X0062050Y0014588D02*
X0103050Y0014588D01*
X0103050Y0016187D02*
X0062050Y0016187D01*
X0062050Y0017785D02*
X0103050Y0017785D01*
X0103273Y0019384D02*
X0062050Y0019384D01*
X0062050Y0020982D02*
X0104871Y0020982D01*
X0112629Y0020982D02*
X0114871Y0020982D01*
X0122629Y0020982D02*
X0124871Y0020982D01*
X0132629Y0020982D02*
X0134871Y0020982D01*
X0142629Y0020982D02*
X0144305Y0020982D01*
X0151596Y0022581D02*
X0430450Y0022581D01*
X0430450Y0020982D02*
X0362629Y0020982D01*
X0364227Y0019384D02*
X0430450Y0019384D01*
X0430450Y0017785D02*
X0364450Y0017785D01*
X0364450Y0016187D02*
X0430450Y0016187D01*
X0430450Y0014588D02*
X0364450Y0014588D01*
X0363001Y0012990D02*
X0430450Y0012990D01*
X0430450Y0008194D02*
X0062050Y0008194D01*
X0062050Y0006596D02*
X0430450Y0006596D01*
X0386650Y0031589D02*
X0382661Y0027600D01*
X0274950Y0027600D01*
X0155750Y0146800D01*
X0083750Y0146800D01*
X0073750Y0156800D01*
X0068050Y0156856D02*
X0062050Y0156856D01*
X0062050Y0158454D02*
X0068050Y0158454D01*
X0068942Y0160053D02*
X0062050Y0160053D01*
X0062050Y0161651D02*
X0070540Y0161651D01*
X0069239Y0163250D02*
X0062050Y0163250D01*
X0062050Y0164848D02*
X0068050Y0164848D01*
X0068050Y0166447D02*
X0062050Y0166447D01*
X0062050Y0168045D02*
X0068050Y0168045D01*
X0068533Y0169644D02*
X0062050Y0169644D01*
X0062050Y0171242D02*
X0070131Y0171242D01*
X0069648Y0172841D02*
X0062050Y0172841D01*
X0062050Y0174439D02*
X0068050Y0174439D01*
X0068050Y0176038D02*
X0062050Y0176038D01*
X0062050Y0177636D02*
X0068050Y0177636D01*
X0068124Y0179235D02*
X0062050Y0179235D01*
X0062050Y0180833D02*
X0069722Y0180833D01*
X0070057Y0182432D02*
X0062050Y0182432D01*
X0062050Y0184030D02*
X0068459Y0184030D01*
X0068050Y0185629D02*
X0062050Y0185629D01*
X0062050Y0187227D02*
X0068050Y0187227D01*
X0068050Y0188826D02*
X0062050Y0188826D01*
X0062050Y0190424D02*
X0069313Y0190424D01*
X0070912Y0192023D02*
X0062050Y0192023D01*
X0062050Y0193621D02*
X0135510Y0193621D01*
X0134050Y0192023D02*
X0076588Y0192023D01*
X0078187Y0190424D02*
X0134050Y0190424D01*
X0134050Y0188826D02*
X0105774Y0188826D01*
X0107373Y0187227D02*
X0134262Y0187227D01*
X0135860Y0185629D02*
X0108971Y0185629D01*
X0110570Y0184030D02*
X0135919Y0184030D01*
X0134321Y0182432D02*
X0112168Y0182432D01*
X0113767Y0180833D02*
X0134050Y0180833D01*
X0134050Y0179235D02*
X0115365Y0179235D01*
X0116964Y0177636D02*
X0134050Y0177636D01*
X0135451Y0176038D02*
X0118562Y0176038D01*
X0120161Y0174439D02*
X0136328Y0174439D01*
X0134730Y0172841D02*
X0121760Y0172841D01*
X0123358Y0171242D02*
X0134050Y0171242D01*
X0134050Y0169644D02*
X0124957Y0169644D01*
X0126555Y0168045D02*
X0134050Y0168045D01*
X0135042Y0166447D02*
X0128154Y0166447D01*
X0129752Y0164848D02*
X0136641Y0164848D01*
X0135139Y0163250D02*
X0131351Y0163250D01*
X0132949Y0161651D02*
X0134050Y0161651D01*
X0139750Y0159800D02*
X0156639Y0159800D01*
X0251839Y0064600D01*
X0360950Y0064600D01*
X0368750Y0056800D01*
X0378750Y0056800D02*
X0378750Y0054861D01*
X0386650Y0046961D01*
X0386650Y0031589D01*
X0384450Y0034439D02*
X0384450Y0041100D01*
X0378750Y0046800D01*
X0368750Y0046800D02*
X0265750Y0046800D01*
X0158450Y0154100D01*
X0137389Y0154100D01*
X0104689Y0186800D01*
X0073750Y0186800D01*
X0073158Y0195220D02*
X0062050Y0195220D01*
X0062050Y0196818D02*
X0071559Y0196818D01*
X0069961Y0198417D02*
X0062050Y0198417D01*
X0062050Y0200015D02*
X0068362Y0200015D01*
X0066764Y0201614D02*
X0062050Y0201614D01*
X0062050Y0203212D02*
X0065165Y0203212D01*
X0064850Y0204811D02*
X0062050Y0204811D01*
X0062050Y0206409D02*
X0064850Y0206409D01*
X0064850Y0208008D02*
X0062050Y0208008D01*
X0062050Y0209606D02*
X0064850Y0209606D01*
X0065983Y0211205D02*
X0062050Y0211205D01*
X0062050Y0212803D02*
X0067581Y0212803D01*
X0069180Y0214402D02*
X0062050Y0214402D01*
X0062050Y0216001D02*
X0070778Y0216001D01*
X0071550Y0217599D02*
X0062050Y0217599D01*
X0062050Y0219198D02*
X0071550Y0219198D01*
X0071550Y0220796D02*
X0062050Y0220796D01*
X0062050Y0222395D02*
X0071550Y0222395D01*
X0071550Y0223993D02*
X0062050Y0223993D01*
X0062050Y0225592D02*
X0071550Y0225592D01*
X0071550Y0227190D02*
X0062050Y0227190D01*
X0062050Y0228789D02*
X0069700Y0228789D01*
X0068580Y0230387D02*
X0062050Y0230387D01*
X0062050Y0231986D02*
X0068050Y0231986D01*
X0068050Y0233584D02*
X0062050Y0233584D01*
X0062050Y0235183D02*
X0068567Y0235183D01*
X0069670Y0236781D02*
X0062050Y0236781D01*
X0073750Y0232800D02*
X0073750Y0215861D01*
X0067050Y0209161D01*
X0067050Y0204439D01*
X0074689Y0196800D01*
X0299750Y0196800D01*
X0303217Y0196818D02*
X0360850Y0196818D01*
X0360850Y0195220D02*
X0303217Y0195220D01*
X0302685Y0193621D02*
X0360850Y0193621D01*
X0360850Y0192023D02*
X0211588Y0192023D01*
X0212450Y0190424D02*
X0277313Y0190424D01*
X0275715Y0188826D02*
X0212450Y0188826D01*
X0212450Y0187227D02*
X0275050Y0187227D01*
X0275050Y0185629D02*
X0213032Y0185629D01*
X0214631Y0184030D02*
X0275050Y0184030D01*
X0276057Y0182432D02*
X0216229Y0182432D01*
X0217828Y0180833D02*
X0277656Y0180833D01*
X0276124Y0179235D02*
X0219427Y0179235D01*
X0221025Y0177636D02*
X0275050Y0177636D01*
X0275050Y0176038D02*
X0222624Y0176038D01*
X0224222Y0174439D02*
X0275050Y0174439D01*
X0275648Y0172841D02*
X0225821Y0172841D01*
X0227419Y0171242D02*
X0277247Y0171242D01*
X0276533Y0169644D02*
X0229018Y0169644D01*
X0230616Y0168045D02*
X0275050Y0168045D01*
X0275050Y0166447D02*
X0232215Y0166447D01*
X0233813Y0164848D02*
X0275050Y0164848D01*
X0275239Y0163250D02*
X0235412Y0163250D01*
X0237010Y0161651D02*
X0276838Y0161651D01*
X0276942Y0160053D02*
X0238609Y0160053D01*
X0240207Y0158454D02*
X0275343Y0158454D01*
X0275050Y0156856D02*
X0241806Y0156856D01*
X0243404Y0155257D02*
X0275050Y0155257D01*
X0275050Y0153659D02*
X0245003Y0153659D01*
X0246601Y0152060D02*
X0276429Y0152060D01*
X0278027Y0150462D02*
X0248200Y0150462D01*
X0249798Y0148863D02*
X0284576Y0148863D01*
X0286174Y0147265D02*
X0251397Y0147265D01*
X0252995Y0145666D02*
X0287773Y0145666D01*
X0289371Y0144068D02*
X0254594Y0144068D01*
X0256192Y0142469D02*
X0290970Y0142469D01*
X0292568Y0140870D02*
X0257791Y0140870D01*
X0259389Y0139272D02*
X0294167Y0139272D01*
X0295765Y0137673D02*
X0260988Y0137673D01*
X0262586Y0136075D02*
X0297364Y0136075D01*
X0298962Y0134476D02*
X0264185Y0134476D01*
X0265783Y0132878D02*
X0300561Y0132878D01*
X0302159Y0131279D02*
X0267382Y0131279D01*
X0268980Y0129681D02*
X0303758Y0129681D01*
X0305356Y0128082D02*
X0270579Y0128082D01*
X0272177Y0126484D02*
X0306955Y0126484D01*
X0308553Y0124885D02*
X0273776Y0124885D01*
X0275374Y0123287D02*
X0310152Y0123287D01*
X0311750Y0121688D02*
X0276973Y0121688D01*
X0278571Y0120090D02*
X0313349Y0120090D01*
X0314947Y0118491D02*
X0280170Y0118491D01*
X0281768Y0116893D02*
X0316546Y0116893D01*
X0318144Y0115294D02*
X0283367Y0115294D01*
X0284965Y0113696D02*
X0363793Y0113696D01*
X0365392Y0112097D02*
X0286564Y0112097D01*
X0288162Y0110499D02*
X0364388Y0110499D01*
X0368750Y0106800D02*
X0288750Y0106800D01*
X0206750Y0188800D01*
X0201050Y0188826D02*
X0171774Y0188826D01*
X0170176Y0190424D02*
X0201050Y0190424D01*
X0201912Y0192023D02*
X0145450Y0192023D01*
X0143990Y0193621D02*
X0203510Y0193621D01*
X0209990Y0193621D02*
X0296815Y0193621D01*
X0296852Y0200015D02*
X0150550Y0200015D01*
X0147750Y0200800D02*
X0146539Y0199589D01*
X0109961Y0199589D01*
X0102750Y0206800D01*
X0099094Y0211205D02*
X0096406Y0211205D01*
X0089094Y0211205D02*
X0086406Y0211205D01*
X0079094Y0211205D02*
X0076406Y0211205D01*
X0073804Y0212803D02*
X0349635Y0212803D01*
X0351234Y0211205D02*
X0342406Y0211205D01*
X0341111Y0212500D02*
X0336389Y0212500D01*
X0333750Y0209861D01*
X0331111Y0212500D01*
X0326389Y0212500D01*
X0323750Y0209861D01*
X0321111Y0212500D01*
X0316389Y0212500D01*
X0313750Y0209861D01*
X0311111Y0212500D01*
X0306389Y0212500D01*
X0303750Y0209861D01*
X0301111Y0212500D01*
X0296389Y0212500D01*
X0293750Y0209861D01*
X0291111Y0212500D01*
X0286389Y0212500D01*
X0283750Y0209861D01*
X0281111Y0212500D01*
X0276389Y0212500D01*
X0273750Y0209861D01*
X0271111Y0212500D01*
X0266389Y0212500D01*
X0263050Y0209161D01*
X0263050Y0204439D01*
X0266389Y0201100D01*
X0271111Y0201100D01*
X0273750Y0203739D01*
X0276389Y0201100D01*
X0281111Y0201100D01*
X0283750Y0203739D01*
X0286389Y0201100D01*
X0291111Y0201100D01*
X0293750Y0203739D01*
X0296389Y0201100D01*
X0301111Y0201100D01*
X0303750Y0203739D01*
X0306389Y0201100D01*
X0311111Y0201100D01*
X0313750Y0203739D01*
X0316389Y0201100D01*
X0321111Y0201100D01*
X0323750Y0203739D01*
X0326389Y0201100D01*
X0331111Y0201100D01*
X0333750Y0203739D01*
X0336389Y0201100D01*
X0341111Y0201100D01*
X0344450Y0204439D01*
X0344450Y0209161D01*
X0341111Y0212500D01*
X0344005Y0209606D02*
X0352832Y0209606D01*
X0354431Y0208008D02*
X0344450Y0208008D01*
X0344450Y0206409D02*
X0356029Y0206409D01*
X0357628Y0204811D02*
X0344450Y0204811D01*
X0343223Y0203212D02*
X0359226Y0203212D01*
X0360825Y0201614D02*
X0341625Y0201614D01*
X0335875Y0201614D02*
X0331625Y0201614D01*
X0333223Y0203212D02*
X0334277Y0203212D01*
X0325875Y0201614D02*
X0321625Y0201614D01*
X0323223Y0203212D02*
X0324277Y0203212D01*
X0315875Y0201614D02*
X0311625Y0201614D01*
X0313223Y0203212D02*
X0314277Y0203212D01*
X0305875Y0201614D02*
X0301625Y0201614D01*
X0302648Y0200015D02*
X0360850Y0200015D01*
X0360850Y0198417D02*
X0303217Y0198417D01*
X0303223Y0203212D02*
X0304277Y0203212D01*
X0295875Y0201614D02*
X0291625Y0201614D01*
X0293223Y0203212D02*
X0294277Y0203212D01*
X0285875Y0201614D02*
X0281625Y0201614D01*
X0283223Y0203212D02*
X0284277Y0203212D01*
X0275875Y0201614D02*
X0271625Y0201614D01*
X0273223Y0203212D02*
X0274277Y0203212D01*
X0265875Y0201614D02*
X0251625Y0201614D01*
X0251111Y0201100D02*
X0254450Y0204439D01*
X0254450Y0209161D01*
X0251111Y0212500D01*
X0246389Y0212500D01*
X0243750Y0209861D01*
X0241111Y0212500D01*
X0236389Y0212500D01*
X0233750Y0209861D01*
X0231111Y0212500D01*
X0226389Y0212500D01*
X0223750Y0209861D01*
X0221111Y0212500D01*
X0216389Y0212500D01*
X0213750Y0209861D01*
X0211111Y0212500D01*
X0206389Y0212500D01*
X0203750Y0209861D01*
X0201111Y0212500D01*
X0196389Y0212500D01*
X0193750Y0209861D01*
X0191111Y0212500D01*
X0186389Y0212500D01*
X0183750Y0209861D01*
X0181111Y0212500D01*
X0176389Y0212500D01*
X0173050Y0209161D01*
X0173050Y0204439D01*
X0176389Y0201100D01*
X0181111Y0201100D01*
X0183750Y0203739D01*
X0186389Y0201100D01*
X0191111Y0201100D01*
X0193750Y0203739D01*
X0196389Y0201100D01*
X0201111Y0201100D01*
X0203750Y0203739D01*
X0206389Y0201100D01*
X0211111Y0201100D01*
X0213750Y0203739D01*
X0216389Y0201100D01*
X0221111Y0201100D01*
X0223750Y0203739D01*
X0226389Y0201100D01*
X0231111Y0201100D01*
X0233750Y0203739D01*
X0236389Y0201100D01*
X0241111Y0201100D01*
X0243750Y0203739D01*
X0246389Y0201100D01*
X0251111Y0201100D01*
X0253223Y0203212D02*
X0264277Y0203212D01*
X0263050Y0204811D02*
X0254450Y0204811D01*
X0254450Y0206409D02*
X0263050Y0206409D01*
X0263050Y0208008D02*
X0254450Y0208008D01*
X0254005Y0209606D02*
X0263495Y0209606D01*
X0265094Y0211205D02*
X0252406Y0211205D01*
X0245094Y0211205D02*
X0242406Y0211205D01*
X0235094Y0211205D02*
X0232406Y0211205D01*
X0225094Y0211205D02*
X0222406Y0211205D01*
X0215094Y0211205D02*
X0212406Y0211205D01*
X0205094Y0211205D02*
X0202406Y0211205D01*
X0195094Y0211205D02*
X0192406Y0211205D01*
X0185094Y0211205D02*
X0182406Y0211205D01*
X0175094Y0211205D02*
X0166406Y0211205D01*
X0168005Y0209606D02*
X0173495Y0209606D01*
X0173050Y0208008D02*
X0168450Y0208008D01*
X0168450Y0206409D02*
X0173050Y0206409D01*
X0173050Y0204811D02*
X0168450Y0204811D01*
X0167223Y0203212D02*
X0174277Y0203212D01*
X0175875Y0201614D02*
X0165625Y0201614D01*
X0159875Y0201614D02*
X0155625Y0201614D01*
X0157223Y0203212D02*
X0158277Y0203212D01*
X0159094Y0211205D02*
X0156406Y0211205D01*
X0149094Y0211205D02*
X0146406Y0211205D01*
X0139094Y0211205D02*
X0136406Y0211205D01*
X0129094Y0211205D02*
X0126406Y0211205D01*
X0119094Y0211205D02*
X0116406Y0211205D01*
X0109094Y0211205D02*
X0106406Y0211205D01*
X0075950Y0216001D02*
X0344283Y0216001D01*
X0344283Y0217599D02*
X0075950Y0217599D01*
X0075950Y0219198D02*
X0344283Y0219198D01*
X0344632Y0220796D02*
X0075950Y0220796D01*
X0075402Y0214402D02*
X0345034Y0214402D01*
X0347750Y0217800D02*
X0363050Y0202500D01*
X0363050Y0184439D01*
X0368750Y0178739D01*
X0368750Y0176800D01*
X0363050Y0176038D02*
X0362624Y0176038D01*
X0363050Y0177636D02*
X0361025Y0177636D01*
X0359427Y0179235D02*
X0363124Y0179235D01*
X0363544Y0180833D02*
X0357828Y0180833D01*
X0356229Y0182432D02*
X0361946Y0182432D01*
X0360850Y0184030D02*
X0354631Y0184030D01*
X0353032Y0185629D02*
X0360850Y0185629D01*
X0360850Y0187227D02*
X0335384Y0187227D01*
X0333785Y0188826D02*
X0360850Y0188826D01*
X0360850Y0190424D02*
X0332187Y0190424D01*
X0327313Y0190424D02*
X0284187Y0190424D01*
X0285785Y0188826D02*
X0325715Y0188826D01*
X0324116Y0187227D02*
X0286450Y0187227D01*
X0286450Y0185629D02*
X0324050Y0185629D01*
X0324050Y0184030D02*
X0286450Y0184030D01*
X0287229Y0182432D02*
X0324057Y0182432D01*
X0325656Y0180833D02*
X0288828Y0180833D01*
X0290427Y0179235D02*
X0326124Y0179235D01*
X0324525Y0177636D02*
X0292025Y0177636D01*
X0293624Y0176038D02*
X0324050Y0176038D01*
X0324050Y0174439D02*
X0295222Y0174439D01*
X0296821Y0172841D02*
X0324050Y0172841D01*
X0325247Y0171242D02*
X0298419Y0171242D01*
X0300018Y0169644D02*
X0326533Y0169644D01*
X0324934Y0168045D02*
X0301616Y0168045D01*
X0303215Y0166447D02*
X0324050Y0166447D01*
X0324050Y0164848D02*
X0304813Y0164848D01*
X0306412Y0163250D02*
X0324050Y0163250D01*
X0324838Y0161651D02*
X0308010Y0161651D01*
X0309609Y0160053D02*
X0326436Y0160053D01*
X0325343Y0158454D02*
X0311207Y0158454D01*
X0312806Y0156856D02*
X0324050Y0156856D01*
X0324050Y0155257D02*
X0314404Y0155257D01*
X0316003Y0153659D02*
X0324050Y0153659D01*
X0324429Y0152060D02*
X0317601Y0152060D01*
X0319200Y0150462D02*
X0326027Y0150462D01*
X0322397Y0147265D02*
X0363050Y0147265D01*
X0363050Y0148863D02*
X0320798Y0148863D01*
X0323995Y0145666D02*
X0363050Y0145666D01*
X0363421Y0144068D02*
X0325594Y0144068D01*
X0327192Y0142469D02*
X0365020Y0142469D01*
X0364759Y0140870D02*
X0328791Y0140870D01*
X0330389Y0139272D02*
X0363161Y0139272D01*
X0360950Y0134600D02*
X0368750Y0126800D01*
X0368750Y0136800D02*
X0329750Y0136800D01*
X0280750Y0185800D01*
X0280750Y0175800D02*
X0287639Y0175800D01*
X0328839Y0134600D01*
X0360950Y0134600D01*
X0368750Y0146800D02*
X0360750Y0154800D01*
X0329750Y0154800D01*
X0333473Y0150462D02*
X0361977Y0150462D01*
X0360379Y0152060D02*
X0335071Y0152060D01*
X0350750Y0174800D02*
X0368750Y0156800D01*
X0368750Y0166800D02*
X0350750Y0184800D01*
X0329750Y0184800D01*
X0329750Y0174800D02*
X0350750Y0174800D01*
X0378750Y0196800D02*
X0387750Y0205800D01*
X0378925Y0208008D02*
X0378575Y0208008D01*
X0378575Y0209606D02*
X0378925Y0209606D01*
X0365094Y0211205D02*
X0357456Y0211205D01*
X0359055Y0209606D02*
X0363495Y0209606D01*
X0363050Y0208008D02*
X0360653Y0208008D01*
X0362252Y0206409D02*
X0363050Y0206409D01*
X0335094Y0211205D02*
X0332406Y0211205D01*
X0325094Y0211205D02*
X0322406Y0211205D01*
X0315094Y0211205D02*
X0312406Y0211205D01*
X0305094Y0211205D02*
X0302406Y0211205D01*
X0295094Y0211205D02*
X0292406Y0211205D01*
X0285094Y0211205D02*
X0282406Y0211205D01*
X0275094Y0211205D02*
X0272406Y0211205D01*
X0245875Y0201614D02*
X0241625Y0201614D01*
X0243223Y0203212D02*
X0244277Y0203212D01*
X0235875Y0201614D02*
X0231625Y0201614D01*
X0233223Y0203212D02*
X0234277Y0203212D01*
X0225875Y0201614D02*
X0221625Y0201614D01*
X0223223Y0203212D02*
X0224277Y0203212D01*
X0215875Y0201614D02*
X0211625Y0201614D01*
X0213223Y0203212D02*
X0214277Y0203212D01*
X0205875Y0201614D02*
X0201625Y0201614D01*
X0203223Y0203212D02*
X0204277Y0203212D01*
X0195875Y0201614D02*
X0191625Y0201614D01*
X0193223Y0203212D02*
X0194277Y0203212D01*
X0185875Y0201614D02*
X0181625Y0201614D01*
X0183223Y0203212D02*
X0184277Y0203212D01*
X0167689Y0189800D02*
X0265089Y0092400D01*
X0353150Y0092400D01*
X0368750Y0076800D01*
X0363050Y0076930D02*
X0338681Y0076930D01*
X0337979Y0077632D02*
X0335884Y0078500D01*
X0333616Y0078500D01*
X0331521Y0077632D01*
X0329918Y0076029D01*
X0329050Y0073934D01*
X0329050Y0071666D01*
X0329918Y0069571D01*
X0330489Y0069000D01*
X0253661Y0069000D01*
X0145336Y0177325D01*
X0145450Y0177439D01*
X0145450Y0182161D01*
X0142811Y0184800D01*
X0145450Y0187439D01*
X0145450Y0187600D01*
X0166778Y0187600D01*
X0264178Y0090200D01*
X0301089Y0090200D01*
X0299918Y0089029D01*
X0299050Y0086934D01*
X0299050Y0084666D01*
X0299918Y0082571D01*
X0301521Y0080968D01*
X0303616Y0080100D01*
X0305884Y0080100D01*
X0307979Y0080968D01*
X0309582Y0082571D01*
X0310450Y0084666D01*
X0310450Y0086934D01*
X0309582Y0089029D01*
X0308411Y0090200D01*
X0352239Y0090200D01*
X0363164Y0079275D01*
X0363050Y0079161D01*
X0363050Y0074439D01*
X0365689Y0071800D01*
X0363050Y0069161D01*
X0363050Y0069000D01*
X0339011Y0069000D01*
X0339582Y0069571D01*
X0340450Y0071666D01*
X0340450Y0073934D01*
X0339582Y0076029D01*
X0337979Y0077632D01*
X0339871Y0075332D02*
X0363050Y0075332D01*
X0363756Y0073733D02*
X0340450Y0073733D01*
X0340450Y0072134D02*
X0365354Y0072134D01*
X0364425Y0070536D02*
X0339982Y0070536D01*
X0329518Y0070536D02*
X0252125Y0070536D01*
X0250527Y0072134D02*
X0329050Y0072134D01*
X0329050Y0073733D02*
X0248928Y0073733D01*
X0247330Y0075332D02*
X0329629Y0075332D01*
X0330819Y0076930D02*
X0245731Y0076930D01*
X0244133Y0078529D02*
X0363050Y0078529D01*
X0362312Y0080127D02*
X0305949Y0080127D01*
X0303551Y0080127D02*
X0242534Y0080127D01*
X0240936Y0081726D02*
X0300763Y0081726D01*
X0299606Y0083324D02*
X0239337Y0083324D01*
X0237739Y0084923D02*
X0299050Y0084923D01*
X0299050Y0086521D02*
X0236140Y0086521D01*
X0234542Y0088120D02*
X0299541Y0088120D01*
X0300607Y0089718D02*
X0232943Y0089718D01*
X0231345Y0091317D02*
X0263061Y0091317D01*
X0261463Y0092915D02*
X0229746Y0092915D01*
X0228148Y0094514D02*
X0259864Y0094514D01*
X0258266Y0096112D02*
X0226549Y0096112D01*
X0224951Y0097711D02*
X0256667Y0097711D01*
X0255069Y0099309D02*
X0223352Y0099309D01*
X0221754Y0100908D02*
X0253470Y0100908D01*
X0251871Y0102506D02*
X0220155Y0102506D01*
X0218557Y0104105D02*
X0250273Y0104105D01*
X0248674Y0105703D02*
X0216958Y0105703D01*
X0215360Y0107302D02*
X0247076Y0107302D01*
X0245477Y0108900D02*
X0213761Y0108900D01*
X0212162Y0110499D02*
X0243879Y0110499D01*
X0242280Y0112097D02*
X0210564Y0112097D01*
X0208965Y0113696D02*
X0240682Y0113696D01*
X0239083Y0115294D02*
X0207367Y0115294D01*
X0205768Y0116893D02*
X0237485Y0116893D01*
X0235886Y0118491D02*
X0204170Y0118491D01*
X0202571Y0120090D02*
X0234288Y0120090D01*
X0232689Y0121688D02*
X0200973Y0121688D01*
X0199374Y0123287D02*
X0231091Y0123287D01*
X0229492Y0124885D02*
X0197776Y0124885D01*
X0196177Y0126484D02*
X0227894Y0126484D01*
X0226295Y0128082D02*
X0194579Y0128082D01*
X0192980Y0129681D02*
X0224697Y0129681D01*
X0223098Y0131279D02*
X0191382Y0131279D01*
X0189783Y0132878D02*
X0221500Y0132878D01*
X0219901Y0134476D02*
X0188185Y0134476D01*
X0186586Y0136075D02*
X0218303Y0136075D01*
X0216704Y0137673D02*
X0184988Y0137673D01*
X0183389Y0139272D02*
X0215106Y0139272D01*
X0213507Y0140870D02*
X0181791Y0140870D01*
X0180192Y0142469D02*
X0211909Y0142469D01*
X0210310Y0144068D02*
X0178594Y0144068D01*
X0176995Y0145666D02*
X0208712Y0145666D01*
X0207113Y0147265D02*
X0175397Y0147265D01*
X0173798Y0148863D02*
X0205515Y0148863D01*
X0203916Y0150462D02*
X0172200Y0150462D01*
X0170601Y0152060D02*
X0202318Y0152060D01*
X0200719Y0153659D02*
X0169003Y0153659D01*
X0167404Y0155257D02*
X0199121Y0155257D01*
X0197522Y0156856D02*
X0165806Y0156856D01*
X0164207Y0158454D02*
X0195924Y0158454D01*
X0194325Y0160053D02*
X0162609Y0160053D01*
X0161010Y0161651D02*
X0192727Y0161651D01*
X0191128Y0163250D02*
X0159412Y0163250D01*
X0157813Y0164848D02*
X0189530Y0164848D01*
X0187931Y0166447D02*
X0156215Y0166447D01*
X0154616Y0168045D02*
X0186333Y0168045D01*
X0184734Y0169644D02*
X0153018Y0169644D01*
X0151419Y0171242D02*
X0183135Y0171242D01*
X0181537Y0172841D02*
X0149821Y0172841D01*
X0148222Y0174439D02*
X0179938Y0174439D01*
X0178340Y0176038D02*
X0146624Y0176038D01*
X0145450Y0177636D02*
X0176741Y0177636D01*
X0175143Y0179235D02*
X0145450Y0179235D01*
X0145450Y0180833D02*
X0173544Y0180833D01*
X0171946Y0182432D02*
X0145179Y0182432D01*
X0143581Y0184030D02*
X0170347Y0184030D01*
X0168749Y0185629D02*
X0143640Y0185629D01*
X0145238Y0187227D02*
X0167150Y0187227D01*
X0167689Y0189800D02*
X0139750Y0189800D01*
X0139750Y0179800D02*
X0252750Y0066800D01*
X0368750Y0066800D01*
X0360713Y0081726D02*
X0308737Y0081726D01*
X0309894Y0083324D02*
X0359115Y0083324D01*
X0357516Y0084923D02*
X0310450Y0084923D01*
X0310450Y0086521D02*
X0355918Y0086521D01*
X0354319Y0088120D02*
X0309959Y0088120D01*
X0308893Y0089718D02*
X0352721Y0089718D01*
X0360950Y0094600D02*
X0287839Y0094600D01*
X0223639Y0158800D01*
X0206750Y0158800D01*
X0201050Y0160053D02*
X0200548Y0160053D01*
X0201540Y0161651D02*
X0198949Y0161651D01*
X0197351Y0163250D02*
X0203139Y0163250D01*
X0202641Y0164848D02*
X0195752Y0164848D01*
X0194154Y0166447D02*
X0201050Y0166447D01*
X0201050Y0168045D02*
X0192555Y0168045D01*
X0190957Y0169644D02*
X0201050Y0169644D01*
X0201131Y0171242D02*
X0189358Y0171242D01*
X0187760Y0172841D02*
X0202730Y0172841D01*
X0203050Y0174439D02*
X0186161Y0174439D01*
X0184562Y0176038D02*
X0201451Y0176038D01*
X0201050Y0177636D02*
X0182964Y0177636D01*
X0181365Y0179235D02*
X0201050Y0179235D01*
X0201050Y0180833D02*
X0179767Y0180833D01*
X0178168Y0182432D02*
X0202321Y0182432D01*
X0203459Y0184030D02*
X0176570Y0184030D01*
X0174971Y0185629D02*
X0201860Y0185629D01*
X0201050Y0187227D02*
X0173373Y0187227D01*
X0206750Y0178800D02*
X0288750Y0096800D01*
X0368750Y0096800D01*
X0360950Y0094600D02*
X0368750Y0086800D01*
X0368750Y0116800D02*
X0319750Y0116800D01*
X0280750Y0155800D01*
X0195334Y0104105D02*
X0183557Y0104105D01*
X0185155Y0102506D02*
X0196933Y0102506D01*
X0198531Y0100908D02*
X0186754Y0100908D01*
X0187950Y0099711D02*
X0165217Y0122444D01*
X0165217Y0125447D01*
X0164397Y0126267D01*
X0159103Y0126267D01*
X0158283Y0125447D01*
X0158283Y0121709D01*
X0154545Y0121709D01*
X0153725Y0120889D01*
X0153725Y0115595D01*
X0154545Y0114775D01*
X0157548Y0114775D01*
X0163550Y0108772D01*
X0163550Y0077192D01*
X0162974Y0076954D01*
X0161596Y0075576D01*
X0160850Y0073775D01*
X0160850Y0071825D01*
X0161596Y0070024D01*
X0162974Y0068646D01*
X0164775Y0067900D01*
X0166725Y0067900D01*
X0168526Y0068646D01*
X0169904Y0070024D01*
X0170650Y0071825D01*
X0170650Y0073775D01*
X0169904Y0075576D01*
X0168526Y0076954D01*
X0167950Y0077192D01*
X0167950Y0110595D01*
X0166661Y0111884D01*
X0160659Y0117886D01*
X0160659Y0119333D01*
X0162106Y0119333D01*
X0183550Y0097889D01*
X0183550Y0077192D01*
X0182974Y0076954D01*
X0181596Y0075576D01*
X0180850Y0073775D01*
X0180850Y0071825D01*
X0181596Y0070024D01*
X0182974Y0068646D01*
X0184775Y0067900D01*
X0186725Y0067900D01*
X0188526Y0068646D01*
X0189904Y0070024D01*
X0190650Y0071825D01*
X0190650Y0073775D01*
X0189904Y0075576D01*
X0188526Y0076954D01*
X0187950Y0077192D01*
X0187950Y0099711D01*
X0187950Y0099309D02*
X0200130Y0099309D01*
X0201728Y0097711D02*
X0187950Y0097711D01*
X0187950Y0096112D02*
X0203327Y0096112D01*
X0204925Y0094514D02*
X0187950Y0094514D01*
X0187950Y0092915D02*
X0206524Y0092915D01*
X0208122Y0091317D02*
X0187950Y0091317D01*
X0187950Y0089718D02*
X0209721Y0089718D01*
X0211319Y0088120D02*
X0187950Y0088120D01*
X0187950Y0086521D02*
X0212918Y0086521D01*
X0214516Y0084923D02*
X0187950Y0084923D01*
X0187950Y0083324D02*
X0216115Y0083324D01*
X0217713Y0081726D02*
X0187950Y0081726D01*
X0187950Y0080127D02*
X0219312Y0080127D01*
X0220910Y0078529D02*
X0187950Y0078529D01*
X0188550Y0076930D02*
X0192950Y0076930D01*
X0192974Y0076954D02*
X0191596Y0075576D01*
X0190850Y0073775D01*
X0190850Y0071825D01*
X0191596Y0070024D01*
X0192974Y0068646D01*
X0194775Y0067900D01*
X0196725Y0067900D01*
X0198526Y0068646D01*
X0199904Y0070024D01*
X0200650Y0071825D01*
X0200650Y0073775D01*
X0199904Y0075576D01*
X0198526Y0076954D01*
X0196725Y0077700D01*
X0194775Y0077700D01*
X0192974Y0076954D01*
X0191495Y0075332D02*
X0190005Y0075332D01*
X0190650Y0073733D02*
X0190850Y0073733D01*
X0190850Y0072134D02*
X0190650Y0072134D01*
X0190116Y0070536D02*
X0191384Y0070536D01*
X0192683Y0068937D02*
X0188817Y0068937D01*
X0185750Y0072800D02*
X0185750Y0098800D01*
X0161750Y0122800D01*
X0165217Y0123287D02*
X0176152Y0123287D01*
X0177750Y0121688D02*
X0165973Y0121688D01*
X0167571Y0120090D02*
X0179349Y0120090D01*
X0180947Y0118491D02*
X0169170Y0118491D01*
X0170768Y0116893D02*
X0182546Y0116893D01*
X0184144Y0115294D02*
X0172367Y0115294D01*
X0173965Y0113696D02*
X0185743Y0113696D01*
X0187341Y0112097D02*
X0175564Y0112097D01*
X0177162Y0110499D02*
X0188940Y0110499D01*
X0190538Y0108900D02*
X0178761Y0108900D01*
X0180360Y0107302D02*
X0192137Y0107302D01*
X0193735Y0105703D02*
X0181958Y0105703D01*
X0178933Y0102506D02*
X0167950Y0102506D01*
X0167950Y0100908D02*
X0180531Y0100908D01*
X0182130Y0099309D02*
X0167950Y0099309D01*
X0167950Y0097711D02*
X0183550Y0097711D01*
X0183550Y0096112D02*
X0167950Y0096112D01*
X0167950Y0094514D02*
X0183550Y0094514D01*
X0183550Y0092915D02*
X0167950Y0092915D01*
X0167950Y0091317D02*
X0183550Y0091317D01*
X0183550Y0089718D02*
X0167950Y0089718D01*
X0167950Y0088120D02*
X0183550Y0088120D01*
X0183550Y0086521D02*
X0167950Y0086521D01*
X0167950Y0084923D02*
X0183550Y0084923D01*
X0183550Y0083324D02*
X0167950Y0083324D01*
X0167950Y0081726D02*
X0183550Y0081726D01*
X0183550Y0080127D02*
X0167950Y0080127D01*
X0167950Y0078529D02*
X0183550Y0078529D01*
X0182950Y0076930D02*
X0178550Y0076930D01*
X0178526Y0076954D02*
X0176725Y0077700D01*
X0174775Y0077700D01*
X0172974Y0076954D01*
X0171596Y0075576D01*
X0170850Y0073775D01*
X0170850Y0071825D01*
X0171596Y0070024D01*
X0172974Y0068646D01*
X0174775Y0067900D01*
X0176725Y0067900D01*
X0178526Y0068646D01*
X0179904Y0070024D01*
X0180650Y0071825D01*
X0180650Y0073775D01*
X0179904Y0075576D01*
X0178526Y0076954D01*
X0180005Y0075332D02*
X0181495Y0075332D01*
X0180850Y0073733D02*
X0180650Y0073733D01*
X0180650Y0072134D02*
X0180850Y0072134D01*
X0181384Y0070536D02*
X0180116Y0070536D01*
X0178817Y0068937D02*
X0182683Y0068937D01*
X0172683Y0068937D02*
X0168817Y0068937D01*
X0170116Y0070536D02*
X0171384Y0070536D01*
X0170850Y0072134D02*
X0170650Y0072134D01*
X0170650Y0073733D02*
X0170850Y0073733D01*
X0171495Y0075332D02*
X0170005Y0075332D01*
X0168550Y0076930D02*
X0172950Y0076930D01*
X0165750Y0072800D02*
X0165750Y0109684D01*
X0157192Y0118242D01*
X0160659Y0118491D02*
X0162947Y0118491D01*
X0161652Y0116893D02*
X0164546Y0116893D01*
X0163251Y0115294D02*
X0166144Y0115294D01*
X0164849Y0113696D02*
X0167743Y0113696D01*
X0166448Y0112097D02*
X0169341Y0112097D01*
X0167950Y0110499D02*
X0170940Y0110499D01*
X0172538Y0108900D02*
X0167950Y0108900D01*
X0167950Y0107302D02*
X0174137Y0107302D01*
X0175735Y0105703D02*
X0167950Y0105703D01*
X0167950Y0104105D02*
X0177334Y0104105D01*
X0166661Y0111884D02*
X0166661Y0111884D01*
X0161824Y0110499D02*
X0062050Y0110499D01*
X0062050Y0112097D02*
X0160225Y0112097D01*
X0158627Y0113696D02*
X0062050Y0113696D01*
X0062050Y0115294D02*
X0154026Y0115294D01*
X0153725Y0116893D02*
X0062050Y0116893D01*
X0062050Y0118491D02*
X0153725Y0118491D01*
X0153725Y0120090D02*
X0062050Y0120090D01*
X0062050Y0121688D02*
X0154525Y0121688D01*
X0158283Y0123287D02*
X0062050Y0123287D01*
X0062050Y0124885D02*
X0158283Y0124885D01*
X0165217Y0124885D02*
X0174553Y0124885D01*
X0172955Y0126484D02*
X0062050Y0126484D01*
X0062050Y0128082D02*
X0171356Y0128082D01*
X0169758Y0129681D02*
X0062050Y0129681D01*
X0062050Y0131279D02*
X0168159Y0131279D01*
X0166561Y0132878D02*
X0062050Y0132878D01*
X0062050Y0134476D02*
X0164962Y0134476D01*
X0163364Y0136075D02*
X0062050Y0136075D01*
X0062050Y0137673D02*
X0161765Y0137673D01*
X0160167Y0139272D02*
X0062050Y0139272D01*
X0062050Y0140870D02*
X0158568Y0140870D01*
X0156970Y0142469D02*
X0062050Y0142469D01*
X0062050Y0144068D02*
X0155371Y0144068D01*
X0156750Y0151800D02*
X0278750Y0029800D01*
X0381750Y0029800D01*
X0381750Y0031739D01*
X0384450Y0034439D01*
X0354871Y0020982D02*
X0352629Y0020982D01*
X0344871Y0020982D02*
X0342629Y0020982D01*
X0334871Y0020982D02*
X0332629Y0020982D01*
X0324871Y0020982D02*
X0322629Y0020982D01*
X0314871Y0020982D02*
X0312629Y0020982D01*
X0304871Y0020982D02*
X0302629Y0020982D01*
X0294871Y0020982D02*
X0292629Y0020982D01*
X0273661Y0025778D02*
X0062050Y0025778D01*
X0062050Y0027376D02*
X0272063Y0027376D01*
X0270464Y0028975D02*
X0208854Y0028975D01*
X0208526Y0028646D02*
X0209904Y0030024D01*
X0210650Y0031825D01*
X0210650Y0033775D01*
X0209904Y0035576D01*
X0208526Y0036954D01*
X0206725Y0037700D01*
X0204775Y0037700D01*
X0202974Y0036954D01*
X0201596Y0035576D01*
X0200850Y0033775D01*
X0200850Y0031825D01*
X0201596Y0030024D01*
X0202974Y0028646D01*
X0204775Y0027900D01*
X0206725Y0027900D01*
X0208526Y0028646D01*
X0210131Y0030573D02*
X0268866Y0030573D01*
X0267267Y0032172D02*
X0210650Y0032172D01*
X0210650Y0033770D02*
X0265668Y0033770D01*
X0264070Y0035369D02*
X0209990Y0035369D01*
X0208494Y0036967D02*
X0262471Y0036967D01*
X0260873Y0038566D02*
X0062050Y0038566D01*
X0062050Y0040164D02*
X0259274Y0040164D01*
X0257676Y0041763D02*
X0062050Y0041763D01*
X0062050Y0043361D02*
X0256077Y0043361D01*
X0254479Y0044960D02*
X0062050Y0044960D01*
X0062050Y0046558D02*
X0252880Y0046558D01*
X0251282Y0048157D02*
X0062050Y0048157D01*
X0062050Y0049755D02*
X0249683Y0049755D01*
X0248085Y0051354D02*
X0062050Y0051354D01*
X0062050Y0052952D02*
X0246486Y0052952D01*
X0244888Y0054551D02*
X0062050Y0054551D01*
X0062050Y0056149D02*
X0243289Y0056149D01*
X0241691Y0057748D02*
X0062050Y0057748D01*
X0062050Y0059346D02*
X0240092Y0059346D01*
X0238494Y0060945D02*
X0062050Y0060945D01*
X0062050Y0062543D02*
X0236895Y0062543D01*
X0235297Y0064142D02*
X0062050Y0064142D01*
X0062050Y0065740D02*
X0233698Y0065740D01*
X0232100Y0067339D02*
X0127217Y0067339D01*
X0127217Y0067153D02*
X0126397Y0066333D01*
X0121103Y0066333D01*
X0120283Y0067153D01*
X0120283Y0072447D01*
X0121103Y0073267D01*
X0124106Y0073267D01*
X0154283Y0103444D01*
X0154283Y0106447D01*
X0155103Y0107267D01*
X0160397Y0107267D01*
X0161217Y0106447D01*
X0161217Y0101153D01*
X0160397Y0100333D01*
X0157394Y0100333D01*
X0134751Y0077690D01*
X0134775Y0077700D01*
X0136725Y0077700D01*
X0138526Y0076954D01*
X0139904Y0075576D01*
X0140650Y0073775D01*
X0140650Y0071825D01*
X0139904Y0070024D01*
X0138526Y0068646D01*
X0136725Y0067900D01*
X0134775Y0067900D01*
X0132974Y0068646D01*
X0131596Y0070024D01*
X0130850Y0071825D01*
X0130850Y0073775D01*
X0130860Y0073799D01*
X0127217Y0070156D01*
X0127217Y0067153D01*
X0127217Y0068937D02*
X0132683Y0068937D01*
X0131384Y0070536D02*
X0127597Y0070536D01*
X0129196Y0072134D02*
X0130850Y0072134D01*
X0130794Y0073733D02*
X0130850Y0073733D01*
X0127769Y0076930D02*
X0062050Y0076930D01*
X0062050Y0075332D02*
X0126170Y0075332D01*
X0124572Y0073733D02*
X0062050Y0073733D01*
X0062050Y0072134D02*
X0120283Y0072134D01*
X0120283Y0070536D02*
X0062050Y0070536D01*
X0062050Y0068937D02*
X0120283Y0068937D01*
X0120283Y0067339D02*
X0062050Y0067339D01*
X0062050Y0078529D02*
X0129367Y0078529D01*
X0130966Y0080127D02*
X0062050Y0080127D01*
X0062050Y0081726D02*
X0132564Y0081726D01*
X0134163Y0083324D02*
X0062050Y0083324D01*
X0062050Y0084923D02*
X0135761Y0084923D01*
X0137360Y0086521D02*
X0062050Y0086521D01*
X0062050Y0088120D02*
X0138958Y0088120D01*
X0140557Y0089718D02*
X0062050Y0089718D01*
X0062050Y0091317D02*
X0142155Y0091317D01*
X0143754Y0092915D02*
X0062050Y0092915D01*
X0062050Y0094514D02*
X0145352Y0094514D01*
X0146951Y0096112D02*
X0062050Y0096112D01*
X0062050Y0097711D02*
X0148549Y0097711D01*
X0150148Y0099309D02*
X0062050Y0099309D01*
X0062050Y0100908D02*
X0151746Y0100908D01*
X0153345Y0102506D02*
X0062050Y0102506D01*
X0062050Y0104105D02*
X0154283Y0104105D01*
X0154283Y0105703D02*
X0062050Y0105703D01*
X0062050Y0107302D02*
X0163550Y0107302D01*
X0163550Y0105703D02*
X0161217Y0105703D01*
X0161217Y0104105D02*
X0163550Y0104105D01*
X0163550Y0102506D02*
X0161217Y0102506D01*
X0160971Y0100908D02*
X0163550Y0100908D01*
X0163550Y0099309D02*
X0156370Y0099309D01*
X0154772Y0097711D02*
X0163550Y0097711D01*
X0163550Y0096112D02*
X0153173Y0096112D01*
X0151575Y0094514D02*
X0163550Y0094514D01*
X0163550Y0092915D02*
X0149976Y0092915D01*
X0148378Y0091317D02*
X0163550Y0091317D01*
X0163550Y0089718D02*
X0146779Y0089718D01*
X0145181Y0088120D02*
X0163550Y0088120D01*
X0163550Y0086521D02*
X0143582Y0086521D01*
X0141984Y0084923D02*
X0163550Y0084923D01*
X0163550Y0083324D02*
X0140385Y0083324D01*
X0138787Y0081726D02*
X0163550Y0081726D01*
X0163550Y0080127D02*
X0137188Y0080127D01*
X0135590Y0078529D02*
X0163550Y0078529D01*
X0162950Y0076930D02*
X0158550Y0076930D01*
X0158526Y0076954D02*
X0156725Y0077700D01*
X0154775Y0077700D01*
X0152974Y0076954D01*
X0151596Y0075576D01*
X0150850Y0073775D01*
X0150850Y0071825D01*
X0151596Y0070024D01*
X0152974Y0068646D01*
X0154775Y0067900D01*
X0156725Y0067900D01*
X0158526Y0068646D01*
X0159904Y0070024D01*
X0160650Y0071825D01*
X0160650Y0073775D01*
X0159904Y0075576D01*
X0158526Y0076954D01*
X0160005Y0075332D02*
X0161495Y0075332D01*
X0160850Y0073733D02*
X0160650Y0073733D01*
X0160650Y0072134D02*
X0160850Y0072134D01*
X0161384Y0070536D02*
X0160116Y0070536D01*
X0158817Y0068937D02*
X0162683Y0068937D01*
X0152683Y0068937D02*
X0148817Y0068937D01*
X0148526Y0068646D02*
X0149904Y0070024D01*
X0150650Y0071825D01*
X0150650Y0073775D01*
X0149904Y0075576D01*
X0148526Y0076954D01*
X0146725Y0077700D01*
X0144775Y0077700D01*
X0142974Y0076954D01*
X0141596Y0075576D01*
X0140850Y0073775D01*
X0140850Y0071825D01*
X0141596Y0070024D01*
X0142974Y0068646D01*
X0144775Y0067900D01*
X0146725Y0067900D01*
X0148526Y0068646D01*
X0150116Y0070536D02*
X0151384Y0070536D01*
X0150850Y0072134D02*
X0150650Y0072134D01*
X0150650Y0073733D02*
X0150850Y0073733D01*
X0151495Y0075332D02*
X0150005Y0075332D01*
X0148550Y0076930D02*
X0152950Y0076930D01*
X0142950Y0076930D02*
X0138550Y0076930D01*
X0140005Y0075332D02*
X0141495Y0075332D01*
X0140850Y0073733D02*
X0140650Y0073733D01*
X0140650Y0072134D02*
X0140850Y0072134D01*
X0141384Y0070536D02*
X0140116Y0070536D01*
X0138817Y0068937D02*
X0142683Y0068937D01*
X0123750Y0069800D02*
X0157750Y0103800D01*
X0163422Y0108900D02*
X0062050Y0108900D01*
X0062050Y0145666D02*
X0081773Y0145666D01*
X0080174Y0147265D02*
X0062050Y0147265D01*
X0062050Y0148863D02*
X0078576Y0148863D01*
X0076977Y0150462D02*
X0062050Y0150462D01*
X0062050Y0152060D02*
X0070429Y0152060D01*
X0068830Y0153659D02*
X0062050Y0153659D01*
X0062050Y0155257D02*
X0068050Y0155257D01*
X0073750Y0176800D02*
X0098750Y0151800D01*
X0156750Y0151800D01*
X0198550Y0076930D02*
X0202950Y0076930D01*
X0202974Y0076954D02*
X0201596Y0075576D01*
X0200850Y0073775D01*
X0200850Y0071825D01*
X0201596Y0070024D01*
X0202974Y0068646D01*
X0204775Y0067900D01*
X0206725Y0067900D01*
X0208526Y0068646D01*
X0209904Y0070024D01*
X0210650Y0071825D01*
X0210650Y0073775D01*
X0209904Y0075576D01*
X0208526Y0076954D01*
X0206725Y0077700D01*
X0204775Y0077700D01*
X0202974Y0076954D01*
X0201495Y0075332D02*
X0200005Y0075332D01*
X0200650Y0073733D02*
X0200850Y0073733D01*
X0200850Y0072134D02*
X0200650Y0072134D01*
X0200116Y0070536D02*
X0201384Y0070536D01*
X0202683Y0068937D02*
X0198817Y0068937D01*
X0208817Y0068937D02*
X0230501Y0068937D01*
X0228903Y0070536D02*
X0210116Y0070536D01*
X0210650Y0072134D02*
X0227304Y0072134D01*
X0225706Y0073733D02*
X0210650Y0073733D01*
X0210005Y0075332D02*
X0224107Y0075332D01*
X0222509Y0076930D02*
X0208550Y0076930D01*
X0203006Y0036967D02*
X0198494Y0036967D01*
X0198526Y0036954D02*
X0196725Y0037700D01*
X0194775Y0037700D01*
X0192974Y0036954D01*
X0191596Y0035576D01*
X0190850Y0033775D01*
X0190850Y0031825D01*
X0191596Y0030024D01*
X0192974Y0028646D01*
X0194775Y0027900D01*
X0196725Y0027900D01*
X0198526Y0028646D01*
X0199904Y0030024D01*
X0200650Y0031825D01*
X0200650Y0033775D01*
X0199904Y0035576D01*
X0198526Y0036954D01*
X0199990Y0035369D02*
X0201510Y0035369D01*
X0200850Y0033770D02*
X0200650Y0033770D01*
X0200650Y0032172D02*
X0200850Y0032172D01*
X0201369Y0030573D02*
X0200131Y0030573D01*
X0198854Y0028975D02*
X0202646Y0028975D01*
X0192646Y0028975D02*
X0188854Y0028975D01*
X0188526Y0028646D02*
X0189904Y0030024D01*
X0190650Y0031825D01*
X0190650Y0033775D01*
X0189904Y0035576D01*
X0188526Y0036954D01*
X0186725Y0037700D01*
X0184775Y0037700D01*
X0182974Y0036954D01*
X0181596Y0035576D01*
X0180850Y0033775D01*
X0180850Y0031825D01*
X0181596Y0030024D01*
X0182974Y0028646D01*
X0184775Y0027900D01*
X0186725Y0027900D01*
X0188526Y0028646D01*
X0190131Y0030573D02*
X0191369Y0030573D01*
X0190850Y0032172D02*
X0190650Y0032172D01*
X0190650Y0033770D02*
X0190850Y0033770D01*
X0191510Y0035369D02*
X0189990Y0035369D01*
X0188494Y0036967D02*
X0193006Y0036967D01*
X0183006Y0036967D02*
X0178494Y0036967D01*
X0178526Y0036954D02*
X0176725Y0037700D01*
X0174775Y0037700D01*
X0172974Y0036954D01*
X0171596Y0035576D01*
X0170850Y0033775D01*
X0170850Y0031825D01*
X0171596Y0030024D01*
X0172974Y0028646D01*
X0174775Y0027900D01*
X0176725Y0027900D01*
X0178526Y0028646D01*
X0179904Y0030024D01*
X0180650Y0031825D01*
X0180650Y0033775D01*
X0179904Y0035576D01*
X0178526Y0036954D01*
X0179990Y0035369D02*
X0181510Y0035369D01*
X0180850Y0033770D02*
X0180650Y0033770D01*
X0180650Y0032172D02*
X0180850Y0032172D01*
X0181369Y0030573D02*
X0180131Y0030573D01*
X0178854Y0028975D02*
X0182646Y0028975D01*
X0172646Y0028975D02*
X0168854Y0028975D01*
X0168526Y0028646D02*
X0169904Y0030024D01*
X0170650Y0031825D01*
X0170650Y0033775D01*
X0169904Y0035576D01*
X0168526Y0036954D01*
X0166725Y0037700D01*
X0164775Y0037700D01*
X0162974Y0036954D01*
X0161596Y0035576D01*
X0160850Y0033775D01*
X0160850Y0031825D01*
X0161596Y0030024D01*
X0162974Y0028646D01*
X0164775Y0027900D01*
X0166725Y0027900D01*
X0168526Y0028646D01*
X0170131Y0030573D02*
X0171369Y0030573D01*
X0170850Y0032172D02*
X0170650Y0032172D01*
X0170650Y0033770D02*
X0170850Y0033770D01*
X0171510Y0035369D02*
X0169990Y0035369D01*
X0168494Y0036967D02*
X0173006Y0036967D01*
X0163006Y0036967D02*
X0158494Y0036967D01*
X0158526Y0036954D02*
X0156725Y0037700D01*
X0154775Y0037700D01*
X0152974Y0036954D01*
X0151596Y0035576D01*
X0150850Y0033775D01*
X0150850Y0031825D01*
X0151596Y0030024D01*
X0152974Y0028646D01*
X0154775Y0027900D01*
X0156725Y0027900D01*
X0158526Y0028646D01*
X0159904Y0030024D01*
X0160650Y0031825D01*
X0160650Y0033775D01*
X0159904Y0035576D01*
X0158526Y0036954D01*
X0159990Y0035369D02*
X0161510Y0035369D01*
X0160850Y0033770D02*
X0160650Y0033770D01*
X0160650Y0032172D02*
X0160850Y0032172D01*
X0161369Y0030573D02*
X0160131Y0030573D01*
X0158854Y0028975D02*
X0162646Y0028975D01*
X0152646Y0028975D02*
X0148854Y0028975D01*
X0148526Y0028646D02*
X0149904Y0030024D01*
X0150650Y0031825D01*
X0150650Y0033775D01*
X0149904Y0035576D01*
X0148526Y0036954D01*
X0146725Y0037700D01*
X0144775Y0037700D01*
X0142974Y0036954D01*
X0141596Y0035576D01*
X0140850Y0033775D01*
X0140850Y0031825D01*
X0141596Y0030024D01*
X0142974Y0028646D01*
X0144775Y0027900D01*
X0146725Y0027900D01*
X0148526Y0028646D01*
X0150131Y0030573D02*
X0151369Y0030573D01*
X0150850Y0032172D02*
X0150650Y0032172D01*
X0150650Y0033770D02*
X0150850Y0033770D01*
X0151510Y0035369D02*
X0149990Y0035369D01*
X0148494Y0036967D02*
X0153006Y0036967D01*
X0143006Y0036967D02*
X0138494Y0036967D01*
X0138526Y0036954D02*
X0136725Y0037700D01*
X0134775Y0037700D01*
X0132974Y0036954D01*
X0131596Y0035576D01*
X0130850Y0033775D01*
X0130850Y0031825D01*
X0131596Y0030024D01*
X0132974Y0028646D01*
X0134775Y0027900D01*
X0136725Y0027900D01*
X0138526Y0028646D01*
X0139904Y0030024D01*
X0140650Y0031825D01*
X0140650Y0033775D01*
X0139904Y0035576D01*
X0138526Y0036954D01*
X0139990Y0035369D02*
X0141510Y0035369D01*
X0140850Y0033770D02*
X0140650Y0033770D01*
X0140650Y0032172D02*
X0140850Y0032172D01*
X0141369Y0030573D02*
X0140131Y0030573D01*
X0138854Y0028975D02*
X0142646Y0028975D01*
X0132646Y0028975D02*
X0062050Y0028975D01*
X0062050Y0030573D02*
X0131369Y0030573D01*
X0130850Y0032172D02*
X0062050Y0032172D01*
X0062050Y0033770D02*
X0130850Y0033770D01*
X0131510Y0035369D02*
X0062050Y0035369D01*
X0062050Y0036967D02*
X0133006Y0036967D01*
X0153195Y0020982D02*
X0154871Y0020982D01*
X0162629Y0020982D02*
X0164871Y0020982D01*
X0172629Y0020982D02*
X0174871Y0020982D01*
X0201402Y0011391D02*
X0206098Y0011391D01*
X0204499Y0012990D02*
X0203001Y0012990D01*
X0211402Y0011391D02*
X0216098Y0011391D01*
X0214499Y0012990D02*
X0213001Y0012990D01*
X0221402Y0011391D02*
X0226098Y0011391D01*
X0224499Y0012990D02*
X0223001Y0012990D01*
X0231402Y0011391D02*
X0236098Y0011391D01*
X0234499Y0012990D02*
X0233001Y0012990D01*
X0241402Y0011391D02*
X0246098Y0011391D01*
X0244499Y0012990D02*
X0243001Y0012990D01*
X0251402Y0011391D02*
X0256098Y0011391D01*
X0254499Y0012990D02*
X0253001Y0012990D01*
X0261402Y0011391D02*
X0266098Y0011391D01*
X0264499Y0012990D02*
X0263001Y0012990D01*
X0136098Y0011391D02*
X0131402Y0011391D01*
X0133001Y0012990D02*
X0134499Y0012990D01*
X0126098Y0011391D02*
X0121402Y0011391D01*
X0123001Y0012990D02*
X0124499Y0012990D01*
X0116098Y0011391D02*
X0111402Y0011391D01*
X0113001Y0012990D02*
X0114499Y0012990D01*
X0389835Y0235183D02*
X0430450Y0235183D01*
X0430450Y0236781D02*
X0390450Y0236781D01*
X0390450Y0238380D02*
X0430450Y0238380D01*
X0430450Y0239978D02*
X0390017Y0239978D01*
X0389034Y0241577D02*
X0430450Y0241577D01*
X0380466Y0241577D02*
X0363922Y0241577D01*
D14*
X0147750Y0200800D03*
D15*
X0161750Y0122800D03*
X0157192Y0118242D03*
X0157750Y0103800D03*
X0123750Y0069800D03*
X0299750Y0196800D03*
X0347750Y0217800D03*
D16*
X0360750Y0239800D03*
M02*
