%
M48
M72
T01C0.0157
T02C0.0177
T03C0.0315
T04C0.0390
T05C0.0394
%
T01
X15719Y11824
X14775Y20080
T02
X16175Y12280
X15775Y10380
X12375Y6980
X29975Y19680
X34775Y21780
X36075Y23980
T03
X20575Y7280
X19575Y7280
X18575Y7280
X17575Y7280
X16575Y7280
X15575Y7280
X14575Y7280
X13575Y7280
X13575Y3280
X14575Y3280
X15575Y3280
X16575Y3280
X17575Y3280
X18575Y3280
X19575Y3280
X20575Y3280
T04
X10875Y1680
X11875Y1680
X12875Y1680
X13875Y1680
X14875Y1680
X15875Y1680
X16875Y1680
X17875Y1680
X19875Y1680
X20875Y1680
X21875Y1680
X22875Y1680
X23875Y1680
X24875Y1680
X25875Y1680
X26875Y1680
X28875Y1680
X29875Y1680
X30875Y1680
X31875Y1680
X32875Y1680
X33875Y1680
X34875Y1680
X35875Y1680
X36875Y3680
X37875Y3680
X37875Y4680
X36875Y4680
X36875Y5680
X37875Y5680
X37875Y6680
X36875Y6680
X36875Y7680
X37875Y7680
X37875Y8680
X36875Y8680
X36875Y9680
X37875Y9680
X37875Y10680
X36875Y10680
X36875Y11680
X37875Y11680
X37875Y12680
X36875Y12680
X36875Y13680
X37875Y13680
X37875Y14680
X36875Y14680
X36875Y15680
X37875Y15680
X37875Y16680
X36875Y16680
X36875Y17680
X37875Y17680
X37875Y18680
X36875Y18680
X36875Y19680
X37875Y19680
X37875Y20680
X36875Y20680
X33875Y20680
X32875Y20680
X31875Y20680
X30875Y20680
X29875Y20680
X28875Y20680
X27875Y20680
X26875Y20680
X24875Y20680
X23875Y20680
X22875Y20680
X21875Y20680
X20875Y20680
X19875Y20680
X18875Y20680
X17875Y20680
X16275Y20680
X15275Y20680
X14275Y20680
X13275Y20680
X12275Y20680
X11275Y20680
X10275Y20680
X9275Y20680
X8275Y20680
X7275Y20680
X7375Y23280
X8875Y23280
X13875Y23680
X15375Y23680
X20875Y23680
X22375Y23680
X27875Y23680
X29275Y23680
X33375Y23680
X34875Y23680
X38475Y23780
X39975Y23780
X30475Y8580
X31475Y7280
X33475Y7280
T05
X32975Y15480
X32975Y16480
X32975Y17480
X32975Y18480
X28075Y18580
X28075Y17580
X28075Y16580
X28075Y15580
X20675Y15880
X20675Y16880
X20675Y17880
X20675Y18880
X13975Y18980
X13975Y17980
X13975Y16980
X13975Y15980
X7375Y15680
X7375Y16680
X7375Y17680
X7375Y18680
M30
