%TF.GenerationSoftware,KiCad,Pcbnew,7.0.7*%
%TF.CreationDate,2024-03-14T02:32:25-07:00*%
%TF.ProjectId,PDB,5044422e-6b69-4636-9164-5f7063625858,rev?*%
%TF.SameCoordinates,Original*%
%TF.FileFunction,Soldermask,Bot*%
%TF.FilePolarity,Negative*%
%FSLAX46Y46*%
G04 Gerber Fmt 4.6, Leading zero omitted, Abs format (unit mm)*
G04 Created by KiCad (PCBNEW 7.0.7) date 2024-03-14 02:32:25*
%MOMM*%
%LPD*%
G01*
G04 APERTURE LIST*
G04 Aperture macros list*
%AMRoundRect*
0 Rectangle with rounded corners*
0 $1 Rounding radius*
0 $2 $3 $4 $5 $6 $7 $8 $9 X,Y pos of 4 corners*
0 Add a 4 corners polygon primitive as box body*
4,1,4,$2,$3,$4,$5,$6,$7,$8,$9,$2,$3,0*
0 Add four circle primitives for the rounded corners*
1,1,$1+$1,$2,$3*
1,1,$1+$1,$4,$5*
1,1,$1+$1,$6,$7*
1,1,$1+$1,$8,$9*
0 Add four rect primitives between the rounded corners*
20,1,$1+$1,$2,$3,$4,$5,0*
20,1,$1+$1,$4,$5,$6,$7,0*
20,1,$1+$1,$6,$7,$8,$9,0*
20,1,$1+$1,$8,$9,$2,$3,0*%
G04 Aperture macros list end*
%ADD10R,1.600000X1.600000*%
%ADD11C,1.600000*%
%ADD12R,1.700000X1.700000*%
%ADD13O,1.700000X1.700000*%
%ADD14R,1.524000X1.524000*%
%ADD15C,1.524000*%
%ADD16C,2.800000*%
%ADD17RoundRect,0.250000X-0.600000X-0.725000X0.600000X-0.725000X0.600000X0.725000X-0.600000X0.725000X0*%
%ADD18O,1.700000X1.950000*%
%ADD19C,1.800000*%
%ADD20C,3.000000*%
%ADD21C,1.400000*%
%ADD22C,3.240000*%
%ADD23O,5.500000X2.200000*%
%ADD24RoundRect,1.500000X1.500000X1.500000X-1.500000X1.500000X-1.500000X-1.500000X1.500000X-1.500000X0*%
%ADD25C,6.000000*%
%ADD26C,2.000000*%
G04 APERTURE END LIST*
D10*
%TO.C,C6*%
X100695688Y-53898800D03*
D11*
X102695688Y-53898800D03*
%TD*%
D12*
%TO.C,J2*%
X147955000Y-46883400D03*
D13*
X147955000Y-49423400D03*
%TD*%
D14*
%TO.C,USB2*%
X156645000Y-50998000D03*
D15*
X156645000Y-48498000D03*
X156645000Y-46498000D03*
X156645000Y-43998000D03*
D16*
X159355000Y-40948000D03*
X159355000Y-54048000D03*
%TD*%
D17*
%TO.C,Jst1*%
X63093600Y-82270600D03*
D18*
X65593600Y-82270600D03*
X68093600Y-82270600D03*
X70593600Y-82270600D03*
%TD*%
D15*
%TO.C,D1*%
X124460000Y-101346000D03*
X127000000Y-101346000D03*
X129540000Y-101346000D03*
X132080000Y-101346000D03*
X134620000Y-101346000D03*
X137160000Y-101346000D03*
X137160000Y-91186000D03*
X134620000Y-91186000D03*
X132080000Y-91186000D03*
X129540000Y-91186000D03*
X127000000Y-91186000D03*
X124460000Y-91186000D03*
%TD*%
D19*
%TO.C,B1*%
X134172000Y-48614000D03*
X141672000Y-48614000D03*
%TD*%
D14*
%TO.C,USB3*%
X156645000Y-70998000D03*
D15*
X156645000Y-68498000D03*
X156645000Y-66498000D03*
X156645000Y-63998000D03*
D16*
X159355000Y-60948000D03*
X159355000Y-74048000D03*
%TD*%
D20*
%TO.C,A2*%
X72000000Y-33113400D03*
X64000000Y-33113400D03*
%TD*%
D10*
%TO.C,Pro1*%
X111760000Y-101092000D03*
D11*
X111760000Y-98552000D03*
X111760000Y-96012000D03*
X111760000Y-93472000D03*
X111760000Y-90932000D03*
X111760000Y-88392000D03*
X111760000Y-85852000D03*
X111760000Y-83312000D03*
X111760000Y-80772000D03*
X111760000Y-78232000D03*
X111760000Y-75692000D03*
X111760000Y-73152000D03*
X96520000Y-73152000D03*
X96520000Y-75692000D03*
X96520000Y-78232000D03*
X96520000Y-80772000D03*
X96520000Y-83312000D03*
X96520000Y-85852000D03*
X96520000Y-88392000D03*
X96520000Y-90932000D03*
X96520000Y-93472000D03*
X96520000Y-96012000D03*
X96520000Y-98552000D03*
X96520000Y-101092000D03*
%TD*%
D21*
%TO.C,Y1*%
X144650000Y-85550000D03*
X139750000Y-85550000D03*
%TD*%
D15*
%TO.C,SW2*%
X160350000Y-100850000D03*
X162850000Y-100850000D03*
X165350000Y-100850000D03*
%TD*%
D20*
%TO.C,A4*%
X72000000Y-53113400D03*
X64000000Y-53113400D03*
%TD*%
D14*
%TO.C,USB1*%
X156645000Y-30998000D03*
D15*
X156645000Y-28498000D03*
X156645000Y-26498000D03*
X156645000Y-23998000D03*
D16*
X159355000Y-20948000D03*
X159355000Y-34048000D03*
%TD*%
D10*
%TO.C,C5*%
X100797288Y-46228000D03*
D11*
X102797288Y-46228000D03*
%TD*%
D12*
%TO.C,J3*%
X150010000Y-92450000D03*
D13*
X152550000Y-92450000D03*
%TD*%
D22*
%TO.C,REF\u002A\u002A*%
X102108000Y-65125600D03*
%TD*%
D20*
%TO.C,A5*%
X72000000Y-63113400D03*
X64000000Y-63113400D03*
%TD*%
%TO.C,A3*%
X72000000Y-43113400D03*
X64000000Y-43113400D03*
%TD*%
%TO.C,A1*%
X72000000Y-23113400D03*
X64000000Y-23113400D03*
%TD*%
D23*
%TO.C,Sw1*%
X91617800Y-53340000D03*
X91617800Y-48340000D03*
%TD*%
D24*
%TO.C,Batt1*%
X70866000Y-99568000D03*
D25*
X63666000Y-99568000D03*
%TD*%
D26*
%TO.C,SW3*%
X61290000Y-74460000D03*
X67790000Y-74460000D03*
X67790000Y-69960000D03*
X61290000Y-69960000D03*
%TD*%
D22*
%TO.C,REF\u002A\u002A*%
X81635600Y-36677600D03*
%TD*%
%TO.C,REF\u002A\u002A*%
X152883400Y-102006400D03*
%TD*%
%TO.C,REF\u002A\u002A*%
X146456399Y-65125425D03*
%TD*%
D12*
%TO.C,J1*%
X70713600Y-90627200D03*
D13*
X68173600Y-90627200D03*
X65633600Y-90627200D03*
X63093600Y-90627200D03*
%TD*%
D14*
%TO.C,DATA1*%
X156645000Y-90998000D03*
D15*
X156645000Y-88498000D03*
X156645000Y-86498000D03*
X156645000Y-83998000D03*
D16*
X159355000Y-80948000D03*
X159355000Y-94048000D03*
%TD*%
M02*
