M48
; DRILL file {KiCad 7.0.7} date Wed Feb 14 01:50:24 2024
; FORMAT={-:-/ absolute / inch / decimal}
; #@! TF.CreationDate,2024-02-14T01:50:24-08:00
; #@! TF.GenerationSoftware,Kicad,Pcbnew,7.0.7
; #@! TF.FileFunction,Plated,1,2,PTH
FMAT,2
INCH
; #@! TA.AperFunction,Plated,PTH,ViaDrill
T1C0.0157
; #@! TA.AperFunction,Plated,PTH,ComponentDrill
T2C0.0276
; #@! TA.AperFunction,Plated,PTH,ComponentDrill
T3C0.0300
; #@! TA.AperFunction,Plated,PTH,ComponentDrill
T4C0.0315
; #@! TA.AperFunction,Plated,PTH,ComponentDrill
T5C0.0360
; #@! TA.AperFunction,Plated,PTH,ComponentDrill
T6C0.0362
; #@! TA.AperFunction,Plated,PTH,ComponentDrill
T7C0.0374
; #@! TA.AperFunction,Plated,PTH,ComponentDrill
T8C0.0394
; #@! TA.AperFunction,Plated,PTH,ComponentDrill
T9C0.0433
; #@! TA.AperFunction,Plated,PTH,ComponentDrill
T10C0.0472
; #@! TA.AperFunction,Plated,PTH,ComponentDrill
T11C0.0787
; #@! TA.AperFunction,Plated,PTH,ComponentDrill
T12C0.0827
; #@! TA.AperFunction,Plated,PTH,ComponentDrill
T13C0.1772
%
G90
G05
T1
X3.5748Y-1.065
X3.575Y-3.605
X3.685Y-2.915
X4.0Y-1.4449
X4.009Y-3.679
X4.2106Y-1.1673
X4.2106Y-1.2067
X4.2106Y-1.2461
X4.2106Y-1.2854
X4.2106Y-1.3248
X4.2106Y-1.3642
X4.2106Y-1.4035
X4.2106Y-1.4429
X4.2106Y-1.4823
X4.25Y-1.3642
X4.25Y-1.4035
X4.25Y-1.4429
X4.25Y-1.4823
X4.2638Y-2.1024
X4.269Y-3.952
X4.2894Y-1.3642
X4.2894Y-1.4035
X4.3258Y-1.4528
X4.3415Y-1.2205
X4.5098Y-3.6319
X4.566Y-3.229
X4.5876Y-1.3799
X4.6181Y-1.189
X4.6181Y-1.2283
X4.6181Y-1.2677
X4.6181Y-1.3071
X4.6181Y-1.3445
X4.6181Y-1.4232
X4.6181Y-1.4626
X4.6575Y-1.189
X4.6575Y-1.2283
X4.6575Y-1.2677
X4.6575Y-1.3071
X4.6575Y-1.3445
X4.6575Y-1.3839
X4.6575Y-1.4232
X4.6575Y-1.4626
X4.659Y-3.085
X4.6969Y-1.189
X4.6969Y-1.2283
X4.6969Y-1.2677
X4.6969Y-1.3071
X4.6969Y-1.3445
X4.6969Y-1.3839
X4.6969Y-1.4232
X4.6969Y-1.4626
X4.805Y-3.072
X4.963Y-3.205
X5.025Y-2.765
X5.2677Y-1.5039
X5.2677Y-1.5433
X5.2677Y-1.5827
X5.2707Y-1.2913
X5.3071Y-1.5039
X5.3071Y-1.5433
X5.3071Y-1.5827
X5.336Y-2.904
X5.338Y-2.954
X5.3465Y-1.5039
X5.3465Y-1.5433
X5.3465Y-1.5827
X5.3525Y-2.6975
X5.3858Y-1.5039
X5.3858Y-1.5433
X5.3858Y-1.5827
X5.4232Y-1.5039
X5.4232Y-1.5433
X5.4232Y-1.5827
X5.4626Y-1.5039
X5.4626Y-1.5433
X5.4626Y-1.5827
X5.502Y-1.5039
X5.502Y-1.5433
X5.502Y-1.5827
X5.5413Y-1.5039
X5.5413Y-1.5433
X5.5413Y-1.5827
X5.5807Y-1.5039
X5.5807Y-1.5433
X5.5807Y-1.5827
X5.585Y-3.675
X5.6201Y-1.5039
X5.6201Y-1.5433
X5.6201Y-1.5827
X5.622Y-2.724
X5.624Y-3.699
X5.6594Y-1.5039
X5.6594Y-1.5433
X5.6594Y-1.5827
X5.6988Y-1.5039
X5.6988Y-1.5433
X5.6988Y-1.5827
X5.7382Y-1.5039
X5.7382Y-1.5433
X5.7382Y-1.5827
X5.7816Y-2.9042
X5.8231Y-2.903
T2
X5.502Y-3.3681
X5.6949Y-3.3681
T3
X4.9Y-3.59
X4.9Y-3.99
X5.0Y-3.59
X5.0Y-3.99
X5.1Y-3.59
X5.1Y-3.99
X5.2Y-3.59
X5.2Y-3.99
X5.3Y-3.59
X5.3Y-3.99
X5.4Y-3.59
X5.4Y-3.99
T4
X3.9644Y-2.122
X3.9684Y-1.82
X4.0431Y-2.122
X4.0471Y-1.82
T5
X6.313Y-3.9705
X6.4114Y-3.9705
X6.5098Y-3.9705
T6
X6.1671Y-0.9448
X6.1671Y-1.0432
X6.1671Y-1.122
X6.1671Y-1.2204
X6.1671Y-1.7322
X6.1671Y-1.8306
X6.1671Y-1.9094
X6.1671Y-2.0078
X6.1671Y-2.5196
X6.1671Y-2.618
X6.1671Y-2.6968
X6.1671Y-2.7952
X6.1671Y-3.307
X6.1671Y-3.4054
X6.1671Y-3.4842
X6.1671Y-3.5826
T7
X2.484Y-3.239
X2.5824Y-3.239
X2.6809Y-3.239
X2.7793Y-3.239
T8
X2.484Y-3.568
X2.584Y-3.568
X2.684Y-3.568
X2.784Y-3.568
X5.825Y-1.8458
X5.825Y-1.9458
X5.9059Y-3.6398
X6.0059Y-3.6398
T9
X3.2402Y-0.8071
X3.2402Y-0.9843
X3.4961Y-0.8071
X3.4961Y-0.9843
X3.8Y-2.88
X3.8Y-2.98
X3.8Y-3.08
X3.8Y-3.18
X3.8Y-3.28
X3.8Y-3.38
X3.8Y-3.48
X3.8Y-3.58
X3.8Y-3.68
X3.8Y-3.78
X3.8Y-3.88
X3.8Y-3.98
X4.4Y-2.88
X4.4Y-2.98
X4.4Y-3.08
X4.4Y-3.18
X4.4Y-3.28
X4.4Y-3.38
X4.4Y-3.48
X4.4Y-3.58
X4.4Y-3.68
X4.4Y-3.78
X4.4Y-3.88
X4.4Y-3.98
T10
X5.2824Y-1.9139
X5.5776Y-1.9139
T11
X2.5197Y-0.91
X2.5197Y-1.3037
X2.5197Y-1.6974
X2.5197Y-2.0911
X2.5197Y-2.4848
X2.8346Y-0.91
X2.8346Y-1.3037
X2.8346Y-1.6974
X2.8346Y-2.0911
X2.8346Y-2.4848
T12
X6.2738Y-0.8247
X6.2738Y-1.3405
X6.2738Y-1.6121
X6.2738Y-2.1279
X6.2738Y-2.3995
X6.2738Y-2.9153
X6.2738Y-3.1869
X6.2738Y-3.7027
T13
X2.5065Y-3.92
X2.79Y-3.92
T10
G00X3.542Y-1.9031
M15
G01X3.672Y-1.9031
M16
G05
G00X3.542Y-2.1
M15
G01X3.672Y-2.1
M16
G05
T0
M30
