%TF.GenerationSoftware,KiCad,Pcbnew,(6.0.1)*%
%TF.CreationDate,2023-09-06T20:42:41-07:00*%
%TF.ProjectId,Simon Says,53696d6f-6e20-4536-9179-732e6b696361,rev?*%
%TF.SameCoordinates,Original*%
%TF.FileFunction,Soldermask,Bot*%
%TF.FilePolarity,Negative*%
%FSLAX46Y46*%
G04 Gerber Fmt 4.6, Leading zero omitted, Abs format (unit mm)*
G04 Created by KiCad (PCBNEW (6.0.1)) date 2023-09-06 20:42:41*
%MOMM*%
%LPD*%
G01*
G04 APERTURE LIST*
%ADD10C,1.602000*%
%ADD11C,2.000000*%
%ADD12R,1.800000X1.800000*%
%ADD13C,1.800000*%
%ADD14R,1.600000X1.600000*%
%ADD15C,1.600000*%
G04 APERTURE END LIST*
D10*
%TO.C,LS1*%
X61800000Y-89400000D03*
X61800000Y-84400000D03*
%TD*%
D11*
%TO.C,SW3*%
X131750000Y-90350000D03*
X138250000Y-90350000D03*
X138250000Y-94850000D03*
X131750000Y-94850000D03*
%TD*%
D12*
%TO.C,D2*%
X122125000Y-72100000D03*
D13*
X124665000Y-72100000D03*
%TD*%
D12*
%TO.C,D3*%
X133760000Y-72100000D03*
D13*
X136300000Y-72100000D03*
%TD*%
D14*
%TO.C,U1*%
X82880000Y-65400000D03*
D15*
X82880000Y-67940000D03*
X82880000Y-70480000D03*
X82880000Y-73020000D03*
X82880000Y-75560000D03*
X82880000Y-78100000D03*
X82880000Y-80640000D03*
X82880000Y-83180000D03*
X82880000Y-85720000D03*
X82880000Y-88260000D03*
X82880000Y-90800000D03*
X82880000Y-93340000D03*
X98120000Y-93340000D03*
X98120000Y-90800000D03*
X98120000Y-88260000D03*
X98120000Y-85720000D03*
X98120000Y-83180000D03*
X98120000Y-80640000D03*
X98120000Y-78100000D03*
X98120000Y-75560000D03*
X98120000Y-73020000D03*
X98120000Y-70480000D03*
X98120000Y-67940000D03*
X98120000Y-65400000D03*
%TD*%
D12*
%TO.C,D1*%
X111025000Y-72500000D03*
D13*
X113565000Y-72500000D03*
%TD*%
D12*
%TO.C,D5*%
X72000000Y-57500000D03*
D13*
X69460000Y-57500000D03*
%TD*%
D11*
%TO.C,SW2*%
X126250000Y-90950000D03*
X119750000Y-90950000D03*
X126250000Y-95450000D03*
X119750000Y-95450000D03*
%TD*%
D12*
%TO.C,D4*%
X146925000Y-72100000D03*
D13*
X149465000Y-72100000D03*
%TD*%
D11*
%TO.C,SW1*%
X108150000Y-91250000D03*
X114650000Y-91250000D03*
X108150000Y-95750000D03*
X114650000Y-95750000D03*
%TD*%
%TO.C,SW4*%
X145050000Y-90250000D03*
X151550000Y-90250000D03*
X145050000Y-94750000D03*
X151550000Y-94750000D03*
%TD*%
M02*
