%TF.GenerationSoftware,KiCad,Pcbnew,(6.0.1)*%
%TF.CreationDate,2023-09-06T20:42:38-07:00*%
%TF.ProjectId,Simon Says,53696d6f-6e20-4536-9179-732e6b696361,rev?*%
%TF.SameCoordinates,Original*%
%TF.FileFunction,Copper,L2,Bot*%
%TF.FilePolarity,Positive*%
%FSLAX46Y46*%
G04 Gerber Fmt 4.6, Leading zero omitted, Abs format (unit mm)*
G04 Created by KiCad (PCBNEW (6.0.1)) date 2023-09-06 20:42:38*
%MOMM*%
%LPD*%
G01*
G04 APERTURE LIST*
%TA.AperFunction,ComponentPad*%
%ADD10C,1.398000*%
%TD*%
%TA.AperFunction,ComponentPad*%
%ADD11C,2.000000*%
%TD*%
%TA.AperFunction,ComponentPad*%
%ADD12R,1.800000X1.800000*%
%TD*%
%TA.AperFunction,ComponentPad*%
%ADD13C,1.800000*%
%TD*%
%TA.AperFunction,ComponentPad*%
%ADD14R,1.600000X1.600000*%
%TD*%
%TA.AperFunction,ComponentPad*%
%ADD15C,1.600000*%
%TD*%
%TA.AperFunction,ViaPad*%
%ADD16C,0.800000*%
%TD*%
%TA.AperFunction,Conductor*%
%ADD17C,0.250000*%
%TD*%
G04 APERTURE END LIST*
D10*
%TO.P,LS1,1,1*%
%TO.N,Net-(LS1-Pad1)*%
X61800000Y-89400000D03*
%TO.P,LS1,2,2*%
%TO.N,Net-(LS1-Pad2)*%
X61800000Y-84400000D03*
%TD*%
D11*
%TO.P,SW3,1,1*%
%TO.N,GND*%
X131750000Y-90350000D03*
X138250000Y-90350000D03*
%TO.P,SW3,2,2*%
%TO.N,/SW3*%
X138250000Y-94850000D03*
X131750000Y-94850000D03*
%TD*%
D12*
%TO.P,D2,1,K*%
%TO.N,Net-(D2-Pad1)*%
X122125000Y-72100000D03*
D13*
%TO.P,D2,2,A*%
%TO.N,/SW2*%
X124665000Y-72100000D03*
%TD*%
D12*
%TO.P,D3,1,K*%
%TO.N,Net-(D3-Pad1)*%
X133760000Y-72100000D03*
D13*
%TO.P,D3,2,A*%
%TO.N,/SW3*%
X136300000Y-72100000D03*
%TD*%
D14*
%TO.P,U1,1,TX*%
%TO.N,unconnected-(U1-Pad1)*%
X82880000Y-65400000D03*
D15*
%TO.P,U1,2,RX*%
%TO.N,unconnected-(U1-Pad2)*%
X82880000Y-67940000D03*
%TO.P,U1,3,GND*%
%TO.N,GND*%
X82880000Y-70480000D03*
%TO.P,U1,4,GND*%
X82880000Y-73020000D03*
%TO.P,U1,5,SDA*%
%TO.N,unconnected-(U1-Pad5)*%
X82880000Y-75560000D03*
%TO.P,U1,6,SCL*%
%TO.N,unconnected-(U1-Pad6)*%
X82880000Y-78100000D03*
%TO.P,U1,7,D4*%
%TO.N,unconnected-(U1-Pad7)*%
X82880000Y-80640000D03*
%TO.P,U1,8,C6*%
%TO.N,unconnected-(U1-Pad8)*%
X82880000Y-83180000D03*
%TO.P,U1,9,D7*%
%TO.N,unconnected-(U1-Pad9)*%
X82880000Y-85720000D03*
%TO.P,U1,10,E6*%
%TO.N,unconnected-(U1-Pad10)*%
X82880000Y-88260000D03*
%TO.P,U1,11,B4*%
%TO.N,Net-(LS1-Pad2)*%
X82880000Y-90800000D03*
%TO.P,U1,12,B5*%
%TO.N,Net-(LS1-Pad1)*%
X82880000Y-93340000D03*
%TO.P,U1,13,B6*%
%TO.N,/SW4*%
X98120000Y-93340000D03*
%TO.P,U1,14,B2*%
%TO.N,/SW3*%
X98120000Y-90800000D03*
%TO.P,U1,15,B3*%
%TO.N,/SW2*%
X98120000Y-88260000D03*
%TO.P,U1,16,B1*%
%TO.N,/SW1*%
X98120000Y-85720000D03*
%TO.P,U1,17,F7*%
%TO.N,/Y*%
X98120000Y-83180000D03*
%TO.P,U1,18,F6*%
%TO.N,/B*%
X98120000Y-80640000D03*
%TO.P,U1,19,F5*%
%TO.N,/G*%
X98120000Y-78100000D03*
%TO.P,U1,20,F4*%
%TO.N,/R*%
X98120000Y-75560000D03*
%TO.P,U1,21,VCC*%
%TO.N,VCC*%
X98120000Y-73020000D03*
%TO.P,U1,22,RST*%
%TO.N,unconnected-(U1-Pad22)*%
X98120000Y-70480000D03*
%TO.P,U1,23,GND*%
%TO.N,GND*%
X98120000Y-67940000D03*
%TO.P,U1,24,RAW*%
%TO.N,unconnected-(U1-Pad24)*%
X98120000Y-65400000D03*
%TD*%
D12*
%TO.P,D1,1,K*%
%TO.N,Net-(D1-Pad1)*%
X111025000Y-72500000D03*
D13*
%TO.P,D1,2,A*%
%TO.N,/SW1*%
X113565000Y-72500000D03*
%TD*%
D12*
%TO.P,D5,1,K*%
%TO.N,Net-(D5-Pad1)*%
X72000000Y-57500000D03*
D13*
%TO.P,D5,2,A*%
%TO.N,VCC*%
X69460000Y-57500000D03*
%TD*%
D11*
%TO.P,SW2,1,1*%
%TO.N,GND*%
X126250000Y-90950000D03*
X119750000Y-90950000D03*
%TO.P,SW2,2,2*%
%TO.N,/SW2*%
X126250000Y-95450000D03*
X119750000Y-95450000D03*
%TD*%
D12*
%TO.P,D4,1,K*%
%TO.N,Net-(D4-Pad1)*%
X146925000Y-72100000D03*
D13*
%TO.P,D4,2,A*%
%TO.N,/SW4*%
X149465000Y-72100000D03*
%TD*%
D11*
%TO.P,SW1,1,1*%
%TO.N,GND*%
X108150000Y-91250000D03*
X114650000Y-91250000D03*
%TO.P,SW1,2,2*%
%TO.N,/SW1*%
X108150000Y-95750000D03*
X114650000Y-95750000D03*
%TD*%
%TO.P,SW4,1,1*%
%TO.N,GND*%
X145050000Y-90250000D03*
X151550000Y-90250000D03*
%TO.P,SW4,2,2*%
%TO.N,/SW4*%
X145050000Y-94750000D03*
X151550000Y-94750000D03*
%TD*%
D16*
%TO.N,/G*%
X102800000Y-73800000D03*
X117200000Y-70200000D03*
%TO.N,/B*%
X103700000Y-77600000D03*
X127500000Y-74800000D03*
%TO.N,/Y*%
X141000000Y-74400000D03*
X102100000Y-82500000D03*
%TD*%
D17*
%TO.N,/G*%
X117200000Y-70200000D02*
X106349022Y-70200000D01*
X102800000Y-73749022D02*
X102800000Y-73800000D01*
X106349022Y-70200000D02*
X102800000Y-73749022D01*
%TO.N,/B*%
X127500000Y-74800000D02*
X124700000Y-77600000D01*
X124700000Y-77600000D02*
X103700000Y-77600000D01*
%TO.N,/Y*%
X132900000Y-82500000D02*
X102100000Y-82500000D01*
X141000000Y-74400000D02*
X132900000Y-82500000D01*
%TD*%
%TA.AperFunction,Conductor*%
%TO.N,GND*%
G36*
X155034121Y-51228002D02*
G01*
X155080614Y-51281658D01*
X155092000Y-51334000D01*
X155092000Y-108166000D01*
X155071998Y-108234121D01*
X155018342Y-108280614D01*
X154966000Y-108292000D01*
X51834000Y-108292000D01*
X51765879Y-108271998D01*
X51719386Y-108218342D01*
X51708000Y-108166000D01*
X51708000Y-95750000D01*
X106636835Y-95750000D01*
X106655465Y-95986711D01*
X106656619Y-95991518D01*
X106656620Y-95991524D01*
X106681620Y-96095654D01*
X106710895Y-96217594D01*
X106712788Y-96222165D01*
X106712789Y-96222167D01*
X106740516Y-96289105D01*
X106801760Y-96436963D01*
X106804346Y-96441183D01*
X106923241Y-96635202D01*
X106923245Y-96635208D01*
X106925824Y-96639416D01*
X107080031Y-96819969D01*
X107260584Y-96974176D01*
X107264792Y-96976755D01*
X107264798Y-96976759D01*
X107458817Y-97095654D01*
X107463037Y-97098240D01*
X107467607Y-97100133D01*
X107467611Y-97100135D01*
X107677833Y-97187211D01*
X107682406Y-97189105D01*
X107762609Y-97208360D01*
X107908476Y-97243380D01*
X107908482Y-97243381D01*
X107913289Y-97244535D01*
X108150000Y-97263165D01*
X108386711Y-97244535D01*
X108391518Y-97243381D01*
X108391524Y-97243380D01*
X108537391Y-97208360D01*
X108617594Y-97189105D01*
X108622167Y-97187211D01*
X108832389Y-97100135D01*
X108832393Y-97100133D01*
X108836963Y-97098240D01*
X108841183Y-97095654D01*
X109035202Y-96976759D01*
X109035208Y-96976755D01*
X109039416Y-96974176D01*
X109219969Y-96819969D01*
X109374176Y-96639416D01*
X109376755Y-96635208D01*
X109376759Y-96635202D01*
X109495654Y-96441183D01*
X109498240Y-96436963D01*
X109559485Y-96289105D01*
X109587211Y-96222167D01*
X109587212Y-96222165D01*
X109589105Y-96217594D01*
X109618380Y-96095654D01*
X109643380Y-95991524D01*
X109643381Y-95991518D01*
X109644535Y-95986711D01*
X109663165Y-95750000D01*
X113136835Y-95750000D01*
X113155465Y-95986711D01*
X113156619Y-95991518D01*
X113156620Y-95991524D01*
X113181620Y-96095654D01*
X113210895Y-96217594D01*
X113212788Y-96222165D01*
X113212789Y-96222167D01*
X113240516Y-96289105D01*
X113301760Y-96436963D01*
X113304346Y-96441183D01*
X113423241Y-96635202D01*
X113423245Y-96635208D01*
X113425824Y-96639416D01*
X113580031Y-96819969D01*
X113760584Y-96974176D01*
X113764792Y-96976755D01*
X113764798Y-96976759D01*
X113958817Y-97095654D01*
X113963037Y-97098240D01*
X113967607Y-97100133D01*
X113967611Y-97100135D01*
X114177833Y-97187211D01*
X114182406Y-97189105D01*
X114262609Y-97208360D01*
X114408476Y-97243380D01*
X114408482Y-97243381D01*
X114413289Y-97244535D01*
X114650000Y-97263165D01*
X114886711Y-97244535D01*
X114891518Y-97243381D01*
X114891524Y-97243380D01*
X115037391Y-97208360D01*
X115117594Y-97189105D01*
X115122167Y-97187211D01*
X115332389Y-97100135D01*
X115332393Y-97100133D01*
X115336963Y-97098240D01*
X115341183Y-97095654D01*
X115535202Y-96976759D01*
X115535208Y-96976755D01*
X115539416Y-96974176D01*
X115719969Y-96819969D01*
X115874176Y-96639416D01*
X115876755Y-96635208D01*
X115876759Y-96635202D01*
X115995654Y-96441183D01*
X115998240Y-96436963D01*
X116059485Y-96289105D01*
X116087211Y-96222167D01*
X116087212Y-96222165D01*
X116089105Y-96217594D01*
X116118380Y-96095654D01*
X116143380Y-95991524D01*
X116143381Y-95991518D01*
X116144535Y-95986711D01*
X116163165Y-95750000D01*
X116144535Y-95513289D01*
X116130525Y-95454930D01*
X116129341Y-95450000D01*
X118236835Y-95450000D01*
X118255465Y-95686711D01*
X118256619Y-95691518D01*
X118256620Y-95691524D01*
X118291640Y-95837391D01*
X118310895Y-95917594D01*
X118312788Y-95922165D01*
X118312789Y-95922167D01*
X118385721Y-96098240D01*
X118401760Y-96136963D01*
X118404346Y-96141183D01*
X118523241Y-96335202D01*
X118523245Y-96335208D01*
X118525824Y-96339416D01*
X118680031Y-96519969D01*
X118860584Y-96674176D01*
X118864792Y-96676755D01*
X118864798Y-96676759D01*
X119058817Y-96795654D01*
X119063037Y-96798240D01*
X119067607Y-96800133D01*
X119067611Y-96800135D01*
X119277833Y-96887211D01*
X119282406Y-96889105D01*
X119362609Y-96908360D01*
X119508476Y-96943380D01*
X119508482Y-96943381D01*
X119513289Y-96944535D01*
X119750000Y-96963165D01*
X119986711Y-96944535D01*
X119991518Y-96943381D01*
X119991524Y-96943380D01*
X120137391Y-96908360D01*
X120217594Y-96889105D01*
X120222167Y-96887211D01*
X120432389Y-96800135D01*
X120432393Y-96800133D01*
X120436963Y-96798240D01*
X120441183Y-96795654D01*
X120635202Y-96676759D01*
X120635208Y-96676755D01*
X120639416Y-96674176D01*
X120819969Y-96519969D01*
X120974176Y-96339416D01*
X120976755Y-96335208D01*
X120976759Y-96335202D01*
X121095654Y-96141183D01*
X121098240Y-96136963D01*
X121114280Y-96098240D01*
X121187211Y-95922167D01*
X121187212Y-95922165D01*
X121189105Y-95917594D01*
X121208360Y-95837391D01*
X121243380Y-95691524D01*
X121243381Y-95691518D01*
X121244535Y-95686711D01*
X121263165Y-95450000D01*
X124736835Y-95450000D01*
X124755465Y-95686711D01*
X124756619Y-95691518D01*
X124756620Y-95691524D01*
X124791640Y-95837391D01*
X124810895Y-95917594D01*
X124812788Y-95922165D01*
X124812789Y-95922167D01*
X124885721Y-96098240D01*
X124901760Y-96136963D01*
X124904346Y-96141183D01*
X125023241Y-96335202D01*
X125023245Y-96335208D01*
X125025824Y-96339416D01*
X125180031Y-96519969D01*
X125360584Y-96674176D01*
X125364792Y-96676755D01*
X125364798Y-96676759D01*
X125558817Y-96795654D01*
X125563037Y-96798240D01*
X125567607Y-96800133D01*
X125567611Y-96800135D01*
X125777833Y-96887211D01*
X125782406Y-96889105D01*
X125862609Y-96908360D01*
X126008476Y-96943380D01*
X126008482Y-96943381D01*
X126013289Y-96944535D01*
X126250000Y-96963165D01*
X126486711Y-96944535D01*
X126491518Y-96943381D01*
X126491524Y-96943380D01*
X126637391Y-96908360D01*
X126717594Y-96889105D01*
X126722167Y-96887211D01*
X126932389Y-96800135D01*
X126932393Y-96800133D01*
X126936963Y-96798240D01*
X126941183Y-96795654D01*
X127135202Y-96676759D01*
X127135208Y-96676755D01*
X127139416Y-96674176D01*
X127319969Y-96519969D01*
X127474176Y-96339416D01*
X127476755Y-96335208D01*
X127476759Y-96335202D01*
X127595654Y-96141183D01*
X127598240Y-96136963D01*
X127614280Y-96098240D01*
X127687211Y-95922167D01*
X127687212Y-95922165D01*
X127689105Y-95917594D01*
X127708360Y-95837391D01*
X127743380Y-95691524D01*
X127743381Y-95691518D01*
X127744535Y-95686711D01*
X127763165Y-95450000D01*
X127744535Y-95213289D01*
X127689105Y-94982406D01*
X127634261Y-94850000D01*
X130236835Y-94850000D01*
X130255465Y-95086711D01*
X130310895Y-95317594D01*
X130312788Y-95322165D01*
X130312789Y-95322167D01*
X130393998Y-95518223D01*
X130401760Y-95536963D01*
X130404346Y-95541183D01*
X130523241Y-95735202D01*
X130523245Y-95735208D01*
X130525824Y-95739416D01*
X130680031Y-95919969D01*
X130860584Y-96074176D01*
X130864792Y-96076755D01*
X130864798Y-96076759D01*
X131045039Y-96187211D01*
X131063037Y-96198240D01*
X131067607Y-96200133D01*
X131067611Y-96200135D01*
X131277833Y-96287211D01*
X131282406Y-96289105D01*
X131362609Y-96308360D01*
X131508476Y-96343380D01*
X131508482Y-96343381D01*
X131513289Y-96344535D01*
X131750000Y-96363165D01*
X131986711Y-96344535D01*
X131991518Y-96343381D01*
X131991524Y-96343380D01*
X132137391Y-96308360D01*
X132217594Y-96289105D01*
X132222167Y-96287211D01*
X132432389Y-96200135D01*
X132432393Y-96200133D01*
X132436963Y-96198240D01*
X132454961Y-96187211D01*
X132635202Y-96076759D01*
X132635208Y-96076755D01*
X132639416Y-96074176D01*
X132819969Y-95919969D01*
X132974176Y-95739416D01*
X132976755Y-95735208D01*
X132976759Y-95735202D01*
X133095654Y-95541183D01*
X133098240Y-95536963D01*
X133106003Y-95518223D01*
X133187211Y-95322167D01*
X133187212Y-95322165D01*
X133189105Y-95317594D01*
X133244535Y-95086711D01*
X133263165Y-94850000D01*
X136736835Y-94850000D01*
X136755465Y-95086711D01*
X136810895Y-95317594D01*
X136812788Y-95322165D01*
X136812789Y-95322167D01*
X136893998Y-95518223D01*
X136901760Y-95536963D01*
X136904346Y-95541183D01*
X137023241Y-95735202D01*
X137023245Y-95735208D01*
X137025824Y-95739416D01*
X137180031Y-95919969D01*
X137360584Y-96074176D01*
X137364792Y-96076755D01*
X137364798Y-96076759D01*
X137545039Y-96187211D01*
X137563037Y-96198240D01*
X137567607Y-96200133D01*
X137567611Y-96200135D01*
X137777833Y-96287211D01*
X137782406Y-96289105D01*
X137862609Y-96308360D01*
X138008476Y-96343380D01*
X138008482Y-96343381D01*
X138013289Y-96344535D01*
X138250000Y-96363165D01*
X138486711Y-96344535D01*
X138491518Y-96343381D01*
X138491524Y-96343380D01*
X138637391Y-96308360D01*
X138717594Y-96289105D01*
X138722167Y-96287211D01*
X138932389Y-96200135D01*
X138932393Y-96200133D01*
X138936963Y-96198240D01*
X138954961Y-96187211D01*
X139135202Y-96076759D01*
X139135208Y-96076755D01*
X139139416Y-96074176D01*
X139319969Y-95919969D01*
X139474176Y-95739416D01*
X139476755Y-95735208D01*
X139476759Y-95735202D01*
X139595654Y-95541183D01*
X139598240Y-95536963D01*
X139606003Y-95518223D01*
X139687211Y-95322167D01*
X139687212Y-95322165D01*
X139689105Y-95317594D01*
X139744535Y-95086711D01*
X139763165Y-94850000D01*
X139755295Y-94750000D01*
X143536835Y-94750000D01*
X143555465Y-94986711D01*
X143610895Y-95217594D01*
X143612788Y-95222165D01*
X143612789Y-95222167D01*
X143635847Y-95277833D01*
X143701760Y-95436963D01*
X143704346Y-95441183D01*
X143823241Y-95635202D01*
X143823245Y-95635208D01*
X143825824Y-95639416D01*
X143980031Y-95819969D01*
X144160584Y-95974176D01*
X144164792Y-95976755D01*
X144164798Y-95976759D01*
X144318528Y-96070965D01*
X144363037Y-96098240D01*
X144367607Y-96100133D01*
X144367611Y-96100135D01*
X144466711Y-96141183D01*
X144582406Y-96189105D01*
X144662609Y-96208360D01*
X144808476Y-96243380D01*
X144808482Y-96243381D01*
X144813289Y-96244535D01*
X145050000Y-96263165D01*
X145286711Y-96244535D01*
X145291518Y-96243381D01*
X145291524Y-96243380D01*
X145437391Y-96208360D01*
X145517594Y-96189105D01*
X145633289Y-96141183D01*
X145732389Y-96100135D01*
X145732393Y-96100133D01*
X145736963Y-96098240D01*
X145781472Y-96070965D01*
X145935202Y-95976759D01*
X145935208Y-95976755D01*
X145939416Y-95974176D01*
X146119969Y-95819969D01*
X146274176Y-95639416D01*
X146276755Y-95635208D01*
X146276759Y-95635202D01*
X146395654Y-95441183D01*
X146398240Y-95436963D01*
X146464154Y-95277833D01*
X146487211Y-95222167D01*
X146487212Y-95222165D01*
X146489105Y-95217594D01*
X146544535Y-94986711D01*
X146563165Y-94750000D01*
X150036835Y-94750000D01*
X150055465Y-94986711D01*
X150110895Y-95217594D01*
X150112788Y-95222165D01*
X150112789Y-95222167D01*
X150135847Y-95277833D01*
X150201760Y-95436963D01*
X150204346Y-95441183D01*
X150323241Y-95635202D01*
X150323245Y-95635208D01*
X150325824Y-95639416D01*
X150480031Y-95819969D01*
X150660584Y-95974176D01*
X150664792Y-95976755D01*
X150664798Y-95976759D01*
X150818528Y-96070965D01*
X150863037Y-96098240D01*
X150867607Y-96100133D01*
X150867611Y-96100135D01*
X150966711Y-96141183D01*
X151082406Y-96189105D01*
X151162609Y-96208360D01*
X151308476Y-96243380D01*
X151308482Y-96243381D01*
X151313289Y-96244535D01*
X151550000Y-96263165D01*
X151786711Y-96244535D01*
X151791518Y-96243381D01*
X151791524Y-96243380D01*
X151937391Y-96208360D01*
X152017594Y-96189105D01*
X152133289Y-96141183D01*
X152232389Y-96100135D01*
X152232393Y-96100133D01*
X152236963Y-96098240D01*
X152281472Y-96070965D01*
X152435202Y-95976759D01*
X152435208Y-95976755D01*
X152439416Y-95974176D01*
X152619969Y-95819969D01*
X152774176Y-95639416D01*
X152776755Y-95635208D01*
X152776759Y-95635202D01*
X152895654Y-95441183D01*
X152898240Y-95436963D01*
X152964154Y-95277833D01*
X152987211Y-95222167D01*
X152987212Y-95222165D01*
X152989105Y-95217594D01*
X153044535Y-94986711D01*
X153063165Y-94750000D01*
X153044535Y-94513289D01*
X153035949Y-94477523D01*
X152996399Y-94312789D01*
X152989105Y-94282406D01*
X152950083Y-94188197D01*
X152900135Y-94067611D01*
X152900133Y-94067607D01*
X152898240Y-94063037D01*
X152866287Y-94010895D01*
X152776759Y-93864798D01*
X152776755Y-93864792D01*
X152774176Y-93860584D01*
X152619969Y-93680031D01*
X152439416Y-93525824D01*
X152435208Y-93523245D01*
X152435202Y-93523241D01*
X152241183Y-93404346D01*
X152236963Y-93401760D01*
X152232393Y-93399867D01*
X152232389Y-93399865D01*
X152022167Y-93312789D01*
X152022165Y-93312788D01*
X152017594Y-93310895D01*
X151937391Y-93291640D01*
X151791524Y-93256620D01*
X151791518Y-93256619D01*
X151786711Y-93255465D01*
X151550000Y-93236835D01*
X151313289Y-93255465D01*
X151308482Y-93256619D01*
X151308476Y-93256620D01*
X151162609Y-93291640D01*
X151082406Y-93310895D01*
X151077835Y-93312788D01*
X151077833Y-93312789D01*
X150867611Y-93399865D01*
X150867607Y-93399867D01*
X150863037Y-93401760D01*
X150858817Y-93404346D01*
X150664798Y-93523241D01*
X150664792Y-93523245D01*
X150660584Y-93525824D01*
X150480031Y-93680031D01*
X150325824Y-93860584D01*
X150323245Y-93864792D01*
X150323241Y-93864798D01*
X150233713Y-94010895D01*
X150201760Y-94063037D01*
X150199867Y-94067607D01*
X150199865Y-94067611D01*
X150149917Y-94188197D01*
X150110895Y-94282406D01*
X150103601Y-94312789D01*
X150064052Y-94477523D01*
X150055465Y-94513289D01*
X150036835Y-94750000D01*
X146563165Y-94750000D01*
X146544535Y-94513289D01*
X146535949Y-94477523D01*
X146496399Y-94312789D01*
X146489105Y-94282406D01*
X146450083Y-94188197D01*
X146400135Y-94067611D01*
X146400133Y-94067607D01*
X146398240Y-94063037D01*
X146366287Y-94010895D01*
X146276759Y-93864798D01*
X146276755Y-93864792D01*
X146274176Y-93860584D01*
X146119969Y-93680031D01*
X145939416Y-93525824D01*
X145935208Y-93523245D01*
X145935202Y-93523241D01*
X145741183Y-93404346D01*
X145736963Y-93401760D01*
X145732393Y-93399867D01*
X145732389Y-93399865D01*
X145522167Y-93312789D01*
X145522165Y-93312788D01*
X145517594Y-93310895D01*
X145437391Y-93291640D01*
X145291524Y-93256620D01*
X145291518Y-93256619D01*
X145286711Y-93255465D01*
X145050000Y-93236835D01*
X144813289Y-93255465D01*
X144808482Y-93256619D01*
X144808476Y-93256620D01*
X144662609Y-93291640D01*
X144582406Y-93310895D01*
X144577835Y-93312788D01*
X144577833Y-93312789D01*
X144367611Y-93399865D01*
X144367607Y-93399867D01*
X144363037Y-93401760D01*
X144358817Y-93404346D01*
X144164798Y-93523241D01*
X144164792Y-93523245D01*
X144160584Y-93525824D01*
X143980031Y-93680031D01*
X143825824Y-93860584D01*
X143823245Y-93864792D01*
X143823241Y-93864798D01*
X143733713Y-94010895D01*
X143701760Y-94063037D01*
X143699867Y-94067607D01*
X143699865Y-94067611D01*
X143649917Y-94188197D01*
X143610895Y-94282406D01*
X143603601Y-94312789D01*
X143564052Y-94477523D01*
X143555465Y-94513289D01*
X143536835Y-94750000D01*
X139755295Y-94750000D01*
X139744535Y-94613289D01*
X139735513Y-94575707D01*
X139693751Y-94401760D01*
X139689105Y-94382406D01*
X139687211Y-94377833D01*
X139600135Y-94167611D01*
X139600133Y-94167607D01*
X139598240Y-94163037D01*
X139534374Y-94058817D01*
X139476759Y-93964798D01*
X139476755Y-93964792D01*
X139474176Y-93960584D01*
X139319969Y-93780031D01*
X139139416Y-93625824D01*
X139135208Y-93623245D01*
X139135202Y-93623241D01*
X138941183Y-93504346D01*
X138936963Y-93501760D01*
X138932393Y-93499867D01*
X138932389Y-93499865D01*
X138722167Y-93412789D01*
X138722165Y-93412788D01*
X138717594Y-93410895D01*
X138637391Y-93391640D01*
X138491524Y-93356620D01*
X138491518Y-93356619D01*
X138486711Y-93355465D01*
X138250000Y-93336835D01*
X138013289Y-93355465D01*
X138008482Y-93356619D01*
X138008476Y-93356620D01*
X137862609Y-93391640D01*
X137782406Y-93410895D01*
X137777835Y-93412788D01*
X137777833Y-93412789D01*
X137567611Y-93499865D01*
X137567607Y-93499867D01*
X137563037Y-93501760D01*
X137558817Y-93504346D01*
X137364798Y-93623241D01*
X137364792Y-93623245D01*
X137360584Y-93625824D01*
X137180031Y-93780031D01*
X137025824Y-93960584D01*
X137023245Y-93964792D01*
X137023241Y-93964798D01*
X136965626Y-94058817D01*
X136901760Y-94163037D01*
X136899867Y-94167607D01*
X136899865Y-94167611D01*
X136812789Y-94377833D01*
X136810895Y-94382406D01*
X136806249Y-94401760D01*
X136764488Y-94575707D01*
X136755465Y-94613289D01*
X136736835Y-94850000D01*
X133263165Y-94850000D01*
X133244535Y-94613289D01*
X133235513Y-94575707D01*
X133193751Y-94401760D01*
X133189105Y-94382406D01*
X133187211Y-94377833D01*
X133100135Y-94167611D01*
X133100133Y-94167607D01*
X133098240Y-94163037D01*
X133034374Y-94058817D01*
X132976759Y-93964798D01*
X132976755Y-93964792D01*
X132974176Y-93960584D01*
X132819969Y-93780031D01*
X132639416Y-93625824D01*
X132635208Y-93623245D01*
X132635202Y-93623241D01*
X132441183Y-93504346D01*
X132436963Y-93501760D01*
X132432393Y-93499867D01*
X132432389Y-93499865D01*
X132222167Y-93412789D01*
X132222165Y-93412788D01*
X132217594Y-93410895D01*
X132137391Y-93391640D01*
X131991524Y-93356620D01*
X131991518Y-93356619D01*
X131986711Y-93355465D01*
X131750000Y-93336835D01*
X131513289Y-93355465D01*
X131508482Y-93356619D01*
X131508476Y-93356620D01*
X131362609Y-93391640D01*
X131282406Y-93410895D01*
X131277835Y-93412788D01*
X131277833Y-93412789D01*
X131067611Y-93499865D01*
X131067607Y-93499867D01*
X131063037Y-93501760D01*
X131058817Y-93504346D01*
X130864798Y-93623241D01*
X130864792Y-93623245D01*
X130860584Y-93625824D01*
X130680031Y-93780031D01*
X130525824Y-93960584D01*
X130523245Y-93964792D01*
X130523241Y-93964798D01*
X130465626Y-94058817D01*
X130401760Y-94163037D01*
X130399867Y-94167607D01*
X130399865Y-94167611D01*
X130312789Y-94377833D01*
X130310895Y-94382406D01*
X130306249Y-94401760D01*
X130264488Y-94575707D01*
X130255465Y-94613289D01*
X130236835Y-94850000D01*
X127634261Y-94850000D01*
X127598240Y-94763037D01*
X127587230Y-94745070D01*
X127476759Y-94564798D01*
X127476755Y-94564792D01*
X127474176Y-94560584D01*
X127319969Y-94380031D01*
X127139416Y-94225824D01*
X127135208Y-94223245D01*
X127135202Y-94223241D01*
X126941183Y-94104346D01*
X126936963Y-94101760D01*
X126932393Y-94099867D01*
X126932389Y-94099865D01*
X126722167Y-94012789D01*
X126722165Y-94012788D01*
X126717594Y-94010895D01*
X126637391Y-93991640D01*
X126491524Y-93956620D01*
X126491518Y-93956619D01*
X126486711Y-93955465D01*
X126250000Y-93936835D01*
X126013289Y-93955465D01*
X126008482Y-93956619D01*
X126008476Y-93956620D01*
X125862609Y-93991640D01*
X125782406Y-94010895D01*
X125777835Y-94012788D01*
X125777833Y-94012789D01*
X125567611Y-94099865D01*
X125567607Y-94099867D01*
X125563037Y-94101760D01*
X125558817Y-94104346D01*
X125364798Y-94223241D01*
X125364792Y-94223245D01*
X125360584Y-94225824D01*
X125180031Y-94380031D01*
X125025824Y-94560584D01*
X125023245Y-94564792D01*
X125023241Y-94564798D01*
X124912770Y-94745070D01*
X124901760Y-94763037D01*
X124810895Y-94982406D01*
X124755465Y-95213289D01*
X124736835Y-95450000D01*
X121263165Y-95450000D01*
X121244535Y-95213289D01*
X121189105Y-94982406D01*
X121098240Y-94763037D01*
X121087230Y-94745070D01*
X120976759Y-94564798D01*
X120976755Y-94564792D01*
X120974176Y-94560584D01*
X120819969Y-94380031D01*
X120639416Y-94225824D01*
X120635208Y-94223245D01*
X120635202Y-94223241D01*
X120441183Y-94104346D01*
X120436963Y-94101760D01*
X120432393Y-94099867D01*
X120432389Y-94099865D01*
X120222167Y-94012789D01*
X120222165Y-94012788D01*
X120217594Y-94010895D01*
X120137391Y-93991640D01*
X119991524Y-93956620D01*
X119991518Y-93956619D01*
X119986711Y-93955465D01*
X119750000Y-93936835D01*
X119513289Y-93955465D01*
X119508482Y-93956619D01*
X119508476Y-93956620D01*
X119362609Y-93991640D01*
X119282406Y-94010895D01*
X119277835Y-94012788D01*
X119277833Y-94012789D01*
X119067611Y-94099865D01*
X119067607Y-94099867D01*
X119063037Y-94101760D01*
X119058817Y-94104346D01*
X118864798Y-94223241D01*
X118864792Y-94223245D01*
X118860584Y-94225824D01*
X118680031Y-94380031D01*
X118525824Y-94560584D01*
X118523245Y-94564792D01*
X118523241Y-94564798D01*
X118412770Y-94745070D01*
X118401760Y-94763037D01*
X118310895Y-94982406D01*
X118255465Y-95213289D01*
X118236835Y-95450000D01*
X116129341Y-95450000D01*
X116097553Y-95317594D01*
X116089105Y-95282406D01*
X116087211Y-95277833D01*
X116000135Y-95067611D01*
X116000133Y-95067607D01*
X115998240Y-95063037D01*
X115946027Y-94977833D01*
X115876759Y-94864798D01*
X115876755Y-94864792D01*
X115874176Y-94860584D01*
X115719969Y-94680031D01*
X115539416Y-94525824D01*
X115535208Y-94523245D01*
X115535202Y-94523241D01*
X115341183Y-94404346D01*
X115336963Y-94401760D01*
X115332393Y-94399867D01*
X115332389Y-94399865D01*
X115122167Y-94312789D01*
X115122165Y-94312788D01*
X115117594Y-94310895D01*
X114979881Y-94277833D01*
X114891524Y-94256620D01*
X114891518Y-94256619D01*
X114886711Y-94255465D01*
X114650000Y-94236835D01*
X114413289Y-94255465D01*
X114408482Y-94256619D01*
X114408476Y-94256620D01*
X114320119Y-94277833D01*
X114182406Y-94310895D01*
X114177835Y-94312788D01*
X114177833Y-94312789D01*
X113967611Y-94399865D01*
X113967607Y-94399867D01*
X113963037Y-94401760D01*
X113958817Y-94404346D01*
X113764798Y-94523241D01*
X113764792Y-94523245D01*
X113760584Y-94525824D01*
X113580031Y-94680031D01*
X113425824Y-94860584D01*
X113423245Y-94864792D01*
X113423241Y-94864798D01*
X113353973Y-94977833D01*
X113301760Y-95063037D01*
X113299867Y-95067607D01*
X113299865Y-95067611D01*
X113212789Y-95277833D01*
X113210895Y-95282406D01*
X113202447Y-95317594D01*
X113169476Y-95454930D01*
X113155465Y-95513289D01*
X113136835Y-95750000D01*
X109663165Y-95750000D01*
X109644535Y-95513289D01*
X109630525Y-95454930D01*
X109597553Y-95317594D01*
X109589105Y-95282406D01*
X109587211Y-95277833D01*
X109500135Y-95067611D01*
X109500133Y-95067607D01*
X109498240Y-95063037D01*
X109446027Y-94977833D01*
X109376759Y-94864798D01*
X109376755Y-94864792D01*
X109374176Y-94860584D01*
X109219969Y-94680031D01*
X109039416Y-94525824D01*
X109035208Y-94523245D01*
X109035202Y-94523241D01*
X108841183Y-94404346D01*
X108836963Y-94401760D01*
X108832393Y-94399867D01*
X108832389Y-94399865D01*
X108622167Y-94312789D01*
X108622165Y-94312788D01*
X108617594Y-94310895D01*
X108479881Y-94277833D01*
X108391524Y-94256620D01*
X108391518Y-94256619D01*
X108386711Y-94255465D01*
X108150000Y-94236835D01*
X107913289Y-94255465D01*
X107908482Y-94256619D01*
X107908476Y-94256620D01*
X107820119Y-94277833D01*
X107682406Y-94310895D01*
X107677835Y-94312788D01*
X107677833Y-94312789D01*
X107467611Y-94399865D01*
X107467607Y-94399867D01*
X107463037Y-94401760D01*
X107458817Y-94404346D01*
X107264798Y-94523241D01*
X107264792Y-94523245D01*
X107260584Y-94525824D01*
X107080031Y-94680031D01*
X106925824Y-94860584D01*
X106923245Y-94864792D01*
X106923241Y-94864798D01*
X106853973Y-94977833D01*
X106801760Y-95063037D01*
X106799867Y-95067607D01*
X106799865Y-95067611D01*
X106712789Y-95277833D01*
X106710895Y-95282406D01*
X106702447Y-95317594D01*
X106669476Y-95454930D01*
X106655465Y-95513289D01*
X106636835Y-95750000D01*
X51708000Y-95750000D01*
X51708000Y-93340000D01*
X81566502Y-93340000D01*
X81586457Y-93568087D01*
X81587881Y-93573400D01*
X81587881Y-93573402D01*
X81643248Y-93780031D01*
X81645716Y-93789243D01*
X81648039Y-93794224D01*
X81648039Y-93794225D01*
X81740151Y-93991762D01*
X81740154Y-93991767D01*
X81742477Y-93996749D01*
X81792095Y-94067611D01*
X81855959Y-94158817D01*
X81873802Y-94184300D01*
X82035700Y-94346198D01*
X82040208Y-94349355D01*
X82040211Y-94349357D01*
X82094282Y-94387218D01*
X82223251Y-94477523D01*
X82228233Y-94479846D01*
X82228238Y-94479849D01*
X82401377Y-94560584D01*
X82430757Y-94574284D01*
X82436065Y-94575706D01*
X82436067Y-94575707D01*
X82646598Y-94632119D01*
X82646600Y-94632119D01*
X82651913Y-94633543D01*
X82880000Y-94653498D01*
X83108087Y-94633543D01*
X83113400Y-94632119D01*
X83113402Y-94632119D01*
X83323933Y-94575707D01*
X83323935Y-94575706D01*
X83329243Y-94574284D01*
X83358623Y-94560584D01*
X83531762Y-94479849D01*
X83531767Y-94479846D01*
X83536749Y-94477523D01*
X83665718Y-94387218D01*
X83719789Y-94349357D01*
X83719792Y-94349355D01*
X83724300Y-94346198D01*
X83886198Y-94184300D01*
X83904042Y-94158817D01*
X83967905Y-94067611D01*
X84017523Y-93996749D01*
X84019846Y-93991767D01*
X84019849Y-93991762D01*
X84111961Y-93794225D01*
X84111961Y-93794224D01*
X84114284Y-93789243D01*
X84116753Y-93780031D01*
X84172119Y-93573402D01*
X84172119Y-93573400D01*
X84173543Y-93568087D01*
X84193498Y-93340000D01*
X96806502Y-93340000D01*
X96826457Y-93568087D01*
X96827881Y-93573400D01*
X96827881Y-93573402D01*
X96883248Y-93780031D01*
X96885716Y-93789243D01*
X96888039Y-93794224D01*
X96888039Y-93794225D01*
X96980151Y-93991762D01*
X96980154Y-93991767D01*
X96982477Y-93996749D01*
X97032095Y-94067611D01*
X97095959Y-94158817D01*
X97113802Y-94184300D01*
X97275700Y-94346198D01*
X97280208Y-94349355D01*
X97280211Y-94349357D01*
X97334282Y-94387218D01*
X97463251Y-94477523D01*
X97468233Y-94479846D01*
X97468238Y-94479849D01*
X97641377Y-94560584D01*
X97670757Y-94574284D01*
X97676065Y-94575706D01*
X97676067Y-94575707D01*
X97886598Y-94632119D01*
X97886600Y-94632119D01*
X97891913Y-94633543D01*
X98120000Y-94653498D01*
X98348087Y-94633543D01*
X98353400Y-94632119D01*
X98353402Y-94632119D01*
X98563933Y-94575707D01*
X98563935Y-94575706D01*
X98569243Y-94574284D01*
X98598623Y-94560584D01*
X98771762Y-94479849D01*
X98771767Y-94479846D01*
X98776749Y-94477523D01*
X98905718Y-94387218D01*
X98959789Y-94349357D01*
X98959792Y-94349355D01*
X98964300Y-94346198D01*
X99126198Y-94184300D01*
X99144042Y-94158817D01*
X99207905Y-94067611D01*
X99257523Y-93996749D01*
X99259846Y-93991767D01*
X99259849Y-93991762D01*
X99351961Y-93794225D01*
X99351961Y-93794224D01*
X99354284Y-93789243D01*
X99356753Y-93780031D01*
X99412119Y-93573402D01*
X99412119Y-93573400D01*
X99413543Y-93568087D01*
X99433498Y-93340000D01*
X99413543Y-93111913D01*
X99354284Y-92890757D01*
X99351961Y-92885775D01*
X99259849Y-92688238D01*
X99259846Y-92688233D01*
X99257523Y-92683251D01*
X99126198Y-92495700D01*
X99113168Y-92482670D01*
X107282160Y-92482670D01*
X107287887Y-92490320D01*
X107459042Y-92595205D01*
X107467837Y-92599687D01*
X107677988Y-92686734D01*
X107687373Y-92689783D01*
X107908554Y-92742885D01*
X107918301Y-92744428D01*
X108145070Y-92762275D01*
X108154930Y-92762275D01*
X108381699Y-92744428D01*
X108391446Y-92742885D01*
X108612627Y-92689783D01*
X108622012Y-92686734D01*
X108832163Y-92599687D01*
X108840958Y-92595205D01*
X109008445Y-92492568D01*
X109017400Y-92482670D01*
X113782160Y-92482670D01*
X113787887Y-92490320D01*
X113959042Y-92595205D01*
X113967837Y-92599687D01*
X114177988Y-92686734D01*
X114187373Y-92689783D01*
X114408554Y-92742885D01*
X114418301Y-92744428D01*
X114645070Y-92762275D01*
X114654930Y-92762275D01*
X114881699Y-92744428D01*
X114891446Y-92742885D01*
X115112627Y-92689783D01*
X115122012Y-92686734D01*
X115332163Y-92599687D01*
X115340958Y-92595205D01*
X115508445Y-92492568D01*
X115517907Y-92482110D01*
X115514124Y-92473334D01*
X115223460Y-92182670D01*
X118882160Y-92182670D01*
X118887887Y-92190320D01*
X119059042Y-92295205D01*
X119067837Y-92299687D01*
X119277988Y-92386734D01*
X119287373Y-92389783D01*
X119508554Y-92442885D01*
X119518301Y-92444428D01*
X119745070Y-92462275D01*
X119754930Y-92462275D01*
X119981699Y-92444428D01*
X119991446Y-92442885D01*
X120212627Y-92389783D01*
X120222012Y-92386734D01*
X120432163Y-92299687D01*
X120440958Y-92295205D01*
X120608445Y-92192568D01*
X120617400Y-92182670D01*
X125382160Y-92182670D01*
X125387887Y-92190320D01*
X125559042Y-92295205D01*
X125567837Y-92299687D01*
X125777988Y-92386734D01*
X125787373Y-92389783D01*
X126008554Y-92442885D01*
X126018301Y-92444428D01*
X126245070Y-92462275D01*
X126254930Y-92462275D01*
X126481699Y-92444428D01*
X126491446Y-92442885D01*
X126712627Y-92389783D01*
X126722012Y-92386734D01*
X126932163Y-92299687D01*
X126940958Y-92295205D01*
X127108445Y-92192568D01*
X127117907Y-92182110D01*
X127114124Y-92173334D01*
X126262812Y-91322022D01*
X126248868Y-91314408D01*
X126247035Y-91314539D01*
X126240420Y-91318790D01*
X125388920Y-92170290D01*
X125382160Y-92182670D01*
X120617400Y-92182670D01*
X120617907Y-92182110D01*
X120614124Y-92173334D01*
X119762812Y-91322022D01*
X119748868Y-91314408D01*
X119747035Y-91314539D01*
X119740420Y-91318790D01*
X118888920Y-92170290D01*
X118882160Y-92182670D01*
X115223460Y-92182670D01*
X114662812Y-91622022D01*
X114648868Y-91614408D01*
X114647035Y-91614539D01*
X114640420Y-91618790D01*
X113788920Y-92470290D01*
X113782160Y-92482670D01*
X109017400Y-92482670D01*
X109017907Y-92482110D01*
X109014124Y-92473334D01*
X108162812Y-91622022D01*
X108148868Y-91614408D01*
X108147035Y-91614539D01*
X108140420Y-91618790D01*
X107288920Y-92470290D01*
X107282160Y-92482670D01*
X99113168Y-92482670D01*
X98964300Y-92333802D01*
X98959792Y-92330645D01*
X98959789Y-92330643D01*
X98881611Y-92275902D01*
X98776749Y-92202477D01*
X98771767Y-92200154D01*
X98771762Y-92200151D01*
X98737543Y-92184195D01*
X98684258Y-92137278D01*
X98664797Y-92069001D01*
X98685339Y-92001041D01*
X98737543Y-91955805D01*
X98771762Y-91939849D01*
X98771767Y-91939846D01*
X98776749Y-91937523D01*
X98957328Y-91811080D01*
X98959789Y-91809357D01*
X98959792Y-91809355D01*
X98964300Y-91806198D01*
X99126198Y-91644300D01*
X99134697Y-91632163D01*
X99239765Y-91482110D01*
X99257523Y-91456749D01*
X99259846Y-91451767D01*
X99259849Y-91451762D01*
X99351632Y-91254930D01*
X106637725Y-91254930D01*
X106655572Y-91481699D01*
X106657115Y-91491446D01*
X106710217Y-91712627D01*
X106713266Y-91722012D01*
X106800313Y-91932163D01*
X106804795Y-91940958D01*
X106907432Y-92108445D01*
X106917890Y-92117907D01*
X106926666Y-92114124D01*
X107777978Y-91262812D01*
X107784356Y-91251132D01*
X108514408Y-91251132D01*
X108514539Y-91252965D01*
X108518790Y-91259580D01*
X109370290Y-92111080D01*
X109382670Y-92117840D01*
X109390320Y-92112113D01*
X109495205Y-91940958D01*
X109499687Y-91932163D01*
X109586734Y-91722012D01*
X109589783Y-91712627D01*
X109642885Y-91491446D01*
X109644428Y-91481699D01*
X109662275Y-91254930D01*
X113137725Y-91254930D01*
X113155572Y-91481699D01*
X113157115Y-91491446D01*
X113210217Y-91712627D01*
X113213266Y-91722012D01*
X113300313Y-91932163D01*
X113304795Y-91940958D01*
X113407432Y-92108445D01*
X113417890Y-92117907D01*
X113426666Y-92114124D01*
X114277978Y-91262812D01*
X114284356Y-91251132D01*
X115014408Y-91251132D01*
X115014539Y-91252965D01*
X115018790Y-91259580D01*
X115870290Y-92111080D01*
X115882670Y-92117840D01*
X115890320Y-92112113D01*
X115995205Y-91940958D01*
X115999687Y-91932163D01*
X116086734Y-91722012D01*
X116089783Y-91712627D01*
X116142885Y-91491446D01*
X116144428Y-91481699D01*
X116162275Y-91254930D01*
X116162275Y-91245070D01*
X116144428Y-91018301D01*
X116142885Y-91008554D01*
X116130011Y-90954930D01*
X118237725Y-90954930D01*
X118255572Y-91181699D01*
X118257115Y-91191446D01*
X118310217Y-91412627D01*
X118313266Y-91422012D01*
X118400313Y-91632163D01*
X118404795Y-91640958D01*
X118507432Y-91808445D01*
X118517890Y-91817907D01*
X118526666Y-91814124D01*
X119377978Y-90962812D01*
X119384356Y-90951132D01*
X120114408Y-90951132D01*
X120114539Y-90952965D01*
X120118790Y-90959580D01*
X120970290Y-91811080D01*
X120982670Y-91817840D01*
X120990320Y-91812113D01*
X121095205Y-91640958D01*
X121099687Y-91632163D01*
X121186734Y-91422012D01*
X121189783Y-91412627D01*
X121242885Y-91191446D01*
X121244428Y-91181699D01*
X121262275Y-90954930D01*
X124737725Y-90954930D01*
X124755572Y-91181699D01*
X124757115Y-91191446D01*
X124810217Y-91412627D01*
X124813266Y-91422012D01*
X124900313Y-91632163D01*
X124904795Y-91640958D01*
X125007432Y-91808445D01*
X125017890Y-91817907D01*
X125026666Y-91814124D01*
X125877978Y-90962812D01*
X125884356Y-90951132D01*
X126614408Y-90951132D01*
X126614539Y-90952965D01*
X126618790Y-90959580D01*
X127470290Y-91811080D01*
X127482670Y-91817840D01*
X127490320Y-91812113D01*
X127595205Y-91640958D01*
X127599687Y-91632163D01*
X127620188Y-91582670D01*
X130882160Y-91582670D01*
X130887887Y-91590320D01*
X131059042Y-91695205D01*
X131067837Y-91699687D01*
X131277988Y-91786734D01*
X131287373Y-91789783D01*
X131508554Y-91842885D01*
X131518301Y-91844428D01*
X131745070Y-91862275D01*
X131754930Y-91862275D01*
X131981699Y-91844428D01*
X131991446Y-91842885D01*
X132212627Y-91789783D01*
X132222012Y-91786734D01*
X132432163Y-91699687D01*
X132440958Y-91695205D01*
X132608445Y-91592568D01*
X132617400Y-91582670D01*
X137382160Y-91582670D01*
X137387887Y-91590320D01*
X137559042Y-91695205D01*
X137567837Y-91699687D01*
X137777988Y-91786734D01*
X137787373Y-91789783D01*
X138008554Y-91842885D01*
X138018301Y-91844428D01*
X138245070Y-91862275D01*
X138254930Y-91862275D01*
X138481699Y-91844428D01*
X138491446Y-91842885D01*
X138712627Y-91789783D01*
X138722012Y-91786734D01*
X138932163Y-91699687D01*
X138940958Y-91695205D01*
X139108445Y-91592568D01*
X139117907Y-91582110D01*
X139114124Y-91573334D01*
X139023460Y-91482670D01*
X144182160Y-91482670D01*
X144187887Y-91490320D01*
X144359042Y-91595205D01*
X144367837Y-91599687D01*
X144577988Y-91686734D01*
X144587373Y-91689783D01*
X144808554Y-91742885D01*
X144818301Y-91744428D01*
X145045070Y-91762275D01*
X145054930Y-91762275D01*
X145281699Y-91744428D01*
X145291446Y-91742885D01*
X145512627Y-91689783D01*
X145522012Y-91686734D01*
X145732163Y-91599687D01*
X145740958Y-91595205D01*
X145908445Y-91492568D01*
X145917400Y-91482670D01*
X150682160Y-91482670D01*
X150687887Y-91490320D01*
X150859042Y-91595205D01*
X150867837Y-91599687D01*
X151077988Y-91686734D01*
X151087373Y-91689783D01*
X151308554Y-91742885D01*
X151318301Y-91744428D01*
X151545070Y-91762275D01*
X151554930Y-91762275D01*
X151781699Y-91744428D01*
X151791446Y-91742885D01*
X152012627Y-91689783D01*
X152022012Y-91686734D01*
X152232163Y-91599687D01*
X152240958Y-91595205D01*
X152408445Y-91492568D01*
X152417907Y-91482110D01*
X152414124Y-91473334D01*
X151562812Y-90622022D01*
X151548868Y-90614408D01*
X151547035Y-90614539D01*
X151540420Y-90618790D01*
X150688920Y-91470290D01*
X150682160Y-91482670D01*
X145917400Y-91482670D01*
X145917907Y-91482110D01*
X145914124Y-91473334D01*
X145062812Y-90622022D01*
X145048868Y-90614408D01*
X145047035Y-90614539D01*
X145040420Y-90618790D01*
X144188920Y-91470290D01*
X144182160Y-91482670D01*
X139023460Y-91482670D01*
X138262812Y-90722022D01*
X138248868Y-90714408D01*
X138247035Y-90714539D01*
X138240420Y-90718790D01*
X137388920Y-91570290D01*
X137382160Y-91582670D01*
X132617400Y-91582670D01*
X132617907Y-91582110D01*
X132614124Y-91573334D01*
X131762812Y-90722022D01*
X131748868Y-90714408D01*
X131747035Y-90714539D01*
X131740420Y-90718790D01*
X130888920Y-91570290D01*
X130882160Y-91582670D01*
X127620188Y-91582670D01*
X127686734Y-91422012D01*
X127689783Y-91412627D01*
X127742885Y-91191446D01*
X127744428Y-91181699D01*
X127762275Y-90954930D01*
X127762275Y-90945070D01*
X127744428Y-90718301D01*
X127742885Y-90708554D01*
X127689783Y-90487373D01*
X127686734Y-90477988D01*
X127635762Y-90354930D01*
X130237725Y-90354930D01*
X130255572Y-90581699D01*
X130257115Y-90591446D01*
X130310217Y-90812627D01*
X130313266Y-90822012D01*
X130400313Y-91032163D01*
X130404795Y-91040958D01*
X130507432Y-91208445D01*
X130517890Y-91217907D01*
X130526666Y-91214124D01*
X131377978Y-90362812D01*
X131384356Y-90351132D01*
X132114408Y-90351132D01*
X132114539Y-90352965D01*
X132118790Y-90359580D01*
X132970290Y-91211080D01*
X132982670Y-91217840D01*
X132990320Y-91212113D01*
X133095205Y-91040958D01*
X133099687Y-91032163D01*
X133186734Y-90822012D01*
X133189783Y-90812627D01*
X133242885Y-90591446D01*
X133244428Y-90581699D01*
X133262275Y-90354930D01*
X136737725Y-90354930D01*
X136755572Y-90581699D01*
X136757115Y-90591446D01*
X136810217Y-90812627D01*
X136813266Y-90822012D01*
X136900313Y-91032163D01*
X136904795Y-91040958D01*
X137007432Y-91208445D01*
X137017890Y-91217907D01*
X137026666Y-91214124D01*
X137877978Y-90362812D01*
X137884356Y-90351132D01*
X138614408Y-90351132D01*
X138614539Y-90352965D01*
X138618790Y-90359580D01*
X139470290Y-91211080D01*
X139482670Y-91217840D01*
X139490320Y-91212113D01*
X139595205Y-91040958D01*
X139599687Y-91032163D01*
X139686734Y-90822012D01*
X139689783Y-90812627D01*
X139742885Y-90591446D01*
X139744428Y-90581699D01*
X139762275Y-90354930D01*
X139762275Y-90345070D01*
X139755181Y-90254930D01*
X143537725Y-90254930D01*
X143555572Y-90481699D01*
X143557115Y-90491446D01*
X143610217Y-90712627D01*
X143613266Y-90722012D01*
X143700313Y-90932163D01*
X143704795Y-90940958D01*
X143807432Y-91108445D01*
X143817890Y-91117907D01*
X143826666Y-91114124D01*
X144677978Y-90262812D01*
X144684356Y-90251132D01*
X145414408Y-90251132D01*
X145414539Y-90252965D01*
X145418790Y-90259580D01*
X146270290Y-91111080D01*
X146282670Y-91117840D01*
X146290320Y-91112113D01*
X146395205Y-90940958D01*
X146399687Y-90932163D01*
X146486734Y-90722012D01*
X146489783Y-90712627D01*
X146542885Y-90491446D01*
X146544428Y-90481699D01*
X146562275Y-90254930D01*
X150037725Y-90254930D01*
X150055572Y-90481699D01*
X150057115Y-90491446D01*
X150110217Y-90712627D01*
X150113266Y-90722012D01*
X150200313Y-90932163D01*
X150204795Y-90940958D01*
X150307432Y-91108445D01*
X150317890Y-91117907D01*
X150326666Y-91114124D01*
X151177978Y-90262812D01*
X151184356Y-90251132D01*
X151914408Y-90251132D01*
X151914539Y-90252965D01*
X151918790Y-90259580D01*
X152770290Y-91111080D01*
X152782670Y-91117840D01*
X152790320Y-91112113D01*
X152895205Y-90940958D01*
X152899687Y-90932163D01*
X152986734Y-90722012D01*
X152989783Y-90712627D01*
X153042885Y-90491446D01*
X153044428Y-90481699D01*
X153062275Y-90254930D01*
X153062275Y-90245070D01*
X153044428Y-90018301D01*
X153042885Y-90008554D01*
X152989783Y-89787373D01*
X152986734Y-89777988D01*
X152899687Y-89567837D01*
X152895205Y-89559042D01*
X152792568Y-89391555D01*
X152782110Y-89382093D01*
X152773334Y-89385876D01*
X151922022Y-90237188D01*
X151914408Y-90251132D01*
X151184356Y-90251132D01*
X151185592Y-90248868D01*
X151185461Y-90247035D01*
X151181210Y-90240420D01*
X150329710Y-89388920D01*
X150317330Y-89382160D01*
X150309680Y-89387887D01*
X150204795Y-89559042D01*
X150200313Y-89567837D01*
X150113266Y-89777988D01*
X150110217Y-89787373D01*
X150057115Y-90008554D01*
X150055572Y-90018301D01*
X150037725Y-90245070D01*
X150037725Y-90254930D01*
X146562275Y-90254930D01*
X146562275Y-90245070D01*
X146544428Y-90018301D01*
X146542885Y-90008554D01*
X146489783Y-89787373D01*
X146486734Y-89777988D01*
X146399687Y-89567837D01*
X146395205Y-89559042D01*
X146292568Y-89391555D01*
X146282110Y-89382093D01*
X146273334Y-89385876D01*
X145422022Y-90237188D01*
X145414408Y-90251132D01*
X144684356Y-90251132D01*
X144685592Y-90248868D01*
X144685461Y-90247035D01*
X144681210Y-90240420D01*
X143829710Y-89388920D01*
X143817330Y-89382160D01*
X143809680Y-89387887D01*
X143704795Y-89559042D01*
X143700313Y-89567837D01*
X143613266Y-89777988D01*
X143610217Y-89787373D01*
X143557115Y-90008554D01*
X143555572Y-90018301D01*
X143537725Y-90245070D01*
X143537725Y-90254930D01*
X139755181Y-90254930D01*
X139744428Y-90118301D01*
X139742885Y-90108554D01*
X139689783Y-89887373D01*
X139686734Y-89877988D01*
X139599687Y-89667837D01*
X139595205Y-89659042D01*
X139492568Y-89491555D01*
X139482110Y-89482093D01*
X139473334Y-89485876D01*
X138622022Y-90337188D01*
X138614408Y-90351132D01*
X137884356Y-90351132D01*
X137885592Y-90348868D01*
X137885461Y-90347035D01*
X137881210Y-90340420D01*
X137029710Y-89488920D01*
X137017330Y-89482160D01*
X137009680Y-89487887D01*
X136904795Y-89659042D01*
X136900313Y-89667837D01*
X136813266Y-89877988D01*
X136810217Y-89887373D01*
X136757115Y-90108554D01*
X136755572Y-90118301D01*
X136737725Y-90345070D01*
X136737725Y-90354930D01*
X133262275Y-90354930D01*
X133262275Y-90345070D01*
X133244428Y-90118301D01*
X133242885Y-90108554D01*
X133189783Y-89887373D01*
X133186734Y-89877988D01*
X133099687Y-89667837D01*
X133095205Y-89659042D01*
X132992568Y-89491555D01*
X132982110Y-89482093D01*
X132973334Y-89485876D01*
X132122022Y-90337188D01*
X132114408Y-90351132D01*
X131384356Y-90351132D01*
X131385592Y-90348868D01*
X131385461Y-90347035D01*
X131381210Y-90340420D01*
X130529710Y-89488920D01*
X130517330Y-89482160D01*
X130509680Y-89487887D01*
X130404795Y-89659042D01*
X130400313Y-89667837D01*
X130313266Y-89877988D01*
X130310217Y-89887373D01*
X130257115Y-90108554D01*
X130255572Y-90118301D01*
X130237725Y-90345070D01*
X130237725Y-90354930D01*
X127635762Y-90354930D01*
X127599687Y-90267837D01*
X127595205Y-90259042D01*
X127492568Y-90091555D01*
X127482110Y-90082093D01*
X127473334Y-90085876D01*
X126622022Y-90937188D01*
X126614408Y-90951132D01*
X125884356Y-90951132D01*
X125885592Y-90948868D01*
X125885461Y-90947035D01*
X125881210Y-90940420D01*
X125029710Y-90088920D01*
X125017330Y-90082160D01*
X125009680Y-90087887D01*
X124904795Y-90259042D01*
X124900313Y-90267837D01*
X124813266Y-90477988D01*
X124810217Y-90487373D01*
X124757115Y-90708554D01*
X124755572Y-90718301D01*
X124737725Y-90945070D01*
X124737725Y-90954930D01*
X121262275Y-90954930D01*
X121262275Y-90945070D01*
X121244428Y-90718301D01*
X121242885Y-90708554D01*
X121189783Y-90487373D01*
X121186734Y-90477988D01*
X121099687Y-90267837D01*
X121095205Y-90259042D01*
X120992568Y-90091555D01*
X120982110Y-90082093D01*
X120973334Y-90085876D01*
X120122022Y-90937188D01*
X120114408Y-90951132D01*
X119384356Y-90951132D01*
X119385592Y-90948868D01*
X119385461Y-90947035D01*
X119381210Y-90940420D01*
X118529710Y-90088920D01*
X118517330Y-90082160D01*
X118509680Y-90087887D01*
X118404795Y-90259042D01*
X118400313Y-90267837D01*
X118313266Y-90477988D01*
X118310217Y-90487373D01*
X118257115Y-90708554D01*
X118255572Y-90718301D01*
X118237725Y-90945070D01*
X118237725Y-90954930D01*
X116130011Y-90954930D01*
X116089783Y-90787373D01*
X116086734Y-90777988D01*
X115999687Y-90567837D01*
X115995205Y-90559042D01*
X115892568Y-90391555D01*
X115882110Y-90382093D01*
X115873334Y-90385876D01*
X115022022Y-91237188D01*
X115014408Y-91251132D01*
X114284356Y-91251132D01*
X114285592Y-91248868D01*
X114285461Y-91247035D01*
X114281210Y-91240420D01*
X113429710Y-90388920D01*
X113417330Y-90382160D01*
X113409680Y-90387887D01*
X113304795Y-90559042D01*
X113300313Y-90567837D01*
X113213266Y-90777988D01*
X113210217Y-90787373D01*
X113157115Y-91008554D01*
X113155572Y-91018301D01*
X113137725Y-91245070D01*
X113137725Y-91254930D01*
X109662275Y-91254930D01*
X109662275Y-91245070D01*
X109644428Y-91018301D01*
X109642885Y-91008554D01*
X109589783Y-90787373D01*
X109586734Y-90777988D01*
X109499687Y-90567837D01*
X109495205Y-90559042D01*
X109392568Y-90391555D01*
X109382110Y-90382093D01*
X109373334Y-90385876D01*
X108522022Y-91237188D01*
X108514408Y-91251132D01*
X107784356Y-91251132D01*
X107785592Y-91248868D01*
X107785461Y-91247035D01*
X107781210Y-91240420D01*
X106929710Y-90388920D01*
X106917330Y-90382160D01*
X106909680Y-90387887D01*
X106804795Y-90559042D01*
X106800313Y-90567837D01*
X106713266Y-90777988D01*
X106710217Y-90787373D01*
X106657115Y-91008554D01*
X106655572Y-91018301D01*
X106637725Y-91245070D01*
X106637725Y-91254930D01*
X99351632Y-91254930D01*
X99351961Y-91254225D01*
X99351961Y-91254224D01*
X99354284Y-91249243D01*
X99356649Y-91240420D01*
X99412119Y-91033402D01*
X99412119Y-91033400D01*
X99413543Y-91028087D01*
X99433498Y-90800000D01*
X99413543Y-90571913D01*
X99405109Y-90540436D01*
X99355707Y-90356067D01*
X99355706Y-90356065D01*
X99354284Y-90350757D01*
X99347957Y-90337188D01*
X99259849Y-90148238D01*
X99259846Y-90148233D01*
X99257523Y-90143251D01*
X99169744Y-90017890D01*
X107282093Y-90017890D01*
X107285876Y-90026666D01*
X108137188Y-90877978D01*
X108151132Y-90885592D01*
X108152965Y-90885461D01*
X108159580Y-90881210D01*
X109011080Y-90029710D01*
X109017534Y-90017890D01*
X113782093Y-90017890D01*
X113785876Y-90026666D01*
X114637188Y-90877978D01*
X114651132Y-90885592D01*
X114652965Y-90885461D01*
X114659580Y-90881210D01*
X115511080Y-90029710D01*
X115517840Y-90017330D01*
X115512113Y-90009680D01*
X115340958Y-89904795D01*
X115332163Y-89900313D01*
X115122012Y-89813266D01*
X115112627Y-89810217D01*
X114891446Y-89757115D01*
X114881699Y-89755572D01*
X114654930Y-89737725D01*
X114645070Y-89737725D01*
X114418301Y-89755572D01*
X114408554Y-89757115D01*
X114187373Y-89810217D01*
X114177988Y-89813266D01*
X113967837Y-89900313D01*
X113959042Y-89904795D01*
X113791555Y-90007432D01*
X113782093Y-90017890D01*
X109017534Y-90017890D01*
X109017840Y-90017330D01*
X109012113Y-90009680D01*
X108840958Y-89904795D01*
X108832163Y-89900313D01*
X108622012Y-89813266D01*
X108612627Y-89810217D01*
X108391446Y-89757115D01*
X108381699Y-89755572D01*
X108154930Y-89737725D01*
X108145070Y-89737725D01*
X107918301Y-89755572D01*
X107908554Y-89757115D01*
X107687373Y-89810217D01*
X107677988Y-89813266D01*
X107467837Y-89900313D01*
X107459042Y-89904795D01*
X107291555Y-90007432D01*
X107282093Y-90017890D01*
X99169744Y-90017890D01*
X99147037Y-89985461D01*
X99129357Y-89960211D01*
X99129355Y-89960208D01*
X99126198Y-89955700D01*
X98964300Y-89793802D01*
X98959792Y-89790645D01*
X98959789Y-89790643D01*
X98855887Y-89717890D01*
X118882093Y-89717890D01*
X118885876Y-89726666D01*
X119737188Y-90577978D01*
X119751132Y-90585592D01*
X119752965Y-90585461D01*
X119759580Y-90581210D01*
X120611080Y-89729710D01*
X120617534Y-89717890D01*
X125382093Y-89717890D01*
X125385876Y-89726666D01*
X126237188Y-90577978D01*
X126251132Y-90585592D01*
X126252965Y-90585461D01*
X126259580Y-90581210D01*
X127111080Y-89729710D01*
X127117840Y-89717330D01*
X127112113Y-89709680D01*
X126940958Y-89604795D01*
X126932163Y-89600313D01*
X126722012Y-89513266D01*
X126712627Y-89510217D01*
X126491446Y-89457115D01*
X126481699Y-89455572D01*
X126254930Y-89437725D01*
X126245070Y-89437725D01*
X126018301Y-89455572D01*
X126008554Y-89457115D01*
X125787373Y-89510217D01*
X125777988Y-89513266D01*
X125567837Y-89600313D01*
X125559042Y-89604795D01*
X125391555Y-89707432D01*
X125382093Y-89717890D01*
X120617534Y-89717890D01*
X120617840Y-89717330D01*
X120612113Y-89709680D01*
X120440958Y-89604795D01*
X120432163Y-89600313D01*
X120222012Y-89513266D01*
X120212627Y-89510217D01*
X119991446Y-89457115D01*
X119981699Y-89455572D01*
X119754930Y-89437725D01*
X119745070Y-89437725D01*
X119518301Y-89455572D01*
X119508554Y-89457115D01*
X119287373Y-89510217D01*
X119277988Y-89513266D01*
X119067837Y-89600313D01*
X119059042Y-89604795D01*
X118891555Y-89707432D01*
X118882093Y-89717890D01*
X98855887Y-89717890D01*
X98855087Y-89717330D01*
X98776749Y-89662477D01*
X98771767Y-89660154D01*
X98771762Y-89660151D01*
X98737543Y-89644195D01*
X98684258Y-89597278D01*
X98664797Y-89529001D01*
X98685339Y-89461041D01*
X98737543Y-89415805D01*
X98771762Y-89399849D01*
X98771767Y-89399846D01*
X98776749Y-89397523D01*
X98881611Y-89324098D01*
X98959789Y-89269357D01*
X98959792Y-89269355D01*
X98964300Y-89266198D01*
X99112608Y-89117890D01*
X130882093Y-89117890D01*
X130885876Y-89126666D01*
X131737188Y-89977978D01*
X131751132Y-89985592D01*
X131752965Y-89985461D01*
X131759580Y-89981210D01*
X132611080Y-89129710D01*
X132617534Y-89117890D01*
X137382093Y-89117890D01*
X137385876Y-89126666D01*
X138237188Y-89977978D01*
X138251132Y-89985592D01*
X138252965Y-89985461D01*
X138259580Y-89981210D01*
X139111080Y-89129710D01*
X139117840Y-89117330D01*
X139112113Y-89109680D01*
X138962327Y-89017890D01*
X144182093Y-89017890D01*
X144185876Y-89026666D01*
X145037188Y-89877978D01*
X145051132Y-89885592D01*
X145052965Y-89885461D01*
X145059580Y-89881210D01*
X145911080Y-89029710D01*
X145917534Y-89017890D01*
X150682093Y-89017890D01*
X150685876Y-89026666D01*
X151537188Y-89877978D01*
X151551132Y-89885592D01*
X151552965Y-89885461D01*
X151559580Y-89881210D01*
X152411080Y-89029710D01*
X152417840Y-89017330D01*
X152412113Y-89009680D01*
X152240958Y-88904795D01*
X152232163Y-88900313D01*
X152022012Y-88813266D01*
X152012627Y-88810217D01*
X151791446Y-88757115D01*
X151781699Y-88755572D01*
X151554930Y-88737725D01*
X151545070Y-88737725D01*
X151318301Y-88755572D01*
X151308554Y-88757115D01*
X151087373Y-88810217D01*
X151077988Y-88813266D01*
X150867837Y-88900313D01*
X150859042Y-88904795D01*
X150691555Y-89007432D01*
X150682093Y-89017890D01*
X145917534Y-89017890D01*
X145917840Y-89017330D01*
X145912113Y-89009680D01*
X145740958Y-88904795D01*
X145732163Y-88900313D01*
X145522012Y-88813266D01*
X145512627Y-88810217D01*
X145291446Y-88757115D01*
X145281699Y-88755572D01*
X145054930Y-88737725D01*
X145045070Y-88737725D01*
X144818301Y-88755572D01*
X144808554Y-88757115D01*
X144587373Y-88810217D01*
X144577988Y-88813266D01*
X144367837Y-88900313D01*
X144359042Y-88904795D01*
X144191555Y-89007432D01*
X144182093Y-89017890D01*
X138962327Y-89017890D01*
X138940958Y-89004795D01*
X138932163Y-89000313D01*
X138722012Y-88913266D01*
X138712627Y-88910217D01*
X138491446Y-88857115D01*
X138481699Y-88855572D01*
X138254930Y-88837725D01*
X138245070Y-88837725D01*
X138018301Y-88855572D01*
X138008554Y-88857115D01*
X137787373Y-88910217D01*
X137777988Y-88913266D01*
X137567837Y-89000313D01*
X137559042Y-89004795D01*
X137391555Y-89107432D01*
X137382093Y-89117890D01*
X132617534Y-89117890D01*
X132617840Y-89117330D01*
X132612113Y-89109680D01*
X132440958Y-89004795D01*
X132432163Y-89000313D01*
X132222012Y-88913266D01*
X132212627Y-88910217D01*
X131991446Y-88857115D01*
X131981699Y-88855572D01*
X131754930Y-88837725D01*
X131745070Y-88837725D01*
X131518301Y-88855572D01*
X131508554Y-88857115D01*
X131287373Y-88910217D01*
X131277988Y-88913266D01*
X131067837Y-89000313D01*
X131059042Y-89004795D01*
X130891555Y-89107432D01*
X130882093Y-89117890D01*
X99112608Y-89117890D01*
X99126198Y-89104300D01*
X99257523Y-88916749D01*
X99259846Y-88911767D01*
X99259849Y-88911762D01*
X99351961Y-88714225D01*
X99351961Y-88714224D01*
X99354284Y-88709243D01*
X99413543Y-88488087D01*
X99433498Y-88260000D01*
X99413543Y-88031913D01*
X99354284Y-87810757D01*
X99351961Y-87805775D01*
X99259849Y-87608238D01*
X99259846Y-87608233D01*
X99257523Y-87603251D01*
X99126198Y-87415700D01*
X98964300Y-87253802D01*
X98959792Y-87250645D01*
X98959789Y-87250643D01*
X98881611Y-87195902D01*
X98776749Y-87122477D01*
X98771767Y-87120154D01*
X98771762Y-87120151D01*
X98737543Y-87104195D01*
X98684258Y-87057278D01*
X98664797Y-86989001D01*
X98685339Y-86921041D01*
X98737543Y-86875805D01*
X98771762Y-86859849D01*
X98771767Y-86859846D01*
X98776749Y-86857523D01*
X98881611Y-86784098D01*
X98959789Y-86729357D01*
X98959792Y-86729355D01*
X98964300Y-86726198D01*
X99126198Y-86564300D01*
X99257523Y-86376749D01*
X99259846Y-86371767D01*
X99259849Y-86371762D01*
X99351961Y-86174225D01*
X99351961Y-86174224D01*
X99354284Y-86169243D01*
X99413543Y-85948087D01*
X99433498Y-85720000D01*
X99413543Y-85491913D01*
X99402860Y-85452043D01*
X99355707Y-85276067D01*
X99355706Y-85276065D01*
X99354284Y-85270757D01*
X99313375Y-85183026D01*
X99259849Y-85068238D01*
X99259846Y-85068233D01*
X99257523Y-85063251D01*
X99126198Y-84875700D01*
X98964300Y-84713802D01*
X98959792Y-84710645D01*
X98959789Y-84710643D01*
X98824333Y-84615796D01*
X98776749Y-84582477D01*
X98771767Y-84580154D01*
X98771762Y-84580151D01*
X98737543Y-84564195D01*
X98684258Y-84517278D01*
X98664797Y-84449001D01*
X98685339Y-84381041D01*
X98737543Y-84335805D01*
X98771762Y-84319849D01*
X98771767Y-84319846D01*
X98776749Y-84317523D01*
X98951731Y-84194999D01*
X98959789Y-84189357D01*
X98959792Y-84189355D01*
X98964300Y-84186198D01*
X99126198Y-84024300D01*
X99156902Y-83980451D01*
X99254366Y-83841257D01*
X99257523Y-83836749D01*
X99259846Y-83831767D01*
X99259849Y-83831762D01*
X99351961Y-83634225D01*
X99351961Y-83634224D01*
X99354284Y-83629243D01*
X99357572Y-83616974D01*
X99412119Y-83413402D01*
X99412119Y-83413400D01*
X99413543Y-83408087D01*
X99433498Y-83180000D01*
X99413543Y-82951913D01*
X99354284Y-82730757D01*
X99332185Y-82683365D01*
X99259849Y-82528238D01*
X99259846Y-82528233D01*
X99257523Y-82523251D01*
X99241242Y-82500000D01*
X101186496Y-82500000D01*
X101206458Y-82689928D01*
X101265473Y-82871556D01*
X101360960Y-83036944D01*
X101365378Y-83041851D01*
X101365379Y-83041852D01*
X101447452Y-83133003D01*
X101488747Y-83178866D01*
X101643248Y-83291118D01*
X101649276Y-83293802D01*
X101649278Y-83293803D01*
X101783215Y-83353435D01*
X101817712Y-83368794D01*
X101911113Y-83388647D01*
X101998056Y-83407128D01*
X101998061Y-83407128D01*
X102004513Y-83408500D01*
X102195487Y-83408500D01*
X102201939Y-83407128D01*
X102201944Y-83407128D01*
X102288887Y-83388647D01*
X102382288Y-83368794D01*
X102416785Y-83353435D01*
X102550722Y-83293803D01*
X102550724Y-83293802D01*
X102556752Y-83291118D01*
X102711253Y-83178866D01*
X102715668Y-83173963D01*
X102720580Y-83169540D01*
X102721705Y-83170789D01*
X102775014Y-83137949D01*
X102808200Y-83133500D01*
X132821233Y-83133500D01*
X132832416Y-83134027D01*
X132839909Y-83135702D01*
X132847835Y-83135453D01*
X132847836Y-83135453D01*
X132907986Y-83133562D01*
X132911945Y-83133500D01*
X132939856Y-83133500D01*
X132943791Y-83133003D01*
X132943856Y-83132995D01*
X132955693Y-83132062D01*
X132987951Y-83131048D01*
X132991970Y-83130922D01*
X132999889Y-83130673D01*
X133019343Y-83125021D01*
X133038700Y-83121013D01*
X133050930Y-83119468D01*
X133050931Y-83119468D01*
X133058797Y-83118474D01*
X133066168Y-83115555D01*
X133066170Y-83115555D01*
X133099912Y-83102196D01*
X133111142Y-83098351D01*
X133145983Y-83088229D01*
X133145984Y-83088229D01*
X133153593Y-83086018D01*
X133160412Y-83081985D01*
X133160417Y-83081983D01*
X133171028Y-83075707D01*
X133188776Y-83067012D01*
X133207617Y-83059552D01*
X133243387Y-83033564D01*
X133253307Y-83027048D01*
X133284535Y-83008580D01*
X133284538Y-83008578D01*
X133291362Y-83004542D01*
X133305683Y-82990221D01*
X133320717Y-82977380D01*
X133330694Y-82970131D01*
X133337107Y-82965472D01*
X133365298Y-82931395D01*
X133373288Y-82922616D01*
X140950500Y-75345405D01*
X141012812Y-75311379D01*
X141039595Y-75308500D01*
X141095487Y-75308500D01*
X141101939Y-75307128D01*
X141101944Y-75307128D01*
X141188888Y-75288647D01*
X141282288Y-75268794D01*
X141288319Y-75266109D01*
X141450722Y-75193803D01*
X141450724Y-75193802D01*
X141456752Y-75191118D01*
X141611253Y-75078866D01*
X141691333Y-74989928D01*
X141734621Y-74941852D01*
X141734622Y-74941851D01*
X141739040Y-74936944D01*
X141834527Y-74771556D01*
X141893542Y-74589928D01*
X141896930Y-74557699D01*
X141912814Y-74406565D01*
X141913504Y-74400000D01*
X141910907Y-74375293D01*
X141894232Y-74216635D01*
X141894232Y-74216633D01*
X141893542Y-74210072D01*
X141834527Y-74028444D01*
X141830981Y-74022301D01*
X141779937Y-73933891D01*
X141739040Y-73863056D01*
X141733776Y-73857209D01*
X141615675Y-73726045D01*
X141615674Y-73726044D01*
X141611253Y-73721134D01*
X141456752Y-73608882D01*
X141450724Y-73606198D01*
X141450722Y-73606197D01*
X141288319Y-73533891D01*
X141288318Y-73533891D01*
X141282288Y-73531206D01*
X141181506Y-73509784D01*
X141101944Y-73492872D01*
X141101939Y-73492872D01*
X141095487Y-73491500D01*
X140904513Y-73491500D01*
X140898061Y-73492872D01*
X140898056Y-73492872D01*
X140818494Y-73509784D01*
X140717712Y-73531206D01*
X140711682Y-73533891D01*
X140711681Y-73533891D01*
X140549278Y-73606197D01*
X140549276Y-73606198D01*
X140543248Y-73608882D01*
X140388747Y-73721134D01*
X140384326Y-73726044D01*
X140384325Y-73726045D01*
X140266225Y-73857209D01*
X140260960Y-73863056D01*
X140220063Y-73933891D01*
X140169020Y-74022301D01*
X140165473Y-74028444D01*
X140106458Y-74210072D01*
X140094304Y-74325716D01*
X140089093Y-74375293D01*
X140062080Y-74440950D01*
X140052878Y-74451218D01*
X132674500Y-81829595D01*
X132612188Y-81863621D01*
X132585405Y-81866500D01*
X102808200Y-81866500D01*
X102740079Y-81846498D01*
X102720853Y-81830157D01*
X102720580Y-81830460D01*
X102715668Y-81826037D01*
X102711253Y-81821134D01*
X102556752Y-81708882D01*
X102550724Y-81706198D01*
X102550722Y-81706197D01*
X102388319Y-81633891D01*
X102388318Y-81633891D01*
X102382288Y-81631206D01*
X102288888Y-81611353D01*
X102201944Y-81592872D01*
X102201939Y-81592872D01*
X102195487Y-81591500D01*
X102004513Y-81591500D01*
X101998061Y-81592872D01*
X101998056Y-81592872D01*
X101911112Y-81611353D01*
X101817712Y-81631206D01*
X101811682Y-81633891D01*
X101811681Y-81633891D01*
X101649278Y-81706197D01*
X101649276Y-81706198D01*
X101643248Y-81708882D01*
X101488747Y-81821134D01*
X101484326Y-81826044D01*
X101484325Y-81826045D01*
X101440891Y-81874284D01*
X101360960Y-81963056D01*
X101265473Y-82128444D01*
X101206458Y-82310072D01*
X101186496Y-82500000D01*
X99241242Y-82500000D01*
X99126198Y-82335700D01*
X98964300Y-82173802D01*
X98959792Y-82170645D01*
X98959789Y-82170643D01*
X98881611Y-82115902D01*
X98776749Y-82042477D01*
X98771767Y-82040154D01*
X98771762Y-82040151D01*
X98737543Y-82024195D01*
X98684258Y-81977278D01*
X98664797Y-81909001D01*
X98685339Y-81841041D01*
X98737543Y-81795805D01*
X98771762Y-81779849D01*
X98771767Y-81779846D01*
X98776749Y-81777523D01*
X98881611Y-81704098D01*
X98959789Y-81649357D01*
X98959792Y-81649355D01*
X98964300Y-81646198D01*
X99126198Y-81484300D01*
X99257523Y-81296749D01*
X99259846Y-81291767D01*
X99259849Y-81291762D01*
X99351961Y-81094225D01*
X99351961Y-81094224D01*
X99354284Y-81089243D01*
X99413543Y-80868087D01*
X99433498Y-80640000D01*
X99413543Y-80411913D01*
X99354284Y-80190757D01*
X99351961Y-80185775D01*
X99259849Y-79988238D01*
X99259846Y-79988233D01*
X99257523Y-79983251D01*
X99126198Y-79795700D01*
X98964300Y-79633802D01*
X98959792Y-79630645D01*
X98959789Y-79630643D01*
X98881611Y-79575902D01*
X98776749Y-79502477D01*
X98771767Y-79500154D01*
X98771762Y-79500151D01*
X98737543Y-79484195D01*
X98684258Y-79437278D01*
X98664797Y-79369001D01*
X98685339Y-79301041D01*
X98737543Y-79255805D01*
X98771762Y-79239849D01*
X98771767Y-79239846D01*
X98776749Y-79237523D01*
X98881611Y-79164098D01*
X98959789Y-79109357D01*
X98959792Y-79109355D01*
X98964300Y-79106198D01*
X99126198Y-78944300D01*
X99257523Y-78756749D01*
X99259846Y-78751767D01*
X99259849Y-78751762D01*
X99351961Y-78554225D01*
X99351961Y-78554224D01*
X99354284Y-78549243D01*
X99375841Y-78468794D01*
X99412119Y-78333402D01*
X99412119Y-78333400D01*
X99413543Y-78328087D01*
X99433498Y-78100000D01*
X99413543Y-77871913D01*
X99391575Y-77789928D01*
X99355707Y-77656067D01*
X99355706Y-77656065D01*
X99354284Y-77650757D01*
X99330616Y-77600000D01*
X102786496Y-77600000D01*
X102806458Y-77789928D01*
X102865473Y-77971556D01*
X102960960Y-78136944D01*
X102965378Y-78141851D01*
X102965379Y-78141852D01*
X103047452Y-78233003D01*
X103088747Y-78278866D01*
X103243248Y-78391118D01*
X103249276Y-78393802D01*
X103249278Y-78393803D01*
X103411681Y-78466109D01*
X103417712Y-78468794D01*
X103511112Y-78488647D01*
X103598056Y-78507128D01*
X103598061Y-78507128D01*
X103604513Y-78508500D01*
X103795487Y-78508500D01*
X103801939Y-78507128D01*
X103801944Y-78507128D01*
X103888888Y-78488647D01*
X103982288Y-78468794D01*
X103988319Y-78466109D01*
X104150722Y-78393803D01*
X104150724Y-78393802D01*
X104156752Y-78391118D01*
X104311253Y-78278866D01*
X104315668Y-78273963D01*
X104320580Y-78269540D01*
X104321705Y-78270789D01*
X104375014Y-78237949D01*
X104408200Y-78233500D01*
X124621233Y-78233500D01*
X124632416Y-78234027D01*
X124639909Y-78235702D01*
X124647835Y-78235453D01*
X124647836Y-78235453D01*
X124707986Y-78233562D01*
X124711945Y-78233500D01*
X124739856Y-78233500D01*
X124743791Y-78233003D01*
X124743856Y-78232995D01*
X124755693Y-78232062D01*
X124787951Y-78231048D01*
X124791970Y-78230922D01*
X124799889Y-78230673D01*
X124819343Y-78225021D01*
X124838700Y-78221013D01*
X124850930Y-78219468D01*
X124850931Y-78219468D01*
X124858797Y-78218474D01*
X124866168Y-78215555D01*
X124866170Y-78215555D01*
X124899912Y-78202196D01*
X124911142Y-78198351D01*
X124945983Y-78188229D01*
X124945984Y-78188229D01*
X124953593Y-78186018D01*
X124960412Y-78181985D01*
X124960417Y-78181983D01*
X124971028Y-78175707D01*
X124988776Y-78167012D01*
X125007617Y-78159552D01*
X125043387Y-78133564D01*
X125053307Y-78127048D01*
X125084535Y-78108580D01*
X125084538Y-78108578D01*
X125091362Y-78104542D01*
X125105683Y-78090221D01*
X125120717Y-78077380D01*
X125130694Y-78070131D01*
X125137107Y-78065472D01*
X125165298Y-78031395D01*
X125173288Y-78022616D01*
X127450500Y-75745405D01*
X127512812Y-75711379D01*
X127539595Y-75708500D01*
X127595487Y-75708500D01*
X127601939Y-75707128D01*
X127601944Y-75707128D01*
X127688888Y-75688647D01*
X127782288Y-75668794D01*
X127788319Y-75666109D01*
X127950722Y-75593803D01*
X127950724Y-75593802D01*
X127956752Y-75591118D01*
X127992047Y-75565475D01*
X128012157Y-75550864D01*
X128111253Y-75478866D01*
X128239040Y-75336944D01*
X128334527Y-75171556D01*
X128393542Y-74989928D01*
X128413504Y-74800000D01*
X128393542Y-74610072D01*
X128334527Y-74428444D01*
X128320368Y-74403919D01*
X128255173Y-74290999D01*
X128239040Y-74263056D01*
X128197243Y-74216635D01*
X128115675Y-74126045D01*
X128115674Y-74126044D01*
X128111253Y-74121134D01*
X127983677Y-74028444D01*
X127962094Y-74012763D01*
X127962093Y-74012762D01*
X127956752Y-74008882D01*
X127950724Y-74006198D01*
X127950722Y-74006197D01*
X127788319Y-73933891D01*
X127788318Y-73933891D01*
X127782288Y-73931206D01*
X127688243Y-73911216D01*
X127601944Y-73892872D01*
X127601939Y-73892872D01*
X127595487Y-73891500D01*
X127404513Y-73891500D01*
X127398061Y-73892872D01*
X127398056Y-73892872D01*
X127311757Y-73911216D01*
X127217712Y-73931206D01*
X127211682Y-73933891D01*
X127211681Y-73933891D01*
X127049278Y-74006197D01*
X127049276Y-74006198D01*
X127043248Y-74008882D01*
X127037907Y-74012762D01*
X127037906Y-74012763D01*
X127016323Y-74028444D01*
X126888747Y-74121134D01*
X126884326Y-74126044D01*
X126884325Y-74126045D01*
X126802758Y-74216635D01*
X126760960Y-74263056D01*
X126744827Y-74290999D01*
X126679633Y-74403919D01*
X126665473Y-74428444D01*
X126606458Y-74610072D01*
X126605768Y-74616633D01*
X126605768Y-74616635D01*
X126589093Y-74775293D01*
X126562080Y-74840950D01*
X126552878Y-74851218D01*
X124474500Y-76929595D01*
X124412188Y-76963621D01*
X124385405Y-76966500D01*
X104408200Y-76966500D01*
X104340079Y-76946498D01*
X104320853Y-76930157D01*
X104320580Y-76930460D01*
X104315668Y-76926037D01*
X104311253Y-76921134D01*
X104234977Y-76865716D01*
X104162094Y-76812763D01*
X104162093Y-76812762D01*
X104156752Y-76808882D01*
X104150724Y-76806198D01*
X104150722Y-76806197D01*
X103988319Y-76733891D01*
X103988318Y-76733891D01*
X103982288Y-76731206D01*
X103888887Y-76711353D01*
X103801944Y-76692872D01*
X103801939Y-76692872D01*
X103795487Y-76691500D01*
X103604513Y-76691500D01*
X103598061Y-76692872D01*
X103598056Y-76692872D01*
X103511113Y-76711353D01*
X103417712Y-76731206D01*
X103411682Y-76733891D01*
X103411681Y-76733891D01*
X103249278Y-76806197D01*
X103249276Y-76806198D01*
X103243248Y-76808882D01*
X103088747Y-76921134D01*
X103084326Y-76926044D01*
X103084325Y-76926045D01*
X103050492Y-76963621D01*
X102960960Y-77063056D01*
X102865473Y-77228444D01*
X102806458Y-77410072D01*
X102805768Y-77416633D01*
X102805768Y-77416635D01*
X102787186Y-77593435D01*
X102786496Y-77600000D01*
X99330616Y-77600000D01*
X99259849Y-77448238D01*
X99259846Y-77448233D01*
X99257523Y-77443251D01*
X99126198Y-77255700D01*
X98964300Y-77093802D01*
X98959792Y-77090645D01*
X98959789Y-77090643D01*
X98782494Y-76966500D01*
X98776749Y-76962477D01*
X98771767Y-76960154D01*
X98771762Y-76960151D01*
X98737543Y-76944195D01*
X98684258Y-76897278D01*
X98664797Y-76829001D01*
X98685339Y-76761041D01*
X98737543Y-76715805D01*
X98771762Y-76699849D01*
X98771767Y-76699846D01*
X98776749Y-76697523D01*
X98881611Y-76624098D01*
X98959789Y-76569357D01*
X98959792Y-76569355D01*
X98964300Y-76566198D01*
X99126198Y-76404300D01*
X99257523Y-76216749D01*
X99259846Y-76211767D01*
X99259849Y-76211762D01*
X99351961Y-76014225D01*
X99351961Y-76014224D01*
X99354284Y-76009243D01*
X99413543Y-75788087D01*
X99433498Y-75560000D01*
X99413543Y-75331913D01*
X99408041Y-75311379D01*
X99355707Y-75116067D01*
X99355706Y-75116065D01*
X99354284Y-75110757D01*
X99337123Y-75073955D01*
X99259849Y-74908238D01*
X99259846Y-74908233D01*
X99257523Y-74903251D01*
X99126198Y-74715700D01*
X98964300Y-74553802D01*
X98959792Y-74550645D01*
X98959789Y-74550643D01*
X98862826Y-74482749D01*
X98776749Y-74422477D01*
X98771767Y-74420154D01*
X98771762Y-74420151D01*
X98737543Y-74404195D01*
X98684258Y-74357278D01*
X98664797Y-74289001D01*
X98685339Y-74221041D01*
X98737543Y-74175805D01*
X98771762Y-74159849D01*
X98771767Y-74159846D01*
X98776749Y-74157523D01*
X98952117Y-74034729D01*
X98959789Y-74029357D01*
X98959792Y-74029355D01*
X98964300Y-74026198D01*
X99126198Y-73864300D01*
X99130442Y-73858240D01*
X99171222Y-73800000D01*
X101886496Y-73800000D01*
X101887186Y-73806565D01*
X101892608Y-73858148D01*
X101906458Y-73989928D01*
X101965473Y-74171556D01*
X102060960Y-74336944D01*
X102065378Y-74341851D01*
X102065379Y-74341852D01*
X102135880Y-74420151D01*
X102188747Y-74478866D01*
X102343248Y-74591118D01*
X102349276Y-74593802D01*
X102349278Y-74593803D01*
X102400560Y-74616635D01*
X102517712Y-74668794D01*
X102611112Y-74688647D01*
X102698056Y-74707128D01*
X102698061Y-74707128D01*
X102704513Y-74708500D01*
X102895487Y-74708500D01*
X102901939Y-74707128D01*
X102901944Y-74707128D01*
X102988888Y-74688647D01*
X103082288Y-74668794D01*
X103199440Y-74616635D01*
X103250722Y-74593803D01*
X103250724Y-74593802D01*
X103256752Y-74591118D01*
X103411253Y-74478866D01*
X103464120Y-74420151D01*
X103534621Y-74341852D01*
X103534622Y-74341851D01*
X103539040Y-74336944D01*
X103634527Y-74171556D01*
X103693542Y-73989928D01*
X103707393Y-73858148D01*
X103712814Y-73806565D01*
X103713504Y-73800000D01*
X103712814Y-73793435D01*
X103712814Y-73786830D01*
X103715250Y-73786830D01*
X103726048Y-73727851D01*
X103749479Y-73695447D01*
X103996792Y-73448134D01*
X109616500Y-73448134D01*
X109623255Y-73510316D01*
X109674385Y-73646705D01*
X109761739Y-73763261D01*
X109878295Y-73850615D01*
X110014684Y-73901745D01*
X110076866Y-73908500D01*
X111973134Y-73908500D01*
X112035316Y-73901745D01*
X112171705Y-73850615D01*
X112288261Y-73763261D01*
X112375615Y-73646705D01*
X112400180Y-73581178D01*
X112442822Y-73524414D01*
X112509383Y-73499714D01*
X112578732Y-73514921D01*
X112598647Y-73528464D01*
X112700186Y-73612763D01*
X112754349Y-73657730D01*
X112954322Y-73774584D01*
X112959147Y-73776426D01*
X112959148Y-73776427D01*
X113020879Y-73800000D01*
X113170694Y-73857209D01*
X113175760Y-73858240D01*
X113175761Y-73858240D01*
X113183375Y-73859789D01*
X113397656Y-73903385D01*
X113527089Y-73908131D01*
X113623949Y-73911683D01*
X113623953Y-73911683D01*
X113629113Y-73911872D01*
X113634233Y-73911216D01*
X113634235Y-73911216D01*
X113708166Y-73901745D01*
X113858847Y-73882442D01*
X113863795Y-73880957D01*
X113863802Y-73880956D01*
X114075747Y-73817369D01*
X114080690Y-73815886D01*
X114099717Y-73806565D01*
X114284049Y-73716262D01*
X114284052Y-73716260D01*
X114288684Y-73713991D01*
X114477243Y-73579494D01*
X114641303Y-73416005D01*
X114776458Y-73227917D01*
X114798909Y-73182492D01*
X114865312Y-73048134D01*
X120716500Y-73048134D01*
X120723255Y-73110316D01*
X120774385Y-73246705D01*
X120861739Y-73363261D01*
X120978295Y-73450615D01*
X121114684Y-73501745D01*
X121176866Y-73508500D01*
X123073134Y-73508500D01*
X123135316Y-73501745D01*
X123271705Y-73450615D01*
X123388261Y-73363261D01*
X123475615Y-73246705D01*
X123500180Y-73181178D01*
X123542822Y-73124414D01*
X123609383Y-73099714D01*
X123678732Y-73114921D01*
X123698647Y-73128464D01*
X123763724Y-73182492D01*
X123854349Y-73257730D01*
X124054322Y-73374584D01*
X124059147Y-73376426D01*
X124059148Y-73376427D01*
X124099987Y-73392022D01*
X124270694Y-73457209D01*
X124275760Y-73458240D01*
X124275761Y-73458240D01*
X124302898Y-73463761D01*
X124497656Y-73503385D01*
X124627089Y-73508131D01*
X124723949Y-73511683D01*
X124723953Y-73511683D01*
X124729113Y-73511872D01*
X124734233Y-73511216D01*
X124734235Y-73511216D01*
X124808166Y-73501745D01*
X124958847Y-73482442D01*
X124963795Y-73480957D01*
X124963802Y-73480956D01*
X125175747Y-73417369D01*
X125180690Y-73415886D01*
X125185324Y-73413616D01*
X125384049Y-73316262D01*
X125384052Y-73316260D01*
X125388684Y-73313991D01*
X125577243Y-73179494D01*
X125709062Y-73048134D01*
X132351500Y-73048134D01*
X132358255Y-73110316D01*
X132409385Y-73246705D01*
X132496739Y-73363261D01*
X132613295Y-73450615D01*
X132749684Y-73501745D01*
X132811866Y-73508500D01*
X134708134Y-73508500D01*
X134770316Y-73501745D01*
X134906705Y-73450615D01*
X135023261Y-73363261D01*
X135110615Y-73246705D01*
X135135180Y-73181178D01*
X135177822Y-73124414D01*
X135244383Y-73099714D01*
X135313732Y-73114921D01*
X135333647Y-73128464D01*
X135398724Y-73182492D01*
X135489349Y-73257730D01*
X135689322Y-73374584D01*
X135694147Y-73376426D01*
X135694148Y-73376427D01*
X135734987Y-73392022D01*
X135905694Y-73457209D01*
X135910760Y-73458240D01*
X135910761Y-73458240D01*
X135937898Y-73463761D01*
X136132656Y-73503385D01*
X136262089Y-73508131D01*
X136358949Y-73511683D01*
X136358953Y-73511683D01*
X136364113Y-73511872D01*
X136369233Y-73511216D01*
X136369235Y-73511216D01*
X136443166Y-73501745D01*
X136593847Y-73482442D01*
X136598795Y-73480957D01*
X136598802Y-73480956D01*
X136810747Y-73417369D01*
X136815690Y-73415886D01*
X136820324Y-73413616D01*
X137019049Y-73316262D01*
X137019052Y-73316260D01*
X137023684Y-73313991D01*
X137212243Y-73179494D01*
X137344062Y-73048134D01*
X145516500Y-73048134D01*
X145523255Y-73110316D01*
X145574385Y-73246705D01*
X145661739Y-73363261D01*
X145778295Y-73450615D01*
X145914684Y-73501745D01*
X145976866Y-73508500D01*
X147873134Y-73508500D01*
X147935316Y-73501745D01*
X148071705Y-73450615D01*
X148188261Y-73363261D01*
X148275615Y-73246705D01*
X148300180Y-73181178D01*
X148342822Y-73124414D01*
X148409383Y-73099714D01*
X148478732Y-73114921D01*
X148498647Y-73128464D01*
X148563724Y-73182492D01*
X148654349Y-73257730D01*
X148854322Y-73374584D01*
X148859147Y-73376426D01*
X148859148Y-73376427D01*
X148899987Y-73392022D01*
X149070694Y-73457209D01*
X149075760Y-73458240D01*
X149075761Y-73458240D01*
X149102898Y-73463761D01*
X149297656Y-73503385D01*
X149427089Y-73508131D01*
X149523949Y-73511683D01*
X149523953Y-73511683D01*
X149529113Y-73511872D01*
X149534233Y-73511216D01*
X149534235Y-73511216D01*
X149608166Y-73501745D01*
X149758847Y-73482442D01*
X149763795Y-73480957D01*
X149763802Y-73480956D01*
X149975747Y-73417369D01*
X149980690Y-73415886D01*
X149985324Y-73413616D01*
X150184049Y-73316262D01*
X150184052Y-73316260D01*
X150188684Y-73313991D01*
X150377243Y-73179494D01*
X150541303Y-73016005D01*
X150546422Y-73008882D01*
X150630769Y-72891500D01*
X150676458Y-72827917D01*
X150691501Y-72797481D01*
X150776784Y-72624922D01*
X150776785Y-72624920D01*
X150779078Y-72620280D01*
X150846408Y-72398671D01*
X150876640Y-72169041D01*
X150878327Y-72100000D01*
X150871240Y-72013802D01*
X150859773Y-71874318D01*
X150859772Y-71874312D01*
X150859349Y-71869167D01*
X150820445Y-71714284D01*
X150804184Y-71649544D01*
X150804183Y-71649540D01*
X150802925Y-71644533D01*
X150774029Y-71578077D01*
X150712630Y-71436868D01*
X150712628Y-71436865D01*
X150710570Y-71432131D01*
X150584764Y-71237665D01*
X150558818Y-71209150D01*
X150506693Y-71151866D01*
X150428887Y-71066358D01*
X150424836Y-71063159D01*
X150424832Y-71063155D01*
X150251177Y-70926011D01*
X150251172Y-70926008D01*
X150247123Y-70922810D01*
X150242607Y-70920317D01*
X150242604Y-70920315D01*
X150048879Y-70813373D01*
X150048875Y-70813371D01*
X150044355Y-70810876D01*
X150039486Y-70809152D01*
X150039482Y-70809150D01*
X149830903Y-70735288D01*
X149830899Y-70735287D01*
X149826028Y-70733562D01*
X149820935Y-70732655D01*
X149820932Y-70732654D01*
X149603095Y-70693851D01*
X149603089Y-70693850D01*
X149598006Y-70692945D01*
X149525096Y-70692054D01*
X149371581Y-70690179D01*
X149371579Y-70690179D01*
X149366411Y-70690116D01*
X149137464Y-70725150D01*
X148917314Y-70797106D01*
X148912726Y-70799494D01*
X148912722Y-70799496D01*
X148716461Y-70901663D01*
X148711872Y-70904052D01*
X148707739Y-70907155D01*
X148707736Y-70907157D01*
X148635088Y-70961703D01*
X148526655Y-71043117D01*
X148509170Y-71061414D01*
X148447646Y-71096844D01*
X148376733Y-71093387D01*
X148318947Y-71052141D01*
X148300094Y-71018592D01*
X148278768Y-70961705D01*
X148278767Y-70961703D01*
X148275615Y-70953295D01*
X148188261Y-70836739D01*
X148071705Y-70749385D01*
X147935316Y-70698255D01*
X147873134Y-70691500D01*
X145976866Y-70691500D01*
X145914684Y-70698255D01*
X145778295Y-70749385D01*
X145661739Y-70836739D01*
X145574385Y-70953295D01*
X145523255Y-71089684D01*
X145516500Y-71151866D01*
X145516500Y-73048134D01*
X137344062Y-73048134D01*
X137376303Y-73016005D01*
X137381422Y-73008882D01*
X137465769Y-72891500D01*
X137511458Y-72827917D01*
X137526501Y-72797481D01*
X137611784Y-72624922D01*
X137611785Y-72624920D01*
X137614078Y-72620280D01*
X137681408Y-72398671D01*
X137711640Y-72169041D01*
X137713327Y-72100000D01*
X137706240Y-72013802D01*
X137694773Y-71874318D01*
X137694772Y-71874312D01*
X137694349Y-71869167D01*
X137655445Y-71714284D01*
X137639184Y-71649544D01*
X137639183Y-71649540D01*
X137637925Y-71644533D01*
X137609029Y-71578077D01*
X137547630Y-71436868D01*
X137547628Y-71436865D01*
X137545570Y-71432131D01*
X137419764Y-71237665D01*
X137393818Y-71209150D01*
X137341693Y-71151866D01*
X137263887Y-71066358D01*
X137259836Y-71063159D01*
X137259832Y-71063155D01*
X137086177Y-70926011D01*
X137086172Y-70926008D01*
X137082123Y-70922810D01*
X137077607Y-70920317D01*
X137077604Y-70920315D01*
X136883879Y-70813373D01*
X136883875Y-70813371D01*
X136879355Y-70810876D01*
X136874486Y-70809152D01*
X136874482Y-70809150D01*
X136665903Y-70735288D01*
X136665899Y-70735287D01*
X136661028Y-70733562D01*
X136655935Y-70732655D01*
X136655932Y-70732654D01*
X136438095Y-70693851D01*
X136438089Y-70693850D01*
X136433006Y-70692945D01*
X136360096Y-70692054D01*
X136206581Y-70690179D01*
X136206579Y-70690179D01*
X136201411Y-70690116D01*
X135972464Y-70725150D01*
X135752314Y-70797106D01*
X135747726Y-70799494D01*
X135747722Y-70799496D01*
X135551461Y-70901663D01*
X135546872Y-70904052D01*
X135542739Y-70907155D01*
X135542736Y-70907157D01*
X135470088Y-70961703D01*
X135361655Y-71043117D01*
X135344170Y-71061414D01*
X135282646Y-71096844D01*
X135211733Y-71093387D01*
X135153947Y-71052141D01*
X135135094Y-71018592D01*
X135113768Y-70961705D01*
X135113767Y-70961703D01*
X135110615Y-70953295D01*
X135023261Y-70836739D01*
X134906705Y-70749385D01*
X134770316Y-70698255D01*
X134708134Y-70691500D01*
X132811866Y-70691500D01*
X132749684Y-70698255D01*
X132613295Y-70749385D01*
X132496739Y-70836739D01*
X132409385Y-70953295D01*
X132358255Y-71089684D01*
X132351500Y-71151866D01*
X132351500Y-73048134D01*
X125709062Y-73048134D01*
X125741303Y-73016005D01*
X125746422Y-73008882D01*
X125830769Y-72891500D01*
X125876458Y-72827917D01*
X125891501Y-72797481D01*
X125976784Y-72624922D01*
X125976785Y-72624920D01*
X125979078Y-72620280D01*
X126046408Y-72398671D01*
X126076640Y-72169041D01*
X126078327Y-72100000D01*
X126071240Y-72013802D01*
X126059773Y-71874318D01*
X126059772Y-71874312D01*
X126059349Y-71869167D01*
X126020445Y-71714284D01*
X126004184Y-71649544D01*
X126004183Y-71649540D01*
X126002925Y-71644533D01*
X125974029Y-71578077D01*
X125912630Y-71436868D01*
X125912628Y-71436865D01*
X125910570Y-71432131D01*
X125784764Y-71237665D01*
X125758818Y-71209150D01*
X125706693Y-71151866D01*
X125628887Y-71066358D01*
X125624836Y-71063159D01*
X125624832Y-71063155D01*
X125451177Y-70926011D01*
X125451172Y-70926008D01*
X125447123Y-70922810D01*
X125442607Y-70920317D01*
X125442604Y-70920315D01*
X125248879Y-70813373D01*
X125248875Y-70813371D01*
X125244355Y-70810876D01*
X125239486Y-70809152D01*
X125239482Y-70809150D01*
X125030903Y-70735288D01*
X125030899Y-70735287D01*
X125026028Y-70733562D01*
X125020935Y-70732655D01*
X125020932Y-70732654D01*
X124803095Y-70693851D01*
X124803089Y-70693850D01*
X124798006Y-70692945D01*
X124725096Y-70692054D01*
X124571581Y-70690179D01*
X124571579Y-70690179D01*
X124566411Y-70690116D01*
X124337464Y-70725150D01*
X124117314Y-70797106D01*
X124112726Y-70799494D01*
X124112722Y-70799496D01*
X123916461Y-70901663D01*
X123911872Y-70904052D01*
X123907739Y-70907155D01*
X123907736Y-70907157D01*
X123835088Y-70961703D01*
X123726655Y-71043117D01*
X123709170Y-71061414D01*
X123647646Y-71096844D01*
X123576733Y-71093387D01*
X123518947Y-71052141D01*
X123500094Y-71018592D01*
X123478768Y-70961705D01*
X123478767Y-70961703D01*
X123475615Y-70953295D01*
X123388261Y-70836739D01*
X123271705Y-70749385D01*
X123135316Y-70698255D01*
X123073134Y-70691500D01*
X121176866Y-70691500D01*
X121114684Y-70698255D01*
X120978295Y-70749385D01*
X120861739Y-70836739D01*
X120774385Y-70953295D01*
X120723255Y-71089684D01*
X120716500Y-71151866D01*
X120716500Y-73048134D01*
X114865312Y-73048134D01*
X114876784Y-73024922D01*
X114876785Y-73024920D01*
X114879078Y-73020280D01*
X114946408Y-72798671D01*
X114976640Y-72569041D01*
X114978327Y-72500000D01*
X114966714Y-72358743D01*
X114959773Y-72274318D01*
X114959772Y-72274312D01*
X114959349Y-72269167D01*
X114902925Y-72044533D01*
X114900866Y-72039797D01*
X114812630Y-71836868D01*
X114812628Y-71836865D01*
X114810570Y-71832131D01*
X114684764Y-71637665D01*
X114528887Y-71466358D01*
X114524836Y-71463159D01*
X114524832Y-71463155D01*
X114351177Y-71326011D01*
X114351172Y-71326008D01*
X114347123Y-71322810D01*
X114342607Y-71320317D01*
X114342604Y-71320315D01*
X114148879Y-71213373D01*
X114148875Y-71213371D01*
X114144355Y-71210876D01*
X114139486Y-71209152D01*
X114139482Y-71209150D01*
X113930903Y-71135288D01*
X113930899Y-71135287D01*
X113926028Y-71133562D01*
X113920935Y-71132655D01*
X113920932Y-71132654D01*
X113703095Y-71093851D01*
X113703089Y-71093850D01*
X113698006Y-71092945D01*
X113625096Y-71092054D01*
X113471581Y-71090179D01*
X113471579Y-71090179D01*
X113466411Y-71090116D01*
X113237464Y-71125150D01*
X113017314Y-71197106D01*
X113012726Y-71199494D01*
X113012722Y-71199496D01*
X112816461Y-71301663D01*
X112811872Y-71304052D01*
X112807739Y-71307155D01*
X112807736Y-71307157D01*
X112630790Y-71440012D01*
X112626655Y-71443117D01*
X112609170Y-71461414D01*
X112547646Y-71496844D01*
X112476733Y-71493387D01*
X112418947Y-71452141D01*
X112400094Y-71418592D01*
X112378768Y-71361705D01*
X112378767Y-71361703D01*
X112375615Y-71353295D01*
X112288261Y-71236739D01*
X112171705Y-71149385D01*
X112035316Y-71098255D01*
X111973134Y-71091500D01*
X110076866Y-71091500D01*
X110014684Y-71098255D01*
X109878295Y-71149385D01*
X109761739Y-71236739D01*
X109674385Y-71353295D01*
X109623255Y-71489684D01*
X109616500Y-71551866D01*
X109616500Y-73448134D01*
X103996792Y-73448134D01*
X106574522Y-70870405D01*
X106636834Y-70836379D01*
X106663617Y-70833500D01*
X116491800Y-70833500D01*
X116559921Y-70853502D01*
X116579147Y-70869843D01*
X116579420Y-70869540D01*
X116584332Y-70873963D01*
X116588747Y-70878866D01*
X116610329Y-70894546D01*
X116702765Y-70961705D01*
X116743248Y-70991118D01*
X116749276Y-70993802D01*
X116749278Y-70993803D01*
X116911681Y-71066109D01*
X116917712Y-71068794D01*
X117011113Y-71088647D01*
X117098056Y-71107128D01*
X117098061Y-71107128D01*
X117104513Y-71108500D01*
X117295487Y-71108500D01*
X117301939Y-71107128D01*
X117301944Y-71107128D01*
X117388887Y-71088647D01*
X117482288Y-71068794D01*
X117488319Y-71066109D01*
X117650722Y-70993803D01*
X117650724Y-70993802D01*
X117656752Y-70991118D01*
X117811253Y-70878866D01*
X117834091Y-70853502D01*
X117934621Y-70741852D01*
X117934622Y-70741851D01*
X117939040Y-70736944D01*
X118034527Y-70571556D01*
X118093542Y-70389928D01*
X118113504Y-70200000D01*
X118112814Y-70193435D01*
X118094232Y-70016635D01*
X118094232Y-70016633D01*
X118093542Y-70010072D01*
X118034527Y-69828444D01*
X117939040Y-69663056D01*
X117922882Y-69645110D01*
X117815675Y-69526045D01*
X117815674Y-69526044D01*
X117811253Y-69521134D01*
X117656752Y-69408882D01*
X117650724Y-69406198D01*
X117650722Y-69406197D01*
X117488319Y-69333891D01*
X117488318Y-69333891D01*
X117482288Y-69331206D01*
X117388887Y-69311353D01*
X117301944Y-69292872D01*
X117301939Y-69292872D01*
X117295487Y-69291500D01*
X117104513Y-69291500D01*
X117098061Y-69292872D01*
X117098056Y-69292872D01*
X117011113Y-69311353D01*
X116917712Y-69331206D01*
X116911682Y-69333891D01*
X116911681Y-69333891D01*
X116749278Y-69406197D01*
X116749276Y-69406198D01*
X116743248Y-69408882D01*
X116588747Y-69521134D01*
X116584332Y-69526037D01*
X116579420Y-69530460D01*
X116578295Y-69529211D01*
X116524986Y-69562051D01*
X116491800Y-69566500D01*
X106427789Y-69566500D01*
X106416606Y-69565973D01*
X106409113Y-69564298D01*
X106401187Y-69564547D01*
X106401186Y-69564547D01*
X106341036Y-69566438D01*
X106337077Y-69566500D01*
X106309166Y-69566500D01*
X106305232Y-69566997D01*
X106305231Y-69566997D01*
X106305166Y-69567005D01*
X106293329Y-69567938D01*
X106261071Y-69568952D01*
X106257052Y-69569078D01*
X106249133Y-69569327D01*
X106229679Y-69574979D01*
X106210322Y-69578987D01*
X106198092Y-69580532D01*
X106198091Y-69580532D01*
X106190225Y-69581526D01*
X106182854Y-69584445D01*
X106182852Y-69584445D01*
X106149110Y-69597804D01*
X106137880Y-69601649D01*
X106103039Y-69611771D01*
X106103038Y-69611771D01*
X106095429Y-69613982D01*
X106088610Y-69618015D01*
X106088605Y-69618017D01*
X106077994Y-69624293D01*
X106060246Y-69632988D01*
X106041405Y-69640448D01*
X106034989Y-69645110D01*
X106034988Y-69645110D01*
X106005635Y-69666436D01*
X105995715Y-69672952D01*
X105964487Y-69691420D01*
X105964484Y-69691422D01*
X105957660Y-69695458D01*
X105943339Y-69709779D01*
X105928306Y-69722619D01*
X105911915Y-69734528D01*
X105884399Y-69767789D01*
X105883724Y-69768605D01*
X105875734Y-69777384D01*
X102798522Y-72854595D01*
X102736210Y-72888621D01*
X102717661Y-72890615D01*
X102717682Y-72890810D01*
X102711115Y-72891500D01*
X102704513Y-72891500D01*
X102698061Y-72892872D01*
X102698056Y-72892872D01*
X102611112Y-72911353D01*
X102517712Y-72931206D01*
X102511682Y-72933891D01*
X102511681Y-72933891D01*
X102349278Y-73006197D01*
X102349276Y-73006198D01*
X102343248Y-73008882D01*
X102337907Y-73012762D01*
X102337906Y-73012763D01*
X102328423Y-73019653D01*
X102188747Y-73121134D01*
X102184326Y-73126044D01*
X102184325Y-73126045D01*
X102065756Y-73257730D01*
X102060960Y-73263056D01*
X101965473Y-73428444D01*
X101906458Y-73610072D01*
X101905768Y-73616633D01*
X101905768Y-73616635D01*
X101892644Y-73741507D01*
X101886496Y-73800000D01*
X99171222Y-73800000D01*
X99184098Y-73781611D01*
X99257523Y-73676749D01*
X99259846Y-73671767D01*
X99259849Y-73671762D01*
X99351961Y-73474225D01*
X99351961Y-73474224D01*
X99354284Y-73469243D01*
X99359276Y-73450615D01*
X99412119Y-73253402D01*
X99412119Y-73253400D01*
X99413543Y-73248087D01*
X99433498Y-73020000D01*
X99413543Y-72791913D01*
X99376981Y-72655461D01*
X99355707Y-72576067D01*
X99355706Y-72576065D01*
X99354284Y-72570757D01*
X99259966Y-72368489D01*
X99259849Y-72368238D01*
X99259846Y-72368233D01*
X99257523Y-72363251D01*
X99126198Y-72175700D01*
X98964300Y-72013802D01*
X98959792Y-72010645D01*
X98959789Y-72010643D01*
X98833920Y-71922509D01*
X98776749Y-71882477D01*
X98771767Y-71880154D01*
X98771762Y-71880151D01*
X98737543Y-71864195D01*
X98684258Y-71817278D01*
X98664797Y-71749001D01*
X98685339Y-71681041D01*
X98737543Y-71635805D01*
X98771762Y-71619849D01*
X98771767Y-71619846D01*
X98776749Y-71617523D01*
X98949096Y-71496844D01*
X98959789Y-71489357D01*
X98959792Y-71489355D01*
X98964300Y-71486198D01*
X99126198Y-71324300D01*
X99257523Y-71136749D01*
X99259846Y-71131767D01*
X99259849Y-71131762D01*
X99351961Y-70934225D01*
X99351961Y-70934224D01*
X99354284Y-70929243D01*
X99369099Y-70873955D01*
X99412119Y-70713402D01*
X99412119Y-70713400D01*
X99413543Y-70708087D01*
X99433498Y-70480000D01*
X99413543Y-70251913D01*
X99376981Y-70115461D01*
X99355707Y-70036067D01*
X99355706Y-70036065D01*
X99354284Y-70030757D01*
X99347699Y-70016635D01*
X99259849Y-69828238D01*
X99259846Y-69828233D01*
X99257523Y-69823251D01*
X99145353Y-69663056D01*
X99129357Y-69640211D01*
X99129355Y-69640208D01*
X99126198Y-69635700D01*
X98964300Y-69473802D01*
X98959792Y-69470645D01*
X98959789Y-69470643D01*
X98881611Y-69415902D01*
X98776749Y-69342477D01*
X98771767Y-69340154D01*
X98771762Y-69340151D01*
X98736951Y-69323919D01*
X98683666Y-69277002D01*
X98664205Y-69208725D01*
X98684747Y-69140765D01*
X98736951Y-69095529D01*
X98771511Y-69079414D01*
X98781006Y-69073931D01*
X98833048Y-69037491D01*
X98841424Y-69027012D01*
X98834356Y-69013566D01*
X98132812Y-68312022D01*
X98118868Y-68304408D01*
X98117035Y-68304539D01*
X98110420Y-68308790D01*
X97404923Y-69014287D01*
X97398493Y-69026062D01*
X97407789Y-69038077D01*
X97458994Y-69073931D01*
X97468489Y-69079414D01*
X97503049Y-69095529D01*
X97556334Y-69142446D01*
X97575795Y-69210723D01*
X97555253Y-69278683D01*
X97503049Y-69323919D01*
X97468238Y-69340151D01*
X97468233Y-69340154D01*
X97463251Y-69342477D01*
X97358389Y-69415902D01*
X97280211Y-69470643D01*
X97280208Y-69470645D01*
X97275700Y-69473802D01*
X97113802Y-69635700D01*
X97110645Y-69640208D01*
X97110643Y-69640211D01*
X97094647Y-69663056D01*
X96982477Y-69823251D01*
X96980154Y-69828233D01*
X96980151Y-69828238D01*
X96892301Y-70016635D01*
X96885716Y-70030757D01*
X96884294Y-70036065D01*
X96884293Y-70036067D01*
X96863019Y-70115461D01*
X96826457Y-70251913D01*
X96806502Y-70480000D01*
X96826457Y-70708087D01*
X96827881Y-70713400D01*
X96827881Y-70713402D01*
X96870902Y-70873955D01*
X96885716Y-70929243D01*
X96888039Y-70934224D01*
X96888039Y-70934225D01*
X96980151Y-71131762D01*
X96980154Y-71131767D01*
X96982477Y-71136749D01*
X97113802Y-71324300D01*
X97275700Y-71486198D01*
X97280208Y-71489355D01*
X97280211Y-71489357D01*
X97290904Y-71496844D01*
X97463251Y-71617523D01*
X97468233Y-71619846D01*
X97468238Y-71619849D01*
X97502457Y-71635805D01*
X97555742Y-71682722D01*
X97575203Y-71750999D01*
X97554661Y-71818959D01*
X97502457Y-71864195D01*
X97468238Y-71880151D01*
X97468233Y-71880154D01*
X97463251Y-71882477D01*
X97406080Y-71922509D01*
X97280211Y-72010643D01*
X97280208Y-72010645D01*
X97275700Y-72013802D01*
X97113802Y-72175700D01*
X96982477Y-72363251D01*
X96980154Y-72368233D01*
X96980151Y-72368238D01*
X96980034Y-72368489D01*
X96885716Y-72570757D01*
X96884294Y-72576065D01*
X96884293Y-72576067D01*
X96863019Y-72655461D01*
X96826457Y-72791913D01*
X96806502Y-73020000D01*
X96826457Y-73248087D01*
X96827881Y-73253400D01*
X96827881Y-73253402D01*
X96880725Y-73450615D01*
X96885716Y-73469243D01*
X96888039Y-73474224D01*
X96888039Y-73474225D01*
X96980151Y-73671762D01*
X96980154Y-73671767D01*
X96982477Y-73676749D01*
X97055902Y-73781611D01*
X97109559Y-73858240D01*
X97113802Y-73864300D01*
X97275700Y-74026198D01*
X97280208Y-74029355D01*
X97280211Y-74029357D01*
X97287883Y-74034729D01*
X97463251Y-74157523D01*
X97468233Y-74159846D01*
X97468238Y-74159849D01*
X97502457Y-74175805D01*
X97555742Y-74222722D01*
X97575203Y-74290999D01*
X97554661Y-74358959D01*
X97502457Y-74404195D01*
X97468238Y-74420151D01*
X97468233Y-74420154D01*
X97463251Y-74422477D01*
X97377174Y-74482749D01*
X97280211Y-74550643D01*
X97280208Y-74550645D01*
X97275700Y-74553802D01*
X97113802Y-74715700D01*
X96982477Y-74903251D01*
X96980154Y-74908233D01*
X96980151Y-74908238D01*
X96902877Y-75073955D01*
X96885716Y-75110757D01*
X96884294Y-75116065D01*
X96884293Y-75116067D01*
X96831959Y-75311379D01*
X96826457Y-75331913D01*
X96806502Y-75560000D01*
X96826457Y-75788087D01*
X96885716Y-76009243D01*
X96888039Y-76014224D01*
X96888039Y-76014225D01*
X96980151Y-76211762D01*
X96980154Y-76211767D01*
X96982477Y-76216749D01*
X97113802Y-76404300D01*
X97275700Y-76566198D01*
X97280208Y-76569355D01*
X97280211Y-76569357D01*
X97358389Y-76624098D01*
X97463251Y-76697523D01*
X97468233Y-76699846D01*
X97468238Y-76699849D01*
X97502457Y-76715805D01*
X97555742Y-76762722D01*
X97575203Y-76830999D01*
X97554661Y-76898959D01*
X97502457Y-76944195D01*
X97468238Y-76960151D01*
X97468233Y-76960154D01*
X97463251Y-76962477D01*
X97457506Y-76966500D01*
X97280211Y-77090643D01*
X97280208Y-77090645D01*
X97275700Y-77093802D01*
X97113802Y-77255700D01*
X96982477Y-77443251D01*
X96980154Y-77448233D01*
X96980151Y-77448238D01*
X96909384Y-77600000D01*
X96885716Y-77650757D01*
X96884294Y-77656065D01*
X96884293Y-77656067D01*
X96848425Y-77789928D01*
X96826457Y-77871913D01*
X96806502Y-78100000D01*
X96826457Y-78328087D01*
X96827881Y-78333400D01*
X96827881Y-78333402D01*
X96864160Y-78468794D01*
X96885716Y-78549243D01*
X96888039Y-78554224D01*
X96888039Y-78554225D01*
X96980151Y-78751762D01*
X96980154Y-78751767D01*
X96982477Y-78756749D01*
X97113802Y-78944300D01*
X97275700Y-79106198D01*
X97280208Y-79109355D01*
X97280211Y-79109357D01*
X97358389Y-79164098D01*
X97463251Y-79237523D01*
X97468233Y-79239846D01*
X97468238Y-79239849D01*
X97502457Y-79255805D01*
X97555742Y-79302722D01*
X97575203Y-79370999D01*
X97554661Y-79438959D01*
X97502457Y-79484195D01*
X97468238Y-79500151D01*
X97468233Y-79500154D01*
X97463251Y-79502477D01*
X97358389Y-79575902D01*
X97280211Y-79630643D01*
X97280208Y-79630645D01*
X97275700Y-79633802D01*
X97113802Y-79795700D01*
X96982477Y-79983251D01*
X96980154Y-79988233D01*
X96980151Y-79988238D01*
X96888039Y-80185775D01*
X96885716Y-80190757D01*
X96826457Y-80411913D01*
X96806502Y-80640000D01*
X96826457Y-80868087D01*
X96885716Y-81089243D01*
X96888039Y-81094224D01*
X96888039Y-81094225D01*
X96980151Y-81291762D01*
X96980154Y-81291767D01*
X96982477Y-81296749D01*
X97113802Y-81484300D01*
X97275700Y-81646198D01*
X97280208Y-81649355D01*
X97280211Y-81649357D01*
X97358389Y-81704098D01*
X97463251Y-81777523D01*
X97468233Y-81779846D01*
X97468238Y-81779849D01*
X97502457Y-81795805D01*
X97555742Y-81842722D01*
X97575203Y-81910999D01*
X97554661Y-81978959D01*
X97502457Y-82024195D01*
X97468238Y-82040151D01*
X97468233Y-82040154D01*
X97463251Y-82042477D01*
X97358389Y-82115902D01*
X97280211Y-82170643D01*
X97280208Y-82170645D01*
X97275700Y-82173802D01*
X97113802Y-82335700D01*
X96982477Y-82523251D01*
X96980154Y-82528233D01*
X96980151Y-82528238D01*
X96907815Y-82683365D01*
X96885716Y-82730757D01*
X96826457Y-82951913D01*
X96806502Y-83180000D01*
X96826457Y-83408087D01*
X96827881Y-83413400D01*
X96827881Y-83413402D01*
X96882429Y-83616974D01*
X96885716Y-83629243D01*
X96888039Y-83634224D01*
X96888039Y-83634225D01*
X96980151Y-83831762D01*
X96980154Y-83831767D01*
X96982477Y-83836749D01*
X96985634Y-83841257D01*
X97083099Y-83980451D01*
X97113802Y-84024300D01*
X97275700Y-84186198D01*
X97280208Y-84189355D01*
X97280211Y-84189357D01*
X97288269Y-84194999D01*
X97463251Y-84317523D01*
X97468233Y-84319846D01*
X97468238Y-84319849D01*
X97502457Y-84335805D01*
X97555742Y-84382722D01*
X97575203Y-84450999D01*
X97554661Y-84518959D01*
X97502457Y-84564195D01*
X97468238Y-84580151D01*
X97468233Y-84580154D01*
X97463251Y-84582477D01*
X97415667Y-84615796D01*
X97280211Y-84710643D01*
X97280208Y-84710645D01*
X97275700Y-84713802D01*
X97113802Y-84875700D01*
X96982477Y-85063251D01*
X96980154Y-85068233D01*
X96980151Y-85068238D01*
X96926625Y-85183026D01*
X96885716Y-85270757D01*
X96884294Y-85276065D01*
X96884293Y-85276067D01*
X96837140Y-85452043D01*
X96826457Y-85491913D01*
X96806502Y-85720000D01*
X96826457Y-85948087D01*
X96885716Y-86169243D01*
X96888039Y-86174224D01*
X96888039Y-86174225D01*
X96980151Y-86371762D01*
X96980154Y-86371767D01*
X96982477Y-86376749D01*
X97113802Y-86564300D01*
X97275700Y-86726198D01*
X97280208Y-86729355D01*
X97280211Y-86729357D01*
X97358389Y-86784098D01*
X97463251Y-86857523D01*
X97468233Y-86859846D01*
X97468238Y-86859849D01*
X97502457Y-86875805D01*
X97555742Y-86922722D01*
X97575203Y-86990999D01*
X97554661Y-87058959D01*
X97502457Y-87104195D01*
X97468238Y-87120151D01*
X97468233Y-87120154D01*
X97463251Y-87122477D01*
X97358389Y-87195902D01*
X97280211Y-87250643D01*
X97280208Y-87250645D01*
X97275700Y-87253802D01*
X97113802Y-87415700D01*
X96982477Y-87603251D01*
X96980154Y-87608233D01*
X96980151Y-87608238D01*
X96888039Y-87805775D01*
X96885716Y-87810757D01*
X96826457Y-88031913D01*
X96806502Y-88260000D01*
X96826457Y-88488087D01*
X96885716Y-88709243D01*
X96888039Y-88714224D01*
X96888039Y-88714225D01*
X96980151Y-88911762D01*
X96980154Y-88911767D01*
X96982477Y-88916749D01*
X97113802Y-89104300D01*
X97275700Y-89266198D01*
X97280208Y-89269355D01*
X97280211Y-89269357D01*
X97358389Y-89324098D01*
X97463251Y-89397523D01*
X97468233Y-89399846D01*
X97468238Y-89399849D01*
X97502457Y-89415805D01*
X97555742Y-89462722D01*
X97575203Y-89530999D01*
X97554661Y-89598959D01*
X97502457Y-89644195D01*
X97468238Y-89660151D01*
X97468233Y-89660154D01*
X97463251Y-89662477D01*
X97384913Y-89717330D01*
X97280211Y-89790643D01*
X97280208Y-89790645D01*
X97275700Y-89793802D01*
X97113802Y-89955700D01*
X97110645Y-89960208D01*
X97110643Y-89960211D01*
X97092963Y-89985461D01*
X96982477Y-90143251D01*
X96980154Y-90148233D01*
X96980151Y-90148238D01*
X96892043Y-90337188D01*
X96885716Y-90350757D01*
X96884294Y-90356065D01*
X96884293Y-90356067D01*
X96834891Y-90540436D01*
X96826457Y-90571913D01*
X96806502Y-90800000D01*
X96826457Y-91028087D01*
X96827881Y-91033400D01*
X96827881Y-91033402D01*
X96883352Y-91240420D01*
X96885716Y-91249243D01*
X96888039Y-91254224D01*
X96888039Y-91254225D01*
X96980151Y-91451762D01*
X96980154Y-91451767D01*
X96982477Y-91456749D01*
X97000235Y-91482110D01*
X97105304Y-91632163D01*
X97113802Y-91644300D01*
X97275700Y-91806198D01*
X97280208Y-91809355D01*
X97280211Y-91809357D01*
X97282672Y-91811080D01*
X97463251Y-91937523D01*
X97468233Y-91939846D01*
X97468238Y-91939849D01*
X97502457Y-91955805D01*
X97555742Y-92002722D01*
X97575203Y-92070999D01*
X97554661Y-92138959D01*
X97502457Y-92184195D01*
X97468238Y-92200151D01*
X97468233Y-92200154D01*
X97463251Y-92202477D01*
X97358389Y-92275902D01*
X97280211Y-92330643D01*
X97280208Y-92330645D01*
X97275700Y-92333802D01*
X97113802Y-92495700D01*
X96982477Y-92683251D01*
X96980154Y-92688233D01*
X96980151Y-92688238D01*
X96888039Y-92885775D01*
X96885716Y-92890757D01*
X96826457Y-93111913D01*
X96806502Y-93340000D01*
X84193498Y-93340000D01*
X84173543Y-93111913D01*
X84114284Y-92890757D01*
X84111961Y-92885775D01*
X84019849Y-92688238D01*
X84019846Y-92688233D01*
X84017523Y-92683251D01*
X83886198Y-92495700D01*
X83724300Y-92333802D01*
X83719792Y-92330645D01*
X83719789Y-92330643D01*
X83641611Y-92275902D01*
X83536749Y-92202477D01*
X83531767Y-92200154D01*
X83531762Y-92200151D01*
X83497543Y-92184195D01*
X83444258Y-92137278D01*
X83424797Y-92069001D01*
X83445339Y-92001041D01*
X83497543Y-91955805D01*
X83531762Y-91939849D01*
X83531767Y-91939846D01*
X83536749Y-91937523D01*
X83717328Y-91811080D01*
X83719789Y-91809357D01*
X83719792Y-91809355D01*
X83724300Y-91806198D01*
X83886198Y-91644300D01*
X83894697Y-91632163D01*
X83999765Y-91482110D01*
X84017523Y-91456749D01*
X84019846Y-91451767D01*
X84019849Y-91451762D01*
X84111961Y-91254225D01*
X84111961Y-91254224D01*
X84114284Y-91249243D01*
X84116649Y-91240420D01*
X84172119Y-91033402D01*
X84172119Y-91033400D01*
X84173543Y-91028087D01*
X84193498Y-90800000D01*
X84173543Y-90571913D01*
X84165109Y-90540436D01*
X84115707Y-90356067D01*
X84115706Y-90356065D01*
X84114284Y-90350757D01*
X84107957Y-90337188D01*
X84019849Y-90148238D01*
X84019846Y-90148233D01*
X84017523Y-90143251D01*
X83907037Y-89985461D01*
X83889357Y-89960211D01*
X83889355Y-89960208D01*
X83886198Y-89955700D01*
X83724300Y-89793802D01*
X83719792Y-89790645D01*
X83719789Y-89790643D01*
X83615087Y-89717330D01*
X83536749Y-89662477D01*
X83531767Y-89660154D01*
X83531762Y-89660151D01*
X83497543Y-89644195D01*
X83444258Y-89597278D01*
X83424797Y-89529001D01*
X83445339Y-89461041D01*
X83497543Y-89415805D01*
X83531762Y-89399849D01*
X83531767Y-89399846D01*
X83536749Y-89397523D01*
X83641611Y-89324098D01*
X83719789Y-89269357D01*
X83719792Y-89269355D01*
X83724300Y-89266198D01*
X83886198Y-89104300D01*
X84017523Y-88916749D01*
X84019846Y-88911767D01*
X84019849Y-88911762D01*
X84111961Y-88714225D01*
X84111961Y-88714224D01*
X84114284Y-88709243D01*
X84173543Y-88488087D01*
X84193498Y-88260000D01*
X84173543Y-88031913D01*
X84114284Y-87810757D01*
X84111961Y-87805775D01*
X84019849Y-87608238D01*
X84019846Y-87608233D01*
X84017523Y-87603251D01*
X83886198Y-87415700D01*
X83724300Y-87253802D01*
X83719792Y-87250645D01*
X83719789Y-87250643D01*
X83641611Y-87195902D01*
X83536749Y-87122477D01*
X83531767Y-87120154D01*
X83531762Y-87120151D01*
X83497543Y-87104195D01*
X83444258Y-87057278D01*
X83424797Y-86989001D01*
X83445339Y-86921041D01*
X83497543Y-86875805D01*
X83531762Y-86859849D01*
X83531767Y-86859846D01*
X83536749Y-86857523D01*
X83641611Y-86784098D01*
X83719789Y-86729357D01*
X83719792Y-86729355D01*
X83724300Y-86726198D01*
X83886198Y-86564300D01*
X84017523Y-86376749D01*
X84019846Y-86371767D01*
X84019849Y-86371762D01*
X84111961Y-86174225D01*
X84111961Y-86174224D01*
X84114284Y-86169243D01*
X84173543Y-85948087D01*
X84193498Y-85720000D01*
X84173543Y-85491913D01*
X84162860Y-85452043D01*
X84115707Y-85276067D01*
X84115706Y-85276065D01*
X84114284Y-85270757D01*
X84073375Y-85183026D01*
X84019849Y-85068238D01*
X84019846Y-85068233D01*
X84017523Y-85063251D01*
X83886198Y-84875700D01*
X83724300Y-84713802D01*
X83719792Y-84710645D01*
X83719789Y-84710643D01*
X83584333Y-84615796D01*
X83536749Y-84582477D01*
X83531767Y-84580154D01*
X83531762Y-84580151D01*
X83497543Y-84564195D01*
X83444258Y-84517278D01*
X83424797Y-84449001D01*
X83445339Y-84381041D01*
X83497543Y-84335805D01*
X83531762Y-84319849D01*
X83531767Y-84319846D01*
X83536749Y-84317523D01*
X83711731Y-84194999D01*
X83719789Y-84189357D01*
X83719792Y-84189355D01*
X83724300Y-84186198D01*
X83886198Y-84024300D01*
X83916902Y-83980451D01*
X84014366Y-83841257D01*
X84017523Y-83836749D01*
X84019846Y-83831767D01*
X84019849Y-83831762D01*
X84111961Y-83634225D01*
X84111961Y-83634224D01*
X84114284Y-83629243D01*
X84117572Y-83616974D01*
X84172119Y-83413402D01*
X84172119Y-83413400D01*
X84173543Y-83408087D01*
X84193498Y-83180000D01*
X84173543Y-82951913D01*
X84114284Y-82730757D01*
X84092185Y-82683365D01*
X84019849Y-82528238D01*
X84019846Y-82528233D01*
X84017523Y-82523251D01*
X83886198Y-82335700D01*
X83724300Y-82173802D01*
X83719792Y-82170645D01*
X83719789Y-82170643D01*
X83641611Y-82115902D01*
X83536749Y-82042477D01*
X83531767Y-82040154D01*
X83531762Y-82040151D01*
X83497543Y-82024195D01*
X83444258Y-81977278D01*
X83424797Y-81909001D01*
X83445339Y-81841041D01*
X83497543Y-81795805D01*
X83531762Y-81779849D01*
X83531767Y-81779846D01*
X83536749Y-81777523D01*
X83641611Y-81704098D01*
X83719789Y-81649357D01*
X83719792Y-81649355D01*
X83724300Y-81646198D01*
X83886198Y-81484300D01*
X84017523Y-81296749D01*
X84019846Y-81291767D01*
X84019849Y-81291762D01*
X84111961Y-81094225D01*
X84111961Y-81094224D01*
X84114284Y-81089243D01*
X84173543Y-80868087D01*
X84193498Y-80640000D01*
X84173543Y-80411913D01*
X84114284Y-80190757D01*
X84111961Y-80185775D01*
X84019849Y-79988238D01*
X84019846Y-79988233D01*
X84017523Y-79983251D01*
X83886198Y-79795700D01*
X83724300Y-79633802D01*
X83719792Y-79630645D01*
X83719789Y-79630643D01*
X83641611Y-79575902D01*
X83536749Y-79502477D01*
X83531767Y-79500154D01*
X83531762Y-79500151D01*
X83497543Y-79484195D01*
X83444258Y-79437278D01*
X83424797Y-79369001D01*
X83445339Y-79301041D01*
X83497543Y-79255805D01*
X83531762Y-79239849D01*
X83531767Y-79239846D01*
X83536749Y-79237523D01*
X83641611Y-79164098D01*
X83719789Y-79109357D01*
X83719792Y-79109355D01*
X83724300Y-79106198D01*
X83886198Y-78944300D01*
X84017523Y-78756749D01*
X84019846Y-78751767D01*
X84019849Y-78751762D01*
X84111961Y-78554225D01*
X84111961Y-78554224D01*
X84114284Y-78549243D01*
X84135841Y-78468794D01*
X84172119Y-78333402D01*
X84172119Y-78333400D01*
X84173543Y-78328087D01*
X84193498Y-78100000D01*
X84173543Y-77871913D01*
X84151575Y-77789928D01*
X84115707Y-77656067D01*
X84115706Y-77656065D01*
X84114284Y-77650757D01*
X84090616Y-77600000D01*
X84019849Y-77448238D01*
X84019846Y-77448233D01*
X84017523Y-77443251D01*
X83886198Y-77255700D01*
X83724300Y-77093802D01*
X83719792Y-77090645D01*
X83719789Y-77090643D01*
X83542494Y-76966500D01*
X83536749Y-76962477D01*
X83531767Y-76960154D01*
X83531762Y-76960151D01*
X83497543Y-76944195D01*
X83444258Y-76897278D01*
X83424797Y-76829001D01*
X83445339Y-76761041D01*
X83497543Y-76715805D01*
X83531762Y-76699849D01*
X83531767Y-76699846D01*
X83536749Y-76697523D01*
X83641611Y-76624098D01*
X83719789Y-76569357D01*
X83719792Y-76569355D01*
X83724300Y-76566198D01*
X83886198Y-76404300D01*
X84017523Y-76216749D01*
X84019846Y-76211767D01*
X84019849Y-76211762D01*
X84111961Y-76014225D01*
X84111961Y-76014224D01*
X84114284Y-76009243D01*
X84173543Y-75788087D01*
X84193498Y-75560000D01*
X84173543Y-75331913D01*
X84168041Y-75311379D01*
X84115707Y-75116067D01*
X84115706Y-75116065D01*
X84114284Y-75110757D01*
X84097123Y-75073955D01*
X84019849Y-74908238D01*
X84019846Y-74908233D01*
X84017523Y-74903251D01*
X83886198Y-74715700D01*
X83724300Y-74553802D01*
X83719792Y-74550645D01*
X83719789Y-74550643D01*
X83622826Y-74482749D01*
X83536749Y-74422477D01*
X83531767Y-74420154D01*
X83531762Y-74420151D01*
X83496951Y-74403919D01*
X83443666Y-74357002D01*
X83424205Y-74288725D01*
X83444747Y-74220765D01*
X83496951Y-74175529D01*
X83531511Y-74159414D01*
X83541006Y-74153931D01*
X83593048Y-74117491D01*
X83601424Y-74107012D01*
X83594356Y-74093566D01*
X82892812Y-73392022D01*
X82878868Y-73384408D01*
X82877035Y-73384539D01*
X82870420Y-73388790D01*
X82164923Y-74094287D01*
X82158493Y-74106062D01*
X82167789Y-74118077D01*
X82218994Y-74153931D01*
X82228489Y-74159414D01*
X82263049Y-74175529D01*
X82316334Y-74222446D01*
X82335795Y-74290723D01*
X82315253Y-74358683D01*
X82263049Y-74403919D01*
X82228238Y-74420151D01*
X82228233Y-74420154D01*
X82223251Y-74422477D01*
X82137174Y-74482749D01*
X82040211Y-74550643D01*
X82040208Y-74550645D01*
X82035700Y-74553802D01*
X81873802Y-74715700D01*
X81742477Y-74903251D01*
X81740154Y-74908233D01*
X81740151Y-74908238D01*
X81662877Y-75073955D01*
X81645716Y-75110757D01*
X81644294Y-75116065D01*
X81644293Y-75116067D01*
X81591959Y-75311379D01*
X81586457Y-75331913D01*
X81566502Y-75560000D01*
X81586457Y-75788087D01*
X81645716Y-76009243D01*
X81648039Y-76014224D01*
X81648039Y-76014225D01*
X81740151Y-76211762D01*
X81740154Y-76211767D01*
X81742477Y-76216749D01*
X81873802Y-76404300D01*
X82035700Y-76566198D01*
X82040208Y-76569355D01*
X82040211Y-76569357D01*
X82118389Y-76624098D01*
X82223251Y-76697523D01*
X82228233Y-76699846D01*
X82228238Y-76699849D01*
X82262457Y-76715805D01*
X82315742Y-76762722D01*
X82335203Y-76830999D01*
X82314661Y-76898959D01*
X82262457Y-76944195D01*
X82228238Y-76960151D01*
X82228233Y-76960154D01*
X82223251Y-76962477D01*
X82217506Y-76966500D01*
X82040211Y-77090643D01*
X82040208Y-77090645D01*
X82035700Y-77093802D01*
X81873802Y-77255700D01*
X81742477Y-77443251D01*
X81740154Y-77448233D01*
X81740151Y-77448238D01*
X81669384Y-77600000D01*
X81645716Y-77650757D01*
X81644294Y-77656065D01*
X81644293Y-77656067D01*
X81608425Y-77789928D01*
X81586457Y-77871913D01*
X81566502Y-78100000D01*
X81586457Y-78328087D01*
X81587881Y-78333400D01*
X81587881Y-78333402D01*
X81624160Y-78468794D01*
X81645716Y-78549243D01*
X81648039Y-78554224D01*
X81648039Y-78554225D01*
X81740151Y-78751762D01*
X81740154Y-78751767D01*
X81742477Y-78756749D01*
X81873802Y-78944300D01*
X82035700Y-79106198D01*
X82040208Y-79109355D01*
X82040211Y-79109357D01*
X82118389Y-79164098D01*
X82223251Y-79237523D01*
X82228233Y-79239846D01*
X82228238Y-79239849D01*
X82262457Y-79255805D01*
X82315742Y-79302722D01*
X82335203Y-79370999D01*
X82314661Y-79438959D01*
X82262457Y-79484195D01*
X82228238Y-79500151D01*
X82228233Y-79500154D01*
X82223251Y-79502477D01*
X82118389Y-79575902D01*
X82040211Y-79630643D01*
X82040208Y-79630645D01*
X82035700Y-79633802D01*
X81873802Y-79795700D01*
X81742477Y-79983251D01*
X81740154Y-79988233D01*
X81740151Y-79988238D01*
X81648039Y-80185775D01*
X81645716Y-80190757D01*
X81586457Y-80411913D01*
X81566502Y-80640000D01*
X81586457Y-80868087D01*
X81645716Y-81089243D01*
X81648039Y-81094224D01*
X81648039Y-81094225D01*
X81740151Y-81291762D01*
X81740154Y-81291767D01*
X81742477Y-81296749D01*
X81873802Y-81484300D01*
X82035700Y-81646198D01*
X82040208Y-81649355D01*
X82040211Y-81649357D01*
X82118389Y-81704098D01*
X82223251Y-81777523D01*
X82228233Y-81779846D01*
X82228238Y-81779849D01*
X82262457Y-81795805D01*
X82315742Y-81842722D01*
X82335203Y-81910999D01*
X82314661Y-81978959D01*
X82262457Y-82024195D01*
X82228238Y-82040151D01*
X82228233Y-82040154D01*
X82223251Y-82042477D01*
X82118389Y-82115902D01*
X82040211Y-82170643D01*
X82040208Y-82170645D01*
X82035700Y-82173802D01*
X81873802Y-82335700D01*
X81742477Y-82523251D01*
X81740154Y-82528233D01*
X81740151Y-82528238D01*
X81667815Y-82683365D01*
X81645716Y-82730757D01*
X81586457Y-82951913D01*
X81566502Y-83180000D01*
X81586457Y-83408087D01*
X81587881Y-83413400D01*
X81587881Y-83413402D01*
X81642429Y-83616974D01*
X81645716Y-83629243D01*
X81648039Y-83634224D01*
X81648039Y-83634225D01*
X81740151Y-83831762D01*
X81740154Y-83831767D01*
X81742477Y-83836749D01*
X81745634Y-83841257D01*
X81843099Y-83980451D01*
X81873802Y-84024300D01*
X82035700Y-84186198D01*
X82040208Y-84189355D01*
X82040211Y-84189357D01*
X82048269Y-84194999D01*
X82223251Y-84317523D01*
X82228233Y-84319846D01*
X82228238Y-84319849D01*
X82262457Y-84335805D01*
X82315742Y-84382722D01*
X82335203Y-84450999D01*
X82314661Y-84518959D01*
X82262457Y-84564195D01*
X82228238Y-84580151D01*
X82228233Y-84580154D01*
X82223251Y-84582477D01*
X82175667Y-84615796D01*
X82040211Y-84710643D01*
X82040208Y-84710645D01*
X82035700Y-84713802D01*
X81873802Y-84875700D01*
X81742477Y-85063251D01*
X81740154Y-85068233D01*
X81740151Y-85068238D01*
X81686625Y-85183026D01*
X81645716Y-85270757D01*
X81644294Y-85276065D01*
X81644293Y-85276067D01*
X81597140Y-85452043D01*
X81586457Y-85491913D01*
X81566502Y-85720000D01*
X81586457Y-85948087D01*
X81645716Y-86169243D01*
X81648039Y-86174224D01*
X81648039Y-86174225D01*
X81740151Y-86371762D01*
X81740154Y-86371767D01*
X81742477Y-86376749D01*
X81873802Y-86564300D01*
X82035700Y-86726198D01*
X82040208Y-86729355D01*
X82040211Y-86729357D01*
X82118389Y-86784098D01*
X82223251Y-86857523D01*
X82228233Y-86859846D01*
X82228238Y-86859849D01*
X82262457Y-86875805D01*
X82315742Y-86922722D01*
X82335203Y-86990999D01*
X82314661Y-87058959D01*
X82262457Y-87104195D01*
X82228238Y-87120151D01*
X82228233Y-87120154D01*
X82223251Y-87122477D01*
X82118389Y-87195902D01*
X82040211Y-87250643D01*
X82040208Y-87250645D01*
X82035700Y-87253802D01*
X81873802Y-87415700D01*
X81742477Y-87603251D01*
X81740154Y-87608233D01*
X81740151Y-87608238D01*
X81648039Y-87805775D01*
X81645716Y-87810757D01*
X81586457Y-88031913D01*
X81566502Y-88260000D01*
X81586457Y-88488087D01*
X81645716Y-88709243D01*
X81648039Y-88714224D01*
X81648039Y-88714225D01*
X81740151Y-88911762D01*
X81740154Y-88911767D01*
X81742477Y-88916749D01*
X81873802Y-89104300D01*
X82035700Y-89266198D01*
X82040208Y-89269355D01*
X82040211Y-89269357D01*
X82118389Y-89324098D01*
X82223251Y-89397523D01*
X82228233Y-89399846D01*
X82228238Y-89399849D01*
X82262457Y-89415805D01*
X82315742Y-89462722D01*
X82335203Y-89530999D01*
X82314661Y-89598959D01*
X82262457Y-89644195D01*
X82228238Y-89660151D01*
X82228233Y-89660154D01*
X82223251Y-89662477D01*
X82144913Y-89717330D01*
X82040211Y-89790643D01*
X82040208Y-89790645D01*
X82035700Y-89793802D01*
X81873802Y-89955700D01*
X81870645Y-89960208D01*
X81870643Y-89960211D01*
X81852963Y-89985461D01*
X81742477Y-90143251D01*
X81740154Y-90148233D01*
X81740151Y-90148238D01*
X81652043Y-90337188D01*
X81645716Y-90350757D01*
X81644294Y-90356065D01*
X81644293Y-90356067D01*
X81594891Y-90540436D01*
X81586457Y-90571913D01*
X81566502Y-90800000D01*
X81586457Y-91028087D01*
X81587881Y-91033400D01*
X81587881Y-91033402D01*
X81643352Y-91240420D01*
X81645716Y-91249243D01*
X81648039Y-91254224D01*
X81648039Y-91254225D01*
X81740151Y-91451762D01*
X81740154Y-91451767D01*
X81742477Y-91456749D01*
X81760235Y-91482110D01*
X81865304Y-91632163D01*
X81873802Y-91644300D01*
X82035700Y-91806198D01*
X82040208Y-91809355D01*
X82040211Y-91809357D01*
X82042672Y-91811080D01*
X82223251Y-91937523D01*
X82228233Y-91939846D01*
X82228238Y-91939849D01*
X82262457Y-91955805D01*
X82315742Y-92002722D01*
X82335203Y-92070999D01*
X82314661Y-92138959D01*
X82262457Y-92184195D01*
X82228238Y-92200151D01*
X82228233Y-92200154D01*
X82223251Y-92202477D01*
X82118389Y-92275902D01*
X82040211Y-92330643D01*
X82040208Y-92330645D01*
X82035700Y-92333802D01*
X81873802Y-92495700D01*
X81742477Y-92683251D01*
X81740154Y-92688233D01*
X81740151Y-92688238D01*
X81648039Y-92885775D01*
X81645716Y-92890757D01*
X81586457Y-93111913D01*
X81566502Y-93340000D01*
X51708000Y-93340000D01*
X51708000Y-89400000D01*
X60587888Y-89400000D01*
X60606303Y-89610481D01*
X60607727Y-89615795D01*
X60607727Y-89615796D01*
X60654577Y-89790643D01*
X60660987Y-89814567D01*
X60663309Y-89819548D01*
X60663310Y-89819549D01*
X60726799Y-89955700D01*
X60750280Y-90006056D01*
X60871468Y-90179131D01*
X61020869Y-90328532D01*
X61193944Y-90449720D01*
X61198922Y-90452041D01*
X61198925Y-90452043D01*
X61283425Y-90491446D01*
X61385433Y-90539013D01*
X61390741Y-90540435D01*
X61390743Y-90540436D01*
X61530854Y-90577978D01*
X61589519Y-90593697D01*
X61800000Y-90612112D01*
X62010481Y-90593697D01*
X62069146Y-90577978D01*
X62209257Y-90540436D01*
X62209259Y-90540435D01*
X62214567Y-90539013D01*
X62316575Y-90491446D01*
X62401075Y-90452043D01*
X62401078Y-90452041D01*
X62406056Y-90449720D01*
X62579131Y-90328532D01*
X62728532Y-90179131D01*
X62849720Y-90006056D01*
X62873202Y-89955700D01*
X62936690Y-89819549D01*
X62936691Y-89819548D01*
X62939013Y-89814567D01*
X62945424Y-89790643D01*
X62992273Y-89615796D01*
X62992273Y-89615795D01*
X62993697Y-89610481D01*
X63012112Y-89400000D01*
X62993697Y-89189519D01*
X62992273Y-89184204D01*
X62940436Y-88990743D01*
X62940435Y-88990741D01*
X62939013Y-88985433D01*
X62878458Y-88855572D01*
X62852043Y-88798925D01*
X62852041Y-88798922D01*
X62849720Y-88793944D01*
X62728532Y-88620869D01*
X62579131Y-88471468D01*
X62406056Y-88350280D01*
X62401078Y-88347959D01*
X62401075Y-88347957D01*
X62219549Y-88263310D01*
X62219548Y-88263309D01*
X62214567Y-88260987D01*
X62209259Y-88259565D01*
X62209257Y-88259564D01*
X62015796Y-88207727D01*
X62015795Y-88207727D01*
X62010481Y-88206303D01*
X61800000Y-88187888D01*
X61589519Y-88206303D01*
X61584205Y-88207727D01*
X61584204Y-88207727D01*
X61390743Y-88259564D01*
X61390741Y-88259565D01*
X61385433Y-88260987D01*
X61380452Y-88263309D01*
X61380451Y-88263310D01*
X61198925Y-88347957D01*
X61198922Y-88347959D01*
X61193944Y-88350280D01*
X61020869Y-88471468D01*
X60871468Y-88620869D01*
X60750280Y-88793944D01*
X60747959Y-88798922D01*
X60747957Y-88798925D01*
X60721542Y-88855572D01*
X60660987Y-88985433D01*
X60659565Y-88990741D01*
X60659564Y-88990743D01*
X60607727Y-89184204D01*
X60606303Y-89189519D01*
X60587888Y-89400000D01*
X51708000Y-89400000D01*
X51708000Y-84400000D01*
X60587888Y-84400000D01*
X60606303Y-84610481D01*
X60607727Y-84615795D01*
X60607727Y-84615796D01*
X60635032Y-84717699D01*
X60660987Y-84814567D01*
X60663309Y-84819548D01*
X60663310Y-84819549D01*
X60687677Y-84871803D01*
X60750280Y-85006056D01*
X60871468Y-85179131D01*
X61020869Y-85328532D01*
X61193944Y-85449720D01*
X61198922Y-85452041D01*
X61198925Y-85452043D01*
X61380451Y-85536690D01*
X61385433Y-85539013D01*
X61390741Y-85540435D01*
X61390743Y-85540436D01*
X61584204Y-85592273D01*
X61589519Y-85593697D01*
X61800000Y-85612112D01*
X62010481Y-85593697D01*
X62015796Y-85592273D01*
X62209257Y-85540436D01*
X62209259Y-85540435D01*
X62214567Y-85539013D01*
X62219549Y-85536690D01*
X62401075Y-85452043D01*
X62401078Y-85452041D01*
X62406056Y-85449720D01*
X62579131Y-85328532D01*
X62728532Y-85179131D01*
X62849720Y-85006056D01*
X62912324Y-84871803D01*
X62936690Y-84819549D01*
X62936691Y-84819548D01*
X62939013Y-84814567D01*
X62964969Y-84717699D01*
X62992273Y-84615796D01*
X62992273Y-84615795D01*
X62993697Y-84610481D01*
X63012112Y-84400000D01*
X62993697Y-84189519D01*
X62991763Y-84182301D01*
X62940436Y-83990743D01*
X62940435Y-83990741D01*
X62939013Y-83985433D01*
X62936690Y-83980451D01*
X62852043Y-83798925D01*
X62852041Y-83798922D01*
X62849720Y-83793944D01*
X62728532Y-83620869D01*
X62579131Y-83471468D01*
X62406056Y-83350280D01*
X62401078Y-83347959D01*
X62401075Y-83347957D01*
X62219549Y-83263310D01*
X62219548Y-83263309D01*
X62214567Y-83260987D01*
X62209259Y-83259565D01*
X62209257Y-83259564D01*
X62015796Y-83207727D01*
X62015795Y-83207727D01*
X62010481Y-83206303D01*
X61800000Y-83187888D01*
X61589519Y-83206303D01*
X61584205Y-83207727D01*
X61584204Y-83207727D01*
X61390743Y-83259564D01*
X61390741Y-83259565D01*
X61385433Y-83260987D01*
X61380452Y-83263309D01*
X61380451Y-83263310D01*
X61198925Y-83347957D01*
X61198922Y-83347959D01*
X61193944Y-83350280D01*
X61020869Y-83471468D01*
X60871468Y-83620869D01*
X60750280Y-83793944D01*
X60747959Y-83798922D01*
X60747957Y-83798925D01*
X60663310Y-83980451D01*
X60660987Y-83985433D01*
X60659565Y-83990741D01*
X60659564Y-83990743D01*
X60608237Y-84182301D01*
X60606303Y-84189519D01*
X60587888Y-84400000D01*
X51708000Y-84400000D01*
X51708000Y-73025475D01*
X81567483Y-73025475D01*
X81586472Y-73242519D01*
X81588375Y-73253312D01*
X81644764Y-73463761D01*
X81648510Y-73474053D01*
X81740586Y-73671511D01*
X81746069Y-73681006D01*
X81782509Y-73733048D01*
X81792988Y-73741424D01*
X81806434Y-73734356D01*
X82507978Y-73032812D01*
X82514356Y-73021132D01*
X83244408Y-73021132D01*
X83244539Y-73022965D01*
X83248790Y-73029580D01*
X83954287Y-73735077D01*
X83966062Y-73741507D01*
X83978077Y-73732211D01*
X84013931Y-73681006D01*
X84019414Y-73671511D01*
X84111490Y-73474053D01*
X84115236Y-73463761D01*
X84171625Y-73253312D01*
X84173528Y-73242519D01*
X84192517Y-73025475D01*
X84192517Y-73014525D01*
X84173528Y-72797481D01*
X84171625Y-72786688D01*
X84115236Y-72576239D01*
X84111490Y-72565947D01*
X84019414Y-72368489D01*
X84013931Y-72358994D01*
X83977491Y-72306952D01*
X83967012Y-72298576D01*
X83953566Y-72305644D01*
X83252022Y-73007188D01*
X83244408Y-73021132D01*
X82514356Y-73021132D01*
X82515592Y-73018868D01*
X82515461Y-73017035D01*
X82511210Y-73010420D01*
X81805713Y-72304923D01*
X81793938Y-72298493D01*
X81781923Y-72307789D01*
X81746069Y-72358994D01*
X81740586Y-72368489D01*
X81648510Y-72565947D01*
X81644764Y-72576239D01*
X81588375Y-72786688D01*
X81586472Y-72797481D01*
X81567483Y-73014525D01*
X81567483Y-73025475D01*
X51708000Y-73025475D01*
X51708000Y-71566062D01*
X82158493Y-71566062D01*
X82167789Y-71578077D01*
X82218994Y-71613931D01*
X82228489Y-71619414D01*
X82263641Y-71635805D01*
X82316926Y-71682722D01*
X82336387Y-71750999D01*
X82315845Y-71818959D01*
X82263641Y-71864195D01*
X82228489Y-71880586D01*
X82218994Y-71886069D01*
X82166952Y-71922509D01*
X82158576Y-71932988D01*
X82165644Y-71946434D01*
X82867188Y-72647978D01*
X82881132Y-72655592D01*
X82882965Y-72655461D01*
X82889580Y-72651210D01*
X83595077Y-71945713D01*
X83601507Y-71933938D01*
X83592211Y-71921923D01*
X83541006Y-71886069D01*
X83531511Y-71880586D01*
X83496359Y-71864195D01*
X83443074Y-71817278D01*
X83423613Y-71749001D01*
X83444155Y-71681041D01*
X83496359Y-71635805D01*
X83531511Y-71619414D01*
X83541006Y-71613931D01*
X83593048Y-71577491D01*
X83601424Y-71567012D01*
X83594356Y-71553566D01*
X82892812Y-70852022D01*
X82878868Y-70844408D01*
X82877035Y-70844539D01*
X82870420Y-70848790D01*
X82164923Y-71554287D01*
X82158493Y-71566062D01*
X51708000Y-71566062D01*
X51708000Y-70485475D01*
X81567483Y-70485475D01*
X81586472Y-70702519D01*
X81588375Y-70713312D01*
X81644764Y-70923761D01*
X81648510Y-70934053D01*
X81740586Y-71131511D01*
X81746069Y-71141006D01*
X81782509Y-71193048D01*
X81792988Y-71201424D01*
X81806434Y-71194356D01*
X82507978Y-70492812D01*
X82514356Y-70481132D01*
X83244408Y-70481132D01*
X83244539Y-70482965D01*
X83248790Y-70489580D01*
X83954287Y-71195077D01*
X83966062Y-71201507D01*
X83978077Y-71192211D01*
X84013931Y-71141006D01*
X84019414Y-71131511D01*
X84111490Y-70934053D01*
X84115236Y-70923761D01*
X84171625Y-70713312D01*
X84173528Y-70702519D01*
X84192517Y-70485475D01*
X84192517Y-70474525D01*
X84173528Y-70257481D01*
X84171625Y-70246688D01*
X84115236Y-70036239D01*
X84111490Y-70025947D01*
X84019414Y-69828489D01*
X84013931Y-69818994D01*
X83977491Y-69766952D01*
X83967012Y-69758576D01*
X83953566Y-69765644D01*
X83252022Y-70467188D01*
X83244408Y-70481132D01*
X82514356Y-70481132D01*
X82515592Y-70478868D01*
X82515461Y-70477035D01*
X82511210Y-70470420D01*
X81805713Y-69764923D01*
X81793938Y-69758493D01*
X81781923Y-69767789D01*
X81746069Y-69818994D01*
X81740586Y-69828489D01*
X81648510Y-70025947D01*
X81644764Y-70036239D01*
X81588375Y-70246688D01*
X81586472Y-70257481D01*
X81567483Y-70474525D01*
X81567483Y-70485475D01*
X51708000Y-70485475D01*
X51708000Y-67940000D01*
X81566502Y-67940000D01*
X81586457Y-68168087D01*
X81587881Y-68173400D01*
X81587881Y-68173402D01*
X81625025Y-68312022D01*
X81645716Y-68389243D01*
X81648039Y-68394224D01*
X81648039Y-68394225D01*
X81740151Y-68591762D01*
X81740154Y-68591767D01*
X81742477Y-68596749D01*
X81873802Y-68784300D01*
X82035700Y-68946198D01*
X82040208Y-68949355D01*
X82040211Y-68949357D01*
X82118389Y-69004098D01*
X82223251Y-69077523D01*
X82228233Y-69079846D01*
X82228238Y-69079849D01*
X82263049Y-69096081D01*
X82316334Y-69142998D01*
X82335795Y-69211275D01*
X82315253Y-69279235D01*
X82263049Y-69324471D01*
X82228489Y-69340586D01*
X82218994Y-69346069D01*
X82166952Y-69382509D01*
X82158576Y-69392988D01*
X82165644Y-69406434D01*
X82867188Y-70107978D01*
X82881132Y-70115592D01*
X82882965Y-70115461D01*
X82889580Y-70111210D01*
X83595077Y-69405713D01*
X83601507Y-69393938D01*
X83592211Y-69381923D01*
X83541006Y-69346069D01*
X83531511Y-69340586D01*
X83496951Y-69324471D01*
X83443666Y-69277554D01*
X83424205Y-69209277D01*
X83444747Y-69141317D01*
X83496951Y-69096081D01*
X83531762Y-69079849D01*
X83531767Y-69079846D01*
X83536749Y-69077523D01*
X83641611Y-69004098D01*
X83719789Y-68949357D01*
X83719792Y-68949355D01*
X83724300Y-68946198D01*
X83886198Y-68784300D01*
X84017523Y-68596749D01*
X84019846Y-68591767D01*
X84019849Y-68591762D01*
X84111961Y-68394225D01*
X84111961Y-68394224D01*
X84114284Y-68389243D01*
X84134976Y-68312022D01*
X84172119Y-68173402D01*
X84172119Y-68173400D01*
X84173543Y-68168087D01*
X84193019Y-67945475D01*
X96807483Y-67945475D01*
X96826472Y-68162519D01*
X96828375Y-68173312D01*
X96884764Y-68383761D01*
X96888510Y-68394053D01*
X96980586Y-68591511D01*
X96986069Y-68601006D01*
X97022509Y-68653048D01*
X97032988Y-68661424D01*
X97046434Y-68654356D01*
X97747978Y-67952812D01*
X97754356Y-67941132D01*
X98484408Y-67941132D01*
X98484539Y-67942965D01*
X98488790Y-67949580D01*
X99194287Y-68655077D01*
X99206062Y-68661507D01*
X99218077Y-68652211D01*
X99253931Y-68601006D01*
X99259414Y-68591511D01*
X99351490Y-68394053D01*
X99355236Y-68383761D01*
X99411625Y-68173312D01*
X99413528Y-68162519D01*
X99432517Y-67945475D01*
X99432517Y-67934525D01*
X99413528Y-67717481D01*
X99411625Y-67706688D01*
X99355236Y-67496239D01*
X99351490Y-67485947D01*
X99259414Y-67288489D01*
X99253931Y-67278994D01*
X99217491Y-67226952D01*
X99207012Y-67218576D01*
X99193566Y-67225644D01*
X98492022Y-67927188D01*
X98484408Y-67941132D01*
X97754356Y-67941132D01*
X97755592Y-67938868D01*
X97755461Y-67937035D01*
X97751210Y-67930420D01*
X97045713Y-67224923D01*
X97033938Y-67218493D01*
X97021923Y-67227789D01*
X96986069Y-67278994D01*
X96980586Y-67288489D01*
X96888510Y-67485947D01*
X96884764Y-67496239D01*
X96828375Y-67706688D01*
X96826472Y-67717481D01*
X96807483Y-67934525D01*
X96807483Y-67945475D01*
X84193019Y-67945475D01*
X84193498Y-67940000D01*
X84173543Y-67711913D01*
X84136981Y-67575461D01*
X84115707Y-67496067D01*
X84115706Y-67496065D01*
X84114284Y-67490757D01*
X84019966Y-67288489D01*
X84019849Y-67288238D01*
X84019846Y-67288233D01*
X84017523Y-67283251D01*
X83886198Y-67095700D01*
X83724300Y-66933802D01*
X83719789Y-66930643D01*
X83715576Y-66927108D01*
X83716527Y-66925974D01*
X83676529Y-66875929D01*
X83669224Y-66805310D01*
X83701258Y-66741951D01*
X83762462Y-66705970D01*
X83779517Y-66702918D01*
X83790316Y-66701745D01*
X83926705Y-66650615D01*
X84043261Y-66563261D01*
X84130615Y-66446705D01*
X84181745Y-66310316D01*
X84188500Y-66248134D01*
X84188500Y-65400000D01*
X96806502Y-65400000D01*
X96826457Y-65628087D01*
X96885716Y-65849243D01*
X96888039Y-65854224D01*
X96888039Y-65854225D01*
X96980151Y-66051762D01*
X96980154Y-66051767D01*
X96982477Y-66056749D01*
X97113802Y-66244300D01*
X97275700Y-66406198D01*
X97280208Y-66409355D01*
X97280211Y-66409357D01*
X97321542Y-66438297D01*
X97463251Y-66537523D01*
X97468233Y-66539846D01*
X97468238Y-66539849D01*
X97503049Y-66556081D01*
X97556334Y-66602998D01*
X97575795Y-66671275D01*
X97555253Y-66739235D01*
X97503049Y-66784471D01*
X97468489Y-66800586D01*
X97458994Y-66806069D01*
X97406952Y-66842509D01*
X97398576Y-66852988D01*
X97405644Y-66866434D01*
X98107188Y-67567978D01*
X98121132Y-67575592D01*
X98122965Y-67575461D01*
X98129580Y-67571210D01*
X98835077Y-66865713D01*
X98841507Y-66853938D01*
X98832211Y-66841923D01*
X98781006Y-66806069D01*
X98771511Y-66800586D01*
X98736951Y-66784471D01*
X98683666Y-66737554D01*
X98664205Y-66669277D01*
X98684747Y-66601317D01*
X98736951Y-66556081D01*
X98771762Y-66539849D01*
X98771767Y-66539846D01*
X98776749Y-66537523D01*
X98918458Y-66438297D01*
X98959789Y-66409357D01*
X98959792Y-66409355D01*
X98964300Y-66406198D01*
X99126198Y-66244300D01*
X99257523Y-66056749D01*
X99259846Y-66051767D01*
X99259849Y-66051762D01*
X99351961Y-65854225D01*
X99351961Y-65854224D01*
X99354284Y-65849243D01*
X99413543Y-65628087D01*
X99433498Y-65400000D01*
X99413543Y-65171913D01*
X99354284Y-64950757D01*
X99351961Y-64945775D01*
X99259849Y-64748238D01*
X99259846Y-64748233D01*
X99257523Y-64743251D01*
X99126198Y-64555700D01*
X98964300Y-64393802D01*
X98959792Y-64390645D01*
X98959789Y-64390643D01*
X98881611Y-64335902D01*
X98776749Y-64262477D01*
X98771767Y-64260154D01*
X98771762Y-64260151D01*
X98574225Y-64168039D01*
X98574224Y-64168039D01*
X98569243Y-64165716D01*
X98563935Y-64164294D01*
X98563933Y-64164293D01*
X98353402Y-64107881D01*
X98353400Y-64107881D01*
X98348087Y-64106457D01*
X98120000Y-64086502D01*
X97891913Y-64106457D01*
X97886600Y-64107881D01*
X97886598Y-64107881D01*
X97676067Y-64164293D01*
X97676065Y-64164294D01*
X97670757Y-64165716D01*
X97665776Y-64168039D01*
X97665775Y-64168039D01*
X97468238Y-64260151D01*
X97468233Y-64260154D01*
X97463251Y-64262477D01*
X97358389Y-64335902D01*
X97280211Y-64390643D01*
X97280208Y-64390645D01*
X97275700Y-64393802D01*
X97113802Y-64555700D01*
X96982477Y-64743251D01*
X96980154Y-64748233D01*
X96980151Y-64748238D01*
X96888039Y-64945775D01*
X96885716Y-64950757D01*
X96826457Y-65171913D01*
X96806502Y-65400000D01*
X84188500Y-65400000D01*
X84188500Y-64551866D01*
X84181745Y-64489684D01*
X84130615Y-64353295D01*
X84043261Y-64236739D01*
X83926705Y-64149385D01*
X83790316Y-64098255D01*
X83728134Y-64091500D01*
X82031866Y-64091500D01*
X81969684Y-64098255D01*
X81833295Y-64149385D01*
X81716739Y-64236739D01*
X81629385Y-64353295D01*
X81578255Y-64489684D01*
X81571500Y-64551866D01*
X81571500Y-66248134D01*
X81578255Y-66310316D01*
X81629385Y-66446705D01*
X81716739Y-66563261D01*
X81833295Y-66650615D01*
X81969684Y-66701745D01*
X81980474Y-66702917D01*
X81982606Y-66703803D01*
X81985222Y-66704425D01*
X81985121Y-66704848D01*
X82046035Y-66730155D01*
X82086463Y-66788517D01*
X82088922Y-66859471D01*
X82052629Y-66920490D01*
X82043969Y-66927489D01*
X82040207Y-66930646D01*
X82035700Y-66933802D01*
X81873802Y-67095700D01*
X81742477Y-67283251D01*
X81740154Y-67288233D01*
X81740151Y-67288238D01*
X81740034Y-67288489D01*
X81645716Y-67490757D01*
X81644294Y-67496065D01*
X81644293Y-67496067D01*
X81623019Y-67575461D01*
X81586457Y-67711913D01*
X81566502Y-67940000D01*
X51708000Y-67940000D01*
X51708000Y-57465469D01*
X68047095Y-57465469D01*
X68060427Y-57696697D01*
X68061564Y-57701743D01*
X68061565Y-57701749D01*
X68093741Y-57844523D01*
X68111346Y-57922642D01*
X68198484Y-58137237D01*
X68319501Y-58334719D01*
X68471147Y-58509784D01*
X68649349Y-58657730D01*
X68849322Y-58774584D01*
X69065694Y-58857209D01*
X69070760Y-58858240D01*
X69070761Y-58858240D01*
X69123846Y-58869040D01*
X69292656Y-58903385D01*
X69422089Y-58908131D01*
X69518949Y-58911683D01*
X69518953Y-58911683D01*
X69524113Y-58911872D01*
X69529233Y-58911216D01*
X69529235Y-58911216D01*
X69603166Y-58901745D01*
X69753847Y-58882442D01*
X69758795Y-58880957D01*
X69758802Y-58880956D01*
X69970747Y-58817369D01*
X69975690Y-58815886D01*
X70056236Y-58776427D01*
X70179049Y-58716262D01*
X70179052Y-58716260D01*
X70183684Y-58713991D01*
X70372243Y-58579494D01*
X70417309Y-58534585D01*
X70479681Y-58500669D01*
X70550487Y-58505857D01*
X70607249Y-58548503D01*
X70624231Y-58579607D01*
X70649385Y-58646705D01*
X70736739Y-58763261D01*
X70853295Y-58850615D01*
X70989684Y-58901745D01*
X71051866Y-58908500D01*
X72948134Y-58908500D01*
X73010316Y-58901745D01*
X73146705Y-58850615D01*
X73263261Y-58763261D01*
X73350615Y-58646705D01*
X73401745Y-58510316D01*
X73408500Y-58448134D01*
X73408500Y-56551866D01*
X73401745Y-56489684D01*
X73350615Y-56353295D01*
X73263261Y-56236739D01*
X73146705Y-56149385D01*
X73010316Y-56098255D01*
X72948134Y-56091500D01*
X71051866Y-56091500D01*
X70989684Y-56098255D01*
X70853295Y-56149385D01*
X70736739Y-56236739D01*
X70649385Y-56353295D01*
X70646233Y-56361703D01*
X70646232Y-56361705D01*
X70625538Y-56416906D01*
X70582897Y-56473671D01*
X70516335Y-56498371D01*
X70446986Y-56483164D01*
X70424167Y-56466666D01*
X70423887Y-56466358D01*
X70291373Y-56361705D01*
X70246177Y-56326011D01*
X70246172Y-56326008D01*
X70242123Y-56322810D01*
X70237607Y-56320317D01*
X70237604Y-56320315D01*
X70043879Y-56213373D01*
X70043875Y-56213371D01*
X70039355Y-56210876D01*
X70034486Y-56209152D01*
X70034482Y-56209150D01*
X69825903Y-56135288D01*
X69825899Y-56135287D01*
X69821028Y-56133562D01*
X69815935Y-56132655D01*
X69815932Y-56132654D01*
X69598095Y-56093851D01*
X69598089Y-56093850D01*
X69593006Y-56092945D01*
X69520096Y-56092054D01*
X69366581Y-56090179D01*
X69366579Y-56090179D01*
X69361411Y-56090116D01*
X69132464Y-56125150D01*
X68912314Y-56197106D01*
X68907726Y-56199494D01*
X68907722Y-56199496D01*
X68711461Y-56301663D01*
X68706872Y-56304052D01*
X68702739Y-56307155D01*
X68702736Y-56307157D01*
X68525790Y-56440012D01*
X68521655Y-56443117D01*
X68361639Y-56610564D01*
X68231119Y-56801899D01*
X68133602Y-57011981D01*
X68071707Y-57235169D01*
X68047095Y-57465469D01*
X51708000Y-57465469D01*
X51708000Y-51334000D01*
X51728002Y-51265879D01*
X51781658Y-51219386D01*
X51834000Y-51208000D01*
X154966000Y-51208000D01*
X155034121Y-51228002D01*
G37*
%TD.AperFunction*%
%TD*%
M02*
