%TF.GenerationSoftware,KiCad,Pcbnew,(6.0.1)*%
%TF.CreationDate,2023-09-06T20:42:40-07:00*%
%TF.ProjectId,Simon Says,53696d6f-6e20-4536-9179-732e6b696361,rev?*%
%TF.SameCoordinates,Original*%
%TF.FileFunction,Soldermask,Top*%
%TF.FilePolarity,Negative*%
%FSLAX46Y46*%
G04 Gerber Fmt 4.6, Leading zero omitted, Abs format (unit mm)*
G04 Created by KiCad (PCBNEW (6.0.1)) date 2023-09-06 20:42:40*
%MOMM*%
%LPD*%
G01*
G04 APERTURE LIST*
G04 Aperture macros list*
%AMRoundRect*
0 Rectangle with rounded corners*
0 $1 Rounding radius*
0 $2 $3 $4 $5 $6 $7 $8 $9 X,Y pos of 4 corners*
0 Add a 4 corners polygon primitive as box body*
4,1,4,$2,$3,$4,$5,$6,$7,$8,$9,$2,$3,0*
0 Add four circle primitives for the rounded corners*
1,1,$1+$1,$2,$3*
1,1,$1+$1,$4,$5*
1,1,$1+$1,$6,$7*
1,1,$1+$1,$8,$9*
0 Add four rect primitives between the rounded corners*
20,1,$1+$1,$2,$3,$4,$5,0*
20,1,$1+$1,$4,$5,$6,$7,0*
20,1,$1+$1,$6,$7,$8,$9,0*
20,1,$1+$1,$8,$9,$2,$3,0*%
G04 Aperture macros list end*
%ADD10C,1.602000*%
%ADD11RoundRect,0.250000X0.350000X0.450000X-0.350000X0.450000X-0.350000X-0.450000X0.350000X-0.450000X0*%
%ADD12RoundRect,0.250000X-0.350000X-0.450000X0.350000X-0.450000X0.350000X0.450000X-0.350000X0.450000X0*%
%ADD13C,2.000000*%
%ADD14R,1.000000X1.000000*%
%ADD15R,1.800000X1.800000*%
%ADD16C,1.800000*%
%ADD17R,1.600000X1.600000*%
%ADD18C,1.600000*%
G04 APERTURE END LIST*
D10*
%TO.C,LS1*%
X61800000Y-89400000D03*
X61800000Y-84400000D03*
%TD*%
D11*
%TO.C,R5*%
X64280000Y-58850000D03*
X62280000Y-58850000D03*
%TD*%
%TO.C,R4*%
X149200000Y-63300000D03*
X147200000Y-63300000D03*
%TD*%
%TO.C,R3*%
X135500000Y-63300000D03*
X133500000Y-63300000D03*
%TD*%
%TO.C,R2*%
X124100000Y-63300000D03*
X122100000Y-63300000D03*
%TD*%
D12*
%TO.C,R1*%
X111100000Y-63900000D03*
X113100000Y-63900000D03*
%TD*%
D13*
%TO.C,SW3*%
X131750000Y-90350000D03*
X138250000Y-90350000D03*
X138250000Y-94850000D03*
X131750000Y-94850000D03*
%TD*%
D14*
%TO.C,TP2*%
X103700000Y-60900000D03*
%TD*%
D15*
%TO.C,D2*%
X122125000Y-72100000D03*
D16*
X124665000Y-72100000D03*
%TD*%
D15*
%TO.C,D3*%
X133760000Y-72100000D03*
D16*
X136300000Y-72100000D03*
%TD*%
D17*
%TO.C,U1*%
X82880000Y-65400000D03*
D18*
X82880000Y-67940000D03*
X82880000Y-70480000D03*
X82880000Y-73020000D03*
X82880000Y-75560000D03*
X82880000Y-78100000D03*
X82880000Y-80640000D03*
X82880000Y-83180000D03*
X82880000Y-85720000D03*
X82880000Y-88260000D03*
X82880000Y-90800000D03*
X82880000Y-93340000D03*
X98120000Y-93340000D03*
X98120000Y-90800000D03*
X98120000Y-88260000D03*
X98120000Y-85720000D03*
X98120000Y-83180000D03*
X98120000Y-80640000D03*
X98120000Y-78100000D03*
X98120000Y-75560000D03*
X98120000Y-73020000D03*
X98120000Y-70480000D03*
X98120000Y-67940000D03*
X98120000Y-65400000D03*
%TD*%
D14*
%TO.C,TP1*%
X99100000Y-99400000D03*
%TD*%
D15*
%TO.C,D1*%
X111025000Y-72500000D03*
D16*
X113565000Y-72500000D03*
%TD*%
D15*
%TO.C,D5*%
X72000000Y-57500000D03*
D16*
X69460000Y-57500000D03*
%TD*%
D13*
%TO.C,SW2*%
X126250000Y-90950000D03*
X119750000Y-90950000D03*
X126250000Y-95450000D03*
X119750000Y-95450000D03*
%TD*%
D15*
%TO.C,D4*%
X146925000Y-72100000D03*
D16*
X149465000Y-72100000D03*
%TD*%
D13*
%TO.C,SW1*%
X108150000Y-91250000D03*
X114650000Y-91250000D03*
X108150000Y-95750000D03*
X114650000Y-95750000D03*
%TD*%
%TO.C,SW4*%
X145050000Y-90250000D03*
X151550000Y-90250000D03*
X145050000Y-94750000D03*
X151550000Y-94750000D03*
%TD*%
M02*
