M48
; DRILL file {KiCad (6.0.1)} date Wed Sep  6 20:42:46 2023
; FORMAT={-:-/ absolute / metric / decimal}
; #@! TF.CreationDate,2023-09-06T20:42:46-07:00
; #@! TF.GenerationSoftware,Kicad,Pcbnew,(6.0.1)
; #@! TF.FileFunction,Plated,1,2,PTH
FMAT,2
METRIC
; #@! TA.AperFunction,Plated,PTH,ViaDrill
T1C0.400
; #@! TA.AperFunction,Plated,PTH,ComponentDrill
T2C0.890
; #@! TA.AperFunction,Plated,PTH,ComponentDrill
T3C0.900
; #@! TA.AperFunction,Plated,PTH,ComponentDrill
T4C1.100
%
G90
G05
T1
X102.1Y-82.5
X102.8Y-73.8
X103.7Y-77.6
X117.2Y-70.2
X127.5Y-74.8
X141.0Y-74.4
T2
X61.8Y-84.4
X61.8Y-89.4
T3
X69.46Y-57.5
X72.0Y-57.5
X111.025Y-72.5
X113.565Y-72.5
X122.125Y-72.1
X124.665Y-72.1
X133.76Y-72.1
X136.3Y-72.1
X146.925Y-72.1
X149.465Y-72.1
T4
X82.88Y-65.4
X82.88Y-67.94
X82.88Y-70.48
X82.88Y-73.02
X82.88Y-75.56
X82.88Y-78.1
X82.88Y-80.64
X82.88Y-83.18
X82.88Y-85.72
X82.88Y-88.26
X82.88Y-90.8
X82.88Y-93.34
X98.12Y-65.4
X98.12Y-67.94
X98.12Y-70.48
X98.12Y-73.02
X98.12Y-75.56
X98.12Y-78.1
X98.12Y-80.64
X98.12Y-83.18
X98.12Y-85.72
X98.12Y-88.26
X98.12Y-90.8
X98.12Y-93.34
X108.15Y-91.25
X108.15Y-95.75
X114.65Y-91.25
X114.65Y-95.75
X119.75Y-90.95
X119.75Y-95.45
X126.25Y-90.95
X126.25Y-95.45
X131.75Y-90.35
X131.75Y-94.85
X138.25Y-90.35
X138.25Y-94.85
X145.05Y-90.25
X145.05Y-94.75
X151.55Y-90.25
X151.55Y-94.75
T0
M30
