%TF.GenerationSoftware,KiCad,Pcbnew,(6.0.1)*%
%TF.CreationDate,2023-09-06T20:42:40-07:00*%
%TF.ProjectId,Simon Says,53696d6f-6e20-4536-9179-732e6b696361,rev?*%
%TF.SameCoordinates,Original*%
%TF.FileFunction,Legend,Top*%
%TF.FilePolarity,Positive*%
%FSLAX46Y46*%
G04 Gerber Fmt 4.6, Leading zero omitted, Abs format (unit mm)*
G04 Created by KiCad (PCBNEW (6.0.1)) date 2023-09-06 20:42:40*
%MOMM*%
%LPD*%
G01*
G04 APERTURE LIST*
%ADD10C,0.150000*%
%ADD11C,0.127000*%
%ADD12C,0.120000*%
%ADD13R,1.600000X1.600000*%
%ADD14C,1.600000*%
G04 APERTURE END LIST*
D10*
%TO.C,LS1*%
X61792142Y-95607380D02*
X61315952Y-95607380D01*
X61315952Y-94607380D01*
X62077857Y-95559761D02*
X62220714Y-95607380D01*
X62458809Y-95607380D01*
X62554047Y-95559761D01*
X62601666Y-95512142D01*
X62649285Y-95416904D01*
X62649285Y-95321666D01*
X62601666Y-95226428D01*
X62554047Y-95178809D01*
X62458809Y-95131190D01*
X62268333Y-95083571D01*
X62173095Y-95035952D01*
X62125476Y-94988333D01*
X62077857Y-94893095D01*
X62077857Y-94797857D01*
X62125476Y-94702619D01*
X62173095Y-94655000D01*
X62268333Y-94607380D01*
X62506428Y-94607380D01*
X62649285Y-94655000D01*
X63601666Y-95607380D02*
X63030238Y-95607380D01*
X63315952Y-95607380D02*
X63315952Y-94607380D01*
X63220714Y-94750238D01*
X63125476Y-94845476D01*
X63030238Y-94893095D01*
%TO.C,R5*%
X63113333Y-60952380D02*
X62780000Y-60476190D01*
X62541904Y-60952380D02*
X62541904Y-59952380D01*
X62922857Y-59952380D01*
X63018095Y-60000000D01*
X63065714Y-60047619D01*
X63113333Y-60142857D01*
X63113333Y-60285714D01*
X63065714Y-60380952D01*
X63018095Y-60428571D01*
X62922857Y-60476190D01*
X62541904Y-60476190D01*
X64018095Y-59952380D02*
X63541904Y-59952380D01*
X63494285Y-60428571D01*
X63541904Y-60380952D01*
X63637142Y-60333333D01*
X63875238Y-60333333D01*
X63970476Y-60380952D01*
X64018095Y-60428571D01*
X64065714Y-60523809D01*
X64065714Y-60761904D01*
X64018095Y-60857142D01*
X63970476Y-60904761D01*
X63875238Y-60952380D01*
X63637142Y-60952380D01*
X63541904Y-60904761D01*
X63494285Y-60857142D01*
%TO.C,R4*%
X148033333Y-65402380D02*
X147700000Y-64926190D01*
X147461904Y-65402380D02*
X147461904Y-64402380D01*
X147842857Y-64402380D01*
X147938095Y-64450000D01*
X147985714Y-64497619D01*
X148033333Y-64592857D01*
X148033333Y-64735714D01*
X147985714Y-64830952D01*
X147938095Y-64878571D01*
X147842857Y-64926190D01*
X147461904Y-64926190D01*
X148890476Y-64735714D02*
X148890476Y-65402380D01*
X148652380Y-64354761D02*
X148414285Y-65069047D01*
X149033333Y-65069047D01*
%TO.C,R3*%
X134333333Y-65402380D02*
X134000000Y-64926190D01*
X133761904Y-65402380D02*
X133761904Y-64402380D01*
X134142857Y-64402380D01*
X134238095Y-64450000D01*
X134285714Y-64497619D01*
X134333333Y-64592857D01*
X134333333Y-64735714D01*
X134285714Y-64830952D01*
X134238095Y-64878571D01*
X134142857Y-64926190D01*
X133761904Y-64926190D01*
X134666666Y-64402380D02*
X135285714Y-64402380D01*
X134952380Y-64783333D01*
X135095238Y-64783333D01*
X135190476Y-64830952D01*
X135238095Y-64878571D01*
X135285714Y-64973809D01*
X135285714Y-65211904D01*
X135238095Y-65307142D01*
X135190476Y-65354761D01*
X135095238Y-65402380D01*
X134809523Y-65402380D01*
X134714285Y-65354761D01*
X134666666Y-65307142D01*
%TO.C,R2*%
X122933333Y-65402380D02*
X122600000Y-64926190D01*
X122361904Y-65402380D02*
X122361904Y-64402380D01*
X122742857Y-64402380D01*
X122838095Y-64450000D01*
X122885714Y-64497619D01*
X122933333Y-64592857D01*
X122933333Y-64735714D01*
X122885714Y-64830952D01*
X122838095Y-64878571D01*
X122742857Y-64926190D01*
X122361904Y-64926190D01*
X123314285Y-64497619D02*
X123361904Y-64450000D01*
X123457142Y-64402380D01*
X123695238Y-64402380D01*
X123790476Y-64450000D01*
X123838095Y-64497619D01*
X123885714Y-64592857D01*
X123885714Y-64688095D01*
X123838095Y-64830952D01*
X123266666Y-65402380D01*
X123885714Y-65402380D01*
%TO.C,R1*%
X111933333Y-62702380D02*
X111600000Y-62226190D01*
X111361904Y-62702380D02*
X111361904Y-61702380D01*
X111742857Y-61702380D01*
X111838095Y-61750000D01*
X111885714Y-61797619D01*
X111933333Y-61892857D01*
X111933333Y-62035714D01*
X111885714Y-62130952D01*
X111838095Y-62178571D01*
X111742857Y-62226190D01*
X111361904Y-62226190D01*
X112885714Y-62702380D02*
X112314285Y-62702380D01*
X112600000Y-62702380D02*
X112600000Y-61702380D01*
X112504761Y-61845238D01*
X112409523Y-61940476D01*
X112314285Y-61988095D01*
%TO.C,SW3*%
X133666666Y-88754761D02*
X133809523Y-88802380D01*
X134047619Y-88802380D01*
X134142857Y-88754761D01*
X134190476Y-88707142D01*
X134238095Y-88611904D01*
X134238095Y-88516666D01*
X134190476Y-88421428D01*
X134142857Y-88373809D01*
X134047619Y-88326190D01*
X133857142Y-88278571D01*
X133761904Y-88230952D01*
X133714285Y-88183333D01*
X133666666Y-88088095D01*
X133666666Y-87992857D01*
X133714285Y-87897619D01*
X133761904Y-87850000D01*
X133857142Y-87802380D01*
X134095238Y-87802380D01*
X134238095Y-87850000D01*
X134571428Y-87802380D02*
X134809523Y-88802380D01*
X135000000Y-88088095D01*
X135190476Y-88802380D01*
X135428571Y-87802380D01*
X135714285Y-87802380D02*
X136333333Y-87802380D01*
X136000000Y-88183333D01*
X136142857Y-88183333D01*
X136238095Y-88230952D01*
X136285714Y-88278571D01*
X136333333Y-88373809D01*
X136333333Y-88611904D01*
X136285714Y-88707142D01*
X136238095Y-88754761D01*
X136142857Y-88802380D01*
X135857142Y-88802380D01*
X135761904Y-88754761D01*
X135714285Y-88707142D01*
%TO.C,TP2*%
X102438095Y-58904380D02*
X103009523Y-58904380D01*
X102723809Y-59904380D02*
X102723809Y-58904380D01*
X103342857Y-59904380D02*
X103342857Y-58904380D01*
X103723809Y-58904380D01*
X103819047Y-58952000D01*
X103866666Y-58999619D01*
X103914285Y-59094857D01*
X103914285Y-59237714D01*
X103866666Y-59332952D01*
X103819047Y-59380571D01*
X103723809Y-59428190D01*
X103342857Y-59428190D01*
X104295238Y-58999619D02*
X104342857Y-58952000D01*
X104438095Y-58904380D01*
X104676190Y-58904380D01*
X104771428Y-58952000D01*
X104819047Y-58999619D01*
X104866666Y-59094857D01*
X104866666Y-59190095D01*
X104819047Y-59332952D01*
X104247619Y-59904380D01*
X104866666Y-59904380D01*
%TO.C,D2*%
X122656904Y-68542380D02*
X122656904Y-67542380D01*
X122895000Y-67542380D01*
X123037857Y-67590000D01*
X123133095Y-67685238D01*
X123180714Y-67780476D01*
X123228333Y-67970952D01*
X123228333Y-68113809D01*
X123180714Y-68304285D01*
X123133095Y-68399523D01*
X123037857Y-68494761D01*
X122895000Y-68542380D01*
X122656904Y-68542380D01*
X123609285Y-67637619D02*
X123656904Y-67590000D01*
X123752142Y-67542380D01*
X123990238Y-67542380D01*
X124085476Y-67590000D01*
X124133095Y-67637619D01*
X124180714Y-67732857D01*
X124180714Y-67828095D01*
X124133095Y-67970952D01*
X123561666Y-68542380D01*
X124180714Y-68542380D01*
%TO.C,D3*%
X134291904Y-68542380D02*
X134291904Y-67542380D01*
X134530000Y-67542380D01*
X134672857Y-67590000D01*
X134768095Y-67685238D01*
X134815714Y-67780476D01*
X134863333Y-67970952D01*
X134863333Y-68113809D01*
X134815714Y-68304285D01*
X134768095Y-68399523D01*
X134672857Y-68494761D01*
X134530000Y-68542380D01*
X134291904Y-68542380D01*
X135196666Y-67542380D02*
X135815714Y-67542380D01*
X135482380Y-67923333D01*
X135625238Y-67923333D01*
X135720476Y-67970952D01*
X135768095Y-68018571D01*
X135815714Y-68113809D01*
X135815714Y-68351904D01*
X135768095Y-68447142D01*
X135720476Y-68494761D01*
X135625238Y-68542380D01*
X135339523Y-68542380D01*
X135244285Y-68494761D01*
X135196666Y-68447142D01*
%TO.C,TP1*%
X97838095Y-97404380D02*
X98409523Y-97404380D01*
X98123809Y-98404380D02*
X98123809Y-97404380D01*
X98742857Y-98404380D02*
X98742857Y-97404380D01*
X99123809Y-97404380D01*
X99219047Y-97452000D01*
X99266666Y-97499619D01*
X99314285Y-97594857D01*
X99314285Y-97737714D01*
X99266666Y-97832952D01*
X99219047Y-97880571D01*
X99123809Y-97928190D01*
X98742857Y-97928190D01*
X100266666Y-98404380D02*
X99695238Y-98404380D01*
X99980952Y-98404380D02*
X99980952Y-97404380D01*
X99885714Y-97547238D01*
X99790476Y-97642476D01*
X99695238Y-97690095D01*
%TO.C,D1*%
X111556904Y-68942380D02*
X111556904Y-67942380D01*
X111795000Y-67942380D01*
X111937857Y-67990000D01*
X112033095Y-68085238D01*
X112080714Y-68180476D01*
X112128333Y-68370952D01*
X112128333Y-68513809D01*
X112080714Y-68704285D01*
X112033095Y-68799523D01*
X111937857Y-68894761D01*
X111795000Y-68942380D01*
X111556904Y-68942380D01*
X113080714Y-68942380D02*
X112509285Y-68942380D01*
X112795000Y-68942380D02*
X112795000Y-67942380D01*
X112699761Y-68085238D01*
X112604523Y-68180476D01*
X112509285Y-68228095D01*
%TO.C,D5*%
X69991904Y-61962380D02*
X69991904Y-60962380D01*
X70230000Y-60962380D01*
X70372857Y-61010000D01*
X70468095Y-61105238D01*
X70515714Y-61200476D01*
X70563333Y-61390952D01*
X70563333Y-61533809D01*
X70515714Y-61724285D01*
X70468095Y-61819523D01*
X70372857Y-61914761D01*
X70230000Y-61962380D01*
X69991904Y-61962380D01*
X71468095Y-60962380D02*
X70991904Y-60962380D01*
X70944285Y-61438571D01*
X70991904Y-61390952D01*
X71087142Y-61343333D01*
X71325238Y-61343333D01*
X71420476Y-61390952D01*
X71468095Y-61438571D01*
X71515714Y-61533809D01*
X71515714Y-61771904D01*
X71468095Y-61867142D01*
X71420476Y-61914761D01*
X71325238Y-61962380D01*
X71087142Y-61962380D01*
X70991904Y-61914761D01*
X70944285Y-61867142D01*
%TO.C,SW2*%
X121666666Y-89354761D02*
X121809523Y-89402380D01*
X122047619Y-89402380D01*
X122142857Y-89354761D01*
X122190476Y-89307142D01*
X122238095Y-89211904D01*
X122238095Y-89116666D01*
X122190476Y-89021428D01*
X122142857Y-88973809D01*
X122047619Y-88926190D01*
X121857142Y-88878571D01*
X121761904Y-88830952D01*
X121714285Y-88783333D01*
X121666666Y-88688095D01*
X121666666Y-88592857D01*
X121714285Y-88497619D01*
X121761904Y-88450000D01*
X121857142Y-88402380D01*
X122095238Y-88402380D01*
X122238095Y-88450000D01*
X122571428Y-88402380D02*
X122809523Y-89402380D01*
X123000000Y-88688095D01*
X123190476Y-89402380D01*
X123428571Y-88402380D01*
X123761904Y-88497619D02*
X123809523Y-88450000D01*
X123904761Y-88402380D01*
X124142857Y-88402380D01*
X124238095Y-88450000D01*
X124285714Y-88497619D01*
X124333333Y-88592857D01*
X124333333Y-88688095D01*
X124285714Y-88830952D01*
X123714285Y-89402380D01*
X124333333Y-89402380D01*
%TO.C,D4*%
X147456904Y-68542380D02*
X147456904Y-67542380D01*
X147695000Y-67542380D01*
X147837857Y-67590000D01*
X147933095Y-67685238D01*
X147980714Y-67780476D01*
X148028333Y-67970952D01*
X148028333Y-68113809D01*
X147980714Y-68304285D01*
X147933095Y-68399523D01*
X147837857Y-68494761D01*
X147695000Y-68542380D01*
X147456904Y-68542380D01*
X148885476Y-67875714D02*
X148885476Y-68542380D01*
X148647380Y-67494761D02*
X148409285Y-68209047D01*
X149028333Y-68209047D01*
%TO.C,SW1*%
X110066666Y-89654761D02*
X110209523Y-89702380D01*
X110447619Y-89702380D01*
X110542857Y-89654761D01*
X110590476Y-89607142D01*
X110638095Y-89511904D01*
X110638095Y-89416666D01*
X110590476Y-89321428D01*
X110542857Y-89273809D01*
X110447619Y-89226190D01*
X110257142Y-89178571D01*
X110161904Y-89130952D01*
X110114285Y-89083333D01*
X110066666Y-88988095D01*
X110066666Y-88892857D01*
X110114285Y-88797619D01*
X110161904Y-88750000D01*
X110257142Y-88702380D01*
X110495238Y-88702380D01*
X110638095Y-88750000D01*
X110971428Y-88702380D02*
X111209523Y-89702380D01*
X111400000Y-88988095D01*
X111590476Y-89702380D01*
X111828571Y-88702380D01*
X112733333Y-89702380D02*
X112161904Y-89702380D01*
X112447619Y-89702380D02*
X112447619Y-88702380D01*
X112352380Y-88845238D01*
X112257142Y-88940476D01*
X112161904Y-88988095D01*
%TO.C,SW4*%
X146966666Y-88654761D02*
X147109523Y-88702380D01*
X147347619Y-88702380D01*
X147442857Y-88654761D01*
X147490476Y-88607142D01*
X147538095Y-88511904D01*
X147538095Y-88416666D01*
X147490476Y-88321428D01*
X147442857Y-88273809D01*
X147347619Y-88226190D01*
X147157142Y-88178571D01*
X147061904Y-88130952D01*
X147014285Y-88083333D01*
X146966666Y-87988095D01*
X146966666Y-87892857D01*
X147014285Y-87797619D01*
X147061904Y-87750000D01*
X147157142Y-87702380D01*
X147395238Y-87702380D01*
X147538095Y-87750000D01*
X147871428Y-87702380D02*
X148109523Y-88702380D01*
X148300000Y-87988095D01*
X148490476Y-88702380D01*
X148728571Y-87702380D01*
X149538095Y-88035714D02*
X149538095Y-88702380D01*
X149300000Y-87654761D02*
X149061904Y-88369047D01*
X149680952Y-88369047D01*
D11*
%TO.C,LS1*%
X68800000Y-86900000D02*
G75*
G03*
X68800000Y-86900000I-7000000J0D01*
G01*
D12*
%TO.C,R5*%
X63507064Y-59585000D02*
X63052936Y-59585000D01*
X63507064Y-58115000D02*
X63052936Y-58115000D01*
%TO.C,R4*%
X148427064Y-64035000D02*
X147972936Y-64035000D01*
X148427064Y-62565000D02*
X147972936Y-62565000D01*
%TO.C,R3*%
X134727064Y-64035000D02*
X134272936Y-64035000D01*
X134727064Y-62565000D02*
X134272936Y-62565000D01*
%TO.C,R2*%
X123327064Y-64035000D02*
X122872936Y-64035000D01*
X123327064Y-62565000D02*
X122872936Y-62565000D01*
%TO.C,R1*%
X111872936Y-63165000D02*
X112327064Y-63165000D01*
X111872936Y-64635000D02*
X112327064Y-64635000D01*
%TO.C,SW3*%
X138500000Y-93350000D02*
X138500000Y-91850000D01*
X137250000Y-89350000D02*
X132750000Y-89350000D01*
X131500000Y-91850000D02*
X131500000Y-93350000D01*
X132750000Y-95850000D02*
X137250000Y-95850000D01*
%TO.C,TP2*%
X104400000Y-60200000D02*
X104400000Y-61600000D01*
X103000000Y-61600000D02*
X103000000Y-60200000D01*
X104400000Y-61600000D02*
X103000000Y-61600000D01*
X103000000Y-60200000D02*
X104400000Y-60200000D01*
%TO.C,D2*%
X120835000Y-70460000D02*
X120835000Y-73740000D01*
X126434999Y-72101958D02*
G75*
G03*
X120835000Y-70460488I-3039999J1958D01*
G01*
X120835000Y-73739512D02*
G75*
G03*
X126434999Y-72098042I2560000J1639512D01*
G01*
X125895000Y-72100000D02*
G75*
G03*
X125895000Y-72100000I-2500000J0D01*
G01*
%TO.C,D3*%
X132470000Y-70460000D02*
X132470000Y-73740000D01*
X132470000Y-73739512D02*
G75*
G03*
X138069999Y-72098042I2560000J1639512D01*
G01*
X138069999Y-72101958D02*
G75*
G03*
X132470000Y-70460488I-3039999J1958D01*
G01*
X137530000Y-72100000D02*
G75*
G03*
X137530000Y-72100000I-2500000J0D01*
G01*
D10*
%TO.C,U1*%
X86690000Y-61590000D02*
X94310000Y-61590000D01*
X94310000Y-64130000D02*
X99390000Y-64130000D01*
X86690000Y-64130000D02*
X86690000Y-61590000D01*
X81610000Y-64130000D02*
X81610000Y-94610000D01*
X99390000Y-94610000D02*
X81610000Y-94610000D01*
X94310000Y-61590000D02*
X94310000Y-64130000D01*
X81610000Y-64130000D02*
X86690000Y-64130000D01*
X99390000Y-64130000D02*
X99390000Y-94610000D01*
D12*
%TO.C,TP1*%
X98400000Y-98700000D02*
X99800000Y-98700000D01*
X99800000Y-98700000D02*
X99800000Y-100100000D01*
X98400000Y-100100000D02*
X98400000Y-98700000D01*
X99800000Y-100100000D02*
X98400000Y-100100000D01*
%TO.C,D1*%
X109735000Y-70860000D02*
X109735000Y-74140000D01*
X115334999Y-72501958D02*
G75*
G03*
X109735000Y-70860488I-3039999J1958D01*
G01*
X109735000Y-74139512D02*
G75*
G03*
X115334999Y-72498042I2560000J1639512D01*
G01*
X114795000Y-72500000D02*
G75*
G03*
X114795000Y-72500000I-2500000J0D01*
G01*
%TO.C,D5*%
X73290000Y-59140000D02*
X73290000Y-55860000D01*
X67690001Y-57498042D02*
G75*
G03*
X73290000Y-59139512I3039999J-1958D01*
G01*
X73290000Y-55860488D02*
G75*
G03*
X67690001Y-57501958I-2560000J-1639512D01*
G01*
X73230000Y-57500000D02*
G75*
G03*
X73230000Y-57500000I-2500000J0D01*
G01*
%TO.C,SW2*%
X126500000Y-93950000D02*
X126500000Y-92450000D01*
X119500000Y-92450000D02*
X119500000Y-93950000D01*
X125250000Y-89950000D02*
X120750000Y-89950000D01*
X120750000Y-96450000D02*
X125250000Y-96450000D01*
%TO.C,D4*%
X145635000Y-70460000D02*
X145635000Y-73740000D01*
X145635000Y-73739512D02*
G75*
G03*
X151234999Y-72098042I2560000J1639512D01*
G01*
X151234999Y-72101958D02*
G75*
G03*
X145635000Y-70460488I-3039999J1958D01*
G01*
X150695000Y-72100000D02*
G75*
G03*
X150695000Y-72100000I-2500000J0D01*
G01*
%TO.C,SW1*%
X109150000Y-96750000D02*
X113650000Y-96750000D01*
X113650000Y-90250000D02*
X109150000Y-90250000D01*
X107900000Y-92750000D02*
X107900000Y-94250000D01*
X114900000Y-94250000D02*
X114900000Y-92750000D01*
%TO.C,SW4*%
X150550000Y-89250000D02*
X146050000Y-89250000D01*
X146050000Y-95750000D02*
X150550000Y-95750000D01*
X144800000Y-91750000D02*
X144800000Y-93250000D01*
X151800000Y-93250000D02*
X151800000Y-91750000D01*
%TD*%
D13*
%TO.C,U1*%
X82880000Y-65400000D03*
D14*
X82880000Y-67940000D03*
X82880000Y-70480000D03*
X82880000Y-73020000D03*
X82880000Y-75560000D03*
X82880000Y-78100000D03*
X82880000Y-80640000D03*
X82880000Y-83180000D03*
X82880000Y-85720000D03*
X82880000Y-88260000D03*
X82880000Y-90800000D03*
X82880000Y-93340000D03*
X98120000Y-93340000D03*
X98120000Y-90800000D03*
X98120000Y-88260000D03*
X98120000Y-85720000D03*
X98120000Y-83180000D03*
X98120000Y-80640000D03*
X98120000Y-78100000D03*
X98120000Y-75560000D03*
X98120000Y-73020000D03*
X98120000Y-70480000D03*
X98120000Y-67940000D03*
X98120000Y-65400000D03*
%TD*%
M02*
