G04 EAGLE Gerber RS-274X export*
G75*
%MOMM*%
%FSLAX34Y34*%
%LPD*%
%IN*%
%IPPOS*%
%AMOC8*
5,1,8,0,0,1.08239X$1,22.5*%
G01*
%ADD10C,0.254000*%


D10*
X0Y0D02*
X1289050Y0D01*
X1289050Y1085850D01*
X0Y1085850D01*
X0Y0D01*
X270510Y203930D02*
X270439Y202851D01*
X270298Y201779D01*
X270087Y200719D01*
X269808Y199675D01*
X269460Y198651D01*
X269046Y197653D01*
X268568Y196683D01*
X268028Y195747D01*
X267427Y194848D01*
X266769Y193991D01*
X266057Y193178D01*
X265292Y192414D01*
X264479Y191701D01*
X263622Y191043D01*
X262723Y190442D01*
X261787Y189902D01*
X260817Y189424D01*
X259819Y189010D01*
X258795Y188662D01*
X257751Y188383D01*
X256691Y188172D01*
X255619Y188031D01*
X254540Y187960D01*
X253460Y187960D01*
X252381Y188031D01*
X251309Y188172D01*
X250249Y188383D01*
X249205Y188662D01*
X248181Y189010D01*
X247183Y189424D01*
X246213Y189902D01*
X245277Y190442D01*
X244378Y191043D01*
X243521Y191701D01*
X242708Y192414D01*
X241944Y193178D01*
X241231Y193991D01*
X240573Y194848D01*
X239972Y195747D01*
X239432Y196683D01*
X238954Y197653D01*
X238540Y198651D01*
X238192Y199675D01*
X237913Y200719D01*
X237702Y201779D01*
X237561Y202851D01*
X237490Y203930D01*
X237490Y205010D01*
X237561Y206089D01*
X237702Y207161D01*
X237913Y208221D01*
X238192Y209265D01*
X238540Y210289D01*
X238954Y211287D01*
X239432Y212257D01*
X239972Y213193D01*
X240573Y214092D01*
X241231Y214949D01*
X241944Y215762D01*
X242708Y216527D01*
X243521Y217239D01*
X244378Y217897D01*
X245277Y218498D01*
X246213Y219038D01*
X247183Y219516D01*
X248181Y219930D01*
X249205Y220278D01*
X250249Y220557D01*
X251309Y220768D01*
X252381Y220909D01*
X253460Y220980D01*
X254540Y220980D01*
X255619Y220909D01*
X256691Y220768D01*
X257751Y220557D01*
X258795Y220278D01*
X259819Y219930D01*
X260817Y219516D01*
X261787Y219038D01*
X262723Y218498D01*
X263622Y217897D01*
X264479Y217239D01*
X265292Y216527D01*
X266057Y215762D01*
X266769Y214949D01*
X267427Y214092D01*
X268028Y213193D01*
X268568Y212257D01*
X269046Y211287D01*
X269460Y210289D01*
X269808Y209265D01*
X270087Y208221D01*
X270298Y207161D01*
X270439Y206089D01*
X270510Y205010D01*
X270510Y203930D01*
X1057656Y201898D02*
X1057585Y200819D01*
X1057444Y199747D01*
X1057233Y198687D01*
X1056954Y197643D01*
X1056606Y196619D01*
X1056192Y195621D01*
X1055714Y194651D01*
X1055174Y193715D01*
X1054573Y192816D01*
X1053915Y191959D01*
X1053203Y191146D01*
X1052438Y190382D01*
X1051625Y189669D01*
X1050768Y189011D01*
X1049869Y188410D01*
X1048933Y187870D01*
X1047963Y187392D01*
X1046965Y186978D01*
X1045941Y186630D01*
X1044897Y186351D01*
X1043837Y186140D01*
X1042765Y185999D01*
X1041686Y185928D01*
X1040606Y185928D01*
X1039527Y185999D01*
X1038455Y186140D01*
X1037395Y186351D01*
X1036351Y186630D01*
X1035327Y186978D01*
X1034329Y187392D01*
X1033359Y187870D01*
X1032423Y188410D01*
X1031524Y189011D01*
X1030667Y189669D01*
X1029854Y190382D01*
X1029090Y191146D01*
X1028377Y191959D01*
X1027719Y192816D01*
X1027118Y193715D01*
X1026578Y194651D01*
X1026100Y195621D01*
X1025686Y196619D01*
X1025338Y197643D01*
X1025059Y198687D01*
X1024848Y199747D01*
X1024707Y200819D01*
X1024636Y201898D01*
X1024636Y202978D01*
X1024707Y204057D01*
X1024848Y205129D01*
X1025059Y206189D01*
X1025338Y207233D01*
X1025686Y208257D01*
X1026100Y209255D01*
X1026578Y210225D01*
X1027118Y211161D01*
X1027719Y212060D01*
X1028377Y212917D01*
X1029090Y213730D01*
X1029854Y214495D01*
X1030667Y215207D01*
X1031524Y215865D01*
X1032423Y216466D01*
X1033359Y217006D01*
X1034329Y217484D01*
X1035327Y217898D01*
X1036351Y218246D01*
X1037395Y218525D01*
X1038455Y218736D01*
X1039527Y218877D01*
X1040606Y218948D01*
X1041686Y218948D01*
X1042765Y218877D01*
X1043837Y218736D01*
X1044897Y218525D01*
X1045941Y218246D01*
X1046965Y217898D01*
X1047963Y217484D01*
X1048933Y217006D01*
X1049869Y216466D01*
X1050768Y215865D01*
X1051625Y215207D01*
X1052438Y214495D01*
X1053203Y213730D01*
X1053915Y212917D01*
X1054573Y212060D01*
X1055174Y211161D01*
X1055714Y210225D01*
X1056192Y209255D01*
X1056606Y208257D01*
X1056954Y207233D01*
X1057233Y206189D01*
X1057444Y205129D01*
X1057585Y204057D01*
X1057656Y202978D01*
X1057656Y201898D01*
X1056640Y887190D02*
X1056569Y886111D01*
X1056428Y885039D01*
X1056217Y883979D01*
X1055938Y882935D01*
X1055590Y881911D01*
X1055176Y880913D01*
X1054698Y879943D01*
X1054158Y879007D01*
X1053557Y878108D01*
X1052899Y877251D01*
X1052187Y876438D01*
X1051422Y875674D01*
X1050609Y874961D01*
X1049752Y874303D01*
X1048853Y873702D01*
X1047917Y873162D01*
X1046947Y872684D01*
X1045949Y872270D01*
X1044925Y871922D01*
X1043881Y871643D01*
X1042821Y871432D01*
X1041749Y871291D01*
X1040670Y871220D01*
X1039590Y871220D01*
X1038511Y871291D01*
X1037439Y871432D01*
X1036379Y871643D01*
X1035335Y871922D01*
X1034311Y872270D01*
X1033313Y872684D01*
X1032343Y873162D01*
X1031407Y873702D01*
X1030508Y874303D01*
X1029651Y874961D01*
X1028838Y875674D01*
X1028074Y876438D01*
X1027361Y877251D01*
X1026703Y878108D01*
X1026102Y879007D01*
X1025562Y879943D01*
X1025084Y880913D01*
X1024670Y881911D01*
X1024322Y882935D01*
X1024043Y883979D01*
X1023832Y885039D01*
X1023691Y886111D01*
X1023620Y887190D01*
X1023620Y888270D01*
X1023691Y889349D01*
X1023832Y890421D01*
X1024043Y891481D01*
X1024322Y892525D01*
X1024670Y893549D01*
X1025084Y894547D01*
X1025562Y895517D01*
X1026102Y896453D01*
X1026703Y897352D01*
X1027361Y898209D01*
X1028074Y899022D01*
X1028838Y899787D01*
X1029651Y900499D01*
X1030508Y901157D01*
X1031407Y901758D01*
X1032343Y902298D01*
X1033313Y902776D01*
X1034311Y903190D01*
X1035335Y903538D01*
X1036379Y903817D01*
X1037439Y904028D01*
X1038511Y904169D01*
X1039590Y904240D01*
X1040670Y904240D01*
X1041749Y904169D01*
X1042821Y904028D01*
X1043881Y903817D01*
X1044925Y903538D01*
X1045949Y903190D01*
X1046947Y902776D01*
X1047917Y902298D01*
X1048853Y901758D01*
X1049752Y901157D01*
X1050609Y900499D01*
X1051422Y899787D01*
X1052187Y899022D01*
X1052899Y898209D01*
X1053557Y897352D01*
X1054158Y896453D01*
X1054698Y895517D01*
X1055176Y894547D01*
X1055590Y893549D01*
X1055938Y892525D01*
X1056217Y891481D01*
X1056428Y890421D01*
X1056569Y889349D01*
X1056640Y888270D01*
X1056640Y887190D01*
X270764Y887698D02*
X270693Y886619D01*
X270552Y885547D01*
X270341Y884487D01*
X270062Y883443D01*
X269714Y882419D01*
X269300Y881421D01*
X268822Y880451D01*
X268282Y879515D01*
X267681Y878616D01*
X267023Y877759D01*
X266311Y876946D01*
X265546Y876182D01*
X264733Y875469D01*
X263876Y874811D01*
X262977Y874210D01*
X262041Y873670D01*
X261071Y873192D01*
X260073Y872778D01*
X259049Y872430D01*
X258005Y872151D01*
X256945Y871940D01*
X255873Y871799D01*
X254794Y871728D01*
X253714Y871728D01*
X252635Y871799D01*
X251563Y871940D01*
X250503Y872151D01*
X249459Y872430D01*
X248435Y872778D01*
X247437Y873192D01*
X246467Y873670D01*
X245531Y874210D01*
X244632Y874811D01*
X243775Y875469D01*
X242962Y876182D01*
X242198Y876946D01*
X241485Y877759D01*
X240827Y878616D01*
X240226Y879515D01*
X239686Y880451D01*
X239208Y881421D01*
X238794Y882419D01*
X238446Y883443D01*
X238167Y884487D01*
X237956Y885547D01*
X237815Y886619D01*
X237744Y887698D01*
X237744Y888778D01*
X237815Y889857D01*
X237956Y890929D01*
X238167Y891989D01*
X238446Y893033D01*
X238794Y894057D01*
X239208Y895055D01*
X239686Y896025D01*
X240226Y896961D01*
X240827Y897860D01*
X241485Y898717D01*
X242198Y899530D01*
X242962Y900295D01*
X243775Y901007D01*
X244632Y901665D01*
X245531Y902266D01*
X246467Y902806D01*
X247437Y903284D01*
X248435Y903698D01*
X249459Y904046D01*
X250503Y904325D01*
X251563Y904536D01*
X252635Y904677D01*
X253714Y904748D01*
X254794Y904748D01*
X255873Y904677D01*
X256945Y904536D01*
X258005Y904325D01*
X259049Y904046D01*
X260073Y903698D01*
X261071Y903284D01*
X262041Y902806D01*
X262977Y902266D01*
X263876Y901665D01*
X264733Y901007D01*
X265546Y900295D01*
X266311Y899530D01*
X267023Y898717D01*
X267681Y897860D01*
X268282Y896961D01*
X268822Y896025D01*
X269300Y895055D01*
X269714Y894057D01*
X270062Y893033D01*
X270341Y891989D01*
X270552Y890929D01*
X270693Y889857D01*
X270764Y888778D01*
X270764Y887698D01*
M02*
