G04 EAGLE Gerber RS-274X export*
G75*
%MOMM*%
%FSLAX34Y34*%
%LPD*%
%INSoldermask Top*%
%IPPOS*%
%AMOC8*
5,1,8,0,0,1.08239X$1,22.5*%
G01*
%ADD10R,1.354000X1.254000*%
%ADD11R,1.559597X2.053997*%
%ADD12C,2.133600*%
%ADD13C,1.930400*%
%ADD14C,2.895600*%
%ADD15R,2.463800X0.762000*%
%ADD16R,2.641600X3.352800*%
%ADD17C,0.909600*%
%ADD18R,1.254000X1.354000*%
%ADD19R,0.904000X1.054000*%
%ADD20R,0.804000X1.054000*%
%ADD21C,4.445000*%
%ADD22R,0.952400X0.452400*%
%ADD23R,0.452400X0.952400*%
%ADD24R,1.000000X1.000000*%
%ADD25R,0.954000X1.154000*%
%ADD26R,1.154000X0.954000*%
%ADD27R,3.254000X1.254000*%
%ADD28R,1.498600X1.651000*%
%ADD29R,2.159000X2.794000*%
%ADD30C,3.556000*%

G36*
X806575Y625854D02*
X806575Y625854D01*
X806573Y625855D01*
X806530Y625835D01*
X806486Y625817D01*
X806486Y625815D01*
X806484Y625814D01*
X806451Y625729D01*
X806451Y593471D01*
X806452Y593469D01*
X806451Y593467D01*
X806471Y593424D01*
X806489Y593380D01*
X806491Y593380D01*
X806492Y593378D01*
X806577Y593345D01*
X831723Y593345D01*
X831725Y593346D01*
X831727Y593345D01*
X831770Y593365D01*
X831814Y593383D01*
X831814Y593385D01*
X831816Y593386D01*
X831849Y593471D01*
X831849Y625729D01*
X831848Y625731D01*
X831849Y625733D01*
X831829Y625776D01*
X831811Y625820D01*
X831809Y625820D01*
X831808Y625822D01*
X831723Y625855D01*
X806577Y625855D01*
X806575Y625854D01*
G37*
G36*
X831725Y364746D02*
X831725Y364746D01*
X831727Y364745D01*
X831770Y364765D01*
X831814Y364783D01*
X831814Y364785D01*
X831816Y364786D01*
X831849Y364871D01*
X831849Y397129D01*
X831848Y397131D01*
X831849Y397133D01*
X831829Y397176D01*
X831811Y397220D01*
X831809Y397220D01*
X831808Y397222D01*
X831723Y397255D01*
X806577Y397255D01*
X806575Y397254D01*
X806573Y397255D01*
X806530Y397235D01*
X806486Y397217D01*
X806486Y397215D01*
X806484Y397214D01*
X806451Y397129D01*
X806451Y364871D01*
X806452Y364869D01*
X806451Y364867D01*
X806471Y364824D01*
X806489Y364780D01*
X806491Y364780D01*
X806492Y364778D01*
X806577Y364745D01*
X831723Y364745D01*
X831725Y364746D01*
G37*
%LPC*%
G36*
X809402Y615600D02*
X809402Y615600D01*
X809402Y619348D01*
X813150Y619348D01*
X813150Y615600D01*
X809402Y615600D01*
G37*
%LPD*%
%LPC*%
G36*
X817276Y615600D02*
X817276Y615600D01*
X817276Y619348D01*
X821024Y619348D01*
X821024Y615600D01*
X817276Y615600D01*
G37*
%LPD*%
%LPC*%
G36*
X825150Y615600D02*
X825150Y615600D01*
X825150Y619348D01*
X828898Y619348D01*
X828898Y615600D01*
X825150Y615600D01*
G37*
%LPD*%
%LPC*%
G36*
X809402Y607726D02*
X809402Y607726D01*
X809402Y611474D01*
X813150Y611474D01*
X813150Y607726D01*
X809402Y607726D01*
G37*
%LPD*%
%LPC*%
G36*
X825150Y607726D02*
X825150Y607726D01*
X825150Y611474D01*
X828898Y611474D01*
X828898Y607726D01*
X825150Y607726D01*
G37*
%LPD*%
%LPC*%
G36*
X817276Y607726D02*
X817276Y607726D01*
X817276Y611474D01*
X821024Y611474D01*
X821024Y607726D01*
X817276Y607726D01*
G37*
%LPD*%
%LPC*%
G36*
X809402Y599852D02*
X809402Y599852D01*
X809402Y603600D01*
X813150Y603600D01*
X813150Y599852D01*
X809402Y599852D01*
G37*
%LPD*%
%LPC*%
G36*
X817276Y599852D02*
X817276Y599852D01*
X817276Y603600D01*
X821024Y603600D01*
X821024Y599852D01*
X817276Y599852D01*
G37*
%LPD*%
%LPC*%
G36*
X825150Y599852D02*
X825150Y599852D01*
X825150Y603600D01*
X828898Y603600D01*
X828898Y599852D01*
X825150Y599852D01*
G37*
%LPD*%
%LPC*%
G36*
X809402Y387000D02*
X809402Y387000D01*
X809402Y390748D01*
X813150Y390748D01*
X813150Y387000D01*
X809402Y387000D01*
G37*
%LPD*%
%LPC*%
G36*
X817276Y387000D02*
X817276Y387000D01*
X817276Y390748D01*
X821024Y390748D01*
X821024Y387000D01*
X817276Y387000D01*
G37*
%LPD*%
%LPC*%
G36*
X825150Y387000D02*
X825150Y387000D01*
X825150Y390748D01*
X828898Y390748D01*
X828898Y387000D01*
X825150Y387000D01*
G37*
%LPD*%
%LPC*%
G36*
X809402Y379126D02*
X809402Y379126D01*
X809402Y382874D01*
X813150Y382874D01*
X813150Y379126D01*
X809402Y379126D01*
G37*
%LPD*%
%LPC*%
G36*
X825150Y379126D02*
X825150Y379126D01*
X825150Y382874D01*
X828898Y382874D01*
X828898Y379126D01*
X825150Y379126D01*
G37*
%LPD*%
%LPC*%
G36*
X817276Y379126D02*
X817276Y379126D01*
X817276Y382874D01*
X821024Y382874D01*
X821024Y379126D01*
X817276Y379126D01*
G37*
%LPD*%
%LPC*%
G36*
X817276Y371252D02*
X817276Y371252D01*
X817276Y375000D01*
X821024Y375000D01*
X821024Y371252D01*
X817276Y371252D01*
G37*
%LPD*%
%LPC*%
G36*
X825150Y371252D02*
X825150Y371252D01*
X825150Y375000D01*
X828898Y375000D01*
X828898Y371252D01*
X825150Y371252D01*
G37*
%LPD*%
%LPC*%
G36*
X809402Y371252D02*
X809402Y371252D01*
X809402Y375000D01*
X813150Y375000D01*
X813150Y371252D01*
X809402Y371252D01*
G37*
%LPD*%
D10*
X827650Y304800D03*
X810650Y304800D03*
D11*
X833178Y254000D03*
X805122Y254000D03*
D10*
X827650Y558800D03*
X810650Y558800D03*
D11*
X833178Y508000D03*
X805122Y508000D03*
D10*
X565540Y396240D03*
X582540Y396240D03*
X480450Y396240D03*
X497450Y396240D03*
X509896Y640842D03*
X492896Y640842D03*
X366150Y553720D03*
X383150Y553720D03*
D12*
X407670Y87630D03*
X433070Y87630D03*
X458470Y87630D03*
X483870Y87630D03*
X584200Y87630D03*
X609600Y87630D03*
X635000Y87630D03*
X660400Y87630D03*
D13*
X155062Y559000D03*
X155062Y584000D03*
X135250Y584000D03*
X135250Y559000D03*
D14*
X108072Y511302D03*
X108072Y631698D03*
D13*
X190500Y72390D03*
X215900Y72390D03*
X241300Y72390D03*
X190500Y97790D03*
X215900Y97790D03*
X241300Y97790D03*
D15*
X790400Y628650D03*
X790400Y615950D03*
X790400Y603250D03*
X790400Y590550D03*
X847900Y590550D03*
X847900Y603250D03*
X847900Y615950D03*
X847900Y628650D03*
D16*
X819150Y609600D03*
D17*
X811530Y619760D03*
X826770Y619760D03*
X811530Y609600D03*
X826770Y609600D03*
X811530Y599440D03*
X826770Y599440D03*
D15*
X790400Y400050D03*
X790400Y387350D03*
X790400Y374650D03*
X790400Y361950D03*
X847900Y361950D03*
X847900Y374650D03*
X847900Y387350D03*
X847900Y400050D03*
D16*
X819150Y381000D03*
D17*
X811530Y391160D03*
X826770Y391160D03*
X811530Y381000D03*
X826770Y381000D03*
X811530Y370840D03*
X826770Y370840D03*
D18*
X733180Y590550D03*
X750180Y590550D03*
X728100Y361950D03*
X745100Y361950D03*
X494910Y502920D03*
X477910Y502920D03*
D19*
X565150Y809000D03*
D20*
X556400Y809000D03*
X548400Y809000D03*
D19*
X565150Y826000D03*
D20*
X556400Y826000D03*
D19*
X539650Y809000D03*
D20*
X548400Y826000D03*
D19*
X539650Y826000D03*
X561340Y313700D03*
D20*
X552590Y313700D03*
X544590Y313700D03*
D19*
X561340Y330700D03*
D20*
X552590Y330700D03*
D19*
X535840Y313700D03*
D20*
X544590Y330700D03*
D19*
X535840Y330700D03*
D18*
X367420Y614680D03*
X384420Y614680D03*
X366150Y584200D03*
X383150Y584200D03*
D10*
X692150Y809380D03*
X692150Y826380D03*
D21*
X1235710Y730250D03*
X1235710Y651510D03*
X1235710Y454660D03*
X1235710Y375920D03*
D22*
X505750Y596500D03*
X505750Y591500D03*
X505750Y586500D03*
X505750Y581500D03*
X505750Y576500D03*
X505750Y571500D03*
X505750Y566500D03*
X505750Y561500D03*
X505750Y556500D03*
X505750Y551500D03*
X505750Y546500D03*
D23*
X514750Y537500D03*
X519750Y537500D03*
X524750Y537500D03*
X529750Y537500D03*
X534750Y537500D03*
X539750Y537500D03*
X544750Y537500D03*
X549750Y537500D03*
X554750Y537500D03*
X559750Y537500D03*
X564750Y537500D03*
D22*
X573750Y546500D03*
X573750Y551500D03*
X573750Y556500D03*
X573750Y561500D03*
X573750Y566500D03*
X573750Y571500D03*
X573750Y576500D03*
X573750Y581500D03*
X573750Y586500D03*
X573750Y591500D03*
X573750Y596500D03*
D23*
X564750Y605500D03*
X559750Y605500D03*
X554750Y605500D03*
X549750Y605500D03*
X544750Y605500D03*
X539750Y605500D03*
X534750Y605500D03*
X529750Y605500D03*
X524750Y605500D03*
X519750Y605500D03*
X514750Y605500D03*
D24*
X539750Y571500D03*
D21*
X792480Y1027430D03*
X871220Y1027430D03*
D25*
X591970Y619760D03*
X578970Y619760D03*
X478640Y605790D03*
X491640Y605790D03*
D26*
X524510Y491340D03*
X524510Y504340D03*
D25*
X618640Y557530D03*
X605640Y557530D03*
D27*
X869470Y765810D03*
X819470Y765810D03*
X868200Y825500D03*
X818200Y825500D03*
D28*
X632460Y737870D03*
X632460Y760730D03*
X556260Y737870D03*
X556260Y760730D03*
X485140Y732790D03*
X485140Y755650D03*
X420370Y732790D03*
X420370Y755650D03*
X693420Y736600D03*
X693420Y759460D03*
D29*
X516255Y440690D03*
X558165Y440690D03*
D30*
X254000Y204470D03*
X1041146Y202438D03*
X1040130Y887730D03*
X254254Y888238D03*
M02*
