G04 EAGLE Gerber RS-274X export*
G75*
%MOMM*%
%FSLAX34Y34*%
%LPD*%
%INSoldermask Bottom*%
%IPPOS*%
%AMOC8*
5,1,8,0,0,1.08239X$1,22.5*%
G01*
%ADD10C,2.133600*%
%ADD11C,1.930400*%
%ADD12C,2.895600*%
%ADD13C,0.909600*%
%ADD14C,4.445000*%
%ADD15C,3.556000*%


D10*
X407670Y87630D03*
X433070Y87630D03*
X458470Y87630D03*
X483870Y87630D03*
X584200Y87630D03*
X609600Y87630D03*
X635000Y87630D03*
X660400Y87630D03*
D11*
X155062Y559000D03*
X155062Y584000D03*
X135250Y584000D03*
X135250Y559000D03*
D12*
X108072Y511302D03*
X108072Y631698D03*
D11*
X190500Y72390D03*
X215900Y72390D03*
X241300Y72390D03*
X190500Y97790D03*
X215900Y97790D03*
X241300Y97790D03*
D13*
X811530Y619760D03*
X826770Y619760D03*
X811530Y609600D03*
X826770Y609600D03*
X811530Y599440D03*
X826770Y599440D03*
X811530Y391160D03*
X826770Y391160D03*
X811530Y381000D03*
X826770Y381000D03*
X811530Y370840D03*
X826770Y370840D03*
D14*
X1235710Y730250D03*
X1235710Y651510D03*
X1235710Y454660D03*
X1235710Y375920D03*
X792480Y1027430D03*
X871220Y1027430D03*
D15*
X254000Y204470D03*
X1041146Y202438D03*
X1040130Y887730D03*
X254254Y888238D03*
M02*
