G04 EAGLE Gerber RS-274X export*
G75*
%MOMM*%
%FSLAX34Y34*%
%LPD*%
%INBottom Copper*%
%IPPOS*%
%AMOC8*
5,1,8,0,0,1.08239X$1,22.5*%
G01*
%ADD10C,4.191000*%
%ADD11C,1.879600*%
%ADD12C,3.500000*%
%ADD13C,6.096000*%
%ADD14C,1.355600*%
%ADD15C,0.955600*%
%ADD16C,1.524000*%
%ADD17C,1.155600*%
%ADD18C,1.676400*%
%ADD19C,2.641600*%
%ADD20C,0.812800*%
%ADD21C,0.805600*%
%ADD22C,0.304800*%
%ADD23C,0.254000*%
%ADD24C,0.736600*%
%ADD25C,0.406400*%
%ADD26C,0.508000*%
%ADD27C,0.755600*%

G36*
X1112723Y1431D02*
X1112723Y1431D01*
X1112782Y1430D01*
X1112863Y1451D01*
X1112946Y1462D01*
X1113000Y1486D01*
X1113057Y1501D01*
X1113129Y1543D01*
X1113206Y1577D01*
X1113251Y1615D01*
X1113302Y1645D01*
X1113360Y1706D01*
X1113424Y1760D01*
X1113457Y1809D01*
X1113497Y1852D01*
X1113535Y1927D01*
X1113582Y1996D01*
X1113600Y2052D01*
X1113627Y2105D01*
X1113639Y2173D01*
X1113669Y2267D01*
X1113672Y2367D01*
X1113683Y2436D01*
X1116181Y886576D01*
X1116173Y886636D01*
X1116174Y886696D01*
X1116153Y886776D01*
X1116142Y886857D01*
X1116117Y886913D01*
X1116102Y886971D01*
X1116060Y887042D01*
X1116027Y887117D01*
X1115988Y887163D01*
X1115957Y887215D01*
X1115897Y887271D01*
X1115843Y887334D01*
X1115793Y887368D01*
X1115749Y887409D01*
X1115676Y887447D01*
X1115607Y887493D01*
X1115550Y887511D01*
X1115496Y887539D01*
X1115429Y887550D01*
X1115337Y887579D01*
X1115234Y887582D01*
X1115165Y887594D01*
X634999Y887049D01*
X9768Y886340D01*
X9749Y886337D01*
X9730Y886340D01*
X9629Y886318D01*
X9525Y886300D01*
X9508Y886292D01*
X9490Y886288D01*
X9400Y886234D01*
X9308Y886185D01*
X9295Y886171D01*
X9279Y886162D01*
X9211Y886082D01*
X9139Y886007D01*
X9131Y885989D01*
X9118Y885975D01*
X9079Y885878D01*
X9035Y885783D01*
X9033Y885765D01*
X9026Y885747D01*
X9007Y885580D01*
X8631Y620530D01*
X8632Y620523D01*
X8631Y620516D01*
X8652Y620402D01*
X8670Y620287D01*
X8674Y620281D01*
X8675Y620274D01*
X8731Y620173D01*
X8785Y620070D01*
X8790Y620065D01*
X8793Y620059D01*
X8879Y619980D01*
X8963Y619900D01*
X8969Y619897D01*
X8975Y619892D01*
X9081Y619845D01*
X9186Y619796D01*
X9193Y619795D01*
X9199Y619793D01*
X9365Y619768D01*
X241809Y611540D01*
X241809Y316230D01*
X241812Y316210D01*
X241810Y316191D01*
X241832Y316089D01*
X241849Y315987D01*
X241858Y315970D01*
X241862Y315950D01*
X241915Y315861D01*
X241964Y315770D01*
X241978Y315756D01*
X241988Y315739D01*
X242067Y315672D01*
X242142Y315601D01*
X242160Y315592D01*
X242175Y315579D01*
X242271Y315540D01*
X242365Y315497D01*
X242385Y315495D01*
X242403Y315487D01*
X242570Y315469D01*
X481585Y315469D01*
X481585Y224282D01*
X481593Y224224D01*
X481591Y224166D01*
X481613Y224084D01*
X481625Y224000D01*
X481649Y223947D01*
X481663Y223891D01*
X481706Y223818D01*
X481741Y223741D01*
X481779Y223696D01*
X481809Y223646D01*
X481870Y223588D01*
X481925Y223524D01*
X481973Y223492D01*
X482016Y223452D01*
X482091Y223413D01*
X482161Y223366D01*
X482217Y223349D01*
X482269Y223322D01*
X482337Y223311D01*
X482432Y223281D01*
X482532Y223278D01*
X482600Y223267D01*
X567066Y223267D01*
X567153Y223279D01*
X567240Y223282D01*
X567293Y223299D01*
X567348Y223307D01*
X567428Y223342D01*
X567511Y223369D01*
X567550Y223397D01*
X567607Y223423D01*
X567720Y223519D01*
X567784Y223564D01*
X662737Y318517D01*
X672033Y318517D01*
X676054Y314496D01*
X676124Y314444D01*
X676188Y314384D01*
X676237Y314358D01*
X676281Y314325D01*
X676363Y314294D01*
X676441Y314254D01*
X676488Y314246D01*
X676547Y314224D01*
X676694Y314212D01*
X676772Y314199D01*
X678022Y314199D01*
X680076Y313348D01*
X681648Y311776D01*
X682499Y309722D01*
X682499Y307498D01*
X681648Y305444D01*
X680764Y304560D01*
X680712Y304491D01*
X680652Y304427D01*
X680626Y304377D01*
X680593Y304333D01*
X680562Y304251D01*
X680522Y304174D01*
X680514Y304126D01*
X680492Y304068D01*
X680480Y303920D01*
X680467Y303843D01*
X680467Y303027D01*
X680483Y302913D01*
X680493Y302799D01*
X680503Y302773D01*
X680507Y302745D01*
X680553Y302640D01*
X680595Y302533D01*
X680611Y302511D01*
X680623Y302486D01*
X680697Y302398D01*
X680766Y302307D01*
X680789Y302290D01*
X680806Y302269D01*
X680902Y302205D01*
X680994Y302136D01*
X681020Y302127D01*
X681043Y302111D01*
X681153Y302076D01*
X681260Y302036D01*
X681288Y302034D01*
X681314Y302025D01*
X681429Y302022D01*
X681543Y302013D01*
X681568Y302019D01*
X681598Y302018D01*
X681855Y302085D01*
X681871Y302089D01*
X683426Y302733D01*
X685635Y302733D01*
X687675Y301887D01*
X689291Y300272D01*
X689360Y300220D01*
X689424Y300160D01*
X689474Y300134D01*
X689518Y300101D01*
X689600Y300070D01*
X689678Y300030D01*
X689725Y300022D01*
X689784Y300000D01*
X689931Y299988D01*
X690009Y299975D01*
X708864Y299975D01*
X708951Y299987D01*
X709038Y299990D01*
X709091Y300007D01*
X709146Y300015D01*
X709225Y300050D01*
X709309Y300077D01*
X709348Y300105D01*
X709405Y300131D01*
X709518Y300227D01*
X709582Y300272D01*
X709757Y300447D01*
X734746Y300447D01*
X773020Y262172D01*
X773090Y262120D01*
X773154Y262060D01*
X773203Y262034D01*
X773247Y262001D01*
X773329Y261970D01*
X773407Y261930D01*
X773455Y261922D01*
X773513Y261900D01*
X773661Y261888D01*
X773738Y261875D01*
X774392Y261875D01*
X774421Y261879D01*
X774450Y261876D01*
X774561Y261899D01*
X774673Y261915D01*
X774700Y261927D01*
X774729Y261932D01*
X774829Y261984D01*
X774933Y262031D01*
X774955Y262050D01*
X774981Y262063D01*
X775063Y262141D01*
X775150Y262214D01*
X775166Y262239D01*
X775187Y262259D01*
X775245Y262357D01*
X775307Y262451D01*
X775316Y262479D01*
X775331Y262504D01*
X775359Y262614D01*
X775393Y262722D01*
X775394Y262752D01*
X775401Y262780D01*
X775398Y262893D01*
X775400Y263006D01*
X775393Y263035D01*
X775392Y263064D01*
X775357Y263172D01*
X775329Y263281D01*
X775314Y263307D01*
X775305Y263335D01*
X775259Y263398D01*
X775183Y263526D01*
X775138Y263569D01*
X775110Y263608D01*
X678046Y360672D01*
X677976Y360724D01*
X677912Y360784D01*
X677863Y360810D01*
X677819Y360843D01*
X677737Y360874D01*
X677659Y360914D01*
X677611Y360922D01*
X677553Y360944D01*
X677405Y360956D01*
X677328Y360969D01*
X654888Y360969D01*
X635718Y380140D01*
X635694Y380157D01*
X635676Y380180D01*
X635581Y380243D01*
X635491Y380311D01*
X635463Y380321D01*
X635439Y380337D01*
X635331Y380372D01*
X635225Y380412D01*
X635196Y380414D01*
X635168Y380423D01*
X635054Y380426D01*
X634942Y380435D01*
X634913Y380430D01*
X634884Y380430D01*
X634774Y380402D01*
X634663Y380380D01*
X634637Y380366D01*
X634609Y380359D01*
X634511Y380301D01*
X634411Y380249D01*
X634389Y380228D01*
X634364Y380213D01*
X634288Y380132D01*
X627295Y387126D01*
X627294Y387126D01*
X624839Y389582D01*
X624839Y432446D01*
X624825Y432536D01*
X624817Y432627D01*
X624805Y432657D01*
X624800Y432689D01*
X624757Y432770D01*
X624721Y432854D01*
X624695Y432886D01*
X624684Y432906D01*
X624661Y432929D01*
X624616Y432984D01*
X617874Y439726D01*
X617837Y439753D01*
X617806Y439787D01*
X617738Y439825D01*
X617675Y439870D01*
X617631Y439883D01*
X617591Y439906D01*
X617514Y439919D01*
X617440Y439942D01*
X617394Y439941D01*
X617349Y439949D01*
X617271Y439938D01*
X617194Y439936D01*
X617151Y439920D01*
X617105Y439914D01*
X617036Y439878D01*
X616963Y439852D01*
X616927Y439823D01*
X616886Y439802D01*
X616831Y439746D01*
X616771Y439698D01*
X616746Y439659D01*
X616714Y439626D01*
X616648Y439507D01*
X616638Y439491D01*
X616636Y439486D01*
X616633Y439479D01*
X615911Y437737D01*
X612553Y434379D01*
X608165Y432561D01*
X603415Y432561D01*
X599027Y434379D01*
X595669Y437737D01*
X593851Y442125D01*
X593851Y446875D01*
X595669Y451263D01*
X599027Y454621D01*
X603415Y456439D01*
X608165Y456439D01*
X612553Y454621D01*
X615911Y451263D01*
X616939Y448781D01*
X617001Y448681D01*
X617061Y448581D01*
X617066Y448577D01*
X617069Y448572D01*
X617159Y448497D01*
X617248Y448421D01*
X617254Y448419D01*
X617258Y448415D01*
X617366Y448373D01*
X617476Y448329D01*
X617483Y448328D01*
X617488Y448327D01*
X617506Y448326D01*
X617643Y448311D01*
X620068Y448311D01*
X632461Y435918D01*
X632461Y393054D01*
X632475Y392964D01*
X632483Y392873D01*
X632495Y392843D01*
X632500Y392811D01*
X632543Y392730D01*
X632579Y392646D01*
X632605Y392614D01*
X632616Y392594D01*
X632639Y392571D01*
X632684Y392515D01*
X633985Y391214D01*
X633985Y390198D01*
X633992Y390150D01*
X633991Y390148D01*
X633992Y390144D01*
X633997Y390112D01*
X634000Y390024D01*
X634017Y389971D01*
X634025Y389917D01*
X634060Y389837D01*
X634087Y389754D01*
X634115Y389714D01*
X634141Y389657D01*
X634237Y389544D01*
X634282Y389480D01*
X656906Y366856D01*
X656976Y366804D01*
X657040Y366744D01*
X657089Y366718D01*
X657133Y366685D01*
X657215Y366654D01*
X657293Y366614D01*
X657341Y366606D01*
X657399Y366584D01*
X657547Y366572D01*
X657624Y366559D01*
X663621Y366559D01*
X663650Y366563D01*
X663679Y366560D01*
X663790Y366583D01*
X663903Y366599D01*
X663929Y366611D01*
X663958Y366616D01*
X664059Y366669D01*
X664162Y366715D01*
X664184Y366734D01*
X664210Y366747D01*
X664293Y366825D01*
X664379Y366898D01*
X664395Y366923D01*
X664416Y366943D01*
X664474Y367041D01*
X664537Y367135D01*
X664545Y367163D01*
X664560Y367188D01*
X664588Y367298D01*
X664622Y367406D01*
X664623Y367436D01*
X664630Y367464D01*
X664627Y367577D01*
X664630Y367690D01*
X664622Y367719D01*
X664621Y367748D01*
X664586Y367856D01*
X664558Y367965D01*
X664543Y367991D01*
X664534Y368019D01*
X664488Y368083D01*
X664413Y368210D01*
X664367Y368253D01*
X664339Y368292D01*
X663525Y369106D01*
X662717Y371055D01*
X662717Y373165D01*
X663525Y375114D01*
X665016Y376605D01*
X666965Y377413D01*
X669075Y377413D01*
X671024Y376605D01*
X672427Y375202D01*
X672497Y375150D01*
X672561Y375090D01*
X672610Y375064D01*
X672654Y375031D01*
X672736Y375000D01*
X672814Y374960D01*
X672862Y374952D01*
X672920Y374930D01*
X673068Y374918D01*
X673145Y374905D01*
X684418Y374905D01*
X685136Y374186D01*
X685206Y374134D01*
X685270Y374074D01*
X685319Y374048D01*
X685363Y374015D01*
X685445Y373984D01*
X685523Y373944D01*
X685571Y373936D01*
X685629Y373914D01*
X685777Y373902D01*
X685781Y373901D01*
X787095Y272586D01*
X787165Y272534D01*
X787229Y272474D01*
X787279Y272448D01*
X787323Y272415D01*
X787404Y272384D01*
X787482Y272344D01*
X787530Y272336D01*
X787588Y272314D01*
X787736Y272302D01*
X787813Y272289D01*
X811624Y272289D01*
X811709Y272301D01*
X811795Y272303D01*
X811849Y272321D01*
X811906Y272329D01*
X811984Y272364D01*
X812066Y272390D01*
X812113Y272422D01*
X812165Y272445D01*
X812231Y272500D01*
X812302Y272548D01*
X812339Y272592D01*
X812382Y272628D01*
X812430Y272700D01*
X812485Y272766D01*
X812508Y272818D01*
X812540Y272865D01*
X812566Y272947D01*
X812600Y273026D01*
X812608Y273082D01*
X812625Y273136D01*
X812628Y273222D01*
X812639Y273307D01*
X812631Y273363D01*
X812633Y273420D01*
X812611Y273503D01*
X812599Y273589D01*
X812575Y273640D01*
X812561Y273695D01*
X812517Y273769D01*
X812482Y273848D01*
X812445Y273891D01*
X812416Y273940D01*
X812353Y273999D01*
X812297Y274064D01*
X812255Y274090D01*
X812208Y274134D01*
X812079Y274200D01*
X812013Y274242D01*
X810925Y274693D01*
X809363Y276255D01*
X808517Y278295D01*
X808517Y279502D01*
X808505Y279589D01*
X808502Y279676D01*
X808485Y279729D01*
X808477Y279784D01*
X808442Y279864D01*
X808415Y279947D01*
X808387Y279986D01*
X808361Y280043D01*
X808265Y280156D01*
X808220Y280220D01*
X692403Y396037D01*
X692403Y418193D01*
X692391Y418280D01*
X692388Y418367D01*
X692371Y418420D01*
X692363Y418475D01*
X692328Y418555D01*
X692301Y418638D01*
X692273Y418677D01*
X692247Y418734D01*
X692151Y418848D01*
X692106Y418911D01*
X691253Y419765D01*
X690407Y421805D01*
X690407Y424015D01*
X691253Y426055D01*
X692815Y427617D01*
X694855Y428463D01*
X697065Y428463D01*
X699105Y427617D01*
X699560Y427163D01*
X699584Y427145D01*
X699603Y427123D01*
X699697Y427060D01*
X699787Y426992D01*
X699815Y426981D01*
X699839Y426965D01*
X699947Y426931D01*
X700053Y426891D01*
X700082Y426888D01*
X700110Y426879D01*
X700224Y426876D01*
X700336Y426867D01*
X700365Y426873D01*
X700394Y426872D01*
X700504Y426901D01*
X700615Y426923D01*
X700641Y426936D01*
X700669Y426944D01*
X700767Y427001D01*
X700867Y427054D01*
X700889Y427074D01*
X700914Y427089D01*
X700991Y427172D01*
X701073Y427250D01*
X701088Y427275D01*
X701108Y427296D01*
X701160Y427397D01*
X701217Y427495D01*
X701224Y427523D01*
X701238Y427549D01*
X701251Y427627D01*
X701287Y427770D01*
X701285Y427833D01*
X701293Y427881D01*
X701293Y438513D01*
X701281Y438600D01*
X701278Y438687D01*
X701261Y438740D01*
X701253Y438795D01*
X701218Y438875D01*
X701191Y438958D01*
X701163Y438997D01*
X701137Y439054D01*
X701041Y439168D01*
X700996Y439231D01*
X700143Y440085D01*
X699297Y442125D01*
X699297Y444335D01*
X700143Y446375D01*
X701705Y447937D01*
X703745Y448783D01*
X705955Y448783D01*
X705969Y448777D01*
X705997Y448770D01*
X706023Y448756D01*
X706134Y448734D01*
X706244Y448706D01*
X706273Y448707D01*
X706302Y448701D01*
X706415Y448711D01*
X706528Y448714D01*
X706556Y448723D01*
X706585Y448726D01*
X706691Y448766D01*
X706799Y448801D01*
X706823Y448817D01*
X706851Y448828D01*
X706940Y448896D01*
X707035Y448959D01*
X707054Y448982D01*
X707077Y448999D01*
X707145Y449090D01*
X707218Y449177D01*
X707230Y449203D01*
X707247Y449227D01*
X707287Y449333D01*
X707333Y449436D01*
X707337Y449465D01*
X707348Y449493D01*
X707357Y449606D01*
X707372Y449718D01*
X707368Y449747D01*
X707371Y449776D01*
X707353Y449853D01*
X707332Y449999D01*
X707306Y450056D01*
X707295Y450103D01*
X706917Y451016D01*
X706917Y453225D01*
X707763Y455265D01*
X709325Y456827D01*
X711365Y457673D01*
X713575Y457673D01*
X715615Y456827D01*
X717177Y455265D01*
X718023Y453225D01*
X718023Y451015D01*
X717177Y448975D01*
X716324Y448121D01*
X716272Y448052D01*
X716212Y447988D01*
X716186Y447938D01*
X716153Y447894D01*
X716122Y447812D01*
X716082Y447734D01*
X716074Y447687D01*
X716052Y447628D01*
X716040Y447481D01*
X716027Y447403D01*
X716027Y438012D01*
X716039Y437927D01*
X716041Y437841D01*
X716059Y437787D01*
X716067Y437731D01*
X716102Y437652D01*
X716128Y437570D01*
X716160Y437523D01*
X716183Y437471D01*
X716238Y437406D01*
X716287Y437334D01*
X716330Y437298D01*
X716366Y437254D01*
X716438Y437207D01*
X716504Y437151D01*
X716556Y437128D01*
X716603Y437097D01*
X716685Y437071D01*
X716764Y437036D01*
X716820Y437028D01*
X716874Y437011D01*
X716960Y437009D01*
X717046Y436997D01*
X717102Y437005D01*
X717158Y437004D01*
X717242Y437025D01*
X717327Y437038D01*
X717379Y437061D01*
X717433Y437076D01*
X717507Y437119D01*
X717586Y437155D01*
X717629Y437192D01*
X717678Y437221D01*
X717737Y437284D01*
X717802Y437340D01*
X717828Y437381D01*
X717872Y437428D01*
X717880Y437443D01*
X719485Y439047D01*
X721525Y439893D01*
X723735Y439893D01*
X725775Y439047D01*
X727337Y437485D01*
X728183Y435445D01*
X728183Y433235D01*
X727337Y431195D01*
X726484Y430341D01*
X726432Y430272D01*
X726372Y430208D01*
X726346Y430158D01*
X726313Y430114D01*
X726282Y430032D01*
X726242Y429954D01*
X726234Y429907D01*
X726212Y429848D01*
X726200Y429701D01*
X726187Y429623D01*
X726187Y426074D01*
X726199Y425987D01*
X726202Y425900D01*
X726219Y425847D01*
X726227Y425792D01*
X726262Y425712D01*
X726289Y425629D01*
X726317Y425590D01*
X726343Y425533D01*
X726439Y425420D01*
X726484Y425356D01*
X810710Y341130D01*
X810780Y341078D01*
X810844Y341018D01*
X810893Y340992D01*
X810937Y340959D01*
X811019Y340928D01*
X811097Y340888D01*
X811144Y340880D01*
X811203Y340858D01*
X811350Y340846D01*
X811428Y340833D01*
X812635Y340833D01*
X814675Y339987D01*
X816237Y338425D01*
X817083Y336385D01*
X817083Y334175D01*
X816237Y332135D01*
X814675Y330573D01*
X812635Y329727D01*
X810425Y329727D01*
X810411Y329733D01*
X810383Y329740D01*
X810357Y329754D01*
X810246Y329776D01*
X810136Y329804D01*
X810107Y329803D01*
X810078Y329809D01*
X809965Y329799D01*
X809852Y329796D01*
X809824Y329787D01*
X809795Y329784D01*
X809689Y329744D01*
X809581Y329709D01*
X809557Y329693D01*
X809529Y329682D01*
X809440Y329614D01*
X809345Y329551D01*
X809326Y329528D01*
X809303Y329511D01*
X809235Y329420D01*
X809162Y329333D01*
X809150Y329307D01*
X809133Y329283D01*
X809093Y329177D01*
X809047Y329074D01*
X809043Y329045D01*
X809032Y329017D01*
X809023Y328904D01*
X809008Y328792D01*
X809012Y328763D01*
X809009Y328734D01*
X809027Y328657D01*
X809048Y328511D01*
X809074Y328454D01*
X809085Y328407D01*
X809463Y327494D01*
X809463Y325285D01*
X808617Y323245D01*
X807055Y321683D01*
X805015Y320837D01*
X802805Y320837D01*
X800765Y321683D01*
X799203Y323245D01*
X798357Y325285D01*
X798357Y326492D01*
X798345Y326579D01*
X798342Y326666D01*
X798325Y326719D01*
X798317Y326774D01*
X798282Y326854D01*
X798255Y326937D01*
X798227Y326976D01*
X798201Y327033D01*
X798105Y327146D01*
X798060Y327210D01*
X711294Y413976D01*
X710140Y415130D01*
X710116Y415148D01*
X710097Y415170D01*
X710003Y415233D01*
X709913Y415301D01*
X709885Y415311D01*
X709861Y415328D01*
X709753Y415362D01*
X709647Y415402D01*
X709618Y415405D01*
X709590Y415414D01*
X709476Y415416D01*
X709364Y415426D01*
X709335Y415420D01*
X709306Y415421D01*
X709196Y415392D01*
X709085Y415370D01*
X709059Y415356D01*
X709031Y415349D01*
X708933Y415291D01*
X708833Y415239D01*
X708811Y415219D01*
X708786Y415204D01*
X708709Y415121D01*
X708627Y415043D01*
X708612Y415018D01*
X708592Y414996D01*
X708540Y414895D01*
X708483Y414798D01*
X708476Y414769D01*
X708462Y414743D01*
X708449Y414666D01*
X708413Y414522D01*
X708415Y414460D01*
X708407Y414412D01*
X708407Y405754D01*
X708419Y405667D01*
X708422Y405580D01*
X708439Y405527D01*
X708447Y405472D01*
X708482Y405392D01*
X708509Y405309D01*
X708537Y405270D01*
X708563Y405213D01*
X708659Y405100D01*
X708704Y405036D01*
X790390Y323350D01*
X790460Y323298D01*
X790524Y323238D01*
X790573Y323212D01*
X790617Y323179D01*
X790699Y323148D01*
X790777Y323108D01*
X790824Y323100D01*
X790883Y323078D01*
X791030Y323066D01*
X791108Y323053D01*
X792315Y323053D01*
X794355Y322207D01*
X795917Y320645D01*
X796763Y318605D01*
X796763Y316395D01*
X795917Y314355D01*
X794355Y312793D01*
X792315Y311947D01*
X790106Y311947D01*
X788756Y312506D01*
X788673Y312528D01*
X788593Y312558D01*
X788536Y312563D01*
X788481Y312577D01*
X788395Y312575D01*
X788309Y312582D01*
X788253Y312571D01*
X788197Y312569D01*
X788115Y312543D01*
X788030Y312526D01*
X787980Y312500D01*
X787926Y312482D01*
X787854Y312435D01*
X787778Y312395D01*
X787737Y312356D01*
X787690Y312324D01*
X787634Y312258D01*
X787572Y312199D01*
X787543Y312150D01*
X787507Y312107D01*
X787472Y312028D01*
X787428Y311954D01*
X787414Y311899D01*
X787391Y311847D01*
X787379Y311762D01*
X787358Y311678D01*
X787360Y311622D01*
X787352Y311565D01*
X787365Y311480D01*
X787367Y311394D01*
X787385Y311340D01*
X787393Y311284D01*
X787428Y311205D01*
X787455Y311124D01*
X787483Y311084D01*
X787510Y311025D01*
X787604Y310914D01*
X787650Y310850D01*
X813250Y285250D01*
X813320Y285198D01*
X813384Y285138D01*
X813433Y285112D01*
X813477Y285079D01*
X813559Y285048D01*
X813637Y285008D01*
X813684Y285000D01*
X813743Y284978D01*
X813890Y284966D01*
X813968Y284953D01*
X815175Y284953D01*
X817215Y284107D01*
X818777Y282545D01*
X819623Y280505D01*
X819623Y278295D01*
X818777Y276255D01*
X817215Y274693D01*
X816127Y274242D01*
X816053Y274198D01*
X815975Y274163D01*
X815932Y274126D01*
X815883Y274097D01*
X815823Y274035D01*
X815758Y273979D01*
X815726Y273932D01*
X815687Y273891D01*
X815648Y273814D01*
X815600Y273743D01*
X815583Y273689D01*
X815557Y273638D01*
X815541Y273554D01*
X815515Y273472D01*
X815513Y273415D01*
X815502Y273359D01*
X815509Y273274D01*
X815507Y273188D01*
X815522Y273133D01*
X815527Y273076D01*
X815557Y272995D01*
X815579Y272913D01*
X815608Y272864D01*
X815629Y272811D01*
X815681Y272742D01*
X815724Y272668D01*
X815766Y272629D01*
X815800Y272584D01*
X815869Y272532D01*
X815932Y272474D01*
X815982Y272448D01*
X816028Y272414D01*
X816108Y272383D01*
X816185Y272344D01*
X816234Y272336D01*
X816294Y272313D01*
X816439Y272302D01*
X816516Y272289D01*
X820007Y272289D01*
X820093Y272301D01*
X820181Y272304D01*
X820233Y272321D01*
X820288Y272329D01*
X820368Y272364D01*
X820451Y272391D01*
X820490Y272419D01*
X820548Y272445D01*
X820661Y272541D01*
X820725Y272586D01*
X881844Y333705D01*
X881865Y333734D01*
X881884Y333750D01*
X881912Y333792D01*
X881956Y333839D01*
X881982Y333889D01*
X882015Y333933D01*
X882027Y333964D01*
X882042Y333986D01*
X882058Y334037D01*
X882086Y334092D01*
X882094Y334140D01*
X882116Y334198D01*
X882119Y334230D01*
X882127Y334257D01*
X882130Y334355D01*
X882141Y334423D01*
X882141Y368155D01*
X882129Y368242D01*
X882126Y368329D01*
X882109Y368382D01*
X882101Y368437D01*
X882066Y368517D01*
X882039Y368600D01*
X882011Y368639D01*
X881985Y368696D01*
X881889Y368810D01*
X881844Y368873D01*
X880483Y370235D01*
X879637Y372275D01*
X879637Y374485D01*
X880483Y376525D01*
X882045Y378087D01*
X884085Y378933D01*
X886295Y378933D01*
X888335Y378087D01*
X889897Y376525D01*
X890743Y374485D01*
X890743Y372275D01*
X889897Y370235D01*
X888536Y368873D01*
X888484Y368804D01*
X888424Y368740D01*
X888398Y368690D01*
X888365Y368646D01*
X888334Y368564D01*
X888294Y368486D01*
X888286Y368439D01*
X888264Y368380D01*
X888252Y368233D01*
X888239Y368155D01*
X888239Y331477D01*
X886155Y329394D01*
X825449Y268688D01*
X825432Y268664D01*
X825409Y268645D01*
X825346Y268551D01*
X825279Y268461D01*
X825268Y268433D01*
X825252Y268409D01*
X825218Y268301D01*
X825177Y268195D01*
X825175Y268166D01*
X825166Y268138D01*
X825163Y268024D01*
X825154Y267912D01*
X825159Y267883D01*
X825159Y267854D01*
X825187Y267744D01*
X825210Y267633D01*
X825223Y267607D01*
X825231Y267579D01*
X825288Y267481D01*
X825341Y267381D01*
X825361Y267359D01*
X825376Y267334D01*
X825458Y267257D01*
X825536Y267175D01*
X825562Y267160D01*
X825583Y267140D01*
X825684Y267088D01*
X825782Y267031D01*
X825810Y267024D01*
X825836Y267010D01*
X825914Y266997D01*
X826057Y266961D01*
X826120Y266963D01*
X826167Y266955D01*
X922982Y266955D01*
X923068Y266967D01*
X923156Y266970D01*
X923209Y266987D01*
X923263Y266995D01*
X923343Y267030D01*
X923426Y267057D01*
X923466Y267085D01*
X923523Y267111D01*
X923636Y267207D01*
X923700Y267252D01*
X933950Y277502D01*
X934002Y277572D01*
X934062Y277636D01*
X934088Y277685D01*
X934121Y277729D01*
X934152Y277811D01*
X934192Y277889D01*
X934200Y277937D01*
X934222Y277995D01*
X934234Y278143D01*
X934247Y278220D01*
X934247Y280505D01*
X935093Y282545D01*
X936655Y284107D01*
X938695Y284953D01*
X940905Y284953D01*
X942945Y284107D01*
X944507Y282545D01*
X945353Y280505D01*
X945353Y278295D01*
X944507Y276255D01*
X942945Y274693D01*
X940905Y273847D01*
X938620Y273847D01*
X938534Y273835D01*
X938446Y273832D01*
X938393Y273815D01*
X938339Y273807D01*
X938259Y273772D01*
X938176Y273745D01*
X938136Y273717D01*
X938079Y273691D01*
X937966Y273595D01*
X937902Y273550D01*
X927960Y263608D01*
X927943Y263584D01*
X927920Y263565D01*
X927857Y263471D01*
X927789Y263381D01*
X927779Y263353D01*
X927763Y263329D01*
X927728Y263221D01*
X927688Y263115D01*
X927686Y263086D01*
X927677Y263058D01*
X927674Y262944D01*
X927665Y262832D01*
X927670Y262803D01*
X927670Y262774D01*
X927698Y262664D01*
X927720Y262553D01*
X927734Y262527D01*
X927741Y262499D01*
X927799Y262401D01*
X927851Y262301D01*
X927872Y262279D01*
X927887Y262254D01*
X927969Y262177D01*
X928047Y262095D01*
X928073Y262080D01*
X928094Y262060D01*
X928195Y262008D01*
X928292Y261951D01*
X928321Y261944D01*
X928347Y261930D01*
X928424Y261917D01*
X928568Y261881D01*
X928630Y261883D01*
X928678Y261875D01*
X935682Y261875D01*
X935768Y261887D01*
X935856Y261890D01*
X935909Y261907D01*
X935963Y261915D01*
X936043Y261950D01*
X936126Y261977D01*
X936166Y262005D01*
X936223Y262031D01*
X936336Y262127D01*
X936400Y262172D01*
X959314Y285086D01*
X959366Y285156D01*
X959426Y285220D01*
X959452Y285269D01*
X959485Y285313D01*
X959516Y285395D01*
X959556Y285473D01*
X959564Y285521D01*
X959586Y285579D01*
X959598Y285727D01*
X959611Y285804D01*
X959611Y332686D01*
X959599Y332772D01*
X959596Y332860D01*
X959579Y332913D01*
X959571Y332967D01*
X959536Y333047D01*
X959509Y333130D01*
X959481Y333170D01*
X959455Y333227D01*
X959359Y333340D01*
X959314Y333404D01*
X954785Y337932D01*
X954785Y355488D01*
X966970Y367672D01*
X967022Y367742D01*
X967082Y367806D01*
X967108Y367855D01*
X967141Y367899D01*
X967172Y367981D01*
X967212Y368059D01*
X967220Y368107D01*
X967242Y368165D01*
X967254Y368313D01*
X967267Y368390D01*
X967267Y370675D01*
X968113Y372715D01*
X969675Y374277D01*
X971715Y375123D01*
X973925Y375123D01*
X975965Y374277D01*
X977527Y372715D01*
X978373Y370675D01*
X978373Y368465D01*
X977527Y366425D01*
X975965Y364863D01*
X973925Y364017D01*
X971640Y364017D01*
X971554Y364005D01*
X971466Y364002D01*
X971413Y363985D01*
X971359Y363977D01*
X971279Y363942D01*
X971196Y363915D01*
X971156Y363887D01*
X971099Y363861D01*
X970986Y363765D01*
X970922Y363720D01*
X960672Y353470D01*
X960620Y353400D01*
X960560Y353336D01*
X960534Y353287D01*
X960501Y353243D01*
X960470Y353161D01*
X960430Y353083D01*
X960422Y353035D01*
X960400Y352977D01*
X960392Y352877D01*
X960389Y352868D01*
X960388Y352829D01*
X960375Y352752D01*
X960375Y348379D01*
X960379Y348349D01*
X960376Y348320D01*
X960399Y348209D01*
X960415Y348097D01*
X960427Y348070D01*
X960432Y348041D01*
X960485Y347941D01*
X960531Y347838D01*
X960550Y347815D01*
X960563Y347789D01*
X960641Y347707D01*
X960714Y347621D01*
X960739Y347604D01*
X960759Y347583D01*
X960857Y347526D01*
X960951Y347463D01*
X960979Y347454D01*
X961004Y347439D01*
X961114Y347412D01*
X961222Y347377D01*
X961252Y347376D01*
X961280Y347369D01*
X961393Y347373D01*
X961506Y347370D01*
X961535Y347377D01*
X961564Y347378D01*
X961672Y347413D01*
X961781Y347442D01*
X961807Y347457D01*
X961835Y347466D01*
X961899Y347511D01*
X962026Y347587D01*
X962069Y347633D01*
X962108Y347661D01*
X963325Y348877D01*
X965365Y349723D01*
X967574Y349723D01*
X968039Y349530D01*
X968068Y349523D01*
X968094Y349509D01*
X968205Y349487D01*
X968315Y349459D01*
X968344Y349460D01*
X968373Y349454D01*
X968486Y349464D01*
X968599Y349467D01*
X968627Y349476D01*
X968656Y349479D01*
X968762Y349520D01*
X968870Y349554D01*
X968894Y349570D01*
X968921Y349581D01*
X969012Y349649D01*
X969106Y349712D01*
X969125Y349735D01*
X969148Y349752D01*
X969216Y349843D01*
X969289Y349930D01*
X969301Y349957D01*
X969318Y349980D01*
X969358Y350086D01*
X969404Y350190D01*
X969408Y350219D01*
X969419Y350246D01*
X969428Y350359D01*
X969443Y350471D01*
X969439Y350500D01*
X969441Y350530D01*
X969424Y350606D01*
X969402Y350753D01*
X969377Y350810D01*
X969366Y350857D01*
X968882Y352024D01*
X968882Y354096D01*
X969675Y356010D01*
X971140Y357475D01*
X973054Y358268D01*
X975126Y358268D01*
X977040Y357475D01*
X978505Y356010D01*
X979298Y354096D01*
X979298Y352024D01*
X978505Y350110D01*
X977182Y348787D01*
X977130Y348717D01*
X977070Y348654D01*
X977044Y348604D01*
X977011Y348560D01*
X976980Y348478D01*
X976940Y348400D01*
X976932Y348353D01*
X976910Y348294D01*
X976898Y348147D01*
X976885Y348069D01*
X976885Y274628D01*
X976889Y274599D01*
X976886Y274570D01*
X976909Y274459D01*
X976925Y274347D01*
X976937Y274320D01*
X976942Y274291D01*
X976995Y274191D01*
X977041Y274087D01*
X977060Y274065D01*
X977073Y274039D01*
X977151Y273957D01*
X977224Y273870D01*
X977249Y273854D01*
X977269Y273833D01*
X977367Y273775D01*
X977461Y273713D01*
X977489Y273704D01*
X977514Y273689D01*
X977624Y273661D01*
X977732Y273627D01*
X977762Y273626D01*
X977790Y273619D01*
X977903Y273622D01*
X978016Y273620D01*
X978045Y273627D01*
X978074Y273628D01*
X978182Y273663D01*
X978291Y273691D01*
X978317Y273706D01*
X978345Y273715D01*
X978408Y273761D01*
X978536Y273837D01*
X978579Y273882D01*
X978618Y273910D01*
X981158Y276450D01*
X981210Y276520D01*
X981270Y276584D01*
X981296Y276633D01*
X981329Y276677D01*
X981360Y276759D01*
X981400Y276837D01*
X981408Y276885D01*
X981430Y276943D01*
X981442Y277091D01*
X981455Y277168D01*
X981455Y375521D01*
X981443Y375608D01*
X981440Y375695D01*
X981423Y375748D01*
X981415Y375803D01*
X981380Y375883D01*
X981353Y375966D01*
X981325Y376005D01*
X981299Y376062D01*
X981203Y376176D01*
X981158Y376239D01*
X979543Y377855D01*
X978697Y379895D01*
X978697Y382105D01*
X979543Y384145D01*
X981105Y385707D01*
X983145Y386553D01*
X985355Y386553D01*
X987395Y385707D01*
X988957Y384145D01*
X989803Y382105D01*
X989803Y379895D01*
X988957Y377855D01*
X987342Y376239D01*
X987290Y376170D01*
X987230Y376106D01*
X987204Y376056D01*
X987171Y376012D01*
X987140Y375930D01*
X987100Y375852D01*
X987092Y375805D01*
X987070Y375746D01*
X987058Y375599D01*
X987045Y375521D01*
X987045Y274432D01*
X952388Y239775D01*
X666586Y239775D01*
X666500Y239763D01*
X666412Y239760D01*
X666359Y239743D01*
X666305Y239735D01*
X666225Y239700D01*
X666142Y239673D01*
X666102Y239645D01*
X666045Y239619D01*
X665932Y239523D01*
X665868Y239478D01*
X664980Y238590D01*
X664928Y238520D01*
X664868Y238456D01*
X664842Y238407D01*
X664809Y238363D01*
X664778Y238281D01*
X664738Y238203D01*
X664730Y238155D01*
X664708Y238097D01*
X664696Y237949D01*
X664683Y237872D01*
X664683Y235587D01*
X663837Y233547D01*
X662275Y231985D01*
X660235Y231139D01*
X658025Y231139D01*
X655985Y231985D01*
X654423Y233547D01*
X653577Y235587D01*
X653577Y237797D01*
X654423Y239837D01*
X655985Y241399D01*
X658025Y242245D01*
X660310Y242245D01*
X660396Y242257D01*
X660484Y242260D01*
X660537Y242277D01*
X660591Y242285D01*
X660671Y242320D01*
X660754Y242347D01*
X660794Y242375D01*
X660851Y242401D01*
X660964Y242497D01*
X661028Y242542D01*
X663850Y245365D01*
X759152Y245365D01*
X759181Y245369D01*
X759210Y245366D01*
X759321Y245389D01*
X759433Y245405D01*
X759460Y245417D01*
X759489Y245422D01*
X759589Y245474D01*
X759693Y245521D01*
X759715Y245540D01*
X759741Y245553D01*
X759823Y245631D01*
X759910Y245704D01*
X759926Y245729D01*
X759947Y245749D01*
X760005Y245847D01*
X760067Y245941D01*
X760076Y245969D01*
X760091Y245994D01*
X760119Y246104D01*
X760153Y246212D01*
X760154Y246242D01*
X760161Y246270D01*
X760158Y246383D01*
X760160Y246496D01*
X760153Y246525D01*
X760152Y246554D01*
X760117Y246662D01*
X760089Y246771D01*
X760074Y246797D01*
X760065Y246825D01*
X760019Y246888D01*
X759943Y247016D01*
X759898Y247059D01*
X759870Y247098D01*
X730878Y276090D01*
X730808Y276142D01*
X730744Y276202D01*
X730695Y276228D01*
X730651Y276261D01*
X730569Y276292D01*
X730491Y276332D01*
X730443Y276340D01*
X730385Y276362D01*
X730237Y276374D01*
X730160Y276387D01*
X727875Y276387D01*
X725835Y277233D01*
X724273Y278795D01*
X723427Y280835D01*
X723427Y283045D01*
X724273Y285085D01*
X725489Y286302D01*
X725507Y286326D01*
X725529Y286345D01*
X725592Y286439D01*
X725660Y286529D01*
X725671Y286557D01*
X725687Y286581D01*
X725721Y286689D01*
X725761Y286795D01*
X725764Y286824D01*
X725773Y286852D01*
X725776Y286966D01*
X725785Y287078D01*
X725779Y287107D01*
X725780Y287136D01*
X725751Y287246D01*
X725729Y287357D01*
X725716Y287383D01*
X725708Y287411D01*
X725651Y287509D01*
X725598Y287609D01*
X725578Y287631D01*
X725563Y287656D01*
X725481Y287733D01*
X725402Y287815D01*
X725377Y287830D01*
X725356Y287850D01*
X725255Y287902D01*
X725157Y287959D01*
X725129Y287966D01*
X725103Y287980D01*
X725025Y287993D01*
X724882Y288029D01*
X724819Y288027D01*
X724771Y288035D01*
X719219Y288035D01*
X719132Y288023D01*
X719045Y288020D01*
X718992Y288003D01*
X718937Y287995D01*
X718857Y287960D01*
X718774Y287933D01*
X718735Y287905D01*
X718678Y287879D01*
X718564Y287783D01*
X718501Y287738D01*
X716885Y286123D01*
X714845Y285277D01*
X712635Y285277D01*
X710595Y286123D01*
X709033Y287685D01*
X708187Y289725D01*
X708187Y291934D01*
X708621Y292981D01*
X708650Y293093D01*
X708684Y293202D01*
X708685Y293230D01*
X708692Y293257D01*
X708689Y293371D01*
X708692Y293486D01*
X708685Y293513D01*
X708684Y293541D01*
X708649Y293650D01*
X708620Y293761D01*
X708606Y293785D01*
X708597Y293812D01*
X708533Y293907D01*
X708474Y294006D01*
X708454Y294025D01*
X708439Y294048D01*
X708351Y294122D01*
X708267Y294200D01*
X708242Y294213D01*
X708221Y294231D01*
X708116Y294277D01*
X708014Y294330D01*
X707989Y294334D01*
X707961Y294346D01*
X707698Y294383D01*
X707683Y294385D01*
X690009Y294385D01*
X689922Y294373D01*
X689835Y294370D01*
X689782Y294353D01*
X689727Y294345D01*
X689647Y294310D01*
X689564Y294283D01*
X689525Y294255D01*
X689468Y294229D01*
X689354Y294133D01*
X689291Y294088D01*
X687675Y292473D01*
X685635Y291627D01*
X683426Y291627D01*
X681871Y292271D01*
X681759Y292300D01*
X681650Y292335D01*
X681622Y292335D01*
X681595Y292342D01*
X681481Y292339D01*
X681366Y292342D01*
X681339Y292335D01*
X681311Y292334D01*
X681202Y292299D01*
X681091Y292270D01*
X681067Y292256D01*
X681040Y292248D01*
X680945Y292183D01*
X680846Y292125D01*
X680827Y292105D01*
X680804Y292089D01*
X680730Y292001D01*
X680652Y291918D01*
X680639Y291893D01*
X680621Y291872D01*
X680574Y291767D01*
X680522Y291664D01*
X680518Y291640D01*
X680506Y291612D01*
X680469Y291348D01*
X680467Y291333D01*
X680467Y269037D01*
X676065Y264635D01*
X676013Y264565D01*
X675953Y264501D01*
X675927Y264452D01*
X675894Y264408D01*
X675863Y264326D01*
X675823Y264248D01*
X675815Y264201D01*
X675793Y264142D01*
X675781Y263995D01*
X675768Y263917D01*
X675768Y263124D01*
X674975Y261210D01*
X673510Y259745D01*
X671596Y258952D01*
X669524Y258952D01*
X667610Y259745D01*
X666145Y261210D01*
X665352Y263124D01*
X665352Y265196D01*
X666145Y267110D01*
X667610Y268575D01*
X669524Y269368D01*
X670317Y269368D01*
X670404Y269380D01*
X670491Y269383D01*
X670544Y269400D01*
X670599Y269408D01*
X670679Y269443D01*
X670762Y269470D01*
X670801Y269498D01*
X670858Y269524D01*
X670971Y269620D01*
X671035Y269665D01*
X673056Y271686D01*
X673108Y271756D01*
X673168Y271820D01*
X673194Y271869D01*
X673227Y271913D01*
X673258Y271995D01*
X673298Y272073D01*
X673306Y272120D01*
X673328Y272179D01*
X673340Y272326D01*
X673353Y272404D01*
X673353Y303843D01*
X673341Y303929D01*
X673338Y304017D01*
X673321Y304069D01*
X673313Y304124D01*
X673278Y304204D01*
X673251Y304287D01*
X673223Y304326D01*
X673197Y304383D01*
X673101Y304497D01*
X673056Y304560D01*
X672172Y305444D01*
X671321Y307498D01*
X671321Y308748D01*
X671309Y308835D01*
X671306Y308922D01*
X671289Y308975D01*
X671281Y309030D01*
X671246Y309110D01*
X671219Y309193D01*
X671191Y309232D01*
X671165Y309289D01*
X671069Y309402D01*
X671024Y309466D01*
X669384Y311106D01*
X669314Y311158D01*
X669250Y311218D01*
X669201Y311244D01*
X669157Y311277D01*
X669075Y311308D01*
X668997Y311348D01*
X668950Y311356D01*
X668891Y311378D01*
X668744Y311390D01*
X668666Y311403D01*
X666104Y311403D01*
X666017Y311391D01*
X665930Y311388D01*
X665877Y311371D01*
X665822Y311363D01*
X665742Y311328D01*
X665659Y311301D01*
X665620Y311273D01*
X665563Y311247D01*
X665450Y311151D01*
X665386Y311106D01*
X570433Y216153D01*
X482600Y216153D01*
X482542Y216145D01*
X482484Y216147D01*
X482402Y216125D01*
X482319Y216113D01*
X482265Y216090D01*
X482209Y216075D01*
X482136Y216032D01*
X482059Y215997D01*
X482014Y215959D01*
X481964Y215930D01*
X481906Y215868D01*
X481842Y215814D01*
X481810Y215765D01*
X481770Y215722D01*
X481731Y215647D01*
X481685Y215577D01*
X481667Y215521D01*
X481640Y215469D01*
X481629Y215401D01*
X481599Y215306D01*
X481596Y215206D01*
X481585Y215138D01*
X481585Y200405D01*
X140970Y200405D01*
X140912Y200397D01*
X140854Y200399D01*
X140772Y200377D01*
X140689Y200365D01*
X140635Y200342D01*
X140579Y200327D01*
X140506Y200284D01*
X140429Y200249D01*
X140384Y200211D01*
X140334Y200182D01*
X140276Y200120D01*
X140212Y200066D01*
X140180Y200017D01*
X140140Y199974D01*
X140101Y199899D01*
X140055Y199829D01*
X140037Y199773D01*
X140010Y199721D01*
X139999Y199653D01*
X139969Y199558D01*
X139966Y199458D01*
X139955Y199390D01*
X139955Y118888D01*
X139974Y118755D01*
X139991Y118620D01*
X139994Y118613D01*
X139995Y118606D01*
X140050Y118484D01*
X140104Y118359D01*
X140108Y118353D01*
X140111Y118347D01*
X140198Y118244D01*
X140284Y118139D01*
X140290Y118135D01*
X140295Y118130D01*
X140408Y118055D01*
X140519Y117979D01*
X140525Y117976D01*
X140531Y117972D01*
X140661Y117932D01*
X140789Y117889D01*
X140796Y117889D01*
X140802Y117887D01*
X140937Y117883D01*
X141073Y117878D01*
X141079Y117880D01*
X141086Y117879D01*
X141216Y117913D01*
X141349Y117946D01*
X141355Y117949D01*
X141361Y117951D01*
X141477Y118020D01*
X141595Y118088D01*
X141600Y118093D01*
X141606Y118096D01*
X141699Y118196D01*
X141792Y118293D01*
X141795Y118298D01*
X141800Y118304D01*
X141930Y118557D01*
X141933Y118576D01*
X141942Y118593D01*
X142862Y121628D01*
X144104Y124625D01*
X145633Y127486D01*
X147436Y130184D01*
X149494Y132692D01*
X151788Y134986D01*
X154296Y137044D01*
X156994Y138847D01*
X159855Y140376D01*
X162852Y141618D01*
X165957Y142560D01*
X169139Y143193D01*
X171959Y143470D01*
X171959Y111506D01*
X171967Y111448D01*
X171965Y111390D01*
X171987Y111308D01*
X171999Y111225D01*
X172023Y111171D01*
X172037Y111115D01*
X172080Y111042D01*
X172115Y110965D01*
X172153Y110921D01*
X172183Y110870D01*
X172244Y110813D01*
X172299Y110748D01*
X172347Y110716D01*
X172390Y110676D01*
X172465Y110637D01*
X172535Y110591D01*
X172591Y110573D01*
X172643Y110546D01*
X172711Y110535D01*
X172806Y110505D01*
X172906Y110502D01*
X172974Y110491D01*
X173991Y110491D01*
X173991Y110489D01*
X172974Y110489D01*
X172916Y110481D01*
X172858Y110482D01*
X172776Y110461D01*
X172693Y110449D01*
X172639Y110425D01*
X172583Y110411D01*
X172510Y110368D01*
X172433Y110333D01*
X172388Y110295D01*
X172338Y110265D01*
X172280Y110204D01*
X172216Y110149D01*
X172184Y110101D01*
X172144Y110058D01*
X172105Y109983D01*
X172059Y109913D01*
X172041Y109857D01*
X172014Y109805D01*
X172003Y109737D01*
X171973Y109642D01*
X171970Y109542D01*
X171959Y109474D01*
X171959Y77510D01*
X169139Y77787D01*
X165957Y78420D01*
X162852Y79362D01*
X159855Y80604D01*
X156994Y82133D01*
X154296Y83936D01*
X151788Y85994D01*
X149494Y88288D01*
X147436Y90796D01*
X145633Y93494D01*
X144104Y96355D01*
X142862Y99352D01*
X141942Y102387D01*
X141884Y102510D01*
X141829Y102633D01*
X141825Y102638D01*
X141822Y102645D01*
X141732Y102747D01*
X141646Y102850D01*
X141640Y102854D01*
X141635Y102859D01*
X141522Y102932D01*
X141409Y103008D01*
X141402Y103010D01*
X141396Y103013D01*
X141267Y103053D01*
X141138Y103093D01*
X141131Y103093D01*
X141124Y103095D01*
X140989Y103097D01*
X140854Y103101D01*
X140847Y103099D01*
X140840Y103099D01*
X140709Y103063D01*
X140579Y103029D01*
X140573Y103025D01*
X140566Y103023D01*
X140449Y102952D01*
X140334Y102884D01*
X140329Y102878D01*
X140324Y102875D01*
X140232Y102775D01*
X140140Y102676D01*
X140137Y102670D01*
X140132Y102665D01*
X140072Y102544D01*
X140010Y102423D01*
X140009Y102417D01*
X140006Y102410D01*
X139955Y102130D01*
X139958Y102111D01*
X139955Y102092D01*
X139955Y5747D01*
X139963Y5691D01*
X139961Y5634D01*
X139983Y5551D01*
X139995Y5466D01*
X140018Y5414D01*
X140032Y5359D01*
X140076Y5285D01*
X140111Y5206D01*
X140148Y5163D01*
X140176Y5114D01*
X140239Y5055D01*
X140295Y4989D01*
X140342Y4958D01*
X140383Y4919D01*
X140460Y4879D01*
X140531Y4832D01*
X140585Y4815D01*
X140636Y4789D01*
X140705Y4777D01*
X140802Y4746D01*
X140899Y4744D01*
X140967Y4732D01*
X659127Y2968D01*
X1112665Y1423D01*
X1112723Y1431D01*
G37*
G36*
X132136Y4771D02*
X132136Y4771D01*
X132196Y4769D01*
X132276Y4790D01*
X132358Y4801D01*
X132413Y4826D01*
X132471Y4841D01*
X132542Y4883D01*
X132618Y4917D01*
X132664Y4955D01*
X132716Y4986D01*
X132772Y5046D01*
X132836Y5099D01*
X132869Y5149D01*
X132910Y5193D01*
X132948Y5267D01*
X132994Y5336D01*
X133012Y5393D01*
X133040Y5447D01*
X133051Y5514D01*
X133081Y5606D01*
X133084Y5708D01*
X133095Y5778D01*
X133095Y92943D01*
X133077Y93070D01*
X133063Y93198D01*
X133057Y93210D01*
X133055Y93224D01*
X133003Y93341D01*
X132954Y93460D01*
X132945Y93471D01*
X132939Y93484D01*
X132856Y93582D01*
X132776Y93682D01*
X132764Y93690D01*
X132756Y93701D01*
X132649Y93772D01*
X132544Y93846D01*
X132531Y93850D01*
X132519Y93858D01*
X132396Y93897D01*
X132275Y93939D01*
X132261Y93940D01*
X132248Y93944D01*
X132119Y93947D01*
X131991Y93954D01*
X131978Y93951D01*
X131964Y93951D01*
X131840Y93919D01*
X131714Y93890D01*
X131702Y93883D01*
X131689Y93879D01*
X131579Y93814D01*
X131466Y93751D01*
X131457Y93742D01*
X131444Y93734D01*
X131250Y93527D01*
X131244Y93515D01*
X131236Y93507D01*
X129424Y90796D01*
X127366Y88288D01*
X125072Y85994D01*
X122564Y83936D01*
X119866Y82133D01*
X117005Y80604D01*
X114008Y79362D01*
X110903Y78420D01*
X107721Y77787D01*
X104901Y77510D01*
X104901Y109474D01*
X104893Y109532D01*
X104895Y109590D01*
X104873Y109672D01*
X104861Y109755D01*
X104837Y109809D01*
X104823Y109865D01*
X104780Y109938D01*
X104745Y110015D01*
X104707Y110059D01*
X104677Y110110D01*
X104616Y110167D01*
X104561Y110232D01*
X104513Y110264D01*
X104470Y110304D01*
X104395Y110343D01*
X104325Y110389D01*
X104269Y110407D01*
X104217Y110434D01*
X104149Y110445D01*
X104054Y110475D01*
X103954Y110478D01*
X103886Y110489D01*
X102869Y110489D01*
X102869Y110491D01*
X103886Y110491D01*
X103944Y110499D01*
X104002Y110498D01*
X104084Y110519D01*
X104167Y110531D01*
X104221Y110555D01*
X104277Y110569D01*
X104350Y110612D01*
X104427Y110647D01*
X104472Y110685D01*
X104522Y110715D01*
X104580Y110776D01*
X104644Y110831D01*
X104676Y110879D01*
X104716Y110922D01*
X104755Y110997D01*
X104801Y111067D01*
X104819Y111123D01*
X104846Y111175D01*
X104857Y111243D01*
X104887Y111338D01*
X104890Y111438D01*
X104901Y111506D01*
X104901Y143470D01*
X107721Y143193D01*
X110903Y142560D01*
X114008Y141618D01*
X117005Y140376D01*
X119866Y138847D01*
X122564Y137044D01*
X125072Y134986D01*
X127366Y132692D01*
X129424Y130184D01*
X131236Y127473D01*
X131322Y127377D01*
X131405Y127279D01*
X131416Y127272D01*
X131425Y127261D01*
X131534Y127193D01*
X131641Y127122D01*
X131654Y127118D01*
X131666Y127110D01*
X131789Y127075D01*
X131912Y127036D01*
X131926Y127036D01*
X131939Y127032D01*
X132068Y127032D01*
X132196Y127029D01*
X132210Y127032D01*
X132224Y127032D01*
X132347Y127068D01*
X132471Y127101D01*
X132483Y127108D01*
X132497Y127112D01*
X132605Y127180D01*
X132716Y127246D01*
X132725Y127256D01*
X132737Y127263D01*
X132822Y127359D01*
X132910Y127453D01*
X132917Y127466D01*
X132926Y127476D01*
X132981Y127592D01*
X133040Y127706D01*
X133042Y127719D01*
X133048Y127732D01*
X133095Y128013D01*
X133093Y128026D01*
X133095Y128037D01*
X133095Y605790D01*
X133087Y605848D01*
X133089Y605906D01*
X133067Y605988D01*
X133055Y606072D01*
X133032Y606125D01*
X133017Y606181D01*
X132974Y606254D01*
X132939Y606331D01*
X132901Y606376D01*
X132872Y606426D01*
X132810Y606484D01*
X132756Y606548D01*
X132707Y606580D01*
X132664Y606620D01*
X132589Y606659D01*
X132519Y606706D01*
X132463Y606723D01*
X132411Y606750D01*
X132343Y606761D01*
X132248Y606791D01*
X132148Y606794D01*
X132080Y606805D01*
X9625Y606805D01*
X9568Y606797D01*
X9510Y606799D01*
X9428Y606777D01*
X9344Y606765D01*
X9291Y606742D01*
X9235Y606727D01*
X9162Y606684D01*
X9084Y606649D01*
X9040Y606612D01*
X8991Y606582D01*
X8932Y606520D01*
X8867Y606465D01*
X8835Y606417D01*
X8796Y606375D01*
X8757Y606300D01*
X8710Y606229D01*
X8692Y606174D01*
X8666Y606122D01*
X8654Y606054D01*
X8624Y605958D01*
X8621Y605859D01*
X8610Y605791D01*
X7758Y6199D01*
X7766Y6142D01*
X7765Y6085D01*
X7786Y6002D01*
X7798Y5917D01*
X7821Y5865D01*
X7835Y5809D01*
X7879Y5736D01*
X7914Y5658D01*
X7951Y5614D01*
X7980Y5564D01*
X8042Y5506D01*
X8097Y5441D01*
X8145Y5409D01*
X8187Y5369D01*
X8262Y5330D01*
X8333Y5283D01*
X8388Y5265D01*
X8439Y5239D01*
X8508Y5227D01*
X8604Y5196D01*
X8703Y5194D01*
X8770Y5182D01*
X132077Y4762D01*
X132136Y4771D01*
G37*
G36*
X401594Y207522D02*
X401594Y207522D01*
X401613Y207520D01*
X401715Y207542D01*
X401817Y207559D01*
X401834Y207568D01*
X401854Y207572D01*
X401943Y207625D01*
X402034Y207674D01*
X402048Y207688D01*
X402065Y207698D01*
X402132Y207777D01*
X402204Y207852D01*
X402212Y207870D01*
X402225Y207885D01*
X402264Y207981D01*
X402307Y208075D01*
X402309Y208095D01*
X402317Y208113D01*
X402335Y208280D01*
X402335Y210864D01*
X403341Y213291D01*
X405199Y215149D01*
X407626Y216155D01*
X408763Y216155D01*
X408853Y216169D01*
X408944Y216177D01*
X408973Y216189D01*
X409005Y216194D01*
X409086Y216237D01*
X409170Y216273D01*
X409202Y216299D01*
X409223Y216310D01*
X409245Y216333D01*
X409301Y216378D01*
X417206Y224283D01*
X476250Y224283D01*
X476270Y224286D01*
X476289Y224284D01*
X476391Y224306D01*
X476493Y224322D01*
X476510Y224332D01*
X476530Y224336D01*
X476619Y224389D01*
X476710Y224438D01*
X476724Y224452D01*
X476741Y224462D01*
X476808Y224541D01*
X476880Y224616D01*
X476888Y224634D01*
X476901Y224649D01*
X476940Y224745D01*
X476983Y224839D01*
X476985Y224859D01*
X476993Y224877D01*
X477011Y225044D01*
X477011Y311150D01*
X477008Y311170D01*
X477010Y311189D01*
X476988Y311291D01*
X476972Y311393D01*
X476962Y311410D01*
X476958Y311430D01*
X476905Y311519D01*
X476856Y311610D01*
X476842Y311624D01*
X476832Y311641D01*
X476753Y311708D01*
X476678Y311780D01*
X476660Y311788D01*
X476645Y311801D01*
X476549Y311840D01*
X476455Y311883D01*
X476435Y311885D01*
X476417Y311893D01*
X476250Y311911D01*
X239521Y311911D01*
X239521Y608330D01*
X239518Y608350D01*
X239520Y608369D01*
X239498Y608471D01*
X239482Y608573D01*
X239472Y608590D01*
X239468Y608610D01*
X239415Y608699D01*
X239366Y608790D01*
X239352Y608804D01*
X239342Y608821D01*
X239263Y608888D01*
X239188Y608960D01*
X239170Y608968D01*
X239155Y608981D01*
X239059Y609020D01*
X238965Y609063D01*
X238945Y609065D01*
X238927Y609073D01*
X238760Y609091D01*
X142240Y609091D01*
X142220Y609088D01*
X142201Y609090D01*
X142099Y609068D01*
X141997Y609052D01*
X141980Y609042D01*
X141960Y609038D01*
X141871Y608985D01*
X141780Y608936D01*
X141766Y608922D01*
X141749Y608912D01*
X141682Y608833D01*
X141611Y608758D01*
X141602Y608740D01*
X141589Y608725D01*
X141550Y608629D01*
X141507Y608535D01*
X141505Y608515D01*
X141497Y608497D01*
X141479Y608330D01*
X141479Y556754D01*
X141498Y556637D01*
X141516Y556520D01*
X141518Y556516D01*
X141519Y556511D01*
X141574Y556407D01*
X141628Y556301D01*
X141631Y556298D01*
X141634Y556294D01*
X141719Y556212D01*
X141804Y556129D01*
X141809Y556127D01*
X141812Y556124D01*
X141920Y556074D01*
X142026Y556023D01*
X142031Y556023D01*
X142035Y556021D01*
X142152Y556008D01*
X142270Y555993D01*
X142275Y555994D01*
X142279Y555994D01*
X142395Y556019D01*
X142511Y556042D01*
X142515Y556045D01*
X142520Y556046D01*
X142621Y556106D01*
X142724Y556166D01*
X142727Y556170D01*
X142731Y556172D01*
X142808Y556262D01*
X142886Y556351D01*
X142888Y556356D01*
X142891Y556359D01*
X142897Y556373D01*
X142959Y556502D01*
X143358Y557645D01*
X144504Y560023D01*
X145908Y562258D01*
X147553Y564321D01*
X149419Y566187D01*
X151482Y567832D01*
X153717Y569236D01*
X156095Y570382D01*
X158585Y571253D01*
X161158Y571840D01*
X163577Y572113D01*
X163577Y549402D01*
X163580Y549382D01*
X163578Y549363D01*
X163600Y549261D01*
X163617Y549159D01*
X163626Y549142D01*
X163630Y549122D01*
X163683Y549033D01*
X163732Y548942D01*
X163746Y548928D01*
X163756Y548911D01*
X163835Y548844D01*
X163910Y548773D01*
X163928Y548764D01*
X163943Y548751D01*
X164039Y548713D01*
X164133Y548669D01*
X164153Y548667D01*
X164171Y548659D01*
X164338Y548641D01*
X165101Y548641D01*
X165101Y548639D01*
X164338Y548639D01*
X164318Y548636D01*
X164299Y548638D01*
X164197Y548616D01*
X164095Y548599D01*
X164078Y548590D01*
X164058Y548586D01*
X163969Y548533D01*
X163878Y548484D01*
X163864Y548470D01*
X163847Y548460D01*
X163780Y548381D01*
X163709Y548306D01*
X163700Y548288D01*
X163687Y548273D01*
X163648Y548177D01*
X163605Y548083D01*
X163603Y548063D01*
X163595Y548045D01*
X163577Y547878D01*
X163577Y525167D01*
X161158Y525440D01*
X160006Y525703D01*
X160005Y525703D01*
X158585Y526027D01*
X156095Y526898D01*
X153717Y528044D01*
X151482Y529448D01*
X149419Y531093D01*
X147553Y532959D01*
X145908Y535022D01*
X144504Y537257D01*
X143358Y539635D01*
X142959Y540778D01*
X142901Y540883D01*
X142846Y540986D01*
X142843Y540989D01*
X142841Y540994D01*
X142753Y541075D01*
X142668Y541156D01*
X142664Y541158D01*
X142660Y541161D01*
X142553Y541209D01*
X142445Y541259D01*
X142440Y541260D01*
X142436Y541262D01*
X142319Y541273D01*
X142201Y541286D01*
X142196Y541285D01*
X142191Y541286D01*
X142077Y541259D01*
X141960Y541234D01*
X141956Y541232D01*
X141952Y541231D01*
X141851Y541169D01*
X141749Y541108D01*
X141746Y541104D01*
X141742Y541102D01*
X141666Y541011D01*
X141589Y540921D01*
X141587Y540917D01*
X141584Y540913D01*
X141542Y540804D01*
X141497Y540693D01*
X141497Y540687D01*
X141495Y540684D01*
X141495Y540669D01*
X141479Y540526D01*
X141479Y426669D01*
X141492Y426590D01*
X141496Y426509D01*
X141512Y426469D01*
X141519Y426426D01*
X141556Y426355D01*
X141586Y426280D01*
X141614Y426247D01*
X141634Y426209D01*
X141692Y426154D01*
X141744Y426092D01*
X141781Y426069D01*
X141812Y426040D01*
X141885Y426006D01*
X141954Y425964D01*
X141996Y425954D01*
X142035Y425936D01*
X142115Y425927D01*
X142194Y425909D01*
X142237Y425914D01*
X142279Y425909D01*
X142358Y425926D01*
X142439Y425934D01*
X142478Y425952D01*
X142520Y425961D01*
X142589Y426003D01*
X142663Y426036D01*
X142694Y426065D01*
X142731Y426087D01*
X142783Y426149D01*
X142843Y426204D01*
X142863Y426242D01*
X142891Y426274D01*
X142921Y426349D01*
X142959Y426420D01*
X142972Y426476D01*
X142983Y426502D01*
X142987Y426544D01*
X142996Y426584D01*
X143170Y428122D01*
X143757Y430695D01*
X144628Y433185D01*
X145774Y435563D01*
X147178Y437798D01*
X148823Y439861D01*
X150689Y441727D01*
X152752Y443372D01*
X154987Y444776D01*
X157365Y445922D01*
X159855Y446793D01*
X162428Y447380D01*
X164847Y447653D01*
X164847Y424942D01*
X164850Y424922D01*
X164848Y424903D01*
X164870Y424801D01*
X164887Y424699D01*
X164896Y424682D01*
X164900Y424662D01*
X164953Y424573D01*
X165002Y424482D01*
X165016Y424468D01*
X165026Y424451D01*
X165105Y424384D01*
X165180Y424313D01*
X165198Y424304D01*
X165213Y424291D01*
X165309Y424253D01*
X165403Y424209D01*
X165423Y424207D01*
X165441Y424199D01*
X165608Y424181D01*
X166371Y424181D01*
X166371Y424179D01*
X165608Y424179D01*
X165588Y424176D01*
X165569Y424178D01*
X165467Y424156D01*
X165365Y424139D01*
X165348Y424130D01*
X165328Y424126D01*
X165239Y424073D01*
X165148Y424024D01*
X165134Y424010D01*
X165117Y424000D01*
X165050Y423921D01*
X164979Y423846D01*
X164970Y423828D01*
X164957Y423813D01*
X164918Y423717D01*
X164875Y423623D01*
X164873Y423603D01*
X164865Y423585D01*
X164847Y423418D01*
X164847Y400707D01*
X162428Y400980D01*
X159855Y401567D01*
X157365Y402438D01*
X154987Y403584D01*
X152752Y404988D01*
X150689Y406633D01*
X148823Y408499D01*
X147178Y410562D01*
X145774Y412797D01*
X144628Y415175D01*
X143757Y417665D01*
X143170Y420238D01*
X142996Y421776D01*
X142975Y421854D01*
X142962Y421934D01*
X142941Y421971D01*
X142930Y422013D01*
X142884Y422080D01*
X142846Y422151D01*
X142815Y422180D01*
X142791Y422216D01*
X142727Y422265D01*
X142668Y422320D01*
X142629Y422338D01*
X142595Y422364D01*
X142518Y422390D01*
X142445Y422424D01*
X142402Y422429D01*
X142362Y422442D01*
X142281Y422442D01*
X142201Y422451D01*
X142159Y422442D01*
X142116Y422442D01*
X142039Y422416D01*
X141960Y422399D01*
X141923Y422377D01*
X141883Y422363D01*
X141818Y422314D01*
X141749Y422273D01*
X141721Y422240D01*
X141687Y422214D01*
X141642Y422147D01*
X141589Y422086D01*
X141573Y422046D01*
X141549Y422010D01*
X141528Y421933D01*
X141497Y421858D01*
X141491Y421801D01*
X141483Y421773D01*
X141483Y421732D01*
X141479Y421691D01*
X141479Y301905D01*
X141481Y301889D01*
X141480Y301874D01*
X141491Y301821D01*
X141494Y301753D01*
X141511Y301709D01*
X141519Y301662D01*
X141531Y301638D01*
X141532Y301634D01*
X141542Y301617D01*
X141554Y301594D01*
X141581Y301523D01*
X141611Y301486D01*
X141634Y301444D01*
X141689Y301392D01*
X141737Y301333D01*
X141778Y301308D01*
X141812Y301275D01*
X141881Y301243D01*
X141946Y301202D01*
X141992Y301191D01*
X142035Y301171D01*
X142111Y301163D01*
X142185Y301145D01*
X142232Y301150D01*
X142279Y301144D01*
X142354Y301160D01*
X142430Y301167D01*
X142473Y301186D01*
X142520Y301197D01*
X142585Y301236D01*
X142655Y301266D01*
X142690Y301298D01*
X142731Y301323D01*
X142780Y301381D01*
X142837Y301432D01*
X142864Y301475D01*
X142874Y301486D01*
X142878Y301495D01*
X142891Y301510D01*
X142901Y301534D01*
X142926Y301574D01*
X143234Y302213D01*
X144638Y304448D01*
X146283Y306511D01*
X148149Y308377D01*
X150212Y310022D01*
X152447Y311426D01*
X154825Y312572D01*
X157315Y313443D01*
X159888Y314030D01*
X162307Y314303D01*
X162307Y291592D01*
X162310Y291572D01*
X162308Y291553D01*
X162330Y291451D01*
X162347Y291349D01*
X162356Y291332D01*
X162360Y291312D01*
X162413Y291223D01*
X162462Y291132D01*
X162476Y291118D01*
X162486Y291101D01*
X162565Y291034D01*
X162640Y290963D01*
X162658Y290954D01*
X162673Y290941D01*
X162769Y290903D01*
X162863Y290859D01*
X162883Y290857D01*
X162901Y290849D01*
X163068Y290831D01*
X163831Y290831D01*
X163831Y290829D01*
X163068Y290829D01*
X163048Y290826D01*
X163029Y290828D01*
X162927Y290806D01*
X162825Y290789D01*
X162808Y290780D01*
X162788Y290776D01*
X162699Y290723D01*
X162608Y290674D01*
X162594Y290660D01*
X162577Y290650D01*
X162510Y290571D01*
X162439Y290496D01*
X162430Y290478D01*
X162417Y290463D01*
X162378Y290367D01*
X162335Y290273D01*
X162333Y290253D01*
X162325Y290235D01*
X162307Y290068D01*
X162307Y267357D01*
X159888Y267630D01*
X159847Y267639D01*
X157315Y268217D01*
X154825Y269088D01*
X152447Y270234D01*
X150212Y271638D01*
X148149Y273283D01*
X146283Y275149D01*
X144638Y277212D01*
X143234Y279447D01*
X142926Y280086D01*
X142882Y280148D01*
X142846Y280216D01*
X142812Y280248D01*
X142785Y280287D01*
X142723Y280332D01*
X142668Y280385D01*
X142625Y280405D01*
X142587Y280433D01*
X142514Y280457D01*
X142445Y280489D01*
X142398Y280494D01*
X142353Y280508D01*
X142276Y280507D01*
X142201Y280516D01*
X142154Y280506D01*
X142107Y280505D01*
X142035Y280480D01*
X141960Y280463D01*
X141919Y280439D01*
X141875Y280423D01*
X141814Y280376D01*
X141749Y280337D01*
X141718Y280301D01*
X141681Y280272D01*
X141639Y280208D01*
X141589Y280150D01*
X141571Y280106D01*
X141545Y280067D01*
X141526Y279993D01*
X141497Y279922D01*
X141490Y279859D01*
X141482Y279829D01*
X141484Y279803D01*
X141479Y279755D01*
X141479Y208280D01*
X141482Y208260D01*
X141480Y208241D01*
X141502Y208139D01*
X141519Y208037D01*
X141528Y208020D01*
X141532Y208000D01*
X141585Y207911D01*
X141634Y207820D01*
X141648Y207806D01*
X141658Y207789D01*
X141737Y207722D01*
X141812Y207651D01*
X141830Y207642D01*
X141845Y207629D01*
X141941Y207590D01*
X142035Y207547D01*
X142055Y207545D01*
X142073Y207537D01*
X142240Y207519D01*
X401574Y207519D01*
X401594Y207522D01*
G37*
%LPC*%
G36*
X266445Y133095D02*
X266445Y133095D01*
X266445Y167895D01*
X481585Y167895D01*
X481585Y160020D01*
X481593Y159962D01*
X481591Y159904D01*
X481613Y159822D01*
X481625Y159739D01*
X481649Y159685D01*
X481663Y159629D01*
X481706Y159556D01*
X481741Y159479D01*
X481779Y159434D01*
X481809Y159384D01*
X481870Y159326D01*
X481925Y159262D01*
X481973Y159230D01*
X482016Y159190D01*
X482091Y159151D01*
X482161Y159105D01*
X482217Y159087D01*
X482269Y159060D01*
X482337Y159049D01*
X482432Y159019D01*
X482532Y159016D01*
X482600Y159005D01*
X651765Y159005D01*
X651765Y133095D01*
X266445Y133095D01*
G37*
%LPD*%
%LPC*%
G36*
X994575Y275117D02*
X994575Y275117D01*
X992535Y275963D01*
X990973Y277525D01*
X990127Y279565D01*
X990127Y281775D01*
X990973Y283815D01*
X991826Y284669D01*
X991878Y284738D01*
X991938Y284802D01*
X991964Y284852D01*
X991997Y284896D01*
X992028Y284978D01*
X992068Y285056D01*
X992076Y285103D01*
X992098Y285162D01*
X992110Y285309D01*
X992123Y285387D01*
X992123Y287223D01*
X1000716Y295816D01*
X1000768Y295886D01*
X1000828Y295950D01*
X1000854Y295999D01*
X1000887Y296043D01*
X1000918Y296125D01*
X1000958Y296203D01*
X1000966Y296250D01*
X1000988Y296309D01*
X1001000Y296456D01*
X1001013Y296534D01*
X1001013Y377836D01*
X1001001Y377923D01*
X1000998Y378010D01*
X1000981Y378063D01*
X1000973Y378118D01*
X1000938Y378198D01*
X1000911Y378281D01*
X1000883Y378320D01*
X1000857Y378377D01*
X1000761Y378490D01*
X1000716Y378554D01*
X981804Y397466D01*
X981734Y397518D01*
X981670Y397578D01*
X981621Y397604D01*
X981577Y397637D01*
X981495Y397668D01*
X981417Y397708D01*
X981370Y397716D01*
X981311Y397738D01*
X981164Y397750D01*
X981086Y397763D01*
X973952Y397763D01*
X973867Y397751D01*
X973781Y397749D01*
X973727Y397731D01*
X973671Y397723D01*
X973592Y397688D01*
X973510Y397662D01*
X973463Y397630D01*
X973411Y397607D01*
X973346Y397551D01*
X973274Y397504D01*
X973238Y397460D01*
X973194Y397424D01*
X973147Y397352D01*
X973091Y397286D01*
X973068Y397234D01*
X973037Y397187D01*
X973011Y397105D01*
X972976Y397026D01*
X972968Y396970D01*
X972951Y396916D01*
X972949Y396830D01*
X972937Y396744D01*
X972945Y396688D01*
X972944Y396632D01*
X972965Y396548D01*
X972978Y396463D01*
X973001Y396411D01*
X973016Y396357D01*
X973060Y396283D01*
X973095Y396204D01*
X973132Y396161D01*
X973161Y396112D01*
X973224Y396053D01*
X973279Y395988D01*
X973321Y395962D01*
X973368Y395918D01*
X973382Y395910D01*
X974987Y394305D01*
X975833Y392265D01*
X975833Y390055D01*
X974987Y388015D01*
X973425Y386453D01*
X971385Y385607D01*
X969175Y385607D01*
X967135Y386453D01*
X965773Y387814D01*
X965704Y387866D01*
X965640Y387926D01*
X965590Y387952D01*
X965546Y387985D01*
X965464Y388016D01*
X965386Y388056D01*
X965339Y388064D01*
X965280Y388086D01*
X965133Y388098D01*
X965055Y388111D01*
X961803Y388111D01*
X961717Y388099D01*
X961629Y388096D01*
X961577Y388079D01*
X961522Y388071D01*
X961442Y388036D01*
X961359Y388009D01*
X961320Y387981D01*
X961262Y387955D01*
X961149Y387859D01*
X961085Y387814D01*
X912630Y339359D01*
X912578Y339289D01*
X912518Y339225D01*
X912492Y339175D01*
X912459Y339131D01*
X912428Y339050D01*
X912388Y338972D01*
X912380Y338924D01*
X912358Y338866D01*
X912346Y338718D01*
X912333Y338641D01*
X912333Y336715D01*
X911487Y334675D01*
X909866Y333053D01*
X909819Y333026D01*
X909760Y332963D01*
X909694Y332907D01*
X909663Y332860D01*
X909624Y332819D01*
X909585Y332743D01*
X909537Y332671D01*
X909520Y332617D01*
X909494Y332566D01*
X909477Y332482D01*
X909451Y332400D01*
X909450Y332343D01*
X909439Y332288D01*
X909446Y332202D01*
X909444Y332116D01*
X909458Y332061D01*
X909463Y332004D01*
X909494Y331924D01*
X909516Y331841D01*
X909544Y331792D01*
X909565Y331739D01*
X909617Y331670D01*
X909661Y331596D01*
X909702Y331557D01*
X909736Y331512D01*
X909805Y331461D01*
X909868Y331402D01*
X909919Y331376D01*
X909964Y331342D01*
X910045Y331311D01*
X910121Y331272D01*
X910170Y331264D01*
X910230Y331241D01*
X910375Y331230D01*
X910452Y331217D01*
X912063Y331217D01*
X926847Y316433D01*
X926847Y315379D01*
X926859Y315292D01*
X926862Y315205D01*
X926879Y315152D01*
X926887Y315097D01*
X926922Y315017D01*
X926949Y314934D01*
X926977Y314895D01*
X927003Y314838D01*
X927099Y314724D01*
X927144Y314661D01*
X927705Y314100D01*
X928498Y312186D01*
X928498Y310114D01*
X927705Y308200D01*
X926240Y306735D01*
X924326Y305942D01*
X922254Y305942D01*
X920340Y306735D01*
X918875Y308200D01*
X918082Y310114D01*
X918082Y312186D01*
X918687Y313646D01*
X918688Y313648D01*
X918688Y313649D01*
X918722Y313780D01*
X918758Y313922D01*
X918758Y313923D01*
X918759Y313925D01*
X918754Y314065D01*
X918750Y314206D01*
X918750Y314207D01*
X918750Y314209D01*
X918707Y314342D01*
X918663Y314477D01*
X918663Y314478D01*
X918662Y314479D01*
X918653Y314492D01*
X918505Y314713D01*
X918482Y314732D01*
X918467Y314753D01*
X909414Y323806D01*
X909344Y323858D01*
X909280Y323918D01*
X909231Y323944D01*
X909187Y323977D01*
X909105Y324008D01*
X909027Y324048D01*
X908980Y324056D01*
X908921Y324078D01*
X908774Y324090D01*
X908696Y324103D01*
X897687Y324103D01*
X891793Y329997D01*
X891793Y355803D01*
X894174Y358184D01*
X897010Y361020D01*
X897011Y361021D01*
X897012Y361022D01*
X897097Y361136D01*
X897181Y361247D01*
X897181Y361249D01*
X897182Y361250D01*
X897232Y361382D01*
X897282Y361513D01*
X897282Y361514D01*
X897283Y361516D01*
X897294Y361660D01*
X897306Y361796D01*
X897305Y361797D01*
X897305Y361799D01*
X897302Y361815D01*
X897250Y362075D01*
X897236Y362102D01*
X897230Y362126D01*
X896813Y363134D01*
X896813Y365205D01*
X897606Y367120D01*
X899070Y368584D01*
X900985Y369377D01*
X903056Y369377D01*
X904970Y368584D01*
X906435Y367120D01*
X907228Y365205D01*
X907228Y363134D01*
X906435Y361220D01*
X905875Y360659D01*
X905822Y360589D01*
X905762Y360525D01*
X905737Y360476D01*
X905704Y360432D01*
X905672Y360350D01*
X905633Y360272D01*
X905625Y360224D01*
X905602Y360166D01*
X905590Y360018D01*
X905577Y359941D01*
X905577Y359527D01*
X899204Y353154D01*
X899152Y353084D01*
X899092Y353020D01*
X899066Y352971D01*
X899033Y352927D01*
X899002Y352845D01*
X898962Y352767D01*
X898954Y352720D01*
X898932Y352661D01*
X898920Y352514D01*
X898907Y352436D01*
X898907Y333364D01*
X898914Y333313D01*
X898913Y333294D01*
X898919Y333272D01*
X898922Y333190D01*
X898939Y333137D01*
X898947Y333082D01*
X898982Y333002D01*
X899009Y332919D01*
X899037Y332880D01*
X899063Y332823D01*
X899159Y332710D01*
X899204Y332646D01*
X900336Y331514D01*
X900406Y331462D01*
X900470Y331402D01*
X900519Y331376D01*
X900563Y331343D01*
X900645Y331312D01*
X900723Y331272D01*
X900770Y331264D01*
X900829Y331242D01*
X900976Y331230D01*
X901054Y331217D01*
X903108Y331217D01*
X903193Y331229D01*
X903279Y331231D01*
X903333Y331249D01*
X903389Y331257D01*
X903468Y331292D01*
X903550Y331318D01*
X903597Y331350D01*
X903649Y331373D01*
X903714Y331429D01*
X903786Y331476D01*
X903822Y331520D01*
X903866Y331556D01*
X903913Y331628D01*
X903969Y331694D01*
X903992Y331746D01*
X904023Y331793D01*
X904049Y331875D01*
X904084Y331954D01*
X904092Y332010D01*
X904109Y332064D01*
X904111Y332150D01*
X904123Y332236D01*
X904115Y332292D01*
X904116Y332348D01*
X904095Y332432D01*
X904082Y332517D01*
X904059Y332569D01*
X904044Y332623D01*
X904000Y332697D01*
X903965Y332776D01*
X903928Y332819D01*
X903899Y332868D01*
X903836Y332927D01*
X903781Y332992D01*
X903739Y333018D01*
X903692Y333062D01*
X903678Y333070D01*
X902073Y334675D01*
X901227Y336715D01*
X901227Y338925D01*
X902073Y340965D01*
X903635Y342527D01*
X903803Y342597D01*
X903828Y342612D01*
X903856Y342621D01*
X903950Y342684D01*
X904048Y342742D01*
X904068Y342763D01*
X904092Y342779D01*
X904165Y342866D01*
X904243Y342948D01*
X904256Y342974D01*
X904275Y342997D01*
X904321Y343100D01*
X904373Y343201D01*
X904379Y343230D01*
X904391Y343257D01*
X904406Y343369D01*
X904428Y343480D01*
X904425Y343509D01*
X904430Y343538D01*
X904413Y343650D01*
X904404Y343763D01*
X904393Y343791D01*
X904389Y343820D01*
X904342Y343923D01*
X904302Y344028D01*
X904284Y344052D01*
X904272Y344079D01*
X904198Y344165D01*
X904130Y344255D01*
X904106Y344273D01*
X904087Y344295D01*
X904021Y344337D01*
X903902Y344425D01*
X903844Y344447D01*
X903803Y344473D01*
X903635Y344543D01*
X902073Y346105D01*
X901227Y348145D01*
X901227Y350355D01*
X902073Y352395D01*
X903635Y353957D01*
X905675Y354803D01*
X907601Y354803D01*
X907687Y354815D01*
X907775Y354818D01*
X907827Y354835D01*
X907882Y354843D01*
X907962Y354878D01*
X908045Y354905D01*
X908084Y354933D01*
X908142Y354959D01*
X908255Y355055D01*
X908319Y355100D01*
X942840Y389621D01*
X942892Y389691D01*
X942952Y389755D01*
X942978Y389805D01*
X943011Y389849D01*
X943042Y389930D01*
X943082Y390008D01*
X943090Y390056D01*
X943112Y390114D01*
X943124Y390262D01*
X943137Y390339D01*
X943137Y392265D01*
X943983Y394305D01*
X945604Y395927D01*
X945651Y395954D01*
X945710Y396017D01*
X945776Y396073D01*
X945807Y396120D01*
X945846Y396161D01*
X945885Y396237D01*
X945933Y396309D01*
X945950Y396363D01*
X945976Y396414D01*
X945993Y396498D01*
X946019Y396580D01*
X946020Y396637D01*
X946031Y396692D01*
X946024Y396778D01*
X946026Y396864D01*
X946012Y396919D01*
X946007Y396976D01*
X945976Y397056D01*
X945954Y397139D01*
X945926Y397188D01*
X945905Y397241D01*
X945853Y397310D01*
X945809Y397384D01*
X945768Y397423D01*
X945734Y397468D01*
X945665Y397519D01*
X945602Y397578D01*
X945551Y397604D01*
X945506Y397638D01*
X945425Y397669D01*
X945349Y397708D01*
X945300Y397716D01*
X945240Y397739D01*
X945095Y397750D01*
X945018Y397763D01*
X897687Y397763D01*
X895306Y400144D01*
X864964Y430486D01*
X864894Y430538D01*
X864830Y430598D01*
X864781Y430624D01*
X864737Y430657D01*
X864655Y430688D01*
X864577Y430728D01*
X864530Y430736D01*
X864471Y430758D01*
X864324Y430770D01*
X864246Y430783D01*
X861967Y430783D01*
X861880Y430771D01*
X861793Y430768D01*
X861740Y430751D01*
X861685Y430743D01*
X861605Y430708D01*
X861522Y430681D01*
X861483Y430653D01*
X861426Y430627D01*
X861312Y430531D01*
X861249Y430486D01*
X860395Y429633D01*
X858355Y428787D01*
X856145Y428787D01*
X854105Y429633D01*
X852543Y431195D01*
X851697Y433235D01*
X851697Y435445D01*
X852543Y437485D01*
X854105Y439047D01*
X856145Y439893D01*
X858355Y439893D01*
X860395Y439047D01*
X861249Y438194D01*
X861318Y438142D01*
X861382Y438082D01*
X861432Y438056D01*
X861476Y438023D01*
X861558Y437992D01*
X861636Y437952D01*
X861683Y437944D01*
X861742Y437922D01*
X861889Y437910D01*
X861967Y437897D01*
X867802Y437897D01*
X867831Y437901D01*
X867861Y437898D01*
X867972Y437921D01*
X868084Y437937D01*
X868110Y437949D01*
X868139Y437954D01*
X868240Y438006D01*
X868343Y438053D01*
X868366Y438072D01*
X868392Y438085D01*
X868474Y438163D01*
X868560Y438236D01*
X868576Y438261D01*
X868598Y438281D01*
X868655Y438379D01*
X868718Y438473D01*
X868727Y438501D01*
X868741Y438526D01*
X868769Y438636D01*
X868804Y438744D01*
X868804Y438774D01*
X868812Y438802D01*
X868808Y438915D01*
X868811Y439028D01*
X868803Y439057D01*
X868802Y439086D01*
X868768Y439194D01*
X868739Y439303D01*
X868724Y439329D01*
X868715Y439357D01*
X868669Y439420D01*
X868594Y439548D01*
X868548Y439591D01*
X868520Y439630D01*
X864964Y443186D01*
X864894Y443238D01*
X864830Y443298D01*
X864781Y443324D01*
X864737Y443357D01*
X864655Y443388D01*
X864577Y443428D01*
X864530Y443436D01*
X864471Y443458D01*
X864324Y443470D01*
X864246Y443483D01*
X794817Y443483D01*
X794570Y443730D01*
X794500Y443782D01*
X794436Y443842D01*
X794387Y443868D01*
X794343Y443901D01*
X794261Y443932D01*
X794183Y443972D01*
X794136Y443980D01*
X794077Y444002D01*
X793930Y444014D01*
X793852Y444027D01*
X792645Y444027D01*
X790605Y444873D01*
X789043Y446435D01*
X788197Y448475D01*
X788197Y450685D01*
X789043Y452725D01*
X789208Y452890D01*
X789259Y452959D01*
X789318Y453022D01*
X789344Y453072D01*
X789379Y453118D01*
X789409Y453198D01*
X789448Y453274D01*
X789459Y453330D01*
X789480Y453383D01*
X789487Y453469D01*
X789504Y453553D01*
X789499Y453610D01*
X789503Y453667D01*
X789486Y453751D01*
X789479Y453836D01*
X789459Y453890D01*
X789447Y453945D01*
X789408Y454022D01*
X789377Y454102D01*
X789343Y454147D01*
X789316Y454198D01*
X789257Y454260D01*
X789205Y454328D01*
X789160Y454362D01*
X789121Y454404D01*
X789046Y454447D01*
X788978Y454499D01*
X788924Y454519D01*
X788875Y454547D01*
X788792Y454569D01*
X788712Y454599D01*
X788655Y454604D01*
X788600Y454618D01*
X788514Y454615D01*
X788428Y454622D01*
X788380Y454611D01*
X788316Y454609D01*
X788178Y454564D01*
X788101Y454546D01*
X787234Y454187D01*
X785025Y454187D01*
X782985Y455033D01*
X781423Y456595D01*
X780577Y458635D01*
X780577Y460845D01*
X781423Y462885D01*
X782985Y464447D01*
X785025Y465293D01*
X787235Y465293D01*
X789275Y464447D01*
X790129Y463594D01*
X790198Y463542D01*
X790262Y463482D01*
X790312Y463456D01*
X790356Y463423D01*
X790438Y463392D01*
X790516Y463352D01*
X790563Y463344D01*
X790622Y463322D01*
X790769Y463310D01*
X790847Y463297D01*
X869737Y463297D01*
X883954Y449080D01*
X884024Y449028D01*
X884088Y448968D01*
X884137Y448942D01*
X884181Y448909D01*
X884263Y448878D01*
X884341Y448838D01*
X884388Y448830D01*
X884447Y448808D01*
X884594Y448796D01*
X884672Y448783D01*
X885879Y448783D01*
X887919Y447937D01*
X889481Y446375D01*
X890327Y444335D01*
X890327Y442125D01*
X889481Y440085D01*
X887919Y438523D01*
X885879Y437677D01*
X883669Y437677D01*
X883030Y437942D01*
X882947Y437964D01*
X882867Y437994D01*
X882810Y437999D01*
X882755Y438013D01*
X882669Y438011D01*
X882583Y438018D01*
X882528Y438006D01*
X882471Y438005D01*
X882389Y437979D01*
X882305Y437962D01*
X882254Y437936D01*
X882200Y437918D01*
X882128Y437870D01*
X882052Y437831D01*
X882011Y437792D01*
X881964Y437760D01*
X881908Y437694D01*
X881846Y437635D01*
X881817Y437586D01*
X881781Y437542D01*
X881746Y437464D01*
X881702Y437390D01*
X881688Y437335D01*
X881665Y437283D01*
X881654Y437197D01*
X881632Y437114D01*
X881634Y437057D01*
X881626Y437001D01*
X881639Y436916D01*
X881641Y436830D01*
X881659Y436776D01*
X881667Y436720D01*
X881702Y436641D01*
X881729Y436560D01*
X881758Y436519D01*
X881784Y436461D01*
X881873Y436356D01*
X881889Y436330D01*
X881901Y436318D01*
X881924Y436286D01*
X900880Y417330D01*
X900950Y417278D01*
X901014Y417218D01*
X901063Y417192D01*
X901107Y417159D01*
X901189Y417128D01*
X901267Y417088D01*
X901314Y417080D01*
X901373Y417058D01*
X901520Y417046D01*
X901598Y417033D01*
X902805Y417033D01*
X904845Y416187D01*
X906407Y414625D01*
X907253Y412585D01*
X907253Y410375D01*
X906407Y408335D01*
X904786Y406713D01*
X904739Y406686D01*
X904680Y406623D01*
X904614Y406567D01*
X904583Y406520D01*
X904544Y406479D01*
X904505Y406403D01*
X904457Y406331D01*
X904440Y406277D01*
X904414Y406226D01*
X904397Y406142D01*
X904371Y406060D01*
X904370Y406003D01*
X904359Y405948D01*
X904366Y405862D01*
X904364Y405776D01*
X904378Y405721D01*
X904383Y405664D01*
X904414Y405584D01*
X904436Y405501D01*
X904464Y405452D01*
X904485Y405399D01*
X904537Y405330D01*
X904581Y405256D01*
X904622Y405217D01*
X904656Y405172D01*
X904725Y405121D01*
X904788Y405062D01*
X904839Y405036D01*
X904884Y405002D01*
X904965Y404971D01*
X905041Y404932D01*
X905090Y404924D01*
X905150Y404901D01*
X905295Y404890D01*
X905372Y404877D01*
X984453Y404877D01*
X1008127Y381203D01*
X1008127Y293167D01*
X1000299Y285339D01*
X1000264Y285292D01*
X1000222Y285252D01*
X1000179Y285179D01*
X1000128Y285112D01*
X1000108Y285057D01*
X1000078Y285007D01*
X1000057Y284925D01*
X1000027Y284846D01*
X1000022Y284788D01*
X1000008Y284731D01*
X1000011Y284647D01*
X1000004Y284563D01*
X1000015Y284506D01*
X1000017Y284447D01*
X1000043Y284367D01*
X1000059Y284284D01*
X1000086Y284232D01*
X1000104Y284177D01*
X1000145Y284121D01*
X1000190Y284032D01*
X1000259Y283960D01*
X1000299Y283903D01*
X1000387Y283815D01*
X1001233Y281775D01*
X1001233Y279565D01*
X1000387Y277525D01*
X998825Y275963D01*
X996785Y275117D01*
X994575Y275117D01*
G37*
%LPD*%
%LPC*%
G36*
X281842Y447547D02*
X281842Y447547D01*
X274827Y454562D01*
X274827Y481428D01*
X280572Y487173D01*
X423926Y487173D01*
X423946Y487176D01*
X423965Y487174D01*
X424067Y487196D01*
X424169Y487212D01*
X424186Y487222D01*
X424206Y487226D01*
X424295Y487279D01*
X424386Y487328D01*
X424400Y487342D01*
X424417Y487352D01*
X424484Y487431D01*
X424556Y487506D01*
X424564Y487524D01*
X424577Y487539D01*
X424616Y487635D01*
X424659Y487729D01*
X424661Y487749D01*
X424669Y487767D01*
X424687Y487934D01*
X424687Y508098D01*
X426622Y510033D01*
X452218Y510033D01*
X454153Y508098D01*
X454153Y496472D01*
X452218Y494537D01*
X442881Y494537D01*
X442791Y494523D01*
X442700Y494515D01*
X442671Y494503D01*
X442639Y494498D01*
X442558Y494455D01*
X442474Y494419D01*
X442442Y494393D01*
X442421Y494382D01*
X442399Y494359D01*
X442343Y494314D01*
X441676Y493647D01*
X441623Y493573D01*
X441563Y493504D01*
X441551Y493473D01*
X441532Y493447D01*
X441505Y493360D01*
X441471Y493275D01*
X441467Y493234D01*
X441460Y493212D01*
X441461Y493180D01*
X441453Y493109D01*
X441453Y464722D01*
X436978Y460247D01*
X377603Y460247D01*
X377513Y460233D01*
X377422Y460225D01*
X377393Y460213D01*
X377361Y460208D01*
X377280Y460165D01*
X377196Y460129D01*
X377164Y460103D01*
X377143Y460092D01*
X377121Y460069D01*
X377065Y460024D01*
X364588Y447547D01*
X281842Y447547D01*
G37*
%LPD*%
G36*
X363310Y450104D02*
X363310Y450104D01*
X363401Y450111D01*
X363431Y450123D01*
X363463Y450129D01*
X363543Y450171D01*
X363627Y450207D01*
X363659Y450233D01*
X363680Y450244D01*
X363702Y450267D01*
X363758Y450312D01*
X376235Y462789D01*
X435610Y462789D01*
X435700Y462804D01*
X435791Y462811D01*
X435821Y462823D01*
X435853Y462829D01*
X435933Y462871D01*
X436017Y462907D01*
X436049Y462933D01*
X436070Y462944D01*
X436092Y462967D01*
X436148Y463012D01*
X438688Y465552D01*
X438732Y465613D01*
X438765Y465647D01*
X438770Y465659D01*
X438801Y465695D01*
X438813Y465725D01*
X438832Y465751D01*
X438859Y465838D01*
X438893Y465923D01*
X438897Y465964D01*
X438904Y465987D01*
X438903Y466019D01*
X438911Y466090D01*
X438911Y494477D01*
X441513Y497079D01*
X450850Y497079D01*
X450870Y497082D01*
X450889Y497080D01*
X450991Y497102D01*
X451093Y497119D01*
X451110Y497128D01*
X451130Y497132D01*
X451219Y497185D01*
X451310Y497234D01*
X451324Y497248D01*
X451341Y497258D01*
X451408Y497337D01*
X451480Y497412D01*
X451488Y497430D01*
X451501Y497445D01*
X451540Y497541D01*
X451583Y497635D01*
X451585Y497655D01*
X451593Y497673D01*
X451611Y497840D01*
X451611Y506730D01*
X451608Y506750D01*
X451610Y506769D01*
X451588Y506871D01*
X451572Y506973D01*
X451562Y506990D01*
X451558Y507010D01*
X451505Y507099D01*
X451456Y507190D01*
X451442Y507204D01*
X451432Y507221D01*
X451353Y507288D01*
X451278Y507360D01*
X451260Y507368D01*
X451245Y507381D01*
X451149Y507420D01*
X451055Y507463D01*
X451035Y507465D01*
X451017Y507473D01*
X450850Y507491D01*
X427990Y507491D01*
X427970Y507488D01*
X427951Y507490D01*
X427849Y507468D01*
X427747Y507452D01*
X427730Y507442D01*
X427710Y507438D01*
X427621Y507385D01*
X427530Y507336D01*
X427516Y507322D01*
X427499Y507312D01*
X427432Y507233D01*
X427361Y507158D01*
X427352Y507140D01*
X427339Y507125D01*
X427300Y507029D01*
X427257Y506935D01*
X427255Y506915D01*
X427247Y506897D01*
X427229Y506730D01*
X427229Y484631D01*
X416668Y484631D01*
X416603Y484621D01*
X416538Y484620D01*
X416458Y484597D01*
X416425Y484592D01*
X416408Y484582D01*
X416377Y484573D01*
X414064Y483615D01*
X411436Y483615D01*
X409123Y484573D01*
X409060Y484588D01*
X408999Y484613D01*
X408916Y484622D01*
X408884Y484629D01*
X408865Y484628D01*
X408832Y484631D01*
X406508Y484631D01*
X406443Y484621D01*
X406378Y484620D01*
X406298Y484597D01*
X406265Y484592D01*
X406248Y484582D01*
X406217Y484573D01*
X403904Y483615D01*
X401276Y483615D01*
X398963Y484573D01*
X398900Y484588D01*
X398839Y484613D01*
X398756Y484622D01*
X398724Y484629D01*
X398705Y484628D01*
X398672Y484631D01*
X395078Y484631D01*
X395013Y484621D01*
X394948Y484620D01*
X394868Y484597D01*
X394835Y484592D01*
X394818Y484582D01*
X394787Y484573D01*
X392474Y483615D01*
X389846Y483615D01*
X387533Y484573D01*
X387470Y484588D01*
X387409Y484613D01*
X387326Y484622D01*
X387294Y484629D01*
X387275Y484628D01*
X387242Y484631D01*
X384918Y484631D01*
X384853Y484621D01*
X384788Y484620D01*
X384708Y484597D01*
X384675Y484592D01*
X384658Y484582D01*
X384627Y484573D01*
X382314Y483615D01*
X379686Y483615D01*
X377373Y484573D01*
X377310Y484588D01*
X377249Y484613D01*
X377166Y484622D01*
X377134Y484629D01*
X377115Y484628D01*
X377082Y484631D01*
X281940Y484631D01*
X281850Y484617D01*
X281759Y484609D01*
X281729Y484597D01*
X281697Y484592D01*
X281617Y484549D01*
X281533Y484513D01*
X281501Y484487D01*
X281480Y484476D01*
X281458Y484453D01*
X281402Y484408D01*
X277592Y480598D01*
X277539Y480524D01*
X277479Y480455D01*
X277467Y480425D01*
X277448Y480399D01*
X277421Y480312D01*
X277387Y480227D01*
X277383Y480186D01*
X277376Y480163D01*
X277377Y480131D01*
X277369Y480060D01*
X277369Y455930D01*
X277384Y455840D01*
X277391Y455749D01*
X277403Y455719D01*
X277409Y455687D01*
X277451Y455607D01*
X277487Y455523D01*
X277513Y455491D01*
X277524Y455470D01*
X277547Y455448D01*
X277592Y455392D01*
X282672Y450312D01*
X282746Y450259D01*
X282815Y450199D01*
X282845Y450187D01*
X282871Y450168D01*
X282958Y450141D01*
X283043Y450107D01*
X283084Y450103D01*
X283107Y450096D01*
X283139Y450097D01*
X283210Y450089D01*
X363220Y450089D01*
X363310Y450104D01*
G37*
%LPC*%
G36*
X946871Y40385D02*
X946871Y40385D01*
X943510Y41777D01*
X940937Y44350D01*
X940735Y44839D01*
X940734Y44840D01*
X940734Y44841D01*
X940665Y44958D01*
X940591Y45083D01*
X940589Y45085D01*
X940589Y45086D01*
X940487Y45181D01*
X940384Y45279D01*
X940382Y45279D01*
X940381Y45280D01*
X940256Y45345D01*
X940131Y45409D01*
X940130Y45409D01*
X940128Y45410D01*
X940113Y45412D01*
X939852Y45464D01*
X939822Y45461D01*
X939797Y45465D01*
X878426Y45465D01*
X865885Y58006D01*
X865885Y74096D01*
X865873Y74182D01*
X865870Y74270D01*
X865853Y74323D01*
X865845Y74377D01*
X865810Y74457D01*
X865783Y74540D01*
X865755Y74580D01*
X865729Y74637D01*
X865633Y74750D01*
X865588Y74814D01*
X855864Y84538D01*
X853185Y87216D01*
X853185Y94131D01*
X853184Y94141D01*
X853185Y94151D01*
X853164Y94282D01*
X853145Y94413D01*
X853141Y94422D01*
X853140Y94432D01*
X853084Y94551D01*
X853029Y94672D01*
X853023Y94680D01*
X853019Y94689D01*
X852931Y94788D01*
X852846Y94889D01*
X852837Y94895D01*
X852831Y94902D01*
X852720Y94973D01*
X852609Y95047D01*
X852599Y95050D01*
X852591Y95055D01*
X852465Y95092D01*
X852338Y95133D01*
X852328Y95133D01*
X852319Y95136D01*
X852187Y95137D01*
X852054Y95140D01*
X852044Y95137D01*
X852034Y95137D01*
X851907Y95102D01*
X851779Y95068D01*
X851770Y95063D01*
X851761Y95060D01*
X851648Y94990D01*
X851534Y94923D01*
X851528Y94916D01*
X851519Y94911D01*
X851430Y94812D01*
X851340Y94716D01*
X851335Y94707D01*
X851329Y94699D01*
X851305Y94648D01*
X851210Y94462D01*
X851204Y94427D01*
X851189Y94394D01*
X851113Y94109D01*
X850323Y92201D01*
X849291Y90414D01*
X848034Y88776D01*
X846574Y87316D01*
X844936Y86059D01*
X843149Y85027D01*
X841241Y84237D01*
X839247Y83703D01*
X838199Y83565D01*
X838199Y98166D01*
X838191Y98224D01*
X838193Y98282D01*
X838171Y98364D01*
X838159Y98447D01*
X838135Y98501D01*
X838121Y98557D01*
X838078Y98630D01*
X838043Y98707D01*
X838005Y98751D01*
X837975Y98802D01*
X837914Y98859D01*
X837859Y98924D01*
X837811Y98956D01*
X837768Y98996D01*
X837693Y99035D01*
X837623Y99081D01*
X837567Y99099D01*
X837515Y99126D01*
X837447Y99137D01*
X837352Y99167D01*
X837252Y99170D01*
X837184Y99181D01*
X836167Y99181D01*
X836167Y99183D01*
X837184Y99183D01*
X837242Y99191D01*
X837300Y99190D01*
X837382Y99211D01*
X837465Y99223D01*
X837519Y99247D01*
X837575Y99261D01*
X837648Y99304D01*
X837725Y99339D01*
X837770Y99377D01*
X837820Y99407D01*
X837878Y99468D01*
X837942Y99523D01*
X837974Y99571D01*
X838014Y99614D01*
X838053Y99689D01*
X838099Y99759D01*
X838117Y99815D01*
X838144Y99867D01*
X838155Y99935D01*
X838185Y100030D01*
X838188Y100130D01*
X838199Y100198D01*
X838199Y114799D01*
X839247Y114661D01*
X841241Y114127D01*
X843149Y113337D01*
X844936Y112305D01*
X846574Y111048D01*
X848034Y109588D01*
X849291Y107950D01*
X850323Y106163D01*
X851113Y104255D01*
X851189Y103970D01*
X851193Y103961D01*
X851195Y103951D01*
X851249Y103831D01*
X851301Y103708D01*
X851307Y103701D01*
X851311Y103692D01*
X851397Y103591D01*
X851480Y103488D01*
X851488Y103482D01*
X851495Y103475D01*
X851605Y103401D01*
X851714Y103326D01*
X851723Y103323D01*
X851731Y103317D01*
X851858Y103277D01*
X851983Y103235D01*
X851993Y103234D01*
X852002Y103231D01*
X852134Y103228D01*
X852267Y103222D01*
X852277Y103224D01*
X852286Y103224D01*
X852414Y103257D01*
X852543Y103289D01*
X852552Y103293D01*
X852561Y103296D01*
X852674Y103363D01*
X852790Y103429D01*
X852797Y103436D01*
X852806Y103441D01*
X852896Y103538D01*
X852989Y103633D01*
X852994Y103641D01*
X853000Y103648D01*
X853061Y103766D01*
X853123Y103883D01*
X853125Y103893D01*
X853130Y103902D01*
X853139Y103957D01*
X853183Y104161D01*
X853179Y104197D01*
X853185Y104233D01*
X853185Y135491D01*
X853178Y135541D01*
X853179Y135553D01*
X853174Y135569D01*
X853173Y135578D01*
X853170Y135665D01*
X853153Y135718D01*
X853145Y135773D01*
X853110Y135853D01*
X853083Y135936D01*
X853055Y135975D01*
X853029Y136032D01*
X852933Y136146D01*
X852888Y136209D01*
X852543Y136555D01*
X851697Y138595D01*
X851697Y140805D01*
X852543Y142845D01*
X854105Y144407D01*
X856145Y145253D01*
X858355Y145253D01*
X860395Y144407D01*
X861957Y142845D01*
X862803Y140805D01*
X862803Y138595D01*
X861957Y136555D01*
X861612Y136209D01*
X861560Y136140D01*
X861500Y136076D01*
X861474Y136026D01*
X861441Y135982D01*
X861410Y135900D01*
X861370Y135822D01*
X861362Y135775D01*
X861340Y135716D01*
X861331Y135612D01*
X861329Y135604D01*
X861328Y135570D01*
X861328Y135569D01*
X861315Y135491D01*
X861315Y91004D01*
X861327Y90918D01*
X861330Y90830D01*
X861347Y90777D01*
X861355Y90723D01*
X861390Y90643D01*
X861417Y90560D01*
X861445Y90520D01*
X861471Y90463D01*
X861567Y90350D01*
X861612Y90286D01*
X871336Y80562D01*
X874015Y77884D01*
X874015Y61794D01*
X874027Y61708D01*
X874030Y61620D01*
X874047Y61568D01*
X874055Y61513D01*
X874090Y61433D01*
X874117Y61350D01*
X874145Y61310D01*
X874171Y61253D01*
X874267Y61140D01*
X874312Y61076D01*
X881496Y53892D01*
X881566Y53840D01*
X881630Y53780D01*
X881679Y53754D01*
X881724Y53721D01*
X881805Y53690D01*
X881883Y53650D01*
X881931Y53642D01*
X881989Y53620D01*
X882137Y53608D01*
X882214Y53595D01*
X939797Y53595D01*
X939799Y53595D01*
X939800Y53595D01*
X939941Y53615D01*
X940079Y53635D01*
X940080Y53635D01*
X940082Y53635D01*
X940209Y53693D01*
X940338Y53751D01*
X940339Y53752D01*
X940341Y53753D01*
X940448Y53844D01*
X940555Y53934D01*
X940556Y53936D01*
X940557Y53937D01*
X940565Y53950D01*
X940713Y54171D01*
X940722Y54200D01*
X940735Y54221D01*
X940937Y54710D01*
X943510Y57283D01*
X946871Y58675D01*
X950509Y58675D01*
X953870Y57283D01*
X956443Y54710D01*
X957835Y51349D01*
X957835Y47711D01*
X956443Y44350D01*
X953870Y41777D01*
X950509Y40385D01*
X946871Y40385D01*
G37*
%LPD*%
%LPC*%
G36*
X763637Y213867D02*
X763637Y213867D01*
X759623Y215530D01*
X756550Y218603D01*
X756457Y218829D01*
X756456Y218830D01*
X756455Y218831D01*
X756385Y218950D01*
X756312Y219073D01*
X756311Y219074D01*
X756310Y219076D01*
X756206Y219174D01*
X756105Y219269D01*
X756104Y219269D01*
X756103Y219270D01*
X755979Y219334D01*
X755853Y219399D01*
X755851Y219399D01*
X755850Y219400D01*
X755835Y219402D01*
X755574Y219454D01*
X755543Y219451D01*
X755519Y219455D01*
X626966Y219455D01*
X611008Y235414D01*
X610938Y235466D01*
X610874Y235526D01*
X610825Y235552D01*
X610780Y235585D01*
X610699Y235616D01*
X610621Y235656D01*
X610573Y235664D01*
X610515Y235686D01*
X610367Y235698D01*
X610290Y235711D01*
X609758Y235711D01*
X607704Y236562D01*
X606132Y238134D01*
X605281Y240188D01*
X605281Y242412D01*
X606132Y244466D01*
X607704Y246038D01*
X609758Y246889D01*
X611982Y246889D01*
X614036Y246038D01*
X615608Y244466D01*
X616459Y242412D01*
X616459Y241880D01*
X616471Y241794D01*
X616474Y241706D01*
X616491Y241654D01*
X616499Y241599D01*
X616534Y241519D01*
X616561Y241436D01*
X616589Y241396D01*
X616615Y241339D01*
X616711Y241226D01*
X616756Y241162D01*
X630036Y227882D01*
X630106Y227830D01*
X630170Y227770D01*
X630219Y227744D01*
X630264Y227711D01*
X630345Y227680D01*
X630423Y227640D01*
X630471Y227632D01*
X630529Y227610D01*
X630677Y227598D01*
X630754Y227585D01*
X754467Y227585D01*
X754468Y227585D01*
X754470Y227585D01*
X754610Y227605D01*
X754748Y227625D01*
X754750Y227625D01*
X754751Y227625D01*
X754877Y227682D01*
X755007Y227741D01*
X755009Y227742D01*
X755010Y227743D01*
X755117Y227834D01*
X755224Y227924D01*
X755225Y227926D01*
X755227Y227927D01*
X755235Y227940D01*
X755382Y228161D01*
X755391Y228190D01*
X755405Y228211D01*
X756550Y230977D01*
X759623Y234050D01*
X763637Y235713D01*
X767983Y235713D01*
X771997Y234050D01*
X775070Y230977D01*
X776733Y226963D01*
X776733Y222617D01*
X775070Y218603D01*
X771997Y215530D01*
X767983Y213867D01*
X763637Y213867D01*
G37*
%LPD*%
%LPC*%
G36*
X402755Y45211D02*
X402755Y45211D01*
X398367Y47029D01*
X395009Y50387D01*
X393191Y54775D01*
X393191Y59525D01*
X395009Y63913D01*
X398367Y67271D01*
X402755Y69089D01*
X407505Y69089D01*
X411893Y67271D01*
X415251Y63913D01*
X416892Y59951D01*
X416907Y59926D01*
X416916Y59898D01*
X416979Y59804D01*
X417037Y59707D01*
X417058Y59686D01*
X417074Y59662D01*
X417161Y59589D01*
X417243Y59511D01*
X417269Y59498D01*
X417292Y59479D01*
X417395Y59433D01*
X417496Y59381D01*
X417525Y59375D01*
X417552Y59364D01*
X417664Y59348D01*
X417775Y59326D01*
X417804Y59329D01*
X417833Y59325D01*
X417945Y59341D01*
X418058Y59351D01*
X418085Y59361D01*
X418115Y59365D01*
X418218Y59412D01*
X418323Y59453D01*
X418347Y59470D01*
X418374Y59482D01*
X418460Y59556D01*
X418550Y59624D01*
X418568Y59648D01*
X418590Y59667D01*
X418632Y59733D01*
X418720Y59852D01*
X418742Y59910D01*
X418768Y59951D01*
X420409Y63913D01*
X423767Y67271D01*
X428155Y69089D01*
X432905Y69089D01*
X437293Y67271D01*
X440651Y63913D01*
X442292Y59951D01*
X442307Y59926D01*
X442316Y59898D01*
X442379Y59804D01*
X442437Y59707D01*
X442458Y59686D01*
X442474Y59662D01*
X442561Y59589D01*
X442643Y59511D01*
X442669Y59498D01*
X442692Y59479D01*
X442795Y59433D01*
X442896Y59381D01*
X442925Y59375D01*
X442952Y59364D01*
X443064Y59348D01*
X443175Y59326D01*
X443204Y59329D01*
X443233Y59325D01*
X443345Y59341D01*
X443458Y59351D01*
X443485Y59361D01*
X443515Y59365D01*
X443618Y59412D01*
X443723Y59453D01*
X443747Y59470D01*
X443774Y59482D01*
X443860Y59556D01*
X443950Y59624D01*
X443968Y59648D01*
X443990Y59667D01*
X444032Y59733D01*
X444120Y59852D01*
X444142Y59910D01*
X444168Y59951D01*
X445809Y63913D01*
X449167Y67271D01*
X453555Y69089D01*
X458305Y69089D01*
X462693Y67271D01*
X466051Y63913D01*
X467757Y59795D01*
X467777Y59760D01*
X467790Y59722D01*
X467808Y59698D01*
X467818Y59671D01*
X467863Y59615D01*
X467901Y59550D01*
X467931Y59522D01*
X467954Y59489D01*
X467977Y59470D01*
X467995Y59448D01*
X468053Y59407D01*
X468108Y59355D01*
X468144Y59336D01*
X468175Y59311D01*
X468203Y59299D01*
X468226Y59283D01*
X468293Y59259D01*
X468361Y59224D01*
X468400Y59217D01*
X468437Y59201D01*
X468468Y59198D01*
X468494Y59188D01*
X468565Y59184D01*
X468640Y59169D01*
X468680Y59173D01*
X468720Y59168D01*
X468750Y59173D01*
X468778Y59172D01*
X468847Y59187D01*
X468923Y59194D01*
X468960Y59208D01*
X469000Y59215D01*
X469028Y59228D01*
X469055Y59234D01*
X469118Y59269D01*
X469188Y59296D01*
X469220Y59320D01*
X469256Y59337D01*
X469279Y59358D01*
X469304Y59371D01*
X469355Y59422D01*
X469415Y59467D01*
X469439Y59499D01*
X469469Y59526D01*
X469485Y59552D01*
X469505Y59572D01*
X469534Y59626D01*
X469585Y59695D01*
X469599Y59733D01*
X469621Y59766D01*
X469635Y59821D01*
X469661Y59870D01*
X470266Y61733D01*
X471119Y63407D01*
X472224Y64928D01*
X473552Y66256D01*
X475073Y67361D01*
X476747Y68214D01*
X478534Y68795D01*
X479299Y68916D01*
X479299Y58166D01*
X479307Y58108D01*
X479305Y58050D01*
X479327Y57968D01*
X479339Y57885D01*
X479363Y57831D01*
X479377Y57775D01*
X479420Y57702D01*
X479455Y57625D01*
X479493Y57581D01*
X479523Y57530D01*
X479584Y57473D01*
X479639Y57408D01*
X479687Y57376D01*
X479730Y57336D01*
X479805Y57297D01*
X479875Y57251D01*
X479931Y57233D01*
X479983Y57206D01*
X480051Y57195D01*
X480146Y57165D01*
X480246Y57162D01*
X480314Y57151D01*
X481331Y57151D01*
X481331Y57149D01*
X480314Y57149D01*
X480256Y57141D01*
X480198Y57142D01*
X480116Y57121D01*
X480033Y57109D01*
X479979Y57085D01*
X479923Y57071D01*
X479850Y57028D01*
X479773Y56993D01*
X479728Y56955D01*
X479678Y56925D01*
X479620Y56864D01*
X479556Y56809D01*
X479524Y56761D01*
X479484Y56718D01*
X479445Y56643D01*
X479399Y56573D01*
X479381Y56517D01*
X479354Y56465D01*
X479343Y56397D01*
X479313Y56302D01*
X479310Y56202D01*
X479299Y56134D01*
X479299Y45384D01*
X478534Y45505D01*
X476747Y46086D01*
X475073Y46939D01*
X473552Y48044D01*
X472224Y49372D01*
X471119Y50893D01*
X470266Y52567D01*
X469661Y54430D01*
X469648Y54456D01*
X469641Y54486D01*
X469621Y54521D01*
X469609Y54559D01*
X469568Y54621D01*
X469536Y54686D01*
X469516Y54707D01*
X469502Y54733D01*
X469473Y54762D01*
X469451Y54795D01*
X469393Y54843D01*
X469345Y54897D01*
X469321Y54911D01*
X469299Y54933D01*
X469264Y54952D01*
X469233Y54978D01*
X469164Y55009D01*
X469103Y55046D01*
X469076Y55054D01*
X469049Y55068D01*
X469010Y55077D01*
X468973Y55093D01*
X468898Y55104D01*
X468829Y55123D01*
X468802Y55123D01*
X468771Y55129D01*
X468731Y55127D01*
X468692Y55132D01*
X468616Y55121D01*
X468545Y55121D01*
X468519Y55113D01*
X468488Y55111D01*
X468450Y55097D01*
X468410Y55091D01*
X468341Y55060D01*
X468273Y55040D01*
X468249Y55025D01*
X468220Y55014D01*
X468188Y54991D01*
X468151Y54974D01*
X468094Y54925D01*
X468033Y54887D01*
X468015Y54865D01*
X467990Y54848D01*
X467965Y54816D01*
X467935Y54790D01*
X467901Y54736D01*
X467846Y54673D01*
X467834Y54647D01*
X467815Y54624D01*
X467787Y54553D01*
X467757Y54505D01*
X466051Y50387D01*
X462693Y47029D01*
X458305Y45211D01*
X453555Y45211D01*
X449167Y47029D01*
X445809Y50387D01*
X444168Y54349D01*
X444153Y54374D01*
X444144Y54402D01*
X444081Y54496D01*
X444023Y54593D01*
X444002Y54614D01*
X443986Y54638D01*
X443899Y54711D01*
X443817Y54789D01*
X443791Y54802D01*
X443768Y54821D01*
X443665Y54867D01*
X443564Y54919D01*
X443535Y54925D01*
X443508Y54936D01*
X443396Y54952D01*
X443285Y54974D01*
X443256Y54971D01*
X443227Y54975D01*
X443115Y54959D01*
X443002Y54949D01*
X442975Y54939D01*
X442946Y54935D01*
X442842Y54888D01*
X442737Y54847D01*
X442713Y54830D01*
X442686Y54818D01*
X442600Y54744D01*
X442510Y54676D01*
X442492Y54652D01*
X442470Y54633D01*
X442428Y54567D01*
X442340Y54448D01*
X442318Y54390D01*
X442292Y54349D01*
X440651Y50387D01*
X437293Y47029D01*
X432905Y45211D01*
X428155Y45211D01*
X423767Y47029D01*
X420409Y50387D01*
X418768Y54349D01*
X418753Y54374D01*
X418744Y54402D01*
X418681Y54496D01*
X418623Y54593D01*
X418602Y54614D01*
X418586Y54638D01*
X418499Y54711D01*
X418417Y54789D01*
X418391Y54802D01*
X418368Y54821D01*
X418265Y54867D01*
X418164Y54919D01*
X418135Y54925D01*
X418108Y54936D01*
X417996Y54952D01*
X417885Y54974D01*
X417856Y54971D01*
X417827Y54975D01*
X417715Y54959D01*
X417602Y54949D01*
X417575Y54939D01*
X417546Y54935D01*
X417442Y54888D01*
X417337Y54847D01*
X417313Y54830D01*
X417286Y54818D01*
X417200Y54744D01*
X417110Y54676D01*
X417092Y54652D01*
X417070Y54633D01*
X417028Y54567D01*
X416940Y54448D01*
X416918Y54390D01*
X416892Y54349D01*
X415251Y50387D01*
X411893Y47029D01*
X407505Y45211D01*
X402755Y45211D01*
G37*
%LPD*%
%LPC*%
G36*
X401723Y652189D02*
X401723Y652189D01*
X393876Y655440D01*
X387870Y661446D01*
X384619Y669293D01*
X384619Y677787D01*
X387870Y685634D01*
X393876Y691640D01*
X401723Y694891D01*
X410217Y694891D01*
X418064Y691640D01*
X424070Y685634D01*
X427321Y677787D01*
X427321Y669293D01*
X424070Y661446D01*
X418064Y655440D01*
X410217Y652189D01*
X401723Y652189D01*
G37*
%LPD*%
%LPC*%
G36*
X559203Y652189D02*
X559203Y652189D01*
X551356Y655440D01*
X545350Y661446D01*
X542099Y669293D01*
X542099Y677787D01*
X545350Y685634D01*
X551356Y691640D01*
X559203Y694891D01*
X567697Y694891D01*
X575544Y691640D01*
X581550Y685634D01*
X584801Y677787D01*
X584801Y669293D01*
X581550Y661446D01*
X575544Y655440D01*
X567697Y652189D01*
X559203Y652189D01*
G37*
%LPD*%
%LPC*%
G36*
X253133Y652189D02*
X253133Y652189D01*
X245286Y655440D01*
X239280Y661446D01*
X236029Y669293D01*
X236029Y677787D01*
X239280Y685634D01*
X245286Y691640D01*
X253133Y694891D01*
X261627Y694891D01*
X269474Y691640D01*
X275480Y685634D01*
X278731Y677787D01*
X278731Y669293D01*
X275480Y661446D01*
X269474Y655440D01*
X261627Y652189D01*
X253133Y652189D01*
G37*
%LPD*%
%LPC*%
G36*
X96923Y652189D02*
X96923Y652189D01*
X89076Y655440D01*
X83070Y661446D01*
X79819Y669293D01*
X79819Y677787D01*
X83070Y685634D01*
X89076Y691640D01*
X96923Y694891D01*
X105417Y694891D01*
X113264Y691640D01*
X119270Y685634D01*
X122521Y677787D01*
X122521Y669293D01*
X119270Y661446D01*
X113264Y655440D01*
X105417Y652189D01*
X96923Y652189D01*
G37*
%LPD*%
%LPC*%
G36*
X390984Y774499D02*
X390984Y774499D01*
X383618Y777550D01*
X377980Y783188D01*
X374929Y790554D01*
X374929Y798526D01*
X377980Y805892D01*
X383618Y811530D01*
X390984Y814581D01*
X398956Y814581D01*
X406322Y811530D01*
X411960Y805892D01*
X415011Y798526D01*
X415011Y790554D01*
X411960Y783188D01*
X406322Y777550D01*
X398956Y774499D01*
X390984Y774499D01*
G37*
%LPD*%
%LPC*%
G36*
X548464Y774499D02*
X548464Y774499D01*
X541098Y777550D01*
X535460Y783188D01*
X532409Y790554D01*
X532409Y798526D01*
X535460Y805892D01*
X541098Y811530D01*
X548464Y814581D01*
X556436Y814581D01*
X563802Y811530D01*
X569440Y805892D01*
X572491Y798526D01*
X572491Y790554D01*
X569440Y783188D01*
X563802Y777550D01*
X556436Y774499D01*
X548464Y774499D01*
G37*
%LPD*%
%LPC*%
G36*
X86184Y774499D02*
X86184Y774499D01*
X78818Y777550D01*
X73180Y783188D01*
X70129Y790554D01*
X70129Y798526D01*
X73180Y805892D01*
X78818Y811530D01*
X86184Y814581D01*
X94156Y814581D01*
X101522Y811530D01*
X107160Y805892D01*
X110211Y798526D01*
X110211Y790554D01*
X107160Y783188D01*
X101522Y777550D01*
X94156Y774499D01*
X86184Y774499D01*
G37*
%LPD*%
%LPC*%
G36*
X242394Y774499D02*
X242394Y774499D01*
X235028Y777550D01*
X229390Y783188D01*
X226339Y790554D01*
X226339Y798526D01*
X229390Y805892D01*
X235028Y811530D01*
X242394Y814581D01*
X250366Y814581D01*
X257732Y811530D01*
X263370Y805892D01*
X266421Y798526D01*
X266421Y790554D01*
X263370Y783188D01*
X257732Y777550D01*
X250366Y774499D01*
X242394Y774499D01*
G37*
%LPD*%
%LPC*%
G36*
X492773Y460553D02*
X492773Y460553D01*
X490451Y461515D01*
X488673Y463293D01*
X487711Y465615D01*
X487711Y468129D01*
X488673Y470451D01*
X490451Y472229D01*
X492773Y473191D01*
X495287Y473191D01*
X497609Y472229D01*
X498932Y470906D01*
X499006Y470853D01*
X499076Y470793D01*
X499106Y470781D01*
X499132Y470762D01*
X499219Y470735D01*
X499304Y470701D01*
X499345Y470697D01*
X499367Y470690D01*
X499399Y470691D01*
X499471Y470683D01*
X557688Y470683D01*
X557778Y470697D01*
X557869Y470705D01*
X557899Y470717D01*
X557931Y470722D01*
X558012Y470765D01*
X558096Y470801D01*
X558128Y470827D01*
X558148Y470838D01*
X558171Y470861D01*
X558226Y470906D01*
X575118Y487798D01*
X575171Y487871D01*
X575231Y487941D01*
X575243Y487971D01*
X575262Y487997D01*
X575289Y488084D01*
X575323Y488169D01*
X575327Y488210D01*
X575334Y488232D01*
X575333Y488265D01*
X575341Y488336D01*
X575341Y490207D01*
X576303Y492529D01*
X578081Y494307D01*
X580403Y495269D01*
X582917Y495269D01*
X585239Y494307D01*
X587017Y492529D01*
X587979Y490207D01*
X587979Y487693D01*
X587017Y485371D01*
X585239Y483593D01*
X582917Y482631D01*
X581046Y482631D01*
X580956Y482617D01*
X580865Y482609D01*
X580835Y482597D01*
X580803Y482592D01*
X580722Y482549D01*
X580638Y482513D01*
X580606Y482487D01*
X580586Y482476D01*
X580563Y482453D01*
X580508Y482408D01*
X561160Y463061D01*
X499471Y463061D01*
X499380Y463047D01*
X499290Y463039D01*
X499260Y463027D01*
X499228Y463022D01*
X499147Y462979D01*
X499063Y462943D01*
X499031Y462917D01*
X499010Y462906D01*
X498988Y462883D01*
X498932Y462838D01*
X497609Y461515D01*
X495287Y460553D01*
X492773Y460553D01*
G37*
%LPD*%
%LPC*%
G36*
X176021Y112521D02*
X176021Y112521D01*
X176021Y143470D01*
X178841Y143193D01*
X182023Y142560D01*
X185128Y141618D01*
X188125Y140376D01*
X190986Y138847D01*
X193684Y137044D01*
X196192Y134986D01*
X198486Y132692D01*
X200544Y130184D01*
X202347Y127486D01*
X203876Y124625D01*
X205118Y121628D01*
X206060Y118523D01*
X206693Y115341D01*
X206970Y112521D01*
X176021Y112521D01*
G37*
%LPD*%
%LPC*%
G36*
X176021Y108459D02*
X176021Y108459D01*
X206970Y108459D01*
X206693Y105639D01*
X206060Y102457D01*
X205118Y99352D01*
X203876Y96355D01*
X202347Y93494D01*
X200544Y90796D01*
X198486Y88288D01*
X196192Y85994D01*
X193684Y83936D01*
X190986Y82133D01*
X188125Y80604D01*
X185128Y79362D01*
X182023Y78420D01*
X178841Y77787D01*
X176021Y77510D01*
X176021Y108459D01*
G37*
%LPD*%
%LPC*%
G36*
X69890Y112521D02*
X69890Y112521D01*
X70167Y115341D01*
X70800Y118523D01*
X71742Y121628D01*
X72984Y124625D01*
X74513Y127486D01*
X76316Y130184D01*
X78374Y132692D01*
X80668Y134986D01*
X83176Y137044D01*
X85874Y138847D01*
X88735Y140376D01*
X91732Y141618D01*
X94837Y142560D01*
X98019Y143193D01*
X100839Y143470D01*
X100839Y112521D01*
X69890Y112521D01*
G37*
%LPD*%
%LPC*%
G36*
X98019Y77787D02*
X98019Y77787D01*
X94837Y78420D01*
X91732Y79362D01*
X88735Y80604D01*
X85874Y82133D01*
X83176Y83936D01*
X80668Y85994D01*
X78374Y88288D01*
X76316Y90796D01*
X74513Y93494D01*
X72984Y96355D01*
X71742Y99352D01*
X70800Y102457D01*
X70167Y105639D01*
X69890Y108459D01*
X100839Y108459D01*
X100839Y77510D01*
X98019Y77787D01*
G37*
%LPD*%
%LPC*%
G36*
X871454Y181482D02*
X871454Y181482D01*
X869540Y182275D01*
X868075Y183740D01*
X867282Y185654D01*
X867282Y187726D01*
X868075Y189640D01*
X869398Y190963D01*
X869450Y191033D01*
X869510Y191096D01*
X869536Y191146D01*
X869569Y191190D01*
X869600Y191272D01*
X869640Y191350D01*
X869648Y191397D01*
X869670Y191456D01*
X869682Y191603D01*
X869695Y191681D01*
X869695Y199930D01*
X869683Y200017D01*
X869680Y200104D01*
X869663Y200157D01*
X869655Y200212D01*
X869620Y200292D01*
X869593Y200375D01*
X869565Y200414D01*
X869539Y200471D01*
X869443Y200585D01*
X869398Y200648D01*
X860624Y209422D01*
X860167Y209880D01*
X860142Y209898D01*
X860122Y209922D01*
X860055Y209963D01*
X859939Y210051D01*
X859879Y210074D01*
X859837Y210100D01*
X858534Y210639D01*
X857069Y212104D01*
X856277Y214018D01*
X856277Y216090D01*
X857069Y218004D01*
X858534Y219469D01*
X860448Y220262D01*
X862520Y220262D01*
X864434Y219469D01*
X865899Y218004D01*
X866472Y216621D01*
X866516Y216547D01*
X866551Y216469D01*
X866588Y216425D01*
X866617Y216376D01*
X866679Y216317D01*
X866735Y216252D01*
X866782Y216220D01*
X866823Y216181D01*
X866900Y216142D01*
X866971Y216094D01*
X867025Y216077D01*
X867076Y216051D01*
X867160Y216034D01*
X867242Y216008D01*
X867299Y216007D01*
X867355Y215996D01*
X867440Y216003D01*
X867526Y216001D01*
X867581Y216015D01*
X867638Y216020D01*
X867719Y216051D01*
X867801Y216073D01*
X867850Y216102D01*
X867903Y216122D01*
X867972Y216174D01*
X868046Y216218D01*
X868085Y216260D01*
X868130Y216294D01*
X868182Y216363D01*
X868240Y216426D01*
X868266Y216476D01*
X868300Y216522D01*
X868331Y216602D01*
X868370Y216679D01*
X868378Y216727D01*
X868401Y216788D01*
X868412Y216932D01*
X868425Y217010D01*
X868425Y226149D01*
X868413Y226236D01*
X868410Y226323D01*
X868393Y226376D01*
X868385Y226431D01*
X868350Y226511D01*
X868323Y226594D01*
X868295Y226633D01*
X868269Y226690D01*
X868173Y226804D01*
X868128Y226867D01*
X866805Y228190D01*
X866012Y230104D01*
X866012Y232176D01*
X866805Y234090D01*
X868270Y235555D01*
X870184Y236348D01*
X872256Y236348D01*
X874170Y235555D01*
X875635Y234090D01*
X876428Y232176D01*
X876428Y230104D01*
X875635Y228190D01*
X874312Y226867D01*
X874260Y226797D01*
X874200Y226734D01*
X874174Y226684D01*
X874141Y226640D01*
X874110Y226558D01*
X874070Y226480D01*
X874062Y226433D01*
X874040Y226374D01*
X874028Y226227D01*
X874015Y226149D01*
X874015Y212644D01*
X874027Y212558D01*
X874030Y212470D01*
X874047Y212418D01*
X874055Y212363D01*
X874090Y212283D01*
X874117Y212200D01*
X874145Y212160D01*
X874171Y212103D01*
X874267Y211990D01*
X874282Y211968D01*
X874287Y211959D01*
X874291Y211956D01*
X874312Y211926D01*
X877414Y208824D01*
X879371Y206867D01*
X879381Y206837D01*
X879389Y206783D01*
X879424Y206703D01*
X879451Y206620D01*
X879479Y206580D01*
X879505Y206523D01*
X879601Y206410D01*
X879646Y206346D01*
X892527Y193465D01*
X892597Y193413D01*
X892661Y193353D01*
X892710Y193327D01*
X892754Y193294D01*
X892836Y193263D01*
X892914Y193223D01*
X892962Y193215D01*
X893020Y193193D01*
X893168Y193181D01*
X893245Y193168D01*
X895116Y193168D01*
X897030Y192375D01*
X898495Y190910D01*
X899288Y188996D01*
X899288Y186924D01*
X898495Y185010D01*
X897030Y183545D01*
X895116Y182752D01*
X893044Y182752D01*
X891130Y183545D01*
X889665Y185010D01*
X888872Y186924D01*
X888872Y188795D01*
X888860Y188881D01*
X888857Y188969D01*
X888840Y189022D01*
X888832Y189076D01*
X888797Y189156D01*
X888770Y189239D01*
X888742Y189279D01*
X888716Y189336D01*
X888620Y189449D01*
X888575Y189513D01*
X877018Y201070D01*
X876994Y201087D01*
X876975Y201110D01*
X876881Y201173D01*
X876791Y201241D01*
X876763Y201251D01*
X876739Y201267D01*
X876631Y201302D01*
X876525Y201342D01*
X876496Y201344D01*
X876468Y201353D01*
X876354Y201356D01*
X876242Y201365D01*
X876213Y201360D01*
X876184Y201360D01*
X876074Y201332D01*
X875963Y201310D01*
X875937Y201296D01*
X875909Y201289D01*
X875811Y201231D01*
X875711Y201179D01*
X875689Y201158D01*
X875664Y201143D01*
X875587Y201061D01*
X875505Y200983D01*
X875490Y200957D01*
X875470Y200936D01*
X875418Y200835D01*
X875361Y200738D01*
X875354Y200709D01*
X875340Y200683D01*
X875327Y200606D01*
X875291Y200462D01*
X875293Y200400D01*
X875285Y200352D01*
X875285Y191681D01*
X875297Y191594D01*
X875300Y191507D01*
X875317Y191454D01*
X875325Y191399D01*
X875360Y191319D01*
X875387Y191236D01*
X875415Y191197D01*
X875441Y191140D01*
X875537Y191026D01*
X875582Y190963D01*
X876905Y189640D01*
X877698Y187726D01*
X877698Y185654D01*
X876905Y183740D01*
X875440Y182275D01*
X873526Y181482D01*
X871454Y181482D01*
G37*
%LPD*%
%LPC*%
G36*
X1018774Y272922D02*
X1018774Y272922D01*
X1016860Y273715D01*
X1015395Y275180D01*
X1014602Y277094D01*
X1014602Y279166D01*
X1015395Y281080D01*
X1016464Y282149D01*
X1016516Y282219D01*
X1016576Y282282D01*
X1016602Y282332D01*
X1016635Y282376D01*
X1016666Y282458D01*
X1016706Y282536D01*
X1016714Y282583D01*
X1016736Y282642D01*
X1016748Y282789D01*
X1016761Y282867D01*
X1016761Y345535D01*
X1017226Y346000D01*
X1017278Y346069D01*
X1017338Y346133D01*
X1017364Y346183D01*
X1017397Y346227D01*
X1017428Y346308D01*
X1017468Y346386D01*
X1017476Y346434D01*
X1017498Y346492D01*
X1017510Y346640D01*
X1017523Y346717D01*
X1017523Y363676D01*
X1017523Y363678D01*
X1017523Y363679D01*
X1017504Y363812D01*
X1017483Y363957D01*
X1017483Y363959D01*
X1017483Y363961D01*
X1017424Y364090D01*
X1017367Y364217D01*
X1017366Y364218D01*
X1017365Y364220D01*
X1017275Y364326D01*
X1017184Y364434D01*
X1017182Y364435D01*
X1017181Y364436D01*
X1017169Y364444D01*
X1016947Y364591D01*
X1016918Y364601D01*
X1016897Y364614D01*
X1015590Y365155D01*
X1014125Y366620D01*
X1013332Y368534D01*
X1013332Y370606D01*
X1014125Y372520D01*
X1015590Y373985D01*
X1017504Y374778D01*
X1019576Y374778D01*
X1021490Y373985D01*
X1022955Y372520D01*
X1023748Y370606D01*
X1023748Y368534D01*
X1023698Y368414D01*
X1023690Y368384D01*
X1023676Y368357D01*
X1023663Y368279D01*
X1023627Y368139D01*
X1023629Y368074D01*
X1023621Y368026D01*
X1023621Y343771D01*
X1023156Y343307D01*
X1023104Y343237D01*
X1023044Y343173D01*
X1023018Y343124D01*
X1022985Y343079D01*
X1022954Y342998D01*
X1022914Y342920D01*
X1022906Y342872D01*
X1022884Y342814D01*
X1022877Y342728D01*
X1022873Y342715D01*
X1022871Y342664D01*
X1022859Y342589D01*
X1022859Y282867D01*
X1022871Y282780D01*
X1022874Y282693D01*
X1022891Y282640D01*
X1022899Y282585D01*
X1022934Y282505D01*
X1022961Y282422D01*
X1022989Y282383D01*
X1023015Y282326D01*
X1023111Y282212D01*
X1023156Y282149D01*
X1024225Y281080D01*
X1025018Y279166D01*
X1025018Y277094D01*
X1024225Y275180D01*
X1022760Y273715D01*
X1020846Y272922D01*
X1018774Y272922D01*
G37*
%LPD*%
%LPC*%
G36*
X761499Y116453D02*
X761499Y116453D01*
X757858Y117962D01*
X755072Y120748D01*
X753563Y124389D01*
X753563Y128331D01*
X755072Y131972D01*
X757858Y134759D01*
X759233Y135328D01*
X759258Y135343D01*
X759286Y135352D01*
X759381Y135415D01*
X759478Y135473D01*
X759498Y135494D01*
X759523Y135510D01*
X759596Y135597D01*
X759673Y135679D01*
X759687Y135705D01*
X759706Y135728D01*
X759752Y135831D01*
X759803Y135932D01*
X759809Y135961D01*
X759821Y135988D01*
X759837Y136100D01*
X759858Y136211D01*
X759856Y136240D01*
X759860Y136269D01*
X759844Y136381D01*
X759834Y136494D01*
X759824Y136521D01*
X759819Y136551D01*
X759773Y136654D01*
X759732Y136759D01*
X759714Y136783D01*
X759702Y136810D01*
X759629Y136896D01*
X759560Y136986D01*
X759537Y137004D01*
X759518Y137026D01*
X759452Y137067D01*
X759333Y137156D01*
X759274Y137178D01*
X759233Y137204D01*
X757858Y137774D01*
X755072Y140560D01*
X753563Y144201D01*
X753563Y148143D01*
X755072Y151784D01*
X757858Y154570D01*
X761499Y156079D01*
X765441Y156079D01*
X769082Y154570D01*
X771868Y151784D01*
X773377Y148143D01*
X773377Y144201D01*
X771868Y140560D01*
X769082Y137774D01*
X767707Y137204D01*
X767682Y137189D01*
X767654Y137180D01*
X767560Y137117D01*
X767462Y137060D01*
X767442Y137038D01*
X767417Y137022D01*
X767345Y136935D01*
X767267Y136853D01*
X767253Y136827D01*
X767234Y136804D01*
X767188Y136701D01*
X767137Y136600D01*
X767131Y136571D01*
X767119Y136544D01*
X767103Y136432D01*
X767082Y136321D01*
X767084Y136292D01*
X767080Y136263D01*
X767096Y136151D01*
X767106Y136038D01*
X767117Y136010D01*
X767121Y135982D01*
X767167Y135879D01*
X767208Y135773D01*
X767226Y135749D01*
X767238Y135722D01*
X767311Y135636D01*
X767380Y135546D01*
X767403Y135528D01*
X767422Y135506D01*
X767489Y135464D01*
X767607Y135376D01*
X767666Y135354D01*
X767707Y135328D01*
X769082Y134759D01*
X771868Y131972D01*
X773377Y128331D01*
X773377Y124389D01*
X771868Y120748D01*
X769082Y117962D01*
X765441Y116453D01*
X761499Y116453D01*
G37*
%LPD*%
%LPC*%
G36*
X788469Y126359D02*
X788469Y126359D01*
X788469Y127376D01*
X788462Y127424D01*
X788462Y127431D01*
X788461Y127436D01*
X788462Y127492D01*
X788441Y127574D01*
X788429Y127657D01*
X788405Y127711D01*
X788391Y127767D01*
X788348Y127840D01*
X788313Y127917D01*
X788275Y127962D01*
X788245Y128012D01*
X788184Y128070D01*
X788129Y128134D01*
X788081Y128166D01*
X788038Y128206D01*
X787963Y128245D01*
X787893Y128291D01*
X787837Y128309D01*
X787785Y128336D01*
X787717Y128347D01*
X787622Y128377D01*
X787522Y128380D01*
X787454Y128391D01*
X777733Y128391D01*
X777816Y128918D01*
X778348Y130553D01*
X779128Y132085D01*
X780139Y133476D01*
X781354Y134691D01*
X782745Y135702D01*
X783076Y135871D01*
X783184Y135946D01*
X783293Y136019D01*
X783300Y136028D01*
X783309Y136034D01*
X783391Y136136D01*
X783476Y136237D01*
X783481Y136247D01*
X783487Y136255D01*
X783538Y136377D01*
X783592Y136497D01*
X783593Y136507D01*
X783597Y136517D01*
X783613Y136649D01*
X783631Y136778D01*
X783629Y136789D01*
X783630Y136800D01*
X783609Y136930D01*
X783590Y137060D01*
X783586Y137069D01*
X783584Y137080D01*
X783527Y137199D01*
X783473Y137319D01*
X783466Y137327D01*
X783461Y137337D01*
X783374Y137435D01*
X783289Y137535D01*
X783280Y137540D01*
X783272Y137549D01*
X783032Y137701D01*
X783016Y137706D01*
X783004Y137713D01*
X782858Y137773D01*
X780072Y140560D01*
X778563Y144201D01*
X778563Y148143D01*
X780072Y151784D01*
X782858Y154570D01*
X786499Y156079D01*
X790441Y156079D01*
X794082Y154570D01*
X796868Y151784D01*
X798377Y148143D01*
X798377Y144201D01*
X796868Y140560D01*
X794082Y137773D01*
X793936Y137713D01*
X793823Y137646D01*
X793708Y137582D01*
X793701Y137574D01*
X793691Y137569D01*
X793601Y137473D01*
X793509Y137379D01*
X793503Y137370D01*
X793496Y137362D01*
X793436Y137245D01*
X793373Y137129D01*
X793371Y137119D01*
X793366Y137109D01*
X793340Y136980D01*
X793312Y136852D01*
X793313Y136841D01*
X793311Y136830D01*
X793322Y136700D01*
X793331Y136568D01*
X793334Y136558D01*
X793335Y136547D01*
X793383Y136424D01*
X793427Y136301D01*
X793433Y136292D01*
X793437Y136282D01*
X793517Y136176D01*
X793594Y136070D01*
X793602Y136064D01*
X793609Y136055D01*
X793837Y135885D01*
X793853Y135879D01*
X793864Y135871D01*
X794195Y135702D01*
X795586Y134691D01*
X796801Y133476D01*
X797812Y132085D01*
X798592Y130553D01*
X799124Y128918D01*
X799207Y128391D01*
X789486Y128391D01*
X789428Y128383D01*
X789370Y128385D01*
X789288Y128363D01*
X789205Y128351D01*
X789151Y128327D01*
X789095Y128313D01*
X789022Y128270D01*
X788945Y128235D01*
X788901Y128197D01*
X788850Y128167D01*
X788793Y128106D01*
X788728Y128051D01*
X788696Y128003D01*
X788656Y127960D01*
X788617Y127885D01*
X788571Y127815D01*
X788553Y127759D01*
X788526Y127707D01*
X788515Y127639D01*
X788485Y127544D01*
X788482Y127444D01*
X788471Y127376D01*
X788471Y126359D01*
X788469Y126359D01*
G37*
%LPD*%
%LPC*%
G36*
X603415Y407161D02*
X603415Y407161D01*
X599027Y408979D01*
X595669Y412337D01*
X593851Y416725D01*
X593851Y421475D01*
X595669Y425863D01*
X599027Y429221D01*
X603415Y431039D01*
X608165Y431039D01*
X612553Y429221D01*
X615911Y425863D01*
X617729Y421475D01*
X617729Y416725D01*
X615911Y412337D01*
X612553Y408979D01*
X608165Y407161D01*
X603415Y407161D01*
G37*
%LPD*%
%LPC*%
G36*
X603415Y381761D02*
X603415Y381761D01*
X599027Y383579D01*
X595669Y386937D01*
X593851Y391325D01*
X593851Y396075D01*
X595669Y400463D01*
X599027Y403821D01*
X603415Y405639D01*
X608165Y405639D01*
X612553Y403821D01*
X615911Y400463D01*
X617729Y396075D01*
X617729Y391325D01*
X615911Y386937D01*
X612553Y383579D01*
X608165Y381761D01*
X603415Y381761D01*
G37*
%LPD*%
%LPC*%
G36*
X814437Y213867D02*
X814437Y213867D01*
X810423Y215530D01*
X807350Y218603D01*
X805687Y222617D01*
X805687Y226963D01*
X807350Y230977D01*
X810423Y234050D01*
X814437Y235713D01*
X818783Y235713D01*
X822797Y234050D01*
X825870Y230977D01*
X827533Y226963D01*
X827533Y222617D01*
X825870Y218603D01*
X822797Y215530D01*
X818783Y213867D01*
X814437Y213867D01*
G37*
%LPD*%
%LPC*%
G36*
X789037Y213867D02*
X789037Y213867D01*
X785023Y215530D01*
X781950Y218603D01*
X780287Y222617D01*
X780287Y226963D01*
X781950Y230977D01*
X785023Y234050D01*
X789037Y235713D01*
X793383Y235713D01*
X797397Y234050D01*
X800470Y230977D01*
X802133Y226963D01*
X802133Y222617D01*
X800470Y218603D01*
X797397Y215530D01*
X793383Y213867D01*
X789037Y213867D01*
G37*
%LPD*%
%LPC*%
G36*
X167893Y425703D02*
X167893Y425703D01*
X167893Y447653D01*
X170312Y447380D01*
X170528Y447331D01*
X172885Y446793D01*
X175375Y445922D01*
X177753Y444776D01*
X179988Y443372D01*
X182051Y441727D01*
X183917Y439861D01*
X185562Y437798D01*
X186966Y435563D01*
X188112Y433185D01*
X188983Y430695D01*
X189570Y428122D01*
X189843Y425703D01*
X167893Y425703D01*
G37*
%LPD*%
%LPC*%
G36*
X165353Y292353D02*
X165353Y292353D01*
X165353Y314303D01*
X167772Y314030D01*
X170345Y313443D01*
X172835Y312572D01*
X175213Y311426D01*
X177448Y310022D01*
X179511Y308377D01*
X181377Y306511D01*
X183022Y304448D01*
X184426Y302213D01*
X185572Y299835D01*
X186443Y297345D01*
X187030Y294772D01*
X187303Y292353D01*
X165353Y292353D01*
G37*
%LPD*%
%LPC*%
G36*
X166623Y550163D02*
X166623Y550163D01*
X166623Y572113D01*
X169042Y571840D01*
X170906Y571415D01*
X171615Y571253D01*
X174105Y570382D01*
X176483Y569236D01*
X178718Y567832D01*
X180781Y566187D01*
X182647Y564321D01*
X184292Y562258D01*
X185696Y560023D01*
X186842Y557645D01*
X187713Y555155D01*
X188300Y552582D01*
X188573Y550163D01*
X166623Y550163D01*
G37*
%LPD*%
%LPC*%
G36*
X166623Y547117D02*
X166623Y547117D01*
X188573Y547117D01*
X188300Y544698D01*
X187713Y542125D01*
X186842Y539635D01*
X185696Y537257D01*
X184292Y535022D01*
X182647Y532959D01*
X180781Y531093D01*
X178718Y529448D01*
X176483Y528044D01*
X174105Y526898D01*
X171615Y526027D01*
X169042Y525440D01*
X166623Y525167D01*
X166623Y547117D01*
G37*
%LPD*%
%LPC*%
G36*
X165353Y289307D02*
X165353Y289307D01*
X187303Y289307D01*
X187030Y286888D01*
X186443Y284315D01*
X185572Y281825D01*
X184426Y279447D01*
X183022Y277212D01*
X181377Y275149D01*
X179511Y273283D01*
X177448Y271638D01*
X175213Y270234D01*
X172835Y269088D01*
X170345Y268217D01*
X167772Y267630D01*
X165353Y267357D01*
X165353Y289307D01*
G37*
%LPD*%
%LPC*%
G36*
X167893Y422657D02*
X167893Y422657D01*
X189843Y422657D01*
X189570Y420238D01*
X188983Y417665D01*
X188112Y415175D01*
X186966Y412797D01*
X185562Y410562D01*
X183917Y408499D01*
X182051Y406633D01*
X179988Y404988D01*
X177753Y403584D01*
X175375Y402438D01*
X172885Y401567D01*
X170312Y400980D01*
X167893Y400707D01*
X167893Y422657D01*
G37*
%LPD*%
%LPC*%
G36*
X87121Y292861D02*
X87121Y292861D01*
X87121Y314246D01*
X89032Y314030D01*
X91605Y313443D01*
X94096Y312571D01*
X96473Y311426D01*
X98708Y310022D01*
X100771Y308377D01*
X102637Y306511D01*
X104282Y304448D01*
X105686Y302213D01*
X106831Y299836D01*
X107703Y297345D01*
X108290Y294772D01*
X108506Y292861D01*
X87121Y292861D01*
G37*
%LPD*%
%LPC*%
G36*
X89661Y426211D02*
X89661Y426211D01*
X89661Y447596D01*
X91572Y447380D01*
X94145Y446793D01*
X96636Y445921D01*
X99013Y444776D01*
X101248Y443372D01*
X103311Y441727D01*
X105177Y439861D01*
X106822Y437798D01*
X108226Y435563D01*
X109371Y433186D01*
X110243Y430695D01*
X110830Y428122D01*
X111046Y426211D01*
X89661Y426211D01*
G37*
%LPD*%
%LPC*%
G36*
X88391Y550671D02*
X88391Y550671D01*
X88391Y572056D01*
X90302Y571840D01*
X92875Y571253D01*
X95366Y570381D01*
X97743Y569236D01*
X99978Y567832D01*
X102041Y566187D01*
X103907Y564321D01*
X105552Y562258D01*
X106956Y560023D01*
X108101Y557646D01*
X108973Y555155D01*
X109560Y552582D01*
X109776Y550671D01*
X88391Y550671D01*
G37*
%LPD*%
%LPC*%
G36*
X62944Y550671D02*
X62944Y550671D01*
X63160Y552582D01*
X63747Y555155D01*
X64619Y557646D01*
X65102Y558650D01*
X65764Y560023D01*
X67168Y562258D01*
X68813Y564321D01*
X70679Y566187D01*
X72742Y567832D01*
X73617Y568382D01*
X74977Y569236D01*
X77354Y570381D01*
X79845Y571253D01*
X82418Y571840D01*
X84329Y572056D01*
X84329Y550671D01*
X62944Y550671D01*
G37*
%LPD*%
%LPC*%
G36*
X61674Y292861D02*
X61674Y292861D01*
X61890Y294772D01*
X62477Y297345D01*
X63349Y299836D01*
X64291Y301792D01*
X64494Y302213D01*
X65898Y304448D01*
X67543Y306511D01*
X69409Y308377D01*
X71472Y310022D01*
X72246Y310509D01*
X73707Y311426D01*
X76084Y312571D01*
X78575Y313443D01*
X81148Y314030D01*
X83059Y314246D01*
X83059Y292861D01*
X61674Y292861D01*
G37*
%LPD*%
%LPC*%
G36*
X88391Y546609D02*
X88391Y546609D01*
X109776Y546609D01*
X109560Y544698D01*
X108973Y542125D01*
X108101Y539634D01*
X107903Y539223D01*
X106956Y537257D01*
X105552Y535022D01*
X103907Y532959D01*
X102041Y531093D01*
X99978Y529448D01*
X98430Y528475D01*
X97743Y528044D01*
X95366Y526899D01*
X92875Y526027D01*
X90302Y525440D01*
X88391Y525224D01*
X88391Y546609D01*
G37*
%LPD*%
%LPC*%
G36*
X87121Y288799D02*
X87121Y288799D01*
X108506Y288799D01*
X108290Y286888D01*
X107703Y284315D01*
X106831Y281824D01*
X106114Y280334D01*
X105686Y279447D01*
X104282Y277212D01*
X102637Y275149D01*
X100771Y273283D01*
X98708Y271638D01*
X98675Y271617D01*
X97059Y270602D01*
X96473Y270234D01*
X94096Y269089D01*
X91605Y268217D01*
X89032Y267630D01*
X87121Y267414D01*
X87121Y288799D01*
G37*
%LPD*%
%LPC*%
G36*
X64214Y426211D02*
X64214Y426211D01*
X64430Y428122D01*
X65017Y430695D01*
X65889Y433186D01*
X66172Y433774D01*
X67034Y435563D01*
X68438Y437798D01*
X70083Y439861D01*
X71949Y441727D01*
X74012Y443372D01*
X76247Y444776D01*
X78624Y445921D01*
X81115Y446793D01*
X83688Y447380D01*
X85599Y447596D01*
X85599Y426211D01*
X64214Y426211D01*
G37*
%LPD*%
%LPC*%
G36*
X89661Y422149D02*
X89661Y422149D01*
X111046Y422149D01*
X110830Y420238D01*
X110243Y417665D01*
X109371Y415174D01*
X108226Y412797D01*
X106822Y410562D01*
X105177Y408499D01*
X103311Y406633D01*
X101248Y404988D01*
X99013Y403584D01*
X96636Y402439D01*
X94145Y401567D01*
X91572Y400980D01*
X89661Y400764D01*
X89661Y422149D01*
G37*
%LPD*%
%LPC*%
G36*
X83688Y400980D02*
X83688Y400980D01*
X81115Y401567D01*
X78624Y402439D01*
X76247Y403584D01*
X74012Y404988D01*
X71949Y406633D01*
X70083Y408499D01*
X68438Y410562D01*
X67034Y412797D01*
X65889Y415174D01*
X65017Y417665D01*
X64430Y420238D01*
X64214Y422149D01*
X85599Y422149D01*
X85599Y400764D01*
X83688Y400980D01*
G37*
%LPD*%
%LPC*%
G36*
X82418Y525440D02*
X82418Y525440D01*
X79845Y526027D01*
X77354Y526899D01*
X74977Y528044D01*
X72742Y529448D01*
X70679Y531093D01*
X68813Y532959D01*
X67168Y535022D01*
X65764Y537257D01*
X64619Y539634D01*
X63747Y542125D01*
X63160Y544698D01*
X62944Y546609D01*
X84329Y546609D01*
X84329Y525224D01*
X82418Y525440D01*
G37*
%LPD*%
%LPC*%
G36*
X81148Y267630D02*
X81148Y267630D01*
X78575Y268217D01*
X76084Y269089D01*
X73707Y270234D01*
X71472Y271638D01*
X69409Y273283D01*
X67543Y275149D01*
X65898Y277212D01*
X64494Y279447D01*
X63349Y281824D01*
X62477Y284315D01*
X61890Y286888D01*
X61674Y288799D01*
X83059Y288799D01*
X83059Y267414D01*
X81148Y267630D01*
G37*
%LPD*%
%LPC*%
G36*
X641246Y110041D02*
X641246Y110041D01*
X637533Y111579D01*
X634692Y114420D01*
X633154Y118133D01*
X633154Y122151D01*
X634692Y125864D01*
X637533Y128705D01*
X641246Y130243D01*
X645264Y130243D01*
X648977Y128705D01*
X651818Y125864D01*
X652429Y124389D01*
X653356Y122151D01*
X653356Y118133D01*
X651842Y114479D01*
X651842Y114478D01*
X651818Y114420D01*
X648977Y111579D01*
X645264Y110041D01*
X641246Y110041D01*
G37*
%LPD*%
%LPC*%
G36*
X566316Y60257D02*
X566316Y60257D01*
X562603Y61795D01*
X559762Y64636D01*
X558224Y68349D01*
X558224Y72367D01*
X559762Y76080D01*
X562603Y78921D01*
X566316Y80459D01*
X570334Y80459D01*
X574047Y78921D01*
X576888Y76080D01*
X578426Y72367D01*
X578426Y68349D01*
X576888Y64636D01*
X574047Y61795D01*
X570334Y60257D01*
X566316Y60257D01*
G37*
%LPD*%
%LPC*%
G36*
X946871Y14985D02*
X946871Y14985D01*
X943510Y16377D01*
X940937Y18950D01*
X939545Y22311D01*
X939545Y25949D01*
X940937Y29310D01*
X943510Y31883D01*
X946871Y33275D01*
X950509Y33275D01*
X953870Y31883D01*
X956443Y29310D01*
X957835Y25949D01*
X957835Y22311D01*
X956443Y18950D01*
X953870Y16377D01*
X950509Y14985D01*
X946871Y14985D01*
G37*
%LPD*%
%LPC*%
G36*
X972271Y40385D02*
X972271Y40385D01*
X968910Y41777D01*
X966337Y44350D01*
X964945Y47711D01*
X964945Y51349D01*
X966337Y54710D01*
X968910Y57283D01*
X972271Y58675D01*
X975909Y58675D01*
X979270Y57283D01*
X981843Y54710D01*
X983235Y51349D01*
X983235Y47711D01*
X981843Y44350D01*
X979270Y41777D01*
X975909Y40385D01*
X972271Y40385D01*
G37*
%LPD*%
%LPC*%
G36*
X972271Y14985D02*
X972271Y14985D01*
X968910Y16377D01*
X966337Y18950D01*
X964945Y22311D01*
X964945Y25949D01*
X966337Y29310D01*
X968910Y31883D01*
X972271Y33275D01*
X975909Y33275D01*
X979270Y31883D01*
X981843Y29310D01*
X983235Y25949D01*
X983235Y22311D01*
X981843Y18950D01*
X979270Y16377D01*
X975909Y14985D01*
X972271Y14985D01*
G37*
%LPD*%
%LPC*%
G36*
X997671Y14985D02*
X997671Y14985D01*
X994310Y16377D01*
X991737Y18950D01*
X990345Y22311D01*
X990345Y25949D01*
X991737Y29310D01*
X994310Y31883D01*
X997671Y33275D01*
X1001309Y33275D01*
X1004670Y31883D01*
X1007243Y29310D01*
X1008635Y25949D01*
X1008635Y22311D01*
X1007243Y18950D01*
X1004670Y16377D01*
X1001309Y14985D01*
X997671Y14985D01*
G37*
%LPD*%
%LPC*%
G36*
X553973Y729063D02*
X553973Y729063D01*
X553973Y747553D01*
X556368Y747238D01*
X558906Y746558D01*
X561333Y745553D01*
X563608Y744239D01*
X565692Y742640D01*
X567550Y740782D01*
X569149Y738698D01*
X570463Y736423D01*
X571468Y733996D01*
X572148Y731458D01*
X572463Y729063D01*
X553973Y729063D01*
G37*
%LPD*%
%LPC*%
G36*
X396493Y729063D02*
X396493Y729063D01*
X396493Y747553D01*
X398888Y747238D01*
X401426Y746558D01*
X403853Y745553D01*
X406128Y744239D01*
X408212Y742640D01*
X410070Y740782D01*
X411669Y738698D01*
X412983Y736423D01*
X413988Y733996D01*
X414668Y731458D01*
X414983Y729063D01*
X396493Y729063D01*
G37*
%LPD*%
%LPC*%
G36*
X91693Y729063D02*
X91693Y729063D01*
X91693Y747553D01*
X94088Y747238D01*
X96626Y746558D01*
X99053Y745553D01*
X101328Y744239D01*
X103412Y742640D01*
X105270Y740782D01*
X106869Y738698D01*
X108183Y736423D01*
X109188Y733996D01*
X109868Y731458D01*
X110183Y729063D01*
X91693Y729063D01*
G37*
%LPD*%
%LPC*%
G36*
X247903Y729063D02*
X247903Y729063D01*
X247903Y747553D01*
X250298Y747238D01*
X252836Y746558D01*
X255263Y745553D01*
X257538Y744239D01*
X259622Y742640D01*
X261480Y740782D01*
X263079Y738698D01*
X264393Y736423D01*
X265398Y733996D01*
X266078Y731458D01*
X266393Y729063D01*
X247903Y729063D01*
G37*
%LPD*%
%LPC*%
G36*
X374957Y729063D02*
X374957Y729063D01*
X375272Y731458D01*
X375952Y733996D01*
X376957Y736423D01*
X378271Y738698D01*
X379870Y740782D01*
X381728Y742640D01*
X383812Y744239D01*
X386087Y745553D01*
X388514Y746558D01*
X391052Y747238D01*
X393447Y747553D01*
X393447Y729063D01*
X374957Y729063D01*
G37*
%LPD*%
%LPC*%
G36*
X226367Y729063D02*
X226367Y729063D01*
X226682Y731458D01*
X227362Y733996D01*
X228367Y736423D01*
X229681Y738698D01*
X231280Y740782D01*
X233138Y742640D01*
X235222Y744239D01*
X237497Y745553D01*
X239924Y746558D01*
X242462Y747238D01*
X244857Y747553D01*
X244857Y729063D01*
X226367Y729063D01*
G37*
%LPD*%
%LPC*%
G36*
X532437Y729063D02*
X532437Y729063D01*
X532752Y731458D01*
X533432Y733996D01*
X534437Y736423D01*
X535751Y738698D01*
X537350Y740782D01*
X539208Y742640D01*
X541292Y744239D01*
X543567Y745553D01*
X545994Y746558D01*
X548532Y747238D01*
X550927Y747553D01*
X550927Y729063D01*
X532437Y729063D01*
G37*
%LPD*%
%LPC*%
G36*
X70157Y729063D02*
X70157Y729063D01*
X70472Y731458D01*
X71152Y733996D01*
X72157Y736423D01*
X73471Y738698D01*
X75070Y740782D01*
X76928Y742640D01*
X79012Y744239D01*
X81287Y745553D01*
X83714Y746558D01*
X86252Y747238D01*
X88647Y747553D01*
X88647Y729063D01*
X70157Y729063D01*
G37*
%LPD*%
%LPC*%
G36*
X553973Y726017D02*
X553973Y726017D01*
X572463Y726017D01*
X572148Y723622D01*
X571468Y721084D01*
X570463Y718657D01*
X569149Y716382D01*
X567550Y714298D01*
X565692Y712440D01*
X563608Y710841D01*
X561333Y709527D01*
X558906Y708522D01*
X556368Y707842D01*
X553973Y707527D01*
X553973Y726017D01*
G37*
%LPD*%
%LPC*%
G36*
X247903Y726017D02*
X247903Y726017D01*
X266393Y726017D01*
X266078Y723622D01*
X265398Y721084D01*
X264393Y718657D01*
X263079Y716382D01*
X261480Y714298D01*
X259622Y712440D01*
X257538Y710841D01*
X255263Y709527D01*
X252836Y708522D01*
X250298Y707842D01*
X247903Y707527D01*
X247903Y726017D01*
G37*
%LPD*%
%LPC*%
G36*
X91693Y726017D02*
X91693Y726017D01*
X110183Y726017D01*
X109868Y723622D01*
X109188Y721084D01*
X108183Y718657D01*
X106869Y716382D01*
X105270Y714298D01*
X103412Y712440D01*
X101328Y710841D01*
X99053Y709527D01*
X96626Y708522D01*
X94088Y707842D01*
X91693Y707527D01*
X91693Y726017D01*
G37*
%LPD*%
%LPC*%
G36*
X396493Y726017D02*
X396493Y726017D01*
X414983Y726017D01*
X414668Y723622D01*
X413988Y721084D01*
X412983Y718657D01*
X411669Y716382D01*
X410070Y714298D01*
X408212Y712440D01*
X406128Y710841D01*
X403853Y709527D01*
X401426Y708522D01*
X398888Y707842D01*
X396493Y707527D01*
X396493Y726017D01*
G37*
%LPD*%
%LPC*%
G36*
X242462Y707842D02*
X242462Y707842D01*
X239924Y708522D01*
X237497Y709527D01*
X235222Y710841D01*
X233138Y712440D01*
X231280Y714298D01*
X229681Y716382D01*
X228367Y718657D01*
X227362Y721084D01*
X226682Y723622D01*
X226367Y726017D01*
X244857Y726017D01*
X244857Y707527D01*
X242462Y707842D01*
G37*
%LPD*%
%LPC*%
G36*
X86252Y707842D02*
X86252Y707842D01*
X83714Y708522D01*
X81287Y709527D01*
X79012Y710841D01*
X76928Y712440D01*
X75070Y714298D01*
X73471Y716382D01*
X72157Y718657D01*
X71152Y721084D01*
X70472Y723622D01*
X70157Y726017D01*
X88647Y726017D01*
X88647Y707527D01*
X86252Y707842D01*
G37*
%LPD*%
%LPC*%
G36*
X548532Y707842D02*
X548532Y707842D01*
X545994Y708522D01*
X543567Y709527D01*
X541292Y710841D01*
X539208Y712440D01*
X537350Y714298D01*
X535751Y716382D01*
X534437Y718657D01*
X533432Y721084D01*
X532752Y723622D01*
X532437Y726017D01*
X550927Y726017D01*
X550927Y707527D01*
X548532Y707842D01*
G37*
%LPD*%
%LPC*%
G36*
X391052Y707842D02*
X391052Y707842D01*
X388514Y708522D01*
X386087Y709527D01*
X383812Y710841D01*
X381728Y712440D01*
X379870Y714298D01*
X378271Y716382D01*
X376957Y718657D01*
X375952Y721084D01*
X375272Y723622D01*
X374957Y726017D01*
X393447Y726017D01*
X393447Y707527D01*
X391052Y707842D01*
G37*
%LPD*%
%LPC*%
G36*
X475865Y760901D02*
X475865Y760901D01*
X472808Y762168D01*
X470468Y764508D01*
X469201Y767565D01*
X469201Y770875D01*
X470468Y773932D01*
X472808Y776272D01*
X475865Y777539D01*
X479175Y777539D01*
X482232Y776272D01*
X484572Y773932D01*
X485839Y770875D01*
X485839Y767565D01*
X484572Y764508D01*
X482232Y762168D01*
X479175Y760901D01*
X475865Y760901D01*
G37*
%LPD*%
%LPC*%
G36*
X172335Y767251D02*
X172335Y767251D01*
X169278Y768518D01*
X166938Y770858D01*
X165671Y773915D01*
X165671Y777225D01*
X166938Y780282D01*
X169278Y782622D01*
X172335Y783889D01*
X175645Y783889D01*
X178702Y782622D01*
X181042Y780282D01*
X182309Y777225D01*
X182309Y773915D01*
X181042Y770858D01*
X178702Y768518D01*
X175645Y767251D01*
X172335Y767251D01*
G37*
%LPD*%
%LPC*%
G36*
X765428Y608917D02*
X765428Y608917D01*
X762377Y610181D01*
X760041Y612517D01*
X758777Y615568D01*
X758777Y618872D01*
X760041Y621923D01*
X762377Y624259D01*
X765428Y625523D01*
X768732Y625523D01*
X771783Y624259D01*
X774119Y621923D01*
X775383Y618872D01*
X775383Y615568D01*
X774119Y612517D01*
X771783Y610181D01*
X768732Y608917D01*
X765428Y608917D01*
G37*
%LPD*%
%LPC*%
G36*
X765428Y583517D02*
X765428Y583517D01*
X762377Y584781D01*
X760041Y587117D01*
X758777Y590168D01*
X758777Y593472D01*
X760041Y596523D01*
X762377Y598859D01*
X765428Y600123D01*
X768732Y600123D01*
X771783Y598859D01*
X774119Y596523D01*
X775383Y593472D01*
X775383Y590168D01*
X774119Y587117D01*
X771783Y584781D01*
X768732Y583517D01*
X765428Y583517D01*
G37*
%LPD*%
%LPC*%
G36*
X765428Y659717D02*
X765428Y659717D01*
X762377Y660981D01*
X760041Y663317D01*
X758777Y666368D01*
X758777Y669672D01*
X760041Y672723D01*
X762377Y675059D01*
X765428Y676323D01*
X768732Y676323D01*
X771783Y675059D01*
X774119Y672723D01*
X775383Y669672D01*
X775383Y666368D01*
X774119Y663317D01*
X771783Y660981D01*
X768732Y659717D01*
X765428Y659717D01*
G37*
%LPD*%
%LPC*%
G36*
X765428Y710517D02*
X765428Y710517D01*
X762377Y711781D01*
X760041Y714117D01*
X758777Y717168D01*
X758777Y720472D01*
X760041Y723523D01*
X762377Y725859D01*
X765428Y727123D01*
X768732Y727123D01*
X771783Y725859D01*
X774119Y723523D01*
X775383Y720472D01*
X775383Y717168D01*
X774119Y714117D01*
X771783Y711781D01*
X768732Y710517D01*
X765428Y710517D01*
G37*
%LPD*%
%LPC*%
G36*
X765428Y558117D02*
X765428Y558117D01*
X762377Y559381D01*
X760041Y561717D01*
X758777Y564768D01*
X758777Y568072D01*
X760041Y571123D01*
X762377Y573459D01*
X765428Y574723D01*
X768732Y574723D01*
X771783Y573459D01*
X774119Y571123D01*
X775383Y568072D01*
X775383Y564768D01*
X774119Y561717D01*
X771783Y559381D01*
X768732Y558117D01*
X765428Y558117D01*
G37*
%LPD*%
%LPC*%
G36*
X765428Y761317D02*
X765428Y761317D01*
X762377Y762581D01*
X760041Y764917D01*
X758777Y767968D01*
X758777Y771272D01*
X760041Y774323D01*
X762377Y776659D01*
X765428Y777923D01*
X768732Y777923D01*
X771783Y776659D01*
X774119Y774323D01*
X775383Y771272D01*
X775383Y767968D01*
X774119Y764917D01*
X771783Y762581D01*
X768732Y761317D01*
X765428Y761317D01*
G37*
%LPD*%
%LPC*%
G36*
X765428Y634317D02*
X765428Y634317D01*
X762377Y635581D01*
X760041Y637917D01*
X758777Y640968D01*
X758777Y644272D01*
X760041Y647323D01*
X762377Y649659D01*
X765428Y650923D01*
X768732Y650923D01*
X771783Y649659D01*
X774119Y647323D01*
X775383Y644272D01*
X775383Y640968D01*
X774119Y637917D01*
X771783Y635581D01*
X768732Y634317D01*
X765428Y634317D01*
G37*
%LPD*%
%LPC*%
G36*
X765428Y735917D02*
X765428Y735917D01*
X762377Y737181D01*
X760041Y739517D01*
X758777Y742568D01*
X758777Y745872D01*
X760041Y748923D01*
X762377Y751259D01*
X765428Y752523D01*
X768732Y752523D01*
X771783Y751259D01*
X774119Y748923D01*
X775383Y745872D01*
X775383Y742568D01*
X774119Y739517D01*
X771783Y737181D01*
X768732Y735917D01*
X765428Y735917D01*
G37*
%LPD*%
%LPC*%
G36*
X765428Y685117D02*
X765428Y685117D01*
X762377Y686381D01*
X760041Y688717D01*
X758777Y691768D01*
X758777Y695072D01*
X760041Y698123D01*
X762377Y700459D01*
X765428Y701723D01*
X768732Y701723D01*
X771783Y700459D01*
X774119Y698123D01*
X775383Y695072D01*
X775383Y691768D01*
X774119Y688717D01*
X771783Y686381D01*
X768732Y685117D01*
X765428Y685117D01*
G37*
%LPD*%
%LPC*%
G36*
X765428Y532717D02*
X765428Y532717D01*
X762377Y533981D01*
X760041Y536317D01*
X758777Y539368D01*
X758777Y542672D01*
X760041Y545723D01*
X762377Y548059D01*
X765428Y549323D01*
X768732Y549323D01*
X771783Y548059D01*
X774119Y545723D01*
X775383Y542672D01*
X775383Y539368D01*
X774119Y536317D01*
X771783Y533981D01*
X768732Y532717D01*
X765428Y532717D01*
G37*
%LPD*%
%LPC*%
G36*
X591253Y87931D02*
X591253Y87931D01*
X588563Y89046D01*
X586505Y91104D01*
X585390Y93794D01*
X585390Y96706D01*
X586505Y99396D01*
X588563Y101454D01*
X591253Y102569D01*
X594165Y102569D01*
X596855Y101454D01*
X598913Y99396D01*
X600028Y96706D01*
X600028Y93794D01*
X598913Y91104D01*
X596855Y89046D01*
X594165Y87931D01*
X591253Y87931D01*
G37*
%LPD*%
%LPC*%
G36*
X617364Y87931D02*
X617364Y87931D01*
X614674Y89046D01*
X612616Y91104D01*
X611501Y93794D01*
X611501Y96706D01*
X612616Y99396D01*
X614674Y101454D01*
X617364Y102569D01*
X620276Y102569D01*
X622966Y101454D01*
X625025Y99396D01*
X626139Y96706D01*
X626139Y93794D01*
X625025Y91104D01*
X622966Y89046D01*
X620276Y87931D01*
X617364Y87931D01*
G37*
%LPD*%
%LPC*%
G36*
X717803Y101213D02*
X717803Y101213D01*
X717803Y114799D01*
X718851Y114661D01*
X720845Y114127D01*
X722753Y113337D01*
X724540Y112305D01*
X726178Y111048D01*
X727638Y109588D01*
X728895Y107950D01*
X729927Y106163D01*
X730717Y104255D01*
X731251Y102261D01*
X731389Y101213D01*
X717803Y101213D01*
G37*
%LPD*%
%LPC*%
G36*
X700155Y101213D02*
X700155Y101213D01*
X700293Y102261D01*
X700827Y104255D01*
X701617Y106163D01*
X702649Y107950D01*
X703906Y109588D01*
X705366Y111048D01*
X707004Y112305D01*
X708791Y113337D01*
X710699Y114127D01*
X712693Y114661D01*
X713741Y114799D01*
X713741Y101213D01*
X700155Y101213D01*
G37*
%LPD*%
%LPC*%
G36*
X717803Y97151D02*
X717803Y97151D01*
X731389Y97151D01*
X731251Y96103D01*
X730717Y94109D01*
X729927Y92201D01*
X728895Y90414D01*
X727638Y88776D01*
X726178Y87316D01*
X724540Y86059D01*
X722753Y85027D01*
X720845Y84237D01*
X718851Y83703D01*
X717803Y83565D01*
X717803Y97151D01*
G37*
%LPD*%
%LPC*%
G36*
X820551Y101213D02*
X820551Y101213D01*
X820689Y102261D01*
X821223Y104255D01*
X822013Y106163D01*
X823045Y107950D01*
X824302Y109588D01*
X825762Y111048D01*
X827400Y112305D01*
X829187Y113337D01*
X831095Y114127D01*
X833089Y114661D01*
X834137Y114799D01*
X834137Y101213D01*
X820551Y101213D01*
G37*
%LPD*%
%LPC*%
G36*
X833089Y83703D02*
X833089Y83703D01*
X831095Y84237D01*
X829187Y85027D01*
X827400Y86059D01*
X825762Y87316D01*
X824302Y88776D01*
X823045Y90414D01*
X822013Y92201D01*
X821223Y94109D01*
X820689Y96103D01*
X820551Y97151D01*
X834137Y97151D01*
X834137Y83565D01*
X833089Y83703D01*
G37*
%LPD*%
%LPC*%
G36*
X712693Y83703D02*
X712693Y83703D01*
X710699Y84237D01*
X708791Y85027D01*
X707004Y86059D01*
X705366Y87316D01*
X703906Y88776D01*
X702649Y90414D01*
X701617Y92201D01*
X700827Y94109D01*
X700293Y96103D01*
X700155Y97151D01*
X713741Y97151D01*
X713741Y83565D01*
X712693Y83703D01*
G37*
%LPD*%
%LPC*%
G36*
X980456Y530907D02*
X980456Y530907D01*
X978140Y531867D01*
X976367Y533640D01*
X975407Y535956D01*
X975407Y538464D01*
X976367Y540780D01*
X978140Y542553D01*
X980456Y543513D01*
X982964Y543513D01*
X985280Y542553D01*
X987053Y540780D01*
X988013Y538464D01*
X988013Y535956D01*
X987053Y533640D01*
X985280Y531867D01*
X982964Y530907D01*
X980456Y530907D01*
G37*
%LPD*%
%LPC*%
G36*
X483361Y59181D02*
X483361Y59181D01*
X483361Y68916D01*
X484126Y68795D01*
X485913Y68214D01*
X487587Y67361D01*
X489108Y66256D01*
X490436Y64928D01*
X491541Y63407D01*
X492394Y61733D01*
X492975Y59946D01*
X493096Y59181D01*
X483361Y59181D01*
G37*
%LPD*%
%LPC*%
G36*
X483361Y55119D02*
X483361Y55119D01*
X493096Y55119D01*
X492975Y54354D01*
X492394Y52567D01*
X491541Y50893D01*
X490436Y49372D01*
X489108Y48044D01*
X487587Y46939D01*
X485913Y46086D01*
X484126Y45505D01*
X483361Y45384D01*
X483361Y55119D01*
G37*
%LPD*%
%LPC*%
G36*
X790501Y124329D02*
X790501Y124329D01*
X799207Y124329D01*
X799124Y123802D01*
X798592Y122167D01*
X797812Y120635D01*
X796801Y119244D01*
X795586Y118029D01*
X794195Y117018D01*
X792663Y116238D01*
X791028Y115706D01*
X790501Y115623D01*
X790501Y124329D01*
G37*
%LPD*%
%LPC*%
G36*
X785912Y115706D02*
X785912Y115706D01*
X784277Y116238D01*
X782745Y117018D01*
X781354Y118029D01*
X780139Y119244D01*
X779128Y120635D01*
X778348Y122167D01*
X777816Y123802D01*
X777733Y124329D01*
X786439Y124329D01*
X786439Y115623D01*
X785912Y115706D01*
G37*
%LPD*%
%LPC*%
G36*
X1001521Y51561D02*
X1001521Y51561D01*
X1001521Y59496D01*
X1001869Y59441D01*
X1003390Y58946D01*
X1004815Y58220D01*
X1006109Y57280D01*
X1007240Y56149D01*
X1008180Y54855D01*
X1008906Y53430D01*
X1009401Y51909D01*
X1009456Y51561D01*
X1001521Y51561D01*
G37*
%LPD*%
%LPC*%
G36*
X989524Y51561D02*
X989524Y51561D01*
X989579Y51909D01*
X990074Y53430D01*
X990800Y54855D01*
X991740Y56149D01*
X992871Y57280D01*
X994165Y58220D01*
X995590Y58946D01*
X997111Y59441D01*
X997459Y59496D01*
X997459Y51561D01*
X989524Y51561D01*
G37*
%LPD*%
%LPC*%
G36*
X1001521Y47499D02*
X1001521Y47499D01*
X1009456Y47499D01*
X1009401Y47151D01*
X1008906Y45630D01*
X1008180Y44205D01*
X1007240Y42911D01*
X1006109Y41780D01*
X1004815Y40840D01*
X1003390Y40114D01*
X1001869Y39619D01*
X1001521Y39564D01*
X1001521Y47499D01*
G37*
%LPD*%
%LPC*%
G36*
X997111Y39619D02*
X997111Y39619D01*
X995590Y40114D01*
X994165Y40840D01*
X992871Y41780D01*
X991740Y42911D01*
X990800Y44205D01*
X990074Y45630D01*
X989579Y47151D01*
X989524Y47499D01*
X997459Y47499D01*
X997459Y39564D01*
X997111Y39619D01*
G37*
%LPD*%
%LPC*%
G36*
X845311Y670051D02*
X845311Y670051D01*
X845311Y677133D01*
X845462Y677109D01*
X846857Y676656D01*
X848164Y675990D01*
X849351Y675128D01*
X850388Y674091D01*
X851250Y672904D01*
X851916Y671597D01*
X852369Y670202D01*
X852393Y670051D01*
X845311Y670051D01*
G37*
%LPD*%
%LPC*%
G36*
X845311Y619251D02*
X845311Y619251D01*
X845311Y626333D01*
X845462Y626309D01*
X846857Y625856D01*
X848164Y625190D01*
X849351Y624328D01*
X850388Y623291D01*
X851250Y622104D01*
X851916Y620797D01*
X852369Y619402D01*
X852393Y619251D01*
X845311Y619251D01*
G37*
%LPD*%
%LPC*%
G36*
X845311Y695451D02*
X845311Y695451D01*
X845311Y702533D01*
X845462Y702509D01*
X846857Y702056D01*
X848164Y701390D01*
X849351Y700528D01*
X850388Y699491D01*
X851250Y698304D01*
X851916Y696997D01*
X852369Y695602D01*
X852393Y695451D01*
X845311Y695451D01*
G37*
%LPD*%
%LPC*%
G36*
X845311Y746251D02*
X845311Y746251D01*
X845311Y753333D01*
X845462Y753309D01*
X846857Y752856D01*
X848164Y752190D01*
X849351Y751328D01*
X850388Y750291D01*
X851250Y749104D01*
X851916Y747797D01*
X852369Y746402D01*
X852393Y746251D01*
X845311Y746251D01*
G37*
%LPD*%
%LPC*%
G36*
X845311Y771651D02*
X845311Y771651D01*
X845311Y778733D01*
X845462Y778709D01*
X846857Y778256D01*
X848164Y777590D01*
X849351Y776728D01*
X850388Y775691D01*
X851250Y774504D01*
X851916Y773197D01*
X852369Y771802D01*
X852393Y771651D01*
X845311Y771651D01*
G37*
%LPD*%
%LPC*%
G36*
X845311Y644651D02*
X845311Y644651D01*
X845311Y651733D01*
X845462Y651709D01*
X846857Y651256D01*
X848164Y650590D01*
X849351Y649728D01*
X850388Y648691D01*
X851250Y647504D01*
X851916Y646197D01*
X852369Y644802D01*
X852393Y644651D01*
X845311Y644651D01*
G37*
%LPD*%
%LPC*%
G36*
X845311Y568451D02*
X845311Y568451D01*
X845311Y575533D01*
X845462Y575509D01*
X846857Y575056D01*
X848164Y574390D01*
X849351Y573528D01*
X850388Y572491D01*
X851250Y571304D01*
X851916Y569997D01*
X852369Y568602D01*
X852393Y568451D01*
X845311Y568451D01*
G37*
%LPD*%
%LPC*%
G36*
X845311Y543051D02*
X845311Y543051D01*
X845311Y550133D01*
X845462Y550109D01*
X846857Y549656D01*
X848164Y548990D01*
X849351Y548128D01*
X850388Y547091D01*
X851250Y545904D01*
X851916Y544597D01*
X852369Y543202D01*
X852393Y543051D01*
X845311Y543051D01*
G37*
%LPD*%
%LPC*%
G36*
X845311Y593851D02*
X845311Y593851D01*
X845311Y600933D01*
X845462Y600909D01*
X846857Y600456D01*
X848164Y599790D01*
X849351Y598928D01*
X850388Y597891D01*
X851250Y596704D01*
X851916Y595397D01*
X852369Y594002D01*
X852393Y593851D01*
X845311Y593851D01*
G37*
%LPD*%
%LPC*%
G36*
X845311Y720851D02*
X845311Y720851D01*
X845311Y727933D01*
X845462Y727909D01*
X846857Y727456D01*
X848164Y726790D01*
X849351Y725928D01*
X850388Y724891D01*
X851250Y723704D01*
X851916Y722397D01*
X852369Y721002D01*
X852393Y720851D01*
X845311Y720851D01*
G37*
%LPD*%
%LPC*%
G36*
X834167Y543051D02*
X834167Y543051D01*
X834191Y543202D01*
X834644Y544597D01*
X835310Y545904D01*
X836172Y547091D01*
X837209Y548128D01*
X838396Y548990D01*
X839703Y549656D01*
X841098Y550109D01*
X841249Y550133D01*
X841249Y543051D01*
X834167Y543051D01*
G37*
%LPD*%
%LPC*%
G36*
X845311Y538989D02*
X845311Y538989D01*
X852393Y538989D01*
X852369Y538838D01*
X851916Y537443D01*
X851250Y536136D01*
X850388Y534949D01*
X849351Y533912D01*
X848164Y533050D01*
X846857Y532384D01*
X845462Y531931D01*
X845311Y531907D01*
X845311Y538989D01*
G37*
%LPD*%
%LPC*%
G36*
X834167Y771651D02*
X834167Y771651D01*
X834191Y771802D01*
X834644Y773197D01*
X835310Y774504D01*
X836172Y775691D01*
X837209Y776728D01*
X838396Y777590D01*
X839703Y778256D01*
X841098Y778709D01*
X841249Y778733D01*
X841249Y771651D01*
X834167Y771651D01*
G37*
%LPD*%
%LPC*%
G36*
X845311Y767589D02*
X845311Y767589D01*
X852393Y767589D01*
X852369Y767438D01*
X851916Y766043D01*
X851250Y764736D01*
X850388Y763549D01*
X849351Y762512D01*
X848164Y761650D01*
X846857Y760984D01*
X845462Y760531D01*
X845311Y760507D01*
X845311Y767589D01*
G37*
%LPD*%
%LPC*%
G36*
X834167Y746251D02*
X834167Y746251D01*
X834191Y746402D01*
X834644Y747797D01*
X835310Y749104D01*
X836172Y750291D01*
X837209Y751328D01*
X838396Y752190D01*
X839703Y752856D01*
X841098Y753309D01*
X841249Y753333D01*
X841249Y746251D01*
X834167Y746251D01*
G37*
%LPD*%
%LPC*%
G36*
X845311Y742189D02*
X845311Y742189D01*
X852393Y742189D01*
X852369Y742038D01*
X851916Y740643D01*
X851250Y739336D01*
X850388Y738149D01*
X849351Y737112D01*
X848164Y736250D01*
X846857Y735584D01*
X845462Y735131D01*
X845311Y735107D01*
X845311Y742189D01*
G37*
%LPD*%
%LPC*%
G36*
X834167Y720851D02*
X834167Y720851D01*
X834191Y721002D01*
X834644Y722397D01*
X835310Y723704D01*
X836172Y724891D01*
X837209Y725928D01*
X838396Y726790D01*
X839703Y727456D01*
X841098Y727909D01*
X841249Y727933D01*
X841249Y720851D01*
X834167Y720851D01*
G37*
%LPD*%
%LPC*%
G36*
X845311Y716789D02*
X845311Y716789D01*
X852393Y716789D01*
X852369Y716638D01*
X851916Y715243D01*
X851250Y713936D01*
X850388Y712749D01*
X849351Y711712D01*
X848164Y710850D01*
X846857Y710184D01*
X845462Y709731D01*
X845311Y709707D01*
X845311Y716789D01*
G37*
%LPD*%
%LPC*%
G36*
X834167Y695451D02*
X834167Y695451D01*
X834191Y695602D01*
X834644Y696997D01*
X835310Y698304D01*
X836172Y699491D01*
X837209Y700528D01*
X838396Y701390D01*
X839703Y702056D01*
X841098Y702509D01*
X841249Y702533D01*
X841249Y695451D01*
X834167Y695451D01*
G37*
%LPD*%
%LPC*%
G36*
X845311Y691389D02*
X845311Y691389D01*
X852393Y691389D01*
X852369Y691238D01*
X851916Y689843D01*
X851250Y688536D01*
X850388Y687349D01*
X849351Y686312D01*
X848164Y685450D01*
X846857Y684784D01*
X845462Y684331D01*
X845311Y684307D01*
X845311Y691389D01*
G37*
%LPD*%
%LPC*%
G36*
X834167Y670051D02*
X834167Y670051D01*
X834191Y670202D01*
X834644Y671597D01*
X835310Y672904D01*
X836172Y674091D01*
X837209Y675128D01*
X838396Y675990D01*
X839703Y676656D01*
X841098Y677109D01*
X841249Y677133D01*
X841249Y670051D01*
X834167Y670051D01*
G37*
%LPD*%
%LPC*%
G36*
X845311Y665989D02*
X845311Y665989D01*
X852393Y665989D01*
X852369Y665838D01*
X851916Y664443D01*
X851250Y663136D01*
X850388Y661949D01*
X849351Y660912D01*
X848164Y660050D01*
X846857Y659384D01*
X845462Y658931D01*
X845311Y658907D01*
X845311Y665989D01*
G37*
%LPD*%
%LPC*%
G36*
X834167Y644651D02*
X834167Y644651D01*
X834191Y644802D01*
X834644Y646197D01*
X835310Y647504D01*
X836172Y648691D01*
X837209Y649728D01*
X838396Y650590D01*
X839703Y651256D01*
X841098Y651709D01*
X841249Y651733D01*
X841249Y644651D01*
X834167Y644651D01*
G37*
%LPD*%
%LPC*%
G36*
X845311Y640589D02*
X845311Y640589D01*
X852393Y640589D01*
X852369Y640438D01*
X851916Y639043D01*
X851250Y637736D01*
X850388Y636549D01*
X849351Y635512D01*
X848164Y634650D01*
X846857Y633984D01*
X845462Y633531D01*
X845311Y633507D01*
X845311Y640589D01*
G37*
%LPD*%
%LPC*%
G36*
X834167Y619251D02*
X834167Y619251D01*
X834191Y619402D01*
X834644Y620797D01*
X835310Y622104D01*
X836172Y623291D01*
X837209Y624328D01*
X838396Y625190D01*
X839703Y625856D01*
X841098Y626309D01*
X841249Y626333D01*
X841249Y619251D01*
X834167Y619251D01*
G37*
%LPD*%
%LPC*%
G36*
X845311Y615189D02*
X845311Y615189D01*
X852393Y615189D01*
X852369Y615038D01*
X851916Y613643D01*
X851250Y612336D01*
X850388Y611149D01*
X849351Y610112D01*
X848164Y609250D01*
X846857Y608584D01*
X845462Y608131D01*
X845311Y608107D01*
X845311Y615189D01*
G37*
%LPD*%
%LPC*%
G36*
X834167Y593851D02*
X834167Y593851D01*
X834191Y594002D01*
X834644Y595397D01*
X835310Y596704D01*
X836172Y597891D01*
X837209Y598928D01*
X838396Y599790D01*
X839703Y600456D01*
X841098Y600909D01*
X841249Y600933D01*
X841249Y593851D01*
X834167Y593851D01*
G37*
%LPD*%
%LPC*%
G36*
X845311Y589789D02*
X845311Y589789D01*
X852393Y589789D01*
X852369Y589638D01*
X851916Y588243D01*
X851250Y586936D01*
X850388Y585749D01*
X849351Y584712D01*
X848164Y583850D01*
X846857Y583184D01*
X845462Y582731D01*
X845311Y582707D01*
X845311Y589789D01*
G37*
%LPD*%
%LPC*%
G36*
X834167Y568451D02*
X834167Y568451D01*
X834191Y568602D01*
X834644Y569997D01*
X835310Y571304D01*
X836172Y572491D01*
X837209Y573528D01*
X838396Y574390D01*
X839703Y575056D01*
X841098Y575509D01*
X841249Y575533D01*
X841249Y568451D01*
X834167Y568451D01*
G37*
%LPD*%
%LPC*%
G36*
X845311Y564389D02*
X845311Y564389D01*
X852393Y564389D01*
X852369Y564238D01*
X851916Y562843D01*
X851250Y561536D01*
X850388Y560349D01*
X849351Y559312D01*
X848164Y558450D01*
X846857Y557784D01*
X845462Y557331D01*
X845311Y557307D01*
X845311Y564389D01*
G37*
%LPD*%
%LPC*%
G36*
X841098Y658931D02*
X841098Y658931D01*
X839703Y659384D01*
X838396Y660050D01*
X837209Y660912D01*
X836172Y661949D01*
X835310Y663136D01*
X834644Y664443D01*
X834191Y665838D01*
X834167Y665989D01*
X841249Y665989D01*
X841249Y658907D01*
X841098Y658931D01*
G37*
%LPD*%
%LPC*%
G36*
X841098Y582731D02*
X841098Y582731D01*
X839703Y583184D01*
X838396Y583850D01*
X837209Y584712D01*
X836172Y585749D01*
X835310Y586936D01*
X834644Y588243D01*
X834191Y589638D01*
X834167Y589789D01*
X841249Y589789D01*
X841249Y582707D01*
X841098Y582731D01*
G37*
%LPD*%
%LPC*%
G36*
X841098Y633531D02*
X841098Y633531D01*
X839703Y633984D01*
X838396Y634650D01*
X837209Y635512D01*
X836172Y636549D01*
X835310Y637736D01*
X834644Y639043D01*
X834191Y640438D01*
X834167Y640589D01*
X841249Y640589D01*
X841249Y633507D01*
X841098Y633531D01*
G37*
%LPD*%
%LPC*%
G36*
X841098Y684331D02*
X841098Y684331D01*
X839703Y684784D01*
X838396Y685450D01*
X837209Y686312D01*
X836172Y687349D01*
X835310Y688536D01*
X834644Y689843D01*
X834191Y691238D01*
X834167Y691389D01*
X841249Y691389D01*
X841249Y684307D01*
X841098Y684331D01*
G37*
%LPD*%
%LPC*%
G36*
X841098Y709731D02*
X841098Y709731D01*
X839703Y710184D01*
X838396Y710850D01*
X837209Y711712D01*
X836172Y712749D01*
X835310Y713936D01*
X834644Y715243D01*
X834191Y716638D01*
X834167Y716789D01*
X841249Y716789D01*
X841249Y709707D01*
X841098Y709731D01*
G37*
%LPD*%
%LPC*%
G36*
X841098Y608131D02*
X841098Y608131D01*
X839703Y608584D01*
X838396Y609250D01*
X837209Y610112D01*
X836172Y611149D01*
X835310Y612336D01*
X834644Y613643D01*
X834191Y615038D01*
X834167Y615189D01*
X841249Y615189D01*
X841249Y608107D01*
X841098Y608131D01*
G37*
%LPD*%
%LPC*%
G36*
X841098Y557331D02*
X841098Y557331D01*
X839703Y557784D01*
X838396Y558450D01*
X837209Y559312D01*
X836172Y560349D01*
X835310Y561536D01*
X834644Y562843D01*
X834191Y564238D01*
X834167Y564389D01*
X841249Y564389D01*
X841249Y557307D01*
X841098Y557331D01*
G37*
%LPD*%
%LPC*%
G36*
X841098Y531931D02*
X841098Y531931D01*
X839703Y532384D01*
X838396Y533050D01*
X837209Y533912D01*
X836172Y534949D01*
X835310Y536136D01*
X834644Y537443D01*
X834191Y538838D01*
X834167Y538989D01*
X841249Y538989D01*
X841249Y531907D01*
X841098Y531931D01*
G37*
%LPD*%
%LPC*%
G36*
X841098Y735131D02*
X841098Y735131D01*
X839703Y735584D01*
X838396Y736250D01*
X837209Y737112D01*
X836172Y738149D01*
X835310Y739336D01*
X834644Y740643D01*
X834191Y742038D01*
X834167Y742189D01*
X841249Y742189D01*
X841249Y735107D01*
X841098Y735131D01*
G37*
%LPD*%
%LPC*%
G36*
X841098Y760531D02*
X841098Y760531D01*
X839703Y760984D01*
X838396Y761650D01*
X837209Y762512D01*
X836172Y763549D01*
X835310Y764736D01*
X834644Y766043D01*
X834191Y767438D01*
X834167Y767589D01*
X841249Y767589D01*
X841249Y760507D01*
X841098Y760531D01*
G37*
%LPD*%
%LPC*%
G36*
X479043Y745743D02*
X479043Y745743D01*
X479043Y752399D01*
X479946Y752219D01*
X481460Y751592D01*
X482823Y750682D01*
X483982Y749523D01*
X484892Y748160D01*
X485519Y746646D01*
X485699Y745743D01*
X479043Y745743D01*
G37*
%LPD*%
%LPC*%
G36*
X175513Y752093D02*
X175513Y752093D01*
X175513Y758749D01*
X176416Y758569D01*
X177930Y757942D01*
X179293Y757032D01*
X180452Y755873D01*
X181362Y754510D01*
X181989Y752996D01*
X182169Y752093D01*
X175513Y752093D01*
G37*
%LPD*%
%LPC*%
G36*
X479043Y742697D02*
X479043Y742697D01*
X485699Y742697D01*
X485519Y741794D01*
X484892Y740280D01*
X483982Y738917D01*
X482823Y737758D01*
X481460Y736848D01*
X479946Y736221D01*
X479043Y736041D01*
X479043Y742697D01*
G37*
%LPD*%
%LPC*%
G36*
X175513Y749047D02*
X175513Y749047D01*
X182169Y749047D01*
X181989Y748144D01*
X181362Y746630D01*
X180452Y745267D01*
X179293Y744108D01*
X177930Y743198D01*
X176416Y742571D01*
X175513Y742391D01*
X175513Y749047D01*
G37*
%LPD*%
%LPC*%
G36*
X469341Y745743D02*
X469341Y745743D01*
X469521Y746646D01*
X470148Y748160D01*
X471058Y749523D01*
X472217Y750682D01*
X473580Y751592D01*
X475094Y752219D01*
X475997Y752399D01*
X475997Y745743D01*
X469341Y745743D01*
G37*
%LPD*%
%LPC*%
G36*
X165811Y752093D02*
X165811Y752093D01*
X165991Y752996D01*
X166618Y754510D01*
X167528Y755873D01*
X168687Y757032D01*
X170050Y757942D01*
X171564Y758569D01*
X172467Y758749D01*
X172467Y752093D01*
X165811Y752093D01*
G37*
%LPD*%
%LPC*%
G36*
X171564Y742571D02*
X171564Y742571D01*
X170050Y743198D01*
X168687Y744108D01*
X167528Y745267D01*
X166618Y746630D01*
X165991Y748144D01*
X165811Y749047D01*
X172467Y749047D01*
X172467Y742391D01*
X171564Y742571D01*
G37*
%LPD*%
%LPC*%
G36*
X475094Y736221D02*
X475094Y736221D01*
X473580Y736848D01*
X472217Y737758D01*
X471058Y738917D01*
X470148Y740280D01*
X469521Y741794D01*
X469341Y742697D01*
X475997Y742697D01*
X475997Y736041D01*
X475094Y736221D01*
G37*
%LPD*%
%LPC*%
G36*
X1059209Y538709D02*
X1059209Y538709D01*
X1059209Y544374D01*
X1059845Y544247D01*
X1061177Y543696D01*
X1062376Y542895D01*
X1063395Y541876D01*
X1064196Y540677D01*
X1064747Y539345D01*
X1064874Y538709D01*
X1059209Y538709D01*
G37*
%LPD*%
%LPC*%
G36*
X1050546Y538709D02*
X1050546Y538709D01*
X1050673Y539345D01*
X1051224Y540677D01*
X1052025Y541876D01*
X1053044Y542895D01*
X1054243Y543696D01*
X1055575Y544247D01*
X1056211Y544374D01*
X1056211Y538709D01*
X1050546Y538709D01*
G37*
%LPD*%
%LPC*%
G36*
X1059209Y535711D02*
X1059209Y535711D01*
X1064874Y535711D01*
X1064747Y535075D01*
X1064196Y533743D01*
X1063395Y532544D01*
X1062376Y531525D01*
X1061177Y530724D01*
X1059845Y530173D01*
X1059209Y530046D01*
X1059209Y535711D01*
G37*
%LPD*%
%LPC*%
G36*
X1055575Y530173D02*
X1055575Y530173D01*
X1054243Y530724D01*
X1053044Y531525D01*
X1052025Y532544D01*
X1051224Y533743D01*
X1050673Y535075D01*
X1050546Y535711D01*
X1056211Y535711D01*
X1056211Y530046D01*
X1055575Y530173D01*
G37*
%LPD*%
%LPC*%
G36*
X843279Y591819D02*
X843279Y591819D01*
X843279Y591821D01*
X843281Y591821D01*
X843281Y591819D01*
X843279Y591819D01*
G37*
%LPD*%
%LPC*%
G36*
X843279Y617219D02*
X843279Y617219D01*
X843279Y617221D01*
X843281Y617221D01*
X843281Y617219D01*
X843279Y617219D01*
G37*
%LPD*%
%LPC*%
G36*
X85089Y290829D02*
X85089Y290829D01*
X85089Y290831D01*
X85091Y290831D01*
X85091Y290829D01*
X85089Y290829D01*
G37*
%LPD*%
%LPC*%
G36*
X843279Y642619D02*
X843279Y642619D01*
X843279Y642621D01*
X843281Y642621D01*
X843281Y642619D01*
X843279Y642619D01*
G37*
%LPD*%
%LPC*%
G36*
X715771Y99181D02*
X715771Y99181D01*
X715771Y99183D01*
X715773Y99183D01*
X715773Y99181D01*
X715771Y99181D01*
G37*
%LPD*%
%LPC*%
G36*
X246379Y727539D02*
X246379Y727539D01*
X246379Y727541D01*
X246381Y727541D01*
X246381Y727539D01*
X246379Y727539D01*
G37*
%LPD*%
%LPC*%
G36*
X394969Y727539D02*
X394969Y727539D01*
X394969Y727541D01*
X394971Y727541D01*
X394971Y727539D01*
X394969Y727539D01*
G37*
%LPD*%
%LPC*%
G36*
X843279Y668019D02*
X843279Y668019D01*
X843279Y668021D01*
X843281Y668021D01*
X843281Y668019D01*
X843279Y668019D01*
G37*
%LPD*%
%LPC*%
G36*
X843279Y566419D02*
X843279Y566419D01*
X843279Y566421D01*
X843281Y566421D01*
X843281Y566419D01*
X843279Y566419D01*
G37*
%LPD*%
%LPC*%
G36*
X843279Y769619D02*
X843279Y769619D01*
X843279Y769621D01*
X843281Y769621D01*
X843281Y769619D01*
X843279Y769619D01*
G37*
%LPD*%
%LPC*%
G36*
X843279Y693419D02*
X843279Y693419D01*
X843279Y693421D01*
X843281Y693421D01*
X843281Y693419D01*
X843279Y693419D01*
G37*
%LPD*%
%LPC*%
G36*
X477519Y744219D02*
X477519Y744219D01*
X477519Y744221D01*
X477521Y744221D01*
X477521Y744219D01*
X477519Y744219D01*
G37*
%LPD*%
%LPC*%
G36*
X86359Y548639D02*
X86359Y548639D01*
X86359Y548641D01*
X86361Y548641D01*
X86361Y548639D01*
X86359Y548639D01*
G37*
%LPD*%
%LPC*%
G36*
X87629Y424179D02*
X87629Y424179D01*
X87629Y424181D01*
X87631Y424181D01*
X87631Y424179D01*
X87629Y424179D01*
G37*
%LPD*%
%LPC*%
G36*
X173989Y750569D02*
X173989Y750569D01*
X173989Y750571D01*
X173991Y750571D01*
X173991Y750569D01*
X173989Y750569D01*
G37*
%LPD*%
%LPC*%
G36*
X843279Y744219D02*
X843279Y744219D01*
X843279Y744221D01*
X843281Y744221D01*
X843281Y744219D01*
X843279Y744219D01*
G37*
%LPD*%
%LPC*%
G36*
X843279Y718819D02*
X843279Y718819D01*
X843279Y718821D01*
X843281Y718821D01*
X843281Y718819D01*
X843279Y718819D01*
G37*
%LPD*%
%LPC*%
G36*
X552449Y727539D02*
X552449Y727539D01*
X552449Y727541D01*
X552451Y727541D01*
X552451Y727539D01*
X552449Y727539D01*
G37*
%LPD*%
%LPC*%
G36*
X843279Y541019D02*
X843279Y541019D01*
X843279Y541021D01*
X843281Y541021D01*
X843281Y541019D01*
X843279Y541019D01*
G37*
%LPD*%
%LPC*%
G36*
X90169Y727539D02*
X90169Y727539D01*
X90169Y727541D01*
X90171Y727541D01*
X90171Y727539D01*
X90169Y727539D01*
G37*
%LPD*%
%LPC*%
G36*
X999489Y49529D02*
X999489Y49529D01*
X999489Y49531D01*
X999491Y49531D01*
X999491Y49529D01*
X999489Y49529D01*
G37*
%LPD*%
D10*
X166370Y424180D03*
X87630Y424180D03*
X85090Y290830D03*
X163830Y290830D03*
D11*
X481330Y57150D03*
X455930Y57150D03*
X430530Y57150D03*
X405130Y57150D03*
D12*
X552450Y794540D03*
X552450Y727540D03*
X90170Y794540D03*
X90170Y727540D03*
X394970Y794540D03*
X394970Y727540D03*
X246380Y794540D03*
X246380Y727540D03*
D13*
X102870Y110490D03*
X173990Y110490D03*
D14*
X767080Y769620D03*
X767080Y744220D03*
X767080Y718820D03*
X767080Y693420D03*
X767080Y668020D03*
X767080Y642620D03*
X767080Y617220D03*
X767080Y591820D03*
X767080Y566420D03*
X767080Y541020D03*
X843280Y541020D03*
X843280Y566420D03*
X843280Y591820D03*
X843280Y617220D03*
X843280Y642620D03*
X843280Y668020D03*
X843280Y693420D03*
X843280Y718820D03*
X843280Y744220D03*
X843280Y769620D03*
D11*
X605790Y393700D03*
X605790Y419100D03*
X605790Y444500D03*
D15*
X592709Y95250D03*
X618820Y95250D03*
X981710Y537210D03*
X1057710Y537210D03*
D16*
X948690Y24130D03*
X974090Y24130D03*
X999490Y24130D03*
X948690Y49530D03*
X974090Y49530D03*
X999490Y49530D03*
D11*
X765810Y224790D03*
X791210Y224790D03*
X816610Y224790D03*
D10*
X165100Y548640D03*
X86360Y548640D03*
D17*
X477520Y744220D03*
X477520Y769220D03*
X173990Y750570D03*
X173990Y775570D03*
D18*
X788470Y146172D03*
X763470Y146172D03*
X763470Y126360D03*
X788470Y126360D03*
D19*
X836168Y99182D03*
X715772Y99182D03*
D20*
X184150Y177800D03*
X251460Y190500D03*
X242570Y148590D03*
X247650Y93980D03*
X361950Y111760D03*
X347980Y96520D03*
X337820Y82550D03*
X323850Y71120D03*
X307340Y64770D03*
X285750Y62230D03*
X266700Y59690D03*
X281940Y21590D03*
X320040Y22860D03*
X344170Y40640D03*
X361950Y55880D03*
X375920Y67310D03*
X488950Y176530D03*
X524510Y114300D03*
X444500Y15240D03*
X516890Y21590D03*
X509270Y76200D03*
X541020Y85090D03*
X544830Y116840D03*
X635000Y83820D03*
X681990Y41910D03*
X756920Y21590D03*
X572770Y237490D03*
X572770Y207010D03*
X657860Y255270D03*
X506730Y279400D03*
X519430Y314960D03*
X914400Y193040D03*
X934720Y598170D03*
X894080Y481330D03*
X892810Y584200D03*
X694690Y678180D03*
X645160Y600710D03*
X647700Y524510D03*
X673100Y464820D03*
X660400Y490220D03*
X668020Y433070D03*
X655320Y389890D03*
X557530Y254000D03*
X554990Y208280D03*
X525780Y198120D03*
X600710Y238760D03*
X594360Y229870D03*
X581660Y218440D03*
X582930Y246380D03*
X557530Y228600D03*
D21*
X283210Y157480D03*
D22*
X302260Y138430D01*
X636270Y138430D02*
X645160Y147320D01*
D21*
X645160Y147320D03*
D22*
X636270Y138430D02*
X302260Y138430D01*
D20*
X665480Y210820D03*
X734060Y171450D03*
X1084580Y82550D03*
X1082040Y198120D03*
X971550Y196850D03*
X1079500Y153670D03*
X877570Y293370D03*
X896620Y309880D03*
X812800Y303530D03*
X852170Y321310D03*
X924560Y293370D03*
X966470Y243840D03*
X984250Y260350D03*
X1008380Y273050D03*
X1031240Y289560D03*
X1013460Y347980D03*
X1032510Y381000D03*
X1009650Y414020D03*
X994410Y364490D03*
X1088390Y447040D03*
X910590Y462280D03*
X928370Y481330D03*
X946150Y499110D03*
X911860Y499110D03*
X932180Y519430D03*
X815340Y430530D03*
X831850Y393700D03*
X735330Y436880D03*
X749300Y417830D03*
X31750Y626110D03*
X85090Y623570D03*
X170180Y624840D03*
X172720Y661670D03*
X45720Y670560D03*
X170180Y704850D03*
X356870Y657860D03*
X356870Y635000D03*
X358140Y612140D03*
X356870Y590550D03*
X483870Y624840D03*
X270510Y571500D03*
X808990Y364490D03*
X742950Y252730D03*
X551180Y323850D03*
X576580Y323850D03*
X610870Y326390D03*
X638810Y326390D03*
X381000Y490220D03*
X391160Y490220D03*
X420370Y519430D03*
X492760Y483870D03*
X577850Y594360D03*
X576580Y568960D03*
X577850Y544830D03*
X577850Y520700D03*
X604520Y521970D03*
X604520Y543560D03*
X604520Y568960D03*
X604520Y594360D03*
X356870Y570230D03*
X356870Y551180D03*
X270510Y591820D03*
X270510Y612140D03*
X270510Y632460D03*
X487680Y562610D03*
X535940Y435610D03*
X270510Y389890D03*
X299720Y388620D03*
X331470Y388620D03*
X360680Y387350D03*
X391160Y387350D03*
X420370Y391160D03*
X885190Y213360D03*
X748030Y78740D03*
X681990Y328930D03*
X773430Y297180D03*
X579120Y617220D03*
X604520Y617220D03*
X869950Y43180D03*
X1082040Y407670D03*
X924560Y411480D03*
X928370Y325120D03*
X1013460Y623570D03*
X1028700Y679450D03*
X1027430Y730250D03*
X402590Y490220D03*
X412750Y490220D03*
X420370Y509270D03*
X843280Y152400D03*
X843280Y135890D03*
X867410Y158750D03*
X867410Y132080D03*
X866140Y105410D03*
X855980Y69850D03*
X882650Y71120D03*
X897890Y62230D03*
D21*
X713740Y290830D03*
X966470Y344170D03*
D23*
X732790Y290830D02*
X713740Y290830D01*
X732790Y290830D02*
X769620Y254000D01*
X939800Y254000D01*
X966470Y280670D01*
X966470Y344170D01*
D21*
X728980Y281940D03*
D23*
X762000Y248920D02*
X948690Y248920D01*
X762000Y248920D02*
X728980Y281940D01*
X948690Y248920D02*
X974090Y274320D01*
X974090Y353060D01*
D24*
X974090Y353060D03*
D20*
X676910Y308610D03*
X408940Y209550D03*
D24*
X670560Y264160D03*
D25*
X676910Y270510D01*
X676910Y308610D01*
X670560Y314960D01*
X664210Y314960D01*
X568960Y219710D01*
X419100Y219710D02*
X408940Y209550D01*
X419100Y219710D02*
X568960Y219710D01*
D20*
X20320Y35560D03*
X22860Y162560D03*
X27940Y269240D03*
X31750Y353060D03*
X100330Y309880D03*
X106680Y149860D03*
X88900Y353060D03*
X30480Y482600D03*
X85090Y487680D03*
X26670Y581660D03*
D21*
X345440Y157480D03*
D22*
X358140Y144780D01*
X615950Y144780D02*
X621030Y149860D01*
D21*
X621030Y149860D03*
D22*
X615950Y144780D02*
X358140Y144780D01*
D20*
X610870Y241300D03*
D26*
X628650Y223520D01*
X764540Y223520D01*
X765810Y224790D01*
D21*
X659130Y236692D03*
D23*
X665008Y242570D01*
X951230Y242570D01*
X984250Y275590D01*
X984250Y381000D01*
D21*
X984250Y381000D03*
D20*
X292100Y293370D03*
X307340Y293370D03*
X322580Y293370D03*
X337820Y293370D03*
X219710Y429260D03*
X292100Y264160D03*
X307340Y264160D03*
X322580Y264160D03*
X337820Y264160D03*
X265430Y269240D03*
X251460Y247650D03*
X292100Y278130D03*
X307340Y278130D03*
X322580Y278130D03*
X337820Y278130D03*
X292100Y248920D03*
X307340Y248920D03*
X322580Y248920D03*
X337820Y248920D03*
X292100Y234950D03*
X307340Y234950D03*
X322580Y234950D03*
X337820Y234950D03*
X391160Y295910D03*
X406400Y295910D03*
X421640Y295910D03*
X436880Y295910D03*
X391160Y280670D03*
X406400Y280670D03*
X421640Y280670D03*
X436880Y280670D03*
X391160Y266700D03*
X406400Y266700D03*
X421640Y266700D03*
X436880Y266700D03*
X391160Y251460D03*
X406400Y251460D03*
X421640Y251460D03*
X436880Y251460D03*
X391160Y237490D03*
X406400Y237490D03*
X421640Y237490D03*
X436880Y237490D03*
X204470Y236220D03*
X157480Y373380D03*
X193040Y355600D03*
X220980Y382270D03*
D21*
X684530Y297180D03*
X972820Y369570D03*
D23*
X710442Y297180D02*
X684530Y297180D01*
X710442Y297180D02*
X710914Y297652D01*
X733588Y297652D01*
X772160Y259080D01*
X937260Y259080D01*
X962406Y284226D01*
X962406Y334264D02*
X957580Y339090D01*
X957580Y354330D01*
X972820Y369570D01*
X962406Y334264D02*
X962406Y284226D01*
D27*
X422910Y478790D03*
X433070Y478790D03*
X433070Y468630D03*
X422910Y468630D03*
X292100Y474980D03*
X354330Y459740D03*
X323850Y474980D03*
X354330Y474980D03*
X290830Y459740D03*
X323850Y459740D03*
X445770Y502920D03*
X434340Y502920D03*
D26*
X880110Y49530D02*
X948690Y49530D01*
X880110Y49530D02*
X869950Y59690D01*
X869950Y76200D02*
X857250Y88900D01*
X857250Y139700D01*
D21*
X857250Y139700D03*
D26*
X869950Y76200D02*
X869950Y59690D01*
D22*
X821690Y269240D02*
X786130Y269240D01*
X821690Y269240D02*
X885190Y332740D01*
X786130Y269240D02*
X684530Y370840D01*
X885190Y373380D02*
X885190Y332740D01*
D21*
X885190Y373380D03*
D27*
X668020Y372110D03*
D23*
X683260Y372110D01*
X684530Y370840D01*
D21*
X857250Y434340D03*
D25*
X866140Y434340D02*
X899160Y401320D01*
X866140Y434340D02*
X857250Y434340D01*
X982980Y401320D02*
X1004570Y379730D01*
X1004570Y294640D01*
X995680Y285750D01*
X995680Y280670D01*
D21*
X995680Y280670D03*
D25*
X982980Y401320D02*
X899160Y401320D01*
D21*
X793750Y449580D03*
D25*
X796290Y447040D01*
X866140Y447040D02*
X901700Y411480D01*
D21*
X901700Y411480D03*
D25*
X866140Y447040D02*
X796290Y447040D01*
D21*
X786130Y459740D03*
D25*
X868264Y459740D01*
X884774Y443230D01*
D21*
X884774Y443230D03*
X695960Y422910D03*
D25*
X695960Y397510D01*
X814070Y279400D01*
D21*
X814070Y279400D03*
X704850Y443230D03*
D25*
X704850Y403860D01*
X791210Y317500D01*
D21*
X791210Y317500D03*
X803910Y326390D03*
D25*
X712470Y417830D01*
X712470Y452120D01*
D21*
X712470Y452120D03*
X722630Y434340D03*
D25*
X722630Y424180D01*
X811530Y335280D01*
D21*
X811530Y335280D03*
D24*
X1019810Y278130D03*
X1018540Y369570D03*
D22*
X1019810Y344272D02*
X1019810Y278130D01*
X1019810Y344272D02*
X1020572Y345034D01*
X1020572Y367538D01*
X1018540Y369570D01*
D27*
X581660Y488950D03*
D23*
X559582Y466872D01*
X494030Y466872D01*
D27*
X494030Y466872D03*
D21*
X906780Y349250D03*
D22*
X948690Y391160D01*
D21*
X948690Y391160D03*
X906780Y337820D03*
D22*
X960120Y391160D01*
X970280Y391160D01*
D21*
X970280Y391160D03*
D24*
X872490Y186690D03*
D23*
X872490Y201509D01*
X861484Y212514D01*
X861484Y215054D01*
D24*
X861484Y215054D03*
X894080Y187960D03*
X871220Y231140D03*
D23*
X876554Y205486D02*
X894080Y187960D01*
X876554Y205486D02*
X876554Y205732D01*
X871220Y211066D01*
X871220Y231140D01*
D24*
X902020Y364170D03*
D25*
X902020Y361000D01*
X895350Y354330D01*
X895350Y331470D01*
X899160Y327660D02*
X910590Y327660D01*
X923290Y314960D02*
X923290Y311150D01*
D24*
X923290Y311150D03*
D25*
X899160Y327660D02*
X895350Y331470D01*
X910590Y327660D02*
X923290Y314960D01*
D23*
X778510Y264160D02*
X678906Y363764D01*
X778510Y264160D02*
X924560Y264160D01*
X939800Y279400D01*
D21*
X939800Y279400D03*
D23*
X678906Y363764D02*
X656046Y363764D01*
X628650Y391160D02*
X628650Y434340D01*
X618490Y444500D01*
X605790Y444500D01*
X628650Y391160D02*
X656046Y363764D01*
M02*
