G04 EAGLE Gerber RS-274X export*
G75*
%MOMM*%
%FSLAX34Y34*%
%LPD*%
%INSoldermask Bottom*%
%IPPOS*%
%AMOC8*
5,1,8,0,0,1.08239X$1,22.5*%
G01*
%ADD10C,4.445000*%
%ADD11C,2.133600*%
%ADD12C,3.754000*%
%ADD13C,3.254000*%
%ADD14C,6.350000*%
%ADD15C,1.609600*%
%ADD16C,1.209600*%
%ADD17C,1.004000*%
%ADD18C,1.778000*%
%ADD19C,1.409600*%
%ADD20C,1.930400*%
%ADD21C,2.895600*%


D10*
X166370Y424180D03*
X87630Y424180D03*
X85090Y290830D03*
X163830Y290830D03*
D11*
X481330Y57150D03*
X455930Y57150D03*
X430530Y57150D03*
X405130Y57150D03*
D12*
X552450Y794540D03*
X552450Y727540D03*
D13*
X563450Y673540D03*
D12*
X90170Y794540D03*
X90170Y727540D03*
D13*
X101170Y673540D03*
D12*
X394970Y794540D03*
X394970Y727540D03*
D13*
X405970Y673540D03*
D12*
X246380Y794540D03*
X246380Y727540D03*
D13*
X257380Y673540D03*
D14*
X102870Y110490D03*
X173990Y110490D03*
D15*
X767080Y769620D03*
X767080Y744220D03*
X767080Y718820D03*
X767080Y693420D03*
X767080Y668020D03*
X767080Y642620D03*
X767080Y617220D03*
X767080Y591820D03*
X767080Y566420D03*
X767080Y541020D03*
X843280Y541020D03*
X843280Y566420D03*
X843280Y591820D03*
X843280Y617220D03*
X843280Y642620D03*
X843280Y668020D03*
X843280Y693420D03*
X843280Y718820D03*
X843280Y744220D03*
X843280Y769620D03*
D11*
X605790Y393700D03*
X605790Y419100D03*
X605790Y444500D03*
D16*
X592709Y95250D03*
X618820Y95250D03*
D17*
X568325Y70358D03*
X643255Y120142D03*
D16*
X981710Y537210D03*
X1057710Y537210D03*
D18*
X948690Y24130D03*
X974090Y24130D03*
X999490Y24130D03*
X948690Y49530D03*
X974090Y49530D03*
X999490Y49530D03*
D11*
X765810Y224790D03*
X791210Y224790D03*
X816610Y224790D03*
D10*
X165100Y548640D03*
X86360Y548640D03*
D19*
X477520Y744220D03*
X477520Y769220D03*
X173990Y750570D03*
X173990Y775570D03*
D20*
X788470Y146172D03*
X763470Y146172D03*
X763470Y126360D03*
X788470Y126360D03*
D21*
X836168Y99182D03*
X715772Y99182D03*
M02*
