%TF.GenerationSoftware,KiCad,Pcbnew,6.0.9-8da3e8f707~117~ubuntu20.04.1*%
%TF.CreationDate,2023-02-01T20:13:31-08:00*%
%TF.ProjectId,PiE_team_flag,5069455f-7465-4616-9d5f-666c61672e6b,rev?*%
%TF.SameCoordinates,Original*%
%TF.FileFunction,Legend,Top*%
%TF.FilePolarity,Positive*%
%FSLAX46Y46*%
G04 Gerber Fmt 4.6, Leading zero omitted, Abs format (unit mm)*
G04 Created by KiCad (PCBNEW 6.0.9-8da3e8f707~117~ubuntu20.04.1) date 2023-02-01 20:13:31*
%MOMM*%
%LPD*%
G01*
G04 APERTURE LIST*
%ADD10C,0.150000*%
%ADD11C,0.076200*%
%ADD12C,0.254000*%
%ADD13C,0.127000*%
%ADD14C,0.120000*%
G04 APERTURE END LIST*
D10*
X180594000Y-100126800D02*
G75*
G03*
X180594000Y-100126800I-18034000J0D01*
G01*
D11*
%TO.C,SW1*%
X154702933Y-128857223D02*
X154793647Y-128887461D01*
X154944838Y-128887461D01*
X155005314Y-128857223D01*
X155035552Y-128826985D01*
X155065790Y-128766509D01*
X155065790Y-128706033D01*
X155035552Y-128645557D01*
X155005314Y-128615319D01*
X154944838Y-128585080D01*
X154823885Y-128554842D01*
X154763409Y-128524604D01*
X154733171Y-128494366D01*
X154702933Y-128433890D01*
X154702933Y-128373414D01*
X154733171Y-128312938D01*
X154763409Y-128282700D01*
X154823885Y-128252461D01*
X154975076Y-128252461D01*
X155065790Y-128282700D01*
X155277457Y-128252461D02*
X155428647Y-128887461D01*
X155549600Y-128433890D01*
X155670552Y-128887461D01*
X155821742Y-128252461D01*
X156396266Y-128887461D02*
X156033409Y-128887461D01*
X156214838Y-128887461D02*
X156214838Y-128252461D01*
X156154361Y-128343176D01*
X156093885Y-128403652D01*
X156033409Y-128433890D01*
D10*
%TO.C,J1*%
X170506938Y-125385369D02*
X170506938Y-126099931D01*
X170459300Y-126242843D01*
X170364025Y-126338118D01*
X170221113Y-126385755D01*
X170125838Y-126385755D01*
X171507324Y-126385755D02*
X170935674Y-126385755D01*
X171221499Y-126385755D02*
X171221499Y-125385369D01*
X171126224Y-125528281D01*
X171030949Y-125623556D01*
X170935674Y-125671194D01*
%TO.C,C1*%
X180857142Y-117006666D02*
X180904761Y-117054285D01*
X180952380Y-117197142D01*
X180952380Y-117292380D01*
X180904761Y-117435238D01*
X180809523Y-117530476D01*
X180714285Y-117578095D01*
X180523809Y-117625714D01*
X180380952Y-117625714D01*
X180190476Y-117578095D01*
X180095238Y-117530476D01*
X180000000Y-117435238D01*
X179952380Y-117292380D01*
X179952380Y-117197142D01*
X180000000Y-117054285D01*
X180047619Y-117006666D01*
X180952380Y-116054285D02*
X180952380Y-116625714D01*
X180952380Y-116340000D02*
X179952380Y-116340000D01*
X180095238Y-116435238D01*
X180190476Y-116530476D01*
X180238095Y-116625714D01*
%TO.C,LED2*%
X166520952Y-104539180D02*
X166044761Y-104539180D01*
X166044761Y-103539180D01*
X166854285Y-104015371D02*
X167187619Y-104015371D01*
X167330476Y-104539180D02*
X166854285Y-104539180D01*
X166854285Y-103539180D01*
X167330476Y-103539180D01*
X167759047Y-104539180D02*
X167759047Y-103539180D01*
X167997142Y-103539180D01*
X168140000Y-103586800D01*
X168235238Y-103682038D01*
X168282857Y-103777276D01*
X168330476Y-103967752D01*
X168330476Y-104110609D01*
X168282857Y-104301085D01*
X168235238Y-104396323D01*
X168140000Y-104491561D01*
X167997142Y-104539180D01*
X167759047Y-104539180D01*
X168711428Y-103634419D02*
X168759047Y-103586800D01*
X168854285Y-103539180D01*
X169092380Y-103539180D01*
X169187619Y-103586800D01*
X169235238Y-103634419D01*
X169282857Y-103729657D01*
X169282857Y-103824895D01*
X169235238Y-103967752D01*
X168663809Y-104539180D01*
X169282857Y-104539180D01*
%TO.C,R1*%
X146662380Y-119546666D02*
X146186190Y-119880000D01*
X146662380Y-120118095D02*
X145662380Y-120118095D01*
X145662380Y-119737142D01*
X145710000Y-119641904D01*
X145757619Y-119594285D01*
X145852857Y-119546666D01*
X145995714Y-119546666D01*
X146090952Y-119594285D01*
X146138571Y-119641904D01*
X146186190Y-119737142D01*
X146186190Y-120118095D01*
X146662380Y-118594285D02*
X146662380Y-119165714D01*
X146662380Y-118880000D02*
X145662380Y-118880000D01*
X145805238Y-118975238D01*
X145900476Y-119070476D01*
X145948095Y-119165714D01*
%TO.C,LED1*%
X156360952Y-104539180D02*
X155884761Y-104539180D01*
X155884761Y-103539180D01*
X156694285Y-104015371D02*
X157027619Y-104015371D01*
X157170476Y-104539180D02*
X156694285Y-104539180D01*
X156694285Y-103539180D01*
X157170476Y-103539180D01*
X157599047Y-104539180D02*
X157599047Y-103539180D01*
X157837142Y-103539180D01*
X157980000Y-103586800D01*
X158075238Y-103682038D01*
X158122857Y-103777276D01*
X158170476Y-103967752D01*
X158170476Y-104110609D01*
X158122857Y-104301085D01*
X158075238Y-104396323D01*
X157980000Y-104491561D01*
X157837142Y-104539180D01*
X157599047Y-104539180D01*
X159122857Y-104539180D02*
X158551428Y-104539180D01*
X158837142Y-104539180D02*
X158837142Y-103539180D01*
X158741904Y-103682038D01*
X158646666Y-103777276D01*
X158551428Y-103824895D01*
%TO.C,R2*%
X151742380Y-119546666D02*
X151266190Y-119880000D01*
X151742380Y-120118095D02*
X150742380Y-120118095D01*
X150742380Y-119737142D01*
X150790000Y-119641904D01*
X150837619Y-119594285D01*
X150932857Y-119546666D01*
X151075714Y-119546666D01*
X151170952Y-119594285D01*
X151218571Y-119641904D01*
X151266190Y-119737142D01*
X151266190Y-120118095D01*
X150837619Y-119165714D02*
X150790000Y-119118095D01*
X150742380Y-119022857D01*
X150742380Y-118784761D01*
X150790000Y-118689523D01*
X150837619Y-118641904D01*
X150932857Y-118594285D01*
X151028095Y-118594285D01*
X151170952Y-118641904D01*
X151742380Y-119213333D01*
X151742380Y-118594285D01*
D12*
%TO.C,SW1*%
X151940000Y-128000000D02*
X151940000Y-126000000D01*
X157940000Y-128000000D02*
X151940000Y-128000000D01*
X153940000Y-126000000D02*
X153940000Y-128000000D01*
X148590000Y-124800000D02*
X148590000Y-125693000D01*
X151940000Y-126000000D02*
X153940000Y-126000000D01*
X161290000Y-128307000D02*
X161290000Y-129200000D01*
X157940000Y-126000000D02*
X157940000Y-128000000D01*
X151940000Y-126000000D02*
X157940000Y-126000000D01*
X148590000Y-129200000D02*
X161290000Y-129200000D01*
X148590000Y-124800000D02*
X161290000Y-124800000D01*
X153940000Y-128000000D02*
X151940000Y-128000000D01*
X151940000Y-128000000D02*
X151940000Y-126000000D01*
X161290000Y-124800000D02*
X161290000Y-125693000D01*
X148590000Y-128307000D02*
X148590000Y-129200000D01*
D13*
%TO.C,J1*%
X176890400Y-118844200D02*
X176890400Y-123044200D01*
X164790400Y-118844200D02*
X176890400Y-118844200D01*
X176890400Y-127044200D02*
X176890400Y-135344200D01*
X164790400Y-123044200D02*
X164790400Y-118844200D01*
X164790400Y-135344200D02*
X164790400Y-127044200D01*
X176890400Y-135344200D02*
X164790400Y-135344200D01*
D14*
%TO.C,C1*%
X178560000Y-116699420D02*
X178560000Y-116980580D01*
X179580000Y-116699420D02*
X179580000Y-116980580D01*
%TO.C,LED2*%
X170140000Y-100126800D02*
G75*
G03*
X170140000Y-100126800I-2500000J0D01*
G01*
X164650000Y-100126338D02*
G75*
G03*
X170200000Y-101671630I2990000J-462D01*
G01*
X170200000Y-98581970D02*
G75*
G03*
X164650000Y-100127262I-2560000J-1544830D01*
G01*
X170200000Y-101671800D02*
X170200000Y-98581800D01*
%TO.C,R1*%
X145302500Y-119142742D02*
X145302500Y-119617258D01*
X144257500Y-119142742D02*
X144257500Y-119617258D01*
%TO.C,LED1*%
X160040000Y-101671800D02*
X160040000Y-98581800D01*
X160040000Y-98581970D02*
G75*
G03*
X154490000Y-100127262I-2560000J-1544830D01*
G01*
X154490000Y-100126338D02*
G75*
G03*
X160040000Y-101671630I2990000J-462D01*
G01*
X159980000Y-100126800D02*
G75*
G03*
X159980000Y-100126800I-2500000J0D01*
G01*
%TO.C,R2*%
X149337500Y-119142742D02*
X149337500Y-119617258D01*
X150382500Y-119142742D02*
X150382500Y-119617258D01*
%TD*%
M02*
