M48
; DRILL file {KiCad 8.0.4} date 2025-05-05T15:48:35-0700
; FORMAT={-:-/ absolute / inch / decimal}
; #@! TF.CreationDate,2025-05-05T15:48:35-07:00
; #@! TF.GenerationSoftware,Kicad,Pcbnew,8.0.4
; #@! TF.FileFunction,Plated,1,2,PTH
FMAT,2
INCH
; #@! TA.AperFunction,Plated,PTH,ViaDrill
T1C0.0118
; #@! TA.AperFunction,Plated,PTH,ComponentDrill
T2C0.0354
%
G90
G05
T1
X5.4134Y-4.1535
X5.4429Y-3.6417
X5.4429Y-3.7402
X5.6398Y-3.5236
X5.6398Y-3.563
X5.6791Y-3.5236
X5.6791Y-3.563
X6.0925Y-3.6811
X6.0925Y-3.7402
X6.1614Y-3.9567
X6.2303Y-3.7402
X6.4665Y-3.6811
X6.8898Y-4.0945
X7.0669Y-4.0945
X7.4311Y-4.1142
T2
X4.9213Y-3.8583
X5.1181Y-2.7756
X5.9744Y-4.3307
X6.1516Y-2.815
X6.6437Y-3.1693
X7.5098Y-4.3504
X8.1988Y-3.6811
M30
