%TF.GenerationSoftware,KiCad,Pcbnew,8.0.4*%
%TF.CreationDate,2025-05-05T15:47:41-07:00*%
%TF.ProjectId,gabesam board,67616265-7361-46d2-9062-6f6172642e6b,rev?*%
%TF.SameCoordinates,Original*%
%TF.FileFunction,Copper,L2,Bot*%
%TF.FilePolarity,Positive*%
%FSLAX46Y46*%
G04 Gerber Fmt 4.6, Leading zero omitted, Abs format (unit mm)*
G04 Created by KiCad (PCBNEW 8.0.4) date 2025-05-05 15:47:41*
%MOMM*%
%LPD*%
G01*
G04 APERTURE LIST*
%TA.AperFunction,ComponentPad*%
%ADD10C,1.800000*%
%TD*%
%TA.AperFunction,ViaPad*%
%ADD11C,0.600000*%
%TD*%
%TA.AperFunction,Conductor*%
%ADD12C,0.200000*%
%TD*%
G04 APERTURE END LIST*
D10*
%TO.P,V_Testpoint1,1,1*%
%TO.N,Net-(U1-VIN)*%
X130000000Y-70500000D03*
%TD*%
%TO.P,SHUTDOWN1,1,1*%
%TO.N,Net-(U1-RT)*%
X125000000Y-98000000D03*
%TD*%
%TO.P,V_IN1,1,1*%
%TO.N,Net-(U1-VIN)*%
X156250000Y-71500000D03*
%TD*%
%TO.P,V_SW1,1,1*%
%TO.N,Net-(D1-K)*%
X168750000Y-80500000D03*
%TD*%
%TO.P,GND1,1,1*%
%TO.N,GND*%
X151750000Y-110000000D03*
%TD*%
%TO.P,V_OUT1,1,1*%
%TO.N,Net-(C1-Pad2)*%
X208250000Y-93500000D03*
%TD*%
%TO.P,GND2,1,1*%
%TO.N,GND*%
X190750000Y-110500000D03*
%TD*%
D11*
%TO.N,Net-(C1-Pad2)*%
X179500000Y-104000000D03*
X175000000Y-104000000D03*
%TO.N,GND*%
X143250000Y-89500000D03*
X143250000Y-90500000D03*
X138250000Y-95000000D03*
X144250000Y-89500000D03*
X137500000Y-105500000D03*
X188750000Y-104500000D03*
X144250000Y-90500000D03*
X138250000Y-92500000D03*
X156500000Y-100500000D03*
%TO.N,Net-(Q1-S)*%
X158250000Y-95000000D03*
X154750000Y-95000000D03*
%TO.N,Net-(Q1-G)*%
X164250000Y-93500000D03*
X154750000Y-93500000D03*
%TD*%
D12*
%TO.N,Net-(C1-Pad2)*%
X175000000Y-104000000D02*
X179500000Y-104000000D01*
%TO.N,Net-(Q1-S)*%
X154750000Y-95000000D02*
X158250000Y-95000000D01*
%TO.N,Net-(Q1-G)*%
X154750000Y-93500000D02*
X164250000Y-93500000D01*
%TD*%
%TA.AperFunction,Conductor*%
%TO.N,GND*%
G36*
X144693039Y-89019685D02*
G01*
X144738794Y-89072489D01*
X144750000Y-89124000D01*
X144750000Y-92000001D01*
X150256855Y-93258709D01*
X153403631Y-93977972D01*
X153464598Y-94012099D01*
X153497437Y-94073771D01*
X153500000Y-94098854D01*
X153500000Y-98500000D01*
X157749153Y-98539050D01*
X157749647Y-98539057D01*
X187179041Y-98998891D01*
X187245765Y-99019621D01*
X187284987Y-99061742D01*
X195643034Y-113811238D01*
X195658959Y-113879269D01*
X195635576Y-113945110D01*
X195580309Y-113987857D01*
X195533067Y-113996354D01*
X136371916Y-113002049D01*
X136305217Y-112981241D01*
X136260356Y-112927676D01*
X136250000Y-112878067D01*
X136250000Y-109999994D01*
X150345202Y-109999994D01*
X150345202Y-110000005D01*
X150364361Y-110231218D01*
X150421317Y-110456135D01*
X150514515Y-110668606D01*
X150598812Y-110797633D01*
X151307861Y-110088584D01*
X151330667Y-110173694D01*
X151389910Y-110276306D01*
X151473694Y-110360090D01*
X151576306Y-110419333D01*
X151661414Y-110442138D01*
X150951201Y-111152351D01*
X150981649Y-111176050D01*
X151185697Y-111286476D01*
X151185706Y-111286479D01*
X151405139Y-111361811D01*
X151633993Y-111400000D01*
X151866007Y-111400000D01*
X152094860Y-111361811D01*
X152314293Y-111286479D01*
X152314301Y-111286476D01*
X152518355Y-111176047D01*
X152548797Y-111152351D01*
X152548798Y-111152350D01*
X151838585Y-110442137D01*
X151923694Y-110419333D01*
X152026306Y-110360090D01*
X152110090Y-110276306D01*
X152169333Y-110173694D01*
X152192138Y-110088585D01*
X152901186Y-110797633D01*
X152985482Y-110668611D01*
X153059444Y-110499994D01*
X189345202Y-110499994D01*
X189345202Y-110500005D01*
X189364361Y-110731218D01*
X189421317Y-110956135D01*
X189514515Y-111168606D01*
X189598812Y-111297633D01*
X190307861Y-110588584D01*
X190330667Y-110673694D01*
X190389910Y-110776306D01*
X190473694Y-110860090D01*
X190576306Y-110919333D01*
X190661414Y-110942138D01*
X189951201Y-111652351D01*
X189981649Y-111676050D01*
X190185697Y-111786476D01*
X190185706Y-111786479D01*
X190405139Y-111861811D01*
X190633993Y-111900000D01*
X190866007Y-111900000D01*
X191094860Y-111861811D01*
X191314293Y-111786479D01*
X191314301Y-111786476D01*
X191518355Y-111676047D01*
X191548797Y-111652351D01*
X191548798Y-111652350D01*
X190838585Y-110942137D01*
X190923694Y-110919333D01*
X191026306Y-110860090D01*
X191110090Y-110776306D01*
X191169333Y-110673694D01*
X191192138Y-110588585D01*
X191901186Y-111297633D01*
X191985482Y-111168611D01*
X192078682Y-110956135D01*
X192135638Y-110731218D01*
X192154798Y-110500005D01*
X192154798Y-110499994D01*
X192135638Y-110268781D01*
X192078682Y-110043864D01*
X191985484Y-109831393D01*
X191901186Y-109702365D01*
X191192137Y-110411414D01*
X191169333Y-110326306D01*
X191110090Y-110223694D01*
X191026306Y-110139910D01*
X190923694Y-110080667D01*
X190838584Y-110057861D01*
X191548797Y-109347647D01*
X191548797Y-109347645D01*
X191518360Y-109323955D01*
X191518354Y-109323951D01*
X191314302Y-109213523D01*
X191314293Y-109213520D01*
X191094860Y-109138188D01*
X190866007Y-109100000D01*
X190633993Y-109100000D01*
X190405139Y-109138188D01*
X190185706Y-109213520D01*
X190185697Y-109213523D01*
X189981650Y-109323949D01*
X189951200Y-109347647D01*
X190661415Y-110057861D01*
X190576306Y-110080667D01*
X190473694Y-110139910D01*
X190389910Y-110223694D01*
X190330667Y-110326306D01*
X190307861Y-110411415D01*
X189598811Y-109702365D01*
X189514516Y-109831390D01*
X189421317Y-110043864D01*
X189364361Y-110268781D01*
X189345202Y-110499994D01*
X153059444Y-110499994D01*
X153078682Y-110456135D01*
X153135638Y-110231218D01*
X153154798Y-110000005D01*
X153154798Y-109999994D01*
X153135638Y-109768781D01*
X153078682Y-109543864D01*
X152985484Y-109331393D01*
X152901186Y-109202365D01*
X152192137Y-109911414D01*
X152169333Y-109826306D01*
X152110090Y-109723694D01*
X152026306Y-109639910D01*
X151923694Y-109580667D01*
X151838584Y-109557861D01*
X152548797Y-108847647D01*
X152548797Y-108847645D01*
X152518360Y-108823955D01*
X152518354Y-108823951D01*
X152314302Y-108713523D01*
X152314293Y-108713520D01*
X152094860Y-108638188D01*
X151866007Y-108600000D01*
X151633993Y-108600000D01*
X151405139Y-108638188D01*
X151185706Y-108713520D01*
X151185697Y-108713523D01*
X150981650Y-108823949D01*
X150951200Y-108847647D01*
X151661415Y-109557861D01*
X151576306Y-109580667D01*
X151473694Y-109639910D01*
X151389910Y-109723694D01*
X151330667Y-109826306D01*
X151307861Y-109911415D01*
X150598811Y-109202365D01*
X150514516Y-109331390D01*
X150421317Y-109543864D01*
X150364361Y-109768781D01*
X150345202Y-109999994D01*
X136250000Y-109999994D01*
X136250000Y-103999996D01*
X174194435Y-103999996D01*
X174194435Y-104000003D01*
X174214630Y-104179249D01*
X174214631Y-104179254D01*
X174274211Y-104349523D01*
X174370184Y-104502262D01*
X174497738Y-104629816D01*
X174650478Y-104725789D01*
X174820745Y-104785368D01*
X174820750Y-104785369D01*
X174999996Y-104805565D01*
X175000000Y-104805565D01*
X175000004Y-104805565D01*
X175179249Y-104785369D01*
X175179252Y-104785368D01*
X175179255Y-104785368D01*
X175349522Y-104725789D01*
X175502262Y-104629816D01*
X175502267Y-104629810D01*
X175505097Y-104627555D01*
X175507275Y-104626665D01*
X175508158Y-104626111D01*
X175508255Y-104626265D01*
X175569783Y-104601145D01*
X175582412Y-104600500D01*
X178917588Y-104600500D01*
X178984627Y-104620185D01*
X178994903Y-104627555D01*
X178997736Y-104629814D01*
X178997738Y-104629816D01*
X179150478Y-104725789D01*
X179320745Y-104785368D01*
X179320750Y-104785369D01*
X179499996Y-104805565D01*
X179500000Y-104805565D01*
X179500004Y-104805565D01*
X179679249Y-104785369D01*
X179679252Y-104785368D01*
X179679255Y-104785368D01*
X179849522Y-104725789D01*
X180002262Y-104629816D01*
X180129816Y-104502262D01*
X180225789Y-104349522D01*
X180285368Y-104179255D01*
X180305565Y-104000000D01*
X180285368Y-103820745D01*
X180225789Y-103650478D01*
X180129816Y-103497738D01*
X180002262Y-103370184D01*
X179849523Y-103274211D01*
X179679254Y-103214631D01*
X179679249Y-103214630D01*
X179500004Y-103194435D01*
X179499996Y-103194435D01*
X179320750Y-103214630D01*
X179320745Y-103214631D01*
X179150476Y-103274211D01*
X178997736Y-103370185D01*
X178994903Y-103372445D01*
X178992724Y-103373334D01*
X178991842Y-103373889D01*
X178991744Y-103373734D01*
X178930217Y-103398855D01*
X178917588Y-103399500D01*
X175582412Y-103399500D01*
X175515373Y-103379815D01*
X175505097Y-103372445D01*
X175502263Y-103370185D01*
X175502262Y-103370184D01*
X175445496Y-103334515D01*
X175349523Y-103274211D01*
X175179254Y-103214631D01*
X175179249Y-103214630D01*
X175000004Y-103194435D01*
X174999996Y-103194435D01*
X174820750Y-103214630D01*
X174820745Y-103214631D01*
X174650476Y-103274211D01*
X174497737Y-103370184D01*
X174370184Y-103497737D01*
X174274211Y-103650476D01*
X174214631Y-103820745D01*
X174214630Y-103820750D01*
X174194435Y-103999996D01*
X136250000Y-103999996D01*
X136250000Y-92124000D01*
X136269685Y-92056961D01*
X136322489Y-92011206D01*
X136374000Y-92000000D01*
X142750000Y-92000000D01*
X142750000Y-89124000D01*
X142769685Y-89056961D01*
X142822489Y-89011206D01*
X142874000Y-89000000D01*
X144626000Y-89000000D01*
X144693039Y-89019685D01*
G37*
%TD.AperFunction*%
%TD*%
M02*
