%
M48
M72
T01C0.0360
T02C0.0394
T03C0.0531
%
T01
X8808Y12040
X8808Y13040
T02
X1300Y1300
X1300Y2300
X1300Y3300
X1300Y4300
X1300Y5300
X1300Y6300
X1300Y7300
X1300Y8300
X1300Y9300
X1300Y10300
X1300Y11300
X1300Y12300
X7300Y12300
X7300Y11300
X7300Y10300
X7300Y9300
X7300Y8300
X7300Y7300
X7300Y6300
X7300Y5300
X7300Y4300
X7300Y3300
X7300Y2300
X7300Y1300
T03
X10133Y2181
X10133Y4149
X10133Y6118
X10133Y8086
X10133Y10055
M30
