G04 EAGLE Gerber RS-274X export*
G75*
%MOMM*%
%FSLAX34Y34*%
%LPD*%
%INBottom Copper*%
%IPPOS*%
%AMOC8*
5,1,8,0,0,1.08239X$1,22.5*%
G01*
%ADD10C,4.191000*%
%ADD11C,1.879600*%
%ADD12C,3.500000*%
%ADD13C,6.096000*%
%ADD14C,1.778000*%
%ADD15C,1.355600*%
%ADD16C,1.676400*%
%ADD17C,2.641600*%
%ADD18C,0.812800*%
%ADD19C,0.805600*%
%ADD20C,0.304800*%
%ADD21C,0.254000*%
%ADD22C,0.762000*%
%ADD23C,0.406400*%
%ADD24C,0.508000*%

G36*
X1112724Y3954D02*
X1112724Y3954D01*
X1112782Y3953D01*
X1112864Y3974D01*
X1112949Y3986D01*
X1113001Y4009D01*
X1113057Y4024D01*
X1113130Y4067D01*
X1113208Y4102D01*
X1113252Y4139D01*
X1113302Y4168D01*
X1113360Y4230D01*
X1113425Y4285D01*
X1113457Y4333D01*
X1113497Y4375D01*
X1113536Y4451D01*
X1113583Y4522D01*
X1113601Y4576D01*
X1113627Y4628D01*
X1113639Y4696D01*
X1113669Y4792D01*
X1113672Y4891D01*
X1113684Y4959D01*
X1116181Y886576D01*
X1116173Y886636D01*
X1116174Y886696D01*
X1116153Y886776D01*
X1116142Y886857D01*
X1116117Y886913D01*
X1116102Y886971D01*
X1116060Y887042D01*
X1116026Y887117D01*
X1115987Y887163D01*
X1115957Y887215D01*
X1115896Y887271D01*
X1115843Y887334D01*
X1115793Y887368D01*
X1115749Y887409D01*
X1115676Y887447D01*
X1115607Y887493D01*
X1115550Y887511D01*
X1115496Y887539D01*
X1115429Y887550D01*
X1115336Y887579D01*
X1115234Y887582D01*
X1115165Y887594D01*
X634999Y887049D01*
X634942Y887041D01*
X634884Y887043D01*
X634802Y887021D01*
X634717Y887009D01*
X634665Y886985D01*
X634609Y886971D01*
X634536Y886927D01*
X634458Y886893D01*
X634414Y886855D01*
X634364Y886826D01*
X634306Y886764D01*
X634241Y886709D01*
X634209Y886660D01*
X634170Y886618D01*
X634131Y886543D01*
X634084Y886472D01*
X634067Y886417D01*
X634040Y886365D01*
X634029Y886297D01*
X633999Y886201D01*
X633996Y886102D01*
X633985Y886034D01*
X633985Y499856D01*
X633989Y499827D01*
X633986Y499797D01*
X634009Y499686D01*
X634025Y499574D01*
X634037Y499548D01*
X634042Y499519D01*
X634095Y499418D01*
X634141Y499315D01*
X634160Y499292D01*
X634173Y499266D01*
X634251Y499184D01*
X634325Y499098D01*
X634349Y499082D01*
X634369Y499060D01*
X634467Y499003D01*
X634561Y498940D01*
X634589Y498931D01*
X634614Y498917D01*
X634724Y498889D01*
X634832Y498854D01*
X634862Y498854D01*
X634890Y498846D01*
X635003Y498850D01*
X635116Y498847D01*
X635145Y498855D01*
X635174Y498856D01*
X635282Y498890D01*
X635391Y498919D01*
X635417Y498934D01*
X635445Y498943D01*
X635508Y498989D01*
X635636Y499064D01*
X635679Y499110D01*
X635718Y499138D01*
X638560Y501980D01*
X646963Y505461D01*
X656057Y505461D01*
X664460Y501980D01*
X670890Y495550D01*
X674371Y487147D01*
X674371Y478053D01*
X670890Y469650D01*
X664460Y463220D01*
X656057Y459739D01*
X646963Y459739D01*
X638560Y463220D01*
X635718Y466062D01*
X635694Y466080D01*
X635676Y466102D01*
X635581Y466165D01*
X635491Y466233D01*
X635463Y466243D01*
X635439Y466260D01*
X635331Y466294D01*
X635225Y466334D01*
X635196Y466337D01*
X635168Y466346D01*
X635054Y466348D01*
X634942Y466358D01*
X634913Y466352D01*
X634884Y466353D01*
X634774Y466324D01*
X634663Y466302D01*
X634637Y466288D01*
X634609Y466281D01*
X634511Y466223D01*
X634411Y466171D01*
X634389Y466151D01*
X634364Y466136D01*
X634287Y466053D01*
X634205Y465975D01*
X634190Y465950D01*
X634170Y465928D01*
X634118Y465828D01*
X634061Y465730D01*
X634054Y465701D01*
X634040Y465675D01*
X634027Y465598D01*
X633991Y465454D01*
X633993Y465392D01*
X633985Y465344D01*
X633985Y347725D01*
X482600Y347725D01*
X482542Y347717D01*
X482484Y347719D01*
X482402Y347697D01*
X482319Y347685D01*
X482265Y347662D01*
X482209Y347647D01*
X482136Y347604D01*
X482059Y347569D01*
X482014Y347531D01*
X481964Y347502D01*
X481906Y347440D01*
X481842Y347386D01*
X481810Y347337D01*
X481770Y347294D01*
X481731Y347219D01*
X481685Y347149D01*
X481667Y347093D01*
X481640Y347041D01*
X481629Y346973D01*
X481599Y346878D01*
X481596Y346778D01*
X481585Y346710D01*
X481585Y224282D01*
X481593Y224224D01*
X481591Y224166D01*
X481613Y224084D01*
X481625Y224000D01*
X481649Y223947D01*
X481663Y223891D01*
X481706Y223818D01*
X481741Y223741D01*
X481779Y223696D01*
X481809Y223646D01*
X481870Y223588D01*
X481925Y223524D01*
X481973Y223492D01*
X482016Y223452D01*
X482091Y223413D01*
X482161Y223366D01*
X482217Y223349D01*
X482269Y223322D01*
X482337Y223311D01*
X482432Y223281D01*
X482532Y223278D01*
X482600Y223267D01*
X567066Y223267D01*
X567153Y223279D01*
X567240Y223282D01*
X567293Y223299D01*
X567348Y223307D01*
X567428Y223342D01*
X567511Y223369D01*
X567550Y223397D01*
X567607Y223423D01*
X567720Y223519D01*
X567784Y223564D01*
X662737Y318517D01*
X672033Y318517D01*
X676054Y314496D01*
X676124Y314444D01*
X676188Y314384D01*
X676237Y314358D01*
X676281Y314325D01*
X676363Y314294D01*
X676441Y314254D01*
X676488Y314246D01*
X676547Y314224D01*
X676694Y314212D01*
X676772Y314199D01*
X678022Y314199D01*
X680076Y313348D01*
X681648Y311776D01*
X682499Y309722D01*
X682499Y307498D01*
X681648Y305444D01*
X680764Y304560D01*
X680712Y304491D01*
X680652Y304427D01*
X680626Y304377D01*
X680593Y304333D01*
X680562Y304251D01*
X680522Y304174D01*
X680514Y304126D01*
X680492Y304068D01*
X680480Y303920D01*
X680467Y303843D01*
X680467Y269037D01*
X676192Y264762D01*
X676140Y264692D01*
X676080Y264628D01*
X676054Y264579D01*
X676021Y264535D01*
X675990Y264453D01*
X675950Y264375D01*
X675942Y264328D01*
X675920Y264269D01*
X675908Y264122D01*
X675895Y264044D01*
X675895Y263099D01*
X675083Y261138D01*
X673582Y259637D01*
X671621Y258825D01*
X669499Y258825D01*
X667538Y259637D01*
X666037Y261138D01*
X665225Y263099D01*
X665225Y265221D01*
X666037Y267182D01*
X667538Y268683D01*
X669499Y269495D01*
X670444Y269495D01*
X670531Y269507D01*
X670618Y269510D01*
X670671Y269527D01*
X670726Y269535D01*
X670806Y269570D01*
X670889Y269597D01*
X670928Y269625D01*
X670985Y269651D01*
X671098Y269747D01*
X671162Y269792D01*
X673056Y271686D01*
X673108Y271756D01*
X673168Y271820D01*
X673194Y271869D01*
X673227Y271913D01*
X673258Y271995D01*
X673298Y272073D01*
X673306Y272120D01*
X673328Y272179D01*
X673340Y272326D01*
X673353Y272404D01*
X673353Y303843D01*
X673341Y303929D01*
X673338Y304017D01*
X673321Y304069D01*
X673313Y304124D01*
X673278Y304204D01*
X673251Y304287D01*
X673223Y304326D01*
X673197Y304383D01*
X673101Y304497D01*
X673056Y304560D01*
X672172Y305444D01*
X671321Y307498D01*
X671321Y308748D01*
X671309Y308835D01*
X671306Y308922D01*
X671289Y308975D01*
X671281Y309030D01*
X671246Y309110D01*
X671219Y309193D01*
X671191Y309232D01*
X671165Y309289D01*
X671069Y309402D01*
X671024Y309466D01*
X669384Y311106D01*
X669314Y311158D01*
X669250Y311218D01*
X669201Y311244D01*
X669157Y311277D01*
X669075Y311308D01*
X668997Y311348D01*
X668950Y311356D01*
X668891Y311378D01*
X668744Y311390D01*
X668666Y311403D01*
X666104Y311403D01*
X666017Y311391D01*
X665930Y311388D01*
X665877Y311371D01*
X665822Y311363D01*
X665742Y311328D01*
X665659Y311301D01*
X665620Y311273D01*
X665563Y311247D01*
X665450Y311151D01*
X665386Y311106D01*
X570433Y216153D01*
X482600Y216153D01*
X482542Y216145D01*
X482484Y216147D01*
X482402Y216125D01*
X482319Y216113D01*
X482265Y216090D01*
X482209Y216075D01*
X482136Y216032D01*
X482059Y215997D01*
X482014Y215959D01*
X481964Y215930D01*
X481906Y215868D01*
X481842Y215814D01*
X481810Y215765D01*
X481770Y215722D01*
X481731Y215647D01*
X481685Y215577D01*
X481667Y215521D01*
X481640Y215469D01*
X481629Y215401D01*
X481599Y215306D01*
X481596Y215206D01*
X481585Y215138D01*
X481585Y200405D01*
X140970Y200405D01*
X140912Y200397D01*
X140854Y200399D01*
X140772Y200377D01*
X140689Y200365D01*
X140635Y200342D01*
X140579Y200327D01*
X140506Y200284D01*
X140429Y200249D01*
X140384Y200211D01*
X140334Y200182D01*
X140276Y200120D01*
X140212Y200066D01*
X140180Y200017D01*
X140140Y199974D01*
X140101Y199899D01*
X140055Y199829D01*
X140037Y199773D01*
X140010Y199721D01*
X139999Y199653D01*
X139969Y199558D01*
X139966Y199458D01*
X139955Y199390D01*
X139955Y118888D01*
X139974Y118755D01*
X139991Y118620D01*
X139994Y118613D01*
X139995Y118607D01*
X140050Y118484D01*
X140104Y118359D01*
X140108Y118353D01*
X140111Y118347D01*
X140198Y118244D01*
X140284Y118139D01*
X140290Y118135D01*
X140295Y118130D01*
X140407Y118055D01*
X140519Y117979D01*
X140525Y117976D01*
X140531Y117973D01*
X140661Y117932D01*
X140789Y117889D01*
X140796Y117889D01*
X140802Y117887D01*
X140937Y117883D01*
X141073Y117878D01*
X141079Y117880D01*
X141086Y117879D01*
X141216Y117913D01*
X141349Y117946D01*
X141355Y117950D01*
X141361Y117951D01*
X141477Y118020D01*
X141595Y118088D01*
X141600Y118093D01*
X141606Y118097D01*
X141699Y118196D01*
X141792Y118293D01*
X141795Y118298D01*
X141800Y118304D01*
X141930Y118557D01*
X141933Y118576D01*
X141942Y118593D01*
X142862Y121628D01*
X144104Y124625D01*
X145633Y127486D01*
X147436Y130184D01*
X149494Y132692D01*
X151788Y134986D01*
X154296Y137044D01*
X156994Y138847D01*
X159855Y140376D01*
X162852Y141618D01*
X165957Y142560D01*
X169139Y143193D01*
X171959Y143470D01*
X171959Y111506D01*
X171967Y111448D01*
X171965Y111390D01*
X171987Y111308D01*
X171999Y111225D01*
X172023Y111171D01*
X172037Y111115D01*
X172080Y111042D01*
X172115Y110965D01*
X172153Y110921D01*
X172183Y110870D01*
X172244Y110813D01*
X172299Y110748D01*
X172347Y110716D01*
X172390Y110676D01*
X172465Y110637D01*
X172535Y110591D01*
X172591Y110573D01*
X172643Y110546D01*
X172711Y110535D01*
X172806Y110505D01*
X172906Y110502D01*
X172974Y110491D01*
X173991Y110491D01*
X173991Y110489D01*
X172974Y110489D01*
X172916Y110481D01*
X172858Y110482D01*
X172776Y110461D01*
X172693Y110449D01*
X172639Y110425D01*
X172583Y110411D01*
X172510Y110368D01*
X172433Y110333D01*
X172388Y110295D01*
X172338Y110265D01*
X172280Y110204D01*
X172216Y110149D01*
X172184Y110101D01*
X172144Y110058D01*
X172105Y109983D01*
X172059Y109913D01*
X172041Y109857D01*
X172014Y109805D01*
X172003Y109737D01*
X171973Y109642D01*
X171970Y109542D01*
X171959Y109474D01*
X171959Y77510D01*
X169139Y77787D01*
X165957Y78420D01*
X162852Y79362D01*
X159855Y80604D01*
X156994Y82133D01*
X154296Y83936D01*
X151788Y85994D01*
X149494Y88288D01*
X147436Y90796D01*
X145633Y93494D01*
X144104Y96355D01*
X142862Y99352D01*
X141942Y102387D01*
X141885Y102509D01*
X141829Y102633D01*
X141825Y102638D01*
X141822Y102645D01*
X141733Y102747D01*
X141646Y102850D01*
X141640Y102854D01*
X141635Y102859D01*
X141522Y102932D01*
X141409Y103007D01*
X141402Y103010D01*
X141396Y103013D01*
X141267Y103052D01*
X141138Y103093D01*
X141131Y103093D01*
X141124Y103095D01*
X140989Y103097D01*
X140854Y103101D01*
X140847Y103099D01*
X140840Y103099D01*
X140709Y103063D01*
X140579Y103029D01*
X140573Y103025D01*
X140566Y103023D01*
X140449Y102952D01*
X140334Y102883D01*
X140329Y102878D01*
X140324Y102875D01*
X140232Y102774D01*
X140140Y102676D01*
X140137Y102670D01*
X140132Y102665D01*
X140072Y102544D01*
X140010Y102423D01*
X140009Y102417D01*
X140006Y102410D01*
X139955Y102130D01*
X139958Y102111D01*
X139955Y102092D01*
X139955Y6064D01*
X139963Y6007D01*
X139961Y5949D01*
X139983Y5867D01*
X139995Y5783D01*
X140018Y5730D01*
X140033Y5674D01*
X140076Y5601D01*
X140111Y5524D01*
X140148Y5479D01*
X140178Y5430D01*
X140240Y5371D01*
X140295Y5307D01*
X140343Y5274D01*
X140385Y5235D01*
X140460Y5196D01*
X140531Y5149D01*
X140586Y5131D01*
X140638Y5105D01*
X140706Y5094D01*
X140802Y5063D01*
X140901Y5061D01*
X140969Y5049D01*
X652779Y4468D01*
X1112667Y3946D01*
X1112724Y3954D01*
G37*
G36*
X401519Y203720D02*
X401519Y203720D01*
X401590Y203722D01*
X401639Y203740D01*
X401690Y203749D01*
X401754Y203782D01*
X401821Y203807D01*
X401862Y203839D01*
X401908Y203864D01*
X401957Y203916D01*
X402013Y203961D01*
X402041Y204004D01*
X402077Y204042D01*
X402107Y204107D01*
X402146Y204168D01*
X402159Y204218D01*
X402181Y204265D01*
X402189Y204336D01*
X402206Y204406D01*
X402202Y204458D01*
X402208Y204509D01*
X402193Y204580D01*
X402187Y204651D01*
X402167Y204699D01*
X402156Y204750D01*
X402119Y204811D01*
X402091Y204878D01*
X402062Y204913D01*
X400811Y207933D01*
X400811Y211167D01*
X402049Y214155D01*
X404335Y216441D01*
X407323Y217679D01*
X408131Y217679D01*
X408221Y217693D01*
X408312Y217701D01*
X408342Y217713D01*
X408374Y217718D01*
X408455Y217761D01*
X408539Y217797D01*
X408571Y217823D01*
X408591Y217834D01*
X408614Y217857D01*
X408670Y217902D01*
X415646Y224879D01*
X417887Y225807D01*
X476758Y225807D01*
X476778Y225810D01*
X476797Y225808D01*
X476899Y225830D01*
X477001Y225846D01*
X477018Y225856D01*
X477038Y225860D01*
X477127Y225913D01*
X477218Y225962D01*
X477232Y225976D01*
X477249Y225986D01*
X477316Y226065D01*
X477388Y226140D01*
X477396Y226158D01*
X477409Y226173D01*
X477448Y226269D01*
X477491Y226363D01*
X477493Y226383D01*
X477501Y226401D01*
X477519Y226568D01*
X477519Y348815D01*
X478058Y349354D01*
X478104Y349417D01*
X478126Y349441D01*
X478131Y349450D01*
X478171Y349497D01*
X478183Y349527D01*
X478202Y349553D01*
X478229Y349640D01*
X478263Y349725D01*
X478267Y349766D01*
X478270Y349776D01*
X478329Y349781D01*
X478359Y349793D01*
X478391Y349799D01*
X478472Y349841D01*
X478556Y349877D01*
X478588Y349903D01*
X478608Y349914D01*
X478631Y349937D01*
X478686Y349982D01*
X480495Y351791D01*
X629158Y351791D01*
X629178Y351794D01*
X629197Y351792D01*
X629299Y351814D01*
X629401Y351830D01*
X629418Y351840D01*
X629438Y351844D01*
X629527Y351897D01*
X629618Y351946D01*
X629632Y351960D01*
X629649Y351970D01*
X629716Y352049D01*
X629788Y352124D01*
X629796Y352142D01*
X629809Y352157D01*
X629848Y352253D01*
X629891Y352347D01*
X629893Y352367D01*
X629901Y352385D01*
X629919Y352552D01*
X629919Y472547D01*
X629901Y472660D01*
X629885Y472774D01*
X629881Y472783D01*
X629880Y472790D01*
X629869Y472809D01*
X629817Y472927D01*
X628969Y474396D01*
X627523Y482600D01*
X628969Y490804D01*
X629817Y492273D01*
X629858Y492379D01*
X629901Y492486D01*
X629902Y492497D01*
X629904Y492503D01*
X629905Y492525D01*
X629919Y492653D01*
X629919Y886281D01*
X629916Y886302D01*
X629918Y886322D01*
X629896Y886423D01*
X629880Y886524D01*
X629870Y886542D01*
X629866Y886562D01*
X629812Y886651D01*
X629764Y886742D01*
X629750Y886756D01*
X629739Y886773D01*
X629661Y886840D01*
X629586Y886911D01*
X629568Y886920D01*
X629552Y886933D01*
X629456Y886971D01*
X629363Y887015D01*
X629343Y887017D01*
X629324Y887024D01*
X629157Y887043D01*
X10159Y886341D01*
X10140Y886338D01*
X10121Y886340D01*
X10019Y886318D01*
X9916Y886301D01*
X9899Y886292D01*
X9880Y886288D01*
X9791Y886234D01*
X9699Y886186D01*
X9686Y886171D01*
X9669Y886161D01*
X9601Y886082D01*
X9530Y886007D01*
X9522Y885989D01*
X9509Y885975D01*
X9470Y885878D01*
X9427Y885784D01*
X9425Y885765D01*
X9417Y885746D01*
X9399Y885580D01*
X9399Y610870D01*
X9402Y610850D01*
X9400Y610831D01*
X9422Y610729D01*
X9439Y610627D01*
X9448Y610610D01*
X9452Y610590D01*
X9505Y610501D01*
X9554Y610410D01*
X9568Y610396D01*
X9578Y610379D01*
X9657Y610312D01*
X9732Y610241D01*
X9750Y610232D01*
X9765Y610219D01*
X9861Y610180D01*
X9955Y610137D01*
X9975Y610135D01*
X9993Y610127D01*
X10160Y610109D01*
X137669Y610109D01*
X137669Y204470D01*
X137672Y204450D01*
X137670Y204431D01*
X137692Y204329D01*
X137709Y204227D01*
X137718Y204210D01*
X137722Y204190D01*
X137775Y204101D01*
X137824Y204010D01*
X137838Y203996D01*
X137848Y203979D01*
X137927Y203912D01*
X138002Y203841D01*
X138020Y203832D01*
X138035Y203819D01*
X138131Y203780D01*
X138225Y203737D01*
X138245Y203735D01*
X138263Y203727D01*
X138430Y203709D01*
X401448Y203709D01*
X401519Y203720D01*
G37*
G36*
X132137Y5067D02*
X132137Y5067D01*
X132196Y5066D01*
X132277Y5087D01*
X132360Y5099D01*
X132414Y5123D01*
X132471Y5138D01*
X132543Y5180D01*
X132620Y5215D01*
X132665Y5253D01*
X132716Y5283D01*
X132773Y5344D01*
X132837Y5398D01*
X132870Y5447D01*
X132910Y5490D01*
X132948Y5565D01*
X132995Y5635D01*
X133013Y5691D01*
X133040Y5743D01*
X133051Y5811D01*
X133081Y5905D01*
X133084Y6006D01*
X133095Y6074D01*
X133095Y92943D01*
X133077Y93070D01*
X133063Y93198D01*
X133057Y93210D01*
X133055Y93224D01*
X133003Y93341D01*
X132954Y93460D01*
X132945Y93471D01*
X132939Y93484D01*
X132856Y93582D01*
X132776Y93682D01*
X132764Y93690D01*
X132756Y93701D01*
X132649Y93772D01*
X132544Y93846D01*
X132531Y93850D01*
X132519Y93858D01*
X132396Y93897D01*
X132275Y93939D01*
X132261Y93940D01*
X132248Y93944D01*
X132119Y93947D01*
X131991Y93954D01*
X131978Y93951D01*
X131964Y93951D01*
X131840Y93919D01*
X131714Y93890D01*
X131702Y93883D01*
X131689Y93879D01*
X131579Y93814D01*
X131466Y93751D01*
X131457Y93742D01*
X131444Y93734D01*
X131250Y93527D01*
X131244Y93515D01*
X131236Y93507D01*
X129424Y90796D01*
X127366Y88288D01*
X125072Y85994D01*
X122564Y83936D01*
X119866Y82133D01*
X117005Y80604D01*
X114008Y79362D01*
X110903Y78420D01*
X107721Y77787D01*
X104901Y77510D01*
X104901Y109474D01*
X104893Y109532D01*
X104895Y109590D01*
X104873Y109672D01*
X104861Y109755D01*
X104837Y109809D01*
X104823Y109865D01*
X104780Y109938D01*
X104745Y110015D01*
X104707Y110059D01*
X104677Y110110D01*
X104616Y110167D01*
X104561Y110232D01*
X104513Y110264D01*
X104470Y110304D01*
X104395Y110343D01*
X104325Y110389D01*
X104269Y110407D01*
X104217Y110434D01*
X104149Y110445D01*
X104054Y110475D01*
X103954Y110478D01*
X103886Y110489D01*
X102869Y110489D01*
X102869Y110491D01*
X103886Y110491D01*
X103944Y110499D01*
X104002Y110498D01*
X104084Y110519D01*
X104167Y110531D01*
X104221Y110555D01*
X104277Y110569D01*
X104350Y110612D01*
X104427Y110647D01*
X104472Y110685D01*
X104522Y110715D01*
X104580Y110776D01*
X104644Y110831D01*
X104676Y110879D01*
X104716Y110922D01*
X104755Y110997D01*
X104801Y111067D01*
X104819Y111123D01*
X104846Y111175D01*
X104857Y111243D01*
X104887Y111338D01*
X104890Y111438D01*
X104901Y111506D01*
X104901Y143470D01*
X107721Y143193D01*
X110903Y142560D01*
X114008Y141618D01*
X117005Y140376D01*
X119866Y138847D01*
X122564Y137044D01*
X125072Y134986D01*
X127366Y132692D01*
X129424Y130184D01*
X131236Y127473D01*
X131322Y127377D01*
X131405Y127279D01*
X131416Y127272D01*
X131425Y127261D01*
X131534Y127193D01*
X131641Y127122D01*
X131654Y127118D01*
X131666Y127110D01*
X131789Y127075D01*
X131912Y127036D01*
X131926Y127036D01*
X131939Y127032D01*
X132068Y127032D01*
X132196Y127029D01*
X132210Y127032D01*
X132224Y127032D01*
X132347Y127068D01*
X132471Y127101D01*
X132483Y127108D01*
X132497Y127112D01*
X132605Y127180D01*
X132716Y127246D01*
X132725Y127256D01*
X132737Y127263D01*
X132822Y127359D01*
X132910Y127453D01*
X132917Y127466D01*
X132926Y127476D01*
X132981Y127592D01*
X133040Y127706D01*
X133042Y127719D01*
X133048Y127732D01*
X133095Y128013D01*
X133093Y128026D01*
X133095Y128037D01*
X133095Y605790D01*
X133087Y605848D01*
X133089Y605906D01*
X133067Y605988D01*
X133055Y606072D01*
X133032Y606125D01*
X133017Y606181D01*
X132974Y606254D01*
X132939Y606331D01*
X132901Y606376D01*
X132872Y606426D01*
X132810Y606484D01*
X132756Y606548D01*
X132707Y606580D01*
X132664Y606620D01*
X132589Y606659D01*
X132519Y606706D01*
X132463Y606723D01*
X132411Y606750D01*
X132343Y606761D01*
X132248Y606791D01*
X132148Y606794D01*
X132080Y606805D01*
X9625Y606805D01*
X9568Y606797D01*
X9510Y606799D01*
X9428Y606777D01*
X9344Y606765D01*
X9291Y606742D01*
X9235Y606727D01*
X9162Y606684D01*
X9084Y606649D01*
X9040Y606612D01*
X8991Y606582D01*
X8932Y606520D01*
X8867Y606465D01*
X8835Y606417D01*
X8796Y606375D01*
X8757Y606300D01*
X8710Y606229D01*
X8692Y606174D01*
X8666Y606122D01*
X8654Y606054D01*
X8624Y605958D01*
X8621Y605859D01*
X8610Y605791D01*
X7758Y6216D01*
X7766Y6158D01*
X7765Y6099D01*
X7786Y6018D01*
X7798Y5934D01*
X7822Y5881D01*
X7836Y5824D01*
X7879Y5752D01*
X7914Y5675D01*
X7952Y5630D01*
X7981Y5580D01*
X8043Y5522D01*
X8097Y5458D01*
X8146Y5425D01*
X8188Y5385D01*
X8263Y5346D01*
X8333Y5300D01*
X8389Y5282D01*
X8441Y5255D01*
X8509Y5244D01*
X8604Y5213D01*
X8704Y5211D01*
X8772Y5199D01*
X132079Y5059D01*
X132137Y5067D01*
G37*
%LPC*%
G36*
X656755Y229869D02*
X656755Y229869D01*
X654715Y230715D01*
X653153Y232277D01*
X652307Y234317D01*
X652307Y236527D01*
X653153Y238567D01*
X654715Y240129D01*
X656755Y240975D01*
X659040Y240975D01*
X659126Y240987D01*
X659214Y240990D01*
X659267Y241007D01*
X659321Y241015D01*
X659401Y241050D01*
X659484Y241077D01*
X659524Y241105D01*
X659581Y241131D01*
X659694Y241227D01*
X659758Y241272D01*
X663850Y245365D01*
X759152Y245365D01*
X759181Y245369D01*
X759210Y245366D01*
X759321Y245389D01*
X759433Y245405D01*
X759460Y245417D01*
X759489Y245422D01*
X759589Y245474D01*
X759693Y245521D01*
X759715Y245540D01*
X759741Y245553D01*
X759823Y245631D01*
X759910Y245704D01*
X759926Y245729D01*
X759947Y245749D01*
X760005Y245847D01*
X760067Y245941D01*
X760076Y245969D01*
X760091Y245994D01*
X760119Y246104D01*
X760153Y246212D01*
X760154Y246242D01*
X760161Y246270D01*
X760158Y246383D01*
X760160Y246496D01*
X760153Y246525D01*
X760152Y246554D01*
X760117Y246662D01*
X760089Y246771D01*
X760074Y246797D01*
X760065Y246825D01*
X760019Y246888D01*
X759943Y247016D01*
X759898Y247059D01*
X759870Y247098D01*
X730878Y276090D01*
X730808Y276142D01*
X730744Y276202D01*
X730695Y276228D01*
X730651Y276261D01*
X730569Y276292D01*
X730491Y276332D01*
X730443Y276340D01*
X730385Y276362D01*
X730237Y276374D01*
X730160Y276387D01*
X727875Y276387D01*
X725835Y277233D01*
X724273Y278795D01*
X723427Y280835D01*
X723427Y283045D01*
X724273Y285085D01*
X725489Y286302D01*
X725507Y286326D01*
X725529Y286345D01*
X725592Y286439D01*
X725660Y286529D01*
X725671Y286557D01*
X725687Y286581D01*
X725721Y286689D01*
X725761Y286795D01*
X725764Y286824D01*
X725773Y286852D01*
X725776Y286966D01*
X725785Y287078D01*
X725779Y287107D01*
X725780Y287136D01*
X725751Y287246D01*
X725729Y287357D01*
X725716Y287383D01*
X725708Y287411D01*
X725651Y287509D01*
X725598Y287609D01*
X725578Y287631D01*
X725563Y287656D01*
X725481Y287733D01*
X725402Y287815D01*
X725377Y287830D01*
X725356Y287850D01*
X725255Y287902D01*
X725157Y287959D01*
X725129Y287966D01*
X725103Y287980D01*
X725025Y287993D01*
X724882Y288029D01*
X724819Y288027D01*
X724771Y288035D01*
X719219Y288035D01*
X719132Y288023D01*
X719045Y288020D01*
X718992Y288003D01*
X718937Y287995D01*
X718857Y287960D01*
X718774Y287933D01*
X718735Y287905D01*
X718678Y287879D01*
X718564Y287783D01*
X718501Y287738D01*
X716885Y286123D01*
X714845Y285277D01*
X712635Y285277D01*
X710595Y286123D01*
X709033Y287685D01*
X708187Y289725D01*
X708187Y291935D01*
X709042Y293999D01*
X709082Y294059D01*
X709150Y294149D01*
X709161Y294177D01*
X709177Y294201D01*
X709211Y294309D01*
X709251Y294415D01*
X709254Y294444D01*
X709263Y294472D01*
X709266Y294585D01*
X709275Y294698D01*
X709269Y294727D01*
X709270Y294756D01*
X709242Y294866D01*
X709219Y294977D01*
X709206Y295003D01*
X709198Y295031D01*
X709141Y295128D01*
X709088Y295229D01*
X709068Y295251D01*
X709053Y295276D01*
X708970Y295353D01*
X708893Y295435D01*
X708867Y295450D01*
X708846Y295470D01*
X708745Y295522D01*
X708647Y295579D01*
X708619Y295586D01*
X708593Y295600D01*
X708515Y295613D01*
X708372Y295649D01*
X708309Y295647D01*
X708261Y295655D01*
X694908Y295655D01*
X694850Y295647D01*
X694792Y295649D01*
X694710Y295627D01*
X694626Y295615D01*
X694573Y295592D01*
X694517Y295577D01*
X694444Y295534D01*
X694367Y295499D01*
X694322Y295461D01*
X694272Y295432D01*
X694214Y295370D01*
X694150Y295316D01*
X694118Y295267D01*
X694078Y295224D01*
X694039Y295149D01*
X693992Y295079D01*
X693975Y295023D01*
X693948Y294971D01*
X693939Y294918D01*
X693047Y292765D01*
X691485Y291203D01*
X689445Y290357D01*
X687235Y290357D01*
X685195Y291203D01*
X683633Y292765D01*
X682787Y294805D01*
X682787Y297015D01*
X683633Y299055D01*
X685195Y300617D01*
X687235Y301463D01*
X689444Y301463D01*
X689784Y301322D01*
X689814Y301314D01*
X689842Y301300D01*
X689919Y301287D01*
X690059Y301251D01*
X690124Y301253D01*
X690173Y301245D01*
X710134Y301245D01*
X710221Y301257D01*
X710308Y301260D01*
X710361Y301277D01*
X710416Y301285D01*
X710495Y301320D01*
X710579Y301347D01*
X710618Y301375D01*
X710675Y301401D01*
X710788Y301497D01*
X710852Y301542D01*
X712297Y302987D01*
X732206Y302987D01*
X773020Y262172D01*
X773090Y262120D01*
X773154Y262060D01*
X773203Y262034D01*
X773247Y262001D01*
X773329Y261970D01*
X773407Y261930D01*
X773455Y261922D01*
X773513Y261900D01*
X773661Y261888D01*
X773738Y261875D01*
X935682Y261875D01*
X935768Y261887D01*
X935856Y261890D01*
X935909Y261907D01*
X935963Y261915D01*
X936043Y261950D01*
X936126Y261977D01*
X936166Y262005D01*
X936223Y262031D01*
X936336Y262127D01*
X936400Y262172D01*
X959314Y285086D01*
X959366Y285156D01*
X959426Y285220D01*
X959452Y285269D01*
X959485Y285313D01*
X959516Y285395D01*
X959556Y285473D01*
X959564Y285521D01*
X959586Y285579D01*
X959598Y285727D01*
X959611Y285804D01*
X959611Y332686D01*
X959599Y332772D01*
X959596Y332860D01*
X959579Y332913D01*
X959571Y332967D01*
X959536Y333047D01*
X959509Y333130D01*
X959481Y333170D01*
X959455Y333227D01*
X959359Y333340D01*
X959314Y333404D01*
X954785Y337932D01*
X954785Y355488D01*
X966970Y367672D01*
X967022Y367742D01*
X967082Y367806D01*
X967108Y367855D01*
X967141Y367899D01*
X967172Y367981D01*
X967212Y368059D01*
X967220Y368107D01*
X967242Y368165D01*
X967248Y368236D01*
X967253Y368253D01*
X967255Y368317D01*
X967267Y368390D01*
X967267Y370675D01*
X968113Y372715D01*
X969675Y374277D01*
X971715Y375123D01*
X973925Y375123D01*
X975965Y374277D01*
X977527Y372715D01*
X978373Y370675D01*
X978373Y368465D01*
X977527Y366425D01*
X975965Y364863D01*
X973925Y364017D01*
X971640Y364017D01*
X971554Y364005D01*
X971466Y364002D01*
X971413Y363985D01*
X971359Y363977D01*
X971279Y363942D01*
X971196Y363915D01*
X971156Y363887D01*
X971099Y363861D01*
X970986Y363765D01*
X970922Y363720D01*
X960672Y353470D01*
X960620Y353400D01*
X960560Y353336D01*
X960534Y353287D01*
X960501Y353243D01*
X960470Y353161D01*
X960430Y353083D01*
X960422Y353035D01*
X960400Y352977D01*
X960388Y352829D01*
X960375Y352752D01*
X960375Y348379D01*
X960379Y348349D01*
X960376Y348320D01*
X960399Y348209D01*
X960415Y348097D01*
X960427Y348070D01*
X960432Y348041D01*
X960485Y347941D01*
X960531Y347838D01*
X960550Y347815D01*
X960563Y347789D01*
X960641Y347707D01*
X960714Y347621D01*
X960739Y347604D01*
X960759Y347583D01*
X960857Y347526D01*
X960951Y347463D01*
X960979Y347454D01*
X961004Y347439D01*
X961114Y347412D01*
X961222Y347377D01*
X961252Y347376D01*
X961280Y347369D01*
X961393Y347373D01*
X961506Y347370D01*
X961535Y347377D01*
X961564Y347378D01*
X961672Y347413D01*
X961781Y347442D01*
X961807Y347457D01*
X961835Y347466D01*
X961899Y347511D01*
X962026Y347587D01*
X962069Y347633D01*
X962108Y347661D01*
X963325Y348877D01*
X965365Y349723D01*
X967574Y349723D01*
X967873Y349599D01*
X967902Y349592D01*
X967928Y349578D01*
X968039Y349556D01*
X968149Y349528D01*
X968178Y349529D01*
X968207Y349523D01*
X968320Y349533D01*
X968433Y349536D01*
X968461Y349545D01*
X968490Y349548D01*
X968596Y349588D01*
X968704Y349623D01*
X968728Y349639D01*
X968755Y349650D01*
X968846Y349718D01*
X968940Y349781D01*
X968959Y349804D01*
X968982Y349821D01*
X969050Y349912D01*
X969123Y349999D01*
X969135Y350025D01*
X969152Y350049D01*
X969192Y350155D01*
X969238Y350258D01*
X969242Y350287D01*
X969253Y350315D01*
X969262Y350428D01*
X969277Y350540D01*
X969273Y350569D01*
X969275Y350598D01*
X969258Y350675D01*
X969236Y350821D01*
X969211Y350878D01*
X969200Y350925D01*
X968755Y351999D01*
X968755Y354121D01*
X969567Y356082D01*
X971068Y357583D01*
X973029Y358395D01*
X975151Y358395D01*
X977112Y357583D01*
X978613Y356082D01*
X979425Y354121D01*
X979425Y351999D01*
X978613Y350038D01*
X977182Y348608D01*
X977130Y348538D01*
X977070Y348474D01*
X977044Y348425D01*
X977011Y348380D01*
X976980Y348299D01*
X976940Y348221D01*
X976932Y348173D01*
X976910Y348115D01*
X976898Y347967D01*
X976885Y347890D01*
X976885Y274628D01*
X976889Y274599D01*
X976886Y274570D01*
X976909Y274459D01*
X976925Y274347D01*
X976937Y274320D01*
X976942Y274291D01*
X976994Y274191D01*
X977041Y274087D01*
X977060Y274065D01*
X977073Y274039D01*
X977151Y273957D01*
X977224Y273870D01*
X977249Y273854D01*
X977269Y273833D01*
X977367Y273775D01*
X977461Y273713D01*
X977489Y273704D01*
X977514Y273689D01*
X977624Y273661D01*
X977732Y273627D01*
X977762Y273626D01*
X977790Y273619D01*
X977903Y273622D01*
X978016Y273620D01*
X978045Y273627D01*
X978074Y273628D01*
X978182Y273663D01*
X978291Y273691D01*
X978317Y273706D01*
X978345Y273715D01*
X978408Y273761D01*
X978536Y273837D01*
X978579Y273882D01*
X978618Y273910D01*
X983698Y278990D01*
X983750Y279060D01*
X983810Y279124D01*
X983836Y279173D01*
X983869Y279217D01*
X983900Y279299D01*
X983940Y279377D01*
X983948Y279425D01*
X983970Y279483D01*
X983982Y279631D01*
X983995Y279708D01*
X983995Y372981D01*
X983983Y373068D01*
X983980Y373155D01*
X983963Y373208D01*
X983955Y373263D01*
X983920Y373343D01*
X983893Y373426D01*
X983865Y373465D01*
X983839Y373522D01*
X983743Y373636D01*
X983698Y373699D01*
X982083Y375315D01*
X981237Y377355D01*
X981237Y379565D01*
X982083Y381605D01*
X983645Y383167D01*
X985685Y384013D01*
X987895Y384013D01*
X989935Y383167D01*
X991497Y381605D01*
X992343Y379565D01*
X992343Y377355D01*
X991497Y375315D01*
X989882Y373699D01*
X989830Y373630D01*
X989770Y373566D01*
X989744Y373516D01*
X989711Y373472D01*
X989680Y373390D01*
X989640Y373312D01*
X989632Y373265D01*
X989610Y373206D01*
X989598Y373059D01*
X989585Y372981D01*
X989585Y284879D01*
X989589Y284849D01*
X989586Y284820D01*
X989609Y284709D01*
X989625Y284597D01*
X989637Y284570D01*
X989642Y284541D01*
X989695Y284441D01*
X989741Y284338D01*
X989760Y284315D01*
X989773Y284289D01*
X989851Y284207D01*
X989924Y284121D01*
X989949Y284104D01*
X989969Y284083D01*
X990067Y284026D01*
X990161Y283963D01*
X990189Y283954D01*
X990214Y283939D01*
X990324Y283911D01*
X990432Y283877D01*
X990462Y283876D01*
X990490Y283869D01*
X990603Y283873D01*
X990716Y283870D01*
X990745Y283877D01*
X990774Y283878D01*
X990882Y283913D01*
X990991Y283942D01*
X991017Y283957D01*
X991045Y283966D01*
X991109Y284011D01*
X991236Y284087D01*
X991279Y284133D01*
X991318Y284161D01*
X991826Y284669D01*
X991879Y284739D01*
X991938Y284802D01*
X991964Y284852D01*
X991997Y284896D01*
X992028Y284978D01*
X992068Y285056D01*
X992076Y285103D01*
X992098Y285162D01*
X992110Y285309D01*
X992123Y285387D01*
X992123Y287223D01*
X1000716Y295816D01*
X1000768Y295886D01*
X1000828Y295950D01*
X1000854Y295999D01*
X1000887Y296043D01*
X1000918Y296125D01*
X1000958Y296203D01*
X1000966Y296250D01*
X1000988Y296309D01*
X1001000Y296456D01*
X1001013Y296534D01*
X1001013Y377836D01*
X1001001Y377923D01*
X1000998Y378010D01*
X1000981Y378063D01*
X1000973Y378118D01*
X1000938Y378198D01*
X1000911Y378281D01*
X1000883Y378320D01*
X1000857Y378377D01*
X1000761Y378490D01*
X1000716Y378554D01*
X981804Y397466D01*
X981734Y397518D01*
X981670Y397578D01*
X981621Y397604D01*
X981577Y397637D01*
X981495Y397668D01*
X981417Y397708D01*
X981370Y397716D01*
X981311Y397738D01*
X981164Y397750D01*
X981086Y397763D01*
X973952Y397763D01*
X973867Y397751D01*
X973781Y397749D01*
X973727Y397731D01*
X973671Y397723D01*
X973592Y397688D01*
X973510Y397662D01*
X973463Y397630D01*
X973411Y397607D01*
X973346Y397551D01*
X973274Y397504D01*
X973238Y397460D01*
X973194Y397424D01*
X973147Y397352D01*
X973091Y397286D01*
X973068Y397234D01*
X973037Y397187D01*
X973011Y397105D01*
X972976Y397026D01*
X972968Y396970D01*
X972951Y396916D01*
X972949Y396830D01*
X972937Y396744D01*
X972945Y396688D01*
X972944Y396632D01*
X972965Y396548D01*
X972978Y396463D01*
X973001Y396411D01*
X973016Y396357D01*
X973060Y396283D01*
X973095Y396204D01*
X973132Y396161D01*
X973161Y396112D01*
X973224Y396053D01*
X973279Y395988D01*
X973321Y395962D01*
X973368Y395918D01*
X973382Y395910D01*
X974987Y394305D01*
X975833Y392265D01*
X975833Y390055D01*
X974987Y388015D01*
X973425Y386453D01*
X971385Y385607D01*
X969175Y385607D01*
X967135Y386453D01*
X965773Y387814D01*
X965704Y387866D01*
X965640Y387926D01*
X965590Y387952D01*
X965546Y387985D01*
X965464Y388016D01*
X965386Y388056D01*
X965339Y388064D01*
X965280Y388086D01*
X965133Y388098D01*
X965055Y388111D01*
X961803Y388111D01*
X961717Y388099D01*
X961629Y388096D01*
X961577Y388079D01*
X961522Y388071D01*
X961442Y388036D01*
X961359Y388009D01*
X961320Y387981D01*
X961262Y387955D01*
X961149Y387859D01*
X961085Y387814D01*
X912630Y339359D01*
X912578Y339289D01*
X912518Y339225D01*
X912492Y339175D01*
X912459Y339131D01*
X912428Y339050D01*
X912388Y338972D01*
X912380Y338924D01*
X912358Y338866D01*
X912346Y338718D01*
X912333Y338641D01*
X912333Y336715D01*
X911487Y334675D01*
X909866Y333053D01*
X909819Y333026D01*
X909760Y332963D01*
X909694Y332907D01*
X909663Y332860D01*
X909624Y332819D01*
X909585Y332743D01*
X909537Y332671D01*
X909520Y332617D01*
X909494Y332566D01*
X909477Y332482D01*
X909451Y332400D01*
X909450Y332343D01*
X909439Y332288D01*
X909446Y332202D01*
X909444Y332116D01*
X909458Y332061D01*
X909463Y332004D01*
X909494Y331924D01*
X909516Y331841D01*
X909544Y331792D01*
X909565Y331739D01*
X909617Y331670D01*
X909661Y331596D01*
X909702Y331557D01*
X909736Y331512D01*
X909805Y331461D01*
X909868Y331402D01*
X909919Y331376D01*
X909964Y331342D01*
X910045Y331311D01*
X910121Y331272D01*
X910170Y331264D01*
X910230Y331241D01*
X910375Y331230D01*
X910452Y331217D01*
X912063Y331217D01*
X926847Y316433D01*
X926847Y315558D01*
X926859Y315472D01*
X926862Y315384D01*
X926879Y315332D01*
X926887Y315277D01*
X926922Y315197D01*
X926949Y315114D01*
X926977Y315074D01*
X927003Y315017D01*
X927099Y314904D01*
X927144Y314840D01*
X927813Y314172D01*
X928625Y312211D01*
X928625Y310089D01*
X927813Y308128D01*
X926312Y306627D01*
X924351Y305815D01*
X922229Y305815D01*
X920268Y306627D01*
X918767Y308128D01*
X917955Y310089D01*
X917955Y312211D01*
X918590Y313744D01*
X918590Y313745D01*
X918591Y313747D01*
X918625Y313881D01*
X918661Y314019D01*
X918661Y314021D01*
X918661Y314022D01*
X918657Y314163D01*
X918653Y314303D01*
X918652Y314305D01*
X918652Y314306D01*
X918610Y314435D01*
X918566Y314574D01*
X918565Y314575D01*
X918565Y314577D01*
X918556Y314589D01*
X918408Y314810D01*
X918384Y314830D01*
X918370Y314850D01*
X909414Y323806D01*
X909344Y323858D01*
X909280Y323918D01*
X909231Y323944D01*
X909187Y323977D01*
X909105Y324008D01*
X909027Y324048D01*
X908980Y324056D01*
X908921Y324078D01*
X908774Y324090D01*
X908696Y324103D01*
X897687Y324103D01*
X891793Y329997D01*
X891793Y355803D01*
X898166Y362176D01*
X898219Y362246D01*
X898279Y362310D01*
X898304Y362359D01*
X898337Y362404D01*
X898368Y362485D01*
X898408Y362563D01*
X898416Y362611D01*
X898438Y362669D01*
X898451Y362817D01*
X898464Y362894D01*
X898464Y363571D01*
X898451Y363658D01*
X898449Y363745D01*
X898432Y363798D01*
X898424Y363853D01*
X898388Y363933D01*
X898361Y364016D01*
X898333Y364055D01*
X898308Y364112D01*
X898212Y364225D01*
X898166Y364289D01*
X897498Y364958D01*
X896686Y366918D01*
X896686Y369041D01*
X897498Y371002D01*
X898998Y372502D01*
X900959Y373314D01*
X903082Y373314D01*
X905042Y372502D01*
X906543Y371002D01*
X907355Y369041D01*
X907355Y366918D01*
X906543Y364958D01*
X905875Y364289D01*
X905822Y364219D01*
X905762Y364155D01*
X905737Y364106D01*
X905704Y364062D01*
X905673Y363980D01*
X905633Y363902D01*
X905625Y363855D01*
X905602Y363796D01*
X905590Y363649D01*
X905577Y363571D01*
X905577Y359527D01*
X899204Y353154D01*
X899152Y353084D01*
X899092Y353020D01*
X899066Y352971D01*
X899033Y352927D01*
X899002Y352845D01*
X898962Y352767D01*
X898954Y352720D01*
X898932Y352661D01*
X898920Y352514D01*
X898907Y352436D01*
X898907Y333364D01*
X898919Y333277D01*
X898922Y333190D01*
X898939Y333137D01*
X898947Y333082D01*
X898982Y333002D01*
X899009Y332919D01*
X899037Y332880D01*
X899063Y332823D01*
X899159Y332710D01*
X899204Y332646D01*
X900336Y331514D01*
X900406Y331462D01*
X900470Y331402D01*
X900519Y331376D01*
X900563Y331343D01*
X900645Y331312D01*
X900723Y331272D01*
X900770Y331264D01*
X900829Y331242D01*
X900976Y331230D01*
X901054Y331217D01*
X903108Y331217D01*
X903193Y331229D01*
X903279Y331231D01*
X903333Y331249D01*
X903389Y331257D01*
X903468Y331292D01*
X903550Y331318D01*
X903597Y331350D01*
X903649Y331373D01*
X903714Y331429D01*
X903786Y331476D01*
X903822Y331520D01*
X903866Y331556D01*
X903913Y331628D01*
X903969Y331694D01*
X903992Y331746D01*
X904023Y331793D01*
X904049Y331875D01*
X904084Y331954D01*
X904092Y332010D01*
X904109Y332064D01*
X904111Y332150D01*
X904123Y332236D01*
X904115Y332292D01*
X904116Y332348D01*
X904095Y332432D01*
X904082Y332517D01*
X904059Y332569D01*
X904044Y332623D01*
X904000Y332697D01*
X903965Y332776D01*
X903928Y332819D01*
X903899Y332868D01*
X903836Y332927D01*
X903781Y332992D01*
X903739Y333018D01*
X903692Y333062D01*
X903678Y333070D01*
X902073Y334675D01*
X901227Y336715D01*
X901227Y338925D01*
X902073Y340965D01*
X903635Y342527D01*
X903803Y342597D01*
X903828Y342612D01*
X903856Y342621D01*
X903950Y342684D01*
X904048Y342742D01*
X904068Y342763D01*
X904092Y342779D01*
X904165Y342866D01*
X904243Y342948D01*
X904256Y342974D01*
X904275Y342997D01*
X904321Y343100D01*
X904373Y343201D01*
X904379Y343230D01*
X904391Y343257D01*
X904406Y343369D01*
X904428Y343480D01*
X904425Y343509D01*
X904430Y343538D01*
X904413Y343650D01*
X904404Y343763D01*
X904393Y343791D01*
X904389Y343820D01*
X904342Y343923D01*
X904302Y344028D01*
X904284Y344052D01*
X904272Y344079D01*
X904198Y344165D01*
X904130Y344255D01*
X904106Y344273D01*
X904087Y344295D01*
X904021Y344337D01*
X903902Y344425D01*
X903844Y344447D01*
X903803Y344473D01*
X903635Y344543D01*
X902073Y346105D01*
X901227Y348145D01*
X901227Y350355D01*
X902073Y352395D01*
X903635Y353957D01*
X905675Y354803D01*
X907601Y354803D01*
X907687Y354815D01*
X907775Y354818D01*
X907827Y354835D01*
X907882Y354843D01*
X907962Y354878D01*
X908045Y354905D01*
X908084Y354933D01*
X908142Y354959D01*
X908255Y355055D01*
X908319Y355100D01*
X942840Y389621D01*
X942892Y389691D01*
X942952Y389755D01*
X942978Y389805D01*
X943011Y389849D01*
X943042Y389930D01*
X943082Y390008D01*
X943090Y390056D01*
X943112Y390114D01*
X943124Y390262D01*
X943137Y390339D01*
X943137Y392265D01*
X943983Y394305D01*
X945604Y395927D01*
X945651Y395954D01*
X945710Y396017D01*
X945776Y396073D01*
X945807Y396120D01*
X945846Y396161D01*
X945885Y396237D01*
X945933Y396309D01*
X945950Y396363D01*
X945976Y396414D01*
X945993Y396498D01*
X946019Y396580D01*
X946020Y396637D01*
X946031Y396692D01*
X946024Y396778D01*
X946026Y396864D01*
X946012Y396919D01*
X946007Y396976D01*
X945976Y397056D01*
X945954Y397139D01*
X945926Y397188D01*
X945905Y397241D01*
X945853Y397310D01*
X945809Y397384D01*
X945768Y397423D01*
X945734Y397468D01*
X945665Y397519D01*
X945602Y397578D01*
X945551Y397604D01*
X945506Y397638D01*
X945425Y397669D01*
X945349Y397708D01*
X945300Y397716D01*
X945240Y397739D01*
X945095Y397750D01*
X945018Y397763D01*
X897687Y397763D01*
X864964Y430486D01*
X864894Y430538D01*
X864830Y430598D01*
X864781Y430624D01*
X864737Y430657D01*
X864655Y430688D01*
X864577Y430728D01*
X864530Y430736D01*
X864471Y430758D01*
X864324Y430770D01*
X864246Y430783D01*
X861967Y430783D01*
X861880Y430771D01*
X861793Y430768D01*
X861740Y430751D01*
X861685Y430743D01*
X861605Y430708D01*
X861522Y430681D01*
X861483Y430653D01*
X861426Y430627D01*
X861312Y430531D01*
X861249Y430486D01*
X860395Y429633D01*
X858355Y428787D01*
X856145Y428787D01*
X854105Y429633D01*
X852543Y431195D01*
X851697Y433235D01*
X851697Y435445D01*
X852543Y437485D01*
X854105Y439047D01*
X856145Y439893D01*
X858355Y439893D01*
X860395Y439047D01*
X861249Y438194D01*
X861318Y438142D01*
X861382Y438082D01*
X861432Y438056D01*
X861476Y438023D01*
X861558Y437992D01*
X861636Y437952D01*
X861683Y437944D01*
X861742Y437922D01*
X861889Y437910D01*
X861967Y437897D01*
X867802Y437897D01*
X867831Y437901D01*
X867861Y437898D01*
X867972Y437921D01*
X868084Y437937D01*
X868110Y437949D01*
X868139Y437954D01*
X868240Y438006D01*
X868343Y438053D01*
X868366Y438072D01*
X868392Y438085D01*
X868474Y438163D01*
X868560Y438236D01*
X868576Y438261D01*
X868598Y438281D01*
X868655Y438379D01*
X868718Y438473D01*
X868727Y438501D01*
X868741Y438526D01*
X868769Y438636D01*
X868804Y438744D01*
X868804Y438774D01*
X868812Y438802D01*
X868808Y438915D01*
X868811Y439028D01*
X868803Y439057D01*
X868802Y439086D01*
X868768Y439194D01*
X868739Y439303D01*
X868724Y439329D01*
X868715Y439357D01*
X868669Y439420D01*
X868594Y439548D01*
X868548Y439591D01*
X868520Y439630D01*
X864964Y443186D01*
X864894Y443238D01*
X864830Y443298D01*
X864781Y443324D01*
X864737Y443357D01*
X864655Y443388D01*
X864577Y443428D01*
X864530Y443436D01*
X864471Y443458D01*
X864324Y443470D01*
X864246Y443483D01*
X794817Y443483D01*
X794570Y443730D01*
X794500Y443782D01*
X794436Y443842D01*
X794387Y443868D01*
X794343Y443901D01*
X794261Y443932D01*
X794183Y443972D01*
X794136Y443980D01*
X794077Y444002D01*
X793930Y444014D01*
X793852Y444027D01*
X792645Y444027D01*
X790605Y444873D01*
X789043Y446435D01*
X788197Y448475D01*
X788197Y450685D01*
X789043Y452725D01*
X790664Y454347D01*
X790711Y454374D01*
X790770Y454437D01*
X790836Y454493D01*
X790867Y454540D01*
X790906Y454581D01*
X790945Y454657D01*
X790993Y454729D01*
X791010Y454783D01*
X791036Y454834D01*
X791053Y454918D01*
X791079Y455000D01*
X791080Y455057D01*
X791091Y455112D01*
X791084Y455198D01*
X791086Y455284D01*
X791072Y455339D01*
X791067Y455396D01*
X791036Y455476D01*
X791014Y455559D01*
X790986Y455608D01*
X790965Y455661D01*
X790913Y455730D01*
X790869Y455804D01*
X790828Y455843D01*
X790794Y455888D01*
X790725Y455939D01*
X790662Y455998D01*
X790611Y456024D01*
X790566Y456058D01*
X790485Y456089D01*
X790409Y456128D01*
X790360Y456136D01*
X790300Y456159D01*
X790155Y456170D01*
X790078Y456183D01*
X787037Y456183D01*
X786950Y456171D01*
X786863Y456168D01*
X786810Y456151D01*
X786755Y456143D01*
X786675Y456108D01*
X786592Y456081D01*
X786553Y456053D01*
X786496Y456027D01*
X786382Y455931D01*
X786319Y455886D01*
X785465Y455033D01*
X783425Y454187D01*
X781215Y454187D01*
X779175Y455033D01*
X777613Y456595D01*
X776767Y458635D01*
X776767Y460845D01*
X777613Y462885D01*
X779175Y464447D01*
X781215Y465293D01*
X783425Y465293D01*
X785465Y464447D01*
X786319Y463594D01*
X786388Y463542D01*
X786452Y463482D01*
X786502Y463456D01*
X786546Y463423D01*
X786628Y463392D01*
X786706Y463352D01*
X786753Y463344D01*
X786812Y463322D01*
X786959Y463310D01*
X787037Y463297D01*
X871007Y463297D01*
X889034Y445270D01*
X889104Y445218D01*
X889168Y445158D01*
X889217Y445132D01*
X889261Y445099D01*
X889343Y445068D01*
X889421Y445028D01*
X889468Y445020D01*
X889527Y444998D01*
X889674Y444986D01*
X889752Y444973D01*
X890959Y444973D01*
X892999Y444127D01*
X894561Y442565D01*
X895407Y440525D01*
X895407Y438315D01*
X894561Y436275D01*
X892999Y434713D01*
X890959Y433867D01*
X888749Y433867D01*
X886709Y434713D01*
X885147Y436275D01*
X884301Y438315D01*
X884301Y439522D01*
X884294Y439575D01*
X884295Y439605D01*
X884288Y439629D01*
X884286Y439696D01*
X884269Y439749D01*
X884261Y439804D01*
X884226Y439884D01*
X884199Y439967D01*
X884171Y440006D01*
X884145Y440063D01*
X884049Y440176D01*
X884004Y440240D01*
X868358Y455886D01*
X868288Y455938D01*
X868224Y455998D01*
X868175Y456024D01*
X868131Y456057D01*
X868049Y456088D01*
X867971Y456128D01*
X867924Y456136D01*
X867865Y456158D01*
X867718Y456170D01*
X867640Y456183D01*
X797422Y456183D01*
X797337Y456171D01*
X797251Y456169D01*
X797197Y456151D01*
X797141Y456143D01*
X797062Y456108D01*
X796980Y456082D01*
X796933Y456050D01*
X796881Y456027D01*
X796816Y455971D01*
X796744Y455924D01*
X796708Y455880D01*
X796664Y455844D01*
X796617Y455772D01*
X796561Y455706D01*
X796538Y455654D01*
X796507Y455607D01*
X796481Y455525D01*
X796446Y455446D01*
X796438Y455390D01*
X796421Y455336D01*
X796419Y455250D01*
X796407Y455164D01*
X796415Y455108D01*
X796414Y455052D01*
X796435Y454968D01*
X796448Y454883D01*
X796471Y454831D01*
X796486Y454777D01*
X796530Y454703D01*
X796565Y454624D01*
X796602Y454581D01*
X796631Y454532D01*
X796694Y454473D01*
X796749Y454408D01*
X796791Y454382D01*
X796838Y454338D01*
X796852Y454330D01*
X798457Y452725D01*
X799079Y451223D01*
X799080Y451222D01*
X799081Y451221D01*
X799152Y451100D01*
X799224Y450979D01*
X799225Y450978D01*
X799226Y450976D01*
X799330Y450879D01*
X799431Y450783D01*
X799432Y450783D01*
X799433Y450782D01*
X799559Y450717D01*
X799683Y450653D01*
X799685Y450653D01*
X799686Y450652D01*
X799701Y450650D01*
X799962Y450598D01*
X799993Y450601D01*
X800017Y450597D01*
X867613Y450597D01*
X900880Y417330D01*
X900950Y417278D01*
X901014Y417218D01*
X901063Y417192D01*
X901107Y417159D01*
X901189Y417128D01*
X901267Y417088D01*
X901314Y417080D01*
X901373Y417058D01*
X901520Y417046D01*
X901598Y417033D01*
X902805Y417033D01*
X904845Y416187D01*
X906407Y414625D01*
X907253Y412585D01*
X907253Y410375D01*
X906407Y408335D01*
X904786Y406713D01*
X904739Y406686D01*
X904680Y406623D01*
X904614Y406567D01*
X904583Y406520D01*
X904544Y406479D01*
X904505Y406403D01*
X904457Y406331D01*
X904440Y406277D01*
X904414Y406226D01*
X904397Y406142D01*
X904371Y406060D01*
X904370Y406003D01*
X904359Y405948D01*
X904366Y405862D01*
X904364Y405776D01*
X904378Y405721D01*
X904383Y405664D01*
X904414Y405584D01*
X904436Y405501D01*
X904464Y405452D01*
X904485Y405399D01*
X904537Y405330D01*
X904581Y405256D01*
X904622Y405217D01*
X904656Y405172D01*
X904725Y405121D01*
X904788Y405062D01*
X904839Y405036D01*
X904884Y405002D01*
X904965Y404971D01*
X905041Y404932D01*
X905090Y404924D01*
X905150Y404901D01*
X905295Y404890D01*
X905372Y404877D01*
X984453Y404877D01*
X1008127Y381203D01*
X1008127Y293167D01*
X1000299Y285339D01*
X1000264Y285292D01*
X1000222Y285252D01*
X1000179Y285179D01*
X1000128Y285112D01*
X1000108Y285057D01*
X1000078Y285007D01*
X1000057Y284925D01*
X1000027Y284846D01*
X1000022Y284788D01*
X1000008Y284731D01*
X1000011Y284647D01*
X1000004Y284563D01*
X1000015Y284506D01*
X1000017Y284447D01*
X1000043Y284367D01*
X1000059Y284284D01*
X1000086Y284232D01*
X1000104Y284177D01*
X1000145Y284121D01*
X1000190Y284032D01*
X1000259Y283960D01*
X1000299Y283903D01*
X1000387Y283815D01*
X1001233Y281775D01*
X1001233Y279565D01*
X1000387Y277525D01*
X998825Y275963D01*
X996785Y275117D01*
X994575Y275117D01*
X992535Y275963D01*
X991273Y277225D01*
X991226Y277260D01*
X991186Y277302D01*
X991113Y277345D01*
X991046Y277395D01*
X990991Y277416D01*
X990940Y277446D01*
X990859Y277467D01*
X990780Y277497D01*
X990721Y277502D01*
X990665Y277516D01*
X990581Y277513D01*
X990497Y277520D01*
X990439Y277509D01*
X990381Y277507D01*
X990300Y277481D01*
X990218Y277464D01*
X990166Y277437D01*
X990110Y277419D01*
X990054Y277379D01*
X989965Y277333D01*
X989893Y277265D01*
X989837Y277225D01*
X987650Y275038D01*
X952388Y239775D01*
X666586Y239775D01*
X666500Y239763D01*
X666412Y239760D01*
X666359Y239743D01*
X666305Y239735D01*
X666225Y239700D01*
X666142Y239673D01*
X666102Y239645D01*
X666045Y239619D01*
X665932Y239523D01*
X665868Y239478D01*
X663710Y237320D01*
X663658Y237250D01*
X663598Y237186D01*
X663572Y237137D01*
X663539Y237093D01*
X663508Y237011D01*
X663468Y236933D01*
X663460Y236885D01*
X663438Y236827D01*
X663426Y236679D01*
X663413Y236602D01*
X663413Y234317D01*
X662567Y232277D01*
X661005Y230715D01*
X658965Y229869D01*
X656755Y229869D01*
G37*
%LPD*%
%LPC*%
G36*
X645513Y108791D02*
X645513Y108791D01*
X640997Y108791D01*
X636825Y110519D01*
X633632Y113712D01*
X631904Y117884D01*
X631904Y122400D01*
X633632Y126572D01*
X636825Y129765D01*
X640151Y131142D01*
X640225Y131186D01*
X640303Y131221D01*
X640346Y131258D01*
X640395Y131287D01*
X640454Y131349D01*
X640520Y131405D01*
X640551Y131452D01*
X640591Y131493D01*
X640630Y131570D01*
X640678Y131641D01*
X640695Y131695D01*
X640721Y131746D01*
X640737Y131830D01*
X640763Y131912D01*
X640765Y131969D01*
X640776Y132025D01*
X640768Y132110D01*
X640771Y132196D01*
X640756Y132251D01*
X640751Y132308D01*
X640720Y132388D01*
X640699Y132471D01*
X640670Y132520D01*
X640649Y132573D01*
X640597Y132642D01*
X640554Y132716D01*
X640512Y132755D01*
X640478Y132800D01*
X640409Y132851D01*
X640346Y132910D01*
X640296Y132936D01*
X640250Y132970D01*
X640170Y133001D01*
X640093Y133040D01*
X640044Y133048D01*
X639984Y133071D01*
X639839Y133082D01*
X639762Y133095D01*
X266445Y133095D01*
X266445Y167895D01*
X481585Y167895D01*
X481585Y160020D01*
X481593Y159962D01*
X481591Y159904D01*
X481613Y159822D01*
X481625Y159739D01*
X481649Y159685D01*
X481663Y159629D01*
X481706Y159556D01*
X481741Y159479D01*
X481779Y159434D01*
X481809Y159384D01*
X481870Y159326D01*
X481925Y159262D01*
X481973Y159230D01*
X482016Y159190D01*
X482091Y159151D01*
X482161Y159105D01*
X482217Y159087D01*
X482269Y159060D01*
X482337Y159049D01*
X482432Y159019D01*
X482532Y159016D01*
X482600Y159005D01*
X651765Y159005D01*
X651765Y133095D01*
X646748Y133095D01*
X646663Y133083D01*
X646577Y133081D01*
X646523Y133063D01*
X646466Y133055D01*
X646388Y133020D01*
X646306Y132994D01*
X646259Y132962D01*
X646207Y132939D01*
X646142Y132884D01*
X646070Y132836D01*
X646033Y132792D01*
X645990Y132756D01*
X645943Y132684D01*
X645887Y132618D01*
X645864Y132566D01*
X645832Y132519D01*
X645807Y132437D01*
X645772Y132358D01*
X645764Y132302D01*
X645747Y132248D01*
X645745Y132162D01*
X645733Y132077D01*
X645741Y132021D01*
X645739Y131964D01*
X645761Y131881D01*
X645773Y131796D01*
X645797Y131744D01*
X645811Y131689D01*
X645855Y131615D01*
X645891Y131536D01*
X645927Y131493D01*
X645956Y131444D01*
X646019Y131385D01*
X646075Y131320D01*
X646117Y131294D01*
X646164Y131250D01*
X646293Y131184D01*
X646359Y131142D01*
X649685Y129765D01*
X652878Y126572D01*
X654606Y122400D01*
X654606Y117884D01*
X652878Y113712D01*
X649685Y110519D01*
X645513Y108791D01*
G37*
%LPD*%
%LPC*%
G36*
X281211Y446023D02*
X281211Y446023D01*
X273303Y453931D01*
X273303Y482059D01*
X279941Y488697D01*
X422402Y488697D01*
X422422Y488700D01*
X422441Y488698D01*
X422543Y488720D01*
X422645Y488736D01*
X422662Y488746D01*
X422682Y488750D01*
X422771Y488803D01*
X422862Y488852D01*
X422876Y488866D01*
X422893Y488876D01*
X422960Y488955D01*
X423032Y489030D01*
X423040Y489048D01*
X423053Y489063D01*
X423092Y489159D01*
X423135Y489253D01*
X423137Y489273D01*
X423145Y489291D01*
X423163Y489458D01*
X423163Y508729D01*
X425991Y511557D01*
X452849Y511557D01*
X455677Y508729D01*
X455677Y495841D01*
X452849Y493013D01*
X443738Y493013D01*
X443718Y493010D01*
X443699Y493012D01*
X443597Y492990D01*
X443495Y492974D01*
X443478Y492964D01*
X443458Y492960D01*
X443369Y492907D01*
X443278Y492858D01*
X443264Y492844D01*
X443247Y492834D01*
X443180Y492755D01*
X443108Y492680D01*
X443100Y492662D01*
X443087Y492647D01*
X443048Y492551D01*
X443005Y492457D01*
X443003Y492437D01*
X442995Y492419D01*
X442977Y492252D01*
X442977Y464091D01*
X440660Y461774D01*
X437609Y458723D01*
X378235Y458723D01*
X378145Y458709D01*
X378054Y458701D01*
X378024Y458689D01*
X377992Y458684D01*
X377911Y458641D01*
X377827Y458605D01*
X377795Y458579D01*
X377775Y458568D01*
X377752Y458545D01*
X377696Y458500D01*
X365219Y446023D01*
X281211Y446023D01*
G37*
%LPD*%
%LPC*%
G36*
X812965Y273847D02*
X812965Y273847D01*
X810925Y274693D01*
X809363Y276255D01*
X808517Y278295D01*
X808517Y279502D01*
X808505Y279589D01*
X808502Y279676D01*
X808485Y279729D01*
X808477Y279784D01*
X808442Y279864D01*
X808415Y279947D01*
X808387Y279986D01*
X808361Y280043D01*
X808265Y280156D01*
X808220Y280220D01*
X689863Y398577D01*
X689863Y415373D01*
X689863Y415374D01*
X689863Y415376D01*
X689843Y415516D01*
X689823Y415654D01*
X689823Y415655D01*
X689823Y415657D01*
X689765Y415785D01*
X689707Y415913D01*
X689706Y415915D01*
X689705Y415916D01*
X689616Y416021D01*
X689524Y416130D01*
X689522Y416131D01*
X689521Y416133D01*
X689508Y416141D01*
X689287Y416288D01*
X689258Y416297D01*
X689237Y416311D01*
X687735Y416933D01*
X686173Y418495D01*
X685327Y420535D01*
X685327Y422745D01*
X686173Y424785D01*
X687735Y426347D01*
X689775Y427193D01*
X691985Y427193D01*
X694025Y426347D01*
X695587Y424785D01*
X696433Y422745D01*
X696433Y421538D01*
X696445Y421451D01*
X696448Y421364D01*
X696465Y421311D01*
X696473Y421256D01*
X696508Y421176D01*
X696535Y421093D01*
X696563Y421054D01*
X696589Y420997D01*
X696685Y420884D01*
X696730Y420820D01*
X696977Y420573D01*
X696977Y401944D01*
X696989Y401857D01*
X696992Y401770D01*
X697009Y401717D01*
X697017Y401662D01*
X697052Y401582D01*
X697079Y401499D01*
X697107Y401460D01*
X697133Y401403D01*
X697197Y401327D01*
X697220Y401288D01*
X697249Y401261D01*
X697274Y401226D01*
X784560Y313940D01*
X784629Y313888D01*
X784692Y313829D01*
X784742Y313803D01*
X784788Y313769D01*
X784868Y313738D01*
X784944Y313699D01*
X785000Y313688D01*
X785053Y313667D01*
X785139Y313660D01*
X785223Y313644D01*
X785280Y313649D01*
X785337Y313644D01*
X785421Y313661D01*
X785506Y313668D01*
X785559Y313689D01*
X785615Y313700D01*
X785692Y313739D01*
X785772Y313770D01*
X785817Y313805D01*
X785868Y313831D01*
X785930Y313890D01*
X785998Y313942D01*
X786032Y313987D01*
X786074Y314027D01*
X786117Y314101D01*
X786169Y314170D01*
X786189Y314223D01*
X786217Y314272D01*
X786239Y314355D01*
X786269Y314435D01*
X786274Y314492D01*
X786288Y314547D01*
X786285Y314633D01*
X786292Y314719D01*
X786281Y314767D01*
X786279Y314831D01*
X786234Y314969D01*
X786216Y315046D01*
X785657Y316396D01*
X785657Y317602D01*
X785645Y317689D01*
X785642Y317776D01*
X785625Y317829D01*
X785617Y317884D01*
X785582Y317964D01*
X785555Y318047D01*
X785527Y318086D01*
X785501Y318143D01*
X785405Y318256D01*
X785360Y318320D01*
X700023Y403657D01*
X700023Y437243D01*
X700011Y437330D01*
X700008Y437417D01*
X699991Y437470D01*
X699983Y437525D01*
X699948Y437605D01*
X699921Y437688D01*
X699893Y437727D01*
X699867Y437784D01*
X699771Y437898D01*
X699726Y437961D01*
X698873Y438815D01*
X698027Y440855D01*
X698027Y443065D01*
X698873Y445105D01*
X700435Y446667D01*
X702475Y447513D01*
X704685Y447513D01*
X706725Y446667D01*
X707180Y446213D01*
X707204Y446195D01*
X707223Y446173D01*
X707317Y446110D01*
X707407Y446042D01*
X707435Y446031D01*
X707459Y446015D01*
X707567Y445981D01*
X707673Y445941D01*
X707702Y445938D01*
X707730Y445929D01*
X707844Y445926D01*
X707956Y445917D01*
X707985Y445923D01*
X708014Y445922D01*
X708124Y445951D01*
X708235Y445973D01*
X708261Y445986D01*
X708289Y445994D01*
X708387Y446051D01*
X708487Y446104D01*
X708509Y446124D01*
X708534Y446139D01*
X708611Y446222D01*
X708693Y446300D01*
X708708Y446325D01*
X708728Y446346D01*
X708780Y446447D01*
X708837Y446545D01*
X708844Y446573D01*
X708858Y446599D01*
X708871Y446677D01*
X708907Y446820D01*
X708905Y446883D01*
X708913Y446931D01*
X708913Y447403D01*
X708901Y447490D01*
X708898Y447577D01*
X708881Y447630D01*
X708873Y447685D01*
X708838Y447765D01*
X708811Y447848D01*
X708783Y447887D01*
X708757Y447944D01*
X708661Y448058D01*
X708616Y448121D01*
X707763Y448975D01*
X706917Y451015D01*
X706917Y453225D01*
X707763Y455265D01*
X709325Y456827D01*
X711365Y457673D01*
X713575Y457673D01*
X715615Y456827D01*
X717177Y455265D01*
X718023Y453225D01*
X718023Y451015D01*
X717177Y448975D01*
X716324Y448121D01*
X716272Y448052D01*
X716212Y447988D01*
X716186Y447938D01*
X716153Y447894D01*
X716122Y447812D01*
X716082Y447734D01*
X716074Y447687D01*
X716052Y447628D01*
X716040Y447481D01*
X716027Y447403D01*
X716027Y438012D01*
X716039Y437927D01*
X716041Y437841D01*
X716059Y437787D01*
X716067Y437731D01*
X716102Y437652D01*
X716128Y437570D01*
X716160Y437523D01*
X716183Y437471D01*
X716238Y437406D01*
X716287Y437334D01*
X716330Y437298D01*
X716366Y437254D01*
X716438Y437207D01*
X716504Y437151D01*
X716556Y437128D01*
X716603Y437097D01*
X716685Y437071D01*
X716764Y437036D01*
X716820Y437028D01*
X716874Y437011D01*
X716960Y437009D01*
X717046Y436997D01*
X717102Y437005D01*
X717158Y437004D01*
X717242Y437025D01*
X717327Y437038D01*
X717379Y437061D01*
X717433Y437076D01*
X717507Y437119D01*
X717586Y437155D01*
X717629Y437192D01*
X717678Y437221D01*
X717737Y437284D01*
X717802Y437340D01*
X717828Y437381D01*
X717872Y437428D01*
X717880Y437443D01*
X719485Y439047D01*
X721525Y439893D01*
X723735Y439893D01*
X725775Y439047D01*
X727337Y437485D01*
X728183Y435445D01*
X728183Y433235D01*
X727337Y431195D01*
X726484Y430341D01*
X726432Y430272D01*
X726372Y430208D01*
X726346Y430158D01*
X726313Y430114D01*
X726282Y430032D01*
X726242Y429954D01*
X726234Y429907D01*
X726212Y429848D01*
X726200Y429701D01*
X726187Y429623D01*
X726187Y426074D01*
X726199Y425987D01*
X726202Y425900D01*
X726219Y425847D01*
X726227Y425792D01*
X726262Y425712D01*
X726289Y425629D01*
X726317Y425590D01*
X726343Y425533D01*
X726439Y425420D01*
X726484Y425356D01*
X810710Y341130D01*
X810780Y341078D01*
X810844Y341018D01*
X810893Y340992D01*
X810937Y340959D01*
X811019Y340928D01*
X811097Y340888D01*
X811144Y340880D01*
X811203Y340858D01*
X811350Y340846D01*
X811428Y340833D01*
X812635Y340833D01*
X814675Y339987D01*
X816237Y338425D01*
X817083Y336385D01*
X817083Y334175D01*
X816237Y332135D01*
X814675Y330573D01*
X812635Y329727D01*
X810425Y329727D01*
X808385Y330573D01*
X806823Y332135D01*
X805977Y334175D01*
X805977Y335382D01*
X805965Y335469D01*
X805962Y335556D01*
X805945Y335609D01*
X805937Y335664D01*
X805902Y335744D01*
X805875Y335827D01*
X805847Y335866D01*
X805821Y335923D01*
X805725Y336036D01*
X805680Y336100D01*
X719073Y422707D01*
X719073Y429623D01*
X719061Y429710D01*
X719058Y429797D01*
X719041Y429850D01*
X719033Y429905D01*
X718998Y429985D01*
X718971Y430068D01*
X718943Y430107D01*
X718917Y430164D01*
X718821Y430278D01*
X718776Y430341D01*
X717863Y431254D01*
X717836Y431301D01*
X717773Y431360D01*
X717717Y431426D01*
X717670Y431457D01*
X717629Y431496D01*
X717553Y431535D01*
X717481Y431583D01*
X717427Y431600D01*
X717377Y431626D01*
X717292Y431643D01*
X717210Y431669D01*
X717153Y431670D01*
X717098Y431681D01*
X717012Y431674D01*
X716926Y431676D01*
X716871Y431662D01*
X716815Y431657D01*
X716734Y431626D01*
X716651Y431604D01*
X716602Y431576D01*
X716549Y431555D01*
X716480Y431503D01*
X716406Y431459D01*
X716367Y431418D01*
X716322Y431384D01*
X716271Y431315D01*
X716212Y431252D01*
X716186Y431202D01*
X716152Y431156D01*
X716121Y431076D01*
X716082Y430999D01*
X716074Y430950D01*
X716051Y430890D01*
X716040Y430745D01*
X716027Y430668D01*
X716027Y417184D01*
X716039Y417097D01*
X716042Y417010D01*
X716059Y416957D01*
X716067Y416902D01*
X716102Y416822D01*
X716129Y416739D01*
X716157Y416700D01*
X716183Y416643D01*
X716263Y416549D01*
X716281Y416517D01*
X716300Y416499D01*
X716324Y416466D01*
X800550Y332240D01*
X800620Y332188D01*
X800684Y332128D01*
X800733Y332102D01*
X800777Y332069D01*
X800859Y332038D01*
X800937Y331998D01*
X800984Y331990D01*
X801043Y331968D01*
X801190Y331956D01*
X801268Y331943D01*
X802475Y331943D01*
X804515Y331097D01*
X806077Y329535D01*
X806923Y327495D01*
X806923Y325285D01*
X806077Y323245D01*
X804515Y321683D01*
X802475Y320837D01*
X800265Y320837D01*
X798225Y321683D01*
X796663Y323245D01*
X795817Y325285D01*
X795817Y326492D01*
X795805Y326579D01*
X795802Y326666D01*
X795785Y326719D01*
X795777Y326774D01*
X795742Y326854D01*
X795715Y326937D01*
X795687Y326976D01*
X795661Y327033D01*
X795565Y327146D01*
X795520Y327210D01*
X711294Y411436D01*
X708870Y413860D01*
X708846Y413878D01*
X708827Y413900D01*
X708733Y413963D01*
X708643Y414031D01*
X708615Y414041D01*
X708591Y414058D01*
X708483Y414092D01*
X708377Y414132D01*
X708348Y414135D01*
X708320Y414144D01*
X708206Y414146D01*
X708094Y414156D01*
X708065Y414150D01*
X708036Y414151D01*
X707926Y414122D01*
X707815Y414100D01*
X707789Y414086D01*
X707761Y414079D01*
X707663Y414021D01*
X707563Y413969D01*
X707541Y413949D01*
X707516Y413934D01*
X707439Y413851D01*
X707357Y413773D01*
X707342Y413748D01*
X707322Y413726D01*
X707270Y413626D01*
X707213Y413528D01*
X707206Y413499D01*
X707192Y413473D01*
X707179Y413396D01*
X707143Y413252D01*
X707145Y413190D01*
X707137Y413142D01*
X707137Y407024D01*
X707149Y406937D01*
X707152Y406850D01*
X707169Y406797D01*
X707177Y406742D01*
X707212Y406662D01*
X707239Y406579D01*
X707267Y406540D01*
X707293Y406483D01*
X707362Y406401D01*
X707384Y406365D01*
X707409Y406341D01*
X707434Y406306D01*
X790390Y323350D01*
X790460Y323298D01*
X790524Y323238D01*
X790573Y323212D01*
X790617Y323179D01*
X790699Y323148D01*
X790777Y323108D01*
X790824Y323100D01*
X790883Y323078D01*
X791030Y323066D01*
X791108Y323053D01*
X792315Y323053D01*
X794355Y322207D01*
X795917Y320645D01*
X796763Y318605D01*
X796763Y316395D01*
X795917Y314355D01*
X794355Y312793D01*
X792315Y311947D01*
X790106Y311947D01*
X788756Y312506D01*
X788727Y312514D01*
X788702Y312527D01*
X788655Y312535D01*
X788592Y312558D01*
X788536Y312563D01*
X788481Y312577D01*
X788412Y312575D01*
X788371Y312582D01*
X788369Y312582D01*
X788345Y312579D01*
X788309Y312582D01*
X788253Y312571D01*
X788197Y312569D01*
X788134Y312549D01*
X788087Y312542D01*
X788067Y312533D01*
X788030Y312526D01*
X787980Y312500D01*
X787926Y312482D01*
X787870Y312445D01*
X787828Y312426D01*
X787812Y312412D01*
X787778Y312395D01*
X787737Y312356D01*
X787690Y312324D01*
X787646Y312272D01*
X787611Y312242D01*
X787599Y312225D01*
X787572Y312199D01*
X787543Y312150D01*
X787507Y312107D01*
X787479Y312045D01*
X787453Y312006D01*
X787447Y311986D01*
X787428Y311954D01*
X787414Y311899D01*
X787391Y311847D01*
X787382Y311780D01*
X787368Y311735D01*
X787367Y311713D01*
X787358Y311678D01*
X787360Y311622D01*
X787352Y311565D01*
X787362Y311501D01*
X787360Y311451D01*
X787366Y311428D01*
X787367Y311394D01*
X787385Y311340D01*
X787393Y311284D01*
X787419Y311227D01*
X787432Y311176D01*
X787445Y311154D01*
X787455Y311124D01*
X787483Y311084D01*
X787510Y311025D01*
X787549Y310979D01*
X787577Y310931D01*
X787622Y310889D01*
X787650Y310850D01*
X813250Y285250D01*
X813320Y285198D01*
X813384Y285138D01*
X813433Y285112D01*
X813477Y285079D01*
X813559Y285048D01*
X813637Y285008D01*
X813684Y285000D01*
X813743Y284978D01*
X813890Y284966D01*
X813968Y284953D01*
X815175Y284953D01*
X817215Y284107D01*
X818777Y282545D01*
X819623Y280505D01*
X819623Y278295D01*
X818777Y276255D01*
X817215Y274693D01*
X815175Y273847D01*
X812965Y273847D01*
G37*
%LPD*%
G36*
X363310Y450104D02*
X363310Y450104D01*
X363401Y450111D01*
X363431Y450123D01*
X363463Y450129D01*
X363543Y450171D01*
X363627Y450207D01*
X363659Y450233D01*
X363680Y450244D01*
X363702Y450267D01*
X363758Y450312D01*
X376235Y462789D01*
X435610Y462789D01*
X435700Y462804D01*
X435791Y462811D01*
X435821Y462823D01*
X435853Y462829D01*
X435933Y462871D01*
X436017Y462907D01*
X436049Y462933D01*
X436070Y462944D01*
X436092Y462967D01*
X436148Y463012D01*
X438688Y465552D01*
X438732Y465613D01*
X438765Y465647D01*
X438770Y465659D01*
X438801Y465695D01*
X438813Y465725D01*
X438832Y465751D01*
X438859Y465838D01*
X438893Y465923D01*
X438897Y465964D01*
X438904Y465987D01*
X438903Y466019D01*
X438911Y466090D01*
X438911Y494477D01*
X441513Y497079D01*
X450850Y497079D01*
X450870Y497082D01*
X450889Y497080D01*
X450991Y497102D01*
X451093Y497119D01*
X451110Y497128D01*
X451130Y497132D01*
X451219Y497185D01*
X451310Y497234D01*
X451324Y497248D01*
X451341Y497258D01*
X451408Y497337D01*
X451480Y497412D01*
X451488Y497430D01*
X451501Y497445D01*
X451540Y497541D01*
X451583Y497635D01*
X451585Y497655D01*
X451593Y497673D01*
X451611Y497840D01*
X451611Y506730D01*
X451608Y506750D01*
X451610Y506769D01*
X451588Y506871D01*
X451572Y506973D01*
X451562Y506990D01*
X451558Y507010D01*
X451505Y507099D01*
X451456Y507190D01*
X451442Y507204D01*
X451432Y507221D01*
X451353Y507288D01*
X451278Y507360D01*
X451260Y507368D01*
X451245Y507381D01*
X451149Y507420D01*
X451055Y507463D01*
X451035Y507465D01*
X451017Y507473D01*
X450850Y507491D01*
X427990Y507491D01*
X427970Y507488D01*
X427951Y507490D01*
X427849Y507468D01*
X427747Y507452D01*
X427730Y507442D01*
X427710Y507438D01*
X427621Y507385D01*
X427530Y507336D01*
X427516Y507322D01*
X427499Y507312D01*
X427432Y507233D01*
X427361Y507158D01*
X427352Y507140D01*
X427339Y507125D01*
X427300Y507029D01*
X427257Y506935D01*
X427255Y506915D01*
X427247Y506897D01*
X427229Y506730D01*
X427229Y484631D01*
X415398Y484631D01*
X415333Y484621D01*
X415268Y484620D01*
X415188Y484597D01*
X415155Y484592D01*
X415138Y484582D01*
X415107Y484573D01*
X412794Y483615D01*
X410166Y483615D01*
X407853Y484573D01*
X407790Y484588D01*
X407729Y484613D01*
X407646Y484622D01*
X407614Y484629D01*
X407595Y484628D01*
X407562Y484631D01*
X405238Y484631D01*
X405173Y484621D01*
X405108Y484620D01*
X405028Y484597D01*
X404995Y484592D01*
X404978Y484582D01*
X404947Y484573D01*
X402634Y483615D01*
X400006Y483615D01*
X397693Y484573D01*
X397630Y484588D01*
X397569Y484613D01*
X397486Y484622D01*
X397454Y484629D01*
X397435Y484628D01*
X397402Y484631D01*
X395078Y484631D01*
X395013Y484621D01*
X394948Y484620D01*
X394868Y484597D01*
X394835Y484592D01*
X394818Y484582D01*
X394787Y484573D01*
X392474Y483615D01*
X389846Y483615D01*
X387533Y484573D01*
X387470Y484588D01*
X387409Y484613D01*
X387326Y484622D01*
X387294Y484629D01*
X387275Y484628D01*
X387242Y484631D01*
X384918Y484631D01*
X384853Y484621D01*
X384788Y484620D01*
X384708Y484597D01*
X384675Y484592D01*
X384658Y484582D01*
X384627Y484573D01*
X382314Y483615D01*
X379686Y483615D01*
X377373Y484573D01*
X377310Y484588D01*
X377249Y484613D01*
X377166Y484622D01*
X377134Y484629D01*
X377115Y484628D01*
X377082Y484631D01*
X281940Y484631D01*
X281850Y484617D01*
X281759Y484609D01*
X281729Y484597D01*
X281697Y484592D01*
X281617Y484549D01*
X281533Y484513D01*
X281501Y484487D01*
X281480Y484476D01*
X281458Y484453D01*
X281402Y484408D01*
X277592Y480598D01*
X277539Y480524D01*
X277479Y480455D01*
X277467Y480425D01*
X277448Y480399D01*
X277421Y480312D01*
X277387Y480227D01*
X277383Y480186D01*
X277376Y480163D01*
X277377Y480131D01*
X277369Y480060D01*
X277369Y455930D01*
X277384Y455840D01*
X277391Y455749D01*
X277403Y455719D01*
X277409Y455687D01*
X277451Y455607D01*
X277487Y455523D01*
X277513Y455491D01*
X277524Y455470D01*
X277547Y455448D01*
X277592Y455392D01*
X282672Y450312D01*
X282746Y450259D01*
X282815Y450199D01*
X282845Y450187D01*
X282871Y450168D01*
X282958Y450141D01*
X283043Y450107D01*
X283084Y450103D01*
X283107Y450096D01*
X283139Y450097D01*
X283210Y450089D01*
X363220Y450089D01*
X363310Y450104D01*
G37*
%LPC*%
G36*
X946719Y39623D02*
X946719Y39623D01*
X943078Y41132D01*
X940292Y43918D01*
X939910Y44839D01*
X939909Y44840D01*
X939909Y44841D01*
X939839Y44960D01*
X939766Y45083D01*
X939765Y45084D01*
X939764Y45086D01*
X939660Y45183D01*
X939559Y45279D01*
X939558Y45279D01*
X939557Y45280D01*
X939431Y45345D01*
X939306Y45409D01*
X939305Y45409D01*
X939303Y45410D01*
X939288Y45412D01*
X939027Y45464D01*
X938997Y45461D01*
X938972Y45465D01*
X878426Y45465D01*
X865885Y58006D01*
X865885Y74096D01*
X865873Y74182D01*
X865870Y74270D01*
X865853Y74322D01*
X865845Y74377D01*
X865810Y74457D01*
X865783Y74540D01*
X865755Y74580D01*
X865729Y74637D01*
X865633Y74750D01*
X865588Y74814D01*
X853185Y87216D01*
X853185Y94131D01*
X853184Y94141D01*
X853185Y94151D01*
X853164Y94282D01*
X853145Y94413D01*
X853141Y94422D01*
X853140Y94431D01*
X853083Y94552D01*
X853029Y94672D01*
X853023Y94680D01*
X853019Y94689D01*
X852931Y94788D01*
X852846Y94889D01*
X852837Y94895D01*
X852831Y94902D01*
X852719Y94973D01*
X852609Y95047D01*
X852599Y95050D01*
X852591Y95055D01*
X852464Y95093D01*
X852338Y95133D01*
X852328Y95133D01*
X852319Y95136D01*
X852186Y95137D01*
X852054Y95140D01*
X852044Y95137D01*
X852034Y95137D01*
X851906Y95101D01*
X851779Y95068D01*
X851770Y95063D01*
X851761Y95060D01*
X851648Y94990D01*
X851534Y94923D01*
X851527Y94916D01*
X851519Y94910D01*
X851430Y94812D01*
X851340Y94716D01*
X851335Y94707D01*
X851329Y94699D01*
X851305Y94648D01*
X851210Y94462D01*
X851204Y94427D01*
X851189Y94394D01*
X851113Y94109D01*
X850323Y92201D01*
X849291Y90414D01*
X848034Y88776D01*
X846574Y87316D01*
X844936Y86059D01*
X843149Y85027D01*
X841241Y84237D01*
X839247Y83703D01*
X838199Y83565D01*
X838199Y98166D01*
X838191Y98224D01*
X838193Y98282D01*
X838171Y98364D01*
X838159Y98447D01*
X838135Y98501D01*
X838121Y98557D01*
X838078Y98630D01*
X838043Y98707D01*
X838005Y98751D01*
X837975Y98802D01*
X837914Y98859D01*
X837859Y98924D01*
X837811Y98956D01*
X837768Y98996D01*
X837693Y99035D01*
X837623Y99081D01*
X837567Y99099D01*
X837515Y99126D01*
X837447Y99137D01*
X837352Y99167D01*
X837252Y99170D01*
X837184Y99181D01*
X836167Y99181D01*
X836167Y99183D01*
X837184Y99183D01*
X837242Y99191D01*
X837300Y99190D01*
X837382Y99211D01*
X837465Y99223D01*
X837519Y99247D01*
X837575Y99261D01*
X837648Y99304D01*
X837725Y99339D01*
X837770Y99377D01*
X837820Y99407D01*
X837878Y99468D01*
X837942Y99523D01*
X837974Y99571D01*
X838014Y99614D01*
X838053Y99689D01*
X838099Y99759D01*
X838117Y99815D01*
X838144Y99867D01*
X838155Y99935D01*
X838185Y100030D01*
X838188Y100130D01*
X838199Y100198D01*
X838199Y114799D01*
X839247Y114661D01*
X841241Y114127D01*
X843149Y113337D01*
X844936Y112305D01*
X846574Y111048D01*
X848034Y109588D01*
X849291Y107950D01*
X850323Y106163D01*
X851113Y104255D01*
X851189Y103970D01*
X851193Y103961D01*
X851195Y103951D01*
X851249Y103831D01*
X851301Y103708D01*
X851307Y103701D01*
X851311Y103692D01*
X851396Y103591D01*
X851480Y103488D01*
X851488Y103482D01*
X851495Y103475D01*
X851605Y103401D01*
X851714Y103326D01*
X851723Y103323D01*
X851731Y103317D01*
X851858Y103277D01*
X851983Y103235D01*
X851993Y103234D01*
X852002Y103231D01*
X852134Y103228D01*
X852267Y103222D01*
X852277Y103224D01*
X852286Y103224D01*
X852414Y103257D01*
X852543Y103289D01*
X852552Y103293D01*
X852561Y103296D01*
X852676Y103364D01*
X852790Y103429D01*
X852797Y103436D01*
X852806Y103441D01*
X852897Y103538D01*
X852989Y103633D01*
X852994Y103641D01*
X853000Y103648D01*
X853061Y103766D01*
X853123Y103883D01*
X853125Y103893D01*
X853130Y103902D01*
X853139Y103958D01*
X853183Y104161D01*
X853179Y104197D01*
X853185Y104233D01*
X853185Y135491D01*
X853173Y135578D01*
X853170Y135665D01*
X853153Y135718D01*
X853145Y135773D01*
X853110Y135853D01*
X853083Y135936D01*
X853055Y135975D01*
X853029Y136032D01*
X852933Y136146D01*
X852888Y136209D01*
X852543Y136555D01*
X851697Y138595D01*
X851697Y140805D01*
X852543Y142845D01*
X854105Y144407D01*
X856145Y145253D01*
X858355Y145253D01*
X860395Y144407D01*
X861957Y142845D01*
X862803Y140805D01*
X862803Y138595D01*
X861957Y136555D01*
X861612Y136209D01*
X861560Y136140D01*
X861500Y136076D01*
X861474Y136026D01*
X861441Y135982D01*
X861410Y135900D01*
X861370Y135822D01*
X861362Y135775D01*
X861340Y135716D01*
X861328Y135569D01*
X861315Y135491D01*
X861315Y91004D01*
X861327Y90918D01*
X861330Y90830D01*
X861347Y90778D01*
X861355Y90723D01*
X861390Y90643D01*
X861417Y90560D01*
X861445Y90520D01*
X861471Y90463D01*
X861567Y90350D01*
X861612Y90286D01*
X874015Y77884D01*
X874015Y61794D01*
X874022Y61740D01*
X874021Y61699D01*
X874028Y61674D01*
X874030Y61620D01*
X874047Y61568D01*
X874055Y61513D01*
X874090Y61433D01*
X874117Y61350D01*
X874145Y61310D01*
X874171Y61253D01*
X874267Y61140D01*
X874312Y61076D01*
X881496Y53892D01*
X881566Y53840D01*
X881630Y53780D01*
X881679Y53754D01*
X881724Y53721D01*
X881805Y53690D01*
X881883Y53650D01*
X881931Y53642D01*
X881989Y53620D01*
X882137Y53608D01*
X882214Y53595D01*
X938972Y53595D01*
X938974Y53595D01*
X938975Y53595D01*
X939115Y53615D01*
X939254Y53635D01*
X939255Y53635D01*
X939257Y53635D01*
X939383Y53692D01*
X939513Y53751D01*
X939514Y53752D01*
X939516Y53753D01*
X939623Y53844D01*
X939730Y53934D01*
X939731Y53936D01*
X939732Y53937D01*
X939741Y53950D01*
X939888Y54171D01*
X939897Y54200D01*
X939910Y54221D01*
X940292Y55142D01*
X943078Y57928D01*
X946719Y59437D01*
X950661Y59437D01*
X954302Y57928D01*
X957088Y55142D01*
X958597Y51501D01*
X958597Y47559D01*
X957088Y43918D01*
X954302Y41132D01*
X950661Y39623D01*
X946719Y39623D01*
G37*
%LPD*%
%LPC*%
G36*
X432715Y545337D02*
X432715Y545337D01*
X424886Y548187D01*
X418505Y553541D01*
X414339Y560756D01*
X412893Y568960D01*
X414339Y577164D01*
X418505Y584379D01*
X424886Y589733D01*
X432715Y592583D01*
X441045Y592583D01*
X448874Y589733D01*
X455255Y584379D01*
X459421Y577164D01*
X460867Y568960D01*
X459421Y560756D01*
X455255Y553541D01*
X448874Y548187D01*
X441045Y545337D01*
X432715Y545337D01*
G37*
%LPD*%
%LPC*%
G36*
X318415Y272287D02*
X318415Y272287D01*
X310586Y275137D01*
X304205Y280491D01*
X300039Y287706D01*
X298593Y295910D01*
X300039Y304114D01*
X304205Y311329D01*
X310586Y316683D01*
X318415Y319533D01*
X326745Y319533D01*
X334574Y316683D01*
X340955Y311329D01*
X345121Y304114D01*
X346567Y295910D01*
X345121Y287706D01*
X340955Y280491D01*
X334574Y275137D01*
X326745Y272287D01*
X318415Y272287D01*
G37*
%LPD*%
%LPC*%
G36*
X763637Y213867D02*
X763637Y213867D01*
X759623Y215530D01*
X756550Y218603D01*
X756457Y218829D01*
X756456Y218830D01*
X756455Y218831D01*
X756385Y218950D01*
X756312Y219073D01*
X756311Y219074D01*
X756310Y219076D01*
X756206Y219174D01*
X756105Y219269D01*
X756104Y219269D01*
X756103Y219270D01*
X755979Y219334D01*
X755853Y219399D01*
X755851Y219399D01*
X755850Y219400D01*
X755835Y219402D01*
X755574Y219454D01*
X755543Y219451D01*
X755519Y219455D01*
X626966Y219455D01*
X611008Y235414D01*
X610938Y235466D01*
X610874Y235526D01*
X610825Y235552D01*
X610780Y235585D01*
X610699Y235616D01*
X610621Y235656D01*
X610573Y235664D01*
X610515Y235686D01*
X610367Y235698D01*
X610290Y235711D01*
X609758Y235711D01*
X607704Y236562D01*
X606132Y238134D01*
X605281Y240188D01*
X605281Y242412D01*
X606132Y244466D01*
X607704Y246038D01*
X609758Y246889D01*
X611982Y246889D01*
X614036Y246038D01*
X615608Y244466D01*
X616459Y242412D01*
X616459Y241880D01*
X616471Y241794D01*
X616474Y241706D01*
X616491Y241654D01*
X616499Y241599D01*
X616534Y241519D01*
X616561Y241436D01*
X616589Y241396D01*
X616615Y241339D01*
X616711Y241226D01*
X616756Y241162D01*
X630036Y227882D01*
X630106Y227830D01*
X630170Y227770D01*
X630219Y227744D01*
X630264Y227711D01*
X630345Y227680D01*
X630423Y227640D01*
X630471Y227632D01*
X630529Y227610D01*
X630677Y227598D01*
X630754Y227585D01*
X754467Y227585D01*
X754468Y227585D01*
X754470Y227585D01*
X754610Y227605D01*
X754748Y227625D01*
X754750Y227625D01*
X754751Y227625D01*
X754877Y227682D01*
X755007Y227741D01*
X755009Y227742D01*
X755010Y227743D01*
X755117Y227834D01*
X755224Y227924D01*
X755225Y227926D01*
X755227Y227927D01*
X755235Y227940D01*
X755382Y228161D01*
X755391Y228190D01*
X755405Y228211D01*
X756550Y230977D01*
X759623Y234050D01*
X763637Y235713D01*
X767983Y235713D01*
X771997Y234050D01*
X775070Y230977D01*
X776733Y226963D01*
X776733Y222617D01*
X775070Y218603D01*
X771997Y215530D01*
X767983Y213867D01*
X763637Y213867D01*
G37*
%LPD*%
%LPC*%
G36*
X1071143Y793749D02*
X1071143Y793749D01*
X1062740Y797230D01*
X1056310Y803660D01*
X1052829Y812063D01*
X1052829Y821157D01*
X1056310Y829560D01*
X1062740Y835990D01*
X1071143Y839471D01*
X1080237Y839471D01*
X1088640Y835990D01*
X1095070Y829560D01*
X1098551Y821157D01*
X1098551Y812063D01*
X1095070Y803660D01*
X1088640Y797230D01*
X1080237Y793749D01*
X1071143Y793749D01*
G37*
%LPD*%
%LPC*%
G36*
X667283Y792479D02*
X667283Y792479D01*
X658880Y795960D01*
X652450Y802390D01*
X648969Y810793D01*
X648969Y819887D01*
X652450Y828290D01*
X658880Y834720D01*
X667283Y838201D01*
X676377Y838201D01*
X684780Y834720D01*
X691210Y828290D01*
X694691Y819887D01*
X694691Y810793D01*
X691210Y802390D01*
X684780Y795960D01*
X676377Y792479D01*
X667283Y792479D01*
G37*
%LPD*%
%LPC*%
G36*
X1068603Y273049D02*
X1068603Y273049D01*
X1060200Y276530D01*
X1053770Y282960D01*
X1050289Y291363D01*
X1050289Y300457D01*
X1053770Y308860D01*
X1060200Y315290D01*
X1068603Y318771D01*
X1077697Y318771D01*
X1086100Y315290D01*
X1092530Y308860D01*
X1096011Y300457D01*
X1096011Y291363D01*
X1092530Y282960D01*
X1086100Y276530D01*
X1077697Y273049D01*
X1068603Y273049D01*
G37*
%LPD*%
%LPC*%
G36*
X402755Y45211D02*
X402755Y45211D01*
X398367Y47029D01*
X395009Y50387D01*
X393191Y54775D01*
X393191Y59525D01*
X395009Y63913D01*
X398367Y67271D01*
X402755Y69089D01*
X407505Y69089D01*
X411893Y67271D01*
X415251Y63913D01*
X416892Y59951D01*
X416907Y59926D01*
X416916Y59898D01*
X416979Y59804D01*
X417037Y59707D01*
X417058Y59686D01*
X417074Y59662D01*
X417161Y59589D01*
X417243Y59511D01*
X417269Y59498D01*
X417292Y59479D01*
X417395Y59433D01*
X417496Y59381D01*
X417525Y59375D01*
X417552Y59364D01*
X417664Y59348D01*
X417775Y59326D01*
X417804Y59329D01*
X417833Y59325D01*
X417945Y59341D01*
X418058Y59351D01*
X418085Y59361D01*
X418115Y59365D01*
X418218Y59412D01*
X418323Y59453D01*
X418347Y59470D01*
X418374Y59482D01*
X418460Y59556D01*
X418550Y59624D01*
X418568Y59648D01*
X418590Y59667D01*
X418632Y59733D01*
X418720Y59852D01*
X418742Y59910D01*
X418768Y59951D01*
X420409Y63913D01*
X423767Y67271D01*
X428155Y69089D01*
X432905Y69089D01*
X437293Y67271D01*
X440651Y63913D01*
X442292Y59951D01*
X442307Y59926D01*
X442316Y59898D01*
X442379Y59804D01*
X442437Y59707D01*
X442458Y59686D01*
X442474Y59662D01*
X442561Y59589D01*
X442643Y59511D01*
X442669Y59498D01*
X442692Y59479D01*
X442795Y59433D01*
X442896Y59381D01*
X442925Y59375D01*
X442952Y59364D01*
X443064Y59348D01*
X443175Y59326D01*
X443204Y59329D01*
X443233Y59325D01*
X443345Y59341D01*
X443458Y59351D01*
X443485Y59361D01*
X443515Y59365D01*
X443618Y59412D01*
X443723Y59453D01*
X443747Y59470D01*
X443774Y59482D01*
X443860Y59556D01*
X443950Y59624D01*
X443968Y59648D01*
X443990Y59667D01*
X444032Y59733D01*
X444120Y59852D01*
X444142Y59910D01*
X444168Y59951D01*
X445809Y63913D01*
X449167Y67271D01*
X453555Y69089D01*
X458305Y69089D01*
X462693Y67271D01*
X466051Y63913D01*
X467757Y59795D01*
X467777Y59760D01*
X467790Y59722D01*
X467808Y59698D01*
X467818Y59671D01*
X467863Y59615D01*
X467901Y59550D01*
X467931Y59522D01*
X467954Y59489D01*
X467977Y59470D01*
X467995Y59448D01*
X468053Y59407D01*
X468108Y59355D01*
X468144Y59336D01*
X468175Y59311D01*
X468203Y59299D01*
X468226Y59283D01*
X468293Y59259D01*
X468361Y59224D01*
X468400Y59217D01*
X468437Y59201D01*
X468468Y59198D01*
X468494Y59188D01*
X468565Y59184D01*
X468640Y59169D01*
X468680Y59173D01*
X468720Y59168D01*
X468750Y59173D01*
X468778Y59172D01*
X468847Y59187D01*
X468923Y59194D01*
X468960Y59208D01*
X469000Y59215D01*
X469028Y59228D01*
X469055Y59234D01*
X469118Y59269D01*
X469188Y59296D01*
X469220Y59320D01*
X469256Y59337D01*
X469279Y59358D01*
X469304Y59371D01*
X469355Y59422D01*
X469415Y59467D01*
X469439Y59499D01*
X469469Y59526D01*
X469485Y59552D01*
X469505Y59572D01*
X469534Y59626D01*
X469585Y59695D01*
X469599Y59733D01*
X469621Y59766D01*
X469635Y59821D01*
X469661Y59870D01*
X470266Y61733D01*
X471119Y63407D01*
X472224Y64928D01*
X473552Y66256D01*
X475073Y67361D01*
X476747Y68214D01*
X478534Y68795D01*
X479299Y68916D01*
X479299Y58166D01*
X479307Y58108D01*
X479305Y58050D01*
X479327Y57968D01*
X479339Y57885D01*
X479363Y57831D01*
X479377Y57775D01*
X479420Y57702D01*
X479455Y57625D01*
X479493Y57581D01*
X479523Y57530D01*
X479584Y57473D01*
X479639Y57408D01*
X479687Y57376D01*
X479730Y57336D01*
X479805Y57297D01*
X479875Y57251D01*
X479931Y57233D01*
X479983Y57206D01*
X480051Y57195D01*
X480146Y57165D01*
X480246Y57162D01*
X480314Y57151D01*
X481331Y57151D01*
X481331Y57149D01*
X480314Y57149D01*
X480256Y57141D01*
X480198Y57142D01*
X480116Y57121D01*
X480033Y57109D01*
X479979Y57085D01*
X479923Y57071D01*
X479850Y57028D01*
X479773Y56993D01*
X479728Y56955D01*
X479678Y56925D01*
X479620Y56864D01*
X479556Y56809D01*
X479524Y56761D01*
X479484Y56718D01*
X479445Y56643D01*
X479399Y56573D01*
X479381Y56517D01*
X479354Y56465D01*
X479343Y56397D01*
X479313Y56302D01*
X479310Y56202D01*
X479299Y56134D01*
X479299Y45384D01*
X478534Y45505D01*
X476747Y46086D01*
X475073Y46939D01*
X473552Y48044D01*
X472224Y49372D01*
X471119Y50893D01*
X470266Y52567D01*
X469661Y54430D01*
X469648Y54456D01*
X469641Y54486D01*
X469621Y54521D01*
X469609Y54559D01*
X469568Y54621D01*
X469536Y54686D01*
X469516Y54707D01*
X469502Y54733D01*
X469473Y54762D01*
X469451Y54795D01*
X469393Y54843D01*
X469345Y54897D01*
X469321Y54911D01*
X469299Y54933D01*
X469264Y54952D01*
X469233Y54978D01*
X469164Y55009D01*
X469103Y55046D01*
X469076Y55054D01*
X469049Y55068D01*
X469010Y55077D01*
X468973Y55093D01*
X468898Y55104D01*
X468829Y55123D01*
X468802Y55123D01*
X468771Y55129D01*
X468731Y55127D01*
X468692Y55132D01*
X468616Y55121D01*
X468545Y55121D01*
X468519Y55113D01*
X468488Y55111D01*
X468450Y55097D01*
X468410Y55091D01*
X468341Y55060D01*
X468273Y55040D01*
X468249Y55025D01*
X468220Y55014D01*
X468188Y54991D01*
X468151Y54974D01*
X468094Y54925D01*
X468033Y54887D01*
X468015Y54865D01*
X467990Y54848D01*
X467965Y54816D01*
X467935Y54790D01*
X467901Y54736D01*
X467846Y54673D01*
X467834Y54647D01*
X467815Y54624D01*
X467787Y54553D01*
X467757Y54505D01*
X466051Y50387D01*
X462693Y47029D01*
X458305Y45211D01*
X453555Y45211D01*
X449167Y47029D01*
X445809Y50387D01*
X444168Y54349D01*
X444153Y54374D01*
X444144Y54402D01*
X444081Y54496D01*
X444023Y54593D01*
X444002Y54614D01*
X443986Y54638D01*
X443899Y54711D01*
X443817Y54789D01*
X443791Y54802D01*
X443768Y54821D01*
X443665Y54867D01*
X443564Y54919D01*
X443535Y54925D01*
X443508Y54936D01*
X443396Y54952D01*
X443285Y54974D01*
X443256Y54971D01*
X443227Y54975D01*
X443115Y54959D01*
X443002Y54949D01*
X442975Y54939D01*
X442946Y54935D01*
X442842Y54888D01*
X442737Y54847D01*
X442713Y54830D01*
X442686Y54818D01*
X442600Y54744D01*
X442510Y54676D01*
X442492Y54652D01*
X442470Y54633D01*
X442428Y54567D01*
X442340Y54448D01*
X442318Y54390D01*
X442292Y54349D01*
X440651Y50387D01*
X437293Y47029D01*
X432905Y45211D01*
X428155Y45211D01*
X423767Y47029D01*
X420409Y50387D01*
X418768Y54349D01*
X418753Y54374D01*
X418744Y54402D01*
X418681Y54496D01*
X418623Y54593D01*
X418602Y54614D01*
X418586Y54638D01*
X418499Y54711D01*
X418417Y54789D01*
X418391Y54802D01*
X418368Y54821D01*
X418265Y54867D01*
X418164Y54919D01*
X418135Y54925D01*
X418108Y54936D01*
X417996Y54952D01*
X417885Y54974D01*
X417856Y54971D01*
X417827Y54975D01*
X417715Y54959D01*
X417602Y54949D01*
X417575Y54939D01*
X417546Y54935D01*
X417442Y54888D01*
X417337Y54847D01*
X417313Y54830D01*
X417286Y54818D01*
X417200Y54744D01*
X417110Y54676D01*
X417092Y54652D01*
X417070Y54633D01*
X417028Y54567D01*
X416940Y54448D01*
X416918Y54390D01*
X416892Y54349D01*
X415251Y50387D01*
X411893Y47029D01*
X407505Y45211D01*
X402755Y45211D01*
G37*
%LPD*%
%LPC*%
G36*
X85881Y772975D02*
X85881Y772975D01*
X77955Y776258D01*
X71888Y782325D01*
X68605Y790251D01*
X68605Y798829D01*
X71888Y806755D01*
X77955Y812822D01*
X85881Y816105D01*
X94459Y816105D01*
X102385Y812822D01*
X108452Y806755D01*
X111735Y798829D01*
X111735Y790251D01*
X108452Y782325D01*
X102385Y776258D01*
X94459Y772975D01*
X85881Y772975D01*
G37*
%LPD*%
%LPC*%
G36*
X390681Y772975D02*
X390681Y772975D01*
X382755Y776258D01*
X376688Y782325D01*
X373405Y790251D01*
X373405Y798829D01*
X376688Y806755D01*
X382755Y812822D01*
X390681Y816105D01*
X399259Y816105D01*
X407185Y812822D01*
X413252Y806755D01*
X416535Y798829D01*
X416535Y790251D01*
X413252Y782325D01*
X407185Y776258D01*
X399259Y772975D01*
X390681Y772975D01*
G37*
%LPD*%
%LPC*%
G36*
X548161Y772975D02*
X548161Y772975D01*
X540235Y776258D01*
X534168Y782325D01*
X530885Y790251D01*
X530885Y798829D01*
X534168Y806755D01*
X540235Y812822D01*
X548161Y816105D01*
X556739Y816105D01*
X564665Y812822D01*
X570732Y806755D01*
X574015Y798829D01*
X574015Y790251D01*
X570732Y782325D01*
X564665Y776258D01*
X556739Y772975D01*
X548161Y772975D01*
G37*
%LPD*%
%LPC*%
G36*
X242091Y772975D02*
X242091Y772975D01*
X234165Y776258D01*
X228098Y782325D01*
X224815Y790251D01*
X224815Y798829D01*
X228098Y806755D01*
X234165Y812822D01*
X242091Y816105D01*
X250669Y816105D01*
X258595Y812822D01*
X264662Y806755D01*
X267945Y798829D01*
X267945Y790251D01*
X264662Y782325D01*
X258595Y776258D01*
X250669Y772975D01*
X242091Y772975D01*
G37*
%LPD*%
%LPC*%
G36*
X253133Y652189D02*
X253133Y652189D01*
X245286Y655440D01*
X239280Y661446D01*
X236029Y669293D01*
X236029Y677787D01*
X239280Y685634D01*
X245286Y691640D01*
X253133Y694891D01*
X261627Y694891D01*
X269474Y691640D01*
X275480Y685634D01*
X278731Y677787D01*
X278731Y669293D01*
X275480Y661446D01*
X269474Y655440D01*
X261627Y652189D01*
X253133Y652189D01*
G37*
%LPD*%
%LPC*%
G36*
X96923Y652189D02*
X96923Y652189D01*
X89076Y655440D01*
X83070Y661446D01*
X79819Y669293D01*
X79819Y677787D01*
X83070Y685634D01*
X89076Y691640D01*
X96923Y694891D01*
X105417Y694891D01*
X113264Y691640D01*
X119270Y685634D01*
X122521Y677787D01*
X122521Y669293D01*
X119270Y661446D01*
X113264Y655440D01*
X105417Y652189D01*
X96923Y652189D01*
G37*
%LPD*%
%LPC*%
G36*
X401723Y652189D02*
X401723Y652189D01*
X393876Y655440D01*
X387870Y661446D01*
X384619Y669293D01*
X384619Y677787D01*
X387870Y685634D01*
X393876Y691640D01*
X401723Y694891D01*
X410217Y694891D01*
X418064Y691640D01*
X424070Y685634D01*
X427321Y677787D01*
X427321Y669293D01*
X424070Y661446D01*
X418064Y655440D01*
X410217Y652189D01*
X401723Y652189D01*
G37*
%LPD*%
%LPC*%
G36*
X559203Y652189D02*
X559203Y652189D01*
X551356Y655440D01*
X545350Y661446D01*
X542099Y669293D01*
X542099Y677787D01*
X545350Y685634D01*
X551356Y691640D01*
X559203Y694891D01*
X567697Y694891D01*
X575544Y691640D01*
X581550Y685634D01*
X584801Y677787D01*
X584801Y669293D01*
X581550Y661446D01*
X575544Y655440D01*
X567697Y652189D01*
X559203Y652189D01*
G37*
%LPD*%
%LPC*%
G36*
X871429Y181355D02*
X871429Y181355D01*
X869468Y182167D01*
X867967Y183668D01*
X867155Y185629D01*
X867155Y187751D01*
X867967Y189712D01*
X869398Y191142D01*
X869450Y191212D01*
X869510Y191276D01*
X869536Y191325D01*
X869569Y191370D01*
X869600Y191451D01*
X869640Y191529D01*
X869648Y191577D01*
X869670Y191635D01*
X869682Y191783D01*
X869695Y191860D01*
X869695Y199930D01*
X869688Y199982D01*
X869689Y200006D01*
X869683Y200029D01*
X869680Y200104D01*
X869663Y200157D01*
X869655Y200212D01*
X869620Y200292D01*
X869593Y200375D01*
X869565Y200414D01*
X869539Y200471D01*
X869443Y200585D01*
X869398Y200648D01*
X859926Y210120D01*
X859920Y210166D01*
X859884Y210245D01*
X859857Y210329D01*
X859829Y210368D01*
X859803Y210425D01*
X859708Y210538D01*
X859662Y210602D01*
X858232Y212032D01*
X857420Y213993D01*
X857420Y216115D01*
X858232Y218076D01*
X859732Y219577D01*
X861693Y220389D01*
X863815Y220389D01*
X865776Y219577D01*
X866692Y218661D01*
X866716Y218643D01*
X866735Y218621D01*
X866829Y218558D01*
X866919Y218490D01*
X866947Y218480D01*
X866971Y218463D01*
X867079Y218429D01*
X867185Y218389D01*
X867214Y218386D01*
X867242Y218377D01*
X867356Y218375D01*
X867468Y218365D01*
X867497Y218371D01*
X867526Y218370D01*
X867636Y218399D01*
X867747Y218421D01*
X867773Y218435D01*
X867801Y218442D01*
X867899Y218500D01*
X867999Y218552D01*
X868021Y218572D01*
X868046Y218587D01*
X868123Y218670D01*
X868205Y218748D01*
X868220Y218773D01*
X868240Y218795D01*
X868292Y218896D01*
X868349Y218993D01*
X868356Y219022D01*
X868370Y219048D01*
X868383Y219125D01*
X868419Y219269D01*
X868417Y219331D01*
X868425Y219379D01*
X868425Y225970D01*
X868413Y226056D01*
X868410Y226144D01*
X868393Y226196D01*
X868385Y226251D01*
X868350Y226331D01*
X868323Y226414D01*
X868295Y226454D01*
X868269Y226511D01*
X868173Y226624D01*
X868128Y226688D01*
X866697Y228118D01*
X865885Y230079D01*
X865885Y232201D01*
X866697Y234162D01*
X868198Y235663D01*
X870159Y236475D01*
X872281Y236475D01*
X874242Y235663D01*
X875743Y234162D01*
X876555Y232201D01*
X876555Y230079D01*
X875743Y228118D01*
X874312Y226688D01*
X874260Y226618D01*
X874200Y226554D01*
X874174Y226505D01*
X874141Y226460D01*
X874110Y226379D01*
X874070Y226301D01*
X874062Y226253D01*
X874040Y226195D01*
X874028Y226047D01*
X874015Y225970D01*
X874015Y212644D01*
X874027Y212558D01*
X874030Y212470D01*
X874047Y212418D01*
X874055Y212363D01*
X874090Y212283D01*
X874117Y212200D01*
X874145Y212160D01*
X874171Y212103D01*
X874267Y211990D01*
X874312Y211926D01*
X877414Y208824D01*
X879371Y206867D01*
X879381Y206837D01*
X879389Y206783D01*
X879424Y206703D01*
X879451Y206620D01*
X879479Y206580D01*
X879505Y206523D01*
X879601Y206410D01*
X879646Y206346D01*
X892400Y193592D01*
X892470Y193540D01*
X892534Y193480D01*
X892583Y193454D01*
X892627Y193421D01*
X892709Y193390D01*
X892787Y193350D01*
X892835Y193342D01*
X892893Y193320D01*
X893041Y193308D01*
X893118Y193295D01*
X895141Y193295D01*
X897102Y192483D01*
X898603Y190982D01*
X899415Y189021D01*
X899415Y186899D01*
X898603Y184938D01*
X897102Y183437D01*
X895141Y182625D01*
X893019Y182625D01*
X891058Y183437D01*
X889557Y184938D01*
X888745Y186899D01*
X888745Y188922D01*
X888733Y189008D01*
X888730Y189096D01*
X888713Y189149D01*
X888705Y189203D01*
X888670Y189283D01*
X888643Y189366D01*
X888615Y189406D01*
X888589Y189463D01*
X888493Y189576D01*
X888448Y189640D01*
X877018Y201070D01*
X876994Y201087D01*
X876975Y201110D01*
X876881Y201173D01*
X876791Y201241D01*
X876763Y201251D01*
X876739Y201267D01*
X876631Y201302D01*
X876525Y201342D01*
X876496Y201344D01*
X876468Y201353D01*
X876354Y201356D01*
X876242Y201365D01*
X876213Y201360D01*
X876184Y201360D01*
X876074Y201332D01*
X875963Y201310D01*
X875937Y201296D01*
X875909Y201289D01*
X875811Y201231D01*
X875711Y201179D01*
X875689Y201158D01*
X875664Y201143D01*
X875587Y201061D01*
X875505Y200983D01*
X875490Y200957D01*
X875470Y200936D01*
X875418Y200835D01*
X875361Y200738D01*
X875354Y200709D01*
X875340Y200683D01*
X875327Y200606D01*
X875291Y200462D01*
X875293Y200400D01*
X875285Y200352D01*
X875285Y191860D01*
X875297Y191774D01*
X875300Y191686D01*
X875317Y191634D01*
X875325Y191579D01*
X875360Y191499D01*
X875387Y191416D01*
X875415Y191376D01*
X875441Y191319D01*
X875537Y191206D01*
X875582Y191142D01*
X877013Y189712D01*
X877825Y187751D01*
X877825Y185629D01*
X877013Y183668D01*
X875512Y182167D01*
X873551Y181355D01*
X871429Y181355D01*
G37*
%LPD*%
%LPC*%
G36*
X176021Y112521D02*
X176021Y112521D01*
X176021Y143470D01*
X178841Y143193D01*
X182023Y142560D01*
X185128Y141618D01*
X188125Y140376D01*
X190986Y138847D01*
X193684Y137044D01*
X196192Y134986D01*
X198486Y132692D01*
X200544Y130184D01*
X202347Y127486D01*
X203876Y124625D01*
X205118Y121628D01*
X206060Y118523D01*
X206693Y115341D01*
X206970Y112521D01*
X176021Y112521D01*
G37*
%LPD*%
%LPC*%
G36*
X176021Y108459D02*
X176021Y108459D01*
X206970Y108459D01*
X206693Y105639D01*
X206060Y102457D01*
X205118Y99352D01*
X203876Y96355D01*
X202347Y93494D01*
X200544Y90796D01*
X198486Y88288D01*
X196192Y85994D01*
X193684Y83936D01*
X190986Y82133D01*
X188125Y80604D01*
X185128Y79362D01*
X182023Y78420D01*
X178841Y77787D01*
X176021Y77510D01*
X176021Y108459D01*
G37*
%LPD*%
%LPC*%
G36*
X69890Y112521D02*
X69890Y112521D01*
X70167Y115341D01*
X70800Y118523D01*
X71742Y121628D01*
X72984Y124625D01*
X74513Y127486D01*
X76316Y130184D01*
X78374Y132692D01*
X80668Y134986D01*
X83176Y137044D01*
X85874Y138847D01*
X88735Y140376D01*
X91732Y141618D01*
X94837Y142560D01*
X98019Y143193D01*
X100839Y143470D01*
X100839Y112521D01*
X69890Y112521D01*
G37*
%LPD*%
%LPC*%
G36*
X98019Y77787D02*
X98019Y77787D01*
X94837Y78420D01*
X91732Y79362D01*
X88735Y80604D01*
X85874Y82133D01*
X83176Y83936D01*
X80668Y85994D01*
X78374Y88288D01*
X76316Y90796D01*
X74513Y93494D01*
X72984Y96355D01*
X71742Y99352D01*
X70800Y102457D01*
X70167Y105639D01*
X69890Y108459D01*
X100839Y108459D01*
X100839Y77510D01*
X98019Y77787D01*
G37*
%LPD*%
%LPC*%
G36*
X1018749Y272795D02*
X1018749Y272795D01*
X1016788Y273607D01*
X1015287Y275108D01*
X1014475Y277069D01*
X1014475Y279191D01*
X1015287Y281152D01*
X1016788Y282653D01*
X1018749Y283465D01*
X1020413Y283465D01*
X1020499Y283477D01*
X1020587Y283480D01*
X1020639Y283497D01*
X1020694Y283505D01*
X1020774Y283540D01*
X1020857Y283567D01*
X1020896Y283595D01*
X1020954Y283621D01*
X1021067Y283717D01*
X1021131Y283762D01*
X1021544Y284175D01*
X1021596Y284245D01*
X1021656Y284309D01*
X1021682Y284359D01*
X1021715Y284403D01*
X1021746Y284484D01*
X1021786Y284562D01*
X1021794Y284610D01*
X1021816Y284668D01*
X1021828Y284816D01*
X1021841Y284893D01*
X1021841Y361537D01*
X1021829Y361623D01*
X1021826Y361711D01*
X1021809Y361763D01*
X1021801Y361818D01*
X1021766Y361898D01*
X1021739Y361981D01*
X1021711Y362020D01*
X1021685Y362078D01*
X1021589Y362191D01*
X1021544Y362255D01*
X1019861Y363938D01*
X1019791Y363990D01*
X1019727Y364050D01*
X1019677Y364076D01*
X1019633Y364109D01*
X1019552Y364140D01*
X1019474Y364180D01*
X1019426Y364188D01*
X1019368Y364210D01*
X1019220Y364222D01*
X1019143Y364235D01*
X1017479Y364235D01*
X1015518Y365047D01*
X1014017Y366548D01*
X1013205Y368509D01*
X1013205Y370631D01*
X1014017Y372592D01*
X1015518Y374093D01*
X1017479Y374905D01*
X1019601Y374905D01*
X1021562Y374093D01*
X1023063Y372592D01*
X1023875Y370631D01*
X1023875Y368967D01*
X1023887Y368881D01*
X1023890Y368793D01*
X1023907Y368741D01*
X1023915Y368686D01*
X1023950Y368606D01*
X1023977Y368523D01*
X1024005Y368484D01*
X1024031Y368426D01*
X1024127Y368313D01*
X1024172Y368249D01*
X1027939Y364483D01*
X1027939Y281947D01*
X1025442Y279451D01*
X1025390Y279381D01*
X1025330Y279317D01*
X1025304Y279267D01*
X1025271Y279223D01*
X1025240Y279142D01*
X1025200Y279064D01*
X1025192Y279016D01*
X1025170Y278958D01*
X1025158Y278810D01*
X1025145Y278733D01*
X1025145Y277069D01*
X1024333Y275108D01*
X1022832Y273607D01*
X1020871Y272795D01*
X1018749Y272795D01*
G37*
%LPD*%
%LPC*%
G36*
X761499Y116453D02*
X761499Y116453D01*
X757858Y117962D01*
X755072Y120748D01*
X753563Y124389D01*
X753563Y128331D01*
X755072Y131972D01*
X757858Y134759D01*
X759233Y135328D01*
X759258Y135343D01*
X759286Y135352D01*
X759381Y135415D01*
X759478Y135473D01*
X759498Y135494D01*
X759523Y135510D01*
X759596Y135597D01*
X759673Y135679D01*
X759687Y135705D01*
X759706Y135728D01*
X759752Y135831D01*
X759803Y135932D01*
X759809Y135961D01*
X759821Y135988D01*
X759837Y136100D01*
X759858Y136211D01*
X759856Y136240D01*
X759860Y136269D01*
X759844Y136381D01*
X759834Y136494D01*
X759824Y136521D01*
X759819Y136551D01*
X759773Y136654D01*
X759732Y136759D01*
X759714Y136783D01*
X759702Y136810D01*
X759629Y136896D01*
X759560Y136986D01*
X759537Y137004D01*
X759518Y137026D01*
X759452Y137067D01*
X759333Y137156D01*
X759274Y137178D01*
X759233Y137204D01*
X757858Y137774D01*
X755072Y140560D01*
X753563Y144201D01*
X753563Y148143D01*
X755072Y151784D01*
X757858Y154570D01*
X761499Y156079D01*
X765441Y156079D01*
X769082Y154570D01*
X771868Y151784D01*
X773377Y148143D01*
X773377Y144201D01*
X771868Y140560D01*
X769082Y137774D01*
X767707Y137204D01*
X767682Y137189D01*
X767654Y137180D01*
X767560Y137117D01*
X767462Y137060D01*
X767442Y137038D01*
X767417Y137022D01*
X767345Y136935D01*
X767267Y136853D01*
X767253Y136827D01*
X767234Y136804D01*
X767188Y136701D01*
X767137Y136600D01*
X767131Y136571D01*
X767119Y136544D01*
X767103Y136432D01*
X767082Y136321D01*
X767084Y136292D01*
X767080Y136263D01*
X767096Y136151D01*
X767106Y136038D01*
X767117Y136010D01*
X767121Y135982D01*
X767167Y135879D01*
X767208Y135773D01*
X767226Y135749D01*
X767238Y135722D01*
X767311Y135636D01*
X767380Y135546D01*
X767403Y135528D01*
X767422Y135506D01*
X767489Y135464D01*
X767607Y135376D01*
X767666Y135354D01*
X767707Y135328D01*
X769082Y134759D01*
X771868Y131972D01*
X773377Y128331D01*
X773377Y124389D01*
X771868Y120748D01*
X769082Y117962D01*
X765441Y116453D01*
X761499Y116453D01*
G37*
%LPD*%
%LPC*%
G36*
X788469Y126359D02*
X788469Y126359D01*
X788469Y127376D01*
X788461Y127434D01*
X788462Y127492D01*
X788441Y127574D01*
X788429Y127657D01*
X788405Y127711D01*
X788391Y127767D01*
X788348Y127840D01*
X788313Y127917D01*
X788275Y127962D01*
X788245Y128012D01*
X788184Y128070D01*
X788129Y128134D01*
X788081Y128166D01*
X788038Y128206D01*
X787963Y128245D01*
X787893Y128291D01*
X787837Y128309D01*
X787785Y128336D01*
X787717Y128347D01*
X787622Y128377D01*
X787522Y128380D01*
X787454Y128391D01*
X777733Y128391D01*
X777816Y128918D01*
X778348Y130553D01*
X779128Y132085D01*
X780139Y133476D01*
X781354Y134691D01*
X782745Y135702D01*
X783076Y135871D01*
X783184Y135946D01*
X783293Y136019D01*
X783300Y136028D01*
X783309Y136034D01*
X783391Y136136D01*
X783476Y136237D01*
X783481Y136247D01*
X783487Y136255D01*
X783538Y136377D01*
X783592Y136497D01*
X783593Y136507D01*
X783597Y136517D01*
X783613Y136649D01*
X783631Y136778D01*
X783629Y136789D01*
X783630Y136800D01*
X783609Y136930D01*
X783590Y137060D01*
X783586Y137069D01*
X783584Y137080D01*
X783527Y137199D01*
X783473Y137319D01*
X783466Y137327D01*
X783461Y137337D01*
X783374Y137435D01*
X783289Y137535D01*
X783280Y137540D01*
X783272Y137549D01*
X783032Y137701D01*
X783016Y137706D01*
X783004Y137713D01*
X782858Y137773D01*
X780072Y140560D01*
X778563Y144201D01*
X778563Y148143D01*
X780072Y151784D01*
X782858Y154570D01*
X786499Y156079D01*
X790441Y156079D01*
X794082Y154570D01*
X796868Y151784D01*
X798377Y148143D01*
X798377Y144201D01*
X796868Y140560D01*
X794082Y137773D01*
X793936Y137713D01*
X793823Y137646D01*
X793708Y137582D01*
X793701Y137574D01*
X793691Y137569D01*
X793601Y137473D01*
X793509Y137379D01*
X793503Y137370D01*
X793496Y137362D01*
X793436Y137245D01*
X793373Y137129D01*
X793371Y137119D01*
X793366Y137109D01*
X793340Y136980D01*
X793312Y136852D01*
X793313Y136841D01*
X793311Y136830D01*
X793322Y136700D01*
X793331Y136568D01*
X793334Y136558D01*
X793335Y136547D01*
X793383Y136424D01*
X793427Y136301D01*
X793433Y136292D01*
X793437Y136282D01*
X793517Y136176D01*
X793594Y136070D01*
X793602Y136064D01*
X793609Y136055D01*
X793837Y135885D01*
X793853Y135879D01*
X793864Y135871D01*
X794195Y135702D01*
X795586Y134691D01*
X796801Y133476D01*
X797812Y132085D01*
X798592Y130553D01*
X799124Y128918D01*
X799207Y128391D01*
X789486Y128391D01*
X789428Y128383D01*
X789370Y128385D01*
X789288Y128363D01*
X789205Y128351D01*
X789151Y128327D01*
X789095Y128313D01*
X789022Y128270D01*
X788945Y128235D01*
X788901Y128197D01*
X788850Y128167D01*
X788793Y128106D01*
X788728Y128051D01*
X788696Y128003D01*
X788656Y127960D01*
X788617Y127885D01*
X788571Y127815D01*
X788553Y127759D01*
X788526Y127707D01*
X788515Y127639D01*
X788485Y127544D01*
X788482Y127444D01*
X788471Y127376D01*
X788471Y126359D01*
X788469Y126359D01*
G37*
%LPD*%
%LPC*%
G36*
X590334Y83311D02*
X590334Y83311D01*
X585946Y85129D01*
X582588Y88487D01*
X580770Y92875D01*
X580770Y97625D01*
X582588Y102013D01*
X585946Y105371D01*
X590334Y107189D01*
X595084Y107189D01*
X599472Y105371D01*
X602830Y102013D01*
X604648Y97625D01*
X604648Y92875D01*
X602830Y88487D01*
X599472Y85129D01*
X595084Y83311D01*
X590334Y83311D01*
G37*
%LPD*%
%LPC*%
G36*
X616445Y83311D02*
X616445Y83311D01*
X612057Y85129D01*
X608699Y88487D01*
X606881Y92875D01*
X606881Y97625D01*
X608699Y102013D01*
X612057Y105371D01*
X616445Y107189D01*
X621195Y107189D01*
X625583Y105371D01*
X628941Y102013D01*
X630759Y97625D01*
X630759Y92875D01*
X628941Y88487D01*
X625583Y85129D01*
X621195Y83311D01*
X616445Y83311D01*
G37*
%LPD*%
%LPC*%
G36*
X566067Y59007D02*
X566067Y59007D01*
X561895Y60735D01*
X558702Y63928D01*
X556974Y68100D01*
X556974Y72616D01*
X558702Y76788D01*
X561895Y79981D01*
X566067Y81709D01*
X570583Y81709D01*
X574755Y79981D01*
X577948Y76788D01*
X579676Y72616D01*
X579676Y68100D01*
X577948Y63928D01*
X574755Y60735D01*
X570583Y59007D01*
X566067Y59007D01*
G37*
%LPD*%
%LPC*%
G36*
X814437Y213867D02*
X814437Y213867D01*
X810423Y215530D01*
X807350Y218603D01*
X805687Y222617D01*
X805687Y226963D01*
X807350Y230977D01*
X810423Y234050D01*
X814437Y235713D01*
X818783Y235713D01*
X822797Y234050D01*
X825870Y230977D01*
X827533Y226963D01*
X827533Y222617D01*
X825870Y218603D01*
X822797Y215530D01*
X818783Y213867D01*
X814437Y213867D01*
G37*
%LPD*%
%LPC*%
G36*
X789037Y213867D02*
X789037Y213867D01*
X785023Y215530D01*
X781950Y218603D01*
X780287Y222617D01*
X780287Y226963D01*
X781950Y230977D01*
X785023Y234050D01*
X789037Y235713D01*
X793383Y235713D01*
X797397Y234050D01*
X800470Y230977D01*
X802133Y226963D01*
X802133Y222617D01*
X800470Y218603D01*
X797397Y215530D01*
X793383Y213867D01*
X789037Y213867D01*
G37*
%LPD*%
%LPC*%
G36*
X166623Y550163D02*
X166623Y550163D01*
X166623Y572113D01*
X169042Y571840D01*
X170923Y571411D01*
X171615Y571253D01*
X174105Y570382D01*
X176483Y569236D01*
X178718Y567832D01*
X180781Y566187D01*
X182647Y564321D01*
X184292Y562258D01*
X185696Y560023D01*
X186842Y557645D01*
X187713Y555155D01*
X188300Y552582D01*
X188573Y550163D01*
X166623Y550163D01*
G37*
%LPD*%
%LPC*%
G36*
X167893Y425703D02*
X167893Y425703D01*
X167893Y447653D01*
X170312Y447380D01*
X170544Y447327D01*
X172885Y446793D01*
X175375Y445922D01*
X177753Y444776D01*
X179988Y443372D01*
X182051Y441727D01*
X183917Y439861D01*
X185562Y437798D01*
X186966Y435563D01*
X188112Y433185D01*
X188983Y430695D01*
X189570Y428122D01*
X189843Y425703D01*
X167893Y425703D01*
G37*
%LPD*%
%LPC*%
G36*
X165353Y292353D02*
X165353Y292353D01*
X165353Y314303D01*
X167772Y314030D01*
X170345Y313443D01*
X172835Y312572D01*
X175213Y311426D01*
X177448Y310022D01*
X179511Y308377D01*
X181377Y306511D01*
X183022Y304448D01*
X184426Y302213D01*
X185572Y299835D01*
X186443Y297345D01*
X187030Y294772D01*
X187303Y292353D01*
X165353Y292353D01*
G37*
%LPD*%
%LPC*%
G36*
X140357Y292353D02*
X140357Y292353D01*
X140630Y294772D01*
X141217Y297345D01*
X142088Y299835D01*
X143234Y302213D01*
X144638Y304448D01*
X146283Y306511D01*
X148149Y308377D01*
X150212Y310022D01*
X152447Y311426D01*
X154825Y312572D01*
X157315Y313443D01*
X159888Y314030D01*
X162307Y314303D01*
X162307Y292353D01*
X140357Y292353D01*
G37*
%LPD*%
%LPC*%
G36*
X166623Y547117D02*
X166623Y547117D01*
X188573Y547117D01*
X188300Y544698D01*
X187713Y542125D01*
X186842Y539635D01*
X185696Y537257D01*
X184292Y535022D01*
X182647Y532959D01*
X180781Y531093D01*
X178718Y529448D01*
X176483Y528044D01*
X174105Y526898D01*
X171615Y526027D01*
X169042Y525440D01*
X166623Y525167D01*
X166623Y547117D01*
G37*
%LPD*%
%LPC*%
G36*
X165353Y289307D02*
X165353Y289307D01*
X187303Y289307D01*
X187030Y286888D01*
X186443Y284315D01*
X185572Y281825D01*
X184426Y279447D01*
X183022Y277212D01*
X181377Y275149D01*
X179511Y273283D01*
X177448Y271638D01*
X175213Y270234D01*
X172835Y269088D01*
X170345Y268217D01*
X167772Y267630D01*
X165353Y267357D01*
X165353Y289307D01*
G37*
%LPD*%
%LPC*%
G36*
X167893Y422657D02*
X167893Y422657D01*
X189843Y422657D01*
X189570Y420238D01*
X188983Y417665D01*
X188112Y415175D01*
X186966Y412797D01*
X185562Y410562D01*
X183917Y408499D01*
X182051Y406633D01*
X179988Y404988D01*
X177753Y403584D01*
X175375Y402438D01*
X172885Y401567D01*
X170312Y400980D01*
X167893Y400707D01*
X167893Y422657D01*
G37*
%LPD*%
%LPC*%
G36*
X142897Y425703D02*
X142897Y425703D01*
X143170Y428122D01*
X143757Y430695D01*
X144628Y433185D01*
X145774Y435563D01*
X147178Y437798D01*
X148823Y439861D01*
X150689Y441727D01*
X152752Y443372D01*
X154987Y444776D01*
X157365Y445922D01*
X159855Y446793D01*
X162428Y447380D01*
X164847Y447653D01*
X164847Y425703D01*
X142897Y425703D01*
G37*
%LPD*%
%LPC*%
G36*
X141627Y550163D02*
X141627Y550163D01*
X141900Y552582D01*
X142487Y555155D01*
X143358Y557645D01*
X144504Y560023D01*
X145908Y562258D01*
X147553Y564321D01*
X149419Y566187D01*
X151482Y567832D01*
X153717Y569236D01*
X156095Y570382D01*
X158585Y571253D01*
X161158Y571840D01*
X163577Y572113D01*
X163577Y550163D01*
X141627Y550163D01*
G37*
%LPD*%
%LPC*%
G36*
X159888Y267630D02*
X159888Y267630D01*
X159864Y267635D01*
X157315Y268217D01*
X154825Y269088D01*
X152447Y270234D01*
X150212Y271638D01*
X148149Y273283D01*
X146283Y275149D01*
X144638Y277212D01*
X143234Y279447D01*
X142088Y281825D01*
X141217Y284315D01*
X140630Y286888D01*
X140357Y289307D01*
X162307Y289307D01*
X162307Y267357D01*
X159888Y267630D01*
G37*
%LPD*%
%LPC*%
G36*
X161158Y525440D02*
X161158Y525440D01*
X160022Y525699D01*
X158585Y526027D01*
X156095Y526898D01*
X153717Y528044D01*
X151482Y529448D01*
X149419Y531093D01*
X147553Y532959D01*
X145908Y535022D01*
X144504Y537257D01*
X143358Y539635D01*
X142487Y542125D01*
X141900Y544698D01*
X141627Y547117D01*
X163577Y547117D01*
X163577Y525167D01*
X161158Y525440D01*
G37*
%LPD*%
%LPC*%
G36*
X162428Y400980D02*
X162428Y400980D01*
X159855Y401567D01*
X157365Y402438D01*
X154987Y403584D01*
X152752Y404988D01*
X150689Y406633D01*
X148823Y408499D01*
X147178Y410562D01*
X145774Y412797D01*
X144628Y415175D01*
X143757Y417665D01*
X143170Y420238D01*
X142897Y422657D01*
X164847Y422657D01*
X164847Y400707D01*
X162428Y400980D01*
G37*
%LPD*%
%LPC*%
G36*
X765008Y632205D02*
X765008Y632205D01*
X761180Y633791D01*
X758251Y636720D01*
X756665Y640548D01*
X756665Y644692D01*
X758251Y648520D01*
X761180Y651449D01*
X765008Y653035D01*
X769152Y653035D01*
X772980Y651449D01*
X775909Y648520D01*
X777495Y644692D01*
X777495Y640548D01*
X775909Y636720D01*
X772980Y633791D01*
X769152Y632205D01*
X765008Y632205D01*
G37*
%LPD*%
%LPC*%
G36*
X765008Y733805D02*
X765008Y733805D01*
X761180Y735391D01*
X758251Y738320D01*
X756665Y742148D01*
X756665Y746292D01*
X758251Y750120D01*
X761180Y753049D01*
X765008Y754635D01*
X769152Y754635D01*
X772980Y753049D01*
X775909Y750120D01*
X777495Y746292D01*
X777495Y742148D01*
X775909Y738320D01*
X772980Y735391D01*
X769152Y733805D01*
X765008Y733805D01*
G37*
%LPD*%
%LPC*%
G36*
X765008Y530605D02*
X765008Y530605D01*
X761180Y532191D01*
X758251Y535120D01*
X756665Y538948D01*
X756665Y543092D01*
X758251Y546920D01*
X761180Y549849D01*
X765008Y551435D01*
X769152Y551435D01*
X772980Y549849D01*
X775909Y546920D01*
X777495Y543092D01*
X777495Y538948D01*
X775909Y535120D01*
X772980Y532191D01*
X769152Y530605D01*
X765008Y530605D01*
G37*
%LPD*%
%LPC*%
G36*
X765008Y708405D02*
X765008Y708405D01*
X761180Y709991D01*
X758251Y712920D01*
X756665Y716748D01*
X756665Y720892D01*
X758251Y724720D01*
X761180Y727649D01*
X765008Y729235D01*
X769152Y729235D01*
X772980Y727649D01*
X775909Y724720D01*
X777495Y720892D01*
X777495Y716748D01*
X775909Y712920D01*
X772980Y709991D01*
X769152Y708405D01*
X765008Y708405D01*
G37*
%LPD*%
%LPC*%
G36*
X765008Y606805D02*
X765008Y606805D01*
X761180Y608391D01*
X758251Y611320D01*
X756665Y615148D01*
X756665Y619292D01*
X758251Y623120D01*
X761180Y626049D01*
X765008Y627635D01*
X769152Y627635D01*
X772980Y626049D01*
X775909Y623120D01*
X777495Y619292D01*
X777495Y615148D01*
X775909Y611320D01*
X772980Y608391D01*
X769152Y606805D01*
X765008Y606805D01*
G37*
%LPD*%
%LPC*%
G36*
X765008Y657605D02*
X765008Y657605D01*
X761180Y659191D01*
X758251Y662120D01*
X756665Y665948D01*
X756665Y670092D01*
X758251Y673920D01*
X761180Y676849D01*
X765008Y678435D01*
X769152Y678435D01*
X772980Y676849D01*
X775909Y673920D01*
X777495Y670092D01*
X777495Y665948D01*
X775909Y662120D01*
X772980Y659191D01*
X769152Y657605D01*
X765008Y657605D01*
G37*
%LPD*%
%LPC*%
G36*
X765008Y683005D02*
X765008Y683005D01*
X761180Y684591D01*
X758251Y687520D01*
X756665Y691348D01*
X756665Y695492D01*
X758251Y699320D01*
X761180Y702249D01*
X765008Y703835D01*
X769152Y703835D01*
X772980Y702249D01*
X775909Y699320D01*
X777495Y695492D01*
X777495Y691348D01*
X775909Y687520D01*
X772980Y684591D01*
X769152Y683005D01*
X765008Y683005D01*
G37*
%LPD*%
%LPC*%
G36*
X765008Y556005D02*
X765008Y556005D01*
X761180Y557591D01*
X758251Y560520D01*
X756665Y564348D01*
X756665Y568492D01*
X758251Y572320D01*
X761180Y575249D01*
X765008Y576835D01*
X769152Y576835D01*
X772980Y575249D01*
X775909Y572320D01*
X777495Y568492D01*
X777495Y564348D01*
X775909Y560520D01*
X772980Y557591D01*
X769152Y556005D01*
X765008Y556005D01*
G37*
%LPD*%
%LPC*%
G36*
X765008Y759205D02*
X765008Y759205D01*
X761180Y760791D01*
X758251Y763720D01*
X756665Y767548D01*
X756665Y771692D01*
X758251Y775520D01*
X761180Y778449D01*
X765008Y780035D01*
X769152Y780035D01*
X772980Y778449D01*
X775909Y775520D01*
X777495Y771692D01*
X777495Y767548D01*
X775909Y763720D01*
X772980Y760791D01*
X769152Y759205D01*
X765008Y759205D01*
G37*
%LPD*%
%LPC*%
G36*
X765008Y581405D02*
X765008Y581405D01*
X761180Y582991D01*
X758251Y585920D01*
X756665Y589748D01*
X756665Y593892D01*
X758251Y597720D01*
X761180Y600649D01*
X765008Y602235D01*
X769152Y602235D01*
X772980Y600649D01*
X775909Y597720D01*
X777495Y593892D01*
X777495Y589748D01*
X775909Y585920D01*
X772980Y582991D01*
X769152Y581405D01*
X765008Y581405D01*
G37*
%LPD*%
%LPC*%
G36*
X87121Y292861D02*
X87121Y292861D01*
X87121Y314246D01*
X89032Y314030D01*
X91605Y313443D01*
X94096Y312571D01*
X96473Y311426D01*
X98708Y310022D01*
X100771Y308377D01*
X102637Y306511D01*
X104282Y304448D01*
X105686Y302213D01*
X106831Y299836D01*
X107703Y297345D01*
X108290Y294772D01*
X108506Y292861D01*
X87121Y292861D01*
G37*
%LPD*%
%LPC*%
G36*
X88391Y550671D02*
X88391Y550671D01*
X88391Y572056D01*
X90302Y571840D01*
X92875Y571253D01*
X95366Y570381D01*
X97743Y569236D01*
X99978Y567832D01*
X102041Y566187D01*
X103907Y564321D01*
X105552Y562258D01*
X106956Y560023D01*
X108101Y557646D01*
X108973Y555155D01*
X109560Y552582D01*
X109776Y550671D01*
X88391Y550671D01*
G37*
%LPD*%
%LPC*%
G36*
X89661Y426211D02*
X89661Y426211D01*
X89661Y447596D01*
X91572Y447380D01*
X94145Y446793D01*
X96636Y445921D01*
X99013Y444776D01*
X101248Y443372D01*
X103311Y441727D01*
X105177Y439861D01*
X106822Y437798D01*
X108226Y435563D01*
X109371Y433186D01*
X110243Y430695D01*
X110830Y428122D01*
X111046Y426211D01*
X89661Y426211D01*
G37*
%LPD*%
%LPC*%
G36*
X87121Y288799D02*
X87121Y288799D01*
X108506Y288799D01*
X108290Y286888D01*
X107703Y284315D01*
X106831Y281824D01*
X106746Y281646D01*
X106745Y281646D01*
X105768Y279616D01*
X105768Y279615D01*
X105686Y279447D01*
X104282Y277212D01*
X102637Y275149D01*
X100771Y273283D01*
X98708Y271638D01*
X97532Y270899D01*
X96473Y270234D01*
X94096Y269089D01*
X91605Y268217D01*
X89032Y267630D01*
X87121Y267414D01*
X87121Y288799D01*
G37*
%LPD*%
%LPC*%
G36*
X61674Y292861D02*
X61674Y292861D01*
X61890Y294772D01*
X62477Y297345D01*
X63349Y299836D01*
X63945Y301073D01*
X63945Y301074D01*
X64494Y302213D01*
X65898Y304448D01*
X67543Y306511D01*
X69409Y308377D01*
X71472Y310022D01*
X72719Y310806D01*
X73707Y311426D01*
X76084Y312571D01*
X78575Y313443D01*
X81148Y314030D01*
X83059Y314246D01*
X83059Y292861D01*
X61674Y292861D01*
G37*
%LPD*%
%LPC*%
G36*
X64214Y426211D02*
X64214Y426211D01*
X64430Y428122D01*
X65017Y430695D01*
X65889Y433186D01*
X66804Y435086D01*
X67034Y435563D01*
X68438Y437798D01*
X70083Y439861D01*
X71949Y441727D01*
X74012Y443372D01*
X76247Y444776D01*
X78624Y445921D01*
X81115Y446793D01*
X83688Y447380D01*
X85599Y447596D01*
X85599Y426211D01*
X64214Y426211D01*
G37*
%LPD*%
%LPC*%
G36*
X88391Y546609D02*
X88391Y546609D01*
X109776Y546609D01*
X109560Y544698D01*
X108973Y542125D01*
X108101Y539634D01*
X107557Y538505D01*
X107557Y538504D01*
X106956Y537257D01*
X105552Y535022D01*
X103907Y532959D01*
X102041Y531093D01*
X99978Y529448D01*
X98903Y528772D01*
X97743Y528044D01*
X95366Y526899D01*
X92875Y526027D01*
X90302Y525440D01*
X88391Y525224D01*
X88391Y546609D01*
G37*
%LPD*%
%LPC*%
G36*
X89661Y422149D02*
X89661Y422149D01*
X111046Y422149D01*
X110830Y420238D01*
X110243Y417665D01*
X109371Y415174D01*
X108627Y413629D01*
X108627Y413628D01*
X108226Y412797D01*
X106822Y410562D01*
X105177Y408499D01*
X103311Y406633D01*
X101248Y404988D01*
X99013Y403584D01*
X96636Y402439D01*
X94145Y401567D01*
X91572Y400980D01*
X89661Y400764D01*
X89661Y422149D01*
G37*
%LPD*%
%LPC*%
G36*
X62944Y550671D02*
X62944Y550671D01*
X63160Y552582D01*
X63747Y555155D01*
X64619Y557646D01*
X64756Y557931D01*
X64756Y557932D01*
X65734Y559962D01*
X65764Y560023D01*
X67168Y562258D01*
X68813Y564321D01*
X70679Y566187D01*
X72742Y567832D01*
X74090Y568679D01*
X74977Y569236D01*
X77354Y570381D01*
X79845Y571253D01*
X82418Y571840D01*
X84329Y572056D01*
X84329Y550671D01*
X62944Y550671D01*
G37*
%LPD*%
%LPC*%
G36*
X83688Y400980D02*
X83688Y400980D01*
X81115Y401567D01*
X78624Y402439D01*
X76247Y403584D01*
X74012Y404988D01*
X71949Y406633D01*
X70083Y408499D01*
X68438Y410562D01*
X67034Y412797D01*
X65889Y415174D01*
X65017Y417665D01*
X64430Y420238D01*
X64214Y422149D01*
X85599Y422149D01*
X85599Y400764D01*
X83688Y400980D01*
G37*
%LPD*%
%LPC*%
G36*
X81148Y267630D02*
X81148Y267630D01*
X78575Y268217D01*
X76084Y269089D01*
X73707Y270234D01*
X71472Y271638D01*
X69409Y273283D01*
X67543Y275149D01*
X65898Y277212D01*
X64494Y279447D01*
X63349Y281824D01*
X62477Y284315D01*
X61890Y286888D01*
X61674Y288799D01*
X83059Y288799D01*
X83059Y267414D01*
X81148Y267630D01*
G37*
%LPD*%
%LPC*%
G36*
X82418Y525440D02*
X82418Y525440D01*
X79845Y526027D01*
X77354Y526899D01*
X74977Y528044D01*
X72742Y529448D01*
X70679Y531093D01*
X68813Y532959D01*
X67168Y535022D01*
X65764Y537257D01*
X64619Y539634D01*
X63747Y542125D01*
X63160Y544698D01*
X62944Y546609D01*
X84329Y546609D01*
X84329Y525224D01*
X82418Y525440D01*
G37*
%LPD*%
%LPC*%
G36*
X972119Y39623D02*
X972119Y39623D01*
X968478Y41132D01*
X965692Y43918D01*
X964183Y47559D01*
X964183Y51501D01*
X965692Y55142D01*
X968478Y57928D01*
X972119Y59437D01*
X976061Y59437D01*
X979702Y57928D01*
X982488Y55142D01*
X983997Y51501D01*
X983997Y47559D01*
X982488Y43918D01*
X979702Y41132D01*
X976061Y39623D01*
X972119Y39623D01*
G37*
%LPD*%
%LPC*%
G36*
X997519Y14223D02*
X997519Y14223D01*
X993878Y15732D01*
X991092Y18518D01*
X989583Y22159D01*
X989583Y26101D01*
X991092Y29742D01*
X993878Y32528D01*
X997519Y34037D01*
X1001461Y34037D01*
X1005102Y32528D01*
X1007888Y29742D01*
X1009397Y26101D01*
X1009397Y22159D01*
X1007888Y18518D01*
X1005102Y15732D01*
X1001461Y14223D01*
X997519Y14223D01*
G37*
%LPD*%
%LPC*%
G36*
X972119Y14223D02*
X972119Y14223D01*
X968478Y15732D01*
X965692Y18518D01*
X964183Y22159D01*
X964183Y26101D01*
X965692Y29742D01*
X968478Y32528D01*
X972119Y34037D01*
X976061Y34037D01*
X979702Y32528D01*
X982488Y29742D01*
X983997Y26101D01*
X983997Y22159D01*
X982488Y18518D01*
X979702Y15732D01*
X976061Y14223D01*
X972119Y14223D01*
G37*
%LPD*%
%LPC*%
G36*
X946719Y14223D02*
X946719Y14223D01*
X943078Y15732D01*
X940292Y18518D01*
X938783Y22159D01*
X938783Y26101D01*
X940292Y29742D01*
X943078Y32528D01*
X946719Y34037D01*
X950661Y34037D01*
X954302Y32528D01*
X957088Y29742D01*
X958597Y26101D01*
X958597Y22159D01*
X957088Y18518D01*
X954302Y15732D01*
X950661Y14223D01*
X946719Y14223D01*
G37*
%LPD*%
%LPC*%
G36*
X553973Y729063D02*
X553973Y729063D01*
X553973Y747553D01*
X556368Y747238D01*
X558906Y746558D01*
X561333Y745553D01*
X563608Y744239D01*
X565692Y742640D01*
X567550Y740782D01*
X569149Y738698D01*
X570463Y736423D01*
X571468Y733996D01*
X572148Y731458D01*
X572463Y729063D01*
X553973Y729063D01*
G37*
%LPD*%
%LPC*%
G36*
X247903Y729063D02*
X247903Y729063D01*
X247903Y747553D01*
X250298Y747238D01*
X252836Y746558D01*
X255263Y745553D01*
X257538Y744239D01*
X259622Y742640D01*
X261480Y740782D01*
X263079Y738698D01*
X264393Y736423D01*
X265398Y733996D01*
X266078Y731458D01*
X266393Y729063D01*
X247903Y729063D01*
G37*
%LPD*%
%LPC*%
G36*
X396493Y729063D02*
X396493Y729063D01*
X396493Y747553D01*
X398888Y747238D01*
X401426Y746558D01*
X403853Y745553D01*
X406128Y744239D01*
X408212Y742640D01*
X410070Y740782D01*
X411669Y738698D01*
X412983Y736423D01*
X413988Y733996D01*
X414668Y731458D01*
X414983Y729063D01*
X396493Y729063D01*
G37*
%LPD*%
%LPC*%
G36*
X91693Y729063D02*
X91693Y729063D01*
X91693Y747553D01*
X94088Y747238D01*
X96626Y746558D01*
X99053Y745553D01*
X101328Y744239D01*
X103412Y742640D01*
X105270Y740782D01*
X106869Y738698D01*
X108183Y736423D01*
X109188Y733996D01*
X109868Y731458D01*
X110183Y729063D01*
X91693Y729063D01*
G37*
%LPD*%
%LPC*%
G36*
X226367Y729063D02*
X226367Y729063D01*
X226682Y731458D01*
X227362Y733996D01*
X228367Y736423D01*
X229681Y738698D01*
X231280Y740782D01*
X233138Y742640D01*
X235222Y744239D01*
X237497Y745553D01*
X239924Y746558D01*
X242462Y747238D01*
X244857Y747553D01*
X244857Y729063D01*
X226367Y729063D01*
G37*
%LPD*%
%LPC*%
G36*
X70157Y729063D02*
X70157Y729063D01*
X70472Y731458D01*
X71152Y733996D01*
X72157Y736423D01*
X73471Y738698D01*
X75070Y740782D01*
X76928Y742640D01*
X79012Y744239D01*
X81287Y745553D01*
X83714Y746558D01*
X86252Y747238D01*
X88647Y747553D01*
X88647Y729063D01*
X70157Y729063D01*
G37*
%LPD*%
%LPC*%
G36*
X532437Y729063D02*
X532437Y729063D01*
X532752Y731458D01*
X533432Y733996D01*
X534437Y736423D01*
X535751Y738698D01*
X537350Y740782D01*
X539208Y742640D01*
X541292Y744239D01*
X543567Y745553D01*
X545994Y746558D01*
X548532Y747238D01*
X550927Y747553D01*
X550927Y729063D01*
X532437Y729063D01*
G37*
%LPD*%
%LPC*%
G36*
X396493Y726017D02*
X396493Y726017D01*
X414983Y726017D01*
X414668Y723622D01*
X413988Y721084D01*
X412983Y718657D01*
X411669Y716382D01*
X410070Y714298D01*
X408212Y712440D01*
X406128Y710841D01*
X403853Y709527D01*
X401426Y708522D01*
X398888Y707842D01*
X396493Y707527D01*
X396493Y726017D01*
G37*
%LPD*%
%LPC*%
G36*
X91693Y726017D02*
X91693Y726017D01*
X110183Y726017D01*
X109868Y723622D01*
X109188Y721084D01*
X108183Y718657D01*
X106869Y716382D01*
X105270Y714298D01*
X103412Y712440D01*
X101328Y710841D01*
X99053Y709527D01*
X96626Y708522D01*
X94088Y707842D01*
X91693Y707527D01*
X91693Y726017D01*
G37*
%LPD*%
%LPC*%
G36*
X553973Y726017D02*
X553973Y726017D01*
X572463Y726017D01*
X572148Y723622D01*
X571468Y721084D01*
X570463Y718657D01*
X569149Y716382D01*
X567550Y714298D01*
X565692Y712440D01*
X563608Y710841D01*
X561333Y709527D01*
X558906Y708522D01*
X556368Y707842D01*
X553973Y707527D01*
X553973Y726017D01*
G37*
%LPD*%
%LPC*%
G36*
X247903Y726017D02*
X247903Y726017D01*
X266393Y726017D01*
X266078Y723622D01*
X265398Y721084D01*
X264393Y718657D01*
X263079Y716382D01*
X261480Y714298D01*
X259622Y712440D01*
X257538Y710841D01*
X255263Y709527D01*
X252836Y708522D01*
X250298Y707842D01*
X247903Y707527D01*
X247903Y726017D01*
G37*
%LPD*%
%LPC*%
G36*
X374957Y729063D02*
X374957Y729063D01*
X375272Y731458D01*
X375952Y733996D01*
X376957Y736423D01*
X378271Y738698D01*
X379870Y740782D01*
X381728Y742640D01*
X383812Y744239D01*
X386087Y745553D01*
X388514Y746558D01*
X391052Y747238D01*
X393447Y747553D01*
X393447Y729063D01*
X374957Y729063D01*
G37*
%LPD*%
%LPC*%
G36*
X242462Y707842D02*
X242462Y707842D01*
X239924Y708522D01*
X237497Y709527D01*
X235222Y710841D01*
X233138Y712440D01*
X231280Y714298D01*
X229681Y716382D01*
X228367Y718657D01*
X227362Y721084D01*
X226682Y723622D01*
X226367Y726017D01*
X244857Y726017D01*
X244857Y707527D01*
X242462Y707842D01*
G37*
%LPD*%
%LPC*%
G36*
X86252Y707842D02*
X86252Y707842D01*
X83714Y708522D01*
X81287Y709527D01*
X79012Y710841D01*
X76928Y712440D01*
X75070Y714298D01*
X73471Y716382D01*
X72157Y718657D01*
X71152Y721084D01*
X70472Y723622D01*
X70157Y726017D01*
X88647Y726017D01*
X88647Y707527D01*
X86252Y707842D01*
G37*
%LPD*%
%LPC*%
G36*
X548532Y707842D02*
X548532Y707842D01*
X545994Y708522D01*
X543567Y709527D01*
X541292Y710841D01*
X539208Y712440D01*
X537350Y714298D01*
X535751Y716382D01*
X534437Y718657D01*
X533432Y721084D01*
X532752Y723622D01*
X532437Y726017D01*
X550927Y726017D01*
X550927Y707527D01*
X548532Y707842D01*
G37*
%LPD*%
%LPC*%
G36*
X391052Y707842D02*
X391052Y707842D01*
X388514Y708522D01*
X386087Y709527D01*
X383812Y710841D01*
X381728Y712440D01*
X379870Y714298D01*
X378271Y716382D01*
X376957Y718657D01*
X375952Y721084D01*
X375272Y723622D01*
X374957Y726017D01*
X393447Y726017D01*
X393447Y707527D01*
X391052Y707842D01*
G37*
%LPD*%
%LPC*%
G36*
X980058Y528907D02*
X980058Y528907D01*
X977007Y530171D01*
X974671Y532507D01*
X973407Y535558D01*
X973407Y538862D01*
X974671Y541913D01*
X977007Y544249D01*
X980058Y545513D01*
X983362Y545513D01*
X986413Y544249D01*
X988749Y541913D01*
X990013Y538862D01*
X990013Y535558D01*
X988749Y532507D01*
X986413Y530171D01*
X983362Y528907D01*
X980058Y528907D01*
G37*
%LPD*%
%LPC*%
G36*
X717803Y101213D02*
X717803Y101213D01*
X717803Y114799D01*
X718851Y114661D01*
X720845Y114127D01*
X722753Y113337D01*
X724540Y112305D01*
X726178Y111048D01*
X727638Y109588D01*
X728895Y107950D01*
X729927Y106163D01*
X730717Y104255D01*
X731251Y102261D01*
X731389Y101213D01*
X717803Y101213D01*
G37*
%LPD*%
%LPC*%
G36*
X820551Y101213D02*
X820551Y101213D01*
X820689Y102261D01*
X821223Y104255D01*
X822013Y106163D01*
X823045Y107950D01*
X824302Y109588D01*
X825762Y111048D01*
X827400Y112305D01*
X829187Y113337D01*
X831095Y114127D01*
X833089Y114661D01*
X834137Y114799D01*
X834137Y101213D01*
X820551Y101213D01*
G37*
%LPD*%
%LPC*%
G36*
X700155Y101213D02*
X700155Y101213D01*
X700293Y102261D01*
X700827Y104255D01*
X701617Y106163D01*
X702649Y107950D01*
X703906Y109588D01*
X705366Y111048D01*
X707004Y112305D01*
X708791Y113337D01*
X710699Y114127D01*
X712693Y114661D01*
X713741Y114799D01*
X713741Y101213D01*
X700155Y101213D01*
G37*
%LPD*%
%LPC*%
G36*
X717803Y97151D02*
X717803Y97151D01*
X731389Y97151D01*
X731251Y96103D01*
X730717Y94109D01*
X729927Y92201D01*
X728895Y90414D01*
X727638Y88776D01*
X726178Y87316D01*
X724540Y86059D01*
X722753Y85027D01*
X720845Y84237D01*
X718851Y83703D01*
X717803Y83565D01*
X717803Y97151D01*
G37*
%LPD*%
%LPC*%
G36*
X833089Y83703D02*
X833089Y83703D01*
X831095Y84237D01*
X829187Y85027D01*
X827400Y86059D01*
X825762Y87316D01*
X824302Y88776D01*
X823045Y90414D01*
X822013Y92201D01*
X821223Y94109D01*
X820689Y96103D01*
X820551Y97151D01*
X834137Y97151D01*
X834137Y83565D01*
X833089Y83703D01*
G37*
%LPD*%
%LPC*%
G36*
X712693Y83703D02*
X712693Y83703D01*
X710699Y84237D01*
X708791Y85027D01*
X707004Y86059D01*
X705366Y87316D01*
X703906Y88776D01*
X702649Y90414D01*
X701617Y92201D01*
X700827Y94109D01*
X700293Y96103D01*
X700155Y97151D01*
X713741Y97151D01*
X713741Y83565D01*
X712693Y83703D01*
G37*
%LPD*%
%LPC*%
G36*
X483361Y59181D02*
X483361Y59181D01*
X483361Y68916D01*
X484126Y68795D01*
X485913Y68214D01*
X487587Y67361D01*
X489108Y66256D01*
X490436Y64928D01*
X491541Y63407D01*
X492394Y61733D01*
X492975Y59946D01*
X493096Y59181D01*
X483361Y59181D01*
G37*
%LPD*%
%LPC*%
G36*
X483361Y55119D02*
X483361Y55119D01*
X493096Y55119D01*
X492975Y54354D01*
X492394Y52567D01*
X491541Y50893D01*
X490436Y49372D01*
X489108Y48044D01*
X487587Y46939D01*
X485913Y46086D01*
X484126Y45505D01*
X483361Y45384D01*
X483361Y55119D01*
G37*
%LPD*%
%LPC*%
G36*
X845311Y568451D02*
X845311Y568451D01*
X845311Y577672D01*
X845957Y577569D01*
X847668Y577013D01*
X849271Y576196D01*
X850727Y575139D01*
X851999Y573867D01*
X853056Y572411D01*
X853873Y570808D01*
X854429Y569097D01*
X854532Y568451D01*
X845311Y568451D01*
G37*
%LPD*%
%LPC*%
G36*
X845311Y746251D02*
X845311Y746251D01*
X845311Y755472D01*
X845957Y755369D01*
X847668Y754813D01*
X849271Y753996D01*
X850727Y752939D01*
X851999Y751667D01*
X853056Y750211D01*
X853873Y748608D01*
X854429Y746897D01*
X854532Y746251D01*
X845311Y746251D01*
G37*
%LPD*%
%LPC*%
G36*
X845311Y670051D02*
X845311Y670051D01*
X845311Y679272D01*
X845957Y679169D01*
X847668Y678613D01*
X849271Y677796D01*
X850727Y676739D01*
X851999Y675467D01*
X853056Y674011D01*
X853873Y672408D01*
X854429Y670697D01*
X854532Y670051D01*
X845311Y670051D01*
G37*
%LPD*%
%LPC*%
G36*
X845311Y543051D02*
X845311Y543051D01*
X845311Y552272D01*
X845957Y552169D01*
X847668Y551613D01*
X849271Y550796D01*
X850727Y549739D01*
X851999Y548467D01*
X853056Y547011D01*
X853873Y545408D01*
X854429Y543697D01*
X854532Y543051D01*
X845311Y543051D01*
G37*
%LPD*%
%LPC*%
G36*
X845311Y619251D02*
X845311Y619251D01*
X845311Y628472D01*
X845957Y628369D01*
X847668Y627813D01*
X849271Y626996D01*
X850727Y625939D01*
X851999Y624667D01*
X853056Y623211D01*
X853873Y621608D01*
X854429Y619897D01*
X854532Y619251D01*
X845311Y619251D01*
G37*
%LPD*%
%LPC*%
G36*
X845311Y695451D02*
X845311Y695451D01*
X845311Y704672D01*
X845957Y704569D01*
X847668Y704013D01*
X849271Y703196D01*
X850727Y702139D01*
X851999Y700867D01*
X853056Y699411D01*
X853873Y697808D01*
X854429Y696097D01*
X854532Y695451D01*
X845311Y695451D01*
G37*
%LPD*%
%LPC*%
G36*
X845311Y720851D02*
X845311Y720851D01*
X845311Y730072D01*
X845957Y729969D01*
X847668Y729413D01*
X849271Y728596D01*
X850727Y727539D01*
X851999Y726267D01*
X853056Y724811D01*
X853873Y723208D01*
X854429Y721497D01*
X854532Y720851D01*
X845311Y720851D01*
G37*
%LPD*%
%LPC*%
G36*
X845311Y593851D02*
X845311Y593851D01*
X845311Y603072D01*
X845957Y602969D01*
X847668Y602413D01*
X849271Y601596D01*
X850727Y600539D01*
X851999Y599267D01*
X853056Y597811D01*
X853873Y596208D01*
X854429Y594497D01*
X854532Y593851D01*
X845311Y593851D01*
G37*
%LPD*%
%LPC*%
G36*
X845311Y644651D02*
X845311Y644651D01*
X845311Y653872D01*
X845957Y653769D01*
X847668Y653213D01*
X849271Y652396D01*
X850727Y651339D01*
X851999Y650067D01*
X853056Y648611D01*
X853873Y647008D01*
X854429Y645297D01*
X854532Y644651D01*
X845311Y644651D01*
G37*
%LPD*%
%LPC*%
G36*
X845311Y771651D02*
X845311Y771651D01*
X845311Y780872D01*
X845957Y780769D01*
X847668Y780213D01*
X849271Y779396D01*
X850727Y778339D01*
X851999Y777067D01*
X853056Y775611D01*
X853873Y774008D01*
X854429Y772297D01*
X854532Y771651D01*
X845311Y771651D01*
G37*
%LPD*%
%LPC*%
G36*
X832028Y568451D02*
X832028Y568451D01*
X832131Y569097D01*
X832687Y570808D01*
X833504Y572411D01*
X834561Y573867D01*
X835833Y575139D01*
X837289Y576196D01*
X838892Y577013D01*
X840603Y577569D01*
X841249Y577672D01*
X841249Y568451D01*
X832028Y568451D01*
G37*
%LPD*%
%LPC*%
G36*
X832028Y695451D02*
X832028Y695451D01*
X832131Y696097D01*
X832687Y697808D01*
X833504Y699411D01*
X834561Y700867D01*
X835833Y702139D01*
X837289Y703196D01*
X838892Y704013D01*
X840603Y704569D01*
X841249Y704672D01*
X841249Y695451D01*
X832028Y695451D01*
G37*
%LPD*%
%LPC*%
G36*
X845311Y564389D02*
X845311Y564389D01*
X854532Y564389D01*
X854429Y563743D01*
X853873Y562032D01*
X853056Y560429D01*
X851999Y558973D01*
X850727Y557701D01*
X849271Y556644D01*
X847668Y555827D01*
X845957Y555271D01*
X845311Y555168D01*
X845311Y564389D01*
G37*
%LPD*%
%LPC*%
G36*
X845311Y716789D02*
X845311Y716789D01*
X854532Y716789D01*
X854429Y716143D01*
X853873Y714432D01*
X853056Y712829D01*
X851999Y711373D01*
X850727Y710101D01*
X849271Y709044D01*
X847668Y708227D01*
X845957Y707671D01*
X845311Y707568D01*
X845311Y716789D01*
G37*
%LPD*%
%LPC*%
G36*
X832028Y543051D02*
X832028Y543051D01*
X832131Y543697D01*
X832687Y545408D01*
X833504Y547011D01*
X834561Y548467D01*
X835833Y549739D01*
X837289Y550796D01*
X838892Y551613D01*
X840603Y552169D01*
X841249Y552272D01*
X841249Y543051D01*
X832028Y543051D01*
G37*
%LPD*%
%LPC*%
G36*
X845311Y589789D02*
X845311Y589789D01*
X854532Y589789D01*
X854429Y589143D01*
X853873Y587432D01*
X853056Y585829D01*
X851999Y584373D01*
X850727Y583101D01*
X849271Y582044D01*
X847668Y581227D01*
X845957Y580671D01*
X845311Y580568D01*
X845311Y589789D01*
G37*
%LPD*%
%LPC*%
G36*
X832028Y720851D02*
X832028Y720851D01*
X832131Y721497D01*
X832687Y723208D01*
X833504Y724811D01*
X834561Y726267D01*
X835833Y727539D01*
X837289Y728596D01*
X838892Y729413D01*
X840603Y729969D01*
X841249Y730072D01*
X841249Y720851D01*
X832028Y720851D01*
G37*
%LPD*%
%LPC*%
G36*
X845311Y742189D02*
X845311Y742189D01*
X854532Y742189D01*
X854429Y741543D01*
X853873Y739832D01*
X853056Y738229D01*
X851999Y736773D01*
X850727Y735501D01*
X849271Y734444D01*
X847668Y733627D01*
X845957Y733071D01*
X845311Y732968D01*
X845311Y742189D01*
G37*
%LPD*%
%LPC*%
G36*
X832028Y746251D02*
X832028Y746251D01*
X832131Y746897D01*
X832687Y748608D01*
X833504Y750211D01*
X834561Y751667D01*
X835833Y752939D01*
X837289Y753996D01*
X838892Y754813D01*
X840603Y755369D01*
X841249Y755472D01*
X841249Y746251D01*
X832028Y746251D01*
G37*
%LPD*%
%LPC*%
G36*
X832028Y593851D02*
X832028Y593851D01*
X832131Y594497D01*
X832687Y596208D01*
X833504Y597811D01*
X834561Y599267D01*
X835833Y600539D01*
X837289Y601596D01*
X838892Y602413D01*
X840603Y602969D01*
X841249Y603072D01*
X841249Y593851D01*
X832028Y593851D01*
G37*
%LPD*%
%LPC*%
G36*
X845311Y767589D02*
X845311Y767589D01*
X854532Y767589D01*
X854429Y766943D01*
X853873Y765232D01*
X853056Y763629D01*
X851999Y762173D01*
X850727Y760901D01*
X849271Y759844D01*
X847668Y759027D01*
X845957Y758471D01*
X845311Y758368D01*
X845311Y767589D01*
G37*
%LPD*%
%LPC*%
G36*
X832028Y771651D02*
X832028Y771651D01*
X832131Y772297D01*
X832687Y774008D01*
X833504Y775611D01*
X834561Y777067D01*
X835833Y778339D01*
X837289Y779396D01*
X838892Y780213D01*
X840603Y780769D01*
X841249Y780872D01*
X841249Y771651D01*
X832028Y771651D01*
G37*
%LPD*%
%LPC*%
G36*
X845311Y538989D02*
X845311Y538989D01*
X854532Y538989D01*
X854429Y538343D01*
X853873Y536632D01*
X853056Y535029D01*
X851999Y533573D01*
X850727Y532301D01*
X849271Y531244D01*
X847668Y530427D01*
X845957Y529871D01*
X845311Y529768D01*
X845311Y538989D01*
G37*
%LPD*%
%LPC*%
G36*
X845311Y615189D02*
X845311Y615189D01*
X854532Y615189D01*
X854429Y614543D01*
X853873Y612832D01*
X853056Y611229D01*
X851999Y609773D01*
X850727Y608501D01*
X849271Y607444D01*
X847668Y606627D01*
X845957Y606071D01*
X845311Y605968D01*
X845311Y615189D01*
G37*
%LPD*%
%LPC*%
G36*
X832028Y619251D02*
X832028Y619251D01*
X832131Y619897D01*
X832687Y621608D01*
X833504Y623211D01*
X834561Y624667D01*
X835833Y625939D01*
X837289Y626996D01*
X838892Y627813D01*
X840603Y628369D01*
X841249Y628472D01*
X841249Y619251D01*
X832028Y619251D01*
G37*
%LPD*%
%LPC*%
G36*
X845311Y640589D02*
X845311Y640589D01*
X854532Y640589D01*
X854429Y639943D01*
X853873Y638232D01*
X853056Y636629D01*
X851999Y635173D01*
X850727Y633901D01*
X849271Y632844D01*
X847668Y632027D01*
X845957Y631471D01*
X845311Y631368D01*
X845311Y640589D01*
G37*
%LPD*%
%LPC*%
G36*
X832028Y644651D02*
X832028Y644651D01*
X832131Y645297D01*
X832687Y647008D01*
X833504Y648611D01*
X834561Y650067D01*
X835833Y651339D01*
X837289Y652396D01*
X838892Y653213D01*
X840603Y653769D01*
X841249Y653872D01*
X841249Y644651D01*
X832028Y644651D01*
G37*
%LPD*%
%LPC*%
G36*
X845311Y665989D02*
X845311Y665989D01*
X854532Y665989D01*
X854429Y665343D01*
X853873Y663632D01*
X853056Y662029D01*
X851999Y660573D01*
X850727Y659301D01*
X849271Y658244D01*
X847668Y657427D01*
X845957Y656871D01*
X845311Y656768D01*
X845311Y665989D01*
G37*
%LPD*%
%LPC*%
G36*
X832028Y670051D02*
X832028Y670051D01*
X832131Y670697D01*
X832687Y672408D01*
X833504Y674011D01*
X834561Y675467D01*
X835833Y676739D01*
X837289Y677796D01*
X838892Y678613D01*
X840603Y679169D01*
X841249Y679272D01*
X841249Y670051D01*
X832028Y670051D01*
G37*
%LPD*%
%LPC*%
G36*
X845311Y691389D02*
X845311Y691389D01*
X854532Y691389D01*
X854429Y690743D01*
X853873Y689032D01*
X853056Y687429D01*
X851999Y685973D01*
X850727Y684701D01*
X849271Y683644D01*
X847668Y682827D01*
X845957Y682271D01*
X845311Y682168D01*
X845311Y691389D01*
G37*
%LPD*%
%LPC*%
G36*
X840603Y555271D02*
X840603Y555271D01*
X838892Y555827D01*
X837289Y556644D01*
X835833Y557701D01*
X834561Y558973D01*
X833504Y560429D01*
X832687Y562032D01*
X832131Y563743D01*
X832028Y564389D01*
X841249Y564389D01*
X841249Y555168D01*
X840603Y555271D01*
G37*
%LPD*%
%LPC*%
G36*
X840603Y656871D02*
X840603Y656871D01*
X838892Y657427D01*
X837289Y658244D01*
X835833Y659301D01*
X834561Y660573D01*
X833504Y662029D01*
X832687Y663632D01*
X832131Y665343D01*
X832028Y665989D01*
X841249Y665989D01*
X841249Y656768D01*
X840603Y656871D01*
G37*
%LPD*%
%LPC*%
G36*
X840603Y631471D02*
X840603Y631471D01*
X838892Y632027D01*
X837289Y632844D01*
X835833Y633901D01*
X834561Y635173D01*
X833504Y636629D01*
X832687Y638232D01*
X832131Y639943D01*
X832028Y640589D01*
X841249Y640589D01*
X841249Y631368D01*
X840603Y631471D01*
G37*
%LPD*%
%LPC*%
G36*
X840603Y733071D02*
X840603Y733071D01*
X838892Y733627D01*
X837289Y734444D01*
X835833Y735501D01*
X834561Y736773D01*
X833504Y738229D01*
X832687Y739832D01*
X832131Y741543D01*
X832028Y742189D01*
X841249Y742189D01*
X841249Y732968D01*
X840603Y733071D01*
G37*
%LPD*%
%LPC*%
G36*
X840603Y682271D02*
X840603Y682271D01*
X838892Y682827D01*
X837289Y683644D01*
X835833Y684701D01*
X834561Y685973D01*
X833504Y687429D01*
X832687Y689032D01*
X832131Y690743D01*
X832028Y691389D01*
X841249Y691389D01*
X841249Y682168D01*
X840603Y682271D01*
G37*
%LPD*%
%LPC*%
G36*
X840603Y606071D02*
X840603Y606071D01*
X838892Y606627D01*
X837289Y607444D01*
X835833Y608501D01*
X834561Y609773D01*
X833504Y611229D01*
X832687Y612832D01*
X832131Y614543D01*
X832028Y615189D01*
X841249Y615189D01*
X841249Y605968D01*
X840603Y606071D01*
G37*
%LPD*%
%LPC*%
G36*
X840603Y707671D02*
X840603Y707671D01*
X838892Y708227D01*
X837289Y709044D01*
X835833Y710101D01*
X834561Y711373D01*
X833504Y712829D01*
X832687Y714432D01*
X832131Y716143D01*
X832028Y716789D01*
X841249Y716789D01*
X841249Y707568D01*
X840603Y707671D01*
G37*
%LPD*%
%LPC*%
G36*
X840603Y758471D02*
X840603Y758471D01*
X838892Y759027D01*
X837289Y759844D01*
X835833Y760901D01*
X834561Y762173D01*
X833504Y763629D01*
X832687Y765232D01*
X832131Y766943D01*
X832028Y767589D01*
X841249Y767589D01*
X841249Y758368D01*
X840603Y758471D01*
G37*
%LPD*%
%LPC*%
G36*
X840603Y580671D02*
X840603Y580671D01*
X838892Y581227D01*
X837289Y582044D01*
X835833Y583101D01*
X834561Y584373D01*
X833504Y585829D01*
X832687Y587432D01*
X832131Y589143D01*
X832028Y589789D01*
X841249Y589789D01*
X841249Y580568D01*
X840603Y580671D01*
G37*
%LPD*%
%LPC*%
G36*
X840603Y529871D02*
X840603Y529871D01*
X838892Y530427D01*
X837289Y531244D01*
X835833Y532301D01*
X834561Y533573D01*
X833504Y535029D01*
X832687Y536632D01*
X832131Y538343D01*
X832028Y538989D01*
X841249Y538989D01*
X841249Y529768D01*
X840603Y529871D01*
G37*
%LPD*%
%LPC*%
G36*
X1001521Y51561D02*
X1001521Y51561D01*
X1001521Y60267D01*
X1002048Y60184D01*
X1003683Y59652D01*
X1005215Y58872D01*
X1006606Y57861D01*
X1007821Y56646D01*
X1008832Y55255D01*
X1009612Y53723D01*
X1010144Y52088D01*
X1010227Y51561D01*
X1001521Y51561D01*
G37*
%LPD*%
%LPC*%
G36*
X790501Y124329D02*
X790501Y124329D01*
X799207Y124329D01*
X799124Y123802D01*
X798592Y122167D01*
X797812Y120635D01*
X796801Y119244D01*
X795586Y118029D01*
X794195Y117018D01*
X792663Y116238D01*
X791028Y115706D01*
X790501Y115623D01*
X790501Y124329D01*
G37*
%LPD*%
%LPC*%
G36*
X988753Y51561D02*
X988753Y51561D01*
X988836Y52088D01*
X989368Y53723D01*
X990148Y55255D01*
X991159Y56646D01*
X992374Y57861D01*
X993765Y58872D01*
X995297Y59652D01*
X996932Y60184D01*
X997459Y60267D01*
X997459Y51561D01*
X988753Y51561D01*
G37*
%LPD*%
%LPC*%
G36*
X1001521Y47499D02*
X1001521Y47499D01*
X1010227Y47499D01*
X1010144Y46972D01*
X1009612Y45337D01*
X1008832Y43805D01*
X1007821Y42414D01*
X1006606Y41199D01*
X1005215Y40188D01*
X1003683Y39408D01*
X1002048Y38876D01*
X1001521Y38793D01*
X1001521Y47499D01*
G37*
%LPD*%
%LPC*%
G36*
X785912Y115706D02*
X785912Y115706D01*
X784277Y116238D01*
X782745Y117018D01*
X781354Y118029D01*
X780139Y119244D01*
X779128Y120635D01*
X778348Y122167D01*
X777816Y123802D01*
X777733Y124329D01*
X786439Y124329D01*
X786439Y115623D01*
X785912Y115706D01*
G37*
%LPD*%
%LPC*%
G36*
X996932Y38876D02*
X996932Y38876D01*
X995297Y39408D01*
X993765Y40188D01*
X992374Y41199D01*
X991159Y42414D01*
X990148Y43805D01*
X989368Y45337D01*
X988836Y46972D01*
X988753Y47499D01*
X997459Y47499D01*
X997459Y38793D01*
X996932Y38876D01*
G37*
%LPD*%
%LPC*%
G36*
X1059741Y539241D02*
X1059741Y539241D01*
X1059741Y546323D01*
X1059892Y546299D01*
X1061287Y545846D01*
X1062594Y545180D01*
X1063781Y544318D01*
X1064818Y543281D01*
X1065680Y542094D01*
X1066346Y540787D01*
X1066799Y539392D01*
X1066823Y539241D01*
X1059741Y539241D01*
G37*
%LPD*%
%LPC*%
G36*
X1048597Y539241D02*
X1048597Y539241D01*
X1048621Y539392D01*
X1049074Y540787D01*
X1049740Y542094D01*
X1050602Y543281D01*
X1051639Y544318D01*
X1052826Y545180D01*
X1054133Y545846D01*
X1055528Y546299D01*
X1055679Y546323D01*
X1055679Y539241D01*
X1048597Y539241D01*
G37*
%LPD*%
%LPC*%
G36*
X1059741Y535179D02*
X1059741Y535179D01*
X1066823Y535179D01*
X1066799Y535028D01*
X1066346Y533633D01*
X1065680Y532326D01*
X1064818Y531139D01*
X1063781Y530102D01*
X1062594Y529240D01*
X1061287Y528574D01*
X1059892Y528121D01*
X1059741Y528097D01*
X1059741Y535179D01*
G37*
%LPD*%
%LPC*%
G36*
X1055528Y528121D02*
X1055528Y528121D01*
X1054133Y528574D01*
X1052826Y529240D01*
X1051639Y530102D01*
X1050602Y531139D01*
X1049740Y532326D01*
X1049074Y533633D01*
X1048621Y535028D01*
X1048597Y535179D01*
X1055679Y535179D01*
X1055679Y528097D01*
X1055528Y528121D01*
G37*
%LPD*%
%LPC*%
G36*
X166369Y424179D02*
X166369Y424179D01*
X166369Y424181D01*
X166371Y424181D01*
X166371Y424179D01*
X166369Y424179D01*
G37*
%LPD*%
%LPC*%
G36*
X843279Y566419D02*
X843279Y566419D01*
X843279Y566421D01*
X843281Y566421D01*
X843281Y566419D01*
X843279Y566419D01*
G37*
%LPD*%
%LPC*%
G36*
X843279Y617219D02*
X843279Y617219D01*
X843279Y617221D01*
X843281Y617221D01*
X843281Y617219D01*
X843279Y617219D01*
G37*
%LPD*%
%LPC*%
G36*
X843279Y744219D02*
X843279Y744219D01*
X843279Y744221D01*
X843281Y744221D01*
X843281Y744219D01*
X843279Y744219D01*
G37*
%LPD*%
%LPC*%
G36*
X86359Y548639D02*
X86359Y548639D01*
X86359Y548641D01*
X86361Y548641D01*
X86361Y548639D01*
X86359Y548639D01*
G37*
%LPD*%
%LPC*%
G36*
X165099Y548639D02*
X165099Y548639D01*
X165099Y548641D01*
X165101Y548641D01*
X165101Y548639D01*
X165099Y548639D01*
G37*
%LPD*%
%LPC*%
G36*
X715771Y99181D02*
X715771Y99181D01*
X715771Y99183D01*
X715773Y99183D01*
X715773Y99181D01*
X715771Y99181D01*
G37*
%LPD*%
%LPC*%
G36*
X843279Y591819D02*
X843279Y591819D01*
X843279Y591821D01*
X843281Y591821D01*
X843281Y591819D01*
X843279Y591819D01*
G37*
%LPD*%
%LPC*%
G36*
X843279Y668019D02*
X843279Y668019D01*
X843279Y668021D01*
X843281Y668021D01*
X843281Y668019D01*
X843279Y668019D01*
G37*
%LPD*%
%LPC*%
G36*
X1057709Y537209D02*
X1057709Y537209D01*
X1057709Y537211D01*
X1057711Y537211D01*
X1057711Y537209D01*
X1057709Y537209D01*
G37*
%LPD*%
%LPC*%
G36*
X552449Y727539D02*
X552449Y727539D01*
X552449Y727541D01*
X552451Y727541D01*
X552451Y727539D01*
X552449Y727539D01*
G37*
%LPD*%
%LPC*%
G36*
X843279Y718819D02*
X843279Y718819D01*
X843279Y718821D01*
X843281Y718821D01*
X843281Y718819D01*
X843279Y718819D01*
G37*
%LPD*%
%LPC*%
G36*
X394969Y727539D02*
X394969Y727539D01*
X394969Y727541D01*
X394971Y727541D01*
X394971Y727539D01*
X394969Y727539D01*
G37*
%LPD*%
%LPC*%
G36*
X246379Y727539D02*
X246379Y727539D01*
X246379Y727541D01*
X246381Y727541D01*
X246381Y727539D01*
X246379Y727539D01*
G37*
%LPD*%
%LPC*%
G36*
X90169Y727539D02*
X90169Y727539D01*
X90169Y727541D01*
X90171Y727541D01*
X90171Y727539D01*
X90169Y727539D01*
G37*
%LPD*%
%LPC*%
G36*
X843279Y769619D02*
X843279Y769619D01*
X843279Y769621D01*
X843281Y769621D01*
X843281Y769619D01*
X843279Y769619D01*
G37*
%LPD*%
%LPC*%
G36*
X87629Y424179D02*
X87629Y424179D01*
X87629Y424181D01*
X87631Y424181D01*
X87631Y424179D01*
X87629Y424179D01*
G37*
%LPD*%
%LPC*%
G36*
X843279Y642619D02*
X843279Y642619D01*
X843279Y642621D01*
X843281Y642621D01*
X843281Y642619D01*
X843279Y642619D01*
G37*
%LPD*%
%LPC*%
G36*
X85089Y290829D02*
X85089Y290829D01*
X85089Y290831D01*
X85091Y290831D01*
X85091Y290829D01*
X85089Y290829D01*
G37*
%LPD*%
%LPC*%
G36*
X163829Y290829D02*
X163829Y290829D01*
X163829Y290831D01*
X163831Y290831D01*
X163831Y290829D01*
X163829Y290829D01*
G37*
%LPD*%
%LPC*%
G36*
X843279Y693419D02*
X843279Y693419D01*
X843279Y693421D01*
X843281Y693421D01*
X843281Y693419D01*
X843279Y693419D01*
G37*
%LPD*%
%LPC*%
G36*
X843279Y541019D02*
X843279Y541019D01*
X843279Y541021D01*
X843281Y541021D01*
X843281Y541019D01*
X843279Y541019D01*
G37*
%LPD*%
%LPC*%
G36*
X999489Y49529D02*
X999489Y49529D01*
X999489Y49531D01*
X999491Y49531D01*
X999491Y49529D01*
X999489Y49529D01*
G37*
%LPD*%
D10*
X166370Y424180D03*
X87630Y424180D03*
X85090Y290830D03*
X163830Y290830D03*
D11*
X481330Y57150D03*
X455930Y57150D03*
X430530Y57150D03*
X405130Y57150D03*
D12*
X552450Y794540D03*
X552450Y727540D03*
X90170Y794540D03*
X90170Y727540D03*
X394970Y794540D03*
X394970Y727540D03*
X246380Y794540D03*
X246380Y727540D03*
D13*
X102870Y110490D03*
X173990Y110490D03*
D14*
X767080Y769620D03*
X767080Y744220D03*
X767080Y718820D03*
X767080Y693420D03*
X767080Y668020D03*
X767080Y642620D03*
X767080Y617220D03*
X767080Y591820D03*
X767080Y566420D03*
X767080Y541020D03*
X843280Y541020D03*
X843280Y566420D03*
X843280Y591820D03*
X843280Y617220D03*
X843280Y642620D03*
X843280Y668020D03*
X843280Y693420D03*
X843280Y718820D03*
X843280Y744220D03*
X843280Y769620D03*
D11*
X592709Y95250D03*
X618820Y95250D03*
D15*
X981710Y537210D03*
X1057710Y537210D03*
D16*
X948690Y24130D03*
X974090Y24130D03*
X999490Y24130D03*
X948690Y49530D03*
X974090Y49530D03*
X999490Y49530D03*
D11*
X765810Y224790D03*
X791210Y224790D03*
X816610Y224790D03*
D10*
X165100Y548640D03*
X86360Y548640D03*
D16*
X788470Y146172D03*
X763470Y146172D03*
X763470Y126360D03*
X788470Y126360D03*
D17*
X836168Y99182D03*
X715772Y99182D03*
D18*
X184150Y177800D03*
X251460Y190500D03*
X242570Y148590D03*
X247650Y93980D03*
X369570Y114300D03*
X353060Y99060D03*
X341630Y85090D03*
X326390Y71120D03*
X309880Y57150D03*
X288290Y55880D03*
X266700Y59690D03*
X281940Y21590D03*
X320040Y22860D03*
X344170Y40640D03*
X361950Y55880D03*
X375920Y67310D03*
X488950Y176530D03*
X524510Y114300D03*
X444500Y15240D03*
X516890Y21590D03*
X509270Y76200D03*
X541020Y85090D03*
X544830Y116840D03*
X635000Y83820D03*
X681990Y41910D03*
X756920Y21590D03*
X572770Y237490D03*
X572770Y207010D03*
X657860Y255270D03*
X506730Y279400D03*
X541020Y336550D03*
X914400Y193040D03*
X934720Y598170D03*
X894080Y481330D03*
X892810Y584200D03*
X694690Y678180D03*
D19*
X645160Y600710D03*
D18*
X647700Y524510D03*
X676910Y452120D03*
X656590Y426720D03*
X655320Y389890D03*
X557530Y254000D03*
X554990Y208280D03*
X525780Y198120D03*
X600710Y238760D03*
X594360Y229870D03*
X581660Y218440D03*
X582930Y246380D03*
X557530Y228600D03*
D19*
X285750Y157480D03*
D20*
X304800Y138430D01*
X636270Y138430D02*
X645160Y147320D01*
D19*
X645160Y147320D03*
D20*
X636270Y138430D02*
X304800Y138430D01*
D18*
X665480Y210820D03*
X734060Y171450D03*
X1096010Y96520D03*
X1043940Y130810D03*
X971550Y196850D03*
X1093470Y153670D03*
X877570Y293370D03*
X896620Y309880D03*
X812800Y303530D03*
X852170Y321310D03*
X924560Y293370D03*
X966470Y243840D03*
X984250Y260350D03*
X1004570Y266700D03*
X1013460Y347980D03*
X1032510Y381000D03*
X1009650Y414020D03*
X994410Y364490D03*
X1045210Y480060D03*
X910590Y462280D03*
X928370Y481330D03*
X946150Y499110D03*
X911860Y499110D03*
X932180Y519430D03*
X815340Y430530D03*
X831850Y393700D03*
X735330Y436880D03*
X749300Y417830D03*
X808990Y364490D03*
X742950Y252730D03*
X581660Y311150D03*
X581660Y331470D03*
X610870Y326390D03*
X638810Y326390D03*
X885190Y213360D03*
X748030Y78740D03*
X681990Y328930D03*
X773430Y297180D03*
X869950Y43180D03*
X1103630Y483870D03*
X924560Y411480D03*
X928370Y325120D03*
X1013460Y623570D03*
X1028700Y679450D03*
X1027430Y730250D03*
X843280Y152400D03*
X843280Y135890D03*
X867410Y158750D03*
X867410Y132080D03*
X866140Y105410D03*
X855980Y69850D03*
X882650Y71120D03*
X897890Y62230D03*
X1068070Y217170D03*
D19*
X713740Y290830D03*
X966470Y344170D03*
D21*
X732790Y290830D02*
X713740Y290830D01*
X732790Y290830D02*
X769620Y254000D01*
X942340Y254000D01*
X969010Y280670D01*
X969010Y341630D02*
X966470Y344170D01*
X969010Y341630D02*
X969010Y280670D01*
D19*
X728980Y281940D03*
D21*
X762000Y248920D02*
X948690Y248920D01*
X762000Y248920D02*
X728980Y281940D01*
X948690Y248920D02*
X974090Y274320D01*
X974090Y353060D01*
D22*
X974090Y353060D03*
D18*
X676910Y308610D03*
X408940Y209550D03*
D22*
X670560Y264160D03*
D23*
X676910Y270510D01*
X676910Y308610D01*
X670560Y314960D01*
X664210Y314960D01*
X568960Y219710D01*
X419100Y219710D02*
X408940Y209550D01*
X419100Y219710D02*
X568960Y219710D01*
D18*
X20320Y35560D03*
X22860Y162560D03*
X27940Y269240D03*
X31750Y353060D03*
X100330Y309880D03*
X107950Y166370D03*
X88900Y353060D03*
X30480Y482600D03*
X85090Y487680D03*
X26670Y581660D03*
D19*
X341630Y156210D03*
D20*
X353060Y144780D01*
X615950Y144780D02*
X621030Y149860D01*
D19*
X621030Y149860D03*
D20*
X615950Y144780D02*
X353060Y144780D01*
D18*
X610870Y241300D03*
D24*
X628650Y223520D01*
X764540Y223520D01*
X765810Y224790D01*
D19*
X657860Y235422D03*
D21*
X665008Y242570D01*
X951230Y242570D01*
X986790Y278130D01*
X986790Y378460D01*
D19*
X986790Y378460D03*
D18*
X219710Y429260D03*
X356870Y270510D03*
X382270Y275590D03*
X204470Y236220D03*
X157480Y373380D03*
X193040Y355600D03*
X220980Y382270D03*
X44450Y670560D03*
X31750Y624840D03*
X85090Y624840D03*
X172720Y624840D03*
X170180Y661670D03*
X170180Y704850D03*
X389890Y593090D03*
X375920Y612140D03*
X389890Y579120D03*
X389890Y565150D03*
X389890Y552450D03*
X518160Y595630D03*
X474980Y614680D03*
X486410Y547370D03*
X389890Y537210D03*
X389890Y523240D03*
X381000Y490220D03*
X391160Y490220D03*
X401320Y490220D03*
X411480Y490220D03*
X491490Y483870D03*
X579120Y521970D03*
X577850Y546100D03*
X576580Y566420D03*
X577850Y591820D03*
X579120Y618490D03*
X605790Y617220D03*
X605790Y594360D03*
X607060Y570230D03*
X604520Y543560D03*
X604520Y524510D03*
X535940Y435610D03*
X440690Y406400D03*
X416560Y392430D03*
X363220Y391160D03*
X331470Y391160D03*
X300990Y391160D03*
X265430Y391160D03*
X412750Y267970D03*
X289560Y269240D03*
D22*
X327660Y236220D03*
X337820Y236220D03*
X347980Y236220D03*
X337820Y226060D03*
X327660Y226060D03*
X347980Y226060D03*
D18*
X247650Y610870D03*
X245110Y591820D03*
X243840Y572770D03*
X245110Y554990D03*
X246380Y537210D03*
D19*
X688340Y295910D03*
X972820Y369570D03*
D21*
X711712Y298450D02*
X690880Y298450D01*
X688340Y295910D01*
X711712Y298450D02*
X713454Y300192D01*
X731048Y300192D01*
X772160Y259080D01*
X937260Y259080D01*
X962406Y284226D01*
X962406Y334264D02*
X957580Y339090D01*
X957580Y354330D01*
X972820Y369570D01*
X962406Y334264D02*
X962406Y284226D01*
D22*
X422910Y478790D03*
X433070Y478790D03*
X433070Y468630D03*
X422910Y468630D03*
X292100Y477520D03*
X354330Y457200D03*
X322580Y472440D03*
X354330Y477520D03*
X290830Y457200D03*
X323850Y455930D03*
X445770Y502920D03*
X434340Y502920D03*
D24*
X880110Y49530D02*
X948690Y49530D01*
X880110Y49530D02*
X869950Y59690D01*
X869950Y76200D02*
X857250Y88900D01*
X857250Y139700D01*
D19*
X857250Y139700D03*
D24*
X869950Y76200D02*
X869950Y59690D01*
D19*
X857250Y434340D03*
D23*
X866140Y434340D02*
X899160Y401320D01*
X866140Y434340D02*
X857250Y434340D01*
X982980Y401320D02*
X1004570Y379730D01*
X1004570Y294640D01*
X995680Y285750D01*
X995680Y280670D01*
D19*
X995680Y280670D03*
D23*
X982980Y401320D02*
X899160Y401320D01*
D19*
X793750Y449580D03*
D23*
X796290Y447040D01*
X866140Y447040D02*
X901700Y411480D01*
D19*
X901700Y411480D03*
D23*
X866140Y447040D02*
X796290Y447040D01*
D19*
X782320Y459740D03*
D23*
X869534Y459740D01*
X889854Y439420D01*
D19*
X889854Y439420D03*
X690880Y421640D03*
D23*
X693420Y419100D01*
X693420Y400050D01*
X814070Y279400D01*
D19*
X814070Y279400D03*
X703580Y441960D03*
D23*
X703580Y405130D01*
X791210Y317500D01*
D19*
X791210Y317500D03*
X801370Y326390D03*
D23*
X712470Y415290D01*
X712470Y452120D01*
D19*
X712470Y452120D03*
X722630Y434340D03*
D23*
X722630Y424180D01*
X811530Y335280D01*
D19*
X811530Y335280D03*
D22*
X1019810Y278130D03*
X1018540Y369570D03*
D20*
X1024890Y283210D02*
X1019810Y278130D01*
X1024890Y283210D02*
X1024890Y363220D01*
X1018540Y369570D01*
D19*
X906780Y349250D03*
D20*
X948690Y391160D01*
D19*
X948690Y391160D03*
X906780Y337820D03*
D20*
X960120Y391160D01*
X970280Y391160D01*
D19*
X970280Y391160D03*
D22*
X872490Y186690D03*
D21*
X872490Y201509D01*
X862754Y211244D01*
X862754Y215054D01*
D22*
X862754Y215054D03*
X894080Y187960D03*
X871220Y231140D03*
D21*
X876554Y205486D02*
X894080Y187960D01*
X876554Y205486D02*
X876554Y205732D01*
X871220Y211066D01*
X871220Y231140D01*
D22*
X902020Y367980D03*
D23*
X902020Y361000D01*
X895350Y354330D01*
X895350Y331470D01*
X899160Y327660D02*
X910590Y327660D01*
X923290Y314960D02*
X923290Y311150D01*
D22*
X923290Y311150D03*
D23*
X899160Y327660D02*
X895350Y331470D01*
X910590Y327660D02*
X923290Y314960D01*
M02*
