G04 EAGLE Gerber RS-274X export*
G75*
%MOMM*%
%FSLAX34Y34*%
%LPD*%
%INBottom Copper*%
%IPPOS*%
%AMOC8*
5,1,8,0,0,1.08239X$1,22.5*%
G01*
%ADD10C,4.191000*%
%ADD11C,1.879600*%
%ADD12C,3.500000*%
%ADD13C,6.096000*%
%ADD14C,1.355600*%
%ADD15C,0.812800*%
%ADD16C,0.805600*%
%ADD17C,0.304800*%
%ADD18C,0.508000*%
%ADD19C,0.736600*%
%ADD20C,0.203200*%
%ADD21C,0.254000*%

G36*
X1017430Y5216D02*
X1017430Y5216D01*
X1017490Y5215D01*
X1017570Y5236D01*
X1017652Y5248D01*
X1017707Y5272D01*
X1017765Y5288D01*
X1017836Y5330D01*
X1017911Y5364D01*
X1017957Y5403D01*
X1018009Y5434D01*
X1018065Y5494D01*
X1018128Y5547D01*
X1018162Y5598D01*
X1018203Y5642D01*
X1018240Y5715D01*
X1018286Y5784D01*
X1018304Y5842D01*
X1018331Y5895D01*
X1018342Y5962D01*
X1018372Y6055D01*
X1018374Y6157D01*
X1018386Y6227D01*
X1015899Y708791D01*
X1015891Y708845D01*
X1015892Y708892D01*
X1015892Y708893D01*
X1015892Y708903D01*
X1015870Y708987D01*
X1015858Y709072D01*
X1015835Y709124D01*
X1015820Y709178D01*
X1015776Y709252D01*
X1015741Y709331D01*
X1015704Y709374D01*
X1015675Y709423D01*
X1015612Y709482D01*
X1015556Y709547D01*
X1015509Y709578D01*
X1015468Y709617D01*
X1015391Y709657D01*
X1015319Y709704D01*
X1015265Y709721D01*
X1015215Y709747D01*
X1015146Y709758D01*
X1015048Y709789D01*
X1014950Y709791D01*
X1014884Y709802D01*
X635000Y709802D01*
X634942Y709794D01*
X634884Y709796D01*
X634802Y709774D01*
X634719Y709762D01*
X634665Y709739D01*
X634609Y709724D01*
X634536Y709681D01*
X634459Y709646D01*
X634414Y709608D01*
X634364Y709579D01*
X634306Y709517D01*
X634242Y709463D01*
X634210Y709414D01*
X634170Y709371D01*
X634131Y709296D01*
X634085Y709226D01*
X634067Y709170D01*
X634040Y709118D01*
X634029Y709050D01*
X633999Y708955D01*
X633996Y708855D01*
X633985Y708787D01*
X633985Y347725D01*
X510848Y347725D01*
X510819Y347721D01*
X510790Y347724D01*
X510679Y347701D01*
X510567Y347685D01*
X510540Y347673D01*
X510511Y347668D01*
X510411Y347616D01*
X510307Y347569D01*
X510285Y347550D01*
X510259Y347537D01*
X510177Y347459D01*
X510090Y347386D01*
X510074Y347361D01*
X510053Y347341D01*
X509995Y347243D01*
X509933Y347149D01*
X509924Y347121D01*
X509909Y347096D01*
X509881Y346986D01*
X509847Y346878D01*
X509846Y346848D01*
X509839Y346820D01*
X509842Y346707D01*
X509840Y346594D01*
X509847Y346565D01*
X509848Y346536D01*
X509883Y346428D01*
X509911Y346319D01*
X509926Y346293D01*
X509935Y346265D01*
X509981Y346202D01*
X510057Y346074D01*
X510102Y346031D01*
X510130Y345992D01*
X522830Y333292D01*
X522900Y333240D01*
X522964Y333180D01*
X523013Y333154D01*
X523057Y333121D01*
X523139Y333090D01*
X523217Y333050D01*
X523265Y333042D01*
X523323Y333020D01*
X523471Y333008D01*
X523548Y332995D01*
X755739Y332995D01*
X755826Y333007D01*
X755913Y333010D01*
X755966Y333027D01*
X756021Y333035D01*
X756101Y333070D01*
X756184Y333097D01*
X756223Y333125D01*
X756280Y333151D01*
X756394Y333247D01*
X756457Y333292D01*
X757780Y334615D01*
X759694Y335408D01*
X761766Y335408D01*
X763680Y334615D01*
X765145Y333150D01*
X765938Y331236D01*
X765938Y329164D01*
X765145Y327250D01*
X763680Y325785D01*
X761766Y324992D01*
X759694Y324992D01*
X757780Y325785D01*
X756457Y327108D01*
X756387Y327160D01*
X756324Y327220D01*
X756274Y327246D01*
X756230Y327279D01*
X756148Y327310D01*
X756070Y327350D01*
X756023Y327358D01*
X755964Y327380D01*
X755817Y327392D01*
X755739Y327405D01*
X520812Y327405D01*
X518878Y329340D01*
X500790Y347428D01*
X500720Y347480D01*
X500656Y347540D01*
X500607Y347566D01*
X500563Y347599D01*
X500481Y347630D01*
X500403Y347670D01*
X500355Y347678D01*
X500297Y347700D01*
X500149Y347712D01*
X500072Y347725D01*
X482600Y347725D01*
X482542Y347717D01*
X482484Y347719D01*
X482402Y347697D01*
X482319Y347685D01*
X482265Y347662D01*
X482209Y347647D01*
X482136Y347604D01*
X482059Y347569D01*
X482014Y347531D01*
X481964Y347502D01*
X481906Y347440D01*
X481842Y347386D01*
X481810Y347337D01*
X481770Y347294D01*
X481731Y347219D01*
X481685Y347149D01*
X481667Y347093D01*
X481640Y347041D01*
X481629Y346973D01*
X481599Y346878D01*
X481596Y346778D01*
X481585Y346710D01*
X481585Y223774D01*
X481593Y223716D01*
X481591Y223658D01*
X481613Y223576D01*
X481625Y223492D01*
X481649Y223439D01*
X481663Y223383D01*
X481706Y223310D01*
X481741Y223233D01*
X481779Y223188D01*
X481809Y223138D01*
X481870Y223080D01*
X481925Y223016D01*
X481973Y222984D01*
X482016Y222944D01*
X482091Y222905D01*
X482161Y222858D01*
X482217Y222841D01*
X482269Y222814D01*
X482337Y222803D01*
X482432Y222773D01*
X482532Y222770D01*
X482600Y222759D01*
X568547Y222759D01*
X568633Y222771D01*
X568721Y222774D01*
X568773Y222791D01*
X568828Y222799D01*
X568908Y222834D01*
X568991Y222861D01*
X569030Y222889D01*
X569088Y222915D01*
X569201Y223011D01*
X569265Y223056D01*
X664217Y318009D01*
X671823Y318009D01*
X675335Y314496D01*
X675405Y314444D01*
X675469Y314384D01*
X675519Y314358D01*
X675563Y314325D01*
X675644Y314294D01*
X675722Y314254D01*
X675770Y314246D01*
X675828Y314224D01*
X675976Y314212D01*
X676053Y314199D01*
X678022Y314199D01*
X680076Y313348D01*
X681648Y311776D01*
X682499Y309722D01*
X682499Y307498D01*
X681648Y305444D01*
X680256Y304052D01*
X680204Y303983D01*
X680144Y303919D01*
X680118Y303869D01*
X680085Y303825D01*
X680054Y303743D01*
X680014Y303666D01*
X680006Y303618D01*
X679984Y303560D01*
X679972Y303412D01*
X679959Y303335D01*
X679959Y269247D01*
X676446Y265735D01*
X676394Y265665D01*
X676334Y265601D01*
X676308Y265551D01*
X676275Y265507D01*
X676244Y265426D01*
X676204Y265348D01*
X676196Y265300D01*
X676174Y265242D01*
X676162Y265094D01*
X676149Y265017D01*
X676149Y263048D01*
X675298Y260994D01*
X673726Y259422D01*
X671672Y258571D01*
X669448Y258571D01*
X667394Y259422D01*
X665822Y260994D01*
X664971Y263048D01*
X664971Y265272D01*
X665822Y267326D01*
X667394Y268898D01*
X669448Y269749D01*
X671417Y269749D01*
X671503Y269761D01*
X671591Y269764D01*
X671643Y269781D01*
X671698Y269789D01*
X671778Y269824D01*
X671861Y269851D01*
X671900Y269879D01*
X671958Y269905D01*
X672071Y270001D01*
X672135Y270046D01*
X673564Y271475D01*
X673616Y271545D01*
X673676Y271609D01*
X673702Y271659D01*
X673735Y271703D01*
X673766Y271784D01*
X673806Y271862D01*
X673814Y271910D01*
X673836Y271968D01*
X673841Y272032D01*
X673847Y272051D01*
X673849Y272121D01*
X673861Y272193D01*
X673861Y303335D01*
X673849Y303421D01*
X673846Y303509D01*
X673829Y303561D01*
X673821Y303616D01*
X673786Y303696D01*
X673759Y303779D01*
X673731Y303818D01*
X673705Y303875D01*
X673609Y303989D01*
X673564Y304052D01*
X672172Y305444D01*
X671321Y307498D01*
X671321Y309467D01*
X671309Y309553D01*
X671306Y309641D01*
X671289Y309693D01*
X671281Y309748D01*
X671246Y309828D01*
X671219Y309911D01*
X671191Y309950D01*
X671165Y310008D01*
X671069Y310121D01*
X671024Y310185D01*
X669595Y311614D01*
X669525Y311666D01*
X669461Y311726D01*
X669411Y311752D01*
X669367Y311785D01*
X669286Y311816D01*
X669208Y311856D01*
X669160Y311864D01*
X669102Y311886D01*
X668954Y311898D01*
X668877Y311911D01*
X667163Y311911D01*
X667077Y311899D01*
X666989Y311896D01*
X666937Y311879D01*
X666882Y311871D01*
X666802Y311836D01*
X666719Y311809D01*
X666680Y311781D01*
X666622Y311755D01*
X666509Y311659D01*
X666445Y311614D01*
X571493Y216661D01*
X420783Y216661D01*
X420697Y216649D01*
X420609Y216646D01*
X420557Y216629D01*
X420502Y216621D01*
X420422Y216586D01*
X420339Y216559D01*
X420300Y216531D01*
X420242Y216505D01*
X420129Y216409D01*
X420065Y216364D01*
X414826Y211125D01*
X414774Y211055D01*
X414714Y210991D01*
X414688Y210941D01*
X414655Y210897D01*
X414624Y210816D01*
X414584Y210738D01*
X414576Y210690D01*
X414554Y210632D01*
X414542Y210484D01*
X414529Y210407D01*
X414529Y208438D01*
X413678Y206384D01*
X412106Y204812D01*
X410052Y203961D01*
X407828Y203961D01*
X405774Y204812D01*
X404202Y206384D01*
X403351Y208438D01*
X403351Y210662D01*
X404202Y212716D01*
X405774Y214288D01*
X407828Y215139D01*
X409797Y215139D01*
X409883Y215151D01*
X409971Y215154D01*
X410023Y215171D01*
X410078Y215179D01*
X410158Y215214D01*
X410241Y215241D01*
X410280Y215269D01*
X410338Y215295D01*
X410451Y215391D01*
X410515Y215436D01*
X412801Y217722D01*
X412818Y217746D01*
X412841Y217765D01*
X412904Y217859D01*
X412971Y217949D01*
X412982Y217977D01*
X412998Y218001D01*
X413032Y218109D01*
X413073Y218215D01*
X413075Y218244D01*
X413084Y218272D01*
X413087Y218386D01*
X413096Y218498D01*
X413090Y218527D01*
X413091Y218556D01*
X413063Y218666D01*
X413040Y218777D01*
X413027Y218803D01*
X413019Y218831D01*
X412962Y218929D01*
X412909Y219029D01*
X412889Y219051D01*
X412874Y219076D01*
X412792Y219153D01*
X412714Y219235D01*
X412688Y219250D01*
X412667Y219270D01*
X412566Y219322D01*
X412468Y219379D01*
X412440Y219386D01*
X412414Y219400D01*
X412336Y219413D01*
X412193Y219449D01*
X412130Y219447D01*
X412083Y219455D01*
X194517Y219455D01*
X194430Y219443D01*
X194343Y219440D01*
X194290Y219423D01*
X194235Y219415D01*
X194156Y219380D01*
X194072Y219353D01*
X194033Y219325D01*
X193976Y219299D01*
X193863Y219203D01*
X193799Y219158D01*
X191804Y217163D01*
X183541Y213740D01*
X174599Y213740D01*
X166336Y217163D01*
X164341Y219158D01*
X164271Y219210D01*
X164207Y219270D01*
X164158Y219296D01*
X164114Y219329D01*
X164032Y219360D01*
X163954Y219400D01*
X163907Y219408D01*
X163848Y219430D01*
X163700Y219442D01*
X163623Y219455D01*
X140970Y219455D01*
X140912Y219447D01*
X140854Y219449D01*
X140772Y219427D01*
X140689Y219415D01*
X140635Y219392D01*
X140579Y219377D01*
X140506Y219334D01*
X140429Y219299D01*
X140384Y219261D01*
X140334Y219232D01*
X140276Y219170D01*
X140212Y219116D01*
X140180Y219067D01*
X140140Y219024D01*
X140101Y218949D01*
X140055Y218879D01*
X140037Y218823D01*
X140010Y218771D01*
X139999Y218703D01*
X139969Y218608D01*
X139966Y218508D01*
X139955Y218440D01*
X139955Y99919D01*
X139967Y99834D01*
X139969Y99748D01*
X139987Y99694D01*
X139995Y99637D01*
X140030Y99559D01*
X140056Y99477D01*
X140088Y99430D01*
X140111Y99378D01*
X140166Y99312D01*
X140214Y99241D01*
X140258Y99204D01*
X140294Y99161D01*
X140366Y99113D01*
X140432Y99058D01*
X140484Y99035D01*
X140531Y99003D01*
X140613Y98978D01*
X140692Y98943D01*
X140748Y98935D01*
X140802Y98918D01*
X140888Y98915D01*
X140973Y98904D01*
X141029Y98912D01*
X141086Y98910D01*
X141169Y98932D01*
X141254Y98944D01*
X141306Y98968D01*
X141361Y98982D01*
X141435Y99026D01*
X141514Y99061D01*
X141557Y99098D01*
X141606Y99127D01*
X141665Y99190D01*
X141730Y99246D01*
X141756Y99288D01*
X141800Y99335D01*
X141866Y99464D01*
X141908Y99530D01*
X142834Y101765D01*
X144363Y104626D01*
X146166Y107324D01*
X148224Y109832D01*
X150518Y112126D01*
X153026Y114184D01*
X155724Y115987D01*
X158585Y117516D01*
X161582Y118758D01*
X164687Y119700D01*
X167869Y120333D01*
X170689Y120610D01*
X170689Y88646D01*
X170697Y88588D01*
X170695Y88530D01*
X170717Y88448D01*
X170729Y88365D01*
X170753Y88311D01*
X170767Y88255D01*
X170810Y88182D01*
X170845Y88105D01*
X170883Y88061D01*
X170913Y88010D01*
X170974Y87953D01*
X171029Y87888D01*
X171077Y87856D01*
X171120Y87816D01*
X171195Y87777D01*
X171265Y87731D01*
X171321Y87713D01*
X171373Y87686D01*
X171441Y87675D01*
X171536Y87645D01*
X171636Y87642D01*
X171704Y87631D01*
X172721Y87631D01*
X172721Y87629D01*
X171704Y87629D01*
X171646Y87621D01*
X171588Y87622D01*
X171506Y87601D01*
X171423Y87589D01*
X171369Y87565D01*
X171313Y87551D01*
X171240Y87508D01*
X171163Y87473D01*
X171118Y87435D01*
X171068Y87405D01*
X171010Y87344D01*
X170946Y87289D01*
X170914Y87241D01*
X170874Y87198D01*
X170835Y87123D01*
X170789Y87053D01*
X170771Y86997D01*
X170744Y86945D01*
X170733Y86877D01*
X170703Y86782D01*
X170700Y86682D01*
X170689Y86614D01*
X170689Y54650D01*
X167869Y54927D01*
X164687Y55560D01*
X161582Y56502D01*
X158585Y57744D01*
X155724Y59273D01*
X153026Y61076D01*
X150518Y63134D01*
X148224Y65428D01*
X146166Y67936D01*
X144363Y70634D01*
X142834Y73495D01*
X141908Y75730D01*
X141864Y75804D01*
X141829Y75882D01*
X141792Y75925D01*
X141763Y75974D01*
X141701Y76033D01*
X141645Y76099D01*
X141598Y76130D01*
X141557Y76170D01*
X141480Y76209D01*
X141409Y76257D01*
X141355Y76274D01*
X141304Y76300D01*
X141220Y76316D01*
X141138Y76342D01*
X141081Y76344D01*
X141025Y76355D01*
X140940Y76347D01*
X140854Y76350D01*
X140799Y76335D01*
X140742Y76330D01*
X140662Y76299D01*
X140579Y76278D01*
X140530Y76249D01*
X140477Y76228D01*
X140408Y76176D01*
X140334Y76133D01*
X140295Y76091D01*
X140250Y76057D01*
X140198Y75988D01*
X140140Y75925D01*
X140114Y75875D01*
X140080Y75829D01*
X140049Y75749D01*
X140010Y75672D01*
X140002Y75623D01*
X139979Y75563D01*
X139968Y75418D01*
X139955Y75341D01*
X139955Y6223D01*
X139963Y6165D01*
X139961Y6107D01*
X139983Y6025D01*
X139995Y5941D01*
X140018Y5888D01*
X140033Y5832D01*
X140076Y5759D01*
X140111Y5682D01*
X140149Y5637D01*
X140178Y5587D01*
X140240Y5529D01*
X140294Y5465D01*
X140343Y5433D01*
X140386Y5393D01*
X140461Y5354D01*
X140531Y5307D01*
X140587Y5290D01*
X140639Y5263D01*
X140707Y5252D01*
X140802Y5222D01*
X140902Y5219D01*
X140970Y5208D01*
X1017370Y5208D01*
X1017430Y5216D01*
G37*
G36*
X158957Y221243D02*
X158957Y221243D01*
X159015Y221241D01*
X159097Y221263D01*
X159181Y221275D01*
X159234Y221298D01*
X159291Y221313D01*
X159363Y221356D01*
X159441Y221391D01*
X159485Y221428D01*
X159535Y221458D01*
X159593Y221520D01*
X159658Y221575D01*
X159690Y221623D01*
X159730Y221665D01*
X159768Y221741D01*
X159815Y221811D01*
X159833Y221866D01*
X159859Y221918D01*
X159876Y222001D01*
X159901Y222082D01*
X159903Y222140D01*
X159914Y222197D01*
X159906Y222282D01*
X159908Y222366D01*
X159894Y222423D01*
X159889Y222480D01*
X159862Y222544D01*
X159837Y222641D01*
X159786Y222727D01*
X159760Y222790D01*
X158474Y224837D01*
X157329Y227214D01*
X156457Y229705D01*
X155870Y232278D01*
X155654Y234189D01*
X178054Y234189D01*
X178112Y234197D01*
X178170Y234195D01*
X178252Y234217D01*
X178335Y234229D01*
X178389Y234253D01*
X178445Y234267D01*
X178518Y234310D01*
X178595Y234345D01*
X178639Y234383D01*
X178690Y234413D01*
X178747Y234474D01*
X178812Y234529D01*
X178844Y234577D01*
X178884Y234620D01*
X178923Y234695D01*
X178969Y234765D01*
X178987Y234821D01*
X179014Y234873D01*
X179025Y234941D01*
X179055Y235036D01*
X179058Y235136D01*
X179069Y235204D01*
X179069Y236221D01*
X179071Y236221D01*
X179071Y235204D01*
X179079Y235146D01*
X179078Y235088D01*
X179099Y235006D01*
X179111Y234923D01*
X179135Y234869D01*
X179149Y234813D01*
X179192Y234740D01*
X179227Y234663D01*
X179265Y234618D01*
X179295Y234568D01*
X179356Y234510D01*
X179411Y234446D01*
X179459Y234414D01*
X179502Y234374D01*
X179577Y234335D01*
X179647Y234289D01*
X179703Y234271D01*
X179755Y234244D01*
X179823Y234233D01*
X179918Y234203D01*
X180018Y234200D01*
X180086Y234189D01*
X202486Y234189D01*
X202270Y232278D01*
X201683Y229705D01*
X200811Y227214D01*
X199666Y224837D01*
X198380Y222790D01*
X198357Y222737D01*
X198325Y222689D01*
X198299Y222608D01*
X198264Y222531D01*
X198256Y222473D01*
X198239Y222418D01*
X198237Y222333D01*
X198225Y222249D01*
X198233Y222192D01*
X198232Y222134D01*
X198253Y222052D01*
X198265Y221968D01*
X198289Y221915D01*
X198303Y221859D01*
X198347Y221786D01*
X198381Y221708D01*
X198419Y221664D01*
X198449Y221614D01*
X198510Y221556D01*
X198565Y221492D01*
X198614Y221459D01*
X198656Y221420D01*
X198731Y221381D01*
X198802Y221334D01*
X198857Y221317D01*
X198909Y221290D01*
X198977Y221279D01*
X199073Y221249D01*
X199172Y221246D01*
X199240Y221235D01*
X220980Y221235D01*
X221038Y221243D01*
X221096Y221241D01*
X221178Y221263D01*
X221262Y221275D01*
X221315Y221299D01*
X221371Y221313D01*
X221444Y221356D01*
X221521Y221391D01*
X221566Y221429D01*
X221616Y221459D01*
X221674Y221520D01*
X221738Y221575D01*
X221770Y221623D01*
X221810Y221666D01*
X221849Y221741D01*
X221896Y221811D01*
X221913Y221867D01*
X221940Y221919D01*
X221951Y221987D01*
X221981Y222082D01*
X221984Y222182D01*
X221995Y222250D01*
X221995Y222505D01*
X415726Y222505D01*
X415812Y222517D01*
X415900Y222520D01*
X415953Y222537D01*
X416007Y222545D01*
X416087Y222580D01*
X416170Y222607D01*
X416210Y222635D01*
X416267Y222661D01*
X416380Y222757D01*
X416444Y222802D01*
X417416Y223775D01*
X477520Y223775D01*
X477578Y223783D01*
X477636Y223781D01*
X477718Y223803D01*
X477802Y223815D01*
X477855Y223838D01*
X477911Y223853D01*
X477984Y223896D01*
X478061Y223931D01*
X478106Y223969D01*
X478156Y223998D01*
X478214Y224060D01*
X478278Y224114D01*
X478310Y224163D01*
X478350Y224206D01*
X478389Y224281D01*
X478436Y224351D01*
X478453Y224407D01*
X478480Y224459D01*
X478491Y224527D01*
X478521Y224622D01*
X478524Y224722D01*
X478535Y224790D01*
X478535Y349505D01*
X479944Y349505D01*
X480031Y349517D01*
X480118Y349520D01*
X480171Y349537D01*
X480226Y349545D01*
X480306Y349580D01*
X480389Y349607D01*
X480428Y349635D01*
X480485Y349661D01*
X480598Y349757D01*
X480662Y349802D01*
X481127Y350267D01*
X494063Y350267D01*
X494092Y350271D01*
X494121Y350268D01*
X494232Y350291D01*
X494345Y350307D01*
X494371Y350319D01*
X494400Y350324D01*
X494501Y350376D01*
X494604Y350423D01*
X494626Y350442D01*
X494652Y350455D01*
X494735Y350533D01*
X494821Y350606D01*
X494837Y350631D01*
X494859Y350651D01*
X494916Y350749D01*
X494979Y350843D01*
X494987Y350871D01*
X495002Y350896D01*
X495030Y351006D01*
X495064Y351114D01*
X495065Y351144D01*
X495072Y351172D01*
X495069Y351285D01*
X495072Y351398D01*
X495064Y351427D01*
X495063Y351456D01*
X495028Y351564D01*
X495000Y351673D01*
X494985Y351699D01*
X494976Y351727D01*
X494930Y351790D01*
X494855Y351918D01*
X494809Y351961D01*
X494781Y352000D01*
X431662Y415119D01*
X431592Y415171D01*
X431528Y415231D01*
X431479Y415257D01*
X431435Y415290D01*
X431353Y415321D01*
X431275Y415361D01*
X431228Y415369D01*
X431169Y415391D01*
X431021Y415403D01*
X430944Y415416D01*
X429292Y415416D01*
X427004Y416364D01*
X425254Y418114D01*
X424306Y420402D01*
X424306Y422878D01*
X425254Y425166D01*
X427004Y426916D01*
X429292Y427864D01*
X431768Y427864D01*
X434056Y426916D01*
X435806Y425166D01*
X436754Y422878D01*
X436754Y421226D01*
X436762Y421170D01*
X436760Y421123D01*
X436767Y421096D01*
X436769Y421052D01*
X436786Y420999D01*
X436794Y420944D01*
X436826Y420873D01*
X436832Y420848D01*
X436838Y420838D01*
X436856Y420781D01*
X436884Y420742D01*
X436910Y420685D01*
X436974Y420610D01*
X436977Y420603D01*
X436985Y420596D01*
X437006Y420572D01*
X437051Y420508D01*
X506995Y350564D01*
X507065Y350512D01*
X507129Y350452D01*
X507178Y350426D01*
X507222Y350393D01*
X507304Y350362D01*
X507382Y350322D01*
X507429Y350314D01*
X507488Y350292D01*
X507636Y350280D01*
X507713Y350267D01*
X630428Y350267D01*
X630486Y350275D01*
X630544Y350273D01*
X630626Y350295D01*
X630710Y350307D01*
X630763Y350330D01*
X630819Y350345D01*
X630892Y350388D01*
X630969Y350423D01*
X631014Y350461D01*
X631064Y350490D01*
X631122Y350552D01*
X631186Y350606D01*
X631218Y350655D01*
X631258Y350698D01*
X631297Y350773D01*
X631344Y350843D01*
X631361Y350899D01*
X631388Y350951D01*
X631399Y351019D01*
X631429Y351114D01*
X631432Y351214D01*
X631443Y351282D01*
X631443Y708787D01*
X631435Y708845D01*
X631437Y708903D01*
X631415Y708985D01*
X631403Y709069D01*
X631380Y709122D01*
X631365Y709178D01*
X631322Y709251D01*
X631287Y709328D01*
X631249Y709373D01*
X631220Y709423D01*
X631158Y709481D01*
X631104Y709545D01*
X631055Y709577D01*
X631012Y709617D01*
X630937Y709656D01*
X630867Y709703D01*
X630811Y709720D01*
X630759Y709747D01*
X630691Y709758D01*
X630596Y709788D01*
X630496Y709791D01*
X630428Y709802D01*
X6250Y709802D01*
X6190Y709794D01*
X6130Y709795D01*
X6050Y709774D01*
X5968Y709762D01*
X5913Y709738D01*
X5855Y709722D01*
X5784Y709680D01*
X5709Y709646D01*
X5663Y709607D01*
X5611Y709576D01*
X5555Y709516D01*
X5492Y709463D01*
X5458Y709412D01*
X5417Y709368D01*
X5380Y709295D01*
X5334Y709226D01*
X5316Y709168D01*
X5289Y709115D01*
X5278Y709048D01*
X5248Y708955D01*
X5246Y708853D01*
X5234Y708783D01*
X6098Y464816D01*
X6106Y464760D01*
X6105Y464704D01*
X6126Y464620D01*
X6139Y464535D01*
X6162Y464483D01*
X6176Y464429D01*
X6220Y464355D01*
X6256Y464276D01*
X6293Y464233D01*
X6322Y464184D01*
X6385Y464125D01*
X6440Y464060D01*
X6488Y464029D01*
X6529Y463990D01*
X6606Y463950D01*
X6678Y463903D01*
X6732Y463886D01*
X6782Y463860D01*
X6851Y463849D01*
X6949Y463818D01*
X7046Y463816D01*
X7113Y463805D01*
X139955Y463805D01*
X139955Y222250D01*
X139963Y222192D01*
X139961Y222134D01*
X139983Y222052D01*
X139995Y221969D01*
X140019Y221915D01*
X140033Y221859D01*
X140076Y221786D01*
X140111Y221709D01*
X140149Y221664D01*
X140179Y221614D01*
X140240Y221556D01*
X140295Y221492D01*
X140343Y221460D01*
X140386Y221420D01*
X140461Y221381D01*
X140531Y221335D01*
X140587Y221317D01*
X140639Y221290D01*
X140707Y221279D01*
X140802Y221249D01*
X140902Y221246D01*
X140970Y221235D01*
X158900Y221235D01*
X158957Y221243D01*
G37*
G36*
X135948Y5216D02*
X135948Y5216D01*
X136006Y5214D01*
X136088Y5236D01*
X136172Y5248D01*
X136225Y5271D01*
X136281Y5286D01*
X136354Y5329D01*
X136431Y5364D01*
X136476Y5402D01*
X136526Y5431D01*
X136584Y5493D01*
X136648Y5547D01*
X136680Y5596D01*
X136720Y5639D01*
X136759Y5714D01*
X136806Y5784D01*
X136823Y5840D01*
X136850Y5892D01*
X136861Y5960D01*
X136891Y6055D01*
X136894Y6155D01*
X136905Y6223D01*
X136905Y461010D01*
X136897Y461068D01*
X136899Y461126D01*
X136877Y461208D01*
X136865Y461292D01*
X136842Y461345D01*
X136827Y461401D01*
X136784Y461474D01*
X136749Y461551D01*
X136711Y461596D01*
X136682Y461646D01*
X136620Y461704D01*
X136566Y461768D01*
X136517Y461800D01*
X136474Y461840D01*
X136399Y461879D01*
X136329Y461926D01*
X136273Y461943D01*
X136221Y461970D01*
X136153Y461981D01*
X136058Y462011D01*
X135958Y462014D01*
X135890Y462025D01*
X7127Y462025D01*
X7067Y462017D01*
X7007Y462018D01*
X6927Y461997D01*
X6845Y461985D01*
X6790Y461961D01*
X6732Y461945D01*
X6661Y461903D01*
X6586Y461869D01*
X6540Y461830D01*
X6488Y461799D01*
X6432Y461739D01*
X6369Y461686D01*
X6335Y461635D01*
X6294Y461591D01*
X6257Y461518D01*
X6211Y461449D01*
X6193Y461391D01*
X6166Y461338D01*
X6155Y461271D01*
X6125Y461178D01*
X6123Y461076D01*
X6111Y461006D01*
X7721Y6219D01*
X7729Y6163D01*
X7728Y6107D01*
X7750Y6023D01*
X7762Y5938D01*
X7785Y5886D01*
X7800Y5832D01*
X7844Y5758D01*
X7879Y5679D01*
X7916Y5636D01*
X7945Y5587D01*
X8008Y5528D01*
X8064Y5463D01*
X8111Y5432D01*
X8152Y5393D01*
X8229Y5353D01*
X8301Y5306D01*
X8355Y5289D01*
X8405Y5263D01*
X8474Y5252D01*
X8572Y5221D01*
X8670Y5219D01*
X8736Y5208D01*
X135890Y5208D01*
X135948Y5216D01*
G37*
%LPC*%
G36*
X825499Y68579D02*
X825499Y68579D01*
X825499Y69596D01*
X825491Y69654D01*
X825492Y69712D01*
X825471Y69794D01*
X825459Y69877D01*
X825435Y69931D01*
X825421Y69987D01*
X825378Y70060D01*
X825343Y70137D01*
X825305Y70182D01*
X825275Y70232D01*
X825214Y70290D01*
X825159Y70354D01*
X825111Y70386D01*
X825068Y70426D01*
X824993Y70465D01*
X824923Y70511D01*
X824867Y70529D01*
X824815Y70556D01*
X824747Y70567D01*
X824652Y70597D01*
X824552Y70600D01*
X824484Y70611D01*
X813613Y70611D01*
X813622Y70625D01*
X813696Y70726D01*
X813701Y70741D01*
X813712Y70756D01*
X813800Y71026D01*
X813800Y71036D01*
X813803Y71044D01*
X813855Y71376D01*
X814436Y73163D01*
X815289Y74837D01*
X816394Y76358D01*
X817722Y77686D01*
X819243Y78791D01*
X819860Y79105D01*
X819898Y79132D01*
X819940Y79151D01*
X820014Y79213D01*
X820093Y79269D01*
X820122Y79305D01*
X820157Y79335D01*
X820211Y79415D01*
X820271Y79490D01*
X820289Y79533D01*
X820315Y79571D01*
X820344Y79663D01*
X820381Y79752D01*
X820386Y79798D01*
X820400Y79842D01*
X820403Y79939D01*
X820414Y80035D01*
X820406Y80080D01*
X820408Y80126D01*
X820383Y80220D01*
X820367Y80315D01*
X820348Y80357D01*
X820336Y80401D01*
X820287Y80484D01*
X820245Y80572D01*
X820214Y80606D01*
X820191Y80646D01*
X820120Y80712D01*
X820056Y80784D01*
X820017Y80809D01*
X819983Y80840D01*
X819897Y80884D01*
X819816Y80936D01*
X819771Y80949D01*
X819730Y80970D01*
X819656Y80982D01*
X819543Y81015D01*
X819459Y81015D01*
X819399Y81025D01*
X811642Y81025D01*
X806145Y86523D01*
X806144Y86524D01*
X806143Y86525D01*
X806029Y86610D01*
X805918Y86694D01*
X805916Y86694D01*
X805915Y86695D01*
X805783Y86745D01*
X805652Y86795D01*
X805650Y86795D01*
X805649Y86796D01*
X805505Y86807D01*
X805369Y86818D01*
X805367Y86818D01*
X805366Y86818D01*
X805350Y86815D01*
X805090Y86763D01*
X805063Y86749D01*
X805038Y86743D01*
X802273Y85597D01*
X797927Y85597D01*
X793913Y87260D01*
X790840Y90333D01*
X789177Y94347D01*
X789177Y98693D01*
X790840Y102707D01*
X793913Y105780D01*
X797927Y107443D01*
X802273Y107443D01*
X806287Y105780D01*
X809360Y102707D01*
X811023Y98693D01*
X811023Y94347D01*
X809877Y91582D01*
X809877Y91580D01*
X809876Y91579D01*
X809842Y91444D01*
X809806Y91306D01*
X809806Y91305D01*
X809806Y91303D01*
X809810Y91163D01*
X809814Y91022D01*
X809815Y91021D01*
X809815Y91019D01*
X809858Y90886D01*
X809901Y90751D01*
X809902Y90750D01*
X809902Y90749D01*
X809911Y90736D01*
X810059Y90515D01*
X810083Y90496D01*
X810097Y90475D01*
X813660Y86912D01*
X813730Y86860D01*
X813794Y86800D01*
X813843Y86774D01*
X813887Y86741D01*
X813969Y86710D01*
X814047Y86670D01*
X814095Y86662D01*
X814153Y86640D01*
X814301Y86628D01*
X814378Y86615D01*
X817507Y86615D01*
X817536Y86619D01*
X817565Y86616D01*
X817677Y86639D01*
X817789Y86655D01*
X817815Y86667D01*
X817844Y86672D01*
X817945Y86725D01*
X818048Y86771D01*
X818070Y86790D01*
X818097Y86803D01*
X818179Y86881D01*
X818265Y86954D01*
X818281Y86979D01*
X818303Y86999D01*
X818360Y87097D01*
X818423Y87191D01*
X818432Y87219D01*
X818446Y87244D01*
X818474Y87354D01*
X818508Y87462D01*
X818509Y87492D01*
X818516Y87520D01*
X818513Y87633D01*
X818516Y87746D01*
X818508Y87775D01*
X818507Y87804D01*
X818472Y87912D01*
X818444Y88021D01*
X818429Y88047D01*
X818420Y88075D01*
X818374Y88138D01*
X818299Y88266D01*
X818253Y88309D01*
X818225Y88348D01*
X816240Y90333D01*
X814577Y94347D01*
X814577Y98693D01*
X816240Y102707D01*
X819313Y105780D01*
X823327Y107443D01*
X827686Y107443D01*
X827763Y107423D01*
X827872Y107388D01*
X827900Y107387D01*
X827927Y107381D01*
X828042Y107384D01*
X828156Y107381D01*
X828183Y107388D01*
X828211Y107389D01*
X828320Y107424D01*
X828431Y107453D01*
X828455Y107467D01*
X828482Y107475D01*
X828577Y107539D01*
X828676Y107598D01*
X828695Y107618D01*
X828718Y107634D01*
X828792Y107721D01*
X828870Y107805D01*
X828883Y107830D01*
X828901Y107851D01*
X828948Y107956D01*
X829000Y108058D01*
X829004Y108083D01*
X829016Y108111D01*
X829053Y108375D01*
X829055Y108389D01*
X829055Y151360D01*
X829043Y151446D01*
X829040Y151534D01*
X829023Y151586D01*
X829015Y151641D01*
X828980Y151721D01*
X828953Y151804D01*
X828925Y151844D01*
X828899Y151901D01*
X828803Y152014D01*
X828800Y152019D01*
X828787Y152040D01*
X828780Y152046D01*
X828758Y152078D01*
X822074Y158761D01*
X822027Y158797D01*
X821987Y158839D01*
X821914Y158882D01*
X821847Y158932D01*
X821792Y158953D01*
X821742Y158983D01*
X821660Y159003D01*
X821581Y159033D01*
X821523Y159038D01*
X821466Y159053D01*
X821382Y159050D01*
X821298Y159057D01*
X821241Y159046D01*
X821182Y159044D01*
X821102Y159018D01*
X821019Y159001D01*
X820967Y158974D01*
X820912Y158956D01*
X820856Y158916D01*
X820767Y158870D01*
X820695Y158801D01*
X820638Y158761D01*
X817717Y155840D01*
X813703Y154177D01*
X809357Y154177D01*
X807862Y154797D01*
X807860Y154797D01*
X807859Y154798D01*
X807724Y154832D01*
X807586Y154868D01*
X807585Y154868D01*
X807583Y154868D01*
X807443Y154864D01*
X807302Y154860D01*
X807301Y154859D01*
X807299Y154859D01*
X807166Y154816D01*
X807031Y154773D01*
X807030Y154772D01*
X807029Y154772D01*
X807016Y154763D01*
X806795Y154615D01*
X806775Y154591D01*
X806755Y154577D01*
X797974Y145795D01*
X700626Y145795D01*
X611008Y235414D01*
X610938Y235466D01*
X610874Y235526D01*
X610825Y235552D01*
X610780Y235585D01*
X610699Y235616D01*
X610621Y235656D01*
X610573Y235664D01*
X610515Y235686D01*
X610367Y235698D01*
X610290Y235711D01*
X609758Y235711D01*
X607704Y236562D01*
X606132Y238134D01*
X605281Y240188D01*
X605281Y242412D01*
X606132Y244466D01*
X607704Y246038D01*
X609758Y246889D01*
X611982Y246889D01*
X614036Y246038D01*
X615608Y244466D01*
X616459Y242412D01*
X616459Y241880D01*
X616471Y241794D01*
X616474Y241706D01*
X616491Y241654D01*
X616499Y241599D01*
X616534Y241519D01*
X616561Y241436D01*
X616589Y241396D01*
X616615Y241339D01*
X616711Y241226D01*
X616756Y241162D01*
X653078Y204840D01*
X653102Y204823D01*
X653121Y204800D01*
X653215Y204737D01*
X653305Y204669D01*
X653333Y204659D01*
X653357Y204643D01*
X653465Y204608D01*
X653571Y204568D01*
X653600Y204566D01*
X653628Y204557D01*
X653742Y204554D01*
X653854Y204545D01*
X653883Y204550D01*
X653912Y204550D01*
X654022Y204578D01*
X654133Y204600D01*
X654159Y204614D01*
X654187Y204621D01*
X654285Y204679D01*
X654385Y204731D01*
X654407Y204752D01*
X654432Y204767D01*
X654509Y204849D01*
X654591Y204927D01*
X654606Y204953D01*
X654626Y204974D01*
X654678Y205075D01*
X654735Y205173D01*
X654742Y205201D01*
X654756Y205227D01*
X654769Y205304D01*
X654805Y205448D01*
X654803Y205511D01*
X654811Y205558D01*
X654811Y206852D01*
X655662Y208906D01*
X657234Y210478D01*
X659288Y211329D01*
X661512Y211329D01*
X663566Y210478D01*
X664958Y209086D01*
X665027Y209034D01*
X665091Y208974D01*
X665141Y208948D01*
X665185Y208915D01*
X665266Y208884D01*
X665344Y208844D01*
X665392Y208836D01*
X665450Y208814D01*
X665598Y208802D01*
X665675Y208789D01*
X695547Y208789D01*
X695633Y208801D01*
X695721Y208804D01*
X695773Y208821D01*
X695828Y208829D01*
X695908Y208864D01*
X695991Y208891D01*
X696030Y208919D01*
X696088Y208945D01*
X696201Y209041D01*
X696265Y209086D01*
X700234Y213055D01*
X700286Y213125D01*
X700346Y213189D01*
X700372Y213239D01*
X700405Y213283D01*
X700436Y213364D01*
X700476Y213442D01*
X700484Y213490D01*
X700506Y213548D01*
X700518Y213696D01*
X700531Y213773D01*
X700531Y238753D01*
X709988Y248209D01*
X709988Y248210D01*
X709990Y248211D01*
X710078Y248330D01*
X710158Y248436D01*
X710159Y248438D01*
X710160Y248439D01*
X710210Y248573D01*
X710260Y248702D01*
X710260Y248704D01*
X710260Y248705D01*
X710272Y248850D01*
X710283Y248985D01*
X710283Y248987D01*
X710283Y248988D01*
X710280Y249004D01*
X710227Y249264D01*
X710213Y249291D01*
X710208Y249316D01*
X709167Y251827D01*
X709167Y256173D01*
X710830Y260187D01*
X713903Y263260D01*
X717917Y264923D01*
X722263Y264923D01*
X726277Y263260D01*
X729350Y260187D01*
X731013Y256173D01*
X731013Y251827D01*
X729350Y247813D01*
X726277Y244740D01*
X722263Y243077D01*
X717917Y243077D01*
X715406Y244118D01*
X715404Y244118D01*
X715403Y244119D01*
X715268Y244153D01*
X715130Y244189D01*
X715129Y244189D01*
X715127Y244189D01*
X714987Y244184D01*
X714846Y244180D01*
X714845Y244180D01*
X714843Y244180D01*
X714710Y244137D01*
X714575Y244094D01*
X714574Y244093D01*
X714573Y244092D01*
X714560Y244084D01*
X714339Y243936D01*
X714319Y243912D01*
X714299Y243898D01*
X706926Y236525D01*
X706874Y236455D01*
X706814Y236391D01*
X706788Y236341D01*
X706755Y236297D01*
X706724Y236216D01*
X706684Y236138D01*
X706676Y236090D01*
X706654Y236032D01*
X706642Y235884D01*
X706629Y235807D01*
X706629Y210827D01*
X698493Y202691D01*
X665675Y202691D01*
X665589Y202679D01*
X665501Y202676D01*
X665449Y202659D01*
X665394Y202651D01*
X665314Y202616D01*
X665231Y202589D01*
X665192Y202561D01*
X665135Y202535D01*
X665021Y202439D01*
X664958Y202394D01*
X663566Y201002D01*
X661512Y200151D01*
X660218Y200151D01*
X660189Y200147D01*
X660160Y200150D01*
X660049Y200127D01*
X659937Y200111D01*
X659910Y200099D01*
X659881Y200094D01*
X659781Y200042D01*
X659677Y199995D01*
X659655Y199976D01*
X659629Y199963D01*
X659547Y199885D01*
X659460Y199812D01*
X659444Y199787D01*
X659423Y199767D01*
X659365Y199669D01*
X659303Y199575D01*
X659294Y199547D01*
X659279Y199522D01*
X659251Y199412D01*
X659217Y199304D01*
X659216Y199274D01*
X659209Y199246D01*
X659212Y199133D01*
X659210Y199020D01*
X659217Y198991D01*
X659218Y198962D01*
X659253Y198854D01*
X659281Y198745D01*
X659296Y198719D01*
X659305Y198691D01*
X659351Y198628D01*
X659427Y198500D01*
X659441Y198487D01*
X659442Y198485D01*
X659474Y198455D01*
X659500Y198418D01*
X703696Y154222D01*
X703766Y154170D01*
X703830Y154110D01*
X703879Y154084D01*
X703924Y154051D01*
X704005Y154020D01*
X704083Y153980D01*
X704131Y153972D01*
X704189Y153950D01*
X704337Y153938D01*
X704414Y153925D01*
X775281Y153925D01*
X775395Y153941D01*
X775509Y153951D01*
X775535Y153961D01*
X775563Y153965D01*
X775668Y154012D01*
X775775Y154053D01*
X775797Y154069D01*
X775822Y154081D01*
X775910Y154155D01*
X776001Y154224D01*
X776018Y154247D01*
X776039Y154264D01*
X776103Y154360D01*
X776172Y154452D01*
X776181Y154478D01*
X776197Y154501D01*
X776231Y154611D01*
X776272Y154718D01*
X776274Y154746D01*
X776283Y154772D01*
X776285Y154887D01*
X776295Y155001D01*
X776289Y155026D01*
X776290Y155056D01*
X776223Y155313D01*
X776219Y155329D01*
X775461Y157158D01*
X775461Y159382D01*
X776312Y161436D01*
X777958Y163082D01*
X778010Y163151D01*
X778070Y163215D01*
X778096Y163265D01*
X778129Y163309D01*
X778160Y163390D01*
X778200Y163468D01*
X778208Y163516D01*
X778230Y163574D01*
X778242Y163722D01*
X778255Y163799D01*
X778255Y228290D01*
X805644Y255678D01*
X805696Y255748D01*
X805756Y255812D01*
X805782Y255861D01*
X805815Y255905D01*
X805846Y255987D01*
X805886Y256065D01*
X805894Y256113D01*
X805916Y256171D01*
X805928Y256319D01*
X805941Y256396D01*
X805941Y258724D01*
X806792Y260778D01*
X808364Y262350D01*
X810418Y263201D01*
X812642Y263201D01*
X814696Y262350D01*
X815892Y261154D01*
X815916Y261136D01*
X815935Y261113D01*
X816029Y261051D01*
X816119Y260983D01*
X816147Y260972D01*
X816171Y260956D01*
X816279Y260922D01*
X816385Y260881D01*
X816414Y260879D01*
X816442Y260870D01*
X816556Y260867D01*
X816668Y260858D01*
X816697Y260864D01*
X816726Y260863D01*
X816836Y260891D01*
X816947Y260914D01*
X816973Y260927D01*
X817001Y260935D01*
X817099Y260992D01*
X817199Y261045D01*
X817221Y261065D01*
X817246Y261080D01*
X817323Y261162D01*
X817405Y261240D01*
X817420Y261266D01*
X817440Y261287D01*
X817492Y261388D01*
X817549Y261486D01*
X817556Y261514D01*
X817570Y261540D01*
X817583Y261618D01*
X817619Y261761D01*
X817617Y261824D01*
X817625Y261871D01*
X817625Y267662D01*
X817613Y267748D01*
X817610Y267836D01*
X817593Y267889D01*
X817585Y267943D01*
X817550Y268023D01*
X817523Y268106D01*
X817495Y268146D01*
X817469Y268203D01*
X817373Y268316D01*
X817328Y268380D01*
X809962Y275746D01*
X809938Y275763D01*
X809919Y275786D01*
X809825Y275849D01*
X809735Y275917D01*
X809707Y275927D01*
X809683Y275943D01*
X809575Y275978D01*
X809469Y276018D01*
X809440Y276020D01*
X809412Y276029D01*
X809298Y276032D01*
X809186Y276041D01*
X809157Y276036D01*
X809128Y276036D01*
X809018Y276008D01*
X808907Y275986D01*
X808881Y275972D01*
X808853Y275965D01*
X808755Y275907D01*
X808655Y275855D01*
X808633Y275834D01*
X808608Y275819D01*
X808531Y275737D01*
X808449Y275659D01*
X808434Y275633D01*
X808414Y275612D01*
X808362Y275511D01*
X808305Y275414D01*
X808298Y275385D01*
X808284Y275359D01*
X808271Y275282D01*
X808235Y275138D01*
X808237Y275076D01*
X808229Y275028D01*
X808229Y273208D01*
X807378Y271154D01*
X805806Y269582D01*
X803752Y268731D01*
X801424Y268731D01*
X801338Y268719D01*
X801250Y268716D01*
X801197Y268699D01*
X801143Y268691D01*
X801063Y268656D01*
X800980Y268629D01*
X800940Y268601D01*
X800883Y268575D01*
X800770Y268479D01*
X800706Y268434D01*
X783478Y251205D01*
X756833Y251205D01*
X756832Y251205D01*
X756830Y251205D01*
X756690Y251185D01*
X756552Y251165D01*
X756550Y251165D01*
X756549Y251165D01*
X756423Y251108D01*
X756293Y251049D01*
X756291Y251048D01*
X756290Y251047D01*
X756180Y250954D01*
X756076Y250866D01*
X756075Y250864D01*
X756073Y250863D01*
X756065Y250850D01*
X755918Y250629D01*
X755909Y250600D01*
X755895Y250579D01*
X754750Y247813D01*
X751677Y244740D01*
X747663Y243077D01*
X743317Y243077D01*
X739303Y244740D01*
X736230Y247813D01*
X734567Y251827D01*
X734567Y256173D01*
X736230Y260187D01*
X739303Y263260D01*
X743317Y264923D01*
X747663Y264923D01*
X751677Y263260D01*
X754750Y260187D01*
X755895Y257421D01*
X755896Y257420D01*
X755897Y257419D01*
X755968Y257298D01*
X756040Y257177D01*
X756041Y257176D01*
X756042Y257174D01*
X756146Y257077D01*
X756247Y256981D01*
X756248Y256981D01*
X756249Y256980D01*
X756375Y256915D01*
X756499Y256851D01*
X756501Y256851D01*
X756502Y256850D01*
X756517Y256848D01*
X756778Y256796D01*
X756809Y256799D01*
X756833Y256795D01*
X780742Y256795D01*
X780828Y256807D01*
X780916Y256810D01*
X780969Y256827D01*
X781023Y256835D01*
X781103Y256870D01*
X781186Y256897D01*
X781226Y256925D01*
X781283Y256951D01*
X781396Y257047D01*
X781460Y257092D01*
X796754Y272386D01*
X796806Y272456D01*
X796866Y272520D01*
X796892Y272569D01*
X796925Y272613D01*
X796956Y272695D01*
X796996Y272773D01*
X797004Y272821D01*
X797026Y272879D01*
X797038Y273027D01*
X797051Y273104D01*
X797051Y275432D01*
X797902Y277486D01*
X799474Y279058D01*
X801528Y279909D01*
X803348Y279909D01*
X803377Y279913D01*
X803406Y279910D01*
X803517Y279933D01*
X803629Y279949D01*
X803656Y279961D01*
X803685Y279966D01*
X803785Y280018D01*
X803889Y280065D01*
X803911Y280084D01*
X803937Y280097D01*
X804019Y280175D01*
X804106Y280248D01*
X804122Y280273D01*
X804143Y280293D01*
X804201Y280391D01*
X804263Y280485D01*
X804272Y280513D01*
X804287Y280538D01*
X804315Y280648D01*
X804349Y280756D01*
X804350Y280786D01*
X804357Y280814D01*
X804354Y280927D01*
X804356Y281040D01*
X804349Y281069D01*
X804348Y281098D01*
X804313Y281206D01*
X804285Y281315D01*
X804270Y281341D01*
X804261Y281369D01*
X804215Y281432D01*
X804139Y281560D01*
X804094Y281603D01*
X804066Y281642D01*
X785524Y300184D01*
X785454Y300236D01*
X785390Y300296D01*
X785341Y300322D01*
X785297Y300355D01*
X785215Y300386D01*
X785137Y300426D01*
X785089Y300434D01*
X785031Y300456D01*
X784883Y300468D01*
X784806Y300481D01*
X782478Y300481D01*
X780424Y301332D01*
X778852Y302904D01*
X778001Y304958D01*
X778001Y307182D01*
X778852Y309236D01*
X780424Y310808D01*
X782478Y311659D01*
X784702Y311659D01*
X786756Y310808D01*
X788328Y309236D01*
X789179Y307182D01*
X789179Y304854D01*
X789191Y304768D01*
X789194Y304680D01*
X789211Y304627D01*
X789219Y304573D01*
X789254Y304493D01*
X789281Y304410D01*
X789309Y304370D01*
X789335Y304313D01*
X789431Y304200D01*
X789476Y304136D01*
X821280Y272332D01*
X823215Y270398D01*
X823215Y237602D01*
X812336Y226724D01*
X812284Y226654D01*
X812224Y226590D01*
X812198Y226541D01*
X812165Y226497D01*
X812134Y226415D01*
X812094Y226337D01*
X812086Y226289D01*
X812064Y226231D01*
X812052Y226083D01*
X812039Y226006D01*
X812039Y223678D01*
X811188Y221624D01*
X809616Y220052D01*
X807562Y219201D01*
X805338Y219201D01*
X803284Y220052D01*
X801712Y221624D01*
X800861Y223678D01*
X800861Y225902D01*
X801712Y227956D01*
X803284Y229528D01*
X805338Y230379D01*
X807666Y230379D01*
X807752Y230391D01*
X807840Y230394D01*
X807893Y230411D01*
X807947Y230419D01*
X808027Y230454D01*
X808110Y230481D01*
X808150Y230509D01*
X808207Y230535D01*
X808320Y230631D01*
X808384Y230676D01*
X817328Y239620D01*
X817380Y239690D01*
X817440Y239754D01*
X817466Y239803D01*
X817499Y239847D01*
X817530Y239929D01*
X817570Y240007D01*
X817578Y240055D01*
X817600Y240113D01*
X817612Y240261D01*
X817625Y240338D01*
X817625Y253353D01*
X817621Y253382D01*
X817624Y253411D01*
X817601Y253522D01*
X817585Y253634D01*
X817573Y253661D01*
X817568Y253690D01*
X817515Y253790D01*
X817469Y253894D01*
X817450Y253916D01*
X817437Y253942D01*
X817359Y254024D01*
X817286Y254111D01*
X817261Y254127D01*
X817241Y254148D01*
X817143Y254205D01*
X817049Y254268D01*
X817021Y254277D01*
X816996Y254292D01*
X816886Y254320D01*
X816778Y254354D01*
X816748Y254355D01*
X816720Y254362D01*
X816607Y254358D01*
X816494Y254361D01*
X816465Y254354D01*
X816436Y254353D01*
X816328Y254318D01*
X816219Y254289D01*
X816193Y254274D01*
X816165Y254265D01*
X816101Y254220D01*
X815974Y254144D01*
X815931Y254098D01*
X815892Y254070D01*
X814696Y252874D01*
X812642Y252023D01*
X810314Y252023D01*
X810228Y252011D01*
X810140Y252008D01*
X810087Y251991D01*
X810033Y251983D01*
X809953Y251948D01*
X809870Y251921D01*
X809830Y251893D01*
X809773Y251867D01*
X809660Y251771D01*
X809596Y251726D01*
X784142Y226272D01*
X784090Y226202D01*
X784030Y226138D01*
X784004Y226089D01*
X783971Y226045D01*
X783940Y225963D01*
X783900Y225885D01*
X783892Y225837D01*
X783870Y225779D01*
X783863Y225700D01*
X783859Y225685D01*
X783857Y225629D01*
X783845Y225554D01*
X783845Y163799D01*
X783857Y163713D01*
X783860Y163625D01*
X783877Y163573D01*
X783885Y163518D01*
X783920Y163438D01*
X783947Y163355D01*
X783975Y163316D01*
X784001Y163259D01*
X784097Y163145D01*
X784142Y163082D01*
X785788Y161436D01*
X786639Y159382D01*
X786639Y157158D01*
X785881Y155329D01*
X785852Y155217D01*
X785817Y155108D01*
X785817Y155080D01*
X785810Y155053D01*
X785813Y154939D01*
X785810Y154824D01*
X785817Y154797D01*
X785818Y154769D01*
X785853Y154660D01*
X785882Y154549D01*
X785896Y154525D01*
X785905Y154498D01*
X785969Y154403D01*
X786027Y154304D01*
X786047Y154285D01*
X786063Y154262D01*
X786151Y154188D01*
X786235Y154110D01*
X786259Y154097D01*
X786280Y154079D01*
X786385Y154033D01*
X786488Y153980D01*
X786512Y153976D01*
X786540Y153964D01*
X786804Y153927D01*
X786819Y153925D01*
X794186Y153925D01*
X794272Y153937D01*
X794360Y153940D01*
X794412Y153957D01*
X794467Y153965D01*
X794547Y154000D01*
X794630Y154027D01*
X794670Y154055D01*
X794727Y154081D01*
X794840Y154177D01*
X794904Y154222D01*
X801007Y160325D01*
X801008Y160326D01*
X801009Y160327D01*
X801097Y160446D01*
X801178Y160552D01*
X801178Y160554D01*
X801179Y160555D01*
X801230Y160689D01*
X801279Y160818D01*
X801279Y160820D01*
X801280Y160821D01*
X801291Y160966D01*
X801302Y161101D01*
X801302Y161103D01*
X801302Y161104D01*
X801299Y161120D01*
X801247Y161380D01*
X801232Y161407D01*
X801227Y161432D01*
X800607Y162927D01*
X800607Y167273D01*
X802270Y171287D01*
X805343Y174360D01*
X809357Y176023D01*
X813703Y176023D01*
X817717Y174360D01*
X820638Y171439D01*
X820685Y171403D01*
X820725Y171361D01*
X820798Y171319D01*
X820866Y171268D01*
X820920Y171247D01*
X820971Y171217D01*
X821052Y171197D01*
X821131Y171167D01*
X821190Y171162D01*
X821246Y171147D01*
X821330Y171150D01*
X821415Y171143D01*
X821472Y171154D01*
X821530Y171156D01*
X821611Y171182D01*
X821693Y171199D01*
X821745Y171226D01*
X821801Y171244D01*
X821857Y171284D01*
X821946Y171330D01*
X822018Y171399D01*
X822074Y171439D01*
X823878Y173242D01*
X828758Y178122D01*
X828768Y178135D01*
X828773Y178140D01*
X828789Y178163D01*
X828810Y178192D01*
X828870Y178256D01*
X828896Y178305D01*
X828929Y178350D01*
X828960Y178431D01*
X829000Y178509D01*
X829008Y178557D01*
X829030Y178615D01*
X829042Y178763D01*
X829055Y178840D01*
X829055Y318219D01*
X829039Y318333D01*
X829029Y318447D01*
X829019Y318473D01*
X829015Y318501D01*
X828968Y318605D01*
X828927Y318712D01*
X828911Y318735D01*
X828899Y318760D01*
X828825Y318848D01*
X828756Y318939D01*
X828733Y318956D01*
X828716Y318977D01*
X828620Y319041D01*
X828528Y319109D01*
X828502Y319119D01*
X828479Y319135D01*
X828369Y319169D01*
X828262Y319210D01*
X828234Y319212D01*
X828208Y319220D01*
X828093Y319223D01*
X827979Y319232D01*
X827954Y319227D01*
X827924Y319228D01*
X827667Y319161D01*
X827651Y319157D01*
X826409Y318642D01*
X824337Y318642D01*
X822423Y319435D01*
X820958Y320900D01*
X820165Y322814D01*
X820165Y324685D01*
X820153Y324771D01*
X820150Y324859D01*
X820133Y324912D01*
X820125Y324966D01*
X820090Y325046D01*
X820063Y325129D01*
X820035Y325169D01*
X820009Y325226D01*
X819913Y325339D01*
X819868Y325403D01*
X817768Y327503D01*
X817699Y327554D01*
X817637Y327613D01*
X817586Y327639D01*
X817541Y327674D01*
X817460Y327704D01*
X817384Y327744D01*
X817328Y327755D01*
X817275Y327775D01*
X817189Y327782D01*
X817105Y327799D01*
X817048Y327794D01*
X816992Y327798D01*
X816908Y327781D01*
X816822Y327774D01*
X816769Y327754D01*
X816713Y327742D01*
X816637Y327703D01*
X816557Y327672D01*
X816511Y327638D01*
X816461Y327611D01*
X816398Y327552D01*
X816330Y327500D01*
X816296Y327455D01*
X816255Y327416D01*
X816211Y327341D01*
X816160Y327273D01*
X816140Y327219D01*
X816111Y327170D01*
X816090Y327087D01*
X816059Y327007D01*
X816055Y326950D01*
X816041Y326895D01*
X816044Y326809D01*
X816037Y326723D01*
X816048Y326675D01*
X816050Y326611D01*
X816094Y326473D01*
X816112Y326396D01*
X816738Y324886D01*
X816738Y322814D01*
X815945Y320900D01*
X814480Y319435D01*
X812566Y318642D01*
X810494Y318642D01*
X808580Y319435D01*
X807115Y320900D01*
X806322Y322814D01*
X806322Y324685D01*
X806310Y324771D01*
X806307Y324859D01*
X806290Y324912D01*
X806282Y324966D01*
X806247Y325046D01*
X806220Y325129D01*
X806192Y325169D01*
X806166Y325226D01*
X806070Y325339D01*
X806025Y325403D01*
X753520Y377908D01*
X753450Y377960D01*
X753386Y378020D01*
X753337Y378046D01*
X753293Y378079D01*
X753211Y378110D01*
X753133Y378150D01*
X753085Y378158D01*
X753027Y378180D01*
X752879Y378192D01*
X752802Y378205D01*
X722543Y378205D01*
X722542Y378205D01*
X722540Y378205D01*
X722400Y378185D01*
X722262Y378165D01*
X722260Y378165D01*
X722259Y378165D01*
X722133Y378108D01*
X722003Y378049D01*
X722001Y378048D01*
X722000Y378047D01*
X721893Y377956D01*
X721786Y377866D01*
X721785Y377864D01*
X721783Y377863D01*
X721775Y377850D01*
X721628Y377629D01*
X721619Y377600D01*
X721605Y377579D01*
X720460Y374813D01*
X717387Y371740D01*
X713373Y370077D01*
X709027Y370077D01*
X705013Y371740D01*
X701940Y374813D01*
X700277Y378827D01*
X700277Y383173D01*
X701940Y387187D01*
X705013Y390260D01*
X709027Y391923D01*
X713373Y391923D01*
X717387Y390260D01*
X720460Y387187D01*
X721605Y384421D01*
X721606Y384420D01*
X721607Y384419D01*
X721678Y384298D01*
X721750Y384177D01*
X721751Y384176D01*
X721752Y384174D01*
X721856Y384077D01*
X721957Y383981D01*
X721958Y383981D01*
X721959Y383980D01*
X722085Y383915D01*
X722209Y383851D01*
X722211Y383851D01*
X722212Y383850D01*
X722227Y383848D01*
X722488Y383796D01*
X722519Y383799D01*
X722543Y383795D01*
X753263Y383795D01*
X753292Y383799D01*
X753321Y383796D01*
X753433Y383819D01*
X753545Y383835D01*
X753571Y383847D01*
X753600Y383852D01*
X753701Y383904D01*
X753804Y383951D01*
X753827Y383970D01*
X753853Y383983D01*
X753935Y384061D01*
X754021Y384134D01*
X754037Y384159D01*
X754059Y384179D01*
X754116Y384277D01*
X754179Y384371D01*
X754188Y384399D01*
X754202Y384424D01*
X754230Y384534D01*
X754264Y384642D01*
X754265Y384672D01*
X754272Y384700D01*
X754269Y384813D01*
X754272Y384926D01*
X754264Y384955D01*
X754263Y384984D01*
X754229Y385092D01*
X754200Y385201D01*
X754185Y385227D01*
X754176Y385255D01*
X754130Y385318D01*
X754055Y385446D01*
X754009Y385489D01*
X753981Y385528D01*
X747932Y391577D01*
X745997Y393512D01*
X745997Y398853D01*
X745985Y398939D01*
X745982Y399027D01*
X745965Y399080D01*
X745957Y399134D01*
X745922Y399214D01*
X745895Y399297D01*
X745867Y399337D01*
X745841Y399394D01*
X745745Y399507D01*
X745700Y399571D01*
X741963Y403308D01*
X741893Y403360D01*
X741829Y403420D01*
X741780Y403446D01*
X741736Y403479D01*
X741654Y403510D01*
X741576Y403550D01*
X741528Y403558D01*
X741470Y403580D01*
X741322Y403592D01*
X741245Y403605D01*
X722543Y403605D01*
X722542Y403605D01*
X722540Y403605D01*
X722400Y403585D01*
X722262Y403565D01*
X722260Y403565D01*
X722259Y403565D01*
X722133Y403508D01*
X722003Y403449D01*
X722001Y403448D01*
X722000Y403447D01*
X721890Y403354D01*
X721786Y403266D01*
X721785Y403264D01*
X721783Y403263D01*
X721775Y403250D01*
X721628Y403029D01*
X721619Y403000D01*
X721605Y402979D01*
X720460Y400213D01*
X717387Y397140D01*
X713373Y395477D01*
X709027Y395477D01*
X705013Y397140D01*
X701940Y400213D01*
X700277Y404227D01*
X700277Y408573D01*
X701940Y412587D01*
X705013Y415660D01*
X709027Y417323D01*
X713373Y417323D01*
X717387Y415660D01*
X720460Y412587D01*
X721605Y409821D01*
X721606Y409820D01*
X721607Y409819D01*
X721678Y409698D01*
X721750Y409577D01*
X721751Y409576D01*
X721752Y409574D01*
X721856Y409477D01*
X721957Y409381D01*
X721958Y409381D01*
X721959Y409380D01*
X722085Y409315D01*
X722209Y409251D01*
X722211Y409251D01*
X722212Y409250D01*
X722227Y409248D01*
X722488Y409196D01*
X722519Y409199D01*
X722543Y409195D01*
X743981Y409195D01*
X745915Y407260D01*
X749652Y403523D01*
X751587Y401589D01*
X751587Y396247D01*
X751599Y396161D01*
X751602Y396073D01*
X751619Y396021D01*
X751627Y395966D01*
X751662Y395886D01*
X751689Y395803D01*
X751717Y395764D01*
X751743Y395707D01*
X751839Y395593D01*
X751884Y395530D01*
X803200Y344214D01*
X803269Y344162D01*
X803333Y344102D01*
X803383Y344076D01*
X803427Y344043D01*
X803508Y344012D01*
X803586Y343972D01*
X803634Y343964D01*
X803692Y343942D01*
X803840Y343930D01*
X803917Y343917D01*
X809259Y343917D01*
X823820Y329355D01*
X823890Y329303D01*
X823954Y329243D01*
X824003Y329217D01*
X824047Y329184D01*
X824129Y329153D01*
X824207Y329113D01*
X824255Y329105D01*
X824313Y329083D01*
X824461Y329071D01*
X824538Y329058D01*
X826409Y329058D01*
X827651Y328543D01*
X827763Y328514D01*
X827872Y328480D01*
X827900Y328479D01*
X827927Y328472D01*
X828041Y328475D01*
X828156Y328472D01*
X828183Y328479D01*
X828211Y328480D01*
X828320Y328515D01*
X828431Y328544D01*
X828455Y328558D01*
X828482Y328567D01*
X828577Y328631D01*
X828676Y328689D01*
X828695Y328710D01*
X828718Y328725D01*
X828792Y328813D01*
X828870Y328897D01*
X828883Y328922D01*
X828901Y328943D01*
X828947Y329048D01*
X829000Y329150D01*
X829004Y329175D01*
X829016Y329203D01*
X829053Y329466D01*
X829055Y329481D01*
X829055Y353881D01*
X829043Y353967D01*
X829040Y354055D01*
X829023Y354107D01*
X829015Y354162D01*
X828980Y354242D01*
X828953Y354325D01*
X828925Y354364D01*
X828899Y354421D01*
X828803Y354535D01*
X828758Y354598D01*
X827112Y356244D01*
X826261Y358298D01*
X826261Y360522D01*
X827112Y362576D01*
X828684Y364148D01*
X830738Y364999D01*
X832962Y364999D01*
X835016Y364148D01*
X836588Y362576D01*
X837439Y360522D01*
X837439Y358298D01*
X836588Y356244D01*
X834942Y354598D01*
X834890Y354529D01*
X834830Y354465D01*
X834804Y354415D01*
X834771Y354371D01*
X834740Y354290D01*
X834700Y354212D01*
X834692Y354164D01*
X834670Y354106D01*
X834658Y353958D01*
X834645Y353881D01*
X834645Y177038D01*
X834653Y176980D01*
X834651Y176922D01*
X834673Y176840D01*
X834685Y176756D01*
X834708Y176703D01*
X834723Y176647D01*
X834766Y176574D01*
X834801Y176497D01*
X834839Y176452D01*
X834868Y176402D01*
X834930Y176344D01*
X834984Y176280D01*
X835033Y176248D01*
X835076Y176208D01*
X835151Y176169D01*
X835221Y176122D01*
X835277Y176105D01*
X835329Y176078D01*
X835397Y176067D01*
X835492Y176037D01*
X835592Y176034D01*
X835660Y176023D01*
X839103Y176023D01*
X841621Y174979D01*
X841733Y174951D01*
X841842Y174916D01*
X841870Y174915D01*
X841897Y174908D01*
X842011Y174912D01*
X842126Y174909D01*
X842153Y174916D01*
X842181Y174917D01*
X842290Y174952D01*
X842401Y174981D01*
X842425Y174995D01*
X842452Y175003D01*
X842547Y175067D01*
X842646Y175126D01*
X842665Y175146D01*
X842688Y175162D01*
X842762Y175249D01*
X842840Y175333D01*
X842853Y175358D01*
X842871Y175379D01*
X842917Y175484D01*
X842970Y175586D01*
X842974Y175611D01*
X842986Y175639D01*
X843023Y175903D01*
X843025Y175917D01*
X843025Y395791D01*
X843013Y395877D01*
X843010Y395965D01*
X842993Y396017D01*
X842985Y396072D01*
X842950Y396152D01*
X842923Y396235D01*
X842895Y396274D01*
X842869Y396331D01*
X842773Y396445D01*
X842728Y396508D01*
X841082Y398154D01*
X840231Y400208D01*
X840231Y402432D01*
X841082Y404486D01*
X842654Y406058D01*
X844708Y406909D01*
X846932Y406909D01*
X848986Y406058D01*
X850558Y404486D01*
X851409Y402432D01*
X851409Y400208D01*
X850558Y398154D01*
X848912Y396508D01*
X848860Y396439D01*
X848800Y396375D01*
X848774Y396325D01*
X848741Y396281D01*
X848710Y396200D01*
X848670Y396122D01*
X848662Y396074D01*
X848640Y396016D01*
X848628Y395868D01*
X848615Y395791D01*
X848615Y175030D01*
X848627Y174944D01*
X848630Y174856D01*
X848647Y174804D01*
X848655Y174749D01*
X848690Y174669D01*
X848717Y174586D01*
X848745Y174546D01*
X848771Y174489D01*
X848867Y174376D01*
X848912Y174312D01*
X849982Y173242D01*
X851786Y171439D01*
X851833Y171403D01*
X851873Y171361D01*
X851946Y171318D01*
X852013Y171268D01*
X852068Y171247D01*
X852118Y171217D01*
X852200Y171197D01*
X852279Y171167D01*
X852337Y171162D01*
X852394Y171147D01*
X852478Y171150D01*
X852562Y171143D01*
X852619Y171154D01*
X852678Y171156D01*
X852758Y171182D01*
X852841Y171199D01*
X852893Y171226D01*
X852948Y171244D01*
X853004Y171284D01*
X853093Y171330D01*
X853165Y171399D01*
X853222Y171439D01*
X856143Y174360D01*
X860157Y176023D01*
X864503Y176023D01*
X868517Y174360D01*
X871590Y171287D01*
X873253Y167273D01*
X873253Y162927D01*
X871590Y158913D01*
X868517Y155840D01*
X864503Y154177D01*
X860157Y154177D01*
X856143Y155840D01*
X853650Y158333D01*
X853626Y158351D01*
X853607Y158373D01*
X853513Y158436D01*
X853423Y158504D01*
X853395Y158514D01*
X853371Y158531D01*
X853263Y158565D01*
X853157Y158605D01*
X853128Y158608D01*
X853100Y158616D01*
X852986Y158619D01*
X852874Y158629D01*
X852845Y158623D01*
X852816Y158624D01*
X852706Y158595D01*
X852595Y158573D01*
X852569Y158559D01*
X852541Y158552D01*
X852443Y158494D01*
X852343Y158442D01*
X852321Y158422D01*
X852296Y158407D01*
X852219Y158324D01*
X852137Y158246D01*
X852122Y158221D01*
X852102Y158199D01*
X852050Y158099D01*
X851993Y158001D01*
X851986Y157972D01*
X851972Y157946D01*
X851959Y157869D01*
X851923Y157725D01*
X851925Y157663D01*
X851917Y157615D01*
X851917Y110826D01*
X850266Y109176D01*
X850248Y109152D01*
X850226Y109133D01*
X850163Y109039D01*
X850095Y108949D01*
X850085Y108921D01*
X850068Y108897D01*
X850034Y108789D01*
X849994Y108683D01*
X849992Y108654D01*
X849983Y108626D01*
X849980Y108512D01*
X849970Y108400D01*
X849976Y108371D01*
X849975Y108342D01*
X850004Y108232D01*
X850026Y108121D01*
X850040Y108095D01*
X850047Y108067D01*
X850105Y107969D01*
X850157Y107869D01*
X850177Y107847D01*
X850192Y107822D01*
X850275Y107745D01*
X850353Y107663D01*
X850378Y107648D01*
X850400Y107628D01*
X850501Y107576D01*
X850598Y107519D01*
X850627Y107512D01*
X850653Y107498D01*
X850730Y107485D01*
X850874Y107449D01*
X850936Y107451D01*
X850984Y107443D01*
X853073Y107443D01*
X857087Y105780D01*
X860160Y102707D01*
X861823Y98693D01*
X861823Y94347D01*
X860160Y90333D01*
X857087Y87260D01*
X853073Y85597D01*
X848727Y85597D01*
X844713Y87260D01*
X843236Y88737D01*
X843212Y88755D01*
X843193Y88777D01*
X843099Y88840D01*
X843009Y88908D01*
X842981Y88918D01*
X842957Y88935D01*
X842849Y88969D01*
X842743Y89009D01*
X842714Y89012D01*
X842686Y89020D01*
X842572Y89023D01*
X842460Y89033D01*
X842431Y89027D01*
X842402Y89028D01*
X842292Y88999D01*
X842181Y88977D01*
X842155Y88963D01*
X842127Y88956D01*
X842029Y88898D01*
X841929Y88846D01*
X841907Y88826D01*
X841882Y88811D01*
X841805Y88728D01*
X841723Y88650D01*
X841708Y88625D01*
X841688Y88603D01*
X841636Y88503D01*
X841579Y88405D01*
X841572Y88376D01*
X841558Y88350D01*
X841549Y88297D01*
X834278Y81025D01*
X831601Y81025D01*
X831555Y81019D01*
X831509Y81021D01*
X831415Y80999D01*
X831319Y80985D01*
X831277Y80967D01*
X831232Y80956D01*
X831148Y80909D01*
X831060Y80869D01*
X831025Y80839D01*
X830984Y80817D01*
X830917Y80748D01*
X830843Y80686D01*
X830817Y80647D01*
X830785Y80614D01*
X830739Y80529D01*
X830685Y80449D01*
X830671Y80405D01*
X830649Y80364D01*
X830629Y80270D01*
X830600Y80178D01*
X830598Y80132D01*
X830589Y80087D01*
X830595Y79990D01*
X830592Y79894D01*
X830604Y79849D01*
X830607Y79803D01*
X830640Y79712D01*
X830664Y79619D01*
X830688Y79579D01*
X830703Y79535D01*
X830760Y79457D01*
X830809Y79374D01*
X830843Y79343D01*
X830870Y79305D01*
X830931Y79260D01*
X831017Y79180D01*
X831091Y79142D01*
X831140Y79105D01*
X831757Y78791D01*
X833278Y77686D01*
X834606Y76358D01*
X835711Y74837D01*
X836564Y73163D01*
X837145Y71376D01*
X837197Y71044D01*
X837234Y70924D01*
X837267Y70803D01*
X837276Y70789D01*
X837281Y70772D01*
X837349Y70667D01*
X837383Y70611D01*
X826516Y70611D01*
X826458Y70603D01*
X826400Y70605D01*
X826318Y70583D01*
X826235Y70571D01*
X826181Y70547D01*
X826125Y70533D01*
X826052Y70490D01*
X825975Y70455D01*
X825931Y70417D01*
X825880Y70387D01*
X825823Y70326D01*
X825758Y70271D01*
X825726Y70223D01*
X825686Y70180D01*
X825647Y70105D01*
X825601Y70035D01*
X825583Y69979D01*
X825556Y69927D01*
X825545Y69859D01*
X825515Y69764D01*
X825512Y69664D01*
X825501Y69596D01*
X825501Y68579D01*
X825499Y68579D01*
G37*
%LPD*%
%LPC*%
G36*
X266445Y133095D02*
X266445Y133095D01*
X266445Y174245D01*
X481585Y174245D01*
X481585Y161290D01*
X481593Y161232D01*
X481591Y161174D01*
X481613Y161092D01*
X481625Y161009D01*
X481649Y160955D01*
X481663Y160899D01*
X481706Y160826D01*
X481741Y160749D01*
X481779Y160704D01*
X481809Y160654D01*
X481870Y160596D01*
X481925Y160532D01*
X481973Y160500D01*
X482016Y160460D01*
X482091Y160421D01*
X482161Y160375D01*
X482217Y160357D01*
X482269Y160330D01*
X482337Y160319D01*
X482432Y160289D01*
X482532Y160286D01*
X482600Y160275D01*
X651765Y160275D01*
X651765Y133095D01*
X266445Y133095D01*
G37*
%LPD*%
%LPC*%
G36*
X899527Y85597D02*
X899527Y85597D01*
X895513Y87260D01*
X892440Y90333D01*
X890777Y94347D01*
X890777Y98693D01*
X892440Y102707D01*
X895513Y105780D01*
X898279Y106925D01*
X898280Y106926D01*
X898281Y106927D01*
X898402Y106998D01*
X898523Y107070D01*
X898524Y107071D01*
X898526Y107072D01*
X898619Y107172D01*
X898719Y107277D01*
X898719Y107278D01*
X898720Y107279D01*
X898785Y107405D01*
X898849Y107529D01*
X898849Y107531D01*
X898850Y107532D01*
X898852Y107547D01*
X898904Y107808D01*
X898901Y107839D01*
X898905Y107863D01*
X898905Y360372D01*
X898893Y360458D01*
X898890Y360546D01*
X898873Y360599D01*
X898865Y360653D01*
X898830Y360733D01*
X898803Y360816D01*
X898775Y360856D01*
X898749Y360913D01*
X898653Y361026D01*
X898608Y361090D01*
X861724Y397974D01*
X861654Y398026D01*
X861590Y398086D01*
X861541Y398112D01*
X861497Y398145D01*
X861415Y398176D01*
X861337Y398216D01*
X861289Y398224D01*
X861231Y398246D01*
X861083Y398258D01*
X861006Y398271D01*
X858678Y398271D01*
X856624Y399122D01*
X855052Y400694D01*
X854201Y402748D01*
X854201Y404972D01*
X855052Y407026D01*
X856624Y408598D01*
X858678Y409449D01*
X860902Y409449D01*
X862956Y408598D01*
X864528Y407026D01*
X865379Y404972D01*
X865379Y402644D01*
X865391Y402558D01*
X865394Y402470D01*
X865411Y402417D01*
X865419Y402363D01*
X865454Y402283D01*
X865481Y402200D01*
X865509Y402160D01*
X865535Y402103D01*
X865631Y401990D01*
X865676Y401926D01*
X904495Y363108D01*
X904495Y107863D01*
X904495Y107862D01*
X904495Y107860D01*
X904515Y107720D01*
X904535Y107582D01*
X904535Y107580D01*
X904535Y107579D01*
X904593Y107452D01*
X904651Y107323D01*
X904652Y107321D01*
X904653Y107320D01*
X904744Y107213D01*
X904834Y107106D01*
X904836Y107105D01*
X904837Y107103D01*
X904850Y107095D01*
X905071Y106948D01*
X905100Y106939D01*
X905121Y106925D01*
X907887Y105780D01*
X910960Y102707D01*
X912623Y98693D01*
X912623Y94347D01*
X910960Y90333D01*
X907887Y87260D01*
X903873Y85597D01*
X899527Y85597D01*
G37*
%LPD*%
%LPC*%
G36*
X126133Y508679D02*
X126133Y508679D01*
X118286Y511930D01*
X112280Y517936D01*
X109029Y525783D01*
X109029Y534277D01*
X112280Y542124D01*
X118286Y548130D01*
X126133Y551381D01*
X134627Y551381D01*
X142474Y548130D01*
X148480Y542124D01*
X151731Y534277D01*
X151731Y525783D01*
X148480Y517936D01*
X142474Y511930D01*
X134627Y508679D01*
X126133Y508679D01*
G37*
%LPD*%
%LPC*%
G36*
X279803Y509949D02*
X279803Y509949D01*
X271956Y513200D01*
X265950Y519206D01*
X262699Y527053D01*
X262699Y535547D01*
X265950Y543394D01*
X271956Y549400D01*
X279803Y552651D01*
X288297Y552651D01*
X296144Y549400D01*
X302150Y543394D01*
X305401Y535547D01*
X305401Y527053D01*
X302150Y519206D01*
X296144Y513200D01*
X288297Y509949D01*
X279803Y509949D01*
G37*
%LPD*%
%LPC*%
G36*
X588413Y511219D02*
X588413Y511219D01*
X580566Y514470D01*
X574560Y520476D01*
X571309Y528323D01*
X571309Y536817D01*
X574560Y544664D01*
X580566Y550670D01*
X588413Y553921D01*
X596907Y553921D01*
X604754Y550670D01*
X610760Y544664D01*
X614011Y536817D01*
X614011Y528323D01*
X610760Y520476D01*
X604754Y514470D01*
X596907Y511219D01*
X588413Y511219D01*
G37*
%LPD*%
%LPC*%
G36*
X429663Y512489D02*
X429663Y512489D01*
X421816Y515740D01*
X415810Y521746D01*
X412559Y529593D01*
X412559Y538087D01*
X415810Y545934D01*
X421816Y551940D01*
X429663Y555191D01*
X438157Y555191D01*
X446004Y551940D01*
X452010Y545934D01*
X455261Y538087D01*
X455261Y529593D01*
X452010Y521746D01*
X446004Y515740D01*
X438157Y512489D01*
X429663Y512489D01*
G37*
%LPD*%
%LPC*%
G36*
X418924Y634799D02*
X418924Y634799D01*
X411558Y637850D01*
X405920Y643488D01*
X402869Y650854D01*
X402869Y658826D01*
X405920Y666192D01*
X411558Y671830D01*
X418924Y674881D01*
X426896Y674881D01*
X434262Y671830D01*
X439900Y666192D01*
X442951Y658826D01*
X442951Y650854D01*
X439900Y643488D01*
X434262Y637850D01*
X426896Y634799D01*
X418924Y634799D01*
G37*
%LPD*%
%LPC*%
G36*
X577674Y633529D02*
X577674Y633529D01*
X570308Y636580D01*
X564670Y642218D01*
X561619Y649584D01*
X561619Y657556D01*
X564670Y664922D01*
X570308Y670560D01*
X577674Y673611D01*
X585646Y673611D01*
X593012Y670560D01*
X598650Y664922D01*
X601701Y657556D01*
X601701Y649584D01*
X598650Y642218D01*
X593012Y636580D01*
X585646Y633529D01*
X577674Y633529D01*
G37*
%LPD*%
%LPC*%
G36*
X269064Y632259D02*
X269064Y632259D01*
X261698Y635310D01*
X256060Y640948D01*
X253009Y648314D01*
X253009Y656286D01*
X256060Y663652D01*
X261698Y669290D01*
X269064Y672341D01*
X277036Y672341D01*
X284402Y669290D01*
X290040Y663652D01*
X293091Y656286D01*
X293091Y648314D01*
X290040Y640948D01*
X284402Y635310D01*
X277036Y632259D01*
X269064Y632259D01*
G37*
%LPD*%
%LPC*%
G36*
X115394Y630989D02*
X115394Y630989D01*
X108028Y634040D01*
X102390Y639678D01*
X99339Y647044D01*
X99339Y655016D01*
X102390Y662382D01*
X108028Y668020D01*
X115394Y671071D01*
X123366Y671071D01*
X130732Y668020D01*
X136370Y662382D01*
X139421Y655016D01*
X139421Y647044D01*
X136370Y639678D01*
X130732Y634040D01*
X123366Y630989D01*
X115394Y630989D01*
G37*
%LPD*%
%LPC*%
G36*
X174751Y89661D02*
X174751Y89661D01*
X174751Y120610D01*
X177571Y120333D01*
X180753Y119700D01*
X183858Y118758D01*
X186855Y117516D01*
X189716Y115987D01*
X192414Y114184D01*
X194922Y112126D01*
X197216Y109832D01*
X199274Y107324D01*
X201077Y104626D01*
X202606Y101765D01*
X203848Y98768D01*
X204790Y95663D01*
X205423Y92481D01*
X205700Y89661D01*
X174751Y89661D01*
G37*
%LPD*%
%LPC*%
G36*
X103631Y89661D02*
X103631Y89661D01*
X103631Y120610D01*
X106451Y120333D01*
X109633Y119700D01*
X112738Y118758D01*
X115735Y117516D01*
X118596Y115987D01*
X121294Y114184D01*
X123802Y112126D01*
X126096Y109832D01*
X128154Y107324D01*
X129957Y104626D01*
X131486Y101765D01*
X132728Y98768D01*
X133670Y95663D01*
X134303Y92481D01*
X134580Y89661D01*
X103631Y89661D01*
G37*
%LPD*%
%LPC*%
G36*
X68620Y89661D02*
X68620Y89661D01*
X68897Y92481D01*
X69530Y95663D01*
X70472Y98768D01*
X71714Y101765D01*
X73243Y104626D01*
X75046Y107324D01*
X77104Y109832D01*
X79398Y112126D01*
X81906Y114184D01*
X84604Y115987D01*
X87465Y117516D01*
X90462Y118758D01*
X93567Y119700D01*
X96749Y120333D01*
X99569Y120610D01*
X99569Y89661D01*
X68620Y89661D01*
G37*
%LPD*%
%LPC*%
G36*
X174751Y85599D02*
X174751Y85599D01*
X205700Y85599D01*
X205423Y82779D01*
X204790Y79597D01*
X203848Y76492D01*
X202606Y73495D01*
X201077Y70634D01*
X199274Y67936D01*
X197216Y65428D01*
X194922Y63134D01*
X192414Y61076D01*
X189716Y59273D01*
X186855Y57744D01*
X183858Y56502D01*
X180753Y55560D01*
X177571Y54927D01*
X174751Y54650D01*
X174751Y85599D01*
G37*
%LPD*%
%LPC*%
G36*
X103631Y85599D02*
X103631Y85599D01*
X134580Y85599D01*
X134303Y82779D01*
X133670Y79597D01*
X132728Y76492D01*
X131486Y73495D01*
X129957Y70634D01*
X128154Y67936D01*
X126096Y65428D01*
X123802Y63134D01*
X121294Y61076D01*
X118596Y59273D01*
X115735Y57744D01*
X112738Y56502D01*
X109633Y55560D01*
X106451Y54927D01*
X103631Y54650D01*
X103631Y85599D01*
G37*
%LPD*%
%LPC*%
G36*
X96749Y54927D02*
X96749Y54927D01*
X93567Y55560D01*
X90462Y56502D01*
X87465Y57744D01*
X84604Y59273D01*
X81906Y61076D01*
X79398Y63134D01*
X77104Y65428D01*
X75046Y67936D01*
X73243Y70634D01*
X71714Y73495D01*
X70472Y76492D01*
X69530Y79597D01*
X68897Y82779D01*
X68620Y85599D01*
X99569Y85599D01*
X99569Y54650D01*
X96749Y54927D01*
G37*
%LPD*%
%LPC*%
G36*
X396272Y417956D02*
X396272Y417956D01*
X393984Y418904D01*
X392234Y420654D01*
X391286Y422942D01*
X391286Y425418D01*
X392234Y427706D01*
X393984Y429456D01*
X396272Y430404D01*
X398283Y430404D01*
X398370Y430416D01*
X398457Y430419D01*
X398510Y430436D01*
X398565Y430444D01*
X398645Y430479D01*
X398728Y430506D01*
X398767Y430534D01*
X398824Y430560D01*
X398937Y430656D01*
X399001Y430701D01*
X408737Y440437D01*
X451535Y440437D01*
X451621Y440449D01*
X451709Y440452D01*
X451761Y440469D01*
X451816Y440477D01*
X451896Y440512D01*
X451979Y440539D01*
X452018Y440567D01*
X452075Y440593D01*
X452189Y440689D01*
X452252Y440734D01*
X453674Y442156D01*
X455962Y443104D01*
X458438Y443104D01*
X460726Y442156D01*
X462476Y440406D01*
X463424Y438118D01*
X463424Y435642D01*
X462476Y433354D01*
X460726Y431604D01*
X458438Y430656D01*
X455962Y430656D01*
X453674Y431604D01*
X452252Y433026D01*
X452183Y433078D01*
X452119Y433138D01*
X452069Y433164D01*
X452025Y433197D01*
X451944Y433228D01*
X451866Y433268D01*
X451818Y433276D01*
X451760Y433298D01*
X451612Y433310D01*
X451535Y433323D01*
X412104Y433323D01*
X412017Y433311D01*
X411930Y433308D01*
X411877Y433291D01*
X411822Y433283D01*
X411742Y433248D01*
X411659Y433221D01*
X411620Y433193D01*
X411563Y433167D01*
X411450Y433071D01*
X411386Y433026D01*
X404031Y425671D01*
X403979Y425601D01*
X403919Y425537D01*
X403893Y425488D01*
X403860Y425444D01*
X403829Y425362D01*
X403789Y425284D01*
X403781Y425237D01*
X403759Y425178D01*
X403747Y425031D01*
X403734Y424953D01*
X403734Y422942D01*
X402786Y420654D01*
X401036Y418904D01*
X398748Y417956D01*
X396272Y417956D01*
G37*
%LPD*%
%LPC*%
G36*
X717917Y166877D02*
X717917Y166877D01*
X713903Y168540D01*
X710830Y171613D01*
X709167Y175627D01*
X709167Y179973D01*
X710830Y183987D01*
X713903Y187060D01*
X717917Y188723D01*
X722263Y188723D01*
X726277Y187060D01*
X729350Y183987D01*
X731013Y179973D01*
X731013Y175627D01*
X729350Y171613D01*
X726277Y168540D01*
X722263Y166877D01*
X717917Y166877D01*
G37*
%LPD*%
%LPC*%
G36*
X743317Y166877D02*
X743317Y166877D01*
X739303Y168540D01*
X736230Y171613D01*
X734567Y175627D01*
X734567Y179973D01*
X736230Y183987D01*
X739303Y187060D01*
X743317Y188723D01*
X747663Y188723D01*
X751677Y187060D01*
X754750Y183987D01*
X756413Y179973D01*
X756413Y175627D01*
X754750Y171613D01*
X751677Y168540D01*
X747663Y166877D01*
X743317Y166877D01*
G37*
%LPD*%
%LPC*%
G36*
X899527Y57657D02*
X899527Y57657D01*
X895513Y59320D01*
X892440Y62393D01*
X890777Y66407D01*
X890777Y70753D01*
X892440Y74767D01*
X895513Y77840D01*
X899527Y79503D01*
X903873Y79503D01*
X907887Y77840D01*
X910960Y74767D01*
X912623Y70753D01*
X912623Y66407D01*
X910960Y62393D01*
X907887Y59320D01*
X903873Y57657D01*
X899527Y57657D01*
G37*
%LPD*%
%LPC*%
G36*
X453757Y69087D02*
X453757Y69087D01*
X449743Y70750D01*
X446670Y73823D01*
X445007Y77837D01*
X445007Y82183D01*
X446670Y86197D01*
X449743Y89270D01*
X453757Y90933D01*
X458103Y90933D01*
X462117Y89270D01*
X465190Y86197D01*
X466853Y82183D01*
X466853Y77837D01*
X465190Y73823D01*
X462117Y70750D01*
X458103Y69087D01*
X453757Y69087D01*
G37*
%LPD*%
%LPC*%
G36*
X428357Y69087D02*
X428357Y69087D01*
X424343Y70750D01*
X421270Y73823D01*
X419607Y77837D01*
X419607Y82183D01*
X421270Y86197D01*
X424343Y89270D01*
X428357Y90933D01*
X432703Y90933D01*
X436717Y89270D01*
X439790Y86197D01*
X441453Y82183D01*
X441453Y77837D01*
X439790Y73823D01*
X436717Y70750D01*
X432703Y69087D01*
X428357Y69087D01*
G37*
%LPD*%
%LPC*%
G36*
X743317Y217677D02*
X743317Y217677D01*
X739303Y219340D01*
X736230Y222413D01*
X734567Y226427D01*
X734567Y230773D01*
X736230Y234787D01*
X739303Y237860D01*
X743317Y239523D01*
X747663Y239523D01*
X751677Y237860D01*
X754750Y234787D01*
X756413Y230773D01*
X756413Y226427D01*
X754750Y222413D01*
X751677Y219340D01*
X747663Y217677D01*
X743317Y217677D01*
G37*
%LPD*%
%LPC*%
G36*
X717917Y217677D02*
X717917Y217677D01*
X713903Y219340D01*
X710830Y222413D01*
X709167Y226427D01*
X709167Y230773D01*
X710830Y234787D01*
X713903Y237860D01*
X717917Y239523D01*
X722263Y239523D01*
X726277Y237860D01*
X729350Y234787D01*
X731013Y230773D01*
X731013Y226427D01*
X729350Y222413D01*
X726277Y219340D01*
X722263Y217677D01*
X717917Y217677D01*
G37*
%LPD*%
%LPC*%
G36*
X402957Y69087D02*
X402957Y69087D01*
X398943Y70750D01*
X395870Y73823D01*
X394207Y77837D01*
X394207Y82183D01*
X395870Y86197D01*
X398943Y89270D01*
X402957Y90933D01*
X407303Y90933D01*
X411317Y89270D01*
X414390Y86197D01*
X416053Y82183D01*
X416053Y77837D01*
X414390Y73823D01*
X411317Y70750D01*
X407303Y69087D01*
X402957Y69087D01*
G37*
%LPD*%
%LPC*%
G36*
X874127Y85597D02*
X874127Y85597D01*
X870113Y87260D01*
X867040Y90333D01*
X865377Y94347D01*
X865377Y98693D01*
X867040Y102707D01*
X870113Y105780D01*
X874127Y107443D01*
X878473Y107443D01*
X882487Y105780D01*
X885560Y102707D01*
X887223Y98693D01*
X887223Y94347D01*
X885560Y90333D01*
X882487Y87260D01*
X878473Y85597D01*
X874127Y85597D01*
G37*
%LPD*%
%LPC*%
G36*
X717917Y192277D02*
X717917Y192277D01*
X713903Y193940D01*
X710830Y197013D01*
X709167Y201027D01*
X709167Y205373D01*
X710830Y209387D01*
X713903Y212460D01*
X717917Y214123D01*
X722263Y214123D01*
X726277Y212460D01*
X729350Y209387D01*
X731013Y205373D01*
X731013Y201027D01*
X729350Y197013D01*
X726277Y193940D01*
X722263Y192277D01*
X717917Y192277D01*
G37*
%LPD*%
%LPC*%
G36*
X743317Y192277D02*
X743317Y192277D01*
X739303Y193940D01*
X736230Y197013D01*
X734567Y201027D01*
X734567Y205373D01*
X736230Y209387D01*
X739303Y212460D01*
X743317Y214123D01*
X747663Y214123D01*
X751677Y212460D01*
X754750Y209387D01*
X756413Y205373D01*
X756413Y201027D01*
X754750Y197013D01*
X751677Y193940D01*
X747663Y192277D01*
X743317Y192277D01*
G37*
%LPD*%
%LPC*%
G36*
X182371Y370331D02*
X182371Y370331D01*
X182371Y391716D01*
X184282Y391500D01*
X186855Y390913D01*
X189346Y390041D01*
X191723Y388896D01*
X193958Y387492D01*
X196021Y385847D01*
X197887Y383981D01*
X199532Y381918D01*
X200936Y379683D01*
X202081Y377306D01*
X202953Y374815D01*
X203540Y372242D01*
X203756Y370331D01*
X182371Y370331D01*
G37*
%LPD*%
%LPC*%
G36*
X102361Y238251D02*
X102361Y238251D01*
X102361Y259636D01*
X104272Y259420D01*
X106845Y258833D01*
X109336Y257961D01*
X111713Y256816D01*
X113948Y255412D01*
X116011Y253767D01*
X117877Y251901D01*
X119522Y249838D01*
X120926Y247603D01*
X122071Y245226D01*
X122943Y242735D01*
X123530Y240162D01*
X123746Y238251D01*
X102361Y238251D01*
G37*
%LPD*%
%LPC*%
G36*
X103631Y370331D02*
X103631Y370331D01*
X103631Y391716D01*
X105542Y391500D01*
X108115Y390913D01*
X110606Y390041D01*
X112983Y388896D01*
X115218Y387492D01*
X117281Y385847D01*
X119147Y383981D01*
X120792Y381918D01*
X122196Y379683D01*
X123341Y377306D01*
X124213Y374815D01*
X124800Y372242D01*
X125016Y370331D01*
X103631Y370331D01*
G37*
%LPD*%
%LPC*%
G36*
X181101Y238251D02*
X181101Y238251D01*
X181101Y259636D01*
X183012Y259420D01*
X185585Y258833D01*
X188076Y257961D01*
X190453Y256816D01*
X192688Y255412D01*
X194751Y253767D01*
X196617Y251901D01*
X198262Y249838D01*
X199666Y247603D01*
X200811Y245226D01*
X201683Y242735D01*
X202270Y240162D01*
X202486Y238251D01*
X181101Y238251D01*
G37*
%LPD*%
%LPC*%
G36*
X78184Y370331D02*
X78184Y370331D01*
X78400Y372242D01*
X78987Y374815D01*
X79859Y377306D01*
X79887Y377365D01*
X79887Y377366D01*
X79888Y377366D01*
X81004Y379683D01*
X82408Y381918D01*
X84053Y383981D01*
X85919Y385847D01*
X87982Y387492D01*
X88970Y388113D01*
X90217Y388896D01*
X92594Y390041D01*
X95085Y390913D01*
X97658Y391500D01*
X99569Y391716D01*
X99569Y370331D01*
X78184Y370331D01*
G37*
%LPD*%
%LPC*%
G36*
X102361Y234189D02*
X102361Y234189D01*
X123746Y234189D01*
X123530Y232278D01*
X122943Y229705D01*
X122071Y227214D01*
X121465Y225956D01*
X120926Y224837D01*
X119522Y222602D01*
X117877Y220539D01*
X116011Y218673D01*
X113948Y217028D01*
X111713Y215624D01*
X109336Y214479D01*
X106845Y213607D01*
X104272Y213020D01*
X102361Y212804D01*
X102361Y234189D01*
G37*
%LPD*%
%LPC*%
G36*
X155654Y238251D02*
X155654Y238251D01*
X155870Y240162D01*
X156457Y242735D01*
X157329Y245226D01*
X157787Y246177D01*
X158474Y247603D01*
X159878Y249838D01*
X161523Y251901D01*
X163389Y253767D01*
X165452Y255412D01*
X167687Y256816D01*
X170064Y257961D01*
X172555Y258833D01*
X175128Y259420D01*
X177039Y259636D01*
X177039Y238251D01*
X155654Y238251D01*
G37*
%LPD*%
%LPC*%
G36*
X182371Y366269D02*
X182371Y366269D01*
X203756Y366269D01*
X203540Y364358D01*
X202953Y361785D01*
X202081Y359294D01*
X201811Y358732D01*
X201322Y357717D01*
X200936Y356917D01*
X199532Y354682D01*
X197887Y352619D01*
X196021Y350753D01*
X193958Y349108D01*
X193787Y349000D01*
X192171Y347985D01*
X191723Y347704D01*
X189346Y346559D01*
X186855Y345687D01*
X184282Y345100D01*
X182371Y344884D01*
X182371Y366269D01*
G37*
%LPD*%
%LPC*%
G36*
X76914Y238251D02*
X76914Y238251D01*
X77130Y240162D01*
X77717Y242735D01*
X78589Y245226D01*
X79153Y246398D01*
X79642Y247413D01*
X79642Y247414D01*
X79734Y247603D01*
X81138Y249838D01*
X82783Y251901D01*
X84649Y253767D01*
X86712Y255412D01*
X88947Y256816D01*
X91324Y257961D01*
X93815Y258833D01*
X96388Y259420D01*
X98299Y259636D01*
X98299Y238251D01*
X76914Y238251D01*
G37*
%LPD*%
%LPC*%
G36*
X103631Y366269D02*
X103631Y366269D01*
X125016Y366269D01*
X124800Y364358D01*
X124213Y361785D01*
X123341Y359294D01*
X123177Y358954D01*
X123177Y358953D01*
X122196Y356917D01*
X120792Y354682D01*
X119147Y352619D01*
X117281Y350753D01*
X115218Y349108D01*
X113783Y348206D01*
X112983Y347704D01*
X110606Y346559D01*
X108115Y345687D01*
X105542Y345100D01*
X103631Y344884D01*
X103631Y366269D01*
G37*
%LPD*%
%LPC*%
G36*
X156924Y370331D02*
X156924Y370331D01*
X157140Y372242D01*
X157727Y374815D01*
X158599Y377306D01*
X159499Y379175D01*
X159744Y379683D01*
X161148Y381918D01*
X162793Y383981D01*
X164659Y385847D01*
X166722Y387492D01*
X167358Y387892D01*
X168957Y388896D01*
X171334Y390041D01*
X173825Y390913D01*
X176398Y391500D01*
X178309Y391716D01*
X178309Y370331D01*
X156924Y370331D01*
G37*
%LPD*%
%LPC*%
G36*
X96388Y213020D02*
X96388Y213020D01*
X93815Y213607D01*
X91324Y214479D01*
X88947Y215624D01*
X86712Y217028D01*
X84649Y218673D01*
X82783Y220539D01*
X81138Y222602D01*
X79734Y224837D01*
X78589Y227214D01*
X77717Y229705D01*
X77130Y232278D01*
X76914Y234189D01*
X98299Y234189D01*
X98299Y212804D01*
X96388Y213020D01*
G37*
%LPD*%
%LPC*%
G36*
X176398Y345100D02*
X176398Y345100D01*
X173825Y345687D01*
X171334Y346559D01*
X168957Y347704D01*
X166722Y349108D01*
X164659Y350753D01*
X162793Y352619D01*
X161148Y354682D01*
X159744Y356917D01*
X158599Y359294D01*
X157727Y361785D01*
X157140Y364358D01*
X156924Y366269D01*
X178309Y366269D01*
X178309Y344884D01*
X176398Y345100D01*
G37*
%LPD*%
%LPC*%
G36*
X97658Y345100D02*
X97658Y345100D01*
X95085Y345687D01*
X92594Y346559D01*
X90217Y347704D01*
X87982Y349108D01*
X85919Y350753D01*
X84053Y352619D01*
X82408Y354682D01*
X81004Y356917D01*
X79859Y359294D01*
X78987Y361785D01*
X78400Y364358D01*
X78184Y366269D01*
X99569Y366269D01*
X99569Y344884D01*
X97658Y345100D01*
G37*
%LPD*%
%LPC*%
G36*
X121411Y586061D02*
X121411Y586061D01*
X121411Y603976D01*
X123298Y603728D01*
X125836Y603048D01*
X128263Y602042D01*
X130538Y600729D01*
X132622Y599130D01*
X134480Y597272D01*
X136079Y595188D01*
X137392Y592913D01*
X138398Y590486D01*
X139078Y587948D01*
X139326Y586061D01*
X121411Y586061D01*
G37*
%LPD*%
%LPC*%
G36*
X275081Y587331D02*
X275081Y587331D01*
X275081Y605246D01*
X276968Y604998D01*
X279506Y604318D01*
X281933Y603312D01*
X284208Y601999D01*
X286292Y600400D01*
X288150Y598542D01*
X289749Y596458D01*
X291062Y594183D01*
X292068Y591756D01*
X292748Y589218D01*
X292996Y587331D01*
X275081Y587331D01*
G37*
%LPD*%
%LPC*%
G36*
X583691Y588601D02*
X583691Y588601D01*
X583691Y606516D01*
X585578Y606268D01*
X588116Y605588D01*
X590543Y604582D01*
X592818Y603269D01*
X594902Y601670D01*
X596760Y599812D01*
X598359Y597728D01*
X599672Y595453D01*
X600678Y593026D01*
X601358Y590488D01*
X601606Y588601D01*
X583691Y588601D01*
G37*
%LPD*%
%LPC*%
G36*
X424941Y589871D02*
X424941Y589871D01*
X424941Y607786D01*
X426828Y607538D01*
X429366Y606858D01*
X431793Y605852D01*
X434068Y604539D01*
X436152Y602940D01*
X438010Y601082D01*
X439609Y598998D01*
X440922Y596723D01*
X441928Y594296D01*
X442608Y591758D01*
X442856Y589871D01*
X424941Y589871D01*
G37*
%LPD*%
%LPC*%
G36*
X561714Y588601D02*
X561714Y588601D01*
X561962Y590488D01*
X562642Y593026D01*
X563648Y595453D01*
X564961Y597728D01*
X566560Y599812D01*
X568418Y601670D01*
X570502Y603269D01*
X572777Y604582D01*
X575204Y605588D01*
X577742Y606268D01*
X579629Y606516D01*
X579629Y588601D01*
X561714Y588601D01*
G37*
%LPD*%
%LPC*%
G36*
X253104Y587331D02*
X253104Y587331D01*
X253352Y589218D01*
X254032Y591756D01*
X255038Y594183D01*
X256351Y596458D01*
X257950Y598542D01*
X259808Y600400D01*
X261892Y601999D01*
X264167Y603312D01*
X266594Y604318D01*
X269132Y604998D01*
X271019Y605246D01*
X271019Y587331D01*
X253104Y587331D01*
G37*
%LPD*%
%LPC*%
G36*
X424941Y585809D02*
X424941Y585809D01*
X442856Y585809D01*
X442608Y583922D01*
X441928Y581384D01*
X440922Y578957D01*
X439609Y576682D01*
X438010Y574598D01*
X436152Y572740D01*
X434068Y571141D01*
X431793Y569828D01*
X429366Y568822D01*
X426828Y568142D01*
X424941Y567894D01*
X424941Y585809D01*
G37*
%LPD*%
%LPC*%
G36*
X99434Y586061D02*
X99434Y586061D01*
X99682Y587948D01*
X100362Y590486D01*
X101368Y592913D01*
X102681Y595188D01*
X104280Y597272D01*
X106138Y599130D01*
X108222Y600729D01*
X110497Y602042D01*
X112924Y603048D01*
X115462Y603728D01*
X117349Y603976D01*
X117349Y586061D01*
X99434Y586061D01*
G37*
%LPD*%
%LPC*%
G36*
X583691Y584539D02*
X583691Y584539D01*
X601606Y584539D01*
X601358Y582652D01*
X600678Y580114D01*
X599672Y577687D01*
X598359Y575412D01*
X596760Y573328D01*
X594902Y571470D01*
X592818Y569871D01*
X590543Y568558D01*
X588116Y567552D01*
X585578Y566872D01*
X583691Y566624D01*
X583691Y584539D01*
G37*
%LPD*%
%LPC*%
G36*
X275081Y583269D02*
X275081Y583269D01*
X292996Y583269D01*
X292748Y581382D01*
X292068Y578844D01*
X291062Y576417D01*
X289749Y574142D01*
X288150Y572058D01*
X286292Y570200D01*
X284208Y568601D01*
X281933Y567288D01*
X279506Y566282D01*
X276968Y565602D01*
X275081Y565354D01*
X275081Y583269D01*
G37*
%LPD*%
%LPC*%
G36*
X121411Y581999D02*
X121411Y581999D01*
X139326Y581999D01*
X139078Y580112D01*
X138398Y577574D01*
X137392Y575147D01*
X136079Y572872D01*
X134480Y570788D01*
X132622Y568930D01*
X130538Y567331D01*
X128263Y566018D01*
X125836Y565012D01*
X123298Y564332D01*
X121411Y564084D01*
X121411Y581999D01*
G37*
%LPD*%
%LPC*%
G36*
X402964Y589871D02*
X402964Y589871D01*
X403212Y591758D01*
X403892Y594296D01*
X404898Y596723D01*
X406211Y598998D01*
X407810Y601082D01*
X409668Y602940D01*
X411752Y604539D01*
X414027Y605852D01*
X416454Y606858D01*
X418992Y607538D01*
X420879Y607786D01*
X420879Y589871D01*
X402964Y589871D01*
G37*
%LPD*%
%LPC*%
G36*
X115462Y564332D02*
X115462Y564332D01*
X112924Y565012D01*
X110497Y566018D01*
X108222Y567331D01*
X106138Y568930D01*
X104280Y570788D01*
X102681Y572872D01*
X101368Y575147D01*
X100362Y577574D01*
X99682Y580112D01*
X99434Y581999D01*
X117349Y581999D01*
X117349Y564084D01*
X115462Y564332D01*
G37*
%LPD*%
%LPC*%
G36*
X577742Y566872D02*
X577742Y566872D01*
X575204Y567552D01*
X572777Y568558D01*
X570502Y569871D01*
X568418Y571470D01*
X566560Y573328D01*
X564961Y575412D01*
X563648Y577687D01*
X562642Y580114D01*
X561962Y582652D01*
X561714Y584539D01*
X579629Y584539D01*
X579629Y566624D01*
X577742Y566872D01*
G37*
%LPD*%
%LPC*%
G36*
X418992Y568142D02*
X418992Y568142D01*
X416454Y568822D01*
X414027Y569828D01*
X411752Y571141D01*
X409668Y572740D01*
X407810Y574598D01*
X406211Y576682D01*
X404898Y578957D01*
X403892Y581384D01*
X403212Y583922D01*
X402964Y585809D01*
X420879Y585809D01*
X420879Y567894D01*
X418992Y568142D01*
G37*
%LPD*%
%LPC*%
G36*
X269132Y565602D02*
X269132Y565602D01*
X266594Y566282D01*
X264167Y567288D01*
X261892Y568601D01*
X259808Y570200D01*
X257950Y572058D01*
X256351Y574142D01*
X255038Y576417D01*
X254032Y578844D01*
X253352Y581382D01*
X253104Y583269D01*
X271019Y583269D01*
X271019Y565354D01*
X269132Y565602D01*
G37*
%LPD*%
%LPC*%
G36*
X594378Y55597D02*
X594378Y55597D01*
X591327Y56861D01*
X588991Y59197D01*
X587727Y62248D01*
X587727Y65552D01*
X588991Y68603D01*
X591327Y70939D01*
X594378Y72203D01*
X597682Y72203D01*
X600733Y70939D01*
X603069Y68603D01*
X604333Y65552D01*
X604333Y62248D01*
X603069Y59197D01*
X600733Y56861D01*
X597682Y55597D01*
X594378Y55597D01*
G37*
%LPD*%
%LPC*%
G36*
X594378Y105597D02*
X594378Y105597D01*
X591327Y106861D01*
X588991Y109197D01*
X587727Y112248D01*
X587727Y115552D01*
X588991Y118603D01*
X591327Y120939D01*
X594378Y122203D01*
X597682Y122203D01*
X600733Y120939D01*
X603069Y118603D01*
X604333Y115552D01*
X604333Y112248D01*
X603069Y109197D01*
X600733Y106861D01*
X597682Y105597D01*
X594378Y105597D01*
G37*
%LPD*%
%LPC*%
G36*
X806068Y588597D02*
X806068Y588597D01*
X803017Y589861D01*
X800681Y592197D01*
X799417Y595248D01*
X799417Y598552D01*
X800681Y601603D01*
X803017Y603939D01*
X806068Y605203D01*
X809372Y605203D01*
X812423Y603939D01*
X814759Y601603D01*
X816023Y598552D01*
X816023Y595248D01*
X814759Y592197D01*
X812423Y589861D01*
X809372Y588597D01*
X806068Y588597D01*
G37*
%LPD*%
%LPC*%
G36*
X806068Y563197D02*
X806068Y563197D01*
X803017Y564461D01*
X800681Y566797D01*
X799417Y569848D01*
X799417Y573152D01*
X800681Y576203D01*
X803017Y578539D01*
X806068Y579803D01*
X809372Y579803D01*
X812423Y578539D01*
X814759Y576203D01*
X816023Y573152D01*
X816023Y569848D01*
X814759Y566797D01*
X812423Y564461D01*
X809372Y563197D01*
X806068Y563197D01*
G37*
%LPD*%
%LPC*%
G36*
X806068Y664797D02*
X806068Y664797D01*
X803017Y666061D01*
X800681Y668397D01*
X799417Y671448D01*
X799417Y674752D01*
X800681Y677803D01*
X803017Y680139D01*
X806068Y681403D01*
X809372Y681403D01*
X812423Y680139D01*
X814759Y677803D01*
X816023Y674752D01*
X816023Y671448D01*
X814759Y668397D01*
X812423Y666061D01*
X809372Y664797D01*
X806068Y664797D01*
G37*
%LPD*%
%LPC*%
G36*
X644378Y105597D02*
X644378Y105597D01*
X641327Y106861D01*
X638991Y109197D01*
X637727Y112248D01*
X637727Y115552D01*
X638991Y118603D01*
X641327Y120939D01*
X644378Y122203D01*
X647682Y122203D01*
X650733Y120939D01*
X653069Y118603D01*
X654333Y115552D01*
X654333Y112248D01*
X653069Y109197D01*
X650733Y106861D01*
X647682Y105597D01*
X644378Y105597D01*
G37*
%LPD*%
%LPC*%
G36*
X806068Y512397D02*
X806068Y512397D01*
X803017Y513661D01*
X800681Y515997D01*
X799417Y519048D01*
X799417Y522352D01*
X800681Y525403D01*
X803017Y527739D01*
X806068Y529003D01*
X809372Y529003D01*
X812423Y527739D01*
X814759Y525403D01*
X816023Y522352D01*
X816023Y519048D01*
X814759Y515997D01*
X812423Y513661D01*
X809372Y512397D01*
X806068Y512397D01*
G37*
%LPD*%
%LPC*%
G36*
X806068Y461597D02*
X806068Y461597D01*
X803017Y462861D01*
X800681Y465197D01*
X799417Y468248D01*
X799417Y471552D01*
X800681Y474603D01*
X803017Y476939D01*
X806068Y478203D01*
X809372Y478203D01*
X812423Y476939D01*
X814759Y474603D01*
X816023Y471552D01*
X816023Y468248D01*
X814759Y465197D01*
X812423Y462861D01*
X809372Y461597D01*
X806068Y461597D01*
G37*
%LPD*%
%LPC*%
G36*
X806068Y436197D02*
X806068Y436197D01*
X803017Y437461D01*
X800681Y439797D01*
X799417Y442848D01*
X799417Y446152D01*
X800681Y449203D01*
X803017Y451539D01*
X806068Y452803D01*
X809372Y452803D01*
X812423Y451539D01*
X814759Y449203D01*
X816023Y446152D01*
X816023Y442848D01*
X814759Y439797D01*
X812423Y437461D01*
X809372Y436197D01*
X806068Y436197D01*
G37*
%LPD*%
%LPC*%
G36*
X806068Y537797D02*
X806068Y537797D01*
X803017Y539061D01*
X800681Y541397D01*
X799417Y544448D01*
X799417Y547752D01*
X800681Y550803D01*
X803017Y553139D01*
X806068Y554403D01*
X809372Y554403D01*
X812423Y553139D01*
X814759Y550803D01*
X816023Y547752D01*
X816023Y544448D01*
X814759Y541397D01*
X812423Y539061D01*
X809372Y537797D01*
X806068Y537797D01*
G37*
%LPD*%
%LPC*%
G36*
X806068Y639397D02*
X806068Y639397D01*
X803017Y640661D01*
X800681Y642997D01*
X799417Y646048D01*
X799417Y649352D01*
X800681Y652403D01*
X803017Y654739D01*
X806068Y656003D01*
X809372Y656003D01*
X812423Y654739D01*
X814759Y652403D01*
X816023Y649352D01*
X816023Y646048D01*
X814759Y642997D01*
X812423Y640661D01*
X809372Y639397D01*
X806068Y639397D01*
G37*
%LPD*%
%LPC*%
G36*
X644378Y55597D02*
X644378Y55597D01*
X641327Y56861D01*
X638991Y59197D01*
X637727Y62248D01*
X637727Y65552D01*
X638991Y68603D01*
X641327Y70939D01*
X644378Y72203D01*
X647682Y72203D01*
X650733Y70939D01*
X653069Y68603D01*
X654333Y65552D01*
X654333Y62248D01*
X653069Y59197D01*
X650733Y56861D01*
X647682Y55597D01*
X644378Y55597D01*
G37*
%LPD*%
%LPC*%
G36*
X806068Y486997D02*
X806068Y486997D01*
X803017Y488261D01*
X800681Y490597D01*
X799417Y493648D01*
X799417Y496952D01*
X800681Y500003D01*
X803017Y502339D01*
X806068Y503603D01*
X809372Y503603D01*
X812423Y502339D01*
X814759Y500003D01*
X816023Y496952D01*
X816023Y493648D01*
X814759Y490597D01*
X812423Y488261D01*
X809372Y486997D01*
X806068Y486997D01*
G37*
%LPD*%
%LPC*%
G36*
X806068Y613997D02*
X806068Y613997D01*
X803017Y615261D01*
X800681Y617597D01*
X799417Y620648D01*
X799417Y623952D01*
X800681Y627003D01*
X803017Y629339D01*
X806068Y630603D01*
X809372Y630603D01*
X812423Y629339D01*
X814759Y627003D01*
X816023Y623952D01*
X816023Y620648D01*
X814759Y617597D01*
X812423Y615261D01*
X809372Y613997D01*
X806068Y613997D01*
G37*
%LPD*%
%LPC*%
G36*
X802131Y70611D02*
X802131Y70611D01*
X802131Y80346D01*
X802896Y80225D01*
X804683Y79644D01*
X806357Y78791D01*
X807878Y77686D01*
X809206Y76358D01*
X810311Y74837D01*
X811164Y73163D01*
X811745Y71376D01*
X811797Y71044D01*
X811834Y70924D01*
X811867Y70803D01*
X811876Y70789D01*
X811881Y70772D01*
X811949Y70668D01*
X811983Y70611D01*
X802131Y70611D01*
G37*
%LPD*%
%LPC*%
G36*
X852931Y70611D02*
X852931Y70611D01*
X852931Y80346D01*
X853696Y80225D01*
X855483Y79644D01*
X857157Y78791D01*
X858678Y77686D01*
X860006Y76358D01*
X861111Y74837D01*
X861964Y73163D01*
X862545Y71376D01*
X862597Y71044D01*
X862634Y70924D01*
X862667Y70803D01*
X862676Y70789D01*
X862681Y70772D01*
X862749Y70667D01*
X862783Y70611D01*
X852931Y70611D01*
G37*
%LPD*%
%LPC*%
G36*
X722121Y281431D02*
X722121Y281431D01*
X722121Y291166D01*
X722886Y291045D01*
X724673Y290464D01*
X726347Y289611D01*
X727868Y288506D01*
X729196Y287178D01*
X730301Y285657D01*
X731154Y283983D01*
X731735Y282196D01*
X731787Y281864D01*
X731824Y281744D01*
X731857Y281623D01*
X731866Y281609D01*
X731871Y281592D01*
X731940Y281487D01*
X731973Y281431D01*
X722121Y281431D01*
G37*
%LPD*%
%LPC*%
G36*
X802131Y66549D02*
X802131Y66549D01*
X811987Y66549D01*
X811978Y66536D01*
X811904Y66434D01*
X811899Y66419D01*
X811889Y66404D01*
X811800Y66134D01*
X811800Y66125D01*
X811797Y66116D01*
X811745Y65784D01*
X811164Y63997D01*
X810311Y62323D01*
X809206Y60802D01*
X807878Y59474D01*
X806357Y58369D01*
X804683Y57516D01*
X802896Y56935D01*
X802131Y56814D01*
X802131Y66549D01*
G37*
%LPD*%
%LPC*%
G36*
X864413Y70611D02*
X864413Y70611D01*
X864422Y70625D01*
X864496Y70726D01*
X864501Y70741D01*
X864512Y70756D01*
X864600Y71026D01*
X864600Y71035D01*
X864603Y71044D01*
X864655Y71376D01*
X865236Y73163D01*
X866089Y74837D01*
X867194Y76358D01*
X868522Y77686D01*
X870043Y78791D01*
X871717Y79644D01*
X873504Y80225D01*
X874269Y80346D01*
X874269Y70611D01*
X864413Y70611D01*
G37*
%LPD*%
%LPC*%
G36*
X839013Y70611D02*
X839013Y70611D01*
X839022Y70625D01*
X839096Y70726D01*
X839101Y70741D01*
X839112Y70756D01*
X839200Y71026D01*
X839200Y71035D01*
X839203Y71044D01*
X839255Y71376D01*
X839836Y73163D01*
X840689Y74837D01*
X841794Y76358D01*
X843122Y77686D01*
X844643Y78791D01*
X846317Y79644D01*
X848104Y80225D01*
X848869Y80346D01*
X848869Y70611D01*
X839013Y70611D01*
G37*
%LPD*%
%LPC*%
G36*
X733603Y281431D02*
X733603Y281431D01*
X733612Y281444D01*
X733686Y281546D01*
X733691Y281561D01*
X733702Y281576D01*
X733790Y281846D01*
X733790Y281855D01*
X733793Y281864D01*
X733845Y282196D01*
X734426Y283983D01*
X735279Y285657D01*
X736384Y287178D01*
X737712Y288506D01*
X739233Y289611D01*
X740907Y290464D01*
X742694Y291045D01*
X743459Y291166D01*
X743459Y281431D01*
X733603Y281431D01*
G37*
%LPD*%
%LPC*%
G36*
X722121Y277369D02*
X722121Y277369D01*
X731977Y277369D01*
X731968Y277355D01*
X731894Y277254D01*
X731889Y277240D01*
X731879Y277224D01*
X731790Y276954D01*
X731790Y276945D01*
X731787Y276936D01*
X731735Y276604D01*
X731154Y274817D01*
X730301Y273143D01*
X729196Y271622D01*
X727868Y270294D01*
X726347Y269189D01*
X724673Y268336D01*
X722886Y267755D01*
X722121Y267634D01*
X722121Y277369D01*
G37*
%LPD*%
%LPC*%
G36*
X827531Y66549D02*
X827531Y66549D01*
X837387Y66549D01*
X837378Y66535D01*
X837304Y66434D01*
X837299Y66420D01*
X837289Y66404D01*
X837200Y66134D01*
X837200Y66125D01*
X837197Y66116D01*
X837145Y65784D01*
X836564Y63997D01*
X835711Y62323D01*
X834606Y60802D01*
X833278Y59474D01*
X831757Y58369D01*
X830083Y57516D01*
X828296Y56935D01*
X827531Y56814D01*
X827531Y66549D01*
G37*
%LPD*%
%LPC*%
G36*
X852931Y66549D02*
X852931Y66549D01*
X862787Y66549D01*
X862778Y66535D01*
X862704Y66434D01*
X862699Y66420D01*
X862689Y66404D01*
X862600Y66134D01*
X862600Y66125D01*
X862597Y66116D01*
X862545Y65784D01*
X861964Y63997D01*
X861111Y62323D01*
X860006Y60802D01*
X858678Y59474D01*
X857157Y58369D01*
X855483Y57516D01*
X853696Y56935D01*
X852931Y56814D01*
X852931Y66549D01*
G37*
%LPD*%
%LPC*%
G36*
X822704Y56935D02*
X822704Y56935D01*
X820917Y57516D01*
X819243Y58369D01*
X817722Y59474D01*
X816394Y60802D01*
X815289Y62323D01*
X814436Y63997D01*
X813855Y65784D01*
X813803Y66116D01*
X813766Y66235D01*
X813733Y66357D01*
X813724Y66371D01*
X813719Y66387D01*
X813651Y66493D01*
X813617Y66549D01*
X823469Y66549D01*
X823469Y56814D01*
X822704Y56935D01*
G37*
%LPD*%
%LPC*%
G36*
X848104Y56935D02*
X848104Y56935D01*
X846317Y57516D01*
X844643Y58369D01*
X843122Y59474D01*
X841794Y60802D01*
X840689Y62323D01*
X839836Y63997D01*
X839255Y65784D01*
X839203Y66116D01*
X839166Y66236D01*
X839133Y66357D01*
X839124Y66371D01*
X839119Y66388D01*
X839051Y66493D01*
X839017Y66549D01*
X848869Y66549D01*
X848869Y56814D01*
X848104Y56935D01*
G37*
%LPD*%
%LPC*%
G36*
X873504Y56935D02*
X873504Y56935D01*
X871717Y57516D01*
X870043Y58369D01*
X868522Y59474D01*
X867194Y60802D01*
X866089Y62323D01*
X865236Y63997D01*
X864655Y65784D01*
X864603Y66116D01*
X864566Y66236D01*
X864533Y66357D01*
X864524Y66371D01*
X864519Y66388D01*
X864451Y66493D01*
X864417Y66549D01*
X874269Y66549D01*
X874269Y56814D01*
X873504Y56935D01*
G37*
%LPD*%
%LPC*%
G36*
X742694Y267755D02*
X742694Y267755D01*
X740907Y268336D01*
X739233Y269189D01*
X737712Y270294D01*
X736384Y271622D01*
X735279Y273143D01*
X734426Y274817D01*
X733845Y276604D01*
X733793Y276936D01*
X733756Y277056D01*
X733723Y277177D01*
X733714Y277191D01*
X733709Y277208D01*
X733641Y277313D01*
X733607Y277369D01*
X743459Y277369D01*
X743459Y267634D01*
X742694Y267755D01*
G37*
%LPD*%
%LPC*%
G36*
X483361Y82041D02*
X483361Y82041D01*
X483361Y91776D01*
X484126Y91655D01*
X485913Y91074D01*
X487587Y90221D01*
X489108Y89116D01*
X490436Y87788D01*
X491541Y86267D01*
X492394Y84593D01*
X492975Y82806D01*
X493096Y82041D01*
X483361Y82041D01*
G37*
%LPD*%
%LPC*%
G36*
X878331Y70611D02*
X878331Y70611D01*
X878331Y80346D01*
X879096Y80225D01*
X880883Y79644D01*
X882557Y78791D01*
X884078Y77686D01*
X885406Y76358D01*
X886511Y74837D01*
X887364Y73163D01*
X887945Y71376D01*
X888066Y70611D01*
X878331Y70611D01*
G37*
%LPD*%
%LPC*%
G36*
X747521Y281431D02*
X747521Y281431D01*
X747521Y291166D01*
X748286Y291045D01*
X750073Y290464D01*
X751747Y289611D01*
X753268Y288506D01*
X754596Y287178D01*
X755701Y285657D01*
X756554Y283983D01*
X757135Y282196D01*
X757256Y281431D01*
X747521Y281431D01*
G37*
%LPD*%
%LPC*%
G36*
X788334Y70611D02*
X788334Y70611D01*
X788455Y71376D01*
X789036Y73163D01*
X789889Y74837D01*
X790994Y76358D01*
X792322Y77686D01*
X793843Y78791D01*
X795517Y79644D01*
X797304Y80225D01*
X798069Y80346D01*
X798069Y70611D01*
X788334Y70611D01*
G37*
%LPD*%
%LPC*%
G36*
X469564Y82041D02*
X469564Y82041D01*
X469685Y82806D01*
X470266Y84593D01*
X471119Y86267D01*
X472224Y87788D01*
X473552Y89116D01*
X475073Y90221D01*
X476747Y91074D01*
X478534Y91655D01*
X479299Y91776D01*
X479299Y82041D01*
X469564Y82041D01*
G37*
%LPD*%
%LPC*%
G36*
X747521Y277369D02*
X747521Y277369D01*
X757256Y277369D01*
X757135Y276604D01*
X756554Y274817D01*
X755701Y273143D01*
X754596Y271622D01*
X753268Y270294D01*
X751747Y269189D01*
X750073Y268336D01*
X748286Y267755D01*
X747521Y267634D01*
X747521Y277369D01*
G37*
%LPD*%
%LPC*%
G36*
X483361Y77979D02*
X483361Y77979D01*
X493096Y77979D01*
X492975Y77214D01*
X492394Y75427D01*
X491541Y73753D01*
X490436Y72232D01*
X489108Y70904D01*
X487587Y69799D01*
X485913Y68946D01*
X484126Y68365D01*
X483361Y68244D01*
X483361Y77979D01*
G37*
%LPD*%
%LPC*%
G36*
X708324Y281431D02*
X708324Y281431D01*
X708445Y282196D01*
X709026Y283983D01*
X709879Y285657D01*
X710984Y287178D01*
X712312Y288506D01*
X713833Y289611D01*
X715507Y290464D01*
X717294Y291045D01*
X718059Y291166D01*
X718059Y281431D01*
X708324Y281431D01*
G37*
%LPD*%
%LPC*%
G36*
X878331Y66549D02*
X878331Y66549D01*
X888066Y66549D01*
X887945Y65784D01*
X887364Y63997D01*
X886511Y62323D01*
X885406Y60802D01*
X884078Y59474D01*
X882557Y58369D01*
X880883Y57516D01*
X879096Y56935D01*
X878331Y56814D01*
X878331Y66549D01*
G37*
%LPD*%
%LPC*%
G36*
X478534Y68365D02*
X478534Y68365D01*
X476747Y68946D01*
X475073Y69799D01*
X473552Y70904D01*
X472224Y72232D01*
X471119Y73753D01*
X470266Y75427D01*
X469685Y77214D01*
X469564Y77979D01*
X479299Y77979D01*
X479299Y68244D01*
X478534Y68365D01*
G37*
%LPD*%
%LPC*%
G36*
X797304Y56935D02*
X797304Y56935D01*
X795517Y57516D01*
X793843Y58369D01*
X792322Y59474D01*
X790994Y60802D01*
X789889Y62323D01*
X789036Y63997D01*
X788455Y65784D01*
X788334Y66549D01*
X798069Y66549D01*
X798069Y56814D01*
X797304Y56935D01*
G37*
%LPD*%
%LPC*%
G36*
X717294Y267755D02*
X717294Y267755D01*
X715507Y268336D01*
X713833Y269189D01*
X712312Y270294D01*
X710984Y271622D01*
X709879Y273143D01*
X709026Y274817D01*
X708445Y276604D01*
X708324Y277369D01*
X718059Y277369D01*
X718059Y267634D01*
X717294Y267755D01*
G37*
%LPD*%
%LPC*%
G36*
X885951Y675131D02*
X885951Y675131D01*
X885951Y682213D01*
X886102Y682189D01*
X887497Y681736D01*
X888804Y681070D01*
X889991Y680208D01*
X891028Y679171D01*
X891890Y677984D01*
X892556Y676677D01*
X893009Y675282D01*
X893033Y675131D01*
X885951Y675131D01*
G37*
%LPD*%
%LPC*%
G36*
X885951Y649731D02*
X885951Y649731D01*
X885951Y656813D01*
X886102Y656789D01*
X887497Y656336D01*
X888804Y655670D01*
X889991Y654808D01*
X891028Y653771D01*
X891890Y652584D01*
X892556Y651277D01*
X893009Y649882D01*
X893033Y649731D01*
X885951Y649731D01*
G37*
%LPD*%
%LPC*%
G36*
X885951Y548131D02*
X885951Y548131D01*
X885951Y555213D01*
X886102Y555189D01*
X887497Y554736D01*
X888804Y554070D01*
X889991Y553208D01*
X891028Y552171D01*
X891890Y550984D01*
X892556Y549677D01*
X893009Y548282D01*
X893033Y548131D01*
X885951Y548131D01*
G37*
%LPD*%
%LPC*%
G36*
X885951Y497331D02*
X885951Y497331D01*
X885951Y504413D01*
X886102Y504389D01*
X887497Y503936D01*
X888804Y503270D01*
X889991Y502408D01*
X891028Y501371D01*
X891890Y500184D01*
X892556Y498877D01*
X893009Y497482D01*
X893033Y497331D01*
X885951Y497331D01*
G37*
%LPD*%
%LPC*%
G36*
X885951Y573531D02*
X885951Y573531D01*
X885951Y580613D01*
X886102Y580589D01*
X887497Y580136D01*
X888804Y579470D01*
X889991Y578608D01*
X891028Y577571D01*
X891890Y576384D01*
X892556Y575077D01*
X893009Y573682D01*
X893033Y573531D01*
X885951Y573531D01*
G37*
%LPD*%
%LPC*%
G36*
X885951Y598931D02*
X885951Y598931D01*
X885951Y606013D01*
X886102Y605989D01*
X887497Y605536D01*
X888804Y604870D01*
X889991Y604008D01*
X891028Y602971D01*
X891890Y601784D01*
X892556Y600477D01*
X893009Y599082D01*
X893033Y598931D01*
X885951Y598931D01*
G37*
%LPD*%
%LPC*%
G36*
X885951Y471931D02*
X885951Y471931D01*
X885951Y479013D01*
X886102Y478989D01*
X887497Y478536D01*
X888804Y477870D01*
X889991Y477008D01*
X891028Y475971D01*
X891890Y474784D01*
X892556Y473477D01*
X893009Y472082D01*
X893033Y471931D01*
X885951Y471931D01*
G37*
%LPD*%
%LPC*%
G36*
X885951Y624331D02*
X885951Y624331D01*
X885951Y631413D01*
X886102Y631389D01*
X887497Y630936D01*
X888804Y630270D01*
X889991Y629408D01*
X891028Y628371D01*
X891890Y627184D01*
X892556Y625877D01*
X893009Y624482D01*
X893033Y624331D01*
X885951Y624331D01*
G37*
%LPD*%
%LPC*%
G36*
X885951Y446531D02*
X885951Y446531D01*
X885951Y453613D01*
X886102Y453589D01*
X887497Y453136D01*
X888804Y452470D01*
X889991Y451608D01*
X891028Y450571D01*
X891890Y449384D01*
X892556Y448077D01*
X893009Y446682D01*
X893033Y446531D01*
X885951Y446531D01*
G37*
%LPD*%
%LPC*%
G36*
X885951Y522731D02*
X885951Y522731D01*
X885951Y529813D01*
X886102Y529789D01*
X887497Y529336D01*
X888804Y528670D01*
X889991Y527808D01*
X891028Y526771D01*
X891890Y525584D01*
X892556Y524277D01*
X893009Y522882D01*
X893033Y522731D01*
X885951Y522731D01*
G37*
%LPD*%
%LPC*%
G36*
X874807Y446531D02*
X874807Y446531D01*
X874831Y446682D01*
X875284Y448077D01*
X875950Y449384D01*
X876812Y450571D01*
X877849Y451608D01*
X879036Y452470D01*
X880343Y453136D01*
X881738Y453589D01*
X881889Y453613D01*
X881889Y446531D01*
X874807Y446531D01*
G37*
%LPD*%
%LPC*%
G36*
X885951Y442469D02*
X885951Y442469D01*
X893033Y442469D01*
X893009Y442318D01*
X892556Y440923D01*
X891890Y439616D01*
X891028Y438429D01*
X889991Y437392D01*
X888804Y436530D01*
X887497Y435864D01*
X886102Y435411D01*
X885951Y435387D01*
X885951Y442469D01*
G37*
%LPD*%
%LPC*%
G36*
X874807Y471931D02*
X874807Y471931D01*
X874831Y472082D01*
X875284Y473477D01*
X875950Y474784D01*
X876812Y475971D01*
X877849Y477008D01*
X879036Y477870D01*
X880343Y478536D01*
X881738Y478989D01*
X881889Y479013D01*
X881889Y471931D01*
X874807Y471931D01*
G37*
%LPD*%
%LPC*%
G36*
X885951Y493269D02*
X885951Y493269D01*
X893033Y493269D01*
X893009Y493118D01*
X892556Y491723D01*
X891890Y490416D01*
X891028Y489229D01*
X889991Y488192D01*
X888804Y487330D01*
X887497Y486664D01*
X886102Y486211D01*
X885951Y486187D01*
X885951Y493269D01*
G37*
%LPD*%
%LPC*%
G36*
X874807Y497331D02*
X874807Y497331D01*
X874831Y497482D01*
X875284Y498877D01*
X875950Y500184D01*
X876812Y501371D01*
X877849Y502408D01*
X879036Y503270D01*
X880343Y503936D01*
X881738Y504389D01*
X881889Y504413D01*
X881889Y497331D01*
X874807Y497331D01*
G37*
%LPD*%
%LPC*%
G36*
X885951Y518669D02*
X885951Y518669D01*
X893033Y518669D01*
X893009Y518518D01*
X892556Y517123D01*
X891890Y515816D01*
X891028Y514629D01*
X889991Y513592D01*
X888804Y512730D01*
X887497Y512064D01*
X886102Y511611D01*
X885951Y511587D01*
X885951Y518669D01*
G37*
%LPD*%
%LPC*%
G36*
X874807Y522731D02*
X874807Y522731D01*
X874831Y522882D01*
X875284Y524277D01*
X875950Y525584D01*
X876812Y526771D01*
X877849Y527808D01*
X879036Y528670D01*
X880343Y529336D01*
X881738Y529789D01*
X881889Y529813D01*
X881889Y522731D01*
X874807Y522731D01*
G37*
%LPD*%
%LPC*%
G36*
X885951Y544069D02*
X885951Y544069D01*
X893033Y544069D01*
X893009Y543918D01*
X892556Y542523D01*
X891890Y541216D01*
X891028Y540029D01*
X889991Y538992D01*
X888804Y538130D01*
X887497Y537464D01*
X886102Y537011D01*
X885951Y536987D01*
X885951Y544069D01*
G37*
%LPD*%
%LPC*%
G36*
X874807Y548131D02*
X874807Y548131D01*
X874831Y548282D01*
X875284Y549677D01*
X875950Y550984D01*
X876812Y552171D01*
X877849Y553208D01*
X879036Y554070D01*
X880343Y554736D01*
X881738Y555189D01*
X881889Y555213D01*
X881889Y548131D01*
X874807Y548131D01*
G37*
%LPD*%
%LPC*%
G36*
X885951Y569469D02*
X885951Y569469D01*
X893033Y569469D01*
X893009Y569318D01*
X892556Y567923D01*
X891890Y566616D01*
X891028Y565429D01*
X889991Y564392D01*
X888804Y563530D01*
X887497Y562864D01*
X886102Y562411D01*
X885951Y562387D01*
X885951Y569469D01*
G37*
%LPD*%
%LPC*%
G36*
X874807Y573531D02*
X874807Y573531D01*
X874831Y573682D01*
X875284Y575077D01*
X875950Y576384D01*
X876812Y577571D01*
X877849Y578608D01*
X879036Y579470D01*
X880343Y580136D01*
X881738Y580589D01*
X881889Y580613D01*
X881889Y573531D01*
X874807Y573531D01*
G37*
%LPD*%
%LPC*%
G36*
X885951Y594869D02*
X885951Y594869D01*
X893033Y594869D01*
X893009Y594718D01*
X892556Y593323D01*
X891890Y592016D01*
X891028Y590829D01*
X889991Y589792D01*
X888804Y588930D01*
X887497Y588264D01*
X886102Y587811D01*
X885951Y587787D01*
X885951Y594869D01*
G37*
%LPD*%
%LPC*%
G36*
X874807Y598931D02*
X874807Y598931D01*
X874831Y599082D01*
X875284Y600477D01*
X875950Y601784D01*
X876812Y602971D01*
X877849Y604008D01*
X879036Y604870D01*
X880343Y605536D01*
X881738Y605989D01*
X881889Y606013D01*
X881889Y598931D01*
X874807Y598931D01*
G37*
%LPD*%
%LPC*%
G36*
X885951Y620269D02*
X885951Y620269D01*
X893033Y620269D01*
X893009Y620118D01*
X892556Y618723D01*
X891890Y617416D01*
X891028Y616229D01*
X889991Y615192D01*
X888804Y614330D01*
X887497Y613664D01*
X886102Y613211D01*
X885951Y613187D01*
X885951Y620269D01*
G37*
%LPD*%
%LPC*%
G36*
X874807Y624331D02*
X874807Y624331D01*
X874831Y624482D01*
X875284Y625877D01*
X875950Y627184D01*
X876812Y628371D01*
X877849Y629408D01*
X879036Y630270D01*
X880343Y630936D01*
X881738Y631389D01*
X881889Y631413D01*
X881889Y624331D01*
X874807Y624331D01*
G37*
%LPD*%
%LPC*%
G36*
X885951Y467869D02*
X885951Y467869D01*
X893033Y467869D01*
X893009Y467718D01*
X892556Y466323D01*
X891890Y465016D01*
X891028Y463829D01*
X889991Y462792D01*
X888804Y461930D01*
X887497Y461264D01*
X886102Y460811D01*
X885951Y460787D01*
X885951Y467869D01*
G37*
%LPD*%
%LPC*%
G36*
X885951Y645669D02*
X885951Y645669D01*
X893033Y645669D01*
X893009Y645518D01*
X892556Y644123D01*
X891890Y642816D01*
X891028Y641629D01*
X889991Y640592D01*
X888804Y639730D01*
X887497Y639064D01*
X886102Y638611D01*
X885951Y638587D01*
X885951Y645669D01*
G37*
%LPD*%
%LPC*%
G36*
X874807Y675131D02*
X874807Y675131D01*
X874831Y675282D01*
X875284Y676677D01*
X875950Y677984D01*
X876812Y679171D01*
X877849Y680208D01*
X879036Y681070D01*
X880343Y681736D01*
X881738Y682189D01*
X881889Y682213D01*
X881889Y675131D01*
X874807Y675131D01*
G37*
%LPD*%
%LPC*%
G36*
X885951Y671069D02*
X885951Y671069D01*
X893033Y671069D01*
X893009Y670918D01*
X892556Y669523D01*
X891890Y668216D01*
X891028Y667029D01*
X889991Y665992D01*
X888804Y665130D01*
X887497Y664464D01*
X886102Y664011D01*
X885951Y663987D01*
X885951Y671069D01*
G37*
%LPD*%
%LPC*%
G36*
X874807Y649731D02*
X874807Y649731D01*
X874831Y649882D01*
X875284Y651277D01*
X875950Y652584D01*
X876812Y653771D01*
X877849Y654808D01*
X879036Y655670D01*
X880343Y656336D01*
X881738Y656789D01*
X881889Y656813D01*
X881889Y649731D01*
X874807Y649731D01*
G37*
%LPD*%
%LPC*%
G36*
X881738Y511611D02*
X881738Y511611D01*
X880343Y512064D01*
X879036Y512730D01*
X877849Y513592D01*
X876812Y514629D01*
X875950Y515816D01*
X875284Y517123D01*
X874831Y518518D01*
X874807Y518669D01*
X881889Y518669D01*
X881889Y511587D01*
X881738Y511611D01*
G37*
%LPD*%
%LPC*%
G36*
X881738Y537011D02*
X881738Y537011D01*
X880343Y537464D01*
X879036Y538130D01*
X877849Y538992D01*
X876812Y540029D01*
X875950Y541216D01*
X875284Y542523D01*
X874831Y543918D01*
X874807Y544069D01*
X881889Y544069D01*
X881889Y536987D01*
X881738Y537011D01*
G37*
%LPD*%
%LPC*%
G36*
X881738Y613211D02*
X881738Y613211D01*
X880343Y613664D01*
X879036Y614330D01*
X877849Y615192D01*
X876812Y616229D01*
X875950Y617416D01*
X875284Y618723D01*
X874831Y620118D01*
X874807Y620269D01*
X881889Y620269D01*
X881889Y613187D01*
X881738Y613211D01*
G37*
%LPD*%
%LPC*%
G36*
X881738Y562411D02*
X881738Y562411D01*
X880343Y562864D01*
X879036Y563530D01*
X877849Y564392D01*
X876812Y565429D01*
X875950Y566616D01*
X875284Y567923D01*
X874831Y569318D01*
X874807Y569469D01*
X881889Y569469D01*
X881889Y562387D01*
X881738Y562411D01*
G37*
%LPD*%
%LPC*%
G36*
X881738Y486211D02*
X881738Y486211D01*
X880343Y486664D01*
X879036Y487330D01*
X877849Y488192D01*
X876812Y489229D01*
X875950Y490416D01*
X875284Y491723D01*
X874831Y493118D01*
X874807Y493269D01*
X881889Y493269D01*
X881889Y486187D01*
X881738Y486211D01*
G37*
%LPD*%
%LPC*%
G36*
X881738Y435411D02*
X881738Y435411D01*
X880343Y435864D01*
X879036Y436530D01*
X877849Y437392D01*
X876812Y438429D01*
X875950Y439616D01*
X875284Y440923D01*
X874831Y442318D01*
X874807Y442469D01*
X881889Y442469D01*
X881889Y435387D01*
X881738Y435411D01*
G37*
%LPD*%
%LPC*%
G36*
X881738Y638611D02*
X881738Y638611D01*
X880343Y639064D01*
X879036Y639730D01*
X877849Y640592D01*
X876812Y641629D01*
X875950Y642816D01*
X875284Y644123D01*
X874831Y645518D01*
X874807Y645669D01*
X881889Y645669D01*
X881889Y638587D01*
X881738Y638611D01*
G37*
%LPD*%
%LPC*%
G36*
X881738Y460811D02*
X881738Y460811D01*
X880343Y461264D01*
X879036Y461930D01*
X877849Y462792D01*
X876812Y463829D01*
X875950Y465016D01*
X875284Y466323D01*
X874831Y467718D01*
X874807Y467869D01*
X881889Y467869D01*
X881889Y460787D01*
X881738Y460811D01*
G37*
%LPD*%
%LPC*%
G36*
X881738Y664011D02*
X881738Y664011D01*
X880343Y664464D01*
X879036Y665130D01*
X877849Y665992D01*
X876812Y667029D01*
X875950Y668216D01*
X875284Y669523D01*
X874831Y670918D01*
X874807Y671069D01*
X881889Y671069D01*
X881889Y663987D01*
X881738Y664011D01*
G37*
%LPD*%
%LPC*%
G36*
X881738Y587811D02*
X881738Y587811D01*
X880343Y588264D01*
X879036Y588930D01*
X877849Y589792D01*
X876812Y590829D01*
X875950Y592016D01*
X875284Y593323D01*
X874831Y594718D01*
X874807Y594869D01*
X881889Y594869D01*
X881889Y587787D01*
X881738Y587811D01*
G37*
%LPD*%
%LPC*%
G36*
X119379Y584029D02*
X119379Y584029D01*
X119379Y584031D01*
X119381Y584031D01*
X119381Y584029D01*
X119379Y584029D01*
G37*
%LPD*%
%LPC*%
G36*
X883919Y546099D02*
X883919Y546099D01*
X883919Y546101D01*
X883921Y546101D01*
X883921Y546099D01*
X883919Y546099D01*
G37*
%LPD*%
%LPC*%
G36*
X883919Y520699D02*
X883919Y520699D01*
X883919Y520701D01*
X883921Y520701D01*
X883921Y520699D01*
X883919Y520699D01*
G37*
%LPD*%
%LPC*%
G36*
X273049Y585299D02*
X273049Y585299D01*
X273049Y585301D01*
X273051Y585301D01*
X273051Y585299D01*
X273049Y585299D01*
G37*
%LPD*%
%LPC*%
G36*
X101599Y368299D02*
X101599Y368299D01*
X101599Y368301D01*
X101601Y368301D01*
X101601Y368299D01*
X101599Y368299D01*
G37*
%LPD*%
%LPC*%
G36*
X180339Y368299D02*
X180339Y368299D01*
X180339Y368301D01*
X180341Y368301D01*
X180341Y368299D01*
X180339Y368299D01*
G37*
%LPD*%
%LPC*%
G36*
X883919Y495299D02*
X883919Y495299D01*
X883919Y495301D01*
X883921Y495301D01*
X883921Y495299D01*
X883919Y495299D01*
G37*
%LPD*%
%LPC*%
G36*
X481329Y80009D02*
X481329Y80009D01*
X481329Y80011D01*
X481331Y80011D01*
X481331Y80009D01*
X481329Y80009D01*
G37*
%LPD*%
%LPC*%
G36*
X581659Y586569D02*
X581659Y586569D01*
X581659Y586571D01*
X581661Y586571D01*
X581661Y586569D01*
X581659Y586569D01*
G37*
%LPD*%
%LPC*%
G36*
X883919Y596899D02*
X883919Y596899D01*
X883919Y596901D01*
X883921Y596901D01*
X883921Y596899D01*
X883919Y596899D01*
G37*
%LPD*%
%LPC*%
G36*
X720089Y279399D02*
X720089Y279399D01*
X720089Y279401D01*
X720091Y279401D01*
X720091Y279399D01*
X720089Y279399D01*
G37*
%LPD*%
%LPC*%
G36*
X745489Y279399D02*
X745489Y279399D01*
X745489Y279401D01*
X745491Y279401D01*
X745491Y279399D01*
X745489Y279399D01*
G37*
%LPD*%
%LPC*%
G36*
X883919Y444499D02*
X883919Y444499D01*
X883919Y444501D01*
X883921Y444501D01*
X883921Y444499D01*
X883919Y444499D01*
G37*
%LPD*%
%LPC*%
G36*
X800099Y68579D02*
X800099Y68579D01*
X800099Y68581D01*
X800101Y68581D01*
X800101Y68579D01*
X800099Y68579D01*
G37*
%LPD*%
%LPC*%
G36*
X850899Y68579D02*
X850899Y68579D01*
X850899Y68581D01*
X850901Y68581D01*
X850901Y68579D01*
X850899Y68579D01*
G37*
%LPD*%
%LPC*%
G36*
X876299Y68579D02*
X876299Y68579D01*
X876299Y68581D01*
X876301Y68581D01*
X876301Y68579D01*
X876299Y68579D01*
G37*
%LPD*%
%LPC*%
G36*
X883919Y469899D02*
X883919Y469899D01*
X883919Y469901D01*
X883921Y469901D01*
X883921Y469899D01*
X883919Y469899D01*
G37*
%LPD*%
%LPC*%
G36*
X100329Y236219D02*
X100329Y236219D01*
X100329Y236221D01*
X100331Y236221D01*
X100331Y236219D01*
X100329Y236219D01*
G37*
%LPD*%
%LPC*%
G36*
X101599Y87629D02*
X101599Y87629D01*
X101599Y87631D01*
X101601Y87631D01*
X101601Y87629D01*
X101599Y87629D01*
G37*
%LPD*%
%LPC*%
G36*
X883919Y673099D02*
X883919Y673099D01*
X883919Y673101D01*
X883921Y673101D01*
X883921Y673099D01*
X883919Y673099D01*
G37*
%LPD*%
%LPC*%
G36*
X422909Y587839D02*
X422909Y587839D01*
X422909Y587841D01*
X422911Y587841D01*
X422911Y587839D01*
X422909Y587839D01*
G37*
%LPD*%
%LPC*%
G36*
X883919Y622299D02*
X883919Y622299D01*
X883919Y622301D01*
X883921Y622301D01*
X883921Y622299D01*
X883919Y622299D01*
G37*
%LPD*%
%LPC*%
G36*
X883919Y571499D02*
X883919Y571499D01*
X883919Y571501D01*
X883921Y571501D01*
X883921Y571499D01*
X883919Y571499D01*
G37*
%LPD*%
%LPC*%
G36*
X883919Y647699D02*
X883919Y647699D01*
X883919Y647701D01*
X883921Y647701D01*
X883921Y647699D01*
X883919Y647699D01*
G37*
%LPD*%
D10*
X180340Y368300D03*
X101600Y368300D03*
X100330Y236220D03*
X179070Y236220D03*
D11*
X901700Y96520D03*
X901700Y68580D03*
X876300Y96520D03*
X876300Y68580D03*
X850900Y96520D03*
X850900Y68580D03*
X825500Y96520D03*
X825500Y68580D03*
X800100Y96520D03*
X800100Y68580D03*
X745490Y177800D03*
X720090Y177800D03*
X745490Y203200D03*
X720090Y203200D03*
X745490Y228600D03*
X720090Y228600D03*
X745490Y254000D03*
X720090Y254000D03*
X745490Y279400D03*
X720090Y279400D03*
X481330Y80010D03*
X455930Y80010D03*
X430530Y80010D03*
X405130Y80010D03*
D12*
X581660Y653570D03*
X581660Y586570D03*
X119380Y651030D03*
X119380Y584030D03*
X422910Y654840D03*
X422910Y587840D03*
X273050Y652300D03*
X273050Y585300D03*
D11*
X862330Y165100D03*
X836930Y165100D03*
X811530Y165100D03*
D13*
X101600Y87630D03*
X172720Y87630D03*
D14*
X596030Y63900D03*
X596030Y113900D03*
X646030Y63900D03*
X646030Y113900D03*
X807720Y673100D03*
X807720Y647700D03*
X807720Y622300D03*
X807720Y596900D03*
X807720Y571500D03*
X807720Y546100D03*
X807720Y520700D03*
X807720Y495300D03*
X807720Y469900D03*
X807720Y444500D03*
X883920Y444500D03*
X883920Y469900D03*
X883920Y495300D03*
X883920Y520700D03*
X883920Y546100D03*
X883920Y571500D03*
X883920Y596900D03*
X883920Y622300D03*
X883920Y647700D03*
X883920Y673100D03*
D11*
X711200Y381000D03*
X711200Y406400D03*
D15*
X184150Y177800D03*
X251460Y190500D03*
X242570Y148590D03*
X247650Y93980D03*
X361950Y111760D03*
X347980Y96520D03*
X337820Y82550D03*
X323850Y71120D03*
X307340Y64770D03*
X285750Y62230D03*
X266700Y59690D03*
X281940Y21590D03*
X320040Y22860D03*
X346710Y39370D03*
X361950Y55880D03*
X375920Y67310D03*
X488950Y176530D03*
X524510Y114300D03*
X444500Y15240D03*
X549910Y20320D03*
X509270Y76200D03*
X557530Y73660D03*
X544830Y116840D03*
X621030Y90170D03*
X703580Y69850D03*
X712470Y45720D03*
X572770Y237490D03*
X572770Y207010D03*
X678180Y241300D03*
X506730Y279400D03*
X519430Y314960D03*
X792480Y194310D03*
X770890Y176530D03*
X880110Y222250D03*
X857250Y265430D03*
X805180Y347980D03*
X862330Y344170D03*
X855980Y250190D03*
X985520Y129540D03*
X991870Y227330D03*
X991870Y387350D03*
X977900Y495300D03*
X924560Y408940D03*
X947420Y485140D03*
X985520Y623570D03*
X656590Y669290D03*
X661670Y609600D03*
X652780Y558800D03*
X679450Y515620D03*
X665480Y473710D03*
X659130Y441960D03*
X655320Y389890D03*
X755650Y402590D03*
X779780Y427990D03*
X803910Y388620D03*
X817880Y403860D03*
X850900Y440690D03*
X547370Y248920D03*
X554990Y208280D03*
X524510Y204470D03*
X600710Y234950D03*
X594360Y227330D03*
X581660Y218440D03*
X582930Y246380D03*
X557530Y228600D03*
D16*
X283210Y157480D03*
D17*
X302260Y138430D01*
X636270Y138430D02*
X645160Y147320D01*
D16*
X645160Y147320D03*
D17*
X636270Y138430D02*
X302260Y138430D01*
D15*
X645160Y226060D03*
X676910Y308610D03*
X408940Y209550D03*
D17*
X670560Y314960D02*
X676910Y308610D01*
X670560Y314960D02*
X665480Y314960D01*
X570230Y219710D01*
X419100Y219710D02*
X408940Y209550D01*
X419100Y219710D02*
X570230Y219710D01*
D15*
X670560Y264160D03*
D17*
X676910Y270510D01*
X676910Y308610D01*
D15*
X20320Y35560D03*
X22860Y162560D03*
X26670Y302260D03*
X26670Y439420D03*
X100330Y309880D03*
X106680Y149860D03*
D16*
X345440Y157480D03*
D17*
X358140Y144780D01*
X615950Y144780D02*
X621030Y149860D01*
D16*
X621030Y149860D03*
D17*
X615950Y144780D02*
X358140Y144780D01*
D15*
X610870Y241300D03*
D18*
X702310Y149860D01*
X796290Y149860D02*
X811530Y165100D01*
X796290Y149860D02*
X702310Y149860D01*
D15*
X660400Y205740D03*
D17*
X697230Y205740D01*
X703580Y212090D01*
X703580Y237490D02*
X720090Y254000D01*
X703580Y237490D02*
X703580Y212090D01*
D19*
X397510Y424180D03*
D20*
X410210Y436880D01*
X457200Y436880D01*
D19*
X457200Y436880D03*
D15*
X292100Y293370D03*
X307340Y293370D03*
X322580Y293370D03*
X337820Y293370D03*
X31750Y617220D03*
X16510Y557530D03*
X53340Y524510D03*
X116840Y478790D03*
X194310Y492760D03*
X210820Y566420D03*
X190500Y450850D03*
X256540Y421640D03*
X248920Y392430D03*
X292100Y264160D03*
X307340Y264160D03*
X322580Y264160D03*
X337820Y264160D03*
X401320Y398780D03*
X297180Y477520D03*
X361950Y542290D03*
X358140Y473710D03*
X411480Y491490D03*
X476250Y481330D03*
X407670Y454660D03*
X478790Y502920D03*
X478790Y527050D03*
X480060Y544830D03*
X478790Y566420D03*
X480060Y584200D03*
X481330Y599440D03*
X477520Y457200D03*
X557530Y453390D03*
X560070Y473710D03*
X557530Y492760D03*
X557530Y505460D03*
X556260Y525780D03*
X556260Y542290D03*
X557530Y421640D03*
X596900Y429260D03*
X427990Y350520D03*
X454660Y337820D03*
X265430Y269240D03*
X251460Y247650D03*
X292100Y278130D03*
X307340Y278130D03*
X322580Y278130D03*
X337820Y278130D03*
X292100Y248920D03*
X307340Y248920D03*
X322580Y248920D03*
X337820Y248920D03*
X292100Y234950D03*
X307340Y234950D03*
X322580Y234950D03*
X337820Y234950D03*
X391160Y295910D03*
X406400Y295910D03*
X421640Y295910D03*
X436880Y295910D03*
X391160Y280670D03*
X406400Y280670D03*
X421640Y280670D03*
X436880Y280670D03*
X391160Y266700D03*
X406400Y266700D03*
X421640Y266700D03*
X436880Y266700D03*
X391160Y251460D03*
X406400Y251460D03*
X421640Y251460D03*
X436880Y251460D03*
X391160Y237490D03*
X406400Y237490D03*
X421640Y237490D03*
X436880Y237490D03*
X502920Y368300D03*
X509270Y360680D03*
X483870Y354330D03*
X476250Y361950D03*
D21*
X901700Y361950D02*
X901700Y96520D01*
X901700Y361950D02*
X859790Y403860D01*
D15*
X859790Y403860D03*
X781050Y158270D03*
D21*
X781050Y227132D01*
X811530Y257612D01*
D15*
X811530Y257612D03*
X831850Y359410D03*
D21*
X831850Y102870D02*
X825500Y96520D01*
X831850Y177262D02*
X831850Y359410D01*
X831850Y177262D02*
X824738Y170150D01*
X824738Y160050D01*
X831850Y152938D01*
X831850Y102870D01*
D15*
X845820Y401320D03*
D21*
X845820Y173452D01*
X849122Y170150D01*
X838708Y89408D02*
X833120Y83820D01*
X838708Y89408D02*
X838708Y101570D01*
X849122Y111984D02*
X849122Y170150D01*
X849122Y111984D02*
X838708Y101570D01*
X833120Y83820D02*
X812800Y83820D01*
X800100Y96520D01*
D15*
X802640Y274320D03*
D21*
X782320Y254000D01*
X745490Y254000D01*
D15*
X806450Y224790D03*
D21*
X820420Y238760D01*
X820420Y269240D01*
X783590Y306070D01*
D15*
X783590Y306070D03*
D19*
X825373Y323850D03*
D21*
X748792Y400431D02*
X742823Y406400D01*
X808101Y341122D02*
X825373Y323850D01*
X808101Y341122D02*
X802339Y341122D01*
X748792Y394669D01*
X748792Y400431D01*
X742823Y406400D02*
X711200Y406400D01*
D19*
X811530Y323850D03*
D21*
X754380Y381000D01*
X711200Y381000D01*
D19*
X430530Y421640D03*
D21*
X521970Y330200D01*
X760730Y330200D01*
D19*
X760730Y330200D03*
M02*
