G04 EAGLE Gerber RS-274X export*
G75*
%MOMM*%
%FSLAX34Y34*%
%LPD*%
%IN*%
%IPPOS*%
%AMOC8*
5,1,8,0,0,1.08239X$1,22.5*%
G01*
%ADD10C,0.254000*%


D10*
X1270Y-1270D02*
X1120140Y-5080D01*
X1122680Y894080D01*
X2540Y892810D01*
X1270Y-1270D01*
X562914Y658540D02*
X561846Y658616D01*
X560785Y658769D01*
X559738Y658997D01*
X558710Y659299D01*
X557706Y659673D01*
X556731Y660118D01*
X555791Y660632D01*
X554890Y661211D01*
X554032Y661853D01*
X553222Y662555D01*
X552465Y663312D01*
X551763Y664122D01*
X551121Y664980D01*
X550542Y665881D01*
X550028Y666821D01*
X549583Y667796D01*
X549209Y668800D01*
X548907Y669828D01*
X548679Y670875D01*
X548526Y671936D01*
X548450Y673004D01*
X548450Y674076D01*
X548526Y675144D01*
X548679Y676205D01*
X548907Y677252D01*
X549209Y678280D01*
X549583Y679284D01*
X550028Y680259D01*
X550542Y681199D01*
X551121Y682100D01*
X551763Y682958D01*
X552465Y683768D01*
X553222Y684525D01*
X554032Y685227D01*
X554890Y685869D01*
X555791Y686448D01*
X556731Y686962D01*
X557706Y687407D01*
X558710Y687781D01*
X559738Y688083D01*
X560785Y688311D01*
X561846Y688464D01*
X562914Y688540D01*
X563986Y688540D01*
X565054Y688464D01*
X566115Y688311D01*
X567162Y688083D01*
X568190Y687781D01*
X569194Y687407D01*
X570169Y686962D01*
X571109Y686448D01*
X572010Y685869D01*
X572868Y685227D01*
X573678Y684525D01*
X574435Y683768D01*
X575137Y682958D01*
X575779Y682100D01*
X576358Y681199D01*
X576872Y680259D01*
X577317Y679284D01*
X577691Y678280D01*
X577993Y677252D01*
X578221Y676205D01*
X578374Y675144D01*
X578450Y674076D01*
X578450Y673004D01*
X578374Y671936D01*
X578221Y670875D01*
X577993Y669828D01*
X577691Y668800D01*
X577317Y667796D01*
X576872Y666821D01*
X576358Y665881D01*
X575779Y664980D01*
X575137Y664122D01*
X574435Y663312D01*
X573678Y662555D01*
X572868Y661853D01*
X572010Y661211D01*
X571109Y660632D01*
X570169Y660118D01*
X569194Y659673D01*
X568190Y659299D01*
X567162Y658997D01*
X566115Y658769D01*
X565054Y658616D01*
X563986Y658540D01*
X562914Y658540D01*
X100634Y658540D02*
X99566Y658616D01*
X98505Y658769D01*
X97458Y658997D01*
X96430Y659299D01*
X95426Y659673D01*
X94451Y660118D01*
X93511Y660632D01*
X92610Y661211D01*
X91752Y661853D01*
X90942Y662555D01*
X90185Y663312D01*
X89483Y664122D01*
X88841Y664980D01*
X88262Y665881D01*
X87748Y666821D01*
X87303Y667796D01*
X86929Y668800D01*
X86627Y669828D01*
X86399Y670875D01*
X86246Y671936D01*
X86170Y673004D01*
X86170Y674076D01*
X86246Y675144D01*
X86399Y676205D01*
X86627Y677252D01*
X86929Y678280D01*
X87303Y679284D01*
X87748Y680259D01*
X88262Y681199D01*
X88841Y682100D01*
X89483Y682958D01*
X90185Y683768D01*
X90942Y684525D01*
X91752Y685227D01*
X92610Y685869D01*
X93511Y686448D01*
X94451Y686962D01*
X95426Y687407D01*
X96430Y687781D01*
X97458Y688083D01*
X98505Y688311D01*
X99566Y688464D01*
X100634Y688540D01*
X101706Y688540D01*
X102774Y688464D01*
X103835Y688311D01*
X104882Y688083D01*
X105910Y687781D01*
X106914Y687407D01*
X107889Y686962D01*
X108829Y686448D01*
X109730Y685869D01*
X110588Y685227D01*
X111398Y684525D01*
X112155Y683768D01*
X112857Y682958D01*
X113499Y682100D01*
X114078Y681199D01*
X114592Y680259D01*
X115037Y679284D01*
X115411Y678280D01*
X115713Y677252D01*
X115941Y676205D01*
X116094Y675144D01*
X116170Y674076D01*
X116170Y673004D01*
X116094Y671936D01*
X115941Y670875D01*
X115713Y669828D01*
X115411Y668800D01*
X115037Y667796D01*
X114592Y666821D01*
X114078Y665881D01*
X113499Y664980D01*
X112857Y664122D01*
X112155Y663312D01*
X111398Y662555D01*
X110588Y661853D01*
X109730Y661211D01*
X108829Y660632D01*
X107889Y660118D01*
X106914Y659673D01*
X105910Y659299D01*
X104882Y658997D01*
X103835Y658769D01*
X102774Y658616D01*
X101706Y658540D01*
X100634Y658540D01*
X405434Y658540D02*
X404366Y658616D01*
X403305Y658769D01*
X402258Y658997D01*
X401230Y659299D01*
X400226Y659673D01*
X399251Y660118D01*
X398311Y660632D01*
X397410Y661211D01*
X396552Y661853D01*
X395742Y662555D01*
X394985Y663312D01*
X394283Y664122D01*
X393641Y664980D01*
X393062Y665881D01*
X392548Y666821D01*
X392103Y667796D01*
X391729Y668800D01*
X391427Y669828D01*
X391199Y670875D01*
X391046Y671936D01*
X390970Y673004D01*
X390970Y674076D01*
X391046Y675144D01*
X391199Y676205D01*
X391427Y677252D01*
X391729Y678280D01*
X392103Y679284D01*
X392548Y680259D01*
X393062Y681199D01*
X393641Y682100D01*
X394283Y682958D01*
X394985Y683768D01*
X395742Y684525D01*
X396552Y685227D01*
X397410Y685869D01*
X398311Y686448D01*
X399251Y686962D01*
X400226Y687407D01*
X401230Y687781D01*
X402258Y688083D01*
X403305Y688311D01*
X404366Y688464D01*
X405434Y688540D01*
X406506Y688540D01*
X407574Y688464D01*
X408635Y688311D01*
X409682Y688083D01*
X410710Y687781D01*
X411714Y687407D01*
X412689Y686962D01*
X413629Y686448D01*
X414530Y685869D01*
X415388Y685227D01*
X416198Y684525D01*
X416955Y683768D01*
X417657Y682958D01*
X418299Y682100D01*
X418878Y681199D01*
X419392Y680259D01*
X419837Y679284D01*
X420211Y678280D01*
X420513Y677252D01*
X420741Y676205D01*
X420894Y675144D01*
X420970Y674076D01*
X420970Y673004D01*
X420894Y671936D01*
X420741Y670875D01*
X420513Y669828D01*
X420211Y668800D01*
X419837Y667796D01*
X419392Y666821D01*
X418878Y665881D01*
X418299Y664980D01*
X417657Y664122D01*
X416955Y663312D01*
X416198Y662555D01*
X415388Y661853D01*
X414530Y661211D01*
X413629Y660632D01*
X412689Y660118D01*
X411714Y659673D01*
X410710Y659299D01*
X409682Y658997D01*
X408635Y658769D01*
X407574Y658616D01*
X406506Y658540D01*
X405434Y658540D01*
X256844Y658540D02*
X255776Y658616D01*
X254715Y658769D01*
X253668Y658997D01*
X252640Y659299D01*
X251636Y659673D01*
X250661Y660118D01*
X249721Y660632D01*
X248820Y661211D01*
X247962Y661853D01*
X247152Y662555D01*
X246395Y663312D01*
X245693Y664122D01*
X245051Y664980D01*
X244472Y665881D01*
X243958Y666821D01*
X243513Y667796D01*
X243139Y668800D01*
X242837Y669828D01*
X242609Y670875D01*
X242456Y671936D01*
X242380Y673004D01*
X242380Y674076D01*
X242456Y675144D01*
X242609Y676205D01*
X242837Y677252D01*
X243139Y678280D01*
X243513Y679284D01*
X243958Y680259D01*
X244472Y681199D01*
X245051Y682100D01*
X245693Y682958D01*
X246395Y683768D01*
X247152Y684525D01*
X247962Y685227D01*
X248820Y685869D01*
X249721Y686448D01*
X250661Y686962D01*
X251636Y687407D01*
X252640Y687781D01*
X253668Y688083D01*
X254715Y688311D01*
X255776Y688464D01*
X256844Y688540D01*
X257916Y688540D01*
X258984Y688464D01*
X260045Y688311D01*
X261092Y688083D01*
X262120Y687781D01*
X263124Y687407D01*
X264099Y686962D01*
X265039Y686448D01*
X265940Y685869D01*
X266798Y685227D01*
X267608Y684525D01*
X268365Y683768D01*
X269067Y682958D01*
X269709Y682100D01*
X270288Y681199D01*
X270802Y680259D01*
X271247Y679284D01*
X271621Y678280D01*
X271923Y677252D01*
X272151Y676205D01*
X272304Y675144D01*
X272380Y674076D01*
X272380Y673004D01*
X272304Y671936D01*
X272151Y670875D01*
X271923Y669828D01*
X271621Y668800D01*
X271247Y667796D01*
X270802Y666821D01*
X270288Y665881D01*
X269709Y664980D01*
X269067Y664122D01*
X268365Y663312D01*
X267608Y662555D01*
X266798Y661853D01*
X265940Y661211D01*
X265039Y660632D01*
X264099Y660118D01*
X263124Y659673D01*
X262120Y659299D01*
X261092Y658997D01*
X260045Y658769D01*
X258984Y658616D01*
X257916Y658540D01*
X256844Y658540D01*
X573325Y70077D02*
X573262Y69519D01*
X573137Y68972D01*
X572952Y68442D01*
X572708Y67936D01*
X572409Y67460D01*
X572059Y67021D01*
X571662Y66624D01*
X571223Y66274D01*
X570747Y65975D01*
X570241Y65731D01*
X569711Y65546D01*
X569164Y65421D01*
X568606Y65358D01*
X568044Y65358D01*
X567486Y65421D01*
X566939Y65546D01*
X566409Y65731D01*
X565903Y65975D01*
X565427Y66274D01*
X564988Y66624D01*
X564591Y67021D01*
X564241Y67460D01*
X563942Y67936D01*
X563698Y68442D01*
X563513Y68972D01*
X563388Y69519D01*
X563325Y70077D01*
X563325Y70639D01*
X563388Y71197D01*
X563513Y71744D01*
X563698Y72274D01*
X563942Y72780D01*
X564241Y73256D01*
X564591Y73695D01*
X564988Y74092D01*
X565427Y74442D01*
X565903Y74741D01*
X566409Y74985D01*
X566939Y75170D01*
X567486Y75295D01*
X568044Y75358D01*
X568606Y75358D01*
X569164Y75295D01*
X569711Y75170D01*
X570241Y74985D01*
X570747Y74741D01*
X571223Y74442D01*
X571662Y74092D01*
X572059Y73695D01*
X572409Y73256D01*
X572708Y72780D01*
X572952Y72274D01*
X573137Y71744D01*
X573262Y71197D01*
X573325Y70639D01*
X573325Y70077D01*
X648255Y119861D02*
X648192Y119303D01*
X648067Y118756D01*
X647882Y118226D01*
X647638Y117720D01*
X647339Y117244D01*
X646989Y116805D01*
X646592Y116408D01*
X646153Y116058D01*
X645677Y115759D01*
X645171Y115515D01*
X644641Y115330D01*
X644094Y115205D01*
X643536Y115142D01*
X642974Y115142D01*
X642416Y115205D01*
X641869Y115330D01*
X641339Y115515D01*
X640833Y115759D01*
X640357Y116058D01*
X639918Y116408D01*
X639521Y116805D01*
X639171Y117244D01*
X638872Y117720D01*
X638628Y118226D01*
X638443Y118756D01*
X638318Y119303D01*
X638255Y119861D01*
X638255Y120423D01*
X638318Y120981D01*
X638443Y121528D01*
X638628Y122058D01*
X638872Y122564D01*
X639171Y123040D01*
X639521Y123479D01*
X639918Y123876D01*
X640357Y124226D01*
X640833Y124525D01*
X641339Y124769D01*
X641869Y124954D01*
X642416Y125079D01*
X642974Y125142D01*
X643536Y125142D01*
X644094Y125079D01*
X644641Y124954D01*
X645171Y124769D01*
X645677Y124525D01*
X646153Y124226D01*
X646592Y123876D01*
X646989Y123479D01*
X647339Y123040D01*
X647638Y122564D01*
X647882Y122058D01*
X648067Y121528D01*
X648192Y120981D01*
X648255Y120423D01*
X648255Y119861D01*
X339090Y295370D02*
X339019Y294291D01*
X338878Y293219D01*
X338667Y292159D01*
X338388Y291115D01*
X338040Y290091D01*
X337626Y289093D01*
X337148Y288123D01*
X336608Y287187D01*
X336007Y286288D01*
X335349Y285431D01*
X334637Y284618D01*
X333872Y283854D01*
X333059Y283141D01*
X332202Y282483D01*
X331303Y281882D01*
X330367Y281342D01*
X329397Y280864D01*
X328399Y280450D01*
X327375Y280102D01*
X326331Y279823D01*
X325271Y279612D01*
X324199Y279471D01*
X323120Y279400D01*
X322040Y279400D01*
X320961Y279471D01*
X319889Y279612D01*
X318829Y279823D01*
X317785Y280102D01*
X316761Y280450D01*
X315763Y280864D01*
X314793Y281342D01*
X313857Y281882D01*
X312958Y282483D01*
X312101Y283141D01*
X311288Y283854D01*
X310524Y284618D01*
X309811Y285431D01*
X309153Y286288D01*
X308552Y287187D01*
X308012Y288123D01*
X307534Y289093D01*
X307120Y290091D01*
X306772Y291115D01*
X306493Y292159D01*
X306282Y293219D01*
X306141Y294291D01*
X306070Y295370D01*
X306070Y296450D01*
X306141Y297529D01*
X306282Y298601D01*
X306493Y299661D01*
X306772Y300705D01*
X307120Y301729D01*
X307534Y302727D01*
X308012Y303697D01*
X308552Y304633D01*
X309153Y305532D01*
X309811Y306389D01*
X310524Y307202D01*
X311288Y307967D01*
X312101Y308679D01*
X312958Y309337D01*
X313857Y309938D01*
X314793Y310478D01*
X315763Y310956D01*
X316761Y311370D01*
X317785Y311718D01*
X318829Y311997D01*
X319889Y312208D01*
X320961Y312349D01*
X322040Y312420D01*
X323120Y312420D01*
X324199Y312349D01*
X325271Y312208D01*
X326331Y311997D01*
X327375Y311718D01*
X328399Y311370D01*
X329397Y310956D01*
X330367Y310478D01*
X331303Y309938D01*
X332202Y309337D01*
X333059Y308679D01*
X333872Y307967D01*
X334637Y307202D01*
X335349Y306389D01*
X336007Y305532D01*
X336608Y304633D01*
X337148Y303697D01*
X337626Y302727D01*
X338040Y301729D01*
X338388Y300705D01*
X338667Y299661D01*
X338878Y298601D01*
X339019Y297529D01*
X339090Y296450D01*
X339090Y295370D01*
X1092200Y816070D02*
X1092129Y814991D01*
X1091988Y813919D01*
X1091777Y812859D01*
X1091498Y811815D01*
X1091150Y810791D01*
X1090736Y809793D01*
X1090258Y808823D01*
X1089718Y807887D01*
X1089117Y806988D01*
X1088459Y806131D01*
X1087747Y805318D01*
X1086982Y804554D01*
X1086169Y803841D01*
X1085312Y803183D01*
X1084413Y802582D01*
X1083477Y802042D01*
X1082507Y801564D01*
X1081509Y801150D01*
X1080485Y800802D01*
X1079441Y800523D01*
X1078381Y800312D01*
X1077309Y800171D01*
X1076230Y800100D01*
X1075150Y800100D01*
X1074071Y800171D01*
X1072999Y800312D01*
X1071939Y800523D01*
X1070895Y800802D01*
X1069871Y801150D01*
X1068873Y801564D01*
X1067903Y802042D01*
X1066967Y802582D01*
X1066068Y803183D01*
X1065211Y803841D01*
X1064398Y804554D01*
X1063634Y805318D01*
X1062921Y806131D01*
X1062263Y806988D01*
X1061662Y807887D01*
X1061122Y808823D01*
X1060644Y809793D01*
X1060230Y810791D01*
X1059882Y811815D01*
X1059603Y812859D01*
X1059392Y813919D01*
X1059251Y814991D01*
X1059180Y816070D01*
X1059180Y817150D01*
X1059251Y818229D01*
X1059392Y819301D01*
X1059603Y820361D01*
X1059882Y821405D01*
X1060230Y822429D01*
X1060644Y823427D01*
X1061122Y824397D01*
X1061662Y825333D01*
X1062263Y826232D01*
X1062921Y827089D01*
X1063634Y827902D01*
X1064398Y828667D01*
X1065211Y829379D01*
X1066068Y830037D01*
X1066967Y830638D01*
X1067903Y831178D01*
X1068873Y831656D01*
X1069871Y832070D01*
X1070895Y832418D01*
X1071939Y832697D01*
X1072999Y832908D01*
X1074071Y833049D01*
X1075150Y833120D01*
X1076230Y833120D01*
X1077309Y833049D01*
X1078381Y832908D01*
X1079441Y832697D01*
X1080485Y832418D01*
X1081509Y832070D01*
X1082507Y831656D01*
X1083477Y831178D01*
X1084413Y830638D01*
X1085312Y830037D01*
X1086169Y829379D01*
X1086982Y828667D01*
X1087747Y827902D01*
X1088459Y827089D01*
X1089117Y826232D01*
X1089718Y825333D01*
X1090258Y824397D01*
X1090736Y823427D01*
X1091150Y822429D01*
X1091498Y821405D01*
X1091777Y820361D01*
X1091988Y819301D01*
X1092129Y818229D01*
X1092200Y817150D01*
X1092200Y816070D01*
X1089660Y295370D02*
X1089589Y294291D01*
X1089448Y293219D01*
X1089237Y292159D01*
X1088958Y291115D01*
X1088610Y290091D01*
X1088196Y289093D01*
X1087718Y288123D01*
X1087178Y287187D01*
X1086577Y286288D01*
X1085919Y285431D01*
X1085207Y284618D01*
X1084442Y283854D01*
X1083629Y283141D01*
X1082772Y282483D01*
X1081873Y281882D01*
X1080937Y281342D01*
X1079967Y280864D01*
X1078969Y280450D01*
X1077945Y280102D01*
X1076901Y279823D01*
X1075841Y279612D01*
X1074769Y279471D01*
X1073690Y279400D01*
X1072610Y279400D01*
X1071531Y279471D01*
X1070459Y279612D01*
X1069399Y279823D01*
X1068355Y280102D01*
X1067331Y280450D01*
X1066333Y280864D01*
X1065363Y281342D01*
X1064427Y281882D01*
X1063528Y282483D01*
X1062671Y283141D01*
X1061858Y283854D01*
X1061094Y284618D01*
X1060381Y285431D01*
X1059723Y286288D01*
X1059122Y287187D01*
X1058582Y288123D01*
X1058104Y289093D01*
X1057690Y290091D01*
X1057342Y291115D01*
X1057063Y292159D01*
X1056852Y293219D01*
X1056711Y294291D01*
X1056640Y295370D01*
X1056640Y296450D01*
X1056711Y297529D01*
X1056852Y298601D01*
X1057063Y299661D01*
X1057342Y300705D01*
X1057690Y301729D01*
X1058104Y302727D01*
X1058582Y303697D01*
X1059122Y304633D01*
X1059723Y305532D01*
X1060381Y306389D01*
X1061094Y307202D01*
X1061858Y307967D01*
X1062671Y308679D01*
X1063528Y309337D01*
X1064427Y309938D01*
X1065363Y310478D01*
X1066333Y310956D01*
X1067331Y311370D01*
X1068355Y311718D01*
X1069399Y311997D01*
X1070459Y312208D01*
X1071531Y312349D01*
X1072610Y312420D01*
X1073690Y312420D01*
X1074769Y312349D01*
X1075841Y312208D01*
X1076901Y311997D01*
X1077945Y311718D01*
X1078969Y311370D01*
X1079967Y310956D01*
X1080937Y310478D01*
X1081873Y309938D01*
X1082772Y309337D01*
X1083629Y308679D01*
X1084442Y307967D01*
X1085207Y307202D01*
X1085919Y306389D01*
X1086577Y305532D01*
X1087178Y304633D01*
X1087718Y303697D01*
X1088196Y302727D01*
X1088610Y301729D01*
X1088958Y300705D01*
X1089237Y299661D01*
X1089448Y298601D01*
X1089589Y297529D01*
X1089660Y296450D01*
X1089660Y295370D01*
X434340Y578580D02*
X434269Y577501D01*
X434128Y576429D01*
X433917Y575369D01*
X433638Y574325D01*
X433290Y573301D01*
X432876Y572303D01*
X432398Y571333D01*
X431858Y570397D01*
X431257Y569498D01*
X430599Y568641D01*
X429887Y567828D01*
X429122Y567064D01*
X428309Y566351D01*
X427452Y565693D01*
X426553Y565092D01*
X425617Y564552D01*
X424647Y564074D01*
X423649Y563660D01*
X422625Y563312D01*
X421581Y563033D01*
X420521Y562822D01*
X419449Y562681D01*
X418370Y562610D01*
X417290Y562610D01*
X416211Y562681D01*
X415139Y562822D01*
X414079Y563033D01*
X413035Y563312D01*
X412011Y563660D01*
X411013Y564074D01*
X410043Y564552D01*
X409107Y565092D01*
X408208Y565693D01*
X407351Y566351D01*
X406538Y567064D01*
X405774Y567828D01*
X405061Y568641D01*
X404403Y569498D01*
X403802Y570397D01*
X403262Y571333D01*
X402784Y572303D01*
X402370Y573301D01*
X402022Y574325D01*
X401743Y575369D01*
X401532Y576429D01*
X401391Y577501D01*
X401320Y578580D01*
X401320Y579660D01*
X401391Y580739D01*
X401532Y581811D01*
X401743Y582871D01*
X402022Y583915D01*
X402370Y584939D01*
X402784Y585937D01*
X403262Y586907D01*
X403802Y587843D01*
X404403Y588742D01*
X405061Y589599D01*
X405774Y590412D01*
X406538Y591177D01*
X407351Y591889D01*
X408208Y592547D01*
X409107Y593148D01*
X410043Y593688D01*
X411013Y594166D01*
X412011Y594580D01*
X413035Y594928D01*
X414079Y595207D01*
X415139Y595418D01*
X416211Y595559D01*
X417290Y595630D01*
X418370Y595630D01*
X419449Y595559D01*
X420521Y595418D01*
X421581Y595207D01*
X422625Y594928D01*
X423649Y594580D01*
X424647Y594166D01*
X425617Y593688D01*
X426553Y593148D01*
X427452Y592547D01*
X428309Y591889D01*
X429122Y591177D01*
X429887Y590412D01*
X430599Y589599D01*
X431257Y588742D01*
X431858Y587843D01*
X432398Y586907D01*
X432876Y585937D01*
X433290Y584939D01*
X433638Y583915D01*
X433917Y582871D01*
X434128Y581811D01*
X434269Y580739D01*
X434340Y579660D01*
X434340Y578580D01*
X688340Y814800D02*
X688269Y813721D01*
X688128Y812649D01*
X687917Y811589D01*
X687638Y810545D01*
X687290Y809521D01*
X686876Y808523D01*
X686398Y807553D01*
X685858Y806617D01*
X685257Y805718D01*
X684599Y804861D01*
X683887Y804048D01*
X683122Y803284D01*
X682309Y802571D01*
X681452Y801913D01*
X680553Y801312D01*
X679617Y800772D01*
X678647Y800294D01*
X677649Y799880D01*
X676625Y799532D01*
X675581Y799253D01*
X674521Y799042D01*
X673449Y798901D01*
X672370Y798830D01*
X671290Y798830D01*
X670211Y798901D01*
X669139Y799042D01*
X668079Y799253D01*
X667035Y799532D01*
X666011Y799880D01*
X665013Y800294D01*
X664043Y800772D01*
X663107Y801312D01*
X662208Y801913D01*
X661351Y802571D01*
X660538Y803284D01*
X659774Y804048D01*
X659061Y804861D01*
X658403Y805718D01*
X657802Y806617D01*
X657262Y807553D01*
X656784Y808523D01*
X656370Y809521D01*
X656022Y810545D01*
X655743Y811589D01*
X655532Y812649D01*
X655391Y813721D01*
X655320Y814800D01*
X655320Y815880D01*
X655391Y816959D01*
X655532Y818031D01*
X655743Y819091D01*
X656022Y820135D01*
X656370Y821159D01*
X656784Y822157D01*
X657262Y823127D01*
X657802Y824063D01*
X658403Y824962D01*
X659061Y825819D01*
X659774Y826632D01*
X660538Y827397D01*
X661351Y828109D01*
X662208Y828767D01*
X663107Y829368D01*
X664043Y829908D01*
X665013Y830386D01*
X666011Y830800D01*
X667035Y831148D01*
X668079Y831427D01*
X669139Y831638D01*
X670211Y831779D01*
X671290Y831850D01*
X672370Y831850D01*
X673449Y831779D01*
X674521Y831638D01*
X675581Y831427D01*
X676625Y831148D01*
X677649Y830800D01*
X678647Y830386D01*
X679617Y829908D01*
X680553Y829368D01*
X681452Y828767D01*
X682309Y828109D01*
X683122Y827397D01*
X683887Y826632D01*
X684599Y825819D01*
X685257Y824962D01*
X685858Y824063D01*
X686398Y823127D01*
X686876Y822157D01*
X687290Y821159D01*
X687638Y820135D01*
X687917Y819091D01*
X688128Y818031D01*
X688269Y816959D01*
X688340Y815880D01*
X688340Y814800D01*
X668020Y482060D02*
X667949Y480981D01*
X667808Y479909D01*
X667597Y478849D01*
X667318Y477805D01*
X666970Y476781D01*
X666556Y475783D01*
X666078Y474813D01*
X665538Y473877D01*
X664937Y472978D01*
X664279Y472121D01*
X663567Y471308D01*
X662802Y470544D01*
X661989Y469831D01*
X661132Y469173D01*
X660233Y468572D01*
X659297Y468032D01*
X658327Y467554D01*
X657329Y467140D01*
X656305Y466792D01*
X655261Y466513D01*
X654201Y466302D01*
X653129Y466161D01*
X652050Y466090D01*
X650970Y466090D01*
X649891Y466161D01*
X648819Y466302D01*
X647759Y466513D01*
X646715Y466792D01*
X645691Y467140D01*
X644693Y467554D01*
X643723Y468032D01*
X642787Y468572D01*
X641888Y469173D01*
X641031Y469831D01*
X640218Y470544D01*
X639454Y471308D01*
X638741Y472121D01*
X638083Y472978D01*
X637482Y473877D01*
X636942Y474813D01*
X636464Y475783D01*
X636050Y476781D01*
X635702Y477805D01*
X635423Y478849D01*
X635212Y479909D01*
X635071Y480981D01*
X635000Y482060D01*
X635000Y483140D01*
X635071Y484219D01*
X635212Y485291D01*
X635423Y486351D01*
X635702Y487395D01*
X636050Y488419D01*
X636464Y489417D01*
X636942Y490387D01*
X637482Y491323D01*
X638083Y492222D01*
X638741Y493079D01*
X639454Y493892D01*
X640218Y494657D01*
X641031Y495369D01*
X641888Y496027D01*
X642787Y496628D01*
X643723Y497168D01*
X644693Y497646D01*
X645691Y498060D01*
X646715Y498408D01*
X647759Y498687D01*
X648819Y498898D01*
X649891Y499039D01*
X650970Y499110D01*
X652050Y499110D01*
X653129Y499039D01*
X654201Y498898D01*
X655261Y498687D01*
X656305Y498408D01*
X657329Y498060D01*
X658327Y497646D01*
X659297Y497168D01*
X660233Y496628D01*
X661132Y496027D01*
X661989Y495369D01*
X662802Y494657D01*
X663567Y493892D01*
X664279Y493079D01*
X664937Y492222D01*
X665538Y491323D01*
X666078Y490387D01*
X666556Y489417D01*
X666970Y488419D01*
X667318Y487395D01*
X667597Y486351D01*
X667808Y485291D01*
X667949Y484219D01*
X668020Y483140D01*
X668020Y482060D01*
M02*
