G04 EAGLE Gerber RS-274X export*
G75*
%MOMM*%
%FSLAX34Y34*%
%LPD*%
%IN*%
%IPPOS*%
%AMOC8*
5,1,8,0,0,1.08239X$1,22.5*%
G01*
%ADD10C,0.254000*%


D10*
X-1270Y716280D02*
X1270Y-1270D01*
X1024890Y-1270D01*
X1022350Y716280D01*
X-1270Y716280D01*
X592124Y517570D02*
X591056Y517646D01*
X589995Y517799D01*
X588948Y518027D01*
X587920Y518329D01*
X586916Y518703D01*
X585941Y519148D01*
X585001Y519662D01*
X584100Y520241D01*
X583242Y520883D01*
X582432Y521585D01*
X581675Y522342D01*
X580973Y523152D01*
X580331Y524010D01*
X579752Y524911D01*
X579238Y525851D01*
X578793Y526826D01*
X578419Y527830D01*
X578117Y528858D01*
X577889Y529905D01*
X577736Y530966D01*
X577660Y532034D01*
X577660Y533106D01*
X577736Y534174D01*
X577889Y535235D01*
X578117Y536282D01*
X578419Y537310D01*
X578793Y538314D01*
X579238Y539289D01*
X579752Y540229D01*
X580331Y541130D01*
X580973Y541988D01*
X581675Y542798D01*
X582432Y543555D01*
X583242Y544257D01*
X584100Y544899D01*
X585001Y545478D01*
X585941Y545992D01*
X586916Y546437D01*
X587920Y546811D01*
X588948Y547113D01*
X589995Y547341D01*
X591056Y547494D01*
X592124Y547570D01*
X593196Y547570D01*
X594264Y547494D01*
X595325Y547341D01*
X596372Y547113D01*
X597400Y546811D01*
X598404Y546437D01*
X599379Y545992D01*
X600319Y545478D01*
X601220Y544899D01*
X602078Y544257D01*
X602888Y543555D01*
X603645Y542798D01*
X604347Y541988D01*
X604989Y541130D01*
X605568Y540229D01*
X606082Y539289D01*
X606527Y538314D01*
X606901Y537310D01*
X607203Y536282D01*
X607431Y535235D01*
X607584Y534174D01*
X607660Y533106D01*
X607660Y532034D01*
X607584Y530966D01*
X607431Y529905D01*
X607203Y528858D01*
X606901Y527830D01*
X606527Y526826D01*
X606082Y525851D01*
X605568Y524911D01*
X604989Y524010D01*
X604347Y523152D01*
X603645Y522342D01*
X602888Y521585D01*
X602078Y520883D01*
X601220Y520241D01*
X600319Y519662D01*
X599379Y519148D01*
X598404Y518703D01*
X597400Y518329D01*
X596372Y518027D01*
X595325Y517799D01*
X594264Y517646D01*
X593196Y517570D01*
X592124Y517570D01*
X129844Y515030D02*
X128776Y515106D01*
X127715Y515259D01*
X126668Y515487D01*
X125640Y515789D01*
X124636Y516163D01*
X123661Y516608D01*
X122721Y517122D01*
X121820Y517701D01*
X120962Y518343D01*
X120152Y519045D01*
X119395Y519802D01*
X118693Y520612D01*
X118051Y521470D01*
X117472Y522371D01*
X116958Y523311D01*
X116513Y524286D01*
X116139Y525290D01*
X115837Y526318D01*
X115609Y527365D01*
X115456Y528426D01*
X115380Y529494D01*
X115380Y530566D01*
X115456Y531634D01*
X115609Y532695D01*
X115837Y533742D01*
X116139Y534770D01*
X116513Y535774D01*
X116958Y536749D01*
X117472Y537689D01*
X118051Y538590D01*
X118693Y539448D01*
X119395Y540258D01*
X120152Y541015D01*
X120962Y541717D01*
X121820Y542359D01*
X122721Y542938D01*
X123661Y543452D01*
X124636Y543897D01*
X125640Y544271D01*
X126668Y544573D01*
X127715Y544801D01*
X128776Y544954D01*
X129844Y545030D01*
X130916Y545030D01*
X131984Y544954D01*
X133045Y544801D01*
X134092Y544573D01*
X135120Y544271D01*
X136124Y543897D01*
X137099Y543452D01*
X138039Y542938D01*
X138940Y542359D01*
X139798Y541717D01*
X140608Y541015D01*
X141365Y540258D01*
X142067Y539448D01*
X142709Y538590D01*
X143288Y537689D01*
X143802Y536749D01*
X144247Y535774D01*
X144621Y534770D01*
X144923Y533742D01*
X145151Y532695D01*
X145304Y531634D01*
X145380Y530566D01*
X145380Y529494D01*
X145304Y528426D01*
X145151Y527365D01*
X144923Y526318D01*
X144621Y525290D01*
X144247Y524286D01*
X143802Y523311D01*
X143288Y522371D01*
X142709Y521470D01*
X142067Y520612D01*
X141365Y519802D01*
X140608Y519045D01*
X139798Y518343D01*
X138940Y517701D01*
X138039Y517122D01*
X137099Y516608D01*
X136124Y516163D01*
X135120Y515789D01*
X134092Y515487D01*
X133045Y515259D01*
X131984Y515106D01*
X130916Y515030D01*
X129844Y515030D01*
X433374Y518840D02*
X432306Y518916D01*
X431245Y519069D01*
X430198Y519297D01*
X429170Y519599D01*
X428166Y519973D01*
X427191Y520418D01*
X426251Y520932D01*
X425350Y521511D01*
X424492Y522153D01*
X423682Y522855D01*
X422925Y523612D01*
X422223Y524422D01*
X421581Y525280D01*
X421002Y526181D01*
X420488Y527121D01*
X420043Y528096D01*
X419669Y529100D01*
X419367Y530128D01*
X419139Y531175D01*
X418986Y532236D01*
X418910Y533304D01*
X418910Y534376D01*
X418986Y535444D01*
X419139Y536505D01*
X419367Y537552D01*
X419669Y538580D01*
X420043Y539584D01*
X420488Y540559D01*
X421002Y541499D01*
X421581Y542400D01*
X422223Y543258D01*
X422925Y544068D01*
X423682Y544825D01*
X424492Y545527D01*
X425350Y546169D01*
X426251Y546748D01*
X427191Y547262D01*
X428166Y547707D01*
X429170Y548081D01*
X430198Y548383D01*
X431245Y548611D01*
X432306Y548764D01*
X433374Y548840D01*
X434446Y548840D01*
X435514Y548764D01*
X436575Y548611D01*
X437622Y548383D01*
X438650Y548081D01*
X439654Y547707D01*
X440629Y547262D01*
X441569Y546748D01*
X442470Y546169D01*
X443328Y545527D01*
X444138Y544825D01*
X444895Y544068D01*
X445597Y543258D01*
X446239Y542400D01*
X446818Y541499D01*
X447332Y540559D01*
X447777Y539584D01*
X448151Y538580D01*
X448453Y537552D01*
X448681Y536505D01*
X448834Y535444D01*
X448910Y534376D01*
X448910Y533304D01*
X448834Y532236D01*
X448681Y531175D01*
X448453Y530128D01*
X448151Y529100D01*
X447777Y528096D01*
X447332Y527121D01*
X446818Y526181D01*
X446239Y525280D01*
X445597Y524422D01*
X444895Y523612D01*
X444138Y522855D01*
X443328Y522153D01*
X442470Y521511D01*
X441569Y520932D01*
X440629Y520418D01*
X439654Y519973D01*
X438650Y519599D01*
X437622Y519297D01*
X436575Y519069D01*
X435514Y518916D01*
X434446Y518840D01*
X433374Y518840D01*
X283514Y516300D02*
X282446Y516376D01*
X281385Y516529D01*
X280338Y516757D01*
X279310Y517059D01*
X278306Y517433D01*
X277331Y517878D01*
X276391Y518392D01*
X275490Y518971D01*
X274632Y519613D01*
X273822Y520315D01*
X273065Y521072D01*
X272363Y521882D01*
X271721Y522740D01*
X271142Y523641D01*
X270628Y524581D01*
X270183Y525556D01*
X269809Y526560D01*
X269507Y527588D01*
X269279Y528635D01*
X269126Y529696D01*
X269050Y530764D01*
X269050Y531836D01*
X269126Y532904D01*
X269279Y533965D01*
X269507Y535012D01*
X269809Y536040D01*
X270183Y537044D01*
X270628Y538019D01*
X271142Y538959D01*
X271721Y539860D01*
X272363Y540718D01*
X273065Y541528D01*
X273822Y542285D01*
X274632Y542987D01*
X275490Y543629D01*
X276391Y544208D01*
X277331Y544722D01*
X278306Y545167D01*
X279310Y545541D01*
X280338Y545843D01*
X281385Y546071D01*
X282446Y546224D01*
X283514Y546300D01*
X284586Y546300D01*
X285654Y546224D01*
X286715Y546071D01*
X287762Y545843D01*
X288790Y545541D01*
X289794Y545167D01*
X290769Y544722D01*
X291709Y544208D01*
X292610Y543629D01*
X293468Y542987D01*
X294278Y542285D01*
X295035Y541528D01*
X295737Y540718D01*
X296379Y539860D01*
X296958Y538959D01*
X297472Y538019D01*
X297917Y537044D01*
X298291Y536040D01*
X298593Y535012D01*
X298821Y533965D01*
X298974Y532904D01*
X299050Y531836D01*
X299050Y530764D01*
X298974Y529696D01*
X298821Y528635D01*
X298593Y527588D01*
X298291Y526560D01*
X297917Y525556D01*
X297472Y524581D01*
X296958Y523641D01*
X296379Y522740D01*
X295737Y521882D01*
X295035Y521072D01*
X294278Y520315D01*
X293468Y519613D01*
X292610Y518971D01*
X291709Y518392D01*
X290769Y517878D01*
X289794Y517433D01*
X288790Y517059D01*
X287762Y516757D01*
X286715Y516529D01*
X285654Y516376D01*
X284586Y516300D01*
X283514Y516300D01*
M02*
