G04 EAGLE Gerber RS-274X export*
G75*
%MOMM*%
%FSLAX34Y34*%
%LPD*%
%INSoldermask Bottom*%
%IPPOS*%
%AMOC8*
5,1,8,0,0,1.08239X$1,22.5*%
G01*
%ADD10C,4.445000*%
%ADD11C,2.133600*%
%ADD12C,3.754000*%
%ADD13C,3.254000*%
%ADD14C,6.350000*%
%ADD15C,2.032000*%
%ADD16C,1.254000*%
%ADD17C,1.609600*%
%ADD18C,1.930400*%
%ADD19C,2.895600*%
%ADD20C,3.556000*%
%ADD21C,1.066800*%
%ADD22C,1.059600*%
%ADD23C,1.016000*%


D10*
X166370Y424180D03*
X87630Y424180D03*
X85090Y290830D03*
X163830Y290830D03*
D11*
X481330Y57150D03*
X455930Y57150D03*
X430530Y57150D03*
X405130Y57150D03*
D12*
X552450Y794540D03*
X552450Y727540D03*
D13*
X563450Y673540D03*
D12*
X90170Y794540D03*
X90170Y727540D03*
D13*
X101170Y673540D03*
D12*
X394970Y794540D03*
X394970Y727540D03*
D13*
X405970Y673540D03*
D12*
X246380Y794540D03*
X246380Y727540D03*
D13*
X257380Y673540D03*
D14*
X102870Y110490D03*
X173990Y110490D03*
D15*
X767080Y769620D03*
X767080Y744220D03*
X767080Y718820D03*
X767080Y693420D03*
X767080Y668020D03*
X767080Y642620D03*
X767080Y617220D03*
X767080Y591820D03*
X767080Y566420D03*
X767080Y541020D03*
X843280Y541020D03*
X843280Y566420D03*
X843280Y591820D03*
X843280Y617220D03*
X843280Y642620D03*
X843280Y668020D03*
X843280Y693420D03*
X843280Y718820D03*
X843280Y744220D03*
X843280Y769620D03*
D11*
X592709Y95250D03*
X618820Y95250D03*
D16*
X568325Y70358D03*
X643255Y120142D03*
D17*
X981710Y537210D03*
X1057710Y537210D03*
D18*
X948690Y24130D03*
X974090Y24130D03*
X999490Y24130D03*
X948690Y49530D03*
X974090Y49530D03*
X999490Y49530D03*
D11*
X765810Y224790D03*
X791210Y224790D03*
X816610Y224790D03*
D10*
X165100Y548640D03*
X86360Y548640D03*
D18*
X788470Y146172D03*
X763470Y146172D03*
X763470Y126360D03*
X788470Y126360D03*
D19*
X836168Y99182D03*
X715772Y99182D03*
D20*
X322580Y295910D03*
X1075690Y816610D03*
X1073150Y295910D03*
X436880Y568960D03*
X671830Y815340D03*
X651510Y482600D03*
D21*
X184150Y177800D03*
X251460Y190500D03*
X242570Y148590D03*
X247650Y93980D03*
X369570Y114300D03*
X353060Y99060D03*
X341630Y85090D03*
X326390Y71120D03*
X309880Y57150D03*
X288290Y55880D03*
X266700Y59690D03*
X281940Y21590D03*
X320040Y22860D03*
X344170Y40640D03*
X361950Y55880D03*
X375920Y67310D03*
X488950Y176530D03*
X524510Y114300D03*
X444500Y15240D03*
X516890Y21590D03*
X509270Y76200D03*
X541020Y85090D03*
X544830Y116840D03*
X635000Y83820D03*
X681990Y41910D03*
X756920Y21590D03*
X572770Y237490D03*
X572770Y207010D03*
X657860Y255270D03*
X506730Y279400D03*
X541020Y336550D03*
X914400Y193040D03*
X934720Y598170D03*
X894080Y481330D03*
X892810Y584200D03*
X694690Y678180D03*
D22*
X645160Y600710D03*
D21*
X647700Y524510D03*
X676910Y452120D03*
X656590Y426720D03*
X655320Y389890D03*
X557530Y254000D03*
X554990Y208280D03*
X525780Y198120D03*
X600710Y238760D03*
X594360Y229870D03*
X581660Y218440D03*
X582930Y246380D03*
X557530Y228600D03*
D22*
X285750Y157480D03*
X645160Y147320D03*
D21*
X665480Y210820D03*
X734060Y171450D03*
X1096010Y96520D03*
X1043940Y130810D03*
X971550Y196850D03*
X1093470Y153670D03*
X877570Y293370D03*
X896620Y309880D03*
X812800Y303530D03*
X852170Y321310D03*
X924560Y293370D03*
X966470Y243840D03*
X984250Y260350D03*
X1004570Y266700D03*
X1013460Y347980D03*
X1032510Y381000D03*
X1009650Y414020D03*
X994410Y364490D03*
X1045210Y480060D03*
X910590Y462280D03*
X928370Y481330D03*
X946150Y499110D03*
X911860Y499110D03*
X932180Y519430D03*
X815340Y430530D03*
X831850Y393700D03*
X735330Y436880D03*
X749300Y417830D03*
X808990Y364490D03*
X742950Y252730D03*
X581660Y311150D03*
X581660Y331470D03*
X610870Y326390D03*
X638810Y326390D03*
X885190Y213360D03*
X748030Y78740D03*
X681990Y328930D03*
X773430Y297180D03*
X869950Y43180D03*
X1103630Y483870D03*
X924560Y411480D03*
X928370Y325120D03*
X1013460Y623570D03*
X1028700Y679450D03*
X1027430Y730250D03*
X843280Y152400D03*
X843280Y135890D03*
X867410Y158750D03*
X867410Y132080D03*
X866140Y105410D03*
X855980Y69850D03*
X882650Y71120D03*
X897890Y62230D03*
X1068070Y217170D03*
D22*
X713740Y290830D03*
X966470Y344170D03*
X728980Y281940D03*
D23*
X974090Y353060D03*
D21*
X676910Y308610D03*
X408940Y209550D03*
D23*
X670560Y264160D03*
D21*
X20320Y35560D03*
X22860Y162560D03*
X27940Y269240D03*
X31750Y353060D03*
X100330Y309880D03*
X107950Y166370D03*
X88900Y353060D03*
X30480Y482600D03*
X85090Y487680D03*
X26670Y581660D03*
D22*
X341630Y156210D03*
X621030Y149860D03*
D21*
X610870Y241300D03*
D22*
X657860Y235422D03*
X986790Y378460D03*
D21*
X219710Y429260D03*
X356870Y270510D03*
X382270Y275590D03*
X204470Y236220D03*
X157480Y373380D03*
X193040Y355600D03*
X220980Y382270D03*
X44450Y670560D03*
X31750Y624840D03*
X85090Y624840D03*
X172720Y624840D03*
X170180Y661670D03*
X170180Y704850D03*
X389890Y593090D03*
X375920Y612140D03*
X389890Y579120D03*
X389890Y565150D03*
X389890Y552450D03*
X518160Y595630D03*
X474980Y614680D03*
X486410Y547370D03*
X389890Y537210D03*
X389890Y523240D03*
X381000Y490220D03*
X391160Y490220D03*
X401320Y490220D03*
X411480Y490220D03*
X491490Y483870D03*
X579120Y521970D03*
X577850Y546100D03*
X576580Y566420D03*
X577850Y591820D03*
X579120Y618490D03*
X605790Y617220D03*
X605790Y594360D03*
X607060Y570230D03*
X604520Y543560D03*
X604520Y524510D03*
X535940Y435610D03*
X440690Y406400D03*
X416560Y392430D03*
X363220Y391160D03*
X331470Y391160D03*
X300990Y391160D03*
X265430Y391160D03*
X412750Y267970D03*
X289560Y269240D03*
X247650Y610870D03*
X245110Y591820D03*
X243840Y572770D03*
X245110Y554990D03*
X246380Y537210D03*
D22*
X688340Y295910D03*
X972820Y369570D03*
D23*
X422910Y478790D03*
X433070Y478790D03*
X433070Y468630D03*
X422910Y468630D03*
X292100Y477520D03*
X354330Y457200D03*
X322580Y472440D03*
X354330Y477520D03*
X290830Y457200D03*
X323850Y455930D03*
X445770Y502920D03*
X434340Y502920D03*
D22*
X857250Y139700D03*
X857250Y434340D03*
X995680Y280670D03*
X793750Y449580D03*
X901700Y411480D03*
X782320Y459740D03*
X889854Y439420D03*
X690880Y421640D03*
X814070Y279400D03*
X703580Y441960D03*
X791210Y317500D03*
X801370Y326390D03*
X712470Y452120D03*
X722630Y434340D03*
X811530Y335280D03*
D23*
X1019810Y278130D03*
X1018540Y369570D03*
D22*
X906780Y349250D03*
X948690Y391160D03*
X906780Y337820D03*
X970280Y391160D03*
D23*
X872490Y186690D03*
X862754Y215054D03*
X894080Y187960D03*
X871220Y231140D03*
X902020Y367980D03*
X923290Y311150D03*
M02*
