G04 EAGLE Gerber RS-274X export*
G75*
%MOMM*%
%FSLAX34Y34*%
%LPD*%
%INSoldermask Top*%
%IPPOS*%
%AMOC8*
5,1,8,0,0,1.08239X$1,22.5*%
G01*
%ADD10R,1.254000X1.354000*%
%ADD11R,1.354000X1.254000*%
%ADD12C,4.445000*%
%ADD13R,1.084000X0.884000*%
%ADD14C,2.133600*%
%ADD15C,3.754000*%
%ADD16C,3.254000*%
%ADD17R,2.149000X2.754000*%
%ADD18R,1.244600X2.260600*%
%ADD19R,6.959600X8.280400*%
%ADD20C,6.350000*%
%ADD21C,1.609600*%
%ADD22R,0.609600X2.184400*%
%ADD23R,1.524000X0.812800*%
%ADD24R,0.812800X1.524000*%
%ADD25R,0.752400X0.392400*%
%ADD26R,0.392400X0.752400*%
%ADD27R,1.934000X1.934000*%
%ADD28R,1.854000X1.854000*%
%ADD29R,1.454000X1.054000*%
%ADD30R,3.759200X5.588000*%


D10*
X563880Y318380D03*
X563880Y301380D03*
D11*
X944490Y307340D03*
X927490Y307340D03*
D10*
X891540Y268850D03*
X891540Y251850D03*
X627380Y326000D03*
X627380Y309000D03*
X599440Y324730D03*
X599440Y307730D03*
D11*
X622690Y165100D03*
X639690Y165100D03*
D10*
X349250Y384420D03*
X349250Y367420D03*
D11*
X338210Y415290D03*
X355210Y415290D03*
X947030Y198120D03*
X930030Y198120D03*
D12*
X180340Y368300D03*
X101600Y368300D03*
X100330Y236220D03*
X179070Y236220D03*
D13*
X535940Y213290D03*
X535940Y236290D03*
D14*
X901700Y96520D03*
X901700Y68580D03*
X876300Y96520D03*
X876300Y68580D03*
X850900Y96520D03*
X850900Y68580D03*
X825500Y96520D03*
X825500Y68580D03*
X800100Y96520D03*
X800100Y68580D03*
X745490Y177800D03*
X720090Y177800D03*
X745490Y203200D03*
X720090Y203200D03*
X745490Y228600D03*
X720090Y228600D03*
X745490Y254000D03*
X720090Y254000D03*
X745490Y279400D03*
X720090Y279400D03*
X481330Y80010D03*
X455930Y80010D03*
X430530Y80010D03*
X405130Y80010D03*
D15*
X581660Y653570D03*
X581660Y586570D03*
D16*
X592660Y532570D03*
D15*
X119380Y651030D03*
X119380Y584030D03*
D16*
X130380Y530030D03*
D15*
X422910Y654840D03*
X422910Y587840D03*
D16*
X433910Y533840D03*
D15*
X273050Y652300D03*
X273050Y585300D03*
D16*
X284050Y531300D03*
D14*
X862330Y165100D03*
X836930Y165100D03*
X811530Y165100D03*
D17*
X455775Y397510D03*
X496725Y397510D03*
D18*
X392790Y203835D03*
X437790Y203835D03*
D19*
X415290Y265938D03*
D18*
X295000Y203835D03*
X340000Y203835D03*
D19*
X317500Y265938D03*
D11*
X690880Y132960D03*
X690880Y115960D03*
D10*
X734450Y673100D03*
X751450Y673100D03*
X735720Y647700D03*
X752720Y647700D03*
X735720Y622300D03*
X752720Y622300D03*
X735720Y596900D03*
X752720Y596900D03*
X735720Y571500D03*
X752720Y571500D03*
X735720Y546100D03*
X752720Y546100D03*
X735720Y520700D03*
X752720Y520700D03*
X735720Y495300D03*
X752720Y495300D03*
X735720Y469900D03*
X752720Y469900D03*
X735720Y444500D03*
X752720Y444500D03*
D11*
X726440Y132960D03*
X726440Y115960D03*
X657860Y326000D03*
X657860Y309000D03*
X506730Y232020D03*
X506730Y215020D03*
X662940Y178680D03*
X662940Y161680D03*
X795020Y258690D03*
X795020Y241690D03*
D20*
X101600Y87630D03*
X172720Y87630D03*
D21*
X596030Y63900D03*
X596030Y113900D03*
X646030Y63900D03*
X646030Y113900D03*
X807720Y673100D03*
X807720Y647700D03*
X807720Y622300D03*
X807720Y596900D03*
X807720Y571500D03*
X807720Y546100D03*
X807720Y520700D03*
X807720Y495300D03*
X807720Y469900D03*
X807720Y444500D03*
X883920Y444500D03*
X883920Y469900D03*
X883920Y495300D03*
X883920Y520700D03*
X883920Y546100D03*
X883920Y571500D03*
X883920Y596900D03*
X883920Y622300D03*
X883920Y647700D03*
X883920Y673100D03*
D22*
X649010Y263652D03*
X642510Y263652D03*
X636010Y263652D03*
X629510Y263652D03*
X623010Y263652D03*
X616510Y263652D03*
X610010Y263652D03*
X603510Y263652D03*
X597010Y263652D03*
X590510Y263652D03*
X590510Y206248D03*
X597010Y206248D03*
X603510Y206248D03*
X610010Y206248D03*
X616510Y206248D03*
X623010Y206248D03*
X629510Y206248D03*
X636010Y206248D03*
X642510Y206248D03*
X649010Y206248D03*
D23*
G36*
X843700Y297199D02*
X854475Y286424D01*
X848728Y280677D01*
X837953Y291452D01*
X843700Y297199D01*
G37*
G36*
X849357Y302856D02*
X860132Y292081D01*
X854385Y286334D01*
X843610Y297109D01*
X849357Y302856D01*
G37*
G36*
X855014Y308512D02*
X865789Y297737D01*
X860042Y291990D01*
X849267Y302765D01*
X855014Y308512D01*
G37*
G36*
X860671Y314169D02*
X871446Y303394D01*
X865699Y297647D01*
X854924Y308422D01*
X860671Y314169D01*
G37*
G36*
X866328Y319826D02*
X877103Y309051D01*
X871356Y303304D01*
X860581Y314079D01*
X866328Y319826D01*
G37*
G36*
X871985Y325483D02*
X882760Y314708D01*
X877013Y308961D01*
X866238Y319736D01*
X871985Y325483D01*
G37*
G36*
X877641Y331140D02*
X888416Y320365D01*
X882669Y314618D01*
X871894Y325393D01*
X877641Y331140D01*
G37*
G36*
X883298Y336797D02*
X894073Y326022D01*
X888326Y320275D01*
X877551Y331050D01*
X883298Y336797D01*
G37*
D24*
G36*
X888326Y357905D02*
X894073Y352158D01*
X883298Y341383D01*
X877551Y347130D01*
X888326Y357905D01*
G37*
G36*
X882669Y363562D02*
X888416Y357815D01*
X877641Y347040D01*
X871894Y352787D01*
X882669Y363562D01*
G37*
G36*
X877013Y369219D02*
X882760Y363472D01*
X871985Y352697D01*
X866238Y358444D01*
X877013Y369219D01*
G37*
G36*
X871356Y374876D02*
X877103Y369129D01*
X866328Y358354D01*
X860581Y364101D01*
X871356Y374876D01*
G37*
G36*
X865699Y380533D02*
X871446Y374786D01*
X860671Y364011D01*
X854924Y369758D01*
X865699Y380533D01*
G37*
G36*
X860042Y386190D02*
X865789Y380443D01*
X855014Y369668D01*
X849267Y375415D01*
X860042Y386190D01*
G37*
G36*
X854385Y391846D02*
X860132Y386099D01*
X849357Y375324D01*
X843610Y381071D01*
X854385Y391846D01*
G37*
G36*
X848728Y397503D02*
X854475Y391756D01*
X843700Y380981D01*
X837953Y386728D01*
X848728Y397503D01*
G37*
D23*
G36*
X822592Y397503D02*
X833367Y386728D01*
X827620Y380981D01*
X816845Y391756D01*
X822592Y397503D01*
G37*
G36*
X816935Y391846D02*
X827710Y381071D01*
X821963Y375324D01*
X811188Y386099D01*
X816935Y391846D01*
G37*
G36*
X811278Y386190D02*
X822053Y375415D01*
X816306Y369668D01*
X805531Y380443D01*
X811278Y386190D01*
G37*
G36*
X805621Y380533D02*
X816396Y369758D01*
X810649Y364011D01*
X799874Y374786D01*
X805621Y380533D01*
G37*
G36*
X799964Y374876D02*
X810739Y364101D01*
X804992Y358354D01*
X794217Y369129D01*
X799964Y374876D01*
G37*
G36*
X794307Y369219D02*
X805082Y358444D01*
X799335Y352697D01*
X788560Y363472D01*
X794307Y369219D01*
G37*
G36*
X788651Y363562D02*
X799426Y352787D01*
X793679Y347040D01*
X782904Y357815D01*
X788651Y363562D01*
G37*
G36*
X782994Y357905D02*
X793769Y347130D01*
X788022Y341383D01*
X777247Y352158D01*
X782994Y357905D01*
G37*
D24*
G36*
X788022Y336797D02*
X793769Y331050D01*
X782994Y320275D01*
X777247Y326022D01*
X788022Y336797D01*
G37*
G36*
X793679Y331140D02*
X799426Y325393D01*
X788651Y314618D01*
X782904Y320365D01*
X793679Y331140D01*
G37*
G36*
X799335Y325483D02*
X805082Y319736D01*
X794307Y308961D01*
X788560Y314708D01*
X799335Y325483D01*
G37*
G36*
X804992Y319826D02*
X810739Y314079D01*
X799964Y303304D01*
X794217Y309051D01*
X804992Y319826D01*
G37*
G36*
X810649Y314169D02*
X816396Y308422D01*
X805621Y297647D01*
X799874Y303394D01*
X810649Y314169D01*
G37*
G36*
X816306Y308512D02*
X822053Y302765D01*
X811278Y291990D01*
X805531Y297737D01*
X816306Y308512D01*
G37*
G36*
X821963Y302856D02*
X827710Y297109D01*
X816935Y286334D01*
X811188Y292081D01*
X821963Y302856D01*
G37*
G36*
X827620Y297199D02*
X833367Y291452D01*
X822592Y280677D01*
X816845Y286424D01*
X827620Y297199D01*
G37*
D25*
X415320Y391280D03*
X415320Y396280D03*
X415320Y401280D03*
X415320Y406280D03*
D26*
X408820Y412780D03*
X403820Y412780D03*
X398820Y412780D03*
X393820Y412780D03*
D25*
X387320Y406280D03*
X387320Y401280D03*
X387320Y396280D03*
X387320Y391280D03*
D26*
X393820Y384780D03*
X398820Y384780D03*
X403820Y384780D03*
X408820Y384780D03*
D27*
X401320Y398780D03*
D14*
X711200Y381000D03*
X711200Y406400D03*
D11*
X693420Y334890D03*
X693420Y317890D03*
D28*
X951230Y270510D03*
X929230Y270510D03*
X929230Y233510D03*
X951230Y233510D03*
D10*
X428380Y435610D03*
X445380Y435610D03*
D29*
X316230Y386190D03*
X316230Y368190D03*
X533400Y370730D03*
X533400Y388730D03*
D30*
X293116Y157480D03*
X334264Y157480D03*
M02*
