G75*
%MOIN*%
%OFA0B0*%
%FSLAX25Y25*%
%IPPOS*%
%LPD*%
%AMOC8*
5,1,8,0,0,1.08239X$1,22.5*
%
%ADD10C,0.08600*%
%ADD11C,0.09000*%
%ADD12C,0.01600*%
D10*
X0108000Y0065550D03*
X0108000Y0075550D03*
X0108000Y0085550D03*
X0108000Y0095550D03*
X0108000Y0105550D03*
X0108000Y0115550D03*
X0108000Y0125550D03*
X0108000Y0135550D03*
X0108000Y0145550D03*
X0108000Y0155550D03*
X0108000Y0165550D03*
X0108000Y0175550D03*
X0108386Y0190644D03*
X0118386Y0190644D03*
X0128386Y0190644D03*
X0138386Y0190644D03*
X0148386Y0190644D03*
X0158386Y0190644D03*
X0168386Y0190644D03*
X0168000Y0175550D03*
X0168000Y0165550D03*
X0168000Y0155550D03*
X0168000Y0145550D03*
X0168000Y0135550D03*
X0168000Y0125550D03*
X0168000Y0115550D03*
X0168000Y0105550D03*
X0168000Y0095550D03*
X0168000Y0085550D03*
X0168000Y0075550D03*
X0168000Y0065550D03*
X0170110Y0037864D03*
X0150425Y0037864D03*
X0130740Y0037864D03*
X0111055Y0037864D03*
X0189795Y0037864D03*
D11*
X0190000Y0145550D03*
X0200000Y0145550D03*
D12*
X0064300Y0225951D02*
X0064300Y0016850D01*
X0214700Y0016850D01*
X0214700Y0090082D01*
X0212970Y0088352D01*
X0209587Y0086951D01*
X0205925Y0086951D01*
X0202541Y0088352D01*
X0199952Y0090942D01*
X0198550Y0094325D01*
X0198550Y0097987D01*
X0199952Y0101371D01*
X0202541Y0103960D01*
X0205925Y0105362D01*
X0209587Y0105362D01*
X0212970Y0103960D01*
X0214700Y0102230D01*
X0214700Y0180633D01*
X0212970Y0178903D01*
X0209587Y0177502D01*
X0205925Y0177502D01*
X0202541Y0178903D01*
X0199952Y0181493D01*
X0198550Y0184876D01*
X0198550Y0188538D01*
X0199952Y0191922D01*
X0202541Y0194511D01*
X0205925Y0195913D01*
X0209587Y0195913D01*
X0212970Y0194511D01*
X0214700Y0192782D01*
X0214700Y0225951D01*
X0064300Y0225951D01*
X0064300Y0224553D02*
X0214700Y0224553D01*
X0214700Y0222955D02*
X0189903Y0222955D01*
X0188949Y0223350D02*
X0185051Y0223350D01*
X0181449Y0221858D01*
X0178692Y0219101D01*
X0177200Y0215499D01*
X0177200Y0211600D01*
X0178692Y0207998D01*
X0181449Y0205242D01*
X0185051Y0203750D01*
X0188949Y0203750D01*
X0192551Y0205242D01*
X0195308Y0207998D01*
X0196800Y0211600D01*
X0196800Y0215499D01*
X0195308Y0219101D01*
X0192551Y0221858D01*
X0188949Y0223350D01*
X0193053Y0221356D02*
X0214700Y0221356D01*
X0214700Y0219758D02*
X0194651Y0219758D01*
X0195698Y0218159D02*
X0214700Y0218159D01*
X0214700Y0216561D02*
X0196360Y0216561D01*
X0196800Y0214962D02*
X0214700Y0214962D01*
X0214700Y0213364D02*
X0196800Y0213364D01*
X0196800Y0211765D02*
X0214700Y0211765D01*
X0214700Y0210167D02*
X0196206Y0210167D01*
X0195544Y0208568D02*
X0214700Y0208568D01*
X0214700Y0206970D02*
X0194279Y0206970D01*
X0192681Y0205371D02*
X0214700Y0205371D01*
X0214700Y0203773D02*
X0189004Y0203773D01*
X0184995Y0203773D02*
X0089004Y0203773D01*
X0088949Y0203750D02*
X0092551Y0205242D01*
X0095308Y0207998D01*
X0096800Y0211600D01*
X0096800Y0215499D01*
X0095308Y0219101D01*
X0092551Y0221858D01*
X0088949Y0223350D01*
X0085051Y0223350D01*
X0081449Y0221858D01*
X0078692Y0219101D01*
X0077200Y0215499D01*
X0077200Y0211600D01*
X0078692Y0207998D01*
X0081449Y0205242D01*
X0085051Y0203750D01*
X0088949Y0203750D01*
X0084995Y0203773D02*
X0064300Y0203773D01*
X0064300Y0205371D02*
X0081319Y0205371D01*
X0079721Y0206970D02*
X0064300Y0206970D01*
X0064300Y0208568D02*
X0078456Y0208568D01*
X0077794Y0210167D02*
X0064300Y0210167D01*
X0064300Y0211765D02*
X0077200Y0211765D01*
X0077200Y0213364D02*
X0064300Y0213364D01*
X0064300Y0214962D02*
X0077200Y0214962D01*
X0077640Y0216561D02*
X0064300Y0216561D01*
X0064300Y0218159D02*
X0078302Y0218159D01*
X0079349Y0219758D02*
X0064300Y0219758D01*
X0064300Y0221356D02*
X0080947Y0221356D01*
X0084097Y0222955D02*
X0064300Y0222955D01*
X0064300Y0202174D02*
X0214700Y0202174D01*
X0214700Y0200576D02*
X0064300Y0200576D01*
X0064300Y0198977D02*
X0214700Y0198977D01*
X0214700Y0197379D02*
X0064300Y0197379D01*
X0064300Y0195780D02*
X0105890Y0195780D01*
X0105157Y0195476D02*
X0107252Y0196344D01*
X0109520Y0196344D01*
X0111615Y0195476D01*
X0113218Y0193873D01*
X0113386Y0193468D01*
X0113554Y0193873D01*
X0115157Y0195476D01*
X0117252Y0196344D01*
X0119520Y0196344D01*
X0121615Y0195476D01*
X0123218Y0193873D01*
X0123386Y0193468D01*
X0123554Y0193873D01*
X0125157Y0195476D01*
X0127252Y0196344D01*
X0129520Y0196344D01*
X0131615Y0195476D01*
X0133218Y0193873D01*
X0133386Y0193468D01*
X0133554Y0193873D01*
X0135157Y0195476D01*
X0137252Y0196344D01*
X0139520Y0196344D01*
X0141615Y0195476D01*
X0143218Y0193873D01*
X0143386Y0193468D01*
X0143554Y0193873D01*
X0145157Y0195476D01*
X0147252Y0196344D01*
X0149520Y0196344D01*
X0151615Y0195476D01*
X0153203Y0193888D01*
X0153733Y0194618D01*
X0154412Y0195297D01*
X0155189Y0195861D01*
X0156044Y0196297D01*
X0156957Y0196594D01*
X0157906Y0196744D01*
X0158202Y0196744D01*
X0158202Y0190829D01*
X0158570Y0190829D01*
X0158570Y0196744D01*
X0158866Y0196744D01*
X0159814Y0196594D01*
X0160727Y0196297D01*
X0161583Y0195861D01*
X0162360Y0195297D01*
X0163039Y0194618D01*
X0163569Y0193888D01*
X0165157Y0195476D01*
X0167252Y0196344D01*
X0169520Y0196344D01*
X0171615Y0195476D01*
X0173218Y0193873D01*
X0174086Y0191778D01*
X0174086Y0189510D01*
X0173218Y0187415D01*
X0171615Y0185812D01*
X0169520Y0184944D01*
X0167252Y0184944D01*
X0165157Y0185812D01*
X0163569Y0187400D01*
X0163039Y0186670D01*
X0162360Y0185991D01*
X0161583Y0185427D01*
X0160727Y0184991D01*
X0159814Y0184694D01*
X0158866Y0184544D01*
X0158570Y0184544D01*
X0158570Y0190460D01*
X0158202Y0190460D01*
X0158202Y0184544D01*
X0157906Y0184544D01*
X0156957Y0184694D01*
X0156044Y0184991D01*
X0155189Y0185427D01*
X0154412Y0185991D01*
X0153733Y0186670D01*
X0153203Y0187400D01*
X0151615Y0185812D01*
X0150586Y0185386D01*
X0150586Y0106075D01*
X0162339Y0094322D01*
X0162300Y0094416D01*
X0162300Y0096684D01*
X0163168Y0098779D01*
X0164771Y0100382D01*
X0165176Y0100550D01*
X0164771Y0100718D01*
X0163168Y0102321D01*
X0162300Y0104416D01*
X0162300Y0106684D01*
X0163168Y0108779D01*
X0164771Y0110382D01*
X0165176Y0110550D01*
X0164771Y0110718D01*
X0163168Y0112321D01*
X0162300Y0114416D01*
X0162300Y0116684D01*
X0163168Y0118779D01*
X0164771Y0120382D01*
X0165176Y0120550D01*
X0164771Y0120718D01*
X0163168Y0122321D01*
X0162300Y0124416D01*
X0162300Y0126684D01*
X0163168Y0128779D01*
X0164771Y0130382D01*
X0165176Y0130550D01*
X0164771Y0130718D01*
X0163168Y0132321D01*
X0162300Y0134416D01*
X0162300Y0136684D01*
X0163168Y0138779D01*
X0164771Y0140382D01*
X0165176Y0140550D01*
X0164771Y0140718D01*
X0163168Y0142321D01*
X0162300Y0144416D01*
X0162300Y0146684D01*
X0163168Y0148779D01*
X0164771Y0150382D01*
X0165176Y0150550D01*
X0164771Y0150718D01*
X0163168Y0152321D01*
X0162300Y0154416D01*
X0162300Y0156684D01*
X0163168Y0158779D01*
X0164756Y0160367D01*
X0164026Y0160897D01*
X0163347Y0161576D01*
X0162783Y0162353D01*
X0162347Y0163208D01*
X0162050Y0164121D01*
X0161900Y0165070D01*
X0161900Y0165365D01*
X0167816Y0165365D01*
X0167816Y0165734D01*
X0161900Y0165734D01*
X0161900Y0166030D01*
X0162050Y0166978D01*
X0162347Y0167891D01*
X0162783Y0168747D01*
X0163347Y0169524D01*
X0164026Y0170203D01*
X0164756Y0170733D01*
X0163168Y0172321D01*
X0162300Y0174416D01*
X0162300Y0176684D01*
X0163168Y0178779D01*
X0164771Y0180382D01*
X0166866Y0181250D01*
X0169134Y0181250D01*
X0171229Y0180382D01*
X0172832Y0178779D01*
X0173700Y0176684D01*
X0173700Y0174416D01*
X0172832Y0172321D01*
X0171244Y0170733D01*
X0171974Y0170203D01*
X0172653Y0169524D01*
X0173217Y0168747D01*
X0173653Y0167891D01*
X0173950Y0166978D01*
X0174100Y0166030D01*
X0174100Y0165734D01*
X0168184Y0165734D01*
X0168184Y0165365D01*
X0174100Y0165365D01*
X0174100Y0165070D01*
X0173950Y0164121D01*
X0173653Y0163208D01*
X0173217Y0162353D01*
X0172653Y0161576D01*
X0171974Y0160897D01*
X0171244Y0160367D01*
X0172832Y0158779D01*
X0173700Y0156684D01*
X0173700Y0154416D01*
X0172832Y0152321D01*
X0171229Y0150718D01*
X0170824Y0150550D01*
X0171229Y0150382D01*
X0172832Y0148779D01*
X0173700Y0146684D01*
X0173700Y0144416D01*
X0172832Y0142321D01*
X0171229Y0140718D01*
X0170824Y0140550D01*
X0171229Y0140382D01*
X0172832Y0138779D01*
X0173700Y0136684D01*
X0173700Y0134416D01*
X0172832Y0132321D01*
X0171229Y0130718D01*
X0170824Y0130550D01*
X0171229Y0130382D01*
X0172832Y0128779D01*
X0173700Y0126684D01*
X0173700Y0124416D01*
X0173274Y0123387D01*
X0178911Y0117750D01*
X0180200Y0116461D01*
X0180200Y0044843D01*
X0175384Y0040027D01*
X0175810Y0038998D01*
X0175810Y0036730D01*
X0174942Y0034635D01*
X0173339Y0033032D01*
X0171244Y0032164D01*
X0168976Y0032164D01*
X0166881Y0033032D01*
X0165278Y0034635D01*
X0164410Y0036730D01*
X0164410Y0038998D01*
X0165278Y0041093D01*
X0166881Y0042696D01*
X0168976Y0043564D01*
X0171244Y0043564D01*
X0172273Y0043138D01*
X0175800Y0046665D01*
X0175800Y0114638D01*
X0173661Y0116777D01*
X0173700Y0116684D01*
X0173700Y0114416D01*
X0172832Y0112321D01*
X0171229Y0110718D01*
X0170824Y0110550D01*
X0171229Y0110382D01*
X0172832Y0108779D01*
X0173700Y0106684D01*
X0173700Y0104416D01*
X0172832Y0102321D01*
X0171229Y0100718D01*
X0170824Y0100550D01*
X0171229Y0100382D01*
X0172832Y0098779D01*
X0173700Y0096684D01*
X0173700Y0094416D01*
X0172832Y0092321D01*
X0171229Y0090718D01*
X0170824Y0090550D01*
X0171229Y0090382D01*
X0172832Y0088779D01*
X0173700Y0086684D01*
X0173700Y0084416D01*
X0172832Y0082321D01*
X0171229Y0080718D01*
X0170824Y0080550D01*
X0171229Y0080382D01*
X0172832Y0078779D01*
X0173700Y0076684D01*
X0173700Y0074416D01*
X0172832Y0072321D01*
X0171229Y0070718D01*
X0170824Y0070550D01*
X0171229Y0070382D01*
X0172832Y0068779D01*
X0173700Y0066684D01*
X0173700Y0064416D01*
X0172832Y0062321D01*
X0171229Y0060718D01*
X0169134Y0059850D01*
X0166866Y0059850D01*
X0164771Y0060718D01*
X0163168Y0062321D01*
X0162300Y0064416D01*
X0162300Y0066684D01*
X0162726Y0067712D01*
X0117475Y0112964D01*
X0117475Y0112964D01*
X0117200Y0113238D01*
X0117200Y0071638D01*
X0113274Y0067712D01*
X0113700Y0066684D01*
X0113700Y0064416D01*
X0112832Y0062321D01*
X0111229Y0060718D01*
X0109134Y0059850D01*
X0106866Y0059850D01*
X0104771Y0060718D01*
X0103168Y0062321D01*
X0102300Y0064416D01*
X0102300Y0066684D01*
X0103168Y0068779D01*
X0104771Y0070382D01*
X0105176Y0070550D01*
X0104771Y0070718D01*
X0103168Y0072321D01*
X0102300Y0074416D01*
X0102300Y0076684D01*
X0103168Y0078779D01*
X0104771Y0080382D01*
X0105176Y0080550D01*
X0104771Y0080718D01*
X0103168Y0082321D01*
X0102300Y0084416D01*
X0102300Y0086684D01*
X0103168Y0088779D01*
X0104771Y0090382D01*
X0105176Y0090550D01*
X0104771Y0090718D01*
X0103168Y0092321D01*
X0102300Y0094416D01*
X0102300Y0096684D01*
X0103168Y0098779D01*
X0104771Y0100382D01*
X0105176Y0100550D01*
X0104771Y0100718D01*
X0103168Y0102321D01*
X0102300Y0104416D01*
X0102300Y0106684D01*
X0103168Y0108779D01*
X0104771Y0110382D01*
X0105176Y0110550D01*
X0104771Y0110718D01*
X0103168Y0112321D01*
X0102300Y0114416D01*
X0102300Y0116684D01*
X0103168Y0118779D01*
X0104771Y0120382D01*
X0105176Y0120550D01*
X0104771Y0120718D01*
X0103168Y0122321D01*
X0102300Y0124416D01*
X0102300Y0126684D01*
X0103168Y0128779D01*
X0104771Y0130382D01*
X0105176Y0130550D01*
X0104771Y0130718D01*
X0103168Y0132321D01*
X0102300Y0134416D01*
X0102300Y0136684D01*
X0103168Y0138779D01*
X0104756Y0140367D01*
X0104026Y0140897D01*
X0103347Y0141576D01*
X0102783Y0142353D01*
X0102347Y0143208D01*
X0102050Y0144121D01*
X0101900Y0145070D01*
X0101900Y0145365D01*
X0107816Y0145365D01*
X0107816Y0145734D01*
X0107816Y0155365D01*
X0108184Y0155365D01*
X0108184Y0149450D01*
X0108184Y0145734D01*
X0107816Y0145734D01*
X0101900Y0145734D01*
X0101900Y0146030D01*
X0102050Y0146978D01*
X0102347Y0147891D01*
X0102783Y0148747D01*
X0103347Y0149524D01*
X0104026Y0150203D01*
X0104504Y0150550D01*
X0104026Y0150897D01*
X0103347Y0151576D01*
X0102783Y0152353D01*
X0102347Y0153208D01*
X0102050Y0154121D01*
X0101900Y0155070D01*
X0101900Y0155365D01*
X0107816Y0155365D01*
X0107816Y0155734D01*
X0101900Y0155734D01*
X0101900Y0156030D01*
X0102050Y0156978D01*
X0102347Y0157891D01*
X0102783Y0158747D01*
X0103347Y0159524D01*
X0104026Y0160203D01*
X0104756Y0160733D01*
X0103168Y0162321D01*
X0102300Y0164416D01*
X0102300Y0166684D01*
X0103168Y0168779D01*
X0104771Y0170382D01*
X0105176Y0170550D01*
X0104771Y0170718D01*
X0103168Y0172321D01*
X0102300Y0174416D01*
X0102300Y0176684D01*
X0103168Y0178779D01*
X0104771Y0180382D01*
X0106866Y0181250D01*
X0109134Y0181250D01*
X0111229Y0180382D01*
X0112800Y0178811D01*
X0112800Y0183119D01*
X0110548Y0185370D01*
X0109520Y0184944D01*
X0107252Y0184944D01*
X0105157Y0185812D01*
X0103554Y0187415D01*
X0102686Y0189510D01*
X0102686Y0191778D01*
X0103554Y0193873D01*
X0105157Y0195476D01*
X0103862Y0194182D02*
X0064300Y0194182D01*
X0064300Y0192583D02*
X0103019Y0192583D01*
X0102686Y0190984D02*
X0064300Y0190984D01*
X0064300Y0189386D02*
X0102737Y0189386D01*
X0103399Y0187787D02*
X0064300Y0187787D01*
X0064300Y0186189D02*
X0104780Y0186189D01*
X0108386Y0190644D02*
X0115000Y0184030D01*
X0115000Y0072550D01*
X0108000Y0065550D01*
X0103984Y0061505D02*
X0064300Y0061505D01*
X0064300Y0059907D02*
X0106729Y0059907D01*
X0109271Y0059907D02*
X0166729Y0059907D01*
X0163984Y0061505D02*
X0112016Y0061505D01*
X0113156Y0063104D02*
X0162844Y0063104D01*
X0162300Y0064702D02*
X0113700Y0064702D01*
X0113700Y0066301D02*
X0162300Y0066301D01*
X0162539Y0067899D02*
X0113461Y0067899D01*
X0115059Y0069498D02*
X0160941Y0069498D01*
X0159342Y0071096D02*
X0116658Y0071096D01*
X0117200Y0072695D02*
X0157744Y0072695D01*
X0156145Y0074293D02*
X0117200Y0074293D01*
X0117200Y0075892D02*
X0154547Y0075892D01*
X0152948Y0077490D02*
X0117200Y0077490D01*
X0117200Y0079089D02*
X0151350Y0079089D01*
X0149751Y0080687D02*
X0117200Y0080687D01*
X0117200Y0082286D02*
X0148153Y0082286D01*
X0146554Y0083884D02*
X0117200Y0083884D01*
X0117200Y0085483D02*
X0144956Y0085483D01*
X0143357Y0087081D02*
X0117200Y0087081D01*
X0117200Y0088680D02*
X0141759Y0088680D01*
X0140160Y0090278D02*
X0117200Y0090278D01*
X0117200Y0091877D02*
X0138562Y0091877D01*
X0136963Y0093475D02*
X0117200Y0093475D01*
X0117200Y0095074D02*
X0135365Y0095074D01*
X0133766Y0096672D02*
X0117200Y0096672D01*
X0117200Y0098271D02*
X0132168Y0098271D01*
X0130569Y0099869D02*
X0117200Y0099869D01*
X0117200Y0101468D02*
X0128971Y0101468D01*
X0127372Y0103066D02*
X0117200Y0103066D01*
X0117200Y0104665D02*
X0125774Y0104665D01*
X0124175Y0106263D02*
X0117200Y0106263D01*
X0117200Y0107862D02*
X0122577Y0107862D01*
X0120978Y0109460D02*
X0117200Y0109460D01*
X0117200Y0111059D02*
X0119380Y0111059D01*
X0117781Y0112657D02*
X0117200Y0112657D01*
X0118386Y0115164D02*
X0168000Y0065550D01*
X0172016Y0061505D02*
X0175800Y0061505D01*
X0175800Y0059907D02*
X0169271Y0059907D01*
X0173156Y0063104D02*
X0175800Y0063104D01*
X0175800Y0064702D02*
X0173700Y0064702D01*
X0173700Y0066301D02*
X0175800Y0066301D01*
X0175800Y0067899D02*
X0173196Y0067899D01*
X0172113Y0069498D02*
X0175800Y0069498D01*
X0175800Y0071096D02*
X0171607Y0071096D01*
X0172987Y0072695D02*
X0175800Y0072695D01*
X0175800Y0074293D02*
X0173649Y0074293D01*
X0173700Y0075892D02*
X0175800Y0075892D01*
X0175800Y0077490D02*
X0173366Y0077490D01*
X0172522Y0079089D02*
X0175800Y0079089D01*
X0175800Y0080687D02*
X0171156Y0080687D01*
X0172797Y0082286D02*
X0175800Y0082286D01*
X0175800Y0083884D02*
X0173480Y0083884D01*
X0173700Y0085483D02*
X0175800Y0085483D01*
X0175800Y0087081D02*
X0173535Y0087081D01*
X0172873Y0088680D02*
X0175800Y0088680D01*
X0175800Y0090278D02*
X0171332Y0090278D01*
X0172388Y0091877D02*
X0175800Y0091877D01*
X0175800Y0093475D02*
X0173310Y0093475D01*
X0173700Y0095074D02*
X0175800Y0095074D01*
X0175800Y0096672D02*
X0173700Y0096672D01*
X0173043Y0098271D02*
X0175800Y0098271D01*
X0175800Y0099869D02*
X0171741Y0099869D01*
X0171979Y0101468D02*
X0175800Y0101468D01*
X0175800Y0103066D02*
X0173141Y0103066D01*
X0173700Y0104665D02*
X0175800Y0104665D01*
X0175800Y0106263D02*
X0173700Y0106263D01*
X0173212Y0107862D02*
X0175800Y0107862D01*
X0175800Y0109460D02*
X0172150Y0109460D01*
X0171570Y0111059D02*
X0175800Y0111059D01*
X0175800Y0112657D02*
X0172972Y0112657D01*
X0173634Y0114256D02*
X0175800Y0114256D01*
X0174584Y0115854D02*
X0173700Y0115854D01*
X0178000Y0115550D02*
X0178000Y0045754D01*
X0170110Y0037864D01*
X0175478Y0035929D02*
X0184427Y0035929D01*
X0184095Y0036730D02*
X0184963Y0034635D01*
X0186566Y0033032D01*
X0188661Y0032164D01*
X0190929Y0032164D01*
X0193024Y0033032D01*
X0194627Y0034635D01*
X0195495Y0036730D01*
X0195495Y0038998D01*
X0194627Y0041093D01*
X0193024Y0042696D01*
X0192200Y0043038D01*
X0192200Y0140075D01*
X0193342Y0140548D01*
X0195000Y0142206D01*
X0196658Y0140548D01*
X0198826Y0139650D01*
X0201174Y0139650D01*
X0203342Y0140548D01*
X0205002Y0142208D01*
X0205900Y0144376D01*
X0205900Y0146723D01*
X0205002Y0148892D01*
X0203342Y0150552D01*
X0201174Y0151450D01*
X0198826Y0151450D01*
X0196658Y0150552D01*
X0195000Y0148894D01*
X0193342Y0150552D01*
X0191174Y0151450D01*
X0188826Y0151450D01*
X0186658Y0150552D01*
X0184998Y0148892D01*
X0184100Y0146723D01*
X0184100Y0144376D01*
X0184998Y0142208D01*
X0186658Y0140548D01*
X0187800Y0140075D01*
X0187800Y0043207D01*
X0186566Y0042696D01*
X0184963Y0041093D01*
X0184095Y0038998D01*
X0184095Y0036730D01*
X0184095Y0037527D02*
X0175810Y0037527D01*
X0175757Y0039126D02*
X0184148Y0039126D01*
X0184810Y0040724D02*
X0176082Y0040724D01*
X0177680Y0042323D02*
X0186193Y0042323D01*
X0187800Y0043921D02*
X0179279Y0043921D01*
X0180200Y0045520D02*
X0187800Y0045520D01*
X0187800Y0047118D02*
X0180200Y0047118D01*
X0180200Y0048717D02*
X0187800Y0048717D01*
X0187800Y0050316D02*
X0180200Y0050316D01*
X0180200Y0051914D02*
X0187800Y0051914D01*
X0187800Y0053513D02*
X0180200Y0053513D01*
X0180200Y0055111D02*
X0187800Y0055111D01*
X0187800Y0056710D02*
X0180200Y0056710D01*
X0180200Y0058308D02*
X0187800Y0058308D01*
X0187800Y0059907D02*
X0180200Y0059907D01*
X0180200Y0061505D02*
X0187800Y0061505D01*
X0187800Y0063104D02*
X0180200Y0063104D01*
X0180200Y0064702D02*
X0187800Y0064702D01*
X0187800Y0066301D02*
X0180200Y0066301D01*
X0180200Y0067899D02*
X0187800Y0067899D01*
X0187800Y0069498D02*
X0180200Y0069498D01*
X0180200Y0071096D02*
X0187800Y0071096D01*
X0187800Y0072695D02*
X0180200Y0072695D01*
X0180200Y0074293D02*
X0187800Y0074293D01*
X0187800Y0075892D02*
X0180200Y0075892D01*
X0180200Y0077490D02*
X0187800Y0077490D01*
X0187800Y0079089D02*
X0180200Y0079089D01*
X0180200Y0080687D02*
X0187800Y0080687D01*
X0187800Y0082286D02*
X0180200Y0082286D01*
X0180200Y0083884D02*
X0187800Y0083884D01*
X0187800Y0085483D02*
X0180200Y0085483D01*
X0180200Y0087081D02*
X0187800Y0087081D01*
X0187800Y0088680D02*
X0180200Y0088680D01*
X0180200Y0090278D02*
X0187800Y0090278D01*
X0187800Y0091877D02*
X0180200Y0091877D01*
X0180200Y0093475D02*
X0187800Y0093475D01*
X0187800Y0095074D02*
X0180200Y0095074D01*
X0180200Y0096672D02*
X0187800Y0096672D01*
X0187800Y0098271D02*
X0180200Y0098271D01*
X0180200Y0099869D02*
X0187800Y0099869D01*
X0187800Y0101468D02*
X0180200Y0101468D01*
X0180200Y0103066D02*
X0187800Y0103066D01*
X0187800Y0104665D02*
X0180200Y0104665D01*
X0180200Y0106263D02*
X0187800Y0106263D01*
X0187800Y0107862D02*
X0180200Y0107862D01*
X0180200Y0109460D02*
X0187800Y0109460D01*
X0187800Y0111059D02*
X0180200Y0111059D01*
X0180200Y0112657D02*
X0187800Y0112657D01*
X0187800Y0114256D02*
X0180200Y0114256D01*
X0180200Y0115854D02*
X0187800Y0115854D01*
X0187800Y0117453D02*
X0179208Y0117453D01*
X0178000Y0115550D02*
X0168000Y0125550D01*
X0173464Y0123847D02*
X0187800Y0123847D01*
X0187800Y0122249D02*
X0174412Y0122249D01*
X0176011Y0120650D02*
X0187800Y0120650D01*
X0187800Y0119051D02*
X0177610Y0119051D01*
X0173700Y0125446D02*
X0187800Y0125446D01*
X0187800Y0127044D02*
X0173551Y0127044D01*
X0172889Y0128643D02*
X0187800Y0128643D01*
X0187800Y0130241D02*
X0171370Y0130241D01*
X0172351Y0131840D02*
X0187800Y0131840D01*
X0187800Y0133438D02*
X0173295Y0133438D01*
X0173700Y0135037D02*
X0187800Y0135037D01*
X0187800Y0136635D02*
X0173700Y0136635D01*
X0173058Y0138234D02*
X0187800Y0138234D01*
X0187800Y0139832D02*
X0171779Y0139832D01*
X0171942Y0141431D02*
X0185775Y0141431D01*
X0184658Y0143029D02*
X0173126Y0143029D01*
X0173700Y0144628D02*
X0184100Y0144628D01*
X0184100Y0146226D02*
X0173700Y0146226D01*
X0173227Y0147825D02*
X0184556Y0147825D01*
X0185530Y0149423D02*
X0172188Y0149423D01*
X0171533Y0151022D02*
X0187793Y0151022D01*
X0192207Y0151022D02*
X0197793Y0151022D01*
X0195530Y0149423D02*
X0194470Y0149423D01*
X0190000Y0145550D02*
X0190000Y0037864D01*
X0189795Y0037864D01*
X0195163Y0035929D02*
X0214700Y0035929D01*
X0214700Y0037527D02*
X0195495Y0037527D01*
X0195442Y0039126D02*
X0214700Y0039126D01*
X0214700Y0040724D02*
X0194780Y0040724D01*
X0193398Y0042323D02*
X0214700Y0042323D01*
X0214700Y0043921D02*
X0192200Y0043921D01*
X0192200Y0045520D02*
X0214700Y0045520D01*
X0214700Y0047118D02*
X0192200Y0047118D01*
X0192200Y0048717D02*
X0214700Y0048717D01*
X0214700Y0050316D02*
X0192200Y0050316D01*
X0192200Y0051914D02*
X0214700Y0051914D01*
X0214700Y0053513D02*
X0192200Y0053513D01*
X0192200Y0055111D02*
X0214700Y0055111D01*
X0214700Y0056710D02*
X0192200Y0056710D01*
X0192200Y0058308D02*
X0214700Y0058308D01*
X0214700Y0059907D02*
X0192200Y0059907D01*
X0192200Y0061505D02*
X0214700Y0061505D01*
X0214700Y0063104D02*
X0192200Y0063104D01*
X0192200Y0064702D02*
X0214700Y0064702D01*
X0214700Y0066301D02*
X0192200Y0066301D01*
X0192200Y0067899D02*
X0214700Y0067899D01*
X0214700Y0069498D02*
X0192200Y0069498D01*
X0192200Y0071096D02*
X0214700Y0071096D01*
X0214700Y0072695D02*
X0192200Y0072695D01*
X0192200Y0074293D02*
X0214700Y0074293D01*
X0214700Y0075892D02*
X0192200Y0075892D01*
X0192200Y0077490D02*
X0214700Y0077490D01*
X0214700Y0079089D02*
X0192200Y0079089D01*
X0192200Y0080687D02*
X0214700Y0080687D01*
X0214700Y0082286D02*
X0192200Y0082286D01*
X0192200Y0083884D02*
X0214700Y0083884D01*
X0214700Y0085483D02*
X0192200Y0085483D01*
X0192200Y0087081D02*
X0205609Y0087081D01*
X0202214Y0088680D02*
X0192200Y0088680D01*
X0192200Y0090278D02*
X0200615Y0090278D01*
X0199564Y0091877D02*
X0192200Y0091877D01*
X0192200Y0093475D02*
X0198902Y0093475D01*
X0198550Y0095074D02*
X0192200Y0095074D01*
X0192200Y0096672D02*
X0198550Y0096672D01*
X0198668Y0098271D02*
X0192200Y0098271D01*
X0192200Y0099869D02*
X0199330Y0099869D01*
X0200049Y0101468D02*
X0192200Y0101468D01*
X0192200Y0103066D02*
X0201648Y0103066D01*
X0204243Y0104665D02*
X0192200Y0104665D01*
X0192200Y0106263D02*
X0214700Y0106263D01*
X0214700Y0104665D02*
X0211269Y0104665D01*
X0213864Y0103066D02*
X0214700Y0103066D01*
X0214700Y0107862D02*
X0192200Y0107862D01*
X0192200Y0109460D02*
X0214700Y0109460D01*
X0214700Y0111059D02*
X0192200Y0111059D01*
X0192200Y0112657D02*
X0214700Y0112657D01*
X0214700Y0114256D02*
X0192200Y0114256D01*
X0192200Y0115854D02*
X0214700Y0115854D01*
X0214700Y0117453D02*
X0192200Y0117453D01*
X0192200Y0119051D02*
X0214700Y0119051D01*
X0214700Y0120650D02*
X0192200Y0120650D01*
X0192200Y0122249D02*
X0214700Y0122249D01*
X0214700Y0123847D02*
X0192200Y0123847D01*
X0192200Y0125446D02*
X0214700Y0125446D01*
X0214700Y0127044D02*
X0192200Y0127044D01*
X0192200Y0128643D02*
X0214700Y0128643D01*
X0214700Y0130241D02*
X0192200Y0130241D01*
X0192200Y0131840D02*
X0214700Y0131840D01*
X0214700Y0133438D02*
X0192200Y0133438D01*
X0192200Y0135037D02*
X0214700Y0135037D01*
X0214700Y0136635D02*
X0192200Y0136635D01*
X0192200Y0138234D02*
X0214700Y0138234D01*
X0214700Y0139832D02*
X0201614Y0139832D01*
X0204225Y0141431D02*
X0214700Y0141431D01*
X0214700Y0143029D02*
X0205342Y0143029D01*
X0205900Y0144628D02*
X0214700Y0144628D01*
X0214700Y0146226D02*
X0205900Y0146226D01*
X0205444Y0147825D02*
X0214700Y0147825D01*
X0214700Y0149423D02*
X0204470Y0149423D01*
X0202207Y0151022D02*
X0214700Y0151022D01*
X0214700Y0152620D02*
X0172956Y0152620D01*
X0173618Y0154219D02*
X0214700Y0154219D01*
X0214700Y0155817D02*
X0173700Y0155817D01*
X0173397Y0157416D02*
X0214700Y0157416D01*
X0214700Y0159014D02*
X0172596Y0159014D01*
X0171583Y0160613D02*
X0214700Y0160613D01*
X0214700Y0162211D02*
X0173114Y0162211D01*
X0173849Y0163810D02*
X0214700Y0163810D01*
X0214700Y0165408D02*
X0168184Y0165408D01*
X0167816Y0165408D02*
X0150586Y0165408D01*
X0150586Y0163810D02*
X0162151Y0163810D01*
X0162885Y0162211D02*
X0150586Y0162211D01*
X0150586Y0160613D02*
X0164417Y0160613D01*
X0163404Y0159014D02*
X0150586Y0159014D01*
X0150586Y0157416D02*
X0162603Y0157416D01*
X0162300Y0155817D02*
X0150586Y0155817D01*
X0150586Y0154219D02*
X0162382Y0154219D01*
X0163044Y0152620D02*
X0150586Y0152620D01*
X0150586Y0151022D02*
X0164467Y0151022D01*
X0163812Y0149423D02*
X0150586Y0149423D01*
X0150586Y0147825D02*
X0162773Y0147825D01*
X0162300Y0146226D02*
X0150586Y0146226D01*
X0150586Y0144628D02*
X0162300Y0144628D01*
X0162874Y0143029D02*
X0150586Y0143029D01*
X0150586Y0141431D02*
X0164058Y0141431D01*
X0164221Y0139832D02*
X0150586Y0139832D01*
X0150586Y0138234D02*
X0162942Y0138234D01*
X0162300Y0136635D02*
X0150586Y0136635D01*
X0150586Y0135037D02*
X0162300Y0135037D01*
X0162705Y0133438D02*
X0150586Y0133438D01*
X0150586Y0131840D02*
X0163649Y0131840D01*
X0164630Y0130241D02*
X0150586Y0130241D01*
X0150586Y0128643D02*
X0163111Y0128643D01*
X0162449Y0127044D02*
X0150586Y0127044D01*
X0150586Y0125446D02*
X0162300Y0125446D01*
X0162536Y0123847D02*
X0150586Y0123847D01*
X0150586Y0122249D02*
X0163240Y0122249D01*
X0164934Y0120650D02*
X0150586Y0120650D01*
X0150586Y0119051D02*
X0163441Y0119051D01*
X0162619Y0117453D02*
X0150586Y0117453D01*
X0150586Y0115854D02*
X0162300Y0115854D01*
X0162366Y0114256D02*
X0150586Y0114256D01*
X0150586Y0112657D02*
X0163028Y0112657D01*
X0164430Y0111059D02*
X0150586Y0111059D01*
X0150586Y0109460D02*
X0163850Y0109460D01*
X0162788Y0107862D02*
X0150586Y0107862D01*
X0150586Y0106263D02*
X0162300Y0106263D01*
X0162300Y0104665D02*
X0151996Y0104665D01*
X0153595Y0103066D02*
X0162859Y0103066D01*
X0164021Y0101468D02*
X0155193Y0101468D01*
X0156792Y0099869D02*
X0164259Y0099869D01*
X0162957Y0098271D02*
X0158390Y0098271D01*
X0159989Y0096672D02*
X0162300Y0096672D01*
X0162300Y0095074D02*
X0161587Y0095074D01*
X0168000Y0085550D02*
X0148386Y0105164D01*
X0148386Y0190644D01*
X0150882Y0195780D02*
X0155077Y0195780D01*
X0153416Y0194182D02*
X0152910Y0194182D01*
X0158202Y0194182D02*
X0158570Y0194182D01*
X0158570Y0195780D02*
X0158202Y0195780D01*
X0158202Y0192583D02*
X0158570Y0192583D01*
X0158570Y0190984D02*
X0158202Y0190984D01*
X0158202Y0189386D02*
X0158570Y0189386D01*
X0158570Y0187787D02*
X0158202Y0187787D01*
X0158202Y0186189D02*
X0158570Y0186189D01*
X0158570Y0184590D02*
X0158202Y0184590D01*
X0157614Y0184590D02*
X0150586Y0184590D01*
X0150586Y0182992D02*
X0199331Y0182992D01*
X0198669Y0184590D02*
X0159158Y0184590D01*
X0162557Y0186189D02*
X0164780Y0186189D01*
X0164184Y0179795D02*
X0150586Y0179795D01*
X0150586Y0181393D02*
X0200051Y0181393D01*
X0201650Y0179795D02*
X0171816Y0179795D01*
X0173073Y0178196D02*
X0204248Y0178196D01*
X0198550Y0186189D02*
X0171992Y0186189D01*
X0173372Y0187787D02*
X0198550Y0187787D01*
X0198902Y0189386D02*
X0174034Y0189386D01*
X0174086Y0190984D02*
X0199564Y0190984D01*
X0200613Y0192583D02*
X0173752Y0192583D01*
X0172910Y0194182D02*
X0202212Y0194182D01*
X0205604Y0195780D02*
X0170882Y0195780D01*
X0165890Y0195780D02*
X0161695Y0195780D01*
X0163356Y0194182D02*
X0163862Y0194182D01*
X0154214Y0186189D02*
X0151992Y0186189D01*
X0150586Y0178196D02*
X0162927Y0178196D01*
X0162300Y0176598D02*
X0150586Y0176598D01*
X0150586Y0174999D02*
X0162300Y0174999D01*
X0162720Y0173401D02*
X0150586Y0173401D01*
X0150586Y0171802D02*
X0163686Y0171802D01*
X0164028Y0170204D02*
X0150586Y0170204D01*
X0150586Y0168605D02*
X0162711Y0168605D01*
X0162060Y0167007D02*
X0150586Y0167007D01*
X0171972Y0170204D02*
X0214700Y0170204D01*
X0214700Y0171802D02*
X0172314Y0171802D01*
X0173280Y0173401D02*
X0214700Y0173401D01*
X0214700Y0174999D02*
X0173700Y0174999D01*
X0173700Y0176598D02*
X0214700Y0176598D01*
X0214700Y0178196D02*
X0211264Y0178196D01*
X0213862Y0179795D02*
X0214700Y0179795D01*
X0214700Y0168605D02*
X0173289Y0168605D01*
X0173940Y0167007D02*
X0214700Y0167007D01*
X0195775Y0141431D02*
X0194225Y0141431D01*
X0192200Y0139832D02*
X0198386Y0139832D01*
X0213298Y0088680D02*
X0214700Y0088680D01*
X0214700Y0087081D02*
X0209903Y0087081D01*
X0175800Y0058308D02*
X0064300Y0058308D01*
X0064300Y0056710D02*
X0175800Y0056710D01*
X0175800Y0055111D02*
X0064300Y0055111D01*
X0064300Y0053513D02*
X0175800Y0053513D01*
X0175800Y0051914D02*
X0064300Y0051914D01*
X0064300Y0050316D02*
X0175800Y0050316D01*
X0175800Y0048717D02*
X0064300Y0048717D01*
X0064300Y0047118D02*
X0082078Y0047118D01*
X0081449Y0046858D02*
X0078692Y0044101D01*
X0077200Y0040499D01*
X0077200Y0036600D01*
X0078692Y0032998D01*
X0081449Y0030242D01*
X0085051Y0028750D01*
X0088949Y0028750D01*
X0092551Y0030242D01*
X0095308Y0032998D01*
X0096800Y0036600D01*
X0096800Y0040499D01*
X0095308Y0044101D01*
X0092551Y0046858D01*
X0088949Y0048350D01*
X0085051Y0048350D01*
X0081449Y0046858D01*
X0080111Y0045520D02*
X0064300Y0045520D01*
X0064300Y0043921D02*
X0078618Y0043921D01*
X0077955Y0042323D02*
X0064300Y0042323D01*
X0064300Y0040724D02*
X0077293Y0040724D01*
X0077200Y0039126D02*
X0064300Y0039126D01*
X0064300Y0037527D02*
X0077200Y0037527D01*
X0077478Y0035929D02*
X0064300Y0035929D01*
X0064300Y0034330D02*
X0078140Y0034330D01*
X0078959Y0032732D02*
X0064300Y0032732D01*
X0064300Y0031133D02*
X0080557Y0031133D01*
X0083155Y0029535D02*
X0064300Y0029535D01*
X0064300Y0027936D02*
X0214700Y0027936D01*
X0214700Y0026338D02*
X0064300Y0026338D01*
X0064300Y0024739D02*
X0214700Y0024739D01*
X0214700Y0023141D02*
X0064300Y0023141D01*
X0064300Y0021542D02*
X0214700Y0021542D01*
X0214700Y0019944D02*
X0064300Y0019944D01*
X0064300Y0018345D02*
X0214700Y0018345D01*
X0214700Y0029535D02*
X0090845Y0029535D01*
X0093443Y0031133D02*
X0214700Y0031133D01*
X0214700Y0032732D02*
X0192300Y0032732D01*
X0194323Y0034330D02*
X0214700Y0034330D01*
X0187291Y0032732D02*
X0172615Y0032732D01*
X0174637Y0034330D02*
X0185268Y0034330D01*
X0174655Y0045520D02*
X0093889Y0045520D01*
X0095382Y0043921D02*
X0110305Y0043921D01*
X0110575Y0043964D02*
X0109627Y0043814D01*
X0108714Y0043517D01*
X0107858Y0043081D01*
X0107081Y0042517D01*
X0106402Y0041838D01*
X0105838Y0041061D01*
X0105402Y0040206D01*
X0105105Y0039293D01*
X0104955Y0038344D01*
X0104955Y0038048D01*
X0110871Y0038048D01*
X0110871Y0037680D01*
X0111239Y0037680D01*
X0111239Y0031764D01*
X0111535Y0031764D01*
X0112484Y0031914D01*
X0113397Y0032211D01*
X0114252Y0032647D01*
X0115029Y0033211D01*
X0115708Y0033890D01*
X0116272Y0034667D01*
X0116708Y0035523D01*
X0117005Y0036436D01*
X0117155Y0037384D01*
X0117155Y0037680D01*
X0111239Y0037680D01*
X0111239Y0038048D01*
X0117155Y0038048D01*
X0117155Y0038344D01*
X0117005Y0039293D01*
X0116708Y0040206D01*
X0116272Y0041061D01*
X0115708Y0041838D01*
X0115029Y0042517D01*
X0114252Y0043081D01*
X0113397Y0043517D01*
X0112484Y0043814D01*
X0111535Y0043964D01*
X0111239Y0043964D01*
X0111239Y0038048D01*
X0110871Y0038048D01*
X0110871Y0043964D01*
X0110575Y0043964D01*
X0110871Y0043921D02*
X0111239Y0043921D01*
X0111805Y0043921D02*
X0173056Y0043921D01*
X0175800Y0047118D02*
X0091922Y0047118D01*
X0096045Y0042323D02*
X0106887Y0042323D01*
X0105666Y0040724D02*
X0096707Y0040724D01*
X0096800Y0039126D02*
X0105079Y0039126D01*
X0104955Y0037680D02*
X0104955Y0037384D01*
X0105105Y0036436D01*
X0105402Y0035523D01*
X0105838Y0034667D01*
X0106402Y0033890D01*
X0107081Y0033211D01*
X0107858Y0032647D01*
X0108714Y0032211D01*
X0109627Y0031914D01*
X0110575Y0031764D01*
X0110871Y0031764D01*
X0110871Y0037680D01*
X0104955Y0037680D01*
X0104955Y0037527D02*
X0096800Y0037527D01*
X0096522Y0035929D02*
X0105270Y0035929D01*
X0106083Y0034330D02*
X0095860Y0034330D01*
X0095041Y0032732D02*
X0107741Y0032732D01*
X0110871Y0032732D02*
X0111239Y0032732D01*
X0111239Y0034330D02*
X0110871Y0034330D01*
X0110871Y0035929D02*
X0111239Y0035929D01*
X0111239Y0037527D02*
X0110871Y0037527D01*
X0110871Y0039126D02*
X0111239Y0039126D01*
X0111239Y0040724D02*
X0110871Y0040724D01*
X0110871Y0042323D02*
X0111239Y0042323D01*
X0115223Y0042323D02*
X0127138Y0042323D01*
X0127511Y0042696D02*
X0125908Y0041093D01*
X0125040Y0038998D01*
X0125040Y0036730D01*
X0125908Y0034635D01*
X0127511Y0033032D01*
X0129606Y0032164D01*
X0131874Y0032164D01*
X0133969Y0033032D01*
X0135572Y0034635D01*
X0136440Y0036730D01*
X0136440Y0038998D01*
X0135572Y0041093D01*
X0133969Y0042696D01*
X0131874Y0043564D01*
X0129606Y0043564D01*
X0127511Y0042696D01*
X0125755Y0040724D02*
X0116444Y0040724D01*
X0117031Y0039126D02*
X0125093Y0039126D01*
X0125040Y0037527D02*
X0117155Y0037527D01*
X0116840Y0035929D02*
X0125372Y0035929D01*
X0126213Y0034330D02*
X0116028Y0034330D01*
X0114369Y0032732D02*
X0128236Y0032732D01*
X0133245Y0032732D02*
X0147921Y0032732D01*
X0147196Y0033032D02*
X0145593Y0034635D01*
X0144725Y0036730D01*
X0144725Y0038998D01*
X0145593Y0041093D01*
X0147196Y0042696D01*
X0149291Y0043564D01*
X0151559Y0043564D01*
X0153654Y0042696D01*
X0155257Y0041093D01*
X0156125Y0038998D01*
X0156125Y0036730D01*
X0155257Y0034635D01*
X0153654Y0033032D01*
X0151559Y0032164D01*
X0149291Y0032164D01*
X0147196Y0033032D01*
X0145898Y0034330D02*
X0135267Y0034330D01*
X0136108Y0035929D02*
X0145057Y0035929D01*
X0144725Y0037527D02*
X0136440Y0037527D01*
X0136387Y0039126D02*
X0144778Y0039126D01*
X0145440Y0040724D02*
X0135725Y0040724D01*
X0134342Y0042323D02*
X0146823Y0042323D01*
X0154027Y0042323D02*
X0166508Y0042323D01*
X0165125Y0040724D02*
X0155410Y0040724D01*
X0156072Y0039126D02*
X0164463Y0039126D01*
X0164410Y0037527D02*
X0156125Y0037527D01*
X0155793Y0035929D02*
X0164742Y0035929D01*
X0165583Y0034330D02*
X0154952Y0034330D01*
X0152930Y0032732D02*
X0167606Y0032732D01*
X0168000Y0075550D02*
X0128386Y0115164D01*
X0128386Y0190644D01*
X0130882Y0195780D02*
X0135890Y0195780D01*
X0133862Y0194182D02*
X0132910Y0194182D01*
X0125890Y0195780D02*
X0120882Y0195780D01*
X0122910Y0194182D02*
X0123862Y0194182D01*
X0118386Y0190644D02*
X0118386Y0115164D01*
X0104934Y0120650D02*
X0064300Y0120650D01*
X0064300Y0119051D02*
X0103441Y0119051D01*
X0102619Y0117453D02*
X0064300Y0117453D01*
X0064300Y0115854D02*
X0102300Y0115854D01*
X0102366Y0114256D02*
X0064300Y0114256D01*
X0064300Y0112657D02*
X0103028Y0112657D01*
X0104430Y0111059D02*
X0064300Y0111059D01*
X0064300Y0109460D02*
X0103850Y0109460D01*
X0102788Y0107862D02*
X0064300Y0107862D01*
X0064300Y0106263D02*
X0102300Y0106263D01*
X0102300Y0104665D02*
X0064300Y0104665D01*
X0064300Y0103066D02*
X0102859Y0103066D01*
X0104021Y0101468D02*
X0064300Y0101468D01*
X0064300Y0099869D02*
X0104259Y0099869D01*
X0102957Y0098271D02*
X0064300Y0098271D01*
X0064300Y0096672D02*
X0102300Y0096672D01*
X0102300Y0095074D02*
X0064300Y0095074D01*
X0064300Y0093475D02*
X0102690Y0093475D01*
X0103612Y0091877D02*
X0064300Y0091877D01*
X0064300Y0090278D02*
X0104668Y0090278D01*
X0103127Y0088680D02*
X0064300Y0088680D01*
X0064300Y0087081D02*
X0102465Y0087081D01*
X0102300Y0085483D02*
X0064300Y0085483D01*
X0064300Y0083884D02*
X0102520Y0083884D01*
X0103203Y0082286D02*
X0064300Y0082286D01*
X0064300Y0080687D02*
X0104844Y0080687D01*
X0103478Y0079089D02*
X0064300Y0079089D01*
X0064300Y0077490D02*
X0102634Y0077490D01*
X0102300Y0075892D02*
X0064300Y0075892D01*
X0064300Y0074293D02*
X0102351Y0074293D01*
X0103013Y0072695D02*
X0064300Y0072695D01*
X0064300Y0071096D02*
X0104393Y0071096D01*
X0103887Y0069498D02*
X0064300Y0069498D01*
X0064300Y0067899D02*
X0102804Y0067899D01*
X0102300Y0066301D02*
X0064300Y0066301D01*
X0064300Y0064702D02*
X0102300Y0064702D01*
X0102844Y0063104D02*
X0064300Y0063104D01*
X0064300Y0122249D02*
X0103240Y0122249D01*
X0102536Y0123847D02*
X0064300Y0123847D01*
X0064300Y0125446D02*
X0102300Y0125446D01*
X0102449Y0127044D02*
X0064300Y0127044D01*
X0064300Y0128643D02*
X0103111Y0128643D01*
X0104630Y0130241D02*
X0064300Y0130241D01*
X0064300Y0131840D02*
X0103649Y0131840D01*
X0102705Y0133438D02*
X0064300Y0133438D01*
X0064300Y0135037D02*
X0102300Y0135037D01*
X0102300Y0136635D02*
X0064300Y0136635D01*
X0064300Y0138234D02*
X0102942Y0138234D01*
X0104221Y0139832D02*
X0064300Y0139832D01*
X0064300Y0141431D02*
X0103492Y0141431D01*
X0102438Y0143029D02*
X0064300Y0143029D01*
X0064300Y0144628D02*
X0101970Y0144628D01*
X0101931Y0146226D02*
X0064300Y0146226D01*
X0064300Y0147825D02*
X0102325Y0147825D01*
X0103274Y0149423D02*
X0064300Y0149423D01*
X0064300Y0151022D02*
X0103901Y0151022D01*
X0102646Y0152620D02*
X0064300Y0152620D01*
X0064300Y0154219D02*
X0102035Y0154219D01*
X0101900Y0155817D02*
X0064300Y0155817D01*
X0064300Y0157416D02*
X0102192Y0157416D01*
X0102977Y0159014D02*
X0064300Y0159014D01*
X0064300Y0160613D02*
X0104591Y0160613D01*
X0103277Y0162211D02*
X0064300Y0162211D01*
X0064300Y0163810D02*
X0102551Y0163810D01*
X0102300Y0165408D02*
X0064300Y0165408D01*
X0064300Y0167007D02*
X0102434Y0167007D01*
X0103096Y0168605D02*
X0064300Y0168605D01*
X0064300Y0170204D02*
X0104593Y0170204D01*
X0103686Y0171802D02*
X0064300Y0171802D01*
X0064300Y0173401D02*
X0102720Y0173401D01*
X0102300Y0174999D02*
X0064300Y0174999D01*
X0064300Y0176598D02*
X0102300Y0176598D01*
X0102927Y0178196D02*
X0064300Y0178196D01*
X0064300Y0179795D02*
X0104184Y0179795D01*
X0111816Y0179795D02*
X0112800Y0179795D01*
X0112800Y0181393D02*
X0064300Y0181393D01*
X0064300Y0182992D02*
X0112800Y0182992D01*
X0111328Y0184590D02*
X0064300Y0184590D01*
X0092681Y0205371D02*
X0181319Y0205371D01*
X0179721Y0206970D02*
X0094279Y0206970D01*
X0095544Y0208568D02*
X0178456Y0208568D01*
X0177794Y0210167D02*
X0096206Y0210167D01*
X0096800Y0211765D02*
X0177200Y0211765D01*
X0177200Y0213364D02*
X0096800Y0213364D01*
X0096800Y0214962D02*
X0177200Y0214962D01*
X0177640Y0216561D02*
X0096360Y0216561D01*
X0095698Y0218159D02*
X0178302Y0218159D01*
X0179349Y0219758D02*
X0094651Y0219758D01*
X0093053Y0221356D02*
X0180947Y0221356D01*
X0184097Y0222955D02*
X0089903Y0222955D01*
X0110882Y0195780D02*
X0115890Y0195780D01*
X0113862Y0194182D02*
X0112910Y0194182D01*
X0140882Y0195780D02*
X0145890Y0195780D01*
X0143862Y0194182D02*
X0142910Y0194182D01*
X0108184Y0154219D02*
X0107816Y0154219D01*
X0107816Y0152620D02*
X0108184Y0152620D01*
X0108184Y0151022D02*
X0107816Y0151022D01*
X0107816Y0149423D02*
X0108184Y0149423D01*
X0108184Y0147825D02*
X0107816Y0147825D01*
X0107816Y0146226D02*
X0108184Y0146226D01*
X0209907Y0195780D02*
X0214700Y0195780D01*
X0214700Y0194182D02*
X0213300Y0194182D01*
M02*
