G75*
%MOIN*%
%OFA0B0*%
%FSLAX25Y25*%
%IPPOS*%
%LPD*%
%AMOC8*
5,1,8,0,0,1.08239X$1,22.5*
%
%ADD10C,0.09600*%
%ADD11C,0.14000*%
%ADD12C,0.10000*%
%ADD13C,0.12811*%
D10*
X0108000Y0065550D03*
X0108000Y0075550D03*
X0108000Y0085550D03*
X0108000Y0095550D03*
X0108000Y0105550D03*
X0108000Y0115550D03*
X0108000Y0125550D03*
X0108000Y0135550D03*
X0108000Y0145550D03*
X0108000Y0155550D03*
X0108000Y0165550D03*
X0108000Y0175550D03*
X0108386Y0190644D03*
X0118386Y0190644D03*
X0128386Y0190644D03*
X0138386Y0190644D03*
X0148386Y0190644D03*
X0158386Y0190644D03*
X0168386Y0190644D03*
X0168000Y0175550D03*
X0168000Y0165550D03*
X0168000Y0155550D03*
X0168000Y0145550D03*
X0168000Y0135550D03*
X0168000Y0125550D03*
X0168000Y0115550D03*
X0168000Y0105550D03*
X0168000Y0095550D03*
X0168000Y0085550D03*
X0168000Y0075550D03*
X0168000Y0065550D03*
X0170110Y0037864D03*
X0150425Y0037864D03*
X0130740Y0037864D03*
X0111055Y0037864D03*
X0189795Y0037864D03*
D11*
X0087000Y0038550D03*
X0087000Y0213550D03*
X0187000Y0213550D03*
D12*
X0190000Y0145550D03*
X0200000Y0145550D03*
D13*
X0207756Y0186707D03*
X0207756Y0096156D03*
X0014843Y0096156D03*
X0014843Y0186707D03*
M02*
