%
M48
M72
T01C0.0394
T02C0.1181
T03C0.1300
%
T01
X10800Y6555
X10800Y7555
X10800Y8555
X10800Y9555
X10800Y10555
X10800Y11555
X10800Y12555
X10800Y13555
X10800Y14555
X10800Y15555
X10800Y16555
X10800Y17555
X10839Y19064
X11839Y19064
X12839Y19064
X13839Y19064
X14839Y19064
X15839Y19064
X16839Y19064
X16800Y17555
X16800Y16555
X16800Y15555
X16800Y14555
X16800Y13555
X16800Y12555
X16800Y11555
X16800Y10555
X16800Y9555
X16800Y8555
X16800Y7555
X16800Y6555
X17011Y3786
X15043Y3786
X13074Y3786
X11106Y3786
X18980Y3786
X19000Y14555
X20000Y14555
T02
X20776Y18671
X20776Y9616
X1484Y9616
X1484Y18671
T03
X8700Y3855
X8700Y21355
X18700Y21355
M30
