G75*
%MOIN*%
%OFA0B0*%
%FSLAX25Y25*%
%IPPOS*%
%LPD*%
%AMOC8*
5,1,8,0,0,1.08239X$1,22.5*
%
%ADD10C,0.00000*%
D10*
X0061000Y0013550D02*
X0061000Y0229251D01*
X0218000Y0229251D01*
X0218000Y0013550D01*
X0061000Y0013550D01*
X0080500Y0038550D02*
X0080502Y0038711D01*
X0080508Y0038871D01*
X0080518Y0039032D01*
X0080532Y0039192D01*
X0080550Y0039352D01*
X0080571Y0039511D01*
X0080597Y0039670D01*
X0080627Y0039828D01*
X0080660Y0039985D01*
X0080698Y0040142D01*
X0080739Y0040297D01*
X0080784Y0040451D01*
X0080833Y0040604D01*
X0080886Y0040756D01*
X0080942Y0040907D01*
X0081003Y0041056D01*
X0081066Y0041204D01*
X0081134Y0041350D01*
X0081205Y0041494D01*
X0081279Y0041636D01*
X0081357Y0041777D01*
X0081439Y0041915D01*
X0081524Y0042052D01*
X0081612Y0042186D01*
X0081704Y0042318D01*
X0081799Y0042448D01*
X0081897Y0042576D01*
X0081998Y0042701D01*
X0082102Y0042823D01*
X0082209Y0042943D01*
X0082319Y0043060D01*
X0082432Y0043175D01*
X0082548Y0043286D01*
X0082667Y0043395D01*
X0082788Y0043500D01*
X0082912Y0043603D01*
X0083038Y0043703D01*
X0083166Y0043799D01*
X0083297Y0043892D01*
X0083431Y0043982D01*
X0083566Y0044069D01*
X0083704Y0044152D01*
X0083843Y0044232D01*
X0083985Y0044308D01*
X0084128Y0044381D01*
X0084273Y0044450D01*
X0084420Y0044516D01*
X0084568Y0044578D01*
X0084718Y0044636D01*
X0084869Y0044691D01*
X0085022Y0044742D01*
X0085176Y0044789D01*
X0085331Y0044832D01*
X0085487Y0044871D01*
X0085643Y0044907D01*
X0085801Y0044938D01*
X0085959Y0044966D01*
X0086118Y0044990D01*
X0086278Y0045010D01*
X0086438Y0045026D01*
X0086598Y0045038D01*
X0086759Y0045046D01*
X0086920Y0045050D01*
X0087080Y0045050D01*
X0087241Y0045046D01*
X0087402Y0045038D01*
X0087562Y0045026D01*
X0087722Y0045010D01*
X0087882Y0044990D01*
X0088041Y0044966D01*
X0088199Y0044938D01*
X0088357Y0044907D01*
X0088513Y0044871D01*
X0088669Y0044832D01*
X0088824Y0044789D01*
X0088978Y0044742D01*
X0089131Y0044691D01*
X0089282Y0044636D01*
X0089432Y0044578D01*
X0089580Y0044516D01*
X0089727Y0044450D01*
X0089872Y0044381D01*
X0090015Y0044308D01*
X0090157Y0044232D01*
X0090296Y0044152D01*
X0090434Y0044069D01*
X0090569Y0043982D01*
X0090703Y0043892D01*
X0090834Y0043799D01*
X0090962Y0043703D01*
X0091088Y0043603D01*
X0091212Y0043500D01*
X0091333Y0043395D01*
X0091452Y0043286D01*
X0091568Y0043175D01*
X0091681Y0043060D01*
X0091791Y0042943D01*
X0091898Y0042823D01*
X0092002Y0042701D01*
X0092103Y0042576D01*
X0092201Y0042448D01*
X0092296Y0042318D01*
X0092388Y0042186D01*
X0092476Y0042052D01*
X0092561Y0041915D01*
X0092643Y0041777D01*
X0092721Y0041636D01*
X0092795Y0041494D01*
X0092866Y0041350D01*
X0092934Y0041204D01*
X0092997Y0041056D01*
X0093058Y0040907D01*
X0093114Y0040756D01*
X0093167Y0040604D01*
X0093216Y0040451D01*
X0093261Y0040297D01*
X0093302Y0040142D01*
X0093340Y0039985D01*
X0093373Y0039828D01*
X0093403Y0039670D01*
X0093429Y0039511D01*
X0093450Y0039352D01*
X0093468Y0039192D01*
X0093482Y0039032D01*
X0093492Y0038871D01*
X0093498Y0038711D01*
X0093500Y0038550D01*
X0093498Y0038389D01*
X0093492Y0038229D01*
X0093482Y0038068D01*
X0093468Y0037908D01*
X0093450Y0037748D01*
X0093429Y0037589D01*
X0093403Y0037430D01*
X0093373Y0037272D01*
X0093340Y0037115D01*
X0093302Y0036958D01*
X0093261Y0036803D01*
X0093216Y0036649D01*
X0093167Y0036496D01*
X0093114Y0036344D01*
X0093058Y0036193D01*
X0092997Y0036044D01*
X0092934Y0035896D01*
X0092866Y0035750D01*
X0092795Y0035606D01*
X0092721Y0035464D01*
X0092643Y0035323D01*
X0092561Y0035185D01*
X0092476Y0035048D01*
X0092388Y0034914D01*
X0092296Y0034782D01*
X0092201Y0034652D01*
X0092103Y0034524D01*
X0092002Y0034399D01*
X0091898Y0034277D01*
X0091791Y0034157D01*
X0091681Y0034040D01*
X0091568Y0033925D01*
X0091452Y0033814D01*
X0091333Y0033705D01*
X0091212Y0033600D01*
X0091088Y0033497D01*
X0090962Y0033397D01*
X0090834Y0033301D01*
X0090703Y0033208D01*
X0090569Y0033118D01*
X0090434Y0033031D01*
X0090296Y0032948D01*
X0090157Y0032868D01*
X0090015Y0032792D01*
X0089872Y0032719D01*
X0089727Y0032650D01*
X0089580Y0032584D01*
X0089432Y0032522D01*
X0089282Y0032464D01*
X0089131Y0032409D01*
X0088978Y0032358D01*
X0088824Y0032311D01*
X0088669Y0032268D01*
X0088513Y0032229D01*
X0088357Y0032193D01*
X0088199Y0032162D01*
X0088041Y0032134D01*
X0087882Y0032110D01*
X0087722Y0032090D01*
X0087562Y0032074D01*
X0087402Y0032062D01*
X0087241Y0032054D01*
X0087080Y0032050D01*
X0086920Y0032050D01*
X0086759Y0032054D01*
X0086598Y0032062D01*
X0086438Y0032074D01*
X0086278Y0032090D01*
X0086118Y0032110D01*
X0085959Y0032134D01*
X0085801Y0032162D01*
X0085643Y0032193D01*
X0085487Y0032229D01*
X0085331Y0032268D01*
X0085176Y0032311D01*
X0085022Y0032358D01*
X0084869Y0032409D01*
X0084718Y0032464D01*
X0084568Y0032522D01*
X0084420Y0032584D01*
X0084273Y0032650D01*
X0084128Y0032719D01*
X0083985Y0032792D01*
X0083843Y0032868D01*
X0083704Y0032948D01*
X0083566Y0033031D01*
X0083431Y0033118D01*
X0083297Y0033208D01*
X0083166Y0033301D01*
X0083038Y0033397D01*
X0082912Y0033497D01*
X0082788Y0033600D01*
X0082667Y0033705D01*
X0082548Y0033814D01*
X0082432Y0033925D01*
X0082319Y0034040D01*
X0082209Y0034157D01*
X0082102Y0034277D01*
X0081998Y0034399D01*
X0081897Y0034524D01*
X0081799Y0034652D01*
X0081704Y0034782D01*
X0081612Y0034914D01*
X0081524Y0035048D01*
X0081439Y0035185D01*
X0081357Y0035323D01*
X0081279Y0035464D01*
X0081205Y0035606D01*
X0081134Y0035750D01*
X0081066Y0035896D01*
X0081003Y0036044D01*
X0080942Y0036193D01*
X0080886Y0036344D01*
X0080833Y0036496D01*
X0080784Y0036649D01*
X0080739Y0036803D01*
X0080698Y0036958D01*
X0080660Y0037115D01*
X0080627Y0037272D01*
X0080597Y0037430D01*
X0080571Y0037589D01*
X0080550Y0037748D01*
X0080532Y0037908D01*
X0080518Y0038068D01*
X0080508Y0038229D01*
X0080502Y0038389D01*
X0080500Y0038550D01*
X0008937Y0096156D02*
X0008939Y0096309D01*
X0008945Y0096463D01*
X0008955Y0096616D01*
X0008969Y0096768D01*
X0008987Y0096921D01*
X0009009Y0097072D01*
X0009034Y0097223D01*
X0009064Y0097374D01*
X0009098Y0097524D01*
X0009135Y0097672D01*
X0009176Y0097820D01*
X0009221Y0097966D01*
X0009270Y0098112D01*
X0009323Y0098256D01*
X0009379Y0098398D01*
X0009439Y0098539D01*
X0009503Y0098679D01*
X0009570Y0098817D01*
X0009641Y0098953D01*
X0009716Y0099087D01*
X0009793Y0099219D01*
X0009875Y0099349D01*
X0009959Y0099477D01*
X0010047Y0099603D01*
X0010138Y0099726D01*
X0010232Y0099847D01*
X0010330Y0099965D01*
X0010430Y0100081D01*
X0010534Y0100194D01*
X0010640Y0100305D01*
X0010749Y0100413D01*
X0010861Y0100518D01*
X0010975Y0100619D01*
X0011093Y0100718D01*
X0011212Y0100814D01*
X0011334Y0100907D01*
X0011459Y0100996D01*
X0011586Y0101083D01*
X0011715Y0101165D01*
X0011846Y0101245D01*
X0011979Y0101321D01*
X0012114Y0101394D01*
X0012251Y0101463D01*
X0012390Y0101528D01*
X0012530Y0101590D01*
X0012672Y0101648D01*
X0012815Y0101703D01*
X0012960Y0101754D01*
X0013106Y0101801D01*
X0013253Y0101844D01*
X0013401Y0101883D01*
X0013550Y0101919D01*
X0013700Y0101950D01*
X0013851Y0101978D01*
X0014002Y0102002D01*
X0014155Y0102022D01*
X0014307Y0102038D01*
X0014460Y0102050D01*
X0014613Y0102058D01*
X0014766Y0102062D01*
X0014920Y0102062D01*
X0015073Y0102058D01*
X0015226Y0102050D01*
X0015379Y0102038D01*
X0015531Y0102022D01*
X0015684Y0102002D01*
X0015835Y0101978D01*
X0015986Y0101950D01*
X0016136Y0101919D01*
X0016285Y0101883D01*
X0016433Y0101844D01*
X0016580Y0101801D01*
X0016726Y0101754D01*
X0016871Y0101703D01*
X0017014Y0101648D01*
X0017156Y0101590D01*
X0017296Y0101528D01*
X0017435Y0101463D01*
X0017572Y0101394D01*
X0017707Y0101321D01*
X0017840Y0101245D01*
X0017971Y0101165D01*
X0018100Y0101083D01*
X0018227Y0100996D01*
X0018352Y0100907D01*
X0018474Y0100814D01*
X0018593Y0100718D01*
X0018711Y0100619D01*
X0018825Y0100518D01*
X0018937Y0100413D01*
X0019046Y0100305D01*
X0019152Y0100194D01*
X0019256Y0100081D01*
X0019356Y0099965D01*
X0019454Y0099847D01*
X0019548Y0099726D01*
X0019639Y0099603D01*
X0019727Y0099477D01*
X0019811Y0099349D01*
X0019893Y0099219D01*
X0019970Y0099087D01*
X0020045Y0098953D01*
X0020116Y0098817D01*
X0020183Y0098679D01*
X0020247Y0098539D01*
X0020307Y0098398D01*
X0020363Y0098256D01*
X0020416Y0098112D01*
X0020465Y0097966D01*
X0020510Y0097820D01*
X0020551Y0097672D01*
X0020588Y0097524D01*
X0020622Y0097374D01*
X0020652Y0097223D01*
X0020677Y0097072D01*
X0020699Y0096921D01*
X0020717Y0096768D01*
X0020731Y0096616D01*
X0020741Y0096463D01*
X0020747Y0096309D01*
X0020749Y0096156D01*
X0020747Y0096003D01*
X0020741Y0095849D01*
X0020731Y0095696D01*
X0020717Y0095544D01*
X0020699Y0095391D01*
X0020677Y0095240D01*
X0020652Y0095089D01*
X0020622Y0094938D01*
X0020588Y0094788D01*
X0020551Y0094640D01*
X0020510Y0094492D01*
X0020465Y0094346D01*
X0020416Y0094200D01*
X0020363Y0094056D01*
X0020307Y0093914D01*
X0020247Y0093773D01*
X0020183Y0093633D01*
X0020116Y0093495D01*
X0020045Y0093359D01*
X0019970Y0093225D01*
X0019893Y0093093D01*
X0019811Y0092963D01*
X0019727Y0092835D01*
X0019639Y0092709D01*
X0019548Y0092586D01*
X0019454Y0092465D01*
X0019356Y0092347D01*
X0019256Y0092231D01*
X0019152Y0092118D01*
X0019046Y0092007D01*
X0018937Y0091899D01*
X0018825Y0091794D01*
X0018711Y0091693D01*
X0018593Y0091594D01*
X0018474Y0091498D01*
X0018352Y0091405D01*
X0018227Y0091316D01*
X0018100Y0091229D01*
X0017971Y0091147D01*
X0017840Y0091067D01*
X0017707Y0090991D01*
X0017572Y0090918D01*
X0017435Y0090849D01*
X0017296Y0090784D01*
X0017156Y0090722D01*
X0017014Y0090664D01*
X0016871Y0090609D01*
X0016726Y0090558D01*
X0016580Y0090511D01*
X0016433Y0090468D01*
X0016285Y0090429D01*
X0016136Y0090393D01*
X0015986Y0090362D01*
X0015835Y0090334D01*
X0015684Y0090310D01*
X0015531Y0090290D01*
X0015379Y0090274D01*
X0015226Y0090262D01*
X0015073Y0090254D01*
X0014920Y0090250D01*
X0014766Y0090250D01*
X0014613Y0090254D01*
X0014460Y0090262D01*
X0014307Y0090274D01*
X0014155Y0090290D01*
X0014002Y0090310D01*
X0013851Y0090334D01*
X0013700Y0090362D01*
X0013550Y0090393D01*
X0013401Y0090429D01*
X0013253Y0090468D01*
X0013106Y0090511D01*
X0012960Y0090558D01*
X0012815Y0090609D01*
X0012672Y0090664D01*
X0012530Y0090722D01*
X0012390Y0090784D01*
X0012251Y0090849D01*
X0012114Y0090918D01*
X0011979Y0090991D01*
X0011846Y0091067D01*
X0011715Y0091147D01*
X0011586Y0091229D01*
X0011459Y0091316D01*
X0011334Y0091405D01*
X0011212Y0091498D01*
X0011093Y0091594D01*
X0010975Y0091693D01*
X0010861Y0091794D01*
X0010749Y0091899D01*
X0010640Y0092007D01*
X0010534Y0092118D01*
X0010430Y0092231D01*
X0010330Y0092347D01*
X0010232Y0092465D01*
X0010138Y0092586D01*
X0010047Y0092709D01*
X0009959Y0092835D01*
X0009875Y0092963D01*
X0009793Y0093093D01*
X0009716Y0093225D01*
X0009641Y0093359D01*
X0009570Y0093495D01*
X0009503Y0093633D01*
X0009439Y0093773D01*
X0009379Y0093914D01*
X0009323Y0094056D01*
X0009270Y0094200D01*
X0009221Y0094346D01*
X0009176Y0094492D01*
X0009135Y0094640D01*
X0009098Y0094788D01*
X0009064Y0094938D01*
X0009034Y0095089D01*
X0009009Y0095240D01*
X0008987Y0095391D01*
X0008969Y0095544D01*
X0008955Y0095696D01*
X0008945Y0095849D01*
X0008939Y0096003D01*
X0008937Y0096156D01*
X0008937Y0186707D02*
X0008939Y0186860D01*
X0008945Y0187014D01*
X0008955Y0187167D01*
X0008969Y0187319D01*
X0008987Y0187472D01*
X0009009Y0187623D01*
X0009034Y0187774D01*
X0009064Y0187925D01*
X0009098Y0188075D01*
X0009135Y0188223D01*
X0009176Y0188371D01*
X0009221Y0188517D01*
X0009270Y0188663D01*
X0009323Y0188807D01*
X0009379Y0188949D01*
X0009439Y0189090D01*
X0009503Y0189230D01*
X0009570Y0189368D01*
X0009641Y0189504D01*
X0009716Y0189638D01*
X0009793Y0189770D01*
X0009875Y0189900D01*
X0009959Y0190028D01*
X0010047Y0190154D01*
X0010138Y0190277D01*
X0010232Y0190398D01*
X0010330Y0190516D01*
X0010430Y0190632D01*
X0010534Y0190745D01*
X0010640Y0190856D01*
X0010749Y0190964D01*
X0010861Y0191069D01*
X0010975Y0191170D01*
X0011093Y0191269D01*
X0011212Y0191365D01*
X0011334Y0191458D01*
X0011459Y0191547D01*
X0011586Y0191634D01*
X0011715Y0191716D01*
X0011846Y0191796D01*
X0011979Y0191872D01*
X0012114Y0191945D01*
X0012251Y0192014D01*
X0012390Y0192079D01*
X0012530Y0192141D01*
X0012672Y0192199D01*
X0012815Y0192254D01*
X0012960Y0192305D01*
X0013106Y0192352D01*
X0013253Y0192395D01*
X0013401Y0192434D01*
X0013550Y0192470D01*
X0013700Y0192501D01*
X0013851Y0192529D01*
X0014002Y0192553D01*
X0014155Y0192573D01*
X0014307Y0192589D01*
X0014460Y0192601D01*
X0014613Y0192609D01*
X0014766Y0192613D01*
X0014920Y0192613D01*
X0015073Y0192609D01*
X0015226Y0192601D01*
X0015379Y0192589D01*
X0015531Y0192573D01*
X0015684Y0192553D01*
X0015835Y0192529D01*
X0015986Y0192501D01*
X0016136Y0192470D01*
X0016285Y0192434D01*
X0016433Y0192395D01*
X0016580Y0192352D01*
X0016726Y0192305D01*
X0016871Y0192254D01*
X0017014Y0192199D01*
X0017156Y0192141D01*
X0017296Y0192079D01*
X0017435Y0192014D01*
X0017572Y0191945D01*
X0017707Y0191872D01*
X0017840Y0191796D01*
X0017971Y0191716D01*
X0018100Y0191634D01*
X0018227Y0191547D01*
X0018352Y0191458D01*
X0018474Y0191365D01*
X0018593Y0191269D01*
X0018711Y0191170D01*
X0018825Y0191069D01*
X0018937Y0190964D01*
X0019046Y0190856D01*
X0019152Y0190745D01*
X0019256Y0190632D01*
X0019356Y0190516D01*
X0019454Y0190398D01*
X0019548Y0190277D01*
X0019639Y0190154D01*
X0019727Y0190028D01*
X0019811Y0189900D01*
X0019893Y0189770D01*
X0019970Y0189638D01*
X0020045Y0189504D01*
X0020116Y0189368D01*
X0020183Y0189230D01*
X0020247Y0189090D01*
X0020307Y0188949D01*
X0020363Y0188807D01*
X0020416Y0188663D01*
X0020465Y0188517D01*
X0020510Y0188371D01*
X0020551Y0188223D01*
X0020588Y0188075D01*
X0020622Y0187925D01*
X0020652Y0187774D01*
X0020677Y0187623D01*
X0020699Y0187472D01*
X0020717Y0187319D01*
X0020731Y0187167D01*
X0020741Y0187014D01*
X0020747Y0186860D01*
X0020749Y0186707D01*
X0020747Y0186554D01*
X0020741Y0186400D01*
X0020731Y0186247D01*
X0020717Y0186095D01*
X0020699Y0185942D01*
X0020677Y0185791D01*
X0020652Y0185640D01*
X0020622Y0185489D01*
X0020588Y0185339D01*
X0020551Y0185191D01*
X0020510Y0185043D01*
X0020465Y0184897D01*
X0020416Y0184751D01*
X0020363Y0184607D01*
X0020307Y0184465D01*
X0020247Y0184324D01*
X0020183Y0184184D01*
X0020116Y0184046D01*
X0020045Y0183910D01*
X0019970Y0183776D01*
X0019893Y0183644D01*
X0019811Y0183514D01*
X0019727Y0183386D01*
X0019639Y0183260D01*
X0019548Y0183137D01*
X0019454Y0183016D01*
X0019356Y0182898D01*
X0019256Y0182782D01*
X0019152Y0182669D01*
X0019046Y0182558D01*
X0018937Y0182450D01*
X0018825Y0182345D01*
X0018711Y0182244D01*
X0018593Y0182145D01*
X0018474Y0182049D01*
X0018352Y0181956D01*
X0018227Y0181867D01*
X0018100Y0181780D01*
X0017971Y0181698D01*
X0017840Y0181618D01*
X0017707Y0181542D01*
X0017572Y0181469D01*
X0017435Y0181400D01*
X0017296Y0181335D01*
X0017156Y0181273D01*
X0017014Y0181215D01*
X0016871Y0181160D01*
X0016726Y0181109D01*
X0016580Y0181062D01*
X0016433Y0181019D01*
X0016285Y0180980D01*
X0016136Y0180944D01*
X0015986Y0180913D01*
X0015835Y0180885D01*
X0015684Y0180861D01*
X0015531Y0180841D01*
X0015379Y0180825D01*
X0015226Y0180813D01*
X0015073Y0180805D01*
X0014920Y0180801D01*
X0014766Y0180801D01*
X0014613Y0180805D01*
X0014460Y0180813D01*
X0014307Y0180825D01*
X0014155Y0180841D01*
X0014002Y0180861D01*
X0013851Y0180885D01*
X0013700Y0180913D01*
X0013550Y0180944D01*
X0013401Y0180980D01*
X0013253Y0181019D01*
X0013106Y0181062D01*
X0012960Y0181109D01*
X0012815Y0181160D01*
X0012672Y0181215D01*
X0012530Y0181273D01*
X0012390Y0181335D01*
X0012251Y0181400D01*
X0012114Y0181469D01*
X0011979Y0181542D01*
X0011846Y0181618D01*
X0011715Y0181698D01*
X0011586Y0181780D01*
X0011459Y0181867D01*
X0011334Y0181956D01*
X0011212Y0182049D01*
X0011093Y0182145D01*
X0010975Y0182244D01*
X0010861Y0182345D01*
X0010749Y0182450D01*
X0010640Y0182558D01*
X0010534Y0182669D01*
X0010430Y0182782D01*
X0010330Y0182898D01*
X0010232Y0183016D01*
X0010138Y0183137D01*
X0010047Y0183260D01*
X0009959Y0183386D01*
X0009875Y0183514D01*
X0009793Y0183644D01*
X0009716Y0183776D01*
X0009641Y0183910D01*
X0009570Y0184046D01*
X0009503Y0184184D01*
X0009439Y0184324D01*
X0009379Y0184465D01*
X0009323Y0184607D01*
X0009270Y0184751D01*
X0009221Y0184897D01*
X0009176Y0185043D01*
X0009135Y0185191D01*
X0009098Y0185339D01*
X0009064Y0185489D01*
X0009034Y0185640D01*
X0009009Y0185791D01*
X0008987Y0185942D01*
X0008969Y0186095D01*
X0008955Y0186247D01*
X0008945Y0186400D01*
X0008939Y0186554D01*
X0008937Y0186707D01*
X0080500Y0213550D02*
X0080502Y0213711D01*
X0080508Y0213871D01*
X0080518Y0214032D01*
X0080532Y0214192D01*
X0080550Y0214352D01*
X0080571Y0214511D01*
X0080597Y0214670D01*
X0080627Y0214828D01*
X0080660Y0214985D01*
X0080698Y0215142D01*
X0080739Y0215297D01*
X0080784Y0215451D01*
X0080833Y0215604D01*
X0080886Y0215756D01*
X0080942Y0215907D01*
X0081003Y0216056D01*
X0081066Y0216204D01*
X0081134Y0216350D01*
X0081205Y0216494D01*
X0081279Y0216636D01*
X0081357Y0216777D01*
X0081439Y0216915D01*
X0081524Y0217052D01*
X0081612Y0217186D01*
X0081704Y0217318D01*
X0081799Y0217448D01*
X0081897Y0217576D01*
X0081998Y0217701D01*
X0082102Y0217823D01*
X0082209Y0217943D01*
X0082319Y0218060D01*
X0082432Y0218175D01*
X0082548Y0218286D01*
X0082667Y0218395D01*
X0082788Y0218500D01*
X0082912Y0218603D01*
X0083038Y0218703D01*
X0083166Y0218799D01*
X0083297Y0218892D01*
X0083431Y0218982D01*
X0083566Y0219069D01*
X0083704Y0219152D01*
X0083843Y0219232D01*
X0083985Y0219308D01*
X0084128Y0219381D01*
X0084273Y0219450D01*
X0084420Y0219516D01*
X0084568Y0219578D01*
X0084718Y0219636D01*
X0084869Y0219691D01*
X0085022Y0219742D01*
X0085176Y0219789D01*
X0085331Y0219832D01*
X0085487Y0219871D01*
X0085643Y0219907D01*
X0085801Y0219938D01*
X0085959Y0219966D01*
X0086118Y0219990D01*
X0086278Y0220010D01*
X0086438Y0220026D01*
X0086598Y0220038D01*
X0086759Y0220046D01*
X0086920Y0220050D01*
X0087080Y0220050D01*
X0087241Y0220046D01*
X0087402Y0220038D01*
X0087562Y0220026D01*
X0087722Y0220010D01*
X0087882Y0219990D01*
X0088041Y0219966D01*
X0088199Y0219938D01*
X0088357Y0219907D01*
X0088513Y0219871D01*
X0088669Y0219832D01*
X0088824Y0219789D01*
X0088978Y0219742D01*
X0089131Y0219691D01*
X0089282Y0219636D01*
X0089432Y0219578D01*
X0089580Y0219516D01*
X0089727Y0219450D01*
X0089872Y0219381D01*
X0090015Y0219308D01*
X0090157Y0219232D01*
X0090296Y0219152D01*
X0090434Y0219069D01*
X0090569Y0218982D01*
X0090703Y0218892D01*
X0090834Y0218799D01*
X0090962Y0218703D01*
X0091088Y0218603D01*
X0091212Y0218500D01*
X0091333Y0218395D01*
X0091452Y0218286D01*
X0091568Y0218175D01*
X0091681Y0218060D01*
X0091791Y0217943D01*
X0091898Y0217823D01*
X0092002Y0217701D01*
X0092103Y0217576D01*
X0092201Y0217448D01*
X0092296Y0217318D01*
X0092388Y0217186D01*
X0092476Y0217052D01*
X0092561Y0216915D01*
X0092643Y0216777D01*
X0092721Y0216636D01*
X0092795Y0216494D01*
X0092866Y0216350D01*
X0092934Y0216204D01*
X0092997Y0216056D01*
X0093058Y0215907D01*
X0093114Y0215756D01*
X0093167Y0215604D01*
X0093216Y0215451D01*
X0093261Y0215297D01*
X0093302Y0215142D01*
X0093340Y0214985D01*
X0093373Y0214828D01*
X0093403Y0214670D01*
X0093429Y0214511D01*
X0093450Y0214352D01*
X0093468Y0214192D01*
X0093482Y0214032D01*
X0093492Y0213871D01*
X0093498Y0213711D01*
X0093500Y0213550D01*
X0093498Y0213389D01*
X0093492Y0213229D01*
X0093482Y0213068D01*
X0093468Y0212908D01*
X0093450Y0212748D01*
X0093429Y0212589D01*
X0093403Y0212430D01*
X0093373Y0212272D01*
X0093340Y0212115D01*
X0093302Y0211958D01*
X0093261Y0211803D01*
X0093216Y0211649D01*
X0093167Y0211496D01*
X0093114Y0211344D01*
X0093058Y0211193D01*
X0092997Y0211044D01*
X0092934Y0210896D01*
X0092866Y0210750D01*
X0092795Y0210606D01*
X0092721Y0210464D01*
X0092643Y0210323D01*
X0092561Y0210185D01*
X0092476Y0210048D01*
X0092388Y0209914D01*
X0092296Y0209782D01*
X0092201Y0209652D01*
X0092103Y0209524D01*
X0092002Y0209399D01*
X0091898Y0209277D01*
X0091791Y0209157D01*
X0091681Y0209040D01*
X0091568Y0208925D01*
X0091452Y0208814D01*
X0091333Y0208705D01*
X0091212Y0208600D01*
X0091088Y0208497D01*
X0090962Y0208397D01*
X0090834Y0208301D01*
X0090703Y0208208D01*
X0090569Y0208118D01*
X0090434Y0208031D01*
X0090296Y0207948D01*
X0090157Y0207868D01*
X0090015Y0207792D01*
X0089872Y0207719D01*
X0089727Y0207650D01*
X0089580Y0207584D01*
X0089432Y0207522D01*
X0089282Y0207464D01*
X0089131Y0207409D01*
X0088978Y0207358D01*
X0088824Y0207311D01*
X0088669Y0207268D01*
X0088513Y0207229D01*
X0088357Y0207193D01*
X0088199Y0207162D01*
X0088041Y0207134D01*
X0087882Y0207110D01*
X0087722Y0207090D01*
X0087562Y0207074D01*
X0087402Y0207062D01*
X0087241Y0207054D01*
X0087080Y0207050D01*
X0086920Y0207050D01*
X0086759Y0207054D01*
X0086598Y0207062D01*
X0086438Y0207074D01*
X0086278Y0207090D01*
X0086118Y0207110D01*
X0085959Y0207134D01*
X0085801Y0207162D01*
X0085643Y0207193D01*
X0085487Y0207229D01*
X0085331Y0207268D01*
X0085176Y0207311D01*
X0085022Y0207358D01*
X0084869Y0207409D01*
X0084718Y0207464D01*
X0084568Y0207522D01*
X0084420Y0207584D01*
X0084273Y0207650D01*
X0084128Y0207719D01*
X0083985Y0207792D01*
X0083843Y0207868D01*
X0083704Y0207948D01*
X0083566Y0208031D01*
X0083431Y0208118D01*
X0083297Y0208208D01*
X0083166Y0208301D01*
X0083038Y0208397D01*
X0082912Y0208497D01*
X0082788Y0208600D01*
X0082667Y0208705D01*
X0082548Y0208814D01*
X0082432Y0208925D01*
X0082319Y0209040D01*
X0082209Y0209157D01*
X0082102Y0209277D01*
X0081998Y0209399D01*
X0081897Y0209524D01*
X0081799Y0209652D01*
X0081704Y0209782D01*
X0081612Y0209914D01*
X0081524Y0210048D01*
X0081439Y0210185D01*
X0081357Y0210323D01*
X0081279Y0210464D01*
X0081205Y0210606D01*
X0081134Y0210750D01*
X0081066Y0210896D01*
X0081003Y0211044D01*
X0080942Y0211193D01*
X0080886Y0211344D01*
X0080833Y0211496D01*
X0080784Y0211649D01*
X0080739Y0211803D01*
X0080698Y0211958D01*
X0080660Y0212115D01*
X0080627Y0212272D01*
X0080597Y0212430D01*
X0080571Y0212589D01*
X0080550Y0212748D01*
X0080532Y0212908D01*
X0080518Y0213068D01*
X0080508Y0213229D01*
X0080502Y0213389D01*
X0080500Y0213550D01*
X0180500Y0213550D02*
X0180502Y0213711D01*
X0180508Y0213871D01*
X0180518Y0214032D01*
X0180532Y0214192D01*
X0180550Y0214352D01*
X0180571Y0214511D01*
X0180597Y0214670D01*
X0180627Y0214828D01*
X0180660Y0214985D01*
X0180698Y0215142D01*
X0180739Y0215297D01*
X0180784Y0215451D01*
X0180833Y0215604D01*
X0180886Y0215756D01*
X0180942Y0215907D01*
X0181003Y0216056D01*
X0181066Y0216204D01*
X0181134Y0216350D01*
X0181205Y0216494D01*
X0181279Y0216636D01*
X0181357Y0216777D01*
X0181439Y0216915D01*
X0181524Y0217052D01*
X0181612Y0217186D01*
X0181704Y0217318D01*
X0181799Y0217448D01*
X0181897Y0217576D01*
X0181998Y0217701D01*
X0182102Y0217823D01*
X0182209Y0217943D01*
X0182319Y0218060D01*
X0182432Y0218175D01*
X0182548Y0218286D01*
X0182667Y0218395D01*
X0182788Y0218500D01*
X0182912Y0218603D01*
X0183038Y0218703D01*
X0183166Y0218799D01*
X0183297Y0218892D01*
X0183431Y0218982D01*
X0183566Y0219069D01*
X0183704Y0219152D01*
X0183843Y0219232D01*
X0183985Y0219308D01*
X0184128Y0219381D01*
X0184273Y0219450D01*
X0184420Y0219516D01*
X0184568Y0219578D01*
X0184718Y0219636D01*
X0184869Y0219691D01*
X0185022Y0219742D01*
X0185176Y0219789D01*
X0185331Y0219832D01*
X0185487Y0219871D01*
X0185643Y0219907D01*
X0185801Y0219938D01*
X0185959Y0219966D01*
X0186118Y0219990D01*
X0186278Y0220010D01*
X0186438Y0220026D01*
X0186598Y0220038D01*
X0186759Y0220046D01*
X0186920Y0220050D01*
X0187080Y0220050D01*
X0187241Y0220046D01*
X0187402Y0220038D01*
X0187562Y0220026D01*
X0187722Y0220010D01*
X0187882Y0219990D01*
X0188041Y0219966D01*
X0188199Y0219938D01*
X0188357Y0219907D01*
X0188513Y0219871D01*
X0188669Y0219832D01*
X0188824Y0219789D01*
X0188978Y0219742D01*
X0189131Y0219691D01*
X0189282Y0219636D01*
X0189432Y0219578D01*
X0189580Y0219516D01*
X0189727Y0219450D01*
X0189872Y0219381D01*
X0190015Y0219308D01*
X0190157Y0219232D01*
X0190296Y0219152D01*
X0190434Y0219069D01*
X0190569Y0218982D01*
X0190703Y0218892D01*
X0190834Y0218799D01*
X0190962Y0218703D01*
X0191088Y0218603D01*
X0191212Y0218500D01*
X0191333Y0218395D01*
X0191452Y0218286D01*
X0191568Y0218175D01*
X0191681Y0218060D01*
X0191791Y0217943D01*
X0191898Y0217823D01*
X0192002Y0217701D01*
X0192103Y0217576D01*
X0192201Y0217448D01*
X0192296Y0217318D01*
X0192388Y0217186D01*
X0192476Y0217052D01*
X0192561Y0216915D01*
X0192643Y0216777D01*
X0192721Y0216636D01*
X0192795Y0216494D01*
X0192866Y0216350D01*
X0192934Y0216204D01*
X0192997Y0216056D01*
X0193058Y0215907D01*
X0193114Y0215756D01*
X0193167Y0215604D01*
X0193216Y0215451D01*
X0193261Y0215297D01*
X0193302Y0215142D01*
X0193340Y0214985D01*
X0193373Y0214828D01*
X0193403Y0214670D01*
X0193429Y0214511D01*
X0193450Y0214352D01*
X0193468Y0214192D01*
X0193482Y0214032D01*
X0193492Y0213871D01*
X0193498Y0213711D01*
X0193500Y0213550D01*
X0193498Y0213389D01*
X0193492Y0213229D01*
X0193482Y0213068D01*
X0193468Y0212908D01*
X0193450Y0212748D01*
X0193429Y0212589D01*
X0193403Y0212430D01*
X0193373Y0212272D01*
X0193340Y0212115D01*
X0193302Y0211958D01*
X0193261Y0211803D01*
X0193216Y0211649D01*
X0193167Y0211496D01*
X0193114Y0211344D01*
X0193058Y0211193D01*
X0192997Y0211044D01*
X0192934Y0210896D01*
X0192866Y0210750D01*
X0192795Y0210606D01*
X0192721Y0210464D01*
X0192643Y0210323D01*
X0192561Y0210185D01*
X0192476Y0210048D01*
X0192388Y0209914D01*
X0192296Y0209782D01*
X0192201Y0209652D01*
X0192103Y0209524D01*
X0192002Y0209399D01*
X0191898Y0209277D01*
X0191791Y0209157D01*
X0191681Y0209040D01*
X0191568Y0208925D01*
X0191452Y0208814D01*
X0191333Y0208705D01*
X0191212Y0208600D01*
X0191088Y0208497D01*
X0190962Y0208397D01*
X0190834Y0208301D01*
X0190703Y0208208D01*
X0190569Y0208118D01*
X0190434Y0208031D01*
X0190296Y0207948D01*
X0190157Y0207868D01*
X0190015Y0207792D01*
X0189872Y0207719D01*
X0189727Y0207650D01*
X0189580Y0207584D01*
X0189432Y0207522D01*
X0189282Y0207464D01*
X0189131Y0207409D01*
X0188978Y0207358D01*
X0188824Y0207311D01*
X0188669Y0207268D01*
X0188513Y0207229D01*
X0188357Y0207193D01*
X0188199Y0207162D01*
X0188041Y0207134D01*
X0187882Y0207110D01*
X0187722Y0207090D01*
X0187562Y0207074D01*
X0187402Y0207062D01*
X0187241Y0207054D01*
X0187080Y0207050D01*
X0186920Y0207050D01*
X0186759Y0207054D01*
X0186598Y0207062D01*
X0186438Y0207074D01*
X0186278Y0207090D01*
X0186118Y0207110D01*
X0185959Y0207134D01*
X0185801Y0207162D01*
X0185643Y0207193D01*
X0185487Y0207229D01*
X0185331Y0207268D01*
X0185176Y0207311D01*
X0185022Y0207358D01*
X0184869Y0207409D01*
X0184718Y0207464D01*
X0184568Y0207522D01*
X0184420Y0207584D01*
X0184273Y0207650D01*
X0184128Y0207719D01*
X0183985Y0207792D01*
X0183843Y0207868D01*
X0183704Y0207948D01*
X0183566Y0208031D01*
X0183431Y0208118D01*
X0183297Y0208208D01*
X0183166Y0208301D01*
X0183038Y0208397D01*
X0182912Y0208497D01*
X0182788Y0208600D01*
X0182667Y0208705D01*
X0182548Y0208814D01*
X0182432Y0208925D01*
X0182319Y0209040D01*
X0182209Y0209157D01*
X0182102Y0209277D01*
X0181998Y0209399D01*
X0181897Y0209524D01*
X0181799Y0209652D01*
X0181704Y0209782D01*
X0181612Y0209914D01*
X0181524Y0210048D01*
X0181439Y0210185D01*
X0181357Y0210323D01*
X0181279Y0210464D01*
X0181205Y0210606D01*
X0181134Y0210750D01*
X0181066Y0210896D01*
X0181003Y0211044D01*
X0180942Y0211193D01*
X0180886Y0211344D01*
X0180833Y0211496D01*
X0180784Y0211649D01*
X0180739Y0211803D01*
X0180698Y0211958D01*
X0180660Y0212115D01*
X0180627Y0212272D01*
X0180597Y0212430D01*
X0180571Y0212589D01*
X0180550Y0212748D01*
X0180532Y0212908D01*
X0180518Y0213068D01*
X0180508Y0213229D01*
X0180502Y0213389D01*
X0180500Y0213550D01*
X0201850Y0186707D02*
X0201852Y0186860D01*
X0201858Y0187014D01*
X0201868Y0187167D01*
X0201882Y0187319D01*
X0201900Y0187472D01*
X0201922Y0187623D01*
X0201947Y0187774D01*
X0201977Y0187925D01*
X0202011Y0188075D01*
X0202048Y0188223D01*
X0202089Y0188371D01*
X0202134Y0188517D01*
X0202183Y0188663D01*
X0202236Y0188807D01*
X0202292Y0188949D01*
X0202352Y0189090D01*
X0202416Y0189230D01*
X0202483Y0189368D01*
X0202554Y0189504D01*
X0202629Y0189638D01*
X0202706Y0189770D01*
X0202788Y0189900D01*
X0202872Y0190028D01*
X0202960Y0190154D01*
X0203051Y0190277D01*
X0203145Y0190398D01*
X0203243Y0190516D01*
X0203343Y0190632D01*
X0203447Y0190745D01*
X0203553Y0190856D01*
X0203662Y0190964D01*
X0203774Y0191069D01*
X0203888Y0191170D01*
X0204006Y0191269D01*
X0204125Y0191365D01*
X0204247Y0191458D01*
X0204372Y0191547D01*
X0204499Y0191634D01*
X0204628Y0191716D01*
X0204759Y0191796D01*
X0204892Y0191872D01*
X0205027Y0191945D01*
X0205164Y0192014D01*
X0205303Y0192079D01*
X0205443Y0192141D01*
X0205585Y0192199D01*
X0205728Y0192254D01*
X0205873Y0192305D01*
X0206019Y0192352D01*
X0206166Y0192395D01*
X0206314Y0192434D01*
X0206463Y0192470D01*
X0206613Y0192501D01*
X0206764Y0192529D01*
X0206915Y0192553D01*
X0207068Y0192573D01*
X0207220Y0192589D01*
X0207373Y0192601D01*
X0207526Y0192609D01*
X0207679Y0192613D01*
X0207833Y0192613D01*
X0207986Y0192609D01*
X0208139Y0192601D01*
X0208292Y0192589D01*
X0208444Y0192573D01*
X0208597Y0192553D01*
X0208748Y0192529D01*
X0208899Y0192501D01*
X0209049Y0192470D01*
X0209198Y0192434D01*
X0209346Y0192395D01*
X0209493Y0192352D01*
X0209639Y0192305D01*
X0209784Y0192254D01*
X0209927Y0192199D01*
X0210069Y0192141D01*
X0210209Y0192079D01*
X0210348Y0192014D01*
X0210485Y0191945D01*
X0210620Y0191872D01*
X0210753Y0191796D01*
X0210884Y0191716D01*
X0211013Y0191634D01*
X0211140Y0191547D01*
X0211265Y0191458D01*
X0211387Y0191365D01*
X0211506Y0191269D01*
X0211624Y0191170D01*
X0211738Y0191069D01*
X0211850Y0190964D01*
X0211959Y0190856D01*
X0212065Y0190745D01*
X0212169Y0190632D01*
X0212269Y0190516D01*
X0212367Y0190398D01*
X0212461Y0190277D01*
X0212552Y0190154D01*
X0212640Y0190028D01*
X0212724Y0189900D01*
X0212806Y0189770D01*
X0212883Y0189638D01*
X0212958Y0189504D01*
X0213029Y0189368D01*
X0213096Y0189230D01*
X0213160Y0189090D01*
X0213220Y0188949D01*
X0213276Y0188807D01*
X0213329Y0188663D01*
X0213378Y0188517D01*
X0213423Y0188371D01*
X0213464Y0188223D01*
X0213501Y0188075D01*
X0213535Y0187925D01*
X0213565Y0187774D01*
X0213590Y0187623D01*
X0213612Y0187472D01*
X0213630Y0187319D01*
X0213644Y0187167D01*
X0213654Y0187014D01*
X0213660Y0186860D01*
X0213662Y0186707D01*
X0213660Y0186554D01*
X0213654Y0186400D01*
X0213644Y0186247D01*
X0213630Y0186095D01*
X0213612Y0185942D01*
X0213590Y0185791D01*
X0213565Y0185640D01*
X0213535Y0185489D01*
X0213501Y0185339D01*
X0213464Y0185191D01*
X0213423Y0185043D01*
X0213378Y0184897D01*
X0213329Y0184751D01*
X0213276Y0184607D01*
X0213220Y0184465D01*
X0213160Y0184324D01*
X0213096Y0184184D01*
X0213029Y0184046D01*
X0212958Y0183910D01*
X0212883Y0183776D01*
X0212806Y0183644D01*
X0212724Y0183514D01*
X0212640Y0183386D01*
X0212552Y0183260D01*
X0212461Y0183137D01*
X0212367Y0183016D01*
X0212269Y0182898D01*
X0212169Y0182782D01*
X0212065Y0182669D01*
X0211959Y0182558D01*
X0211850Y0182450D01*
X0211738Y0182345D01*
X0211624Y0182244D01*
X0211506Y0182145D01*
X0211387Y0182049D01*
X0211265Y0181956D01*
X0211140Y0181867D01*
X0211013Y0181780D01*
X0210884Y0181698D01*
X0210753Y0181618D01*
X0210620Y0181542D01*
X0210485Y0181469D01*
X0210348Y0181400D01*
X0210209Y0181335D01*
X0210069Y0181273D01*
X0209927Y0181215D01*
X0209784Y0181160D01*
X0209639Y0181109D01*
X0209493Y0181062D01*
X0209346Y0181019D01*
X0209198Y0180980D01*
X0209049Y0180944D01*
X0208899Y0180913D01*
X0208748Y0180885D01*
X0208597Y0180861D01*
X0208444Y0180841D01*
X0208292Y0180825D01*
X0208139Y0180813D01*
X0207986Y0180805D01*
X0207833Y0180801D01*
X0207679Y0180801D01*
X0207526Y0180805D01*
X0207373Y0180813D01*
X0207220Y0180825D01*
X0207068Y0180841D01*
X0206915Y0180861D01*
X0206764Y0180885D01*
X0206613Y0180913D01*
X0206463Y0180944D01*
X0206314Y0180980D01*
X0206166Y0181019D01*
X0206019Y0181062D01*
X0205873Y0181109D01*
X0205728Y0181160D01*
X0205585Y0181215D01*
X0205443Y0181273D01*
X0205303Y0181335D01*
X0205164Y0181400D01*
X0205027Y0181469D01*
X0204892Y0181542D01*
X0204759Y0181618D01*
X0204628Y0181698D01*
X0204499Y0181780D01*
X0204372Y0181867D01*
X0204247Y0181956D01*
X0204125Y0182049D01*
X0204006Y0182145D01*
X0203888Y0182244D01*
X0203774Y0182345D01*
X0203662Y0182450D01*
X0203553Y0182558D01*
X0203447Y0182669D01*
X0203343Y0182782D01*
X0203243Y0182898D01*
X0203145Y0183016D01*
X0203051Y0183137D01*
X0202960Y0183260D01*
X0202872Y0183386D01*
X0202788Y0183514D01*
X0202706Y0183644D01*
X0202629Y0183776D01*
X0202554Y0183910D01*
X0202483Y0184046D01*
X0202416Y0184184D01*
X0202352Y0184324D01*
X0202292Y0184465D01*
X0202236Y0184607D01*
X0202183Y0184751D01*
X0202134Y0184897D01*
X0202089Y0185043D01*
X0202048Y0185191D01*
X0202011Y0185339D01*
X0201977Y0185489D01*
X0201947Y0185640D01*
X0201922Y0185791D01*
X0201900Y0185942D01*
X0201882Y0186095D01*
X0201868Y0186247D01*
X0201858Y0186400D01*
X0201852Y0186554D01*
X0201850Y0186707D01*
X0201850Y0096156D02*
X0201852Y0096309D01*
X0201858Y0096463D01*
X0201868Y0096616D01*
X0201882Y0096768D01*
X0201900Y0096921D01*
X0201922Y0097072D01*
X0201947Y0097223D01*
X0201977Y0097374D01*
X0202011Y0097524D01*
X0202048Y0097672D01*
X0202089Y0097820D01*
X0202134Y0097966D01*
X0202183Y0098112D01*
X0202236Y0098256D01*
X0202292Y0098398D01*
X0202352Y0098539D01*
X0202416Y0098679D01*
X0202483Y0098817D01*
X0202554Y0098953D01*
X0202629Y0099087D01*
X0202706Y0099219D01*
X0202788Y0099349D01*
X0202872Y0099477D01*
X0202960Y0099603D01*
X0203051Y0099726D01*
X0203145Y0099847D01*
X0203243Y0099965D01*
X0203343Y0100081D01*
X0203447Y0100194D01*
X0203553Y0100305D01*
X0203662Y0100413D01*
X0203774Y0100518D01*
X0203888Y0100619D01*
X0204006Y0100718D01*
X0204125Y0100814D01*
X0204247Y0100907D01*
X0204372Y0100996D01*
X0204499Y0101083D01*
X0204628Y0101165D01*
X0204759Y0101245D01*
X0204892Y0101321D01*
X0205027Y0101394D01*
X0205164Y0101463D01*
X0205303Y0101528D01*
X0205443Y0101590D01*
X0205585Y0101648D01*
X0205728Y0101703D01*
X0205873Y0101754D01*
X0206019Y0101801D01*
X0206166Y0101844D01*
X0206314Y0101883D01*
X0206463Y0101919D01*
X0206613Y0101950D01*
X0206764Y0101978D01*
X0206915Y0102002D01*
X0207068Y0102022D01*
X0207220Y0102038D01*
X0207373Y0102050D01*
X0207526Y0102058D01*
X0207679Y0102062D01*
X0207833Y0102062D01*
X0207986Y0102058D01*
X0208139Y0102050D01*
X0208292Y0102038D01*
X0208444Y0102022D01*
X0208597Y0102002D01*
X0208748Y0101978D01*
X0208899Y0101950D01*
X0209049Y0101919D01*
X0209198Y0101883D01*
X0209346Y0101844D01*
X0209493Y0101801D01*
X0209639Y0101754D01*
X0209784Y0101703D01*
X0209927Y0101648D01*
X0210069Y0101590D01*
X0210209Y0101528D01*
X0210348Y0101463D01*
X0210485Y0101394D01*
X0210620Y0101321D01*
X0210753Y0101245D01*
X0210884Y0101165D01*
X0211013Y0101083D01*
X0211140Y0100996D01*
X0211265Y0100907D01*
X0211387Y0100814D01*
X0211506Y0100718D01*
X0211624Y0100619D01*
X0211738Y0100518D01*
X0211850Y0100413D01*
X0211959Y0100305D01*
X0212065Y0100194D01*
X0212169Y0100081D01*
X0212269Y0099965D01*
X0212367Y0099847D01*
X0212461Y0099726D01*
X0212552Y0099603D01*
X0212640Y0099477D01*
X0212724Y0099349D01*
X0212806Y0099219D01*
X0212883Y0099087D01*
X0212958Y0098953D01*
X0213029Y0098817D01*
X0213096Y0098679D01*
X0213160Y0098539D01*
X0213220Y0098398D01*
X0213276Y0098256D01*
X0213329Y0098112D01*
X0213378Y0097966D01*
X0213423Y0097820D01*
X0213464Y0097672D01*
X0213501Y0097524D01*
X0213535Y0097374D01*
X0213565Y0097223D01*
X0213590Y0097072D01*
X0213612Y0096921D01*
X0213630Y0096768D01*
X0213644Y0096616D01*
X0213654Y0096463D01*
X0213660Y0096309D01*
X0213662Y0096156D01*
X0213660Y0096003D01*
X0213654Y0095849D01*
X0213644Y0095696D01*
X0213630Y0095544D01*
X0213612Y0095391D01*
X0213590Y0095240D01*
X0213565Y0095089D01*
X0213535Y0094938D01*
X0213501Y0094788D01*
X0213464Y0094640D01*
X0213423Y0094492D01*
X0213378Y0094346D01*
X0213329Y0094200D01*
X0213276Y0094056D01*
X0213220Y0093914D01*
X0213160Y0093773D01*
X0213096Y0093633D01*
X0213029Y0093495D01*
X0212958Y0093359D01*
X0212883Y0093225D01*
X0212806Y0093093D01*
X0212724Y0092963D01*
X0212640Y0092835D01*
X0212552Y0092709D01*
X0212461Y0092586D01*
X0212367Y0092465D01*
X0212269Y0092347D01*
X0212169Y0092231D01*
X0212065Y0092118D01*
X0211959Y0092007D01*
X0211850Y0091899D01*
X0211738Y0091794D01*
X0211624Y0091693D01*
X0211506Y0091594D01*
X0211387Y0091498D01*
X0211265Y0091405D01*
X0211140Y0091316D01*
X0211013Y0091229D01*
X0210884Y0091147D01*
X0210753Y0091067D01*
X0210620Y0090991D01*
X0210485Y0090918D01*
X0210348Y0090849D01*
X0210209Y0090784D01*
X0210069Y0090722D01*
X0209927Y0090664D01*
X0209784Y0090609D01*
X0209639Y0090558D01*
X0209493Y0090511D01*
X0209346Y0090468D01*
X0209198Y0090429D01*
X0209049Y0090393D01*
X0208899Y0090362D01*
X0208748Y0090334D01*
X0208597Y0090310D01*
X0208444Y0090290D01*
X0208292Y0090274D01*
X0208139Y0090262D01*
X0207986Y0090254D01*
X0207833Y0090250D01*
X0207679Y0090250D01*
X0207526Y0090254D01*
X0207373Y0090262D01*
X0207220Y0090274D01*
X0207068Y0090290D01*
X0206915Y0090310D01*
X0206764Y0090334D01*
X0206613Y0090362D01*
X0206463Y0090393D01*
X0206314Y0090429D01*
X0206166Y0090468D01*
X0206019Y0090511D01*
X0205873Y0090558D01*
X0205728Y0090609D01*
X0205585Y0090664D01*
X0205443Y0090722D01*
X0205303Y0090784D01*
X0205164Y0090849D01*
X0205027Y0090918D01*
X0204892Y0090991D01*
X0204759Y0091067D01*
X0204628Y0091147D01*
X0204499Y0091229D01*
X0204372Y0091316D01*
X0204247Y0091405D01*
X0204125Y0091498D01*
X0204006Y0091594D01*
X0203888Y0091693D01*
X0203774Y0091794D01*
X0203662Y0091899D01*
X0203553Y0092007D01*
X0203447Y0092118D01*
X0203343Y0092231D01*
X0203243Y0092347D01*
X0203145Y0092465D01*
X0203051Y0092586D01*
X0202960Y0092709D01*
X0202872Y0092835D01*
X0202788Y0092963D01*
X0202706Y0093093D01*
X0202629Y0093225D01*
X0202554Y0093359D01*
X0202483Y0093495D01*
X0202416Y0093633D01*
X0202352Y0093773D01*
X0202292Y0093914D01*
X0202236Y0094056D01*
X0202183Y0094200D01*
X0202134Y0094346D01*
X0202089Y0094492D01*
X0202048Y0094640D01*
X0202011Y0094788D01*
X0201977Y0094938D01*
X0201947Y0095089D01*
X0201922Y0095240D01*
X0201900Y0095391D01*
X0201882Y0095544D01*
X0201868Y0095696D01*
X0201858Y0095849D01*
X0201852Y0096003D01*
X0201850Y0096156D01*
M02*
