M48
;GenerationSoftware,Autodesk,EAGLE,9.3.0*%
;CreationDate,2021-02-18T05:07:47Z*%
FMAT,2
ICI,OFF
METRIC,TZ,000.000
T10C0.300
T9C0.350
T8C0.381
T7C0.400
T6C0.914
T5C1.000
T4C1.016
T3C2.286
T2C2.667
T1C3.302
%
G90
M71
T1
X25400Y20447
X104115Y20244
X104013Y88773
X25425Y88824
T2
X79248Y102743
X123571Y73025
X87122Y102743
X123571Y65151
X123571Y45466
X123571Y37592
T3
X10807Y63170
X10807Y51130
T4
X48387Y8763
X58420Y8763
X63500Y8763
X66040Y8763
X60960Y8763
X40767Y8763
X43307Y8763
X45847Y8763
T5
X19050Y7239
X21590Y7239
X24130Y7239
X19050Y9779
X21590Y9779
X24130Y9779
T6
X15506Y58400
X13525Y58400
X13525Y55900
X15506Y55900
T7
X45974Y56134
X65151Y37846
X65151Y54102
T8
X78867Y82550
X80010Y87757
X75692Y87757
X73406Y90678
X73406Y94742
X101092Y98933
X101219Y94996
X101346Y82931
X51943Y82423
X55372Y86741
X58801Y82296
X38608Y78232
X46355Y78232
X53594Y77978
X62103Y78105
X70993Y77851
X70612Y69215
X61976Y67310
X55245Y68453
X51054Y68580
X48387Y66294
X38735Y68453
X66675Y49911
X66675Y45974
X66675Y43434
X66802Y40386
X62992Y40386
X62992Y43307
X62992Y45974
X63373Y49784
X60452Y49784
X63881Y55626
X67183Y53975
X69215Y55753
X63500Y51943
X60325Y51816
X52705Y40640
X54483Y40640
X54610Y38735
X52832Y38735
X45847Y38354
X44450Y36703
X43307Y34925
X42164Y33528
X43815Y33020
X45339Y34671
X46101Y36703
X42926Y42672
X45085Y42672
X45212Y45212
X40640Y40767
X38354Y38481
X36703Y40640
X39497Y43053
X39370Y45847
X36576Y45974
X36322Y43434
X33909Y41783
X36830Y49530
X43180Y55499
X41021Y55372
X46482Y51943
X43561Y59690
X40894Y59690
X44704Y63246
X41148Y63246
X24511Y48387
X27686Y48387
X24003Y66040
X27813Y66167
X29464Y64389
X22606Y64262
X22860Y49784
X29337Y49657
X32004Y27940
X33782Y28067
X34671Y26797
X34925Y25146
X37211Y22098
X55499Y25654
X55499Y23622
X55499Y21844
X55499Y20066
X50800Y20066
X50800Y21844
X50673Y23622
X50546Y25400
X33274Y58928
X33274Y55118
X58928Y53848
X61468Y53848
X55753Y58674
X52832Y59055
X52070Y58293
X53594Y55499
X55626Y55499
X55626Y57150
X54102Y57150
X79248Y76581
X112395Y78740
X110109Y78740
X107823Y78740
X52197Y62992
X56388Y62230
X46355Y59665
X30099Y33909
X40259Y31369
X37681Y33909
X42545Y37465
X85979Y33528
X84328Y34798
X84328Y33401
X84201Y31877
X85979Y32004
X86360Y29083
X84201Y28702
X84963Y27178
X86995Y27559
X88773Y27051
X89027Y25400
X87503Y25527
X86233Y26289
X86106Y30607
X89662Y84455
X89662Y82169
X89662Y80137
X89662Y77597
X105410Y78740
X88773Y47117
X86741Y47117
X84836Y47117
X84963Y48895
X88773Y49022
X90551Y49022
X90551Y51054
X88646Y51054
X86614Y52324
X84963Y53848
X84963Y57404
X84963Y52197
X86487Y56642
X87757Y84328
X87884Y80772
X88138Y78486
X88011Y74930
X40005Y49530
X36830Y52070
X105156Y58039
X107442Y58166
X109601Y58039
X111887Y58166
X111887Y50927
X109474Y50927
X106680Y50927
X104648Y50927
X105283Y30480
X107569Y30607
X109474Y30353
X111379Y30480
X78740Y31115
X78613Y29083
X78486Y26924
X78613Y24511
X76073Y24384
X76073Y26924
X76200Y29210
X76327Y31115
X81915Y42418
X81788Y44958
X80137Y48260
X77470Y48006
X77470Y50673
X77470Y53340
X77597Y55880
X81788Y67691
X89789Y75184
T9
X41402Y35052
X86995Y57912
X86868Y54991
X86868Y50165
X86106Y34925
X84963Y30226
X48260Y61722
X48641Y58928
X85725Y24765
X44958Y39878
X60071Y64770
X46101Y48641
X45085Y49149
X68961Y42164
X63627Y57658
X67564Y61595
X66167Y56642
X71247Y42164
X63500Y35052
X63500Y29337
X68961Y50165
X55880Y49911
X55245Y35560
X66040Y33274
X66040Y29337
X61341Y35560
X48387Y29845
X45847Y32385
X45847Y29845
X56642Y51181
X56642Y37846
X48387Y34925
X55474Y61697
X47117Y63119
X44069Y49657
X47625Y55372
X42164Y50927
X40132Y38100
X43053Y50292
X42926Y44958
T10
X57658Y49784
X81153Y39116
X82677Y39116
X81153Y38100
X82677Y38100
X81153Y37084
X82677Y59944
X81153Y61976
X82677Y61976
X81153Y60960
X82677Y60960
X81153Y59944
X82677Y37084
M30