G04 EAGLE Gerber RS-274X export*
G75*
%MOMM*%
%FSLAX34Y34*%
%LPD*%
%INSilkscreen Top*%
%IPPOS*%
%AMOC8*
5,1,8,0,0,1.08239X$1,22.5*%
G01*
%ADD10C,0.152400*%
%ADD11C,0.203200*%
%ADD12C,0.076200*%
%ADD13C,0.127000*%
%ADD14C,0.406400*%

G36*
X256538Y372470D02*
X256538Y372470D01*
X256540Y372469D01*
X256583Y372489D01*
X256627Y372507D01*
X256627Y372509D01*
X256629Y372510D01*
X256662Y372595D01*
X256662Y376405D01*
X256661Y376407D01*
X256662Y376409D01*
X256642Y376452D01*
X256624Y376496D01*
X256622Y376496D01*
X256621Y376498D01*
X256536Y376531D01*
X253996Y376531D01*
X253994Y376530D01*
X253992Y376531D01*
X253949Y376511D01*
X253905Y376493D01*
X253905Y376491D01*
X253903Y376490D01*
X253870Y376405D01*
X253870Y372595D01*
X253871Y372593D01*
X253870Y372591D01*
X253890Y372548D01*
X253908Y372504D01*
X253910Y372504D01*
X253911Y372502D01*
X253996Y372469D01*
X256536Y372469D01*
X256538Y372470D01*
G37*
D10*
X148082Y64262D02*
X164338Y69681D01*
X148082Y75099D01*
X164338Y84369D02*
X164338Y87982D01*
X164338Y84369D02*
X164336Y84251D01*
X164330Y84133D01*
X164321Y84015D01*
X164307Y83898D01*
X164290Y83781D01*
X164269Y83664D01*
X164244Y83549D01*
X164215Y83434D01*
X164182Y83320D01*
X164146Y83208D01*
X164106Y83097D01*
X164063Y82987D01*
X164016Y82878D01*
X163966Y82771D01*
X163911Y82666D01*
X163854Y82563D01*
X163793Y82462D01*
X163729Y82362D01*
X163662Y82265D01*
X163592Y82170D01*
X163518Y82078D01*
X163442Y81987D01*
X163362Y81900D01*
X163280Y81815D01*
X163195Y81733D01*
X163108Y81653D01*
X163017Y81577D01*
X162925Y81503D01*
X162830Y81433D01*
X162733Y81366D01*
X162633Y81302D01*
X162532Y81241D01*
X162429Y81184D01*
X162324Y81129D01*
X162217Y81079D01*
X162108Y81032D01*
X161998Y80989D01*
X161887Y80949D01*
X161775Y80913D01*
X161661Y80880D01*
X161546Y80851D01*
X161431Y80826D01*
X161314Y80805D01*
X161197Y80788D01*
X161080Y80774D01*
X160962Y80765D01*
X160844Y80759D01*
X160726Y80757D01*
X151694Y80757D01*
X151694Y80756D02*
X151576Y80758D01*
X151458Y80764D01*
X151340Y80773D01*
X151222Y80787D01*
X151105Y80804D01*
X150989Y80825D01*
X150874Y80850D01*
X150759Y80879D01*
X150645Y80912D01*
X150533Y80948D01*
X150421Y80988D01*
X150311Y81031D01*
X150203Y81078D01*
X150096Y81129D01*
X149991Y81183D01*
X149888Y81240D01*
X149786Y81301D01*
X149687Y81365D01*
X149590Y81432D01*
X149495Y81503D01*
X149402Y81576D01*
X149312Y81653D01*
X149224Y81732D01*
X149139Y81814D01*
X149057Y81899D01*
X148978Y81987D01*
X148901Y82077D01*
X148828Y82170D01*
X148757Y82264D01*
X148690Y82362D01*
X148626Y82461D01*
X148565Y82562D01*
X148508Y82666D01*
X148454Y82771D01*
X148403Y82878D01*
X148356Y82986D01*
X148313Y83096D01*
X148273Y83208D01*
X148237Y83320D01*
X148204Y83434D01*
X148175Y83549D01*
X148150Y83664D01*
X148129Y83780D01*
X148112Y83897D01*
X148098Y84015D01*
X148089Y84133D01*
X148083Y84251D01*
X148081Y84369D01*
X148082Y84369D02*
X148082Y87982D01*
X148082Y94482D02*
X164338Y94482D01*
X157113Y99901D02*
X148082Y94482D01*
X157113Y99901D02*
X148082Y105320D01*
X164338Y105320D01*
X148082Y117547D02*
X148084Y117672D01*
X148090Y117797D01*
X148099Y117922D01*
X148113Y118046D01*
X148130Y118170D01*
X148151Y118294D01*
X148176Y118416D01*
X148205Y118538D01*
X148237Y118659D01*
X148273Y118779D01*
X148313Y118898D01*
X148356Y119015D01*
X148403Y119131D01*
X148454Y119246D01*
X148508Y119358D01*
X148566Y119470D01*
X148626Y119579D01*
X148691Y119686D01*
X148758Y119792D01*
X148829Y119895D01*
X148903Y119996D01*
X148980Y120095D01*
X149060Y120191D01*
X149143Y120285D01*
X149228Y120376D01*
X149317Y120465D01*
X149408Y120550D01*
X149502Y120633D01*
X149598Y120713D01*
X149697Y120790D01*
X149798Y120864D01*
X149901Y120935D01*
X150007Y121002D01*
X150114Y121067D01*
X150223Y121127D01*
X150335Y121185D01*
X150447Y121239D01*
X150562Y121290D01*
X150678Y121337D01*
X150795Y121380D01*
X150914Y121420D01*
X151034Y121456D01*
X151155Y121488D01*
X151277Y121517D01*
X151399Y121542D01*
X151523Y121563D01*
X151647Y121580D01*
X151771Y121594D01*
X151896Y121603D01*
X152021Y121609D01*
X152146Y121611D01*
X148082Y117547D02*
X148084Y117404D01*
X148090Y117262D01*
X148100Y117119D01*
X148113Y116977D01*
X148131Y116836D01*
X148152Y116694D01*
X148177Y116554D01*
X148206Y116414D01*
X148239Y116275D01*
X148276Y116137D01*
X148316Y116000D01*
X148360Y115865D01*
X148408Y115730D01*
X148460Y115597D01*
X148515Y115465D01*
X148574Y115335D01*
X148636Y115207D01*
X148702Y115080D01*
X148771Y114955D01*
X148843Y114832D01*
X148919Y114711D01*
X148998Y114593D01*
X149081Y114476D01*
X149166Y114362D01*
X149255Y114250D01*
X149346Y114141D01*
X149441Y114034D01*
X149538Y113929D01*
X149639Y113828D01*
X149742Y113729D01*
X149847Y113633D01*
X149956Y113540D01*
X150067Y113450D01*
X150180Y113363D01*
X150295Y113279D01*
X150413Y113199D01*
X150533Y113121D01*
X150655Y113047D01*
X150779Y112977D01*
X150905Y112909D01*
X151033Y112846D01*
X151162Y112785D01*
X151293Y112728D01*
X151425Y112675D01*
X151559Y112626D01*
X151694Y112580D01*
X155307Y120256D02*
X155215Y120350D01*
X155121Y120440D01*
X155024Y120528D01*
X154924Y120613D01*
X154822Y120695D01*
X154717Y120773D01*
X154610Y120849D01*
X154501Y120921D01*
X154390Y120990D01*
X154276Y121056D01*
X154161Y121118D01*
X154044Y121177D01*
X153925Y121232D01*
X153805Y121283D01*
X153683Y121331D01*
X153560Y121376D01*
X153436Y121416D01*
X153310Y121453D01*
X153183Y121486D01*
X153056Y121515D01*
X152927Y121541D01*
X152798Y121562D01*
X152668Y121580D01*
X152538Y121593D01*
X152408Y121603D01*
X152277Y121609D01*
X152146Y121611D01*
X155307Y120256D02*
X164338Y112580D01*
X164338Y121611D01*
X189738Y69681D02*
X173482Y64262D01*
X173482Y75099D02*
X189738Y69681D01*
X189738Y84369D02*
X189738Y87982D01*
X189738Y84369D02*
X189736Y84251D01*
X189730Y84133D01*
X189721Y84015D01*
X189707Y83898D01*
X189690Y83781D01*
X189669Y83664D01*
X189644Y83549D01*
X189615Y83434D01*
X189582Y83320D01*
X189546Y83208D01*
X189506Y83097D01*
X189463Y82987D01*
X189416Y82878D01*
X189366Y82771D01*
X189311Y82666D01*
X189254Y82563D01*
X189193Y82462D01*
X189129Y82362D01*
X189062Y82265D01*
X188992Y82170D01*
X188918Y82078D01*
X188842Y81987D01*
X188762Y81900D01*
X188680Y81815D01*
X188595Y81733D01*
X188508Y81653D01*
X188417Y81577D01*
X188325Y81503D01*
X188230Y81433D01*
X188133Y81366D01*
X188033Y81302D01*
X187932Y81241D01*
X187829Y81184D01*
X187724Y81129D01*
X187617Y81079D01*
X187508Y81032D01*
X187398Y80989D01*
X187287Y80949D01*
X187175Y80913D01*
X187061Y80880D01*
X186946Y80851D01*
X186831Y80826D01*
X186714Y80805D01*
X186597Y80788D01*
X186480Y80774D01*
X186362Y80765D01*
X186244Y80759D01*
X186126Y80757D01*
X177094Y80757D01*
X177094Y80756D02*
X176976Y80758D01*
X176858Y80764D01*
X176740Y80773D01*
X176622Y80787D01*
X176505Y80804D01*
X176389Y80825D01*
X176274Y80850D01*
X176159Y80879D01*
X176045Y80912D01*
X175933Y80948D01*
X175821Y80988D01*
X175711Y81031D01*
X175603Y81078D01*
X175496Y81129D01*
X175391Y81183D01*
X175288Y81240D01*
X175186Y81301D01*
X175087Y81365D01*
X174990Y81432D01*
X174895Y81503D01*
X174802Y81576D01*
X174712Y81653D01*
X174624Y81732D01*
X174539Y81814D01*
X174457Y81899D01*
X174378Y81987D01*
X174301Y82077D01*
X174228Y82170D01*
X174157Y82264D01*
X174090Y82362D01*
X174026Y82461D01*
X173965Y82562D01*
X173908Y82666D01*
X173854Y82771D01*
X173803Y82878D01*
X173756Y82986D01*
X173713Y83096D01*
X173673Y83208D01*
X173637Y83320D01*
X173604Y83434D01*
X173575Y83549D01*
X173550Y83664D01*
X173529Y83780D01*
X173512Y83897D01*
X173498Y84015D01*
X173489Y84133D01*
X173483Y84251D01*
X173481Y84369D01*
X173482Y84369D02*
X173482Y87982D01*
X173482Y94482D02*
X189738Y94482D01*
X182513Y99901D02*
X173482Y94482D01*
X182513Y99901D02*
X173482Y105320D01*
X189738Y105320D01*
X177094Y112580D02*
X173482Y117095D01*
X189738Y117095D01*
X189738Y112580D02*
X189738Y121611D01*
X206107Y73293D02*
X206107Y70584D01*
X206107Y73293D02*
X215138Y73293D01*
X215138Y67874D01*
X215136Y67756D01*
X215130Y67638D01*
X215121Y67520D01*
X215107Y67403D01*
X215090Y67286D01*
X215069Y67169D01*
X215044Y67054D01*
X215015Y66939D01*
X214982Y66825D01*
X214946Y66713D01*
X214906Y66602D01*
X214863Y66492D01*
X214816Y66383D01*
X214766Y66276D01*
X214711Y66171D01*
X214654Y66068D01*
X214593Y65967D01*
X214529Y65867D01*
X214462Y65770D01*
X214392Y65675D01*
X214318Y65583D01*
X214242Y65492D01*
X214162Y65405D01*
X214080Y65320D01*
X213995Y65238D01*
X213908Y65158D01*
X213817Y65082D01*
X213725Y65008D01*
X213630Y64938D01*
X213533Y64871D01*
X213433Y64807D01*
X213332Y64746D01*
X213229Y64689D01*
X213124Y64634D01*
X213017Y64584D01*
X212908Y64537D01*
X212798Y64494D01*
X212687Y64454D01*
X212575Y64418D01*
X212461Y64385D01*
X212346Y64356D01*
X212231Y64331D01*
X212114Y64310D01*
X211997Y64293D01*
X211880Y64279D01*
X211762Y64270D01*
X211644Y64264D01*
X211526Y64262D01*
X202494Y64262D01*
X202376Y64264D01*
X202258Y64270D01*
X202140Y64279D01*
X202022Y64293D01*
X201905Y64310D01*
X201789Y64331D01*
X201674Y64356D01*
X201559Y64385D01*
X201445Y64418D01*
X201333Y64454D01*
X201221Y64494D01*
X201111Y64537D01*
X201003Y64584D01*
X200896Y64635D01*
X200791Y64689D01*
X200688Y64746D01*
X200586Y64807D01*
X200487Y64871D01*
X200390Y64938D01*
X200295Y65009D01*
X200202Y65082D01*
X200112Y65159D01*
X200024Y65238D01*
X199939Y65320D01*
X199857Y65405D01*
X199778Y65493D01*
X199701Y65583D01*
X199628Y65676D01*
X199557Y65770D01*
X199490Y65868D01*
X199426Y65967D01*
X199365Y66068D01*
X199308Y66172D01*
X199254Y66277D01*
X199203Y66384D01*
X199156Y66492D01*
X199113Y66602D01*
X199073Y66714D01*
X199037Y66826D01*
X199004Y66940D01*
X198975Y67055D01*
X198950Y67170D01*
X198929Y67286D01*
X198912Y67403D01*
X198898Y67521D01*
X198889Y67639D01*
X198883Y67757D01*
X198881Y67875D01*
X198882Y67874D02*
X198882Y73293D01*
X198882Y80935D02*
X215138Y80935D01*
X215138Y89966D02*
X198882Y80935D01*
X198882Y89966D02*
X215138Y89966D01*
X215138Y97609D02*
X198882Y97609D01*
X198882Y102124D01*
X198884Y102255D01*
X198890Y102387D01*
X198899Y102518D01*
X198913Y102648D01*
X198930Y102779D01*
X198951Y102908D01*
X198975Y103037D01*
X199004Y103165D01*
X199036Y103293D01*
X199072Y103419D01*
X199111Y103544D01*
X199154Y103669D01*
X199201Y103791D01*
X199251Y103913D01*
X199305Y104033D01*
X199362Y104151D01*
X199423Y104267D01*
X199487Y104382D01*
X199554Y104495D01*
X199625Y104606D01*
X199699Y104714D01*
X199776Y104821D01*
X199856Y104925D01*
X199939Y105027D01*
X200024Y105126D01*
X200113Y105223D01*
X200205Y105317D01*
X200299Y105409D01*
X200396Y105498D01*
X200495Y105583D01*
X200597Y105666D01*
X200701Y105746D01*
X200808Y105823D01*
X200916Y105897D01*
X201027Y105968D01*
X201140Y106035D01*
X201255Y106099D01*
X201371Y106160D01*
X201489Y106217D01*
X201609Y106271D01*
X201731Y106321D01*
X201853Y106368D01*
X201978Y106411D01*
X202103Y106450D01*
X202229Y106486D01*
X202357Y106518D01*
X202485Y106547D01*
X202614Y106571D01*
X202743Y106592D01*
X202874Y106609D01*
X203004Y106623D01*
X203135Y106632D01*
X203267Y106638D01*
X203398Y106640D01*
X210622Y106640D01*
X210753Y106638D01*
X210885Y106632D01*
X211016Y106623D01*
X211146Y106609D01*
X211277Y106592D01*
X211406Y106571D01*
X211535Y106547D01*
X211663Y106518D01*
X211791Y106486D01*
X211917Y106450D01*
X212042Y106411D01*
X212167Y106368D01*
X212289Y106321D01*
X212411Y106271D01*
X212531Y106217D01*
X212649Y106160D01*
X212765Y106099D01*
X212880Y106035D01*
X212993Y105968D01*
X213104Y105897D01*
X213212Y105823D01*
X213319Y105746D01*
X213423Y105666D01*
X213525Y105583D01*
X213624Y105498D01*
X213721Y105409D01*
X213815Y105317D01*
X213907Y105223D01*
X213996Y105126D01*
X214081Y105027D01*
X214164Y104925D01*
X214244Y104821D01*
X214321Y104714D01*
X214395Y104606D01*
X214466Y104495D01*
X214533Y104382D01*
X214597Y104267D01*
X214658Y104151D01*
X214715Y104033D01*
X214769Y103913D01*
X214819Y103791D01*
X214866Y103669D01*
X214909Y103544D01*
X214948Y103419D01*
X214984Y103293D01*
X215016Y103165D01*
X215045Y103037D01*
X215069Y102908D01*
X215090Y102778D01*
X215107Y102648D01*
X215121Y102518D01*
X215130Y102387D01*
X215136Y102255D01*
X215138Y102124D01*
X215138Y97609D01*
X224282Y64262D02*
X240538Y64262D01*
X224282Y64262D02*
X224282Y68778D01*
X224284Y68909D01*
X224290Y69041D01*
X224299Y69172D01*
X224313Y69302D01*
X224330Y69433D01*
X224351Y69562D01*
X224375Y69691D01*
X224404Y69819D01*
X224436Y69947D01*
X224472Y70073D01*
X224511Y70198D01*
X224554Y70323D01*
X224601Y70445D01*
X224651Y70567D01*
X224705Y70687D01*
X224762Y70805D01*
X224823Y70921D01*
X224887Y71036D01*
X224954Y71149D01*
X225025Y71260D01*
X225099Y71368D01*
X225176Y71475D01*
X225256Y71579D01*
X225339Y71681D01*
X225424Y71780D01*
X225513Y71877D01*
X225605Y71971D01*
X225699Y72063D01*
X225796Y72152D01*
X225895Y72237D01*
X225997Y72320D01*
X226101Y72400D01*
X226208Y72477D01*
X226316Y72551D01*
X226427Y72622D01*
X226540Y72689D01*
X226655Y72753D01*
X226771Y72814D01*
X226889Y72871D01*
X227009Y72925D01*
X227131Y72975D01*
X227253Y73022D01*
X227378Y73065D01*
X227503Y73104D01*
X227629Y73140D01*
X227757Y73172D01*
X227885Y73201D01*
X228014Y73225D01*
X228143Y73246D01*
X228274Y73263D01*
X228404Y73277D01*
X228535Y73286D01*
X228667Y73292D01*
X228798Y73294D01*
X228798Y73293D02*
X236022Y73293D01*
X236022Y73294D02*
X236153Y73292D01*
X236285Y73286D01*
X236416Y73277D01*
X236546Y73263D01*
X236677Y73246D01*
X236806Y73225D01*
X236935Y73201D01*
X237063Y73172D01*
X237191Y73140D01*
X237317Y73104D01*
X237442Y73065D01*
X237567Y73022D01*
X237689Y72975D01*
X237811Y72925D01*
X237931Y72871D01*
X238049Y72814D01*
X238165Y72753D01*
X238280Y72689D01*
X238393Y72622D01*
X238504Y72551D01*
X238612Y72477D01*
X238719Y72400D01*
X238823Y72320D01*
X238925Y72237D01*
X239024Y72152D01*
X239121Y72063D01*
X239215Y71971D01*
X239307Y71877D01*
X239396Y71780D01*
X239481Y71681D01*
X239564Y71579D01*
X239644Y71475D01*
X239721Y71368D01*
X239795Y71260D01*
X239866Y71149D01*
X239933Y71036D01*
X239997Y70921D01*
X240058Y70805D01*
X240115Y70687D01*
X240169Y70567D01*
X240219Y70445D01*
X240266Y70323D01*
X240309Y70198D01*
X240348Y70073D01*
X240384Y69947D01*
X240416Y69819D01*
X240445Y69691D01*
X240469Y69562D01*
X240490Y69432D01*
X240507Y69302D01*
X240521Y69172D01*
X240530Y69041D01*
X240536Y68909D01*
X240538Y68778D01*
X240538Y64262D01*
X240538Y81804D02*
X224282Y81804D01*
X240538Y79997D02*
X240538Y83610D01*
X224282Y83610D02*
X224282Y79997D01*
X228798Y89793D02*
X236022Y89793D01*
X228798Y89793D02*
X228665Y89795D01*
X228533Y89801D01*
X228401Y89811D01*
X228269Y89824D01*
X228137Y89842D01*
X228007Y89863D01*
X227876Y89888D01*
X227747Y89917D01*
X227619Y89950D01*
X227491Y89986D01*
X227365Y90026D01*
X227240Y90070D01*
X227116Y90118D01*
X226994Y90169D01*
X226873Y90224D01*
X226754Y90282D01*
X226636Y90344D01*
X226521Y90409D01*
X226407Y90478D01*
X226296Y90549D01*
X226187Y90625D01*
X226080Y90703D01*
X225975Y90784D01*
X225873Y90869D01*
X225773Y90956D01*
X225676Y91046D01*
X225581Y91139D01*
X225490Y91235D01*
X225401Y91333D01*
X225315Y91434D01*
X225232Y91538D01*
X225152Y91644D01*
X225076Y91752D01*
X225002Y91862D01*
X224932Y91975D01*
X224865Y92089D01*
X224802Y92206D01*
X224742Y92324D01*
X224685Y92444D01*
X224632Y92566D01*
X224583Y92689D01*
X224537Y92813D01*
X224495Y92939D01*
X224457Y93066D01*
X224422Y93194D01*
X224391Y93323D01*
X224364Y93452D01*
X224341Y93583D01*
X224321Y93714D01*
X224306Y93846D01*
X224294Y93978D01*
X224286Y94110D01*
X224282Y94243D01*
X224282Y94375D01*
X224286Y94508D01*
X224294Y94640D01*
X224306Y94772D01*
X224321Y94904D01*
X224341Y95035D01*
X224364Y95166D01*
X224391Y95295D01*
X224422Y95424D01*
X224457Y95552D01*
X224495Y95679D01*
X224537Y95805D01*
X224583Y95929D01*
X224632Y96052D01*
X224685Y96174D01*
X224742Y96294D01*
X224802Y96412D01*
X224865Y96529D01*
X224932Y96643D01*
X225002Y96756D01*
X225076Y96866D01*
X225152Y96974D01*
X225232Y97080D01*
X225315Y97184D01*
X225401Y97285D01*
X225490Y97383D01*
X225581Y97479D01*
X225676Y97572D01*
X225773Y97662D01*
X225873Y97749D01*
X225975Y97834D01*
X226080Y97915D01*
X226187Y97993D01*
X226296Y98069D01*
X226407Y98140D01*
X226521Y98209D01*
X226636Y98274D01*
X226754Y98336D01*
X226873Y98394D01*
X226994Y98449D01*
X227116Y98500D01*
X227240Y98548D01*
X227365Y98592D01*
X227491Y98632D01*
X227619Y98668D01*
X227747Y98701D01*
X227876Y98730D01*
X228007Y98755D01*
X228137Y98776D01*
X228269Y98794D01*
X228401Y98807D01*
X228533Y98817D01*
X228665Y98823D01*
X228798Y98825D01*
X228798Y98824D02*
X236022Y98824D01*
X236022Y98825D02*
X236155Y98823D01*
X236287Y98817D01*
X236419Y98807D01*
X236551Y98794D01*
X236683Y98776D01*
X236813Y98755D01*
X236944Y98730D01*
X237073Y98701D01*
X237201Y98668D01*
X237329Y98632D01*
X237455Y98592D01*
X237580Y98548D01*
X237704Y98500D01*
X237826Y98449D01*
X237947Y98394D01*
X238066Y98336D01*
X238184Y98274D01*
X238299Y98209D01*
X238413Y98140D01*
X238524Y98069D01*
X238633Y97993D01*
X238740Y97915D01*
X238845Y97834D01*
X238947Y97749D01*
X239047Y97662D01*
X239144Y97572D01*
X239239Y97479D01*
X239330Y97383D01*
X239419Y97285D01*
X239505Y97184D01*
X239588Y97080D01*
X239668Y96974D01*
X239744Y96866D01*
X239818Y96756D01*
X239888Y96643D01*
X239955Y96529D01*
X240018Y96412D01*
X240078Y96294D01*
X240135Y96174D01*
X240188Y96052D01*
X240237Y95929D01*
X240283Y95805D01*
X240325Y95679D01*
X240363Y95552D01*
X240398Y95424D01*
X240429Y95295D01*
X240456Y95166D01*
X240479Y95035D01*
X240499Y94904D01*
X240514Y94772D01*
X240526Y94640D01*
X240534Y94508D01*
X240538Y94375D01*
X240538Y94243D01*
X240534Y94110D01*
X240526Y93978D01*
X240514Y93846D01*
X240499Y93714D01*
X240479Y93583D01*
X240456Y93452D01*
X240429Y93323D01*
X240398Y93194D01*
X240363Y93066D01*
X240325Y92939D01*
X240283Y92813D01*
X240237Y92689D01*
X240188Y92566D01*
X240135Y92444D01*
X240078Y92324D01*
X240018Y92206D01*
X239955Y92089D01*
X239888Y91975D01*
X239818Y91862D01*
X239744Y91752D01*
X239668Y91644D01*
X239588Y91538D01*
X239505Y91434D01*
X239419Y91333D01*
X239330Y91235D01*
X239239Y91139D01*
X239144Y91046D01*
X239047Y90956D01*
X238947Y90869D01*
X238845Y90784D01*
X238740Y90703D01*
X238633Y90625D01*
X238524Y90549D01*
X238413Y90478D01*
X238299Y90409D01*
X238184Y90344D01*
X238066Y90282D01*
X237947Y90224D01*
X237826Y90169D01*
X237704Y90118D01*
X237580Y90070D01*
X237455Y90026D01*
X237329Y89986D01*
X237201Y89950D01*
X237073Y89917D01*
X236944Y89888D01*
X236813Y89863D01*
X236683Y89842D01*
X236551Y89824D01*
X236419Y89811D01*
X236287Y89801D01*
X236155Y89795D01*
X236022Y89793D01*
X240538Y105945D02*
X224282Y105945D01*
X224282Y110461D01*
X224284Y110592D01*
X224290Y110724D01*
X224299Y110855D01*
X224313Y110985D01*
X224330Y111116D01*
X224351Y111245D01*
X224375Y111374D01*
X224404Y111502D01*
X224436Y111630D01*
X224472Y111756D01*
X224511Y111881D01*
X224554Y112006D01*
X224601Y112128D01*
X224651Y112250D01*
X224705Y112370D01*
X224762Y112488D01*
X224823Y112604D01*
X224887Y112719D01*
X224954Y112832D01*
X225025Y112943D01*
X225099Y113051D01*
X225176Y113158D01*
X225256Y113262D01*
X225339Y113364D01*
X225424Y113463D01*
X225513Y113560D01*
X225605Y113654D01*
X225699Y113746D01*
X225796Y113835D01*
X225895Y113920D01*
X225997Y114003D01*
X226101Y114083D01*
X226208Y114160D01*
X226316Y114234D01*
X226427Y114305D01*
X226540Y114372D01*
X226655Y114436D01*
X226771Y114497D01*
X226889Y114554D01*
X227009Y114608D01*
X227131Y114658D01*
X227253Y114705D01*
X227378Y114748D01*
X227503Y114787D01*
X227629Y114823D01*
X227757Y114855D01*
X227885Y114884D01*
X228014Y114908D01*
X228143Y114929D01*
X228274Y114946D01*
X228404Y114960D01*
X228535Y114969D01*
X228667Y114975D01*
X228798Y114977D01*
X228798Y114976D02*
X236022Y114976D01*
X236022Y114977D02*
X236153Y114975D01*
X236285Y114969D01*
X236416Y114960D01*
X236546Y114946D01*
X236677Y114929D01*
X236806Y114908D01*
X236935Y114884D01*
X237063Y114855D01*
X237191Y114823D01*
X237317Y114787D01*
X237442Y114748D01*
X237567Y114705D01*
X237689Y114658D01*
X237811Y114608D01*
X237931Y114554D01*
X238049Y114497D01*
X238165Y114436D01*
X238280Y114372D01*
X238393Y114305D01*
X238504Y114234D01*
X238612Y114160D01*
X238719Y114083D01*
X238823Y114003D01*
X238925Y113920D01*
X239024Y113835D01*
X239121Y113746D01*
X239215Y113654D01*
X239307Y113560D01*
X239396Y113463D01*
X239481Y113364D01*
X239564Y113262D01*
X239644Y113158D01*
X239721Y113051D01*
X239795Y112943D01*
X239866Y112832D01*
X239933Y112719D01*
X239997Y112604D01*
X240058Y112488D01*
X240115Y112370D01*
X240169Y112250D01*
X240219Y112128D01*
X240266Y112006D01*
X240309Y111881D01*
X240348Y111756D01*
X240384Y111630D01*
X240416Y111502D01*
X240445Y111374D01*
X240469Y111245D01*
X240490Y111115D01*
X240507Y110985D01*
X240521Y110855D01*
X240530Y110724D01*
X240536Y110592D01*
X240538Y110461D01*
X240538Y105945D01*
X240538Y122648D02*
X240538Y129873D01*
X240538Y122648D02*
X224282Y122648D01*
X224282Y129873D01*
X231507Y128067D02*
X231507Y122648D01*
X249682Y64262D02*
X265938Y69681D01*
X249682Y75099D01*
X265938Y84369D02*
X265938Y87982D01*
X265938Y84369D02*
X265936Y84251D01*
X265930Y84133D01*
X265921Y84015D01*
X265907Y83898D01*
X265890Y83781D01*
X265869Y83664D01*
X265844Y83549D01*
X265815Y83434D01*
X265782Y83320D01*
X265746Y83208D01*
X265706Y83097D01*
X265663Y82987D01*
X265616Y82878D01*
X265566Y82771D01*
X265511Y82666D01*
X265454Y82563D01*
X265393Y82462D01*
X265329Y82362D01*
X265262Y82265D01*
X265192Y82170D01*
X265118Y82078D01*
X265042Y81987D01*
X264962Y81900D01*
X264880Y81815D01*
X264795Y81733D01*
X264708Y81653D01*
X264617Y81577D01*
X264525Y81503D01*
X264430Y81433D01*
X264333Y81366D01*
X264233Y81302D01*
X264132Y81241D01*
X264029Y81184D01*
X263924Y81129D01*
X263817Y81079D01*
X263708Y81032D01*
X263598Y80989D01*
X263487Y80949D01*
X263375Y80913D01*
X263261Y80880D01*
X263146Y80851D01*
X263031Y80826D01*
X262914Y80805D01*
X262797Y80788D01*
X262680Y80774D01*
X262562Y80765D01*
X262444Y80759D01*
X262326Y80757D01*
X253294Y80757D01*
X253294Y80756D02*
X253176Y80758D01*
X253058Y80764D01*
X252940Y80773D01*
X252822Y80787D01*
X252705Y80804D01*
X252589Y80825D01*
X252474Y80850D01*
X252359Y80879D01*
X252245Y80912D01*
X252133Y80948D01*
X252021Y80988D01*
X251911Y81031D01*
X251803Y81078D01*
X251696Y81129D01*
X251591Y81183D01*
X251488Y81240D01*
X251386Y81301D01*
X251287Y81365D01*
X251190Y81432D01*
X251095Y81503D01*
X251002Y81576D01*
X250912Y81653D01*
X250824Y81732D01*
X250739Y81814D01*
X250657Y81899D01*
X250578Y81987D01*
X250501Y82077D01*
X250428Y82170D01*
X250357Y82264D01*
X250290Y82362D01*
X250226Y82461D01*
X250165Y82562D01*
X250108Y82666D01*
X250054Y82771D01*
X250003Y82878D01*
X249956Y82986D01*
X249913Y83096D01*
X249873Y83208D01*
X249837Y83320D01*
X249804Y83434D01*
X249775Y83549D01*
X249750Y83664D01*
X249729Y83780D01*
X249712Y83897D01*
X249698Y84015D01*
X249689Y84133D01*
X249683Y84251D01*
X249681Y84369D01*
X249682Y84369D02*
X249682Y87982D01*
X249682Y94482D02*
X265938Y94482D01*
X258713Y99901D02*
X249682Y94482D01*
X258713Y99901D02*
X249682Y105320D01*
X265938Y105320D01*
X257810Y112580D02*
X257490Y112584D01*
X257171Y112595D01*
X256851Y112614D01*
X256533Y112641D01*
X256215Y112675D01*
X255898Y112717D01*
X255582Y112767D01*
X255267Y112824D01*
X254954Y112888D01*
X254642Y112960D01*
X254332Y113039D01*
X254025Y113126D01*
X253719Y113220D01*
X253416Y113321D01*
X253115Y113430D01*
X252817Y113545D01*
X252521Y113668D01*
X252229Y113798D01*
X251940Y113935D01*
X251939Y113935D02*
X251831Y113974D01*
X251724Y114017D01*
X251619Y114063D01*
X251516Y114113D01*
X251414Y114167D01*
X251314Y114224D01*
X251216Y114285D01*
X251120Y114349D01*
X251027Y114416D01*
X250936Y114486D01*
X250847Y114560D01*
X250761Y114636D01*
X250678Y114716D01*
X250597Y114798D01*
X250519Y114883D01*
X250445Y114970D01*
X250373Y115061D01*
X250304Y115153D01*
X250239Y115248D01*
X250177Y115345D01*
X250118Y115444D01*
X250063Y115545D01*
X250012Y115648D01*
X249964Y115753D01*
X249919Y115859D01*
X249878Y115966D01*
X249841Y116075D01*
X249808Y116186D01*
X249779Y116297D01*
X249753Y116409D01*
X249731Y116522D01*
X249714Y116636D01*
X249700Y116750D01*
X249690Y116865D01*
X249684Y116980D01*
X249682Y117095D01*
X249684Y117210D01*
X249690Y117325D01*
X249700Y117440D01*
X249714Y117554D01*
X249731Y117668D01*
X249753Y117781D01*
X249779Y117893D01*
X249808Y118005D01*
X249841Y118115D01*
X249878Y118224D01*
X249919Y118332D01*
X249964Y118438D01*
X250012Y118543D01*
X250063Y118645D01*
X250119Y118747D01*
X250177Y118846D01*
X250239Y118943D01*
X250305Y119038D01*
X250373Y119130D01*
X250445Y119220D01*
X250519Y119308D01*
X250597Y119393D01*
X250678Y119475D01*
X250761Y119554D01*
X250847Y119631D01*
X250936Y119704D01*
X251027Y119775D01*
X251121Y119842D01*
X251216Y119906D01*
X251314Y119967D01*
X251414Y120024D01*
X251516Y120077D01*
X251620Y120128D01*
X251725Y120174D01*
X251832Y120217D01*
X251940Y120256D01*
X252229Y120393D01*
X252521Y120523D01*
X252817Y120646D01*
X253115Y120761D01*
X253416Y120870D01*
X253719Y120971D01*
X254025Y121065D01*
X254332Y121152D01*
X254642Y121231D01*
X254954Y121303D01*
X255267Y121367D01*
X255582Y121424D01*
X255898Y121474D01*
X256215Y121516D01*
X256533Y121550D01*
X256851Y121577D01*
X257171Y121596D01*
X257490Y121607D01*
X257810Y121611D01*
X257810Y112580D02*
X258130Y112584D01*
X258449Y112595D01*
X258769Y112614D01*
X259087Y112641D01*
X259405Y112675D01*
X259722Y112717D01*
X260038Y112767D01*
X260353Y112824D01*
X260666Y112888D01*
X260978Y112960D01*
X261288Y113039D01*
X261595Y113126D01*
X261901Y113220D01*
X262204Y113321D01*
X262505Y113430D01*
X262803Y113545D01*
X263099Y113668D01*
X263391Y113798D01*
X263680Y113935D01*
X263681Y113934D02*
X263789Y113973D01*
X263896Y114016D01*
X264001Y114062D01*
X264105Y114113D01*
X264207Y114166D01*
X264307Y114223D01*
X264405Y114284D01*
X264500Y114348D01*
X264594Y114415D01*
X264685Y114486D01*
X264774Y114559D01*
X264860Y114636D01*
X264943Y114715D01*
X265024Y114797D01*
X265102Y114882D01*
X265176Y114970D01*
X265248Y115060D01*
X265317Y115153D01*
X265382Y115247D01*
X265444Y115344D01*
X265502Y115444D01*
X265558Y115545D01*
X265609Y115647D01*
X265657Y115752D01*
X265702Y115858D01*
X265743Y115966D01*
X265780Y116075D01*
X265813Y116185D01*
X265842Y116297D01*
X265868Y116409D01*
X265890Y116522D01*
X265907Y116636D01*
X265921Y116750D01*
X265931Y116865D01*
X265937Y116980D01*
X265939Y117095D01*
X263680Y120256D02*
X263391Y120393D01*
X263099Y120523D01*
X262803Y120646D01*
X262505Y120761D01*
X262204Y120870D01*
X261901Y120971D01*
X261595Y121065D01*
X261288Y121152D01*
X260978Y121231D01*
X260666Y121303D01*
X260353Y121367D01*
X260038Y121424D01*
X259722Y121474D01*
X259405Y121516D01*
X259087Y121550D01*
X258769Y121577D01*
X258449Y121596D01*
X258130Y121607D01*
X257810Y121611D01*
X263680Y120256D02*
X263788Y120217D01*
X263895Y120174D01*
X264000Y120128D01*
X264104Y120077D01*
X264206Y120024D01*
X264306Y119967D01*
X264404Y119906D01*
X264499Y119842D01*
X264593Y119775D01*
X264684Y119704D01*
X264773Y119631D01*
X264859Y119554D01*
X264942Y119475D01*
X265023Y119393D01*
X265101Y119308D01*
X265175Y119220D01*
X265247Y119130D01*
X265316Y119037D01*
X265381Y118943D01*
X265443Y118846D01*
X265501Y118746D01*
X265557Y118645D01*
X265608Y118542D01*
X265656Y118438D01*
X265701Y118332D01*
X265742Y118224D01*
X265779Y118115D01*
X265812Y118005D01*
X265841Y117893D01*
X265867Y117781D01*
X265889Y117668D01*
X265906Y117554D01*
X265920Y117440D01*
X265930Y117325D01*
X265936Y117210D01*
X265938Y117095D01*
X262326Y113483D02*
X253294Y120708D01*
X275082Y68778D02*
X291338Y68778D01*
X275082Y64262D02*
X275082Y73293D01*
X291338Y79402D02*
X291338Y86627D01*
X291338Y79402D02*
X275082Y79402D01*
X275082Y86627D01*
X282307Y84821D02*
X282307Y79402D01*
X291338Y97296D02*
X291336Y97414D01*
X291330Y97532D01*
X291321Y97650D01*
X291307Y97767D01*
X291290Y97884D01*
X291269Y98001D01*
X291244Y98116D01*
X291215Y98231D01*
X291182Y98345D01*
X291146Y98457D01*
X291106Y98568D01*
X291063Y98678D01*
X291016Y98787D01*
X290966Y98894D01*
X290911Y98999D01*
X290854Y99102D01*
X290793Y99203D01*
X290729Y99303D01*
X290662Y99400D01*
X290592Y99495D01*
X290518Y99587D01*
X290442Y99678D01*
X290362Y99765D01*
X290280Y99850D01*
X290195Y99932D01*
X290108Y100012D01*
X290017Y100088D01*
X289925Y100162D01*
X289830Y100232D01*
X289733Y100299D01*
X289633Y100363D01*
X289532Y100424D01*
X289429Y100481D01*
X289324Y100536D01*
X289217Y100586D01*
X289108Y100633D01*
X288998Y100676D01*
X288887Y100716D01*
X288775Y100752D01*
X288661Y100785D01*
X288546Y100814D01*
X288431Y100839D01*
X288314Y100860D01*
X288197Y100877D01*
X288080Y100891D01*
X287962Y100900D01*
X287844Y100906D01*
X287726Y100908D01*
X291338Y97296D02*
X291336Y97113D01*
X291329Y96931D01*
X291318Y96749D01*
X291303Y96567D01*
X291283Y96385D01*
X291260Y96204D01*
X291231Y96024D01*
X291199Y95844D01*
X291162Y95665D01*
X291121Y95488D01*
X291075Y95311D01*
X291026Y95135D01*
X290972Y94961D01*
X290914Y94787D01*
X290852Y94616D01*
X290786Y94446D01*
X290715Y94277D01*
X290641Y94110D01*
X290563Y93945D01*
X290481Y93782D01*
X290395Y93621D01*
X290305Y93462D01*
X290211Y93305D01*
X290114Y93151D01*
X290013Y92999D01*
X289908Y92849D01*
X289800Y92702D01*
X289689Y92558D01*
X289574Y92416D01*
X289455Y92277D01*
X289333Y92141D01*
X289208Y92008D01*
X289080Y91878D01*
X278694Y92329D02*
X278576Y92331D01*
X278458Y92337D01*
X278340Y92346D01*
X278223Y92360D01*
X278106Y92377D01*
X277989Y92398D01*
X277874Y92423D01*
X277759Y92452D01*
X277645Y92485D01*
X277533Y92521D01*
X277422Y92561D01*
X277312Y92604D01*
X277203Y92651D01*
X277096Y92701D01*
X276991Y92756D01*
X276888Y92813D01*
X276787Y92874D01*
X276687Y92938D01*
X276590Y93005D01*
X276495Y93075D01*
X276403Y93149D01*
X276312Y93225D01*
X276225Y93305D01*
X276140Y93387D01*
X276058Y93472D01*
X275978Y93559D01*
X275902Y93650D01*
X275828Y93742D01*
X275758Y93837D01*
X275691Y93934D01*
X275627Y94034D01*
X275566Y94135D01*
X275509Y94238D01*
X275454Y94343D01*
X275404Y94450D01*
X275357Y94559D01*
X275314Y94669D01*
X275274Y94780D01*
X275238Y94892D01*
X275205Y95006D01*
X275176Y95121D01*
X275151Y95236D01*
X275130Y95353D01*
X275113Y95470D01*
X275099Y95587D01*
X275090Y95705D01*
X275084Y95823D01*
X275082Y95941D01*
X275084Y96102D01*
X275090Y96264D01*
X275099Y96425D01*
X275113Y96586D01*
X275130Y96746D01*
X275151Y96906D01*
X275176Y97066D01*
X275205Y97225D01*
X275237Y97383D01*
X275273Y97540D01*
X275313Y97696D01*
X275357Y97852D01*
X275405Y98006D01*
X275456Y98159D01*
X275510Y98311D01*
X275569Y98462D01*
X275630Y98611D01*
X275696Y98758D01*
X275765Y98904D01*
X275837Y99049D01*
X275913Y99191D01*
X275992Y99332D01*
X276074Y99471D01*
X276160Y99607D01*
X276249Y99742D01*
X276341Y99875D01*
X276437Y100005D01*
X281855Y94135D02*
X281793Y94034D01*
X281728Y93934D01*
X281659Y93837D01*
X281587Y93742D01*
X281513Y93649D01*
X281435Y93559D01*
X281354Y93471D01*
X281271Y93386D01*
X281185Y93304D01*
X281096Y93225D01*
X281005Y93148D01*
X280911Y93075D01*
X280815Y93004D01*
X280717Y92937D01*
X280617Y92873D01*
X280514Y92812D01*
X280410Y92755D01*
X280304Y92701D01*
X280196Y92651D01*
X280087Y92604D01*
X279976Y92560D01*
X279864Y92520D01*
X279750Y92484D01*
X279636Y92452D01*
X279520Y92423D01*
X279404Y92398D01*
X279287Y92377D01*
X279169Y92360D01*
X279051Y92346D01*
X278932Y92337D01*
X278813Y92331D01*
X278694Y92329D01*
X284565Y99102D02*
X284627Y99203D01*
X284692Y99303D01*
X284761Y99400D01*
X284833Y99495D01*
X284907Y99588D01*
X284985Y99678D01*
X285066Y99766D01*
X285149Y99851D01*
X285235Y99933D01*
X285324Y100012D01*
X285415Y100089D01*
X285509Y100162D01*
X285605Y100233D01*
X285703Y100300D01*
X285803Y100364D01*
X285906Y100425D01*
X286010Y100482D01*
X286116Y100536D01*
X286224Y100586D01*
X286333Y100633D01*
X286444Y100677D01*
X286556Y100717D01*
X286670Y100753D01*
X286784Y100785D01*
X286900Y100814D01*
X287016Y100839D01*
X287133Y100860D01*
X287251Y100877D01*
X287369Y100891D01*
X287488Y100900D01*
X287607Y100906D01*
X287726Y100908D01*
X284565Y99102D02*
X281855Y94135D01*
X275082Y110461D02*
X291338Y110461D01*
X275082Y105945D02*
X275082Y114976D01*
X300482Y64262D02*
X316738Y69681D01*
X300482Y75099D01*
X316738Y84369D02*
X316738Y87982D01*
X316738Y84369D02*
X316736Y84251D01*
X316730Y84133D01*
X316721Y84015D01*
X316707Y83898D01*
X316690Y83781D01*
X316669Y83664D01*
X316644Y83549D01*
X316615Y83434D01*
X316582Y83320D01*
X316546Y83208D01*
X316506Y83097D01*
X316463Y82987D01*
X316416Y82878D01*
X316366Y82771D01*
X316311Y82666D01*
X316254Y82563D01*
X316193Y82462D01*
X316129Y82362D01*
X316062Y82265D01*
X315992Y82170D01*
X315918Y82078D01*
X315842Y81987D01*
X315762Y81900D01*
X315680Y81815D01*
X315595Y81733D01*
X315508Y81653D01*
X315417Y81577D01*
X315325Y81503D01*
X315230Y81433D01*
X315133Y81366D01*
X315033Y81302D01*
X314932Y81241D01*
X314829Y81184D01*
X314724Y81129D01*
X314617Y81079D01*
X314508Y81032D01*
X314398Y80989D01*
X314287Y80949D01*
X314175Y80913D01*
X314061Y80880D01*
X313946Y80851D01*
X313831Y80826D01*
X313714Y80805D01*
X313597Y80788D01*
X313480Y80774D01*
X313362Y80765D01*
X313244Y80759D01*
X313126Y80757D01*
X304094Y80757D01*
X304094Y80756D02*
X303976Y80758D01*
X303858Y80764D01*
X303740Y80773D01*
X303622Y80787D01*
X303505Y80804D01*
X303389Y80825D01*
X303274Y80850D01*
X303159Y80879D01*
X303045Y80912D01*
X302933Y80948D01*
X302821Y80988D01*
X302711Y81031D01*
X302603Y81078D01*
X302496Y81129D01*
X302391Y81183D01*
X302288Y81240D01*
X302186Y81301D01*
X302087Y81365D01*
X301990Y81432D01*
X301895Y81503D01*
X301802Y81576D01*
X301712Y81653D01*
X301624Y81732D01*
X301539Y81814D01*
X301457Y81899D01*
X301378Y81987D01*
X301301Y82077D01*
X301228Y82170D01*
X301157Y82264D01*
X301090Y82362D01*
X301026Y82461D01*
X300965Y82562D01*
X300908Y82666D01*
X300854Y82771D01*
X300803Y82878D01*
X300756Y82986D01*
X300713Y83096D01*
X300673Y83208D01*
X300637Y83320D01*
X300604Y83434D01*
X300575Y83549D01*
X300550Y83664D01*
X300529Y83780D01*
X300512Y83897D01*
X300498Y84015D01*
X300489Y84133D01*
X300483Y84251D01*
X300481Y84369D01*
X300482Y84369D02*
X300482Y87982D01*
X316738Y97395D02*
X316738Y101008D01*
X316738Y97395D02*
X316736Y97277D01*
X316730Y97159D01*
X316721Y97041D01*
X316707Y96924D01*
X316690Y96807D01*
X316669Y96690D01*
X316644Y96575D01*
X316615Y96460D01*
X316582Y96346D01*
X316546Y96234D01*
X316506Y96123D01*
X316463Y96013D01*
X316416Y95904D01*
X316366Y95797D01*
X316311Y95692D01*
X316254Y95589D01*
X316193Y95488D01*
X316129Y95388D01*
X316062Y95291D01*
X315992Y95196D01*
X315918Y95104D01*
X315842Y95013D01*
X315762Y94926D01*
X315680Y94841D01*
X315595Y94759D01*
X315508Y94679D01*
X315417Y94603D01*
X315325Y94529D01*
X315230Y94459D01*
X315133Y94392D01*
X315033Y94328D01*
X314932Y94267D01*
X314829Y94210D01*
X314724Y94155D01*
X314617Y94105D01*
X314508Y94058D01*
X314398Y94015D01*
X314287Y93975D01*
X314175Y93939D01*
X314061Y93906D01*
X313946Y93877D01*
X313831Y93852D01*
X313714Y93831D01*
X313597Y93814D01*
X313480Y93800D01*
X313362Y93791D01*
X313244Y93785D01*
X313126Y93783D01*
X304094Y93783D01*
X304094Y93782D02*
X303976Y93784D01*
X303858Y93790D01*
X303740Y93799D01*
X303622Y93813D01*
X303505Y93830D01*
X303389Y93851D01*
X303274Y93876D01*
X303159Y93905D01*
X303045Y93938D01*
X302933Y93974D01*
X302821Y94014D01*
X302711Y94057D01*
X302603Y94104D01*
X302496Y94155D01*
X302391Y94209D01*
X302288Y94266D01*
X302186Y94327D01*
X302087Y94391D01*
X301990Y94458D01*
X301895Y94529D01*
X301802Y94602D01*
X301712Y94679D01*
X301624Y94758D01*
X301539Y94840D01*
X301457Y94925D01*
X301378Y95013D01*
X301301Y95103D01*
X301228Y95196D01*
X301157Y95290D01*
X301090Y95388D01*
X301026Y95487D01*
X300965Y95588D01*
X300908Y95692D01*
X300854Y95797D01*
X300803Y95904D01*
X300756Y96012D01*
X300713Y96122D01*
X300673Y96234D01*
X300637Y96346D01*
X300604Y96460D01*
X300575Y96575D01*
X300550Y96690D01*
X300529Y96806D01*
X300512Y96923D01*
X300498Y97041D01*
X300489Y97159D01*
X300483Y97277D01*
X300481Y97395D01*
X300482Y97395D02*
X300482Y101008D01*
X325882Y64262D02*
X342138Y69681D01*
X325882Y75099D01*
X330398Y80796D02*
X337622Y80796D01*
X330398Y80796D02*
X330265Y80798D01*
X330133Y80804D01*
X330001Y80814D01*
X329869Y80827D01*
X329737Y80845D01*
X329607Y80866D01*
X329476Y80891D01*
X329347Y80920D01*
X329219Y80953D01*
X329091Y80989D01*
X328965Y81029D01*
X328840Y81073D01*
X328716Y81121D01*
X328594Y81172D01*
X328473Y81227D01*
X328354Y81285D01*
X328236Y81347D01*
X328121Y81412D01*
X328007Y81481D01*
X327896Y81552D01*
X327787Y81628D01*
X327680Y81706D01*
X327575Y81787D01*
X327473Y81872D01*
X327373Y81959D01*
X327276Y82049D01*
X327181Y82142D01*
X327090Y82238D01*
X327001Y82336D01*
X326915Y82437D01*
X326832Y82541D01*
X326752Y82647D01*
X326676Y82755D01*
X326602Y82865D01*
X326532Y82978D01*
X326465Y83092D01*
X326402Y83209D01*
X326342Y83327D01*
X326285Y83447D01*
X326232Y83569D01*
X326183Y83692D01*
X326137Y83816D01*
X326095Y83942D01*
X326057Y84069D01*
X326022Y84197D01*
X325991Y84326D01*
X325964Y84455D01*
X325941Y84586D01*
X325921Y84717D01*
X325906Y84849D01*
X325894Y84981D01*
X325886Y85113D01*
X325882Y85246D01*
X325882Y85378D01*
X325886Y85511D01*
X325894Y85643D01*
X325906Y85775D01*
X325921Y85907D01*
X325941Y86038D01*
X325964Y86169D01*
X325991Y86298D01*
X326022Y86427D01*
X326057Y86555D01*
X326095Y86682D01*
X326137Y86808D01*
X326183Y86932D01*
X326232Y87055D01*
X326285Y87177D01*
X326342Y87297D01*
X326402Y87415D01*
X326465Y87532D01*
X326532Y87646D01*
X326602Y87759D01*
X326676Y87869D01*
X326752Y87977D01*
X326832Y88083D01*
X326915Y88187D01*
X327001Y88288D01*
X327090Y88386D01*
X327181Y88482D01*
X327276Y88575D01*
X327373Y88665D01*
X327473Y88752D01*
X327575Y88837D01*
X327680Y88918D01*
X327787Y88996D01*
X327896Y89072D01*
X328007Y89143D01*
X328121Y89212D01*
X328236Y89277D01*
X328354Y89339D01*
X328473Y89397D01*
X328594Y89452D01*
X328716Y89503D01*
X328840Y89551D01*
X328965Y89595D01*
X329091Y89635D01*
X329219Y89671D01*
X329347Y89704D01*
X329476Y89733D01*
X329607Y89758D01*
X329737Y89779D01*
X329869Y89797D01*
X330001Y89810D01*
X330133Y89820D01*
X330265Y89826D01*
X330398Y89828D01*
X330398Y89827D02*
X337622Y89827D01*
X337622Y89828D02*
X337755Y89826D01*
X337887Y89820D01*
X338019Y89810D01*
X338151Y89797D01*
X338283Y89779D01*
X338413Y89758D01*
X338544Y89733D01*
X338673Y89704D01*
X338801Y89671D01*
X338929Y89635D01*
X339055Y89595D01*
X339180Y89551D01*
X339304Y89503D01*
X339426Y89452D01*
X339547Y89397D01*
X339666Y89339D01*
X339784Y89277D01*
X339899Y89212D01*
X340013Y89143D01*
X340124Y89072D01*
X340233Y88996D01*
X340340Y88918D01*
X340445Y88837D01*
X340547Y88752D01*
X340647Y88665D01*
X340744Y88575D01*
X340839Y88482D01*
X340930Y88386D01*
X341019Y88288D01*
X341105Y88187D01*
X341188Y88083D01*
X341268Y87977D01*
X341344Y87869D01*
X341418Y87759D01*
X341488Y87646D01*
X341555Y87532D01*
X341618Y87415D01*
X341678Y87297D01*
X341735Y87177D01*
X341788Y87055D01*
X341837Y86932D01*
X341883Y86808D01*
X341925Y86682D01*
X341963Y86555D01*
X341998Y86427D01*
X342029Y86298D01*
X342056Y86169D01*
X342079Y86038D01*
X342099Y85907D01*
X342114Y85775D01*
X342126Y85643D01*
X342134Y85511D01*
X342138Y85378D01*
X342138Y85246D01*
X342134Y85113D01*
X342126Y84981D01*
X342114Y84849D01*
X342099Y84717D01*
X342079Y84586D01*
X342056Y84455D01*
X342029Y84326D01*
X341998Y84197D01*
X341963Y84069D01*
X341925Y83942D01*
X341883Y83816D01*
X341837Y83692D01*
X341788Y83569D01*
X341735Y83447D01*
X341678Y83327D01*
X341618Y83209D01*
X341555Y83092D01*
X341488Y82978D01*
X341418Y82865D01*
X341344Y82755D01*
X341268Y82647D01*
X341188Y82541D01*
X341105Y82437D01*
X341019Y82336D01*
X340930Y82238D01*
X340839Y82142D01*
X340744Y82049D01*
X340647Y81959D01*
X340547Y81872D01*
X340445Y81787D01*
X340340Y81706D01*
X340233Y81628D01*
X340124Y81552D01*
X340013Y81481D01*
X339899Y81412D01*
X339784Y81347D01*
X339666Y81285D01*
X339547Y81227D01*
X339426Y81172D01*
X339304Y81121D01*
X339180Y81073D01*
X339055Y81029D01*
X338929Y80989D01*
X338801Y80953D01*
X338673Y80920D01*
X338544Y80891D01*
X338413Y80866D01*
X338283Y80845D01*
X338151Y80827D01*
X338019Y80814D01*
X337887Y80804D01*
X337755Y80798D01*
X337622Y80796D01*
X337622Y96949D02*
X325882Y96949D01*
X337622Y96948D02*
X337755Y96950D01*
X337887Y96956D01*
X338019Y96966D01*
X338151Y96979D01*
X338283Y96997D01*
X338413Y97018D01*
X338544Y97043D01*
X338673Y97072D01*
X338801Y97105D01*
X338929Y97141D01*
X339055Y97181D01*
X339180Y97225D01*
X339304Y97273D01*
X339426Y97324D01*
X339547Y97379D01*
X339666Y97437D01*
X339784Y97499D01*
X339899Y97564D01*
X340013Y97633D01*
X340124Y97704D01*
X340233Y97780D01*
X340340Y97858D01*
X340445Y97939D01*
X340547Y98024D01*
X340647Y98111D01*
X340744Y98201D01*
X340839Y98294D01*
X340930Y98390D01*
X341019Y98488D01*
X341105Y98589D01*
X341188Y98693D01*
X341268Y98799D01*
X341344Y98907D01*
X341418Y99017D01*
X341488Y99130D01*
X341555Y99244D01*
X341618Y99361D01*
X341678Y99479D01*
X341735Y99599D01*
X341788Y99721D01*
X341837Y99844D01*
X341883Y99968D01*
X341925Y100094D01*
X341963Y100221D01*
X341998Y100349D01*
X342029Y100478D01*
X342056Y100607D01*
X342079Y100738D01*
X342099Y100869D01*
X342114Y101001D01*
X342126Y101133D01*
X342134Y101265D01*
X342138Y101398D01*
X342138Y101530D01*
X342134Y101663D01*
X342126Y101795D01*
X342114Y101927D01*
X342099Y102059D01*
X342079Y102190D01*
X342056Y102321D01*
X342029Y102450D01*
X341998Y102579D01*
X341963Y102707D01*
X341925Y102834D01*
X341883Y102960D01*
X341837Y103084D01*
X341788Y103207D01*
X341735Y103329D01*
X341678Y103449D01*
X341618Y103567D01*
X341555Y103684D01*
X341488Y103798D01*
X341418Y103911D01*
X341344Y104021D01*
X341268Y104129D01*
X341188Y104235D01*
X341105Y104339D01*
X341019Y104440D01*
X340930Y104538D01*
X340839Y104634D01*
X340744Y104727D01*
X340647Y104817D01*
X340547Y104904D01*
X340445Y104989D01*
X340340Y105070D01*
X340233Y105148D01*
X340124Y105224D01*
X340013Y105295D01*
X339899Y105364D01*
X339784Y105429D01*
X339666Y105491D01*
X339547Y105549D01*
X339426Y105604D01*
X339304Y105655D01*
X339180Y105703D01*
X339055Y105747D01*
X338929Y105787D01*
X338801Y105823D01*
X338673Y105856D01*
X338544Y105885D01*
X338413Y105910D01*
X338283Y105931D01*
X338151Y105949D01*
X338019Y105962D01*
X337887Y105972D01*
X337755Y105978D01*
X337622Y105980D01*
X325882Y105980D01*
X325882Y116574D02*
X342138Y116574D01*
X325882Y112059D02*
X325882Y121090D01*
X138938Y69681D02*
X122682Y64262D01*
X122682Y75099D02*
X138938Y69681D01*
X134422Y80796D02*
X127198Y80796D01*
X127065Y80798D01*
X126933Y80804D01*
X126801Y80814D01*
X126669Y80827D01*
X126537Y80845D01*
X126407Y80866D01*
X126276Y80891D01*
X126147Y80920D01*
X126019Y80953D01*
X125891Y80989D01*
X125765Y81029D01*
X125640Y81073D01*
X125516Y81121D01*
X125394Y81172D01*
X125273Y81227D01*
X125154Y81285D01*
X125036Y81347D01*
X124921Y81412D01*
X124807Y81481D01*
X124696Y81552D01*
X124587Y81628D01*
X124480Y81706D01*
X124375Y81787D01*
X124273Y81872D01*
X124173Y81959D01*
X124076Y82049D01*
X123981Y82142D01*
X123890Y82238D01*
X123801Y82336D01*
X123715Y82437D01*
X123632Y82541D01*
X123552Y82647D01*
X123476Y82755D01*
X123402Y82865D01*
X123332Y82978D01*
X123265Y83092D01*
X123202Y83209D01*
X123142Y83327D01*
X123085Y83447D01*
X123032Y83569D01*
X122983Y83692D01*
X122937Y83816D01*
X122895Y83942D01*
X122857Y84069D01*
X122822Y84197D01*
X122791Y84326D01*
X122764Y84455D01*
X122741Y84586D01*
X122721Y84717D01*
X122706Y84849D01*
X122694Y84981D01*
X122686Y85113D01*
X122682Y85246D01*
X122682Y85378D01*
X122686Y85511D01*
X122694Y85643D01*
X122706Y85775D01*
X122721Y85907D01*
X122741Y86038D01*
X122764Y86169D01*
X122791Y86298D01*
X122822Y86427D01*
X122857Y86555D01*
X122895Y86682D01*
X122937Y86808D01*
X122983Y86932D01*
X123032Y87055D01*
X123085Y87177D01*
X123142Y87297D01*
X123202Y87415D01*
X123265Y87532D01*
X123332Y87646D01*
X123402Y87759D01*
X123476Y87869D01*
X123552Y87977D01*
X123632Y88083D01*
X123715Y88187D01*
X123801Y88288D01*
X123890Y88386D01*
X123981Y88482D01*
X124076Y88575D01*
X124173Y88665D01*
X124273Y88752D01*
X124375Y88837D01*
X124480Y88918D01*
X124587Y88996D01*
X124696Y89072D01*
X124807Y89143D01*
X124921Y89212D01*
X125036Y89277D01*
X125154Y89339D01*
X125273Y89397D01*
X125394Y89452D01*
X125516Y89503D01*
X125640Y89551D01*
X125765Y89595D01*
X125891Y89635D01*
X126019Y89671D01*
X126147Y89704D01*
X126276Y89733D01*
X126407Y89758D01*
X126537Y89779D01*
X126669Y89797D01*
X126801Y89810D01*
X126933Y89820D01*
X127065Y89826D01*
X127198Y89828D01*
X127198Y89827D02*
X134422Y89827D01*
X134422Y89828D02*
X134555Y89826D01*
X134687Y89820D01*
X134819Y89810D01*
X134951Y89797D01*
X135083Y89779D01*
X135213Y89758D01*
X135344Y89733D01*
X135473Y89704D01*
X135601Y89671D01*
X135729Y89635D01*
X135855Y89595D01*
X135980Y89551D01*
X136104Y89503D01*
X136226Y89452D01*
X136347Y89397D01*
X136466Y89339D01*
X136584Y89277D01*
X136699Y89212D01*
X136813Y89143D01*
X136924Y89072D01*
X137033Y88996D01*
X137140Y88918D01*
X137245Y88837D01*
X137347Y88752D01*
X137447Y88665D01*
X137544Y88575D01*
X137639Y88482D01*
X137730Y88386D01*
X137819Y88288D01*
X137905Y88187D01*
X137988Y88083D01*
X138068Y87977D01*
X138144Y87869D01*
X138218Y87759D01*
X138288Y87646D01*
X138355Y87532D01*
X138418Y87415D01*
X138478Y87297D01*
X138535Y87177D01*
X138588Y87055D01*
X138637Y86932D01*
X138683Y86808D01*
X138725Y86682D01*
X138763Y86555D01*
X138798Y86427D01*
X138829Y86298D01*
X138856Y86169D01*
X138879Y86038D01*
X138899Y85907D01*
X138914Y85775D01*
X138926Y85643D01*
X138934Y85511D01*
X138938Y85378D01*
X138938Y85246D01*
X138934Y85113D01*
X138926Y84981D01*
X138914Y84849D01*
X138899Y84717D01*
X138879Y84586D01*
X138856Y84455D01*
X138829Y84326D01*
X138798Y84197D01*
X138763Y84069D01*
X138725Y83942D01*
X138683Y83816D01*
X138637Y83692D01*
X138588Y83569D01*
X138535Y83447D01*
X138478Y83327D01*
X138418Y83209D01*
X138355Y83092D01*
X138288Y82978D01*
X138218Y82865D01*
X138144Y82755D01*
X138068Y82647D01*
X137988Y82541D01*
X137905Y82437D01*
X137819Y82336D01*
X137730Y82238D01*
X137639Y82142D01*
X137544Y82049D01*
X137447Y81959D01*
X137347Y81872D01*
X137245Y81787D01*
X137140Y81706D01*
X137033Y81628D01*
X136924Y81552D01*
X136813Y81481D01*
X136699Y81412D01*
X136584Y81347D01*
X136466Y81285D01*
X136347Y81227D01*
X136226Y81172D01*
X136104Y81121D01*
X135980Y81073D01*
X135855Y81029D01*
X135729Y80989D01*
X135601Y80953D01*
X135473Y80920D01*
X135344Y80891D01*
X135213Y80866D01*
X135083Y80845D01*
X134951Y80827D01*
X134819Y80814D01*
X134687Y80804D01*
X134555Y80798D01*
X134422Y80796D01*
X126294Y96428D02*
X122682Y100943D01*
X138938Y100943D01*
X138938Y96428D02*
X138938Y105459D01*
X113538Y69681D02*
X97282Y64262D01*
X97282Y75099D02*
X113538Y69681D01*
X109022Y80796D02*
X101798Y80796D01*
X101665Y80798D01*
X101533Y80804D01*
X101401Y80814D01*
X101269Y80827D01*
X101137Y80845D01*
X101007Y80866D01*
X100876Y80891D01*
X100747Y80920D01*
X100619Y80953D01*
X100491Y80989D01*
X100365Y81029D01*
X100240Y81073D01*
X100116Y81121D01*
X99994Y81172D01*
X99873Y81227D01*
X99754Y81285D01*
X99636Y81347D01*
X99521Y81412D01*
X99407Y81481D01*
X99296Y81552D01*
X99187Y81628D01*
X99080Y81706D01*
X98975Y81787D01*
X98873Y81872D01*
X98773Y81959D01*
X98676Y82049D01*
X98581Y82142D01*
X98490Y82238D01*
X98401Y82336D01*
X98315Y82437D01*
X98232Y82541D01*
X98152Y82647D01*
X98076Y82755D01*
X98002Y82865D01*
X97932Y82978D01*
X97865Y83092D01*
X97802Y83209D01*
X97742Y83327D01*
X97685Y83447D01*
X97632Y83569D01*
X97583Y83692D01*
X97537Y83816D01*
X97495Y83942D01*
X97457Y84069D01*
X97422Y84197D01*
X97391Y84326D01*
X97364Y84455D01*
X97341Y84586D01*
X97321Y84717D01*
X97306Y84849D01*
X97294Y84981D01*
X97286Y85113D01*
X97282Y85246D01*
X97282Y85378D01*
X97286Y85511D01*
X97294Y85643D01*
X97306Y85775D01*
X97321Y85907D01*
X97341Y86038D01*
X97364Y86169D01*
X97391Y86298D01*
X97422Y86427D01*
X97457Y86555D01*
X97495Y86682D01*
X97537Y86808D01*
X97583Y86932D01*
X97632Y87055D01*
X97685Y87177D01*
X97742Y87297D01*
X97802Y87415D01*
X97865Y87532D01*
X97932Y87646D01*
X98002Y87759D01*
X98076Y87869D01*
X98152Y87977D01*
X98232Y88083D01*
X98315Y88187D01*
X98401Y88288D01*
X98490Y88386D01*
X98581Y88482D01*
X98676Y88575D01*
X98773Y88665D01*
X98873Y88752D01*
X98975Y88837D01*
X99080Y88918D01*
X99187Y88996D01*
X99296Y89072D01*
X99407Y89143D01*
X99521Y89212D01*
X99636Y89277D01*
X99754Y89339D01*
X99873Y89397D01*
X99994Y89452D01*
X100116Y89503D01*
X100240Y89551D01*
X100365Y89595D01*
X100491Y89635D01*
X100619Y89671D01*
X100747Y89704D01*
X100876Y89733D01*
X101007Y89758D01*
X101137Y89779D01*
X101269Y89797D01*
X101401Y89810D01*
X101533Y89820D01*
X101665Y89826D01*
X101798Y89828D01*
X101798Y89827D02*
X109022Y89827D01*
X109022Y89828D02*
X109155Y89826D01*
X109287Y89820D01*
X109419Y89810D01*
X109551Y89797D01*
X109683Y89779D01*
X109813Y89758D01*
X109944Y89733D01*
X110073Y89704D01*
X110201Y89671D01*
X110329Y89635D01*
X110455Y89595D01*
X110580Y89551D01*
X110704Y89503D01*
X110826Y89452D01*
X110947Y89397D01*
X111066Y89339D01*
X111184Y89277D01*
X111299Y89212D01*
X111413Y89143D01*
X111524Y89072D01*
X111633Y88996D01*
X111740Y88918D01*
X111845Y88837D01*
X111947Y88752D01*
X112047Y88665D01*
X112144Y88575D01*
X112239Y88482D01*
X112330Y88386D01*
X112419Y88288D01*
X112505Y88187D01*
X112588Y88083D01*
X112668Y87977D01*
X112744Y87869D01*
X112818Y87759D01*
X112888Y87646D01*
X112955Y87532D01*
X113018Y87415D01*
X113078Y87297D01*
X113135Y87177D01*
X113188Y87055D01*
X113237Y86932D01*
X113283Y86808D01*
X113325Y86682D01*
X113363Y86555D01*
X113398Y86427D01*
X113429Y86298D01*
X113456Y86169D01*
X113479Y86038D01*
X113499Y85907D01*
X113514Y85775D01*
X113526Y85643D01*
X113534Y85511D01*
X113538Y85378D01*
X113538Y85246D01*
X113534Y85113D01*
X113526Y84981D01*
X113514Y84849D01*
X113499Y84717D01*
X113479Y84586D01*
X113456Y84455D01*
X113429Y84326D01*
X113398Y84197D01*
X113363Y84069D01*
X113325Y83942D01*
X113283Y83816D01*
X113237Y83692D01*
X113188Y83569D01*
X113135Y83447D01*
X113078Y83327D01*
X113018Y83209D01*
X112955Y83092D01*
X112888Y82978D01*
X112818Y82865D01*
X112744Y82755D01*
X112668Y82647D01*
X112588Y82541D01*
X112505Y82437D01*
X112419Y82336D01*
X112330Y82238D01*
X112239Y82142D01*
X112144Y82049D01*
X112047Y81959D01*
X111947Y81872D01*
X111845Y81787D01*
X111740Y81706D01*
X111633Y81628D01*
X111524Y81552D01*
X111413Y81481D01*
X111299Y81412D01*
X111184Y81347D01*
X111066Y81285D01*
X110947Y81227D01*
X110826Y81172D01*
X110704Y81121D01*
X110580Y81073D01*
X110455Y81029D01*
X110329Y80989D01*
X110201Y80953D01*
X110073Y80920D01*
X109944Y80891D01*
X109813Y80866D01*
X109683Y80845D01*
X109551Y80827D01*
X109419Y80814D01*
X109287Y80804D01*
X109155Y80798D01*
X109022Y80796D01*
X97282Y101395D02*
X97284Y101520D01*
X97290Y101645D01*
X97299Y101770D01*
X97313Y101894D01*
X97330Y102018D01*
X97351Y102142D01*
X97376Y102264D01*
X97405Y102386D01*
X97437Y102507D01*
X97473Y102627D01*
X97513Y102746D01*
X97556Y102863D01*
X97603Y102979D01*
X97654Y103094D01*
X97708Y103206D01*
X97766Y103318D01*
X97826Y103427D01*
X97891Y103534D01*
X97958Y103640D01*
X98029Y103743D01*
X98103Y103844D01*
X98180Y103943D01*
X98260Y104039D01*
X98343Y104133D01*
X98428Y104224D01*
X98517Y104313D01*
X98608Y104398D01*
X98702Y104481D01*
X98798Y104561D01*
X98897Y104638D01*
X98998Y104712D01*
X99101Y104783D01*
X99207Y104850D01*
X99314Y104915D01*
X99423Y104975D01*
X99535Y105033D01*
X99647Y105087D01*
X99762Y105138D01*
X99878Y105185D01*
X99995Y105228D01*
X100114Y105268D01*
X100234Y105304D01*
X100355Y105336D01*
X100477Y105365D01*
X100599Y105390D01*
X100723Y105411D01*
X100847Y105428D01*
X100971Y105442D01*
X101096Y105451D01*
X101221Y105457D01*
X101346Y105459D01*
X97282Y101395D02*
X97284Y101252D01*
X97290Y101110D01*
X97300Y100967D01*
X97313Y100825D01*
X97331Y100684D01*
X97352Y100542D01*
X97377Y100402D01*
X97406Y100262D01*
X97439Y100123D01*
X97476Y99985D01*
X97516Y99848D01*
X97560Y99713D01*
X97608Y99578D01*
X97660Y99445D01*
X97715Y99313D01*
X97774Y99183D01*
X97836Y99055D01*
X97902Y98928D01*
X97971Y98803D01*
X98043Y98680D01*
X98119Y98559D01*
X98198Y98441D01*
X98281Y98324D01*
X98366Y98210D01*
X98455Y98098D01*
X98546Y97989D01*
X98641Y97882D01*
X98738Y97777D01*
X98839Y97676D01*
X98942Y97577D01*
X99047Y97481D01*
X99156Y97388D01*
X99267Y97298D01*
X99380Y97211D01*
X99495Y97127D01*
X99613Y97047D01*
X99733Y96969D01*
X99855Y96895D01*
X99979Y96825D01*
X100105Y96757D01*
X100233Y96694D01*
X100362Y96633D01*
X100493Y96576D01*
X100625Y96523D01*
X100759Y96474D01*
X100894Y96428D01*
X104507Y104104D02*
X104415Y104198D01*
X104321Y104288D01*
X104224Y104376D01*
X104124Y104461D01*
X104022Y104543D01*
X103917Y104621D01*
X103810Y104697D01*
X103701Y104769D01*
X103590Y104838D01*
X103476Y104904D01*
X103361Y104966D01*
X103244Y105025D01*
X103125Y105080D01*
X103005Y105131D01*
X102883Y105179D01*
X102760Y105224D01*
X102636Y105264D01*
X102510Y105301D01*
X102383Y105334D01*
X102256Y105363D01*
X102127Y105389D01*
X101998Y105410D01*
X101868Y105428D01*
X101738Y105441D01*
X101608Y105451D01*
X101477Y105457D01*
X101346Y105459D01*
X104507Y104104D02*
X113538Y96428D01*
X113538Y105459D01*
D11*
X26416Y483616D02*
X26416Y506984D01*
X26416Y483616D02*
X36802Y483616D01*
X44018Y483616D02*
X44018Y499195D01*
X43369Y505686D02*
X43369Y506984D01*
X44667Y506984D01*
X44667Y505686D01*
X43369Y505686D01*
X52744Y499195D02*
X52744Y483616D01*
X52744Y499195D02*
X59235Y499195D01*
X59357Y499193D01*
X59480Y499187D01*
X59602Y499178D01*
X59723Y499164D01*
X59844Y499147D01*
X59965Y499126D01*
X60085Y499101D01*
X60204Y499073D01*
X60322Y499040D01*
X60439Y499004D01*
X60554Y498965D01*
X60669Y498921D01*
X60782Y498875D01*
X60893Y498824D01*
X61003Y498770D01*
X61111Y498713D01*
X61218Y498653D01*
X61322Y498589D01*
X61424Y498521D01*
X61524Y498451D01*
X61622Y498378D01*
X61718Y498301D01*
X61811Y498222D01*
X61901Y498139D01*
X61989Y498054D01*
X62074Y497966D01*
X62157Y497876D01*
X62236Y497783D01*
X62313Y497687D01*
X62386Y497589D01*
X62456Y497489D01*
X62524Y497387D01*
X62588Y497283D01*
X62648Y497176D01*
X62705Y497068D01*
X62759Y496958D01*
X62810Y496847D01*
X62856Y496734D01*
X62900Y496619D01*
X62939Y496504D01*
X62975Y496387D01*
X63008Y496269D01*
X63036Y496150D01*
X63061Y496030D01*
X63082Y495909D01*
X63099Y495788D01*
X63113Y495667D01*
X63122Y495545D01*
X63128Y495422D01*
X63130Y495300D01*
X63130Y483616D01*
X75430Y483616D02*
X81921Y483616D01*
X75430Y483616D02*
X75308Y483618D01*
X75185Y483624D01*
X75063Y483633D01*
X74942Y483647D01*
X74821Y483664D01*
X74700Y483685D01*
X74580Y483710D01*
X74461Y483738D01*
X74343Y483771D01*
X74226Y483807D01*
X74111Y483846D01*
X73996Y483890D01*
X73883Y483936D01*
X73772Y483987D01*
X73662Y484041D01*
X73554Y484098D01*
X73447Y484158D01*
X73343Y484222D01*
X73241Y484290D01*
X73141Y484360D01*
X73043Y484433D01*
X72947Y484510D01*
X72854Y484589D01*
X72764Y484672D01*
X72676Y484757D01*
X72591Y484845D01*
X72508Y484935D01*
X72429Y485028D01*
X72352Y485124D01*
X72279Y485222D01*
X72209Y485322D01*
X72141Y485424D01*
X72077Y485528D01*
X72017Y485635D01*
X71960Y485743D01*
X71906Y485853D01*
X71855Y485964D01*
X71809Y486077D01*
X71765Y486192D01*
X71726Y486307D01*
X71690Y486424D01*
X71657Y486542D01*
X71629Y486661D01*
X71604Y486781D01*
X71583Y486902D01*
X71566Y487023D01*
X71552Y487144D01*
X71543Y487266D01*
X71537Y487389D01*
X71535Y487511D01*
X71535Y494002D01*
X71537Y494145D01*
X71543Y494288D01*
X71553Y494431D01*
X71567Y494573D01*
X71584Y494715D01*
X71606Y494857D01*
X71631Y494998D01*
X71661Y495138D01*
X71694Y495277D01*
X71731Y495415D01*
X71772Y495552D01*
X71816Y495688D01*
X71865Y495823D01*
X71917Y495956D01*
X71972Y496088D01*
X72032Y496218D01*
X72095Y496347D01*
X72161Y496474D01*
X72231Y496599D01*
X72304Y496721D01*
X72381Y496842D01*
X72461Y496961D01*
X72544Y497077D01*
X72630Y497192D01*
X72719Y497303D01*
X72812Y497413D01*
X72907Y497519D01*
X73006Y497623D01*
X73107Y497724D01*
X73211Y497823D01*
X73317Y497918D01*
X73427Y498011D01*
X73538Y498100D01*
X73653Y498186D01*
X73769Y498269D01*
X73888Y498349D01*
X74009Y498426D01*
X74132Y498499D01*
X74256Y498569D01*
X74383Y498635D01*
X74512Y498698D01*
X74642Y498758D01*
X74774Y498813D01*
X74907Y498865D01*
X75042Y498914D01*
X75178Y498958D01*
X75315Y498999D01*
X75453Y499036D01*
X75592Y499069D01*
X75732Y499099D01*
X75873Y499124D01*
X76015Y499146D01*
X76157Y499163D01*
X76299Y499177D01*
X76442Y499187D01*
X76585Y499193D01*
X76728Y499195D01*
X76871Y499193D01*
X77014Y499187D01*
X77157Y499177D01*
X77299Y499163D01*
X77441Y499146D01*
X77583Y499124D01*
X77724Y499099D01*
X77864Y499069D01*
X78003Y499036D01*
X78141Y498999D01*
X78278Y498958D01*
X78414Y498914D01*
X78549Y498865D01*
X78682Y498813D01*
X78814Y498758D01*
X78944Y498698D01*
X79073Y498635D01*
X79200Y498569D01*
X79325Y498499D01*
X79447Y498426D01*
X79568Y498349D01*
X79687Y498269D01*
X79803Y498186D01*
X79918Y498100D01*
X80029Y498011D01*
X80139Y497918D01*
X80245Y497823D01*
X80349Y497724D01*
X80450Y497623D01*
X80549Y497519D01*
X80644Y497413D01*
X80737Y497303D01*
X80826Y497192D01*
X80912Y497077D01*
X80995Y496961D01*
X81075Y496842D01*
X81152Y496721D01*
X81225Y496599D01*
X81295Y496474D01*
X81361Y496347D01*
X81424Y496218D01*
X81484Y496088D01*
X81539Y495956D01*
X81591Y495823D01*
X81640Y495688D01*
X81684Y495552D01*
X81725Y495415D01*
X81762Y495277D01*
X81795Y495138D01*
X81825Y494998D01*
X81850Y494857D01*
X81872Y494715D01*
X81889Y494573D01*
X81903Y494431D01*
X81913Y494288D01*
X81919Y494145D01*
X81921Y494002D01*
X81921Y491405D01*
X71535Y491405D01*
X101579Y483616D02*
X101579Y506984D01*
X111965Y506984D01*
X111965Y496598D02*
X101579Y496598D01*
X118860Y494002D02*
X118860Y488809D01*
X118860Y494002D02*
X118862Y494145D01*
X118868Y494288D01*
X118878Y494431D01*
X118892Y494573D01*
X118909Y494715D01*
X118931Y494857D01*
X118956Y494998D01*
X118986Y495138D01*
X119019Y495277D01*
X119056Y495415D01*
X119097Y495552D01*
X119141Y495688D01*
X119190Y495823D01*
X119242Y495956D01*
X119297Y496088D01*
X119357Y496218D01*
X119420Y496347D01*
X119486Y496474D01*
X119556Y496599D01*
X119629Y496721D01*
X119706Y496842D01*
X119786Y496961D01*
X119869Y497077D01*
X119955Y497192D01*
X120044Y497303D01*
X120137Y497413D01*
X120232Y497519D01*
X120331Y497623D01*
X120432Y497724D01*
X120536Y497823D01*
X120642Y497918D01*
X120752Y498011D01*
X120863Y498100D01*
X120978Y498186D01*
X121094Y498269D01*
X121213Y498349D01*
X121334Y498426D01*
X121457Y498499D01*
X121581Y498569D01*
X121708Y498635D01*
X121837Y498698D01*
X121967Y498758D01*
X122099Y498813D01*
X122232Y498865D01*
X122367Y498914D01*
X122503Y498958D01*
X122640Y498999D01*
X122778Y499036D01*
X122917Y499069D01*
X123057Y499099D01*
X123198Y499124D01*
X123340Y499146D01*
X123482Y499163D01*
X123624Y499177D01*
X123767Y499187D01*
X123910Y499193D01*
X124053Y499195D01*
X124196Y499193D01*
X124339Y499187D01*
X124482Y499177D01*
X124624Y499163D01*
X124766Y499146D01*
X124908Y499124D01*
X125049Y499099D01*
X125189Y499069D01*
X125328Y499036D01*
X125466Y498999D01*
X125603Y498958D01*
X125739Y498914D01*
X125874Y498865D01*
X126007Y498813D01*
X126139Y498758D01*
X126269Y498698D01*
X126398Y498635D01*
X126525Y498569D01*
X126650Y498499D01*
X126772Y498426D01*
X126893Y498349D01*
X127012Y498269D01*
X127128Y498186D01*
X127243Y498100D01*
X127354Y498011D01*
X127464Y497918D01*
X127570Y497823D01*
X127674Y497724D01*
X127775Y497623D01*
X127874Y497519D01*
X127969Y497413D01*
X128062Y497303D01*
X128151Y497192D01*
X128237Y497077D01*
X128320Y496961D01*
X128400Y496842D01*
X128477Y496721D01*
X128550Y496599D01*
X128620Y496474D01*
X128686Y496347D01*
X128749Y496218D01*
X128809Y496088D01*
X128864Y495956D01*
X128916Y495823D01*
X128965Y495688D01*
X129009Y495552D01*
X129050Y495415D01*
X129087Y495277D01*
X129120Y495138D01*
X129150Y494998D01*
X129175Y494857D01*
X129197Y494715D01*
X129214Y494573D01*
X129228Y494431D01*
X129238Y494288D01*
X129244Y494145D01*
X129246Y494002D01*
X129246Y488809D01*
X129244Y488666D01*
X129238Y488523D01*
X129228Y488380D01*
X129214Y488238D01*
X129197Y488096D01*
X129175Y487954D01*
X129150Y487813D01*
X129120Y487673D01*
X129087Y487534D01*
X129050Y487396D01*
X129009Y487259D01*
X128965Y487123D01*
X128916Y486988D01*
X128864Y486855D01*
X128809Y486723D01*
X128749Y486593D01*
X128686Y486464D01*
X128620Y486337D01*
X128550Y486212D01*
X128477Y486090D01*
X128400Y485969D01*
X128320Y485850D01*
X128237Y485734D01*
X128151Y485619D01*
X128062Y485508D01*
X127969Y485398D01*
X127874Y485292D01*
X127775Y485188D01*
X127674Y485087D01*
X127570Y484988D01*
X127464Y484893D01*
X127354Y484800D01*
X127243Y484711D01*
X127128Y484625D01*
X127012Y484542D01*
X126893Y484462D01*
X126772Y484385D01*
X126649Y484312D01*
X126525Y484242D01*
X126398Y484176D01*
X126269Y484113D01*
X126139Y484053D01*
X126007Y483998D01*
X125874Y483946D01*
X125739Y483897D01*
X125603Y483853D01*
X125466Y483812D01*
X125328Y483775D01*
X125189Y483742D01*
X125049Y483712D01*
X124908Y483687D01*
X124766Y483665D01*
X124624Y483648D01*
X124482Y483634D01*
X124339Y483624D01*
X124196Y483618D01*
X124053Y483616D01*
X123910Y483618D01*
X123767Y483624D01*
X123624Y483634D01*
X123482Y483648D01*
X123340Y483665D01*
X123198Y483687D01*
X123057Y483712D01*
X122917Y483742D01*
X122778Y483775D01*
X122640Y483812D01*
X122503Y483853D01*
X122367Y483897D01*
X122232Y483946D01*
X122099Y483998D01*
X121967Y484053D01*
X121837Y484113D01*
X121708Y484176D01*
X121581Y484242D01*
X121456Y484312D01*
X121334Y484385D01*
X121213Y484462D01*
X121094Y484542D01*
X120978Y484625D01*
X120863Y484711D01*
X120752Y484800D01*
X120642Y484893D01*
X120536Y484988D01*
X120432Y485087D01*
X120331Y485188D01*
X120232Y485292D01*
X120137Y485398D01*
X120044Y485508D01*
X119955Y485619D01*
X119869Y485734D01*
X119786Y485850D01*
X119706Y485969D01*
X119629Y486090D01*
X119556Y486213D01*
X119486Y486337D01*
X119420Y486464D01*
X119357Y486593D01*
X119297Y486723D01*
X119242Y486855D01*
X119190Y486988D01*
X119141Y487123D01*
X119097Y487259D01*
X119056Y487396D01*
X119019Y487534D01*
X118986Y487673D01*
X118956Y487813D01*
X118931Y487954D01*
X118909Y488096D01*
X118892Y488238D01*
X118878Y488380D01*
X118868Y488523D01*
X118862Y488666D01*
X118860Y488809D01*
X137461Y487511D02*
X137461Y506984D01*
X137461Y487511D02*
X137463Y487389D01*
X137469Y487266D01*
X137478Y487144D01*
X137492Y487023D01*
X137509Y486902D01*
X137530Y486781D01*
X137555Y486661D01*
X137583Y486542D01*
X137616Y486424D01*
X137652Y486307D01*
X137691Y486192D01*
X137735Y486077D01*
X137781Y485964D01*
X137832Y485853D01*
X137886Y485743D01*
X137943Y485635D01*
X138003Y485528D01*
X138067Y485424D01*
X138135Y485322D01*
X138205Y485222D01*
X138278Y485124D01*
X138355Y485028D01*
X138434Y484935D01*
X138517Y484845D01*
X138602Y484757D01*
X138690Y484672D01*
X138780Y484589D01*
X138873Y484510D01*
X138969Y484433D01*
X139067Y484360D01*
X139167Y484290D01*
X139269Y484222D01*
X139373Y484158D01*
X139480Y484098D01*
X139588Y484041D01*
X139698Y483987D01*
X139809Y483936D01*
X139922Y483890D01*
X140037Y483846D01*
X140152Y483807D01*
X140269Y483771D01*
X140387Y483738D01*
X140506Y483710D01*
X140626Y483685D01*
X140747Y483664D01*
X140868Y483647D01*
X140989Y483633D01*
X141111Y483624D01*
X141234Y483618D01*
X141356Y483616D01*
X148597Y487511D02*
X148597Y506984D01*
X148596Y487511D02*
X148598Y487389D01*
X148604Y487266D01*
X148613Y487144D01*
X148627Y487023D01*
X148644Y486902D01*
X148665Y486781D01*
X148690Y486661D01*
X148718Y486542D01*
X148751Y486424D01*
X148787Y486307D01*
X148826Y486192D01*
X148870Y486077D01*
X148916Y485964D01*
X148967Y485853D01*
X149021Y485743D01*
X149078Y485635D01*
X149138Y485528D01*
X149202Y485424D01*
X149270Y485322D01*
X149340Y485222D01*
X149413Y485124D01*
X149490Y485028D01*
X149569Y484935D01*
X149652Y484845D01*
X149737Y484757D01*
X149825Y484672D01*
X149915Y484589D01*
X150008Y484510D01*
X150104Y484433D01*
X150202Y484360D01*
X150302Y484290D01*
X150404Y484222D01*
X150508Y484158D01*
X150615Y484098D01*
X150723Y484041D01*
X150833Y483987D01*
X150944Y483936D01*
X151057Y483890D01*
X151172Y483846D01*
X151287Y483807D01*
X151404Y483771D01*
X151522Y483738D01*
X151641Y483710D01*
X151761Y483685D01*
X151882Y483664D01*
X152003Y483647D01*
X152124Y483633D01*
X152246Y483624D01*
X152369Y483618D01*
X152491Y483616D01*
X159226Y488809D02*
X159226Y494002D01*
X159228Y494145D01*
X159234Y494288D01*
X159244Y494431D01*
X159258Y494573D01*
X159275Y494715D01*
X159297Y494857D01*
X159322Y494998D01*
X159352Y495138D01*
X159385Y495277D01*
X159422Y495415D01*
X159463Y495552D01*
X159507Y495688D01*
X159556Y495823D01*
X159608Y495956D01*
X159663Y496088D01*
X159723Y496218D01*
X159786Y496347D01*
X159852Y496474D01*
X159922Y496599D01*
X159995Y496721D01*
X160072Y496842D01*
X160152Y496961D01*
X160235Y497077D01*
X160321Y497192D01*
X160410Y497303D01*
X160503Y497413D01*
X160598Y497519D01*
X160697Y497623D01*
X160798Y497724D01*
X160902Y497823D01*
X161008Y497918D01*
X161118Y498011D01*
X161229Y498100D01*
X161344Y498186D01*
X161460Y498269D01*
X161579Y498349D01*
X161700Y498426D01*
X161823Y498499D01*
X161947Y498569D01*
X162074Y498635D01*
X162203Y498698D01*
X162333Y498758D01*
X162465Y498813D01*
X162598Y498865D01*
X162733Y498914D01*
X162869Y498958D01*
X163006Y498999D01*
X163144Y499036D01*
X163283Y499069D01*
X163423Y499099D01*
X163564Y499124D01*
X163706Y499146D01*
X163848Y499163D01*
X163990Y499177D01*
X164133Y499187D01*
X164276Y499193D01*
X164419Y499195D01*
X164562Y499193D01*
X164705Y499187D01*
X164848Y499177D01*
X164990Y499163D01*
X165132Y499146D01*
X165274Y499124D01*
X165415Y499099D01*
X165555Y499069D01*
X165694Y499036D01*
X165832Y498999D01*
X165969Y498958D01*
X166105Y498914D01*
X166240Y498865D01*
X166373Y498813D01*
X166505Y498758D01*
X166635Y498698D01*
X166764Y498635D01*
X166891Y498569D01*
X167016Y498499D01*
X167138Y498426D01*
X167259Y498349D01*
X167378Y498269D01*
X167494Y498186D01*
X167609Y498100D01*
X167720Y498011D01*
X167830Y497918D01*
X167936Y497823D01*
X168040Y497724D01*
X168141Y497623D01*
X168240Y497519D01*
X168335Y497413D01*
X168428Y497303D01*
X168517Y497192D01*
X168603Y497077D01*
X168686Y496961D01*
X168766Y496842D01*
X168843Y496721D01*
X168916Y496599D01*
X168986Y496474D01*
X169052Y496347D01*
X169115Y496218D01*
X169175Y496088D01*
X169230Y495956D01*
X169282Y495823D01*
X169331Y495688D01*
X169375Y495552D01*
X169416Y495415D01*
X169453Y495277D01*
X169486Y495138D01*
X169516Y494998D01*
X169541Y494857D01*
X169563Y494715D01*
X169580Y494573D01*
X169594Y494431D01*
X169604Y494288D01*
X169610Y494145D01*
X169612Y494002D01*
X169612Y488809D01*
X169610Y488666D01*
X169604Y488523D01*
X169594Y488380D01*
X169580Y488238D01*
X169563Y488096D01*
X169541Y487954D01*
X169516Y487813D01*
X169486Y487673D01*
X169453Y487534D01*
X169416Y487396D01*
X169375Y487259D01*
X169331Y487123D01*
X169282Y486988D01*
X169230Y486855D01*
X169175Y486723D01*
X169115Y486593D01*
X169052Y486464D01*
X168986Y486337D01*
X168916Y486212D01*
X168843Y486090D01*
X168766Y485969D01*
X168686Y485850D01*
X168603Y485734D01*
X168517Y485619D01*
X168428Y485508D01*
X168335Y485398D01*
X168240Y485292D01*
X168141Y485188D01*
X168040Y485087D01*
X167936Y484988D01*
X167830Y484893D01*
X167720Y484800D01*
X167609Y484711D01*
X167494Y484625D01*
X167378Y484542D01*
X167259Y484462D01*
X167138Y484385D01*
X167015Y484312D01*
X166891Y484242D01*
X166764Y484176D01*
X166635Y484113D01*
X166505Y484053D01*
X166373Y483998D01*
X166240Y483946D01*
X166105Y483897D01*
X165969Y483853D01*
X165832Y483812D01*
X165694Y483775D01*
X165555Y483742D01*
X165415Y483712D01*
X165274Y483687D01*
X165132Y483665D01*
X164990Y483648D01*
X164848Y483634D01*
X164705Y483624D01*
X164562Y483618D01*
X164419Y483616D01*
X164276Y483618D01*
X164133Y483624D01*
X163990Y483634D01*
X163848Y483648D01*
X163706Y483665D01*
X163564Y483687D01*
X163423Y483712D01*
X163283Y483742D01*
X163144Y483775D01*
X163006Y483812D01*
X162869Y483853D01*
X162733Y483897D01*
X162598Y483946D01*
X162465Y483998D01*
X162333Y484053D01*
X162203Y484113D01*
X162074Y484176D01*
X161947Y484242D01*
X161822Y484312D01*
X161700Y484385D01*
X161579Y484462D01*
X161460Y484542D01*
X161344Y484625D01*
X161229Y484711D01*
X161118Y484800D01*
X161008Y484893D01*
X160902Y484988D01*
X160798Y485087D01*
X160697Y485188D01*
X160598Y485292D01*
X160503Y485398D01*
X160410Y485508D01*
X160321Y485619D01*
X160235Y485734D01*
X160152Y485850D01*
X160072Y485969D01*
X159995Y486090D01*
X159922Y486213D01*
X159852Y486337D01*
X159786Y486464D01*
X159723Y486593D01*
X159663Y486723D01*
X159608Y486855D01*
X159556Y486988D01*
X159507Y487123D01*
X159463Y487259D01*
X159422Y487396D01*
X159385Y487534D01*
X159352Y487673D01*
X159322Y487813D01*
X159297Y487954D01*
X159275Y488096D01*
X159258Y488238D01*
X159244Y488380D01*
X159234Y488523D01*
X159228Y488666D01*
X159226Y488809D01*
X176812Y499195D02*
X180707Y483616D01*
X184602Y494002D01*
X188496Y483616D01*
X192391Y499195D01*
X203486Y483616D02*
X209977Y483616D01*
X203486Y483616D02*
X203364Y483618D01*
X203241Y483624D01*
X203119Y483633D01*
X202998Y483647D01*
X202877Y483664D01*
X202756Y483685D01*
X202636Y483710D01*
X202517Y483738D01*
X202399Y483771D01*
X202282Y483807D01*
X202167Y483846D01*
X202052Y483890D01*
X201939Y483936D01*
X201828Y483987D01*
X201718Y484041D01*
X201610Y484098D01*
X201503Y484158D01*
X201399Y484222D01*
X201297Y484290D01*
X201197Y484360D01*
X201099Y484433D01*
X201003Y484510D01*
X200910Y484589D01*
X200820Y484672D01*
X200732Y484757D01*
X200647Y484845D01*
X200564Y484935D01*
X200485Y485028D01*
X200408Y485124D01*
X200335Y485222D01*
X200265Y485322D01*
X200197Y485424D01*
X200133Y485528D01*
X200073Y485635D01*
X200016Y485743D01*
X199962Y485853D01*
X199911Y485964D01*
X199865Y486077D01*
X199821Y486192D01*
X199782Y486307D01*
X199746Y486424D01*
X199713Y486542D01*
X199685Y486661D01*
X199660Y486781D01*
X199639Y486902D01*
X199622Y487023D01*
X199608Y487144D01*
X199599Y487266D01*
X199593Y487389D01*
X199591Y487511D01*
X199592Y487511D02*
X199592Y494002D01*
X199591Y494002D02*
X199593Y494145D01*
X199599Y494288D01*
X199609Y494431D01*
X199623Y494573D01*
X199640Y494715D01*
X199662Y494857D01*
X199687Y494998D01*
X199717Y495138D01*
X199750Y495277D01*
X199787Y495415D01*
X199828Y495552D01*
X199872Y495688D01*
X199921Y495823D01*
X199973Y495956D01*
X200028Y496088D01*
X200088Y496218D01*
X200151Y496347D01*
X200217Y496474D01*
X200287Y496599D01*
X200360Y496721D01*
X200437Y496842D01*
X200517Y496961D01*
X200600Y497077D01*
X200686Y497192D01*
X200775Y497303D01*
X200868Y497413D01*
X200963Y497519D01*
X201062Y497623D01*
X201163Y497724D01*
X201267Y497823D01*
X201373Y497918D01*
X201483Y498011D01*
X201594Y498100D01*
X201709Y498186D01*
X201825Y498269D01*
X201944Y498349D01*
X202065Y498426D01*
X202188Y498499D01*
X202312Y498569D01*
X202439Y498635D01*
X202568Y498698D01*
X202698Y498758D01*
X202830Y498813D01*
X202963Y498865D01*
X203098Y498914D01*
X203234Y498958D01*
X203371Y498999D01*
X203509Y499036D01*
X203648Y499069D01*
X203788Y499099D01*
X203929Y499124D01*
X204071Y499146D01*
X204213Y499163D01*
X204355Y499177D01*
X204498Y499187D01*
X204641Y499193D01*
X204784Y499195D01*
X204927Y499193D01*
X205070Y499187D01*
X205213Y499177D01*
X205355Y499163D01*
X205497Y499146D01*
X205639Y499124D01*
X205780Y499099D01*
X205920Y499069D01*
X206059Y499036D01*
X206197Y498999D01*
X206334Y498958D01*
X206470Y498914D01*
X206605Y498865D01*
X206738Y498813D01*
X206870Y498758D01*
X207000Y498698D01*
X207129Y498635D01*
X207256Y498569D01*
X207381Y498499D01*
X207503Y498426D01*
X207624Y498349D01*
X207743Y498269D01*
X207859Y498186D01*
X207974Y498100D01*
X208085Y498011D01*
X208195Y497918D01*
X208301Y497823D01*
X208405Y497724D01*
X208506Y497623D01*
X208605Y497519D01*
X208700Y497413D01*
X208793Y497303D01*
X208882Y497192D01*
X208968Y497077D01*
X209051Y496961D01*
X209131Y496842D01*
X209208Y496721D01*
X209281Y496599D01*
X209351Y496474D01*
X209417Y496347D01*
X209480Y496218D01*
X209540Y496088D01*
X209595Y495956D01*
X209647Y495823D01*
X209696Y495688D01*
X209740Y495552D01*
X209781Y495415D01*
X209818Y495277D01*
X209851Y495138D01*
X209881Y494998D01*
X209906Y494857D01*
X209928Y494715D01*
X209945Y494573D01*
X209959Y494431D01*
X209969Y494288D01*
X209975Y494145D01*
X209977Y494002D01*
X209977Y491405D01*
X199592Y491405D01*
X218446Y483616D02*
X218446Y499195D01*
X226236Y499195D01*
X226236Y496598D01*
X248630Y506984D02*
X248630Y483616D01*
X242139Y506984D02*
X255121Y506984D01*
X265426Y483616D02*
X271918Y483616D01*
X265426Y483616D02*
X265304Y483618D01*
X265181Y483624D01*
X265059Y483633D01*
X264938Y483647D01*
X264817Y483664D01*
X264696Y483685D01*
X264576Y483710D01*
X264457Y483738D01*
X264339Y483771D01*
X264222Y483807D01*
X264107Y483846D01*
X263992Y483890D01*
X263879Y483936D01*
X263768Y483987D01*
X263658Y484041D01*
X263550Y484098D01*
X263443Y484158D01*
X263339Y484222D01*
X263237Y484290D01*
X263137Y484360D01*
X263039Y484433D01*
X262943Y484510D01*
X262850Y484589D01*
X262760Y484672D01*
X262672Y484757D01*
X262587Y484845D01*
X262504Y484935D01*
X262425Y485028D01*
X262348Y485124D01*
X262275Y485222D01*
X262205Y485322D01*
X262137Y485424D01*
X262073Y485528D01*
X262013Y485635D01*
X261956Y485743D01*
X261902Y485853D01*
X261851Y485964D01*
X261805Y486077D01*
X261761Y486192D01*
X261722Y486307D01*
X261686Y486424D01*
X261653Y486542D01*
X261625Y486661D01*
X261600Y486781D01*
X261579Y486902D01*
X261562Y487023D01*
X261548Y487144D01*
X261539Y487266D01*
X261533Y487389D01*
X261531Y487511D01*
X261532Y487511D02*
X261532Y494002D01*
X261534Y494145D01*
X261540Y494288D01*
X261550Y494431D01*
X261564Y494573D01*
X261581Y494715D01*
X261603Y494857D01*
X261628Y494998D01*
X261658Y495138D01*
X261691Y495277D01*
X261728Y495415D01*
X261769Y495552D01*
X261813Y495688D01*
X261862Y495823D01*
X261914Y495956D01*
X261969Y496088D01*
X262029Y496218D01*
X262092Y496347D01*
X262158Y496474D01*
X262228Y496599D01*
X262301Y496721D01*
X262378Y496842D01*
X262458Y496961D01*
X262541Y497077D01*
X262627Y497192D01*
X262716Y497303D01*
X262809Y497413D01*
X262904Y497519D01*
X263003Y497623D01*
X263104Y497724D01*
X263208Y497823D01*
X263314Y497918D01*
X263424Y498011D01*
X263535Y498100D01*
X263650Y498186D01*
X263766Y498269D01*
X263885Y498349D01*
X264006Y498426D01*
X264129Y498499D01*
X264253Y498569D01*
X264380Y498635D01*
X264509Y498698D01*
X264639Y498758D01*
X264771Y498813D01*
X264904Y498865D01*
X265039Y498914D01*
X265175Y498958D01*
X265312Y498999D01*
X265450Y499036D01*
X265589Y499069D01*
X265729Y499099D01*
X265870Y499124D01*
X266012Y499146D01*
X266154Y499163D01*
X266296Y499177D01*
X266439Y499187D01*
X266582Y499193D01*
X266725Y499195D01*
X266868Y499193D01*
X267011Y499187D01*
X267154Y499177D01*
X267296Y499163D01*
X267438Y499146D01*
X267580Y499124D01*
X267721Y499099D01*
X267861Y499069D01*
X268000Y499036D01*
X268138Y498999D01*
X268275Y498958D01*
X268411Y498914D01*
X268546Y498865D01*
X268679Y498813D01*
X268811Y498758D01*
X268941Y498698D01*
X269070Y498635D01*
X269197Y498569D01*
X269322Y498499D01*
X269444Y498426D01*
X269565Y498349D01*
X269684Y498269D01*
X269800Y498186D01*
X269915Y498100D01*
X270026Y498011D01*
X270136Y497918D01*
X270242Y497823D01*
X270346Y497724D01*
X270447Y497623D01*
X270546Y497519D01*
X270641Y497413D01*
X270734Y497303D01*
X270823Y497192D01*
X270909Y497077D01*
X270992Y496961D01*
X271072Y496842D01*
X271149Y496721D01*
X271222Y496599D01*
X271292Y496474D01*
X271358Y496347D01*
X271421Y496218D01*
X271481Y496088D01*
X271536Y495956D01*
X271588Y495823D01*
X271637Y495688D01*
X271681Y495552D01*
X271722Y495415D01*
X271759Y495277D01*
X271792Y495138D01*
X271822Y494998D01*
X271847Y494857D01*
X271869Y494715D01*
X271886Y494573D01*
X271900Y494431D01*
X271910Y494288D01*
X271916Y494145D01*
X271918Y494002D01*
X271918Y491405D01*
X261532Y491405D01*
X281574Y492704D02*
X288065Y490107D01*
X281574Y492704D02*
X281468Y492748D01*
X281363Y492797D01*
X281260Y492849D01*
X281159Y492904D01*
X281059Y492963D01*
X280962Y493025D01*
X280867Y493090D01*
X280775Y493159D01*
X280684Y493231D01*
X280597Y493305D01*
X280511Y493383D01*
X280429Y493464D01*
X280349Y493547D01*
X280273Y493633D01*
X280199Y493722D01*
X280128Y493813D01*
X280061Y493907D01*
X279997Y494003D01*
X279936Y494101D01*
X279878Y494200D01*
X279824Y494302D01*
X279774Y494406D01*
X279727Y494511D01*
X279683Y494618D01*
X279644Y494727D01*
X279608Y494836D01*
X279576Y494947D01*
X279547Y495059D01*
X279523Y495171D01*
X279502Y495285D01*
X279486Y495399D01*
X279473Y495514D01*
X279464Y495629D01*
X279459Y495744D01*
X279458Y495859D01*
X279461Y495974D01*
X279468Y496090D01*
X279479Y496204D01*
X279494Y496319D01*
X279513Y496432D01*
X279535Y496546D01*
X279562Y496658D01*
X279592Y496769D01*
X279626Y496879D01*
X279664Y496988D01*
X279705Y497096D01*
X279751Y497202D01*
X279800Y497306D01*
X279852Y497409D01*
X279908Y497510D01*
X279967Y497609D01*
X280030Y497706D01*
X280096Y497800D01*
X280165Y497893D01*
X280237Y497983D01*
X280312Y498070D01*
X280391Y498155D01*
X280472Y498237D01*
X280556Y498316D01*
X280642Y498392D01*
X280731Y498465D01*
X280823Y498535D01*
X280917Y498602D01*
X281013Y498666D01*
X281111Y498726D01*
X281211Y498783D01*
X281313Y498837D01*
X281417Y498887D01*
X281523Y498933D01*
X281630Y498976D01*
X281739Y499015D01*
X281848Y499050D01*
X281959Y499082D01*
X282071Y499110D01*
X282184Y499134D01*
X282298Y499154D01*
X282412Y499170D01*
X282526Y499182D01*
X282641Y499190D01*
X282757Y499194D01*
X282872Y499195D01*
X282872Y499194D02*
X283227Y499185D01*
X283581Y499167D01*
X283934Y499141D01*
X284287Y499106D01*
X284639Y499063D01*
X284990Y499011D01*
X285339Y498951D01*
X285687Y498882D01*
X286033Y498805D01*
X286377Y498720D01*
X286719Y498627D01*
X287058Y498525D01*
X287395Y498415D01*
X287730Y498298D01*
X288061Y498172D01*
X288389Y498038D01*
X288714Y497896D01*
X288065Y490107D02*
X288171Y490063D01*
X288276Y490014D01*
X288379Y489962D01*
X288480Y489907D01*
X288580Y489848D01*
X288677Y489786D01*
X288772Y489721D01*
X288864Y489652D01*
X288955Y489580D01*
X289042Y489506D01*
X289128Y489428D01*
X289210Y489347D01*
X289290Y489264D01*
X289366Y489178D01*
X289440Y489089D01*
X289511Y488998D01*
X289578Y488904D01*
X289642Y488808D01*
X289703Y488710D01*
X289761Y488611D01*
X289815Y488509D01*
X289865Y488405D01*
X289912Y488300D01*
X289956Y488193D01*
X289995Y488084D01*
X290031Y487975D01*
X290063Y487864D01*
X290092Y487752D01*
X290116Y487640D01*
X290137Y487526D01*
X290153Y487412D01*
X290166Y487297D01*
X290175Y487182D01*
X290180Y487067D01*
X290181Y486952D01*
X290178Y486837D01*
X290171Y486721D01*
X290160Y486607D01*
X290145Y486492D01*
X290126Y486379D01*
X290104Y486265D01*
X290077Y486153D01*
X290047Y486042D01*
X290013Y485932D01*
X289975Y485823D01*
X289934Y485715D01*
X289888Y485609D01*
X289839Y485505D01*
X289787Y485402D01*
X289731Y485301D01*
X289672Y485202D01*
X289609Y485105D01*
X289543Y485011D01*
X289474Y484918D01*
X289402Y484828D01*
X289327Y484741D01*
X289248Y484656D01*
X289167Y484574D01*
X289083Y484495D01*
X288997Y484419D01*
X288908Y484346D01*
X288816Y484276D01*
X288722Y484209D01*
X288626Y484145D01*
X288528Y484085D01*
X288428Y484028D01*
X288326Y483974D01*
X288222Y483924D01*
X288116Y483878D01*
X288009Y483835D01*
X287900Y483796D01*
X287791Y483761D01*
X287680Y483729D01*
X287568Y483701D01*
X287455Y483677D01*
X287341Y483657D01*
X287227Y483641D01*
X287113Y483629D01*
X286998Y483621D01*
X286882Y483617D01*
X286767Y483616D01*
X286246Y483630D01*
X285726Y483656D01*
X285207Y483694D01*
X284688Y483744D01*
X284171Y483807D01*
X283656Y483882D01*
X283143Y483969D01*
X282631Y484068D01*
X282123Y484180D01*
X281617Y484303D01*
X281114Y484438D01*
X280614Y484585D01*
X280118Y484744D01*
X279626Y484914D01*
X296152Y499195D02*
X303941Y499195D01*
X298749Y506984D02*
X298749Y487511D01*
X298748Y487511D02*
X298750Y487389D01*
X298756Y487266D01*
X298765Y487144D01*
X298779Y487023D01*
X298796Y486902D01*
X298817Y486781D01*
X298842Y486661D01*
X298870Y486542D01*
X298903Y486424D01*
X298939Y486307D01*
X298978Y486192D01*
X299022Y486077D01*
X299068Y485964D01*
X299119Y485853D01*
X299173Y485743D01*
X299230Y485635D01*
X299290Y485528D01*
X299354Y485424D01*
X299422Y485322D01*
X299492Y485222D01*
X299565Y485124D01*
X299642Y485028D01*
X299721Y484935D01*
X299804Y484845D01*
X299889Y484757D01*
X299977Y484672D01*
X300067Y484589D01*
X300160Y484510D01*
X300256Y484433D01*
X300354Y484360D01*
X300454Y484290D01*
X300556Y484222D01*
X300660Y484158D01*
X300767Y484098D01*
X300875Y484041D01*
X300985Y483987D01*
X301096Y483936D01*
X301209Y483890D01*
X301324Y483846D01*
X301439Y483807D01*
X301556Y483771D01*
X301674Y483738D01*
X301793Y483710D01*
X301913Y483685D01*
X302034Y483664D01*
X302155Y483647D01*
X302276Y483633D01*
X302398Y483624D01*
X302521Y483618D01*
X302643Y483616D01*
X303941Y483616D01*
X323017Y496598D02*
X329508Y496598D01*
X329667Y496596D01*
X329826Y496590D01*
X329986Y496580D01*
X330144Y496567D01*
X330303Y496549D01*
X330460Y496528D01*
X330618Y496502D01*
X330774Y496473D01*
X330930Y496440D01*
X331085Y496403D01*
X331239Y496363D01*
X331392Y496318D01*
X331544Y496270D01*
X331695Y496219D01*
X331844Y496163D01*
X331992Y496104D01*
X332138Y496041D01*
X332283Y495975D01*
X332426Y495905D01*
X332568Y495832D01*
X332707Y495755D01*
X332845Y495675D01*
X332981Y495591D01*
X333114Y495504D01*
X333246Y495414D01*
X333375Y495321D01*
X333501Y495224D01*
X333626Y495125D01*
X333748Y495022D01*
X333867Y494917D01*
X333984Y494808D01*
X334098Y494697D01*
X334209Y494583D01*
X334318Y494466D01*
X334423Y494347D01*
X334526Y494225D01*
X334625Y494100D01*
X334722Y493974D01*
X334815Y493845D01*
X334905Y493713D01*
X334992Y493580D01*
X335076Y493444D01*
X335156Y493306D01*
X335233Y493167D01*
X335306Y493025D01*
X335376Y492882D01*
X335442Y492737D01*
X335505Y492591D01*
X335564Y492443D01*
X335620Y492294D01*
X335671Y492143D01*
X335719Y491991D01*
X335764Y491838D01*
X335804Y491684D01*
X335841Y491529D01*
X335874Y491373D01*
X335903Y491217D01*
X335929Y491059D01*
X335950Y490902D01*
X335968Y490743D01*
X335981Y490585D01*
X335991Y490425D01*
X335997Y490266D01*
X335999Y490107D01*
X335997Y489948D01*
X335991Y489789D01*
X335981Y489629D01*
X335968Y489471D01*
X335950Y489312D01*
X335929Y489155D01*
X335903Y488997D01*
X335874Y488841D01*
X335841Y488685D01*
X335804Y488530D01*
X335764Y488376D01*
X335719Y488223D01*
X335671Y488071D01*
X335620Y487920D01*
X335564Y487771D01*
X335505Y487623D01*
X335442Y487477D01*
X335376Y487332D01*
X335306Y487189D01*
X335233Y487047D01*
X335156Y486908D01*
X335076Y486770D01*
X334992Y486634D01*
X334905Y486501D01*
X334815Y486369D01*
X334722Y486240D01*
X334625Y486114D01*
X334526Y485989D01*
X334423Y485867D01*
X334318Y485748D01*
X334209Y485631D01*
X334098Y485517D01*
X333984Y485406D01*
X333867Y485297D01*
X333748Y485192D01*
X333626Y485089D01*
X333501Y484990D01*
X333375Y484893D01*
X333246Y484800D01*
X333114Y484710D01*
X332981Y484623D01*
X332845Y484539D01*
X332707Y484459D01*
X332568Y484382D01*
X332426Y484309D01*
X332283Y484239D01*
X332138Y484173D01*
X331992Y484110D01*
X331844Y484051D01*
X331695Y483995D01*
X331544Y483944D01*
X331392Y483896D01*
X331239Y483851D01*
X331085Y483811D01*
X330930Y483774D01*
X330774Y483741D01*
X330618Y483712D01*
X330460Y483686D01*
X330303Y483665D01*
X330144Y483647D01*
X329986Y483634D01*
X329826Y483624D01*
X329667Y483618D01*
X329508Y483616D01*
X323017Y483616D01*
X323017Y506984D01*
X329508Y506984D01*
X329651Y506982D01*
X329794Y506976D01*
X329937Y506966D01*
X330079Y506952D01*
X330221Y506935D01*
X330363Y506913D01*
X330504Y506888D01*
X330644Y506858D01*
X330783Y506825D01*
X330921Y506788D01*
X331058Y506747D01*
X331194Y506703D01*
X331329Y506654D01*
X331462Y506602D01*
X331594Y506547D01*
X331724Y506487D01*
X331853Y506424D01*
X331980Y506358D01*
X332105Y506288D01*
X332227Y506215D01*
X332348Y506138D01*
X332467Y506058D01*
X332583Y505975D01*
X332698Y505889D01*
X332809Y505800D01*
X332919Y505707D01*
X333025Y505612D01*
X333129Y505513D01*
X333230Y505412D01*
X333329Y505308D01*
X333424Y505202D01*
X333517Y505092D01*
X333606Y504981D01*
X333692Y504866D01*
X333775Y504750D01*
X333855Y504631D01*
X333932Y504510D01*
X334005Y504387D01*
X334075Y504263D01*
X334141Y504136D01*
X334204Y504007D01*
X334264Y503877D01*
X334319Y503745D01*
X334371Y503612D01*
X334420Y503477D01*
X334464Y503341D01*
X334505Y503204D01*
X334542Y503066D01*
X334575Y502927D01*
X334605Y502787D01*
X334630Y502646D01*
X334652Y502504D01*
X334669Y502362D01*
X334683Y502220D01*
X334693Y502077D01*
X334699Y501934D01*
X334701Y501791D01*
X334699Y501648D01*
X334693Y501505D01*
X334683Y501362D01*
X334669Y501220D01*
X334652Y501078D01*
X334630Y500936D01*
X334605Y500795D01*
X334575Y500655D01*
X334542Y500516D01*
X334505Y500378D01*
X334464Y500241D01*
X334420Y500105D01*
X334371Y499970D01*
X334319Y499837D01*
X334264Y499705D01*
X334204Y499575D01*
X334141Y499446D01*
X334075Y499319D01*
X334005Y499194D01*
X333932Y499072D01*
X333855Y498951D01*
X333775Y498832D01*
X333692Y498716D01*
X333606Y498601D01*
X333517Y498490D01*
X333424Y498380D01*
X333329Y498274D01*
X333230Y498170D01*
X333129Y498069D01*
X333025Y497970D01*
X332919Y497875D01*
X332809Y497782D01*
X332698Y497693D01*
X332583Y497607D01*
X332467Y497524D01*
X332348Y497444D01*
X332227Y497367D01*
X332105Y497294D01*
X331980Y497224D01*
X331853Y497158D01*
X331724Y497095D01*
X331594Y497035D01*
X331462Y496980D01*
X331329Y496928D01*
X331194Y496879D01*
X331058Y496835D01*
X330921Y496794D01*
X330783Y496757D01*
X330644Y496724D01*
X330504Y496694D01*
X330363Y496669D01*
X330221Y496647D01*
X330079Y496630D01*
X329937Y496616D01*
X329794Y496606D01*
X329651Y496600D01*
X329508Y496598D01*
X342959Y494002D02*
X342959Y488809D01*
X342959Y494002D02*
X342961Y494145D01*
X342967Y494288D01*
X342977Y494431D01*
X342991Y494573D01*
X343008Y494715D01*
X343030Y494857D01*
X343055Y494998D01*
X343085Y495138D01*
X343118Y495277D01*
X343155Y495415D01*
X343196Y495552D01*
X343240Y495688D01*
X343289Y495823D01*
X343341Y495956D01*
X343396Y496088D01*
X343456Y496218D01*
X343519Y496347D01*
X343585Y496474D01*
X343655Y496599D01*
X343728Y496721D01*
X343805Y496842D01*
X343885Y496961D01*
X343968Y497077D01*
X344054Y497192D01*
X344143Y497303D01*
X344236Y497413D01*
X344331Y497519D01*
X344430Y497623D01*
X344531Y497724D01*
X344635Y497823D01*
X344741Y497918D01*
X344851Y498011D01*
X344962Y498100D01*
X345077Y498186D01*
X345193Y498269D01*
X345312Y498349D01*
X345433Y498426D01*
X345556Y498499D01*
X345680Y498569D01*
X345807Y498635D01*
X345936Y498698D01*
X346066Y498758D01*
X346198Y498813D01*
X346331Y498865D01*
X346466Y498914D01*
X346602Y498958D01*
X346739Y498999D01*
X346877Y499036D01*
X347016Y499069D01*
X347156Y499099D01*
X347297Y499124D01*
X347439Y499146D01*
X347581Y499163D01*
X347723Y499177D01*
X347866Y499187D01*
X348009Y499193D01*
X348152Y499195D01*
X348295Y499193D01*
X348438Y499187D01*
X348581Y499177D01*
X348723Y499163D01*
X348865Y499146D01*
X349007Y499124D01*
X349148Y499099D01*
X349288Y499069D01*
X349427Y499036D01*
X349565Y498999D01*
X349702Y498958D01*
X349838Y498914D01*
X349973Y498865D01*
X350106Y498813D01*
X350238Y498758D01*
X350368Y498698D01*
X350497Y498635D01*
X350624Y498569D01*
X350749Y498499D01*
X350871Y498426D01*
X350992Y498349D01*
X351111Y498269D01*
X351227Y498186D01*
X351342Y498100D01*
X351453Y498011D01*
X351563Y497918D01*
X351669Y497823D01*
X351773Y497724D01*
X351874Y497623D01*
X351973Y497519D01*
X352068Y497413D01*
X352161Y497303D01*
X352250Y497192D01*
X352336Y497077D01*
X352419Y496961D01*
X352499Y496842D01*
X352576Y496721D01*
X352649Y496599D01*
X352719Y496474D01*
X352785Y496347D01*
X352848Y496218D01*
X352908Y496088D01*
X352963Y495956D01*
X353015Y495823D01*
X353064Y495688D01*
X353108Y495552D01*
X353149Y495415D01*
X353186Y495277D01*
X353219Y495138D01*
X353249Y494998D01*
X353274Y494857D01*
X353296Y494715D01*
X353313Y494573D01*
X353327Y494431D01*
X353337Y494288D01*
X353343Y494145D01*
X353345Y494002D01*
X353345Y488809D01*
X353343Y488666D01*
X353337Y488523D01*
X353327Y488380D01*
X353313Y488238D01*
X353296Y488096D01*
X353274Y487954D01*
X353249Y487813D01*
X353219Y487673D01*
X353186Y487534D01*
X353149Y487396D01*
X353108Y487259D01*
X353064Y487123D01*
X353015Y486988D01*
X352963Y486855D01*
X352908Y486723D01*
X352848Y486593D01*
X352785Y486464D01*
X352719Y486337D01*
X352649Y486212D01*
X352576Y486090D01*
X352499Y485969D01*
X352419Y485850D01*
X352336Y485734D01*
X352250Y485619D01*
X352161Y485508D01*
X352068Y485398D01*
X351973Y485292D01*
X351874Y485188D01*
X351773Y485087D01*
X351669Y484988D01*
X351563Y484893D01*
X351453Y484800D01*
X351342Y484711D01*
X351227Y484625D01*
X351111Y484542D01*
X350992Y484462D01*
X350871Y484385D01*
X350748Y484312D01*
X350624Y484242D01*
X350497Y484176D01*
X350368Y484113D01*
X350238Y484053D01*
X350106Y483998D01*
X349973Y483946D01*
X349838Y483897D01*
X349702Y483853D01*
X349565Y483812D01*
X349427Y483775D01*
X349288Y483742D01*
X349148Y483712D01*
X349007Y483687D01*
X348865Y483665D01*
X348723Y483648D01*
X348581Y483634D01*
X348438Y483624D01*
X348295Y483618D01*
X348152Y483616D01*
X348009Y483618D01*
X347866Y483624D01*
X347723Y483634D01*
X347581Y483648D01*
X347439Y483665D01*
X347297Y483687D01*
X347156Y483712D01*
X347016Y483742D01*
X346877Y483775D01*
X346739Y483812D01*
X346602Y483853D01*
X346466Y483897D01*
X346331Y483946D01*
X346198Y483998D01*
X346066Y484053D01*
X345936Y484113D01*
X345807Y484176D01*
X345680Y484242D01*
X345555Y484312D01*
X345433Y484385D01*
X345312Y484462D01*
X345193Y484542D01*
X345077Y484625D01*
X344962Y484711D01*
X344851Y484800D01*
X344741Y484893D01*
X344635Y484988D01*
X344531Y485087D01*
X344430Y485188D01*
X344331Y485292D01*
X344236Y485398D01*
X344143Y485508D01*
X344054Y485619D01*
X343968Y485734D01*
X343885Y485850D01*
X343805Y485969D01*
X343728Y486090D01*
X343655Y486213D01*
X343585Y486337D01*
X343519Y486464D01*
X343456Y486593D01*
X343396Y486723D01*
X343341Y486855D01*
X343289Y486988D01*
X343240Y487123D01*
X343196Y487259D01*
X343155Y487396D01*
X343118Y487534D01*
X343085Y487673D01*
X343055Y487813D01*
X343030Y487954D01*
X343008Y488096D01*
X342991Y488238D01*
X342977Y488380D01*
X342967Y488523D01*
X342961Y488666D01*
X342959Y488809D01*
X365547Y492704D02*
X371389Y492704D01*
X365547Y492704D02*
X365414Y492702D01*
X365280Y492696D01*
X365147Y492686D01*
X365015Y492673D01*
X364882Y492655D01*
X364751Y492634D01*
X364620Y492608D01*
X364489Y492579D01*
X364360Y492546D01*
X364232Y492510D01*
X364105Y492469D01*
X363979Y492425D01*
X363854Y492377D01*
X363731Y492325D01*
X363610Y492270D01*
X363490Y492212D01*
X363372Y492150D01*
X363256Y492084D01*
X363142Y492015D01*
X363029Y491943D01*
X362919Y491867D01*
X362812Y491789D01*
X362706Y491707D01*
X362604Y491622D01*
X362503Y491534D01*
X362405Y491443D01*
X362310Y491349D01*
X362218Y491253D01*
X362129Y491154D01*
X362042Y491052D01*
X361959Y490948D01*
X361879Y490842D01*
X361802Y490733D01*
X361728Y490622D01*
X361657Y490509D01*
X361590Y490393D01*
X361526Y490276D01*
X361465Y490157D01*
X361409Y490037D01*
X361355Y489914D01*
X361306Y489790D01*
X361260Y489665D01*
X361217Y489539D01*
X361179Y489411D01*
X361144Y489282D01*
X361113Y489153D01*
X361085Y489022D01*
X361062Y488891D01*
X361043Y488759D01*
X361027Y488626D01*
X361015Y488493D01*
X361007Y488360D01*
X361003Y488227D01*
X361003Y488093D01*
X361007Y487960D01*
X361015Y487827D01*
X361027Y487694D01*
X361043Y487561D01*
X361062Y487429D01*
X361085Y487298D01*
X361113Y487167D01*
X361144Y487038D01*
X361179Y486909D01*
X361217Y486781D01*
X361260Y486655D01*
X361306Y486530D01*
X361355Y486406D01*
X361409Y486283D01*
X361465Y486163D01*
X361526Y486044D01*
X361590Y485927D01*
X361657Y485811D01*
X361728Y485698D01*
X361802Y485587D01*
X361879Y485478D01*
X361959Y485372D01*
X362042Y485268D01*
X362129Y485166D01*
X362218Y485067D01*
X362310Y484971D01*
X362405Y484877D01*
X362503Y484786D01*
X362604Y484698D01*
X362706Y484613D01*
X362812Y484531D01*
X362919Y484453D01*
X363029Y484377D01*
X363142Y484305D01*
X363256Y484236D01*
X363372Y484170D01*
X363490Y484108D01*
X363610Y484050D01*
X363731Y483995D01*
X363854Y483943D01*
X363979Y483895D01*
X364105Y483851D01*
X364232Y483810D01*
X364360Y483774D01*
X364489Y483741D01*
X364620Y483712D01*
X364751Y483686D01*
X364882Y483665D01*
X365015Y483647D01*
X365147Y483634D01*
X365280Y483624D01*
X365414Y483618D01*
X365547Y483616D01*
X371389Y483616D01*
X371389Y495300D01*
X371387Y495422D01*
X371381Y495545D01*
X371372Y495667D01*
X371358Y495788D01*
X371341Y495909D01*
X371320Y496030D01*
X371295Y496150D01*
X371267Y496269D01*
X371234Y496387D01*
X371198Y496504D01*
X371159Y496619D01*
X371115Y496734D01*
X371069Y496847D01*
X371018Y496958D01*
X370964Y497068D01*
X370907Y497176D01*
X370847Y497283D01*
X370783Y497387D01*
X370715Y497489D01*
X370645Y497589D01*
X370572Y497687D01*
X370495Y497783D01*
X370416Y497876D01*
X370333Y497966D01*
X370248Y498054D01*
X370160Y498139D01*
X370070Y498222D01*
X369977Y498301D01*
X369881Y498378D01*
X369783Y498451D01*
X369683Y498521D01*
X369581Y498589D01*
X369477Y498653D01*
X369370Y498713D01*
X369262Y498770D01*
X369152Y498824D01*
X369041Y498875D01*
X368928Y498921D01*
X368813Y498965D01*
X368698Y499004D01*
X368581Y499040D01*
X368463Y499073D01*
X368344Y499101D01*
X368224Y499126D01*
X368103Y499147D01*
X367982Y499164D01*
X367861Y499178D01*
X367739Y499187D01*
X367616Y499193D01*
X367494Y499195D01*
X362301Y499195D01*
X380605Y499195D02*
X380605Y483616D01*
X380605Y499195D02*
X388394Y499195D01*
X388394Y496598D01*
X404795Y506984D02*
X404795Y483616D01*
X398303Y483616D01*
X398181Y483618D01*
X398058Y483624D01*
X397936Y483633D01*
X397815Y483647D01*
X397694Y483664D01*
X397573Y483685D01*
X397453Y483710D01*
X397334Y483738D01*
X397216Y483771D01*
X397099Y483807D01*
X396984Y483846D01*
X396869Y483890D01*
X396756Y483936D01*
X396645Y483987D01*
X396535Y484041D01*
X396427Y484098D01*
X396320Y484158D01*
X396216Y484222D01*
X396114Y484290D01*
X396014Y484360D01*
X395916Y484433D01*
X395820Y484510D01*
X395727Y484589D01*
X395637Y484672D01*
X395549Y484757D01*
X395464Y484845D01*
X395381Y484935D01*
X395302Y485028D01*
X395225Y485124D01*
X395152Y485222D01*
X395082Y485322D01*
X395014Y485424D01*
X394950Y485528D01*
X394890Y485635D01*
X394833Y485743D01*
X394779Y485853D01*
X394728Y485964D01*
X394682Y486077D01*
X394638Y486192D01*
X394599Y486307D01*
X394563Y486424D01*
X394530Y486542D01*
X394502Y486661D01*
X394477Y486781D01*
X394456Y486902D01*
X394439Y487023D01*
X394425Y487144D01*
X394416Y487266D01*
X394410Y487389D01*
X394408Y487511D01*
X394409Y487511D02*
X394409Y495300D01*
X394408Y495300D02*
X394410Y495422D01*
X394416Y495545D01*
X394425Y495667D01*
X394439Y495788D01*
X394456Y495909D01*
X394477Y496030D01*
X394502Y496150D01*
X394530Y496269D01*
X394563Y496387D01*
X394599Y496504D01*
X394638Y496619D01*
X394682Y496734D01*
X394728Y496847D01*
X394779Y496958D01*
X394833Y497068D01*
X394890Y497176D01*
X394950Y497283D01*
X395014Y497387D01*
X395082Y497489D01*
X395152Y497589D01*
X395225Y497687D01*
X395302Y497783D01*
X395381Y497876D01*
X395464Y497966D01*
X395549Y498054D01*
X395637Y498139D01*
X395727Y498222D01*
X395820Y498301D01*
X395916Y498378D01*
X396014Y498451D01*
X396114Y498521D01*
X396216Y498589D01*
X396320Y498653D01*
X396427Y498713D01*
X396535Y498770D01*
X396645Y498824D01*
X396756Y498875D01*
X396869Y498921D01*
X396984Y498965D01*
X397099Y499004D01*
X397216Y499040D01*
X397334Y499073D01*
X397453Y499101D01*
X397573Y499126D01*
X397694Y499147D01*
X397815Y499164D01*
X397936Y499178D01*
X398058Y499187D01*
X398181Y499193D01*
X398303Y499195D01*
X404795Y499195D01*
D10*
X136398Y332486D02*
X104902Y332486D01*
X104902Y371094D02*
X136398Y371094D01*
D12*
X99787Y329805D02*
X99787Y325826D01*
X102108Y322841D01*
X99787Y325826D02*
X97465Y322841D01*
X99787Y325826D02*
X103434Y327152D01*
X99787Y325826D02*
X96139Y327152D01*
X67945Y350407D02*
X67945Y355713D01*
X67947Y355827D01*
X67953Y355942D01*
X67963Y356056D01*
X67977Y356169D01*
X67994Y356283D01*
X68016Y356395D01*
X68041Y356507D01*
X68071Y356617D01*
X68104Y356727D01*
X68141Y356835D01*
X68181Y356942D01*
X68226Y357048D01*
X68273Y357152D01*
X68325Y357254D01*
X68380Y357354D01*
X68438Y357453D01*
X68500Y357549D01*
X68565Y357644D01*
X68633Y357735D01*
X68705Y357825D01*
X68779Y357912D01*
X68856Y357996D01*
X68937Y358078D01*
X69020Y358157D01*
X69105Y358233D01*
X69194Y358306D01*
X69284Y358375D01*
X69377Y358442D01*
X69473Y358505D01*
X69570Y358565D01*
X69670Y358622D01*
X69771Y358675D01*
X69874Y358725D01*
X69979Y358771D01*
X70085Y358814D01*
X70193Y358852D01*
X70302Y358887D01*
X70412Y358918D01*
X70523Y358946D01*
X70635Y358969D01*
X70748Y358989D01*
X70861Y359005D01*
X70975Y359017D01*
X71089Y359025D01*
X71204Y359029D01*
X71318Y359029D01*
X71433Y359025D01*
X71547Y359017D01*
X71661Y359005D01*
X71774Y358989D01*
X71887Y358969D01*
X71999Y358946D01*
X72110Y358918D01*
X72220Y358887D01*
X72329Y358852D01*
X72437Y358814D01*
X72543Y358771D01*
X72648Y358725D01*
X72751Y358675D01*
X72852Y358622D01*
X72952Y358565D01*
X73049Y358505D01*
X73145Y358442D01*
X73238Y358375D01*
X73328Y358306D01*
X73417Y358233D01*
X73502Y358157D01*
X73585Y358078D01*
X73666Y357996D01*
X73743Y357912D01*
X73817Y357825D01*
X73889Y357735D01*
X73957Y357644D01*
X74022Y357549D01*
X74084Y357453D01*
X74142Y357354D01*
X74197Y357254D01*
X74249Y357152D01*
X74296Y357048D01*
X74341Y356942D01*
X74381Y356835D01*
X74418Y356727D01*
X74451Y356617D01*
X74481Y356507D01*
X74506Y356395D01*
X74528Y356283D01*
X74545Y356169D01*
X74559Y356056D01*
X74569Y355942D01*
X74575Y355827D01*
X74577Y355713D01*
X74577Y350407D01*
X74575Y350293D01*
X74569Y350178D01*
X74559Y350064D01*
X74545Y349951D01*
X74528Y349837D01*
X74506Y349725D01*
X74481Y349613D01*
X74451Y349503D01*
X74418Y349393D01*
X74381Y349285D01*
X74341Y349178D01*
X74296Y349072D01*
X74249Y348968D01*
X74197Y348866D01*
X74142Y348766D01*
X74084Y348667D01*
X74022Y348571D01*
X73957Y348476D01*
X73889Y348385D01*
X73817Y348295D01*
X73743Y348208D01*
X73666Y348124D01*
X73585Y348042D01*
X73502Y347963D01*
X73417Y347887D01*
X73328Y347814D01*
X73238Y347745D01*
X73145Y347678D01*
X73049Y347615D01*
X72952Y347555D01*
X72852Y347498D01*
X72751Y347445D01*
X72648Y347395D01*
X72543Y347349D01*
X72437Y347306D01*
X72329Y347268D01*
X72220Y347233D01*
X72110Y347202D01*
X71999Y347174D01*
X71887Y347151D01*
X71774Y347131D01*
X71661Y347115D01*
X71547Y347103D01*
X71433Y347095D01*
X71318Y347091D01*
X71204Y347091D01*
X71089Y347095D01*
X70975Y347103D01*
X70861Y347115D01*
X70748Y347131D01*
X70635Y347151D01*
X70523Y347174D01*
X70412Y347202D01*
X70302Y347233D01*
X70193Y347268D01*
X70085Y347306D01*
X69979Y347349D01*
X69874Y347395D01*
X69771Y347445D01*
X69670Y347498D01*
X69570Y347555D01*
X69473Y347615D01*
X69377Y347678D01*
X69284Y347745D01*
X69194Y347814D01*
X69105Y347887D01*
X69020Y347963D01*
X68937Y348042D01*
X68856Y348124D01*
X68779Y348208D01*
X68705Y348295D01*
X68633Y348385D01*
X68565Y348476D01*
X68500Y348571D01*
X68438Y348667D01*
X68380Y348766D01*
X68325Y348866D01*
X68273Y348968D01*
X68226Y349072D01*
X68181Y349178D01*
X68141Y349285D01*
X68104Y349393D01*
X68071Y349503D01*
X68041Y349613D01*
X68016Y349725D01*
X67994Y349837D01*
X67977Y349951D01*
X67963Y350064D01*
X67953Y350178D01*
X67947Y350293D01*
X67945Y350407D01*
X73251Y349744D02*
X75904Y347091D01*
X79172Y356376D02*
X82488Y359029D01*
X82488Y347091D01*
X79172Y347091D02*
X85805Y347091D01*
D13*
X62865Y219259D02*
X51435Y219259D01*
X51435Y222434D01*
X51437Y222545D01*
X51443Y222655D01*
X51452Y222766D01*
X51466Y222876D01*
X51483Y222985D01*
X51504Y223094D01*
X51529Y223202D01*
X51558Y223309D01*
X51590Y223415D01*
X51626Y223520D01*
X51666Y223623D01*
X51709Y223725D01*
X51756Y223826D01*
X51807Y223925D01*
X51860Y224022D01*
X51917Y224116D01*
X51978Y224209D01*
X52041Y224300D01*
X52108Y224389D01*
X52178Y224475D01*
X52251Y224558D01*
X52326Y224640D01*
X52404Y224718D01*
X52486Y224793D01*
X52569Y224866D01*
X52655Y224936D01*
X52744Y225003D01*
X52835Y225066D01*
X52928Y225127D01*
X53022Y225184D01*
X53119Y225237D01*
X53218Y225288D01*
X53319Y225335D01*
X53421Y225378D01*
X53524Y225418D01*
X53629Y225454D01*
X53735Y225486D01*
X53842Y225515D01*
X53950Y225540D01*
X54059Y225561D01*
X54168Y225578D01*
X54278Y225592D01*
X54389Y225601D01*
X54499Y225607D01*
X54610Y225609D01*
X54721Y225607D01*
X54831Y225601D01*
X54942Y225592D01*
X55052Y225578D01*
X55161Y225561D01*
X55270Y225540D01*
X55378Y225515D01*
X55485Y225486D01*
X55591Y225454D01*
X55696Y225418D01*
X55799Y225378D01*
X55901Y225335D01*
X56002Y225288D01*
X56101Y225237D01*
X56198Y225184D01*
X56292Y225127D01*
X56385Y225066D01*
X56476Y225003D01*
X56565Y224936D01*
X56651Y224866D01*
X56734Y224793D01*
X56816Y224718D01*
X56894Y224640D01*
X56969Y224558D01*
X57042Y224475D01*
X57112Y224389D01*
X57179Y224300D01*
X57242Y224209D01*
X57303Y224116D01*
X57360Y224022D01*
X57413Y223925D01*
X57464Y223826D01*
X57511Y223725D01*
X57554Y223623D01*
X57594Y223520D01*
X57630Y223415D01*
X57662Y223309D01*
X57691Y223202D01*
X57716Y223094D01*
X57737Y222985D01*
X57754Y222876D01*
X57768Y222766D01*
X57777Y222655D01*
X57783Y222545D01*
X57785Y222434D01*
X57785Y219259D01*
X57785Y223069D02*
X62865Y225609D01*
X62865Y230988D02*
X51435Y230988D01*
X51435Y234163D01*
X51437Y234274D01*
X51443Y234384D01*
X51452Y234495D01*
X51466Y234605D01*
X51483Y234714D01*
X51504Y234823D01*
X51529Y234931D01*
X51558Y235038D01*
X51590Y235144D01*
X51626Y235249D01*
X51666Y235352D01*
X51709Y235454D01*
X51756Y235555D01*
X51807Y235654D01*
X51860Y235751D01*
X51917Y235845D01*
X51978Y235938D01*
X52041Y236029D01*
X52108Y236118D01*
X52178Y236204D01*
X52251Y236287D01*
X52326Y236369D01*
X52404Y236447D01*
X52486Y236522D01*
X52569Y236595D01*
X52655Y236665D01*
X52744Y236732D01*
X52835Y236795D01*
X52928Y236856D01*
X53023Y236913D01*
X53119Y236966D01*
X53218Y237017D01*
X53319Y237064D01*
X53421Y237107D01*
X53524Y237147D01*
X53629Y237183D01*
X53735Y237215D01*
X53842Y237244D01*
X53950Y237269D01*
X54059Y237290D01*
X54168Y237307D01*
X54278Y237321D01*
X54389Y237330D01*
X54499Y237336D01*
X54610Y237338D01*
X59690Y237338D01*
X59801Y237336D01*
X59911Y237330D01*
X60022Y237321D01*
X60132Y237307D01*
X60241Y237290D01*
X60350Y237269D01*
X60458Y237244D01*
X60565Y237215D01*
X60671Y237183D01*
X60776Y237147D01*
X60879Y237107D01*
X60981Y237064D01*
X61082Y237017D01*
X61181Y236966D01*
X61278Y236913D01*
X61372Y236856D01*
X61465Y236795D01*
X61556Y236732D01*
X61645Y236665D01*
X61731Y236595D01*
X61814Y236522D01*
X61896Y236447D01*
X61974Y236369D01*
X62049Y236287D01*
X62122Y236204D01*
X62192Y236118D01*
X62259Y236029D01*
X62322Y235938D01*
X62383Y235845D01*
X62440Y235751D01*
X62493Y235654D01*
X62544Y235555D01*
X62591Y235454D01*
X62634Y235352D01*
X62674Y235249D01*
X62710Y235144D01*
X62742Y235038D01*
X62771Y234931D01*
X62796Y234823D01*
X62817Y234714D01*
X62834Y234605D01*
X62848Y234495D01*
X62857Y234384D01*
X62863Y234274D01*
X62865Y234163D01*
X62865Y230988D01*
X62865Y243688D02*
X51435Y243688D01*
X62865Y242418D02*
X62865Y244958D01*
X51435Y244958D02*
X51435Y242418D01*
X54610Y249657D02*
X59690Y249657D01*
X54610Y249657D02*
X54499Y249659D01*
X54389Y249665D01*
X54278Y249674D01*
X54168Y249688D01*
X54059Y249705D01*
X53950Y249726D01*
X53842Y249751D01*
X53735Y249780D01*
X53629Y249812D01*
X53524Y249848D01*
X53421Y249888D01*
X53319Y249931D01*
X53218Y249978D01*
X53119Y250029D01*
X53023Y250082D01*
X52928Y250139D01*
X52835Y250200D01*
X52744Y250263D01*
X52655Y250330D01*
X52569Y250400D01*
X52486Y250473D01*
X52404Y250548D01*
X52326Y250626D01*
X52251Y250708D01*
X52178Y250791D01*
X52108Y250877D01*
X52041Y250966D01*
X51978Y251057D01*
X51917Y251150D01*
X51860Y251245D01*
X51807Y251341D01*
X51756Y251440D01*
X51709Y251541D01*
X51666Y251643D01*
X51626Y251746D01*
X51590Y251851D01*
X51558Y251957D01*
X51529Y252064D01*
X51504Y252172D01*
X51483Y252281D01*
X51466Y252390D01*
X51452Y252500D01*
X51443Y252611D01*
X51437Y252721D01*
X51435Y252832D01*
X51437Y252943D01*
X51443Y253053D01*
X51452Y253164D01*
X51466Y253274D01*
X51483Y253383D01*
X51504Y253492D01*
X51529Y253600D01*
X51558Y253707D01*
X51590Y253813D01*
X51626Y253918D01*
X51666Y254021D01*
X51709Y254123D01*
X51756Y254224D01*
X51807Y254323D01*
X51860Y254420D01*
X51917Y254514D01*
X51978Y254607D01*
X52041Y254698D01*
X52108Y254787D01*
X52178Y254873D01*
X52251Y254956D01*
X52326Y255038D01*
X52404Y255116D01*
X52486Y255191D01*
X52569Y255264D01*
X52655Y255334D01*
X52744Y255401D01*
X52835Y255464D01*
X52928Y255525D01*
X53023Y255582D01*
X53119Y255635D01*
X53218Y255686D01*
X53319Y255733D01*
X53421Y255776D01*
X53524Y255816D01*
X53629Y255852D01*
X53735Y255884D01*
X53842Y255913D01*
X53950Y255938D01*
X54059Y255959D01*
X54168Y255976D01*
X54278Y255990D01*
X54389Y255999D01*
X54499Y256005D01*
X54610Y256007D01*
X59690Y256007D01*
X59801Y256005D01*
X59911Y255999D01*
X60022Y255990D01*
X60132Y255976D01*
X60241Y255959D01*
X60350Y255938D01*
X60458Y255913D01*
X60565Y255884D01*
X60671Y255852D01*
X60776Y255816D01*
X60879Y255776D01*
X60981Y255733D01*
X61082Y255686D01*
X61181Y255635D01*
X61278Y255582D01*
X61372Y255525D01*
X61465Y255464D01*
X61556Y255401D01*
X61645Y255334D01*
X61731Y255264D01*
X61814Y255191D01*
X61896Y255116D01*
X61974Y255038D01*
X62049Y254956D01*
X62122Y254873D01*
X62192Y254787D01*
X62259Y254698D01*
X62322Y254607D01*
X62383Y254514D01*
X62440Y254419D01*
X62493Y254323D01*
X62544Y254224D01*
X62591Y254123D01*
X62634Y254021D01*
X62674Y253918D01*
X62710Y253813D01*
X62742Y253707D01*
X62771Y253600D01*
X62796Y253492D01*
X62817Y253383D01*
X62834Y253274D01*
X62848Y253164D01*
X62857Y253053D01*
X62863Y252943D01*
X62865Y252832D01*
X62863Y252721D01*
X62857Y252611D01*
X62848Y252500D01*
X62834Y252390D01*
X62817Y252281D01*
X62796Y252172D01*
X62771Y252064D01*
X62742Y251957D01*
X62710Y251851D01*
X62674Y251746D01*
X62634Y251643D01*
X62591Y251541D01*
X62544Y251440D01*
X62493Y251341D01*
X62440Y251244D01*
X62383Y251150D01*
X62322Y251057D01*
X62259Y250966D01*
X62192Y250877D01*
X62122Y250791D01*
X62049Y250708D01*
X61974Y250626D01*
X61896Y250548D01*
X61814Y250473D01*
X61731Y250400D01*
X61645Y250330D01*
X61556Y250263D01*
X61465Y250200D01*
X61372Y250139D01*
X61277Y250082D01*
X61181Y250029D01*
X61082Y249978D01*
X60981Y249931D01*
X60879Y249888D01*
X60776Y249848D01*
X60671Y249812D01*
X60565Y249780D01*
X60458Y249751D01*
X60350Y249726D01*
X60241Y249705D01*
X60132Y249688D01*
X60022Y249674D01*
X59911Y249665D01*
X59801Y249659D01*
X59690Y249657D01*
X62865Y261468D02*
X51435Y261468D01*
X51435Y264643D01*
X51437Y264754D01*
X51443Y264864D01*
X51452Y264975D01*
X51466Y265085D01*
X51483Y265194D01*
X51504Y265303D01*
X51529Y265411D01*
X51558Y265518D01*
X51590Y265624D01*
X51626Y265729D01*
X51666Y265832D01*
X51709Y265934D01*
X51756Y266035D01*
X51807Y266134D01*
X51860Y266231D01*
X51917Y266325D01*
X51978Y266418D01*
X52041Y266509D01*
X52108Y266598D01*
X52178Y266684D01*
X52251Y266767D01*
X52326Y266849D01*
X52404Y266927D01*
X52486Y267002D01*
X52569Y267075D01*
X52655Y267145D01*
X52744Y267212D01*
X52835Y267275D01*
X52928Y267336D01*
X53023Y267393D01*
X53119Y267446D01*
X53218Y267497D01*
X53319Y267544D01*
X53421Y267587D01*
X53524Y267627D01*
X53629Y267663D01*
X53735Y267695D01*
X53842Y267724D01*
X53950Y267749D01*
X54059Y267770D01*
X54168Y267787D01*
X54278Y267801D01*
X54389Y267810D01*
X54499Y267816D01*
X54610Y267818D01*
X59690Y267818D01*
X59801Y267816D01*
X59911Y267810D01*
X60022Y267801D01*
X60132Y267787D01*
X60241Y267770D01*
X60350Y267749D01*
X60458Y267724D01*
X60565Y267695D01*
X60671Y267663D01*
X60776Y267627D01*
X60879Y267587D01*
X60981Y267544D01*
X61082Y267497D01*
X61181Y267446D01*
X61278Y267393D01*
X61372Y267336D01*
X61465Y267275D01*
X61556Y267212D01*
X61645Y267145D01*
X61731Y267075D01*
X61814Y267002D01*
X61896Y266927D01*
X61974Y266849D01*
X62049Y266767D01*
X62122Y266684D01*
X62192Y266598D01*
X62259Y266509D01*
X62322Y266418D01*
X62383Y266325D01*
X62440Y266231D01*
X62493Y266134D01*
X62544Y266035D01*
X62591Y265934D01*
X62634Y265832D01*
X62674Y265729D01*
X62710Y265624D01*
X62742Y265518D01*
X62771Y265411D01*
X62796Y265303D01*
X62817Y265194D01*
X62834Y265085D01*
X62848Y264975D01*
X62857Y264864D01*
X62863Y264754D01*
X62865Y264643D01*
X62865Y261468D01*
X62865Y273685D02*
X62865Y278765D01*
X62865Y273685D02*
X51435Y273685D01*
X51435Y278765D01*
X56515Y277495D02*
X56515Y273685D01*
X324485Y260985D02*
X324485Y249555D01*
X324485Y260985D02*
X327660Y260985D01*
X327771Y260983D01*
X327881Y260977D01*
X327992Y260968D01*
X328102Y260954D01*
X328211Y260937D01*
X328320Y260916D01*
X328428Y260891D01*
X328535Y260862D01*
X328641Y260830D01*
X328746Y260794D01*
X328849Y260754D01*
X328951Y260711D01*
X329052Y260664D01*
X329151Y260613D01*
X329248Y260560D01*
X329342Y260503D01*
X329435Y260442D01*
X329526Y260379D01*
X329615Y260312D01*
X329701Y260242D01*
X329784Y260169D01*
X329866Y260094D01*
X329944Y260016D01*
X330019Y259934D01*
X330092Y259851D01*
X330162Y259765D01*
X330229Y259676D01*
X330292Y259585D01*
X330353Y259492D01*
X330410Y259397D01*
X330463Y259301D01*
X330514Y259202D01*
X330561Y259101D01*
X330604Y258999D01*
X330644Y258896D01*
X330680Y258791D01*
X330712Y258685D01*
X330741Y258578D01*
X330766Y258470D01*
X330787Y258361D01*
X330804Y258252D01*
X330818Y258142D01*
X330827Y258031D01*
X330833Y257921D01*
X330835Y257810D01*
X330833Y257699D01*
X330827Y257589D01*
X330818Y257478D01*
X330804Y257368D01*
X330787Y257259D01*
X330766Y257150D01*
X330741Y257042D01*
X330712Y256935D01*
X330680Y256829D01*
X330644Y256724D01*
X330604Y256621D01*
X330561Y256519D01*
X330514Y256418D01*
X330463Y256319D01*
X330410Y256222D01*
X330353Y256128D01*
X330292Y256035D01*
X330229Y255944D01*
X330162Y255855D01*
X330092Y255769D01*
X330019Y255686D01*
X329944Y255604D01*
X329866Y255526D01*
X329784Y255451D01*
X329701Y255378D01*
X329615Y255308D01*
X329526Y255241D01*
X329435Y255178D01*
X329342Y255117D01*
X329248Y255060D01*
X329151Y255007D01*
X329052Y254956D01*
X328951Y254909D01*
X328849Y254866D01*
X328746Y254826D01*
X328641Y254790D01*
X328535Y254758D01*
X328428Y254729D01*
X328320Y254704D01*
X328211Y254683D01*
X328102Y254666D01*
X327992Y254652D01*
X327881Y254643D01*
X327771Y254637D01*
X327660Y254635D01*
X324485Y254635D01*
X328295Y254635D02*
X330835Y249555D01*
X335832Y258445D02*
X339007Y260985D01*
X339007Y249555D01*
X335832Y249555D02*
X342182Y249555D01*
X165735Y305435D02*
X165735Y316865D01*
X168910Y316865D01*
X169021Y316863D01*
X169131Y316857D01*
X169242Y316848D01*
X169352Y316834D01*
X169461Y316817D01*
X169570Y316796D01*
X169678Y316771D01*
X169785Y316742D01*
X169891Y316710D01*
X169996Y316674D01*
X170099Y316634D01*
X170201Y316591D01*
X170302Y316544D01*
X170401Y316493D01*
X170498Y316440D01*
X170592Y316383D01*
X170685Y316322D01*
X170776Y316259D01*
X170865Y316192D01*
X170951Y316122D01*
X171034Y316049D01*
X171116Y315974D01*
X171194Y315896D01*
X171269Y315814D01*
X171342Y315731D01*
X171412Y315645D01*
X171479Y315556D01*
X171542Y315465D01*
X171603Y315372D01*
X171660Y315277D01*
X171713Y315181D01*
X171764Y315082D01*
X171811Y314981D01*
X171854Y314879D01*
X171894Y314776D01*
X171930Y314671D01*
X171962Y314565D01*
X171991Y314458D01*
X172016Y314350D01*
X172037Y314241D01*
X172054Y314132D01*
X172068Y314022D01*
X172077Y313911D01*
X172083Y313801D01*
X172085Y313690D01*
X172083Y313579D01*
X172077Y313469D01*
X172068Y313358D01*
X172054Y313248D01*
X172037Y313139D01*
X172016Y313030D01*
X171991Y312922D01*
X171962Y312815D01*
X171930Y312709D01*
X171894Y312604D01*
X171854Y312501D01*
X171811Y312399D01*
X171764Y312298D01*
X171713Y312199D01*
X171660Y312102D01*
X171603Y312008D01*
X171542Y311915D01*
X171479Y311824D01*
X171412Y311735D01*
X171342Y311649D01*
X171269Y311566D01*
X171194Y311484D01*
X171116Y311406D01*
X171034Y311331D01*
X170951Y311258D01*
X170865Y311188D01*
X170776Y311121D01*
X170685Y311058D01*
X170592Y310997D01*
X170497Y310940D01*
X170401Y310887D01*
X170302Y310836D01*
X170201Y310789D01*
X170099Y310746D01*
X169996Y310706D01*
X169891Y310670D01*
X169785Y310638D01*
X169678Y310609D01*
X169570Y310584D01*
X169461Y310563D01*
X169352Y310546D01*
X169242Y310532D01*
X169131Y310523D01*
X169021Y310517D01*
X168910Y310515D01*
X165735Y310515D01*
X169545Y310515D02*
X172085Y305435D01*
X183433Y314008D02*
X183431Y314112D01*
X183425Y314217D01*
X183416Y314321D01*
X183403Y314424D01*
X183385Y314527D01*
X183365Y314629D01*
X183340Y314731D01*
X183312Y314831D01*
X183280Y314931D01*
X183244Y315029D01*
X183205Y315126D01*
X183163Y315221D01*
X183117Y315315D01*
X183067Y315407D01*
X183015Y315497D01*
X182959Y315585D01*
X182899Y315671D01*
X182837Y315755D01*
X182772Y315836D01*
X182704Y315915D01*
X182632Y315992D01*
X182559Y316065D01*
X182482Y316137D01*
X182403Y316205D01*
X182322Y316270D01*
X182238Y316332D01*
X182152Y316392D01*
X182064Y316448D01*
X181974Y316500D01*
X181882Y316550D01*
X181788Y316596D01*
X181693Y316638D01*
X181596Y316677D01*
X181498Y316713D01*
X181398Y316745D01*
X181298Y316773D01*
X181196Y316798D01*
X181094Y316818D01*
X180991Y316836D01*
X180888Y316849D01*
X180784Y316858D01*
X180679Y316864D01*
X180575Y316866D01*
X180575Y316865D02*
X180457Y316863D01*
X180338Y316857D01*
X180220Y316848D01*
X180103Y316835D01*
X179986Y316817D01*
X179869Y316797D01*
X179753Y316772D01*
X179638Y316744D01*
X179525Y316711D01*
X179412Y316676D01*
X179300Y316636D01*
X179190Y316594D01*
X179081Y316547D01*
X178973Y316497D01*
X178868Y316444D01*
X178764Y316387D01*
X178662Y316327D01*
X178562Y316264D01*
X178464Y316197D01*
X178368Y316128D01*
X178275Y316055D01*
X178184Y315979D01*
X178095Y315901D01*
X178009Y315819D01*
X177926Y315735D01*
X177845Y315649D01*
X177768Y315559D01*
X177693Y315468D01*
X177621Y315374D01*
X177552Y315277D01*
X177487Y315179D01*
X177424Y315078D01*
X177365Y314975D01*
X177309Y314871D01*
X177257Y314765D01*
X177208Y314657D01*
X177163Y314548D01*
X177121Y314437D01*
X177083Y314325D01*
X182480Y311786D02*
X182556Y311861D01*
X182631Y311940D01*
X182702Y312021D01*
X182771Y312105D01*
X182836Y312191D01*
X182898Y312279D01*
X182958Y312369D01*
X183014Y312461D01*
X183067Y312556D01*
X183116Y312652D01*
X183162Y312750D01*
X183205Y312849D01*
X183244Y312950D01*
X183279Y313052D01*
X183311Y313155D01*
X183339Y313259D01*
X183364Y313364D01*
X183385Y313471D01*
X183402Y313577D01*
X183415Y313684D01*
X183424Y313792D01*
X183430Y313900D01*
X183432Y314008D01*
X182480Y311785D02*
X177082Y305435D01*
X183432Y305435D01*
X323298Y299085D02*
X323298Y287655D01*
X323298Y299085D02*
X326473Y299085D01*
X326584Y299083D01*
X326694Y299077D01*
X326805Y299068D01*
X326915Y299054D01*
X327024Y299037D01*
X327133Y299016D01*
X327241Y298991D01*
X327348Y298962D01*
X327454Y298930D01*
X327559Y298894D01*
X327662Y298854D01*
X327764Y298811D01*
X327865Y298764D01*
X327964Y298713D01*
X328061Y298660D01*
X328155Y298603D01*
X328248Y298542D01*
X328339Y298479D01*
X328428Y298412D01*
X328514Y298342D01*
X328597Y298269D01*
X328679Y298194D01*
X328757Y298116D01*
X328832Y298034D01*
X328905Y297951D01*
X328975Y297865D01*
X329042Y297776D01*
X329105Y297685D01*
X329166Y297592D01*
X329223Y297497D01*
X329276Y297401D01*
X329327Y297302D01*
X329374Y297201D01*
X329417Y297099D01*
X329457Y296996D01*
X329493Y296891D01*
X329525Y296785D01*
X329554Y296678D01*
X329579Y296570D01*
X329600Y296461D01*
X329617Y296352D01*
X329631Y296242D01*
X329640Y296131D01*
X329646Y296021D01*
X329648Y295910D01*
X329646Y295799D01*
X329640Y295689D01*
X329631Y295578D01*
X329617Y295468D01*
X329600Y295359D01*
X329579Y295250D01*
X329554Y295142D01*
X329525Y295035D01*
X329493Y294929D01*
X329457Y294824D01*
X329417Y294721D01*
X329374Y294619D01*
X329327Y294518D01*
X329276Y294419D01*
X329223Y294322D01*
X329166Y294228D01*
X329105Y294135D01*
X329042Y294044D01*
X328975Y293955D01*
X328905Y293869D01*
X328832Y293786D01*
X328757Y293704D01*
X328679Y293626D01*
X328597Y293551D01*
X328514Y293478D01*
X328428Y293408D01*
X328339Y293341D01*
X328248Y293278D01*
X328155Y293217D01*
X328061Y293160D01*
X327964Y293107D01*
X327865Y293056D01*
X327764Y293009D01*
X327662Y292966D01*
X327559Y292926D01*
X327454Y292890D01*
X327348Y292858D01*
X327241Y292829D01*
X327133Y292804D01*
X327024Y292783D01*
X326915Y292766D01*
X326805Y292752D01*
X326694Y292743D01*
X326584Y292737D01*
X326473Y292735D01*
X323298Y292735D01*
X327108Y292735D02*
X329648Y287655D01*
X334645Y287655D02*
X337820Y287655D01*
X337931Y287657D01*
X338041Y287663D01*
X338152Y287672D01*
X338262Y287686D01*
X338371Y287703D01*
X338480Y287724D01*
X338588Y287749D01*
X338695Y287778D01*
X338801Y287810D01*
X338906Y287846D01*
X339009Y287886D01*
X339111Y287929D01*
X339212Y287976D01*
X339311Y288027D01*
X339408Y288080D01*
X339502Y288137D01*
X339595Y288198D01*
X339686Y288261D01*
X339775Y288328D01*
X339861Y288398D01*
X339944Y288471D01*
X340026Y288546D01*
X340104Y288624D01*
X340179Y288706D01*
X340252Y288789D01*
X340322Y288875D01*
X340389Y288964D01*
X340452Y289055D01*
X340513Y289148D01*
X340570Y289242D01*
X340623Y289339D01*
X340674Y289438D01*
X340721Y289539D01*
X340764Y289641D01*
X340804Y289744D01*
X340840Y289849D01*
X340872Y289955D01*
X340901Y290062D01*
X340926Y290170D01*
X340947Y290279D01*
X340964Y290388D01*
X340978Y290498D01*
X340987Y290609D01*
X340993Y290719D01*
X340995Y290830D01*
X340993Y290941D01*
X340987Y291051D01*
X340978Y291162D01*
X340964Y291272D01*
X340947Y291381D01*
X340926Y291490D01*
X340901Y291598D01*
X340872Y291705D01*
X340840Y291811D01*
X340804Y291916D01*
X340764Y292019D01*
X340721Y292121D01*
X340674Y292222D01*
X340623Y292321D01*
X340570Y292417D01*
X340513Y292512D01*
X340452Y292605D01*
X340389Y292696D01*
X340322Y292785D01*
X340252Y292871D01*
X340179Y292954D01*
X340104Y293036D01*
X340026Y293114D01*
X339944Y293189D01*
X339861Y293262D01*
X339775Y293332D01*
X339686Y293399D01*
X339595Y293462D01*
X339502Y293523D01*
X339408Y293580D01*
X339311Y293633D01*
X339212Y293684D01*
X339111Y293731D01*
X339009Y293774D01*
X338906Y293814D01*
X338801Y293850D01*
X338695Y293882D01*
X338588Y293911D01*
X338480Y293936D01*
X338371Y293957D01*
X338262Y293974D01*
X338152Y293988D01*
X338041Y293997D01*
X337931Y294003D01*
X337820Y294005D01*
X338455Y299085D02*
X334645Y299085D01*
X338455Y299085D02*
X338555Y299083D01*
X338654Y299077D01*
X338754Y299067D01*
X338852Y299054D01*
X338951Y299036D01*
X339048Y299015D01*
X339144Y298990D01*
X339240Y298961D01*
X339334Y298928D01*
X339427Y298892D01*
X339518Y298852D01*
X339608Y298808D01*
X339696Y298761D01*
X339782Y298711D01*
X339866Y298657D01*
X339948Y298600D01*
X340027Y298540D01*
X340105Y298476D01*
X340179Y298410D01*
X340251Y298341D01*
X340320Y298269D01*
X340386Y298195D01*
X340450Y298117D01*
X340510Y298038D01*
X340567Y297956D01*
X340621Y297872D01*
X340671Y297786D01*
X340718Y297698D01*
X340762Y297608D01*
X340802Y297517D01*
X340838Y297424D01*
X340871Y297330D01*
X340900Y297234D01*
X340925Y297138D01*
X340946Y297041D01*
X340964Y296942D01*
X340977Y296844D01*
X340987Y296744D01*
X340993Y296645D01*
X340995Y296545D01*
X340993Y296445D01*
X340987Y296346D01*
X340977Y296246D01*
X340964Y296148D01*
X340946Y296049D01*
X340925Y295952D01*
X340900Y295856D01*
X340871Y295760D01*
X340838Y295666D01*
X340802Y295573D01*
X340762Y295482D01*
X340718Y295392D01*
X340671Y295304D01*
X340621Y295218D01*
X340567Y295134D01*
X340510Y295052D01*
X340450Y294973D01*
X340386Y294895D01*
X340320Y294821D01*
X340251Y294749D01*
X340179Y294680D01*
X340105Y294614D01*
X340027Y294550D01*
X339948Y294490D01*
X339866Y294433D01*
X339782Y294379D01*
X339696Y294329D01*
X339608Y294282D01*
X339518Y294238D01*
X339427Y294198D01*
X339334Y294162D01*
X339240Y294129D01*
X339144Y294100D01*
X339048Y294075D01*
X338951Y294054D01*
X338852Y294036D01*
X338754Y294023D01*
X338654Y294013D01*
X338555Y294007D01*
X338455Y294005D01*
X335915Y294005D01*
X165735Y291465D02*
X165735Y280035D01*
X165735Y291465D02*
X168910Y291465D01*
X169021Y291463D01*
X169131Y291457D01*
X169242Y291448D01*
X169352Y291434D01*
X169461Y291417D01*
X169570Y291396D01*
X169678Y291371D01*
X169785Y291342D01*
X169891Y291310D01*
X169996Y291274D01*
X170099Y291234D01*
X170201Y291191D01*
X170302Y291144D01*
X170401Y291093D01*
X170498Y291040D01*
X170592Y290983D01*
X170685Y290922D01*
X170776Y290859D01*
X170865Y290792D01*
X170951Y290722D01*
X171034Y290649D01*
X171116Y290574D01*
X171194Y290496D01*
X171269Y290414D01*
X171342Y290331D01*
X171412Y290245D01*
X171479Y290156D01*
X171542Y290065D01*
X171603Y289972D01*
X171660Y289877D01*
X171713Y289781D01*
X171764Y289682D01*
X171811Y289581D01*
X171854Y289479D01*
X171894Y289376D01*
X171930Y289271D01*
X171962Y289165D01*
X171991Y289058D01*
X172016Y288950D01*
X172037Y288841D01*
X172054Y288732D01*
X172068Y288622D01*
X172077Y288511D01*
X172083Y288401D01*
X172085Y288290D01*
X172083Y288179D01*
X172077Y288069D01*
X172068Y287958D01*
X172054Y287848D01*
X172037Y287739D01*
X172016Y287630D01*
X171991Y287522D01*
X171962Y287415D01*
X171930Y287309D01*
X171894Y287204D01*
X171854Y287101D01*
X171811Y286999D01*
X171764Y286898D01*
X171713Y286799D01*
X171660Y286702D01*
X171603Y286608D01*
X171542Y286515D01*
X171479Y286424D01*
X171412Y286335D01*
X171342Y286249D01*
X171269Y286166D01*
X171194Y286084D01*
X171116Y286006D01*
X171034Y285931D01*
X170951Y285858D01*
X170865Y285788D01*
X170776Y285721D01*
X170685Y285658D01*
X170592Y285597D01*
X170497Y285540D01*
X170401Y285487D01*
X170302Y285436D01*
X170201Y285389D01*
X170099Y285346D01*
X169996Y285306D01*
X169891Y285270D01*
X169785Y285238D01*
X169678Y285209D01*
X169570Y285184D01*
X169461Y285163D01*
X169352Y285146D01*
X169242Y285132D01*
X169131Y285123D01*
X169021Y285117D01*
X168910Y285115D01*
X165735Y285115D01*
X169545Y285115D02*
X172085Y280035D01*
X177082Y282575D02*
X179622Y291465D01*
X177082Y282575D02*
X183432Y282575D01*
X181527Y285115D02*
X181527Y280035D01*
X85725Y387985D02*
X85725Y399415D01*
X88900Y399415D01*
X89011Y399413D01*
X89121Y399407D01*
X89232Y399398D01*
X89342Y399384D01*
X89451Y399367D01*
X89560Y399346D01*
X89668Y399321D01*
X89775Y399292D01*
X89881Y399260D01*
X89986Y399224D01*
X90089Y399184D01*
X90191Y399141D01*
X90292Y399094D01*
X90391Y399043D01*
X90488Y398990D01*
X90582Y398933D01*
X90675Y398872D01*
X90766Y398809D01*
X90855Y398742D01*
X90941Y398672D01*
X91024Y398599D01*
X91106Y398524D01*
X91184Y398446D01*
X91259Y398364D01*
X91332Y398281D01*
X91402Y398195D01*
X91469Y398106D01*
X91532Y398015D01*
X91593Y397922D01*
X91650Y397827D01*
X91703Y397731D01*
X91754Y397632D01*
X91801Y397531D01*
X91844Y397429D01*
X91884Y397326D01*
X91920Y397221D01*
X91952Y397115D01*
X91981Y397008D01*
X92006Y396900D01*
X92027Y396791D01*
X92044Y396682D01*
X92058Y396572D01*
X92067Y396461D01*
X92073Y396351D01*
X92075Y396240D01*
X92073Y396129D01*
X92067Y396019D01*
X92058Y395908D01*
X92044Y395798D01*
X92027Y395689D01*
X92006Y395580D01*
X91981Y395472D01*
X91952Y395365D01*
X91920Y395259D01*
X91884Y395154D01*
X91844Y395051D01*
X91801Y394949D01*
X91754Y394848D01*
X91703Y394749D01*
X91650Y394652D01*
X91593Y394558D01*
X91532Y394465D01*
X91469Y394374D01*
X91402Y394285D01*
X91332Y394199D01*
X91259Y394116D01*
X91184Y394034D01*
X91106Y393956D01*
X91024Y393881D01*
X90941Y393808D01*
X90855Y393738D01*
X90766Y393671D01*
X90675Y393608D01*
X90582Y393547D01*
X90487Y393490D01*
X90391Y393437D01*
X90292Y393386D01*
X90191Y393339D01*
X90089Y393296D01*
X89986Y393256D01*
X89881Y393220D01*
X89775Y393188D01*
X89668Y393159D01*
X89560Y393134D01*
X89451Y393113D01*
X89342Y393096D01*
X89232Y393082D01*
X89121Y393073D01*
X89011Y393067D01*
X88900Y393065D01*
X85725Y393065D01*
X89535Y393065D02*
X92075Y387985D01*
X97479Y387985D02*
X97479Y399415D01*
X102559Y399415D01*
X102559Y394335D02*
X97479Y394335D01*
X106978Y396875D02*
X110153Y399415D01*
X110153Y387985D01*
X106978Y387985D02*
X113328Y387985D01*
X165735Y253365D02*
X165735Y241935D01*
X165735Y253365D02*
X168910Y253365D01*
X169021Y253363D01*
X169131Y253357D01*
X169242Y253348D01*
X169352Y253334D01*
X169461Y253317D01*
X169570Y253296D01*
X169678Y253271D01*
X169785Y253242D01*
X169891Y253210D01*
X169996Y253174D01*
X170099Y253134D01*
X170201Y253091D01*
X170302Y253044D01*
X170401Y252993D01*
X170498Y252940D01*
X170592Y252883D01*
X170685Y252822D01*
X170776Y252759D01*
X170865Y252692D01*
X170951Y252622D01*
X171034Y252549D01*
X171116Y252474D01*
X171194Y252396D01*
X171269Y252314D01*
X171342Y252231D01*
X171412Y252145D01*
X171479Y252056D01*
X171542Y251965D01*
X171603Y251872D01*
X171660Y251777D01*
X171713Y251681D01*
X171764Y251582D01*
X171811Y251481D01*
X171854Y251379D01*
X171894Y251276D01*
X171930Y251171D01*
X171962Y251065D01*
X171991Y250958D01*
X172016Y250850D01*
X172037Y250741D01*
X172054Y250632D01*
X172068Y250522D01*
X172077Y250411D01*
X172083Y250301D01*
X172085Y250190D01*
X172083Y250079D01*
X172077Y249969D01*
X172068Y249858D01*
X172054Y249748D01*
X172037Y249639D01*
X172016Y249530D01*
X171991Y249422D01*
X171962Y249315D01*
X171930Y249209D01*
X171894Y249104D01*
X171854Y249001D01*
X171811Y248899D01*
X171764Y248798D01*
X171713Y248699D01*
X171660Y248602D01*
X171603Y248508D01*
X171542Y248415D01*
X171479Y248324D01*
X171412Y248235D01*
X171342Y248149D01*
X171269Y248066D01*
X171194Y247984D01*
X171116Y247906D01*
X171034Y247831D01*
X170951Y247758D01*
X170865Y247688D01*
X170776Y247621D01*
X170685Y247558D01*
X170592Y247497D01*
X170497Y247440D01*
X170401Y247387D01*
X170302Y247336D01*
X170201Y247289D01*
X170099Y247246D01*
X169996Y247206D01*
X169891Y247170D01*
X169785Y247138D01*
X169678Y247109D01*
X169570Y247084D01*
X169461Y247063D01*
X169352Y247046D01*
X169242Y247032D01*
X169131Y247023D01*
X169021Y247017D01*
X168910Y247015D01*
X165735Y247015D01*
X169545Y247015D02*
X172085Y241935D01*
X177489Y241935D02*
X177489Y253365D01*
X182569Y253365D01*
X182569Y248285D02*
X177489Y248285D01*
X190481Y253366D02*
X190585Y253364D01*
X190690Y253358D01*
X190794Y253349D01*
X190897Y253336D01*
X191000Y253318D01*
X191102Y253298D01*
X191204Y253273D01*
X191304Y253245D01*
X191404Y253213D01*
X191502Y253177D01*
X191599Y253138D01*
X191694Y253096D01*
X191788Y253050D01*
X191880Y253000D01*
X191970Y252948D01*
X192058Y252892D01*
X192144Y252832D01*
X192228Y252770D01*
X192309Y252705D01*
X192388Y252637D01*
X192465Y252565D01*
X192538Y252492D01*
X192610Y252415D01*
X192678Y252336D01*
X192743Y252255D01*
X192805Y252171D01*
X192865Y252085D01*
X192921Y251997D01*
X192973Y251907D01*
X193023Y251815D01*
X193069Y251721D01*
X193111Y251626D01*
X193150Y251529D01*
X193186Y251431D01*
X193218Y251331D01*
X193246Y251231D01*
X193271Y251129D01*
X193291Y251027D01*
X193309Y250924D01*
X193322Y250821D01*
X193331Y250717D01*
X193337Y250612D01*
X193339Y250508D01*
X190481Y253365D02*
X190363Y253363D01*
X190244Y253357D01*
X190126Y253348D01*
X190009Y253335D01*
X189892Y253317D01*
X189775Y253297D01*
X189659Y253272D01*
X189544Y253244D01*
X189431Y253211D01*
X189318Y253176D01*
X189206Y253136D01*
X189096Y253094D01*
X188987Y253047D01*
X188879Y252997D01*
X188774Y252944D01*
X188670Y252887D01*
X188568Y252827D01*
X188468Y252764D01*
X188370Y252697D01*
X188274Y252628D01*
X188181Y252555D01*
X188090Y252479D01*
X188001Y252401D01*
X187915Y252319D01*
X187832Y252235D01*
X187751Y252149D01*
X187674Y252059D01*
X187599Y251968D01*
X187527Y251874D01*
X187458Y251777D01*
X187393Y251679D01*
X187330Y251578D01*
X187271Y251475D01*
X187215Y251371D01*
X187163Y251265D01*
X187114Y251157D01*
X187069Y251048D01*
X187027Y250937D01*
X186989Y250825D01*
X192386Y248286D02*
X192462Y248361D01*
X192537Y248440D01*
X192608Y248521D01*
X192677Y248605D01*
X192742Y248691D01*
X192804Y248779D01*
X192864Y248869D01*
X192920Y248961D01*
X192973Y249056D01*
X193022Y249152D01*
X193068Y249250D01*
X193111Y249349D01*
X193150Y249450D01*
X193185Y249552D01*
X193217Y249655D01*
X193245Y249759D01*
X193270Y249864D01*
X193291Y249971D01*
X193308Y250077D01*
X193321Y250184D01*
X193330Y250292D01*
X193336Y250400D01*
X193338Y250508D01*
X192386Y248285D02*
X186988Y241935D01*
X193338Y241935D01*
X150495Y222885D02*
X150495Y211455D01*
X150495Y222885D02*
X153670Y222885D01*
X153781Y222883D01*
X153891Y222877D01*
X154002Y222868D01*
X154112Y222854D01*
X154221Y222837D01*
X154330Y222816D01*
X154438Y222791D01*
X154545Y222762D01*
X154651Y222730D01*
X154756Y222694D01*
X154859Y222654D01*
X154961Y222611D01*
X155062Y222564D01*
X155161Y222513D01*
X155258Y222460D01*
X155352Y222403D01*
X155445Y222342D01*
X155536Y222279D01*
X155625Y222212D01*
X155711Y222142D01*
X155794Y222069D01*
X155876Y221994D01*
X155954Y221916D01*
X156029Y221834D01*
X156102Y221751D01*
X156172Y221665D01*
X156239Y221576D01*
X156302Y221485D01*
X156363Y221392D01*
X156420Y221297D01*
X156473Y221201D01*
X156524Y221102D01*
X156571Y221001D01*
X156614Y220899D01*
X156654Y220796D01*
X156690Y220691D01*
X156722Y220585D01*
X156751Y220478D01*
X156776Y220370D01*
X156797Y220261D01*
X156814Y220152D01*
X156828Y220042D01*
X156837Y219931D01*
X156843Y219821D01*
X156845Y219710D01*
X156843Y219599D01*
X156837Y219489D01*
X156828Y219378D01*
X156814Y219268D01*
X156797Y219159D01*
X156776Y219050D01*
X156751Y218942D01*
X156722Y218835D01*
X156690Y218729D01*
X156654Y218624D01*
X156614Y218521D01*
X156571Y218419D01*
X156524Y218318D01*
X156473Y218219D01*
X156420Y218122D01*
X156363Y218028D01*
X156302Y217935D01*
X156239Y217844D01*
X156172Y217755D01*
X156102Y217669D01*
X156029Y217586D01*
X155954Y217504D01*
X155876Y217426D01*
X155794Y217351D01*
X155711Y217278D01*
X155625Y217208D01*
X155536Y217141D01*
X155445Y217078D01*
X155352Y217017D01*
X155257Y216960D01*
X155161Y216907D01*
X155062Y216856D01*
X154961Y216809D01*
X154859Y216766D01*
X154756Y216726D01*
X154651Y216690D01*
X154545Y216658D01*
X154438Y216629D01*
X154330Y216604D01*
X154221Y216583D01*
X154112Y216566D01*
X154002Y216552D01*
X153891Y216543D01*
X153781Y216537D01*
X153670Y216535D01*
X150495Y216535D01*
X154305Y216535D02*
X156845Y211455D01*
X164255Y211455D02*
X164255Y222885D01*
X161080Y222885D02*
X167430Y222885D01*
X172155Y211455D02*
X177235Y211455D01*
X172155Y211455D02*
X172155Y222885D01*
X177235Y222885D01*
X175965Y217805D02*
X172155Y217805D01*
X185083Y211455D02*
X185183Y211457D01*
X185282Y211463D01*
X185382Y211473D01*
X185480Y211486D01*
X185579Y211504D01*
X185676Y211525D01*
X185772Y211550D01*
X185868Y211579D01*
X185962Y211612D01*
X186055Y211648D01*
X186146Y211688D01*
X186236Y211732D01*
X186324Y211779D01*
X186410Y211829D01*
X186494Y211883D01*
X186576Y211940D01*
X186655Y212000D01*
X186733Y212064D01*
X186807Y212130D01*
X186879Y212199D01*
X186948Y212271D01*
X187014Y212345D01*
X187078Y212423D01*
X187138Y212502D01*
X187195Y212584D01*
X187249Y212668D01*
X187299Y212754D01*
X187346Y212842D01*
X187390Y212932D01*
X187430Y213023D01*
X187466Y213116D01*
X187499Y213210D01*
X187528Y213306D01*
X187553Y213402D01*
X187574Y213499D01*
X187592Y213598D01*
X187605Y213696D01*
X187615Y213796D01*
X187621Y213895D01*
X187623Y213995D01*
X185083Y211455D02*
X184942Y211457D01*
X184801Y211462D01*
X184660Y211472D01*
X184519Y211485D01*
X184379Y211501D01*
X184239Y211522D01*
X184100Y211546D01*
X183961Y211574D01*
X183824Y211605D01*
X183687Y211640D01*
X183551Y211678D01*
X183416Y211720D01*
X183283Y211766D01*
X183150Y211815D01*
X183019Y211868D01*
X182890Y211924D01*
X182761Y211983D01*
X182635Y212046D01*
X182510Y212112D01*
X182387Y212181D01*
X182266Y212254D01*
X182147Y212330D01*
X182029Y212409D01*
X181914Y212490D01*
X181802Y212575D01*
X181691Y212663D01*
X181583Y212754D01*
X181477Y212847D01*
X181374Y212944D01*
X181273Y213043D01*
X181591Y220345D02*
X181593Y220445D01*
X181599Y220544D01*
X181609Y220644D01*
X181622Y220742D01*
X181640Y220841D01*
X181661Y220938D01*
X181686Y221034D01*
X181715Y221130D01*
X181748Y221224D01*
X181784Y221317D01*
X181824Y221408D01*
X181868Y221498D01*
X181915Y221586D01*
X181965Y221672D01*
X182019Y221756D01*
X182076Y221838D01*
X182136Y221917D01*
X182200Y221995D01*
X182266Y222069D01*
X182335Y222141D01*
X182407Y222210D01*
X182481Y222276D01*
X182559Y222340D01*
X182638Y222400D01*
X182720Y222457D01*
X182804Y222511D01*
X182890Y222561D01*
X182978Y222608D01*
X183068Y222652D01*
X183159Y222692D01*
X183252Y222728D01*
X183346Y222761D01*
X183442Y222790D01*
X183538Y222815D01*
X183635Y222836D01*
X183734Y222854D01*
X183832Y222867D01*
X183932Y222877D01*
X184031Y222883D01*
X184131Y222885D01*
X184131Y222886D02*
X184264Y222884D01*
X184397Y222879D01*
X184530Y222869D01*
X184663Y222856D01*
X184795Y222839D01*
X184927Y222819D01*
X185058Y222795D01*
X185188Y222767D01*
X185318Y222736D01*
X185446Y222701D01*
X185574Y222662D01*
X185700Y222620D01*
X185825Y222574D01*
X185949Y222525D01*
X186072Y222473D01*
X186193Y222417D01*
X186312Y222357D01*
X186430Y222295D01*
X186545Y222229D01*
X186659Y222160D01*
X186771Y222087D01*
X186881Y222012D01*
X186989Y221933D01*
X182860Y218122D02*
X182776Y218174D01*
X182693Y218229D01*
X182613Y218288D01*
X182535Y218349D01*
X182460Y218413D01*
X182387Y218481D01*
X182316Y218551D01*
X182249Y218623D01*
X182184Y218698D01*
X182122Y218776D01*
X182063Y218856D01*
X182007Y218938D01*
X181955Y219022D01*
X181906Y219108D01*
X181860Y219196D01*
X181817Y219286D01*
X181778Y219377D01*
X181743Y219470D01*
X181711Y219564D01*
X181683Y219659D01*
X181658Y219755D01*
X181638Y219852D01*
X181620Y219950D01*
X181607Y220048D01*
X181598Y220147D01*
X181592Y220246D01*
X181590Y220345D01*
X186353Y216218D02*
X186437Y216166D01*
X186520Y216111D01*
X186600Y216052D01*
X186678Y215991D01*
X186753Y215927D01*
X186826Y215859D01*
X186897Y215789D01*
X186964Y215717D01*
X187029Y215642D01*
X187091Y215564D01*
X187150Y215484D01*
X187206Y215402D01*
X187258Y215318D01*
X187307Y215232D01*
X187353Y215144D01*
X187396Y215054D01*
X187435Y214963D01*
X187470Y214870D01*
X187502Y214776D01*
X187530Y214681D01*
X187555Y214585D01*
X187575Y214488D01*
X187593Y214390D01*
X187606Y214292D01*
X187615Y214193D01*
X187621Y214094D01*
X187623Y213995D01*
X186353Y216218D02*
X182861Y218123D01*
X194735Y222885D02*
X194735Y211455D01*
X191560Y222885D02*
X197910Y222885D01*
D10*
X192532Y354838D02*
X239268Y354838D01*
X239268Y356362D01*
X239268Y407162D02*
X192532Y407162D01*
X192532Y405638D01*
X192532Y356362D02*
X192532Y354838D01*
X239268Y405638D02*
X239268Y407162D01*
D12*
X183353Y407868D02*
X183353Y411847D01*
X183353Y407868D02*
X185674Y404883D01*
X183353Y407868D02*
X181031Y404883D01*
X183353Y407868D02*
X187000Y409194D01*
X183353Y407868D02*
X179705Y409194D01*
X285115Y399669D02*
X285115Y391047D01*
X285117Y390933D01*
X285123Y390818D01*
X285133Y390704D01*
X285147Y390591D01*
X285164Y390477D01*
X285186Y390365D01*
X285211Y390253D01*
X285241Y390143D01*
X285274Y390033D01*
X285311Y389925D01*
X285351Y389818D01*
X285396Y389712D01*
X285443Y389608D01*
X285495Y389506D01*
X285550Y389406D01*
X285608Y389307D01*
X285670Y389211D01*
X285735Y389116D01*
X285803Y389025D01*
X285875Y388935D01*
X285949Y388848D01*
X286026Y388764D01*
X286107Y388682D01*
X286190Y388603D01*
X286275Y388527D01*
X286364Y388454D01*
X286454Y388385D01*
X286547Y388318D01*
X286643Y388255D01*
X286740Y388195D01*
X286840Y388138D01*
X286941Y388085D01*
X287044Y388035D01*
X287149Y387989D01*
X287255Y387946D01*
X287363Y387908D01*
X287472Y387873D01*
X287582Y387842D01*
X287693Y387814D01*
X287805Y387791D01*
X287918Y387771D01*
X288031Y387755D01*
X288145Y387743D01*
X288259Y387735D01*
X288374Y387731D01*
X288488Y387731D01*
X288603Y387735D01*
X288717Y387743D01*
X288831Y387755D01*
X288944Y387771D01*
X289057Y387791D01*
X289169Y387814D01*
X289280Y387842D01*
X289390Y387873D01*
X289499Y387908D01*
X289607Y387946D01*
X289713Y387989D01*
X289818Y388035D01*
X289921Y388085D01*
X290022Y388138D01*
X290122Y388195D01*
X290219Y388255D01*
X290315Y388318D01*
X290408Y388385D01*
X290498Y388454D01*
X290587Y388527D01*
X290672Y388603D01*
X290755Y388682D01*
X290836Y388764D01*
X290913Y388848D01*
X290987Y388935D01*
X291059Y389025D01*
X291127Y389116D01*
X291192Y389211D01*
X291254Y389307D01*
X291312Y389406D01*
X291367Y389506D01*
X291419Y389608D01*
X291466Y389712D01*
X291511Y389818D01*
X291551Y389925D01*
X291588Y390033D01*
X291621Y390143D01*
X291651Y390253D01*
X291676Y390365D01*
X291698Y390477D01*
X291715Y390591D01*
X291729Y390704D01*
X291739Y390818D01*
X291745Y390933D01*
X291747Y391047D01*
X291747Y399669D01*
X296926Y397016D02*
X300242Y399669D01*
X300242Y387731D01*
X296926Y387731D02*
X303558Y387731D01*
D13*
X163278Y343535D02*
X163278Y332105D01*
X163278Y343535D02*
X166453Y343535D01*
X166564Y343533D01*
X166674Y343527D01*
X166785Y343518D01*
X166895Y343504D01*
X167004Y343487D01*
X167113Y343466D01*
X167221Y343441D01*
X167328Y343412D01*
X167434Y343380D01*
X167539Y343344D01*
X167642Y343304D01*
X167744Y343261D01*
X167845Y343214D01*
X167944Y343163D01*
X168041Y343110D01*
X168135Y343053D01*
X168228Y342992D01*
X168319Y342929D01*
X168408Y342862D01*
X168494Y342792D01*
X168577Y342719D01*
X168659Y342644D01*
X168737Y342566D01*
X168812Y342484D01*
X168885Y342401D01*
X168955Y342315D01*
X169022Y342226D01*
X169085Y342135D01*
X169146Y342042D01*
X169203Y341947D01*
X169256Y341851D01*
X169307Y341752D01*
X169354Y341651D01*
X169397Y341549D01*
X169437Y341446D01*
X169473Y341341D01*
X169505Y341235D01*
X169534Y341128D01*
X169559Y341020D01*
X169580Y340911D01*
X169597Y340802D01*
X169611Y340692D01*
X169620Y340581D01*
X169626Y340471D01*
X169628Y340360D01*
X169626Y340249D01*
X169620Y340139D01*
X169611Y340028D01*
X169597Y339918D01*
X169580Y339809D01*
X169559Y339700D01*
X169534Y339592D01*
X169505Y339485D01*
X169473Y339379D01*
X169437Y339274D01*
X169397Y339171D01*
X169354Y339069D01*
X169307Y338968D01*
X169256Y338869D01*
X169203Y338772D01*
X169146Y338678D01*
X169085Y338585D01*
X169022Y338494D01*
X168955Y338405D01*
X168885Y338319D01*
X168812Y338236D01*
X168737Y338154D01*
X168659Y338076D01*
X168577Y338001D01*
X168494Y337928D01*
X168408Y337858D01*
X168319Y337791D01*
X168228Y337728D01*
X168135Y337667D01*
X168040Y337610D01*
X167944Y337557D01*
X167845Y337506D01*
X167744Y337459D01*
X167642Y337416D01*
X167539Y337376D01*
X167434Y337340D01*
X167328Y337308D01*
X167221Y337279D01*
X167113Y337254D01*
X167004Y337233D01*
X166895Y337216D01*
X166785Y337202D01*
X166674Y337193D01*
X166564Y337187D01*
X166453Y337185D01*
X163278Y337185D01*
X167088Y337185D02*
X169628Y332105D01*
X174625Y332105D02*
X178435Y332105D01*
X178535Y332107D01*
X178634Y332113D01*
X178734Y332123D01*
X178832Y332136D01*
X178931Y332154D01*
X179028Y332175D01*
X179124Y332200D01*
X179220Y332229D01*
X179314Y332262D01*
X179407Y332298D01*
X179498Y332338D01*
X179588Y332382D01*
X179676Y332429D01*
X179762Y332479D01*
X179846Y332533D01*
X179928Y332590D01*
X180007Y332650D01*
X180085Y332714D01*
X180159Y332780D01*
X180231Y332849D01*
X180300Y332921D01*
X180366Y332995D01*
X180430Y333073D01*
X180490Y333152D01*
X180547Y333234D01*
X180601Y333318D01*
X180651Y333404D01*
X180698Y333492D01*
X180742Y333582D01*
X180782Y333673D01*
X180818Y333766D01*
X180851Y333860D01*
X180880Y333956D01*
X180905Y334052D01*
X180926Y334149D01*
X180944Y334248D01*
X180957Y334346D01*
X180967Y334446D01*
X180973Y334545D01*
X180975Y334645D01*
X180975Y335915D01*
X180973Y336015D01*
X180967Y336114D01*
X180957Y336214D01*
X180944Y336312D01*
X180926Y336411D01*
X180905Y336508D01*
X180880Y336604D01*
X180851Y336700D01*
X180818Y336794D01*
X180782Y336887D01*
X180742Y336978D01*
X180698Y337068D01*
X180651Y337156D01*
X180601Y337242D01*
X180547Y337326D01*
X180490Y337408D01*
X180430Y337487D01*
X180366Y337565D01*
X180300Y337639D01*
X180231Y337711D01*
X180159Y337780D01*
X180085Y337846D01*
X180007Y337910D01*
X179928Y337970D01*
X179846Y338027D01*
X179762Y338081D01*
X179676Y338131D01*
X179588Y338178D01*
X179498Y338222D01*
X179407Y338262D01*
X179314Y338298D01*
X179220Y338331D01*
X179124Y338360D01*
X179028Y338385D01*
X178931Y338406D01*
X178832Y338424D01*
X178734Y338437D01*
X178634Y338447D01*
X178535Y338453D01*
X178435Y338455D01*
X174625Y338455D01*
X174625Y343535D01*
X180975Y343535D01*
D14*
X203200Y418795D02*
X203200Y419405D01*
D13*
X160655Y417195D02*
X158115Y417195D01*
X158015Y417197D01*
X157916Y417203D01*
X157816Y417213D01*
X157718Y417226D01*
X157619Y417244D01*
X157522Y417265D01*
X157426Y417290D01*
X157330Y417319D01*
X157236Y417352D01*
X157143Y417388D01*
X157052Y417428D01*
X156962Y417472D01*
X156874Y417519D01*
X156788Y417569D01*
X156704Y417623D01*
X156622Y417680D01*
X156543Y417740D01*
X156465Y417804D01*
X156391Y417870D01*
X156319Y417939D01*
X156250Y418011D01*
X156184Y418085D01*
X156120Y418163D01*
X156060Y418242D01*
X156003Y418324D01*
X155949Y418408D01*
X155899Y418494D01*
X155852Y418582D01*
X155808Y418672D01*
X155768Y418763D01*
X155732Y418856D01*
X155699Y418950D01*
X155670Y419046D01*
X155645Y419142D01*
X155624Y419239D01*
X155606Y419338D01*
X155593Y419436D01*
X155583Y419536D01*
X155577Y419635D01*
X155575Y419735D01*
X155575Y426085D01*
X155577Y426185D01*
X155583Y426284D01*
X155593Y426384D01*
X155606Y426482D01*
X155624Y426581D01*
X155645Y426678D01*
X155670Y426774D01*
X155699Y426870D01*
X155732Y426964D01*
X155768Y427057D01*
X155808Y427148D01*
X155852Y427238D01*
X155899Y427326D01*
X155949Y427412D01*
X156003Y427496D01*
X156060Y427578D01*
X156120Y427657D01*
X156184Y427735D01*
X156250Y427809D01*
X156319Y427881D01*
X156391Y427950D01*
X156465Y428016D01*
X156543Y428080D01*
X156622Y428140D01*
X156704Y428197D01*
X156788Y428251D01*
X156874Y428301D01*
X156962Y428348D01*
X157052Y428392D01*
X157143Y428432D01*
X157236Y428468D01*
X157330Y428501D01*
X157426Y428530D01*
X157522Y428555D01*
X157619Y428576D01*
X157718Y428594D01*
X157816Y428607D01*
X157916Y428617D01*
X158015Y428623D01*
X158115Y428625D01*
X160655Y428625D01*
X165137Y426085D02*
X168312Y428625D01*
X168312Y417195D01*
X165137Y417195D02*
X171487Y417195D01*
D14*
X241300Y418795D02*
X241300Y419405D01*
D13*
X278765Y415925D02*
X281305Y415925D01*
X278765Y415925D02*
X278665Y415927D01*
X278566Y415933D01*
X278466Y415943D01*
X278368Y415956D01*
X278269Y415974D01*
X278172Y415995D01*
X278076Y416020D01*
X277980Y416049D01*
X277886Y416082D01*
X277793Y416118D01*
X277702Y416158D01*
X277612Y416202D01*
X277524Y416249D01*
X277438Y416299D01*
X277354Y416353D01*
X277272Y416410D01*
X277193Y416470D01*
X277115Y416534D01*
X277041Y416600D01*
X276969Y416669D01*
X276900Y416741D01*
X276834Y416815D01*
X276770Y416893D01*
X276710Y416972D01*
X276653Y417054D01*
X276599Y417138D01*
X276549Y417224D01*
X276502Y417312D01*
X276458Y417402D01*
X276418Y417493D01*
X276382Y417586D01*
X276349Y417680D01*
X276320Y417776D01*
X276295Y417872D01*
X276274Y417969D01*
X276256Y418068D01*
X276243Y418166D01*
X276233Y418266D01*
X276227Y418365D01*
X276225Y418465D01*
X276225Y424815D01*
X276227Y424915D01*
X276233Y425014D01*
X276243Y425114D01*
X276256Y425212D01*
X276274Y425311D01*
X276295Y425408D01*
X276320Y425504D01*
X276349Y425600D01*
X276382Y425694D01*
X276418Y425787D01*
X276458Y425878D01*
X276502Y425968D01*
X276549Y426056D01*
X276599Y426142D01*
X276653Y426226D01*
X276710Y426308D01*
X276770Y426387D01*
X276834Y426465D01*
X276900Y426539D01*
X276969Y426611D01*
X277041Y426680D01*
X277115Y426746D01*
X277193Y426810D01*
X277272Y426870D01*
X277354Y426927D01*
X277438Y426981D01*
X277524Y427031D01*
X277612Y427078D01*
X277702Y427122D01*
X277793Y427162D01*
X277886Y427198D01*
X277980Y427231D01*
X278076Y427260D01*
X278172Y427285D01*
X278269Y427306D01*
X278368Y427324D01*
X278466Y427337D01*
X278566Y427347D01*
X278665Y427353D01*
X278765Y427355D01*
X281305Y427355D01*
X289280Y427356D02*
X289384Y427354D01*
X289489Y427348D01*
X289593Y427339D01*
X289696Y427326D01*
X289799Y427308D01*
X289901Y427288D01*
X290003Y427263D01*
X290103Y427235D01*
X290203Y427203D01*
X290301Y427167D01*
X290398Y427128D01*
X290493Y427086D01*
X290587Y427040D01*
X290679Y426990D01*
X290769Y426938D01*
X290857Y426882D01*
X290943Y426822D01*
X291027Y426760D01*
X291108Y426695D01*
X291187Y426627D01*
X291264Y426555D01*
X291337Y426482D01*
X291409Y426405D01*
X291477Y426326D01*
X291542Y426245D01*
X291604Y426161D01*
X291664Y426075D01*
X291720Y425987D01*
X291772Y425897D01*
X291822Y425805D01*
X291868Y425711D01*
X291910Y425616D01*
X291949Y425519D01*
X291985Y425421D01*
X292017Y425321D01*
X292045Y425221D01*
X292070Y425119D01*
X292090Y425017D01*
X292108Y424914D01*
X292121Y424811D01*
X292130Y424707D01*
X292136Y424602D01*
X292138Y424498D01*
X289280Y427355D02*
X289162Y427353D01*
X289043Y427347D01*
X288925Y427338D01*
X288808Y427325D01*
X288691Y427307D01*
X288574Y427287D01*
X288458Y427262D01*
X288343Y427234D01*
X288230Y427201D01*
X288117Y427166D01*
X288005Y427126D01*
X287895Y427084D01*
X287786Y427037D01*
X287678Y426987D01*
X287573Y426934D01*
X287469Y426877D01*
X287367Y426817D01*
X287267Y426754D01*
X287169Y426687D01*
X287073Y426618D01*
X286980Y426545D01*
X286889Y426469D01*
X286800Y426391D01*
X286714Y426309D01*
X286631Y426225D01*
X286550Y426139D01*
X286473Y426049D01*
X286398Y425958D01*
X286326Y425864D01*
X286257Y425767D01*
X286192Y425669D01*
X286129Y425568D01*
X286070Y425465D01*
X286014Y425361D01*
X285962Y425255D01*
X285913Y425147D01*
X285868Y425038D01*
X285826Y424927D01*
X285788Y424815D01*
X291185Y422276D02*
X291261Y422351D01*
X291336Y422430D01*
X291407Y422511D01*
X291476Y422595D01*
X291541Y422681D01*
X291603Y422769D01*
X291663Y422859D01*
X291719Y422951D01*
X291772Y423046D01*
X291821Y423142D01*
X291867Y423240D01*
X291910Y423339D01*
X291949Y423440D01*
X291984Y423542D01*
X292016Y423645D01*
X292044Y423749D01*
X292069Y423854D01*
X292090Y423961D01*
X292107Y424067D01*
X292120Y424174D01*
X292129Y424282D01*
X292135Y424390D01*
X292137Y424498D01*
X291185Y422275D02*
X285787Y415925D01*
X292137Y415925D01*
D14*
X203200Y444195D02*
X203200Y444805D01*
D13*
X158115Y440055D02*
X155575Y440055D01*
X155475Y440057D01*
X155376Y440063D01*
X155276Y440073D01*
X155178Y440086D01*
X155079Y440104D01*
X154982Y440125D01*
X154886Y440150D01*
X154790Y440179D01*
X154696Y440212D01*
X154603Y440248D01*
X154512Y440288D01*
X154422Y440332D01*
X154334Y440379D01*
X154248Y440429D01*
X154164Y440483D01*
X154082Y440540D01*
X154003Y440600D01*
X153925Y440664D01*
X153851Y440730D01*
X153779Y440799D01*
X153710Y440871D01*
X153644Y440945D01*
X153580Y441023D01*
X153520Y441102D01*
X153463Y441184D01*
X153409Y441268D01*
X153359Y441354D01*
X153312Y441442D01*
X153268Y441532D01*
X153228Y441623D01*
X153192Y441716D01*
X153159Y441810D01*
X153130Y441906D01*
X153105Y442002D01*
X153084Y442099D01*
X153066Y442198D01*
X153053Y442296D01*
X153043Y442396D01*
X153037Y442495D01*
X153035Y442595D01*
X153035Y448945D01*
X153037Y449045D01*
X153043Y449144D01*
X153053Y449244D01*
X153066Y449342D01*
X153084Y449441D01*
X153105Y449538D01*
X153130Y449634D01*
X153159Y449730D01*
X153192Y449824D01*
X153228Y449917D01*
X153268Y450008D01*
X153312Y450098D01*
X153359Y450186D01*
X153409Y450272D01*
X153463Y450356D01*
X153520Y450438D01*
X153580Y450517D01*
X153644Y450595D01*
X153710Y450669D01*
X153779Y450741D01*
X153851Y450810D01*
X153925Y450876D01*
X154003Y450940D01*
X154082Y451000D01*
X154164Y451057D01*
X154248Y451111D01*
X154334Y451161D01*
X154422Y451208D01*
X154512Y451252D01*
X154603Y451292D01*
X154696Y451328D01*
X154790Y451361D01*
X154886Y451390D01*
X154982Y451415D01*
X155079Y451436D01*
X155178Y451454D01*
X155276Y451467D01*
X155376Y451477D01*
X155475Y451483D01*
X155575Y451485D01*
X158115Y451485D01*
X162597Y440055D02*
X165772Y440055D01*
X165883Y440057D01*
X165993Y440063D01*
X166104Y440072D01*
X166214Y440086D01*
X166323Y440103D01*
X166432Y440124D01*
X166540Y440149D01*
X166647Y440178D01*
X166753Y440210D01*
X166858Y440246D01*
X166961Y440286D01*
X167063Y440329D01*
X167164Y440376D01*
X167263Y440427D01*
X167359Y440480D01*
X167454Y440537D01*
X167547Y440598D01*
X167638Y440661D01*
X167727Y440728D01*
X167813Y440798D01*
X167896Y440871D01*
X167978Y440946D01*
X168056Y441024D01*
X168131Y441106D01*
X168204Y441189D01*
X168274Y441275D01*
X168341Y441364D01*
X168404Y441455D01*
X168465Y441548D01*
X168522Y441642D01*
X168575Y441739D01*
X168626Y441838D01*
X168673Y441939D01*
X168716Y442041D01*
X168756Y442144D01*
X168792Y442249D01*
X168824Y442355D01*
X168853Y442462D01*
X168878Y442570D01*
X168899Y442679D01*
X168916Y442788D01*
X168930Y442898D01*
X168939Y443009D01*
X168945Y443119D01*
X168947Y443230D01*
X168945Y443341D01*
X168939Y443451D01*
X168930Y443562D01*
X168916Y443672D01*
X168899Y443781D01*
X168878Y443890D01*
X168853Y443998D01*
X168824Y444105D01*
X168792Y444211D01*
X168756Y444316D01*
X168716Y444419D01*
X168673Y444521D01*
X168626Y444622D01*
X168575Y444721D01*
X168522Y444817D01*
X168465Y444912D01*
X168404Y445005D01*
X168341Y445096D01*
X168274Y445185D01*
X168204Y445271D01*
X168131Y445354D01*
X168056Y445436D01*
X167978Y445514D01*
X167896Y445589D01*
X167813Y445662D01*
X167727Y445732D01*
X167638Y445799D01*
X167547Y445862D01*
X167454Y445923D01*
X167360Y445980D01*
X167263Y446033D01*
X167164Y446084D01*
X167063Y446131D01*
X166961Y446174D01*
X166858Y446214D01*
X166753Y446250D01*
X166647Y446282D01*
X166540Y446311D01*
X166432Y446336D01*
X166323Y446357D01*
X166214Y446374D01*
X166104Y446388D01*
X165993Y446397D01*
X165883Y446403D01*
X165772Y446405D01*
X166407Y451485D02*
X162597Y451485D01*
X166407Y451485D02*
X166507Y451483D01*
X166606Y451477D01*
X166706Y451467D01*
X166804Y451454D01*
X166903Y451436D01*
X167000Y451415D01*
X167096Y451390D01*
X167192Y451361D01*
X167286Y451328D01*
X167379Y451292D01*
X167470Y451252D01*
X167560Y451208D01*
X167648Y451161D01*
X167734Y451111D01*
X167818Y451057D01*
X167900Y451000D01*
X167979Y450940D01*
X168057Y450876D01*
X168131Y450810D01*
X168203Y450741D01*
X168272Y450669D01*
X168338Y450595D01*
X168402Y450517D01*
X168462Y450438D01*
X168519Y450356D01*
X168573Y450272D01*
X168623Y450186D01*
X168670Y450098D01*
X168714Y450008D01*
X168754Y449917D01*
X168790Y449824D01*
X168823Y449730D01*
X168852Y449634D01*
X168877Y449538D01*
X168898Y449441D01*
X168916Y449342D01*
X168929Y449244D01*
X168939Y449144D01*
X168945Y449045D01*
X168947Y448945D01*
X168945Y448845D01*
X168939Y448746D01*
X168929Y448646D01*
X168916Y448548D01*
X168898Y448449D01*
X168877Y448352D01*
X168852Y448256D01*
X168823Y448160D01*
X168790Y448066D01*
X168754Y447973D01*
X168714Y447882D01*
X168670Y447792D01*
X168623Y447704D01*
X168573Y447618D01*
X168519Y447534D01*
X168462Y447452D01*
X168402Y447373D01*
X168338Y447295D01*
X168272Y447221D01*
X168203Y447149D01*
X168131Y447080D01*
X168057Y447014D01*
X167979Y446950D01*
X167900Y446890D01*
X167818Y446833D01*
X167734Y446779D01*
X167648Y446729D01*
X167560Y446682D01*
X167470Y446638D01*
X167379Y446598D01*
X167286Y446562D01*
X167192Y446529D01*
X167096Y446500D01*
X167000Y446475D01*
X166903Y446454D01*
X166804Y446436D01*
X166706Y446423D01*
X166606Y446413D01*
X166507Y446407D01*
X166407Y446405D01*
X163867Y446405D01*
D14*
X241300Y444805D02*
X241300Y444195D01*
D13*
X278765Y441325D02*
X281305Y441325D01*
X278765Y441325D02*
X278665Y441327D01*
X278566Y441333D01*
X278466Y441343D01*
X278368Y441356D01*
X278269Y441374D01*
X278172Y441395D01*
X278076Y441420D01*
X277980Y441449D01*
X277886Y441482D01*
X277793Y441518D01*
X277702Y441558D01*
X277612Y441602D01*
X277524Y441649D01*
X277438Y441699D01*
X277354Y441753D01*
X277272Y441810D01*
X277193Y441870D01*
X277115Y441934D01*
X277041Y442000D01*
X276969Y442069D01*
X276900Y442141D01*
X276834Y442215D01*
X276770Y442293D01*
X276710Y442372D01*
X276653Y442454D01*
X276599Y442538D01*
X276549Y442624D01*
X276502Y442712D01*
X276458Y442802D01*
X276418Y442893D01*
X276382Y442986D01*
X276349Y443080D01*
X276320Y443176D01*
X276295Y443272D01*
X276274Y443369D01*
X276256Y443468D01*
X276243Y443566D01*
X276233Y443666D01*
X276227Y443765D01*
X276225Y443865D01*
X276225Y450215D01*
X276227Y450315D01*
X276233Y450414D01*
X276243Y450514D01*
X276256Y450612D01*
X276274Y450711D01*
X276295Y450808D01*
X276320Y450904D01*
X276349Y451000D01*
X276382Y451094D01*
X276418Y451187D01*
X276458Y451278D01*
X276502Y451368D01*
X276549Y451456D01*
X276599Y451542D01*
X276653Y451626D01*
X276710Y451708D01*
X276770Y451787D01*
X276834Y451865D01*
X276900Y451939D01*
X276969Y452011D01*
X277041Y452080D01*
X277115Y452146D01*
X277193Y452210D01*
X277272Y452270D01*
X277354Y452327D01*
X277438Y452381D01*
X277524Y452431D01*
X277612Y452478D01*
X277702Y452522D01*
X277793Y452562D01*
X277886Y452598D01*
X277980Y452631D01*
X278076Y452660D01*
X278172Y452685D01*
X278269Y452706D01*
X278368Y452724D01*
X278466Y452737D01*
X278566Y452747D01*
X278665Y452753D01*
X278765Y452755D01*
X281305Y452755D01*
X288327Y452755D02*
X285787Y443865D01*
X292137Y443865D01*
X290232Y446405D02*
X290232Y441325D01*
M02*
