G04 EAGLE Gerber RS-274X export*
G75*
%MOMM*%
%FSLAX34Y34*%
%LPD*%
%INSoldermask Top*%
%IPPOS*%
%AMOC8*
5,1,8,0,0,1.08239X$1,22.5*%
G01*
%ADD10C,1.625600*%
%ADD11R,1.354000X1.254000*%
%ADD12R,1.254000X1.354000*%
%ADD13R,2.438400X2.438400*%
%ADD14C,2.438400*%
%ADD15R,1.636600X0.526200*%
%ADD16R,0.954000X1.154000*%


D10*
X101600Y360934D03*
X101600Y342900D03*
X139700Y342900D03*
X139700Y360934D03*
D11*
X101600Y262500D03*
X101600Y245500D03*
D12*
X283600Y254000D03*
X300600Y254000D03*
X220100Y304800D03*
X237100Y304800D03*
X300600Y292100D03*
X283600Y292100D03*
X220100Y279400D03*
X237100Y279400D03*
X131200Y393700D03*
X148200Y393700D03*
X220100Y254000D03*
X237100Y254000D03*
X220100Y215900D03*
X237100Y215900D03*
D13*
X63500Y139700D03*
D14*
X88900Y139700D03*
X114300Y139700D03*
X139700Y139700D03*
X165100Y139700D03*
X190500Y139700D03*
X215900Y139700D03*
X241300Y139700D03*
X266700Y139700D03*
X292100Y139700D03*
X317500Y139700D03*
X342900Y139700D03*
D15*
X187650Y400500D03*
X187650Y394000D03*
X187650Y387500D03*
X187650Y381000D03*
X187650Y374500D03*
X187650Y368000D03*
X187650Y361500D03*
X244150Y361500D03*
X244150Y368000D03*
X244150Y374500D03*
X244150Y381000D03*
X244150Y387500D03*
X244150Y394000D03*
X244150Y400500D03*
D12*
X237100Y330200D03*
X220100Y330200D03*
D16*
X196700Y419100D03*
X209700Y419100D03*
X234800Y419100D03*
X247800Y419100D03*
X196700Y444500D03*
X209700Y444500D03*
X234800Y444500D03*
X247800Y444500D03*
M02*
