M48
; DRILL file KiCad 10.0.3 date 2026-10-01T01:56:30
; FORMAT={-:-/ absolute / metric / decimal}
; #@! TF.CreationDate,2026-10-01T01:56:30-07:00
; #@! TF.GenerationSoftware,Kicad,Pcbnew,10.0.3
; #@! TF.FileFunction,Plated,1,2,PTH
FMAT,2
METRIC
; #@! TA.AperFunction,Plated,PTH,ViaDrill
T1C0.200
; #@! TA.AperFunction,Plated,PTH,ViaDrill
T2C0.300
; #@! TA.AperFunction,Plated,PTH,ViaDrill
T3C0.400
; #@! TA.AperFunction,Plated,PTH,ComponentDrill
T4C0.762
; #@! TA.AperFunction,Plated,PTH,ComponentDrill
T5C0.800
; #@! TA.AperFunction,Plated,PTH,ComponentDrill
T6C0.900
; #@! TA.AperFunction,Plated,PTH,ComponentDrill
T7C0.914
; #@! TA.AperFunction,Plated,PTH,ComponentDrill
T8C0.920
; #@! TA.AperFunction,Plated,PTH,ComponentDrill
T9C0.950
; #@! TA.AperFunction,Plated,PTH,ComponentDrill
T10C1.000
; #@! TA.AperFunction,Plated,PTH,ComponentDrill
T11C1.100
; #@! TA.AperFunction,Plated,PTH,ComponentDrill
T12C1.200
; #@! TA.AperFunction,Plated,PTH,ComponentDrill
T13C2.000
; #@! TA.AperFunction,Plated,PTH,ComponentDrill
T14C2.100
; #@! TA.AperFunction,Plated,PTH,ComponentDrill
T15C2.330
; #@! TA.AperFunction,Plated,PTH,ComponentDrill
T16C3.000
; #@! TA.AperFunction,Plated,PTH,ComponentDrill
T17C4.500
%
G90
G05
T1
X117.25Y-105.5
X118.25Y-104.25
X119.75Y-102.5
X122.5Y-102.5
X122.5Y-103.75
X122.5Y-105.5
X129.75Y-101.75
X129.75Y-107.75
X130.5Y-101.75
X130.5Y-103.55
X131.25Y-101.75
X131.25Y-107.75
X132.0Y-101.75
X132.0Y-107.75
X132.75Y-101.75
X132.75Y-107.75
X133.5Y-101.75
X133.5Y-107.75
X134.25Y-107.75
X136.759Y-95.708
X145.0Y-98.0
X145.0Y-98.7
X145.0Y-99.35
X145.0Y-100.0
X145.0Y-100.75
X145.0Y-102.0
X145.0Y-103.0
X145.0Y-104.25
X145.0Y-108.75
X145.25Y-107.0
X146.675Y-102.0
X146.75Y-100.75
X146.75Y-104.5
X146.75Y-105.75
X147.503Y-99.953
X148.002Y-99.453
X148.75Y-99.0
X151.151Y-106.757
X151.707Y-107.094
X154.463Y-100.537
X160.314Y-105.55
X162.0Y-101.05
X162.255Y-110.742
X163.75Y-99.0
X163.75Y-103.602
X163.811Y-104.872
X163.999Y-104.25
X164.5Y-97.75
X164.5Y-112.5
X166.0Y-97.0
X167.75Y-103.5
X168.375Y-120.125
X170.0Y-121.75
X180.998Y-105.5
X182.5Y-106.25
T2
X146.75Y-115.0
X147.75Y-115.0
X149.5Y-112.25
X149.5Y-115.0
X149.963Y-112.903
X150.973Y-108.473
X152.75Y-102.25
X154.0Y-115.5
X154.646Y-113.97
X155.25Y-115.5
X155.446Y-114.0
X156.25Y-114.0
X156.75Y-115.5
X157.05Y-114.0
X157.073Y-113.126
X157.75Y-115.5
X159.5Y-115.5
X161.22Y-113.72
X162.5Y-114.75
X176.75Y-103.5
T3
X92.0Y-124.0
X98.0Y-124.25
X104.0Y-124.25
X124.0Y-103.25
X124.0Y-108.0
X124.0Y-112.5
X126.5Y-131.5
X127.25Y-101.5
X130.5Y-131.5
X133.5Y-124.0
X138.05Y-120.5
X138.25Y-113.75
X146.25Y-122.576
X147.25Y-103.5
X147.351Y-110.149
X148.75Y-122.576
X149.825Y-122.576
X150.75Y-97.0
X152.0Y-113.25
X154.415Y-104.697
X154.427Y-108.346
X154.451Y-106.611
X156.15Y-106.6
X156.161Y-104.721
X156.197Y-108.31
X157.717Y-108.37
X157.776Y-106.659
X157.788Y-104.721
X159.75Y-113.25
X160.5Y-101.5
X161.75Y-99.25
X162.5Y-111.75
X163.0Y-92.25
X164.25Y-106.5
X164.5Y-109.25
X166.5Y-122.75
X166.5Y-126.5
X167.5Y-126.5
X167.5Y-122.75
X175.9Y-97.912
X176.25Y-113.25
X178.4Y-106.412
X179.15Y-97.912
T4
X151.65Y-122.938
X151.65Y-133.098
X154.19Y-122.938
X154.19Y-133.098
X156.73Y-122.938
X156.73Y-133.098
X159.27Y-122.938
X159.27Y-133.098
X161.81Y-122.938
X161.81Y-133.098
X164.35Y-122.938
X164.35Y-133.098
T5
X128.148Y-86.671
X128.25Y-79.0
X130.148Y-86.671
X130.25Y-79.0
T6
X136.75Y-106.75
X177.75Y-94.25
X180.5Y-69.0
X181.25Y-89.0
T7
X187.606Y-132.615
X190.106Y-132.615
X192.606Y-132.615
T8
X181.672Y-116.5
X181.672Y-119.0
X183.672Y-116.5
X183.672Y-119.0
X184.035Y-55.75
X184.035Y-58.25
X184.035Y-60.25
X184.035Y-62.75
X184.035Y-75.75
X184.035Y-78.25
X184.035Y-80.25
X184.035Y-82.75
X184.035Y-95.75
X184.035Y-98.25
X184.035Y-100.25
X184.035Y-102.75
T9
X90.0Y-107.5
X92.5Y-107.5
X95.0Y-107.5
X97.5Y-107.5
T10
X90.0Y-114.5
X92.54Y-114.5
X95.08Y-114.5
X97.62Y-114.5
X169.0Y-95.5
X169.0Y-98.04
X169.0Y-100.58
X171.54Y-95.5
X171.54Y-98.04
X171.54Y-100.58
X175.145Y-78.635
X175.145Y-81.175
T11
X117.25Y-95.75
X117.25Y-100.25
X123.75Y-95.75
X123.75Y-100.25
X124.5Y-117.5
X124.5Y-122.0
X131.0Y-117.5
X131.0Y-122.0
T12
X161.362Y-80.366
X168.862Y-80.366
T13
X91.19Y-54.865
X91.19Y-64.865
X91.19Y-74.865
X91.19Y-84.865
X91.19Y-94.865
X99.19Y-54.865
X99.19Y-64.865
X99.19Y-74.865
X99.19Y-84.865
X99.19Y-94.865
T14
X186.745Y-52.7
X186.745Y-65.8
X186.745Y-72.7
X186.745Y-85.8
X186.745Y-92.7
X186.745Y-105.8
T15
X186.382Y-111.73
X186.382Y-123.77
T16
X136.334Y-87.175
X142.684Y-87.175
X148.78Y-87.175
X154.876Y-87.175
T17
X90.856Y-131.32
X98.056Y-131.32
T12
G00X118.35Y-81.25
M15
G01X121.65Y-81.25
M16
G05
G00X118.35Y-86.25
M15
G01X121.65Y-86.25
M16
G05
M30
