%TF.GenerationSoftware,KiCad,Pcbnew,10.0.3*%
%TF.CreationDate,2026-10-01T01:56:01-07:00*%
%TF.ProjectId,PDB,5044422e-6b69-4636-9164-5f7063625858,rev?*%
%TF.SameCoordinates,Original*%
%TF.FileFunction,Soldermask,Top*%
%TF.FilePolarity,Negative*%
%FSLAX46Y46*%
G04 Gerber Fmt 4.6, Leading zero omitted, Abs format (unit mm)*
G04 Created by KiCad (PCBNEW 10.0.3) date 2026-10-01 01:56:01*
%MOMM*%
%LPD*%
G01*
G04 APERTURE LIST*
G04 Aperture macros list*
%AMRoundRect*
0 Rectangle with rounded corners*
0 $1 Rounding radius*
0 $2 $3 $4 $5 $6 $7 $8 $9 X,Y pos of 4 corners*
0 Add a 4 corners polygon primitive as box body*
4,1,4,$2,$3,$4,$5,$6,$7,$8,$9,$2,$3,0*
0 Add four circle primitives for the rounded corners*
1,1,$1+$1,$2,$3*
1,1,$1+$1,$4,$5*
1,1,$1+$1,$6,$7*
1,1,$1+$1,$8,$9*
0 Add four rect primitives between the rounded corners*
20,1,$1+$1,$2,$3,$4,$5,0*
20,1,$1+$1,$4,$5,$6,$7,0*
20,1,$1+$1,$6,$7,$8,$9,0*
20,1,$1+$1,$8,$9,$2,$3,0*%
G04 Aperture macros list end*
%ADD10C,1.800000*%
%ADD11C,4.000000*%
%ADD12C,4.495800*%
%ADD13R,5.200000X5.200000*%
%ADD14RoundRect,0.062500X0.062500X0.475000X-0.062500X0.475000X-0.062500X-0.475000X0.062500X-0.475000X0*%
%ADD15RoundRect,0.062500X0.475000X0.062500X-0.475000X0.062500X-0.475000X-0.062500X0.475000X-0.062500X0*%
%ADD16RoundRect,0.250000X-0.600000X-0.600000X0.600000X-0.600000X0.600000X0.600000X-0.600000X0.600000X0*%
%ADD17C,1.700000*%
%ADD18C,3.500000*%
%ADD19RoundRect,0.200000X0.275000X-0.200000X0.275000X0.200000X-0.275000X0.200000X-0.275000X-0.200000X0*%
%ADD20RoundRect,0.250000X-0.550000X-0.550000X0.550000X-0.550000X0.550000X0.550000X-0.550000X0.550000X0*%
%ADD21C,1.600000*%
%ADD22R,1.700000X1.700000*%
%ADD23O,1.700000X1.700000*%
%ADD24RoundRect,0.150000X0.150000X-0.587500X0.150000X0.587500X-0.150000X0.587500X-0.150000X-0.587500X0*%
%ADD25RoundRect,0.087500X-0.087500X0.425000X-0.087500X-0.425000X0.087500X-0.425000X0.087500X0.425000X0*%
%ADD26R,1.524000X1.524000*%
%ADD27C,1.524000*%
%ADD28C,2.800000*%
%ADD29RoundRect,0.225000X-0.225000X-0.250000X0.225000X-0.250000X0.225000X0.250000X-0.225000X0.250000X0*%
%ADD30RoundRect,0.200000X-0.275000X0.200000X-0.275000X-0.200000X0.275000X-0.200000X0.275000X0.200000X0*%
%ADD31RoundRect,0.200000X0.200000X0.275000X-0.200000X0.275000X-0.200000X-0.275000X0.200000X-0.275000X0*%
%ADD32RoundRect,0.250000X-0.600000X-0.725000X0.600000X-0.725000X0.600000X0.725000X-0.600000X0.725000X0*%
%ADD33O,1.700000X1.950000*%
%ADD34RoundRect,0.135000X0.135000X0.185000X-0.135000X0.185000X-0.135000X-0.185000X0.135000X-0.185000X0*%
%ADD35RoundRect,0.150000X0.587500X0.150000X-0.587500X0.150000X-0.587500X-0.150000X0.587500X-0.150000X0*%
%ADD36RoundRect,0.243750X-0.243750X-0.456250X0.243750X-0.456250X0.243750X0.456250X-0.243750X0.456250X0*%
%ADD37RoundRect,0.135000X0.185000X-0.135000X0.185000X0.135000X-0.185000X0.135000X-0.185000X-0.135000X0*%
%ADD38RoundRect,0.200000X-0.200000X-0.275000X0.200000X-0.275000X0.200000X0.275000X-0.200000X0.275000X0*%
%ADD39C,3.000000*%
%ADD40RoundRect,0.225000X-0.250000X0.225000X-0.250000X-0.225000X0.250000X-0.225000X0.250000X0.225000X0*%
%ADD41RoundRect,0.135000X-0.185000X0.135000X-0.185000X-0.135000X0.185000X-0.135000X0.185000X0.135000X0*%
%ADD42R,2.921000X1.651000*%
%ADD43RoundRect,0.225000X0.250000X-0.225000X0.250000X0.225000X-0.250000X0.225000X-0.250000X-0.225000X0*%
%ADD44RoundRect,0.250000X0.750000X0.950000X-0.750000X0.950000X-0.750000X-0.950000X0.750000X-0.950000X0*%
%ADD45RoundRect,0.150000X-0.587500X-0.150000X0.587500X-0.150000X0.587500X0.150000X-0.587500X0.150000X0*%
%ADD46C,2.000000*%
%ADD47C,3.240000*%
%ADD48R,0.700000X1.250000*%
%ADD49RoundRect,0.135000X-0.135000X-0.185000X0.135000X-0.185000X0.135000X0.185000X-0.135000X0.185000X0*%
%ADD50RoundRect,0.150000X-0.150000X0.587500X-0.150000X-0.587500X0.150000X-0.587500X0.150000X0.587500X0*%
%ADD51O,5.500000X2.200000*%
%ADD52RoundRect,1.500000X1.500000X1.500000X-1.500000X1.500000X-1.500000X-1.500000X1.500000X-1.500000X0*%
%ADD53C,6.000000*%
%ADD54RoundRect,0.150000X0.512500X0.150000X-0.512500X0.150000X-0.512500X-0.150000X0.512500X-0.150000X0*%
G04 APERTURE END LIST*
D10*
%TO.C,MCU_5V1*%
X136750000Y-106750000D03*
%TD*%
%TO.C,GND1*%
X181250000Y-89000000D03*
%TD*%
%TO.C,USB_VBUS1*%
X177750000Y-94250000D03*
%TD*%
%TO.C,5V1*%
X180500000Y-69000000D03*
%TD*%
D11*
%TO.C,Converter1*%
X136333800Y-87174800D03*
X142683800Y-87174800D03*
X148779800Y-87174800D03*
X154875800Y-87174800D03*
D12*
X118553800Y-55424800D03*
X172401800Y-55424800D03*
%TD*%
D13*
%TO.C,U4*%
X156150000Y-106600000D03*
D14*
X158650000Y-109937500D03*
X158150000Y-109937500D03*
X157650000Y-109937500D03*
X157150000Y-109937500D03*
X156650000Y-109937500D03*
X156150000Y-109937500D03*
X155650000Y-109937500D03*
X155150000Y-109937500D03*
X154650000Y-109937500D03*
X154150000Y-109937500D03*
X153650000Y-109937500D03*
D15*
X152812500Y-109100000D03*
X152812500Y-108600000D03*
X152812500Y-108100000D03*
X152812500Y-107600000D03*
X152812500Y-107100000D03*
X152812500Y-106600000D03*
X152812500Y-106100000D03*
X152812500Y-105600000D03*
X152812500Y-105100000D03*
X152812500Y-104600000D03*
X152812500Y-104100000D03*
D14*
X153650000Y-103262500D03*
X154150000Y-103262500D03*
X154650000Y-103262500D03*
X155150000Y-103262500D03*
X155650000Y-103262500D03*
X156150000Y-103262500D03*
X156650000Y-103262500D03*
X157150000Y-103262500D03*
X157650000Y-103262500D03*
X158150000Y-103262500D03*
X158650000Y-103262500D03*
D15*
X159487500Y-104100000D03*
X159487500Y-104600000D03*
X159487500Y-105100000D03*
X159487500Y-105600000D03*
X159487500Y-106100000D03*
X159487500Y-106600000D03*
X159487500Y-107100000D03*
X159487500Y-107600000D03*
X159487500Y-108100000D03*
X159487500Y-108600000D03*
X159487500Y-109100000D03*
%TD*%
D16*
%TO.C,J3*%
X181672500Y-116500000D03*
D17*
X181672500Y-119000000D03*
X183672500Y-119000000D03*
X183672500Y-116500000D03*
D18*
X186382500Y-111730000D03*
X186382500Y-123770000D03*
%TD*%
D19*
%TO.C,R11*%
X161750000Y-119075000D03*
X161750000Y-117425000D03*
%TD*%
D20*
%TO.C,C2*%
X128148400Y-86670800D03*
D21*
X130148400Y-86670800D03*
%TD*%
D22*
%TO.C,J1*%
X175145000Y-78635400D03*
D23*
X175145000Y-81175400D03*
%TD*%
D24*
%TO.C,Q6*%
X95050000Y-123612500D03*
X96950000Y-123612500D03*
X96000000Y-121737500D03*
%TD*%
D25*
%TO.C,U6*%
X175593749Y-100987500D03*
X174943749Y-100987500D03*
X174293749Y-100987500D03*
X174293749Y-102662500D03*
X174943749Y-102662500D03*
X175593749Y-102662500D03*
%TD*%
D22*
%TO.C,J4*%
X169000000Y-95500000D03*
D17*
X171540000Y-95500000D03*
X169000000Y-98040000D03*
X171540000Y-98040000D03*
X169000000Y-100580000D03*
X171540000Y-100580000D03*
%TD*%
D26*
%TO.C,USB2*%
X184035000Y-82750000D03*
D27*
X184035000Y-80250000D03*
X184035000Y-78250000D03*
X184035000Y-75750000D03*
D28*
X186745000Y-72700000D03*
X186745000Y-85800000D03*
%TD*%
D29*
%TO.C,C18*%
X174125000Y-99162500D03*
X175675000Y-99162500D03*
%TD*%
D30*
%TO.C,R32*%
X143000000Y-114425000D03*
X143000000Y-116075000D03*
%TD*%
D19*
%TO.C,R7*%
X146062000Y-119064000D03*
X146062000Y-117414000D03*
%TD*%
D24*
%TO.C,Q7*%
X89050000Y-123437500D03*
X90950000Y-123437500D03*
X90000000Y-121562500D03*
%TD*%
D31*
%TO.C,R6*%
X150075000Y-110750000D03*
X148425000Y-110750000D03*
%TD*%
D32*
%TO.C,Jst1*%
X90000000Y-107500000D03*
D33*
X92500000Y-107500000D03*
X95000000Y-107500000D03*
X97500000Y-107500000D03*
%TD*%
D27*
%TO.C,D3*%
X151650000Y-133098000D03*
X154190000Y-133098000D03*
X156730000Y-133098000D03*
X159270000Y-133098000D03*
X161810000Y-133098000D03*
X164350000Y-133098000D03*
X164350000Y-122938000D03*
X161810000Y-122938000D03*
X159270000Y-122938000D03*
X156730000Y-122938000D03*
X154190000Y-122938000D03*
X151650000Y-122938000D03*
%TD*%
D34*
%TO.C,R38*%
X165000000Y-119000000D03*
X163980000Y-119000000D03*
%TD*%
D10*
%TO.C,B1*%
X161362000Y-80366000D03*
X168862000Y-80366000D03*
%TD*%
D35*
%TO.C,Q3*%
X93937500Y-120125000D03*
X93937500Y-118225000D03*
X92062500Y-119175000D03*
%TD*%
D36*
%TO.C,D4*%
X129312500Y-104750000D03*
X131187500Y-104750000D03*
%TD*%
D37*
%TO.C,R36*%
X141500000Y-116260000D03*
X141500000Y-115240000D03*
%TD*%
D30*
%TO.C,R25*%
X165250000Y-99425000D03*
X165250000Y-101075000D03*
%TD*%
%TO.C,R12*%
X153174000Y-117414000D03*
X153174000Y-119064000D03*
%TD*%
D31*
%TO.C,R2*%
X150000000Y-103500000D03*
X148350000Y-103500000D03*
%TD*%
D38*
%TO.C,R31*%
X131675000Y-125250000D03*
X133325000Y-125250000D03*
%TD*%
D26*
%TO.C,USB3*%
X184035000Y-102750000D03*
D27*
X184035000Y-100250000D03*
X184035000Y-98250000D03*
X184035000Y-95750000D03*
D28*
X186745000Y-92700000D03*
X186745000Y-105800000D03*
%TD*%
D39*
%TO.C,A2*%
X99190000Y-64865400D03*
X91190000Y-64865400D03*
%TD*%
D40*
%TO.C,C19*%
X177150000Y-104637500D03*
X177150000Y-106187500D03*
%TD*%
D31*
%TO.C,R5*%
X150075000Y-109000000D03*
X148425000Y-109000000D03*
%TD*%
D38*
%TO.C,R3*%
X147904539Y-105500000D03*
X149554539Y-105500000D03*
%TD*%
%TO.C,R29*%
X123675000Y-131500000D03*
X125325000Y-131500000D03*
%TD*%
D35*
%TO.C,Q2*%
X100000000Y-120250000D03*
X100000000Y-118350000D03*
X98125000Y-119300000D03*
%TD*%
D41*
%TO.C,R21*%
X126250000Y-100240000D03*
X126250000Y-101260000D03*
%TD*%
D36*
%TO.C,D8*%
X127562500Y-128250000D03*
X129437500Y-128250000D03*
%TD*%
D42*
%TO.C,F1*%
X107952000Y-131981000D03*
X114175000Y-131981000D03*
X107952000Y-118519000D03*
X114175000Y-118519000D03*
%TD*%
D43*
%TO.C,C9*%
X151522477Y-102918731D03*
X151522477Y-101368731D03*
%TD*%
D19*
%TO.C,R10*%
X160124400Y-119075000D03*
X160124400Y-117425000D03*
%TD*%
D40*
%TO.C,C16*%
X158300000Y-111675000D03*
X158300000Y-113225000D03*
%TD*%
D30*
%TO.C,R14*%
X158498800Y-117425000D03*
X158498800Y-119075000D03*
%TD*%
D44*
%TO.C,Y2*%
X157850000Y-98450000D03*
X154150000Y-98450000D03*
%TD*%
D39*
%TO.C,A4*%
X99190000Y-84865400D03*
X91190000Y-84865400D03*
%TD*%
D45*
%TO.C,Q10*%
X174750000Y-117500000D03*
X174750000Y-119400000D03*
X176625000Y-118450000D03*
%TD*%
D34*
%TO.C,R39*%
X140500000Y-108250000D03*
X139480000Y-108250000D03*
%TD*%
D46*
%TO.C,SW4*%
X124500000Y-117500000D03*
X131000000Y-117500000D03*
X124500000Y-122000000D03*
X131000000Y-122000000D03*
%TD*%
D29*
%TO.C,C11*%
X159775000Y-111200000D03*
X161325000Y-111200000D03*
%TD*%
D26*
%TO.C,USB1*%
X184035000Y-62750000D03*
D27*
X184035000Y-60250000D03*
X184035000Y-58250000D03*
X184035000Y-55750000D03*
D28*
X186745000Y-52700000D03*
X186745000Y-65800000D03*
%TD*%
D38*
%TO.C,R34*%
X171112500Y-117450000D03*
X172762500Y-117450000D03*
%TD*%
D36*
%TO.C,D7*%
X123562500Y-128250000D03*
X125437500Y-128250000D03*
%TD*%
D29*
%TO.C,C8*%
X157725000Y-101450000D03*
X159275000Y-101450000D03*
%TD*%
D20*
%TO.C,C1*%
X128250000Y-79000000D03*
D21*
X130250000Y-79000000D03*
%TD*%
D19*
%TO.C,R27*%
X126500000Y-109825000D03*
X126500000Y-108175000D03*
%TD*%
D30*
%TO.C,R17*%
X168250000Y-109675000D03*
X168250000Y-111325000D03*
%TD*%
D45*
%TO.C,Q8*%
X142062500Y-117550000D03*
X142062500Y-119450000D03*
X143937500Y-118500000D03*
%TD*%
D29*
%TO.C,C15*%
X161550000Y-106450000D03*
X163100000Y-106450000D03*
%TD*%
D47*
%TO.C,REF\u002A\u002A*%
X129298000Y-96877600D03*
%TD*%
D38*
%TO.C,R1*%
X148350000Y-102000000D03*
X150000000Y-102000000D03*
%TD*%
D43*
%TO.C,C14*%
X160250000Y-99275000D03*
X160250000Y-97725000D03*
%TD*%
D30*
%TO.C,R35*%
X142500000Y-106425000D03*
X142500000Y-108075000D03*
%TD*%
D45*
%TO.C,Q9*%
X167312500Y-117550000D03*
X167312500Y-119450000D03*
X169187500Y-118500000D03*
%TD*%
D48*
%TO.C,Q1*%
X160433700Y-91167400D03*
X162333700Y-91167400D03*
X161383700Y-89167400D03*
%TD*%
D39*
%TO.C,A5*%
X99190000Y-94865400D03*
X91190000Y-94865400D03*
%TD*%
D27*
%TO.C,SW2*%
X187605600Y-132615400D03*
X190105600Y-132615400D03*
X192605600Y-132615400D03*
%TD*%
D49*
%TO.C,R37*%
X174490000Y-116250000D03*
X175510000Y-116250000D03*
%TD*%
D46*
%TO.C,SW3*%
X117250000Y-95750000D03*
X123750000Y-95750000D03*
X117250000Y-100250000D03*
X123750000Y-100250000D03*
%TD*%
D38*
%TO.C,R4*%
X147925000Y-107024627D03*
X149575000Y-107024627D03*
%TD*%
%TO.C,R33*%
X163675000Y-117500000D03*
X165325000Y-117500000D03*
%TD*%
D40*
%TO.C,C10*%
X153300000Y-111675000D03*
X153300000Y-113225000D03*
%TD*%
D39*
%TO.C,A3*%
X99190000Y-74865400D03*
X91190000Y-74865400D03*
%TD*%
D30*
%TO.C,R24*%
X90000000Y-118175000D03*
X90000000Y-119825000D03*
%TD*%
D19*
%TO.C,R15*%
X164099000Y-91000000D03*
X164099000Y-89350000D03*
%TD*%
%TO.C,R9*%
X149364000Y-119064000D03*
X149364000Y-117414000D03*
%TD*%
D39*
%TO.C,A1*%
X99190000Y-54865400D03*
X91190000Y-54865400D03*
%TD*%
D50*
%TO.C,Q11*%
X142450000Y-110062500D03*
X140550000Y-110062500D03*
X141500000Y-111937500D03*
%TD*%
D19*
%TO.C,R28*%
X126500000Y-114325000D03*
X126500000Y-112675000D03*
%TD*%
D30*
%TO.C,R13*%
X154825000Y-117414000D03*
X154825000Y-119064000D03*
%TD*%
D38*
%TO.C,R30*%
X127675000Y-131500000D03*
X129325000Y-131500000D03*
%TD*%
D29*
%TO.C,C12*%
X161525000Y-109200000D03*
X163075000Y-109200000D03*
%TD*%
D51*
%TO.C,Sw1*%
X120000000Y-86250000D03*
X120000000Y-81250000D03*
%TD*%
D36*
%TO.C,D5*%
X129312500Y-109250000D03*
X131187500Y-109250000D03*
%TD*%
%TO.C,D9*%
X131500000Y-128250000D03*
X133375000Y-128250000D03*
%TD*%
D30*
%TO.C,R23*%
X96000000Y-118350000D03*
X96000000Y-120000000D03*
%TD*%
D19*
%TO.C,R16*%
X165750000Y-91000000D03*
X165750000Y-89350000D03*
%TD*%
D52*
%TO.C,Batt1*%
X98056000Y-131320000D03*
D53*
X90856000Y-131320000D03*
%TD*%
D30*
%TO.C,R22*%
X102062500Y-118475000D03*
X102062500Y-120125000D03*
%TD*%
D43*
%TO.C,C13*%
X152000000Y-98525000D03*
X152000000Y-96975000D03*
%TD*%
D29*
%TO.C,C17*%
X177350000Y-99162500D03*
X178900000Y-99162500D03*
%TD*%
D25*
%TO.C,U5*%
X178800000Y-101075000D03*
X178150000Y-101075000D03*
X177500000Y-101075000D03*
X177500000Y-102750000D03*
X178150000Y-102750000D03*
X178800000Y-102750000D03*
%TD*%
D35*
%TO.C,Q4*%
X87937500Y-119950000D03*
X87937500Y-118050000D03*
X86062500Y-119000000D03*
%TD*%
D47*
%TO.C,REF\u002A\u002A*%
X108825600Y-68429600D03*
%TD*%
%TO.C,REF\u002A\u002A*%
X180073400Y-133758400D03*
%TD*%
%TO.C,REF\u002A\u002A*%
X173646400Y-91696000D03*
%TD*%
D22*
%TO.C,J2*%
X97620000Y-114500000D03*
D23*
X95080000Y-114500000D03*
X92540000Y-114500000D03*
X90000000Y-114500000D03*
%TD*%
D30*
%TO.C,R18*%
X169750000Y-109675000D03*
X169750000Y-111325000D03*
%TD*%
D19*
%TO.C,R26*%
X126500000Y-105075000D03*
X126500000Y-103425000D03*
%TD*%
D54*
%TO.C,U7*%
X177331249Y-111950000D03*
X177331249Y-111000000D03*
X177331249Y-110050000D03*
X175056249Y-110050000D03*
X175056249Y-111000000D03*
X175056249Y-111950000D03*
%TD*%
D36*
%TO.C,D6*%
X129312500Y-113000000D03*
X131187500Y-113000000D03*
%TD*%
D19*
%TO.C,R8*%
X147713000Y-119064000D03*
X147713000Y-117414000D03*
%TD*%
D24*
%TO.C,Q5*%
X101112500Y-123737500D03*
X103012500Y-123737500D03*
X102062500Y-121862500D03*
%TD*%
M02*
