%TF.GenerationSoftware,KiCad,Pcbnew,10.0.3*%
%TF.CreationDate,2026-10-01T01:56:01-07:00*%
%TF.ProjectId,PDB,5044422e-6b69-4636-9164-5f7063625858,rev?*%
%TF.SameCoordinates,Original*%
%TF.FileFunction,Soldermask,Bot*%
%TF.FilePolarity,Negative*%
%FSLAX46Y46*%
G04 Gerber Fmt 4.6, Leading zero omitted, Abs format (unit mm)*
G04 Created by KiCad (PCBNEW 10.0.3) date 2026-10-01 01:56:01*
%MOMM*%
%LPD*%
G01*
G04 APERTURE LIST*
G04 Aperture macros list*
%AMRoundRect*
0 Rectangle with rounded corners*
0 $1 Rounding radius*
0 $2 $3 $4 $5 $6 $7 $8 $9 X,Y pos of 4 corners*
0 Add a 4 corners polygon primitive as box body*
4,1,4,$2,$3,$4,$5,$6,$7,$8,$9,$2,$3,0*
0 Add four circle primitives for the rounded corners*
1,1,$1+$1,$2,$3*
1,1,$1+$1,$4,$5*
1,1,$1+$1,$6,$7*
1,1,$1+$1,$8,$9*
0 Add four rect primitives between the rounded corners*
20,1,$1+$1,$2,$3,$4,$5,0*
20,1,$1+$1,$4,$5,$6,$7,0*
20,1,$1+$1,$6,$7,$8,$9,0*
20,1,$1+$1,$8,$9,$2,$3,0*%
G04 Aperture macros list end*
%ADD10C,1.800000*%
%ADD11C,4.000000*%
%ADD12C,4.495800*%
%ADD13RoundRect,0.250000X-0.600000X-0.600000X0.600000X-0.600000X0.600000X0.600000X-0.600000X0.600000X0*%
%ADD14C,1.700000*%
%ADD15C,3.500000*%
%ADD16RoundRect,0.250000X-0.550000X-0.550000X0.550000X-0.550000X0.550000X0.550000X-0.550000X0.550000X0*%
%ADD17C,1.600000*%
%ADD18R,1.700000X1.700000*%
%ADD19O,1.700000X1.700000*%
%ADD20R,1.524000X1.524000*%
%ADD21C,1.524000*%
%ADD22C,2.800000*%
%ADD23RoundRect,0.250000X-0.600000X-0.725000X0.600000X-0.725000X0.600000X0.725000X-0.600000X0.725000X0*%
%ADD24O,1.700000X1.950000*%
%ADD25C,3.000000*%
%ADD26C,2.000000*%
%ADD27C,3.240000*%
%ADD28O,5.500000X2.200000*%
%ADD29RoundRect,1.500000X1.500000X1.500000X-1.500000X1.500000X-1.500000X-1.500000X1.500000X-1.500000X0*%
%ADD30C,6.000000*%
G04 APERTURE END LIST*
D10*
%TO.C,MCU_5V1*%
X136750000Y-106750000D03*
%TD*%
%TO.C,GND1*%
X181250000Y-89000000D03*
%TD*%
%TO.C,USB_VBUS1*%
X177750000Y-94250000D03*
%TD*%
%TO.C,5V1*%
X180500000Y-69000000D03*
%TD*%
D11*
%TO.C,Converter1*%
X136333800Y-87174800D03*
X142683800Y-87174800D03*
X148779800Y-87174800D03*
X154875800Y-87174800D03*
D12*
X118553800Y-55424800D03*
X172401800Y-55424800D03*
%TD*%
D13*
%TO.C,J3*%
X181672500Y-116500000D03*
D14*
X181672500Y-119000000D03*
X183672500Y-119000000D03*
X183672500Y-116500000D03*
D15*
X186382500Y-111730000D03*
X186382500Y-123770000D03*
%TD*%
D16*
%TO.C,C2*%
X128148400Y-86670800D03*
D17*
X130148400Y-86670800D03*
%TD*%
D18*
%TO.C,J1*%
X175145000Y-78635400D03*
D19*
X175145000Y-81175400D03*
%TD*%
D18*
%TO.C,J4*%
X169000000Y-95500000D03*
D14*
X171540000Y-95500000D03*
X169000000Y-98040000D03*
X171540000Y-98040000D03*
X169000000Y-100580000D03*
X171540000Y-100580000D03*
%TD*%
D20*
%TO.C,USB2*%
X184035000Y-82750000D03*
D21*
X184035000Y-80250000D03*
X184035000Y-78250000D03*
X184035000Y-75750000D03*
D22*
X186745000Y-72700000D03*
X186745000Y-85800000D03*
%TD*%
D23*
%TO.C,Jst1*%
X90000000Y-107500000D03*
D24*
X92500000Y-107500000D03*
X95000000Y-107500000D03*
X97500000Y-107500000D03*
%TD*%
D21*
%TO.C,D3*%
X151650000Y-133098000D03*
X154190000Y-133098000D03*
X156730000Y-133098000D03*
X159270000Y-133098000D03*
X161810000Y-133098000D03*
X164350000Y-133098000D03*
X164350000Y-122938000D03*
X161810000Y-122938000D03*
X159270000Y-122938000D03*
X156730000Y-122938000D03*
X154190000Y-122938000D03*
X151650000Y-122938000D03*
%TD*%
D10*
%TO.C,B1*%
X161362000Y-80366000D03*
X168862000Y-80366000D03*
%TD*%
D20*
%TO.C,USB3*%
X184035000Y-102750000D03*
D21*
X184035000Y-100250000D03*
X184035000Y-98250000D03*
X184035000Y-95750000D03*
D22*
X186745000Y-92700000D03*
X186745000Y-105800000D03*
%TD*%
D25*
%TO.C,A2*%
X99190000Y-64865400D03*
X91190000Y-64865400D03*
%TD*%
%TO.C,A4*%
X99190000Y-84865400D03*
X91190000Y-84865400D03*
%TD*%
D26*
%TO.C,SW4*%
X124500000Y-117500000D03*
X131000000Y-117500000D03*
X124500000Y-122000000D03*
X131000000Y-122000000D03*
%TD*%
D20*
%TO.C,USB1*%
X184035000Y-62750000D03*
D21*
X184035000Y-60250000D03*
X184035000Y-58250000D03*
X184035000Y-55750000D03*
D22*
X186745000Y-52700000D03*
X186745000Y-65800000D03*
%TD*%
D16*
%TO.C,C1*%
X128250000Y-79000000D03*
D17*
X130250000Y-79000000D03*
%TD*%
D27*
%TO.C,REF\u002A\u002A*%
X129298000Y-96877600D03*
%TD*%
D25*
%TO.C,A5*%
X99190000Y-94865400D03*
X91190000Y-94865400D03*
%TD*%
D21*
%TO.C,SW2*%
X187605600Y-132615400D03*
X190105600Y-132615400D03*
X192605600Y-132615400D03*
%TD*%
D26*
%TO.C,SW3*%
X117250000Y-95750000D03*
X123750000Y-95750000D03*
X117250000Y-100250000D03*
X123750000Y-100250000D03*
%TD*%
D25*
%TO.C,A3*%
X99190000Y-74865400D03*
X91190000Y-74865400D03*
%TD*%
%TO.C,A1*%
X99190000Y-54865400D03*
X91190000Y-54865400D03*
%TD*%
D28*
%TO.C,Sw1*%
X120000000Y-86250000D03*
X120000000Y-81250000D03*
%TD*%
D29*
%TO.C,Batt1*%
X98056000Y-131320000D03*
D30*
X90856000Y-131320000D03*
%TD*%
D27*
%TO.C,REF\u002A\u002A*%
X108825600Y-68429600D03*
%TD*%
%TO.C,REF\u002A\u002A*%
X180073400Y-133758400D03*
%TD*%
%TO.C,REF\u002A\u002A*%
X173646400Y-91696000D03*
%TD*%
D18*
%TO.C,J2*%
X97620000Y-114500000D03*
D19*
X95080000Y-114500000D03*
X92540000Y-114500000D03*
X90000000Y-114500000D03*
%TD*%
M02*
