%TF.GenerationSoftware,KiCad,Pcbnew,7.0.7*%
%TF.CreationDate,2024-01-22T10:51:04-08:00*%
%TF.ProjectId,DC-DC_converter_v2,44432d44-435f-4636-9f6e-766572746572,rev?*%
%TF.SameCoordinates,Original*%
%TF.FileFunction,Paste,Top*%
%TF.FilePolarity,Positive*%
%FSLAX46Y46*%
G04 Gerber Fmt 4.6, Leading zero omitted, Abs format (unit mm)*
G04 Created by KiCad (PCBNEW 7.0.7) date 2024-01-22 10:51:04*
%MOMM*%
%LPD*%
G01*
G04 APERTURE LIST*
G04 Aperture macros list*
%AMRoundRect*
0 Rectangle with rounded corners*
0 $1 Rounding radius*
0 $2 $3 $4 $5 $6 $7 $8 $9 X,Y pos of 4 corners*
0 Add a 4 corners polygon primitive as box body*
4,1,4,$2,$3,$4,$5,$6,$7,$8,$9,$2,$3,0*
0 Add four circle primitives for the rounded corners*
1,1,$1+$1,$2,$3*
1,1,$1+$1,$4,$5*
1,1,$1+$1,$6,$7*
1,1,$1+$1,$8,$9*
0 Add four rect primitives between the rounded corners*
20,1,$1+$1,$2,$3,$4,$5,0*
20,1,$1+$1,$4,$5,$6,$7,0*
20,1,$1+$1,$6,$7,$8,$9,0*
20,1,$1+$1,$8,$9,$2,$3,0*%
G04 Aperture macros list end*
%ADD10RoundRect,0.250000X-0.475000X0.250000X-0.475000X-0.250000X0.475000X-0.250000X0.475000X0.250000X0*%
%ADD11RoundRect,0.250000X0.650000X-0.325000X0.650000X0.325000X-0.650000X0.325000X-0.650000X-0.325000X0*%
%ADD12RoundRect,0.200000X0.200000X0.275000X-0.200000X0.275000X-0.200000X-0.275000X0.200000X-0.275000X0*%
%ADD13O,0.252000X0.600000*%
%ADD14O,0.600000X0.252000*%
%ADD15R,0.926000X0.975000*%
%ADD16RoundRect,0.135000X-0.185000X0.135000X-0.185000X-0.135000X0.185000X-0.135000X0.185000X0.135000X0*%
%ADD17RoundRect,0.200000X0.275000X-0.200000X0.275000X0.200000X-0.275000X0.200000X-0.275000X-0.200000X0*%
%ADD18RoundRect,0.135000X-0.135000X-0.185000X0.135000X-0.185000X0.135000X0.185000X-0.135000X0.185000X0*%
%ADD19R,3.250000X5.500000*%
%ADD20RoundRect,0.250000X-0.325000X-0.650000X0.325000X-0.650000X0.325000X0.650000X-0.325000X0.650000X0*%
%ADD21RoundRect,0.135000X0.135000X0.185000X-0.135000X0.185000X-0.135000X-0.185000X0.135000X-0.185000X0*%
G04 APERTURE END LIST*
%TO.C,U1*%
G36*
X85651000Y-68638000D02*
G01*
X84725000Y-68638000D01*
X84725000Y-67662000D01*
X85651000Y-67662000D01*
X85651000Y-68638000D01*
G37*
G36*
X85210000Y-66439000D02*
G01*
X85217000Y-66441000D01*
X85224000Y-66443000D01*
X85231000Y-66445000D01*
X85238000Y-66448000D01*
X85245000Y-66451000D01*
X85251000Y-66454000D01*
X85257000Y-66458000D01*
X85263000Y-66462000D01*
X85269000Y-66467000D01*
X85274000Y-66472000D01*
X85280000Y-66477000D01*
X85285000Y-66483000D01*
X85289000Y-66488000D01*
X85293000Y-66494000D01*
X85297000Y-66500000D01*
X85301000Y-66507000D01*
X85304000Y-66514000D01*
X85306000Y-66520000D01*
X85309000Y-66527000D01*
X85311000Y-66534000D01*
X85312000Y-66542000D01*
X85313000Y-66549000D01*
X85314000Y-66556000D01*
X85314000Y-66564000D01*
X85314000Y-66912000D01*
X85314000Y-66919000D01*
X85313000Y-66926000D01*
X85312000Y-66933000D01*
X85311000Y-66941000D01*
X85309000Y-66948000D01*
X85306000Y-66955000D01*
X85304000Y-66961000D01*
X85301000Y-66968000D01*
X85297000Y-66975000D01*
X85293000Y-66981000D01*
X85289000Y-66987000D01*
X85285000Y-66993000D01*
X85280000Y-66998000D01*
X85274000Y-67003000D01*
X85269000Y-67008000D01*
X85263000Y-67013000D01*
X85257000Y-67017000D01*
X85251000Y-67021000D01*
X85245000Y-67024000D01*
X85238000Y-67027000D01*
X85231000Y-67030000D01*
X85224000Y-67032000D01*
X85217000Y-67034000D01*
X85210000Y-67036000D01*
X85203000Y-67037000D01*
X85195000Y-67037000D01*
X85188000Y-67038000D01*
X85181000Y-67037000D01*
X85173000Y-67037000D01*
X85166000Y-67036000D01*
X85159000Y-67034000D01*
X85152000Y-67032000D01*
X85145000Y-67030000D01*
X85138000Y-67027000D01*
X85131000Y-67024000D01*
X85125000Y-67021000D01*
X85119000Y-67017000D01*
X85113000Y-67013000D01*
X85107000Y-67008000D01*
X85102000Y-67003000D01*
X85096000Y-66998000D01*
X85091000Y-66993000D01*
X85087000Y-66987000D01*
X85083000Y-66981000D01*
X85079000Y-66975000D01*
X85075000Y-66968000D01*
X85072000Y-66961000D01*
X85070000Y-66955000D01*
X85067000Y-66948000D01*
X85065000Y-66941000D01*
X85064000Y-66933000D01*
X85063000Y-66926000D01*
X85062000Y-66919000D01*
X85062000Y-66912000D01*
X85062000Y-66564000D01*
X85062000Y-66556000D01*
X85063000Y-66549000D01*
X85064000Y-66542000D01*
X85065000Y-66534000D01*
X85067000Y-66527000D01*
X85070000Y-66520000D01*
X85072000Y-66514000D01*
X85075000Y-66507000D01*
X85079000Y-66501000D01*
X85083000Y-66494000D01*
X85087000Y-66488000D01*
X85091000Y-66483000D01*
X85096000Y-66477000D01*
X85102000Y-66472000D01*
X85107000Y-66467000D01*
X85113000Y-66462000D01*
X85119000Y-66458000D01*
X85125000Y-66454000D01*
X85131000Y-66451000D01*
X85138000Y-66448000D01*
X85145000Y-66445000D01*
X85152000Y-66443000D01*
X85159000Y-66441000D01*
X85166000Y-66439000D01*
X85173000Y-66438000D01*
X85181000Y-66438000D01*
X85188000Y-66438000D01*
X85195000Y-66438000D01*
X85203000Y-66438000D01*
X85210000Y-66439000D01*
G37*
G36*
X86110000Y-66439000D02*
G01*
X86117000Y-66441000D01*
X86124000Y-66443000D01*
X86131000Y-66445000D01*
X86138000Y-66448000D01*
X86144000Y-66451000D01*
X86151000Y-66454000D01*
X86157000Y-66458000D01*
X86163000Y-66462000D01*
X86169000Y-66467000D01*
X86174000Y-66472000D01*
X86180000Y-66477000D01*
X86184000Y-66483000D01*
X86189000Y-66488000D01*
X86193000Y-66494000D01*
X86197000Y-66500000D01*
X86201000Y-66507000D01*
X86204000Y-66514000D01*
X86206000Y-66520000D01*
X86209000Y-66527000D01*
X86211000Y-66534000D01*
X86212000Y-66542000D01*
X86213000Y-66549000D01*
X86214000Y-66556000D01*
X86214000Y-66564000D01*
X86214000Y-66912000D01*
X86214000Y-66919000D01*
X86213000Y-66926000D01*
X86212000Y-66933000D01*
X86211000Y-66941000D01*
X86209000Y-66948000D01*
X86206000Y-66955000D01*
X86204000Y-66961000D01*
X86201000Y-66968000D01*
X86197000Y-66975000D01*
X86193000Y-66981000D01*
X86189000Y-66987000D01*
X86184000Y-66993000D01*
X86180000Y-66998000D01*
X86174000Y-67003000D01*
X86169000Y-67008000D01*
X86163000Y-67013000D01*
X86157000Y-67017000D01*
X86151000Y-67021000D01*
X86144000Y-67024000D01*
X86138000Y-67027000D01*
X86131000Y-67030000D01*
X86124000Y-67032000D01*
X86117000Y-67034000D01*
X86110000Y-67036000D01*
X86103000Y-67037000D01*
X86095000Y-67037000D01*
X86088000Y-67038000D01*
X86081000Y-67037000D01*
X86073000Y-67037000D01*
X86066000Y-67036000D01*
X86059000Y-67034000D01*
X86052000Y-67032000D01*
X86045000Y-67030000D01*
X86038000Y-67027000D01*
X86031000Y-67024000D01*
X86025000Y-67021000D01*
X86019000Y-67017000D01*
X86013000Y-67013000D01*
X86007000Y-67008000D01*
X86001000Y-67003000D01*
X85996000Y-66998000D01*
X85991000Y-66993000D01*
X85987000Y-66987000D01*
X85983000Y-66981000D01*
X85979000Y-66975000D01*
X85975000Y-66968000D01*
X85972000Y-66961000D01*
X85970000Y-66955000D01*
X85967000Y-66948000D01*
X85965000Y-66941000D01*
X85964000Y-66933000D01*
X85963000Y-66926000D01*
X85962000Y-66919000D01*
X85962000Y-66912000D01*
X85962000Y-66564000D01*
X85962000Y-66556000D01*
X85963000Y-66549000D01*
X85964000Y-66542000D01*
X85965000Y-66534000D01*
X85967000Y-66527000D01*
X85970000Y-66520000D01*
X85972000Y-66514000D01*
X85975000Y-66507000D01*
X85979000Y-66501000D01*
X85983000Y-66494000D01*
X85987000Y-66488000D01*
X85991000Y-66483000D01*
X85996000Y-66477000D01*
X86001000Y-66472000D01*
X86007000Y-66467000D01*
X86013000Y-66462000D01*
X86019000Y-66458000D01*
X86025000Y-66454000D01*
X86031000Y-66451000D01*
X86038000Y-66448000D01*
X86045000Y-66445000D01*
X86052000Y-66443000D01*
X86059000Y-66441000D01*
X86066000Y-66439000D01*
X86073000Y-66438000D01*
X86081000Y-66438000D01*
X86088000Y-66438000D01*
X86095000Y-66438000D01*
X86103000Y-66438000D01*
X86110000Y-66439000D01*
G37*
G36*
X85660000Y-66439000D02*
G01*
X85667000Y-66441000D01*
X85674000Y-66443000D01*
X85681000Y-66445000D01*
X85688000Y-66448000D01*
X85695000Y-66451000D01*
X85701000Y-66454000D01*
X85707000Y-66458000D01*
X85713000Y-66462000D01*
X85719000Y-66467000D01*
X85725000Y-66472000D01*
X85730000Y-66477000D01*
X85735000Y-66483000D01*
X85739000Y-66488000D01*
X85743000Y-66494000D01*
X85747000Y-66500000D01*
X85751000Y-66507000D01*
X85754000Y-66514000D01*
X85757000Y-66520000D01*
X85759000Y-66527000D01*
X85761000Y-66534000D01*
X85762000Y-66542000D01*
X85763000Y-66549000D01*
X85764000Y-66556000D01*
X85764000Y-66564000D01*
X85764000Y-66912000D01*
X85764000Y-66919000D01*
X85763000Y-66926000D01*
X85762000Y-66933000D01*
X85761000Y-66941000D01*
X85759000Y-66948000D01*
X85757000Y-66955000D01*
X85754000Y-66961000D01*
X85751000Y-66968000D01*
X85747000Y-66975000D01*
X85743000Y-66981000D01*
X85739000Y-66987000D01*
X85735000Y-66993000D01*
X85730000Y-66998000D01*
X85725000Y-67003000D01*
X85719000Y-67008000D01*
X85713000Y-67013000D01*
X85707000Y-67017000D01*
X85701000Y-67021000D01*
X85695000Y-67024000D01*
X85688000Y-67027000D01*
X85681000Y-67030000D01*
X85674000Y-67032000D01*
X85667000Y-67034000D01*
X85660000Y-67036000D01*
X85653000Y-67037000D01*
X85645000Y-67037000D01*
X85638000Y-67038000D01*
X85631000Y-67037000D01*
X85623000Y-67037000D01*
X85616000Y-67036000D01*
X85609000Y-67034000D01*
X85602000Y-67032000D01*
X85595000Y-67030000D01*
X85588000Y-67027000D01*
X85582000Y-67024000D01*
X85575000Y-67021000D01*
X85569000Y-67017000D01*
X85563000Y-67013000D01*
X85557000Y-67008000D01*
X85552000Y-67003000D01*
X85546000Y-66998000D01*
X85542000Y-66993000D01*
X85537000Y-66987000D01*
X85533000Y-66981000D01*
X85529000Y-66975000D01*
X85525000Y-66968000D01*
X85522000Y-66961000D01*
X85520000Y-66955000D01*
X85517000Y-66948000D01*
X85515000Y-66941000D01*
X85514000Y-66933000D01*
X85513000Y-66926000D01*
X85512000Y-66919000D01*
X85512000Y-66912000D01*
X85512000Y-66564000D01*
X85512000Y-66556000D01*
X85513000Y-66549000D01*
X85514000Y-66542000D01*
X85515000Y-66534000D01*
X85517000Y-66527000D01*
X85520000Y-66520000D01*
X85522000Y-66514000D01*
X85525000Y-66507000D01*
X85529000Y-66501000D01*
X85533000Y-66494000D01*
X85537000Y-66488000D01*
X85542000Y-66483000D01*
X85546000Y-66477000D01*
X85552000Y-66472000D01*
X85557000Y-66467000D01*
X85563000Y-66462000D01*
X85569000Y-66458000D01*
X85575000Y-66454000D01*
X85582000Y-66451000D01*
X85588000Y-66448000D01*
X85595000Y-66445000D01*
X85602000Y-66443000D01*
X85609000Y-66441000D01*
X85616000Y-66439000D01*
X85623000Y-66438000D01*
X85631000Y-66438000D01*
X85638000Y-66438000D01*
X85645000Y-66438000D01*
X85653000Y-66438000D01*
X85660000Y-66439000D01*
G37*
G36*
X84760000Y-66439000D02*
G01*
X84767000Y-66441000D01*
X84774000Y-66443000D01*
X84781000Y-66445000D01*
X84788000Y-66448000D01*
X84794000Y-66451000D01*
X84801000Y-66454000D01*
X84807000Y-66458000D01*
X84813000Y-66462000D01*
X84819000Y-66467000D01*
X84824000Y-66472000D01*
X84830000Y-66477000D01*
X84834000Y-66483000D01*
X84839000Y-66488000D01*
X84843000Y-66494000D01*
X84847000Y-66500000D01*
X84851000Y-66507000D01*
X84854000Y-66514000D01*
X84856000Y-66520000D01*
X84859000Y-66527000D01*
X84861000Y-66534000D01*
X84862000Y-66542000D01*
X84863000Y-66549000D01*
X84864000Y-66556000D01*
X84864000Y-66564000D01*
X84864000Y-66912000D01*
X84864000Y-66919000D01*
X84863000Y-66926000D01*
X84862000Y-66933000D01*
X84861000Y-66941000D01*
X84859000Y-66948000D01*
X84856000Y-66955000D01*
X84854000Y-66961000D01*
X84851000Y-66968000D01*
X84847000Y-66975000D01*
X84843000Y-66981000D01*
X84839000Y-66987000D01*
X84834000Y-66993000D01*
X84830000Y-66998000D01*
X84824000Y-67003000D01*
X84819000Y-67008000D01*
X84813000Y-67013000D01*
X84807000Y-67017000D01*
X84801000Y-67021000D01*
X84794000Y-67024000D01*
X84788000Y-67027000D01*
X84781000Y-67030000D01*
X84774000Y-67032000D01*
X84767000Y-67034000D01*
X84760000Y-67036000D01*
X84753000Y-67037000D01*
X84745000Y-67037000D01*
X84738000Y-67038000D01*
X84731000Y-67037000D01*
X84723000Y-67037000D01*
X84716000Y-67036000D01*
X84709000Y-67034000D01*
X84702000Y-67032000D01*
X84695000Y-67030000D01*
X84688000Y-67027000D01*
X84681000Y-67024000D01*
X84675000Y-67021000D01*
X84669000Y-67017000D01*
X84663000Y-67013000D01*
X84657000Y-67008000D01*
X84651000Y-67003000D01*
X84646000Y-66998000D01*
X84641000Y-66993000D01*
X84637000Y-66987000D01*
X84633000Y-66981000D01*
X84629000Y-66975000D01*
X84625000Y-66968000D01*
X84622000Y-66961000D01*
X84619000Y-66955000D01*
X84617000Y-66948000D01*
X84615000Y-66941000D01*
X84614000Y-66933000D01*
X84613000Y-66926000D01*
X84612000Y-66919000D01*
X84612000Y-66912000D01*
X84612000Y-66564000D01*
X84612000Y-66556000D01*
X84613000Y-66549000D01*
X84614000Y-66542000D01*
X84615000Y-66534000D01*
X84617000Y-66527000D01*
X84619000Y-66520000D01*
X84622000Y-66514000D01*
X84625000Y-66507000D01*
X84629000Y-66501000D01*
X84633000Y-66494000D01*
X84637000Y-66488000D01*
X84641000Y-66483000D01*
X84646000Y-66477000D01*
X84651000Y-66472000D01*
X84657000Y-66467000D01*
X84663000Y-66462000D01*
X84669000Y-66458000D01*
X84675000Y-66454000D01*
X84681000Y-66451000D01*
X84688000Y-66448000D01*
X84695000Y-66445000D01*
X84702000Y-66443000D01*
X84709000Y-66441000D01*
X84716000Y-66439000D01*
X84723000Y-66438000D01*
X84731000Y-66438000D01*
X84738000Y-66438000D01*
X84745000Y-66438000D01*
X84753000Y-66438000D01*
X84760000Y-66439000D01*
G37*
G36*
X84310000Y-66439000D02*
G01*
X84317000Y-66441000D01*
X84324000Y-66443000D01*
X84331000Y-66445000D01*
X84338000Y-66448000D01*
X84345000Y-66451000D01*
X84351000Y-66454000D01*
X84357000Y-66458000D01*
X84363000Y-66462000D01*
X84369000Y-66467000D01*
X84375000Y-66472000D01*
X84380000Y-66477000D01*
X84385000Y-66483000D01*
X84389000Y-66488000D01*
X84393000Y-66494000D01*
X84397000Y-66500000D01*
X84401000Y-66507000D01*
X84404000Y-66514000D01*
X84406000Y-66520000D01*
X84409000Y-66527000D01*
X84411000Y-66534000D01*
X84412000Y-66542000D01*
X84413000Y-66549000D01*
X84414000Y-66556000D01*
X84414000Y-66564000D01*
X84414000Y-66912000D01*
X84414000Y-66919000D01*
X84413000Y-66926000D01*
X84412000Y-66933000D01*
X84411000Y-66941000D01*
X84409000Y-66948000D01*
X84406000Y-66955000D01*
X84404000Y-66961000D01*
X84401000Y-66968000D01*
X84397000Y-66975000D01*
X84393000Y-66981000D01*
X84389000Y-66987000D01*
X84385000Y-66993000D01*
X84380000Y-66998000D01*
X84375000Y-67003000D01*
X84369000Y-67008000D01*
X84363000Y-67013000D01*
X84357000Y-67017000D01*
X84351000Y-67021000D01*
X84345000Y-67024000D01*
X84338000Y-67027000D01*
X84331000Y-67030000D01*
X84324000Y-67032000D01*
X84317000Y-67034000D01*
X84310000Y-67036000D01*
X84303000Y-67037000D01*
X84295000Y-67037000D01*
X84288000Y-67038000D01*
X84281000Y-67037000D01*
X84273000Y-67037000D01*
X84266000Y-67036000D01*
X84259000Y-67034000D01*
X84252000Y-67032000D01*
X84245000Y-67030000D01*
X84238000Y-67027000D01*
X84232000Y-67024000D01*
X84225000Y-67021000D01*
X84219000Y-67017000D01*
X84213000Y-67013000D01*
X84207000Y-67008000D01*
X84202000Y-67003000D01*
X84196000Y-66998000D01*
X84192000Y-66993000D01*
X84187000Y-66987000D01*
X84183000Y-66981000D01*
X84179000Y-66975000D01*
X84175000Y-66968000D01*
X84172000Y-66961000D01*
X84170000Y-66955000D01*
X84167000Y-66948000D01*
X84165000Y-66941000D01*
X84164000Y-66933000D01*
X84163000Y-66926000D01*
X84162000Y-66919000D01*
X84162000Y-66912000D01*
X84162000Y-66564000D01*
X84162000Y-66556000D01*
X84163000Y-66549000D01*
X84164000Y-66542000D01*
X84165000Y-66534000D01*
X84167000Y-66527000D01*
X84170000Y-66520000D01*
X84172000Y-66514000D01*
X84175000Y-66507000D01*
X84179000Y-66501000D01*
X84183000Y-66494000D01*
X84187000Y-66488000D01*
X84192000Y-66483000D01*
X84196000Y-66477000D01*
X84202000Y-66472000D01*
X84207000Y-66467000D01*
X84213000Y-66462000D01*
X84219000Y-66458000D01*
X84225000Y-66454000D01*
X84232000Y-66451000D01*
X84238000Y-66448000D01*
X84245000Y-66445000D01*
X84252000Y-66443000D01*
X84259000Y-66441000D01*
X84266000Y-66439000D01*
X84273000Y-66438000D01*
X84281000Y-66438000D01*
X84288000Y-66438000D01*
X84295000Y-66438000D01*
X84303000Y-66438000D01*
X84310000Y-66439000D01*
G37*
G36*
X86789000Y-67125000D02*
G01*
X86796000Y-67126000D01*
X86804000Y-67127000D01*
X86811000Y-67129000D01*
X86818000Y-67132000D01*
X86824000Y-67134000D01*
X86831000Y-67137000D01*
X86837000Y-67141000D01*
X86844000Y-67145000D01*
X86850000Y-67149000D01*
X86855000Y-67154000D01*
X86861000Y-67158000D01*
X86866000Y-67164000D01*
X86871000Y-67169000D01*
X86876000Y-67175000D01*
X86880000Y-67181000D01*
X86884000Y-67187000D01*
X86887000Y-67194000D01*
X86890000Y-67200000D01*
X86893000Y-67207000D01*
X86895000Y-67214000D01*
X86897000Y-67221000D01*
X86899000Y-67228000D01*
X86900000Y-67235000D01*
X86900000Y-67243000D01*
X86900000Y-67250000D01*
X86900000Y-67257000D01*
X86900000Y-67265000D01*
X86899000Y-67272000D01*
X86897000Y-67279000D01*
X86895000Y-67286000D01*
X86893000Y-67293000D01*
X86890000Y-67300000D01*
X86887000Y-67307000D01*
X86884000Y-67313000D01*
X86880000Y-67319000D01*
X86876000Y-67325000D01*
X86871000Y-67331000D01*
X86866000Y-67337000D01*
X86861000Y-67342000D01*
X86855000Y-67347000D01*
X86850000Y-67351000D01*
X86844000Y-67355000D01*
X86838000Y-67359000D01*
X86831000Y-67363000D01*
X86824000Y-67366000D01*
X86818000Y-67368000D01*
X86811000Y-67371000D01*
X86804000Y-67373000D01*
X86796000Y-67374000D01*
X86789000Y-67375000D01*
X86782000Y-67376000D01*
X86774000Y-67376000D01*
X86426000Y-67376000D01*
X86419000Y-67376000D01*
X86412000Y-67375000D01*
X86405000Y-67374000D01*
X86397000Y-67373000D01*
X86390000Y-67371000D01*
X86383000Y-67368000D01*
X86377000Y-67366000D01*
X86370000Y-67363000D01*
X86363000Y-67359000D01*
X86357000Y-67355000D01*
X86351000Y-67351000D01*
X86345000Y-67347000D01*
X86340000Y-67342000D01*
X86335000Y-67337000D01*
X86330000Y-67331000D01*
X86325000Y-67325000D01*
X86321000Y-67319000D01*
X86317000Y-67313000D01*
X86314000Y-67307000D01*
X86311000Y-67300000D01*
X86308000Y-67293000D01*
X86306000Y-67286000D01*
X86304000Y-67279000D01*
X86302000Y-67272000D01*
X86301000Y-67265000D01*
X86301000Y-67257000D01*
X86300000Y-67250000D01*
X86301000Y-67243000D01*
X86301000Y-67235000D01*
X86302000Y-67228000D01*
X86304000Y-67221000D01*
X86306000Y-67214000D01*
X86308000Y-67207000D01*
X86311000Y-67200000D01*
X86314000Y-67194000D01*
X86317000Y-67187000D01*
X86321000Y-67181000D01*
X86325000Y-67175000D01*
X86330000Y-67169000D01*
X86335000Y-67164000D01*
X86340000Y-67158000D01*
X86345000Y-67154000D01*
X86351000Y-67149000D01*
X86357000Y-67145000D01*
X86363000Y-67141000D01*
X86370000Y-67137000D01*
X86377000Y-67134000D01*
X86383000Y-67132000D01*
X86390000Y-67129000D01*
X86397000Y-67127000D01*
X86405000Y-67126000D01*
X86412000Y-67125000D01*
X86419000Y-67124000D01*
X86426000Y-67124000D01*
X86774000Y-67124000D01*
X86782000Y-67124000D01*
X86789000Y-67125000D01*
G37*
G36*
X83964000Y-67125000D02*
G01*
X83971000Y-67126000D01*
X83979000Y-67127000D01*
X83986000Y-67129000D01*
X83993000Y-67132000D01*
X83999000Y-67134000D01*
X84006000Y-67137000D01*
X84012000Y-67141000D01*
X84019000Y-67145000D01*
X84025000Y-67149000D01*
X84030000Y-67154000D01*
X84036000Y-67158000D01*
X84041000Y-67164000D01*
X84046000Y-67169000D01*
X84051000Y-67175000D01*
X84055000Y-67181000D01*
X84059000Y-67187000D01*
X84062000Y-67194000D01*
X84065000Y-67200000D01*
X84068000Y-67207000D01*
X84070000Y-67214000D01*
X84072000Y-67221000D01*
X84074000Y-67228000D01*
X84075000Y-67235000D01*
X84075000Y-67243000D01*
X84076000Y-67250000D01*
X84075000Y-67257000D01*
X84075000Y-67265000D01*
X84074000Y-67272000D01*
X84072000Y-67279000D01*
X84070000Y-67286000D01*
X84068000Y-67293000D01*
X84065000Y-67300000D01*
X84062000Y-67307000D01*
X84059000Y-67313000D01*
X84055000Y-67319000D01*
X84051000Y-67325000D01*
X84046000Y-67331000D01*
X84041000Y-67337000D01*
X84036000Y-67342000D01*
X84030000Y-67347000D01*
X84025000Y-67351000D01*
X84019000Y-67355000D01*
X84013000Y-67359000D01*
X84006000Y-67363000D01*
X83999000Y-67366000D01*
X83993000Y-67368000D01*
X83986000Y-67371000D01*
X83979000Y-67373000D01*
X83971000Y-67374000D01*
X83964000Y-67375000D01*
X83957000Y-67376000D01*
X83949000Y-67376000D01*
X83602000Y-67376000D01*
X83594000Y-67376000D01*
X83587000Y-67375000D01*
X83580000Y-67374000D01*
X83572000Y-67373000D01*
X83565000Y-67371000D01*
X83558000Y-67368000D01*
X83552000Y-67366000D01*
X83545000Y-67363000D01*
X83539000Y-67359000D01*
X83532000Y-67355000D01*
X83526000Y-67351000D01*
X83521000Y-67347000D01*
X83515000Y-67342000D01*
X83510000Y-67337000D01*
X83505000Y-67331000D01*
X83500000Y-67325000D01*
X83496000Y-67319000D01*
X83492000Y-67313000D01*
X83489000Y-67307000D01*
X83486000Y-67300000D01*
X83483000Y-67293000D01*
X83481000Y-67286000D01*
X83479000Y-67279000D01*
X83477000Y-67272000D01*
X83476000Y-67265000D01*
X83476000Y-67257000D01*
X83476000Y-67250000D01*
X83476000Y-67243000D01*
X83476000Y-67235000D01*
X83477000Y-67228000D01*
X83479000Y-67221000D01*
X83481000Y-67214000D01*
X83483000Y-67207000D01*
X83486000Y-67200000D01*
X83489000Y-67194000D01*
X83492000Y-67187000D01*
X83496000Y-67181000D01*
X83500000Y-67175000D01*
X83505000Y-67169000D01*
X83510000Y-67164000D01*
X83515000Y-67158000D01*
X83521000Y-67154000D01*
X83526000Y-67149000D01*
X83532000Y-67145000D01*
X83538000Y-67141000D01*
X83545000Y-67137000D01*
X83552000Y-67134000D01*
X83558000Y-67132000D01*
X83565000Y-67129000D01*
X83572000Y-67127000D01*
X83580000Y-67126000D01*
X83587000Y-67125000D01*
X83594000Y-67124000D01*
X83602000Y-67124000D01*
X83949000Y-67124000D01*
X83957000Y-67124000D01*
X83964000Y-67125000D01*
G37*
G36*
X86789000Y-67575000D02*
G01*
X86796000Y-67576000D01*
X86804000Y-67577000D01*
X86811000Y-67579000D01*
X86818000Y-67581000D01*
X86824000Y-67584000D01*
X86831000Y-67587000D01*
X86837000Y-67591000D01*
X86844000Y-67595000D01*
X86850000Y-67599000D01*
X86855000Y-67603000D01*
X86861000Y-67608000D01*
X86866000Y-67613000D01*
X86871000Y-67619000D01*
X86876000Y-67625000D01*
X86880000Y-67631000D01*
X86884000Y-67637000D01*
X86887000Y-67643000D01*
X86890000Y-67650000D01*
X86893000Y-67657000D01*
X86895000Y-67664000D01*
X86897000Y-67671000D01*
X86899000Y-67678000D01*
X86900000Y-67685000D01*
X86900000Y-67693000D01*
X86900000Y-67700000D01*
X86900000Y-67707000D01*
X86900000Y-67715000D01*
X86899000Y-67722000D01*
X86897000Y-67729000D01*
X86895000Y-67736000D01*
X86893000Y-67743000D01*
X86890000Y-67750000D01*
X86887000Y-67756000D01*
X86884000Y-67763000D01*
X86880000Y-67769000D01*
X86876000Y-67775000D01*
X86871000Y-67781000D01*
X86866000Y-67786000D01*
X86861000Y-67792000D01*
X86855000Y-67796000D01*
X86850000Y-67801000D01*
X86844000Y-67805000D01*
X86838000Y-67809000D01*
X86831000Y-67813000D01*
X86824000Y-67816000D01*
X86818000Y-67818000D01*
X86811000Y-67821000D01*
X86804000Y-67823000D01*
X86796000Y-67824000D01*
X86789000Y-67825000D01*
X86782000Y-67826000D01*
X86774000Y-67826000D01*
X86426000Y-67826000D01*
X86419000Y-67826000D01*
X86412000Y-67825000D01*
X86405000Y-67824000D01*
X86397000Y-67823000D01*
X86390000Y-67821000D01*
X86383000Y-67818000D01*
X86377000Y-67816000D01*
X86370000Y-67813000D01*
X86363000Y-67809000D01*
X86357000Y-67805000D01*
X86351000Y-67801000D01*
X86345000Y-67796000D01*
X86340000Y-67792000D01*
X86335000Y-67786000D01*
X86330000Y-67781000D01*
X86325000Y-67775000D01*
X86321000Y-67769000D01*
X86317000Y-67763000D01*
X86314000Y-67756000D01*
X86311000Y-67750000D01*
X86308000Y-67743000D01*
X86306000Y-67736000D01*
X86304000Y-67729000D01*
X86302000Y-67722000D01*
X86301000Y-67715000D01*
X86301000Y-67707000D01*
X86300000Y-67700000D01*
X86301000Y-67693000D01*
X86301000Y-67685000D01*
X86302000Y-67678000D01*
X86304000Y-67671000D01*
X86306000Y-67664000D01*
X86308000Y-67657000D01*
X86311000Y-67650000D01*
X86314000Y-67643000D01*
X86317000Y-67637000D01*
X86321000Y-67631000D01*
X86325000Y-67625000D01*
X86330000Y-67619000D01*
X86335000Y-67613000D01*
X86340000Y-67608000D01*
X86345000Y-67603000D01*
X86351000Y-67599000D01*
X86357000Y-67595000D01*
X86363000Y-67591000D01*
X86370000Y-67587000D01*
X86377000Y-67584000D01*
X86383000Y-67581000D01*
X86390000Y-67579000D01*
X86397000Y-67577000D01*
X86405000Y-67576000D01*
X86412000Y-67575000D01*
X86419000Y-67574000D01*
X86426000Y-67574000D01*
X86774000Y-67574000D01*
X86782000Y-67574000D01*
X86789000Y-67575000D01*
G37*
G36*
X83964000Y-67575000D02*
G01*
X83971000Y-67576000D01*
X83979000Y-67577000D01*
X83986000Y-67579000D01*
X83993000Y-67581000D01*
X83999000Y-67584000D01*
X84006000Y-67587000D01*
X84012000Y-67591000D01*
X84019000Y-67595000D01*
X84025000Y-67599000D01*
X84030000Y-67603000D01*
X84036000Y-67608000D01*
X84041000Y-67613000D01*
X84046000Y-67619000D01*
X84051000Y-67625000D01*
X84055000Y-67631000D01*
X84059000Y-67637000D01*
X84062000Y-67643000D01*
X84065000Y-67650000D01*
X84068000Y-67657000D01*
X84070000Y-67664000D01*
X84072000Y-67671000D01*
X84074000Y-67678000D01*
X84075000Y-67685000D01*
X84075000Y-67693000D01*
X84076000Y-67700000D01*
X84075000Y-67707000D01*
X84075000Y-67715000D01*
X84074000Y-67722000D01*
X84072000Y-67729000D01*
X84070000Y-67736000D01*
X84068000Y-67743000D01*
X84065000Y-67750000D01*
X84062000Y-67756000D01*
X84059000Y-67763000D01*
X84055000Y-67769000D01*
X84051000Y-67775000D01*
X84046000Y-67781000D01*
X84041000Y-67786000D01*
X84036000Y-67792000D01*
X84030000Y-67796000D01*
X84025000Y-67801000D01*
X84019000Y-67805000D01*
X84013000Y-67809000D01*
X84006000Y-67813000D01*
X83999000Y-67816000D01*
X83993000Y-67818000D01*
X83986000Y-67821000D01*
X83979000Y-67823000D01*
X83971000Y-67824000D01*
X83964000Y-67825000D01*
X83957000Y-67826000D01*
X83949000Y-67826000D01*
X83602000Y-67826000D01*
X83594000Y-67826000D01*
X83587000Y-67825000D01*
X83580000Y-67824000D01*
X83572000Y-67823000D01*
X83565000Y-67821000D01*
X83558000Y-67818000D01*
X83552000Y-67816000D01*
X83545000Y-67813000D01*
X83539000Y-67809000D01*
X83532000Y-67805000D01*
X83526000Y-67801000D01*
X83521000Y-67796000D01*
X83515000Y-67792000D01*
X83510000Y-67786000D01*
X83505000Y-67781000D01*
X83500000Y-67775000D01*
X83496000Y-67769000D01*
X83492000Y-67763000D01*
X83489000Y-67756000D01*
X83486000Y-67750000D01*
X83483000Y-67743000D01*
X83481000Y-67736000D01*
X83479000Y-67729000D01*
X83477000Y-67722000D01*
X83476000Y-67715000D01*
X83476000Y-67707000D01*
X83476000Y-67700000D01*
X83476000Y-67693000D01*
X83476000Y-67685000D01*
X83477000Y-67678000D01*
X83479000Y-67671000D01*
X83481000Y-67664000D01*
X83483000Y-67657000D01*
X83486000Y-67650000D01*
X83489000Y-67643000D01*
X83492000Y-67637000D01*
X83496000Y-67631000D01*
X83500000Y-67625000D01*
X83505000Y-67619000D01*
X83510000Y-67613000D01*
X83515000Y-67608000D01*
X83521000Y-67603000D01*
X83526000Y-67599000D01*
X83532000Y-67595000D01*
X83538000Y-67591000D01*
X83545000Y-67587000D01*
X83552000Y-67584000D01*
X83558000Y-67581000D01*
X83565000Y-67579000D01*
X83572000Y-67577000D01*
X83580000Y-67576000D01*
X83587000Y-67575000D01*
X83594000Y-67574000D01*
X83602000Y-67574000D01*
X83949000Y-67574000D01*
X83957000Y-67574000D01*
X83964000Y-67575000D01*
G37*
G36*
X86789000Y-68025000D02*
G01*
X86796000Y-68026000D01*
X86804000Y-68027000D01*
X86811000Y-68029000D01*
X86818000Y-68032000D01*
X86824000Y-68034000D01*
X86831000Y-68037000D01*
X86837000Y-68041000D01*
X86844000Y-68045000D01*
X86850000Y-68049000D01*
X86855000Y-68053000D01*
X86861000Y-68058000D01*
X86866000Y-68064000D01*
X86871000Y-68069000D01*
X86876000Y-68075000D01*
X86880000Y-68081000D01*
X86884000Y-68087000D01*
X86887000Y-68093000D01*
X86890000Y-68100000D01*
X86893000Y-68107000D01*
X86895000Y-68114000D01*
X86897000Y-68121000D01*
X86899000Y-68128000D01*
X86900000Y-68135000D01*
X86900000Y-68143000D01*
X86900000Y-68150000D01*
X86900000Y-68157000D01*
X86900000Y-68165000D01*
X86899000Y-68172000D01*
X86897000Y-68179000D01*
X86895000Y-68186000D01*
X86893000Y-68193000D01*
X86890000Y-68200000D01*
X86887000Y-68207000D01*
X86884000Y-68213000D01*
X86880000Y-68219000D01*
X86876000Y-68225000D01*
X86871000Y-68231000D01*
X86866000Y-68236000D01*
X86861000Y-68242000D01*
X86855000Y-68247000D01*
X86850000Y-68251000D01*
X86844000Y-68255000D01*
X86838000Y-68259000D01*
X86831000Y-68263000D01*
X86824000Y-68266000D01*
X86818000Y-68268000D01*
X86811000Y-68271000D01*
X86804000Y-68273000D01*
X86796000Y-68274000D01*
X86789000Y-68275000D01*
X86782000Y-68276000D01*
X86774000Y-68276000D01*
X86426000Y-68276000D01*
X86419000Y-68276000D01*
X86412000Y-68275000D01*
X86405000Y-68274000D01*
X86397000Y-68273000D01*
X86390000Y-68271000D01*
X86383000Y-68268000D01*
X86377000Y-68266000D01*
X86370000Y-68263000D01*
X86363000Y-68259000D01*
X86357000Y-68255000D01*
X86351000Y-68251000D01*
X86345000Y-68247000D01*
X86340000Y-68242000D01*
X86335000Y-68236000D01*
X86330000Y-68231000D01*
X86325000Y-68225000D01*
X86321000Y-68219000D01*
X86317000Y-68213000D01*
X86314000Y-68207000D01*
X86311000Y-68200000D01*
X86308000Y-68193000D01*
X86306000Y-68186000D01*
X86304000Y-68179000D01*
X86302000Y-68172000D01*
X86301000Y-68165000D01*
X86301000Y-68157000D01*
X86300000Y-68150000D01*
X86301000Y-68143000D01*
X86301000Y-68135000D01*
X86302000Y-68128000D01*
X86304000Y-68121000D01*
X86306000Y-68114000D01*
X86308000Y-68107000D01*
X86311000Y-68100000D01*
X86314000Y-68093000D01*
X86317000Y-68087000D01*
X86321000Y-68081000D01*
X86325000Y-68075000D01*
X86330000Y-68069000D01*
X86335000Y-68064000D01*
X86340000Y-68058000D01*
X86345000Y-68053000D01*
X86351000Y-68049000D01*
X86357000Y-68045000D01*
X86363000Y-68041000D01*
X86370000Y-68037000D01*
X86377000Y-68034000D01*
X86383000Y-68032000D01*
X86390000Y-68029000D01*
X86397000Y-68027000D01*
X86405000Y-68026000D01*
X86412000Y-68025000D01*
X86419000Y-68024000D01*
X86426000Y-68024000D01*
X86774000Y-68024000D01*
X86782000Y-68024000D01*
X86789000Y-68025000D01*
G37*
G36*
X83964000Y-68025000D02*
G01*
X83971000Y-68026000D01*
X83979000Y-68027000D01*
X83986000Y-68029000D01*
X83993000Y-68032000D01*
X83999000Y-68034000D01*
X84006000Y-68037000D01*
X84012000Y-68041000D01*
X84019000Y-68045000D01*
X84025000Y-68049000D01*
X84030000Y-68053000D01*
X84036000Y-68058000D01*
X84041000Y-68064000D01*
X84046000Y-68069000D01*
X84051000Y-68075000D01*
X84055000Y-68081000D01*
X84059000Y-68087000D01*
X84062000Y-68093000D01*
X84065000Y-68100000D01*
X84068000Y-68107000D01*
X84070000Y-68114000D01*
X84072000Y-68121000D01*
X84074000Y-68128000D01*
X84075000Y-68135000D01*
X84075000Y-68143000D01*
X84076000Y-68150000D01*
X84075000Y-68157000D01*
X84075000Y-68165000D01*
X84074000Y-68172000D01*
X84072000Y-68179000D01*
X84070000Y-68186000D01*
X84068000Y-68193000D01*
X84065000Y-68200000D01*
X84062000Y-68207000D01*
X84059000Y-68213000D01*
X84055000Y-68219000D01*
X84051000Y-68225000D01*
X84046000Y-68231000D01*
X84041000Y-68236000D01*
X84036000Y-68242000D01*
X84030000Y-68247000D01*
X84025000Y-68251000D01*
X84019000Y-68255000D01*
X84013000Y-68259000D01*
X84006000Y-68263000D01*
X83999000Y-68266000D01*
X83993000Y-68268000D01*
X83986000Y-68271000D01*
X83979000Y-68273000D01*
X83971000Y-68274000D01*
X83964000Y-68275000D01*
X83957000Y-68276000D01*
X83949000Y-68276000D01*
X83602000Y-68276000D01*
X83594000Y-68276000D01*
X83587000Y-68275000D01*
X83580000Y-68274000D01*
X83572000Y-68273000D01*
X83565000Y-68271000D01*
X83558000Y-68268000D01*
X83552000Y-68266000D01*
X83545000Y-68263000D01*
X83539000Y-68259000D01*
X83532000Y-68255000D01*
X83526000Y-68251000D01*
X83521000Y-68247000D01*
X83515000Y-68242000D01*
X83510000Y-68236000D01*
X83505000Y-68231000D01*
X83500000Y-68225000D01*
X83496000Y-68219000D01*
X83492000Y-68213000D01*
X83489000Y-68207000D01*
X83486000Y-68200000D01*
X83483000Y-68193000D01*
X83481000Y-68186000D01*
X83479000Y-68179000D01*
X83477000Y-68172000D01*
X83476000Y-68165000D01*
X83476000Y-68157000D01*
X83476000Y-68150000D01*
X83476000Y-68143000D01*
X83476000Y-68135000D01*
X83477000Y-68128000D01*
X83479000Y-68121000D01*
X83481000Y-68114000D01*
X83483000Y-68107000D01*
X83486000Y-68100000D01*
X83489000Y-68093000D01*
X83492000Y-68087000D01*
X83496000Y-68081000D01*
X83500000Y-68075000D01*
X83505000Y-68069000D01*
X83510000Y-68064000D01*
X83515000Y-68058000D01*
X83521000Y-68053000D01*
X83526000Y-68049000D01*
X83532000Y-68045000D01*
X83538000Y-68041000D01*
X83545000Y-68037000D01*
X83552000Y-68034000D01*
X83558000Y-68032000D01*
X83565000Y-68029000D01*
X83572000Y-68027000D01*
X83580000Y-68026000D01*
X83587000Y-68025000D01*
X83594000Y-68024000D01*
X83602000Y-68024000D01*
X83949000Y-68024000D01*
X83957000Y-68024000D01*
X83964000Y-68025000D01*
G37*
G36*
X86789000Y-68475000D02*
G01*
X86796000Y-68476000D01*
X86804000Y-68477000D01*
X86811000Y-68479000D01*
X86818000Y-68482000D01*
X86824000Y-68484000D01*
X86831000Y-68487000D01*
X86837000Y-68491000D01*
X86844000Y-68495000D01*
X86850000Y-68499000D01*
X86855000Y-68504000D01*
X86861000Y-68508000D01*
X86866000Y-68514000D01*
X86871000Y-68519000D01*
X86876000Y-68525000D01*
X86880000Y-68531000D01*
X86884000Y-68537000D01*
X86887000Y-68544000D01*
X86890000Y-68550000D01*
X86893000Y-68557000D01*
X86895000Y-68564000D01*
X86897000Y-68571000D01*
X86899000Y-68578000D01*
X86900000Y-68585000D01*
X86900000Y-68593000D01*
X86900000Y-68600000D01*
X86900000Y-68607000D01*
X86900000Y-68615000D01*
X86899000Y-68622000D01*
X86897000Y-68629000D01*
X86895000Y-68636000D01*
X86893000Y-68643000D01*
X86890000Y-68650000D01*
X86887000Y-68657000D01*
X86884000Y-68663000D01*
X86880000Y-68669000D01*
X86876000Y-68675000D01*
X86871000Y-68681000D01*
X86866000Y-68687000D01*
X86861000Y-68692000D01*
X86855000Y-68697000D01*
X86850000Y-68701000D01*
X86844000Y-68705000D01*
X86838000Y-68709000D01*
X86831000Y-68713000D01*
X86824000Y-68716000D01*
X86818000Y-68719000D01*
X86811000Y-68721000D01*
X86804000Y-68723000D01*
X86796000Y-68724000D01*
X86789000Y-68725000D01*
X86782000Y-68726000D01*
X86774000Y-68726000D01*
X86426000Y-68726000D01*
X86419000Y-68726000D01*
X86412000Y-68725000D01*
X86405000Y-68724000D01*
X86397000Y-68723000D01*
X86390000Y-68721000D01*
X86383000Y-68719000D01*
X86377000Y-68716000D01*
X86370000Y-68713000D01*
X86363000Y-68709000D01*
X86357000Y-68705000D01*
X86351000Y-68701000D01*
X86345000Y-68697000D01*
X86340000Y-68692000D01*
X86335000Y-68687000D01*
X86330000Y-68681000D01*
X86325000Y-68675000D01*
X86321000Y-68669000D01*
X86317000Y-68663000D01*
X86314000Y-68657000D01*
X86311000Y-68650000D01*
X86308000Y-68643000D01*
X86306000Y-68636000D01*
X86304000Y-68629000D01*
X86302000Y-68622000D01*
X86301000Y-68615000D01*
X86301000Y-68607000D01*
X86300000Y-68600000D01*
X86301000Y-68593000D01*
X86301000Y-68585000D01*
X86302000Y-68578000D01*
X86304000Y-68571000D01*
X86306000Y-68564000D01*
X86308000Y-68557000D01*
X86311000Y-68550000D01*
X86314000Y-68544000D01*
X86317000Y-68537000D01*
X86321000Y-68531000D01*
X86325000Y-68525000D01*
X86330000Y-68519000D01*
X86335000Y-68514000D01*
X86340000Y-68508000D01*
X86345000Y-68504000D01*
X86351000Y-68499000D01*
X86357000Y-68495000D01*
X86363000Y-68491000D01*
X86370000Y-68487000D01*
X86377000Y-68484000D01*
X86383000Y-68482000D01*
X86390000Y-68479000D01*
X86397000Y-68477000D01*
X86405000Y-68476000D01*
X86412000Y-68475000D01*
X86419000Y-68474000D01*
X86426000Y-68474000D01*
X86774000Y-68474000D01*
X86782000Y-68474000D01*
X86789000Y-68475000D01*
G37*
G36*
X83964000Y-68475000D02*
G01*
X83971000Y-68476000D01*
X83979000Y-68477000D01*
X83986000Y-68479000D01*
X83993000Y-68482000D01*
X83999000Y-68484000D01*
X84006000Y-68487000D01*
X84012000Y-68491000D01*
X84019000Y-68495000D01*
X84025000Y-68499000D01*
X84030000Y-68504000D01*
X84036000Y-68508000D01*
X84041000Y-68514000D01*
X84046000Y-68519000D01*
X84051000Y-68525000D01*
X84055000Y-68531000D01*
X84059000Y-68537000D01*
X84062000Y-68544000D01*
X84065000Y-68550000D01*
X84068000Y-68557000D01*
X84070000Y-68564000D01*
X84072000Y-68571000D01*
X84074000Y-68578000D01*
X84075000Y-68585000D01*
X84075000Y-68593000D01*
X84076000Y-68600000D01*
X84075000Y-68607000D01*
X84075000Y-68615000D01*
X84074000Y-68622000D01*
X84072000Y-68629000D01*
X84070000Y-68636000D01*
X84068000Y-68643000D01*
X84065000Y-68650000D01*
X84062000Y-68657000D01*
X84059000Y-68663000D01*
X84055000Y-68669000D01*
X84051000Y-68675000D01*
X84046000Y-68681000D01*
X84041000Y-68687000D01*
X84036000Y-68692000D01*
X84030000Y-68697000D01*
X84025000Y-68701000D01*
X84019000Y-68705000D01*
X84013000Y-68709000D01*
X84006000Y-68713000D01*
X83999000Y-68716000D01*
X83993000Y-68719000D01*
X83986000Y-68721000D01*
X83979000Y-68723000D01*
X83971000Y-68724000D01*
X83964000Y-68725000D01*
X83957000Y-68726000D01*
X83949000Y-68726000D01*
X83602000Y-68726000D01*
X83594000Y-68726000D01*
X83587000Y-68725000D01*
X83580000Y-68724000D01*
X83572000Y-68723000D01*
X83565000Y-68721000D01*
X83558000Y-68719000D01*
X83552000Y-68716000D01*
X83545000Y-68713000D01*
X83539000Y-68709000D01*
X83532000Y-68705000D01*
X83526000Y-68701000D01*
X83521000Y-68697000D01*
X83515000Y-68692000D01*
X83510000Y-68687000D01*
X83505000Y-68681000D01*
X83500000Y-68675000D01*
X83496000Y-68669000D01*
X83492000Y-68663000D01*
X83489000Y-68657000D01*
X83486000Y-68650000D01*
X83483000Y-68643000D01*
X83481000Y-68636000D01*
X83479000Y-68629000D01*
X83477000Y-68622000D01*
X83476000Y-68615000D01*
X83476000Y-68607000D01*
X83476000Y-68600000D01*
X83476000Y-68593000D01*
X83476000Y-68585000D01*
X83477000Y-68578000D01*
X83479000Y-68571000D01*
X83481000Y-68564000D01*
X83483000Y-68557000D01*
X83486000Y-68550000D01*
X83489000Y-68544000D01*
X83492000Y-68537000D01*
X83496000Y-68531000D01*
X83500000Y-68525000D01*
X83505000Y-68519000D01*
X83510000Y-68514000D01*
X83515000Y-68508000D01*
X83521000Y-68504000D01*
X83526000Y-68499000D01*
X83532000Y-68495000D01*
X83538000Y-68491000D01*
X83545000Y-68487000D01*
X83552000Y-68484000D01*
X83558000Y-68482000D01*
X83565000Y-68479000D01*
X83572000Y-68477000D01*
X83580000Y-68476000D01*
X83587000Y-68475000D01*
X83594000Y-68474000D01*
X83602000Y-68474000D01*
X83949000Y-68474000D01*
X83957000Y-68474000D01*
X83964000Y-68475000D01*
G37*
G36*
X83964000Y-68925000D02*
G01*
X83971000Y-68926000D01*
X83979000Y-68927000D01*
X83986000Y-68929000D01*
X83993000Y-68932000D01*
X83999000Y-68934000D01*
X84006000Y-68937000D01*
X84012000Y-68941000D01*
X84019000Y-68945000D01*
X84025000Y-68949000D01*
X84030000Y-68953000D01*
X84036000Y-68958000D01*
X84041000Y-68963000D01*
X84046000Y-68969000D01*
X84051000Y-68975000D01*
X84055000Y-68981000D01*
X84059000Y-68987000D01*
X84062000Y-68993000D01*
X84065000Y-69000000D01*
X84068000Y-69007000D01*
X84070000Y-69014000D01*
X84072000Y-69021000D01*
X84074000Y-69028000D01*
X84075000Y-69035000D01*
X84075000Y-69043000D01*
X84076000Y-69050000D01*
X84075000Y-69057000D01*
X84075000Y-69065000D01*
X84074000Y-69072000D01*
X84072000Y-69079000D01*
X84070000Y-69086000D01*
X84068000Y-69093000D01*
X84065000Y-69100000D01*
X84062000Y-69106000D01*
X84059000Y-69113000D01*
X84055000Y-69119000D01*
X84051000Y-69125000D01*
X84046000Y-69131000D01*
X84041000Y-69136000D01*
X84036000Y-69142000D01*
X84030000Y-69146000D01*
X84025000Y-69151000D01*
X84019000Y-69155000D01*
X84013000Y-69159000D01*
X84006000Y-69163000D01*
X83999000Y-69166000D01*
X83993000Y-69168000D01*
X83986000Y-69171000D01*
X83979000Y-69173000D01*
X83971000Y-69174000D01*
X83964000Y-69175000D01*
X83957000Y-69176000D01*
X83949000Y-69176000D01*
X83602000Y-69176000D01*
X83594000Y-69176000D01*
X83587000Y-69175000D01*
X83580000Y-69174000D01*
X83572000Y-69173000D01*
X83565000Y-69171000D01*
X83558000Y-69168000D01*
X83552000Y-69166000D01*
X83545000Y-69163000D01*
X83539000Y-69159000D01*
X83532000Y-69155000D01*
X83526000Y-69151000D01*
X83521000Y-69146000D01*
X83515000Y-69142000D01*
X83510000Y-69136000D01*
X83505000Y-69131000D01*
X83500000Y-69125000D01*
X83496000Y-69119000D01*
X83492000Y-69113000D01*
X83489000Y-69106000D01*
X83486000Y-69100000D01*
X83483000Y-69093000D01*
X83481000Y-69086000D01*
X83479000Y-69079000D01*
X83477000Y-69072000D01*
X83476000Y-69065000D01*
X83476000Y-69057000D01*
X83476000Y-69050000D01*
X83476000Y-69043000D01*
X83476000Y-69035000D01*
X83477000Y-69028000D01*
X83479000Y-69021000D01*
X83481000Y-69014000D01*
X83483000Y-69007000D01*
X83486000Y-69000000D01*
X83489000Y-68993000D01*
X83492000Y-68987000D01*
X83496000Y-68981000D01*
X83500000Y-68975000D01*
X83505000Y-68969000D01*
X83510000Y-68963000D01*
X83515000Y-68958000D01*
X83521000Y-68953000D01*
X83526000Y-68949000D01*
X83532000Y-68945000D01*
X83538000Y-68941000D01*
X83545000Y-68937000D01*
X83552000Y-68934000D01*
X83558000Y-68932000D01*
X83565000Y-68929000D01*
X83572000Y-68927000D01*
X83580000Y-68926000D01*
X83587000Y-68925000D01*
X83594000Y-68924000D01*
X83602000Y-68924000D01*
X83949000Y-68924000D01*
X83957000Y-68924000D01*
X83964000Y-68925000D01*
G37*
G36*
X86789000Y-68925000D02*
G01*
X86796000Y-68926000D01*
X86804000Y-68927000D01*
X86811000Y-68929000D01*
X86818000Y-68932000D01*
X86824000Y-68934000D01*
X86831000Y-68937000D01*
X86837000Y-68941000D01*
X86844000Y-68945000D01*
X86850000Y-68949000D01*
X86855000Y-68953000D01*
X86861000Y-68958000D01*
X86866000Y-68963000D01*
X86871000Y-68969000D01*
X86876000Y-68975000D01*
X86880000Y-68981000D01*
X86884000Y-68987000D01*
X86887000Y-68993000D01*
X86890000Y-69000000D01*
X86893000Y-69007000D01*
X86895000Y-69014000D01*
X86897000Y-69021000D01*
X86899000Y-69028000D01*
X86900000Y-69035000D01*
X86900000Y-69043000D01*
X86900000Y-69050000D01*
X86900000Y-69057000D01*
X86900000Y-69065000D01*
X86899000Y-69072000D01*
X86897000Y-69079000D01*
X86895000Y-69086000D01*
X86893000Y-69093000D01*
X86890000Y-69100000D01*
X86887000Y-69106000D01*
X86884000Y-69113000D01*
X86880000Y-69119000D01*
X86876000Y-69125000D01*
X86871000Y-69131000D01*
X86866000Y-69136000D01*
X86861000Y-69142000D01*
X86855000Y-69146000D01*
X86850000Y-69151000D01*
X86844000Y-69155000D01*
X86838000Y-69159000D01*
X86831000Y-69163000D01*
X86824000Y-69166000D01*
X86818000Y-69168000D01*
X86811000Y-69171000D01*
X86804000Y-69173000D01*
X86796000Y-69174000D01*
X86789000Y-69175000D01*
X86782000Y-69176000D01*
X86774000Y-69176000D01*
X86426000Y-69176000D01*
X86419000Y-69176000D01*
X86412000Y-69175000D01*
X86405000Y-69174000D01*
X86397000Y-69173000D01*
X86390000Y-69171000D01*
X86383000Y-69168000D01*
X86377000Y-69166000D01*
X86370000Y-69163000D01*
X86363000Y-69159000D01*
X86357000Y-69155000D01*
X86351000Y-69151000D01*
X86345000Y-69146000D01*
X86340000Y-69142000D01*
X86335000Y-69136000D01*
X86330000Y-69131000D01*
X86325000Y-69125000D01*
X86321000Y-69119000D01*
X86317000Y-69113000D01*
X86314000Y-69106000D01*
X86311000Y-69100000D01*
X86308000Y-69093000D01*
X86306000Y-69086000D01*
X86304000Y-69079000D01*
X86302000Y-69072000D01*
X86301000Y-69065000D01*
X86301000Y-69057000D01*
X86300000Y-69050000D01*
X86301000Y-69043000D01*
X86301000Y-69035000D01*
X86302000Y-69028000D01*
X86304000Y-69021000D01*
X86306000Y-69014000D01*
X86308000Y-69007000D01*
X86311000Y-69000000D01*
X86314000Y-68993000D01*
X86317000Y-68987000D01*
X86321000Y-68981000D01*
X86325000Y-68975000D01*
X86330000Y-68969000D01*
X86335000Y-68963000D01*
X86340000Y-68958000D01*
X86345000Y-68953000D01*
X86351000Y-68949000D01*
X86357000Y-68945000D01*
X86363000Y-68941000D01*
X86370000Y-68937000D01*
X86377000Y-68934000D01*
X86383000Y-68932000D01*
X86390000Y-68929000D01*
X86397000Y-68927000D01*
X86405000Y-68926000D01*
X86412000Y-68925000D01*
X86419000Y-68924000D01*
X86426000Y-68924000D01*
X86774000Y-68924000D01*
X86782000Y-68924000D01*
X86789000Y-68925000D01*
G37*
G36*
X86095000Y-69263000D02*
G01*
X86103000Y-69263000D01*
X86110000Y-69264000D01*
X86117000Y-69266000D01*
X86124000Y-69268000D01*
X86131000Y-69270000D01*
X86138000Y-69273000D01*
X86144000Y-69276000D01*
X86151000Y-69279000D01*
X86157000Y-69283000D01*
X86163000Y-69287000D01*
X86169000Y-69292000D01*
X86174000Y-69297000D01*
X86180000Y-69302000D01*
X86184000Y-69308000D01*
X86189000Y-69313000D01*
X86193000Y-69319000D01*
X86197000Y-69325000D01*
X86201000Y-69332000D01*
X86204000Y-69339000D01*
X86206000Y-69345000D01*
X86209000Y-69352000D01*
X86211000Y-69359000D01*
X86212000Y-69367000D01*
X86213000Y-69374000D01*
X86214000Y-69381000D01*
X86214000Y-69389000D01*
X86214000Y-69736000D01*
X86214000Y-69744000D01*
X86213000Y-69751000D01*
X86212000Y-69758000D01*
X86211000Y-69766000D01*
X86209000Y-69773000D01*
X86206000Y-69780000D01*
X86204000Y-69786000D01*
X86201000Y-69793000D01*
X86197000Y-69800000D01*
X86193000Y-69806000D01*
X86189000Y-69812000D01*
X86184000Y-69817000D01*
X86180000Y-69823000D01*
X86174000Y-69828000D01*
X86169000Y-69833000D01*
X86163000Y-69838000D01*
X86157000Y-69842000D01*
X86151000Y-69846000D01*
X86144000Y-69849000D01*
X86138000Y-69852000D01*
X86131000Y-69855000D01*
X86124000Y-69857000D01*
X86117000Y-69859000D01*
X86110000Y-69861000D01*
X86103000Y-69862000D01*
X86095000Y-69862000D01*
X86088000Y-69862000D01*
X86081000Y-69862000D01*
X86073000Y-69862000D01*
X86066000Y-69861000D01*
X86059000Y-69859000D01*
X86052000Y-69857000D01*
X86045000Y-69855000D01*
X86038000Y-69852000D01*
X86031000Y-69849000D01*
X86025000Y-69846000D01*
X86019000Y-69842000D01*
X86013000Y-69838000D01*
X86007000Y-69833000D01*
X86001000Y-69828000D01*
X85996000Y-69823000D01*
X85991000Y-69817000D01*
X85987000Y-69812000D01*
X85983000Y-69806000D01*
X85979000Y-69799000D01*
X85975000Y-69793000D01*
X85972000Y-69786000D01*
X85970000Y-69780000D01*
X85967000Y-69773000D01*
X85965000Y-69766000D01*
X85964000Y-69758000D01*
X85963000Y-69751000D01*
X85962000Y-69744000D01*
X85962000Y-69736000D01*
X85962000Y-69389000D01*
X85962000Y-69381000D01*
X85963000Y-69374000D01*
X85964000Y-69367000D01*
X85965000Y-69359000D01*
X85967000Y-69352000D01*
X85970000Y-69345000D01*
X85972000Y-69339000D01*
X85975000Y-69332000D01*
X85979000Y-69326000D01*
X85983000Y-69319000D01*
X85987000Y-69313000D01*
X85991000Y-69308000D01*
X85996000Y-69302000D01*
X86001000Y-69297000D01*
X86007000Y-69292000D01*
X86013000Y-69287000D01*
X86019000Y-69283000D01*
X86025000Y-69279000D01*
X86031000Y-69276000D01*
X86038000Y-69273000D01*
X86045000Y-69270000D01*
X86052000Y-69268000D01*
X86059000Y-69266000D01*
X86066000Y-69264000D01*
X86073000Y-69263000D01*
X86081000Y-69263000D01*
X86088000Y-69262000D01*
X86095000Y-69263000D01*
G37*
G36*
X85195000Y-69263000D02*
G01*
X85203000Y-69263000D01*
X85210000Y-69264000D01*
X85217000Y-69266000D01*
X85224000Y-69268000D01*
X85231000Y-69270000D01*
X85238000Y-69273000D01*
X85245000Y-69276000D01*
X85251000Y-69279000D01*
X85257000Y-69283000D01*
X85263000Y-69287000D01*
X85269000Y-69292000D01*
X85274000Y-69297000D01*
X85280000Y-69302000D01*
X85285000Y-69308000D01*
X85289000Y-69313000D01*
X85293000Y-69319000D01*
X85297000Y-69325000D01*
X85301000Y-69332000D01*
X85304000Y-69339000D01*
X85306000Y-69345000D01*
X85309000Y-69352000D01*
X85311000Y-69359000D01*
X85312000Y-69367000D01*
X85313000Y-69374000D01*
X85314000Y-69381000D01*
X85314000Y-69389000D01*
X85314000Y-69736000D01*
X85314000Y-69744000D01*
X85313000Y-69751000D01*
X85312000Y-69758000D01*
X85311000Y-69766000D01*
X85309000Y-69773000D01*
X85306000Y-69780000D01*
X85304000Y-69786000D01*
X85301000Y-69793000D01*
X85297000Y-69800000D01*
X85293000Y-69806000D01*
X85289000Y-69812000D01*
X85285000Y-69817000D01*
X85280000Y-69823000D01*
X85274000Y-69828000D01*
X85269000Y-69833000D01*
X85263000Y-69838000D01*
X85257000Y-69842000D01*
X85251000Y-69846000D01*
X85245000Y-69849000D01*
X85238000Y-69852000D01*
X85231000Y-69855000D01*
X85224000Y-69857000D01*
X85217000Y-69859000D01*
X85210000Y-69861000D01*
X85203000Y-69862000D01*
X85195000Y-69862000D01*
X85188000Y-69862000D01*
X85181000Y-69862000D01*
X85173000Y-69862000D01*
X85166000Y-69861000D01*
X85159000Y-69859000D01*
X85152000Y-69857000D01*
X85145000Y-69855000D01*
X85138000Y-69852000D01*
X85131000Y-69849000D01*
X85125000Y-69846000D01*
X85119000Y-69842000D01*
X85113000Y-69838000D01*
X85107000Y-69833000D01*
X85102000Y-69828000D01*
X85096000Y-69823000D01*
X85091000Y-69817000D01*
X85087000Y-69812000D01*
X85083000Y-69806000D01*
X85079000Y-69799000D01*
X85075000Y-69793000D01*
X85072000Y-69786000D01*
X85070000Y-69780000D01*
X85067000Y-69773000D01*
X85065000Y-69766000D01*
X85064000Y-69758000D01*
X85063000Y-69751000D01*
X85062000Y-69744000D01*
X85062000Y-69736000D01*
X85062000Y-69389000D01*
X85062000Y-69381000D01*
X85063000Y-69374000D01*
X85064000Y-69367000D01*
X85065000Y-69359000D01*
X85067000Y-69352000D01*
X85070000Y-69345000D01*
X85072000Y-69339000D01*
X85075000Y-69332000D01*
X85079000Y-69326000D01*
X85083000Y-69319000D01*
X85087000Y-69313000D01*
X85091000Y-69308000D01*
X85096000Y-69302000D01*
X85102000Y-69297000D01*
X85107000Y-69292000D01*
X85113000Y-69287000D01*
X85119000Y-69283000D01*
X85125000Y-69279000D01*
X85131000Y-69276000D01*
X85138000Y-69273000D01*
X85145000Y-69270000D01*
X85152000Y-69268000D01*
X85159000Y-69266000D01*
X85166000Y-69264000D01*
X85173000Y-69263000D01*
X85181000Y-69263000D01*
X85188000Y-69262000D01*
X85195000Y-69263000D01*
G37*
G36*
X84295000Y-69263000D02*
G01*
X84303000Y-69263000D01*
X84310000Y-69264000D01*
X84317000Y-69266000D01*
X84324000Y-69268000D01*
X84331000Y-69270000D01*
X84338000Y-69273000D01*
X84345000Y-69276000D01*
X84351000Y-69279000D01*
X84357000Y-69283000D01*
X84363000Y-69287000D01*
X84369000Y-69292000D01*
X84375000Y-69297000D01*
X84380000Y-69302000D01*
X84385000Y-69308000D01*
X84389000Y-69313000D01*
X84393000Y-69319000D01*
X84397000Y-69325000D01*
X84401000Y-69332000D01*
X84404000Y-69339000D01*
X84406000Y-69345000D01*
X84409000Y-69352000D01*
X84411000Y-69359000D01*
X84412000Y-69367000D01*
X84413000Y-69374000D01*
X84414000Y-69381000D01*
X84414000Y-69389000D01*
X84414000Y-69736000D01*
X84414000Y-69744000D01*
X84413000Y-69751000D01*
X84412000Y-69758000D01*
X84411000Y-69766000D01*
X84409000Y-69773000D01*
X84406000Y-69780000D01*
X84404000Y-69786000D01*
X84401000Y-69793000D01*
X84397000Y-69800000D01*
X84393000Y-69806000D01*
X84389000Y-69812000D01*
X84385000Y-69817000D01*
X84380000Y-69823000D01*
X84375000Y-69828000D01*
X84369000Y-69833000D01*
X84363000Y-69838000D01*
X84357000Y-69842000D01*
X84351000Y-69846000D01*
X84345000Y-69849000D01*
X84338000Y-69852000D01*
X84331000Y-69855000D01*
X84324000Y-69857000D01*
X84317000Y-69859000D01*
X84310000Y-69861000D01*
X84303000Y-69862000D01*
X84295000Y-69862000D01*
X84288000Y-69862000D01*
X84281000Y-69862000D01*
X84273000Y-69862000D01*
X84266000Y-69861000D01*
X84259000Y-69859000D01*
X84252000Y-69857000D01*
X84245000Y-69855000D01*
X84238000Y-69852000D01*
X84232000Y-69849000D01*
X84225000Y-69846000D01*
X84219000Y-69842000D01*
X84213000Y-69838000D01*
X84207000Y-69833000D01*
X84202000Y-69828000D01*
X84196000Y-69823000D01*
X84192000Y-69817000D01*
X84187000Y-69812000D01*
X84183000Y-69806000D01*
X84179000Y-69799000D01*
X84175000Y-69793000D01*
X84172000Y-69786000D01*
X84170000Y-69780000D01*
X84167000Y-69773000D01*
X84165000Y-69766000D01*
X84164000Y-69758000D01*
X84163000Y-69751000D01*
X84162000Y-69744000D01*
X84162000Y-69736000D01*
X84162000Y-69389000D01*
X84162000Y-69381000D01*
X84163000Y-69374000D01*
X84164000Y-69367000D01*
X84165000Y-69359000D01*
X84167000Y-69352000D01*
X84170000Y-69345000D01*
X84172000Y-69339000D01*
X84175000Y-69332000D01*
X84179000Y-69326000D01*
X84183000Y-69319000D01*
X84187000Y-69313000D01*
X84192000Y-69308000D01*
X84196000Y-69302000D01*
X84202000Y-69297000D01*
X84207000Y-69292000D01*
X84213000Y-69287000D01*
X84219000Y-69283000D01*
X84225000Y-69279000D01*
X84232000Y-69276000D01*
X84238000Y-69273000D01*
X84245000Y-69270000D01*
X84252000Y-69268000D01*
X84259000Y-69266000D01*
X84266000Y-69264000D01*
X84273000Y-69263000D01*
X84281000Y-69263000D01*
X84288000Y-69262000D01*
X84295000Y-69263000D01*
G37*
G36*
X85645000Y-69263000D02*
G01*
X85653000Y-69263000D01*
X85660000Y-69264000D01*
X85667000Y-69266000D01*
X85674000Y-69268000D01*
X85681000Y-69270000D01*
X85688000Y-69273000D01*
X85695000Y-69276000D01*
X85701000Y-69279000D01*
X85707000Y-69283000D01*
X85713000Y-69287000D01*
X85719000Y-69292000D01*
X85725000Y-69297000D01*
X85730000Y-69302000D01*
X85735000Y-69308000D01*
X85739000Y-69313000D01*
X85743000Y-69319000D01*
X85747000Y-69325000D01*
X85751000Y-69332000D01*
X85754000Y-69339000D01*
X85757000Y-69345000D01*
X85759000Y-69352000D01*
X85761000Y-69359000D01*
X85762000Y-69367000D01*
X85763000Y-69374000D01*
X85764000Y-69381000D01*
X85764000Y-69389000D01*
X85764000Y-69736000D01*
X85764000Y-69744000D01*
X85763000Y-69751000D01*
X85762000Y-69758000D01*
X85761000Y-69766000D01*
X85759000Y-69773000D01*
X85757000Y-69780000D01*
X85754000Y-69786000D01*
X85751000Y-69793000D01*
X85747000Y-69800000D01*
X85743000Y-69806000D01*
X85739000Y-69812000D01*
X85735000Y-69817000D01*
X85730000Y-69823000D01*
X85725000Y-69828000D01*
X85719000Y-69833000D01*
X85713000Y-69838000D01*
X85707000Y-69842000D01*
X85701000Y-69846000D01*
X85695000Y-69849000D01*
X85688000Y-69852000D01*
X85681000Y-69855000D01*
X85674000Y-69857000D01*
X85667000Y-69859000D01*
X85660000Y-69861000D01*
X85653000Y-69862000D01*
X85645000Y-69862000D01*
X85638000Y-69862000D01*
X85631000Y-69862000D01*
X85623000Y-69862000D01*
X85616000Y-69861000D01*
X85609000Y-69859000D01*
X85602000Y-69857000D01*
X85595000Y-69855000D01*
X85588000Y-69852000D01*
X85582000Y-69849000D01*
X85575000Y-69846000D01*
X85569000Y-69842000D01*
X85563000Y-69838000D01*
X85557000Y-69833000D01*
X85552000Y-69828000D01*
X85546000Y-69823000D01*
X85542000Y-69817000D01*
X85537000Y-69812000D01*
X85533000Y-69806000D01*
X85529000Y-69799000D01*
X85525000Y-69793000D01*
X85522000Y-69786000D01*
X85520000Y-69780000D01*
X85517000Y-69773000D01*
X85515000Y-69766000D01*
X85514000Y-69758000D01*
X85513000Y-69751000D01*
X85512000Y-69744000D01*
X85512000Y-69736000D01*
X85512000Y-69389000D01*
X85512000Y-69381000D01*
X85513000Y-69374000D01*
X85514000Y-69367000D01*
X85515000Y-69359000D01*
X85517000Y-69352000D01*
X85520000Y-69345000D01*
X85522000Y-69339000D01*
X85525000Y-69332000D01*
X85529000Y-69326000D01*
X85533000Y-69319000D01*
X85537000Y-69313000D01*
X85542000Y-69308000D01*
X85546000Y-69302000D01*
X85552000Y-69297000D01*
X85557000Y-69292000D01*
X85563000Y-69287000D01*
X85569000Y-69283000D01*
X85575000Y-69279000D01*
X85582000Y-69276000D01*
X85588000Y-69273000D01*
X85595000Y-69270000D01*
X85602000Y-69268000D01*
X85609000Y-69266000D01*
X85616000Y-69264000D01*
X85623000Y-69263000D01*
X85631000Y-69263000D01*
X85638000Y-69262000D01*
X85645000Y-69263000D01*
G37*
G36*
X84745000Y-69263000D02*
G01*
X84753000Y-69263000D01*
X84760000Y-69264000D01*
X84767000Y-69266000D01*
X84774000Y-69268000D01*
X84781000Y-69270000D01*
X84788000Y-69273000D01*
X84794000Y-69276000D01*
X84801000Y-69279000D01*
X84807000Y-69283000D01*
X84813000Y-69287000D01*
X84819000Y-69292000D01*
X84824000Y-69297000D01*
X84830000Y-69302000D01*
X84834000Y-69308000D01*
X84839000Y-69313000D01*
X84843000Y-69319000D01*
X84847000Y-69325000D01*
X84851000Y-69332000D01*
X84854000Y-69339000D01*
X84856000Y-69345000D01*
X84859000Y-69352000D01*
X84861000Y-69359000D01*
X84862000Y-69367000D01*
X84863000Y-69374000D01*
X84864000Y-69381000D01*
X84864000Y-69389000D01*
X84864000Y-69736000D01*
X84864000Y-69744000D01*
X84863000Y-69751000D01*
X84862000Y-69758000D01*
X84861000Y-69766000D01*
X84859000Y-69773000D01*
X84856000Y-69780000D01*
X84854000Y-69786000D01*
X84851000Y-69793000D01*
X84847000Y-69800000D01*
X84843000Y-69806000D01*
X84839000Y-69812000D01*
X84834000Y-69817000D01*
X84830000Y-69823000D01*
X84824000Y-69828000D01*
X84819000Y-69833000D01*
X84813000Y-69838000D01*
X84807000Y-69842000D01*
X84801000Y-69846000D01*
X84794000Y-69849000D01*
X84788000Y-69852000D01*
X84781000Y-69855000D01*
X84774000Y-69857000D01*
X84767000Y-69859000D01*
X84760000Y-69861000D01*
X84753000Y-69862000D01*
X84745000Y-69862000D01*
X84738000Y-69862000D01*
X84731000Y-69862000D01*
X84723000Y-69862000D01*
X84716000Y-69861000D01*
X84709000Y-69859000D01*
X84702000Y-69857000D01*
X84695000Y-69855000D01*
X84688000Y-69852000D01*
X84681000Y-69849000D01*
X84675000Y-69846000D01*
X84669000Y-69842000D01*
X84663000Y-69838000D01*
X84657000Y-69833000D01*
X84651000Y-69828000D01*
X84646000Y-69823000D01*
X84641000Y-69817000D01*
X84637000Y-69812000D01*
X84633000Y-69806000D01*
X84629000Y-69799000D01*
X84625000Y-69793000D01*
X84622000Y-69786000D01*
X84619000Y-69780000D01*
X84617000Y-69773000D01*
X84615000Y-69766000D01*
X84614000Y-69758000D01*
X84613000Y-69751000D01*
X84612000Y-69744000D01*
X84612000Y-69736000D01*
X84612000Y-69389000D01*
X84612000Y-69381000D01*
X84613000Y-69374000D01*
X84614000Y-69367000D01*
X84615000Y-69359000D01*
X84617000Y-69352000D01*
X84619000Y-69345000D01*
X84622000Y-69339000D01*
X84625000Y-69332000D01*
X84629000Y-69326000D01*
X84633000Y-69319000D01*
X84637000Y-69313000D01*
X84641000Y-69308000D01*
X84646000Y-69302000D01*
X84651000Y-69297000D01*
X84657000Y-69292000D01*
X84663000Y-69287000D01*
X84669000Y-69283000D01*
X84675000Y-69279000D01*
X84681000Y-69276000D01*
X84688000Y-69273000D01*
X84695000Y-69270000D01*
X84702000Y-69268000D01*
X84709000Y-69266000D01*
X84716000Y-69264000D01*
X84723000Y-69263000D01*
X84731000Y-69263000D01*
X84738000Y-69262000D01*
X84745000Y-69263000D01*
G37*
%TD*%
D10*
%TO.C,C1*%
X89900000Y-73450000D03*
X89900000Y-75350000D03*
%TD*%
D11*
%TO.C,C6*%
X108260000Y-80193000D03*
X108260000Y-77243000D03*
%TD*%
D12*
%TO.C,R2*%
X83425000Y-72900000D03*
X81775000Y-72900000D03*
%TD*%
D13*
%TO.C,U1*%
X86088000Y-66738000D03*
X85638000Y-66738000D03*
X85188000Y-66738000D03*
X84738000Y-66738000D03*
X84288000Y-66738000D03*
D14*
X83776000Y-67250000D03*
X83776000Y-67700000D03*
X83776000Y-68150000D03*
X83776000Y-68600000D03*
X83776000Y-69050000D03*
D13*
X84288000Y-69562000D03*
X84738000Y-69562000D03*
X85188000Y-69562000D03*
X85638000Y-69562000D03*
X86088000Y-69562000D03*
D14*
X86600000Y-69050000D03*
X86600000Y-68600000D03*
X86600000Y-68150000D03*
X86600000Y-67700000D03*
X86600000Y-67250000D03*
D15*
X85188000Y-68150000D03*
%TD*%
D16*
%TO.C,R5*%
X86675000Y-71865000D03*
X86675000Y-72885000D03*
%TD*%
D11*
%TO.C,C8*%
X113101000Y-80193000D03*
X113101000Y-77243000D03*
%TD*%
D17*
%TO.C,R1*%
X85000000Y-74425000D03*
X85000000Y-72775000D03*
%TD*%
D18*
%TO.C,R3*%
X81590000Y-68600000D03*
X82610000Y-68600000D03*
%TD*%
D19*
%TO.C,L1*%
X94750000Y-71700000D03*
X106000000Y-71700000D03*
%TD*%
D11*
%TO.C,C7*%
X110701000Y-80193000D03*
X110701000Y-77243000D03*
%TD*%
%TO.C,C2*%
X89900000Y-66475000D03*
X89900000Y-63525000D03*
%TD*%
D16*
%TO.C,R6*%
X80300000Y-68580000D03*
X80300000Y-69600000D03*
%TD*%
D20*
%TO.C,C3*%
X78925000Y-59800000D03*
X81875000Y-59800000D03*
%TD*%
D21*
%TO.C,R4*%
X87710000Y-70500000D03*
X86690000Y-70500000D03*
%TD*%
D20*
%TO.C,C5*%
X78925000Y-64800000D03*
X81875000Y-64800000D03*
%TD*%
D16*
%TO.C,R7*%
X80300000Y-70780000D03*
X80300000Y-71800000D03*
%TD*%
D20*
%TO.C,C4*%
X78925000Y-62300000D03*
X81875000Y-62300000D03*
%TD*%
D11*
%TO.C,C9*%
X115501000Y-80193000D03*
X115501000Y-77243000D03*
%TD*%
M02*
