%TF.GenerationSoftware,KiCad,Pcbnew,7.0.7*%
%TF.CreationDate,2024-01-22T10:51:04-08:00*%
%TF.ProjectId,DC-DC_converter_v2,44432d44-435f-4636-9f6e-766572746572,rev?*%
%TF.SameCoordinates,Original*%
%TF.FileFunction,Soldermask,Top*%
%TF.FilePolarity,Negative*%
%FSLAX46Y46*%
G04 Gerber Fmt 4.6, Leading zero omitted, Abs format (unit mm)*
G04 Created by KiCad (PCBNEW 7.0.7) date 2024-01-22 10:51:04*
%MOMM*%
%LPD*%
G01*
G04 APERTURE LIST*
G04 Aperture macros list*
%AMRoundRect*
0 Rectangle with rounded corners*
0 $1 Rounding radius*
0 $2 $3 $4 $5 $6 $7 $8 $9 X,Y pos of 4 corners*
0 Add a 4 corners polygon primitive as box body*
4,1,4,$2,$3,$4,$5,$6,$7,$8,$9,$2,$3,0*
0 Add four circle primitives for the rounded corners*
1,1,$1+$1,$2,$3*
1,1,$1+$1,$4,$5*
1,1,$1+$1,$6,$7*
1,1,$1+$1,$8,$9*
0 Add four rect primitives between the rounded corners*
20,1,$1+$1,$2,$3,$4,$5,0*
20,1,$1+$1,$4,$5,$6,$7,0*
20,1,$1+$1,$6,$7,$8,$9,0*
20,1,$1+$1,$8,$9,$2,$3,0*%
G04 Aperture macros list end*
%ADD10RoundRect,0.250000X-0.475000X0.250000X-0.475000X-0.250000X0.475000X-0.250000X0.475000X0.250000X0*%
%ADD11RoundRect,0.250000X0.650000X-0.325000X0.650000X0.325000X-0.650000X0.325000X-0.650000X-0.325000X0*%
%ADD12RoundRect,0.200000X0.200000X0.275000X-0.200000X0.275000X-0.200000X-0.275000X0.200000X-0.275000X0*%
%ADD13O,0.252000X0.600000*%
%ADD14O,0.600000X0.252000*%
%ADD15R,0.926000X0.975000*%
%ADD16RoundRect,0.135000X-0.185000X0.135000X-0.185000X-0.135000X0.185000X-0.135000X0.185000X0.135000X0*%
%ADD17RoundRect,0.200000X0.275000X-0.200000X0.275000X0.200000X-0.275000X0.200000X-0.275000X-0.200000X0*%
%ADD18RoundRect,0.135000X-0.135000X-0.185000X0.135000X-0.185000X0.135000X0.185000X-0.135000X0.185000X0*%
%ADD19R,3.250000X5.500000*%
%ADD20RoundRect,0.250000X-0.325000X-0.650000X0.325000X-0.650000X0.325000X0.650000X-0.325000X0.650000X0*%
%ADD21RoundRect,0.135000X0.135000X0.185000X-0.135000X0.185000X-0.135000X-0.185000X0.135000X-0.185000X0*%
%ADD22C,3.000000*%
G04 APERTURE END LIST*
D10*
%TO.C,C1*%
X89900000Y-73450000D03*
X89900000Y-75350000D03*
%TD*%
D11*
%TO.C,C6*%
X108260000Y-80193000D03*
X108260000Y-77243000D03*
%TD*%
D12*
%TO.C,R2*%
X83425000Y-72900000D03*
X81775000Y-72900000D03*
%TD*%
D13*
%TO.C,U1*%
X86088000Y-66738000D03*
X85638000Y-66738000D03*
X85188000Y-66738000D03*
X84738000Y-66738000D03*
X84288000Y-66738000D03*
D14*
X83776000Y-67250000D03*
X83776000Y-67700000D03*
X83776000Y-68150000D03*
X83776000Y-68600000D03*
X83776000Y-69050000D03*
D13*
X84288000Y-69562000D03*
X84738000Y-69562000D03*
X85188000Y-69562000D03*
X85638000Y-69562000D03*
X86088000Y-69562000D03*
D14*
X86600000Y-69050000D03*
X86600000Y-68600000D03*
X86600000Y-68150000D03*
X86600000Y-67700000D03*
X86600000Y-67250000D03*
D15*
X85188000Y-68150000D03*
%TD*%
D16*
%TO.C,R5*%
X86675000Y-71865000D03*
X86675000Y-72885000D03*
%TD*%
D11*
%TO.C,C8*%
X113101000Y-80193000D03*
X113101000Y-77243000D03*
%TD*%
D17*
%TO.C,R1*%
X85000000Y-74425000D03*
X85000000Y-72775000D03*
%TD*%
D18*
%TO.C,R3*%
X81590000Y-68600000D03*
X82610000Y-68600000D03*
%TD*%
D19*
%TO.C,L1*%
X94750000Y-71700000D03*
X106000000Y-71700000D03*
%TD*%
D11*
%TO.C,C7*%
X110701000Y-80193000D03*
X110701000Y-77243000D03*
%TD*%
%TO.C,C2*%
X89900000Y-66475000D03*
X89900000Y-63525000D03*
%TD*%
D16*
%TO.C,R6*%
X80300000Y-68580000D03*
X80300000Y-69600000D03*
%TD*%
D20*
%TO.C,C3*%
X78925000Y-59800000D03*
X81875000Y-59800000D03*
%TD*%
D21*
%TO.C,R4*%
X87710000Y-70500000D03*
X86690000Y-70500000D03*
%TD*%
D20*
%TO.C,C5*%
X78925000Y-64800000D03*
X81875000Y-64800000D03*
%TD*%
D22*
%TO.C,U2*%
X104300000Y-60200000D03*
X96300000Y-60200000D03*
%TD*%
D16*
%TO.C,R7*%
X80300000Y-70780000D03*
X80300000Y-71800000D03*
%TD*%
D20*
%TO.C,C4*%
X78925000Y-62300000D03*
X81875000Y-62300000D03*
%TD*%
D22*
%TO.C,U3*%
X112900000Y-60200000D03*
X120900000Y-60200000D03*
%TD*%
D11*
%TO.C,C9*%
X115501000Y-80193000D03*
X115501000Y-77243000D03*
%TD*%
M02*
