M48
;GenerationSoftware,Autodesk,EAGLE,9.3.0*%
;CreationDate,2019-08-23T07:50:45Z*%
FMAT,2
ICI,OFF
METRIC,TZ,000.000
T5C0.350
T4C0.400
T3C0.450
T2C1.016
T1C2.667
%
G90
M71
T1
X54483Y58293
X46609Y58293
X99568Y39116
X99568Y46990
X99695Y23114
X99695Y15240
T2
X37846Y16383
X35306Y16383
X37846Y18923
X35306Y18923
X37846Y21463
X35306Y21463
X37846Y24003
X35306Y24003
X37846Y26543
X35306Y26543
X37846Y29083
X35306Y13843
X37846Y31623
X35306Y31623
X37846Y34163
X35306Y34163
X37846Y36703
X35306Y36703
X37846Y39243
X35306Y39243
X37846Y41783
X35306Y41783
X35306Y29083
X37846Y13843
T3
X18288Y32131
X19558Y21590
X19812Y34417
X17272Y20193
X16891Y31369
X28448Y16383
X27305Y37084
X20320Y45720
X21209Y42291
X10160Y49911
X8001Y38227
X9652Y51308
X7112Y37211
X66675Y44831
X66040Y32512
X66421Y35560
X84074Y44323
X83947Y38862
X74930Y42164
X31623Y37973
X69215Y42164
X69342Y20066
X68453Y26924
X66929Y33020
X28956Y35560
X29972Y39370
X29972Y44323
X12446Y44196
X11684Y28067
X30480Y34163
X29464Y26162
X31877Y31623
X33020Y29210
X33147Y37592
X19177Y25400
X19177Y33020
X68707Y27940
X74803Y20066
X60452Y26543
X74422Y16129
X83693Y16129
X83693Y21590
X73152Y26416
X75536Y28448
X64897Y28244
X72517Y15113
X66040Y28448
X70104Y16002
X98933Y31115
X67564Y28829
X69088Y16764
X18288Y24257
X48514Y38989
X48514Y37973
X48514Y36957
X48514Y35814
X68835Y30763
X75184Y31757
X64897Y35179
X65151Y44831
X68199Y29972
X75311Y30734
X98933Y32385
X67818Y31496
X75311Y32766
X49276Y23749
X51816Y32893
X29210Y41783
T4
X59182Y27686
X60198Y27686
X58166Y27686
X58166Y28956
X59182Y28956
X60198Y28956
X59182Y30226
X58166Y30226
X60198Y30226
X58166Y31369
X59182Y31369
X60198Y31369
T5
X93726Y29972
X68326Y12700
X73152Y12065
X68326Y24130
X72136Y28448
X73787Y35433
X69215Y37211
X75184Y25019
X97282Y54737
X58547Y35814
X59436Y35814
X60833Y35814
X62738Y35941
X58547Y37592
X60071Y37465
X62230Y37592
X56007Y49276
X55880Y47752
X55499Y45085
X53594Y43053
X53213Y49403
X53086Y47625
X52197Y46101
X50927Y44450
X56642Y20066
X46736Y16637
X57785Y13716
X48895Y9906
X36195Y8890
X34163Y3810
X8509Y5715
X21082Y5461
X64135Y5334
X65913Y2032
X69596Y57150
X69596Y56007
X69596Y54864
X73406Y57658
X73406Y56388
X73406Y54991
X76327Y57150
X76200Y55118
X80264Y57277
X80264Y56007
X80264Y54864
X83312Y57277
X83185Y56261
X83312Y55118
X87884Y56515
X88138Y55245
X86233Y55880
X69215Y9779
X69215Y8763
X69088Y7747
X71628Y9652
X71628Y8636
X71628Y7493
X74676Y8763
X79121Y9906
X79121Y8890
X79121Y7747
X81915Y9906
X81915Y8890
X81915Y7747
X84328Y8890
X87376Y51435
X88392Y51435
X87376Y50165
X88392Y50165
X85471Y51562
X85471Y50673
X85471Y49784
X87503Y36068
X88519Y36068
X87503Y34925
X88519Y34925
X85471Y36195
X85471Y35306
X85471Y34417
X86868Y28194
X87884Y28194
X87884Y27178
X86868Y27178
X84836Y28575
X84836Y27686
X65532Y4191
X86995Y13716
X88011Y13716
X86995Y12573
X88011Y12573
X85217Y13970
X85217Y13081
X85217Y12192
X65786Y6223
X90297Y2540
X91694Y3810
X92456Y5207
X58166Y22987
X54737Y22860
X15113Y35433
X13462Y36322
X7493Y29591
X4318Y14986
X30734Y28829
X23749Y29083
X26416Y30988
X24511Y32004
X26035Y41021
X32131Y25146
X31877Y22733
X31623Y19812
X23749Y20066
X24003Y22733
X91694Y61468
X92202Y58293
X92075Y59436
X92329Y2159
X58293Y4318
X93980Y4064
X64008Y2921
X24257Y41656
X18415Y39116
X16764Y38354
X73406Y63246
X83312Y63246
X82296Y63246
X81280Y63246
X80264Y63246
X72390Y63246
X71247Y63246
X69977Y63246
X53086Y40386
X52070Y40386
X50673Y38989
X49784Y38989
X45466Y30861
X45339Y31877
X46355Y33020
X46355Y34163
X45085Y37719
X41021Y48641
X31877Y50800
X30099Y59055
X4699Y57277
X2921Y21336
X1397Y43561
X3302Y34544
X3302Y35687
X1397Y42418
X84836Y26670
M30