G75*
%MOIN*%
%OFA0B0*%
%FSLAX25Y25*%
%IPPOS*%
%LPD*%
%AMOC8*
5,1,8,0,0,1.08239X$1,22.5*
%
%ADD10C,0.08400*%
%ADD11R,0.04937X0.05331*%
%ADD12R,0.05700X0.05900*%
%ADD13R,0.04150X0.04543*%
%ADD14C,0.10000*%
%ADD15C,0.08000*%
%ADD16C,0.05943*%
%ADD17R,0.06000X0.03500*%
D10*
X0145400Y0011400D03*
X0155400Y0011400D03*
X0253548Y0061449D03*
X0253548Y0071291D03*
X0253548Y0081134D03*
X0253548Y0090976D03*
X0233200Y0130005D03*
X0233200Y0155595D03*
D11*
X0194346Y0145000D03*
X0187654Y0145000D03*
X0176546Y0145200D03*
X0169854Y0145200D03*
X0187654Y0135000D03*
X0194346Y0135000D03*
X0223854Y0113400D03*
X0230546Y0113400D03*
X0196346Y0097000D03*
X0189654Y0097000D03*
X0181346Y0097000D03*
X0174654Y0097000D03*
X0174654Y0085000D03*
X0181346Y0085000D03*
X0189654Y0085000D03*
X0196346Y0085000D03*
X0196346Y0073000D03*
X0189654Y0073000D03*
X0181346Y0073000D03*
X0174654Y0073000D03*
X0175346Y0054000D03*
X0168654Y0054000D03*
X0150346Y0036000D03*
X0143654Y0036000D03*
X0069346Y0081600D03*
X0062654Y0081600D03*
X0062654Y0089800D03*
X0069346Y0089800D03*
X0069346Y0098000D03*
X0062654Y0098000D03*
X0062654Y0106000D03*
X0069346Y0106000D03*
D12*
X0167500Y0123200D03*
X0175700Y0123200D03*
D13*
X0217460Y0095063D03*
X0224940Y0095063D03*
X0221200Y0087331D03*
X0217460Y0079063D03*
X0224940Y0079063D03*
X0221200Y0071331D03*
X0217460Y0063063D03*
X0224940Y0063063D03*
X0196740Y0054063D03*
X0189260Y0054063D03*
X0193000Y0062331D03*
X0221200Y0103331D03*
X0176740Y0166063D03*
X0169260Y0166063D03*
X0173000Y0174331D03*
D14*
X0154000Y0167000D03*
X0154000Y0157000D03*
X0154000Y0147000D03*
X0154000Y0137000D03*
X0154000Y0127000D03*
X0154000Y0117000D03*
X0154000Y0107000D03*
X0154000Y0097000D03*
X0154000Y0087000D03*
X0154000Y0077000D03*
X0154000Y0067000D03*
X0154000Y0057000D03*
X0094000Y0057000D03*
X0094000Y0067000D03*
X0094000Y0077000D03*
X0094000Y0087000D03*
X0094000Y0097000D03*
X0094000Y0107000D03*
X0094000Y0117000D03*
X0094000Y0127000D03*
X0094000Y0137000D03*
X0094000Y0147000D03*
X0094000Y0157000D03*
X0094000Y0167000D03*
D15*
X0010000Y0048000D03*
X0010000Y0058000D03*
X0010000Y0068000D03*
X0010000Y0078000D03*
X0010000Y0088000D03*
X0010000Y0098000D03*
X0010000Y0108000D03*
X0010000Y0118000D03*
X0050000Y0118000D03*
X0050000Y0108000D03*
X0050000Y0098000D03*
X0050000Y0088000D03*
X0050000Y0078000D03*
X0050000Y0068000D03*
X0050000Y0058000D03*
X0050000Y0048000D03*
D16*
X0099189Y0035843D03*
X0099189Y0016157D03*
X0122811Y0016157D03*
X0122811Y0035843D03*
X0180189Y0035843D03*
X0203811Y0035843D03*
X0203811Y0016157D03*
X0180189Y0016157D03*
D17*
X0223000Y0032228D03*
X0223000Y0035772D03*
M02*
