%
M48
M72
T01C0.0315
T02C0.0354
T03C0.0394
T04C0.0400
%
T01
X1000Y4800
X1000Y5800
X1000Y6800
X1000Y7800
X1000Y8800
X1000Y9800
X1000Y10800
X1000Y11800
X5000Y11800
X5000Y10800
X5000Y9800
X5000Y8800
X5000Y7800
X5000Y6800
X5000Y5800
X5000Y4800
T02
X9919Y3584
X9919Y1616
X12281Y1616
X12281Y3584
X18019Y3584
X20381Y3584
X20381Y1616
X18019Y1616
T03
X15400Y5700
X15400Y6700
X15400Y7700
X15400Y8700
X15400Y9700
X15400Y10700
X15400Y11700
X15400Y12700
X15400Y13700
X15400Y14700
X15400Y15700
X15400Y16700
X9400Y16700
X9400Y15700
X9400Y14700
X9400Y13700
X9400Y12700
X9400Y11700
X9400Y10700
X9400Y9700
X9400Y8700
X9400Y7700
X9400Y6700
X9400Y5700
T04
X14540Y1140
X15540Y1140
X25355Y6145
X25355Y7129
X25355Y8113
X25355Y9098
X23320Y13000
X23320Y15560
M30
