G75*
%MOIN*%
%OFA0B0*%
%FSLAX25Y25*%
%IPPOS*%
%LPD*%
%AMOC8*
5,1,8,0,0,1.08239X$1,22.5*
%
%ADD10C,0.07400*%
%ADD11C,0.09000*%
%ADD12C,0.07000*%
%ADD13C,0.04943*%
%ADD14C,0.01600*%
%ADD15C,0.01000*%
%ADD16C,0.04000*%
D10*
X0145400Y0011400D03*
X0155400Y0011400D03*
X0253548Y0061449D03*
X0253548Y0071291D03*
X0253548Y0081134D03*
X0253548Y0090976D03*
X0233200Y0130005D03*
X0233200Y0155595D03*
D11*
X0154000Y0157000D03*
X0154000Y0147000D03*
X0154000Y0137000D03*
X0154000Y0127000D03*
X0154000Y0117000D03*
X0154000Y0107000D03*
X0154000Y0097000D03*
X0154000Y0087000D03*
X0154000Y0077000D03*
X0154000Y0067000D03*
X0154000Y0057000D03*
X0094000Y0057000D03*
X0094000Y0067000D03*
X0094000Y0077000D03*
X0094000Y0087000D03*
X0094000Y0097000D03*
X0094000Y0107000D03*
X0094000Y0117000D03*
X0094000Y0127000D03*
X0094000Y0137000D03*
X0094000Y0147000D03*
X0094000Y0157000D03*
X0094000Y0167000D03*
X0154000Y0167000D03*
D12*
X0050000Y0118000D03*
X0050000Y0108000D03*
X0050000Y0098000D03*
X0050000Y0088000D03*
X0050000Y0078000D03*
X0050000Y0068000D03*
X0050000Y0058000D03*
X0050000Y0048000D03*
X0010000Y0048000D03*
X0010000Y0058000D03*
X0010000Y0068000D03*
X0010000Y0078000D03*
X0010000Y0088000D03*
X0010000Y0098000D03*
X0010000Y0108000D03*
X0010000Y0118000D03*
D13*
X0099189Y0035843D03*
X0099189Y0016157D03*
X0122811Y0016157D03*
X0122811Y0035843D03*
X0180189Y0035843D03*
X0203811Y0035843D03*
X0203811Y0016157D03*
X0180189Y0016157D03*
D14*
X0004300Y0004300D02*
X0004300Y0197700D01*
X0272700Y0197700D01*
X0272700Y0004300D01*
X0004300Y0004300D01*
X0004300Y0005796D02*
X0272700Y0005796D01*
X0272700Y0007394D02*
X0158607Y0007394D01*
X0158289Y0007076D02*
X0159724Y0008511D01*
X0160500Y0010386D01*
X0160500Y0012414D01*
X0159724Y0014289D01*
X0158289Y0015724D01*
X0156414Y0016500D01*
X0154386Y0016500D01*
X0152511Y0015724D01*
X0151076Y0014289D01*
X0150400Y0012656D01*
X0149724Y0014289D01*
X0148289Y0015724D01*
X0146414Y0016500D01*
X0144386Y0016500D01*
X0142511Y0015724D01*
X0141076Y0014289D01*
X0140300Y0012414D01*
X0140300Y0010386D01*
X0141076Y0008511D01*
X0142511Y0007076D01*
X0144386Y0006300D01*
X0146414Y0006300D01*
X0148289Y0007076D01*
X0149724Y0008511D01*
X0150400Y0010144D01*
X0151076Y0008511D01*
X0152511Y0007076D01*
X0154386Y0006300D01*
X0156414Y0006300D01*
X0158289Y0007076D01*
X0159923Y0008993D02*
X0272700Y0008993D01*
X0272700Y0010591D02*
X0160500Y0010591D01*
X0160500Y0012190D02*
X0272700Y0012190D01*
X0272700Y0013788D02*
X0206917Y0013788D01*
X0207093Y0013964D02*
X0207215Y0014257D01*
X0222744Y0014257D01*
X0231587Y0023100D01*
X0232700Y0024213D01*
X0232700Y0081213D01*
X0240587Y0089100D01*
X0248805Y0089100D01*
X0249224Y0088087D01*
X0250659Y0086653D01*
X0252102Y0086055D01*
X0250659Y0085457D01*
X0249224Y0084023D01*
X0248448Y0082148D01*
X0248448Y0080119D01*
X0249224Y0078245D01*
X0250659Y0076810D01*
X0252102Y0076213D01*
X0250659Y0075615D01*
X0249224Y0074180D01*
X0248448Y0072306D01*
X0248448Y0070277D01*
X0249224Y0068402D01*
X0250659Y0066968D01*
X0252102Y0066370D01*
X0250659Y0065772D01*
X0249224Y0064338D01*
X0248448Y0062463D01*
X0248448Y0060434D01*
X0249224Y0058560D01*
X0250659Y0057125D01*
X0252534Y0056349D01*
X0254562Y0056349D01*
X0256437Y0057125D01*
X0257872Y0058560D01*
X0258648Y0060434D01*
X0258648Y0062463D01*
X0257872Y0064338D01*
X0256437Y0065772D01*
X0254994Y0066370D01*
X0256437Y0066968D01*
X0257872Y0068402D01*
X0258648Y0070277D01*
X0258648Y0072306D01*
X0257872Y0074180D01*
X0256437Y0075615D01*
X0254994Y0076213D01*
X0256437Y0076810D01*
X0257872Y0078245D01*
X0258648Y0080119D01*
X0258648Y0082148D01*
X0257872Y0084023D01*
X0256437Y0085457D01*
X0254994Y0086055D01*
X0256437Y0086653D01*
X0257872Y0088087D01*
X0258648Y0089962D01*
X0258648Y0091991D01*
X0257872Y0093865D01*
X0256437Y0095300D01*
X0254562Y0096076D01*
X0252534Y0096076D01*
X0250659Y0095300D01*
X0249224Y0093865D01*
X0248825Y0092900D01*
X0239013Y0092900D01*
X0237900Y0091787D01*
X0228900Y0082787D01*
X0228900Y0025787D01*
X0221170Y0018057D01*
X0207215Y0018057D01*
X0207093Y0018351D01*
X0206004Y0019440D01*
X0204581Y0020029D01*
X0203041Y0020029D01*
X0201618Y0019440D01*
X0200529Y0018351D01*
X0199939Y0016928D01*
X0199939Y0015387D01*
X0200529Y0013964D01*
X0201618Y0012875D01*
X0203041Y0012286D01*
X0204581Y0012286D01*
X0206004Y0012875D01*
X0207093Y0013964D01*
X0206860Y0018584D02*
X0221697Y0018584D01*
X0223295Y0020182D02*
X0182226Y0020182D01*
X0183071Y0019337D02*
X0171200Y0031208D01*
X0171200Y0160676D01*
X0170682Y0161926D01*
X0164682Y0167926D01*
X0163726Y0168882D01*
X0162476Y0169400D01*
X0159392Y0169400D01*
X0159002Y0170342D01*
X0157342Y0172002D01*
X0155174Y0172900D01*
X0152826Y0172900D01*
X0150658Y0172002D01*
X0148998Y0170342D01*
X0148100Y0168174D01*
X0148100Y0165826D01*
X0148998Y0163658D01*
X0150656Y0162000D01*
X0148998Y0160342D01*
X0148100Y0158174D01*
X0148100Y0155826D01*
X0148998Y0153658D01*
X0150656Y0152000D01*
X0148998Y0150342D01*
X0148100Y0148174D01*
X0148100Y0145826D01*
X0148998Y0143658D01*
X0150449Y0142207D01*
X0149896Y0141805D01*
X0149195Y0141104D01*
X0148612Y0140302D01*
X0148162Y0139418D01*
X0147855Y0138475D01*
X0147700Y0137496D01*
X0147700Y0137184D01*
X0153816Y0137184D01*
X0153816Y0136816D01*
X0147700Y0136816D01*
X0147700Y0136504D01*
X0147855Y0135525D01*
X0148162Y0134582D01*
X0148612Y0133698D01*
X0149195Y0132896D01*
X0149896Y0132195D01*
X0150449Y0131793D01*
X0148998Y0130342D01*
X0148100Y0128174D01*
X0148100Y0125826D01*
X0148998Y0123658D01*
X0150656Y0122000D01*
X0148998Y0120342D01*
X0148100Y0118174D01*
X0148100Y0115826D01*
X0148998Y0113658D01*
X0150656Y0112000D01*
X0148998Y0110342D01*
X0148100Y0108174D01*
X0148100Y0105826D01*
X0148998Y0103658D01*
X0150656Y0102000D01*
X0148998Y0100342D01*
X0148100Y0098174D01*
X0148100Y0095826D01*
X0148998Y0093658D01*
X0150656Y0092000D01*
X0148998Y0090342D01*
X0148100Y0088174D01*
X0148100Y0085826D01*
X0148998Y0083658D01*
X0150656Y0082000D01*
X0148998Y0080342D01*
X0148100Y0078174D01*
X0148100Y0075826D01*
X0148998Y0073658D01*
X0150656Y0072000D01*
X0148998Y0070342D01*
X0148100Y0068174D01*
X0148100Y0065826D01*
X0148998Y0063658D01*
X0150656Y0062000D01*
X0148998Y0060342D01*
X0148100Y0058174D01*
X0148100Y0055826D01*
X0148998Y0053658D01*
X0150658Y0051998D01*
X0152826Y0051100D01*
X0155174Y0051100D01*
X0157342Y0051998D01*
X0159002Y0053658D01*
X0159900Y0055826D01*
X0159900Y0058174D01*
X0159002Y0060342D01*
X0157344Y0062000D01*
X0159002Y0063658D01*
X0159900Y0065826D01*
X0159900Y0068174D01*
X0159002Y0070342D01*
X0157344Y0072000D01*
X0159002Y0073658D01*
X0159900Y0075826D01*
X0159900Y0078174D01*
X0159002Y0080342D01*
X0157344Y0082000D01*
X0159002Y0083658D01*
X0159900Y0085826D01*
X0159900Y0088174D01*
X0159002Y0090342D01*
X0157344Y0092000D01*
X0159002Y0093658D01*
X0159900Y0095826D01*
X0159900Y0098174D01*
X0159002Y0100342D01*
X0157344Y0102000D01*
X0159002Y0103658D01*
X0159900Y0105826D01*
X0159900Y0108174D01*
X0159002Y0110342D01*
X0157344Y0112000D01*
X0159002Y0113658D01*
X0159900Y0115826D01*
X0159900Y0118174D01*
X0159002Y0120342D01*
X0157344Y0122000D01*
X0159002Y0123658D01*
X0159900Y0125826D01*
X0159900Y0128174D01*
X0159002Y0130342D01*
X0157551Y0131793D01*
X0158104Y0132195D01*
X0158805Y0132896D01*
X0159388Y0133698D01*
X0159838Y0134582D01*
X0160145Y0135525D01*
X0160300Y0136504D01*
X0160300Y0136816D01*
X0154184Y0136816D01*
X0154184Y0137184D01*
X0160300Y0137184D01*
X0160300Y0137496D01*
X0160145Y0138475D01*
X0159838Y0139418D01*
X0159388Y0140302D01*
X0158805Y0141104D01*
X0158104Y0141805D01*
X0157551Y0142207D01*
X0159002Y0143658D01*
X0159900Y0145826D01*
X0159900Y0148174D01*
X0159002Y0150342D01*
X0157344Y0152000D01*
X0159002Y0153658D01*
X0159900Y0155826D01*
X0159900Y0158174D01*
X0159002Y0160342D01*
X0157344Y0162000D01*
X0157944Y0162600D01*
X0160392Y0162600D01*
X0164400Y0158592D01*
X0164400Y0029124D01*
X0164918Y0027874D01*
X0165874Y0026918D01*
X0176317Y0016474D01*
X0176317Y0015387D01*
X0176907Y0013964D01*
X0177996Y0012875D01*
X0179419Y0012286D01*
X0180959Y0012286D01*
X0182382Y0012875D01*
X0183471Y0013964D01*
X0184061Y0015387D01*
X0184061Y0016928D01*
X0183589Y0018066D01*
X0183589Y0018087D01*
X0183071Y0019337D01*
X0183383Y0018584D02*
X0200762Y0018584D01*
X0199963Y0016985D02*
X0184037Y0016985D01*
X0184060Y0015387D02*
X0199940Y0015387D01*
X0200705Y0013788D02*
X0183295Y0013788D01*
X0177083Y0013788D02*
X0159931Y0013788D01*
X0158626Y0015387D02*
X0176318Y0015387D01*
X0175807Y0016985D02*
X0126659Y0016985D01*
X0126683Y0016928D02*
X0126093Y0018351D01*
X0125004Y0019440D01*
X0123581Y0020029D01*
X0122041Y0020029D01*
X0120618Y0019440D01*
X0119529Y0018351D01*
X0118939Y0016928D01*
X0118939Y0015387D01*
X0119529Y0013964D01*
X0120618Y0012875D01*
X0122041Y0012286D01*
X0123581Y0012286D01*
X0125004Y0012875D01*
X0126093Y0013964D01*
X0126683Y0015387D01*
X0126683Y0016928D01*
X0126682Y0015387D02*
X0142174Y0015387D01*
X0140869Y0013788D02*
X0125917Y0013788D01*
X0125860Y0018584D02*
X0174208Y0018584D01*
X0172610Y0020182D02*
X0100626Y0020182D01*
X0100829Y0020116D02*
X0100189Y0020324D01*
X0099525Y0020429D01*
X0099275Y0020429D01*
X0099275Y0016243D01*
X0103461Y0016243D01*
X0103461Y0016494D01*
X0103355Y0017158D01*
X0103148Y0017797D01*
X0102842Y0018396D01*
X0102447Y0018940D01*
X0101972Y0019416D01*
X0101428Y0019811D01*
X0100829Y0020116D01*
X0099275Y0020182D02*
X0099103Y0020182D01*
X0099103Y0020429D02*
X0098853Y0020429D01*
X0098189Y0020324D01*
X0097549Y0020116D01*
X0096950Y0019811D01*
X0096406Y0019416D01*
X0095931Y0018940D01*
X0095536Y0018396D01*
X0095230Y0017797D01*
X0095023Y0017158D01*
X0094917Y0016494D01*
X0094917Y0016243D01*
X0099103Y0016243D01*
X0099103Y0016072D01*
X0094917Y0016072D01*
X0094917Y0015821D01*
X0095023Y0015157D01*
X0095230Y0014518D01*
X0095536Y0013919D01*
X0095931Y0013375D01*
X0096406Y0012899D01*
X0096950Y0012504D01*
X0097549Y0012199D01*
X0098189Y0011991D01*
X0098853Y0011886D01*
X0099103Y0011886D01*
X0099103Y0016072D01*
X0099275Y0016072D01*
X0099275Y0016243D01*
X0099103Y0016243D01*
X0099103Y0020429D01*
X0097752Y0020182D02*
X0004300Y0020182D01*
X0004300Y0018584D02*
X0095672Y0018584D01*
X0094995Y0016985D02*
X0004300Y0016985D01*
X0004300Y0015387D02*
X0094986Y0015387D01*
X0095630Y0013788D02*
X0004300Y0013788D01*
X0004300Y0012190D02*
X0097578Y0012190D01*
X0099103Y0012190D02*
X0099275Y0012190D01*
X0099275Y0011886D02*
X0099525Y0011886D01*
X0100189Y0011991D01*
X0100829Y0012199D01*
X0101428Y0012504D01*
X0101972Y0012899D01*
X0102447Y0013375D01*
X0102842Y0013919D01*
X0103148Y0014518D01*
X0103355Y0015157D01*
X0103461Y0015821D01*
X0103461Y0016072D01*
X0099275Y0016072D01*
X0099275Y0011886D01*
X0100800Y0012190D02*
X0140300Y0012190D01*
X0140300Y0010591D02*
X0004300Y0010591D01*
X0004300Y0008993D02*
X0140877Y0008993D01*
X0142193Y0007394D02*
X0004300Y0007394D01*
X0004300Y0021781D02*
X0171011Y0021781D01*
X0169413Y0023379D02*
X0004300Y0023379D01*
X0004300Y0024978D02*
X0167814Y0024978D01*
X0166215Y0026576D02*
X0004300Y0026576D01*
X0004300Y0028175D02*
X0164793Y0028175D01*
X0164400Y0029773D02*
X0004300Y0029773D01*
X0004300Y0031372D02*
X0164400Y0031372D01*
X0164400Y0032970D02*
X0125414Y0032970D01*
X0125004Y0032560D02*
X0126093Y0033649D01*
X0126683Y0035072D01*
X0126683Y0036613D01*
X0126093Y0038036D01*
X0125004Y0039125D01*
X0123581Y0039714D01*
X0122041Y0039714D01*
X0120618Y0039125D01*
X0119529Y0038036D01*
X0118939Y0036613D01*
X0118939Y0035072D01*
X0119529Y0033649D01*
X0120618Y0032560D01*
X0122041Y0031971D01*
X0123581Y0031971D01*
X0125004Y0032560D01*
X0126474Y0034569D02*
X0164400Y0034569D01*
X0164400Y0036167D02*
X0126683Y0036167D01*
X0126205Y0037766D02*
X0164400Y0037766D01*
X0164400Y0039364D02*
X0124426Y0039364D01*
X0121196Y0039364D02*
X0101609Y0039364D01*
X0101428Y0039496D02*
X0101972Y0039101D01*
X0102447Y0038625D01*
X0102842Y0038081D01*
X0103148Y0037482D01*
X0103355Y0036843D01*
X0103461Y0036179D01*
X0103461Y0035928D01*
X0099275Y0035928D01*
X0099275Y0035757D01*
X0103461Y0035757D01*
X0103461Y0035506D01*
X0103355Y0034842D01*
X0103148Y0034203D01*
X0102842Y0033604D01*
X0102447Y0033060D01*
X0101972Y0032584D01*
X0101428Y0032189D01*
X0100829Y0031884D01*
X0100189Y0031676D01*
X0099525Y0031571D01*
X0099275Y0031571D01*
X0099275Y0035757D01*
X0099103Y0035757D01*
X0094917Y0035757D01*
X0094917Y0035506D01*
X0095023Y0034842D01*
X0095230Y0034203D01*
X0095536Y0033604D01*
X0095931Y0033060D01*
X0096406Y0032584D01*
X0096950Y0032189D01*
X0097549Y0031884D01*
X0098189Y0031676D01*
X0098853Y0031571D01*
X0099103Y0031571D01*
X0099103Y0035757D01*
X0099103Y0035928D01*
X0094917Y0035928D01*
X0094917Y0036179D01*
X0095023Y0036843D01*
X0095230Y0037482D01*
X0095536Y0038081D01*
X0095931Y0038625D01*
X0096406Y0039101D01*
X0096950Y0039496D01*
X0097549Y0039801D01*
X0098189Y0040009D01*
X0098853Y0040114D01*
X0099103Y0040114D01*
X0099103Y0035928D01*
X0099275Y0035928D01*
X0099275Y0040114D01*
X0099525Y0040114D01*
X0100189Y0040009D01*
X0100829Y0039801D01*
X0101428Y0039496D01*
X0099275Y0039364D02*
X0099103Y0039364D01*
X0099103Y0037766D02*
X0099275Y0037766D01*
X0099275Y0036167D02*
X0099103Y0036167D01*
X0099103Y0034569D02*
X0099275Y0034569D01*
X0099275Y0032970D02*
X0099103Y0032970D01*
X0096020Y0032970D02*
X0004300Y0032970D01*
X0004300Y0034569D02*
X0095111Y0034569D01*
X0094917Y0036167D02*
X0004300Y0036167D01*
X0004300Y0037766D02*
X0095375Y0037766D01*
X0096769Y0039364D02*
X0004300Y0039364D01*
X0004300Y0040963D02*
X0164400Y0040963D01*
X0164400Y0042561D02*
X0004300Y0042561D01*
X0004300Y0044160D02*
X0006911Y0044160D01*
X0007224Y0043846D02*
X0009025Y0043100D01*
X0010975Y0043100D01*
X0012776Y0043846D01*
X0014154Y0045224D01*
X0014900Y0047025D01*
X0014900Y0048975D01*
X0014537Y0049850D01*
X0015987Y0051300D01*
X0046370Y0051300D01*
X0045846Y0050776D01*
X0045100Y0048975D01*
X0045100Y0047025D01*
X0045846Y0045224D01*
X0047224Y0043846D01*
X0049025Y0043100D01*
X0050975Y0043100D01*
X0052776Y0043846D01*
X0054154Y0045224D01*
X0054900Y0047025D01*
X0054900Y0048975D01*
X0054154Y0050776D01*
X0053630Y0051300D01*
X0058187Y0051300D01*
X0059300Y0052413D01*
X0071987Y0065100D01*
X0088401Y0065100D01*
X0088998Y0063658D01*
X0090656Y0062000D01*
X0088998Y0060342D01*
X0088100Y0058174D01*
X0088100Y0055826D01*
X0088998Y0053658D01*
X0090658Y0051998D01*
X0092826Y0051100D01*
X0095174Y0051100D01*
X0097342Y0051998D01*
X0099002Y0053658D01*
X0099900Y0055826D01*
X0099900Y0058174D01*
X0099002Y0060342D01*
X0097344Y0062000D01*
X0099002Y0063658D01*
X0099900Y0065826D01*
X0099900Y0068174D01*
X0099002Y0070342D01*
X0097344Y0072000D01*
X0099002Y0073658D01*
X0099900Y0075826D01*
X0099900Y0078174D01*
X0099002Y0080342D01*
X0097344Y0082000D01*
X0099002Y0083658D01*
X0099900Y0085826D01*
X0099900Y0088174D01*
X0099002Y0090342D01*
X0097344Y0092000D01*
X0099002Y0093658D01*
X0099900Y0095826D01*
X0099900Y0098174D01*
X0099002Y0100342D01*
X0097344Y0102000D01*
X0099002Y0103658D01*
X0099900Y0105826D01*
X0099900Y0108174D01*
X0099002Y0110342D01*
X0097344Y0112000D01*
X0099002Y0113658D01*
X0099900Y0115826D01*
X0099900Y0118174D01*
X0099002Y0120342D01*
X0097344Y0122000D01*
X0099002Y0123658D01*
X0099900Y0125826D01*
X0099900Y0128174D01*
X0099002Y0130342D01*
X0097344Y0132000D01*
X0099002Y0133658D01*
X0099900Y0135826D01*
X0099900Y0138174D01*
X0099002Y0140342D01*
X0097344Y0142000D01*
X0099002Y0143658D01*
X0099900Y0145826D01*
X0099900Y0148174D01*
X0099002Y0150342D01*
X0097344Y0152000D01*
X0099002Y0153658D01*
X0099900Y0155826D01*
X0099900Y0158174D01*
X0099002Y0160342D01*
X0097344Y0162000D01*
X0099002Y0163658D01*
X0099900Y0165826D01*
X0099900Y0168174D01*
X0099002Y0170342D01*
X0097342Y0172002D01*
X0095174Y0172900D01*
X0092826Y0172900D01*
X0090658Y0172002D01*
X0088998Y0170342D01*
X0088401Y0168900D01*
X0077413Y0168900D01*
X0061413Y0152900D01*
X0060300Y0151787D01*
X0060300Y0120987D01*
X0051850Y0112537D01*
X0050975Y0112900D01*
X0049025Y0112900D01*
X0047224Y0112154D01*
X0045846Y0110776D01*
X0045100Y0108975D01*
X0045100Y0107025D01*
X0045846Y0105224D01*
X0047224Y0103846D01*
X0049025Y0103100D01*
X0050975Y0103100D01*
X0052776Y0103846D01*
X0054154Y0105224D01*
X0054900Y0107025D01*
X0054900Y0108975D01*
X0054537Y0109850D01*
X0064100Y0119413D01*
X0064100Y0150213D01*
X0078987Y0165100D01*
X0088401Y0165100D01*
X0088998Y0163658D01*
X0090656Y0162000D01*
X0088998Y0160342D01*
X0088401Y0158900D01*
X0078213Y0158900D01*
X0065613Y0146300D01*
X0064500Y0145187D01*
X0064500Y0105187D01*
X0051850Y0092537D01*
X0050975Y0092900D01*
X0049025Y0092900D01*
X0047224Y0092154D01*
X0045846Y0090776D01*
X0045100Y0088975D01*
X0045100Y0087025D01*
X0045846Y0085224D01*
X0047224Y0083846D01*
X0049025Y0083100D01*
X0050975Y0083100D01*
X0052776Y0083846D01*
X0054154Y0085224D01*
X0054900Y0087025D01*
X0054900Y0088975D01*
X0054537Y0089850D01*
X0068300Y0103613D01*
X0068300Y0143613D01*
X0079787Y0155100D01*
X0088401Y0155100D01*
X0088998Y0153658D01*
X0090656Y0152000D01*
X0088998Y0150342D01*
X0088100Y0148174D01*
X0088100Y0145826D01*
X0088998Y0143658D01*
X0090656Y0142000D01*
X0088998Y0140342D01*
X0088100Y0138174D01*
X0088100Y0135826D01*
X0088998Y0133658D01*
X0090656Y0132000D01*
X0088998Y0130342D01*
X0088100Y0128174D01*
X0088100Y0127387D01*
X0072813Y0112100D01*
X0071700Y0110987D01*
X0071700Y0092387D01*
X0051850Y0072537D01*
X0050975Y0072900D01*
X0049025Y0072900D01*
X0047224Y0072154D01*
X0045846Y0070776D01*
X0045100Y0068975D01*
X0045100Y0067025D01*
X0045846Y0065224D01*
X0046370Y0064700D01*
X0015987Y0064700D01*
X0014537Y0066150D01*
X0014900Y0067025D01*
X0014900Y0068975D01*
X0014154Y0070776D01*
X0012776Y0072154D01*
X0010975Y0072900D01*
X0009025Y0072900D01*
X0007224Y0072154D01*
X0005846Y0070776D01*
X0005100Y0068975D01*
X0005100Y0067025D01*
X0005846Y0065224D01*
X0007224Y0063846D01*
X0009025Y0063100D01*
X0010975Y0063100D01*
X0011850Y0063463D01*
X0014413Y0060900D01*
X0045970Y0060900D01*
X0045846Y0060776D01*
X0045100Y0058975D01*
X0045100Y0057025D01*
X0045846Y0055224D01*
X0045970Y0055100D01*
X0014413Y0055100D01*
X0011850Y0052537D01*
X0010975Y0052900D01*
X0009025Y0052900D01*
X0007224Y0052154D01*
X0005846Y0050776D01*
X0005100Y0048975D01*
X0005100Y0047025D01*
X0005846Y0045224D01*
X0007224Y0043846D01*
X0005625Y0045758D02*
X0004300Y0045758D01*
X0004300Y0047357D02*
X0005100Y0047357D01*
X0005100Y0048955D02*
X0004300Y0048955D01*
X0004300Y0050554D02*
X0005754Y0050554D01*
X0004300Y0052152D02*
X0007223Y0052152D01*
X0007454Y0053751D02*
X0004300Y0053751D01*
X0004300Y0055349D02*
X0005794Y0055349D01*
X0005846Y0055224D02*
X0007224Y0053846D01*
X0009025Y0053100D01*
X0010975Y0053100D01*
X0012776Y0053846D01*
X0014154Y0055224D01*
X0014900Y0057025D01*
X0014900Y0058975D01*
X0014154Y0060776D01*
X0012776Y0062154D01*
X0010975Y0062900D01*
X0009025Y0062900D01*
X0007224Y0062154D01*
X0005846Y0060776D01*
X0005100Y0058975D01*
X0005100Y0057025D01*
X0005846Y0055224D01*
X0005132Y0056948D02*
X0004300Y0056948D01*
X0004300Y0058546D02*
X0005100Y0058546D01*
X0005585Y0060145D02*
X0004300Y0060145D01*
X0004300Y0061743D02*
X0006814Y0061743D01*
X0008441Y0063342D02*
X0004300Y0063342D01*
X0004300Y0064940D02*
X0006130Y0064940D01*
X0005301Y0066539D02*
X0004300Y0066539D01*
X0004300Y0068137D02*
X0005100Y0068137D01*
X0005415Y0069736D02*
X0004300Y0069736D01*
X0004300Y0071334D02*
X0006405Y0071334D01*
X0007224Y0073846D02*
X0009025Y0073100D01*
X0010975Y0073100D01*
X0012776Y0073846D01*
X0014154Y0075224D01*
X0014900Y0077025D01*
X0014900Y0078975D01*
X0014154Y0080776D01*
X0012776Y0082154D01*
X0010975Y0082900D01*
X0009025Y0082900D01*
X0007224Y0082154D01*
X0005846Y0080776D01*
X0005100Y0078975D01*
X0005100Y0077025D01*
X0005846Y0075224D01*
X0007224Y0073846D01*
X0006539Y0074532D02*
X0004300Y0074532D01*
X0004300Y0076130D02*
X0005471Y0076130D01*
X0005100Y0077729D02*
X0004300Y0077729D01*
X0004300Y0079327D02*
X0005246Y0079327D01*
X0005996Y0080926D02*
X0004300Y0080926D01*
X0004300Y0082524D02*
X0008118Y0082524D01*
X0009025Y0083100D02*
X0007224Y0083846D01*
X0005846Y0085224D01*
X0005100Y0087025D01*
X0005100Y0088975D01*
X0005846Y0090776D01*
X0007224Y0092154D01*
X0009025Y0092900D01*
X0010975Y0092900D01*
X0012776Y0092154D01*
X0014154Y0090776D01*
X0014900Y0088975D01*
X0014900Y0087025D01*
X0014154Y0085224D01*
X0012776Y0083846D01*
X0010975Y0083100D01*
X0009025Y0083100D01*
X0006948Y0084123D02*
X0004300Y0084123D01*
X0004300Y0085721D02*
X0005640Y0085721D01*
X0005100Y0087320D02*
X0004300Y0087320D01*
X0004300Y0088918D02*
X0005100Y0088918D01*
X0005739Y0090517D02*
X0004300Y0090517D01*
X0004300Y0092115D02*
X0007186Y0092115D01*
X0007544Y0093714D02*
X0004300Y0093714D01*
X0004300Y0095312D02*
X0005810Y0095312D01*
X0005846Y0095224D02*
X0007224Y0093846D01*
X0009025Y0093100D01*
X0010975Y0093100D01*
X0012776Y0093846D01*
X0014154Y0095224D01*
X0014900Y0097025D01*
X0014900Y0098975D01*
X0014154Y0100776D01*
X0012776Y0102154D01*
X0010975Y0102900D01*
X0009025Y0102900D01*
X0007224Y0102154D01*
X0005846Y0100776D01*
X0005100Y0098975D01*
X0005100Y0097025D01*
X0005846Y0095224D01*
X0005147Y0096911D02*
X0004300Y0096911D01*
X0004300Y0098509D02*
X0005100Y0098509D01*
X0005569Y0100108D02*
X0004300Y0100108D01*
X0004300Y0101706D02*
X0006777Y0101706D01*
X0007224Y0103846D02*
X0009025Y0103100D01*
X0010975Y0103100D01*
X0012776Y0103846D01*
X0014154Y0105224D01*
X0014900Y0107025D01*
X0014900Y0108975D01*
X0014154Y0110776D01*
X0012776Y0112154D01*
X0010975Y0112900D01*
X0009025Y0112900D01*
X0007224Y0112154D01*
X0005846Y0110776D01*
X0005100Y0108975D01*
X0005100Y0107025D01*
X0005846Y0105224D01*
X0007224Y0103846D01*
X0008531Y0103305D02*
X0004300Y0103305D01*
X0004300Y0104903D02*
X0006167Y0104903D01*
X0005317Y0106502D02*
X0004300Y0106502D01*
X0004300Y0108100D02*
X0005100Y0108100D01*
X0005400Y0109699D02*
X0004300Y0109699D01*
X0004300Y0111297D02*
X0006368Y0111297D01*
X0004300Y0112896D02*
X0009015Y0112896D01*
X0009025Y0113100D02*
X0010975Y0113100D01*
X0012776Y0113846D01*
X0014154Y0115224D01*
X0014900Y0117025D01*
X0014900Y0118975D01*
X0014154Y0120776D01*
X0012776Y0122154D01*
X0010975Y0122900D01*
X0009025Y0122900D01*
X0007224Y0122154D01*
X0005846Y0120776D01*
X0005100Y0118975D01*
X0005100Y0117025D01*
X0005846Y0115224D01*
X0007224Y0113846D01*
X0009025Y0113100D01*
X0010985Y0112896D02*
X0049015Y0112896D01*
X0049025Y0113100D02*
X0050975Y0113100D01*
X0052776Y0113846D01*
X0054154Y0115224D01*
X0054900Y0117025D01*
X0054900Y0118975D01*
X0054154Y0120776D01*
X0052776Y0122154D01*
X0050975Y0122900D01*
X0049025Y0122900D01*
X0047224Y0122154D01*
X0045846Y0120776D01*
X0045100Y0118975D01*
X0045100Y0117025D01*
X0045846Y0115224D01*
X0047224Y0113846D01*
X0049025Y0113100D01*
X0050985Y0112896D02*
X0052209Y0112896D01*
X0053424Y0114494D02*
X0053807Y0114494D01*
X0054514Y0116093D02*
X0055406Y0116093D01*
X0054900Y0117691D02*
X0057004Y0117691D01*
X0058603Y0119290D02*
X0054769Y0119290D01*
X0054041Y0120888D02*
X0060201Y0120888D01*
X0060300Y0122487D02*
X0051972Y0122487D01*
X0048028Y0122487D02*
X0011972Y0122487D01*
X0014041Y0120888D02*
X0045959Y0120888D01*
X0045231Y0119290D02*
X0014769Y0119290D01*
X0014900Y0117691D02*
X0045100Y0117691D01*
X0045486Y0116093D02*
X0014514Y0116093D01*
X0013424Y0114494D02*
X0046576Y0114494D01*
X0046368Y0111297D02*
X0013632Y0111297D01*
X0014600Y0109699D02*
X0045400Y0109699D01*
X0045100Y0108100D02*
X0014900Y0108100D01*
X0014683Y0106502D02*
X0045317Y0106502D01*
X0046167Y0104903D02*
X0013833Y0104903D01*
X0011469Y0103305D02*
X0048531Y0103305D01*
X0049025Y0102900D02*
X0047224Y0102154D01*
X0045846Y0100776D01*
X0045100Y0098975D01*
X0045100Y0097025D01*
X0045846Y0095224D01*
X0047224Y0093846D01*
X0049025Y0093100D01*
X0050975Y0093100D01*
X0052776Y0093846D01*
X0054154Y0095224D01*
X0054900Y0097025D01*
X0054900Y0098975D01*
X0054154Y0100776D01*
X0052776Y0102154D01*
X0050975Y0102900D01*
X0049025Y0102900D01*
X0051469Y0103305D02*
X0062618Y0103305D01*
X0064216Y0104903D02*
X0053833Y0104903D01*
X0054683Y0106502D02*
X0064500Y0106502D01*
X0064500Y0108100D02*
X0054900Y0108100D01*
X0054600Y0109699D02*
X0064500Y0109699D01*
X0064500Y0111297D02*
X0055984Y0111297D01*
X0057583Y0112896D02*
X0064500Y0112896D01*
X0064500Y0114494D02*
X0059181Y0114494D01*
X0060780Y0116093D02*
X0064500Y0116093D01*
X0064500Y0117691D02*
X0062378Y0117691D01*
X0063977Y0119290D02*
X0064500Y0119290D01*
X0064500Y0120888D02*
X0064100Y0120888D01*
X0064100Y0122487D02*
X0064500Y0122487D01*
X0064500Y0124085D02*
X0064100Y0124085D01*
X0064100Y0125684D02*
X0064500Y0125684D01*
X0064500Y0127282D02*
X0064100Y0127282D01*
X0064100Y0128881D02*
X0064500Y0128881D01*
X0064500Y0130479D02*
X0064100Y0130479D01*
X0064100Y0132078D02*
X0064500Y0132078D01*
X0064500Y0133676D02*
X0064100Y0133676D01*
X0064100Y0135275D02*
X0064500Y0135275D01*
X0064500Y0136873D02*
X0064100Y0136873D01*
X0064100Y0138472D02*
X0064500Y0138472D01*
X0064500Y0140070D02*
X0064100Y0140070D01*
X0064100Y0141669D02*
X0064500Y0141669D01*
X0064500Y0143268D02*
X0064100Y0143268D01*
X0064100Y0144866D02*
X0064500Y0144866D01*
X0064100Y0146465D02*
X0065778Y0146465D01*
X0067376Y0148063D02*
X0064100Y0148063D01*
X0064100Y0149662D02*
X0068975Y0149662D01*
X0070573Y0151260D02*
X0065147Y0151260D01*
X0066746Y0152859D02*
X0072172Y0152859D01*
X0073770Y0154457D02*
X0068344Y0154457D01*
X0069943Y0156056D02*
X0075369Y0156056D01*
X0076967Y0157654D02*
X0071541Y0157654D01*
X0073140Y0159253D02*
X0088547Y0159253D01*
X0089507Y0160851D02*
X0074738Y0160851D01*
X0076337Y0162450D02*
X0090206Y0162450D01*
X0088837Y0164048D02*
X0077935Y0164048D01*
X0075758Y0167245D02*
X0004300Y0167245D01*
X0004300Y0165647D02*
X0074160Y0165647D01*
X0072561Y0164048D02*
X0004300Y0164048D01*
X0004300Y0162450D02*
X0070963Y0162450D01*
X0069364Y0160851D02*
X0004300Y0160851D01*
X0004300Y0159253D02*
X0067766Y0159253D01*
X0066167Y0157654D02*
X0004300Y0157654D01*
X0004300Y0156056D02*
X0064569Y0156056D01*
X0062970Y0154457D02*
X0004300Y0154457D01*
X0004300Y0152859D02*
X0061372Y0152859D01*
X0060300Y0151260D02*
X0004300Y0151260D01*
X0004300Y0149662D02*
X0060300Y0149662D01*
X0060300Y0148063D02*
X0004300Y0148063D01*
X0004300Y0146465D02*
X0060300Y0146465D01*
X0060300Y0144866D02*
X0004300Y0144866D01*
X0004300Y0143268D02*
X0060300Y0143268D01*
X0060300Y0141669D02*
X0004300Y0141669D01*
X0004300Y0140070D02*
X0060300Y0140070D01*
X0060300Y0138472D02*
X0004300Y0138472D01*
X0004300Y0136873D02*
X0060300Y0136873D01*
X0060300Y0135275D02*
X0004300Y0135275D01*
X0004300Y0133676D02*
X0060300Y0133676D01*
X0060300Y0132078D02*
X0004300Y0132078D01*
X0004300Y0130479D02*
X0060300Y0130479D01*
X0060300Y0128881D02*
X0004300Y0128881D01*
X0004300Y0127282D02*
X0060300Y0127282D01*
X0060300Y0125684D02*
X0004300Y0125684D01*
X0004300Y0124085D02*
X0060300Y0124085D01*
X0068300Y0124085D02*
X0084798Y0124085D01*
X0083200Y0122487D02*
X0068300Y0122487D01*
X0068300Y0120888D02*
X0081601Y0120888D01*
X0080003Y0119290D02*
X0068300Y0119290D01*
X0068300Y0117691D02*
X0078404Y0117691D01*
X0076806Y0116093D02*
X0068300Y0116093D01*
X0068300Y0114494D02*
X0075207Y0114494D01*
X0073609Y0112896D02*
X0068300Y0112896D01*
X0068300Y0111297D02*
X0072010Y0111297D01*
X0071700Y0109699D02*
X0068300Y0109699D01*
X0068300Y0108100D02*
X0071700Y0108100D01*
X0071700Y0106502D02*
X0068300Y0106502D01*
X0068300Y0104903D02*
X0071700Y0104903D01*
X0071700Y0103305D02*
X0067992Y0103305D01*
X0066393Y0101706D02*
X0071700Y0101706D01*
X0071700Y0100108D02*
X0064795Y0100108D01*
X0063196Y0098509D02*
X0071700Y0098509D01*
X0071700Y0096911D02*
X0061598Y0096911D01*
X0059999Y0095312D02*
X0071700Y0095312D01*
X0071700Y0093714D02*
X0058401Y0093714D01*
X0056802Y0092115D02*
X0071428Y0092115D01*
X0069830Y0090517D02*
X0055204Y0090517D01*
X0054900Y0088918D02*
X0068231Y0088918D01*
X0066633Y0087320D02*
X0054900Y0087320D01*
X0054360Y0085721D02*
X0065034Y0085721D01*
X0063436Y0084123D02*
X0053052Y0084123D01*
X0051882Y0082524D02*
X0061837Y0082524D01*
X0060239Y0080926D02*
X0054004Y0080926D01*
X0054154Y0080776D02*
X0052776Y0082154D01*
X0050975Y0082900D01*
X0049025Y0082900D01*
X0047224Y0082154D01*
X0045846Y0080776D01*
X0045100Y0078975D01*
X0045100Y0077025D01*
X0045846Y0075224D01*
X0047224Y0073846D01*
X0049025Y0073100D01*
X0050975Y0073100D01*
X0052776Y0073846D01*
X0054154Y0075224D01*
X0054900Y0077025D01*
X0054900Y0078975D01*
X0054154Y0080776D01*
X0054754Y0079327D02*
X0058640Y0079327D01*
X0057042Y0077729D02*
X0054900Y0077729D01*
X0054529Y0076130D02*
X0055443Y0076130D01*
X0053845Y0074532D02*
X0053461Y0074532D01*
X0052246Y0072933D02*
X0004300Y0072933D01*
X0013461Y0074532D02*
X0046539Y0074532D01*
X0045471Y0076130D02*
X0014529Y0076130D01*
X0014900Y0077729D02*
X0045100Y0077729D01*
X0045246Y0079327D02*
X0014754Y0079327D01*
X0014004Y0080926D02*
X0045996Y0080926D01*
X0048118Y0082524D02*
X0011882Y0082524D01*
X0013052Y0084123D02*
X0046948Y0084123D01*
X0045640Y0085721D02*
X0014360Y0085721D01*
X0014900Y0087320D02*
X0045100Y0087320D01*
X0045100Y0088918D02*
X0014900Y0088918D01*
X0014261Y0090517D02*
X0045739Y0090517D01*
X0047186Y0092115D02*
X0012814Y0092115D01*
X0012456Y0093714D02*
X0047544Y0093714D01*
X0045810Y0095312D02*
X0014190Y0095312D01*
X0014852Y0096911D02*
X0045147Y0096911D01*
X0045100Y0098509D02*
X0014900Y0098509D01*
X0014431Y0100108D02*
X0045569Y0100108D01*
X0046777Y0101706D02*
X0013223Y0101706D01*
X0006576Y0114494D02*
X0004300Y0114494D01*
X0004300Y0116093D02*
X0005486Y0116093D01*
X0005100Y0117691D02*
X0004300Y0117691D01*
X0004300Y0119290D02*
X0005231Y0119290D01*
X0005959Y0120888D02*
X0004300Y0120888D01*
X0004300Y0122487D02*
X0008028Y0122487D01*
X0052456Y0093714D02*
X0053027Y0093714D01*
X0054190Y0095312D02*
X0054625Y0095312D01*
X0054852Y0096911D02*
X0056224Y0096911D01*
X0054900Y0098509D02*
X0057822Y0098509D01*
X0059421Y0100108D02*
X0054431Y0100108D01*
X0053223Y0101706D02*
X0061019Y0101706D01*
X0068300Y0125684D02*
X0086397Y0125684D01*
X0087995Y0127282D02*
X0068300Y0127282D01*
X0068300Y0128881D02*
X0088393Y0128881D01*
X0089136Y0130479D02*
X0068300Y0130479D01*
X0068300Y0132078D02*
X0090578Y0132078D01*
X0088991Y0133676D02*
X0068300Y0133676D01*
X0068300Y0135275D02*
X0088328Y0135275D01*
X0088100Y0136873D02*
X0068300Y0136873D01*
X0068300Y0138472D02*
X0088224Y0138472D01*
X0088886Y0140070D02*
X0068300Y0140070D01*
X0068300Y0141669D02*
X0090325Y0141669D01*
X0089389Y0143268D02*
X0068300Y0143268D01*
X0069553Y0144866D02*
X0088498Y0144866D01*
X0088100Y0146465D02*
X0071152Y0146465D01*
X0072750Y0148063D02*
X0088100Y0148063D01*
X0088716Y0149662D02*
X0074349Y0149662D01*
X0075947Y0151260D02*
X0089916Y0151260D01*
X0089798Y0152859D02*
X0077546Y0152859D01*
X0079144Y0154457D02*
X0088667Y0154457D01*
X0098202Y0152859D02*
X0149798Y0152859D01*
X0149916Y0151260D02*
X0098084Y0151260D01*
X0099284Y0149662D02*
X0148716Y0149662D01*
X0148100Y0148063D02*
X0099900Y0148063D01*
X0099900Y0146465D02*
X0148100Y0146465D01*
X0148498Y0144866D02*
X0099502Y0144866D01*
X0098611Y0143268D02*
X0149389Y0143268D01*
X0149759Y0141669D02*
X0097675Y0141669D01*
X0099114Y0140070D02*
X0148494Y0140070D01*
X0147855Y0138472D02*
X0099776Y0138472D01*
X0099900Y0136873D02*
X0153816Y0136873D01*
X0154184Y0136873D02*
X0164400Y0136873D01*
X0164400Y0135275D02*
X0160064Y0135275D01*
X0159373Y0133676D02*
X0164400Y0133676D01*
X0164400Y0132078D02*
X0157944Y0132078D01*
X0158864Y0130479D02*
X0164400Y0130479D01*
X0164400Y0128881D02*
X0159607Y0128881D01*
X0159900Y0127282D02*
X0164400Y0127282D01*
X0164400Y0125684D02*
X0159841Y0125684D01*
X0159179Y0124085D02*
X0164400Y0124085D01*
X0164400Y0122487D02*
X0157831Y0122487D01*
X0158455Y0120888D02*
X0164400Y0120888D01*
X0164400Y0119290D02*
X0159438Y0119290D01*
X0159900Y0117691D02*
X0164400Y0117691D01*
X0164400Y0116093D02*
X0159900Y0116093D01*
X0159348Y0114494D02*
X0164400Y0114494D01*
X0164400Y0112896D02*
X0158240Y0112896D01*
X0158047Y0111297D02*
X0164400Y0111297D01*
X0164400Y0109699D02*
X0159268Y0109699D01*
X0159900Y0108100D02*
X0164400Y0108100D01*
X0164400Y0106502D02*
X0159900Y0106502D01*
X0159518Y0104903D02*
X0164400Y0104903D01*
X0164400Y0103305D02*
X0158649Y0103305D01*
X0157638Y0101706D02*
X0164400Y0101706D01*
X0164400Y0100108D02*
X0159099Y0100108D01*
X0159761Y0098509D02*
X0164400Y0098509D01*
X0164400Y0096911D02*
X0159900Y0096911D01*
X0159687Y0095312D02*
X0164400Y0095312D01*
X0164400Y0093714D02*
X0159025Y0093714D01*
X0157459Y0092115D02*
X0164400Y0092115D01*
X0164400Y0090517D02*
X0158827Y0090517D01*
X0159592Y0088918D02*
X0164400Y0088918D01*
X0164400Y0087320D02*
X0159900Y0087320D01*
X0159856Y0085721D02*
X0164400Y0085721D01*
X0164400Y0084123D02*
X0159194Y0084123D01*
X0157868Y0082524D02*
X0164400Y0082524D01*
X0164400Y0080926D02*
X0158418Y0080926D01*
X0159422Y0079327D02*
X0164400Y0079327D01*
X0164400Y0077729D02*
X0159900Y0077729D01*
X0159900Y0076130D02*
X0164400Y0076130D01*
X0164400Y0074532D02*
X0159364Y0074532D01*
X0158277Y0072933D02*
X0164400Y0072933D01*
X0164400Y0071334D02*
X0158009Y0071334D01*
X0159253Y0069736D02*
X0164400Y0069736D01*
X0164400Y0068137D02*
X0159900Y0068137D01*
X0159900Y0066539D02*
X0164400Y0066539D01*
X0164400Y0064940D02*
X0159533Y0064940D01*
X0158686Y0063342D02*
X0164400Y0063342D01*
X0164400Y0061743D02*
X0157600Y0061743D01*
X0159083Y0060145D02*
X0164400Y0060145D01*
X0164400Y0058546D02*
X0159746Y0058546D01*
X0159900Y0056948D02*
X0164400Y0056948D01*
X0164400Y0055349D02*
X0159702Y0055349D01*
X0159040Y0053751D02*
X0164400Y0053751D01*
X0164400Y0052152D02*
X0157496Y0052152D01*
X0150504Y0052152D02*
X0097496Y0052152D01*
X0099040Y0053751D02*
X0148960Y0053751D01*
X0148298Y0055349D02*
X0099702Y0055349D01*
X0099900Y0056948D02*
X0148100Y0056948D01*
X0148254Y0058546D02*
X0099746Y0058546D01*
X0099083Y0060145D02*
X0148917Y0060145D01*
X0150400Y0061743D02*
X0097600Y0061743D01*
X0098686Y0063342D02*
X0149314Y0063342D01*
X0148467Y0064940D02*
X0099533Y0064940D01*
X0099900Y0066539D02*
X0148100Y0066539D01*
X0148100Y0068137D02*
X0099900Y0068137D01*
X0099253Y0069736D02*
X0148747Y0069736D01*
X0149991Y0071334D02*
X0098009Y0071334D01*
X0098277Y0072933D02*
X0149723Y0072933D01*
X0148636Y0074532D02*
X0099364Y0074532D01*
X0099900Y0076130D02*
X0148100Y0076130D01*
X0148100Y0077729D02*
X0099900Y0077729D01*
X0099422Y0079327D02*
X0148578Y0079327D01*
X0149582Y0080926D02*
X0098418Y0080926D01*
X0097868Y0082524D02*
X0150132Y0082524D01*
X0148806Y0084123D02*
X0099194Y0084123D01*
X0099856Y0085721D02*
X0148144Y0085721D01*
X0148100Y0087320D02*
X0099900Y0087320D01*
X0099592Y0088918D02*
X0148408Y0088918D01*
X0149173Y0090517D02*
X0098827Y0090517D01*
X0097459Y0092115D02*
X0150541Y0092115D01*
X0148975Y0093714D02*
X0099025Y0093714D01*
X0099687Y0095312D02*
X0148313Y0095312D01*
X0148100Y0096911D02*
X0099900Y0096911D01*
X0099761Y0098509D02*
X0148239Y0098509D01*
X0148901Y0100108D02*
X0099099Y0100108D01*
X0097638Y0101706D02*
X0150362Y0101706D01*
X0149351Y0103305D02*
X0098649Y0103305D01*
X0099518Y0104903D02*
X0148482Y0104903D01*
X0148100Y0106502D02*
X0099900Y0106502D01*
X0099900Y0108100D02*
X0148100Y0108100D01*
X0148732Y0109699D02*
X0099268Y0109699D01*
X0098047Y0111297D02*
X0149953Y0111297D01*
X0149760Y0112896D02*
X0098240Y0112896D01*
X0099348Y0114494D02*
X0148652Y0114494D01*
X0148100Y0116093D02*
X0099900Y0116093D01*
X0099900Y0117691D02*
X0148100Y0117691D01*
X0148562Y0119290D02*
X0099438Y0119290D01*
X0098455Y0120888D02*
X0149544Y0120888D01*
X0150169Y0122487D02*
X0097831Y0122487D01*
X0099179Y0124085D02*
X0148821Y0124085D01*
X0148159Y0125684D02*
X0099841Y0125684D01*
X0099900Y0127282D02*
X0148100Y0127282D01*
X0148393Y0128881D02*
X0099607Y0128881D01*
X0098864Y0130479D02*
X0149136Y0130479D01*
X0150056Y0132078D02*
X0097422Y0132078D01*
X0099009Y0133676D02*
X0148627Y0133676D01*
X0147936Y0135275D02*
X0099672Y0135275D01*
X0099333Y0154457D02*
X0148667Y0154457D01*
X0148100Y0156056D02*
X0099900Y0156056D01*
X0099900Y0157654D02*
X0148100Y0157654D01*
X0148547Y0159253D02*
X0099453Y0159253D01*
X0098493Y0160851D02*
X0149507Y0160851D01*
X0150206Y0162450D02*
X0097794Y0162450D01*
X0099163Y0164048D02*
X0148837Y0164048D01*
X0148174Y0165647D02*
X0099826Y0165647D01*
X0099900Y0167245D02*
X0148100Y0167245D01*
X0148378Y0168844D02*
X0099622Y0168844D01*
X0098902Y0170442D02*
X0149098Y0170442D01*
X0150752Y0172041D02*
X0097248Y0172041D01*
X0090752Y0172041D02*
X0004300Y0172041D01*
X0004300Y0173639D02*
X0272700Y0173639D01*
X0272700Y0172041D02*
X0157248Y0172041D01*
X0158902Y0170442D02*
X0272700Y0170442D01*
X0272700Y0168844D02*
X0163765Y0168844D01*
X0165363Y0167245D02*
X0272700Y0167245D01*
X0272700Y0165647D02*
X0166962Y0165647D01*
X0168560Y0164048D02*
X0272700Y0164048D01*
X0272700Y0162450D02*
X0170159Y0162450D01*
X0171128Y0160851D02*
X0272700Y0160851D01*
X0272700Y0159253D02*
X0236755Y0159253D01*
X0236089Y0159919D02*
X0237524Y0158484D01*
X0238300Y0156610D01*
X0238300Y0154581D01*
X0237524Y0152706D01*
X0236089Y0151272D01*
X0234214Y0150495D01*
X0232186Y0150495D01*
X0230311Y0151272D01*
X0228876Y0152706D01*
X0228100Y0154581D01*
X0228100Y0156610D01*
X0228876Y0158484D01*
X0230311Y0159919D01*
X0232186Y0160695D01*
X0234214Y0160695D01*
X0236089Y0159919D01*
X0237867Y0157654D02*
X0272700Y0157654D01*
X0272700Y0156056D02*
X0238300Y0156056D01*
X0238249Y0154457D02*
X0272700Y0154457D01*
X0272700Y0152859D02*
X0237587Y0152859D01*
X0236061Y0151260D02*
X0272700Y0151260D01*
X0272700Y0149662D02*
X0171200Y0149662D01*
X0171200Y0151260D02*
X0230339Y0151260D01*
X0228813Y0152859D02*
X0171200Y0152859D01*
X0171200Y0154457D02*
X0228151Y0154457D01*
X0228100Y0156056D02*
X0171200Y0156056D01*
X0171200Y0157654D02*
X0228533Y0157654D01*
X0229645Y0159253D02*
X0171200Y0159253D01*
X0164400Y0157654D02*
X0159900Y0157654D01*
X0159900Y0156056D02*
X0164400Y0156056D01*
X0164400Y0154457D02*
X0159333Y0154457D01*
X0158202Y0152859D02*
X0164400Y0152859D01*
X0164400Y0151260D02*
X0158084Y0151260D01*
X0159284Y0149662D02*
X0164400Y0149662D01*
X0164400Y0148063D02*
X0159900Y0148063D01*
X0159900Y0146465D02*
X0164400Y0146465D01*
X0164400Y0144866D02*
X0159502Y0144866D01*
X0158611Y0143268D02*
X0164400Y0143268D01*
X0164400Y0141669D02*
X0158241Y0141669D01*
X0159506Y0140070D02*
X0164400Y0140070D01*
X0164400Y0138472D02*
X0160145Y0138472D01*
X0171200Y0138472D02*
X0272700Y0138472D01*
X0272700Y0140070D02*
X0171200Y0140070D01*
X0171200Y0141669D02*
X0272700Y0141669D01*
X0272700Y0143268D02*
X0171200Y0143268D01*
X0171200Y0144866D02*
X0272700Y0144866D01*
X0272700Y0146465D02*
X0171200Y0146465D01*
X0171200Y0148063D02*
X0272700Y0148063D01*
X0272700Y0136873D02*
X0171200Y0136873D01*
X0171200Y0135275D02*
X0231622Y0135275D01*
X0231912Y0135369D02*
X0231089Y0135102D01*
X0230317Y0134709D01*
X0229617Y0134200D01*
X0229005Y0133588D01*
X0228496Y0132887D01*
X0228103Y0132116D01*
X0227835Y0131293D01*
X0227700Y0130438D01*
X0227700Y0130205D01*
X0233000Y0130205D01*
X0233000Y0135505D01*
X0232767Y0135505D01*
X0231912Y0135369D01*
X0233000Y0135275D02*
X0233400Y0135275D01*
X0233400Y0135505D02*
X0233633Y0135505D01*
X0234488Y0135369D01*
X0235311Y0135102D01*
X0236083Y0134709D01*
X0236783Y0134200D01*
X0237395Y0133588D01*
X0237904Y0132887D01*
X0238297Y0132116D01*
X0238565Y0131293D01*
X0238700Y0130438D01*
X0238700Y0130205D01*
X0233400Y0130205D01*
X0233000Y0130205D01*
X0233000Y0129805D01*
X0227700Y0129805D01*
X0227700Y0129572D01*
X0227835Y0128717D01*
X0228103Y0127893D01*
X0228496Y0127122D01*
X0229005Y0126422D01*
X0229617Y0125810D01*
X0230317Y0125301D01*
X0231089Y0124908D01*
X0231912Y0124640D01*
X0232767Y0124505D01*
X0233000Y0124505D01*
X0233000Y0129805D01*
X0233400Y0129805D01*
X0233400Y0130205D01*
X0233400Y0135505D01*
X0234778Y0135275D02*
X0272700Y0135275D01*
X0272700Y0133676D02*
X0237306Y0133676D01*
X0238309Y0132078D02*
X0272700Y0132078D01*
X0272700Y0130479D02*
X0238693Y0130479D01*
X0238700Y0129805D02*
X0233400Y0129805D01*
X0233400Y0124505D01*
X0233633Y0124505D01*
X0234488Y0124640D01*
X0235311Y0124908D01*
X0236083Y0125301D01*
X0236783Y0125810D01*
X0237395Y0126422D01*
X0237904Y0127122D01*
X0238297Y0127893D01*
X0238565Y0128717D01*
X0238700Y0129572D01*
X0238700Y0129805D01*
X0238591Y0128881D02*
X0272700Y0128881D01*
X0272700Y0127282D02*
X0237986Y0127282D01*
X0236610Y0125684D02*
X0272700Y0125684D01*
X0272700Y0124085D02*
X0171200Y0124085D01*
X0171200Y0122487D02*
X0272700Y0122487D01*
X0272700Y0120888D02*
X0171200Y0120888D01*
X0171200Y0119290D02*
X0272700Y0119290D01*
X0272700Y0117691D02*
X0171200Y0117691D01*
X0171200Y0116093D02*
X0272700Y0116093D01*
X0272700Y0114494D02*
X0171200Y0114494D01*
X0171200Y0112896D02*
X0272700Y0112896D01*
X0272700Y0111297D02*
X0171200Y0111297D01*
X0171200Y0109699D02*
X0272700Y0109699D01*
X0272700Y0108100D02*
X0171200Y0108100D01*
X0171200Y0106502D02*
X0272700Y0106502D01*
X0272700Y0104903D02*
X0171200Y0104903D01*
X0171200Y0103305D02*
X0272700Y0103305D01*
X0272700Y0101706D02*
X0171200Y0101706D01*
X0171200Y0100108D02*
X0272700Y0100108D01*
X0272700Y0098509D02*
X0171200Y0098509D01*
X0171200Y0096911D02*
X0272700Y0096911D01*
X0272700Y0095312D02*
X0256407Y0095312D01*
X0257934Y0093714D02*
X0272700Y0093714D01*
X0272700Y0092115D02*
X0258597Y0092115D01*
X0258648Y0090517D02*
X0272700Y0090517D01*
X0272700Y0088918D02*
X0258216Y0088918D01*
X0257104Y0087320D02*
X0272700Y0087320D01*
X0272700Y0085721D02*
X0255800Y0085721D01*
X0257772Y0084123D02*
X0272700Y0084123D01*
X0272700Y0082524D02*
X0258492Y0082524D01*
X0258648Y0080926D02*
X0272700Y0080926D01*
X0272700Y0079327D02*
X0258320Y0079327D01*
X0257355Y0077729D02*
X0272700Y0077729D01*
X0272700Y0076130D02*
X0255193Y0076130D01*
X0257520Y0074532D02*
X0272700Y0074532D01*
X0272700Y0072933D02*
X0258388Y0072933D01*
X0258648Y0071334D02*
X0272700Y0071334D01*
X0272700Y0069736D02*
X0258424Y0069736D01*
X0257607Y0068137D02*
X0272700Y0068137D01*
X0272700Y0066539D02*
X0255402Y0066539D01*
X0257269Y0064940D02*
X0272700Y0064940D01*
X0272700Y0063342D02*
X0258284Y0063342D01*
X0258648Y0061743D02*
X0272700Y0061743D01*
X0272700Y0060145D02*
X0258528Y0060145D01*
X0257858Y0058546D02*
X0272700Y0058546D01*
X0272700Y0056948D02*
X0256009Y0056948D01*
X0251087Y0056948D02*
X0232700Y0056948D01*
X0232700Y0058546D02*
X0249238Y0058546D01*
X0248568Y0060145D02*
X0232700Y0060145D01*
X0232700Y0061743D02*
X0248448Y0061743D01*
X0248812Y0063342D02*
X0232700Y0063342D01*
X0232700Y0064940D02*
X0249827Y0064940D01*
X0251694Y0066539D02*
X0232700Y0066539D01*
X0232700Y0068137D02*
X0249489Y0068137D01*
X0248672Y0069736D02*
X0232700Y0069736D01*
X0232700Y0071334D02*
X0248448Y0071334D01*
X0248708Y0072933D02*
X0232700Y0072933D01*
X0232700Y0074532D02*
X0249576Y0074532D01*
X0251903Y0076130D02*
X0232700Y0076130D01*
X0232700Y0077729D02*
X0249741Y0077729D01*
X0248776Y0079327D02*
X0232700Y0079327D01*
X0232700Y0080926D02*
X0248448Y0080926D01*
X0248604Y0082524D02*
X0234011Y0082524D01*
X0235610Y0084123D02*
X0249324Y0084123D01*
X0251296Y0085721D02*
X0237208Y0085721D01*
X0238807Y0087320D02*
X0249992Y0087320D01*
X0248880Y0088918D02*
X0240405Y0088918D01*
X0236630Y0090517D02*
X0171200Y0090517D01*
X0171200Y0092115D02*
X0238228Y0092115D01*
X0235031Y0088918D02*
X0171200Y0088918D01*
X0171200Y0087320D02*
X0233433Y0087320D01*
X0231834Y0085721D02*
X0171200Y0085721D01*
X0171200Y0084123D02*
X0230236Y0084123D01*
X0228900Y0082524D02*
X0171200Y0082524D01*
X0171200Y0080926D02*
X0228900Y0080926D01*
X0228900Y0079327D02*
X0171200Y0079327D01*
X0171200Y0077729D02*
X0228900Y0077729D01*
X0228900Y0076130D02*
X0171200Y0076130D01*
X0171200Y0074532D02*
X0228900Y0074532D01*
X0228900Y0072933D02*
X0171200Y0072933D01*
X0171200Y0071334D02*
X0228900Y0071334D01*
X0228900Y0069736D02*
X0171200Y0069736D01*
X0171200Y0068137D02*
X0228900Y0068137D01*
X0228900Y0066539D02*
X0171200Y0066539D01*
X0171200Y0064940D02*
X0228900Y0064940D01*
X0228900Y0063342D02*
X0171200Y0063342D01*
X0171200Y0061743D02*
X0228900Y0061743D01*
X0228900Y0060145D02*
X0171200Y0060145D01*
X0171200Y0058546D02*
X0228900Y0058546D01*
X0228900Y0056948D02*
X0171200Y0056948D01*
X0171200Y0055349D02*
X0228900Y0055349D01*
X0228900Y0053751D02*
X0171200Y0053751D01*
X0171200Y0052152D02*
X0228900Y0052152D01*
X0228900Y0050554D02*
X0171200Y0050554D01*
X0171200Y0048955D02*
X0228900Y0048955D01*
X0228900Y0047357D02*
X0171200Y0047357D01*
X0171200Y0045758D02*
X0228900Y0045758D01*
X0228900Y0044160D02*
X0171200Y0044160D01*
X0171200Y0042561D02*
X0228900Y0042561D01*
X0228900Y0040963D02*
X0171200Y0040963D01*
X0171200Y0039364D02*
X0178574Y0039364D01*
X0177996Y0039125D02*
X0176907Y0038036D01*
X0176317Y0036613D01*
X0176317Y0035072D01*
X0176907Y0033649D01*
X0177996Y0032560D01*
X0179419Y0031971D01*
X0180959Y0031971D01*
X0182382Y0032560D01*
X0183471Y0033649D01*
X0184061Y0035072D01*
X0184061Y0036613D01*
X0183471Y0038036D01*
X0182382Y0039125D01*
X0180959Y0039714D01*
X0179419Y0039714D01*
X0177996Y0039125D01*
X0176795Y0037766D02*
X0171200Y0037766D01*
X0171200Y0036167D02*
X0176317Y0036167D01*
X0176526Y0034569D02*
X0171200Y0034569D01*
X0171200Y0032970D02*
X0177586Y0032970D01*
X0182792Y0032970D02*
X0201208Y0032970D01*
X0201618Y0032560D02*
X0200529Y0033649D01*
X0199939Y0035072D01*
X0199939Y0036613D01*
X0200529Y0038036D01*
X0201618Y0039125D01*
X0203041Y0039714D01*
X0204581Y0039714D01*
X0206004Y0039125D01*
X0207093Y0038036D01*
X0207683Y0036613D01*
X0207683Y0035072D01*
X0207093Y0033649D01*
X0206004Y0032560D01*
X0204581Y0031971D01*
X0203041Y0031971D01*
X0201618Y0032560D01*
X0200148Y0034569D02*
X0183852Y0034569D01*
X0184061Y0036167D02*
X0199939Y0036167D01*
X0200417Y0037766D02*
X0183583Y0037766D01*
X0181804Y0039364D02*
X0202196Y0039364D01*
X0205426Y0039364D02*
X0228900Y0039364D01*
X0228900Y0037766D02*
X0207205Y0037766D01*
X0207683Y0036167D02*
X0228900Y0036167D01*
X0228900Y0034569D02*
X0207474Y0034569D01*
X0206414Y0032970D02*
X0228900Y0032970D01*
X0228900Y0031372D02*
X0171200Y0031372D01*
X0172635Y0029773D02*
X0228900Y0029773D01*
X0228900Y0028175D02*
X0174234Y0028175D01*
X0175832Y0026576D02*
X0228900Y0026576D01*
X0228091Y0024978D02*
X0177431Y0024978D01*
X0179029Y0023379D02*
X0226492Y0023379D01*
X0224894Y0021781D02*
X0180628Y0021781D01*
X0164400Y0044160D02*
X0053089Y0044160D01*
X0054375Y0045758D02*
X0164400Y0045758D01*
X0164400Y0047357D02*
X0054900Y0047357D01*
X0054900Y0048955D02*
X0164400Y0048955D01*
X0164400Y0050554D02*
X0054246Y0050554D01*
X0059039Y0052152D02*
X0090504Y0052152D01*
X0088960Y0053751D02*
X0060638Y0053751D01*
X0062236Y0055349D02*
X0088298Y0055349D01*
X0088100Y0056948D02*
X0063835Y0056948D01*
X0065433Y0058546D02*
X0088254Y0058546D01*
X0088917Y0060145D02*
X0067032Y0060145D01*
X0068630Y0061743D02*
X0090400Y0061743D01*
X0089314Y0063342D02*
X0070229Y0063342D01*
X0071827Y0064940D02*
X0088467Y0064940D01*
X0103003Y0037766D02*
X0119417Y0037766D01*
X0118939Y0036167D02*
X0103461Y0036167D01*
X0103267Y0034569D02*
X0119148Y0034569D01*
X0120208Y0032970D02*
X0102358Y0032970D01*
X0102706Y0018584D02*
X0119762Y0018584D01*
X0118963Y0016985D02*
X0103383Y0016985D01*
X0103392Y0015387D02*
X0118940Y0015387D01*
X0119705Y0013788D02*
X0102748Y0013788D01*
X0099275Y0013788D02*
X0099103Y0013788D01*
X0099103Y0015387D02*
X0099275Y0015387D01*
X0099275Y0016985D02*
X0099103Y0016985D01*
X0099103Y0018584D02*
X0099275Y0018584D01*
X0148626Y0015387D02*
X0152174Y0015387D01*
X0150869Y0013788D02*
X0149931Y0013788D01*
X0149923Y0008993D02*
X0150877Y0008993D01*
X0152193Y0007394D02*
X0148607Y0007394D01*
X0223874Y0015387D02*
X0272700Y0015387D01*
X0272700Y0016985D02*
X0225472Y0016985D01*
X0227071Y0018584D02*
X0272700Y0018584D01*
X0272700Y0020182D02*
X0228669Y0020182D01*
X0230268Y0021781D02*
X0272700Y0021781D01*
X0272700Y0023379D02*
X0231866Y0023379D01*
X0232700Y0024978D02*
X0272700Y0024978D01*
X0272700Y0026576D02*
X0232700Y0026576D01*
X0232700Y0028175D02*
X0272700Y0028175D01*
X0272700Y0029773D02*
X0232700Y0029773D01*
X0232700Y0031372D02*
X0272700Y0031372D01*
X0272700Y0032970D02*
X0232700Y0032970D01*
X0232700Y0034569D02*
X0272700Y0034569D01*
X0272700Y0036167D02*
X0232700Y0036167D01*
X0232700Y0037766D02*
X0272700Y0037766D01*
X0272700Y0039364D02*
X0232700Y0039364D01*
X0232700Y0040963D02*
X0272700Y0040963D01*
X0272700Y0042561D02*
X0232700Y0042561D01*
X0232700Y0044160D02*
X0272700Y0044160D01*
X0272700Y0045758D02*
X0232700Y0045758D01*
X0232700Y0047357D02*
X0272700Y0047357D01*
X0272700Y0048955D02*
X0232700Y0048955D01*
X0232700Y0050554D02*
X0272700Y0050554D01*
X0272700Y0052152D02*
X0232700Y0052152D01*
X0232700Y0053751D02*
X0272700Y0053751D01*
X0272700Y0055349D02*
X0232700Y0055349D01*
X0249162Y0093714D02*
X0171200Y0093714D01*
X0171200Y0095312D02*
X0250689Y0095312D01*
X0233400Y0125684D02*
X0233000Y0125684D01*
X0233000Y0127282D02*
X0233400Y0127282D01*
X0233400Y0128881D02*
X0233000Y0128881D01*
X0233000Y0130479D02*
X0233400Y0130479D01*
X0233400Y0132078D02*
X0233000Y0132078D01*
X0233000Y0133676D02*
X0233400Y0133676D01*
X0229094Y0133676D02*
X0171200Y0133676D01*
X0171200Y0132078D02*
X0228091Y0132078D01*
X0227707Y0130479D02*
X0171200Y0130479D01*
X0171200Y0128881D02*
X0227809Y0128881D01*
X0228414Y0127282D02*
X0171200Y0127282D01*
X0171200Y0125684D02*
X0229790Y0125684D01*
X0272700Y0175238D02*
X0004300Y0175238D01*
X0004300Y0176836D02*
X0272700Y0176836D01*
X0272700Y0178435D02*
X0004300Y0178435D01*
X0004300Y0180033D02*
X0272700Y0180033D01*
X0272700Y0181632D02*
X0004300Y0181632D01*
X0004300Y0183230D02*
X0272700Y0183230D01*
X0272700Y0184829D02*
X0004300Y0184829D01*
X0004300Y0186427D02*
X0272700Y0186427D01*
X0272700Y0188026D02*
X0004300Y0188026D01*
X0004300Y0189624D02*
X0272700Y0189624D01*
X0272700Y0191223D02*
X0004300Y0191223D01*
X0004300Y0192821D02*
X0272700Y0192821D01*
X0272700Y0194420D02*
X0004300Y0194420D01*
X0004300Y0196018D02*
X0272700Y0196018D01*
X0272700Y0197617D02*
X0004300Y0197617D01*
X0004300Y0170442D02*
X0089098Y0170442D01*
X0077357Y0168844D02*
X0004300Y0168844D01*
X0013595Y0071334D02*
X0046405Y0071334D01*
X0045415Y0069736D02*
X0014585Y0069736D01*
X0014900Y0068137D02*
X0045100Y0068137D01*
X0045301Y0066539D02*
X0014699Y0066539D01*
X0015747Y0064940D02*
X0046130Y0064940D01*
X0045585Y0060145D02*
X0014415Y0060145D01*
X0014900Y0058546D02*
X0045100Y0058546D01*
X0045132Y0056948D02*
X0014868Y0056948D01*
X0014206Y0055349D02*
X0045794Y0055349D01*
X0045754Y0050554D02*
X0015241Y0050554D01*
X0014900Y0048955D02*
X0045100Y0048955D01*
X0045100Y0047357D02*
X0014900Y0047357D01*
X0014375Y0045758D02*
X0045625Y0045758D01*
X0046911Y0044160D02*
X0013089Y0044160D01*
X0013064Y0053751D02*
X0012546Y0053751D01*
X0013186Y0061743D02*
X0013570Y0061743D01*
X0011971Y0063342D02*
X0011559Y0063342D01*
X0157793Y0162450D02*
X0160542Y0162450D01*
X0162141Y0160851D02*
X0158493Y0160851D01*
X0159453Y0159253D02*
X0163739Y0159253D01*
D15*
X0094000Y0157000D02*
X0079000Y0157000D01*
X0066400Y0144400D01*
X0066400Y0104400D01*
X0050000Y0088000D01*
X0068000Y0077000D02*
X0053800Y0062800D01*
X0015200Y0062800D01*
X0010000Y0068000D01*
X0015200Y0053200D02*
X0010000Y0048000D01*
X0015200Y0053200D02*
X0057400Y0053200D01*
X0071200Y0067000D01*
X0094000Y0067000D01*
X0094000Y0077000D02*
X0068000Y0077000D01*
X0073600Y0091600D02*
X0050000Y0068000D01*
X0073600Y0091600D02*
X0073600Y0110200D01*
X0090400Y0127000D01*
X0094000Y0127000D01*
X0062200Y0120200D02*
X0062200Y0151000D01*
X0078200Y0167000D01*
X0094000Y0167000D01*
X0062200Y0120200D02*
X0050000Y0108000D01*
X0203811Y0016157D02*
X0221957Y0016157D01*
X0230800Y0025000D01*
X0230800Y0082000D01*
X0239800Y0091000D01*
X0253524Y0091000D01*
X0253548Y0090976D01*
D16*
X0180189Y0017411D02*
X0167800Y0029800D01*
X0167800Y0160000D01*
X0161800Y0166000D01*
X0155000Y0166000D01*
X0154000Y0167000D01*
X0180189Y0017411D02*
X0180189Y0016157D01*
M02*
