G75*
%MOIN*%
%OFA0B0*%
%FSLAX25Y25*%
%IPPOS*%
%LPD*%
%AMOC8*
5,1,8,0,0,1.08239X$1,22.5*
%
%ADD10C,0.00000*%
%ADD11C,0.00400*%
%ADD12C,0.01000*%
%ADD13C,0.00500*%
%ADD14R,0.03000X0.03000*%
%ADD15C,0.02500*%
%ADD16C,0.00800*%
%ADD17C,0.00300*%
D10*
X0001000Y0001000D02*
X0001000Y0201000D01*
X0276000Y0201000D01*
X0276000Y0001000D01*
X0001000Y0001000D01*
D11*
X0057437Y0006860D02*
X0057437Y0009162D01*
X0058204Y0009929D01*
X0061274Y0009929D01*
X0062041Y0009162D01*
X0062041Y0006860D01*
X0057437Y0006860D01*
X0057437Y0011464D02*
X0057437Y0012998D01*
X0057437Y0012231D02*
X0062041Y0012231D01*
X0062041Y0011464D02*
X0062041Y0012998D01*
X0061274Y0014533D02*
X0062041Y0015300D01*
X0062041Y0016835D01*
X0061274Y0017602D01*
X0060506Y0017602D01*
X0059739Y0016835D01*
X0059739Y0015300D01*
X0058972Y0014533D01*
X0058204Y0014533D01*
X0057437Y0015300D01*
X0057437Y0016835D01*
X0058204Y0017602D01*
X0057437Y0019137D02*
X0057437Y0021439D01*
X0058204Y0022206D01*
X0059739Y0022206D01*
X0060506Y0021439D01*
X0060506Y0019137D01*
X0062041Y0019137D02*
X0057437Y0019137D01*
X0064492Y0018470D02*
X0064492Y0016935D01*
X0065259Y0016168D01*
X0066027Y0016168D01*
X0066794Y0016935D01*
X0066794Y0018470D01*
X0067561Y0019237D01*
X0068329Y0019237D01*
X0069096Y0018470D01*
X0069096Y0016935D01*
X0068329Y0016168D01*
X0066794Y0014633D02*
X0066794Y0011564D01*
X0065259Y0010029D02*
X0068329Y0006960D01*
X0069096Y0006960D01*
X0064492Y0006960D02*
X0064492Y0010029D01*
X0065259Y0010029D01*
X0074549Y0009104D02*
X0074549Y0007569D01*
X0075316Y0006802D01*
X0076083Y0006802D01*
X0076851Y0007569D01*
X0076851Y0009104D01*
X0077618Y0009871D01*
X0078385Y0009871D01*
X0079153Y0009104D01*
X0079153Y0007569D01*
X0078385Y0006802D01*
X0081996Y0007367D02*
X0081996Y0008902D01*
X0082763Y0009669D01*
X0083531Y0011204D02*
X0081996Y0012739D01*
X0083531Y0014273D01*
X0086600Y0014273D01*
X0086600Y0015808D02*
X0086600Y0018877D01*
X0086600Y0020412D02*
X0086600Y0021946D01*
X0086600Y0021179D02*
X0081996Y0021179D01*
X0081996Y0020412D02*
X0081996Y0021946D01*
X0081996Y0023481D02*
X0081996Y0025783D01*
X0082763Y0026550D01*
X0083531Y0026550D01*
X0084298Y0025783D01*
X0084298Y0023481D01*
X0086600Y0023481D02*
X0081996Y0023481D01*
X0084298Y0025783D02*
X0085065Y0026550D01*
X0085833Y0026550D01*
X0086600Y0025783D01*
X0086600Y0023481D01*
X0086600Y0028085D02*
X0081996Y0028085D01*
X0081996Y0030387D01*
X0082763Y0031154D01*
X0084298Y0031154D01*
X0085065Y0030387D01*
X0085065Y0028085D01*
X0085065Y0029620D02*
X0086600Y0031154D01*
X0086600Y0032689D02*
X0083531Y0032689D01*
X0081996Y0034224D01*
X0083531Y0035758D01*
X0086600Y0035758D01*
X0084298Y0035758D02*
X0084298Y0032689D01*
X0081996Y0037293D02*
X0081996Y0040362D01*
X0081996Y0038827D02*
X0086600Y0038827D01*
X0086600Y0041897D02*
X0081996Y0041897D01*
X0081996Y0044966D01*
X0084298Y0043431D02*
X0084298Y0041897D01*
X0086600Y0041897D02*
X0086600Y0044966D01*
X0069096Y0045326D02*
X0069096Y0043791D01*
X0069096Y0044559D02*
X0064492Y0044559D01*
X0064492Y0045326D02*
X0064492Y0043791D01*
X0065259Y0042257D02*
X0064492Y0041489D01*
X0064492Y0039187D01*
X0069096Y0039187D01*
X0069096Y0041489D01*
X0068329Y0042257D01*
X0065259Y0042257D01*
X0065259Y0046861D02*
X0068329Y0046861D01*
X0069096Y0047628D01*
X0069096Y0049162D01*
X0068329Y0049930D01*
X0066794Y0049930D01*
X0066794Y0048395D01*
X0065259Y0046861D02*
X0064492Y0047628D01*
X0064492Y0049162D01*
X0065259Y0049930D01*
X0066794Y0037653D02*
X0066794Y0034583D01*
X0064492Y0036885D01*
X0069096Y0036885D01*
X0066794Y0033049D02*
X0066794Y0029979D01*
X0066794Y0028445D02*
X0066794Y0026910D01*
X0066794Y0028445D02*
X0068329Y0028445D01*
X0069096Y0027677D01*
X0069096Y0026143D01*
X0068329Y0025376D01*
X0065259Y0025376D01*
X0064492Y0026143D01*
X0064492Y0027677D01*
X0065259Y0028445D01*
X0064492Y0023841D02*
X0064492Y0020772D01*
X0069096Y0020772D01*
X0069096Y0023841D01*
X0066794Y0022306D02*
X0066794Y0020772D01*
X0065259Y0019237D02*
X0064492Y0018470D01*
X0074549Y0013707D02*
X0074549Y0012173D01*
X0075316Y0011405D01*
X0075316Y0009871D02*
X0074549Y0009104D01*
X0074549Y0013707D02*
X0075316Y0014475D01*
X0076083Y0014475D01*
X0079153Y0011405D01*
X0079153Y0014475D01*
X0081996Y0015808D02*
X0086600Y0015808D01*
X0084298Y0014273D02*
X0084298Y0011204D01*
X0083531Y0011204D02*
X0086600Y0011204D01*
X0085833Y0009669D02*
X0086600Y0008902D01*
X0086600Y0007367D01*
X0085833Y0006600D01*
X0082763Y0006600D01*
X0081996Y0007367D01*
X0142200Y0026200D02*
X0145269Y0026200D01*
X0143735Y0026200D02*
X0143735Y0030804D01*
X0142200Y0029269D01*
X0146804Y0030037D02*
X0146804Y0026967D01*
X0149873Y0030037D01*
X0149873Y0026967D01*
X0149106Y0026200D01*
X0147571Y0026200D01*
X0146804Y0026967D01*
X0146804Y0030037D02*
X0147571Y0030804D01*
X0149106Y0030804D01*
X0149873Y0030037D01*
X0151408Y0030804D02*
X0151408Y0026200D01*
X0151408Y0027735D02*
X0153710Y0029269D01*
X0151408Y0027735D02*
X0153710Y0026200D01*
X0161796Y0017510D02*
X0161796Y0015208D01*
X0166400Y0015208D01*
X0166400Y0017510D01*
X0165633Y0018277D01*
X0162563Y0018277D01*
X0161796Y0017510D01*
X0161796Y0013673D02*
X0166400Y0013673D01*
X0161796Y0010604D01*
X0166400Y0010604D01*
X0165633Y0009069D02*
X0166400Y0008302D01*
X0166400Y0006767D01*
X0165633Y0006000D01*
X0162563Y0006000D01*
X0161796Y0006767D01*
X0161796Y0008302D01*
X0162563Y0009069D01*
X0164098Y0009069D02*
X0164098Y0007535D01*
X0164098Y0009069D02*
X0165633Y0009069D01*
X0215400Y0008804D02*
X0215400Y0004200D01*
X0215400Y0005735D02*
X0217702Y0005735D01*
X0218469Y0006502D01*
X0218469Y0008037D01*
X0217702Y0008804D01*
X0215400Y0008804D01*
X0216167Y0011700D02*
X0215400Y0012467D01*
X0216167Y0011700D02*
X0217702Y0011700D01*
X0218469Y0012467D01*
X0218469Y0013235D01*
X0217702Y0014002D01*
X0216167Y0014002D01*
X0215400Y0014769D01*
X0215400Y0015537D01*
X0216167Y0016304D01*
X0217702Y0016304D01*
X0218469Y0015537D01*
X0220004Y0016304D02*
X0220004Y0011700D01*
X0223073Y0011700D01*
X0224608Y0012467D02*
X0225375Y0011700D01*
X0226910Y0011700D01*
X0227677Y0012467D01*
X0229212Y0012467D02*
X0229979Y0011700D01*
X0231514Y0011700D01*
X0232281Y0012467D01*
X0232281Y0015537D01*
X0231514Y0016304D01*
X0229979Y0016304D01*
X0229212Y0015537D01*
X0229212Y0012467D01*
X0229212Y0008804D02*
X0229212Y0004200D01*
X0232281Y0004200D01*
X0233816Y0004200D02*
X0233816Y0008804D01*
X0236118Y0008804D01*
X0236885Y0008037D01*
X0236885Y0006502D01*
X0236118Y0005735D01*
X0233816Y0005735D01*
X0235350Y0005735D02*
X0236885Y0004200D01*
X0230746Y0006502D02*
X0229212Y0006502D01*
X0227677Y0004200D02*
X0227677Y0008804D01*
X0229212Y0008804D02*
X0232281Y0008804D01*
X0233816Y0011700D02*
X0233816Y0016304D01*
X0236885Y0011700D01*
X0236885Y0016304D01*
X0238420Y0016304D02*
X0240722Y0016304D01*
X0241489Y0015537D01*
X0241489Y0012467D01*
X0240722Y0011700D01*
X0238420Y0011700D01*
X0238420Y0016304D01*
X0243024Y0014769D02*
X0244558Y0016304D01*
X0246093Y0014769D01*
X0246093Y0011700D01*
X0247627Y0011700D02*
X0247627Y0016304D01*
X0249929Y0016304D01*
X0250697Y0015537D01*
X0250697Y0014002D01*
X0249929Y0013235D01*
X0247627Y0013235D01*
X0249162Y0013235D02*
X0250697Y0011700D01*
X0253766Y0011700D02*
X0253766Y0014002D01*
X0255301Y0015537D01*
X0255301Y0016304D01*
X0253766Y0014002D02*
X0252231Y0015537D01*
X0252231Y0016304D01*
X0251500Y0019200D02*
X0246896Y0022269D01*
X0246896Y0023804D02*
X0251500Y0023804D01*
X0251500Y0022269D02*
X0246896Y0019200D01*
X0249198Y0023804D02*
X0249198Y0026873D01*
X0246896Y0026873D02*
X0251500Y0026873D01*
X0252267Y0028408D02*
X0252267Y0031477D01*
X0250733Y0033012D02*
X0251500Y0033779D01*
X0251500Y0035314D01*
X0250733Y0036081D01*
X0250733Y0037616D02*
X0247663Y0037616D01*
X0246896Y0038383D01*
X0246896Y0039918D01*
X0247663Y0040685D01*
X0250733Y0040685D01*
X0251500Y0039918D01*
X0251500Y0038383D01*
X0250733Y0037616D01*
X0247663Y0036081D02*
X0246896Y0035314D01*
X0246896Y0033779D01*
X0247663Y0033012D01*
X0250733Y0033012D01*
X0251500Y0042220D02*
X0246896Y0042220D01*
X0251500Y0045289D01*
X0246896Y0045289D01*
X0246896Y0046824D02*
X0251500Y0049893D01*
X0246896Y0049893D01*
X0246896Y0046824D02*
X0251500Y0046824D01*
X0238999Y0051700D02*
X0238999Y0056304D01*
X0236697Y0054002D01*
X0239766Y0054002D01*
X0235162Y0054002D02*
X0232093Y0054002D01*
X0234395Y0056304D01*
X0234395Y0051700D01*
X0230558Y0051700D02*
X0227489Y0051700D01*
X0230558Y0054769D01*
X0230558Y0055537D01*
X0229791Y0056304D01*
X0228256Y0056304D01*
X0227489Y0055537D01*
X0225954Y0055537D02*
X0225954Y0054769D01*
X0225187Y0054002D01*
X0223652Y0054002D01*
X0222885Y0054769D01*
X0222885Y0055537D01*
X0223652Y0056304D01*
X0225187Y0056304D01*
X0225954Y0055537D01*
X0225187Y0054002D02*
X0225954Y0053235D01*
X0225954Y0052467D01*
X0225187Y0051700D01*
X0223652Y0051700D01*
X0222885Y0052467D01*
X0222885Y0053235D01*
X0223652Y0054002D01*
X0221350Y0051700D02*
X0218281Y0051700D01*
X0218281Y0056304D01*
X0216746Y0056304D02*
X0216746Y0051700D01*
X0213677Y0051700D02*
X0213677Y0056304D01*
X0215212Y0054769D01*
X0216746Y0056304D01*
X0212142Y0056304D02*
X0209073Y0056304D01*
X0209073Y0051700D01*
X0207539Y0051700D02*
X0206004Y0053235D01*
X0206771Y0053235D02*
X0204469Y0053235D01*
X0204469Y0051700D02*
X0204469Y0056304D01*
X0206771Y0056304D01*
X0207539Y0055537D01*
X0207539Y0054002D01*
X0206771Y0053235D01*
X0209073Y0054002D02*
X0210608Y0054002D01*
X0202935Y0056304D02*
X0201400Y0056304D01*
X0202167Y0056304D02*
X0202167Y0051700D01*
X0201400Y0051700D02*
X0202935Y0051700D01*
X0182865Y0059200D02*
X0180563Y0060735D01*
X0182865Y0062269D01*
X0180563Y0063804D02*
X0180563Y0059200D01*
X0179029Y0059967D02*
X0179029Y0063037D01*
X0175959Y0059967D01*
X0176727Y0059200D01*
X0178261Y0059200D01*
X0179029Y0059967D01*
X0175959Y0059967D02*
X0175959Y0063037D01*
X0176727Y0063804D01*
X0178261Y0063804D01*
X0179029Y0063037D01*
X0174425Y0059200D02*
X0171356Y0059200D01*
X0172890Y0059200D02*
X0172890Y0063804D01*
X0171356Y0062269D01*
X0188967Y0088400D02*
X0188200Y0089167D01*
X0188967Y0088400D02*
X0190502Y0088400D01*
X0191269Y0089167D01*
X0191269Y0089935D01*
X0190502Y0090702D01*
X0189735Y0090702D01*
X0190502Y0090702D02*
X0191269Y0091469D01*
X0191269Y0092237D01*
X0190502Y0093004D01*
X0188967Y0093004D01*
X0188200Y0092237D01*
X0192804Y0092237D02*
X0192804Y0089167D01*
X0195873Y0092237D01*
X0195873Y0089167D01*
X0195106Y0088400D01*
X0193571Y0088400D01*
X0192804Y0089167D01*
X0192804Y0092237D02*
X0193571Y0093004D01*
X0195106Y0093004D01*
X0195873Y0092237D01*
X0197408Y0093004D02*
X0197408Y0088400D01*
X0197408Y0089935D02*
X0199710Y0091469D01*
X0197408Y0089935D02*
X0199710Y0088400D01*
X0199710Y0101000D02*
X0197408Y0102535D01*
X0199710Y0104069D01*
X0197408Y0105604D02*
X0197408Y0101000D01*
X0195873Y0101000D02*
X0192804Y0101000D01*
X0194339Y0101000D02*
X0194339Y0105604D01*
X0192804Y0104069D01*
X0191269Y0103302D02*
X0191269Y0101767D01*
X0190502Y0101000D01*
X0188967Y0101000D01*
X0188200Y0101767D01*
X0188200Y0103302D02*
X0189735Y0104069D01*
X0190502Y0104069D01*
X0191269Y0103302D01*
X0191269Y0105604D02*
X0188200Y0105604D01*
X0188200Y0103302D01*
X0183510Y0104669D02*
X0181208Y0103135D01*
X0183510Y0101600D01*
X0181208Y0101600D02*
X0181208Y0106204D01*
X0179673Y0105437D02*
X0176604Y0102367D01*
X0177371Y0101600D01*
X0178906Y0101600D01*
X0179673Y0102367D01*
X0179673Y0105437D01*
X0178906Y0106204D01*
X0177371Y0106204D01*
X0176604Y0105437D01*
X0176604Y0102367D01*
X0175069Y0101600D02*
X0172000Y0101600D01*
X0173535Y0101600D02*
X0173535Y0106204D01*
X0172000Y0104669D01*
X0172477Y0109800D02*
X0172477Y0114404D01*
X0170942Y0113637D02*
X0170175Y0114404D01*
X0168641Y0114404D01*
X0167873Y0113637D01*
X0167873Y0110567D01*
X0168641Y0109800D01*
X0170175Y0109800D01*
X0170942Y0110567D01*
X0170942Y0112102D01*
X0169408Y0112102D01*
X0172477Y0112102D02*
X0175546Y0112102D01*
X0175546Y0114404D02*
X0175546Y0109800D01*
X0181685Y0109800D02*
X0181685Y0114404D01*
X0183987Y0114404D01*
X0184754Y0113637D01*
X0184754Y0112102D01*
X0183987Y0111335D01*
X0181685Y0111335D01*
X0186289Y0111335D02*
X0188591Y0111335D01*
X0189358Y0112102D01*
X0189358Y0113637D01*
X0188591Y0114404D01*
X0186289Y0114404D01*
X0186289Y0109800D01*
X0187824Y0111335D02*
X0189358Y0109800D01*
X0190893Y0109800D02*
X0193962Y0109800D01*
X0195497Y0110567D02*
X0196264Y0109800D01*
X0197799Y0109800D01*
X0198566Y0110567D01*
X0200101Y0109800D02*
X0201635Y0109800D01*
X0200868Y0109800D02*
X0200868Y0114404D01*
X0200101Y0114404D02*
X0201635Y0114404D01*
X0203170Y0113637D02*
X0203170Y0112869D01*
X0203937Y0112102D01*
X0205472Y0112102D01*
X0206239Y0111335D01*
X0206239Y0110567D01*
X0205472Y0109800D01*
X0203937Y0109800D01*
X0203170Y0110567D01*
X0203170Y0113637D02*
X0203937Y0114404D01*
X0205472Y0114404D01*
X0206239Y0113637D01*
X0207774Y0114404D02*
X0209309Y0114404D01*
X0208541Y0114404D02*
X0208541Y0109800D01*
X0207774Y0109800D02*
X0209309Y0109800D01*
X0210843Y0110567D02*
X0210843Y0113637D01*
X0211610Y0114404D01*
X0213145Y0114404D01*
X0213912Y0113637D01*
X0213912Y0110567D01*
X0213145Y0109800D01*
X0211610Y0109800D01*
X0210843Y0110567D01*
X0215447Y0109800D02*
X0215447Y0114404D01*
X0218516Y0109800D01*
X0218516Y0114404D01*
X0229000Y0107304D02*
X0231302Y0107304D01*
X0232069Y0106537D01*
X0232069Y0105002D01*
X0231302Y0104235D01*
X0229000Y0104235D01*
X0229000Y0102700D02*
X0229000Y0107304D01*
X0233604Y0107304D02*
X0235139Y0105769D01*
X0236673Y0107304D01*
X0236673Y0102700D01*
X0238208Y0103467D02*
X0238975Y0102700D01*
X0240510Y0102700D01*
X0241277Y0103467D01*
X0241277Y0106537D01*
X0240510Y0107304D01*
X0238975Y0107304D01*
X0238208Y0106537D01*
X0238208Y0103467D01*
X0233604Y0102700D02*
X0233604Y0107304D01*
X0242812Y0106537D02*
X0242812Y0105769D01*
X0243579Y0105002D01*
X0245114Y0105002D01*
X0245881Y0104235D01*
X0245881Y0103467D01*
X0245114Y0102700D01*
X0243579Y0102700D01*
X0242812Y0103467D01*
X0242812Y0106537D02*
X0243579Y0107304D01*
X0245114Y0107304D01*
X0245881Y0106537D01*
X0247416Y0107304D02*
X0250485Y0107304D01*
X0252020Y0107304D02*
X0252020Y0102700D01*
X0255089Y0102700D01*
X0253554Y0105002D02*
X0252020Y0105002D01*
X0248950Y0105002D02*
X0247416Y0105002D01*
X0247416Y0102700D02*
X0247416Y0107304D01*
X0247935Y0111400D02*
X0247935Y0116004D01*
X0246400Y0114469D01*
X0246400Y0111400D02*
X0249469Y0111400D01*
X0251004Y0112167D02*
X0251771Y0111400D01*
X0253306Y0111400D01*
X0254073Y0112167D01*
X0254073Y0115237D01*
X0251004Y0112167D01*
X0251004Y0115237D01*
X0251771Y0116004D01*
X0253306Y0116004D01*
X0254073Y0115237D01*
X0255608Y0116004D02*
X0255608Y0111400D01*
X0255608Y0112935D02*
X0257910Y0114469D01*
X0255608Y0112935D02*
X0257910Y0111400D01*
X0258158Y0107304D02*
X0258158Y0102700D01*
X0256624Y0107304D02*
X0259693Y0107304D01*
X0255089Y0107304D02*
X0252020Y0107304D01*
X0210310Y0126400D02*
X0208008Y0127935D01*
X0210310Y0129469D01*
X0208008Y0131004D02*
X0208008Y0126400D01*
X0206473Y0127167D02*
X0205706Y0126400D01*
X0204171Y0126400D01*
X0203404Y0127167D01*
X0206473Y0130237D01*
X0206473Y0127167D01*
X0203404Y0127167D02*
X0203404Y0130237D01*
X0204171Y0131004D01*
X0205706Y0131004D01*
X0206473Y0130237D01*
X0201869Y0126400D02*
X0198800Y0126400D01*
X0200335Y0126400D02*
X0200335Y0131004D01*
X0198800Y0129469D01*
X0197799Y0114404D02*
X0196264Y0114404D01*
X0195497Y0113637D01*
X0195497Y0110567D01*
X0192427Y0112102D02*
X0190893Y0112102D01*
X0190893Y0114404D02*
X0190893Y0109800D01*
X0190893Y0114404D02*
X0193962Y0114404D01*
X0197799Y0114404D02*
X0198566Y0113637D01*
X0166339Y0114404D02*
X0164804Y0114404D01*
X0165571Y0114404D02*
X0165571Y0109800D01*
X0164804Y0109800D02*
X0166339Y0109800D01*
X0163269Y0109800D02*
X0163269Y0114404D01*
X0163269Y0112102D02*
X0160200Y0112102D01*
X0160200Y0109800D02*
X0160200Y0114404D01*
X0164588Y0150400D02*
X0167657Y0150400D01*
X0166123Y0150400D02*
X0166123Y0155004D01*
X0164588Y0153469D01*
X0169192Y0154237D02*
X0169959Y0155004D01*
X0171494Y0155004D01*
X0172261Y0154237D01*
X0172261Y0153469D01*
X0171494Y0152702D01*
X0172261Y0151935D01*
X0172261Y0151167D01*
X0171494Y0150400D01*
X0169959Y0150400D01*
X0169192Y0151167D01*
X0170727Y0152702D02*
X0171494Y0152702D01*
X0173796Y0154237D02*
X0174563Y0155004D01*
X0176098Y0155004D01*
X0176865Y0154237D01*
X0173796Y0151167D01*
X0174563Y0150400D01*
X0176098Y0150400D01*
X0176865Y0151167D01*
X0176865Y0154237D01*
X0173796Y0154237D02*
X0173796Y0151167D01*
X0174339Y0157700D02*
X0172804Y0159235D01*
X0173571Y0159235D02*
X0171269Y0159235D01*
X0171269Y0157700D02*
X0171269Y0162304D01*
X0173571Y0162304D01*
X0174339Y0161537D01*
X0174339Y0160002D01*
X0173571Y0159235D01*
X0175873Y0160002D02*
X0177408Y0160002D01*
X0175873Y0162304D02*
X0178942Y0162304D01*
X0180477Y0162304D02*
X0182012Y0160769D01*
X0183546Y0162304D01*
X0183546Y0157700D01*
X0185081Y0157700D02*
X0188150Y0157700D01*
X0189685Y0158467D02*
X0189685Y0159235D01*
X0190452Y0160002D01*
X0191987Y0160002D01*
X0192754Y0159235D01*
X0192754Y0158467D01*
X0191987Y0157700D01*
X0190452Y0157700D01*
X0189685Y0158467D01*
X0190452Y0160002D02*
X0189685Y0160769D01*
X0189685Y0161537D01*
X0190452Y0162304D01*
X0191987Y0162304D01*
X0192754Y0161537D01*
X0192754Y0160769D01*
X0191987Y0160002D01*
X0194289Y0161537D02*
X0195056Y0162304D01*
X0196591Y0162304D01*
X0197358Y0161537D01*
X0197358Y0160769D01*
X0194289Y0157700D01*
X0197358Y0157700D01*
X0198893Y0160002D02*
X0201962Y0160002D01*
X0203497Y0160002D02*
X0206566Y0160002D01*
X0205799Y0157700D02*
X0205799Y0162304D01*
X0203497Y0160002D01*
X0201195Y0157700D02*
X0201195Y0162304D01*
X0198893Y0160002D01*
X0197335Y0153604D02*
X0197335Y0149000D01*
X0198869Y0149000D02*
X0195800Y0149000D01*
X0195800Y0152069D02*
X0197335Y0153604D01*
X0200404Y0152837D02*
X0201171Y0153604D01*
X0202706Y0153604D01*
X0203473Y0152837D01*
X0200404Y0149767D01*
X0201171Y0149000D01*
X0202706Y0149000D01*
X0203473Y0149767D01*
X0203473Y0152837D01*
X0205008Y0152837D02*
X0205008Y0149767D01*
X0208077Y0152837D01*
X0208077Y0149767D01*
X0207310Y0149000D01*
X0205775Y0149000D01*
X0205008Y0149767D01*
X0205008Y0152837D02*
X0205775Y0153604D01*
X0207310Y0153604D01*
X0208077Y0152837D01*
X0200404Y0152837D02*
X0200404Y0149767D01*
X0185081Y0157700D02*
X0185081Y0162304D01*
X0180477Y0162304D02*
X0180477Y0157700D01*
X0175873Y0157700D02*
X0175873Y0162304D01*
X0169735Y0162304D02*
X0168200Y0162304D01*
X0168967Y0162304D02*
X0168967Y0157700D01*
X0168200Y0157700D02*
X0169735Y0157700D01*
X0228276Y0170500D02*
X0230578Y0170500D01*
X0231346Y0171267D01*
X0231346Y0172035D01*
X0230578Y0172802D01*
X0228276Y0172802D01*
X0228276Y0170500D02*
X0228276Y0175104D01*
X0230578Y0175104D01*
X0231346Y0174337D01*
X0231346Y0173569D01*
X0230578Y0172802D01*
X0232880Y0171267D02*
X0233648Y0170500D01*
X0235182Y0170500D01*
X0235950Y0171267D01*
X0235950Y0175104D01*
X0237484Y0175104D02*
X0240554Y0175104D01*
X0240554Y0174337D01*
X0237484Y0171267D01*
X0237484Y0170500D01*
X0240554Y0170500D01*
X0242088Y0170500D02*
X0242088Y0171267D01*
X0245157Y0174337D01*
X0245157Y0175104D01*
X0242088Y0175104D01*
X0246692Y0175104D02*
X0246692Y0170500D01*
X0249761Y0170500D01*
X0251296Y0170500D02*
X0251296Y0175104D01*
X0253598Y0175104D01*
X0254365Y0174337D01*
X0254365Y0172802D01*
X0253598Y0172035D01*
X0251296Y0172035D01*
X0252831Y0172035D02*
X0254365Y0170500D01*
X0248227Y0172802D02*
X0246692Y0172802D01*
X0245157Y0170500D02*
X0242088Y0170500D01*
X0246692Y0175104D02*
X0249761Y0175104D01*
X0232880Y0175104D02*
X0232880Y0171267D01*
X0076316Y0179769D02*
X0075549Y0179769D01*
X0074014Y0178235D01*
X0072480Y0178235D02*
X0069410Y0178235D01*
X0069410Y0179002D02*
X0070178Y0179769D01*
X0071712Y0179769D01*
X0072480Y0179002D01*
X0072480Y0178235D01*
X0071712Y0176700D02*
X0070178Y0176700D01*
X0069410Y0177467D01*
X0069410Y0179002D01*
X0067876Y0179769D02*
X0064807Y0176700D01*
X0067876Y0176700D01*
X0071712Y0173804D02*
X0073247Y0172269D01*
X0073247Y0169200D01*
X0073247Y0171502D02*
X0070178Y0171502D01*
X0070178Y0172269D02*
X0071712Y0173804D01*
X0070178Y0172269D02*
X0070178Y0169200D01*
X0064039Y0169200D02*
X0063272Y0169200D01*
X0063272Y0169967D01*
X0064039Y0169967D01*
X0064039Y0169200D01*
X0060203Y0169200D02*
X0061737Y0172269D01*
X0058668Y0172269D02*
X0060203Y0169200D01*
X0057133Y0170735D02*
X0054064Y0170735D01*
X0054064Y0171502D02*
X0054831Y0172269D01*
X0056366Y0172269D01*
X0057133Y0171502D01*
X0057133Y0170735D01*
X0056366Y0169200D02*
X0054831Y0169200D01*
X0054064Y0169967D01*
X0054064Y0171502D01*
X0052529Y0171502D02*
X0052529Y0173037D01*
X0051762Y0173804D01*
X0049460Y0173804D01*
X0049460Y0169200D01*
X0049460Y0170735D02*
X0051762Y0170735D01*
X0052529Y0171502D01*
X0050995Y0170735D02*
X0052529Y0169200D01*
X0053297Y0176700D02*
X0050995Y0176700D01*
X0050995Y0181304D01*
X0053297Y0181304D01*
X0054064Y0180537D01*
X0054064Y0179769D01*
X0053297Y0179002D01*
X0050995Y0179002D01*
X0053297Y0179002D02*
X0054064Y0178235D01*
X0054064Y0177467D01*
X0053297Y0176700D01*
X0055599Y0177467D02*
X0056366Y0176700D01*
X0058668Y0176700D01*
X0058668Y0179769D01*
X0060203Y0179769D02*
X0063272Y0179769D01*
X0060203Y0176700D01*
X0063272Y0176700D01*
X0064807Y0179769D02*
X0067876Y0179769D01*
X0066341Y0184200D02*
X0067109Y0184967D01*
X0066341Y0185735D01*
X0064807Y0185735D01*
X0064039Y0186502D01*
X0064807Y0187269D01*
X0067109Y0187269D01*
X0066341Y0184200D02*
X0064039Y0184200D01*
X0062505Y0184200D02*
X0060203Y0184200D01*
X0059435Y0184967D01*
X0059435Y0186502D01*
X0060203Y0187269D01*
X0062505Y0187269D01*
X0057133Y0187269D02*
X0057133Y0184200D01*
X0056366Y0184200D02*
X0057901Y0184200D01*
X0054831Y0184200D02*
X0054064Y0184967D01*
X0054064Y0188037D01*
X0053297Y0187269D02*
X0054831Y0187269D01*
X0056366Y0187269D02*
X0057133Y0187269D01*
X0057133Y0188804D02*
X0057133Y0189571D01*
X0051762Y0186502D02*
X0051762Y0184967D01*
X0050995Y0184200D01*
X0049460Y0184200D01*
X0048693Y0184967D01*
X0048693Y0186502D01*
X0049460Y0187269D01*
X0050995Y0187269D01*
X0051762Y0186502D01*
X0047158Y0186502D02*
X0047158Y0184967D01*
X0046391Y0184200D01*
X0044089Y0184200D01*
X0044089Y0188804D01*
X0044089Y0187269D02*
X0046391Y0187269D01*
X0047158Y0186502D01*
X0042554Y0186502D02*
X0042554Y0184967D01*
X0041787Y0184200D01*
X0040252Y0184200D01*
X0039485Y0184967D01*
X0039485Y0186502D01*
X0040252Y0187269D01*
X0041787Y0187269D01*
X0042554Y0186502D01*
X0037950Y0186502D02*
X0037183Y0185735D01*
X0034881Y0185735D01*
X0036416Y0185735D02*
X0037950Y0184200D01*
X0037950Y0186502D02*
X0037950Y0188037D01*
X0037183Y0188804D01*
X0034881Y0188804D01*
X0034881Y0184200D01*
X0034114Y0179769D02*
X0035648Y0179769D01*
X0036416Y0179002D01*
X0036416Y0178235D01*
X0033346Y0178235D01*
X0033346Y0179002D02*
X0034114Y0179769D01*
X0033346Y0179002D02*
X0033346Y0177467D01*
X0034114Y0176700D01*
X0035648Y0176700D01*
X0037950Y0176700D02*
X0037950Y0179769D01*
X0037950Y0178235D02*
X0039485Y0179769D01*
X0040252Y0179769D01*
X0041787Y0179769D02*
X0041787Y0177467D01*
X0042554Y0176700D01*
X0044856Y0176700D01*
X0044856Y0175933D02*
X0044089Y0175165D01*
X0043322Y0175165D01*
X0042554Y0173804D02*
X0041020Y0173804D01*
X0040252Y0173037D01*
X0040252Y0172269D01*
X0041020Y0171502D01*
X0043322Y0171502D01*
X0043322Y0169967D02*
X0043322Y0173037D01*
X0042554Y0173804D01*
X0044856Y0175933D02*
X0044856Y0179769D01*
X0055599Y0179769D02*
X0055599Y0177467D01*
X0043322Y0169967D02*
X0042554Y0169200D01*
X0041020Y0169200D01*
X0040252Y0169967D01*
X0034114Y0172269D02*
X0033346Y0172269D01*
X0031812Y0170735D01*
X0031812Y0172269D02*
X0031812Y0169200D01*
X0030277Y0169200D02*
X0030277Y0171502D01*
X0029510Y0172269D01*
X0027975Y0172269D01*
X0027975Y0170735D02*
X0030277Y0170735D01*
X0030277Y0169200D02*
X0027975Y0169200D01*
X0027208Y0169967D01*
X0027975Y0170735D01*
X0025673Y0170735D02*
X0022604Y0170735D01*
X0022604Y0171502D02*
X0023371Y0172269D01*
X0024906Y0172269D01*
X0025673Y0171502D01*
X0025673Y0170735D01*
X0024906Y0169200D02*
X0023371Y0169200D01*
X0022604Y0169967D01*
X0022604Y0171502D01*
X0021069Y0173037D02*
X0021069Y0173804D01*
X0021069Y0173037D02*
X0019535Y0171502D01*
X0019535Y0169200D01*
X0019535Y0171502D02*
X0018000Y0173037D01*
X0018000Y0173804D01*
X0018000Y0176700D02*
X0020302Y0176700D01*
X0021069Y0177467D01*
X0021069Y0178235D01*
X0020302Y0179002D01*
X0018000Y0179002D01*
X0018000Y0176700D02*
X0018000Y0181304D01*
X0020302Y0181304D01*
X0021069Y0180537D01*
X0021069Y0179769D01*
X0020302Y0179002D01*
X0022604Y0177467D02*
X0023371Y0176700D01*
X0025673Y0176700D01*
X0025673Y0179002D01*
X0024906Y0179769D01*
X0023371Y0179769D01*
X0023371Y0178235D02*
X0025673Y0178235D01*
X0027208Y0179769D02*
X0028742Y0179769D01*
X0027975Y0180537D02*
X0027975Y0177467D01*
X0028742Y0176700D01*
X0031044Y0177467D02*
X0031812Y0176700D01*
X0031044Y0177467D02*
X0031044Y0180537D01*
X0030277Y0179769D02*
X0031812Y0179769D01*
X0028742Y0184200D02*
X0025673Y0184200D01*
X0025673Y0188804D01*
X0028742Y0188804D01*
X0027208Y0186502D02*
X0025673Y0186502D01*
X0023371Y0187269D02*
X0023371Y0184200D01*
X0022604Y0184200D02*
X0024139Y0184200D01*
X0023371Y0187269D02*
X0022604Y0187269D01*
X0021069Y0186502D02*
X0020302Y0185735D01*
X0018000Y0185735D01*
X0018000Y0184200D02*
X0018000Y0188804D01*
X0020302Y0188804D01*
X0021069Y0188037D01*
X0021069Y0186502D01*
X0023371Y0188804D02*
X0023371Y0189571D01*
X0023371Y0178235D02*
X0022604Y0177467D01*
X0074014Y0176700D02*
X0074014Y0179769D01*
X0070841Y0123404D02*
X0070841Y0118800D01*
X0071608Y0118800D02*
X0070073Y0118800D01*
X0068539Y0118800D02*
X0067004Y0118800D01*
X0067771Y0118800D02*
X0067771Y0123404D01*
X0067004Y0123404D01*
X0065469Y0121869D02*
X0065469Y0118800D01*
X0065469Y0121102D02*
X0062400Y0121102D01*
X0062400Y0121869D02*
X0063935Y0123404D01*
X0065469Y0121869D01*
X0062400Y0121869D02*
X0062400Y0118800D01*
X0062902Y0116404D02*
X0063669Y0115637D01*
X0063669Y0114869D01*
X0062902Y0114102D01*
X0063669Y0113335D01*
X0063669Y0112567D01*
X0062902Y0111800D01*
X0061367Y0111800D01*
X0060600Y0112567D01*
X0062135Y0114102D02*
X0062902Y0114102D01*
X0062902Y0116404D02*
X0061367Y0116404D01*
X0060600Y0115637D01*
X0065204Y0115637D02*
X0065971Y0116404D01*
X0067506Y0116404D01*
X0068273Y0115637D01*
X0068273Y0114869D01*
X0067506Y0114102D01*
X0068273Y0113335D01*
X0068273Y0112567D01*
X0067506Y0111800D01*
X0065971Y0111800D01*
X0065204Y0112567D01*
X0066739Y0114102D02*
X0067506Y0114102D01*
X0069808Y0112567D02*
X0069808Y0115637D01*
X0070575Y0116404D01*
X0072110Y0116404D01*
X0072877Y0115637D01*
X0069808Y0112567D01*
X0070575Y0111800D01*
X0072110Y0111800D01*
X0072877Y0112567D01*
X0072877Y0115637D01*
X0070841Y0123404D02*
X0070073Y0123404D01*
X0214791Y0022189D02*
X0214791Y0021422D01*
X0215558Y0020655D01*
X0217093Y0020655D01*
X0217860Y0019887D01*
X0217860Y0019120D01*
X0217093Y0018353D01*
X0215558Y0018353D01*
X0214791Y0019120D01*
X0214791Y0022189D02*
X0215558Y0022957D01*
X0217093Y0022957D01*
X0217860Y0022189D01*
X0219394Y0021422D02*
X0220929Y0022957D01*
X0220929Y0018353D01*
X0219394Y0018353D02*
X0222464Y0018353D01*
X0223073Y0016304D02*
X0220004Y0016304D01*
X0220004Y0014002D02*
X0221539Y0014002D01*
X0224608Y0015537D02*
X0224608Y0012467D01*
X0224608Y0008804D02*
X0224608Y0004200D01*
X0226142Y0005735D01*
X0227677Y0004200D01*
X0223073Y0004967D02*
X0223073Y0008037D01*
X0222306Y0008804D01*
X0220771Y0008804D01*
X0220004Y0008037D01*
X0220004Y0004967D01*
X0220771Y0004200D01*
X0222306Y0004200D01*
X0223073Y0004967D01*
X0224608Y0015537D02*
X0225375Y0016304D01*
X0226910Y0016304D01*
X0227677Y0015537D01*
X0243024Y0014769D02*
X0243024Y0011700D01*
X0243024Y0014002D02*
X0246093Y0014002D01*
D12*
X0238600Y0058000D02*
X0212800Y0058000D01*
X0212800Y0109000D01*
X0262000Y0109000D01*
X0262000Y0101200D01*
X0238600Y0101200D01*
X0238600Y0058000D01*
X0209200Y0068800D02*
X0209200Y0108400D01*
X0160600Y0108400D01*
X0160600Y0068800D01*
X0200200Y0068800D01*
X0209200Y0068800D01*
X0200200Y0068800D02*
X0200200Y0076600D01*
X0185200Y0076600D01*
X0185200Y0108400D01*
X0170800Y0108400D01*
X0073600Y0109600D02*
X0073600Y0077800D01*
X0058600Y0077800D01*
X0058600Y0109600D01*
X0073600Y0109600D01*
D13*
X0075650Y0108554D02*
X0077902Y0108554D01*
X0078653Y0107803D01*
X0078653Y0106302D01*
X0077902Y0105551D01*
X0075650Y0105551D01*
X0075650Y0104050D02*
X0075650Y0108554D01*
X0077151Y0105551D02*
X0078653Y0104050D01*
X0080254Y0104050D02*
X0083256Y0104050D01*
X0081755Y0104050D02*
X0081755Y0108554D01*
X0080254Y0107053D01*
X0084858Y0106302D02*
X0086359Y0107053D01*
X0087110Y0107053D01*
X0087860Y0106302D01*
X0087860Y0104801D01*
X0087110Y0104050D01*
X0085608Y0104050D01*
X0084858Y0104801D01*
X0084858Y0106302D02*
X0084858Y0108554D01*
X0087860Y0108554D01*
X0087110Y0100554D02*
X0084858Y0098302D01*
X0087860Y0098302D01*
X0087110Y0096050D02*
X0087110Y0100554D01*
X0081755Y0100554D02*
X0081755Y0096050D01*
X0080254Y0096050D02*
X0083256Y0096050D01*
X0081755Y0092354D02*
X0081755Y0087850D01*
X0080254Y0087850D02*
X0083256Y0087850D01*
X0084858Y0088601D02*
X0085608Y0087850D01*
X0087110Y0087850D01*
X0087860Y0088601D01*
X0087860Y0089351D01*
X0087110Y0090102D01*
X0086359Y0090102D01*
X0087110Y0090102D02*
X0087860Y0090853D01*
X0087860Y0091603D01*
X0087110Y0092354D01*
X0085608Y0092354D01*
X0084858Y0091603D01*
X0081755Y0092354D02*
X0080254Y0090853D01*
X0078653Y0091603D02*
X0078653Y0090102D01*
X0077902Y0089351D01*
X0075650Y0089351D01*
X0075650Y0087850D02*
X0075650Y0092354D01*
X0077902Y0092354D01*
X0078653Y0091603D01*
X0077151Y0089351D02*
X0078653Y0087850D01*
X0077902Y0084154D02*
X0075650Y0084154D01*
X0075650Y0079650D01*
X0075650Y0081151D02*
X0077902Y0081151D01*
X0078653Y0081902D01*
X0078653Y0083403D01*
X0077902Y0084154D01*
X0080254Y0082653D02*
X0081755Y0084154D01*
X0081755Y0079650D01*
X0080254Y0079650D02*
X0083256Y0079650D01*
X0084858Y0079650D02*
X0087860Y0082653D01*
X0087860Y0083403D01*
X0087110Y0084154D01*
X0085608Y0084154D01*
X0084858Y0083403D01*
X0084858Y0079650D02*
X0087860Y0079650D01*
X0078653Y0079650D02*
X0077151Y0081151D01*
X0075650Y0096050D02*
X0075650Y0100554D01*
X0077902Y0100554D01*
X0078653Y0099803D01*
X0078653Y0098302D01*
X0077902Y0097551D01*
X0075650Y0097551D01*
X0077151Y0097551D02*
X0078653Y0096050D01*
X0080254Y0099053D02*
X0081755Y0100554D01*
X0118245Y0101177D02*
X0123750Y0101177D01*
X0118245Y0097507D01*
X0123750Y0097507D01*
X0123750Y0095659D02*
X0123750Y0093824D01*
X0123750Y0094742D02*
X0118245Y0094742D01*
X0118245Y0095659D02*
X0118245Y0093824D01*
X0118245Y0091969D02*
X0122833Y0091969D01*
X0123750Y0091052D01*
X0123750Y0089217D01*
X0122833Y0088299D01*
X0118245Y0088299D01*
X0119163Y0086445D02*
X0118245Y0085527D01*
X0118245Y0082775D01*
X0123750Y0082775D01*
X0121915Y0082775D02*
X0121915Y0085527D01*
X0120998Y0086445D01*
X0119163Y0086445D01*
X0121915Y0084610D02*
X0123750Y0086445D01*
X0123750Y0080920D02*
X0120080Y0080920D01*
X0118245Y0079085D01*
X0120080Y0077250D01*
X0123750Y0077250D01*
X0120998Y0077250D02*
X0120998Y0080920D01*
X0119163Y0103032D02*
X0122833Y0103032D01*
X0123750Y0103949D01*
X0123750Y0105784D01*
X0122833Y0106702D01*
X0119163Y0106702D01*
X0118245Y0105784D01*
X0118245Y0103949D01*
X0119163Y0103032D01*
X0118245Y0114081D02*
X0120080Y0115916D01*
X0118245Y0117751D01*
X0123750Y0117751D01*
X0123750Y0119606D02*
X0123750Y0121441D01*
X0123750Y0120524D02*
X0118245Y0120524D01*
X0118245Y0121441D02*
X0118245Y0119606D01*
X0119163Y0123289D02*
X0118245Y0124207D01*
X0118245Y0126042D01*
X0119163Y0126959D01*
X0118245Y0128814D02*
X0118245Y0131566D01*
X0119163Y0132484D01*
X0120998Y0132484D01*
X0121915Y0131566D01*
X0121915Y0128814D01*
X0121915Y0130649D02*
X0123750Y0132484D01*
X0122833Y0134339D02*
X0119163Y0134339D01*
X0118245Y0135256D01*
X0118245Y0137091D01*
X0119163Y0138009D01*
X0122833Y0138009D01*
X0123750Y0137091D01*
X0123750Y0135256D01*
X0122833Y0134339D01*
X0123750Y0128814D02*
X0118245Y0128814D01*
X0122833Y0126959D02*
X0123750Y0126042D01*
X0123750Y0124207D01*
X0122833Y0123289D01*
X0119163Y0123289D01*
X0118245Y0114081D02*
X0123750Y0114081D01*
X0123750Y0145388D02*
X0118245Y0145388D01*
X0118245Y0148141D01*
X0119163Y0149058D01*
X0120998Y0149058D01*
X0121915Y0148141D01*
X0121915Y0145388D01*
X0121915Y0150913D02*
X0121915Y0153665D01*
X0120998Y0154583D01*
X0119163Y0154583D01*
X0118245Y0153665D01*
X0118245Y0150913D01*
X0123750Y0150913D01*
X0121915Y0152748D02*
X0123750Y0154583D01*
X0122833Y0156438D02*
X0119163Y0156438D01*
X0118245Y0157355D01*
X0118245Y0159190D01*
X0119163Y0160107D01*
X0122833Y0160107D01*
X0123750Y0159190D01*
X0123750Y0157355D01*
X0122833Y0156438D01*
X0108000Y0182000D02*
X0089000Y0182000D01*
X0089000Y0052000D01*
X0159000Y0052000D01*
X0159000Y0182000D01*
X0140000Y0182000D01*
X0140000Y0187000D01*
X0140000Y0182000D02*
X0108000Y0182000D01*
X0108000Y0187000D01*
X0055197Y0162094D02*
X0004803Y0162094D01*
X0004803Y0003906D01*
X0055197Y0003906D01*
X0055197Y0162094D01*
X0006969Y0126563D02*
X0006971Y0126662D01*
X0006977Y0126762D01*
X0006987Y0126861D01*
X0007001Y0126959D01*
X0007018Y0127057D01*
X0007040Y0127154D01*
X0007065Y0127250D01*
X0007094Y0127345D01*
X0007127Y0127439D01*
X0007164Y0127531D01*
X0007204Y0127622D01*
X0007248Y0127711D01*
X0007296Y0127799D01*
X0007347Y0127884D01*
X0007401Y0127967D01*
X0007458Y0128049D01*
X0007519Y0128127D01*
X0007583Y0128204D01*
X0007649Y0128277D01*
X0007719Y0128348D01*
X0007791Y0128416D01*
X0007866Y0128482D01*
X0007944Y0128544D01*
X0008024Y0128603D01*
X0008106Y0128659D01*
X0008190Y0128711D01*
X0008277Y0128760D01*
X0008365Y0128806D01*
X0008455Y0128848D01*
X0008547Y0128887D01*
X0008640Y0128922D01*
X0008734Y0128953D01*
X0008830Y0128980D01*
X0008927Y0129003D01*
X0009024Y0129023D01*
X0009122Y0129039D01*
X0009221Y0129051D01*
X0009320Y0129059D01*
X0009419Y0129063D01*
X0009519Y0129063D01*
X0009618Y0129059D01*
X0009717Y0129051D01*
X0009816Y0129039D01*
X0009914Y0129023D01*
X0010011Y0129003D01*
X0010108Y0128980D01*
X0010204Y0128953D01*
X0010298Y0128922D01*
X0010391Y0128887D01*
X0010483Y0128848D01*
X0010573Y0128806D01*
X0010661Y0128760D01*
X0010748Y0128711D01*
X0010832Y0128659D01*
X0010914Y0128603D01*
X0010994Y0128544D01*
X0011072Y0128482D01*
X0011147Y0128416D01*
X0011219Y0128348D01*
X0011289Y0128277D01*
X0011355Y0128204D01*
X0011419Y0128127D01*
X0011480Y0128049D01*
X0011537Y0127967D01*
X0011591Y0127884D01*
X0011642Y0127799D01*
X0011690Y0127711D01*
X0011734Y0127622D01*
X0011774Y0127531D01*
X0011811Y0127439D01*
X0011844Y0127345D01*
X0011873Y0127250D01*
X0011898Y0127154D01*
X0011920Y0127057D01*
X0011937Y0126959D01*
X0011951Y0126861D01*
X0011961Y0126762D01*
X0011967Y0126662D01*
X0011969Y0126563D01*
X0011967Y0126464D01*
X0011961Y0126364D01*
X0011951Y0126265D01*
X0011937Y0126167D01*
X0011920Y0126069D01*
X0011898Y0125972D01*
X0011873Y0125876D01*
X0011844Y0125781D01*
X0011811Y0125687D01*
X0011774Y0125595D01*
X0011734Y0125504D01*
X0011690Y0125415D01*
X0011642Y0125327D01*
X0011591Y0125242D01*
X0011537Y0125159D01*
X0011480Y0125077D01*
X0011419Y0124999D01*
X0011355Y0124922D01*
X0011289Y0124849D01*
X0011219Y0124778D01*
X0011147Y0124710D01*
X0011072Y0124644D01*
X0010994Y0124582D01*
X0010914Y0124523D01*
X0010832Y0124467D01*
X0010748Y0124415D01*
X0010661Y0124366D01*
X0010573Y0124320D01*
X0010483Y0124278D01*
X0010391Y0124239D01*
X0010298Y0124204D01*
X0010204Y0124173D01*
X0010108Y0124146D01*
X0010011Y0124123D01*
X0009914Y0124103D01*
X0009816Y0124087D01*
X0009717Y0124075D01*
X0009618Y0124067D01*
X0009519Y0124063D01*
X0009419Y0124063D01*
X0009320Y0124067D01*
X0009221Y0124075D01*
X0009122Y0124087D01*
X0009024Y0124103D01*
X0008927Y0124123D01*
X0008830Y0124146D01*
X0008734Y0124173D01*
X0008640Y0124204D01*
X0008547Y0124239D01*
X0008455Y0124278D01*
X0008365Y0124320D01*
X0008277Y0124366D01*
X0008190Y0124415D01*
X0008106Y0124467D01*
X0008024Y0124523D01*
X0007944Y0124582D01*
X0007866Y0124644D01*
X0007791Y0124710D01*
X0007719Y0124778D01*
X0007649Y0124849D01*
X0007583Y0124922D01*
X0007519Y0124999D01*
X0007458Y0125077D01*
X0007401Y0125159D01*
X0007347Y0125242D01*
X0007296Y0125327D01*
X0007248Y0125415D01*
X0007204Y0125504D01*
X0007164Y0125595D01*
X0007127Y0125687D01*
X0007094Y0125781D01*
X0007065Y0125876D01*
X0007040Y0125972D01*
X0007018Y0126069D01*
X0007001Y0126167D01*
X0006987Y0126265D01*
X0006977Y0126364D01*
X0006971Y0126464D01*
X0006969Y0126563D01*
X0089346Y0047654D02*
X0089346Y0004346D01*
X0132654Y0004346D01*
X0132654Y0047654D01*
X0089346Y0047654D01*
X0140650Y0019901D02*
X0141401Y0019150D01*
X0142151Y0019150D01*
X0142902Y0019901D01*
X0142902Y0023654D01*
X0142151Y0023654D02*
X0143653Y0023654D01*
X0145254Y0023654D02*
X0147506Y0023654D01*
X0148256Y0022903D01*
X0148256Y0021402D01*
X0147506Y0020651D01*
X0145254Y0020651D01*
X0145254Y0019150D02*
X0145254Y0023654D01*
X0149858Y0022903D02*
X0150608Y0023654D01*
X0152110Y0023654D01*
X0152860Y0022903D01*
X0152860Y0022153D01*
X0149858Y0019150D01*
X0152860Y0019150D01*
X0152900Y0016400D02*
X0157900Y0016400D01*
X0160400Y0013900D01*
X0160400Y0008900D01*
X0157900Y0006400D01*
X0152900Y0006400D01*
X0150400Y0008900D01*
X0150400Y0013900D01*
X0152900Y0016400D01*
X0150400Y0013900D02*
X0147900Y0016400D01*
X0142900Y0016400D01*
X0140400Y0013900D01*
X0140400Y0008900D01*
X0142900Y0006400D01*
X0147900Y0006400D01*
X0150400Y0008900D01*
X0170346Y0004346D02*
X0170346Y0047654D01*
X0213654Y0047654D01*
X0213654Y0004346D01*
X0170346Y0004346D01*
X0153710Y0041250D02*
X0152208Y0041250D01*
X0151458Y0042001D01*
X0151458Y0043502D01*
X0153710Y0043502D01*
X0154460Y0042751D01*
X0154460Y0042001D01*
X0153710Y0041250D01*
X0151458Y0043502D02*
X0152959Y0045003D01*
X0154460Y0045754D01*
X0148355Y0045754D02*
X0148355Y0041250D01*
X0146854Y0041250D02*
X0149856Y0041250D01*
X0146854Y0044253D02*
X0148355Y0045754D01*
X0145253Y0045003D02*
X0145253Y0043502D01*
X0144502Y0042751D01*
X0142250Y0042751D01*
X0142250Y0041250D02*
X0142250Y0045754D01*
X0144502Y0045754D01*
X0145253Y0045003D01*
X0143751Y0042751D02*
X0145253Y0041250D01*
X0160842Y0059250D02*
X0160842Y0063754D01*
X0163094Y0063754D01*
X0163845Y0063003D01*
X0163845Y0061502D01*
X0163094Y0060751D01*
X0160842Y0060751D01*
X0162343Y0060751D02*
X0163845Y0059250D01*
X0165446Y0060001D02*
X0165446Y0060751D01*
X0166197Y0061502D01*
X0167698Y0061502D01*
X0168449Y0060751D01*
X0168449Y0060001D01*
X0167698Y0059250D01*
X0166197Y0059250D01*
X0165446Y0060001D01*
X0166197Y0061502D02*
X0165446Y0062253D01*
X0165446Y0063003D01*
X0166197Y0063754D01*
X0167698Y0063754D01*
X0168449Y0063003D01*
X0168449Y0062253D01*
X0167698Y0061502D01*
X0167805Y0071050D02*
X0167054Y0071801D01*
X0167805Y0071050D02*
X0169306Y0071050D01*
X0170056Y0071801D01*
X0170056Y0073302D01*
X0169306Y0074053D01*
X0168555Y0074053D01*
X0167054Y0073302D01*
X0167054Y0075554D01*
X0170056Y0075554D01*
X0165453Y0074803D02*
X0165453Y0073302D01*
X0164702Y0072551D01*
X0162450Y0072551D01*
X0162450Y0071050D02*
X0162450Y0075554D01*
X0164702Y0075554D01*
X0165453Y0074803D01*
X0163951Y0072551D02*
X0165453Y0071050D01*
X0165453Y0083050D02*
X0163951Y0084551D01*
X0164702Y0084551D02*
X0162450Y0084551D01*
X0162450Y0083050D02*
X0162450Y0087554D01*
X0164702Y0087554D01*
X0165453Y0086803D01*
X0165453Y0085302D01*
X0164702Y0084551D01*
X0167054Y0083801D02*
X0167805Y0083050D01*
X0169306Y0083050D01*
X0170056Y0083801D01*
X0170056Y0084551D01*
X0169306Y0085302D01*
X0167054Y0085302D01*
X0167054Y0083801D01*
X0167054Y0085302D02*
X0168555Y0086803D01*
X0170056Y0087554D01*
X0167054Y0095050D02*
X0167054Y0095801D01*
X0170056Y0098803D01*
X0170056Y0099554D01*
X0167054Y0099554D01*
X0165453Y0098803D02*
X0165453Y0097302D01*
X0164702Y0096551D01*
X0162450Y0096551D01*
X0162450Y0095050D02*
X0162450Y0099554D01*
X0164702Y0099554D01*
X0165453Y0098803D01*
X0163951Y0096551D02*
X0165453Y0095050D01*
X0164100Y0119700D02*
X0170100Y0119700D01*
X0170600Y0121200D02*
X0170600Y0125200D01*
X0172600Y0123200D01*
X0170600Y0121200D01*
X0172600Y0121200D02*
X0172600Y0125200D01*
X0173100Y0126700D02*
X0179100Y0126700D01*
X0179100Y0119700D01*
X0173100Y0119700D01*
X0170100Y0126700D02*
X0164100Y0126700D01*
X0164100Y0119700D01*
X0164350Y0128450D02*
X0167353Y0128450D01*
X0168954Y0128450D02*
X0171956Y0128450D01*
X0173558Y0128450D02*
X0175810Y0128450D01*
X0176560Y0129201D01*
X0176560Y0132203D01*
X0175810Y0132954D01*
X0173558Y0132954D01*
X0173558Y0128450D01*
X0170455Y0130702D02*
X0168954Y0130702D01*
X0168954Y0132954D02*
X0168954Y0128450D01*
X0164350Y0128450D02*
X0164350Y0132954D01*
X0164638Y0135450D02*
X0164638Y0139954D01*
X0166890Y0139954D01*
X0167641Y0139203D01*
X0167641Y0137702D01*
X0166890Y0136951D01*
X0164638Y0136951D01*
X0166139Y0136951D02*
X0167641Y0135450D01*
X0169242Y0135450D02*
X0172245Y0135450D01*
X0170743Y0135450D02*
X0170743Y0139954D01*
X0169242Y0138453D01*
X0173846Y0138453D02*
X0175347Y0139954D01*
X0175347Y0135450D01*
X0173846Y0135450D02*
X0176849Y0135450D01*
X0179663Y0132954D02*
X0179663Y0128450D01*
X0178162Y0128450D02*
X0181164Y0128450D01*
X0183850Y0127951D02*
X0186102Y0127951D01*
X0186853Y0128702D01*
X0186853Y0130203D01*
X0186102Y0130954D01*
X0183850Y0130954D01*
X0183850Y0126450D01*
X0185351Y0127951D02*
X0186853Y0126450D01*
X0188454Y0126450D02*
X0191456Y0126450D01*
X0189955Y0126450D02*
X0189955Y0130954D01*
X0188454Y0129453D01*
X0193058Y0130203D02*
X0193058Y0127201D01*
X0196060Y0130203D01*
X0196060Y0127201D01*
X0195310Y0126450D01*
X0193808Y0126450D01*
X0193058Y0127201D01*
X0193058Y0130203D02*
X0193808Y0130954D01*
X0195310Y0130954D01*
X0196060Y0130203D01*
X0179663Y0132954D02*
X0178162Y0131453D01*
X0171956Y0132954D02*
X0168954Y0132954D01*
X0184450Y0149050D02*
X0184450Y0153554D01*
X0186702Y0153554D01*
X0187453Y0152803D01*
X0187453Y0151302D01*
X0186702Y0150551D01*
X0184450Y0150551D01*
X0185951Y0150551D02*
X0187453Y0149050D01*
X0189054Y0149801D02*
X0189805Y0149050D01*
X0191306Y0149050D01*
X0192056Y0149801D01*
X0192056Y0152803D01*
X0191306Y0153554D01*
X0189805Y0153554D01*
X0189054Y0152803D01*
X0189054Y0152053D01*
X0189805Y0151302D01*
X0192056Y0151302D01*
X0209138Y0170550D02*
X0212141Y0170550D01*
X0213742Y0171301D02*
X0214493Y0170550D01*
X0215994Y0170550D01*
X0216745Y0171301D01*
X0216745Y0172051D01*
X0215994Y0172802D01*
X0214493Y0172802D01*
X0213742Y0173553D01*
X0213742Y0174303D01*
X0214493Y0175054D01*
X0215994Y0175054D01*
X0216745Y0174303D01*
X0218346Y0173553D02*
X0219847Y0175054D01*
X0219847Y0170550D01*
X0218346Y0170550D02*
X0221349Y0170550D01*
X0209138Y0170550D02*
X0209138Y0175054D01*
X0220700Y0155300D02*
X0225700Y0155300D01*
X0209578Y0142800D02*
X0209585Y0143380D01*
X0209606Y0143959D01*
X0209642Y0144538D01*
X0209692Y0145115D01*
X0209756Y0145692D01*
X0209834Y0146266D01*
X0209926Y0146838D01*
X0210032Y0147408D01*
X0210152Y0147976D01*
X0210286Y0148540D01*
X0210434Y0149100D01*
X0210595Y0149657D01*
X0210770Y0150210D01*
X0210959Y0150758D01*
X0211161Y0151301D01*
X0211376Y0151840D01*
X0211605Y0152373D01*
X0211846Y0152900D01*
X0212100Y0153421D01*
X0212367Y0153935D01*
X0212647Y0154443D01*
X0212939Y0154944D01*
X0213243Y0155438D01*
X0213559Y0155924D01*
X0213887Y0156402D01*
X0214227Y0156872D01*
X0214578Y0157333D01*
X0214940Y0157786D01*
X0215313Y0158229D01*
X0215697Y0158664D01*
X0216092Y0159088D01*
X0216497Y0159503D01*
X0216912Y0159908D01*
X0217336Y0160303D01*
X0217771Y0160687D01*
X0218214Y0161060D01*
X0218667Y0161422D01*
X0219128Y0161773D01*
X0219598Y0162113D01*
X0220076Y0162441D01*
X0220562Y0162757D01*
X0221056Y0163061D01*
X0221557Y0163353D01*
X0222065Y0163633D01*
X0222579Y0163900D01*
X0223100Y0164154D01*
X0223627Y0164395D01*
X0224160Y0164624D01*
X0224699Y0164839D01*
X0225242Y0165041D01*
X0225790Y0165230D01*
X0226343Y0165405D01*
X0226900Y0165566D01*
X0227460Y0165714D01*
X0228024Y0165848D01*
X0228592Y0165968D01*
X0229162Y0166074D01*
X0229734Y0166166D01*
X0230308Y0166244D01*
X0230885Y0166308D01*
X0231462Y0166358D01*
X0232041Y0166394D01*
X0232620Y0166415D01*
X0233200Y0166422D01*
X0233780Y0166415D01*
X0234359Y0166394D01*
X0234938Y0166358D01*
X0235515Y0166308D01*
X0236092Y0166244D01*
X0236666Y0166166D01*
X0237238Y0166074D01*
X0237808Y0165968D01*
X0238376Y0165848D01*
X0238940Y0165714D01*
X0239500Y0165566D01*
X0240057Y0165405D01*
X0240610Y0165230D01*
X0241158Y0165041D01*
X0241701Y0164839D01*
X0242240Y0164624D01*
X0242773Y0164395D01*
X0243300Y0164154D01*
X0243821Y0163900D01*
X0244335Y0163633D01*
X0244843Y0163353D01*
X0245344Y0163061D01*
X0245838Y0162757D01*
X0246324Y0162441D01*
X0246802Y0162113D01*
X0247272Y0161773D01*
X0247733Y0161422D01*
X0248186Y0161060D01*
X0248629Y0160687D01*
X0249064Y0160303D01*
X0249488Y0159908D01*
X0249903Y0159503D01*
X0250308Y0159088D01*
X0250703Y0158664D01*
X0251087Y0158229D01*
X0251460Y0157786D01*
X0251822Y0157333D01*
X0252173Y0156872D01*
X0252513Y0156402D01*
X0252841Y0155924D01*
X0253157Y0155438D01*
X0253461Y0154944D01*
X0253753Y0154443D01*
X0254033Y0153935D01*
X0254300Y0153421D01*
X0254554Y0152900D01*
X0254795Y0152373D01*
X0255024Y0151840D01*
X0255239Y0151301D01*
X0255441Y0150758D01*
X0255630Y0150210D01*
X0255805Y0149657D01*
X0255966Y0149100D01*
X0256114Y0148540D01*
X0256248Y0147976D01*
X0256368Y0147408D01*
X0256474Y0146838D01*
X0256566Y0146266D01*
X0256644Y0145692D01*
X0256708Y0145115D01*
X0256758Y0144538D01*
X0256794Y0143959D01*
X0256815Y0143380D01*
X0256822Y0142800D01*
X0256815Y0142220D01*
X0256794Y0141641D01*
X0256758Y0141062D01*
X0256708Y0140485D01*
X0256644Y0139908D01*
X0256566Y0139334D01*
X0256474Y0138762D01*
X0256368Y0138192D01*
X0256248Y0137624D01*
X0256114Y0137060D01*
X0255966Y0136500D01*
X0255805Y0135943D01*
X0255630Y0135390D01*
X0255441Y0134842D01*
X0255239Y0134299D01*
X0255024Y0133760D01*
X0254795Y0133227D01*
X0254554Y0132700D01*
X0254300Y0132179D01*
X0254033Y0131665D01*
X0253753Y0131157D01*
X0253461Y0130656D01*
X0253157Y0130162D01*
X0252841Y0129676D01*
X0252513Y0129198D01*
X0252173Y0128728D01*
X0251822Y0128267D01*
X0251460Y0127814D01*
X0251087Y0127371D01*
X0250703Y0126936D01*
X0250308Y0126512D01*
X0249903Y0126097D01*
X0249488Y0125692D01*
X0249064Y0125297D01*
X0248629Y0124913D01*
X0248186Y0124540D01*
X0247733Y0124178D01*
X0247272Y0123827D01*
X0246802Y0123487D01*
X0246324Y0123159D01*
X0245838Y0122843D01*
X0245344Y0122539D01*
X0244843Y0122247D01*
X0244335Y0121967D01*
X0243821Y0121700D01*
X0243300Y0121446D01*
X0242773Y0121205D01*
X0242240Y0120976D01*
X0241701Y0120761D01*
X0241158Y0120559D01*
X0240610Y0120370D01*
X0240057Y0120195D01*
X0239500Y0120034D01*
X0238940Y0119886D01*
X0238376Y0119752D01*
X0237808Y0119632D01*
X0237238Y0119526D01*
X0236666Y0119434D01*
X0236092Y0119356D01*
X0235515Y0119292D01*
X0234938Y0119242D01*
X0234359Y0119206D01*
X0233780Y0119185D01*
X0233200Y0119178D01*
X0232620Y0119185D01*
X0232041Y0119206D01*
X0231462Y0119242D01*
X0230885Y0119292D01*
X0230308Y0119356D01*
X0229734Y0119434D01*
X0229162Y0119526D01*
X0228592Y0119632D01*
X0228024Y0119752D01*
X0227460Y0119886D01*
X0226900Y0120034D01*
X0226343Y0120195D01*
X0225790Y0120370D01*
X0225242Y0120559D01*
X0224699Y0120761D01*
X0224160Y0120976D01*
X0223627Y0121205D01*
X0223100Y0121446D01*
X0222579Y0121700D01*
X0222065Y0121967D01*
X0221557Y0122247D01*
X0221056Y0122539D01*
X0220562Y0122843D01*
X0220076Y0123159D01*
X0219598Y0123487D01*
X0219128Y0123827D01*
X0218667Y0124178D01*
X0218214Y0124540D01*
X0217771Y0124913D01*
X0217336Y0125297D01*
X0216912Y0125692D01*
X0216497Y0126097D01*
X0216092Y0126512D01*
X0215697Y0126936D01*
X0215313Y0127371D01*
X0214940Y0127814D01*
X0214578Y0128267D01*
X0214227Y0128728D01*
X0213887Y0129198D01*
X0213559Y0129676D01*
X0213243Y0130162D01*
X0212939Y0130656D01*
X0212647Y0131157D01*
X0212367Y0131665D01*
X0212100Y0132179D01*
X0211846Y0132700D01*
X0211605Y0133227D01*
X0211376Y0133760D01*
X0211161Y0134299D01*
X0210959Y0134842D01*
X0210770Y0135390D01*
X0210595Y0135943D01*
X0210434Y0136500D01*
X0210286Y0137060D01*
X0210152Y0137624D01*
X0210032Y0138192D01*
X0209926Y0138762D01*
X0209834Y0139334D01*
X0209756Y0139908D01*
X0209692Y0140485D01*
X0209642Y0141062D01*
X0209606Y0141641D01*
X0209585Y0142220D01*
X0209578Y0142800D01*
X0223200Y0132800D02*
X0223200Y0127800D01*
X0225700Y0130300D02*
X0220700Y0130300D01*
X0234450Y0115954D02*
X0236702Y0115954D01*
X0237453Y0115203D01*
X0237453Y0113702D01*
X0236702Y0112951D01*
X0234450Y0112951D01*
X0234450Y0111450D02*
X0234450Y0115954D01*
X0235951Y0112951D02*
X0237453Y0111450D01*
X0239054Y0111450D02*
X0242056Y0111450D01*
X0240555Y0111450D02*
X0240555Y0115954D01*
X0239054Y0114453D01*
X0236656Y0101054D02*
X0233654Y0101054D01*
X0233654Y0098802D01*
X0235155Y0099553D01*
X0235906Y0099553D01*
X0236656Y0098802D01*
X0236656Y0097301D01*
X0235906Y0096550D01*
X0234405Y0096550D01*
X0233654Y0097301D01*
X0232053Y0097301D02*
X0232053Y0100303D01*
X0231302Y0101054D01*
X0229801Y0101054D01*
X0229050Y0100303D01*
X0229050Y0097301D01*
X0229801Y0096550D01*
X0231302Y0096550D01*
X0232053Y0097301D01*
X0232053Y0096550D02*
X0230551Y0098051D01*
X0240359Y0100425D02*
X0262800Y0100425D01*
X0262800Y0052000D01*
X0240359Y0052000D01*
X0240359Y0100425D01*
X0243509Y0097276D02*
X0259650Y0097276D01*
X0259650Y0055150D01*
X0243509Y0055150D01*
X0243509Y0097276D01*
X0235906Y0086254D02*
X0233654Y0084002D01*
X0236656Y0084002D01*
X0235906Y0081750D02*
X0235906Y0086254D01*
X0232053Y0085503D02*
X0232053Y0082501D01*
X0231302Y0081750D01*
X0229801Y0081750D01*
X0229050Y0082501D01*
X0229050Y0085503D01*
X0229801Y0086254D01*
X0231302Y0086254D01*
X0232053Y0085503D01*
X0230551Y0083251D02*
X0232053Y0081750D01*
X0231902Y0070254D02*
X0232653Y0069503D01*
X0232653Y0066501D01*
X0231902Y0065750D01*
X0230401Y0065750D01*
X0229650Y0066501D01*
X0229650Y0069503D01*
X0230401Y0070254D01*
X0231902Y0070254D01*
X0234254Y0069503D02*
X0235005Y0070254D01*
X0236506Y0070254D01*
X0237256Y0069503D01*
X0237256Y0068753D01*
X0236506Y0068002D01*
X0237256Y0067251D01*
X0237256Y0066501D01*
X0236506Y0065750D01*
X0235005Y0065750D01*
X0234254Y0066501D01*
X0232653Y0065750D02*
X0231151Y0067251D01*
X0235755Y0068002D02*
X0236506Y0068002D01*
X0244750Y0050660D02*
X0244750Y0047658D01*
X0244750Y0049159D02*
X0240246Y0049159D01*
X0241747Y0047658D01*
X0240997Y0046056D02*
X0242498Y0046056D01*
X0243249Y0045306D01*
X0243249Y0043054D01*
X0244750Y0043054D02*
X0240246Y0043054D01*
X0240246Y0045306D01*
X0240997Y0046056D01*
X0240246Y0041453D02*
X0240246Y0039951D01*
X0240246Y0040702D02*
X0243999Y0040702D01*
X0244750Y0039951D01*
X0244750Y0039201D01*
X0243999Y0038450D01*
X0231060Y0039850D02*
X0228058Y0039850D01*
X0229559Y0039850D02*
X0229559Y0044354D01*
X0228058Y0042853D01*
X0226456Y0044354D02*
X0224955Y0044354D01*
X0225706Y0044354D02*
X0225706Y0040601D01*
X0224955Y0039850D01*
X0224205Y0039850D01*
X0223454Y0040601D01*
X0221853Y0040601D02*
X0221102Y0039850D01*
X0219601Y0039850D01*
X0218850Y0040601D01*
X0219601Y0042102D02*
X0221102Y0042102D01*
X0221853Y0041351D01*
X0221853Y0040601D01*
X0219601Y0042102D02*
X0218850Y0042853D01*
X0218850Y0043603D01*
X0219601Y0044354D01*
X0221102Y0044354D01*
X0221853Y0043603D01*
X0209056Y0058550D02*
X0206054Y0058550D01*
X0209056Y0061553D01*
X0209056Y0062303D01*
X0208306Y0063054D01*
X0206805Y0063054D01*
X0206054Y0062303D01*
X0204453Y0062303D02*
X0204453Y0059301D01*
X0203702Y0058550D01*
X0202201Y0058550D01*
X0201450Y0059301D01*
X0201450Y0062303D01*
X0202201Y0063054D01*
X0203702Y0063054D01*
X0204453Y0062303D01*
X0202951Y0060051D02*
X0204453Y0058550D01*
X0204453Y0071050D02*
X0202951Y0072551D01*
X0203702Y0072551D02*
X0201450Y0072551D01*
X0201450Y0071050D02*
X0201450Y0075554D01*
X0203702Y0075554D01*
X0204453Y0074803D01*
X0204453Y0073302D01*
X0203702Y0072551D01*
X0206054Y0071050D02*
X0209056Y0074053D01*
X0209056Y0074803D01*
X0208306Y0075554D01*
X0206805Y0075554D01*
X0206054Y0074803D01*
X0206054Y0071050D02*
X0209056Y0071050D01*
X0206506Y0083050D02*
X0205005Y0083050D01*
X0204254Y0083801D01*
X0202653Y0083050D02*
X0201151Y0084551D01*
X0201902Y0084551D02*
X0199650Y0084551D01*
X0199650Y0083050D02*
X0199650Y0087554D01*
X0201902Y0087554D01*
X0202653Y0086803D01*
X0202653Y0085302D01*
X0201902Y0084551D01*
X0204254Y0086803D02*
X0205005Y0087554D01*
X0206506Y0087554D01*
X0207256Y0086803D01*
X0207256Y0086053D01*
X0206506Y0085302D01*
X0207256Y0084551D01*
X0207256Y0083801D01*
X0206506Y0083050D01*
X0206506Y0085302D02*
X0205755Y0085302D01*
X0207106Y0095050D02*
X0207106Y0099554D01*
X0204854Y0097302D01*
X0207856Y0097302D01*
X0203253Y0097302D02*
X0202502Y0096551D01*
X0200250Y0096551D01*
X0200250Y0095050D02*
X0200250Y0099554D01*
X0202502Y0099554D01*
X0203253Y0098803D01*
X0203253Y0097302D01*
X0201751Y0096551D02*
X0203253Y0095050D01*
X0175856Y0177750D02*
X0172854Y0177750D01*
X0174355Y0177750D02*
X0174355Y0182254D01*
X0172854Y0180753D01*
X0171253Y0181503D02*
X0171253Y0178501D01*
X0170502Y0177750D01*
X0169001Y0177750D01*
X0168250Y0178501D01*
X0168250Y0181503D01*
X0169001Y0182254D01*
X0170502Y0182254D01*
X0171253Y0181503D01*
X0169751Y0179251D02*
X0171253Y0177750D01*
D14*
X0255048Y0099000D03*
X0261300Y0090976D03*
X0261300Y0061449D03*
X0255048Y0053500D03*
D15*
X0243200Y0122800D02*
X0242709Y0122562D01*
X0242213Y0122336D01*
X0241710Y0122122D01*
X0241203Y0121920D01*
X0240692Y0121731D01*
X0240175Y0121555D01*
X0239655Y0121391D01*
X0239130Y0121240D01*
X0238603Y0121101D01*
X0238072Y0120976D01*
X0237538Y0120864D01*
X0237001Y0120764D01*
X0236462Y0120678D01*
X0235922Y0120605D01*
X0235379Y0120545D01*
X0234836Y0120499D01*
X0234291Y0120466D01*
X0233746Y0120446D01*
X0233200Y0120439D01*
X0232654Y0120446D01*
X0232109Y0120466D01*
X0231564Y0120499D01*
X0231021Y0120545D01*
X0230478Y0120605D01*
X0229938Y0120678D01*
X0229399Y0120764D01*
X0228862Y0120864D01*
X0228328Y0120976D01*
X0227797Y0121101D01*
X0227270Y0121240D01*
X0226745Y0121391D01*
X0226225Y0121555D01*
X0225708Y0121731D01*
X0225197Y0121920D01*
X0224690Y0122122D01*
X0224187Y0122336D01*
X0223691Y0122562D01*
X0223200Y0122800D01*
X0213200Y0152800D02*
X0213444Y0153274D01*
X0213699Y0153742D01*
X0213965Y0154203D01*
X0214242Y0154659D01*
X0214530Y0155107D01*
X0214829Y0155548D01*
X0215138Y0155983D01*
X0215457Y0156409D01*
X0215787Y0156828D01*
X0216126Y0157239D01*
X0216475Y0157642D01*
X0216833Y0158036D01*
X0217201Y0158422D01*
X0217578Y0158799D01*
X0217964Y0159167D01*
X0218358Y0159525D01*
X0218761Y0159874D01*
X0219172Y0160213D01*
X0219591Y0160543D01*
X0220017Y0160862D01*
X0220452Y0161171D01*
X0220893Y0161470D01*
X0221341Y0161758D01*
X0221797Y0162035D01*
X0222258Y0162301D01*
X0222726Y0162556D01*
X0223200Y0162800D01*
X0243200Y0162800D02*
X0243674Y0162556D01*
X0244142Y0162301D01*
X0244603Y0162035D01*
X0245059Y0161758D01*
X0245507Y0161470D01*
X0245948Y0161171D01*
X0246383Y0160862D01*
X0246809Y0160543D01*
X0247228Y0160213D01*
X0247639Y0159874D01*
X0248042Y0159525D01*
X0248436Y0159167D01*
X0248822Y0158799D01*
X0249199Y0158422D01*
X0249567Y0158036D01*
X0249925Y0157642D01*
X0250274Y0157239D01*
X0250613Y0156828D01*
X0250943Y0156409D01*
X0251262Y0155983D01*
X0251571Y0155548D01*
X0251870Y0155107D01*
X0252158Y0154659D01*
X0252435Y0154203D01*
X0252701Y0153742D01*
X0252956Y0153274D01*
X0253200Y0152800D01*
D16*
X0226712Y0101756D02*
X0224350Y0101756D01*
X0226712Y0101756D02*
X0226712Y0098606D01*
X0218050Y0101756D02*
X0215688Y0101756D01*
X0215688Y0098606D01*
X0215688Y0085756D02*
X0215688Y0082606D01*
X0215688Y0085756D02*
X0218050Y0085756D01*
X0224350Y0085756D02*
X0226712Y0085756D01*
X0226712Y0082606D01*
X0226712Y0069756D02*
X0224350Y0069756D01*
X0226712Y0069756D02*
X0226712Y0066606D01*
X0218050Y0069756D02*
X0215688Y0069756D01*
X0215688Y0066606D01*
X0198512Y0060756D02*
X0198512Y0057606D01*
X0198512Y0060756D02*
X0196150Y0060756D01*
X0189850Y0060756D02*
X0187488Y0060756D01*
X0187488Y0057606D01*
X0219063Y0037150D02*
X0219063Y0030850D01*
X0219062Y0030850D02*
X0219077Y0030789D01*
X0219095Y0030728D01*
X0219117Y0030669D01*
X0219142Y0030611D01*
X0219172Y0030556D01*
X0219204Y0030502D01*
X0219240Y0030450D01*
X0219279Y0030400D01*
X0219321Y0030353D01*
X0219366Y0030309D01*
X0219414Y0030268D01*
X0219464Y0030230D01*
X0219517Y0030195D01*
X0219571Y0030163D01*
X0219628Y0030135D01*
X0219686Y0030110D01*
X0219745Y0030089D01*
X0219806Y0030072D01*
X0219868Y0030059D01*
X0219930Y0030050D01*
X0219993Y0030044D01*
X0220056Y0030043D01*
X0220119Y0030046D01*
X0220182Y0030052D01*
X0220244Y0030062D01*
X0225756Y0030062D02*
X0225816Y0030052D01*
X0225876Y0030046D01*
X0225937Y0030043D01*
X0225997Y0030044D01*
X0226058Y0030048D01*
X0226118Y0030057D01*
X0226177Y0030068D01*
X0226236Y0030084D01*
X0226294Y0030103D01*
X0226350Y0030125D01*
X0226405Y0030151D01*
X0226458Y0030180D01*
X0226510Y0030212D01*
X0226559Y0030247D01*
X0226607Y0030285D01*
X0226651Y0030326D01*
X0226694Y0030369D01*
X0226733Y0030415D01*
X0226770Y0030463D01*
X0226804Y0030514D01*
X0226834Y0030566D01*
X0226862Y0030620D01*
X0226886Y0030676D01*
X0226907Y0030733D01*
X0226924Y0030791D01*
X0226938Y0030850D01*
X0226937Y0030850D02*
X0226937Y0037150D01*
X0226938Y0037150D02*
X0226924Y0037209D01*
X0226907Y0037267D01*
X0226886Y0037324D01*
X0226862Y0037380D01*
X0226834Y0037434D01*
X0226804Y0037486D01*
X0226770Y0037537D01*
X0226733Y0037585D01*
X0226694Y0037631D01*
X0226651Y0037674D01*
X0226607Y0037715D01*
X0226559Y0037753D01*
X0226510Y0037788D01*
X0226458Y0037820D01*
X0226405Y0037849D01*
X0226350Y0037875D01*
X0226294Y0037897D01*
X0226236Y0037916D01*
X0226177Y0037932D01*
X0226118Y0037943D01*
X0226058Y0037952D01*
X0225997Y0037956D01*
X0225937Y0037957D01*
X0225876Y0037954D01*
X0225816Y0037948D01*
X0225756Y0037938D01*
X0220244Y0037938D02*
X0220182Y0037948D01*
X0220119Y0037954D01*
X0220056Y0037957D01*
X0219993Y0037956D01*
X0219930Y0037950D01*
X0219868Y0037941D01*
X0219806Y0037928D01*
X0219745Y0037911D01*
X0219686Y0037890D01*
X0219628Y0037865D01*
X0219571Y0037837D01*
X0219517Y0037805D01*
X0219464Y0037770D01*
X0219414Y0037732D01*
X0219366Y0037691D01*
X0219321Y0037647D01*
X0219279Y0037600D01*
X0219240Y0037550D01*
X0219204Y0037498D01*
X0219172Y0037444D01*
X0219142Y0037389D01*
X0219117Y0037331D01*
X0219095Y0037272D01*
X0219077Y0037211D01*
X0219062Y0037150D01*
X0178512Y0169606D02*
X0178512Y0172756D01*
X0176150Y0172756D01*
X0169850Y0172756D02*
X0167488Y0172756D01*
X0167488Y0169606D01*
D17*
X0139242Y0177767D02*
X0138625Y0177150D01*
X0136774Y0177150D01*
X0136774Y0180853D01*
X0138625Y0180853D01*
X0139242Y0180236D01*
X0139242Y0179619D01*
X0138625Y0179002D01*
X0136774Y0179002D01*
X0135559Y0178384D02*
X0135559Y0177767D01*
X0134942Y0177150D01*
X0133708Y0177150D01*
X0133090Y0177767D01*
X0131876Y0177767D02*
X0131259Y0177150D01*
X0130024Y0177150D01*
X0129407Y0177767D01*
X0129407Y0180853D01*
X0131876Y0180853D02*
X0131876Y0177767D01*
X0133708Y0179002D02*
X0133090Y0179619D01*
X0133090Y0180236D01*
X0133708Y0180853D01*
X0134942Y0180853D01*
X0135559Y0180236D01*
X0134942Y0179002D02*
X0135559Y0178384D01*
X0134942Y0179002D02*
X0133708Y0179002D01*
X0138625Y0179002D02*
X0139242Y0178384D01*
X0139242Y0177767D01*
X0124510Y0177767D02*
X0123893Y0177150D01*
X0122658Y0177150D01*
X0122041Y0177767D01*
X0122041Y0179002D01*
X0122658Y0179619D01*
X0123893Y0179619D01*
X0124510Y0179002D01*
X0124510Y0177767D01*
X0120823Y0179619D02*
X0120206Y0179619D01*
X0118972Y0178384D01*
X0118972Y0177150D02*
X0118972Y0179619D01*
X0117757Y0179619D02*
X0115906Y0179619D01*
X0115289Y0179002D01*
X0115289Y0177767D01*
X0115906Y0177150D01*
X0117757Y0177150D01*
X0114068Y0177150D02*
X0112833Y0177150D01*
X0113450Y0177150D02*
X0113450Y0179619D01*
X0112833Y0179619D01*
X0113450Y0180853D02*
X0113450Y0181470D01*
X0111619Y0180853D02*
X0111619Y0177150D01*
X0109150Y0177150D02*
X0109150Y0180853D01*
X0110384Y0179619D01*
X0111619Y0180853D01*
M02*
