G75*
%MOIN*%
%OFA0B0*%
%FSLAX25Y25*%
%IPPOS*%
%LPD*%
%AMOC8*
5,1,8,0,0,1.08239X$1,22.5*
%
%ADD10C,0.07400*%
%ADD11R,0.03937X0.04331*%
%ADD12R,0.04700X0.04900*%
%ADD13R,0.03150X0.03543*%
%ADD14C,0.09000*%
%ADD15C,0.07000*%
%ADD16C,0.04943*%
%ADD17R,0.05000X0.02500*%
%ADD18C,0.01600*%
%ADD19C,0.01000*%
%ADD20C,0.00600*%
%ADD21C,0.02000*%
D10*
X0145400Y0011400D03*
X0155400Y0011400D03*
X0253548Y0061449D03*
X0253548Y0071291D03*
X0253548Y0081134D03*
X0253548Y0090976D03*
X0233200Y0130005D03*
X0233200Y0155595D03*
D11*
X0194346Y0145000D03*
X0187654Y0145000D03*
X0176546Y0145200D03*
X0169854Y0145200D03*
X0187654Y0135000D03*
X0194346Y0135000D03*
X0223854Y0113400D03*
X0230546Y0113400D03*
X0196346Y0097000D03*
X0189654Y0097000D03*
X0181346Y0097000D03*
X0174654Y0097000D03*
X0174654Y0085000D03*
X0181346Y0085000D03*
X0189654Y0085000D03*
X0196346Y0085000D03*
X0196346Y0073000D03*
X0189654Y0073000D03*
X0181346Y0073000D03*
X0174654Y0073000D03*
X0175346Y0054000D03*
X0168654Y0054000D03*
X0150346Y0036000D03*
X0143654Y0036000D03*
X0069346Y0081600D03*
X0062654Y0081600D03*
X0062654Y0089800D03*
X0069346Y0089800D03*
X0069346Y0098000D03*
X0062654Y0098000D03*
X0062654Y0106000D03*
X0069346Y0106000D03*
D12*
X0167500Y0123200D03*
X0175700Y0123200D03*
D13*
X0217460Y0095063D03*
X0224940Y0095063D03*
X0221200Y0087331D03*
X0217460Y0079063D03*
X0224940Y0079063D03*
X0221200Y0071331D03*
X0217460Y0063063D03*
X0224940Y0063063D03*
X0196740Y0054063D03*
X0189260Y0054063D03*
X0193000Y0062331D03*
X0221200Y0103331D03*
X0176740Y0166063D03*
X0169260Y0166063D03*
X0173000Y0174331D03*
D14*
X0154000Y0167000D03*
X0154000Y0157000D03*
X0154000Y0147000D03*
X0154000Y0137000D03*
X0154000Y0127000D03*
X0154000Y0117000D03*
X0154000Y0107000D03*
X0154000Y0097000D03*
X0154000Y0087000D03*
X0154000Y0077000D03*
X0154000Y0067000D03*
X0154000Y0057000D03*
X0094000Y0057000D03*
X0094000Y0067000D03*
X0094000Y0077000D03*
X0094000Y0087000D03*
X0094000Y0097000D03*
X0094000Y0107000D03*
X0094000Y0117000D03*
X0094000Y0127000D03*
X0094000Y0137000D03*
X0094000Y0147000D03*
X0094000Y0157000D03*
X0094000Y0167000D03*
D15*
X0050000Y0118000D03*
X0050000Y0108000D03*
X0050000Y0098000D03*
X0050000Y0088000D03*
X0050000Y0078000D03*
X0050000Y0068000D03*
X0050000Y0058000D03*
X0050000Y0048000D03*
X0010000Y0048000D03*
X0010000Y0058000D03*
X0010000Y0068000D03*
X0010000Y0078000D03*
X0010000Y0088000D03*
X0010000Y0098000D03*
X0010000Y0108000D03*
X0010000Y0118000D03*
D16*
X0099189Y0035843D03*
X0099189Y0016157D03*
X0122811Y0016157D03*
X0122811Y0035843D03*
X0180189Y0035843D03*
X0203811Y0035843D03*
X0203811Y0016157D03*
X0180189Y0016157D03*
D17*
X0223000Y0032228D03*
X0223000Y0035772D03*
D18*
X0004300Y0004300D02*
X0004300Y0197700D01*
X0272700Y0197700D01*
X0272700Y0004300D01*
X0004300Y0004300D01*
X0004300Y0005796D02*
X0272700Y0005796D01*
X0272700Y0007394D02*
X0159172Y0007394D01*
X0158983Y0007205D02*
X0159595Y0007817D01*
X0160104Y0008517D01*
X0160497Y0009289D01*
X0160765Y0010112D01*
X0160900Y0010967D01*
X0160900Y0011200D01*
X0155600Y0011200D01*
X0155600Y0011600D01*
X0155200Y0011600D01*
X0155200Y0016900D01*
X0154967Y0016900D01*
X0154112Y0016765D01*
X0153289Y0016497D01*
X0152517Y0016104D01*
X0151817Y0015595D01*
X0151205Y0014983D01*
X0150696Y0014283D01*
X0150400Y0013702D01*
X0150104Y0014283D01*
X0149595Y0014983D01*
X0148983Y0015595D01*
X0148283Y0016104D01*
X0147511Y0016497D01*
X0146688Y0016765D01*
X0145833Y0016900D01*
X0145600Y0016900D01*
X0145600Y0011600D01*
X0145200Y0011600D01*
X0145200Y0016900D01*
X0144967Y0016900D01*
X0144112Y0016765D01*
X0143289Y0016497D01*
X0142517Y0016104D01*
X0141817Y0015595D01*
X0141205Y0014983D01*
X0140696Y0014283D01*
X0140303Y0013511D01*
X0140035Y0012688D01*
X0139900Y0011833D01*
X0139900Y0011600D01*
X0145200Y0011600D01*
X0145200Y0011200D01*
X0139900Y0011200D01*
X0139900Y0010967D01*
X0140035Y0010112D01*
X0140303Y0009289D01*
X0140696Y0008517D01*
X0141205Y0007817D01*
X0141817Y0007205D01*
X0142517Y0006696D01*
X0143289Y0006303D01*
X0144112Y0006035D01*
X0144967Y0005900D01*
X0145200Y0005900D01*
X0145200Y0011200D01*
X0145600Y0011200D01*
X0145600Y0011600D01*
X0155200Y0011600D01*
X0155200Y0011200D01*
X0155600Y0011200D01*
X0155600Y0005900D01*
X0155833Y0005900D01*
X0156688Y0006035D01*
X0157511Y0006303D01*
X0158283Y0006696D01*
X0158983Y0007205D01*
X0160346Y0008993D02*
X0272700Y0008993D01*
X0272700Y0010591D02*
X0160840Y0010591D01*
X0160900Y0011600D02*
X0160900Y0011833D01*
X0160765Y0012688D01*
X0160497Y0013511D01*
X0160104Y0014283D01*
X0159595Y0014983D01*
X0158983Y0015595D01*
X0158283Y0016104D01*
X0157511Y0016497D01*
X0156688Y0016765D01*
X0155833Y0016900D01*
X0155600Y0016900D01*
X0155600Y0011600D01*
X0160900Y0011600D01*
X0160843Y0012190D02*
X0272700Y0012190D01*
X0272700Y0013788D02*
X0206917Y0013788D01*
X0207093Y0013964D02*
X0207683Y0015387D01*
X0207683Y0016928D01*
X0207093Y0018351D01*
X0206004Y0019440D01*
X0204581Y0020029D01*
X0203041Y0020029D01*
X0201618Y0019440D01*
X0200529Y0018351D01*
X0199939Y0016928D01*
X0199939Y0015387D01*
X0200529Y0013964D01*
X0201618Y0012875D01*
X0203041Y0012286D01*
X0204581Y0012286D01*
X0206004Y0012875D01*
X0207093Y0013964D01*
X0207682Y0015387D02*
X0272700Y0015387D01*
X0272700Y0016985D02*
X0207659Y0016985D01*
X0206860Y0018584D02*
X0272700Y0018584D01*
X0272700Y0020182D02*
X0124711Y0020182D01*
X0124711Y0019561D02*
X0124711Y0032439D01*
X0125004Y0032560D01*
X0126093Y0033649D01*
X0126215Y0033943D01*
X0140285Y0033943D01*
X0140285Y0033255D01*
X0141105Y0032435D01*
X0146202Y0032435D01*
X0146776Y0033009D01*
X0146938Y0032729D01*
X0147273Y0032394D01*
X0147683Y0032157D01*
X0148141Y0032035D01*
X0150162Y0032035D01*
X0150162Y0035816D01*
X0150531Y0035816D01*
X0150531Y0036184D01*
X0154115Y0036184D01*
X0154115Y0038402D01*
X0153992Y0038860D01*
X0153755Y0039271D01*
X0153420Y0039606D01*
X0153010Y0039843D01*
X0152552Y0039965D01*
X0150531Y0039965D01*
X0150531Y0036184D01*
X0150162Y0036184D01*
X0150162Y0039965D01*
X0148141Y0039965D01*
X0147683Y0039843D01*
X0147273Y0039606D01*
X0146938Y0039271D01*
X0146776Y0038991D01*
X0146202Y0039565D01*
X0145700Y0039565D01*
X0145700Y0043413D01*
X0153387Y0051100D01*
X0155174Y0051100D01*
X0157342Y0051998D01*
X0159002Y0053658D01*
X0159900Y0055826D01*
X0159900Y0058174D01*
X0159002Y0060342D01*
X0157344Y0062000D01*
X0157655Y0062311D01*
X0165285Y0054681D01*
X0165285Y0051255D01*
X0166105Y0050435D01*
X0171202Y0050435D01*
X0171776Y0051009D01*
X0171938Y0050729D01*
X0172273Y0050394D01*
X0172683Y0050157D01*
X0173141Y0050035D01*
X0175162Y0050035D01*
X0175162Y0053816D01*
X0175531Y0053816D01*
X0175531Y0054184D01*
X0179115Y0054184D01*
X0179115Y0056402D01*
X0179035Y0056700D01*
X0180213Y0056700D01*
X0184750Y0052163D01*
X0186285Y0052163D01*
X0186285Y0051711D01*
X0187105Y0050891D01*
X0191415Y0050891D01*
X0192235Y0051711D01*
X0192235Y0056415D01*
X0191415Y0057235D01*
X0187105Y0057235D01*
X0186285Y0056415D01*
X0186285Y0056002D01*
X0182900Y0059387D01*
X0181787Y0060500D01*
X0172467Y0060500D01*
X0169532Y0057565D01*
X0167775Y0057565D01*
X0159787Y0065554D01*
X0159900Y0065826D01*
X0159900Y0068174D01*
X0159002Y0070342D01*
X0157344Y0072000D01*
X0159002Y0073658D01*
X0159900Y0075826D01*
X0159900Y0078174D01*
X0159002Y0080342D01*
X0157344Y0082000D01*
X0159002Y0083658D01*
X0159900Y0085826D01*
X0159900Y0088174D01*
X0159731Y0088582D01*
X0161613Y0086700D01*
X0167387Y0086700D01*
X0167587Y0086900D01*
X0170885Y0086900D01*
X0170885Y0085184D01*
X0174469Y0085184D01*
X0174469Y0084816D01*
X0170885Y0084816D01*
X0170885Y0082598D01*
X0171008Y0082140D01*
X0171245Y0081729D01*
X0171580Y0081394D01*
X0171990Y0081157D01*
X0172448Y0081035D01*
X0174469Y0081035D01*
X0174469Y0084816D01*
X0174838Y0084816D01*
X0174838Y0081035D01*
X0176300Y0081035D01*
X0176300Y0079496D01*
X0177296Y0078500D01*
X0179230Y0076565D01*
X0178798Y0076565D01*
X0178224Y0075991D01*
X0178062Y0076271D01*
X0177727Y0076606D01*
X0177317Y0076843D01*
X0176859Y0076965D01*
X0174838Y0076965D01*
X0174838Y0073184D01*
X0174469Y0073184D01*
X0174469Y0072816D01*
X0170885Y0072816D01*
X0170885Y0070598D01*
X0171008Y0070140D01*
X0171245Y0069729D01*
X0171580Y0069394D01*
X0171990Y0069157D01*
X0172448Y0069035D01*
X0174469Y0069035D01*
X0174469Y0072816D01*
X0174838Y0072816D01*
X0174838Y0069035D01*
X0176859Y0069035D01*
X0177317Y0069157D01*
X0177727Y0069394D01*
X0178062Y0069729D01*
X0178224Y0070009D01*
X0178798Y0069435D01*
X0183895Y0069435D01*
X0184715Y0070255D01*
X0184715Y0071100D01*
X0186285Y0071100D01*
X0186285Y0070255D01*
X0187105Y0069435D01*
X0192202Y0069435D01*
X0193000Y0070233D01*
X0193798Y0069435D01*
X0197225Y0069435D01*
X0197229Y0069431D01*
X0218225Y0069431D01*
X0218225Y0068979D01*
X0219045Y0068159D01*
X0219869Y0068159D01*
X0217944Y0066235D01*
X0215305Y0066235D01*
X0214485Y0065415D01*
X0214485Y0064963D01*
X0195694Y0064963D01*
X0195155Y0065502D01*
X0190845Y0065502D01*
X0190025Y0064682D01*
X0190025Y0059979D01*
X0190845Y0059159D01*
X0195155Y0059159D01*
X0195975Y0059979D01*
X0195975Y0061163D01*
X0214485Y0061163D01*
X0214485Y0060711D01*
X0215305Y0059891D01*
X0219615Y0059891D01*
X0220435Y0060711D01*
X0220435Y0063351D01*
X0221965Y0064882D01*
X0221965Y0060711D01*
X0222785Y0059891D01*
X0227095Y0059891D01*
X0227915Y0060711D01*
X0227915Y0063351D01*
X0233955Y0069391D01*
X0248815Y0069391D01*
X0249224Y0068402D01*
X0250659Y0066968D01*
X0252102Y0066370D01*
X0250659Y0065772D01*
X0249224Y0064338D01*
X0248815Y0063349D01*
X0247890Y0063349D01*
X0222963Y0038422D01*
X0219920Y0038422D01*
X0219170Y0037672D01*
X0207244Y0037672D01*
X0207093Y0038036D01*
X0206004Y0039125D01*
X0204581Y0039714D01*
X0203041Y0039714D01*
X0201618Y0039125D01*
X0200529Y0038036D01*
X0199939Y0036613D01*
X0199939Y0035072D01*
X0200529Y0033649D01*
X0201618Y0032560D01*
X0203041Y0031971D01*
X0204581Y0031971D01*
X0206004Y0032560D01*
X0207093Y0033649D01*
X0207185Y0033872D01*
X0218742Y0033872D01*
X0218700Y0033715D01*
X0218700Y0032228D01*
X0218700Y0030741D01*
X0218823Y0030284D01*
X0219060Y0029873D01*
X0219395Y0029538D01*
X0219805Y0029301D01*
X0220263Y0029178D01*
X0223000Y0029178D01*
X0225737Y0029178D01*
X0226195Y0029301D01*
X0226605Y0029538D01*
X0226940Y0029873D01*
X0227177Y0030284D01*
X0227300Y0030741D01*
X0227300Y0032228D01*
X0223000Y0032228D01*
X0223000Y0029178D01*
X0223000Y0032228D01*
X0223000Y0032228D01*
X0218700Y0032228D01*
X0223000Y0032228D01*
X0223000Y0032228D01*
X0223000Y0032228D01*
X0227300Y0032228D01*
X0227300Y0033715D01*
X0227177Y0034173D01*
X0226940Y0034584D01*
X0226900Y0034624D01*
X0226900Y0036985D01*
X0249005Y0059090D01*
X0249224Y0058560D01*
X0250659Y0057125D01*
X0252534Y0056349D01*
X0254562Y0056349D01*
X0256437Y0057125D01*
X0257872Y0058560D01*
X0258648Y0060434D01*
X0258648Y0062463D01*
X0257872Y0064338D01*
X0256437Y0065772D01*
X0254994Y0066370D01*
X0256437Y0066968D01*
X0257872Y0068402D01*
X0258648Y0070277D01*
X0258648Y0072306D01*
X0257872Y0074180D01*
X0256437Y0075615D01*
X0254994Y0076213D01*
X0256437Y0076810D01*
X0257872Y0078245D01*
X0258648Y0080119D01*
X0258648Y0082148D01*
X0257872Y0084023D01*
X0256437Y0085457D01*
X0254994Y0086055D01*
X0256437Y0086653D01*
X0257872Y0088087D01*
X0258648Y0089962D01*
X0258648Y0091991D01*
X0257872Y0093865D01*
X0256437Y0095300D01*
X0254562Y0096076D01*
X0252534Y0096076D01*
X0251545Y0095667D01*
X0250248Y0096963D01*
X0229527Y0096963D01*
X0230300Y0097736D01*
X0230300Y0109835D01*
X0233095Y0109835D01*
X0233915Y0110655D01*
X0233915Y0116145D01*
X0233095Y0116965D01*
X0227998Y0116965D01*
X0227200Y0116167D01*
X0226402Y0116965D01*
X0221305Y0116965D01*
X0220485Y0116145D01*
X0220485Y0110655D01*
X0221305Y0109835D01*
X0222900Y0109835D01*
X0222900Y0106502D01*
X0219045Y0106502D01*
X0167185Y0106502D01*
X0165587Y0108100D02*
X0222900Y0108100D01*
X0222900Y0109699D02*
X0163988Y0109699D01*
X0162390Y0111297D02*
X0220485Y0111297D01*
X0220485Y0112896D02*
X0160791Y0112896D01*
X0159303Y0114384D02*
X0159900Y0115826D01*
X0159900Y0118174D01*
X0159002Y0120342D01*
X0157344Y0122000D01*
X0159002Y0123658D01*
X0159900Y0125826D01*
X0159900Y0128174D01*
X0159303Y0129616D01*
X0161987Y0132300D01*
X0163100Y0133413D01*
X0163100Y0139413D01*
X0166485Y0142798D01*
X0166485Y0142455D01*
X0167305Y0141635D01*
X0172402Y0141635D01*
X0173200Y0142433D01*
X0173998Y0141635D01*
X0174300Y0141635D01*
X0174300Y0139787D01*
X0165600Y0131087D01*
X0165600Y0127050D01*
X0164570Y0127050D01*
X0163750Y0126230D01*
X0163750Y0120170D01*
X0164570Y0119350D01*
X0170430Y0119350D01*
X0171250Y0120170D01*
X0171250Y0126230D01*
X0170430Y0127050D01*
X0169400Y0127050D01*
X0169400Y0129513D01*
X0178100Y0138213D01*
X0178100Y0141635D01*
X0179095Y0141635D01*
X0179915Y0142455D01*
X0179915Y0147300D01*
X0182667Y0147300D01*
X0184285Y0145682D01*
X0184285Y0142255D01*
X0185105Y0141435D01*
X0190202Y0141435D01*
X0191000Y0142233D01*
X0191798Y0141435D01*
X0192446Y0141435D01*
X0192446Y0138565D01*
X0191798Y0138565D01*
X0191224Y0137991D01*
X0191062Y0138271D01*
X0190727Y0138606D01*
X0190317Y0138843D01*
X0189859Y0138965D01*
X0187838Y0138965D01*
X0187838Y0135184D01*
X0187469Y0135184D01*
X0187469Y0134816D01*
X0183885Y0134816D01*
X0183885Y0132598D01*
X0184008Y0132140D01*
X0184245Y0131729D01*
X0184580Y0131394D01*
X0184990Y0131157D01*
X0185448Y0131035D01*
X0187469Y0131035D01*
X0187469Y0134816D01*
X0187838Y0134816D01*
X0187838Y0131035D01*
X0189859Y0131035D01*
X0190317Y0131157D01*
X0190727Y0131394D01*
X0191062Y0131729D01*
X0191224Y0132009D01*
X0191798Y0131435D01*
X0196895Y0131435D01*
X0197715Y0132255D01*
X0197715Y0137745D01*
X0196895Y0138565D01*
X0196246Y0138565D01*
X0196246Y0141435D01*
X0196895Y0141435D01*
X0197715Y0142255D01*
X0197715Y0147745D01*
X0196895Y0148565D01*
X0193322Y0148565D01*
X0182900Y0158987D01*
X0181787Y0160100D01*
X0177910Y0160100D01*
X0175518Y0162491D01*
X0176740Y0162491D01*
X0176740Y0166063D01*
X0176740Y0166063D01*
X0173365Y0166063D01*
X0173365Y0164644D01*
X0172235Y0165775D01*
X0172235Y0168415D01*
X0171415Y0169235D01*
X0167105Y0169235D01*
X0166285Y0168415D01*
X0166285Y0163711D01*
X0167105Y0162891D01*
X0169744Y0162891D01*
X0176336Y0156300D01*
X0180213Y0156300D01*
X0187948Y0148565D01*
X0186775Y0148565D01*
X0184241Y0151100D01*
X0173013Y0151100D01*
X0171900Y0149987D01*
X0170678Y0148765D01*
X0167305Y0148765D01*
X0166485Y0147945D01*
X0166485Y0146900D01*
X0165213Y0146900D01*
X0164100Y0145787D01*
X0159300Y0140987D01*
X0159300Y0139622D01*
X0159002Y0140342D01*
X0157344Y0142000D01*
X0159002Y0143658D01*
X0159900Y0145826D01*
X0159900Y0148174D01*
X0159002Y0150342D01*
X0157551Y0151793D01*
X0158104Y0152195D01*
X0158805Y0152896D01*
X0159388Y0153698D01*
X0159838Y0154582D01*
X0160145Y0155525D01*
X0160300Y0156504D01*
X0160300Y0156816D01*
X0154184Y0156816D01*
X0154184Y0157184D01*
X0160300Y0157184D01*
X0160300Y0157496D01*
X0160145Y0158475D01*
X0159838Y0159418D01*
X0159388Y0160302D01*
X0158805Y0161104D01*
X0158104Y0161805D01*
X0157551Y0162207D01*
X0159002Y0163658D01*
X0159900Y0165826D01*
X0159900Y0168174D01*
X0159002Y0170342D01*
X0157342Y0172002D01*
X0155174Y0172900D01*
X0152826Y0172900D01*
X0150658Y0172002D01*
X0148998Y0170342D01*
X0148100Y0168174D01*
X0148100Y0165826D01*
X0148998Y0163658D01*
X0150449Y0162207D01*
X0149896Y0161805D01*
X0149195Y0161104D01*
X0148612Y0160302D01*
X0148162Y0159418D01*
X0147855Y0158475D01*
X0147700Y0157496D01*
X0147700Y0157184D01*
X0153816Y0157184D01*
X0153816Y0156816D01*
X0147700Y0156816D01*
X0147700Y0156504D01*
X0147855Y0155525D01*
X0148162Y0154582D01*
X0148612Y0153698D01*
X0149195Y0152896D01*
X0149896Y0152195D01*
X0150449Y0151793D01*
X0148998Y0150342D01*
X0148100Y0148174D01*
X0148100Y0145826D01*
X0148998Y0143658D01*
X0150656Y0142000D01*
X0148998Y0140342D01*
X0148100Y0138174D01*
X0148100Y0135826D01*
X0148998Y0133658D01*
X0150656Y0132000D01*
X0148998Y0130342D01*
X0148100Y0128174D01*
X0148100Y0125826D01*
X0148998Y0123658D01*
X0150656Y0122000D01*
X0148998Y0120342D01*
X0148100Y0118174D01*
X0148100Y0115826D01*
X0148998Y0113658D01*
X0150656Y0112000D01*
X0148998Y0110342D01*
X0148100Y0108174D01*
X0148100Y0105826D01*
X0148998Y0103658D01*
X0150656Y0102000D01*
X0148998Y0100342D01*
X0148100Y0098174D01*
X0148100Y0095826D01*
X0148998Y0093658D01*
X0150656Y0092000D01*
X0148998Y0090342D01*
X0148401Y0088900D01*
X0139613Y0088900D01*
X0102813Y0052100D01*
X0097444Y0052100D01*
X0099002Y0053658D01*
X0099900Y0055826D01*
X0099900Y0058174D01*
X0099002Y0060342D01*
X0097344Y0062000D01*
X0099002Y0063658D01*
X0099900Y0065826D01*
X0099900Y0068174D01*
X0099002Y0070342D01*
X0097344Y0072000D01*
X0099002Y0073658D01*
X0099900Y0075826D01*
X0099900Y0078174D01*
X0099002Y0080342D01*
X0097344Y0082000D01*
X0099002Y0083658D01*
X0099900Y0085826D01*
X0099900Y0088174D01*
X0099002Y0090342D01*
X0097344Y0092000D01*
X0099002Y0093658D01*
X0099900Y0095826D01*
X0099900Y0098174D01*
X0099002Y0100342D01*
X0097344Y0102000D01*
X0099002Y0103658D01*
X0099900Y0105826D01*
X0099900Y0108174D01*
X0099002Y0110342D01*
X0097344Y0112000D01*
X0099002Y0113658D01*
X0099900Y0115826D01*
X0099900Y0118174D01*
X0099002Y0120342D01*
X0097344Y0122000D01*
X0099002Y0123658D01*
X0099900Y0125826D01*
X0099900Y0128174D01*
X0099002Y0130342D01*
X0097551Y0131793D01*
X0098104Y0132195D01*
X0098805Y0132896D01*
X0099388Y0133698D01*
X0099838Y0134582D01*
X0100145Y0135525D01*
X0100300Y0136504D01*
X0100300Y0136816D01*
X0094184Y0136816D01*
X0094184Y0137184D01*
X0100300Y0137184D01*
X0100300Y0137496D01*
X0100145Y0138475D01*
X0099838Y0139418D01*
X0099388Y0140302D01*
X0098805Y0141104D01*
X0098104Y0141805D01*
X0097836Y0142000D01*
X0098104Y0142195D01*
X0098805Y0142896D01*
X0099388Y0143698D01*
X0099838Y0144582D01*
X0100145Y0145525D01*
X0100300Y0146504D01*
X0100300Y0146816D01*
X0094184Y0146816D01*
X0094184Y0140700D01*
X0094184Y0137184D01*
X0093816Y0137184D01*
X0093816Y0136816D01*
X0087700Y0136816D01*
X0087700Y0136504D01*
X0087855Y0135525D01*
X0088162Y0134582D01*
X0088612Y0133698D01*
X0089195Y0132896D01*
X0089896Y0132195D01*
X0090449Y0131793D01*
X0088998Y0130342D01*
X0088100Y0128174D01*
X0088100Y0125826D01*
X0088998Y0123658D01*
X0090656Y0122000D01*
X0088998Y0120342D01*
X0088100Y0118174D01*
X0088100Y0115826D01*
X0088404Y0115091D01*
X0081213Y0107900D01*
X0072715Y0107900D01*
X0072715Y0108745D01*
X0071895Y0109565D01*
X0066798Y0109565D01*
X0066000Y0108767D01*
X0065202Y0109565D01*
X0061122Y0109565D01*
X0054537Y0116150D01*
X0054900Y0117025D01*
X0054900Y0118975D01*
X0054154Y0120776D01*
X0052776Y0122154D01*
X0050975Y0122900D01*
X0049025Y0122900D01*
X0047224Y0122154D01*
X0045846Y0120776D01*
X0045100Y0118975D01*
X0045100Y0117025D01*
X0045846Y0115224D01*
X0047224Y0113846D01*
X0049025Y0113100D01*
X0050975Y0113100D01*
X0051850Y0113463D01*
X0059285Y0106028D01*
X0059285Y0103255D01*
X0060105Y0102435D01*
X0065202Y0102435D01*
X0066000Y0103233D01*
X0066798Y0102435D01*
X0071895Y0102435D01*
X0072715Y0103255D01*
X0072715Y0104100D01*
X0082787Y0104100D01*
X0083900Y0105213D01*
X0088976Y0110289D01*
X0088100Y0108174D01*
X0088100Y0105826D01*
X0088697Y0104384D01*
X0084213Y0099900D01*
X0072715Y0099900D01*
X0072715Y0100745D01*
X0071895Y0101565D01*
X0066798Y0101565D01*
X0066000Y0100767D01*
X0065202Y0101565D01*
X0060105Y0101565D01*
X0059285Y0100745D01*
X0059285Y0099900D01*
X0054517Y0099900D01*
X0054154Y0100776D01*
X0052776Y0102154D01*
X0050975Y0102900D01*
X0049025Y0102900D01*
X0047224Y0102154D01*
X0045846Y0100776D01*
X0045100Y0098975D01*
X0045100Y0097025D01*
X0045846Y0095224D01*
X0047224Y0093846D01*
X0049025Y0093100D01*
X0050975Y0093100D01*
X0052776Y0093846D01*
X0054154Y0095224D01*
X0054517Y0096100D01*
X0059285Y0096100D01*
X0059285Y0095255D01*
X0060105Y0094435D01*
X0065202Y0094435D01*
X0066000Y0095233D01*
X0066798Y0094435D01*
X0071895Y0094435D01*
X0072715Y0095255D01*
X0072715Y0096100D01*
X0085787Y0096100D01*
X0086900Y0097213D01*
X0088269Y0098582D01*
X0088100Y0098174D01*
X0088100Y0095826D01*
X0088697Y0094384D01*
X0086013Y0091700D01*
X0072715Y0091700D01*
X0072715Y0092545D01*
X0071895Y0093365D01*
X0066798Y0093365D01*
X0066000Y0092567D01*
X0065202Y0093365D01*
X0060105Y0093365D01*
X0059285Y0092545D01*
X0059285Y0088372D01*
X0055500Y0084587D01*
X0055500Y0066187D01*
X0051850Y0062537D01*
X0050975Y0062900D01*
X0049025Y0062900D01*
X0047224Y0062154D01*
X0045846Y0060776D01*
X0045100Y0058975D01*
X0045100Y0057025D01*
X0045846Y0055224D01*
X0047224Y0053846D01*
X0049025Y0053100D01*
X0050975Y0053100D01*
X0052776Y0053846D01*
X0054154Y0055224D01*
X0054900Y0057025D01*
X0054900Y0058975D01*
X0054537Y0059850D01*
X0059300Y0064613D01*
X0059300Y0078840D01*
X0060105Y0078035D01*
X0060754Y0078035D01*
X0060754Y0061441D01*
X0051850Y0052537D01*
X0050975Y0052900D01*
X0049025Y0052900D01*
X0047224Y0052154D01*
X0045846Y0050776D01*
X0045100Y0048975D01*
X0045100Y0047025D01*
X0045846Y0045224D01*
X0047224Y0043846D01*
X0049025Y0043100D01*
X0050975Y0043100D01*
X0052776Y0043846D01*
X0054154Y0045224D01*
X0054900Y0047025D01*
X0054900Y0048975D01*
X0054537Y0049850D01*
X0064554Y0059867D01*
X0064554Y0078035D01*
X0065202Y0078035D01*
X0066000Y0078833D01*
X0066798Y0078035D01*
X0071895Y0078035D01*
X0072715Y0078855D01*
X0072715Y0079700D01*
X0088732Y0079700D01*
X0088100Y0078174D01*
X0088100Y0075826D01*
X0088998Y0073658D01*
X0090656Y0072000D01*
X0088998Y0070342D01*
X0088100Y0068174D01*
X0088100Y0065826D01*
X0088998Y0063658D01*
X0090656Y0062000D01*
X0088998Y0060342D01*
X0088100Y0058174D01*
X0088100Y0055826D01*
X0088998Y0053658D01*
X0090556Y0052100D01*
X0090213Y0052100D01*
X0081213Y0043100D01*
X0047387Y0043100D01*
X0042500Y0047987D01*
X0042500Y0068187D01*
X0014537Y0096150D01*
X0014900Y0097025D01*
X0014900Y0098975D01*
X0014154Y0100776D01*
X0012776Y0102154D01*
X0010975Y0102900D01*
X0009025Y0102900D01*
X0007224Y0102154D01*
X0005846Y0100776D01*
X0005100Y0098975D01*
X0005100Y0097025D01*
X0005846Y0095224D01*
X0007224Y0093846D01*
X0009025Y0093100D01*
X0010975Y0093100D01*
X0011850Y0093463D01*
X0038700Y0066613D01*
X0038700Y0046413D01*
X0039813Y0045300D01*
X0045613Y0039500D01*
X0031187Y0039500D01*
X0014537Y0056150D01*
X0014900Y0057025D01*
X0014900Y0058975D01*
X0014154Y0060776D01*
X0012776Y0062154D01*
X0010975Y0062900D01*
X0009025Y0062900D01*
X0007224Y0062154D01*
X0005846Y0060776D01*
X0005100Y0058975D01*
X0005100Y0057025D01*
X0005846Y0055224D01*
X0007224Y0053846D01*
X0009025Y0053100D01*
X0010975Y0053100D01*
X0011850Y0053463D01*
X0029613Y0035700D01*
X0085787Y0035700D01*
X0086900Y0036813D01*
X0095387Y0045300D01*
X0107987Y0045300D01*
X0109100Y0046413D01*
X0137787Y0075100D01*
X0148401Y0075100D01*
X0148998Y0073658D01*
X0150656Y0072000D01*
X0148998Y0070342D01*
X0148100Y0068174D01*
X0148100Y0065826D01*
X0148998Y0063658D01*
X0150656Y0062000D01*
X0148998Y0060342D01*
X0148100Y0058174D01*
X0148100Y0055826D01*
X0148998Y0053658D01*
X0149785Y0052872D01*
X0143013Y0046100D01*
X0141900Y0044987D01*
X0141900Y0039565D01*
X0141105Y0039565D01*
X0140285Y0038745D01*
X0140285Y0037743D01*
X0126215Y0037743D01*
X0126093Y0038036D01*
X0125004Y0039125D01*
X0123581Y0039714D01*
X0122041Y0039714D01*
X0120618Y0039125D01*
X0119529Y0038036D01*
X0118939Y0036613D01*
X0118939Y0035072D01*
X0119529Y0033649D01*
X0120618Y0032560D01*
X0120911Y0032439D01*
X0120911Y0019561D01*
X0120618Y0019440D01*
X0119529Y0018351D01*
X0118939Y0016928D01*
X0118939Y0015387D01*
X0119529Y0013964D01*
X0120618Y0012875D01*
X0122041Y0012286D01*
X0123581Y0012286D01*
X0125004Y0012875D01*
X0126093Y0013964D01*
X0126683Y0015387D01*
X0126683Y0016928D01*
X0126093Y0018351D01*
X0125004Y0019440D01*
X0124711Y0019561D01*
X0125860Y0018584D02*
X0177140Y0018584D01*
X0176907Y0018351D02*
X0176317Y0016928D01*
X0176317Y0015387D01*
X0176907Y0013964D01*
X0177996Y0012875D01*
X0179419Y0012286D01*
X0180959Y0012286D01*
X0182382Y0012875D01*
X0183471Y0013964D01*
X0184061Y0015387D01*
X0184061Y0016928D01*
X0183471Y0018351D01*
X0182382Y0019440D01*
X0180959Y0020029D01*
X0179419Y0020029D01*
X0177996Y0019440D01*
X0176907Y0018351D01*
X0176341Y0016985D02*
X0126659Y0016985D01*
X0126682Y0015387D02*
X0141608Y0015387D01*
X0140444Y0013788D02*
X0125917Y0013788D01*
X0119705Y0013788D02*
X0102295Y0013788D01*
X0102471Y0013964D02*
X0103061Y0015387D01*
X0103061Y0016928D01*
X0102471Y0018351D01*
X0101382Y0019440D01*
X0099959Y0020029D01*
X0098419Y0020029D01*
X0096996Y0019440D01*
X0095907Y0018351D01*
X0095317Y0016928D01*
X0095317Y0015387D01*
X0095907Y0013964D01*
X0096996Y0012875D01*
X0098419Y0012286D01*
X0099959Y0012286D01*
X0101382Y0012875D01*
X0102471Y0013964D01*
X0103060Y0015387D02*
X0118940Y0015387D01*
X0118963Y0016985D02*
X0103037Y0016985D01*
X0102238Y0018584D02*
X0119762Y0018584D01*
X0120911Y0020182D02*
X0004300Y0020182D01*
X0004300Y0018584D02*
X0096140Y0018584D01*
X0095341Y0016985D02*
X0004300Y0016985D01*
X0004300Y0015387D02*
X0095318Y0015387D01*
X0096083Y0013788D02*
X0004300Y0013788D01*
X0004300Y0012190D02*
X0139957Y0012190D01*
X0139960Y0010591D02*
X0004300Y0010591D01*
X0004300Y0008993D02*
X0140454Y0008993D01*
X0141628Y0007394D02*
X0004300Y0007394D01*
X0004300Y0021781D02*
X0120911Y0021781D01*
X0120911Y0023379D02*
X0004300Y0023379D01*
X0004300Y0024978D02*
X0120911Y0024978D01*
X0120911Y0026576D02*
X0004300Y0026576D01*
X0004300Y0028175D02*
X0120911Y0028175D01*
X0120911Y0029773D02*
X0004300Y0029773D01*
X0004300Y0031372D02*
X0120911Y0031372D01*
X0120208Y0032970D02*
X0101792Y0032970D01*
X0101382Y0032560D02*
X0102471Y0033649D01*
X0103061Y0035072D01*
X0103061Y0036613D01*
X0102471Y0038036D01*
X0101382Y0039125D01*
X0099959Y0039714D01*
X0098419Y0039714D01*
X0096996Y0039125D01*
X0095907Y0038036D01*
X0095317Y0036613D01*
X0095317Y0035072D01*
X0095907Y0033649D01*
X0096996Y0032560D01*
X0098419Y0031971D01*
X0099959Y0031971D01*
X0101382Y0032560D01*
X0102852Y0034569D02*
X0119148Y0034569D01*
X0118939Y0036167D02*
X0103061Y0036167D01*
X0102583Y0037766D02*
X0119417Y0037766D01*
X0121196Y0039364D02*
X0100804Y0039364D01*
X0097574Y0039364D02*
X0089451Y0039364D01*
X0087853Y0037766D02*
X0095795Y0037766D01*
X0095317Y0036167D02*
X0086254Y0036167D01*
X0091050Y0040963D02*
X0141900Y0040963D01*
X0141900Y0042561D02*
X0092648Y0042561D01*
X0094247Y0044160D02*
X0141900Y0044160D01*
X0142671Y0045758D02*
X0108445Y0045758D01*
X0110044Y0047357D02*
X0144270Y0047357D01*
X0145868Y0048955D02*
X0111642Y0048955D01*
X0113241Y0050554D02*
X0147467Y0050554D01*
X0149065Y0052152D02*
X0114839Y0052152D01*
X0116438Y0053751D02*
X0148960Y0053751D01*
X0148298Y0055349D02*
X0118036Y0055349D01*
X0119635Y0056948D02*
X0148100Y0056948D01*
X0148254Y0058546D02*
X0121233Y0058546D01*
X0122832Y0060145D02*
X0148917Y0060145D01*
X0150400Y0061743D02*
X0124430Y0061743D01*
X0126029Y0063342D02*
X0149314Y0063342D01*
X0148467Y0064940D02*
X0127627Y0064940D01*
X0129226Y0066539D02*
X0148100Y0066539D01*
X0148100Y0068137D02*
X0130824Y0068137D01*
X0132423Y0069736D02*
X0148747Y0069736D01*
X0149991Y0071334D02*
X0134021Y0071334D01*
X0135620Y0072933D02*
X0149723Y0072933D01*
X0148636Y0074532D02*
X0137219Y0074532D01*
X0131639Y0080926D02*
X0098418Y0080926D01*
X0097868Y0082524D02*
X0133237Y0082524D01*
X0134836Y0084123D02*
X0099194Y0084123D01*
X0099856Y0085721D02*
X0136434Y0085721D01*
X0138033Y0087320D02*
X0099900Y0087320D01*
X0099592Y0088918D02*
X0148408Y0088918D01*
X0149173Y0090517D02*
X0098827Y0090517D01*
X0097459Y0092115D02*
X0150541Y0092115D01*
X0148975Y0093714D02*
X0099025Y0093714D01*
X0099687Y0095312D02*
X0148313Y0095312D01*
X0148100Y0096911D02*
X0099900Y0096911D01*
X0099761Y0098509D02*
X0148239Y0098509D01*
X0148901Y0100108D02*
X0099099Y0100108D01*
X0097638Y0101706D02*
X0150362Y0101706D01*
X0149351Y0103305D02*
X0098649Y0103305D01*
X0099518Y0104903D02*
X0148482Y0104903D01*
X0148100Y0106502D02*
X0099900Y0106502D01*
X0099900Y0108100D02*
X0148100Y0108100D01*
X0148732Y0109699D02*
X0099268Y0109699D01*
X0098047Y0111297D02*
X0149953Y0111297D01*
X0149760Y0112896D02*
X0098240Y0112896D01*
X0099348Y0114494D02*
X0148652Y0114494D01*
X0148100Y0116093D02*
X0099900Y0116093D01*
X0099900Y0117691D02*
X0148100Y0117691D01*
X0148562Y0119290D02*
X0099438Y0119290D01*
X0098455Y0120888D02*
X0149544Y0120888D01*
X0150169Y0122487D02*
X0097831Y0122487D01*
X0099179Y0124085D02*
X0148821Y0124085D01*
X0148159Y0125684D02*
X0099841Y0125684D01*
X0099900Y0127282D02*
X0148100Y0127282D01*
X0148393Y0128881D02*
X0099607Y0128881D01*
X0098864Y0130479D02*
X0149136Y0130479D01*
X0150578Y0132078D02*
X0097944Y0132078D01*
X0099373Y0133676D02*
X0148991Y0133676D01*
X0148328Y0135275D02*
X0100064Y0135275D01*
X0100145Y0138472D02*
X0148224Y0138472D01*
X0148100Y0136873D02*
X0094184Y0136873D01*
X0093816Y0136873D02*
X0004300Y0136873D01*
X0004300Y0135275D02*
X0087936Y0135275D01*
X0088627Y0133676D02*
X0004300Y0133676D01*
X0004300Y0132078D02*
X0090056Y0132078D01*
X0089136Y0130479D02*
X0004300Y0130479D01*
X0004300Y0128881D02*
X0088393Y0128881D01*
X0088100Y0127282D02*
X0004300Y0127282D01*
X0004300Y0125684D02*
X0088159Y0125684D01*
X0088821Y0124085D02*
X0004300Y0124085D01*
X0004300Y0122487D02*
X0008028Y0122487D01*
X0007224Y0122154D02*
X0005846Y0120776D01*
X0005100Y0118975D01*
X0005100Y0117025D01*
X0005846Y0115224D01*
X0007224Y0113846D01*
X0009025Y0113100D01*
X0010975Y0113100D01*
X0012776Y0113846D01*
X0014154Y0115224D01*
X0014900Y0117025D01*
X0014900Y0118975D01*
X0014154Y0120776D01*
X0012776Y0122154D01*
X0010975Y0122900D01*
X0009025Y0122900D01*
X0007224Y0122154D01*
X0005959Y0120888D02*
X0004300Y0120888D01*
X0004300Y0119290D02*
X0005231Y0119290D01*
X0005100Y0117691D02*
X0004300Y0117691D01*
X0004300Y0116093D02*
X0005486Y0116093D01*
X0006576Y0114494D02*
X0004300Y0114494D01*
X0004300Y0112896D02*
X0009015Y0112896D01*
X0009025Y0112900D02*
X0007224Y0112154D01*
X0005846Y0110776D01*
X0005100Y0108975D01*
X0005100Y0107025D01*
X0005846Y0105224D01*
X0007224Y0103846D01*
X0009025Y0103100D01*
X0010975Y0103100D01*
X0012776Y0103846D01*
X0014154Y0105224D01*
X0014900Y0107025D01*
X0014900Y0108975D01*
X0014154Y0110776D01*
X0012776Y0112154D01*
X0010975Y0112900D01*
X0009025Y0112900D01*
X0010985Y0112896D02*
X0049015Y0112896D01*
X0049025Y0112900D02*
X0047224Y0112154D01*
X0045846Y0110776D01*
X0045100Y0108975D01*
X0045100Y0107025D01*
X0045846Y0105224D01*
X0047224Y0103846D01*
X0049025Y0103100D01*
X0050975Y0103100D01*
X0052776Y0103846D01*
X0054154Y0105224D01*
X0054900Y0107025D01*
X0054900Y0108975D01*
X0054154Y0110776D01*
X0052776Y0112154D01*
X0050975Y0112900D01*
X0049025Y0112900D01*
X0050985Y0112896D02*
X0052417Y0112896D01*
X0053632Y0111297D02*
X0054016Y0111297D01*
X0054600Y0109699D02*
X0055614Y0109699D01*
X0054900Y0108100D02*
X0057213Y0108100D01*
X0058811Y0106502D02*
X0054683Y0106502D01*
X0053833Y0104903D02*
X0059285Y0104903D01*
X0059285Y0103305D02*
X0051469Y0103305D01*
X0053223Y0101706D02*
X0086019Y0101706D01*
X0084421Y0100108D02*
X0072715Y0100108D01*
X0072715Y0103305D02*
X0087618Y0103305D01*
X0088482Y0104903D02*
X0083590Y0104903D01*
X0085189Y0106502D02*
X0088100Y0106502D01*
X0088100Y0108100D02*
X0086787Y0108100D01*
X0088386Y0109699D02*
X0088732Y0109699D01*
X0086209Y0112896D02*
X0057791Y0112896D01*
X0056193Y0114494D02*
X0087807Y0114494D01*
X0088100Y0116093D02*
X0054594Y0116093D01*
X0054900Y0117691D02*
X0088100Y0117691D01*
X0088562Y0119290D02*
X0054769Y0119290D01*
X0054041Y0120888D02*
X0089545Y0120888D01*
X0090169Y0122487D02*
X0051972Y0122487D01*
X0048028Y0122487D02*
X0011972Y0122487D01*
X0014041Y0120888D02*
X0045959Y0120888D01*
X0045231Y0119290D02*
X0014769Y0119290D01*
X0014900Y0117691D02*
X0045100Y0117691D01*
X0045486Y0116093D02*
X0014514Y0116093D01*
X0013424Y0114494D02*
X0046576Y0114494D01*
X0046368Y0111297D02*
X0013632Y0111297D01*
X0014600Y0109699D02*
X0045400Y0109699D01*
X0045100Y0108100D02*
X0014900Y0108100D01*
X0014683Y0106502D02*
X0045317Y0106502D01*
X0046167Y0104903D02*
X0013833Y0104903D01*
X0011469Y0103305D02*
X0048531Y0103305D01*
X0046777Y0101706D02*
X0013223Y0101706D01*
X0014431Y0100108D02*
X0045569Y0100108D01*
X0045100Y0098509D02*
X0014900Y0098509D01*
X0014852Y0096911D02*
X0045147Y0096911D01*
X0045810Y0095312D02*
X0015375Y0095312D01*
X0016973Y0093714D02*
X0047544Y0093714D01*
X0047224Y0092154D02*
X0045846Y0090776D01*
X0045100Y0088975D01*
X0045100Y0087025D01*
X0045846Y0085224D01*
X0047224Y0083846D01*
X0049025Y0083100D01*
X0050975Y0083100D01*
X0052776Y0083846D01*
X0054154Y0085224D01*
X0054900Y0087025D01*
X0054900Y0088975D01*
X0054154Y0090776D01*
X0052776Y0092154D01*
X0050975Y0092900D01*
X0049025Y0092900D01*
X0047224Y0092154D01*
X0047186Y0092115D02*
X0018572Y0092115D01*
X0020170Y0090517D02*
X0045739Y0090517D01*
X0045100Y0088918D02*
X0021769Y0088918D01*
X0023367Y0087320D02*
X0045100Y0087320D01*
X0045640Y0085721D02*
X0024966Y0085721D01*
X0026564Y0084123D02*
X0046948Y0084123D01*
X0048118Y0082524D02*
X0028163Y0082524D01*
X0029761Y0080926D02*
X0045996Y0080926D01*
X0045846Y0080776D02*
X0045100Y0078975D01*
X0045100Y0077025D01*
X0045846Y0075224D01*
X0047224Y0073846D01*
X0049025Y0073100D01*
X0050975Y0073100D01*
X0052776Y0073846D01*
X0054154Y0075224D01*
X0054900Y0077025D01*
X0054900Y0078975D01*
X0054154Y0080776D01*
X0052776Y0082154D01*
X0050975Y0082900D01*
X0049025Y0082900D01*
X0047224Y0082154D01*
X0045846Y0080776D01*
X0045246Y0079327D02*
X0031360Y0079327D01*
X0032958Y0077729D02*
X0045100Y0077729D01*
X0045471Y0076130D02*
X0034557Y0076130D01*
X0036155Y0074532D02*
X0046539Y0074532D01*
X0047224Y0072154D02*
X0049025Y0072900D01*
X0050975Y0072900D01*
X0052776Y0072154D01*
X0054154Y0070776D01*
X0054900Y0068975D01*
X0054900Y0067025D01*
X0054154Y0065224D01*
X0052776Y0063846D01*
X0050975Y0063100D01*
X0049025Y0063100D01*
X0047224Y0063846D01*
X0045846Y0065224D01*
X0045100Y0067025D01*
X0045100Y0068975D01*
X0045846Y0070776D01*
X0047224Y0072154D01*
X0046405Y0071334D02*
X0039352Y0071334D01*
X0040951Y0069736D02*
X0045415Y0069736D01*
X0045100Y0068137D02*
X0042500Y0068137D01*
X0042500Y0066539D02*
X0045301Y0066539D01*
X0046130Y0064940D02*
X0042500Y0064940D01*
X0042500Y0063342D02*
X0048441Y0063342D01*
X0046814Y0061743D02*
X0042500Y0061743D01*
X0042500Y0060145D02*
X0045585Y0060145D01*
X0045100Y0058546D02*
X0042500Y0058546D01*
X0042500Y0056948D02*
X0045132Y0056948D01*
X0045794Y0055349D02*
X0042500Y0055349D01*
X0042500Y0053751D02*
X0047454Y0053751D01*
X0047223Y0052152D02*
X0042500Y0052152D01*
X0042500Y0050554D02*
X0045754Y0050554D01*
X0045100Y0048955D02*
X0042500Y0048955D01*
X0043130Y0047357D02*
X0045100Y0047357D01*
X0044729Y0045758D02*
X0045625Y0045758D01*
X0046327Y0044160D02*
X0046911Y0044160D01*
X0042552Y0042561D02*
X0028126Y0042561D01*
X0029724Y0040963D02*
X0044150Y0040963D01*
X0040953Y0044160D02*
X0026527Y0044160D01*
X0024929Y0045758D02*
X0039355Y0045758D01*
X0038700Y0047357D02*
X0023330Y0047357D01*
X0021732Y0048955D02*
X0038700Y0048955D01*
X0038700Y0050554D02*
X0020133Y0050554D01*
X0018535Y0052152D02*
X0038700Y0052152D01*
X0038700Y0053751D02*
X0016936Y0053751D01*
X0015338Y0055349D02*
X0038700Y0055349D01*
X0038700Y0056948D02*
X0014868Y0056948D01*
X0014900Y0058546D02*
X0038700Y0058546D01*
X0038700Y0060145D02*
X0014415Y0060145D01*
X0013186Y0061743D02*
X0038700Y0061743D01*
X0038700Y0063342D02*
X0011559Y0063342D01*
X0010975Y0063100D02*
X0012776Y0063846D01*
X0014154Y0065224D01*
X0014900Y0067025D01*
X0014900Y0068975D01*
X0014154Y0070776D01*
X0012776Y0072154D01*
X0010975Y0072900D01*
X0009025Y0072900D01*
X0007224Y0072154D01*
X0005846Y0070776D01*
X0005100Y0068975D01*
X0005100Y0067025D01*
X0005846Y0065224D01*
X0007224Y0063846D01*
X0009025Y0063100D01*
X0010975Y0063100D01*
X0008441Y0063342D02*
X0004300Y0063342D01*
X0004300Y0064940D02*
X0006130Y0064940D01*
X0005301Y0066539D02*
X0004300Y0066539D01*
X0004300Y0068137D02*
X0005100Y0068137D01*
X0005415Y0069736D02*
X0004300Y0069736D01*
X0004300Y0071334D02*
X0006405Y0071334D01*
X0007224Y0073846D02*
X0009025Y0073100D01*
X0010975Y0073100D01*
X0012776Y0073846D01*
X0014154Y0075224D01*
X0014900Y0077025D01*
X0014900Y0078975D01*
X0014154Y0080776D01*
X0012776Y0082154D01*
X0010975Y0082900D01*
X0009025Y0082900D01*
X0007224Y0082154D01*
X0005846Y0080776D01*
X0005100Y0078975D01*
X0005100Y0077025D01*
X0005846Y0075224D01*
X0007224Y0073846D01*
X0006539Y0074532D02*
X0004300Y0074532D01*
X0004300Y0076130D02*
X0005471Y0076130D01*
X0005100Y0077729D02*
X0004300Y0077729D01*
X0004300Y0079327D02*
X0005246Y0079327D01*
X0005996Y0080926D02*
X0004300Y0080926D01*
X0004300Y0082524D02*
X0008118Y0082524D01*
X0009025Y0083100D02*
X0007224Y0083846D01*
X0005846Y0085224D01*
X0005100Y0087025D01*
X0005100Y0088975D01*
X0005846Y0090776D01*
X0007224Y0092154D01*
X0009025Y0092900D01*
X0010975Y0092900D01*
X0012776Y0092154D01*
X0014154Y0090776D01*
X0014900Y0088975D01*
X0014900Y0087025D01*
X0014154Y0085224D01*
X0012776Y0083846D01*
X0010975Y0083100D01*
X0009025Y0083100D01*
X0006948Y0084123D02*
X0004300Y0084123D01*
X0004300Y0085721D02*
X0005640Y0085721D01*
X0005100Y0087320D02*
X0004300Y0087320D01*
X0004300Y0088918D02*
X0005100Y0088918D01*
X0005739Y0090517D02*
X0004300Y0090517D01*
X0004300Y0092115D02*
X0007186Y0092115D01*
X0007544Y0093714D02*
X0004300Y0093714D01*
X0004300Y0095312D02*
X0005810Y0095312D01*
X0005147Y0096911D02*
X0004300Y0096911D01*
X0004300Y0098509D02*
X0005100Y0098509D01*
X0005569Y0100108D02*
X0004300Y0100108D01*
X0004300Y0101706D02*
X0006777Y0101706D01*
X0008531Y0103305D02*
X0004300Y0103305D01*
X0004300Y0104903D02*
X0006167Y0104903D01*
X0005317Y0106502D02*
X0004300Y0106502D01*
X0004300Y0108100D02*
X0005100Y0108100D01*
X0005400Y0109699D02*
X0004300Y0109699D01*
X0004300Y0111297D02*
X0006368Y0111297D01*
X0012814Y0092115D02*
X0013198Y0092115D01*
X0014261Y0090517D02*
X0014796Y0090517D01*
X0014900Y0088918D02*
X0016395Y0088918D01*
X0014900Y0087320D02*
X0017993Y0087320D01*
X0019592Y0085721D02*
X0014360Y0085721D01*
X0013052Y0084123D02*
X0021190Y0084123D01*
X0022789Y0082524D02*
X0011882Y0082524D01*
X0014004Y0080926D02*
X0024387Y0080926D01*
X0025986Y0079327D02*
X0014754Y0079327D01*
X0014900Y0077729D02*
X0027584Y0077729D01*
X0029183Y0076130D02*
X0014529Y0076130D01*
X0013461Y0074532D02*
X0030781Y0074532D01*
X0032380Y0072933D02*
X0004300Y0072933D01*
X0013595Y0071334D02*
X0033978Y0071334D01*
X0035577Y0069736D02*
X0014585Y0069736D01*
X0014900Y0068137D02*
X0037176Y0068137D01*
X0038700Y0066539D02*
X0014699Y0066539D01*
X0013870Y0064940D02*
X0038700Y0064940D01*
X0037754Y0072933D02*
X0055500Y0072933D01*
X0055500Y0071334D02*
X0053595Y0071334D01*
X0054585Y0069736D02*
X0055500Y0069736D01*
X0055500Y0068137D02*
X0054900Y0068137D01*
X0054699Y0066539D02*
X0055500Y0066539D01*
X0054253Y0064940D02*
X0053870Y0064940D01*
X0052655Y0063342D02*
X0051559Y0063342D01*
X0054832Y0060145D02*
X0059458Y0060145D01*
X0060754Y0061743D02*
X0056430Y0061743D01*
X0058029Y0063342D02*
X0060754Y0063342D01*
X0060754Y0064940D02*
X0059300Y0064940D01*
X0059300Y0066539D02*
X0060754Y0066539D01*
X0060754Y0068137D02*
X0059300Y0068137D01*
X0059300Y0069736D02*
X0060754Y0069736D01*
X0060754Y0071334D02*
X0059300Y0071334D01*
X0059300Y0072933D02*
X0060754Y0072933D01*
X0060754Y0074532D02*
X0059300Y0074532D01*
X0059300Y0076130D02*
X0060754Y0076130D01*
X0060754Y0077729D02*
X0059300Y0077729D01*
X0055500Y0077729D02*
X0054900Y0077729D01*
X0054754Y0079327D02*
X0055500Y0079327D01*
X0055500Y0080926D02*
X0054004Y0080926D01*
X0055500Y0082524D02*
X0051882Y0082524D01*
X0053052Y0084123D02*
X0055500Y0084123D01*
X0056634Y0085721D02*
X0054360Y0085721D01*
X0054900Y0087320D02*
X0058233Y0087320D01*
X0059285Y0088918D02*
X0054900Y0088918D01*
X0054261Y0090517D02*
X0059285Y0090517D01*
X0059285Y0092115D02*
X0052814Y0092115D01*
X0052456Y0093714D02*
X0088027Y0093714D01*
X0088313Y0095312D02*
X0072715Y0095312D01*
X0072715Y0092115D02*
X0086428Y0092115D01*
X0086598Y0096911D02*
X0088100Y0096911D01*
X0086900Y0097213D02*
X0086900Y0097213D01*
X0088196Y0098509D02*
X0088239Y0098509D01*
X0081413Y0108100D02*
X0072715Y0108100D01*
X0083012Y0109699D02*
X0060988Y0109699D01*
X0059390Y0111297D02*
X0084610Y0111297D01*
X0059285Y0100108D02*
X0054431Y0100108D01*
X0054190Y0095312D02*
X0059285Y0095312D01*
X0072715Y0079327D02*
X0088578Y0079327D01*
X0088100Y0077729D02*
X0064554Y0077729D01*
X0064554Y0076130D02*
X0088100Y0076130D01*
X0088636Y0074532D02*
X0064554Y0074532D01*
X0064554Y0072933D02*
X0089723Y0072933D01*
X0089991Y0071334D02*
X0064554Y0071334D01*
X0064554Y0069736D02*
X0088747Y0069736D01*
X0088100Y0068137D02*
X0064554Y0068137D01*
X0064554Y0066539D02*
X0088100Y0066539D01*
X0088467Y0064940D02*
X0064554Y0064940D01*
X0064554Y0063342D02*
X0089314Y0063342D01*
X0090400Y0061743D02*
X0064554Y0061743D01*
X0064554Y0060145D02*
X0088917Y0060145D01*
X0088254Y0058546D02*
X0063233Y0058546D01*
X0061635Y0056948D02*
X0088100Y0056948D01*
X0088298Y0055349D02*
X0060036Y0055349D01*
X0058438Y0053751D02*
X0088960Y0053751D01*
X0090504Y0052152D02*
X0056839Y0052152D01*
X0055241Y0050554D02*
X0088667Y0050554D01*
X0087068Y0048955D02*
X0054900Y0048955D01*
X0054900Y0047357D02*
X0085470Y0047357D01*
X0083871Y0045758D02*
X0054375Y0045758D01*
X0053089Y0044160D02*
X0082273Y0044160D01*
X0095526Y0034569D02*
X0004300Y0034569D01*
X0004300Y0036167D02*
X0029146Y0036167D01*
X0027547Y0037766D02*
X0004300Y0037766D01*
X0004300Y0039364D02*
X0025949Y0039364D01*
X0024350Y0040963D02*
X0004300Y0040963D01*
X0004300Y0042561D02*
X0022752Y0042561D01*
X0021153Y0044160D02*
X0013089Y0044160D01*
X0012776Y0043846D02*
X0014154Y0045224D01*
X0014900Y0047025D01*
X0014900Y0048975D01*
X0014154Y0050776D01*
X0012776Y0052154D01*
X0010975Y0052900D01*
X0009025Y0052900D01*
X0007224Y0052154D01*
X0005846Y0050776D01*
X0005100Y0048975D01*
X0005100Y0047025D01*
X0005846Y0045224D01*
X0007224Y0043846D01*
X0009025Y0043100D01*
X0010975Y0043100D01*
X0012776Y0043846D01*
X0014375Y0045758D02*
X0019555Y0045758D01*
X0017956Y0047357D02*
X0014900Y0047357D01*
X0014900Y0048955D02*
X0016358Y0048955D01*
X0014759Y0050554D02*
X0014246Y0050554D01*
X0013161Y0052152D02*
X0012777Y0052152D01*
X0007223Y0052152D02*
X0004300Y0052152D01*
X0004300Y0050554D02*
X0005754Y0050554D01*
X0005100Y0048955D02*
X0004300Y0048955D01*
X0004300Y0047357D02*
X0005100Y0047357D01*
X0005625Y0045758D02*
X0004300Y0045758D01*
X0004300Y0044160D02*
X0006911Y0044160D01*
X0007454Y0053751D02*
X0004300Y0053751D01*
X0004300Y0055349D02*
X0005794Y0055349D01*
X0005132Y0056948D02*
X0004300Y0056948D01*
X0004300Y0058546D02*
X0005100Y0058546D01*
X0005585Y0060145D02*
X0004300Y0060145D01*
X0004300Y0061743D02*
X0006814Y0061743D01*
X0004300Y0032970D02*
X0096586Y0032970D01*
X0097496Y0052152D02*
X0102865Y0052152D01*
X0104464Y0053751D02*
X0099040Y0053751D01*
X0099702Y0055349D02*
X0106062Y0055349D01*
X0107661Y0056948D02*
X0099900Y0056948D01*
X0099746Y0058546D02*
X0109259Y0058546D01*
X0110858Y0060145D02*
X0099083Y0060145D01*
X0097600Y0061743D02*
X0112456Y0061743D01*
X0114055Y0063342D02*
X0098686Y0063342D01*
X0099533Y0064940D02*
X0115653Y0064940D01*
X0117252Y0066539D02*
X0099900Y0066539D01*
X0099900Y0068137D02*
X0118850Y0068137D01*
X0120449Y0069736D02*
X0099253Y0069736D01*
X0098009Y0071334D02*
X0122048Y0071334D01*
X0123646Y0072933D02*
X0098277Y0072933D01*
X0099364Y0074532D02*
X0125245Y0074532D01*
X0126843Y0076130D02*
X0099900Y0076130D01*
X0099900Y0077729D02*
X0128442Y0077729D01*
X0130040Y0079327D02*
X0099422Y0079327D01*
X0055500Y0076130D02*
X0054529Y0076130D01*
X0055500Y0074532D02*
X0053461Y0074532D01*
X0054900Y0058546D02*
X0057859Y0058546D01*
X0056261Y0056948D02*
X0054868Y0056948D01*
X0054662Y0055349D02*
X0054206Y0055349D01*
X0053064Y0053751D02*
X0052546Y0053751D01*
X0124426Y0039364D02*
X0140904Y0039364D01*
X0140285Y0037766D02*
X0126205Y0037766D01*
X0125414Y0032970D02*
X0140570Y0032970D01*
X0146738Y0032970D02*
X0146799Y0032970D01*
X0150162Y0032970D02*
X0150531Y0032970D01*
X0150531Y0032035D02*
X0152552Y0032035D01*
X0153010Y0032157D01*
X0153420Y0032394D01*
X0153755Y0032729D01*
X0153992Y0033140D01*
X0154115Y0033598D01*
X0154115Y0035816D01*
X0150531Y0035816D01*
X0150531Y0032035D01*
X0150531Y0034569D02*
X0150162Y0034569D01*
X0150531Y0036167D02*
X0175917Y0036167D01*
X0175917Y0036179D02*
X0175917Y0035928D01*
X0180103Y0035928D01*
X0180103Y0035757D01*
X0175917Y0035757D01*
X0175917Y0035506D01*
X0176023Y0034842D01*
X0176230Y0034203D01*
X0176536Y0033604D01*
X0176931Y0033060D01*
X0177406Y0032584D01*
X0177950Y0032189D01*
X0178549Y0031884D01*
X0179189Y0031676D01*
X0179853Y0031571D01*
X0180103Y0031571D01*
X0180103Y0035757D01*
X0180275Y0035757D01*
X0180275Y0035928D01*
X0184461Y0035928D01*
X0184461Y0036179D01*
X0184355Y0036843D01*
X0184148Y0037482D01*
X0183842Y0038081D01*
X0183447Y0038625D01*
X0182972Y0039101D01*
X0182428Y0039496D01*
X0181829Y0039801D01*
X0181189Y0040009D01*
X0180525Y0040114D01*
X0180275Y0040114D01*
X0180275Y0035928D01*
X0180103Y0035928D01*
X0180103Y0040114D01*
X0179853Y0040114D01*
X0179189Y0040009D01*
X0178549Y0039801D01*
X0177950Y0039496D01*
X0177406Y0039101D01*
X0176931Y0038625D01*
X0176536Y0038081D01*
X0176230Y0037482D01*
X0176023Y0036843D01*
X0175917Y0036179D01*
X0176111Y0034569D02*
X0154115Y0034569D01*
X0153894Y0032970D02*
X0177020Y0032970D01*
X0180103Y0032970D02*
X0180275Y0032970D01*
X0180275Y0031571D02*
X0180525Y0031571D01*
X0181189Y0031676D01*
X0181829Y0031884D01*
X0182428Y0032189D01*
X0182972Y0032584D01*
X0183447Y0033060D01*
X0183842Y0033604D01*
X0184148Y0034203D01*
X0184355Y0034842D01*
X0184461Y0035506D01*
X0184461Y0035757D01*
X0180275Y0035757D01*
X0180275Y0031571D01*
X0180275Y0034569D02*
X0180103Y0034569D01*
X0180103Y0036167D02*
X0180275Y0036167D01*
X0180275Y0037766D02*
X0180103Y0037766D01*
X0180103Y0039364D02*
X0180275Y0039364D01*
X0182609Y0039364D02*
X0202196Y0039364D01*
X0200417Y0037766D02*
X0184003Y0037766D01*
X0184461Y0036167D02*
X0199939Y0036167D01*
X0200148Y0034569D02*
X0184267Y0034569D01*
X0183358Y0032970D02*
X0201208Y0032970D01*
X0206414Y0032970D02*
X0218700Y0032970D01*
X0218700Y0031372D02*
X0124711Y0031372D01*
X0124711Y0029773D02*
X0219160Y0029773D01*
X0223000Y0029773D02*
X0223000Y0029773D01*
X0223000Y0031372D02*
X0223000Y0031372D01*
X0226840Y0029773D02*
X0272700Y0029773D01*
X0272700Y0028175D02*
X0124711Y0028175D01*
X0124711Y0026576D02*
X0272700Y0026576D01*
X0272700Y0024978D02*
X0124711Y0024978D01*
X0124711Y0023379D02*
X0272700Y0023379D01*
X0272700Y0021781D02*
X0124711Y0021781D01*
X0145200Y0015387D02*
X0145600Y0015387D01*
X0145600Y0013788D02*
X0145200Y0013788D01*
X0145200Y0012190D02*
X0145600Y0012190D01*
X0145600Y0011200D02*
X0149900Y0011200D01*
X0155200Y0011200D01*
X0155200Y0005900D01*
X0154967Y0005900D01*
X0154112Y0006035D01*
X0153289Y0006303D01*
X0152517Y0006696D01*
X0151817Y0007205D01*
X0151205Y0007817D01*
X0150696Y0008517D01*
X0150400Y0009098D01*
X0150104Y0008517D01*
X0149595Y0007817D01*
X0148983Y0007205D01*
X0148283Y0006696D01*
X0147511Y0006303D01*
X0146688Y0006035D01*
X0145833Y0005900D01*
X0145600Y0005900D01*
X0145600Y0011200D01*
X0145600Y0010591D02*
X0145200Y0010591D01*
X0145200Y0008993D02*
X0145600Y0008993D01*
X0145600Y0007394D02*
X0145200Y0007394D01*
X0149172Y0007394D02*
X0151628Y0007394D01*
X0150454Y0008993D02*
X0150346Y0008993D01*
X0150356Y0013788D02*
X0150444Y0013788D01*
X0151608Y0015387D02*
X0149192Y0015387D01*
X0155200Y0015387D02*
X0155600Y0015387D01*
X0155600Y0013788D02*
X0155200Y0013788D01*
X0155200Y0012190D02*
X0155600Y0012190D01*
X0155600Y0010591D02*
X0155200Y0010591D01*
X0155200Y0008993D02*
X0155600Y0008993D01*
X0155600Y0007394D02*
X0155200Y0007394D01*
X0160356Y0013788D02*
X0177083Y0013788D01*
X0176318Y0015387D02*
X0159192Y0015387D01*
X0183295Y0013788D02*
X0200705Y0013788D01*
X0199940Y0015387D02*
X0184060Y0015387D01*
X0184037Y0016985D02*
X0199963Y0016985D01*
X0200762Y0018584D02*
X0183238Y0018584D01*
X0176375Y0037766D02*
X0154115Y0037766D01*
X0153662Y0039364D02*
X0177769Y0039364D01*
X0177552Y0050035D02*
X0175531Y0050035D01*
X0175531Y0053816D01*
X0179115Y0053816D01*
X0179115Y0051598D01*
X0178992Y0051140D01*
X0178755Y0050729D01*
X0178420Y0050394D01*
X0178010Y0050157D01*
X0177552Y0050035D01*
X0178580Y0050554D02*
X0194695Y0050554D01*
X0194471Y0050614D02*
X0194928Y0050491D01*
X0196740Y0050491D01*
X0196740Y0054063D01*
X0196740Y0054063D01*
X0193365Y0054063D01*
X0193365Y0056072D01*
X0193488Y0056529D01*
X0193725Y0056940D01*
X0194060Y0057275D01*
X0194471Y0057512D01*
X0194928Y0057635D01*
X0196740Y0057635D01*
X0196740Y0054063D01*
X0193365Y0054063D01*
X0193365Y0052054D01*
X0193488Y0051597D01*
X0193725Y0051186D01*
X0194060Y0050851D01*
X0194471Y0050614D01*
X0193365Y0052152D02*
X0192235Y0052152D01*
X0192235Y0053751D02*
X0193365Y0053751D01*
X0193365Y0055349D02*
X0192235Y0055349D01*
X0191701Y0056948D02*
X0193733Y0056948D01*
X0195975Y0060145D02*
X0215052Y0060145D01*
X0219868Y0060145D02*
X0222532Y0060145D01*
X0221965Y0061743D02*
X0220435Y0061743D01*
X0220435Y0063342D02*
X0221965Y0063342D01*
X0218249Y0066539D02*
X0159900Y0066539D01*
X0159900Y0068137D02*
X0219847Y0068137D01*
X0227915Y0063342D02*
X0247883Y0063342D01*
X0246285Y0061743D02*
X0227915Y0061743D01*
X0227348Y0060145D02*
X0244686Y0060145D01*
X0243088Y0058546D02*
X0183741Y0058546D01*
X0185339Y0056948D02*
X0186818Y0056948D01*
X0190025Y0060145D02*
X0182142Y0060145D01*
X0181564Y0055349D02*
X0179115Y0055349D01*
X0179115Y0053751D02*
X0183162Y0053751D01*
X0186285Y0052152D02*
X0179115Y0052152D01*
X0175531Y0052152D02*
X0175162Y0052152D01*
X0175162Y0050554D02*
X0175531Y0050554D01*
X0175531Y0053751D02*
X0175162Y0053751D01*
X0172113Y0050554D02*
X0171321Y0050554D01*
X0165986Y0050554D02*
X0152841Y0050554D01*
X0151242Y0048955D02*
X0233497Y0048955D01*
X0231898Y0047357D02*
X0149644Y0047357D01*
X0148045Y0045758D02*
X0230300Y0045758D01*
X0228701Y0044160D02*
X0146447Y0044160D01*
X0145700Y0042561D02*
X0227103Y0042561D01*
X0225504Y0040963D02*
X0145700Y0040963D01*
X0146403Y0039364D02*
X0147031Y0039364D01*
X0150162Y0039364D02*
X0150531Y0039364D01*
X0150531Y0037766D02*
X0150162Y0037766D01*
X0157496Y0052152D02*
X0165285Y0052152D01*
X0165285Y0053751D02*
X0159040Y0053751D01*
X0159702Y0055349D02*
X0164617Y0055349D01*
X0163019Y0056948D02*
X0159900Y0056948D01*
X0159746Y0058546D02*
X0161420Y0058546D01*
X0159822Y0060145D02*
X0159083Y0060145D01*
X0158223Y0061743D02*
X0157600Y0061743D01*
X0160400Y0064940D02*
X0190283Y0064940D01*
X0190025Y0063342D02*
X0161999Y0063342D01*
X0163597Y0061743D02*
X0190025Y0061743D01*
X0196740Y0057635D02*
X0198552Y0057635D01*
X0199010Y0057512D01*
X0199420Y0057275D01*
X0199755Y0056940D01*
X0199992Y0056529D01*
X0200115Y0056072D01*
X0200115Y0054063D01*
X0196740Y0054063D01*
X0196740Y0054063D01*
X0196740Y0054063D01*
X0196740Y0057635D01*
X0196740Y0056948D02*
X0196740Y0056948D01*
X0196740Y0055349D02*
X0196740Y0055349D01*
X0196740Y0054063D02*
X0196740Y0054063D01*
X0196740Y0050491D01*
X0198552Y0050491D01*
X0199010Y0050614D01*
X0199420Y0050851D01*
X0199755Y0051186D01*
X0199992Y0051597D01*
X0200115Y0052054D01*
X0200115Y0054063D01*
X0196740Y0054063D01*
X0196740Y0053751D02*
X0196740Y0053751D01*
X0196740Y0052152D02*
X0196740Y0052152D01*
X0196740Y0050554D02*
X0196740Y0050554D01*
X0198785Y0050554D02*
X0235095Y0050554D01*
X0236694Y0052152D02*
X0200115Y0052152D01*
X0200115Y0053751D02*
X0238292Y0053751D01*
X0239891Y0055349D02*
X0200115Y0055349D01*
X0199747Y0056948D02*
X0241489Y0056948D01*
X0245265Y0055349D02*
X0272700Y0055349D01*
X0272700Y0053751D02*
X0243666Y0053751D01*
X0242068Y0052152D02*
X0272700Y0052152D01*
X0272700Y0050554D02*
X0240469Y0050554D01*
X0238871Y0048955D02*
X0272700Y0048955D01*
X0272700Y0047357D02*
X0237272Y0047357D01*
X0235674Y0045758D02*
X0272700Y0045758D01*
X0272700Y0044160D02*
X0234075Y0044160D01*
X0232477Y0042561D02*
X0272700Y0042561D01*
X0272700Y0040963D02*
X0230878Y0040963D01*
X0229280Y0039364D02*
X0272700Y0039364D01*
X0272700Y0037766D02*
X0227681Y0037766D01*
X0226900Y0036167D02*
X0272700Y0036167D01*
X0272700Y0034569D02*
X0226949Y0034569D01*
X0227300Y0032970D02*
X0272700Y0032970D01*
X0272700Y0031372D02*
X0227300Y0031372D01*
X0223906Y0039364D02*
X0205426Y0039364D01*
X0207205Y0037766D02*
X0219264Y0037766D01*
X0246863Y0056948D02*
X0251087Y0056948D01*
X0249238Y0058546D02*
X0248462Y0058546D01*
X0249827Y0064940D02*
X0229505Y0064940D01*
X0231103Y0066539D02*
X0251694Y0066539D01*
X0249489Y0068137D02*
X0232702Y0068137D01*
X0255402Y0066539D02*
X0272700Y0066539D01*
X0272700Y0068137D02*
X0257607Y0068137D01*
X0258424Y0069736D02*
X0272700Y0069736D01*
X0272700Y0071334D02*
X0258648Y0071334D01*
X0258388Y0072933D02*
X0272700Y0072933D01*
X0272700Y0074532D02*
X0257520Y0074532D01*
X0255193Y0076130D02*
X0272700Y0076130D01*
X0272700Y0077729D02*
X0257355Y0077729D01*
X0258320Y0079327D02*
X0272700Y0079327D01*
X0272700Y0080926D02*
X0258648Y0080926D01*
X0258492Y0082524D02*
X0272700Y0082524D01*
X0272700Y0084123D02*
X0257772Y0084123D01*
X0255800Y0085721D02*
X0272700Y0085721D01*
X0272700Y0087320D02*
X0257104Y0087320D01*
X0258216Y0088918D02*
X0272700Y0088918D01*
X0272700Y0090517D02*
X0258648Y0090517D01*
X0258597Y0092115D02*
X0272700Y0092115D01*
X0272700Y0093714D02*
X0257934Y0093714D01*
X0256407Y0095312D02*
X0272700Y0095312D01*
X0272700Y0096911D02*
X0250301Y0096911D01*
X0233915Y0111297D02*
X0272700Y0111297D01*
X0272700Y0109699D02*
X0230300Y0109699D01*
X0230300Y0108100D02*
X0272700Y0108100D01*
X0272700Y0106502D02*
X0230300Y0106502D01*
X0230300Y0104903D02*
X0272700Y0104903D01*
X0272700Y0103305D02*
X0230300Y0103305D01*
X0230300Y0101706D02*
X0272700Y0101706D01*
X0272700Y0100108D02*
X0230300Y0100108D01*
X0230300Y0098509D02*
X0272700Y0098509D01*
X0272700Y0112896D02*
X0233915Y0112896D01*
X0233915Y0114494D02*
X0272700Y0114494D01*
X0272700Y0116093D02*
X0233915Y0116093D01*
X0234214Y0124905D02*
X0232186Y0124905D01*
X0230311Y0125681D01*
X0228876Y0127116D01*
X0228100Y0128990D01*
X0228100Y0131019D01*
X0228876Y0132894D01*
X0230311Y0134328D01*
X0232186Y0135105D01*
X0234214Y0135105D01*
X0236089Y0134328D01*
X0237524Y0132894D01*
X0238300Y0131019D01*
X0238300Y0128990D01*
X0237524Y0127116D01*
X0236089Y0125681D01*
X0234214Y0124905D01*
X0236092Y0125684D02*
X0272700Y0125684D01*
X0272700Y0127282D02*
X0237593Y0127282D01*
X0238255Y0128881D02*
X0272700Y0128881D01*
X0272700Y0130479D02*
X0238300Y0130479D01*
X0237861Y0132078D02*
X0272700Y0132078D01*
X0272700Y0133676D02*
X0236741Y0133676D01*
X0229659Y0133676D02*
X0197715Y0133676D01*
X0197715Y0135275D02*
X0272700Y0135275D01*
X0272700Y0136873D02*
X0197715Y0136873D01*
X0196988Y0138472D02*
X0272700Y0138472D01*
X0272700Y0140070D02*
X0196246Y0140070D01*
X0197129Y0141669D02*
X0272700Y0141669D01*
X0272700Y0143268D02*
X0197715Y0143268D01*
X0197715Y0144866D02*
X0272700Y0144866D01*
X0272700Y0146465D02*
X0197715Y0146465D01*
X0197397Y0148063D02*
X0272700Y0148063D01*
X0272700Y0149662D02*
X0192225Y0149662D01*
X0190627Y0151260D02*
X0230339Y0151260D01*
X0230311Y0151272D02*
X0232186Y0150495D01*
X0234214Y0150495D01*
X0236089Y0151272D01*
X0237524Y0152706D01*
X0238300Y0154581D01*
X0238300Y0156610D01*
X0237524Y0158484D01*
X0236089Y0159919D01*
X0234214Y0160695D01*
X0232186Y0160695D01*
X0231697Y0160493D01*
X0215824Y0176365D01*
X0214942Y0176731D01*
X0175926Y0176731D01*
X0175155Y0177502D01*
X0170845Y0177502D01*
X0170025Y0176682D01*
X0170025Y0171979D01*
X0170845Y0171159D01*
X0175155Y0171159D01*
X0175926Y0171931D01*
X0213470Y0171931D01*
X0228303Y0157099D01*
X0228100Y0156610D01*
X0228100Y0154581D01*
X0228876Y0152706D01*
X0230311Y0151272D01*
X0228813Y0152859D02*
X0189028Y0152859D01*
X0187430Y0154457D02*
X0228151Y0154457D01*
X0228100Y0156056D02*
X0185831Y0156056D01*
X0184233Y0157654D02*
X0227747Y0157654D01*
X0226149Y0159253D02*
X0182634Y0159253D01*
X0180457Y0156056D02*
X0160229Y0156056D01*
X0160275Y0157654D02*
X0174982Y0157654D01*
X0173383Y0159253D02*
X0159892Y0159253D01*
X0158989Y0160851D02*
X0171785Y0160851D01*
X0170186Y0162450D02*
X0157794Y0162450D01*
X0159163Y0164048D02*
X0166285Y0164048D01*
X0166285Y0165647D02*
X0159826Y0165647D01*
X0159900Y0167245D02*
X0166285Y0167245D01*
X0166714Y0168844D02*
X0159622Y0168844D01*
X0158902Y0170442D02*
X0214959Y0170442D01*
X0216557Y0168844D02*
X0179811Y0168844D01*
X0179755Y0168940D02*
X0179420Y0169275D01*
X0179010Y0169512D01*
X0178552Y0169635D01*
X0176740Y0169635D01*
X0174928Y0169635D01*
X0174471Y0169512D01*
X0174060Y0169275D01*
X0173725Y0168940D01*
X0173488Y0168529D01*
X0173365Y0168072D01*
X0173365Y0166063D01*
X0176740Y0166063D01*
X0176740Y0169635D01*
X0176740Y0166063D01*
X0176740Y0166063D01*
X0176740Y0166063D01*
X0176740Y0162491D01*
X0178552Y0162491D01*
X0179010Y0162614D01*
X0179420Y0162851D01*
X0179755Y0163186D01*
X0179992Y0163597D01*
X0180115Y0164054D01*
X0180115Y0166063D01*
X0180115Y0168072D01*
X0179992Y0168529D01*
X0179755Y0168940D01*
X0180115Y0167245D02*
X0218156Y0167245D01*
X0219755Y0165647D02*
X0180115Y0165647D01*
X0180115Y0166063D02*
X0176740Y0166063D01*
X0180115Y0166063D01*
X0180113Y0164048D02*
X0221353Y0164048D01*
X0222952Y0162450D02*
X0175560Y0162450D01*
X0176740Y0164048D02*
X0176740Y0164048D01*
X0176740Y0165647D02*
X0176740Y0165647D01*
X0176740Y0166063D02*
X0176740Y0166063D01*
X0176740Y0167245D02*
X0176740Y0167245D01*
X0176740Y0168844D02*
X0176740Y0168844D01*
X0173669Y0168844D02*
X0171805Y0168844D01*
X0172235Y0167245D02*
X0173365Y0167245D01*
X0173365Y0165647D02*
X0172363Y0165647D01*
X0177159Y0160851D02*
X0224550Y0160851D01*
X0228141Y0164048D02*
X0272700Y0164048D01*
X0272700Y0162450D02*
X0229740Y0162450D01*
X0231338Y0160851D02*
X0272700Y0160851D01*
X0272700Y0159253D02*
X0236755Y0159253D01*
X0237867Y0157654D02*
X0272700Y0157654D01*
X0272700Y0156056D02*
X0238300Y0156056D01*
X0238249Y0154457D02*
X0272700Y0154457D01*
X0272700Y0152859D02*
X0237587Y0152859D01*
X0236061Y0151260D02*
X0272700Y0151260D01*
X0272700Y0165647D02*
X0226543Y0165647D01*
X0224944Y0167245D02*
X0272700Y0167245D01*
X0272700Y0168844D02*
X0223346Y0168844D01*
X0221747Y0170442D02*
X0272700Y0170442D01*
X0272700Y0172041D02*
X0220149Y0172041D01*
X0218550Y0173639D02*
X0272700Y0173639D01*
X0272700Y0175238D02*
X0216952Y0175238D01*
X0186851Y0149662D02*
X0185679Y0149662D01*
X0185253Y0151260D02*
X0158084Y0151260D01*
X0158768Y0152859D02*
X0183654Y0152859D01*
X0182056Y0154457D02*
X0159775Y0154457D01*
X0159284Y0149662D02*
X0171575Y0149662D01*
X0166603Y0148063D02*
X0159900Y0148063D01*
X0159900Y0146465D02*
X0164778Y0146465D01*
X0163179Y0144866D02*
X0159502Y0144866D01*
X0158611Y0143268D02*
X0161581Y0143268D01*
X0159982Y0141669D02*
X0157675Y0141669D01*
X0159114Y0140070D02*
X0159300Y0140070D01*
X0163100Y0138472D02*
X0172985Y0138472D01*
X0174300Y0140070D02*
X0163757Y0140070D01*
X0165356Y0141669D02*
X0167271Y0141669D01*
X0172436Y0141669D02*
X0173964Y0141669D01*
X0178100Y0140070D02*
X0192446Y0140070D01*
X0191705Y0138472D02*
X0190861Y0138472D01*
X0187838Y0138472D02*
X0187469Y0138472D01*
X0187469Y0138965D02*
X0185448Y0138965D01*
X0184990Y0138843D01*
X0184580Y0138606D01*
X0184245Y0138271D01*
X0184008Y0137860D01*
X0183885Y0137402D01*
X0183885Y0135184D01*
X0187469Y0135184D01*
X0187469Y0138965D01*
X0187469Y0136873D02*
X0187838Y0136873D01*
X0187838Y0135275D02*
X0187469Y0135275D01*
X0187469Y0133676D02*
X0187838Y0133676D01*
X0187838Y0132078D02*
X0187469Y0132078D01*
X0184043Y0132078D02*
X0171965Y0132078D01*
X0173563Y0133676D02*
X0183885Y0133676D01*
X0183885Y0135275D02*
X0175162Y0135275D01*
X0176760Y0136873D02*
X0183885Y0136873D01*
X0184446Y0138472D02*
X0178100Y0138472D01*
X0179129Y0141669D02*
X0184871Y0141669D01*
X0184285Y0143268D02*
X0179915Y0143268D01*
X0179915Y0144866D02*
X0184285Y0144866D01*
X0183502Y0146465D02*
X0179915Y0146465D01*
X0190436Y0141669D02*
X0191564Y0141669D01*
X0197538Y0132078D02*
X0228539Y0132078D01*
X0228100Y0130479D02*
X0170366Y0130479D01*
X0169400Y0128881D02*
X0228145Y0128881D01*
X0228807Y0127282D02*
X0178823Y0127282D01*
X0178745Y0127327D02*
X0178287Y0127450D01*
X0176075Y0127450D01*
X0176075Y0123575D01*
X0179850Y0123575D01*
X0179850Y0125887D01*
X0179727Y0126345D01*
X0179490Y0126755D01*
X0179155Y0127090D01*
X0178745Y0127327D01*
X0179850Y0125684D02*
X0230308Y0125684D01*
X0220485Y0116093D02*
X0159900Y0116093D01*
X0159900Y0117691D02*
X0272700Y0117691D01*
X0272700Y0119290D02*
X0179121Y0119290D01*
X0179155Y0119310D02*
X0179490Y0119645D01*
X0179727Y0120055D01*
X0179850Y0120513D01*
X0179850Y0122825D01*
X0176075Y0122825D01*
X0176075Y0123575D01*
X0175325Y0123575D01*
X0175325Y0127450D01*
X0173113Y0127450D01*
X0172655Y0127327D01*
X0172245Y0127090D01*
X0171910Y0126755D01*
X0171673Y0126345D01*
X0171550Y0125887D01*
X0171550Y0123575D01*
X0175325Y0123575D01*
X0175325Y0122825D01*
X0176075Y0122825D01*
X0176075Y0118950D01*
X0178287Y0118950D01*
X0178745Y0119073D01*
X0179155Y0119310D01*
X0179850Y0120888D02*
X0272700Y0120888D01*
X0272700Y0122487D02*
X0179850Y0122487D01*
X0179850Y0124085D02*
X0272700Y0124085D01*
X0220485Y0114494D02*
X0159348Y0114494D01*
X0159303Y0114384D02*
X0169700Y0103987D01*
X0169700Y0095704D01*
X0170904Y0094500D01*
X0170911Y0094500D01*
X0170885Y0094598D01*
X0170885Y0096816D01*
X0174469Y0096816D01*
X0174469Y0097184D01*
X0170885Y0097184D01*
X0170885Y0099402D01*
X0171008Y0099860D01*
X0171245Y0100271D01*
X0171580Y0100606D01*
X0171990Y0100843D01*
X0172448Y0100965D01*
X0174469Y0100965D01*
X0174469Y0097184D01*
X0174838Y0097184D01*
X0174838Y0100965D01*
X0176859Y0100965D01*
X0177317Y0100843D01*
X0177727Y0100606D01*
X0178062Y0100271D01*
X0178224Y0099991D01*
X0178798Y0100565D01*
X0183895Y0100565D01*
X0184715Y0099745D01*
X0184715Y0098900D01*
X0186285Y0098900D01*
X0186285Y0099745D01*
X0187105Y0100565D01*
X0192202Y0100565D01*
X0193000Y0099767D01*
X0193798Y0100565D01*
X0197225Y0100565D01*
X0197700Y0101041D01*
X0197700Y0101387D01*
X0198813Y0102500D01*
X0201544Y0105231D01*
X0218225Y0105231D01*
X0218225Y0105682D01*
X0219045Y0106502D01*
X0201216Y0104903D02*
X0168784Y0104903D01*
X0169700Y0103305D02*
X0199618Y0103305D01*
X0198019Y0101706D02*
X0169700Y0101706D01*
X0169700Y0100108D02*
X0171151Y0100108D01*
X0170885Y0098509D02*
X0169700Y0098509D01*
X0169700Y0096911D02*
X0174469Y0096911D01*
X0174469Y0098509D02*
X0174838Y0098509D01*
X0174838Y0100108D02*
X0174469Y0100108D01*
X0178156Y0100108D02*
X0178340Y0100108D01*
X0184352Y0100108D02*
X0186647Y0100108D01*
X0192660Y0100108D02*
X0193340Y0100108D01*
X0174838Y0084123D02*
X0174469Y0084123D01*
X0174469Y0082524D02*
X0174838Y0082524D01*
X0176300Y0080926D02*
X0158418Y0080926D01*
X0157868Y0082524D02*
X0170905Y0082524D01*
X0170885Y0084123D02*
X0159194Y0084123D01*
X0159856Y0085721D02*
X0170885Y0085721D01*
X0176469Y0079327D02*
X0159422Y0079327D01*
X0159900Y0077729D02*
X0178067Y0077729D01*
X0178144Y0076130D02*
X0178363Y0076130D01*
X0174838Y0076130D02*
X0174469Y0076130D01*
X0174469Y0076965D02*
X0174469Y0073184D01*
X0170885Y0073184D01*
X0170885Y0075402D01*
X0171008Y0075860D01*
X0171245Y0076271D01*
X0171580Y0076606D01*
X0171990Y0076843D01*
X0172448Y0076965D01*
X0174469Y0076965D01*
X0174469Y0074532D02*
X0174838Y0074532D01*
X0174469Y0072933D02*
X0158277Y0072933D01*
X0158009Y0071334D02*
X0170885Y0071334D01*
X0171241Y0069736D02*
X0159253Y0069736D01*
X0159364Y0074532D02*
X0170885Y0074532D01*
X0171164Y0076130D02*
X0159900Y0076130D01*
X0159900Y0087320D02*
X0160993Y0087320D01*
X0170092Y0095312D02*
X0170885Y0095312D01*
X0173113Y0118950D02*
X0175325Y0118950D01*
X0175325Y0122825D01*
X0171550Y0122825D01*
X0171550Y0120513D01*
X0171673Y0120055D01*
X0171910Y0119645D01*
X0172245Y0119310D01*
X0172655Y0119073D01*
X0173113Y0118950D01*
X0172279Y0119290D02*
X0159438Y0119290D01*
X0158455Y0120888D02*
X0163750Y0120888D01*
X0163750Y0122487D02*
X0157831Y0122487D01*
X0159179Y0124085D02*
X0163750Y0124085D01*
X0163750Y0125684D02*
X0159841Y0125684D01*
X0159900Y0127282D02*
X0165600Y0127282D01*
X0165600Y0128881D02*
X0159607Y0128881D01*
X0160166Y0130479D02*
X0165600Y0130479D01*
X0166591Y0132078D02*
X0161765Y0132078D01*
X0163100Y0133676D02*
X0168189Y0133676D01*
X0169788Y0135275D02*
X0163100Y0135275D01*
X0163100Y0136873D02*
X0171386Y0136873D01*
X0172577Y0127282D02*
X0169400Y0127282D01*
X0171250Y0125684D02*
X0171550Y0125684D01*
X0171550Y0124085D02*
X0171250Y0124085D01*
X0171250Y0122487D02*
X0171550Y0122487D01*
X0171550Y0120888D02*
X0171250Y0120888D01*
X0175325Y0120888D02*
X0176075Y0120888D01*
X0176075Y0119290D02*
X0175325Y0119290D01*
X0175325Y0122487D02*
X0176075Y0122487D01*
X0176075Y0124085D02*
X0175325Y0124085D01*
X0175325Y0125684D02*
X0176075Y0125684D01*
X0176075Y0127282D02*
X0175325Y0127282D01*
X0150325Y0141669D02*
X0098241Y0141669D01*
X0099075Y0143268D02*
X0149389Y0143268D01*
X0148498Y0144866D02*
X0099931Y0144866D01*
X0100294Y0146465D02*
X0148100Y0146465D01*
X0148100Y0148063D02*
X0100210Y0148063D01*
X0100145Y0148475D02*
X0099838Y0149418D01*
X0099388Y0150302D01*
X0098805Y0151104D01*
X0098104Y0151805D01*
X0097551Y0152207D01*
X0099002Y0153658D01*
X0099900Y0155826D01*
X0099900Y0158174D01*
X0099002Y0160342D01*
X0097344Y0162000D01*
X0099002Y0163658D01*
X0099900Y0165826D01*
X0099900Y0168174D01*
X0099002Y0170342D01*
X0097342Y0172002D01*
X0095174Y0172900D01*
X0092826Y0172900D01*
X0090658Y0172002D01*
X0088998Y0170342D01*
X0088100Y0168174D01*
X0088100Y0165826D01*
X0088998Y0163658D01*
X0090656Y0162000D01*
X0088998Y0160342D01*
X0088100Y0158174D01*
X0088100Y0155826D01*
X0088998Y0153658D01*
X0090449Y0152207D01*
X0089896Y0151805D01*
X0089195Y0151104D01*
X0088612Y0150302D01*
X0088162Y0149418D01*
X0087855Y0148475D01*
X0087700Y0147496D01*
X0087700Y0147184D01*
X0093816Y0147184D01*
X0093816Y0146816D01*
X0087700Y0146816D01*
X0087700Y0146504D01*
X0087855Y0145525D01*
X0088162Y0144582D01*
X0088612Y0143698D01*
X0089195Y0142896D01*
X0089896Y0142195D01*
X0090164Y0142000D01*
X0089896Y0141805D01*
X0089195Y0141104D01*
X0088612Y0140302D01*
X0088162Y0139418D01*
X0087855Y0138475D01*
X0087700Y0137496D01*
X0087700Y0137184D01*
X0093816Y0137184D01*
X0093816Y0146816D01*
X0094184Y0146816D01*
X0094184Y0147184D01*
X0100300Y0147184D01*
X0100300Y0147496D01*
X0100145Y0148475D01*
X0099715Y0149662D02*
X0148716Y0149662D01*
X0149916Y0151260D02*
X0098649Y0151260D01*
X0098202Y0152859D02*
X0149232Y0152859D01*
X0148225Y0154457D02*
X0099333Y0154457D01*
X0099900Y0156056D02*
X0147771Y0156056D01*
X0147725Y0157654D02*
X0099900Y0157654D01*
X0099453Y0159253D02*
X0148108Y0159253D01*
X0149011Y0160851D02*
X0098493Y0160851D01*
X0097794Y0162450D02*
X0150206Y0162450D01*
X0148837Y0164048D02*
X0099163Y0164048D01*
X0099826Y0165647D02*
X0148174Y0165647D01*
X0148100Y0167245D02*
X0099900Y0167245D01*
X0099622Y0168844D02*
X0148378Y0168844D01*
X0149098Y0170442D02*
X0098902Y0170442D01*
X0097248Y0172041D02*
X0150752Y0172041D01*
X0157248Y0172041D02*
X0170025Y0172041D01*
X0170025Y0173639D02*
X0004300Y0173639D01*
X0004300Y0172041D02*
X0090752Y0172041D01*
X0089098Y0170442D02*
X0004300Y0170442D01*
X0004300Y0168844D02*
X0088378Y0168844D01*
X0088100Y0167245D02*
X0004300Y0167245D01*
X0004300Y0165647D02*
X0088174Y0165647D01*
X0088837Y0164048D02*
X0004300Y0164048D01*
X0004300Y0162450D02*
X0090206Y0162450D01*
X0089507Y0160851D02*
X0004300Y0160851D01*
X0004300Y0159253D02*
X0088547Y0159253D01*
X0088100Y0157654D02*
X0004300Y0157654D01*
X0004300Y0156056D02*
X0088100Y0156056D01*
X0088667Y0154457D02*
X0004300Y0154457D01*
X0004300Y0152859D02*
X0089798Y0152859D01*
X0089351Y0151260D02*
X0004300Y0151260D01*
X0004300Y0149662D02*
X0088285Y0149662D01*
X0087790Y0148063D02*
X0004300Y0148063D01*
X0004300Y0146465D02*
X0087706Y0146465D01*
X0088069Y0144866D02*
X0004300Y0144866D01*
X0004300Y0143268D02*
X0088925Y0143268D01*
X0089759Y0141669D02*
X0004300Y0141669D01*
X0004300Y0140070D02*
X0088494Y0140070D01*
X0087855Y0138472D02*
X0004300Y0138472D01*
X0004300Y0175238D02*
X0170025Y0175238D01*
X0170179Y0176836D02*
X0004300Y0176836D01*
X0004300Y0178435D02*
X0272700Y0178435D01*
X0272700Y0180033D02*
X0004300Y0180033D01*
X0004300Y0181632D02*
X0272700Y0181632D01*
X0272700Y0183230D02*
X0004300Y0183230D01*
X0004300Y0184829D02*
X0272700Y0184829D01*
X0272700Y0186427D02*
X0004300Y0186427D01*
X0004300Y0188026D02*
X0272700Y0188026D01*
X0272700Y0189624D02*
X0004300Y0189624D01*
X0004300Y0191223D02*
X0272700Y0191223D01*
X0272700Y0192821D02*
X0004300Y0192821D01*
X0004300Y0194420D02*
X0272700Y0194420D01*
X0272700Y0196018D02*
X0004300Y0196018D01*
X0004300Y0197617D02*
X0272700Y0197617D01*
X0272700Y0176836D02*
X0175821Y0176836D01*
X0148886Y0140070D02*
X0099506Y0140070D01*
X0094184Y0140070D02*
X0093816Y0140070D01*
X0093816Y0138472D02*
X0094184Y0138472D01*
X0094184Y0141669D02*
X0093816Y0141669D01*
X0093816Y0143268D02*
X0094184Y0143268D01*
X0094184Y0144866D02*
X0093816Y0144866D01*
X0093816Y0146465D02*
X0094184Y0146465D01*
X0174469Y0071334D02*
X0174838Y0071334D01*
X0174838Y0069736D02*
X0174469Y0069736D01*
X0178066Y0069736D02*
X0178497Y0069736D01*
X0184196Y0069736D02*
X0186804Y0069736D01*
X0192503Y0069736D02*
X0193497Y0069736D01*
X0172111Y0060145D02*
X0165196Y0060145D01*
X0166794Y0058546D02*
X0170513Y0058546D01*
X0256009Y0056948D02*
X0272700Y0056948D01*
X0272700Y0058546D02*
X0257858Y0058546D01*
X0258528Y0060145D02*
X0272700Y0060145D01*
X0272700Y0061743D02*
X0258648Y0061743D01*
X0258284Y0063342D02*
X0272700Y0063342D01*
X0272700Y0064940D02*
X0257269Y0064940D01*
D19*
X0253548Y0061449D02*
X0248677Y0061449D01*
X0223000Y0035772D01*
X0203882Y0035772D01*
X0203811Y0035843D01*
X0189260Y0054063D02*
X0185537Y0054063D01*
X0181000Y0058600D01*
X0173254Y0058600D01*
X0168654Y0054000D01*
X0155654Y0067000D01*
X0154000Y0067000D01*
X0154000Y0057000D02*
X0154000Y0054400D01*
X0143800Y0044200D01*
X0143800Y0036146D01*
X0143654Y0036000D01*
X0143496Y0035843D01*
X0122811Y0035843D01*
X0122811Y0016157D01*
X0107200Y0047200D02*
X0094600Y0047200D01*
X0085000Y0037600D01*
X0030400Y0037600D01*
X0010000Y0058000D01*
X0040600Y0067400D02*
X0040600Y0047200D01*
X0046600Y0041200D01*
X0082000Y0041200D01*
X0091000Y0050200D01*
X0103600Y0050200D01*
X0140400Y0087000D01*
X0154000Y0087000D01*
X0162400Y0088600D02*
X0154000Y0097000D01*
X0154000Y0107000D02*
X0164200Y0096800D01*
X0164200Y0094000D01*
X0167800Y0090400D01*
X0166600Y0088600D02*
X0162400Y0088600D01*
X0167800Y0095200D02*
X0167800Y0103200D01*
X0154000Y0117000D01*
X0154000Y0127000D02*
X0161200Y0134200D01*
X0161200Y0140200D01*
X0166000Y0145000D01*
X0169654Y0145000D01*
X0169854Y0145200D01*
X0169854Y0145254D01*
X0173800Y0149200D01*
X0183454Y0149200D01*
X0187654Y0145000D01*
X0194200Y0145000D02*
X0181000Y0158200D01*
X0177123Y0158200D01*
X0169260Y0166063D01*
X0176546Y0145200D02*
X0176200Y0144854D01*
X0176200Y0139000D01*
X0167500Y0130300D01*
X0167500Y0123200D01*
X0194346Y0135000D02*
X0194346Y0145000D01*
X0194200Y0145000D01*
X0223854Y0113400D02*
X0224800Y0112454D01*
X0224800Y0100600D01*
X0224200Y0100000D01*
X0222397Y0100000D01*
X0217460Y0095063D01*
X0219537Y0095063D01*
X0224200Y0090400D01*
X0224200Y0084400D01*
X0223600Y0083800D01*
X0222197Y0083800D01*
X0217460Y0079063D01*
X0218737Y0079063D01*
X0224200Y0073600D01*
X0224200Y0068800D01*
X0223000Y0067600D01*
X0221997Y0067600D01*
X0217460Y0063063D01*
X0193732Y0063063D01*
X0193000Y0062331D01*
X0198016Y0071331D02*
X0196346Y0073000D01*
X0198016Y0071331D02*
X0221200Y0071331D01*
X0224940Y0079063D02*
X0227011Y0081134D01*
X0253548Y0081134D01*
X0253548Y0090976D02*
X0249461Y0095063D01*
X0224940Y0095063D01*
X0228400Y0098523D01*
X0228400Y0111254D01*
X0230546Y0113400D01*
X0221200Y0103331D02*
X0202331Y0103331D01*
X0199600Y0100600D01*
X0199600Y0100254D01*
X0196346Y0097000D01*
X0196600Y0097254D01*
X0189654Y0097000D02*
X0181346Y0097000D01*
X0181346Y0085000D02*
X0181346Y0084654D01*
X0181346Y0085000D02*
X0189654Y0085000D01*
X0196346Y0085000D02*
X0198677Y0087331D01*
X0221200Y0087331D01*
X0233168Y0071291D02*
X0224940Y0063063D01*
X0233168Y0071291D02*
X0253548Y0071291D01*
X0189654Y0073000D02*
X0181346Y0073000D01*
X0181346Y0076654D01*
X0154000Y0077000D02*
X0137000Y0077000D01*
X0107200Y0047200D01*
X0088600Y0081600D02*
X0069346Y0081600D01*
X0062654Y0081600D02*
X0062654Y0060654D01*
X0050000Y0048000D01*
X0050000Y0058000D02*
X0057400Y0065400D01*
X0057400Y0083800D01*
X0062654Y0089054D01*
X0062654Y0089800D01*
X0069346Y0089800D02*
X0086800Y0089800D01*
X0094000Y0097000D01*
X0085000Y0098000D02*
X0094000Y0107000D01*
X0093000Y0117000D02*
X0082000Y0106000D01*
X0069346Y0106000D01*
X0062000Y0106000D02*
X0050000Y0118000D01*
X0050000Y0098000D02*
X0062654Y0098000D01*
X0069346Y0098000D02*
X0085000Y0098000D01*
X0094000Y0087000D02*
X0088600Y0081600D01*
X0093000Y0117000D02*
X0094000Y0117000D01*
X0040600Y0067400D02*
X0010000Y0098000D01*
D20*
X0166600Y0088600D02*
X0176800Y0088600D01*
X0178000Y0087400D01*
X0178000Y0080200D01*
X0181346Y0076854D01*
X0181346Y0076654D01*
X0181346Y0084654D02*
X0181346Y0087654D01*
X0178600Y0090400D01*
X0167800Y0090400D01*
X0170200Y0092800D02*
X0167800Y0095200D01*
X0170200Y0092800D02*
X0179800Y0092800D01*
X0181346Y0094346D01*
X0181346Y0097000D01*
D21*
X0233200Y0155595D02*
X0214465Y0174331D01*
X0173000Y0174331D01*
M02*
