M48
;GenerationSoftware,Autodesk,EAGLE,9.3.0*%
;CreationDate,2019-08-23T22:05:03Z*%
FMAT,2
ICI,OFF
METRIC,TZ,000.000
T11C0.381
T10C0.450
T9C0.457
T8C0.600
T7C0.750
T6C1.000
T5C1.016
T4C2.200
T3C2.667
T2C3.000
T1C4.572
%
G90
M71
T1
X10287Y11049
X17399Y11049
T2
X40724Y61385
X10625Y61385
X56091Y61385
X25484Y61512
T3
X8763Y43053
X16637Y43053
X8509Y29083
X16383Y29083
T4
X9525Y73485
X39624Y73485
X9525Y66785
X39624Y66785
X24384Y73612
X24384Y66912
X54991Y73485
X54991Y66785
T5
X75819Y20701
X105231Y52324
X60579Y41910
X48133Y5715
X45593Y5715
X43053Y5715
X40513Y5715
X60579Y44450
X80899Y20701
X78359Y20701
X60579Y39370
X98731Y52324
T6
X76708Y76962
X76708Y74422
X76708Y54102
X84328Y54102
X84328Y56642
X84328Y59182
X84328Y61722
X84328Y64262
X84328Y66802
X76708Y69342
X84328Y71882
X84328Y74422
X84328Y76962
X76708Y66802
X76708Y64262
X76708Y71882
X76708Y61722
X76708Y59182
X76708Y56642
X84328Y69342
T7
X65596Y9855
X58102Y4877
T8
X60541Y7366
X63152Y7366
T9
X60071Y23876
X59436Y22987
X58166Y21844
X58293Y24638
X55753Y22860
X66548Y21082
X74930Y15113
X100711Y1397
X95250Y7493
X97155Y19685
X107950Y15367
X88900Y30861
X90805Y31877
X84836Y32004
X85979Y33020
X92456Y29337
X96647Y24384
X98425Y26035
X100838Y27305
X103124Y28956
X101346Y34798
X103251Y38100
X100965Y41402
X99441Y36449
X108839Y44704
X93726Y44196
X90932Y45466
X92837Y48768
X89281Y48895
X91567Y51181
X81534Y43053
X81534Y40513
X73533Y43688
X74930Y41783
X55118Y54610
X57785Y49149
X59817Y53213
X51562Y45974
X45974Y41783
X48768Y41783
X49276Y38862
X45593Y38862
X44069Y38481
X44069Y36449
X46609Y36449
X43307Y33909
X45085Y33020
X28194Y36195
X39878Y42418
X25654Y42291
X21082Y56388
X35052Y58166
X3175Y61976
X4445Y55626
X16891Y61341
X17272Y66167
X4572Y67056
X30988Y67310
X34036Y65786
X43942Y65151
X44577Y62865
X44577Y60706
X44577Y58674
X42545Y56007
X31877Y56007
X24765Y56134
X16891Y56261
X80645Y36068
X74295Y25273
X46990Y45466
X48387Y45466
X29845Y36195
X31750Y36576
X33020Y36703
X55118Y32385
X57658Y32385
X61087Y32639
X63881Y32639
X67691Y30861
X40894Y20955
X67056Y26416
X2032Y3556
X2286Y16256
X2667Y30226
X2667Y43942
X10033Y30988
X10668Y14986
X69469Y67818
X29210Y29337
X30734Y29337
X32258Y29337
X33782Y29337
X18669Y47879
X29210Y26416
X30734Y26416
X32258Y26416
X33782Y26416
X26543Y26924
X25146Y24765
X29210Y27813
X30734Y27813
X32258Y27813
X33782Y27813
X29210Y24892
X30734Y24892
X32258Y24892
X33782Y24892
X29210Y23495
X30734Y23495
X32258Y23495
X33782Y23495
X39116Y29591
X40640Y29591
X42164Y29591
X43688Y29591
X39116Y28067
X40640Y28067
X42164Y28067
X43688Y28067
X39116Y26670
X40640Y26670
X42164Y26670
X43688Y26670
X39116Y25146
X40640Y25146
X42164Y25146
X43688Y25146
X39116Y23749
X40640Y23749
X42164Y23749
X43688Y23749
X20447Y23622
X21590Y27686
X22225Y33020
X22225Y36449
X21971Y40640
X15494Y36195
X18034Y36322
X18415Y17780
X25146Y19050
X24257Y14859
X24765Y9398
X36195Y11176
X34798Y9652
X33782Y8255
X32385Y7112
X30734Y6477
X28575Y6223
X61087Y24130
X26670Y5969
X28194Y2159
X32004Y2286
X34417Y4064
X36195Y5588
X37592Y6731
X48895Y17653
X52451Y11430
X44450Y1524
X51689Y2159
X50927Y7620
X55753Y7366
X54483Y11684
X62103Y9017
X67437Y2667
X73914Y2667
X57277Y23749
X57277Y20701
X68707Y25400
X50673Y27940
X51943Y31496
X83439Y17653
X93472Y59817
X87630Y48514
X96647Y57912
X64516Y60071
X64770Y52451
X67310Y46482
X66040Y49022
X66802Y43307
X65532Y38989
X55753Y25400
X55499Y20828
X52578Y19812
T10
X65913Y23669
X98425Y38100
X68453Y29718
X97282Y36957
X52578Y38862
X37794Y37263
X87774Y13462
X86128Y21717
X88519Y11430
X86922Y22279
X28321Y15748
X88477Y44323
X34036Y41656
X31877Y46990
X88519Y37338
X85725Y43434
X99568Y28067
X79375Y44958
X90170Y41148
X78613Y45974
X62103Y14986
X69596Y42291
X81407Y27940
X70485Y44323
X79121Y31750
X80391Y32639
X71247Y45212
X72263Y43434
X81153Y33528
X64516Y36376
X93980Y27940
X90678Y34925
X94869Y39116
X90678Y33782
X97028Y39116
X34544Y15748
X36957Y43307
X72898Y28194
X96647Y34417
X71374Y29083
X64516Y14732
T11
X90202Y36417
X92329Y31115
X101981Y27813
X101854Y36957
X97409Y35306
M30