G04 EAGLE Gerber RS-274X export*
G75*
%MOMM*%
%FSLAX34Y34*%
%LPD*%
%INBottom Copper*%
%IPPOS*%
%AMOC8*
5,1,8,0,0,1.08239X$1,22.5*%
G01*
%ADD10C,4.191000*%
%ADD11C,1.879600*%
%ADD12C,3.500000*%
%ADD13C,6.096000*%
%ADD14C,1.355600*%
%ADD15C,0.955600*%
%ADD16C,0.812800*%
%ADD17C,0.805600*%
%ADD18C,0.304800*%
%ADD19C,0.254000*%
%ADD20C,0.736600*%
%ADD21C,0.508000*%
%ADD22C,0.406400*%

G36*
X1112723Y1431D02*
X1112723Y1431D01*
X1112782Y1430D01*
X1112863Y1451D01*
X1112946Y1462D01*
X1113000Y1486D01*
X1113057Y1501D01*
X1113129Y1543D01*
X1113206Y1577D01*
X1113251Y1615D01*
X1113302Y1645D01*
X1113360Y1706D01*
X1113424Y1760D01*
X1113457Y1809D01*
X1113497Y1852D01*
X1113535Y1927D01*
X1113582Y1996D01*
X1113600Y2052D01*
X1113627Y2105D01*
X1113639Y2173D01*
X1113669Y2267D01*
X1113672Y2367D01*
X1113683Y2436D01*
X1116181Y886576D01*
X1116173Y886636D01*
X1116174Y886696D01*
X1116153Y886776D01*
X1116142Y886857D01*
X1116117Y886913D01*
X1116102Y886971D01*
X1116060Y887042D01*
X1116027Y887117D01*
X1115988Y887163D01*
X1115957Y887215D01*
X1115897Y887271D01*
X1115843Y887334D01*
X1115793Y887368D01*
X1115749Y887409D01*
X1115676Y887447D01*
X1115607Y887493D01*
X1115550Y887511D01*
X1115496Y887539D01*
X1115429Y887550D01*
X1115337Y887579D01*
X1115234Y887582D01*
X1115165Y887594D01*
X634999Y887049D01*
X9768Y886340D01*
X9749Y886337D01*
X9730Y886340D01*
X9629Y886318D01*
X9525Y886300D01*
X9508Y886292D01*
X9490Y886288D01*
X9400Y886234D01*
X9308Y886185D01*
X9295Y886171D01*
X9279Y886162D01*
X9211Y886082D01*
X9139Y886007D01*
X9131Y885989D01*
X9118Y885975D01*
X9079Y885878D01*
X9035Y885783D01*
X9033Y885765D01*
X9026Y885747D01*
X9007Y885580D01*
X8469Y506731D01*
X8473Y506711D01*
X8470Y506691D01*
X8492Y506590D01*
X8509Y506488D01*
X8518Y506470D01*
X8523Y506450D01*
X8575Y506362D01*
X8623Y506271D01*
X8638Y506257D01*
X8649Y506239D01*
X8727Y506172D01*
X8802Y506101D01*
X8820Y506093D01*
X8836Y506079D01*
X8931Y506041D01*
X9025Y505997D01*
X9045Y505995D01*
X9064Y505987D01*
X9231Y505969D01*
X138939Y505969D01*
X138939Y501650D01*
X138942Y501630D01*
X138940Y501611D01*
X138962Y501509D01*
X138979Y501407D01*
X138988Y501390D01*
X138992Y501370D01*
X139045Y501281D01*
X139094Y501190D01*
X139108Y501176D01*
X139118Y501159D01*
X139197Y501092D01*
X139272Y501021D01*
X139290Y501012D01*
X139305Y500999D01*
X139401Y500960D01*
X139495Y500917D01*
X139515Y500915D01*
X139533Y500907D01*
X139700Y500889D01*
X249429Y500889D01*
X249429Y316230D01*
X249432Y316210D01*
X249430Y316191D01*
X249452Y316089D01*
X249469Y315987D01*
X249478Y315970D01*
X249482Y315950D01*
X249535Y315861D01*
X249584Y315770D01*
X249598Y315756D01*
X249608Y315739D01*
X249687Y315672D01*
X249762Y315601D01*
X249780Y315592D01*
X249795Y315579D01*
X249891Y315540D01*
X249985Y315497D01*
X250005Y315495D01*
X250023Y315487D01*
X250190Y315469D01*
X481585Y315469D01*
X481585Y223774D01*
X481593Y223716D01*
X481591Y223658D01*
X481613Y223576D01*
X481625Y223492D01*
X481649Y223439D01*
X481663Y223383D01*
X481706Y223310D01*
X481741Y223233D01*
X481779Y223188D01*
X481809Y223138D01*
X481870Y223080D01*
X481925Y223016D01*
X481973Y222984D01*
X482016Y222944D01*
X482091Y222905D01*
X482161Y222858D01*
X482217Y222841D01*
X482269Y222814D01*
X482337Y222803D01*
X482432Y222773D01*
X482532Y222770D01*
X482600Y222759D01*
X567277Y222759D01*
X567363Y222771D01*
X567451Y222774D01*
X567503Y222791D01*
X567558Y222799D01*
X567638Y222834D01*
X567721Y222861D01*
X567760Y222889D01*
X567818Y222915D01*
X567931Y223011D01*
X567995Y223056D01*
X662947Y318009D01*
X671823Y318009D01*
X675335Y314496D01*
X675405Y314444D01*
X675469Y314384D01*
X675519Y314358D01*
X675563Y314325D01*
X675644Y314294D01*
X675722Y314254D01*
X675770Y314246D01*
X675828Y314224D01*
X675976Y314212D01*
X676053Y314199D01*
X678022Y314199D01*
X680076Y313348D01*
X681648Y311776D01*
X682499Y309722D01*
X682499Y307498D01*
X681648Y305444D01*
X680256Y304052D01*
X680204Y303983D01*
X680144Y303919D01*
X680118Y303869D01*
X680085Y303825D01*
X680054Y303744D01*
X680014Y303666D01*
X680006Y303618D01*
X679984Y303560D01*
X679972Y303412D01*
X679959Y303335D01*
X679959Y302816D01*
X679975Y302702D01*
X679985Y302588D01*
X679995Y302562D01*
X679999Y302535D01*
X680046Y302430D01*
X680087Y302323D01*
X680103Y302301D01*
X680115Y302275D01*
X680189Y302188D01*
X680258Y302096D01*
X680281Y302079D01*
X680298Y302058D01*
X680394Y301995D01*
X680486Y301926D01*
X680512Y301916D01*
X680535Y301901D01*
X680645Y301866D01*
X680752Y301825D01*
X680780Y301823D01*
X680806Y301815D01*
X680921Y301812D01*
X681035Y301803D01*
X681060Y301808D01*
X681090Y301808D01*
X681347Y301875D01*
X681363Y301878D01*
X683426Y302733D01*
X685635Y302733D01*
X687675Y301887D01*
X689291Y300272D01*
X689360Y300220D01*
X689424Y300160D01*
X689474Y300134D01*
X689518Y300101D01*
X689600Y300070D01*
X689678Y300030D01*
X689725Y300022D01*
X689784Y300000D01*
X689931Y299988D01*
X690009Y299975D01*
X708864Y299975D01*
X708951Y299987D01*
X709038Y299990D01*
X709091Y300007D01*
X709146Y300015D01*
X709225Y300050D01*
X709309Y300077D01*
X709348Y300105D01*
X709405Y300131D01*
X709518Y300227D01*
X709582Y300272D01*
X709757Y300447D01*
X734746Y300447D01*
X773020Y262172D01*
X773090Y262120D01*
X773154Y262060D01*
X773203Y262034D01*
X773247Y262001D01*
X773329Y261970D01*
X773407Y261930D01*
X773455Y261922D01*
X773513Y261900D01*
X773661Y261888D01*
X773738Y261875D01*
X774392Y261875D01*
X774421Y261879D01*
X774450Y261876D01*
X774561Y261899D01*
X774673Y261915D01*
X774700Y261927D01*
X774729Y261932D01*
X774829Y261984D01*
X774933Y262031D01*
X774955Y262050D01*
X774981Y262063D01*
X775063Y262141D01*
X775150Y262214D01*
X775166Y262239D01*
X775187Y262259D01*
X775245Y262357D01*
X775307Y262451D01*
X775316Y262479D01*
X775331Y262504D01*
X775359Y262614D01*
X775393Y262722D01*
X775394Y262752D01*
X775401Y262780D01*
X775398Y262893D01*
X775400Y263006D01*
X775393Y263035D01*
X775392Y263064D01*
X775357Y263172D01*
X775329Y263281D01*
X775314Y263307D01*
X775305Y263335D01*
X775259Y263398D01*
X775183Y263526D01*
X775138Y263569D01*
X775110Y263608D01*
X678046Y360672D01*
X677976Y360724D01*
X677912Y360784D01*
X677863Y360810D01*
X677819Y360843D01*
X677737Y360874D01*
X677659Y360914D01*
X677611Y360922D01*
X677553Y360944D01*
X677405Y360956D01*
X677328Y360969D01*
X650639Y360969D01*
X650552Y360957D01*
X650465Y360954D01*
X650412Y360937D01*
X650357Y360929D01*
X650277Y360894D01*
X650194Y360867D01*
X650155Y360839D01*
X650098Y360813D01*
X649984Y360717D01*
X649921Y360672D01*
X648305Y359057D01*
X646265Y358211D01*
X644055Y358211D01*
X642015Y359057D01*
X640453Y360619D01*
X639607Y362659D01*
X639607Y364868D01*
X640236Y366387D01*
X640265Y366499D01*
X640300Y366608D01*
X640300Y366636D01*
X640307Y366663D01*
X640304Y366777D01*
X640307Y366892D01*
X640300Y366919D01*
X640299Y366947D01*
X640264Y367056D01*
X640235Y367167D01*
X640221Y367191D01*
X640213Y367218D01*
X640149Y367313D01*
X640090Y367412D01*
X640070Y367431D01*
X640054Y367454D01*
X639967Y367528D01*
X639883Y367606D01*
X639858Y367619D01*
X639837Y367637D01*
X639732Y367683D01*
X639630Y367736D01*
X639605Y367740D01*
X639577Y367752D01*
X639313Y367789D01*
X639298Y367791D01*
X635000Y367791D01*
X634942Y367783D01*
X634884Y367785D01*
X634802Y367763D01*
X634719Y367751D01*
X634665Y367728D01*
X634609Y367713D01*
X634536Y367670D01*
X634459Y367635D01*
X634414Y367597D01*
X634364Y367568D01*
X634306Y367506D01*
X634242Y367452D01*
X634210Y367403D01*
X634170Y367360D01*
X634131Y367285D01*
X634085Y367215D01*
X634067Y367159D01*
X634040Y367107D01*
X634029Y367039D01*
X633999Y366944D01*
X633996Y366844D01*
X633985Y366776D01*
X633985Y366775D01*
X553306Y366775D01*
X550702Y369379D01*
X533277Y386804D01*
X533240Y386831D01*
X533209Y386865D01*
X533168Y386887D01*
X533135Y386916D01*
X533106Y386928D01*
X533077Y386948D01*
X533034Y386961D01*
X532993Y386984D01*
X532945Y386992D01*
X532907Y387008D01*
X532870Y387012D01*
X532842Y387020D01*
X532803Y387019D01*
X532784Y387021D01*
X532751Y387027D01*
X532742Y387026D01*
X532740Y387026D01*
X532738Y387026D01*
X532687Y387018D01*
X532674Y387016D01*
X532597Y387014D01*
X532553Y386998D01*
X532508Y386992D01*
X532499Y386987D01*
X532496Y386987D01*
X532438Y386956D01*
X532365Y386930D01*
X532330Y386901D01*
X532289Y386880D01*
X532283Y386874D01*
X532278Y386871D01*
X532232Y386823D01*
X532173Y386776D01*
X532149Y386737D01*
X532116Y386704D01*
X532112Y386696D01*
X532109Y386693D01*
X532102Y386678D01*
X532051Y386585D01*
X532040Y386569D01*
X532039Y386564D01*
X532036Y386557D01*
X531349Y384899D01*
X530068Y383618D01*
X530015Y383544D01*
X529955Y383475D01*
X529943Y383445D01*
X529924Y383418D01*
X529897Y383331D01*
X529863Y383247D01*
X529859Y383206D01*
X529852Y383183D01*
X529853Y383151D01*
X529845Y383080D01*
X529845Y379316D01*
X519844Y369315D01*
X384191Y369315D01*
X384076Y369296D01*
X383960Y369279D01*
X383954Y369277D01*
X383948Y369276D01*
X383845Y369221D01*
X383740Y369168D01*
X383736Y369163D01*
X383730Y369160D01*
X383651Y369076D01*
X383568Y368992D01*
X383565Y368986D01*
X383561Y368982D01*
X383553Y368965D01*
X383530Y368924D01*
X381664Y367058D01*
X379250Y366058D01*
X376637Y366058D01*
X374223Y367058D01*
X372375Y368906D01*
X371375Y371320D01*
X371375Y373933D01*
X372375Y376347D01*
X374223Y378195D01*
X376637Y379195D01*
X379250Y379195D01*
X381664Y378195D01*
X382192Y377668D01*
X382266Y377615D01*
X382335Y377555D01*
X382365Y377543D01*
X382392Y377524D01*
X382479Y377497D01*
X382563Y377463D01*
X382604Y377459D01*
X382627Y377452D01*
X382659Y377453D01*
X382730Y377445D01*
X516161Y377445D01*
X516251Y377459D01*
X516342Y377467D01*
X516372Y377479D01*
X516404Y377484D01*
X516484Y377527D01*
X516568Y377563D01*
X516600Y377589D01*
X516621Y377600D01*
X516643Y377623D01*
X516699Y377668D01*
X521492Y382461D01*
X521545Y382535D01*
X521605Y382604D01*
X521617Y382634D01*
X521636Y382660D01*
X521663Y382747D01*
X521697Y382832D01*
X521701Y382873D01*
X521708Y382896D01*
X521707Y382928D01*
X521715Y382999D01*
X521715Y383080D01*
X521701Y383170D01*
X521693Y383261D01*
X521681Y383291D01*
X521676Y383323D01*
X521633Y383403D01*
X521597Y383487D01*
X521571Y383519D01*
X521560Y383540D01*
X521537Y383562D01*
X521492Y383618D01*
X520211Y384899D01*
X519211Y387313D01*
X519211Y389927D01*
X520211Y392341D01*
X522059Y394189D01*
X522861Y394521D01*
X522944Y394572D01*
X523029Y394618D01*
X523047Y394637D01*
X523070Y394650D01*
X523132Y394725D01*
X523199Y394796D01*
X523210Y394820D01*
X523227Y394840D01*
X523261Y394931D01*
X523302Y395019D01*
X523305Y395045D01*
X523315Y395069D01*
X523319Y395167D01*
X523330Y395263D01*
X523324Y395289D01*
X523325Y395315D01*
X523298Y395409D01*
X523277Y395504D01*
X523264Y395526D01*
X523257Y395551D01*
X523201Y395631D01*
X523151Y395715D01*
X523131Y395732D01*
X523116Y395753D01*
X523038Y395812D01*
X522964Y395875D01*
X522940Y395885D01*
X522919Y395900D01*
X522826Y395930D01*
X522736Y395967D01*
X522704Y395970D01*
X522685Y395976D01*
X522652Y395976D01*
X522569Y395985D01*
X355186Y395985D01*
X341403Y409768D01*
X341329Y409821D01*
X341260Y409881D01*
X341230Y409893D01*
X341204Y409912D01*
X341117Y409939D01*
X341032Y409973D01*
X340991Y409977D01*
X340968Y409984D01*
X340936Y409983D01*
X340865Y409991D01*
X339053Y409991D01*
X336639Y410991D01*
X334791Y412839D01*
X333791Y415253D01*
X333791Y417424D01*
X333777Y417514D01*
X333769Y417605D01*
X333757Y417635D01*
X333752Y417667D01*
X333709Y417748D01*
X333673Y417832D01*
X333647Y417864D01*
X333636Y417884D01*
X333613Y417907D01*
X333568Y417962D01*
X314959Y436572D01*
X314959Y464106D01*
X314945Y464196D01*
X314937Y464287D01*
X314925Y464317D01*
X314920Y464349D01*
X314877Y464429D01*
X314841Y464513D01*
X314815Y464545D01*
X314804Y464566D01*
X314781Y464588D01*
X314736Y464644D01*
X313201Y466179D01*
X312201Y468593D01*
X312201Y471207D01*
X313201Y473621D01*
X315049Y475469D01*
X317463Y476469D01*
X320077Y476469D01*
X322491Y475469D01*
X324339Y473621D01*
X325339Y471207D01*
X325339Y468593D01*
X324339Y466179D01*
X322804Y464644D01*
X322751Y464570D01*
X322691Y464501D01*
X322679Y464471D01*
X322660Y464444D01*
X322633Y464357D01*
X322599Y464273D01*
X322595Y464232D01*
X322588Y464209D01*
X322589Y464177D01*
X322581Y464106D01*
X322581Y440044D01*
X322595Y439954D01*
X322603Y439863D01*
X322615Y439833D01*
X322620Y439801D01*
X322663Y439720D01*
X322699Y439636D01*
X322725Y439604D01*
X322736Y439584D01*
X322759Y439561D01*
X322804Y439506D01*
X338958Y423352D01*
X339031Y423299D01*
X339101Y423239D01*
X339131Y423227D01*
X339157Y423208D01*
X339244Y423181D01*
X339329Y423147D01*
X339370Y423143D01*
X339392Y423136D01*
X339425Y423137D01*
X339496Y423129D01*
X341667Y423129D01*
X344081Y422129D01*
X345929Y420281D01*
X346929Y417867D01*
X346929Y416055D01*
X346943Y415965D01*
X346951Y415874D01*
X346963Y415844D01*
X346968Y415812D01*
X347011Y415732D01*
X347047Y415648D01*
X347073Y415616D01*
X347084Y415595D01*
X347107Y415573D01*
X347152Y415517D01*
X358331Y404338D01*
X358405Y404285D01*
X358474Y404225D01*
X358504Y404213D01*
X358530Y404194D01*
X358617Y404167D01*
X358702Y404133D01*
X358743Y404129D01*
X358766Y404122D01*
X358798Y404123D01*
X358869Y404115D01*
X527464Y404115D01*
X556451Y375128D01*
X556525Y375075D01*
X556594Y375015D01*
X556624Y375003D01*
X556650Y374984D01*
X556737Y374957D01*
X556822Y374923D01*
X556863Y374919D01*
X556886Y374912D01*
X556918Y374913D01*
X556989Y374905D01*
X633985Y374905D01*
X633985Y374904D01*
X633993Y374846D01*
X633991Y374788D01*
X634013Y374706D01*
X634025Y374622D01*
X634049Y374569D01*
X634063Y374513D01*
X634106Y374440D01*
X634141Y374363D01*
X634179Y374318D01*
X634209Y374268D01*
X634270Y374210D01*
X634325Y374146D01*
X634373Y374114D01*
X634416Y374074D01*
X634491Y374035D01*
X634561Y373988D01*
X634617Y373971D01*
X634669Y373944D01*
X634737Y373933D01*
X634832Y373903D01*
X634932Y373900D01*
X635000Y373889D01*
X685793Y373889D01*
X787095Y272586D01*
X787165Y272534D01*
X787229Y272474D01*
X787279Y272448D01*
X787323Y272415D01*
X787404Y272384D01*
X787482Y272344D01*
X787530Y272336D01*
X787588Y272314D01*
X787736Y272302D01*
X787813Y272289D01*
X811624Y272289D01*
X811709Y272301D01*
X811795Y272303D01*
X811849Y272321D01*
X811906Y272329D01*
X811984Y272364D01*
X812066Y272390D01*
X812113Y272422D01*
X812165Y272445D01*
X812231Y272500D01*
X812302Y272548D01*
X812339Y272592D01*
X812382Y272628D01*
X812430Y272700D01*
X812485Y272766D01*
X812508Y272818D01*
X812540Y272865D01*
X812566Y272947D01*
X812600Y273026D01*
X812608Y273082D01*
X812625Y273136D01*
X812628Y273222D01*
X812639Y273307D01*
X812631Y273363D01*
X812633Y273420D01*
X812611Y273503D01*
X812599Y273589D01*
X812575Y273640D01*
X812561Y273695D01*
X812517Y273769D01*
X812482Y273848D01*
X812445Y273891D01*
X812416Y273940D01*
X812353Y273999D01*
X812297Y274064D01*
X812255Y274090D01*
X812208Y274134D01*
X812079Y274200D01*
X812013Y274242D01*
X810925Y274693D01*
X809363Y276255D01*
X808517Y278295D01*
X808517Y279502D01*
X808505Y279589D01*
X808502Y279676D01*
X808485Y279729D01*
X808477Y279784D01*
X808442Y279864D01*
X808415Y279947D01*
X808387Y279986D01*
X808361Y280043D01*
X808265Y280156D01*
X808220Y280220D01*
X692403Y396037D01*
X692403Y418193D01*
X692391Y418280D01*
X692388Y418367D01*
X692371Y418420D01*
X692363Y418475D01*
X692328Y418555D01*
X692301Y418638D01*
X692273Y418677D01*
X692247Y418734D01*
X692151Y418848D01*
X692106Y418911D01*
X691253Y419765D01*
X690407Y421805D01*
X690407Y424015D01*
X691253Y426055D01*
X692815Y427617D01*
X694855Y428463D01*
X697065Y428463D01*
X699105Y427617D01*
X699560Y427163D01*
X699584Y427145D01*
X699603Y427123D01*
X699697Y427060D01*
X699787Y426992D01*
X699815Y426981D01*
X699839Y426965D01*
X699947Y426931D01*
X700053Y426891D01*
X700082Y426888D01*
X700110Y426879D01*
X700224Y426876D01*
X700336Y426867D01*
X700365Y426873D01*
X700394Y426872D01*
X700504Y426901D01*
X700615Y426923D01*
X700641Y426936D01*
X700669Y426944D01*
X700767Y427001D01*
X700867Y427054D01*
X700889Y427074D01*
X700914Y427089D01*
X700991Y427172D01*
X701073Y427250D01*
X701088Y427275D01*
X701108Y427296D01*
X701160Y427397D01*
X701217Y427495D01*
X701224Y427523D01*
X701238Y427549D01*
X701251Y427627D01*
X701287Y427770D01*
X701285Y427833D01*
X701293Y427881D01*
X701293Y438513D01*
X701281Y438600D01*
X701278Y438687D01*
X701261Y438740D01*
X701253Y438795D01*
X701218Y438875D01*
X701191Y438958D01*
X701163Y438997D01*
X701137Y439054D01*
X701041Y439168D01*
X700996Y439231D01*
X700143Y440085D01*
X699297Y442125D01*
X699297Y444335D01*
X700143Y446375D01*
X701705Y447937D01*
X703745Y448783D01*
X705955Y448783D01*
X705969Y448777D01*
X705997Y448770D01*
X706023Y448756D01*
X706134Y448734D01*
X706244Y448706D01*
X706273Y448707D01*
X706302Y448701D01*
X706415Y448711D01*
X706528Y448714D01*
X706556Y448723D01*
X706585Y448726D01*
X706691Y448766D01*
X706799Y448801D01*
X706823Y448817D01*
X706851Y448828D01*
X706940Y448896D01*
X707035Y448959D01*
X707054Y448982D01*
X707077Y448999D01*
X707145Y449090D01*
X707218Y449177D01*
X707230Y449203D01*
X707247Y449227D01*
X707287Y449333D01*
X707333Y449436D01*
X707337Y449465D01*
X707348Y449493D01*
X707357Y449606D01*
X707372Y449718D01*
X707368Y449747D01*
X707371Y449776D01*
X707353Y449853D01*
X707332Y449999D01*
X707306Y450056D01*
X707295Y450103D01*
X706917Y451016D01*
X706917Y453225D01*
X707763Y455265D01*
X709325Y456827D01*
X711365Y457673D01*
X713575Y457673D01*
X715615Y456827D01*
X717177Y455265D01*
X718023Y453225D01*
X718023Y451015D01*
X717177Y448975D01*
X716324Y448121D01*
X716272Y448052D01*
X716212Y447988D01*
X716186Y447938D01*
X716153Y447894D01*
X716122Y447812D01*
X716082Y447734D01*
X716074Y447687D01*
X716052Y447628D01*
X716040Y447481D01*
X716027Y447403D01*
X716027Y438012D01*
X716039Y437927D01*
X716041Y437841D01*
X716059Y437787D01*
X716067Y437731D01*
X716102Y437652D01*
X716128Y437570D01*
X716160Y437523D01*
X716183Y437471D01*
X716239Y437406D01*
X716286Y437334D01*
X716330Y437298D01*
X716366Y437254D01*
X716438Y437207D01*
X716504Y437151D01*
X716556Y437128D01*
X716603Y437097D01*
X716685Y437071D01*
X716764Y437036D01*
X716820Y437028D01*
X716874Y437011D01*
X716960Y437009D01*
X717046Y436997D01*
X717102Y437005D01*
X717158Y437004D01*
X717242Y437025D01*
X717327Y437038D01*
X717379Y437061D01*
X717433Y437076D01*
X717507Y437120D01*
X717586Y437155D01*
X717629Y437192D01*
X717678Y437221D01*
X717737Y437284D01*
X717802Y437339D01*
X717828Y437381D01*
X717872Y437428D01*
X717880Y437442D01*
X719485Y439047D01*
X721525Y439893D01*
X723735Y439893D01*
X725775Y439047D01*
X727337Y437485D01*
X728183Y435445D01*
X728183Y433235D01*
X727337Y431195D01*
X726484Y430341D01*
X726432Y430272D01*
X726372Y430208D01*
X726346Y430158D01*
X726313Y430114D01*
X726282Y430032D01*
X726242Y429954D01*
X726234Y429907D01*
X726212Y429848D01*
X726200Y429701D01*
X726187Y429623D01*
X726187Y426074D01*
X726199Y425987D01*
X726202Y425900D01*
X726219Y425847D01*
X726227Y425792D01*
X726262Y425712D01*
X726289Y425629D01*
X726317Y425590D01*
X726343Y425533D01*
X726439Y425420D01*
X726484Y425356D01*
X810710Y341130D01*
X810780Y341078D01*
X810844Y341018D01*
X810893Y340992D01*
X810937Y340959D01*
X811019Y340928D01*
X811097Y340888D01*
X811144Y340880D01*
X811203Y340858D01*
X811350Y340846D01*
X811428Y340833D01*
X812635Y340833D01*
X814675Y339987D01*
X816237Y338425D01*
X817083Y336385D01*
X817083Y334175D01*
X816237Y332135D01*
X814675Y330573D01*
X812635Y329727D01*
X810425Y329727D01*
X810411Y329733D01*
X810383Y329740D01*
X810357Y329754D01*
X810246Y329776D01*
X810136Y329804D01*
X810107Y329803D01*
X810078Y329809D01*
X809965Y329799D01*
X809852Y329796D01*
X809824Y329787D01*
X809795Y329784D01*
X809689Y329744D01*
X809581Y329709D01*
X809557Y329693D01*
X809529Y329682D01*
X809440Y329614D01*
X809345Y329551D01*
X809326Y329528D01*
X809303Y329511D01*
X809235Y329420D01*
X809162Y329333D01*
X809150Y329307D01*
X809133Y329283D01*
X809093Y329177D01*
X809047Y329074D01*
X809043Y329045D01*
X809032Y329017D01*
X809023Y328904D01*
X809008Y328792D01*
X809012Y328763D01*
X809009Y328734D01*
X809027Y328657D01*
X809048Y328511D01*
X809074Y328454D01*
X809085Y328407D01*
X809463Y327494D01*
X809463Y325285D01*
X808617Y323245D01*
X807055Y321683D01*
X805015Y320837D01*
X802805Y320837D01*
X800765Y321683D01*
X799203Y323245D01*
X798357Y325285D01*
X798357Y326492D01*
X798345Y326579D01*
X798342Y326666D01*
X798325Y326719D01*
X798317Y326774D01*
X798282Y326854D01*
X798255Y326937D01*
X798227Y326976D01*
X798201Y327033D01*
X798105Y327146D01*
X798060Y327210D01*
X711294Y413976D01*
X710140Y415130D01*
X710116Y415148D01*
X710097Y415170D01*
X710003Y415233D01*
X709913Y415301D01*
X709885Y415311D01*
X709861Y415328D01*
X709753Y415362D01*
X709647Y415402D01*
X709618Y415405D01*
X709590Y415414D01*
X709476Y415416D01*
X709364Y415426D01*
X709335Y415420D01*
X709306Y415421D01*
X709196Y415392D01*
X709085Y415370D01*
X709059Y415356D01*
X709031Y415349D01*
X708933Y415291D01*
X708833Y415239D01*
X708811Y415219D01*
X708786Y415204D01*
X708709Y415121D01*
X708627Y415043D01*
X708612Y415018D01*
X708592Y414996D01*
X708540Y414895D01*
X708483Y414798D01*
X708476Y414769D01*
X708462Y414743D01*
X708449Y414666D01*
X708413Y414522D01*
X708415Y414460D01*
X708407Y414412D01*
X708407Y405754D01*
X708419Y405667D01*
X708422Y405580D01*
X708439Y405527D01*
X708447Y405472D01*
X708482Y405392D01*
X708509Y405309D01*
X708537Y405270D01*
X708563Y405213D01*
X708659Y405100D01*
X708704Y405036D01*
X790390Y323350D01*
X790460Y323298D01*
X790524Y323238D01*
X790573Y323212D01*
X790617Y323179D01*
X790699Y323148D01*
X790777Y323108D01*
X790824Y323100D01*
X790883Y323078D01*
X791030Y323066D01*
X791108Y323053D01*
X792315Y323053D01*
X794355Y322207D01*
X795917Y320645D01*
X796763Y318605D01*
X796763Y316395D01*
X795917Y314355D01*
X794355Y312793D01*
X792315Y311947D01*
X790106Y311947D01*
X788756Y312506D01*
X788673Y312528D01*
X788592Y312558D01*
X788536Y312563D01*
X788481Y312577D01*
X788395Y312575D01*
X788309Y312582D01*
X788253Y312571D01*
X788197Y312569D01*
X788115Y312543D01*
X788030Y312526D01*
X787980Y312500D01*
X787926Y312482D01*
X787854Y312435D01*
X787778Y312395D01*
X787737Y312356D01*
X787690Y312324D01*
X787634Y312258D01*
X787572Y312199D01*
X787543Y312150D01*
X787507Y312107D01*
X787472Y312028D01*
X787428Y311954D01*
X787414Y311899D01*
X787391Y311847D01*
X787379Y311762D01*
X787358Y311678D01*
X787360Y311622D01*
X787352Y311565D01*
X787365Y311480D01*
X787367Y311394D01*
X787385Y311340D01*
X787393Y311284D01*
X787428Y311205D01*
X787455Y311124D01*
X787483Y311084D01*
X787510Y311025D01*
X787604Y310914D01*
X787650Y310850D01*
X813250Y285250D01*
X813320Y285198D01*
X813384Y285138D01*
X813433Y285112D01*
X813477Y285079D01*
X813559Y285048D01*
X813637Y285008D01*
X813684Y285000D01*
X813743Y284978D01*
X813890Y284966D01*
X813968Y284953D01*
X815175Y284953D01*
X817215Y284107D01*
X818777Y282545D01*
X819623Y280505D01*
X819623Y278295D01*
X818777Y276255D01*
X817215Y274693D01*
X816127Y274242D01*
X816053Y274198D01*
X815975Y274163D01*
X815932Y274126D01*
X815883Y274097D01*
X815824Y274035D01*
X815758Y273979D01*
X815726Y273932D01*
X815687Y273891D01*
X815648Y273814D01*
X815600Y273743D01*
X815583Y273689D01*
X815557Y273638D01*
X815540Y273554D01*
X815515Y273472D01*
X815513Y273415D01*
X815502Y273359D01*
X815509Y273274D01*
X815507Y273188D01*
X815522Y273133D01*
X815527Y273076D01*
X815557Y272996D01*
X815579Y272913D01*
X815608Y272864D01*
X815629Y272811D01*
X815680Y272742D01*
X815724Y272668D01*
X815766Y272629D01*
X815800Y272584D01*
X815869Y272532D01*
X815932Y272474D01*
X815982Y272448D01*
X816028Y272414D01*
X816108Y272383D01*
X816185Y272344D01*
X816234Y272336D01*
X816294Y272313D01*
X816438Y272302D01*
X816516Y272289D01*
X820007Y272289D01*
X820093Y272301D01*
X820181Y272304D01*
X820233Y272321D01*
X820288Y272329D01*
X820368Y272364D01*
X820451Y272391D01*
X820490Y272419D01*
X820548Y272445D01*
X820661Y272541D01*
X820725Y272586D01*
X881844Y333705D01*
X881865Y333734D01*
X881884Y333750D01*
X881912Y333792D01*
X881956Y333839D01*
X881982Y333889D01*
X882015Y333933D01*
X882027Y333964D01*
X882042Y333986D01*
X882058Y334037D01*
X882086Y334092D01*
X882094Y334140D01*
X882116Y334198D01*
X882119Y334230D01*
X882127Y334257D01*
X882130Y334355D01*
X882141Y334423D01*
X882141Y368155D01*
X882129Y368242D01*
X882126Y368329D01*
X882109Y368382D01*
X882101Y368437D01*
X882066Y368517D01*
X882039Y368600D01*
X882011Y368639D01*
X881985Y368696D01*
X881889Y368810D01*
X881844Y368873D01*
X880483Y370235D01*
X879637Y372275D01*
X879637Y374485D01*
X880483Y376525D01*
X882045Y378087D01*
X884085Y378933D01*
X886295Y378933D01*
X888335Y378087D01*
X889897Y376525D01*
X890743Y374485D01*
X890743Y372275D01*
X889897Y370235D01*
X888536Y368873D01*
X888484Y368804D01*
X888424Y368740D01*
X888398Y368690D01*
X888365Y368646D01*
X888334Y368564D01*
X888294Y368486D01*
X888286Y368439D01*
X888264Y368380D01*
X888252Y368233D01*
X888239Y368155D01*
X888239Y331477D01*
X886155Y329394D01*
X825449Y268688D01*
X825432Y268664D01*
X825409Y268645D01*
X825346Y268551D01*
X825279Y268461D01*
X825268Y268433D01*
X825252Y268409D01*
X825218Y268301D01*
X825177Y268195D01*
X825175Y268166D01*
X825166Y268138D01*
X825163Y268024D01*
X825154Y267912D01*
X825159Y267883D01*
X825159Y267854D01*
X825187Y267744D01*
X825210Y267633D01*
X825223Y267607D01*
X825231Y267579D01*
X825288Y267481D01*
X825341Y267381D01*
X825361Y267359D01*
X825376Y267334D01*
X825458Y267257D01*
X825536Y267175D01*
X825562Y267160D01*
X825583Y267140D01*
X825684Y267088D01*
X825782Y267031D01*
X825810Y267024D01*
X825836Y267010D01*
X825914Y266997D01*
X826057Y266961D01*
X826120Y266963D01*
X826167Y266955D01*
X922982Y266955D01*
X923068Y266967D01*
X923156Y266970D01*
X923209Y266987D01*
X923263Y266995D01*
X923343Y267030D01*
X923426Y267057D01*
X923466Y267085D01*
X923523Y267111D01*
X923636Y267207D01*
X923700Y267252D01*
X933950Y277502D01*
X934002Y277572D01*
X934062Y277636D01*
X934088Y277685D01*
X934121Y277729D01*
X934152Y277811D01*
X934192Y277889D01*
X934200Y277937D01*
X934222Y277995D01*
X934234Y278143D01*
X934247Y278220D01*
X934247Y280505D01*
X935093Y282545D01*
X936655Y284107D01*
X938695Y284953D01*
X940905Y284953D01*
X942945Y284107D01*
X944507Y282545D01*
X945353Y280505D01*
X945353Y278295D01*
X944507Y276255D01*
X942945Y274693D01*
X940905Y273847D01*
X938620Y273847D01*
X938534Y273835D01*
X938446Y273832D01*
X938393Y273815D01*
X938339Y273807D01*
X938259Y273772D01*
X938176Y273745D01*
X938136Y273717D01*
X938079Y273691D01*
X937966Y273595D01*
X937902Y273550D01*
X927960Y263608D01*
X927943Y263584D01*
X927920Y263565D01*
X927857Y263471D01*
X927789Y263381D01*
X927779Y263353D01*
X927763Y263329D01*
X927728Y263221D01*
X927688Y263115D01*
X927686Y263086D01*
X927677Y263058D01*
X927674Y262944D01*
X927665Y262832D01*
X927670Y262803D01*
X927670Y262774D01*
X927698Y262664D01*
X927720Y262553D01*
X927734Y262527D01*
X927741Y262499D01*
X927799Y262401D01*
X927851Y262301D01*
X927872Y262279D01*
X927887Y262254D01*
X927969Y262177D01*
X928047Y262095D01*
X928073Y262080D01*
X928094Y262060D01*
X928195Y262008D01*
X928292Y261951D01*
X928321Y261944D01*
X928347Y261930D01*
X928424Y261917D01*
X928568Y261881D01*
X928630Y261883D01*
X928678Y261875D01*
X935682Y261875D01*
X935768Y261887D01*
X935856Y261890D01*
X935909Y261907D01*
X935963Y261915D01*
X936043Y261950D01*
X936126Y261977D01*
X936166Y262005D01*
X936223Y262031D01*
X936336Y262127D01*
X936400Y262172D01*
X959314Y285086D01*
X959366Y285156D01*
X959426Y285220D01*
X959452Y285269D01*
X959485Y285313D01*
X959516Y285395D01*
X959556Y285473D01*
X959564Y285521D01*
X959586Y285579D01*
X959598Y285727D01*
X959611Y285804D01*
X959611Y332686D01*
X959599Y332772D01*
X959596Y332860D01*
X959579Y332913D01*
X959571Y332967D01*
X959536Y333047D01*
X959509Y333130D01*
X959481Y333170D01*
X959455Y333227D01*
X959359Y333340D01*
X959314Y333404D01*
X954785Y337932D01*
X954785Y355488D01*
X966970Y367672D01*
X967022Y367742D01*
X967082Y367806D01*
X967108Y367855D01*
X967141Y367899D01*
X967172Y367981D01*
X967212Y368059D01*
X967220Y368107D01*
X967242Y368165D01*
X967254Y368313D01*
X967267Y368390D01*
X967267Y370675D01*
X968113Y372715D01*
X969675Y374277D01*
X971715Y375123D01*
X973925Y375123D01*
X975965Y374277D01*
X977527Y372715D01*
X978373Y370675D01*
X978373Y368465D01*
X977527Y366425D01*
X975965Y364863D01*
X973925Y364017D01*
X971640Y364017D01*
X971554Y364005D01*
X971466Y364002D01*
X971413Y363985D01*
X971359Y363977D01*
X971279Y363942D01*
X971196Y363915D01*
X971156Y363887D01*
X971099Y363861D01*
X970986Y363765D01*
X970922Y363720D01*
X960672Y353470D01*
X960620Y353400D01*
X960560Y353336D01*
X960534Y353287D01*
X960501Y353243D01*
X960470Y353161D01*
X960430Y353083D01*
X960422Y353035D01*
X960400Y352977D01*
X960392Y352877D01*
X960389Y352868D01*
X960388Y352829D01*
X960375Y352752D01*
X960375Y348379D01*
X960379Y348349D01*
X960376Y348320D01*
X960399Y348209D01*
X960415Y348097D01*
X960427Y348070D01*
X960432Y348041D01*
X960485Y347941D01*
X960531Y347838D01*
X960550Y347815D01*
X960563Y347789D01*
X960641Y347707D01*
X960714Y347621D01*
X960739Y347604D01*
X960759Y347583D01*
X960857Y347526D01*
X960951Y347463D01*
X960979Y347454D01*
X961004Y347439D01*
X961114Y347412D01*
X961222Y347377D01*
X961252Y347376D01*
X961280Y347369D01*
X961393Y347373D01*
X961506Y347370D01*
X961535Y347377D01*
X961564Y347378D01*
X961672Y347413D01*
X961781Y347442D01*
X961807Y347457D01*
X961835Y347466D01*
X961899Y347511D01*
X962026Y347587D01*
X962069Y347633D01*
X962108Y347661D01*
X963325Y348877D01*
X965365Y349723D01*
X967574Y349723D01*
X968039Y349530D01*
X968068Y349523D01*
X968094Y349509D01*
X968205Y349487D01*
X968315Y349459D01*
X968344Y349460D01*
X968373Y349454D01*
X968486Y349464D01*
X968599Y349467D01*
X968627Y349476D01*
X968656Y349479D01*
X968762Y349520D01*
X968870Y349554D01*
X968894Y349570D01*
X968921Y349581D01*
X969012Y349649D01*
X969106Y349712D01*
X969125Y349735D01*
X969148Y349752D01*
X969216Y349843D01*
X969289Y349930D01*
X969301Y349957D01*
X969318Y349980D01*
X969358Y350086D01*
X969404Y350190D01*
X969408Y350219D01*
X969419Y350246D01*
X969428Y350359D01*
X969443Y350471D01*
X969439Y350500D01*
X969441Y350530D01*
X969424Y350606D01*
X969402Y350753D01*
X969377Y350810D01*
X969366Y350857D01*
X968882Y352024D01*
X968882Y354096D01*
X969675Y356010D01*
X971140Y357475D01*
X973054Y358268D01*
X975126Y358268D01*
X977040Y357475D01*
X978505Y356010D01*
X979298Y354096D01*
X979298Y352024D01*
X978505Y350110D01*
X977182Y348787D01*
X977130Y348717D01*
X977070Y348654D01*
X977044Y348604D01*
X977011Y348560D01*
X976980Y348478D01*
X976940Y348400D01*
X976932Y348353D01*
X976910Y348294D01*
X976898Y348147D01*
X976885Y348069D01*
X976885Y274628D01*
X976889Y274599D01*
X976886Y274570D01*
X976909Y274459D01*
X976925Y274347D01*
X976937Y274320D01*
X976942Y274291D01*
X976995Y274191D01*
X977041Y274087D01*
X977060Y274065D01*
X977073Y274039D01*
X977151Y273957D01*
X977224Y273870D01*
X977249Y273854D01*
X977269Y273833D01*
X977367Y273775D01*
X977461Y273713D01*
X977489Y273704D01*
X977514Y273689D01*
X977624Y273661D01*
X977732Y273627D01*
X977762Y273626D01*
X977790Y273619D01*
X977903Y273622D01*
X978016Y273620D01*
X978045Y273627D01*
X978074Y273628D01*
X978182Y273663D01*
X978291Y273691D01*
X978317Y273706D01*
X978345Y273715D01*
X978408Y273761D01*
X978536Y273837D01*
X978579Y273882D01*
X978618Y273910D01*
X981158Y276450D01*
X981210Y276520D01*
X981270Y276584D01*
X981296Y276633D01*
X981329Y276677D01*
X981360Y276759D01*
X981400Y276837D01*
X981408Y276885D01*
X981430Y276943D01*
X981442Y277091D01*
X981455Y277168D01*
X981455Y375521D01*
X981443Y375608D01*
X981440Y375695D01*
X981423Y375748D01*
X981415Y375803D01*
X981380Y375883D01*
X981353Y375966D01*
X981325Y376005D01*
X981299Y376062D01*
X981203Y376176D01*
X981158Y376239D01*
X979543Y377855D01*
X978697Y379895D01*
X978697Y382105D01*
X979543Y384145D01*
X981105Y385707D01*
X983145Y386553D01*
X985355Y386553D01*
X987395Y385707D01*
X988957Y384145D01*
X989803Y382105D01*
X989803Y379895D01*
X988957Y377855D01*
X987342Y376239D01*
X987290Y376170D01*
X987230Y376106D01*
X987204Y376056D01*
X987171Y376012D01*
X987140Y375930D01*
X987100Y375852D01*
X987092Y375805D01*
X987070Y375746D01*
X987058Y375599D01*
X987045Y375521D01*
X987045Y274432D01*
X952388Y239775D01*
X666586Y239775D01*
X666500Y239763D01*
X666412Y239760D01*
X666359Y239743D01*
X666305Y239735D01*
X666225Y239700D01*
X666142Y239673D01*
X666102Y239645D01*
X666045Y239619D01*
X665932Y239523D01*
X665868Y239478D01*
X664980Y238590D01*
X664928Y238520D01*
X664868Y238456D01*
X664842Y238407D01*
X664809Y238363D01*
X664778Y238281D01*
X664738Y238203D01*
X664730Y238155D01*
X664708Y238097D01*
X664696Y237949D01*
X664683Y237872D01*
X664683Y235587D01*
X663837Y233547D01*
X662275Y231985D01*
X660235Y231139D01*
X658025Y231139D01*
X655985Y231985D01*
X654423Y233547D01*
X653577Y235587D01*
X653577Y237797D01*
X654423Y239837D01*
X655985Y241399D01*
X658025Y242245D01*
X660310Y242245D01*
X660396Y242257D01*
X660484Y242260D01*
X660537Y242277D01*
X660591Y242285D01*
X660671Y242320D01*
X660754Y242347D01*
X660794Y242375D01*
X660851Y242401D01*
X660964Y242497D01*
X661028Y242542D01*
X663850Y245365D01*
X759152Y245365D01*
X759181Y245369D01*
X759210Y245366D01*
X759321Y245389D01*
X759433Y245405D01*
X759460Y245417D01*
X759489Y245422D01*
X759589Y245474D01*
X759693Y245521D01*
X759715Y245540D01*
X759741Y245553D01*
X759823Y245631D01*
X759910Y245704D01*
X759926Y245729D01*
X759947Y245749D01*
X760005Y245847D01*
X760067Y245941D01*
X760076Y245969D01*
X760091Y245994D01*
X760119Y246104D01*
X760153Y246212D01*
X760154Y246242D01*
X760161Y246270D01*
X760158Y246383D01*
X760160Y246496D01*
X760153Y246525D01*
X760152Y246554D01*
X760117Y246662D01*
X760089Y246771D01*
X760074Y246797D01*
X760065Y246825D01*
X760019Y246888D01*
X759943Y247016D01*
X759898Y247059D01*
X759870Y247098D01*
X730878Y276090D01*
X730808Y276142D01*
X730744Y276202D01*
X730695Y276228D01*
X730651Y276261D01*
X730569Y276292D01*
X730491Y276332D01*
X730443Y276340D01*
X730385Y276362D01*
X730237Y276374D01*
X730160Y276387D01*
X727875Y276387D01*
X725835Y277233D01*
X724273Y278795D01*
X723427Y280835D01*
X723427Y283045D01*
X724273Y285085D01*
X725489Y286302D01*
X725507Y286326D01*
X725529Y286345D01*
X725592Y286439D01*
X725660Y286529D01*
X725671Y286557D01*
X725687Y286581D01*
X725721Y286689D01*
X725761Y286795D01*
X725764Y286824D01*
X725773Y286852D01*
X725776Y286966D01*
X725785Y287078D01*
X725779Y287107D01*
X725780Y287136D01*
X725751Y287246D01*
X725729Y287357D01*
X725716Y287383D01*
X725708Y287411D01*
X725651Y287509D01*
X725598Y287609D01*
X725578Y287631D01*
X725563Y287656D01*
X725481Y287733D01*
X725402Y287815D01*
X725377Y287830D01*
X725356Y287850D01*
X725255Y287902D01*
X725157Y287959D01*
X725129Y287966D01*
X725103Y287980D01*
X725025Y287993D01*
X724882Y288029D01*
X724819Y288027D01*
X724771Y288035D01*
X719219Y288035D01*
X719132Y288023D01*
X719045Y288020D01*
X718992Y288003D01*
X718937Y287995D01*
X718857Y287960D01*
X718774Y287933D01*
X718735Y287905D01*
X718678Y287879D01*
X718564Y287783D01*
X718501Y287738D01*
X716885Y286123D01*
X714845Y285277D01*
X712635Y285277D01*
X710595Y286123D01*
X709033Y287685D01*
X708187Y289725D01*
X708187Y291934D01*
X708621Y292981D01*
X708650Y293093D01*
X708684Y293202D01*
X708685Y293230D01*
X708692Y293257D01*
X708689Y293371D01*
X708692Y293486D01*
X708685Y293513D01*
X708684Y293541D01*
X708649Y293650D01*
X708620Y293761D01*
X708606Y293785D01*
X708597Y293812D01*
X708533Y293907D01*
X708474Y294006D01*
X708454Y294025D01*
X708439Y294048D01*
X708351Y294122D01*
X708267Y294200D01*
X708242Y294213D01*
X708221Y294231D01*
X708116Y294277D01*
X708014Y294330D01*
X707989Y294334D01*
X707961Y294346D01*
X707698Y294383D01*
X707683Y294385D01*
X690009Y294385D01*
X689922Y294373D01*
X689835Y294370D01*
X689782Y294353D01*
X689727Y294345D01*
X689647Y294310D01*
X689564Y294283D01*
X689525Y294255D01*
X689468Y294229D01*
X689354Y294133D01*
X689291Y294088D01*
X687675Y292473D01*
X685635Y291627D01*
X683426Y291627D01*
X681363Y292482D01*
X681251Y292510D01*
X681142Y292545D01*
X681114Y292546D01*
X681087Y292553D01*
X680973Y292549D01*
X680858Y292552D01*
X680831Y292545D01*
X680803Y292545D01*
X680694Y292510D01*
X680583Y292481D01*
X680559Y292466D01*
X680532Y292458D01*
X680437Y292394D01*
X680338Y292335D01*
X680319Y292315D01*
X680296Y292300D01*
X680222Y292212D01*
X680144Y292128D01*
X680131Y292103D01*
X680113Y292082D01*
X680067Y291977D01*
X680014Y291875D01*
X680010Y291850D01*
X679998Y291822D01*
X679961Y291559D01*
X679959Y291544D01*
X679959Y269247D01*
X676446Y265735D01*
X676394Y265665D01*
X676334Y265601D01*
X676308Y265551D01*
X676275Y265507D01*
X676244Y265426D01*
X676204Y265348D01*
X676196Y265300D01*
X676174Y265242D01*
X676162Y265094D01*
X676149Y265017D01*
X676149Y263048D01*
X675298Y260994D01*
X673726Y259422D01*
X671672Y258571D01*
X669448Y258571D01*
X667394Y259422D01*
X665822Y260994D01*
X664971Y263048D01*
X664971Y265272D01*
X665822Y267326D01*
X667394Y268898D01*
X669448Y269749D01*
X671417Y269749D01*
X671503Y269761D01*
X671591Y269764D01*
X671643Y269781D01*
X671698Y269789D01*
X671778Y269824D01*
X671861Y269851D01*
X671900Y269879D01*
X671958Y269905D01*
X672071Y270001D01*
X672135Y270046D01*
X673564Y271475D01*
X673616Y271545D01*
X673676Y271609D01*
X673702Y271659D01*
X673735Y271703D01*
X673766Y271784D01*
X673806Y271862D01*
X673814Y271910D01*
X673836Y271968D01*
X673848Y272116D01*
X673861Y272193D01*
X673861Y303335D01*
X673849Y303421D01*
X673846Y303509D01*
X673829Y303561D01*
X673821Y303616D01*
X673786Y303696D01*
X673759Y303779D01*
X673731Y303818D01*
X673705Y303875D01*
X673609Y303989D01*
X673564Y304052D01*
X672172Y305444D01*
X671321Y307498D01*
X671321Y309467D01*
X671309Y309553D01*
X671306Y309641D01*
X671289Y309693D01*
X671281Y309748D01*
X671246Y309828D01*
X671219Y309911D01*
X671191Y309950D01*
X671165Y310008D01*
X671069Y310121D01*
X671024Y310185D01*
X669595Y311614D01*
X669525Y311666D01*
X669461Y311726D01*
X669411Y311752D01*
X669367Y311785D01*
X669286Y311816D01*
X669208Y311856D01*
X669160Y311864D01*
X669102Y311886D01*
X668954Y311898D01*
X668877Y311911D01*
X665893Y311911D01*
X665807Y311899D01*
X665719Y311896D01*
X665667Y311879D01*
X665612Y311871D01*
X665532Y311836D01*
X665449Y311809D01*
X665410Y311781D01*
X665352Y311755D01*
X665239Y311659D01*
X665175Y311614D01*
X570223Y216661D01*
X482600Y216661D01*
X482542Y216653D01*
X482484Y216655D01*
X482402Y216633D01*
X482319Y216621D01*
X482265Y216598D01*
X482209Y216583D01*
X482136Y216540D01*
X482059Y216505D01*
X482014Y216467D01*
X481964Y216438D01*
X481906Y216376D01*
X481842Y216322D01*
X481810Y216273D01*
X481770Y216230D01*
X481731Y216155D01*
X481685Y216085D01*
X481667Y216029D01*
X481640Y215977D01*
X481629Y215909D01*
X481599Y215814D01*
X481596Y215714D01*
X481585Y215646D01*
X481585Y200405D01*
X140970Y200405D01*
X140912Y200397D01*
X140854Y200399D01*
X140772Y200377D01*
X140689Y200365D01*
X140635Y200342D01*
X140579Y200327D01*
X140506Y200284D01*
X140429Y200249D01*
X140384Y200211D01*
X140334Y200182D01*
X140276Y200120D01*
X140212Y200066D01*
X140180Y200017D01*
X140140Y199974D01*
X140101Y199899D01*
X140055Y199829D01*
X140037Y199773D01*
X140010Y199721D01*
X139999Y199653D01*
X139969Y199558D01*
X139966Y199458D01*
X139955Y199390D01*
X139955Y118888D01*
X139974Y118755D01*
X139991Y118620D01*
X139994Y118613D01*
X139995Y118606D01*
X140050Y118484D01*
X140104Y118359D01*
X140108Y118353D01*
X140111Y118347D01*
X140198Y118244D01*
X140284Y118139D01*
X140290Y118135D01*
X140295Y118130D01*
X140408Y118055D01*
X140519Y117979D01*
X140525Y117976D01*
X140531Y117972D01*
X140661Y117932D01*
X140789Y117889D01*
X140796Y117889D01*
X140802Y117887D01*
X140937Y117883D01*
X141073Y117878D01*
X141079Y117880D01*
X141086Y117879D01*
X141216Y117913D01*
X141349Y117946D01*
X141355Y117949D01*
X141361Y117951D01*
X141477Y118020D01*
X141595Y118088D01*
X141600Y118093D01*
X141606Y118096D01*
X141699Y118196D01*
X141792Y118293D01*
X141795Y118298D01*
X141800Y118304D01*
X141930Y118557D01*
X141933Y118576D01*
X141942Y118593D01*
X142862Y121628D01*
X144104Y124625D01*
X145633Y127486D01*
X147436Y130184D01*
X149494Y132692D01*
X151788Y134986D01*
X154296Y137044D01*
X156994Y138847D01*
X159855Y140376D01*
X162852Y141618D01*
X165957Y142560D01*
X169139Y143193D01*
X171959Y143470D01*
X171959Y111506D01*
X171967Y111448D01*
X171965Y111390D01*
X171987Y111308D01*
X171999Y111225D01*
X172023Y111171D01*
X172037Y111115D01*
X172080Y111042D01*
X172115Y110965D01*
X172153Y110921D01*
X172183Y110870D01*
X172244Y110813D01*
X172299Y110748D01*
X172347Y110716D01*
X172390Y110676D01*
X172465Y110637D01*
X172535Y110591D01*
X172591Y110573D01*
X172643Y110546D01*
X172711Y110535D01*
X172806Y110505D01*
X172906Y110502D01*
X172974Y110491D01*
X173991Y110491D01*
X173991Y110489D01*
X172974Y110489D01*
X172916Y110481D01*
X172858Y110482D01*
X172776Y110461D01*
X172693Y110449D01*
X172639Y110425D01*
X172583Y110411D01*
X172510Y110368D01*
X172433Y110333D01*
X172388Y110295D01*
X172338Y110265D01*
X172280Y110204D01*
X172216Y110149D01*
X172184Y110101D01*
X172144Y110058D01*
X172105Y109983D01*
X172059Y109913D01*
X172041Y109857D01*
X172014Y109805D01*
X172003Y109737D01*
X171973Y109642D01*
X171970Y109542D01*
X171959Y109474D01*
X171959Y77510D01*
X169139Y77787D01*
X165957Y78420D01*
X162852Y79362D01*
X159855Y80604D01*
X156994Y82133D01*
X154296Y83936D01*
X151788Y85994D01*
X149494Y88288D01*
X147436Y90796D01*
X145633Y93494D01*
X144104Y96355D01*
X142862Y99352D01*
X141942Y102387D01*
X141884Y102510D01*
X141829Y102633D01*
X141825Y102638D01*
X141822Y102645D01*
X141732Y102747D01*
X141646Y102850D01*
X141640Y102854D01*
X141635Y102859D01*
X141522Y102932D01*
X141409Y103008D01*
X141402Y103010D01*
X141396Y103013D01*
X141267Y103053D01*
X141138Y103093D01*
X141131Y103093D01*
X141124Y103095D01*
X140989Y103097D01*
X140854Y103101D01*
X140847Y103099D01*
X140840Y103099D01*
X140709Y103063D01*
X140579Y103029D01*
X140573Y103025D01*
X140566Y103023D01*
X140449Y102952D01*
X140334Y102884D01*
X140329Y102878D01*
X140324Y102875D01*
X140232Y102775D01*
X140140Y102676D01*
X140137Y102670D01*
X140132Y102665D01*
X140072Y102544D01*
X140010Y102423D01*
X140009Y102417D01*
X140006Y102410D01*
X139955Y102130D01*
X139958Y102111D01*
X139955Y102092D01*
X139955Y5747D01*
X139963Y5691D01*
X139961Y5634D01*
X139983Y5551D01*
X139995Y5466D01*
X140018Y5414D01*
X140032Y5359D01*
X140076Y5285D01*
X140111Y5206D01*
X140148Y5163D01*
X140176Y5114D01*
X140239Y5055D01*
X140295Y4989D01*
X140342Y4958D01*
X140383Y4919D01*
X140460Y4879D01*
X140531Y4832D01*
X140585Y4815D01*
X140636Y4789D01*
X140705Y4777D01*
X140802Y4746D01*
X140899Y4744D01*
X140967Y4732D01*
X659127Y2968D01*
X1112665Y1423D01*
X1112723Y1431D01*
G37*
G36*
X132136Y4771D02*
X132136Y4771D01*
X132196Y4769D01*
X132276Y4790D01*
X132358Y4801D01*
X132413Y4826D01*
X132471Y4841D01*
X132542Y4883D01*
X132618Y4917D01*
X132664Y4955D01*
X132716Y4986D01*
X132772Y5046D01*
X132836Y5099D01*
X132869Y5149D01*
X132910Y5193D01*
X132948Y5267D01*
X132994Y5336D01*
X133012Y5393D01*
X133040Y5447D01*
X133051Y5514D01*
X133081Y5606D01*
X133084Y5708D01*
X133095Y5778D01*
X133095Y92943D01*
X133077Y93070D01*
X133063Y93198D01*
X133057Y93210D01*
X133055Y93224D01*
X133003Y93341D01*
X132954Y93460D01*
X132945Y93471D01*
X132939Y93484D01*
X132856Y93582D01*
X132776Y93682D01*
X132764Y93690D01*
X132756Y93701D01*
X132649Y93772D01*
X132544Y93846D01*
X132531Y93850D01*
X132519Y93858D01*
X132396Y93897D01*
X132275Y93939D01*
X132261Y93940D01*
X132248Y93944D01*
X132119Y93947D01*
X131991Y93954D01*
X131978Y93951D01*
X131964Y93951D01*
X131840Y93919D01*
X131714Y93890D01*
X131702Y93883D01*
X131689Y93879D01*
X131579Y93814D01*
X131466Y93751D01*
X131457Y93742D01*
X131444Y93734D01*
X131250Y93527D01*
X131244Y93515D01*
X131236Y93507D01*
X129424Y90796D01*
X127366Y88288D01*
X125072Y85994D01*
X122564Y83936D01*
X119866Y82133D01*
X117005Y80604D01*
X114008Y79362D01*
X110903Y78420D01*
X107721Y77787D01*
X104901Y77510D01*
X104901Y109474D01*
X104893Y109532D01*
X104895Y109590D01*
X104873Y109672D01*
X104861Y109755D01*
X104837Y109809D01*
X104823Y109865D01*
X104780Y109938D01*
X104745Y110015D01*
X104707Y110059D01*
X104677Y110110D01*
X104616Y110167D01*
X104561Y110232D01*
X104513Y110264D01*
X104470Y110304D01*
X104395Y110343D01*
X104325Y110389D01*
X104269Y110407D01*
X104217Y110434D01*
X104149Y110445D01*
X104054Y110475D01*
X103954Y110478D01*
X103886Y110489D01*
X102869Y110489D01*
X102869Y110491D01*
X103886Y110491D01*
X103944Y110499D01*
X104002Y110498D01*
X104084Y110519D01*
X104167Y110531D01*
X104221Y110555D01*
X104277Y110569D01*
X104350Y110612D01*
X104427Y110647D01*
X104472Y110685D01*
X104522Y110715D01*
X104580Y110776D01*
X104644Y110831D01*
X104676Y110879D01*
X104716Y110922D01*
X104755Y110997D01*
X104801Y111067D01*
X104819Y111123D01*
X104846Y111175D01*
X104857Y111243D01*
X104887Y111338D01*
X104890Y111438D01*
X104901Y111506D01*
X104901Y143470D01*
X107721Y143193D01*
X110903Y142560D01*
X114008Y141618D01*
X117005Y140376D01*
X119866Y138847D01*
X122564Y137044D01*
X125072Y134986D01*
X127366Y132692D01*
X129424Y130184D01*
X131236Y127473D01*
X131322Y127377D01*
X131405Y127279D01*
X131416Y127272D01*
X131425Y127261D01*
X131534Y127193D01*
X131641Y127122D01*
X131654Y127118D01*
X131666Y127110D01*
X131789Y127075D01*
X131912Y127036D01*
X131926Y127036D01*
X131939Y127032D01*
X132068Y127032D01*
X132196Y127029D01*
X132210Y127032D01*
X132224Y127032D01*
X132347Y127068D01*
X132471Y127101D01*
X132483Y127108D01*
X132497Y127112D01*
X132605Y127180D01*
X132716Y127246D01*
X132725Y127256D01*
X132737Y127263D01*
X132822Y127359D01*
X132910Y127453D01*
X132917Y127466D01*
X132926Y127476D01*
X132981Y127592D01*
X133040Y127706D01*
X133042Y127719D01*
X133048Y127732D01*
X133095Y128013D01*
X133093Y128026D01*
X133095Y128037D01*
X133095Y497840D01*
X133087Y497898D01*
X133089Y497956D01*
X133067Y498038D01*
X133055Y498122D01*
X133032Y498175D01*
X133017Y498231D01*
X132974Y498304D01*
X132939Y498381D01*
X132901Y498426D01*
X132872Y498476D01*
X132810Y498534D01*
X132756Y498598D01*
X132707Y498630D01*
X132664Y498670D01*
X132589Y498709D01*
X132519Y498756D01*
X132463Y498773D01*
X132411Y498800D01*
X132343Y498811D01*
X132248Y498841D01*
X132148Y498844D01*
X132080Y498855D01*
X9472Y498855D01*
X9415Y498847D01*
X9357Y498849D01*
X9275Y498827D01*
X9190Y498815D01*
X9138Y498792D01*
X9082Y498777D01*
X9009Y498734D01*
X8931Y498699D01*
X8887Y498662D01*
X8837Y498632D01*
X8779Y498570D01*
X8714Y498515D01*
X8682Y498467D01*
X8642Y498425D01*
X8604Y498350D01*
X8556Y498279D01*
X8539Y498224D01*
X8513Y498172D01*
X8501Y498104D01*
X8471Y498008D01*
X8468Y497909D01*
X8457Y497841D01*
X7758Y6199D01*
X7766Y6142D01*
X7765Y6085D01*
X7786Y6002D01*
X7798Y5917D01*
X7821Y5865D01*
X7835Y5809D01*
X7879Y5736D01*
X7914Y5658D01*
X7951Y5614D01*
X7980Y5564D01*
X8042Y5506D01*
X8097Y5441D01*
X8145Y5409D01*
X8187Y5369D01*
X8262Y5330D01*
X8333Y5283D01*
X8388Y5265D01*
X8439Y5239D01*
X8508Y5227D01*
X8604Y5196D01*
X8703Y5194D01*
X8770Y5182D01*
X132077Y4762D01*
X132136Y4771D01*
G37*
G36*
X401594Y207522D02*
X401594Y207522D01*
X401613Y207520D01*
X401715Y207542D01*
X401817Y207559D01*
X401834Y207568D01*
X401854Y207572D01*
X401943Y207625D01*
X402034Y207674D01*
X402048Y207688D01*
X402065Y207698D01*
X402132Y207777D01*
X402204Y207852D01*
X402212Y207870D01*
X402225Y207885D01*
X402264Y207981D01*
X402307Y208075D01*
X402309Y208095D01*
X402317Y208113D01*
X402335Y208280D01*
X402335Y210864D01*
X403341Y213291D01*
X405199Y215149D01*
X407626Y216155D01*
X409481Y216155D01*
X409571Y216169D01*
X409662Y216177D01*
X409692Y216189D01*
X409724Y216194D01*
X409804Y216237D01*
X409888Y216273D01*
X409920Y216299D01*
X409941Y216310D01*
X409963Y216333D01*
X410019Y216378D01*
X417416Y223775D01*
X476250Y223775D01*
X476270Y223778D01*
X476289Y223776D01*
X476391Y223798D01*
X476493Y223814D01*
X476510Y223824D01*
X476530Y223828D01*
X476619Y223881D01*
X476710Y223930D01*
X476724Y223944D01*
X476741Y223954D01*
X476808Y224033D01*
X476880Y224108D01*
X476888Y224126D01*
X476901Y224141D01*
X476940Y224237D01*
X476983Y224331D01*
X476985Y224351D01*
X476993Y224369D01*
X477011Y224536D01*
X477011Y311150D01*
X477008Y311170D01*
X477010Y311189D01*
X476988Y311291D01*
X476972Y311393D01*
X476962Y311410D01*
X476958Y311430D01*
X476905Y311519D01*
X476856Y311610D01*
X476842Y311624D01*
X476832Y311641D01*
X476753Y311708D01*
X476678Y311780D01*
X476660Y311788D01*
X476645Y311801D01*
X476549Y311840D01*
X476455Y311883D01*
X476435Y311885D01*
X476417Y311893D01*
X476250Y311911D01*
X245871Y311911D01*
X245871Y497840D01*
X245868Y497860D01*
X245870Y497879D01*
X245848Y497981D01*
X245832Y498083D01*
X245822Y498100D01*
X245818Y498120D01*
X245765Y498209D01*
X245716Y498300D01*
X245702Y498314D01*
X245692Y498331D01*
X245613Y498398D01*
X245538Y498470D01*
X245520Y498478D01*
X245505Y498491D01*
X245409Y498530D01*
X245315Y498573D01*
X245295Y498575D01*
X245277Y498583D01*
X245110Y498601D01*
X142240Y498601D01*
X142220Y498598D01*
X142201Y498600D01*
X142099Y498578D01*
X141997Y498562D01*
X141980Y498552D01*
X141960Y498548D01*
X141871Y498495D01*
X141780Y498446D01*
X141766Y498432D01*
X141749Y498422D01*
X141682Y498343D01*
X141611Y498268D01*
X141602Y498250D01*
X141589Y498235D01*
X141550Y498139D01*
X141507Y498045D01*
X141505Y498025D01*
X141497Y498007D01*
X141479Y497840D01*
X141479Y433019D01*
X141492Y432940D01*
X141496Y432859D01*
X141512Y432819D01*
X141519Y432776D01*
X141556Y432705D01*
X141586Y432630D01*
X141614Y432597D01*
X141634Y432559D01*
X141692Y432504D01*
X141744Y432442D01*
X141781Y432419D01*
X141812Y432390D01*
X141885Y432356D01*
X141954Y432314D01*
X141996Y432304D01*
X142035Y432286D01*
X142115Y432277D01*
X142194Y432259D01*
X142237Y432264D01*
X142279Y432259D01*
X142358Y432276D01*
X142439Y432284D01*
X142478Y432302D01*
X142520Y432311D01*
X142589Y432353D01*
X142663Y432386D01*
X142694Y432415D01*
X142731Y432437D01*
X142783Y432499D01*
X142843Y432554D01*
X142863Y432592D01*
X142891Y432624D01*
X142921Y432699D01*
X142959Y432770D01*
X142972Y432826D01*
X142983Y432852D01*
X142987Y432894D01*
X142996Y432934D01*
X143170Y434472D01*
X143757Y437045D01*
X144628Y439535D01*
X145774Y441913D01*
X147178Y444148D01*
X148823Y446211D01*
X150689Y448077D01*
X152752Y449722D01*
X154987Y451126D01*
X157365Y452272D01*
X159855Y453143D01*
X162428Y453730D01*
X164847Y454003D01*
X164847Y431292D01*
X164850Y431272D01*
X164848Y431253D01*
X164870Y431151D01*
X164887Y431049D01*
X164896Y431032D01*
X164900Y431012D01*
X164953Y430923D01*
X165002Y430832D01*
X165016Y430818D01*
X165026Y430801D01*
X165105Y430734D01*
X165180Y430663D01*
X165198Y430654D01*
X165213Y430641D01*
X165309Y430603D01*
X165403Y430559D01*
X165423Y430557D01*
X165441Y430549D01*
X165608Y430531D01*
X166371Y430531D01*
X166371Y430529D01*
X165608Y430529D01*
X165588Y430526D01*
X165569Y430528D01*
X165467Y430506D01*
X165365Y430489D01*
X165348Y430480D01*
X165328Y430476D01*
X165239Y430423D01*
X165148Y430374D01*
X165134Y430360D01*
X165117Y430350D01*
X165050Y430271D01*
X164979Y430196D01*
X164970Y430178D01*
X164957Y430163D01*
X164918Y430067D01*
X164875Y429973D01*
X164873Y429953D01*
X164865Y429935D01*
X164847Y429768D01*
X164847Y407057D01*
X162428Y407330D01*
X160766Y407709D01*
X159855Y407917D01*
X157365Y408788D01*
X154987Y409934D01*
X152752Y411338D01*
X150689Y412983D01*
X148823Y414849D01*
X147178Y416912D01*
X145774Y419147D01*
X144628Y421525D01*
X143757Y424015D01*
X143170Y426588D01*
X142996Y428126D01*
X142975Y428204D01*
X142962Y428284D01*
X142941Y428321D01*
X142930Y428363D01*
X142884Y428430D01*
X142846Y428501D01*
X142815Y428530D01*
X142791Y428566D01*
X142727Y428615D01*
X142668Y428670D01*
X142629Y428688D01*
X142595Y428714D01*
X142518Y428740D01*
X142445Y428774D01*
X142402Y428779D01*
X142362Y428792D01*
X142281Y428792D01*
X142201Y428801D01*
X142159Y428792D01*
X142116Y428792D01*
X142039Y428766D01*
X141960Y428749D01*
X141923Y428727D01*
X141883Y428713D01*
X141818Y428664D01*
X141749Y428623D01*
X141721Y428590D01*
X141687Y428564D01*
X141642Y428497D01*
X141589Y428436D01*
X141573Y428396D01*
X141549Y428360D01*
X141528Y428283D01*
X141497Y428208D01*
X141491Y428151D01*
X141483Y428123D01*
X141483Y428082D01*
X141479Y428041D01*
X141479Y301905D01*
X141481Y301889D01*
X141480Y301874D01*
X141491Y301821D01*
X141494Y301753D01*
X141511Y301709D01*
X141519Y301662D01*
X141531Y301638D01*
X141532Y301634D01*
X141542Y301617D01*
X141554Y301594D01*
X141581Y301523D01*
X141611Y301486D01*
X141634Y301444D01*
X141689Y301392D01*
X141737Y301333D01*
X141778Y301308D01*
X141812Y301275D01*
X141881Y301243D01*
X141946Y301202D01*
X141992Y301191D01*
X142035Y301171D01*
X142111Y301163D01*
X142185Y301145D01*
X142232Y301150D01*
X142279Y301144D01*
X142354Y301160D01*
X142430Y301167D01*
X142473Y301186D01*
X142520Y301197D01*
X142585Y301236D01*
X142655Y301266D01*
X142690Y301298D01*
X142731Y301323D01*
X142780Y301381D01*
X142837Y301432D01*
X142864Y301475D01*
X142874Y301486D01*
X142878Y301495D01*
X142891Y301510D01*
X142901Y301534D01*
X142926Y301574D01*
X143234Y302213D01*
X144638Y304448D01*
X146283Y306511D01*
X148149Y308377D01*
X150212Y310022D01*
X152447Y311426D01*
X154825Y312572D01*
X157315Y313443D01*
X159888Y314030D01*
X162307Y314303D01*
X162307Y291592D01*
X162310Y291572D01*
X162308Y291553D01*
X162330Y291451D01*
X162347Y291349D01*
X162356Y291332D01*
X162360Y291312D01*
X162413Y291223D01*
X162462Y291132D01*
X162476Y291118D01*
X162486Y291101D01*
X162565Y291034D01*
X162640Y290963D01*
X162658Y290954D01*
X162673Y290941D01*
X162769Y290903D01*
X162863Y290859D01*
X162883Y290857D01*
X162901Y290849D01*
X163068Y290831D01*
X163831Y290831D01*
X163831Y290829D01*
X163068Y290829D01*
X163048Y290826D01*
X163029Y290828D01*
X162927Y290806D01*
X162825Y290789D01*
X162808Y290780D01*
X162788Y290776D01*
X162699Y290723D01*
X162608Y290674D01*
X162594Y290660D01*
X162577Y290650D01*
X162510Y290571D01*
X162439Y290496D01*
X162430Y290478D01*
X162417Y290463D01*
X162378Y290367D01*
X162335Y290273D01*
X162333Y290253D01*
X162325Y290235D01*
X162307Y290068D01*
X162307Y267357D01*
X159888Y267630D01*
X159847Y267639D01*
X157315Y268217D01*
X154825Y269088D01*
X152447Y270234D01*
X150212Y271638D01*
X148149Y273283D01*
X146283Y275149D01*
X144638Y277212D01*
X143234Y279447D01*
X142926Y280086D01*
X142882Y280148D01*
X142846Y280216D01*
X142812Y280248D01*
X142785Y280287D01*
X142723Y280332D01*
X142668Y280385D01*
X142625Y280405D01*
X142587Y280433D01*
X142514Y280457D01*
X142445Y280489D01*
X142398Y280494D01*
X142353Y280508D01*
X142276Y280507D01*
X142201Y280516D01*
X142154Y280506D01*
X142107Y280505D01*
X142035Y280480D01*
X141960Y280463D01*
X141919Y280439D01*
X141875Y280423D01*
X141814Y280376D01*
X141749Y280337D01*
X141718Y280301D01*
X141681Y280272D01*
X141639Y280208D01*
X141589Y280150D01*
X141571Y280106D01*
X141545Y280067D01*
X141526Y279993D01*
X141497Y279922D01*
X141490Y279859D01*
X141482Y279829D01*
X141484Y279803D01*
X141479Y279755D01*
X141479Y208280D01*
X141482Y208260D01*
X141480Y208241D01*
X141502Y208139D01*
X141519Y208037D01*
X141528Y208020D01*
X141532Y208000D01*
X141585Y207911D01*
X141634Y207820D01*
X141648Y207806D01*
X141658Y207789D01*
X141737Y207722D01*
X141812Y207651D01*
X141830Y207642D01*
X141845Y207629D01*
X141941Y207590D01*
X142035Y207547D01*
X142055Y207545D01*
X142073Y207537D01*
X142240Y207519D01*
X401574Y207519D01*
X401594Y207522D01*
G37*
%LPC*%
G36*
X266445Y133095D02*
X266445Y133095D01*
X266445Y167895D01*
X481585Y167895D01*
X481585Y160020D01*
X481593Y159962D01*
X481591Y159904D01*
X481613Y159822D01*
X481625Y159739D01*
X481649Y159685D01*
X481663Y159629D01*
X481706Y159556D01*
X481741Y159479D01*
X481779Y159434D01*
X481809Y159384D01*
X481870Y159326D01*
X481925Y159262D01*
X481973Y159230D01*
X482016Y159190D01*
X482091Y159151D01*
X482161Y159105D01*
X482217Y159087D01*
X482269Y159060D01*
X482337Y159049D01*
X482432Y159019D01*
X482532Y159016D01*
X482600Y159005D01*
X651765Y159005D01*
X651765Y133095D01*
X266445Y133095D01*
G37*
%LPD*%
%LPC*%
G36*
X994575Y275117D02*
X994575Y275117D01*
X992535Y275963D01*
X990973Y277525D01*
X990127Y279565D01*
X990127Y281775D01*
X990973Y283815D01*
X991826Y284669D01*
X991878Y284738D01*
X991938Y284802D01*
X991964Y284852D01*
X991997Y284896D01*
X992028Y284978D01*
X992068Y285056D01*
X992076Y285103D01*
X992098Y285162D01*
X992110Y285309D01*
X992123Y285387D01*
X992123Y287223D01*
X1000716Y295816D01*
X1000768Y295886D01*
X1000828Y295950D01*
X1000854Y295999D01*
X1000887Y296043D01*
X1000918Y296125D01*
X1000958Y296203D01*
X1000966Y296250D01*
X1000988Y296309D01*
X1001000Y296456D01*
X1001013Y296534D01*
X1001013Y377836D01*
X1001001Y377923D01*
X1000998Y378010D01*
X1000981Y378063D01*
X1000973Y378118D01*
X1000938Y378198D01*
X1000911Y378281D01*
X1000883Y378320D01*
X1000857Y378377D01*
X1000761Y378490D01*
X1000716Y378554D01*
X981804Y397466D01*
X981734Y397518D01*
X981670Y397578D01*
X981621Y397604D01*
X981577Y397637D01*
X981495Y397668D01*
X981417Y397708D01*
X981370Y397716D01*
X981311Y397738D01*
X981164Y397750D01*
X981086Y397763D01*
X973952Y397763D01*
X973867Y397751D01*
X973781Y397749D01*
X973727Y397731D01*
X973671Y397723D01*
X973592Y397688D01*
X973510Y397662D01*
X973463Y397630D01*
X973411Y397607D01*
X973346Y397551D01*
X973274Y397504D01*
X973238Y397460D01*
X973194Y397424D01*
X973147Y397352D01*
X973091Y397286D01*
X973068Y397234D01*
X973037Y397187D01*
X973011Y397105D01*
X972976Y397026D01*
X972968Y396970D01*
X972951Y396916D01*
X972949Y396830D01*
X972937Y396744D01*
X972945Y396688D01*
X972944Y396632D01*
X972965Y396548D01*
X972978Y396463D01*
X973001Y396411D01*
X973016Y396357D01*
X973060Y396283D01*
X973095Y396204D01*
X973132Y396161D01*
X973161Y396112D01*
X973224Y396053D01*
X973279Y395988D01*
X973321Y395962D01*
X973368Y395918D01*
X973382Y395910D01*
X974987Y394305D01*
X975833Y392265D01*
X975833Y390055D01*
X974987Y388015D01*
X973425Y386453D01*
X971385Y385607D01*
X969175Y385607D01*
X967135Y386453D01*
X965773Y387814D01*
X965703Y387866D01*
X965640Y387926D01*
X965590Y387952D01*
X965546Y387985D01*
X965464Y388016D01*
X965387Y388056D01*
X965339Y388064D01*
X965281Y388086D01*
X965133Y388098D01*
X965055Y388111D01*
X961803Y388111D01*
X961717Y388099D01*
X961629Y388096D01*
X961577Y388079D01*
X961522Y388071D01*
X961442Y388036D01*
X961359Y388009D01*
X961320Y387981D01*
X961262Y387955D01*
X961149Y387859D01*
X961085Y387814D01*
X912630Y339359D01*
X912578Y339289D01*
X912518Y339225D01*
X912492Y339175D01*
X912459Y339131D01*
X912428Y339050D01*
X912388Y338972D01*
X912380Y338924D01*
X912358Y338866D01*
X912346Y338718D01*
X912333Y338641D01*
X912333Y336715D01*
X911487Y334675D01*
X909866Y333053D01*
X909819Y333026D01*
X909760Y332963D01*
X909694Y332907D01*
X909663Y332860D01*
X909624Y332819D01*
X909585Y332743D01*
X909537Y332671D01*
X909520Y332617D01*
X909494Y332566D01*
X909477Y332482D01*
X909451Y332400D01*
X909450Y332343D01*
X909439Y332288D01*
X909446Y332202D01*
X909444Y332116D01*
X909458Y332061D01*
X909463Y332004D01*
X909494Y331924D01*
X909516Y331841D01*
X909544Y331792D01*
X909565Y331739D01*
X909617Y331670D01*
X909661Y331596D01*
X909702Y331557D01*
X909736Y331512D01*
X909805Y331461D01*
X909868Y331402D01*
X909919Y331376D01*
X909964Y331342D01*
X910045Y331311D01*
X910121Y331272D01*
X910170Y331264D01*
X910230Y331241D01*
X910375Y331230D01*
X910452Y331217D01*
X912063Y331217D01*
X926847Y316433D01*
X926847Y315379D01*
X926859Y315292D01*
X926862Y315205D01*
X926879Y315152D01*
X926887Y315097D01*
X926922Y315017D01*
X926949Y314934D01*
X926977Y314895D01*
X927003Y314838D01*
X927099Y314724D01*
X927144Y314661D01*
X927705Y314100D01*
X928498Y312186D01*
X928498Y310114D01*
X927705Y308200D01*
X926240Y306735D01*
X924326Y305942D01*
X922254Y305942D01*
X920340Y306735D01*
X918875Y308200D01*
X918082Y310114D01*
X918082Y312186D01*
X918687Y313646D01*
X918688Y313648D01*
X918688Y313649D01*
X918722Y313780D01*
X918758Y313922D01*
X918758Y313923D01*
X918759Y313925D01*
X918754Y314065D01*
X918750Y314206D01*
X918750Y314207D01*
X918750Y314209D01*
X918707Y314342D01*
X918663Y314477D01*
X918663Y314478D01*
X918662Y314479D01*
X918653Y314492D01*
X918505Y314713D01*
X918482Y314732D01*
X918467Y314753D01*
X909414Y323806D01*
X909344Y323858D01*
X909280Y323918D01*
X909231Y323944D01*
X909187Y323977D01*
X909105Y324008D01*
X909027Y324048D01*
X908980Y324056D01*
X908921Y324078D01*
X908774Y324090D01*
X908696Y324103D01*
X897687Y324103D01*
X891793Y329997D01*
X891793Y355803D01*
X894174Y358184D01*
X897010Y361020D01*
X897011Y361021D01*
X897012Y361022D01*
X897101Y361140D01*
X897181Y361247D01*
X897181Y361249D01*
X897182Y361250D01*
X897233Y361383D01*
X897282Y361513D01*
X897282Y361514D01*
X897283Y361516D01*
X897294Y361660D01*
X897306Y361796D01*
X897305Y361797D01*
X897305Y361799D01*
X897302Y361815D01*
X897250Y362075D01*
X897236Y362102D01*
X897230Y362126D01*
X896813Y363134D01*
X896813Y365205D01*
X897606Y367120D01*
X899070Y368584D01*
X900985Y369377D01*
X903056Y369377D01*
X904970Y368584D01*
X906435Y367120D01*
X907228Y365205D01*
X907228Y363134D01*
X906435Y361220D01*
X905875Y360659D01*
X905822Y360589D01*
X905762Y360525D01*
X905737Y360476D01*
X905704Y360432D01*
X905673Y360350D01*
X905633Y360272D01*
X905625Y360224D01*
X905602Y360166D01*
X905590Y360018D01*
X905577Y359941D01*
X905577Y359527D01*
X903196Y357146D01*
X899204Y353154D01*
X899152Y353084D01*
X899092Y353020D01*
X899066Y352971D01*
X899033Y352927D01*
X899002Y352845D01*
X898962Y352767D01*
X898954Y352720D01*
X898932Y352661D01*
X898920Y352514D01*
X898907Y352436D01*
X898907Y333364D01*
X898914Y333313D01*
X898913Y333294D01*
X898919Y333272D01*
X898922Y333190D01*
X898939Y333137D01*
X898947Y333082D01*
X898982Y333002D01*
X899009Y332919D01*
X899037Y332880D01*
X899063Y332823D01*
X899159Y332710D01*
X899204Y332646D01*
X900336Y331514D01*
X900406Y331462D01*
X900470Y331402D01*
X900519Y331376D01*
X900563Y331343D01*
X900645Y331312D01*
X900723Y331272D01*
X900770Y331264D01*
X900829Y331242D01*
X900976Y331230D01*
X901054Y331217D01*
X903108Y331217D01*
X903193Y331229D01*
X903279Y331231D01*
X903333Y331249D01*
X903389Y331257D01*
X903468Y331292D01*
X903550Y331318D01*
X903597Y331350D01*
X903649Y331373D01*
X903714Y331429D01*
X903786Y331476D01*
X903822Y331520D01*
X903866Y331556D01*
X903913Y331628D01*
X903969Y331694D01*
X903992Y331746D01*
X904023Y331793D01*
X904049Y331875D01*
X904084Y331954D01*
X904092Y332010D01*
X904109Y332064D01*
X904111Y332150D01*
X904123Y332236D01*
X904115Y332292D01*
X904116Y332348D01*
X904095Y332432D01*
X904082Y332517D01*
X904059Y332569D01*
X904044Y332623D01*
X904000Y332697D01*
X903965Y332776D01*
X903928Y332819D01*
X903899Y332868D01*
X903836Y332927D01*
X903781Y332992D01*
X903739Y333018D01*
X903692Y333062D01*
X903678Y333070D01*
X902073Y334675D01*
X901227Y336715D01*
X901227Y338925D01*
X902073Y340965D01*
X903635Y342527D01*
X903803Y342597D01*
X903828Y342612D01*
X903856Y342621D01*
X903950Y342684D01*
X904048Y342742D01*
X904068Y342763D01*
X904092Y342779D01*
X904165Y342866D01*
X904243Y342948D01*
X904256Y342974D01*
X904275Y342997D01*
X904321Y343100D01*
X904373Y343201D01*
X904379Y343230D01*
X904391Y343257D01*
X904406Y343369D01*
X904428Y343480D01*
X904425Y343509D01*
X904429Y343538D01*
X904413Y343650D01*
X904404Y343763D01*
X904393Y343790D01*
X904389Y343820D01*
X904342Y343923D01*
X904301Y344028D01*
X904284Y344052D01*
X904272Y344079D01*
X904198Y344165D01*
X904130Y344255D01*
X904106Y344273D01*
X904087Y344295D01*
X904021Y344337D01*
X903902Y344425D01*
X903844Y344447D01*
X903803Y344473D01*
X903635Y344543D01*
X902073Y346105D01*
X901227Y348145D01*
X901227Y350355D01*
X902073Y352395D01*
X903635Y353957D01*
X905675Y354803D01*
X907601Y354803D01*
X907687Y354815D01*
X907775Y354818D01*
X907827Y354835D01*
X907882Y354843D01*
X907962Y354878D01*
X908045Y354905D01*
X908084Y354933D01*
X908142Y354959D01*
X908255Y355055D01*
X908319Y355100D01*
X942840Y389621D01*
X942892Y389691D01*
X942952Y389755D01*
X942978Y389805D01*
X943011Y389849D01*
X943042Y389930D01*
X943082Y390008D01*
X943090Y390056D01*
X943112Y390114D01*
X943124Y390262D01*
X943137Y390339D01*
X943137Y392265D01*
X943983Y394305D01*
X945604Y395927D01*
X945651Y395954D01*
X945710Y396017D01*
X945776Y396073D01*
X945807Y396120D01*
X945846Y396161D01*
X945885Y396237D01*
X945933Y396309D01*
X945950Y396363D01*
X945976Y396414D01*
X945993Y396498D01*
X946019Y396580D01*
X946020Y396637D01*
X946031Y396692D01*
X946024Y396778D01*
X946026Y396864D01*
X946012Y396919D01*
X946007Y396976D01*
X945976Y397056D01*
X945954Y397139D01*
X945926Y397188D01*
X945905Y397241D01*
X945853Y397310D01*
X945809Y397384D01*
X945768Y397423D01*
X945734Y397468D01*
X945665Y397519D01*
X945602Y397578D01*
X945551Y397604D01*
X945506Y397638D01*
X945425Y397669D01*
X945349Y397708D01*
X945300Y397716D01*
X945240Y397739D01*
X945095Y397750D01*
X945018Y397763D01*
X897687Y397763D01*
X864964Y430486D01*
X864894Y430538D01*
X864830Y430598D01*
X864781Y430624D01*
X864737Y430657D01*
X864655Y430688D01*
X864577Y430728D01*
X864530Y430736D01*
X864471Y430758D01*
X864324Y430770D01*
X864246Y430783D01*
X861967Y430783D01*
X861880Y430771D01*
X861793Y430768D01*
X861740Y430751D01*
X861685Y430743D01*
X861605Y430708D01*
X861522Y430681D01*
X861483Y430653D01*
X861426Y430627D01*
X861312Y430531D01*
X861249Y430486D01*
X860395Y429633D01*
X858355Y428787D01*
X856145Y428787D01*
X854105Y429633D01*
X852543Y431195D01*
X851697Y433235D01*
X851697Y435445D01*
X852543Y437485D01*
X854105Y439047D01*
X856145Y439893D01*
X858355Y439893D01*
X860395Y439047D01*
X861249Y438194D01*
X861318Y438142D01*
X861382Y438082D01*
X861432Y438056D01*
X861476Y438023D01*
X861558Y437992D01*
X861636Y437952D01*
X861683Y437944D01*
X861742Y437922D01*
X861889Y437910D01*
X861967Y437897D01*
X867802Y437897D01*
X867831Y437901D01*
X867861Y437898D01*
X867972Y437921D01*
X868084Y437937D01*
X868110Y437949D01*
X868139Y437954D01*
X868240Y438006D01*
X868343Y438053D01*
X868366Y438072D01*
X868392Y438085D01*
X868474Y438163D01*
X868560Y438236D01*
X868576Y438261D01*
X868598Y438281D01*
X868655Y438379D01*
X868718Y438473D01*
X868727Y438501D01*
X868741Y438526D01*
X868769Y438636D01*
X868804Y438744D01*
X868804Y438774D01*
X868812Y438802D01*
X868808Y438915D01*
X868811Y439028D01*
X868803Y439057D01*
X868802Y439086D01*
X868768Y439194D01*
X868739Y439303D01*
X868724Y439329D01*
X868715Y439357D01*
X868669Y439420D01*
X868594Y439548D01*
X868548Y439591D01*
X868520Y439630D01*
X864964Y443186D01*
X864894Y443238D01*
X864830Y443298D01*
X864781Y443324D01*
X864737Y443357D01*
X864655Y443388D01*
X864577Y443428D01*
X864530Y443436D01*
X864471Y443458D01*
X864324Y443470D01*
X864246Y443483D01*
X794817Y443483D01*
X794570Y443730D01*
X794500Y443782D01*
X794436Y443842D01*
X794387Y443868D01*
X794343Y443901D01*
X794261Y443932D01*
X794183Y443972D01*
X794136Y443980D01*
X794077Y444002D01*
X793930Y444014D01*
X793852Y444027D01*
X792645Y444027D01*
X790605Y444873D01*
X789043Y446435D01*
X788197Y448475D01*
X788197Y450685D01*
X789043Y452725D01*
X789208Y452890D01*
X789259Y452959D01*
X789318Y453022D01*
X789344Y453072D01*
X789379Y453118D01*
X789409Y453198D01*
X789448Y453274D01*
X789459Y453330D01*
X789480Y453383D01*
X789487Y453469D01*
X789504Y453553D01*
X789499Y453610D01*
X789503Y453667D01*
X789486Y453751D01*
X789479Y453836D01*
X789459Y453890D01*
X789447Y453945D01*
X789408Y454022D01*
X789377Y454102D01*
X789343Y454147D01*
X789316Y454198D01*
X789257Y454260D01*
X789205Y454328D01*
X789160Y454362D01*
X789121Y454404D01*
X789046Y454447D01*
X788978Y454499D01*
X788924Y454519D01*
X788875Y454547D01*
X788792Y454569D01*
X788712Y454599D01*
X788655Y454604D01*
X788600Y454618D01*
X788514Y454615D01*
X788428Y454622D01*
X788380Y454611D01*
X788316Y454609D01*
X788178Y454564D01*
X788101Y454546D01*
X787234Y454187D01*
X785025Y454187D01*
X782985Y455033D01*
X781423Y456595D01*
X780577Y458635D01*
X780577Y460845D01*
X781423Y462885D01*
X782985Y464447D01*
X785025Y465293D01*
X787235Y465293D01*
X789275Y464447D01*
X790129Y463594D01*
X790198Y463542D01*
X790262Y463482D01*
X790312Y463456D01*
X790356Y463423D01*
X790438Y463392D01*
X790516Y463352D01*
X790563Y463344D01*
X790622Y463322D01*
X790769Y463310D01*
X790847Y463297D01*
X869737Y463297D01*
X872118Y460916D01*
X883954Y449080D01*
X884024Y449028D01*
X884088Y448968D01*
X884137Y448942D01*
X884181Y448909D01*
X884263Y448878D01*
X884341Y448838D01*
X884388Y448830D01*
X884447Y448808D01*
X884594Y448796D01*
X884672Y448783D01*
X885879Y448783D01*
X887919Y447937D01*
X889481Y446375D01*
X890327Y444335D01*
X890327Y442125D01*
X889481Y440085D01*
X887919Y438523D01*
X885879Y437677D01*
X883670Y437677D01*
X883030Y437942D01*
X882947Y437964D01*
X882867Y437994D01*
X882810Y437999D01*
X882755Y438013D01*
X882669Y438011D01*
X882583Y438018D01*
X882528Y438007D01*
X882471Y438005D01*
X882389Y437979D01*
X882305Y437962D01*
X882254Y437936D01*
X882200Y437918D01*
X882129Y437870D01*
X882052Y437831D01*
X882011Y437792D01*
X881964Y437760D01*
X881909Y437694D01*
X881846Y437635D01*
X881817Y437586D01*
X881781Y437542D01*
X881746Y437464D01*
X881702Y437390D01*
X881688Y437335D01*
X881665Y437283D01*
X881654Y437197D01*
X881632Y437114D01*
X881634Y437057D01*
X881626Y437001D01*
X881639Y436916D01*
X881641Y436830D01*
X881659Y436776D01*
X881667Y436720D01*
X881702Y436641D01*
X881729Y436560D01*
X881758Y436519D01*
X881784Y436461D01*
X881873Y436356D01*
X881889Y436330D01*
X881901Y436318D01*
X881924Y436286D01*
X900880Y417330D01*
X900950Y417278D01*
X901014Y417218D01*
X901063Y417192D01*
X901107Y417159D01*
X901189Y417128D01*
X901267Y417088D01*
X901314Y417080D01*
X901373Y417058D01*
X901520Y417046D01*
X901598Y417033D01*
X902805Y417033D01*
X904845Y416187D01*
X906407Y414625D01*
X907253Y412585D01*
X907253Y410375D01*
X906407Y408335D01*
X904786Y406713D01*
X904739Y406686D01*
X904680Y406623D01*
X904614Y406567D01*
X904583Y406520D01*
X904544Y406479D01*
X904505Y406403D01*
X904457Y406331D01*
X904440Y406277D01*
X904414Y406226D01*
X904397Y406142D01*
X904371Y406060D01*
X904370Y406003D01*
X904359Y405948D01*
X904366Y405862D01*
X904364Y405776D01*
X904378Y405721D01*
X904383Y405664D01*
X904414Y405584D01*
X904436Y405501D01*
X904464Y405452D01*
X904485Y405399D01*
X904537Y405330D01*
X904581Y405256D01*
X904622Y405217D01*
X904656Y405172D01*
X904725Y405121D01*
X904788Y405062D01*
X904839Y405036D01*
X904884Y405002D01*
X904965Y404971D01*
X905041Y404932D01*
X905090Y404924D01*
X905150Y404901D01*
X905295Y404890D01*
X905372Y404877D01*
X984453Y404877D01*
X1008127Y381203D01*
X1008127Y293167D01*
X1000299Y285339D01*
X1000264Y285292D01*
X1000222Y285252D01*
X1000179Y285179D01*
X1000128Y285112D01*
X1000108Y285057D01*
X1000078Y285007D01*
X1000057Y284925D01*
X1000027Y284846D01*
X1000022Y284788D01*
X1000008Y284731D01*
X1000011Y284647D01*
X1000004Y284563D01*
X1000015Y284506D01*
X1000017Y284447D01*
X1000043Y284367D01*
X1000059Y284284D01*
X1000086Y284232D01*
X1000104Y284177D01*
X1000145Y284121D01*
X1000190Y284032D01*
X1000259Y283960D01*
X1000299Y283903D01*
X1000387Y283815D01*
X1001233Y281775D01*
X1001233Y279565D01*
X1000387Y277525D01*
X998825Y275963D01*
X996785Y275117D01*
X994575Y275117D01*
G37*
%LPD*%
%LPC*%
G36*
X603415Y381761D02*
X603415Y381761D01*
X599027Y383579D01*
X595669Y386937D01*
X594746Y389165D01*
X594684Y389265D01*
X594624Y389365D01*
X594620Y389369D01*
X594616Y389374D01*
X594526Y389449D01*
X594438Y389525D01*
X594432Y389527D01*
X594427Y389531D01*
X594318Y389573D01*
X594209Y389617D01*
X594202Y389618D01*
X594197Y389619D01*
X594179Y389620D01*
X594043Y389635D01*
X544416Y389635D01*
X505269Y428782D01*
X505195Y428835D01*
X505126Y428895D01*
X505096Y428907D01*
X505070Y428926D01*
X504983Y428953D01*
X504898Y428987D01*
X504857Y428991D01*
X504834Y428998D01*
X504802Y428997D01*
X504731Y429005D01*
X375110Y429005D01*
X375020Y428991D01*
X374929Y428983D01*
X374899Y428971D01*
X374867Y428966D01*
X374787Y428923D01*
X374703Y428887D01*
X374671Y428861D01*
X374650Y428850D01*
X374628Y428827D01*
X374572Y428782D01*
X373291Y427501D01*
X370877Y426501D01*
X368263Y426501D01*
X365849Y427501D01*
X364001Y429349D01*
X363001Y431763D01*
X363001Y434377D01*
X364001Y436791D01*
X365849Y438639D01*
X368263Y439639D01*
X370877Y439639D01*
X373291Y438639D01*
X374572Y437358D01*
X374646Y437305D01*
X374715Y437245D01*
X374745Y437233D01*
X374772Y437214D01*
X374859Y437187D01*
X374943Y437153D01*
X374984Y437149D01*
X375007Y437142D01*
X375039Y437143D01*
X375110Y437135D01*
X508414Y437135D01*
X547561Y397988D01*
X547635Y397935D01*
X547704Y397875D01*
X547734Y397863D01*
X547760Y397844D01*
X547847Y397817D01*
X547932Y397783D01*
X547973Y397779D01*
X547996Y397772D01*
X548028Y397773D01*
X548099Y397765D01*
X594043Y397765D01*
X594157Y397784D01*
X594274Y397801D01*
X594279Y397803D01*
X594285Y397804D01*
X594388Y397859D01*
X594493Y397912D01*
X594497Y397917D01*
X594503Y397920D01*
X594583Y398004D01*
X594665Y398088D01*
X594669Y398094D01*
X594672Y398098D01*
X594680Y398115D01*
X594746Y398235D01*
X595669Y400463D01*
X599027Y403821D01*
X603415Y405639D01*
X608165Y405639D01*
X612553Y403821D01*
X615911Y400463D01*
X617729Y396075D01*
X617729Y391325D01*
X615911Y386937D01*
X612553Y383579D01*
X608165Y381761D01*
X603415Y381761D01*
G37*
%LPD*%
%LPC*%
G36*
X756017Y196087D02*
X756017Y196087D01*
X752003Y197750D01*
X748930Y200823D01*
X747267Y204837D01*
X747267Y209183D01*
X747887Y210678D01*
X747887Y210680D01*
X747888Y210681D01*
X747922Y210816D01*
X747958Y210954D01*
X747958Y210955D01*
X747958Y210957D01*
X747954Y211097D01*
X747950Y211238D01*
X747949Y211239D01*
X747949Y211241D01*
X747906Y211374D01*
X747863Y211509D01*
X747862Y211510D01*
X747862Y211511D01*
X747853Y211524D01*
X747705Y211745D01*
X747681Y211765D01*
X747667Y211785D01*
X741564Y217888D01*
X741494Y217940D01*
X741430Y218000D01*
X741381Y218026D01*
X741336Y218059D01*
X741255Y218090D01*
X741177Y218130D01*
X741129Y218138D01*
X741071Y218160D01*
X740923Y218172D01*
X740846Y218185D01*
X628236Y218185D01*
X611008Y235414D01*
X610938Y235466D01*
X610874Y235526D01*
X610825Y235552D01*
X610780Y235585D01*
X610699Y235616D01*
X610621Y235656D01*
X610573Y235664D01*
X610515Y235686D01*
X610367Y235698D01*
X610290Y235711D01*
X609758Y235711D01*
X607704Y236562D01*
X606132Y238134D01*
X605281Y240188D01*
X605281Y242412D01*
X606132Y244466D01*
X607704Y246038D01*
X609758Y246889D01*
X611982Y246889D01*
X614036Y246038D01*
X615608Y244466D01*
X616459Y242412D01*
X616459Y241880D01*
X616471Y241794D01*
X616474Y241706D01*
X616491Y241654D01*
X616499Y241599D01*
X616534Y241519D01*
X616561Y241436D01*
X616589Y241396D01*
X616615Y241339D01*
X616711Y241226D01*
X616756Y241162D01*
X631306Y226612D01*
X631376Y226560D01*
X631440Y226500D01*
X631489Y226474D01*
X631534Y226441D01*
X631615Y226410D01*
X631693Y226370D01*
X631741Y226362D01*
X631799Y226340D01*
X631947Y226328D01*
X632024Y226315D01*
X744634Y226315D01*
X753415Y217533D01*
X753416Y217532D01*
X753417Y217531D01*
X753536Y217443D01*
X753642Y217362D01*
X753644Y217362D01*
X753645Y217361D01*
X753779Y217310D01*
X753908Y217261D01*
X753910Y217261D01*
X753911Y217260D01*
X754056Y217249D01*
X754191Y217238D01*
X754193Y217238D01*
X754194Y217238D01*
X754210Y217241D01*
X754470Y217293D01*
X754497Y217308D01*
X754522Y217313D01*
X756017Y217933D01*
X760363Y217933D01*
X764377Y216270D01*
X767450Y213197D01*
X769113Y209183D01*
X769113Y204837D01*
X767450Y200823D01*
X764377Y197750D01*
X760363Y196087D01*
X756017Y196087D01*
G37*
%LPD*%
%LPC*%
G36*
X884085Y108747D02*
X884085Y108747D01*
X882045Y109593D01*
X880483Y111155D01*
X879637Y113195D01*
X879637Y115405D01*
X880483Y117445D01*
X882098Y119061D01*
X882150Y119130D01*
X882210Y119194D01*
X882236Y119244D01*
X882269Y119288D01*
X882300Y119370D01*
X882340Y119448D01*
X882348Y119495D01*
X882370Y119554D01*
X882382Y119701D01*
X882395Y119779D01*
X882395Y129018D01*
X882379Y129132D01*
X882369Y129246D01*
X882359Y129272D01*
X882355Y129299D01*
X882309Y129404D01*
X882267Y129511D01*
X882251Y129533D01*
X882239Y129559D01*
X882165Y129646D01*
X882096Y129738D01*
X882073Y129754D01*
X882056Y129776D01*
X881960Y129839D01*
X881868Y129908D01*
X881842Y129918D01*
X881819Y129933D01*
X881709Y129968D01*
X881602Y130008D01*
X881574Y130011D01*
X881548Y130019D01*
X881433Y130022D01*
X881319Y130031D01*
X881294Y130026D01*
X881264Y130026D01*
X881007Y129959D01*
X880992Y129956D01*
X878847Y129067D01*
X876637Y129067D01*
X874597Y129913D01*
X873035Y131475D01*
X872189Y133515D01*
X872189Y135725D01*
X873035Y137765D01*
X874650Y139381D01*
X874702Y139450D01*
X874762Y139514D01*
X874788Y139564D01*
X874821Y139608D01*
X874852Y139690D01*
X874892Y139768D01*
X874900Y139815D01*
X874922Y139874D01*
X874934Y140021D01*
X874947Y140099D01*
X874947Y199132D01*
X874935Y199218D01*
X874932Y199306D01*
X874915Y199359D01*
X874907Y199413D01*
X874872Y199493D01*
X874845Y199576D01*
X874817Y199616D01*
X874791Y199673D01*
X874695Y199786D01*
X874650Y199850D01*
X863180Y211320D01*
X863110Y211372D01*
X863046Y211432D01*
X862997Y211458D01*
X862953Y211491D01*
X862871Y211522D01*
X862793Y211562D01*
X862745Y211570D01*
X862687Y211592D01*
X862539Y211604D01*
X862462Y211617D01*
X860177Y211617D01*
X858137Y212463D01*
X856575Y214025D01*
X855729Y216065D01*
X855729Y218275D01*
X856575Y220315D01*
X858137Y221877D01*
X860177Y222723D01*
X862447Y222723D01*
X862479Y222712D01*
X862507Y222712D01*
X862534Y222705D01*
X862648Y222708D01*
X862763Y222705D01*
X862790Y222712D01*
X862818Y222713D01*
X862927Y222748D01*
X863039Y222777D01*
X863062Y222791D01*
X863089Y222799D01*
X863184Y222863D01*
X863283Y222922D01*
X863302Y222942D01*
X863325Y222958D01*
X863399Y223045D01*
X863477Y223129D01*
X863490Y223154D01*
X863508Y223175D01*
X863554Y223280D01*
X863607Y223383D01*
X863611Y223407D01*
X863623Y223435D01*
X863643Y223579D01*
X863648Y223595D01*
X863649Y223620D01*
X863660Y223700D01*
X863662Y223714D01*
X863662Y223890D01*
X864508Y225931D01*
X866070Y227492D01*
X868111Y228338D01*
X870320Y228338D01*
X872361Y227492D01*
X873922Y225931D01*
X874768Y223890D01*
X874768Y221681D01*
X874510Y221059D01*
X874510Y221057D01*
X874509Y221056D01*
X874475Y220923D01*
X874439Y220783D01*
X874439Y220782D01*
X874439Y220780D01*
X874443Y220639D01*
X874447Y220499D01*
X874448Y220498D01*
X874448Y220496D01*
X874491Y220362D01*
X874534Y220228D01*
X874535Y220227D01*
X874535Y220226D01*
X874544Y220213D01*
X874692Y219992D01*
X874716Y219973D01*
X874730Y219952D01*
X887985Y206698D01*
X887985Y119779D01*
X887997Y119692D01*
X888000Y119605D01*
X888017Y119552D01*
X888025Y119497D01*
X888060Y119417D01*
X888087Y119334D01*
X888115Y119295D01*
X888141Y119238D01*
X888237Y119124D01*
X888282Y119061D01*
X889897Y117445D01*
X890743Y115405D01*
X890743Y113195D01*
X889897Y111155D01*
X888335Y109593D01*
X886295Y108747D01*
X884085Y108747D01*
G37*
%LPD*%
%LPC*%
G36*
X402755Y45211D02*
X402755Y45211D01*
X398367Y47029D01*
X395009Y50387D01*
X393191Y54775D01*
X393191Y59525D01*
X395009Y63913D01*
X398367Y67271D01*
X402755Y69089D01*
X407505Y69089D01*
X411893Y67271D01*
X415251Y63913D01*
X416892Y59951D01*
X416907Y59926D01*
X416916Y59898D01*
X416979Y59804D01*
X417037Y59707D01*
X417058Y59686D01*
X417074Y59662D01*
X417161Y59589D01*
X417243Y59511D01*
X417269Y59498D01*
X417292Y59479D01*
X417395Y59433D01*
X417496Y59381D01*
X417525Y59375D01*
X417552Y59364D01*
X417664Y59348D01*
X417775Y59326D01*
X417804Y59329D01*
X417833Y59325D01*
X417945Y59341D01*
X418058Y59351D01*
X418085Y59361D01*
X418115Y59365D01*
X418218Y59412D01*
X418323Y59453D01*
X418347Y59470D01*
X418374Y59482D01*
X418460Y59556D01*
X418550Y59624D01*
X418568Y59648D01*
X418590Y59667D01*
X418632Y59733D01*
X418720Y59852D01*
X418742Y59910D01*
X418768Y59951D01*
X420409Y63913D01*
X423767Y67271D01*
X428155Y69089D01*
X432905Y69089D01*
X437293Y67271D01*
X440651Y63913D01*
X442292Y59951D01*
X442307Y59926D01*
X442316Y59898D01*
X442379Y59804D01*
X442437Y59707D01*
X442458Y59686D01*
X442474Y59662D01*
X442561Y59589D01*
X442643Y59511D01*
X442669Y59498D01*
X442692Y59479D01*
X442795Y59433D01*
X442896Y59381D01*
X442925Y59375D01*
X442952Y59364D01*
X443064Y59348D01*
X443175Y59326D01*
X443204Y59329D01*
X443233Y59325D01*
X443345Y59341D01*
X443458Y59351D01*
X443485Y59361D01*
X443515Y59365D01*
X443618Y59412D01*
X443723Y59453D01*
X443747Y59470D01*
X443774Y59482D01*
X443860Y59556D01*
X443950Y59624D01*
X443968Y59648D01*
X443990Y59667D01*
X444032Y59733D01*
X444120Y59852D01*
X444142Y59910D01*
X444168Y59951D01*
X445809Y63913D01*
X449167Y67271D01*
X453555Y69089D01*
X458305Y69089D01*
X462693Y67271D01*
X466051Y63913D01*
X467757Y59795D01*
X467777Y59760D01*
X467790Y59722D01*
X467808Y59698D01*
X467818Y59671D01*
X467863Y59615D01*
X467901Y59550D01*
X467931Y59522D01*
X467954Y59489D01*
X467977Y59470D01*
X467995Y59448D01*
X468053Y59407D01*
X468108Y59355D01*
X468144Y59336D01*
X468175Y59311D01*
X468203Y59299D01*
X468226Y59283D01*
X468293Y59259D01*
X468361Y59224D01*
X468400Y59217D01*
X468437Y59201D01*
X468468Y59198D01*
X468494Y59188D01*
X468565Y59184D01*
X468640Y59169D01*
X468680Y59173D01*
X468720Y59168D01*
X468750Y59173D01*
X468778Y59172D01*
X468847Y59187D01*
X468923Y59194D01*
X468960Y59208D01*
X469000Y59215D01*
X469028Y59228D01*
X469055Y59234D01*
X469118Y59269D01*
X469188Y59296D01*
X469220Y59320D01*
X469256Y59337D01*
X469279Y59358D01*
X469304Y59371D01*
X469355Y59422D01*
X469415Y59467D01*
X469439Y59499D01*
X469469Y59526D01*
X469485Y59552D01*
X469505Y59572D01*
X469534Y59626D01*
X469585Y59695D01*
X469599Y59733D01*
X469621Y59766D01*
X469635Y59821D01*
X469661Y59870D01*
X470266Y61733D01*
X471119Y63407D01*
X472224Y64928D01*
X473552Y66256D01*
X475073Y67361D01*
X476747Y68214D01*
X478534Y68795D01*
X479299Y68916D01*
X479299Y58166D01*
X479307Y58108D01*
X479305Y58050D01*
X479327Y57968D01*
X479339Y57885D01*
X479363Y57831D01*
X479377Y57775D01*
X479420Y57702D01*
X479455Y57625D01*
X479493Y57581D01*
X479523Y57530D01*
X479584Y57473D01*
X479639Y57408D01*
X479687Y57376D01*
X479730Y57336D01*
X479805Y57297D01*
X479875Y57251D01*
X479931Y57233D01*
X479983Y57206D01*
X480051Y57195D01*
X480146Y57165D01*
X480246Y57162D01*
X480314Y57151D01*
X481331Y57151D01*
X481331Y57149D01*
X480314Y57149D01*
X480256Y57141D01*
X480198Y57142D01*
X480116Y57121D01*
X480033Y57109D01*
X479979Y57085D01*
X479923Y57071D01*
X479850Y57028D01*
X479773Y56993D01*
X479728Y56955D01*
X479678Y56925D01*
X479620Y56864D01*
X479556Y56809D01*
X479524Y56761D01*
X479484Y56718D01*
X479445Y56643D01*
X479399Y56573D01*
X479381Y56517D01*
X479354Y56465D01*
X479343Y56397D01*
X479313Y56302D01*
X479310Y56202D01*
X479299Y56134D01*
X479299Y45384D01*
X478534Y45505D01*
X476747Y46086D01*
X475073Y46939D01*
X473552Y48044D01*
X472224Y49372D01*
X471119Y50893D01*
X470266Y52567D01*
X469661Y54430D01*
X469648Y54456D01*
X469641Y54486D01*
X469621Y54521D01*
X469609Y54559D01*
X469568Y54621D01*
X469536Y54686D01*
X469516Y54707D01*
X469502Y54733D01*
X469473Y54762D01*
X469451Y54795D01*
X469393Y54843D01*
X469345Y54897D01*
X469321Y54911D01*
X469299Y54933D01*
X469264Y54952D01*
X469233Y54978D01*
X469164Y55009D01*
X469103Y55046D01*
X469076Y55054D01*
X469049Y55068D01*
X469010Y55077D01*
X468973Y55093D01*
X468898Y55104D01*
X468829Y55123D01*
X468802Y55123D01*
X468771Y55129D01*
X468731Y55127D01*
X468692Y55132D01*
X468616Y55121D01*
X468545Y55121D01*
X468519Y55113D01*
X468488Y55111D01*
X468450Y55097D01*
X468410Y55091D01*
X468341Y55060D01*
X468273Y55040D01*
X468249Y55025D01*
X468220Y55014D01*
X468188Y54991D01*
X468151Y54974D01*
X468094Y54925D01*
X468033Y54887D01*
X468015Y54865D01*
X467990Y54848D01*
X467965Y54816D01*
X467935Y54790D01*
X467901Y54736D01*
X467846Y54673D01*
X467834Y54647D01*
X467815Y54624D01*
X467787Y54553D01*
X467757Y54505D01*
X466051Y50387D01*
X462693Y47029D01*
X458305Y45211D01*
X453555Y45211D01*
X449167Y47029D01*
X445809Y50387D01*
X444168Y54349D01*
X444153Y54374D01*
X444144Y54402D01*
X444081Y54496D01*
X444023Y54593D01*
X444002Y54614D01*
X443986Y54638D01*
X443899Y54711D01*
X443817Y54789D01*
X443791Y54802D01*
X443768Y54821D01*
X443665Y54867D01*
X443564Y54919D01*
X443535Y54925D01*
X443508Y54936D01*
X443396Y54952D01*
X443285Y54974D01*
X443256Y54971D01*
X443227Y54975D01*
X443115Y54959D01*
X443002Y54949D01*
X442975Y54939D01*
X442946Y54935D01*
X442842Y54888D01*
X442737Y54847D01*
X442713Y54830D01*
X442686Y54818D01*
X442600Y54744D01*
X442510Y54676D01*
X442492Y54652D01*
X442470Y54633D01*
X442428Y54567D01*
X442340Y54448D01*
X442318Y54390D01*
X442292Y54349D01*
X440651Y50387D01*
X437293Y47029D01*
X432905Y45211D01*
X428155Y45211D01*
X423767Y47029D01*
X420409Y50387D01*
X418768Y54349D01*
X418753Y54374D01*
X418744Y54402D01*
X418681Y54496D01*
X418623Y54593D01*
X418602Y54614D01*
X418586Y54638D01*
X418499Y54711D01*
X418417Y54789D01*
X418391Y54802D01*
X418368Y54821D01*
X418265Y54867D01*
X418164Y54919D01*
X418135Y54925D01*
X418108Y54936D01*
X417996Y54952D01*
X417885Y54974D01*
X417856Y54971D01*
X417827Y54975D01*
X417715Y54959D01*
X417602Y54949D01*
X417575Y54939D01*
X417546Y54935D01*
X417442Y54888D01*
X417337Y54847D01*
X417313Y54830D01*
X417286Y54818D01*
X417200Y54744D01*
X417110Y54676D01*
X417092Y54652D01*
X417070Y54633D01*
X417028Y54567D01*
X416940Y54448D01*
X416918Y54390D01*
X416892Y54349D01*
X415251Y50387D01*
X411893Y47029D01*
X407505Y45211D01*
X402755Y45211D01*
G37*
%LPD*%
%LPC*%
G36*
X402993Y592499D02*
X402993Y592499D01*
X395146Y595750D01*
X389140Y601756D01*
X385889Y609603D01*
X385889Y618097D01*
X389140Y625944D01*
X395146Y631950D01*
X402993Y635201D01*
X411487Y635201D01*
X419334Y631950D01*
X425340Y625944D01*
X428591Y618097D01*
X428591Y609603D01*
X425340Y601756D01*
X419334Y595750D01*
X411487Y592499D01*
X402993Y592499D01*
G37*
%LPD*%
%LPC*%
G36*
X102003Y592499D02*
X102003Y592499D01*
X94156Y595750D01*
X88150Y601756D01*
X84899Y609603D01*
X84899Y618097D01*
X88150Y625944D01*
X94156Y631950D01*
X102003Y635201D01*
X110497Y635201D01*
X118344Y631950D01*
X124350Y625944D01*
X127601Y618097D01*
X127601Y609603D01*
X124350Y601756D01*
X118344Y595750D01*
X110497Y592499D01*
X102003Y592499D01*
G37*
%LPD*%
%LPC*%
G36*
X250593Y593769D02*
X250593Y593769D01*
X242746Y597020D01*
X236740Y603026D01*
X233489Y610873D01*
X233489Y619367D01*
X236740Y627214D01*
X242746Y633220D01*
X250593Y636471D01*
X259087Y636471D01*
X266934Y633220D01*
X272940Y627214D01*
X276191Y619367D01*
X276191Y610873D01*
X272940Y603026D01*
X266934Y597020D01*
X259087Y593769D01*
X250593Y593769D01*
G37*
%LPD*%
%LPC*%
G36*
X556663Y592499D02*
X556663Y592499D01*
X548816Y595750D01*
X542810Y601756D01*
X539559Y609603D01*
X539559Y618097D01*
X542810Y625944D01*
X548816Y631950D01*
X556663Y635201D01*
X565157Y635201D01*
X573004Y631950D01*
X579010Y625944D01*
X582261Y618097D01*
X582261Y609603D01*
X579010Y601756D01*
X573004Y595750D01*
X565157Y592499D01*
X556663Y592499D01*
G37*
%LPD*%
%LPC*%
G36*
X239854Y716079D02*
X239854Y716079D01*
X232488Y719130D01*
X226850Y724768D01*
X223799Y732134D01*
X223799Y740106D01*
X226850Y747472D01*
X232488Y753110D01*
X239854Y756161D01*
X247826Y756161D01*
X255192Y753110D01*
X260830Y747472D01*
X263881Y740106D01*
X263881Y732134D01*
X260830Y724768D01*
X255192Y719130D01*
X247826Y716079D01*
X239854Y716079D01*
G37*
%LPD*%
%LPC*%
G36*
X545924Y714809D02*
X545924Y714809D01*
X538558Y717860D01*
X532920Y723498D01*
X529869Y730864D01*
X529869Y738836D01*
X532920Y746202D01*
X538558Y751840D01*
X545924Y754891D01*
X553896Y754891D01*
X561262Y751840D01*
X566900Y746202D01*
X569951Y738836D01*
X569951Y730864D01*
X566900Y723498D01*
X561262Y717860D01*
X553896Y714809D01*
X545924Y714809D01*
G37*
%LPD*%
%LPC*%
G36*
X91264Y714809D02*
X91264Y714809D01*
X83898Y717860D01*
X78260Y723498D01*
X75209Y730864D01*
X75209Y738836D01*
X78260Y746202D01*
X83898Y751840D01*
X91264Y754891D01*
X99236Y754891D01*
X106602Y751840D01*
X112240Y746202D01*
X115291Y738836D01*
X115291Y730864D01*
X112240Y723498D01*
X106602Y717860D01*
X99236Y714809D01*
X91264Y714809D01*
G37*
%LPD*%
%LPC*%
G36*
X392254Y714809D02*
X392254Y714809D01*
X384888Y717860D01*
X379250Y723498D01*
X376199Y730864D01*
X376199Y738836D01*
X379250Y746202D01*
X384888Y751840D01*
X392254Y754891D01*
X400226Y754891D01*
X407592Y751840D01*
X413230Y746202D01*
X416281Y738836D01*
X416281Y730864D01*
X413230Y723498D01*
X407592Y717860D01*
X400226Y714809D01*
X392254Y714809D01*
G37*
%LPD*%
%LPC*%
G36*
X176021Y112521D02*
X176021Y112521D01*
X176021Y143470D01*
X178841Y143193D01*
X182023Y142560D01*
X185128Y141618D01*
X188125Y140376D01*
X190986Y138847D01*
X193684Y137044D01*
X196192Y134986D01*
X198486Y132692D01*
X200544Y130184D01*
X202347Y127486D01*
X203876Y124625D01*
X205118Y121628D01*
X206060Y118523D01*
X206693Y115341D01*
X206970Y112521D01*
X176021Y112521D01*
G37*
%LPD*%
%LPC*%
G36*
X176021Y108459D02*
X176021Y108459D01*
X206970Y108459D01*
X206693Y105639D01*
X206060Y102457D01*
X205118Y99352D01*
X203876Y96355D01*
X202347Y93494D01*
X200544Y90796D01*
X198486Y88288D01*
X196192Y85994D01*
X193684Y83936D01*
X190986Y82133D01*
X188125Y80604D01*
X185128Y79362D01*
X182023Y78420D01*
X178841Y77787D01*
X176021Y77510D01*
X176021Y108459D01*
G37*
%LPD*%
%LPC*%
G36*
X69890Y112521D02*
X69890Y112521D01*
X70167Y115341D01*
X70800Y118523D01*
X71742Y121628D01*
X72984Y124625D01*
X74513Y127486D01*
X76316Y130184D01*
X78374Y132692D01*
X80668Y134986D01*
X83176Y137044D01*
X85874Y138847D01*
X88735Y140376D01*
X91732Y141618D01*
X94837Y142560D01*
X98019Y143193D01*
X100839Y143470D01*
X100839Y112521D01*
X69890Y112521D01*
G37*
%LPD*%
%LPC*%
G36*
X98019Y77787D02*
X98019Y77787D01*
X94837Y78420D01*
X91732Y79362D01*
X88735Y80604D01*
X85874Y82133D01*
X83176Y83936D01*
X80668Y85994D01*
X78374Y88288D01*
X76316Y90796D01*
X74513Y93494D01*
X72984Y96355D01*
X71742Y99352D01*
X70800Y102457D01*
X70167Y105639D01*
X69890Y108459D01*
X100839Y108459D01*
X100839Y77510D01*
X98019Y77787D01*
G37*
%LPD*%
%LPC*%
G36*
X1018774Y272922D02*
X1018774Y272922D01*
X1016860Y273715D01*
X1015395Y275180D01*
X1014602Y277094D01*
X1014602Y279166D01*
X1015395Y281080D01*
X1016464Y282149D01*
X1016516Y282219D01*
X1016576Y282282D01*
X1016602Y282332D01*
X1016635Y282376D01*
X1016666Y282458D01*
X1016706Y282536D01*
X1016714Y282583D01*
X1016736Y282642D01*
X1016748Y282789D01*
X1016761Y282867D01*
X1016761Y345535D01*
X1017226Y346000D01*
X1017278Y346069D01*
X1017338Y346133D01*
X1017364Y346183D01*
X1017397Y346227D01*
X1017428Y346308D01*
X1017468Y346386D01*
X1017476Y346434D01*
X1017498Y346492D01*
X1017510Y346640D01*
X1017523Y346717D01*
X1017523Y363676D01*
X1017523Y363678D01*
X1017523Y363679D01*
X1017504Y363812D01*
X1017483Y363957D01*
X1017483Y363959D01*
X1017483Y363961D01*
X1017424Y364090D01*
X1017367Y364217D01*
X1017366Y364218D01*
X1017365Y364220D01*
X1017275Y364326D01*
X1017184Y364434D01*
X1017182Y364435D01*
X1017181Y364436D01*
X1017169Y364444D01*
X1016947Y364591D01*
X1016918Y364601D01*
X1016897Y364614D01*
X1015590Y365155D01*
X1014125Y366620D01*
X1013332Y368534D01*
X1013332Y370606D01*
X1014125Y372520D01*
X1015590Y373985D01*
X1017504Y374778D01*
X1019576Y374778D01*
X1021490Y373985D01*
X1022955Y372520D01*
X1023748Y370606D01*
X1023748Y368534D01*
X1023698Y368414D01*
X1023690Y368384D01*
X1023676Y368357D01*
X1023663Y368279D01*
X1023627Y368139D01*
X1023629Y368074D01*
X1023621Y368026D01*
X1023621Y343771D01*
X1023156Y343307D01*
X1023104Y343237D01*
X1023044Y343173D01*
X1023018Y343124D01*
X1022985Y343079D01*
X1022954Y342998D01*
X1022914Y342920D01*
X1022906Y342872D01*
X1022884Y342814D01*
X1022877Y342728D01*
X1022873Y342715D01*
X1022871Y342664D01*
X1022859Y342589D01*
X1022859Y282867D01*
X1022871Y282780D01*
X1022874Y282693D01*
X1022891Y282640D01*
X1022899Y282585D01*
X1022934Y282505D01*
X1022961Y282422D01*
X1022989Y282383D01*
X1023015Y282326D01*
X1023111Y282212D01*
X1023156Y282149D01*
X1024225Y281080D01*
X1025018Y279166D01*
X1025018Y277094D01*
X1024225Y275180D01*
X1022760Y273715D01*
X1020846Y272922D01*
X1018774Y272922D01*
G37*
%LPD*%
%LPC*%
G36*
X603415Y407161D02*
X603415Y407161D01*
X599027Y408979D01*
X595669Y412337D01*
X593851Y416725D01*
X593851Y421475D01*
X595669Y425863D01*
X599027Y429221D01*
X603415Y431039D01*
X608165Y431039D01*
X612553Y429221D01*
X615911Y425863D01*
X617729Y421475D01*
X617729Y416725D01*
X615911Y412337D01*
X612553Y408979D01*
X608165Y407161D01*
X603415Y407161D01*
G37*
%LPD*%
%LPC*%
G36*
X603415Y432561D02*
X603415Y432561D01*
X599027Y434379D01*
X595669Y437737D01*
X593851Y442125D01*
X593851Y446875D01*
X595669Y451263D01*
X599027Y454621D01*
X603415Y456439D01*
X608165Y456439D01*
X612553Y454621D01*
X615911Y451263D01*
X617729Y446875D01*
X617729Y442125D01*
X615911Y437737D01*
X612553Y434379D01*
X608165Y432561D01*
X603415Y432561D01*
G37*
%LPD*%
%LPC*%
G36*
X985137Y512317D02*
X985137Y512317D01*
X981123Y513980D01*
X978050Y517053D01*
X976387Y521067D01*
X976387Y525413D01*
X978050Y529427D01*
X981123Y532500D01*
X985137Y534163D01*
X989483Y534163D01*
X993497Y532500D01*
X996570Y529427D01*
X998233Y525413D01*
X998233Y521067D01*
X996570Y517053D01*
X993497Y513980D01*
X989483Y512317D01*
X985137Y512317D01*
G37*
%LPD*%
%LPC*%
G36*
X806817Y196087D02*
X806817Y196087D01*
X802803Y197750D01*
X799730Y200823D01*
X798067Y204837D01*
X798067Y209183D01*
X799730Y213197D01*
X802803Y216270D01*
X806817Y217933D01*
X811163Y217933D01*
X815177Y216270D01*
X818250Y213197D01*
X819913Y209183D01*
X819913Y204837D01*
X818250Y200823D01*
X815177Y197750D01*
X811163Y196087D01*
X806817Y196087D01*
G37*
%LPD*%
%LPC*%
G36*
X781417Y196087D02*
X781417Y196087D01*
X777403Y197750D01*
X774330Y200823D01*
X772667Y204837D01*
X772667Y209183D01*
X774330Y213197D01*
X777403Y216270D01*
X781417Y217933D01*
X785763Y217933D01*
X789777Y216270D01*
X792850Y213197D01*
X794513Y209183D01*
X794513Y204837D01*
X792850Y200823D01*
X789777Y197750D01*
X785763Y196087D01*
X781417Y196087D01*
G37*
%LPD*%
%LPC*%
G36*
X167893Y432053D02*
X167893Y432053D01*
X167893Y454003D01*
X170312Y453730D01*
X171667Y453421D01*
X172885Y453143D01*
X175375Y452272D01*
X177753Y451126D01*
X179988Y449722D01*
X182051Y448077D01*
X183917Y446211D01*
X185562Y444148D01*
X186966Y441913D01*
X188112Y439535D01*
X188983Y437045D01*
X189570Y434472D01*
X189843Y432053D01*
X167893Y432053D01*
G37*
%LPD*%
%LPC*%
G36*
X165353Y292353D02*
X165353Y292353D01*
X165353Y314303D01*
X167772Y314030D01*
X170345Y313443D01*
X172835Y312572D01*
X175213Y311426D01*
X177448Y310022D01*
X179511Y308377D01*
X181377Y306511D01*
X183022Y304448D01*
X184426Y302213D01*
X185572Y299835D01*
X186443Y297345D01*
X187030Y294772D01*
X187303Y292353D01*
X165353Y292353D01*
G37*
%LPD*%
%LPC*%
G36*
X165353Y289307D02*
X165353Y289307D01*
X187303Y289307D01*
X187030Y286888D01*
X186443Y284315D01*
X185572Y281825D01*
X184426Y279447D01*
X183022Y277212D01*
X181377Y275149D01*
X179511Y273283D01*
X177448Y271638D01*
X175213Y270234D01*
X172835Y269088D01*
X170345Y268217D01*
X167772Y267630D01*
X165353Y267357D01*
X165353Y289307D01*
G37*
%LPD*%
%LPC*%
G36*
X167893Y429007D02*
X167893Y429007D01*
X189843Y429007D01*
X189570Y426588D01*
X188983Y424015D01*
X188112Y421525D01*
X186966Y419147D01*
X185562Y416912D01*
X183917Y414849D01*
X182051Y412983D01*
X179988Y411338D01*
X177753Y409934D01*
X175375Y408788D01*
X172885Y407917D01*
X170312Y407330D01*
X167893Y407057D01*
X167893Y429007D01*
G37*
%LPD*%
%LPC*%
G36*
X87121Y292861D02*
X87121Y292861D01*
X87121Y314246D01*
X89032Y314030D01*
X91605Y313443D01*
X94096Y312571D01*
X96473Y311426D01*
X98708Y310022D01*
X100771Y308377D01*
X102637Y306511D01*
X104282Y304448D01*
X105686Y302213D01*
X106831Y299836D01*
X107703Y297345D01*
X108290Y294772D01*
X108506Y292861D01*
X87121Y292861D01*
G37*
%LPD*%
%LPC*%
G36*
X89661Y432561D02*
X89661Y432561D01*
X89661Y453946D01*
X91572Y453730D01*
X94145Y453143D01*
X96636Y452271D01*
X99013Y451126D01*
X101248Y449722D01*
X103311Y448077D01*
X105177Y446211D01*
X106822Y444148D01*
X108226Y441913D01*
X109371Y439536D01*
X110243Y437045D01*
X110830Y434472D01*
X111046Y432561D01*
X89661Y432561D01*
G37*
%LPD*%
%LPC*%
G36*
X61674Y292861D02*
X61674Y292861D01*
X61890Y294772D01*
X62477Y297345D01*
X63349Y299836D01*
X64291Y301792D01*
X64494Y302213D01*
X65898Y304448D01*
X67543Y306511D01*
X69409Y308377D01*
X71472Y310022D01*
X72246Y310509D01*
X73707Y311426D01*
X76084Y312571D01*
X78575Y313443D01*
X81148Y314030D01*
X83059Y314246D01*
X83059Y292861D01*
X61674Y292861D01*
G37*
%LPD*%
%LPC*%
G36*
X89661Y428499D02*
X89661Y428499D01*
X111046Y428499D01*
X110830Y426588D01*
X110243Y424015D01*
X109371Y421524D01*
X109337Y421454D01*
X108360Y419423D01*
X108359Y419423D01*
X108226Y419147D01*
X106822Y416912D01*
X105177Y414849D01*
X103311Y412983D01*
X101248Y411338D01*
X99013Y409934D01*
X96636Y408789D01*
X94145Y407917D01*
X91572Y407330D01*
X89661Y407114D01*
X89661Y428499D01*
G37*
%LPD*%
%LPC*%
G36*
X64214Y432561D02*
X64214Y432561D01*
X64430Y434472D01*
X65017Y437045D01*
X65889Y439536D01*
X66536Y440881D01*
X66537Y440881D01*
X67034Y441913D01*
X68438Y444148D01*
X70083Y446211D01*
X71949Y448077D01*
X74012Y449722D01*
X76247Y451126D01*
X78624Y452271D01*
X81115Y453143D01*
X83688Y453730D01*
X85599Y453946D01*
X85599Y432561D01*
X64214Y432561D01*
G37*
%LPD*%
%LPC*%
G36*
X87121Y288799D02*
X87121Y288799D01*
X108506Y288799D01*
X108290Y286888D01*
X107703Y284315D01*
X106831Y281824D01*
X106114Y280334D01*
X105686Y279447D01*
X104282Y277212D01*
X102637Y275149D01*
X100771Y273283D01*
X98708Y271638D01*
X98675Y271617D01*
X97059Y270602D01*
X96473Y270234D01*
X94096Y269089D01*
X91605Y268217D01*
X89032Y267630D01*
X87121Y267414D01*
X87121Y288799D01*
G37*
%LPD*%
%LPC*%
G36*
X81148Y267630D02*
X81148Y267630D01*
X78575Y268217D01*
X76084Y269089D01*
X73707Y270234D01*
X71472Y271638D01*
X69409Y273283D01*
X67543Y275149D01*
X65898Y277212D01*
X64494Y279447D01*
X63349Y281824D01*
X62477Y284315D01*
X61890Y286888D01*
X61674Y288799D01*
X83059Y288799D01*
X83059Y267414D01*
X81148Y267630D01*
G37*
%LPD*%
%LPC*%
G36*
X83688Y407330D02*
X83688Y407330D01*
X81115Y407917D01*
X78624Y408789D01*
X76247Y409934D01*
X74012Y411338D01*
X71949Y412983D01*
X70083Y414849D01*
X68438Y416912D01*
X67034Y419147D01*
X65889Y421524D01*
X65017Y424015D01*
X64430Y426588D01*
X64214Y428499D01*
X85599Y428499D01*
X85599Y407114D01*
X83688Y407330D01*
G37*
%LPD*%
%LPC*%
G36*
X579016Y38667D02*
X579016Y38667D01*
X575303Y40205D01*
X572462Y43046D01*
X570924Y46759D01*
X570924Y50777D01*
X572462Y54490D01*
X575303Y57331D01*
X579016Y58869D01*
X583034Y58869D01*
X586747Y57331D01*
X589588Y54490D01*
X591126Y50777D01*
X591126Y46759D01*
X589588Y43046D01*
X586747Y40205D01*
X583034Y38667D01*
X579016Y38667D01*
G37*
%LPD*%
%LPC*%
G36*
X653946Y88451D02*
X653946Y88451D01*
X653169Y88773D01*
X653168Y88773D01*
X650233Y89989D01*
X647392Y92830D01*
X645854Y96543D01*
X645854Y100561D01*
X647392Y104274D01*
X650233Y107115D01*
X653168Y108331D01*
X653169Y108331D01*
X653946Y108653D01*
X657964Y108653D01*
X658741Y108331D01*
X658742Y108331D01*
X661677Y107115D01*
X664518Y104274D01*
X666056Y100561D01*
X666056Y96543D01*
X664518Y92830D01*
X661677Y89989D01*
X658742Y88773D01*
X658741Y88773D01*
X657964Y88451D01*
X653946Y88451D01*
G37*
%LPD*%
%LPC*%
G36*
X397763Y669373D02*
X397763Y669373D01*
X397763Y687863D01*
X400158Y687548D01*
X402696Y686868D01*
X405123Y685863D01*
X407398Y684549D01*
X409482Y682950D01*
X411340Y681092D01*
X412939Y679008D01*
X414253Y676733D01*
X415258Y674306D01*
X415938Y671768D01*
X416253Y669373D01*
X397763Y669373D01*
G37*
%LPD*%
%LPC*%
G36*
X551433Y669373D02*
X551433Y669373D01*
X551433Y687863D01*
X553828Y687548D01*
X556366Y686868D01*
X558793Y685863D01*
X561068Y684549D01*
X563152Y682950D01*
X565010Y681092D01*
X566609Y679008D01*
X567923Y676733D01*
X568928Y674306D01*
X569608Y671768D01*
X569923Y669373D01*
X551433Y669373D01*
G37*
%LPD*%
%LPC*%
G36*
X245363Y670643D02*
X245363Y670643D01*
X245363Y689133D01*
X247758Y688818D01*
X250296Y688138D01*
X252723Y687133D01*
X254998Y685819D01*
X257082Y684220D01*
X258940Y682362D01*
X260539Y680278D01*
X261853Y678003D01*
X262858Y675576D01*
X263538Y673038D01*
X263853Y670643D01*
X245363Y670643D01*
G37*
%LPD*%
%LPC*%
G36*
X96773Y669373D02*
X96773Y669373D01*
X96773Y687863D01*
X99168Y687548D01*
X101706Y686868D01*
X104133Y685863D01*
X106408Y684549D01*
X108492Y682950D01*
X110350Y681092D01*
X111949Y679008D01*
X113263Y676733D01*
X114268Y674306D01*
X114948Y671768D01*
X115263Y669373D01*
X96773Y669373D01*
G37*
%LPD*%
%LPC*%
G36*
X551433Y666327D02*
X551433Y666327D01*
X569923Y666327D01*
X569608Y663932D01*
X568928Y661394D01*
X567923Y658967D01*
X566609Y656692D01*
X565010Y654608D01*
X563152Y652750D01*
X561068Y651151D01*
X558793Y649837D01*
X556366Y648832D01*
X553828Y648152D01*
X551433Y647837D01*
X551433Y666327D01*
G37*
%LPD*%
%LPC*%
G36*
X96773Y666327D02*
X96773Y666327D01*
X115263Y666327D01*
X114948Y663932D01*
X114268Y661394D01*
X113263Y658967D01*
X111949Y656692D01*
X110350Y654608D01*
X108492Y652750D01*
X106408Y651151D01*
X104133Y649837D01*
X101706Y648832D01*
X99168Y648152D01*
X96773Y647837D01*
X96773Y666327D01*
G37*
%LPD*%
%LPC*%
G36*
X397763Y666327D02*
X397763Y666327D01*
X416253Y666327D01*
X415938Y663932D01*
X415258Y661394D01*
X414253Y658967D01*
X412939Y656692D01*
X411340Y654608D01*
X409482Y652750D01*
X407398Y651151D01*
X405123Y649837D01*
X402696Y648832D01*
X400158Y648152D01*
X397763Y647837D01*
X397763Y666327D01*
G37*
%LPD*%
%LPC*%
G36*
X223827Y670643D02*
X223827Y670643D01*
X224142Y673038D01*
X224822Y675576D01*
X225827Y678003D01*
X227141Y680278D01*
X228740Y682362D01*
X230598Y684220D01*
X232682Y685819D01*
X234957Y687133D01*
X237384Y688138D01*
X239922Y688818D01*
X242317Y689133D01*
X242317Y670643D01*
X223827Y670643D01*
G37*
%LPD*%
%LPC*%
G36*
X75237Y669373D02*
X75237Y669373D01*
X75552Y671768D01*
X76232Y674306D01*
X77237Y676733D01*
X78551Y679008D01*
X80150Y681092D01*
X82008Y682950D01*
X84092Y684549D01*
X86367Y685863D01*
X88794Y686868D01*
X91332Y687548D01*
X93727Y687863D01*
X93727Y669373D01*
X75237Y669373D01*
G37*
%LPD*%
%LPC*%
G36*
X376227Y669373D02*
X376227Y669373D01*
X376542Y671768D01*
X377222Y674306D01*
X378227Y676733D01*
X379541Y679008D01*
X381140Y681092D01*
X382998Y682950D01*
X385082Y684549D01*
X387357Y685863D01*
X389784Y686868D01*
X392322Y687548D01*
X394717Y687863D01*
X394717Y669373D01*
X376227Y669373D01*
G37*
%LPD*%
%LPC*%
G36*
X529897Y669373D02*
X529897Y669373D01*
X530212Y671768D01*
X530892Y674306D01*
X531897Y676733D01*
X533211Y679008D01*
X534810Y681092D01*
X536668Y682950D01*
X538752Y684549D01*
X541027Y685863D01*
X543454Y686868D01*
X545992Y687548D01*
X548387Y687863D01*
X548387Y669373D01*
X529897Y669373D01*
G37*
%LPD*%
%LPC*%
G36*
X245363Y667597D02*
X245363Y667597D01*
X263853Y667597D01*
X263538Y665202D01*
X262858Y662664D01*
X261853Y660237D01*
X260539Y657962D01*
X258940Y655878D01*
X257082Y654020D01*
X254998Y652421D01*
X252723Y651107D01*
X250296Y650102D01*
X247758Y649422D01*
X245363Y649107D01*
X245363Y667597D01*
G37*
%LPD*%
%LPC*%
G36*
X392322Y648152D02*
X392322Y648152D01*
X389784Y648832D01*
X387357Y649837D01*
X385082Y651151D01*
X382998Y652750D01*
X381140Y654608D01*
X379541Y656692D01*
X378227Y658967D01*
X377222Y661394D01*
X376542Y663932D01*
X376227Y666327D01*
X394717Y666327D01*
X394717Y647837D01*
X392322Y648152D01*
G37*
%LPD*%
%LPC*%
G36*
X91332Y648152D02*
X91332Y648152D01*
X88794Y648832D01*
X86367Y649837D01*
X84092Y651151D01*
X82008Y652750D01*
X80150Y654608D01*
X78551Y656692D01*
X77237Y658967D01*
X76232Y661394D01*
X75552Y663932D01*
X75237Y666327D01*
X93727Y666327D01*
X93727Y647837D01*
X91332Y648152D01*
G37*
%LPD*%
%LPC*%
G36*
X239922Y649422D02*
X239922Y649422D01*
X237384Y650102D01*
X234957Y651107D01*
X232682Y652421D01*
X230598Y654020D01*
X228740Y655878D01*
X227141Y657962D01*
X225827Y660237D01*
X224822Y662664D01*
X224142Y665202D01*
X223827Y667597D01*
X242317Y667597D01*
X242317Y649107D01*
X239922Y649422D01*
G37*
%LPD*%
%LPC*%
G36*
X545992Y648152D02*
X545992Y648152D01*
X543454Y648832D01*
X541027Y649837D01*
X538752Y651151D01*
X536668Y652750D01*
X534810Y654608D01*
X533211Y656692D01*
X531897Y658967D01*
X530892Y661394D01*
X530212Y663932D01*
X529897Y666327D01*
X548387Y666327D01*
X548387Y647837D01*
X545992Y648152D01*
G37*
%LPD*%
%LPC*%
G36*
X765428Y761317D02*
X765428Y761317D01*
X762377Y762581D01*
X760041Y764917D01*
X758777Y767968D01*
X758777Y771272D01*
X760041Y774323D01*
X762377Y776659D01*
X765428Y777923D01*
X768732Y777923D01*
X771783Y776659D01*
X774119Y774323D01*
X775383Y771272D01*
X775383Y767968D01*
X774119Y764917D01*
X771783Y762581D01*
X768732Y761317D01*
X765428Y761317D01*
G37*
%LPD*%
%LPC*%
G36*
X765428Y634317D02*
X765428Y634317D01*
X762377Y635581D01*
X760041Y637917D01*
X758777Y640968D01*
X758777Y644272D01*
X760041Y647323D01*
X762377Y649659D01*
X765428Y650923D01*
X768732Y650923D01*
X771783Y649659D01*
X774119Y647323D01*
X775383Y644272D01*
X775383Y640968D01*
X774119Y637917D01*
X771783Y635581D01*
X768732Y634317D01*
X765428Y634317D01*
G37*
%LPD*%
%LPC*%
G36*
X765428Y558117D02*
X765428Y558117D01*
X762377Y559381D01*
X760041Y561717D01*
X758777Y564768D01*
X758777Y568072D01*
X760041Y571123D01*
X762377Y573459D01*
X765428Y574723D01*
X768732Y574723D01*
X771783Y573459D01*
X774119Y571123D01*
X775383Y568072D01*
X775383Y564768D01*
X774119Y561717D01*
X771783Y559381D01*
X768732Y558117D01*
X765428Y558117D01*
G37*
%LPD*%
%LPC*%
G36*
X765428Y735917D02*
X765428Y735917D01*
X762377Y737181D01*
X760041Y739517D01*
X758777Y742568D01*
X758777Y745872D01*
X760041Y748923D01*
X762377Y751259D01*
X765428Y752523D01*
X768732Y752523D01*
X771783Y751259D01*
X774119Y748923D01*
X775383Y745872D01*
X775383Y742568D01*
X774119Y739517D01*
X771783Y737181D01*
X768732Y735917D01*
X765428Y735917D01*
G37*
%LPD*%
%LPC*%
G36*
X765428Y710517D02*
X765428Y710517D01*
X762377Y711781D01*
X760041Y714117D01*
X758777Y717168D01*
X758777Y720472D01*
X760041Y723523D01*
X762377Y725859D01*
X765428Y727123D01*
X768732Y727123D01*
X771783Y725859D01*
X774119Y723523D01*
X775383Y720472D01*
X775383Y717168D01*
X774119Y714117D01*
X771783Y711781D01*
X768732Y710517D01*
X765428Y710517D01*
G37*
%LPD*%
%LPC*%
G36*
X765428Y532717D02*
X765428Y532717D01*
X762377Y533981D01*
X760041Y536317D01*
X758777Y539368D01*
X758777Y542672D01*
X760041Y545723D01*
X762377Y548059D01*
X765428Y549323D01*
X768732Y549323D01*
X771783Y548059D01*
X774119Y545723D01*
X775383Y542672D01*
X775383Y539368D01*
X774119Y536317D01*
X771783Y533981D01*
X768732Y532717D01*
X765428Y532717D01*
G37*
%LPD*%
%LPC*%
G36*
X765428Y685117D02*
X765428Y685117D01*
X762377Y686381D01*
X760041Y688717D01*
X758777Y691768D01*
X758777Y695072D01*
X760041Y698123D01*
X762377Y700459D01*
X765428Y701723D01*
X768732Y701723D01*
X771783Y700459D01*
X774119Y698123D01*
X775383Y695072D01*
X775383Y691768D01*
X774119Y688717D01*
X771783Y686381D01*
X768732Y685117D01*
X765428Y685117D01*
G37*
%LPD*%
%LPC*%
G36*
X765428Y608917D02*
X765428Y608917D01*
X762377Y610181D01*
X760041Y612517D01*
X758777Y615568D01*
X758777Y618872D01*
X760041Y621923D01*
X762377Y624259D01*
X765428Y625523D01*
X768732Y625523D01*
X771783Y624259D01*
X774119Y621923D01*
X775383Y618872D01*
X775383Y615568D01*
X774119Y612517D01*
X771783Y610181D01*
X768732Y608917D01*
X765428Y608917D01*
G37*
%LPD*%
%LPC*%
G36*
X765428Y659717D02*
X765428Y659717D01*
X762377Y660981D01*
X760041Y663317D01*
X758777Y666368D01*
X758777Y669672D01*
X760041Y672723D01*
X762377Y675059D01*
X765428Y676323D01*
X768732Y676323D01*
X771783Y675059D01*
X774119Y672723D01*
X775383Y669672D01*
X775383Y666368D01*
X774119Y663317D01*
X771783Y660981D01*
X768732Y659717D01*
X765428Y659717D01*
G37*
%LPD*%
%LPC*%
G36*
X765428Y583517D02*
X765428Y583517D01*
X762377Y584781D01*
X760041Y587117D01*
X758777Y590168D01*
X758777Y593472D01*
X760041Y596523D01*
X762377Y598859D01*
X765428Y600123D01*
X768732Y600123D01*
X771783Y598859D01*
X774119Y596523D01*
X775383Y593472D01*
X775383Y590168D01*
X774119Y587117D01*
X771783Y584781D01*
X768732Y583517D01*
X765428Y583517D01*
G37*
%LPD*%
%LPC*%
G36*
X603953Y66341D02*
X603953Y66341D01*
X601263Y67456D01*
X599205Y69514D01*
X598090Y72204D01*
X598090Y75116D01*
X599205Y77806D01*
X601263Y79864D01*
X603953Y80979D01*
X606865Y80979D01*
X609555Y79864D01*
X611613Y77806D01*
X612728Y75116D01*
X612728Y72204D01*
X611613Y69514D01*
X609555Y67456D01*
X606865Y66341D01*
X603953Y66341D01*
G37*
%LPD*%
%LPC*%
G36*
X630064Y66341D02*
X630064Y66341D01*
X627374Y67456D01*
X625316Y69514D01*
X624201Y72204D01*
X624201Y75116D01*
X625316Y77806D01*
X627374Y79864D01*
X630064Y80979D01*
X632976Y80979D01*
X635666Y79864D01*
X637725Y77806D01*
X638839Y75116D01*
X638839Y72204D01*
X637725Y69514D01*
X635666Y67456D01*
X632976Y66341D01*
X630064Y66341D01*
G37*
%LPD*%
%LPC*%
G36*
X1054341Y525271D02*
X1054341Y525271D01*
X1054341Y535006D01*
X1055106Y534885D01*
X1056893Y534304D01*
X1058567Y533451D01*
X1060088Y532346D01*
X1061416Y531018D01*
X1062521Y529497D01*
X1063374Y527823D01*
X1063955Y526036D01*
X1064076Y525271D01*
X1054341Y525271D01*
G37*
%LPD*%
%LPC*%
G36*
X483361Y59181D02*
X483361Y59181D01*
X483361Y68916D01*
X484126Y68795D01*
X485913Y68214D01*
X487587Y67361D01*
X489108Y66256D01*
X490436Y64928D01*
X491541Y63407D01*
X492394Y61733D01*
X492975Y59946D01*
X493096Y59181D01*
X483361Y59181D01*
G37*
%LPD*%
%LPC*%
G36*
X1040544Y525271D02*
X1040544Y525271D01*
X1040665Y526036D01*
X1041246Y527823D01*
X1042099Y529497D01*
X1043204Y531018D01*
X1044532Y532346D01*
X1046053Y533451D01*
X1047727Y534304D01*
X1049514Y534885D01*
X1050279Y535006D01*
X1050279Y525271D01*
X1040544Y525271D01*
G37*
%LPD*%
%LPC*%
G36*
X483361Y55119D02*
X483361Y55119D01*
X493096Y55119D01*
X492975Y54354D01*
X492394Y52567D01*
X491541Y50893D01*
X490436Y49372D01*
X489108Y48044D01*
X487587Y46939D01*
X485913Y46086D01*
X484126Y45505D01*
X483361Y45384D01*
X483361Y55119D01*
G37*
%LPD*%
%LPC*%
G36*
X1054341Y521209D02*
X1054341Y521209D01*
X1064076Y521209D01*
X1063955Y520444D01*
X1063374Y518657D01*
X1062521Y516983D01*
X1061416Y515462D01*
X1060088Y514134D01*
X1058567Y513029D01*
X1056893Y512176D01*
X1055106Y511595D01*
X1054341Y511474D01*
X1054341Y521209D01*
G37*
%LPD*%
%LPC*%
G36*
X1049514Y511595D02*
X1049514Y511595D01*
X1047727Y512176D01*
X1046053Y513029D01*
X1044532Y514134D01*
X1043204Y515462D01*
X1042099Y516983D01*
X1041246Y518657D01*
X1040665Y520444D01*
X1040544Y521209D01*
X1050279Y521209D01*
X1050279Y511474D01*
X1049514Y511595D01*
G37*
%LPD*%
%LPC*%
G36*
X845311Y771651D02*
X845311Y771651D01*
X845311Y778733D01*
X845462Y778709D01*
X846857Y778256D01*
X848164Y777590D01*
X849351Y776728D01*
X850388Y775691D01*
X851250Y774504D01*
X851916Y773197D01*
X852369Y771802D01*
X852393Y771651D01*
X845311Y771651D01*
G37*
%LPD*%
%LPC*%
G36*
X845311Y695451D02*
X845311Y695451D01*
X845311Y702533D01*
X845462Y702509D01*
X846857Y702056D01*
X848164Y701390D01*
X849351Y700528D01*
X850388Y699491D01*
X851250Y698304D01*
X851916Y696997D01*
X852369Y695602D01*
X852393Y695451D01*
X845311Y695451D01*
G37*
%LPD*%
%LPC*%
G36*
X845311Y593851D02*
X845311Y593851D01*
X845311Y600933D01*
X845462Y600909D01*
X846857Y600456D01*
X848164Y599790D01*
X849351Y598928D01*
X850388Y597891D01*
X851250Y596704D01*
X851916Y595397D01*
X852369Y594002D01*
X852393Y593851D01*
X845311Y593851D01*
G37*
%LPD*%
%LPC*%
G36*
X845311Y543051D02*
X845311Y543051D01*
X845311Y550133D01*
X845462Y550109D01*
X846857Y549656D01*
X848164Y548990D01*
X849351Y548128D01*
X850388Y547091D01*
X851250Y545904D01*
X851916Y544597D01*
X852369Y543202D01*
X852393Y543051D01*
X845311Y543051D01*
G37*
%LPD*%
%LPC*%
G36*
X845311Y568451D02*
X845311Y568451D01*
X845311Y575533D01*
X845462Y575509D01*
X846857Y575056D01*
X848164Y574390D01*
X849351Y573528D01*
X850388Y572491D01*
X851250Y571304D01*
X851916Y569997D01*
X852369Y568602D01*
X852393Y568451D01*
X845311Y568451D01*
G37*
%LPD*%
%LPC*%
G36*
X845311Y746251D02*
X845311Y746251D01*
X845311Y753333D01*
X845462Y753309D01*
X846857Y752856D01*
X848164Y752190D01*
X849351Y751328D01*
X850388Y750291D01*
X851250Y749104D01*
X851916Y747797D01*
X852369Y746402D01*
X852393Y746251D01*
X845311Y746251D01*
G37*
%LPD*%
%LPC*%
G36*
X845311Y619251D02*
X845311Y619251D01*
X845311Y626333D01*
X845462Y626309D01*
X846857Y625856D01*
X848164Y625190D01*
X849351Y624328D01*
X850388Y623291D01*
X851250Y622104D01*
X851916Y620797D01*
X852369Y619402D01*
X852393Y619251D01*
X845311Y619251D01*
G37*
%LPD*%
%LPC*%
G36*
X845311Y644651D02*
X845311Y644651D01*
X845311Y651733D01*
X845462Y651709D01*
X846857Y651256D01*
X848164Y650590D01*
X849351Y649728D01*
X850388Y648691D01*
X851250Y647504D01*
X851916Y646197D01*
X852369Y644802D01*
X852393Y644651D01*
X845311Y644651D01*
G37*
%LPD*%
%LPC*%
G36*
X845311Y670051D02*
X845311Y670051D01*
X845311Y677133D01*
X845462Y677109D01*
X846857Y676656D01*
X848164Y675990D01*
X849351Y675128D01*
X850388Y674091D01*
X851250Y672904D01*
X851916Y671597D01*
X852369Y670202D01*
X852393Y670051D01*
X845311Y670051D01*
G37*
%LPD*%
%LPC*%
G36*
X845311Y720851D02*
X845311Y720851D01*
X845311Y727933D01*
X845462Y727909D01*
X846857Y727456D01*
X848164Y726790D01*
X849351Y725928D01*
X850388Y724891D01*
X851250Y723704D01*
X851916Y722397D01*
X852369Y721002D01*
X852393Y720851D01*
X845311Y720851D01*
G37*
%LPD*%
%LPC*%
G36*
X834167Y771651D02*
X834167Y771651D01*
X834191Y771802D01*
X834644Y773197D01*
X835310Y774504D01*
X836172Y775691D01*
X837209Y776728D01*
X838396Y777590D01*
X839703Y778256D01*
X841098Y778709D01*
X841249Y778733D01*
X841249Y771651D01*
X834167Y771651D01*
G37*
%LPD*%
%LPC*%
G36*
X845311Y742189D02*
X845311Y742189D01*
X852393Y742189D01*
X852369Y742038D01*
X851916Y740643D01*
X851250Y739336D01*
X850388Y738149D01*
X849351Y737112D01*
X848164Y736250D01*
X846857Y735584D01*
X845462Y735131D01*
X845311Y735107D01*
X845311Y742189D01*
G37*
%LPD*%
%LPC*%
G36*
X845311Y615189D02*
X845311Y615189D01*
X852393Y615189D01*
X852369Y615038D01*
X851916Y613643D01*
X851250Y612336D01*
X850388Y611149D01*
X849351Y610112D01*
X848164Y609250D01*
X846857Y608584D01*
X845462Y608131D01*
X845311Y608107D01*
X845311Y615189D01*
G37*
%LPD*%
%LPC*%
G36*
X845311Y767589D02*
X845311Y767589D01*
X852393Y767589D01*
X852369Y767438D01*
X851916Y766043D01*
X851250Y764736D01*
X850388Y763549D01*
X849351Y762512D01*
X848164Y761650D01*
X846857Y760984D01*
X845462Y760531D01*
X845311Y760507D01*
X845311Y767589D01*
G37*
%LPD*%
%LPC*%
G36*
X834167Y746251D02*
X834167Y746251D01*
X834191Y746402D01*
X834644Y747797D01*
X835310Y749104D01*
X836172Y750291D01*
X837209Y751328D01*
X838396Y752190D01*
X839703Y752856D01*
X841098Y753309D01*
X841249Y753333D01*
X841249Y746251D01*
X834167Y746251D01*
G37*
%LPD*%
%LPC*%
G36*
X834167Y670051D02*
X834167Y670051D01*
X834191Y670202D01*
X834644Y671597D01*
X835310Y672904D01*
X836172Y674091D01*
X837209Y675128D01*
X838396Y675990D01*
X839703Y676656D01*
X841098Y677109D01*
X841249Y677133D01*
X841249Y670051D01*
X834167Y670051D01*
G37*
%LPD*%
%LPC*%
G36*
X834167Y720851D02*
X834167Y720851D01*
X834191Y721002D01*
X834644Y722397D01*
X835310Y723704D01*
X836172Y724891D01*
X837209Y725928D01*
X838396Y726790D01*
X839703Y727456D01*
X841098Y727909D01*
X841249Y727933D01*
X841249Y720851D01*
X834167Y720851D01*
G37*
%LPD*%
%LPC*%
G36*
X845311Y691389D02*
X845311Y691389D01*
X852393Y691389D01*
X852369Y691238D01*
X851916Y689843D01*
X851250Y688536D01*
X850388Y687349D01*
X849351Y686312D01*
X848164Y685450D01*
X846857Y684784D01*
X845462Y684331D01*
X845311Y684307D01*
X845311Y691389D01*
G37*
%LPD*%
%LPC*%
G36*
X834167Y543051D02*
X834167Y543051D01*
X834191Y543202D01*
X834644Y544597D01*
X835310Y545904D01*
X836172Y547091D01*
X837209Y548128D01*
X838396Y548990D01*
X839703Y549656D01*
X841098Y550109D01*
X841249Y550133D01*
X841249Y543051D01*
X834167Y543051D01*
G37*
%LPD*%
%LPC*%
G36*
X834167Y593851D02*
X834167Y593851D01*
X834191Y594002D01*
X834644Y595397D01*
X835310Y596704D01*
X836172Y597891D01*
X837209Y598928D01*
X838396Y599790D01*
X839703Y600456D01*
X841098Y600909D01*
X841249Y600933D01*
X841249Y593851D01*
X834167Y593851D01*
G37*
%LPD*%
%LPC*%
G36*
X834167Y695451D02*
X834167Y695451D01*
X834191Y695602D01*
X834644Y696997D01*
X835310Y698304D01*
X836172Y699491D01*
X837209Y700528D01*
X838396Y701390D01*
X839703Y702056D01*
X841098Y702509D01*
X841249Y702533D01*
X841249Y695451D01*
X834167Y695451D01*
G37*
%LPD*%
%LPC*%
G36*
X845311Y640589D02*
X845311Y640589D01*
X852393Y640589D01*
X852369Y640438D01*
X851916Y639043D01*
X851250Y637736D01*
X850388Y636549D01*
X849351Y635512D01*
X848164Y634650D01*
X846857Y633984D01*
X845462Y633531D01*
X845311Y633507D01*
X845311Y640589D01*
G37*
%LPD*%
%LPC*%
G36*
X845311Y538989D02*
X845311Y538989D01*
X852393Y538989D01*
X852369Y538838D01*
X851916Y537443D01*
X851250Y536136D01*
X850388Y534949D01*
X849351Y533912D01*
X848164Y533050D01*
X846857Y532384D01*
X845462Y531931D01*
X845311Y531907D01*
X845311Y538989D01*
G37*
%LPD*%
%LPC*%
G36*
X834167Y568451D02*
X834167Y568451D01*
X834191Y568602D01*
X834644Y569997D01*
X835310Y571304D01*
X836172Y572491D01*
X837209Y573528D01*
X838396Y574390D01*
X839703Y575056D01*
X841098Y575509D01*
X841249Y575533D01*
X841249Y568451D01*
X834167Y568451D01*
G37*
%LPD*%
%LPC*%
G36*
X834167Y644651D02*
X834167Y644651D01*
X834191Y644802D01*
X834644Y646197D01*
X835310Y647504D01*
X836172Y648691D01*
X837209Y649728D01*
X838396Y650590D01*
X839703Y651256D01*
X841098Y651709D01*
X841249Y651733D01*
X841249Y644651D01*
X834167Y644651D01*
G37*
%LPD*%
%LPC*%
G36*
X834167Y619251D02*
X834167Y619251D01*
X834191Y619402D01*
X834644Y620797D01*
X835310Y622104D01*
X836172Y623291D01*
X837209Y624328D01*
X838396Y625190D01*
X839703Y625856D01*
X841098Y626309D01*
X841249Y626333D01*
X841249Y619251D01*
X834167Y619251D01*
G37*
%LPD*%
%LPC*%
G36*
X845311Y665989D02*
X845311Y665989D01*
X852393Y665989D01*
X852369Y665838D01*
X851916Y664443D01*
X851250Y663136D01*
X850388Y661949D01*
X849351Y660912D01*
X848164Y660050D01*
X846857Y659384D01*
X845462Y658931D01*
X845311Y658907D01*
X845311Y665989D01*
G37*
%LPD*%
%LPC*%
G36*
X845311Y589789D02*
X845311Y589789D01*
X852393Y589789D01*
X852369Y589638D01*
X851916Y588243D01*
X851250Y586936D01*
X850388Y585749D01*
X849351Y584712D01*
X848164Y583850D01*
X846857Y583184D01*
X845462Y582731D01*
X845311Y582707D01*
X845311Y589789D01*
G37*
%LPD*%
%LPC*%
G36*
X845311Y564389D02*
X845311Y564389D01*
X852393Y564389D01*
X852369Y564238D01*
X851916Y562843D01*
X851250Y561536D01*
X850388Y560349D01*
X849351Y559312D01*
X848164Y558450D01*
X846857Y557784D01*
X845462Y557331D01*
X845311Y557307D01*
X845311Y564389D01*
G37*
%LPD*%
%LPC*%
G36*
X845311Y716789D02*
X845311Y716789D01*
X852393Y716789D01*
X852369Y716638D01*
X851916Y715243D01*
X851250Y713936D01*
X850388Y712749D01*
X849351Y711712D01*
X848164Y710850D01*
X846857Y710184D01*
X845462Y709731D01*
X845311Y709707D01*
X845311Y716789D01*
G37*
%LPD*%
%LPC*%
G36*
X841098Y557331D02*
X841098Y557331D01*
X839703Y557784D01*
X838396Y558450D01*
X837209Y559312D01*
X836172Y560349D01*
X835310Y561536D01*
X834644Y562843D01*
X834191Y564238D01*
X834167Y564389D01*
X841249Y564389D01*
X841249Y557307D01*
X841098Y557331D01*
G37*
%LPD*%
%LPC*%
G36*
X841098Y531931D02*
X841098Y531931D01*
X839703Y532384D01*
X838396Y533050D01*
X837209Y533912D01*
X836172Y534949D01*
X835310Y536136D01*
X834644Y537443D01*
X834191Y538838D01*
X834167Y538989D01*
X841249Y538989D01*
X841249Y531907D01*
X841098Y531931D01*
G37*
%LPD*%
%LPC*%
G36*
X841098Y658931D02*
X841098Y658931D01*
X839703Y659384D01*
X838396Y660050D01*
X837209Y660912D01*
X836172Y661949D01*
X835310Y663136D01*
X834644Y664443D01*
X834191Y665838D01*
X834167Y665989D01*
X841249Y665989D01*
X841249Y658907D01*
X841098Y658931D01*
G37*
%LPD*%
%LPC*%
G36*
X841098Y633531D02*
X841098Y633531D01*
X839703Y633984D01*
X838396Y634650D01*
X837209Y635512D01*
X836172Y636549D01*
X835310Y637736D01*
X834644Y639043D01*
X834191Y640438D01*
X834167Y640589D01*
X841249Y640589D01*
X841249Y633507D01*
X841098Y633531D01*
G37*
%LPD*%
%LPC*%
G36*
X841098Y608131D02*
X841098Y608131D01*
X839703Y608584D01*
X838396Y609250D01*
X837209Y610112D01*
X836172Y611149D01*
X835310Y612336D01*
X834644Y613643D01*
X834191Y615038D01*
X834167Y615189D01*
X841249Y615189D01*
X841249Y608107D01*
X841098Y608131D01*
G37*
%LPD*%
%LPC*%
G36*
X841098Y582731D02*
X841098Y582731D01*
X839703Y583184D01*
X838396Y583850D01*
X837209Y584712D01*
X836172Y585749D01*
X835310Y586936D01*
X834644Y588243D01*
X834191Y589638D01*
X834167Y589789D01*
X841249Y589789D01*
X841249Y582707D01*
X841098Y582731D01*
G37*
%LPD*%
%LPC*%
G36*
X841098Y709731D02*
X841098Y709731D01*
X839703Y710184D01*
X838396Y710850D01*
X837209Y711712D01*
X836172Y712749D01*
X835310Y713936D01*
X834644Y715243D01*
X834191Y716638D01*
X834167Y716789D01*
X841249Y716789D01*
X841249Y709707D01*
X841098Y709731D01*
G37*
%LPD*%
%LPC*%
G36*
X841098Y760531D02*
X841098Y760531D01*
X839703Y760984D01*
X838396Y761650D01*
X837209Y762512D01*
X836172Y763549D01*
X835310Y764736D01*
X834644Y766043D01*
X834191Y767438D01*
X834167Y767589D01*
X841249Y767589D01*
X841249Y760507D01*
X841098Y760531D01*
G37*
%LPD*%
%LPC*%
G36*
X841098Y684331D02*
X841098Y684331D01*
X839703Y684784D01*
X838396Y685450D01*
X837209Y686312D01*
X836172Y687349D01*
X835310Y688536D01*
X834644Y689843D01*
X834191Y691238D01*
X834167Y691389D01*
X841249Y691389D01*
X841249Y684307D01*
X841098Y684331D01*
G37*
%LPD*%
%LPC*%
G36*
X841098Y735131D02*
X841098Y735131D01*
X839703Y735584D01*
X838396Y736250D01*
X837209Y737112D01*
X836172Y738149D01*
X835310Y739336D01*
X834644Y740643D01*
X834191Y742038D01*
X834167Y742189D01*
X841249Y742189D01*
X841249Y735107D01*
X841098Y735131D01*
G37*
%LPD*%
%LPC*%
G36*
X843279Y541019D02*
X843279Y541019D01*
X843279Y541021D01*
X843281Y541021D01*
X843281Y541019D01*
X843279Y541019D01*
G37*
%LPD*%
%LPC*%
G36*
X396239Y667849D02*
X396239Y667849D01*
X396239Y667851D01*
X396241Y667851D01*
X396241Y667849D01*
X396239Y667849D01*
G37*
%LPD*%
%LPC*%
G36*
X843279Y668019D02*
X843279Y668019D01*
X843279Y668021D01*
X843281Y668021D01*
X843281Y668019D01*
X843279Y668019D01*
G37*
%LPD*%
%LPC*%
G36*
X243839Y669119D02*
X243839Y669119D01*
X243839Y669121D01*
X243841Y669121D01*
X243841Y669119D01*
X243839Y669119D01*
G37*
%LPD*%
%LPC*%
G36*
X843279Y591819D02*
X843279Y591819D01*
X843279Y591821D01*
X843281Y591821D01*
X843281Y591819D01*
X843279Y591819D01*
G37*
%LPD*%
%LPC*%
G36*
X843279Y642619D02*
X843279Y642619D01*
X843279Y642621D01*
X843281Y642621D01*
X843281Y642619D01*
X843279Y642619D01*
G37*
%LPD*%
%LPC*%
G36*
X843279Y744219D02*
X843279Y744219D01*
X843279Y744221D01*
X843281Y744221D01*
X843281Y744219D01*
X843279Y744219D01*
G37*
%LPD*%
%LPC*%
G36*
X843279Y617219D02*
X843279Y617219D01*
X843279Y617221D01*
X843281Y617221D01*
X843281Y617219D01*
X843279Y617219D01*
G37*
%LPD*%
%LPC*%
G36*
X1052309Y523239D02*
X1052309Y523239D01*
X1052309Y523241D01*
X1052311Y523241D01*
X1052311Y523239D01*
X1052309Y523239D01*
G37*
%LPD*%
%LPC*%
G36*
X843279Y769619D02*
X843279Y769619D01*
X843279Y769621D01*
X843281Y769621D01*
X843281Y769619D01*
X843279Y769619D01*
G37*
%LPD*%
%LPC*%
G36*
X843279Y693419D02*
X843279Y693419D01*
X843279Y693421D01*
X843281Y693421D01*
X843281Y693419D01*
X843279Y693419D01*
G37*
%LPD*%
%LPC*%
G36*
X843279Y566419D02*
X843279Y566419D01*
X843279Y566421D01*
X843281Y566421D01*
X843281Y566419D01*
X843279Y566419D01*
G37*
%LPD*%
%LPC*%
G36*
X87629Y430529D02*
X87629Y430529D01*
X87629Y430531D01*
X87631Y430531D01*
X87631Y430529D01*
X87629Y430529D01*
G37*
%LPD*%
%LPC*%
G36*
X85089Y290829D02*
X85089Y290829D01*
X85089Y290831D01*
X85091Y290831D01*
X85091Y290829D01*
X85089Y290829D01*
G37*
%LPD*%
%LPC*%
G36*
X843279Y718819D02*
X843279Y718819D01*
X843279Y718821D01*
X843281Y718821D01*
X843281Y718819D01*
X843279Y718819D01*
G37*
%LPD*%
%LPC*%
G36*
X549909Y667849D02*
X549909Y667849D01*
X549909Y667851D01*
X549911Y667851D01*
X549911Y667849D01*
X549909Y667849D01*
G37*
%LPD*%
%LPC*%
G36*
X95249Y667849D02*
X95249Y667849D01*
X95249Y667851D01*
X95251Y667851D01*
X95251Y667849D01*
X95249Y667849D01*
G37*
%LPD*%
D10*
X166370Y430530D03*
X87630Y430530D03*
X85090Y290830D03*
X163830Y290830D03*
D11*
X481330Y57150D03*
X455930Y57150D03*
X430530Y57150D03*
X405130Y57150D03*
D12*
X549910Y734850D03*
X549910Y667850D03*
X95250Y734850D03*
X95250Y667850D03*
X396240Y734850D03*
X396240Y667850D03*
X243840Y736120D03*
X243840Y669120D03*
D13*
X102870Y110490D03*
X173990Y110490D03*
D14*
X767080Y769620D03*
X767080Y744220D03*
X767080Y718820D03*
X767080Y693420D03*
X767080Y668020D03*
X767080Y642620D03*
X767080Y617220D03*
X767080Y591820D03*
X767080Y566420D03*
X767080Y541020D03*
X843280Y541020D03*
X843280Y566420D03*
X843280Y591820D03*
X843280Y617220D03*
X843280Y642620D03*
X843280Y668020D03*
X843280Y693420D03*
X843280Y718820D03*
X843280Y744220D03*
X843280Y769620D03*
D11*
X987310Y523240D03*
X1052310Y523240D03*
X605790Y393700D03*
X605790Y419100D03*
X605790Y444500D03*
D15*
X605409Y73660D03*
X631520Y73660D03*
D11*
X808990Y207010D03*
X783590Y207010D03*
X758190Y207010D03*
D16*
X184150Y177800D03*
X251460Y190500D03*
X242570Y148590D03*
X247650Y93980D03*
X361950Y111760D03*
X347980Y96520D03*
X337820Y82550D03*
X323850Y71120D03*
X307340Y64770D03*
X285750Y62230D03*
X266700Y59690D03*
X281940Y21590D03*
X320040Y22860D03*
X344170Y40640D03*
X361950Y55880D03*
X375920Y67310D03*
X488950Y176530D03*
X524510Y114300D03*
X444500Y15240D03*
X516890Y21590D03*
X509270Y76200D03*
X557530Y73660D03*
X544830Y116840D03*
X621030Y90170D03*
X674370Y26670D03*
X739140Y26670D03*
X572770Y237490D03*
X572770Y207010D03*
X687070Y254000D03*
X506730Y279400D03*
X519430Y314960D03*
X834390Y176530D03*
X934720Y598170D03*
X876300Y485140D03*
X966470Y579120D03*
X694690Y678180D03*
X645160Y600710D03*
X647700Y524510D03*
X673100Y464820D03*
X660400Y490220D03*
X668020Y433070D03*
X655320Y389890D03*
X557530Y254000D03*
X554990Y208280D03*
X525780Y198120D03*
X600710Y238760D03*
X594360Y229870D03*
X581660Y218440D03*
X582930Y246380D03*
X557530Y228600D03*
D17*
X283210Y157480D03*
D18*
X302260Y138430D01*
X636270Y138430D02*
X645160Y147320D01*
D17*
X645160Y147320D03*
D18*
X636270Y138430D02*
X302260Y138430D01*
D16*
X665480Y210820D03*
X749300Y151130D03*
X1007110Y13970D03*
X952500Y74930D03*
X971550Y196850D03*
X1079500Y153670D03*
X889000Y308610D03*
X908050Y318770D03*
X848360Y320040D03*
X859790Y330200D03*
X924560Y293370D03*
X966470Y243840D03*
X984250Y260350D03*
X1008380Y273050D03*
X1031240Y289560D03*
X1013460Y347980D03*
X1032510Y381000D03*
X1009650Y414020D03*
X994410Y364490D03*
X1088390Y447040D03*
X937260Y441960D03*
X909320Y454660D03*
X928370Y487680D03*
X892810Y488950D03*
X915670Y511810D03*
X815340Y430530D03*
X815340Y405130D03*
X735330Y436880D03*
X749300Y417830D03*
X551180Y546100D03*
X577850Y491490D03*
X598170Y532130D03*
X515620Y459740D03*
X459740Y417830D03*
X487680Y417830D03*
X492760Y388620D03*
X455930Y388620D03*
X440690Y384810D03*
X440690Y364490D03*
X466090Y364490D03*
X433070Y339090D03*
X450850Y330200D03*
X281940Y361950D03*
X398780Y424180D03*
X256540Y422910D03*
X210820Y563880D03*
X350520Y581660D03*
X31750Y619760D03*
X44450Y556260D03*
X168910Y613410D03*
X172720Y661670D03*
X45720Y670560D03*
X309880Y673100D03*
X340360Y657860D03*
X439420Y651510D03*
X445770Y628650D03*
X445770Y607060D03*
X445770Y586740D03*
X425450Y560070D03*
X318770Y560070D03*
X247650Y561340D03*
X168910Y562610D03*
X806450Y360680D03*
X742950Y252730D03*
X469900Y454660D03*
X483870Y454660D03*
X298450Y361950D03*
X317500Y365760D03*
X330200Y367030D03*
X551180Y323850D03*
X576580Y323850D03*
X610870Y326390D03*
X638810Y326390D03*
D17*
X713740Y290830D03*
X966470Y344170D03*
D19*
X732790Y290830D02*
X713740Y290830D01*
X732790Y290830D02*
X769620Y254000D01*
X939800Y254000D01*
X966470Y280670D01*
X966470Y344170D01*
D17*
X728980Y281940D03*
D19*
X762000Y248920D02*
X948690Y248920D01*
X762000Y248920D02*
X728980Y281940D01*
X948690Y248920D02*
X974090Y274320D01*
X974090Y353060D01*
D20*
X974090Y353060D03*
D16*
X676910Y308610D03*
X408940Y209550D03*
D18*
X670560Y314960D02*
X676910Y308610D01*
X670560Y314960D02*
X664210Y314960D01*
X568960Y219710D01*
X419100Y219710D02*
X408940Y209550D01*
X419100Y219710D02*
X568960Y219710D01*
D16*
X670560Y264160D03*
D18*
X676910Y270510D01*
X676910Y308610D01*
D16*
X20320Y35560D03*
X22860Y162560D03*
X26670Y302260D03*
X26670Y439420D03*
X100330Y309880D03*
X106680Y149860D03*
D18*
X546100Y393700D02*
X605790Y393700D01*
X506730Y433070D02*
X369570Y433070D01*
D17*
X369570Y433070D03*
D18*
X506730Y433070D02*
X546100Y393700D01*
D17*
X345440Y157480D03*
D18*
X358140Y144780D01*
X615950Y144780D02*
X621030Y149860D01*
D17*
X621030Y149860D03*
D18*
X615950Y144780D02*
X358140Y144780D01*
D16*
X610870Y241300D03*
D21*
X629920Y222250D01*
X742950Y222250D01*
X758190Y207010D01*
D17*
X659130Y236692D03*
D19*
X665008Y242570D01*
X951230Y242570D01*
X984250Y275590D01*
X984250Y381000D01*
D17*
X984250Y381000D03*
D16*
X292100Y293370D03*
X307340Y293370D03*
X322580Y293370D03*
X337820Y293370D03*
X186690Y478790D03*
X292100Y264160D03*
X307340Y264160D03*
X322580Y264160D03*
X337820Y264160D03*
X265430Y269240D03*
X251460Y247650D03*
X292100Y278130D03*
X307340Y278130D03*
X322580Y278130D03*
X337820Y278130D03*
X292100Y248920D03*
X307340Y248920D03*
X322580Y248920D03*
X337820Y248920D03*
X292100Y234950D03*
X307340Y234950D03*
X322580Y234950D03*
X337820Y234950D03*
X391160Y295910D03*
X406400Y295910D03*
X421640Y295910D03*
X436880Y295910D03*
X391160Y280670D03*
X406400Y280670D03*
X421640Y280670D03*
X436880Y280670D03*
X391160Y266700D03*
X406400Y266700D03*
X421640Y266700D03*
X436880Y266700D03*
X391160Y251460D03*
X406400Y251460D03*
X421640Y251460D03*
X436880Y251460D03*
X391160Y237490D03*
X406400Y237490D03*
X421640Y237490D03*
X436880Y237490D03*
X204470Y236220D03*
X215900Y276860D03*
X222250Y330200D03*
X222250Y364490D03*
X219710Y406400D03*
X154940Y361950D03*
X180340Y363220D03*
D17*
X684530Y297180D03*
X972820Y369570D03*
D19*
X710442Y297180D02*
X684530Y297180D01*
X710442Y297180D02*
X710914Y297652D01*
X733588Y297652D01*
X772160Y259080D01*
X937260Y259080D01*
X962406Y284226D01*
X962406Y334264D02*
X957580Y339090D01*
X957580Y354330D01*
X972820Y369570D01*
X962406Y334264D02*
X962406Y284226D01*
D17*
X525780Y388620D03*
D18*
X525780Y381000D01*
X518160Y373380D01*
X378697Y373380D01*
X377944Y372626D01*
D17*
X377944Y372626D03*
X877742Y134620D03*
D19*
X877742Y200710D01*
X861282Y217170D01*
D17*
X861282Y217170D03*
X885190Y114300D03*
D19*
X885190Y205540D01*
X869215Y221515D01*
X869215Y222785D01*
D17*
X869215Y222785D03*
D20*
X902020Y364170D03*
D22*
X902020Y361000D01*
X895350Y354330D01*
X895350Y331470D01*
X899160Y327660D02*
X910590Y327660D01*
X923290Y314960D02*
X923290Y311150D01*
D20*
X923290Y311150D03*
D22*
X899160Y327660D02*
X895350Y331470D01*
X910590Y327660D02*
X923290Y314960D01*
D17*
X340360Y416560D03*
D19*
X318770Y438150D01*
X318770Y469900D01*
D17*
X318770Y469900D03*
D18*
X340360Y416560D02*
X356870Y400050D01*
X525780Y400050D01*
X554990Y370840D01*
X684530Y370840D01*
X786130Y269240D02*
X821690Y269240D01*
X885190Y332740D01*
X786130Y269240D02*
X684530Y370840D01*
X885190Y373380D02*
X885190Y332740D01*
D17*
X885190Y373380D03*
X857250Y434340D03*
D22*
X866140Y434340D02*
X899160Y401320D01*
X866140Y434340D02*
X857250Y434340D01*
X982980Y401320D02*
X1004570Y379730D01*
X1004570Y294640D01*
X995680Y285750D01*
X995680Y280670D01*
D17*
X995680Y280670D03*
D22*
X982980Y401320D02*
X899160Y401320D01*
D17*
X793750Y449580D03*
D22*
X796290Y447040D01*
X866140Y447040D02*
X901700Y411480D01*
D17*
X901700Y411480D03*
D22*
X866140Y447040D02*
X796290Y447040D01*
D17*
X786130Y459740D03*
D22*
X868264Y459740D01*
X884774Y443230D01*
D17*
X884774Y443230D03*
X695960Y422910D03*
D22*
X695960Y397510D01*
X814070Y279400D01*
D17*
X814070Y279400D03*
X704850Y443230D03*
D22*
X704850Y403860D01*
X791210Y317500D01*
D17*
X791210Y317500D03*
X803910Y326390D03*
D22*
X712470Y417830D01*
X712470Y452120D01*
D17*
X712470Y452120D03*
X722630Y434340D03*
D22*
X722630Y424180D01*
X811530Y335280D01*
D17*
X811530Y335280D03*
D20*
X1019810Y278130D03*
X1018540Y369570D03*
D18*
X1019810Y344272D02*
X1019810Y278130D01*
X1019810Y344272D02*
X1020572Y345034D01*
X1020572Y367538D01*
X1018540Y369570D01*
D17*
X645160Y363764D03*
D19*
X678906Y363764D01*
X778510Y264160D01*
X924560Y264160D01*
X939800Y279400D01*
D17*
X939800Y279400D03*
X906780Y349250D03*
D18*
X948690Y391160D01*
D17*
X948690Y391160D03*
X906780Y337820D03*
D18*
X960120Y391160D01*
X970280Y391160D01*
D17*
X970280Y391160D03*
M02*
