G04 EAGLE Gerber RS-274X export*
G75*
%MOMM*%
%FSLAX34Y34*%
%LPD*%
%IN*%
%IPPOS*%
%AMOC8*
5,1,8,0,0,1.08239X$1,22.5*%
G01*
%ADD10C,0.254000*%


D10*
X1270Y-1270D02*
X1120140Y-5080D01*
X1122680Y894080D01*
X2540Y892810D01*
X1270Y-1270D01*
X560374Y598850D02*
X559306Y598926D01*
X558245Y599079D01*
X557198Y599307D01*
X556170Y599609D01*
X555166Y599983D01*
X554191Y600428D01*
X553251Y600942D01*
X552350Y601521D01*
X551492Y602163D01*
X550682Y602865D01*
X549925Y603622D01*
X549223Y604432D01*
X548581Y605290D01*
X548002Y606191D01*
X547488Y607131D01*
X547043Y608106D01*
X546669Y609110D01*
X546367Y610138D01*
X546139Y611185D01*
X545986Y612246D01*
X545910Y613314D01*
X545910Y614386D01*
X545986Y615454D01*
X546139Y616515D01*
X546367Y617562D01*
X546669Y618590D01*
X547043Y619594D01*
X547488Y620569D01*
X548002Y621509D01*
X548581Y622410D01*
X549223Y623268D01*
X549925Y624078D01*
X550682Y624835D01*
X551492Y625537D01*
X552350Y626179D01*
X553251Y626758D01*
X554191Y627272D01*
X555166Y627717D01*
X556170Y628091D01*
X557198Y628393D01*
X558245Y628621D01*
X559306Y628774D01*
X560374Y628850D01*
X561446Y628850D01*
X562514Y628774D01*
X563575Y628621D01*
X564622Y628393D01*
X565650Y628091D01*
X566654Y627717D01*
X567629Y627272D01*
X568569Y626758D01*
X569470Y626179D01*
X570328Y625537D01*
X571138Y624835D01*
X571895Y624078D01*
X572597Y623268D01*
X573239Y622410D01*
X573818Y621509D01*
X574332Y620569D01*
X574777Y619594D01*
X575151Y618590D01*
X575453Y617562D01*
X575681Y616515D01*
X575834Y615454D01*
X575910Y614386D01*
X575910Y613314D01*
X575834Y612246D01*
X575681Y611185D01*
X575453Y610138D01*
X575151Y609110D01*
X574777Y608106D01*
X574332Y607131D01*
X573818Y606191D01*
X573239Y605290D01*
X572597Y604432D01*
X571895Y603622D01*
X571138Y602865D01*
X570328Y602163D01*
X569470Y601521D01*
X568569Y600942D01*
X567629Y600428D01*
X566654Y599983D01*
X565650Y599609D01*
X564622Y599307D01*
X563575Y599079D01*
X562514Y598926D01*
X561446Y598850D01*
X560374Y598850D01*
X105714Y598850D02*
X104646Y598926D01*
X103585Y599079D01*
X102538Y599307D01*
X101510Y599609D01*
X100506Y599983D01*
X99531Y600428D01*
X98591Y600942D01*
X97690Y601521D01*
X96832Y602163D01*
X96022Y602865D01*
X95265Y603622D01*
X94563Y604432D01*
X93921Y605290D01*
X93342Y606191D01*
X92828Y607131D01*
X92383Y608106D01*
X92009Y609110D01*
X91707Y610138D01*
X91479Y611185D01*
X91326Y612246D01*
X91250Y613314D01*
X91250Y614386D01*
X91326Y615454D01*
X91479Y616515D01*
X91707Y617562D01*
X92009Y618590D01*
X92383Y619594D01*
X92828Y620569D01*
X93342Y621509D01*
X93921Y622410D01*
X94563Y623268D01*
X95265Y624078D01*
X96022Y624835D01*
X96832Y625537D01*
X97690Y626179D01*
X98591Y626758D01*
X99531Y627272D01*
X100506Y627717D01*
X101510Y628091D01*
X102538Y628393D01*
X103585Y628621D01*
X104646Y628774D01*
X105714Y628850D01*
X106786Y628850D01*
X107854Y628774D01*
X108915Y628621D01*
X109962Y628393D01*
X110990Y628091D01*
X111994Y627717D01*
X112969Y627272D01*
X113909Y626758D01*
X114810Y626179D01*
X115668Y625537D01*
X116478Y624835D01*
X117235Y624078D01*
X117937Y623268D01*
X118579Y622410D01*
X119158Y621509D01*
X119672Y620569D01*
X120117Y619594D01*
X120491Y618590D01*
X120793Y617562D01*
X121021Y616515D01*
X121174Y615454D01*
X121250Y614386D01*
X121250Y613314D01*
X121174Y612246D01*
X121021Y611185D01*
X120793Y610138D01*
X120491Y609110D01*
X120117Y608106D01*
X119672Y607131D01*
X119158Y606191D01*
X118579Y605290D01*
X117937Y604432D01*
X117235Y603622D01*
X116478Y602865D01*
X115668Y602163D01*
X114810Y601521D01*
X113909Y600942D01*
X112969Y600428D01*
X111994Y599983D01*
X110990Y599609D01*
X109962Y599307D01*
X108915Y599079D01*
X107854Y598926D01*
X106786Y598850D01*
X105714Y598850D01*
X406704Y598850D02*
X405636Y598926D01*
X404575Y599079D01*
X403528Y599307D01*
X402500Y599609D01*
X401496Y599983D01*
X400521Y600428D01*
X399581Y600942D01*
X398680Y601521D01*
X397822Y602163D01*
X397012Y602865D01*
X396255Y603622D01*
X395553Y604432D01*
X394911Y605290D01*
X394332Y606191D01*
X393818Y607131D01*
X393373Y608106D01*
X392999Y609110D01*
X392697Y610138D01*
X392469Y611185D01*
X392316Y612246D01*
X392240Y613314D01*
X392240Y614386D01*
X392316Y615454D01*
X392469Y616515D01*
X392697Y617562D01*
X392999Y618590D01*
X393373Y619594D01*
X393818Y620569D01*
X394332Y621509D01*
X394911Y622410D01*
X395553Y623268D01*
X396255Y624078D01*
X397012Y624835D01*
X397822Y625537D01*
X398680Y626179D01*
X399581Y626758D01*
X400521Y627272D01*
X401496Y627717D01*
X402500Y628091D01*
X403528Y628393D01*
X404575Y628621D01*
X405636Y628774D01*
X406704Y628850D01*
X407776Y628850D01*
X408844Y628774D01*
X409905Y628621D01*
X410952Y628393D01*
X411980Y628091D01*
X412984Y627717D01*
X413959Y627272D01*
X414899Y626758D01*
X415800Y626179D01*
X416658Y625537D01*
X417468Y624835D01*
X418225Y624078D01*
X418927Y623268D01*
X419569Y622410D01*
X420148Y621509D01*
X420662Y620569D01*
X421107Y619594D01*
X421481Y618590D01*
X421783Y617562D01*
X422011Y616515D01*
X422164Y615454D01*
X422240Y614386D01*
X422240Y613314D01*
X422164Y612246D01*
X422011Y611185D01*
X421783Y610138D01*
X421481Y609110D01*
X421107Y608106D01*
X420662Y607131D01*
X420148Y606191D01*
X419569Y605290D01*
X418927Y604432D01*
X418225Y603622D01*
X417468Y602865D01*
X416658Y602163D01*
X415800Y601521D01*
X414899Y600942D01*
X413959Y600428D01*
X412984Y599983D01*
X411980Y599609D01*
X410952Y599307D01*
X409905Y599079D01*
X408844Y598926D01*
X407776Y598850D01*
X406704Y598850D01*
X254304Y600120D02*
X253236Y600196D01*
X252175Y600349D01*
X251128Y600577D01*
X250100Y600879D01*
X249096Y601253D01*
X248121Y601698D01*
X247181Y602212D01*
X246280Y602791D01*
X245422Y603433D01*
X244612Y604135D01*
X243855Y604892D01*
X243153Y605702D01*
X242511Y606560D01*
X241932Y607461D01*
X241418Y608401D01*
X240973Y609376D01*
X240599Y610380D01*
X240297Y611408D01*
X240069Y612455D01*
X239916Y613516D01*
X239840Y614584D01*
X239840Y615656D01*
X239916Y616724D01*
X240069Y617785D01*
X240297Y618832D01*
X240599Y619860D01*
X240973Y620864D01*
X241418Y621839D01*
X241932Y622779D01*
X242511Y623680D01*
X243153Y624538D01*
X243855Y625348D01*
X244612Y626105D01*
X245422Y626807D01*
X246280Y627449D01*
X247181Y628028D01*
X248121Y628542D01*
X249096Y628987D01*
X250100Y629361D01*
X251128Y629663D01*
X252175Y629891D01*
X253236Y630044D01*
X254304Y630120D01*
X255376Y630120D01*
X256444Y630044D01*
X257505Y629891D01*
X258552Y629663D01*
X259580Y629361D01*
X260584Y628987D01*
X261559Y628542D01*
X262499Y628028D01*
X263400Y627449D01*
X264258Y626807D01*
X265068Y626105D01*
X265825Y625348D01*
X266527Y624538D01*
X267169Y623680D01*
X267748Y622779D01*
X268262Y621839D01*
X268707Y620864D01*
X269081Y619860D01*
X269383Y618832D01*
X269611Y617785D01*
X269764Y616724D01*
X269840Y615656D01*
X269840Y614584D01*
X269764Y613516D01*
X269611Y612455D01*
X269383Y611408D01*
X269081Y610380D01*
X268707Y609376D01*
X268262Y608401D01*
X267748Y607461D01*
X267169Y606560D01*
X266527Y605702D01*
X265825Y604892D01*
X265068Y604135D01*
X264258Y603433D01*
X263400Y602791D01*
X262499Y602212D01*
X261559Y601698D01*
X260584Y601253D01*
X259580Y600879D01*
X258552Y600577D01*
X257505Y600349D01*
X256444Y600196D01*
X255376Y600120D01*
X254304Y600120D01*
X584775Y48522D02*
X584711Y48035D01*
X584584Y47560D01*
X584396Y47106D01*
X584150Y46680D01*
X583850Y46290D01*
X583503Y45943D01*
X583113Y45643D01*
X582687Y45398D01*
X582233Y45209D01*
X581758Y45082D01*
X581271Y45018D01*
X580779Y45018D01*
X580292Y45082D01*
X579817Y45209D01*
X579363Y45398D01*
X578937Y45643D01*
X578547Y45943D01*
X578200Y46290D01*
X577900Y46680D01*
X577655Y47106D01*
X577466Y47560D01*
X577339Y48035D01*
X577275Y48522D01*
X577275Y49014D01*
X577339Y49501D01*
X577466Y49976D01*
X577655Y50430D01*
X577900Y50856D01*
X578200Y51246D01*
X578547Y51593D01*
X578937Y51893D01*
X579363Y52139D01*
X579817Y52327D01*
X580292Y52454D01*
X580779Y52518D01*
X581271Y52518D01*
X581758Y52454D01*
X582233Y52327D01*
X582687Y52139D01*
X583113Y51893D01*
X583503Y51593D01*
X583850Y51246D01*
X584150Y50856D01*
X584396Y50430D01*
X584584Y49976D01*
X584711Y49501D01*
X584775Y49014D01*
X584775Y48522D01*
X659705Y98306D02*
X659641Y97819D01*
X659514Y97344D01*
X659326Y96890D01*
X659080Y96464D01*
X658780Y96074D01*
X658433Y95727D01*
X658043Y95427D01*
X657617Y95182D01*
X657163Y94993D01*
X656688Y94866D01*
X656201Y94802D01*
X655709Y94802D01*
X655222Y94866D01*
X654747Y94993D01*
X654293Y95182D01*
X653867Y95427D01*
X653477Y95727D01*
X653130Y96074D01*
X652830Y96464D01*
X652585Y96890D01*
X652396Y97344D01*
X652269Y97819D01*
X652205Y98306D01*
X652205Y98798D01*
X652269Y99285D01*
X652396Y99760D01*
X652585Y100214D01*
X652830Y100640D01*
X653130Y101030D01*
X653477Y101377D01*
X653867Y101677D01*
X654293Y101923D01*
X654747Y102111D01*
X655222Y102238D01*
X655709Y102302D01*
X656201Y102302D01*
X656688Y102238D01*
X657163Y102111D01*
X657617Y101923D01*
X658043Y101677D01*
X658433Y101377D01*
X658780Y101030D01*
X659080Y100640D01*
X659326Y100214D01*
X659514Y99760D01*
X659641Y99285D01*
X659705Y98798D01*
X659705Y98306D01*
M02*
