%TF.GenerationSoftware,KiCad,Pcbnew,7.0.7*%
%TF.CreationDate,2024-02-23T22:21:44-08:00*%
%TF.ProjectId,PDB,5044422e-6b69-4636-9164-5f7063625858,rev?*%
%TF.SameCoordinates,Original*%
%TF.FileFunction,Soldermask,Top*%
%TF.FilePolarity,Negative*%
%FSLAX46Y46*%
G04 Gerber Fmt 4.6, Leading zero omitted, Abs format (unit mm)*
G04 Created by KiCad (PCBNEW 7.0.7) date 2024-02-23 22:21:44*
%MOMM*%
%LPD*%
G01*
G04 APERTURE LIST*
G04 Aperture macros list*
%AMRoundRect*
0 Rectangle with rounded corners*
0 $1 Rounding radius*
0 $2 $3 $4 $5 $6 $7 $8 $9 X,Y pos of 4 corners*
0 Add a 4 corners polygon primitive as box body*
4,1,4,$2,$3,$4,$5,$6,$7,$8,$9,$2,$3,0*
0 Add four circle primitives for the rounded corners*
1,1,$1+$1,$2,$3*
1,1,$1+$1,$4,$5*
1,1,$1+$1,$6,$7*
1,1,$1+$1,$8,$9*
0 Add four rect primitives between the rounded corners*
20,1,$1+$1,$2,$3,$4,$5,0*
20,1,$1+$1,$4,$5,$6,$7,0*
20,1,$1+$1,$6,$7,$8,$9,0*
20,1,$1+$1,$8,$9,$2,$3,0*%
G04 Aperture macros list end*
%ADD10C,1.524000*%
%ADD11C,1.400000*%
%ADD12C,2.000000*%
%ADD13RoundRect,0.135000X-0.135000X-0.185000X0.135000X-0.185000X0.135000X0.185000X-0.135000X0.185000X0*%
%ADD14R,1.700000X1.700000*%
%ADD15O,1.700000X1.700000*%
%ADD16RoundRect,0.200000X0.275000X-0.200000X0.275000X0.200000X-0.275000X0.200000X-0.275000X-0.200000X0*%
%ADD17R,1.600000X1.600000*%
%ADD18C,1.600000*%
%ADD19R,1.524000X1.524000*%
%ADD20C,2.800000*%
%ADD21RoundRect,0.250000X-0.600000X-0.725000X0.600000X-0.725000X0.600000X0.725000X-0.600000X0.725000X0*%
%ADD22O,1.700000X1.950000*%
%ADD23RoundRect,0.225000X0.225000X0.250000X-0.225000X0.250000X-0.225000X-0.250000X0.225000X-0.250000X0*%
%ADD24C,1.800000*%
%ADD25RoundRect,0.200000X-0.275000X0.200000X-0.275000X-0.200000X0.275000X-0.200000X0.275000X0.200000X0*%
%ADD26RoundRect,0.225000X0.250000X-0.225000X0.250000X0.225000X-0.250000X0.225000X-0.250000X-0.225000X0*%
%ADD27C,3.000000*%
%ADD28R,2.921000X1.651000*%
%ADD29O,2.401000X0.574000*%
%ADD30RoundRect,0.200000X-0.200000X-0.275000X0.200000X-0.275000X0.200000X0.275000X-0.200000X0.275000X0*%
%ADD31C,3.240000*%
%ADD32R,0.700000X1.250000*%
%ADD33RoundRect,0.225000X-0.225000X-0.250000X0.225000X-0.250000X0.225000X0.250000X-0.225000X0.250000X0*%
%ADD34C,4.495800*%
%ADD35C,4.000000*%
%ADD36O,5.500000X2.200000*%
%ADD37RoundRect,0.150000X-0.825000X-0.150000X0.825000X-0.150000X0.825000X0.150000X-0.825000X0.150000X0*%
%ADD38RoundRect,1.500000X1.500000X1.500000X-1.500000X1.500000X-1.500000X-1.500000X1.500000X-1.500000X0*%
%ADD39C,6.000000*%
%ADD40RoundRect,0.225000X-0.250000X0.225000X-0.250000X-0.225000X0.250000X-0.225000X0.250000X0.225000X0*%
G04 APERTURE END LIST*
%TO.C,G\u002A\u002A\u002A*%
G36*
X110734247Y-63087964D02*
G01*
X110856606Y-63152628D01*
X111043446Y-63258148D01*
X111285003Y-63398556D01*
X111571513Y-63567883D01*
X111893212Y-63760163D01*
X112240337Y-63969426D01*
X112603123Y-64189706D01*
X112971806Y-64415033D01*
X113336624Y-64639441D01*
X113687811Y-64856962D01*
X114015604Y-65061627D01*
X114310239Y-65247468D01*
X114561953Y-65408518D01*
X114760981Y-65538809D01*
X114897559Y-65632373D01*
X114961925Y-65683242D01*
X114962593Y-65683995D01*
X115064934Y-65801607D01*
X115204594Y-65961677D01*
X115353505Y-66132039D01*
X115371870Y-66153025D01*
X115496709Y-66304078D01*
X115590620Y-66433735D01*
X115637636Y-66519422D01*
X115640223Y-66532472D01*
X115606025Y-66603965D01*
X115513623Y-66725934D01*
X115378303Y-66882197D01*
X115215353Y-67056571D01*
X115040059Y-67232873D01*
X114867707Y-67394922D01*
X114713586Y-67526535D01*
X114668447Y-67561184D01*
X114484194Y-67685469D01*
X114262323Y-67817687D01*
X114030469Y-67943123D01*
X113816269Y-68047064D01*
X113647359Y-68114796D01*
X113606239Y-68126701D01*
X113547403Y-68130468D01*
X113480223Y-68106311D01*
X113391328Y-68044169D01*
X113267344Y-67933983D01*
X113094900Y-67765696D01*
X113000934Y-67671364D01*
X112519653Y-67185868D01*
X111593914Y-65136769D01*
X111404163Y-64715537D01*
X111228279Y-64322719D01*
X111070249Y-63967395D01*
X110934061Y-63658643D01*
X110823704Y-63405543D01*
X110743166Y-63217174D01*
X110696433Y-63102614D01*
X110686133Y-63070123D01*
X110734247Y-63087964D01*
G37*
G36*
X111441918Y-58702151D02*
G01*
X111725889Y-58749651D01*
X112062154Y-58832431D01*
X112414942Y-58940077D01*
X112748477Y-59062170D01*
X112899305Y-59126493D01*
X113053796Y-59198583D01*
X113164875Y-59254433D01*
X113209301Y-59282334D01*
X113209364Y-59282679D01*
X113193720Y-59333515D01*
X113152512Y-59452733D01*
X113094322Y-59615557D01*
X113088244Y-59632332D01*
X112967125Y-59966256D01*
X113224670Y-60138168D01*
X113366235Y-60245166D01*
X113549818Y-60401554D01*
X113749425Y-60584485D01*
X113902800Y-60734204D01*
X114323384Y-61158329D01*
X114850091Y-61158329D01*
X115097879Y-61159651D01*
X115269878Y-61172016D01*
X115389505Y-61208026D01*
X115480178Y-61280282D01*
X115565314Y-61401385D01*
X115668332Y-61583935D01*
X115679834Y-61604814D01*
X115792513Y-61838587D01*
X115888575Y-62093404D01*
X115964425Y-62351425D01*
X116016469Y-62594809D01*
X116041113Y-62805717D01*
X116034762Y-62966310D01*
X115993822Y-63058747D01*
X115975086Y-63070213D01*
X115902184Y-63088530D01*
X115755624Y-63118899D01*
X115559514Y-63156471D01*
X115416981Y-63182444D01*
X114920887Y-63271062D01*
X114907854Y-63442527D01*
X114871212Y-63672954D01*
X114798681Y-63947631D01*
X114701129Y-64236650D01*
X114589425Y-64510103D01*
X114474437Y-64738081D01*
X114392090Y-64861840D01*
X114362942Y-64874309D01*
X114305577Y-64864136D01*
X114211364Y-64826936D01*
X114071674Y-64758327D01*
X113877877Y-64653926D01*
X113621344Y-64509349D01*
X113293444Y-64320213D01*
X113073946Y-64192333D01*
X112722007Y-63986790D01*
X112903674Y-63632456D01*
X112984945Y-63469159D01*
X113037406Y-63340327D01*
X113067281Y-63215561D01*
X113080795Y-63064466D01*
X113084175Y-62856643D01*
X113084085Y-62751527D01*
X113081069Y-62505957D01*
X113069887Y-62329834D01*
X113045255Y-62193429D01*
X113001892Y-62067012D01*
X112937653Y-61927275D01*
X112806810Y-61709874D01*
X112622799Y-61471848D01*
X112467620Y-61302993D01*
X112075201Y-60976761D01*
X111628367Y-60724549D01*
X111140390Y-60547836D01*
X110624548Y-60448099D01*
X110094114Y-60426817D01*
X109562363Y-60485469D01*
X109042570Y-60625533D01*
X108548011Y-60848487D01*
X108521278Y-60863484D01*
X108306002Y-61011978D01*
X108073623Y-61214981D01*
X107849980Y-61445897D01*
X107660911Y-61678133D01*
X107535902Y-61877665D01*
X107379641Y-62292112D01*
X107318606Y-62705689D01*
X107349010Y-63111180D01*
X107467062Y-63501365D01*
X107668976Y-63869029D01*
X107950961Y-64206953D01*
X108309230Y-64507920D01*
X108739993Y-64764714D01*
X109141395Y-64936082D01*
X109290968Y-64985415D01*
X109433859Y-65018755D01*
X109595407Y-65039079D01*
X109800949Y-65049365D01*
X110075826Y-65052588D01*
X110133582Y-65052648D01*
X110402763Y-65049807D01*
X110655579Y-65042034D01*
X110865442Y-65030478D01*
X111005760Y-65016288D01*
X111016292Y-65014529D01*
X111150388Y-64995045D01*
X111223712Y-65012489D01*
X111273057Y-65085759D01*
X111306042Y-65163357D01*
X111353856Y-65278560D01*
X111430486Y-65461780D01*
X111526133Y-65689638D01*
X111630994Y-65938757D01*
X111652503Y-65989771D01*
X111747994Y-66221779D01*
X111825039Y-66419822D01*
X111877326Y-66566802D01*
X111898546Y-66645620D01*
X111897593Y-66653823D01*
X111841106Y-66674331D01*
X111710764Y-66708409D01*
X111529996Y-66750140D01*
X111437368Y-66770065D01*
X111113153Y-66822671D01*
X110737610Y-66852869D01*
X110301161Y-66862555D01*
X109600575Y-66863407D01*
X109282141Y-67396708D01*
X109136297Y-67635549D01*
X109020634Y-67799082D01*
X108916174Y-67898186D01*
X108803939Y-67943738D01*
X108664952Y-67946615D01*
X108480234Y-67917695D01*
X108400662Y-67901952D01*
X108076043Y-67819399D01*
X107716956Y-67700277D01*
X107372424Y-67561627D01*
X107231434Y-67495541D01*
X107059793Y-67402866D01*
X106870399Y-67288828D01*
X106682488Y-67166594D01*
X106515294Y-67049332D01*
X106388054Y-66950209D01*
X106320004Y-66882394D01*
X106313661Y-66867277D01*
X106333929Y-66808925D01*
X106389071Y-66680485D01*
X106470590Y-66501110D01*
X106566875Y-66296468D01*
X106820090Y-65766387D01*
X106523648Y-65457673D01*
X106160695Y-65025645D01*
X105874165Y-64569449D01*
X105777913Y-64370536D01*
X105674318Y-64134892D01*
X105077961Y-64134892D01*
X104825411Y-64133873D01*
X104653805Y-64128748D01*
X104544874Y-64116411D01*
X104480348Y-64093758D01*
X104441959Y-64057684D01*
X104421117Y-64023271D01*
X104389926Y-63910917D01*
X104369198Y-63725229D01*
X104358887Y-63491529D01*
X104358945Y-63235142D01*
X104369325Y-62981395D01*
X104389980Y-62755610D01*
X104420863Y-62583114D01*
X104423824Y-62572196D01*
X104493542Y-62343791D01*
X104558774Y-62193863D01*
X104634647Y-62103629D01*
X104736287Y-62054307D01*
X104860810Y-62029581D01*
X105047001Y-62001905D01*
X105269805Y-61966880D01*
X105406422Y-61944500D01*
X105714613Y-61892935D01*
X105917376Y-61523491D01*
X106053858Y-61304694D01*
X106228720Y-61065052D01*
X106407586Y-60851180D01*
X106434470Y-60822266D01*
X106748801Y-60490485D01*
X106527641Y-60180557D01*
X106426145Y-60026998D01*
X106357998Y-59901519D01*
X106335410Y-59827226D01*
X106337406Y-59820589D01*
X106430495Y-59725687D01*
X106597693Y-59607550D01*
X106819446Y-59475680D01*
X107076201Y-59339576D01*
X107348403Y-59208740D01*
X107616499Y-59092671D01*
X107860935Y-59000870D01*
X108062156Y-58942837D01*
X108176346Y-58927127D01*
X108265478Y-58960461D01*
X108387193Y-59047563D01*
X108474003Y-59128272D01*
X108618633Y-59271377D01*
X108733418Y-59355967D01*
X108849632Y-59391174D01*
X108998549Y-59386130D01*
X109211445Y-59349965D01*
X109224659Y-59347440D01*
X109446923Y-59315336D01*
X109724535Y-59290215D01*
X110013689Y-59275543D01*
X110163601Y-59273182D01*
X110714519Y-59273173D01*
X111137949Y-58669533D01*
X111441918Y-58702151D01*
G37*
%TD*%
D10*
%TO.C,SW2*%
X160415600Y-100863400D03*
X162915600Y-100863400D03*
X165415600Y-100863400D03*
%TD*%
D11*
%TO.C,Y1*%
X144613800Y-85623400D03*
X139713800Y-85623400D03*
%TD*%
D12*
%TO.C,SW3*%
X62150000Y-76100000D03*
X68650000Y-76100000D03*
X62150000Y-71600000D03*
X68650000Y-71600000D03*
%TD*%
D13*
%TO.C,R21*%
X71290000Y-72600000D03*
X72310000Y-72600000D03*
%TD*%
D14*
%TO.C,J3*%
X149800000Y-92800000D03*
D15*
X152340000Y-92800000D03*
%TD*%
D16*
%TO.C,R11*%
X134645400Y-87007200D03*
X134645400Y-85357200D03*
%TD*%
D17*
%TO.C,C2*%
X100695688Y-53898800D03*
D18*
X102695688Y-53898800D03*
%TD*%
D14*
%TO.C,J1*%
X147955000Y-46883400D03*
D15*
X147955000Y-49423400D03*
%TD*%
D19*
%TO.C,USB2*%
X156845000Y-50998000D03*
D10*
X156845000Y-48498000D03*
X156845000Y-46498000D03*
X156845000Y-43998000D03*
D20*
X159555000Y-40948000D03*
X159555000Y-54048000D03*
%TD*%
D16*
%TO.C,R7*%
X118872000Y-87312000D03*
X118872000Y-85662000D03*
%TD*%
%TO.C,R6*%
X93599000Y-77723000D03*
X93599000Y-76073000D03*
%TD*%
D21*
%TO.C,Jst1*%
X63093600Y-82270600D03*
D22*
X65593600Y-82270600D03*
X68093600Y-82270600D03*
X70593600Y-82270600D03*
%TD*%
D10*
%TO.C,D3*%
X124460000Y-101346000D03*
X127000000Y-101346000D03*
X129540000Y-101346000D03*
X132080000Y-101346000D03*
X134620000Y-101346000D03*
X137160000Y-101346000D03*
X137160000Y-91186000D03*
X134620000Y-91186000D03*
X132080000Y-91186000D03*
X129540000Y-91186000D03*
X127000000Y-91186000D03*
X124460000Y-91186000D03*
%TD*%
D23*
%TO.C,C3*%
X144335800Y-70891400D03*
X142785800Y-70891400D03*
%TD*%
D24*
%TO.C,B1*%
X134172000Y-48614000D03*
X141672000Y-48614000D03*
%TD*%
D25*
%TO.C,R12*%
X125984000Y-85662000D03*
X125984000Y-87312000D03*
%TD*%
D16*
%TO.C,R2*%
X93599000Y-93218000D03*
X93599000Y-91568000D03*
%TD*%
D26*
%TO.C,C5*%
X142544800Y-78219600D03*
X142544800Y-76669600D03*
%TD*%
D19*
%TO.C,USB3*%
X156845000Y-70998000D03*
D10*
X156845000Y-68498000D03*
X156845000Y-66498000D03*
X156845000Y-63998000D03*
D20*
X159555000Y-60948000D03*
X159555000Y-74048000D03*
%TD*%
D27*
%TO.C,A2*%
X72000000Y-33113400D03*
X64000000Y-33113400D03*
%TD*%
D25*
%TO.C,R5*%
X93599000Y-79185000D03*
X93599000Y-80835000D03*
%TD*%
%TO.C,R3*%
X93599000Y-83757000D03*
X93599000Y-85407000D03*
%TD*%
D17*
%TO.C,Pro1*%
X111760000Y-101092000D03*
D18*
X111760000Y-98552000D03*
X111760000Y-96012000D03*
X111760000Y-93472000D03*
X111760000Y-90932000D03*
X111760000Y-88392000D03*
X111760000Y-85852000D03*
X111760000Y-83312000D03*
X111760000Y-80772000D03*
X111760000Y-78232000D03*
X111760000Y-75692000D03*
X111760000Y-73152000D03*
X96520000Y-73152000D03*
X96520000Y-75692000D03*
X96520000Y-78232000D03*
X96520000Y-80772000D03*
X96520000Y-83312000D03*
X96520000Y-85852000D03*
X96520000Y-88392000D03*
X96520000Y-90932000D03*
X96520000Y-93472000D03*
X96520000Y-96012000D03*
X96520000Y-98552000D03*
X96520000Y-101092000D03*
%TD*%
D28*
%TO.C,F1*%
X82092800Y-100507800D03*
X88315800Y-100507800D03*
X82092800Y-87045800D03*
X88315800Y-87045800D03*
%TD*%
D16*
%TO.C,R10*%
X133019800Y-87007200D03*
X133019800Y-85357200D03*
%TD*%
D25*
%TO.C,R14*%
X131394200Y-85357200D03*
X131394200Y-87007200D03*
%TD*%
D27*
%TO.C,A4*%
X72000000Y-53113400D03*
X64000000Y-53113400D03*
%TD*%
D19*
%TO.C,USB1*%
X156845000Y-30998000D03*
D10*
X156845000Y-28498000D03*
X156845000Y-26498000D03*
X156845000Y-23998000D03*
D20*
X159555000Y-20948000D03*
X159555000Y-34048000D03*
%TD*%
D29*
%TO.C,U3*%
X128523800Y-72491600D03*
X128523800Y-73761600D03*
X128523800Y-75031600D03*
X128523800Y-76301600D03*
X128523800Y-77571600D03*
X128523800Y-78841600D03*
X128523800Y-80111600D03*
X128523800Y-81381600D03*
X138023800Y-81381600D03*
X138023800Y-80111600D03*
X138023800Y-78841600D03*
X138023800Y-77571600D03*
X138023800Y-76301600D03*
X138023800Y-75031600D03*
X138023800Y-73761600D03*
X138023800Y-72491600D03*
%TD*%
D30*
%TO.C,R20*%
X132779000Y-70612000D03*
X134429000Y-70612000D03*
%TD*%
D17*
%TO.C,C1*%
X100797288Y-46228000D03*
D18*
X102797288Y-46228000D03*
%TD*%
D30*
%TO.C,R17*%
X153048200Y-88493600D03*
X154698200Y-88493600D03*
%TD*%
D26*
%TO.C,C4*%
X142547800Y-75070000D03*
X142547800Y-73520000D03*
%TD*%
D31*
%TO.C,REF\u002A\u002A*%
X102108000Y-65125600D03*
%TD*%
D16*
%TO.C,R1*%
X93599000Y-96330000D03*
X93599000Y-94680000D03*
%TD*%
D32*
%TO.C,Q1*%
X118432500Y-76151000D03*
X120332500Y-76151000D03*
X119382500Y-74151000D03*
%TD*%
D27*
%TO.C,A5*%
X72000000Y-63113400D03*
X64000000Y-63113400D03*
%TD*%
D30*
%TO.C,R19*%
X129629400Y-70612000D03*
X131279400Y-70612000D03*
%TD*%
D33*
%TO.C,C7*%
X135953200Y-70612000D03*
X137503200Y-70612000D03*
%TD*%
D16*
%TO.C,R4*%
X93599000Y-88582000D03*
X93599000Y-86932000D03*
%TD*%
D27*
%TO.C,A3*%
X72000000Y-43113400D03*
X64000000Y-43113400D03*
%TD*%
D34*
%TO.C,Converter1*%
X145211800Y-23672800D03*
X91363800Y-23672800D03*
D35*
X127685800Y-55422800D03*
X121589800Y-55422800D03*
X115493800Y-55422800D03*
X109143800Y-55422800D03*
%TD*%
D16*
%TO.C,R15*%
X122097800Y-75983600D03*
X122097800Y-74333600D03*
%TD*%
%TO.C,R9*%
X122174000Y-87312000D03*
X122174000Y-85662000D03*
%TD*%
D27*
%TO.C,A1*%
X72000000Y-23113400D03*
X64000000Y-23113400D03*
%TD*%
D25*
%TO.C,R13*%
X127635000Y-85662000D03*
X127635000Y-87312000D03*
%TD*%
D36*
%TO.C,Sw1*%
X91617800Y-53340000D03*
X91617800Y-48340000D03*
%TD*%
D37*
%TO.C,U2*%
X144808400Y-72491600D03*
X144808400Y-73761600D03*
X144808400Y-75031600D03*
X144808400Y-76301600D03*
X144808400Y-77571600D03*
X144808400Y-78841600D03*
X144808400Y-80111600D03*
X144808400Y-81381600D03*
X149758400Y-81381600D03*
X149758400Y-80111600D03*
X149758400Y-78841600D03*
X149758400Y-77571600D03*
X149758400Y-76301600D03*
X149758400Y-75031600D03*
X149758400Y-73761600D03*
X149758400Y-72491600D03*
%TD*%
D16*
%TO.C,R16*%
X123748800Y-75983600D03*
X123748800Y-74333600D03*
%TD*%
D38*
%TO.C,Batt1*%
X70866000Y-99568000D03*
D39*
X63666000Y-99568000D03*
%TD*%
D40*
%TO.C,C6*%
X142544800Y-79819200D03*
X142544800Y-81369200D03*
%TD*%
D31*
%TO.C,REF\u002A\u002A*%
X81635600Y-36677600D03*
%TD*%
%TO.C,REF\u002A\u002A*%
X152883400Y-102006400D03*
%TD*%
%TO.C,REF\u002A\u002A*%
X146456400Y-65125600D03*
%TD*%
D14*
%TO.C,J2*%
X70713600Y-90627200D03*
D15*
X68173600Y-90627200D03*
X65633600Y-90627200D03*
X63093600Y-90627200D03*
%TD*%
D30*
%TO.C,R18*%
X153022800Y-86487000D03*
X154672800Y-86487000D03*
%TD*%
D19*
%TO.C,DATA1*%
X156845000Y-90998000D03*
D10*
X156845000Y-88498000D03*
X156845000Y-86498000D03*
X156845000Y-83998000D03*
D20*
X159555000Y-80948000D03*
X159555000Y-94048000D03*
%TD*%
D16*
%TO.C,R8*%
X120523000Y-87312000D03*
X120523000Y-85662000D03*
%TD*%
M02*
