%TF.GenerationSoftware,KiCad,Pcbnew,8.0.4*%
%TF.CreationDate,2024-09-07T15:05:54-07:00*%
%TF.ProjectId,PDB,5044422e-6b69-4636-9164-5f7063625858,rev?*%
%TF.SameCoordinates,Original*%
%TF.FileFunction,Paste,Top*%
%TF.FilePolarity,Positive*%
%FSLAX46Y46*%
G04 Gerber Fmt 4.6, Leading zero omitted, Abs format (unit mm)*
G04 Created by KiCad (PCBNEW 8.0.4) date 2024-09-07 15:05:54*
%MOMM*%
%LPD*%
G01*
G04 APERTURE LIST*
G04 Aperture macros list*
%AMRoundRect*
0 Rectangle with rounded corners*
0 $1 Rounding radius*
0 $2 $3 $4 $5 $6 $7 $8 $9 X,Y pos of 4 corners*
0 Add a 4 corners polygon primitive as box body*
4,1,4,$2,$3,$4,$5,$6,$7,$8,$9,$2,$3,0*
0 Add four circle primitives for the rounded corners*
1,1,$1+$1,$2,$3*
1,1,$1+$1,$4,$5*
1,1,$1+$1,$6,$7*
1,1,$1+$1,$8,$9*
0 Add four rect primitives between the rounded corners*
20,1,$1+$1,$2,$3,$4,$5,0*
20,1,$1+$1,$4,$5,$6,$7,0*
20,1,$1+$1,$6,$7,$8,$9,0*
20,1,$1+$1,$8,$9,$2,$3,0*%
G04 Aperture macros list end*
%ADD10RoundRect,0.200000X0.275000X-0.200000X0.275000X0.200000X-0.275000X0.200000X-0.275000X-0.200000X0*%
%ADD11RoundRect,0.225000X0.225000X0.250000X-0.225000X0.250000X-0.225000X-0.250000X0.225000X-0.250000X0*%
%ADD12RoundRect,0.200000X-0.275000X0.200000X-0.275000X-0.200000X0.275000X-0.200000X0.275000X0.200000X0*%
%ADD13RoundRect,0.225000X0.250000X-0.225000X0.250000X0.225000X-0.250000X0.225000X-0.250000X-0.225000X0*%
%ADD14RoundRect,0.135000X-0.135000X-0.185000X0.135000X-0.185000X0.135000X0.185000X-0.135000X0.185000X0*%
%ADD15R,2.921000X1.651000*%
%ADD16O,2.401000X0.574000*%
%ADD17RoundRect,0.200000X-0.200000X-0.275000X0.200000X-0.275000X0.200000X0.275000X-0.200000X0.275000X0*%
%ADD18R,0.700000X1.250000*%
%ADD19RoundRect,0.225000X-0.225000X-0.250000X0.225000X-0.250000X0.225000X0.250000X-0.225000X0.250000X0*%
%ADD20RoundRect,0.150000X-0.825000X-0.150000X0.825000X-0.150000X0.825000X0.150000X-0.825000X0.150000X0*%
%ADD21RoundRect,0.225000X-0.250000X0.225000X-0.250000X-0.225000X0.250000X-0.225000X0.250000X0.225000X0*%
G04 APERTURE END LIST*
D10*
%TO.C,R11*%
X134645400Y-87007200D03*
X134645400Y-85357200D03*
%TD*%
%TO.C,R7*%
X118872000Y-87312000D03*
X118872000Y-85662000D03*
%TD*%
%TO.C,R6*%
X93599000Y-77723000D03*
X93599000Y-76073000D03*
%TD*%
D11*
%TO.C,C3*%
X144335800Y-70891400D03*
X142785800Y-70891400D03*
%TD*%
D12*
%TO.C,R12*%
X125984000Y-85662000D03*
X125984000Y-87312000D03*
%TD*%
D10*
%TO.C,R2*%
X93599000Y-93218000D03*
X93599000Y-91568000D03*
%TD*%
D13*
%TO.C,C5*%
X142544800Y-78219600D03*
X142544800Y-76669600D03*
%TD*%
D12*
%TO.C,R5*%
X93599000Y-79185000D03*
X93599000Y-80835000D03*
%TD*%
%TO.C,R3*%
X93599000Y-83757000D03*
X93599000Y-85407000D03*
%TD*%
D14*
%TO.C,R21*%
X71290000Y-72600000D03*
X72310000Y-72600000D03*
%TD*%
D15*
%TO.C,F1*%
X82092800Y-100507800D03*
X88315800Y-100507800D03*
X82092800Y-87045800D03*
X88315800Y-87045800D03*
%TD*%
D10*
%TO.C,R10*%
X133019800Y-87007200D03*
X133019800Y-85357200D03*
%TD*%
D12*
%TO.C,R14*%
X131394200Y-85357200D03*
X131394200Y-87007200D03*
%TD*%
D16*
%TO.C,U3*%
X128523800Y-72491600D03*
X128523800Y-73761600D03*
X128523800Y-75031600D03*
X128523800Y-76301600D03*
X128523800Y-77571600D03*
X128523800Y-78841600D03*
X128523800Y-80111600D03*
X128523800Y-81381600D03*
X138023800Y-81381600D03*
X138023800Y-80111600D03*
X138023800Y-78841600D03*
X138023800Y-77571600D03*
X138023800Y-76301600D03*
X138023800Y-75031600D03*
X138023800Y-73761600D03*
X138023800Y-72491600D03*
%TD*%
D17*
%TO.C,R20*%
X132779000Y-70612000D03*
X134429000Y-70612000D03*
%TD*%
%TO.C,R17*%
X153048200Y-88493600D03*
X154698200Y-88493600D03*
%TD*%
D13*
%TO.C,C4*%
X142547800Y-75070000D03*
X142547800Y-73520000D03*
%TD*%
D10*
%TO.C,R1*%
X93599000Y-96330000D03*
X93599000Y-94680000D03*
%TD*%
D18*
%TO.C,Q1*%
X118432500Y-76151000D03*
X120332500Y-76151000D03*
X119382500Y-74151000D03*
%TD*%
D17*
%TO.C,R19*%
X129629400Y-70612000D03*
X131279400Y-70612000D03*
%TD*%
D19*
%TO.C,C7*%
X135953200Y-70612000D03*
X137503200Y-70612000D03*
%TD*%
D10*
%TO.C,R4*%
X93599000Y-88582000D03*
X93599000Y-86932000D03*
%TD*%
%TO.C,R15*%
X122097800Y-75983600D03*
X122097800Y-74333600D03*
%TD*%
%TO.C,R9*%
X122174000Y-87312000D03*
X122174000Y-85662000D03*
%TD*%
D12*
%TO.C,R13*%
X127635000Y-85662000D03*
X127635000Y-87312000D03*
%TD*%
D20*
%TO.C,U2*%
X144808400Y-72491600D03*
X144808400Y-73761600D03*
X144808400Y-75031600D03*
X144808400Y-76301600D03*
X144808400Y-77571600D03*
X144808400Y-78841600D03*
X144808400Y-80111600D03*
X144808400Y-81381600D03*
X149758400Y-81381600D03*
X149758400Y-80111600D03*
X149758400Y-78841600D03*
X149758400Y-77571600D03*
X149758400Y-76301600D03*
X149758400Y-75031600D03*
X149758400Y-73761600D03*
X149758400Y-72491600D03*
%TD*%
D10*
%TO.C,R16*%
X123748800Y-75983600D03*
X123748800Y-74333600D03*
%TD*%
D21*
%TO.C,C6*%
X142544800Y-79819200D03*
X142544800Y-81369200D03*
%TD*%
D17*
%TO.C,R18*%
X153022800Y-86487000D03*
X154672800Y-86487000D03*
%TD*%
D10*
%TO.C,R8*%
X120523000Y-87312000D03*
X120523000Y-85662000D03*
%TD*%
M02*
