%TF.GenerationSoftware,KiCad,Pcbnew,8.0.4*%
%TF.CreationDate,2024-09-07T15:05:54-07:00*%
%TF.ProjectId,PDB,5044422e-6b69-4636-9164-5f7063625858,rev?*%
%TF.SameCoordinates,Original*%
%TF.FileFunction,Profile,NP*%
%FSLAX46Y46*%
G04 Gerber Fmt 4.6, Leading zero omitted, Abs format (unit mm)*
G04 Created by KiCad (PCBNEW 8.0.4) date 2024-09-07 15:05:54*
%MOMM*%
%LPD*%
G01*
G04 APERTURE LIST*
%TA.AperFunction,Profile*%
%ADD10C,0.100000*%
%TD*%
%ADD11C,0.150000*%
G04 APERTURE END LIST*
D10*
X57550000Y-19900000D02*
G75*
G02*
X60550000Y-16900000I3000000J0D01*
G01*
X169650000Y-102150000D02*
G75*
G02*
X166700000Y-105100000I-2950000J0D01*
G01*
X60550000Y-16900000D02*
X166650000Y-16900000D01*
X60550000Y-105150000D02*
G75*
G02*
X57550000Y-102150000I0J3000000D01*
G01*
X166700000Y-105100000D02*
X60550000Y-105150000D01*
X166650000Y-16900000D02*
G75*
G02*
X169650000Y-19900000I0J-3000000D01*
G01*
X169650000Y-19900000D02*
X169650000Y-102150000D01*
X57550000Y-102150000D02*
X57550000Y-19900000D01*
D11*
X198333390Y-65428570D02*
X198285771Y-65523808D01*
X198285771Y-65523808D02*
X198238152Y-65571427D01*
X198238152Y-65571427D02*
X198142914Y-65619046D01*
X198142914Y-65619046D02*
X198095295Y-65619046D01*
X198095295Y-65619046D02*
X198000057Y-65571427D01*
X198000057Y-65571427D02*
X197952438Y-65523808D01*
X197952438Y-65523808D02*
X197904819Y-65428570D01*
X197904819Y-65428570D02*
X197904819Y-65238094D01*
X197904819Y-65238094D02*
X197952438Y-65142856D01*
X197952438Y-65142856D02*
X198000057Y-65095237D01*
X198000057Y-65095237D02*
X198095295Y-65047618D01*
X198095295Y-65047618D02*
X198142914Y-65047618D01*
X198142914Y-65047618D02*
X198238152Y-65095237D01*
X198238152Y-65095237D02*
X198285771Y-65142856D01*
X198285771Y-65142856D02*
X198333390Y-65238094D01*
X198333390Y-65238094D02*
X198333390Y-65428570D01*
X198333390Y-65428570D02*
X198381009Y-65523808D01*
X198381009Y-65523808D02*
X198428628Y-65571427D01*
X198428628Y-65571427D02*
X198523866Y-65619046D01*
X198523866Y-65619046D02*
X198714342Y-65619046D01*
X198714342Y-65619046D02*
X198809580Y-65571427D01*
X198809580Y-65571427D02*
X198857200Y-65523808D01*
X198857200Y-65523808D02*
X198904819Y-65428570D01*
X198904819Y-65428570D02*
X198904819Y-65238094D01*
X198904819Y-65238094D02*
X198857200Y-65142856D01*
X198857200Y-65142856D02*
X198809580Y-65095237D01*
X198809580Y-65095237D02*
X198714342Y-65047618D01*
X198714342Y-65047618D02*
X198523866Y-65047618D01*
X198523866Y-65047618D02*
X198428628Y-65095237D01*
X198428628Y-65095237D02*
X198381009Y-65142856D01*
X198381009Y-65142856D02*
X198333390Y-65238094D01*
X198333390Y-64476189D02*
X198285771Y-64571427D01*
X198285771Y-64571427D02*
X198238152Y-64619046D01*
X198238152Y-64619046D02*
X198142914Y-64666665D01*
X198142914Y-64666665D02*
X198095295Y-64666665D01*
X198095295Y-64666665D02*
X198000057Y-64619046D01*
X198000057Y-64619046D02*
X197952438Y-64571427D01*
X197952438Y-64571427D02*
X197904819Y-64476189D01*
X197904819Y-64476189D02*
X197904819Y-64285713D01*
X197904819Y-64285713D02*
X197952438Y-64190475D01*
X197952438Y-64190475D02*
X198000057Y-64142856D01*
X198000057Y-64142856D02*
X198095295Y-64095237D01*
X198095295Y-64095237D02*
X198142914Y-64095237D01*
X198142914Y-64095237D02*
X198238152Y-64142856D01*
X198238152Y-64142856D02*
X198285771Y-64190475D01*
X198285771Y-64190475D02*
X198333390Y-64285713D01*
X198333390Y-64285713D02*
X198333390Y-64476189D01*
X198333390Y-64476189D02*
X198381009Y-64571427D01*
X198381009Y-64571427D02*
X198428628Y-64619046D01*
X198428628Y-64619046D02*
X198523866Y-64666665D01*
X198523866Y-64666665D02*
X198714342Y-64666665D01*
X198714342Y-64666665D02*
X198809580Y-64619046D01*
X198809580Y-64619046D02*
X198857200Y-64571427D01*
X198857200Y-64571427D02*
X198904819Y-64476189D01*
X198904819Y-64476189D02*
X198904819Y-64285713D01*
X198904819Y-64285713D02*
X198857200Y-64190475D01*
X198857200Y-64190475D02*
X198809580Y-64142856D01*
X198809580Y-64142856D02*
X198714342Y-64095237D01*
X198714342Y-64095237D02*
X198523866Y-64095237D01*
X198523866Y-64095237D02*
X198428628Y-64142856D01*
X198428628Y-64142856D02*
X198381009Y-64190475D01*
X198381009Y-64190475D02*
X198333390Y-64285713D01*
X198809580Y-63666665D02*
X198857200Y-63619046D01*
X198857200Y-63619046D02*
X198904819Y-63666665D01*
X198904819Y-63666665D02*
X198857200Y-63714284D01*
X198857200Y-63714284D02*
X198809580Y-63666665D01*
X198809580Y-63666665D02*
X198904819Y-63666665D01*
X198000057Y-63238094D02*
X197952438Y-63190475D01*
X197952438Y-63190475D02*
X197904819Y-63095237D01*
X197904819Y-63095237D02*
X197904819Y-62857142D01*
X197904819Y-62857142D02*
X197952438Y-62761904D01*
X197952438Y-62761904D02*
X198000057Y-62714285D01*
X198000057Y-62714285D02*
X198095295Y-62666666D01*
X198095295Y-62666666D02*
X198190533Y-62666666D01*
X198190533Y-62666666D02*
X198333390Y-62714285D01*
X198333390Y-62714285D02*
X198904819Y-63285713D01*
X198904819Y-63285713D02*
X198904819Y-62666666D01*
X197904819Y-62047618D02*
X197904819Y-61952380D01*
X197904819Y-61952380D02*
X197952438Y-61857142D01*
X197952438Y-61857142D02*
X198000057Y-61809523D01*
X198000057Y-61809523D02*
X198095295Y-61761904D01*
X198095295Y-61761904D02*
X198285771Y-61714285D01*
X198285771Y-61714285D02*
X198523866Y-61714285D01*
X198523866Y-61714285D02*
X198714342Y-61761904D01*
X198714342Y-61761904D02*
X198809580Y-61809523D01*
X198809580Y-61809523D02*
X198857200Y-61857142D01*
X198857200Y-61857142D02*
X198904819Y-61952380D01*
X198904819Y-61952380D02*
X198904819Y-62047618D01*
X198904819Y-62047618D02*
X198857200Y-62142856D01*
X198857200Y-62142856D02*
X198809580Y-62190475D01*
X198809580Y-62190475D02*
X198714342Y-62238094D01*
X198714342Y-62238094D02*
X198523866Y-62285713D01*
X198523866Y-62285713D02*
X198285771Y-62285713D01*
X198285771Y-62285713D02*
X198095295Y-62238094D01*
X198095295Y-62238094D02*
X198000057Y-62190475D01*
X198000057Y-62190475D02*
X197952438Y-62142856D01*
X197952438Y-62142856D02*
X197904819Y-62047618D01*
X197904819Y-61095237D02*
X197904819Y-60999999D01*
X197904819Y-60999999D02*
X197952438Y-60904761D01*
X197952438Y-60904761D02*
X198000057Y-60857142D01*
X198000057Y-60857142D02*
X198095295Y-60809523D01*
X198095295Y-60809523D02*
X198285771Y-60761904D01*
X198285771Y-60761904D02*
X198523866Y-60761904D01*
X198523866Y-60761904D02*
X198714342Y-60809523D01*
X198714342Y-60809523D02*
X198809580Y-60857142D01*
X198809580Y-60857142D02*
X198857200Y-60904761D01*
X198857200Y-60904761D02*
X198904819Y-60999999D01*
X198904819Y-60999999D02*
X198904819Y-61095237D01*
X198904819Y-61095237D02*
X198857200Y-61190475D01*
X198857200Y-61190475D02*
X198809580Y-61238094D01*
X198809580Y-61238094D02*
X198714342Y-61285713D01*
X198714342Y-61285713D02*
X198523866Y-61333332D01*
X198523866Y-61333332D02*
X198285771Y-61333332D01*
X198285771Y-61333332D02*
X198095295Y-61285713D01*
X198095295Y-61285713D02*
X198000057Y-61238094D01*
X198000057Y-61238094D02*
X197952438Y-61190475D01*
X197952438Y-61190475D02*
X197904819Y-61095237D01*
X197904819Y-60142856D02*
X197904819Y-60047618D01*
X197904819Y-60047618D02*
X197952438Y-59952380D01*
X197952438Y-59952380D02*
X198000057Y-59904761D01*
X198000057Y-59904761D02*
X198095295Y-59857142D01*
X198095295Y-59857142D02*
X198285771Y-59809523D01*
X198285771Y-59809523D02*
X198523866Y-59809523D01*
X198523866Y-59809523D02*
X198714342Y-59857142D01*
X198714342Y-59857142D02*
X198809580Y-59904761D01*
X198809580Y-59904761D02*
X198857200Y-59952380D01*
X198857200Y-59952380D02*
X198904819Y-60047618D01*
X198904819Y-60047618D02*
X198904819Y-60142856D01*
X198904819Y-60142856D02*
X198857200Y-60238094D01*
X198857200Y-60238094D02*
X198809580Y-60285713D01*
X198809580Y-60285713D02*
X198714342Y-60333332D01*
X198714342Y-60333332D02*
X198523866Y-60380951D01*
X198523866Y-60380951D02*
X198285771Y-60380951D01*
X198285771Y-60380951D02*
X198095295Y-60333332D01*
X198095295Y-60333332D02*
X198000057Y-60285713D01*
X198000057Y-60285713D02*
X197952438Y-60238094D01*
X197952438Y-60238094D02*
X197904819Y-60142856D01*
X198904819Y-58619046D02*
X198238152Y-58619046D01*
X198333390Y-58619046D02*
X198285771Y-58571427D01*
X198285771Y-58571427D02*
X198238152Y-58476189D01*
X198238152Y-58476189D02*
X198238152Y-58333332D01*
X198238152Y-58333332D02*
X198285771Y-58238094D01*
X198285771Y-58238094D02*
X198381009Y-58190475D01*
X198381009Y-58190475D02*
X198904819Y-58190475D01*
X198381009Y-58190475D02*
X198285771Y-58142856D01*
X198285771Y-58142856D02*
X198238152Y-58047618D01*
X198238152Y-58047618D02*
X198238152Y-57904761D01*
X198238152Y-57904761D02*
X198285771Y-57809522D01*
X198285771Y-57809522D02*
X198381009Y-57761903D01*
X198381009Y-57761903D02*
X198904819Y-57761903D01*
X198904819Y-57285713D02*
X198238152Y-57285713D01*
X198333390Y-57285713D02*
X198285771Y-57238094D01*
X198285771Y-57238094D02*
X198238152Y-57142856D01*
X198238152Y-57142856D02*
X198238152Y-56999999D01*
X198238152Y-56999999D02*
X198285771Y-56904761D01*
X198285771Y-56904761D02*
X198381009Y-56857142D01*
X198381009Y-56857142D02*
X198904819Y-56857142D01*
X198381009Y-56857142D02*
X198285771Y-56809523D01*
X198285771Y-56809523D02*
X198238152Y-56714285D01*
X198238152Y-56714285D02*
X198238152Y-56571428D01*
X198238152Y-56571428D02*
X198285771Y-56476189D01*
X198285771Y-56476189D02*
X198381009Y-56428570D01*
X198381009Y-56428570D02*
X198904819Y-56428570D01*
D10*
X157150000Y-105100000D02*
X200186420Y-105100000D01*
X200186420Y-16900000D02*
X157150000Y-16900000D01*
X199600000Y-105100000D02*
X199600000Y-16900000D01*
X199600000Y-105100000D02*
X199600000Y-16900000D01*
X199600000Y-105100000D02*
X199013579Y-103973496D01*
X199600000Y-105100000D02*
X200186421Y-103973496D01*
X199600000Y-16900000D02*
X200186421Y-18026504D01*
X199600000Y-16900000D02*
X199013579Y-18026504D01*
D11*
X33788152Y-86717856D02*
X34454819Y-86717856D01*
X33407200Y-86955951D02*
X34121485Y-87194046D01*
X34121485Y-87194046D02*
X34121485Y-86574999D01*
X33454819Y-85717856D02*
X33454819Y-86194046D01*
X33454819Y-86194046D02*
X33931009Y-86241665D01*
X33931009Y-86241665D02*
X33883390Y-86194046D01*
X33883390Y-86194046D02*
X33835771Y-86098808D01*
X33835771Y-86098808D02*
X33835771Y-85860713D01*
X33835771Y-85860713D02*
X33883390Y-85765475D01*
X33883390Y-85765475D02*
X33931009Y-85717856D01*
X33931009Y-85717856D02*
X34026247Y-85670237D01*
X34026247Y-85670237D02*
X34264342Y-85670237D01*
X34264342Y-85670237D02*
X34359580Y-85717856D01*
X34359580Y-85717856D02*
X34407200Y-85765475D01*
X34407200Y-85765475D02*
X34454819Y-85860713D01*
X34454819Y-85860713D02*
X34454819Y-86098808D01*
X34454819Y-86098808D02*
X34407200Y-86194046D01*
X34407200Y-86194046D02*
X34359580Y-86241665D01*
X34359580Y-85241665D02*
X34407200Y-85194046D01*
X34407200Y-85194046D02*
X34454819Y-85241665D01*
X34454819Y-85241665D02*
X34407200Y-85289284D01*
X34407200Y-85289284D02*
X34359580Y-85241665D01*
X34359580Y-85241665D02*
X34454819Y-85241665D01*
X33454819Y-84574999D02*
X33454819Y-84479761D01*
X33454819Y-84479761D02*
X33502438Y-84384523D01*
X33502438Y-84384523D02*
X33550057Y-84336904D01*
X33550057Y-84336904D02*
X33645295Y-84289285D01*
X33645295Y-84289285D02*
X33835771Y-84241666D01*
X33835771Y-84241666D02*
X34073866Y-84241666D01*
X34073866Y-84241666D02*
X34264342Y-84289285D01*
X34264342Y-84289285D02*
X34359580Y-84336904D01*
X34359580Y-84336904D02*
X34407200Y-84384523D01*
X34407200Y-84384523D02*
X34454819Y-84479761D01*
X34454819Y-84479761D02*
X34454819Y-84574999D01*
X34454819Y-84574999D02*
X34407200Y-84670237D01*
X34407200Y-84670237D02*
X34359580Y-84717856D01*
X34359580Y-84717856D02*
X34264342Y-84765475D01*
X34264342Y-84765475D02*
X34073866Y-84813094D01*
X34073866Y-84813094D02*
X33835771Y-84813094D01*
X33835771Y-84813094D02*
X33645295Y-84765475D01*
X33645295Y-84765475D02*
X33550057Y-84717856D01*
X33550057Y-84717856D02*
X33502438Y-84670237D01*
X33502438Y-84670237D02*
X33454819Y-84574999D01*
X33454819Y-83336904D02*
X33454819Y-83813094D01*
X33454819Y-83813094D02*
X33931009Y-83860713D01*
X33931009Y-83860713D02*
X33883390Y-83813094D01*
X33883390Y-83813094D02*
X33835771Y-83717856D01*
X33835771Y-83717856D02*
X33835771Y-83479761D01*
X33835771Y-83479761D02*
X33883390Y-83384523D01*
X33883390Y-83384523D02*
X33931009Y-83336904D01*
X33931009Y-83336904D02*
X34026247Y-83289285D01*
X34026247Y-83289285D02*
X34264342Y-83289285D01*
X34264342Y-83289285D02*
X34359580Y-83336904D01*
X34359580Y-83336904D02*
X34407200Y-83384523D01*
X34407200Y-83384523D02*
X34454819Y-83479761D01*
X34454819Y-83479761D02*
X34454819Y-83717856D01*
X34454819Y-83717856D02*
X34407200Y-83813094D01*
X34407200Y-83813094D02*
X34359580Y-83860713D01*
X33454819Y-82670237D02*
X33454819Y-82574999D01*
X33454819Y-82574999D02*
X33502438Y-82479761D01*
X33502438Y-82479761D02*
X33550057Y-82432142D01*
X33550057Y-82432142D02*
X33645295Y-82384523D01*
X33645295Y-82384523D02*
X33835771Y-82336904D01*
X33835771Y-82336904D02*
X34073866Y-82336904D01*
X34073866Y-82336904D02*
X34264342Y-82384523D01*
X34264342Y-82384523D02*
X34359580Y-82432142D01*
X34359580Y-82432142D02*
X34407200Y-82479761D01*
X34407200Y-82479761D02*
X34454819Y-82574999D01*
X34454819Y-82574999D02*
X34454819Y-82670237D01*
X34454819Y-82670237D02*
X34407200Y-82765475D01*
X34407200Y-82765475D02*
X34359580Y-82813094D01*
X34359580Y-82813094D02*
X34264342Y-82860713D01*
X34264342Y-82860713D02*
X34073866Y-82908332D01*
X34073866Y-82908332D02*
X33835771Y-82908332D01*
X33835771Y-82908332D02*
X33645295Y-82860713D01*
X33645295Y-82860713D02*
X33550057Y-82813094D01*
X33550057Y-82813094D02*
X33502438Y-82765475D01*
X33502438Y-82765475D02*
X33454819Y-82670237D01*
X33454819Y-81717856D02*
X33454819Y-81622618D01*
X33454819Y-81622618D02*
X33502438Y-81527380D01*
X33502438Y-81527380D02*
X33550057Y-81479761D01*
X33550057Y-81479761D02*
X33645295Y-81432142D01*
X33645295Y-81432142D02*
X33835771Y-81384523D01*
X33835771Y-81384523D02*
X34073866Y-81384523D01*
X34073866Y-81384523D02*
X34264342Y-81432142D01*
X34264342Y-81432142D02*
X34359580Y-81479761D01*
X34359580Y-81479761D02*
X34407200Y-81527380D01*
X34407200Y-81527380D02*
X34454819Y-81622618D01*
X34454819Y-81622618D02*
X34454819Y-81717856D01*
X34454819Y-81717856D02*
X34407200Y-81813094D01*
X34407200Y-81813094D02*
X34359580Y-81860713D01*
X34359580Y-81860713D02*
X34264342Y-81908332D01*
X34264342Y-81908332D02*
X34073866Y-81955951D01*
X34073866Y-81955951D02*
X33835771Y-81955951D01*
X33835771Y-81955951D02*
X33645295Y-81908332D01*
X33645295Y-81908332D02*
X33550057Y-81860713D01*
X33550057Y-81860713D02*
X33502438Y-81813094D01*
X33502438Y-81813094D02*
X33454819Y-81717856D01*
X34454819Y-80194046D02*
X33788152Y-80194046D01*
X33883390Y-80194046D02*
X33835771Y-80146427D01*
X33835771Y-80146427D02*
X33788152Y-80051189D01*
X33788152Y-80051189D02*
X33788152Y-79908332D01*
X33788152Y-79908332D02*
X33835771Y-79813094D01*
X33835771Y-79813094D02*
X33931009Y-79765475D01*
X33931009Y-79765475D02*
X34454819Y-79765475D01*
X33931009Y-79765475D02*
X33835771Y-79717856D01*
X33835771Y-79717856D02*
X33788152Y-79622618D01*
X33788152Y-79622618D02*
X33788152Y-79479761D01*
X33788152Y-79479761D02*
X33835771Y-79384522D01*
X33835771Y-79384522D02*
X33931009Y-79336903D01*
X33931009Y-79336903D02*
X34454819Y-79336903D01*
X34454819Y-78860713D02*
X33788152Y-78860713D01*
X33883390Y-78860713D02*
X33835771Y-78813094D01*
X33835771Y-78813094D02*
X33788152Y-78717856D01*
X33788152Y-78717856D02*
X33788152Y-78574999D01*
X33788152Y-78574999D02*
X33835771Y-78479761D01*
X33835771Y-78479761D02*
X33931009Y-78432142D01*
X33931009Y-78432142D02*
X34454819Y-78432142D01*
X33931009Y-78432142D02*
X33835771Y-78384523D01*
X33835771Y-78384523D02*
X33788152Y-78289285D01*
X33788152Y-78289285D02*
X33788152Y-78146428D01*
X33788152Y-78146428D02*
X33835771Y-78051189D01*
X33835771Y-78051189D02*
X33931009Y-78003570D01*
X33931009Y-78003570D02*
X34454819Y-78003570D01*
D10*
X97850000Y-60050000D02*
X34563580Y-60050000D01*
X34563580Y-105100000D02*
X97800000Y-105100000D01*
X35150000Y-60050000D02*
X35150000Y-105100000D01*
X35150000Y-60050000D02*
X35150000Y-105100000D01*
X35150000Y-60050000D02*
X35736421Y-61176504D01*
X35150000Y-60050000D02*
X34563579Y-61176504D01*
X35150000Y-105100000D02*
X34563579Y-103973496D01*
X35150000Y-105100000D02*
X35736421Y-103973496D01*
M02*
