%TF.GenerationSoftware,KiCad,Pcbnew,8.0.4*%
%TF.CreationDate,2024-09-07T15:05:54-07:00*%
%TF.ProjectId,PDB,5044422e-6b69-4636-9164-5f7063625858,rev?*%
%TF.SameCoordinates,Original*%
%TF.FileFunction,Soldermask,Top*%
%TF.FilePolarity,Negative*%
%FSLAX46Y46*%
G04 Gerber Fmt 4.6, Leading zero omitted, Abs format (unit mm)*
G04 Created by KiCad (PCBNEW 8.0.4) date 2024-09-07 15:05:54*
%MOMM*%
%LPD*%
G01*
G04 APERTURE LIST*
G04 Aperture macros list*
%AMRoundRect*
0 Rectangle with rounded corners*
0 $1 Rounding radius*
0 $2 $3 $4 $5 $6 $7 $8 $9 X,Y pos of 4 corners*
0 Add a 4 corners polygon primitive as box body*
4,1,4,$2,$3,$4,$5,$6,$7,$8,$9,$2,$3,0*
0 Add four circle primitives for the rounded corners*
1,1,$1+$1,$2,$3*
1,1,$1+$1,$4,$5*
1,1,$1+$1,$6,$7*
1,1,$1+$1,$8,$9*
0 Add four rect primitives between the rounded corners*
20,1,$1+$1,$2,$3,$4,$5,0*
20,1,$1+$1,$4,$5,$6,$7,0*
20,1,$1+$1,$6,$7,$8,$9,0*
20,1,$1+$1,$8,$9,$2,$3,0*%
G04 Aperture macros list end*
%ADD10RoundRect,0.200000X0.275000X-0.200000X0.275000X0.200000X-0.275000X0.200000X-0.275000X-0.200000X0*%
%ADD11R,1.600000X1.600000*%
%ADD12C,1.600000*%
%ADD13R,1.700000X1.700000*%
%ADD14O,1.700000X1.700000*%
%ADD15R,1.524000X1.524000*%
%ADD16C,1.524000*%
%ADD17C,2.800000*%
%ADD18RoundRect,0.250000X-0.600000X-0.725000X0.600000X-0.725000X0.600000X0.725000X-0.600000X0.725000X0*%
%ADD19O,1.700000X1.950000*%
%ADD20RoundRect,0.225000X0.225000X0.250000X-0.225000X0.250000X-0.225000X-0.250000X0.225000X-0.250000X0*%
%ADD21C,1.800000*%
%ADD22C,1.400000*%
%ADD23RoundRect,0.200000X-0.275000X0.200000X-0.275000X-0.200000X0.275000X-0.200000X0.275000X0.200000X0*%
%ADD24RoundRect,0.225000X0.250000X-0.225000X0.250000X0.225000X-0.250000X0.225000X-0.250000X-0.225000X0*%
%ADD25C,3.000000*%
%ADD26RoundRect,0.135000X-0.135000X-0.185000X0.135000X-0.185000X0.135000X0.185000X-0.135000X0.185000X0*%
%ADD27R,2.921000X1.651000*%
%ADD28O,2.401000X0.574000*%
%ADD29RoundRect,0.200000X-0.200000X-0.275000X0.200000X-0.275000X0.200000X0.275000X-0.200000X0.275000X0*%
%ADD30C,3.240000*%
%ADD31R,0.700000X1.250000*%
%ADD32RoundRect,0.225000X-0.225000X-0.250000X0.225000X-0.250000X0.225000X0.250000X-0.225000X0.250000X0*%
%ADD33C,2.000000*%
%ADD34C,4.495800*%
%ADD35C,4.000000*%
%ADD36O,5.500000X2.200000*%
%ADD37RoundRect,0.150000X-0.825000X-0.150000X0.825000X-0.150000X0.825000X0.150000X-0.825000X0.150000X0*%
%ADD38RoundRect,1.500000X1.500000X1.500000X-1.500000X1.500000X-1.500000X-1.500000X1.500000X-1.500000X0*%
%ADD39C,6.000000*%
%ADD40RoundRect,0.225000X-0.250000X0.225000X-0.250000X-0.225000X0.250000X-0.225000X0.250000X0.225000X0*%
G04 APERTURE END LIST*
D10*
%TO.C,R11*%
X134645400Y-87007200D03*
X134645400Y-85357200D03*
%TD*%
D11*
%TO.C,C2*%
X100695688Y-53898800D03*
D12*
X102695688Y-53898800D03*
%TD*%
D13*
%TO.C,J1*%
X147955000Y-46883400D03*
D14*
X147955000Y-49423400D03*
%TD*%
D15*
%TO.C,USB2*%
X156845000Y-50998000D03*
D16*
X156845000Y-48498000D03*
X156845000Y-46498000D03*
X156845000Y-43998000D03*
D17*
X159555000Y-40948000D03*
X159555000Y-54048000D03*
%TD*%
D10*
%TO.C,R7*%
X118872000Y-87312000D03*
X118872000Y-85662000D03*
%TD*%
%TO.C,R6*%
X93599000Y-77723000D03*
X93599000Y-76073000D03*
%TD*%
D18*
%TO.C,Jst1*%
X63093600Y-82270600D03*
D19*
X65593600Y-82270600D03*
X68093600Y-82270600D03*
X70593600Y-82270600D03*
%TD*%
D16*
%TO.C,D3*%
X124460000Y-101346000D03*
X127000000Y-101346000D03*
X129540000Y-101346000D03*
X132080000Y-101346000D03*
X134620000Y-101346000D03*
X137160000Y-101346000D03*
X137160000Y-91186000D03*
X134620000Y-91186000D03*
X132080000Y-91186000D03*
X129540000Y-91186000D03*
X127000000Y-91186000D03*
X124460000Y-91186000D03*
%TD*%
D20*
%TO.C,C3*%
X144335800Y-70891400D03*
X142785800Y-70891400D03*
%TD*%
D21*
%TO.C,B1*%
X134172000Y-48614000D03*
X141672000Y-48614000D03*
%TD*%
D22*
%TO.C,Y1*%
X144613800Y-85623400D03*
X139713800Y-85623400D03*
%TD*%
D23*
%TO.C,R12*%
X125984000Y-85662000D03*
X125984000Y-87312000D03*
%TD*%
D10*
%TO.C,R2*%
X93599000Y-93218000D03*
X93599000Y-91568000D03*
%TD*%
D24*
%TO.C,C5*%
X142544800Y-78219600D03*
X142544800Y-76669600D03*
%TD*%
D15*
%TO.C,USB3*%
X156845000Y-70998000D03*
D16*
X156845000Y-68498000D03*
X156845000Y-66498000D03*
X156845000Y-63998000D03*
D17*
X159555000Y-60948000D03*
X159555000Y-74048000D03*
%TD*%
D25*
%TO.C,A2*%
X72000000Y-33113400D03*
X64000000Y-33113400D03*
%TD*%
D23*
%TO.C,R5*%
X93599000Y-79185000D03*
X93599000Y-80835000D03*
%TD*%
%TO.C,R3*%
X93599000Y-83757000D03*
X93599000Y-85407000D03*
%TD*%
D26*
%TO.C,R21*%
X71290000Y-72600000D03*
X72310000Y-72600000D03*
%TD*%
D11*
%TO.C,Pro1*%
X111760000Y-101092000D03*
D12*
X111760000Y-98552000D03*
X111760000Y-96012000D03*
X111760000Y-93472000D03*
X111760000Y-90932000D03*
X111760000Y-88392000D03*
X111760000Y-85852000D03*
X111760000Y-83312000D03*
X111760000Y-80772000D03*
X111760000Y-78232000D03*
X111760000Y-75692000D03*
X111760000Y-73152000D03*
X96520000Y-73152000D03*
X96520000Y-75692000D03*
X96520000Y-78232000D03*
X96520000Y-80772000D03*
X96520000Y-83312000D03*
X96520000Y-85852000D03*
X96520000Y-88392000D03*
X96520000Y-90932000D03*
X96520000Y-93472000D03*
X96520000Y-96012000D03*
X96520000Y-98552000D03*
X96520000Y-101092000D03*
%TD*%
D27*
%TO.C,F1*%
X82092800Y-100507800D03*
X88315800Y-100507800D03*
X82092800Y-87045800D03*
X88315800Y-87045800D03*
%TD*%
D10*
%TO.C,R10*%
X133019800Y-87007200D03*
X133019800Y-85357200D03*
%TD*%
D23*
%TO.C,R14*%
X131394200Y-85357200D03*
X131394200Y-87007200D03*
%TD*%
D25*
%TO.C,A4*%
X72000000Y-53113400D03*
X64000000Y-53113400D03*
%TD*%
D15*
%TO.C,USB1*%
X156845000Y-30998000D03*
D16*
X156845000Y-28498000D03*
X156845000Y-26498000D03*
X156845000Y-23998000D03*
D17*
X159555000Y-20948000D03*
X159555000Y-34048000D03*
%TD*%
D28*
%TO.C,U3*%
X128523800Y-72491600D03*
X128523800Y-73761600D03*
X128523800Y-75031600D03*
X128523800Y-76301600D03*
X128523800Y-77571600D03*
X128523800Y-78841600D03*
X128523800Y-80111600D03*
X128523800Y-81381600D03*
X138023800Y-81381600D03*
X138023800Y-80111600D03*
X138023800Y-78841600D03*
X138023800Y-77571600D03*
X138023800Y-76301600D03*
X138023800Y-75031600D03*
X138023800Y-73761600D03*
X138023800Y-72491600D03*
%TD*%
D29*
%TO.C,R20*%
X132779000Y-70612000D03*
X134429000Y-70612000D03*
%TD*%
D11*
%TO.C,C1*%
X100797288Y-46228000D03*
D12*
X102797288Y-46228000D03*
%TD*%
D29*
%TO.C,R17*%
X153048200Y-88493600D03*
X154698200Y-88493600D03*
%TD*%
D24*
%TO.C,C4*%
X142547800Y-75070000D03*
X142547800Y-73520000D03*
%TD*%
D30*
%TO.C,REF\u002A\u002A*%
X102108000Y-65125600D03*
%TD*%
D10*
%TO.C,R1*%
X93599000Y-96330000D03*
X93599000Y-94680000D03*
%TD*%
D31*
%TO.C,Q1*%
X118432500Y-76151000D03*
X120332500Y-76151000D03*
X119382500Y-74151000D03*
%TD*%
D25*
%TO.C,A5*%
X72000000Y-63113400D03*
X64000000Y-63113400D03*
%TD*%
D29*
%TO.C,R19*%
X129629400Y-70612000D03*
X131279400Y-70612000D03*
%TD*%
D32*
%TO.C,C7*%
X135953200Y-70612000D03*
X137503200Y-70612000D03*
%TD*%
D16*
%TO.C,SW2*%
X160415600Y-100863400D03*
X162915600Y-100863400D03*
X165415600Y-100863400D03*
%TD*%
D33*
%TO.C,SW3*%
X68650000Y-76100000D03*
X62150000Y-76100000D03*
X68650000Y-71600000D03*
X62150000Y-71600000D03*
%TD*%
D10*
%TO.C,R4*%
X93599000Y-88582000D03*
X93599000Y-86932000D03*
%TD*%
D25*
%TO.C,A3*%
X72000000Y-43113400D03*
X64000000Y-43113400D03*
%TD*%
D34*
%TO.C,Converter1*%
X145211800Y-23672800D03*
X91363800Y-23672800D03*
D35*
X127685800Y-55422800D03*
X121589800Y-55422800D03*
X115493800Y-55422800D03*
X109143800Y-55422800D03*
%TD*%
D10*
%TO.C,R15*%
X122097800Y-75983600D03*
X122097800Y-74333600D03*
%TD*%
%TO.C,R9*%
X122174000Y-87312000D03*
X122174000Y-85662000D03*
%TD*%
D25*
%TO.C,A1*%
X72000000Y-23113400D03*
X64000000Y-23113400D03*
%TD*%
D23*
%TO.C,R13*%
X127635000Y-85662000D03*
X127635000Y-87312000D03*
%TD*%
D36*
%TO.C,Sw1*%
X91617800Y-53340000D03*
X91617800Y-48340000D03*
%TD*%
D37*
%TO.C,U2*%
X144808400Y-72491600D03*
X144808400Y-73761600D03*
X144808400Y-75031600D03*
X144808400Y-76301600D03*
X144808400Y-77571600D03*
X144808400Y-78841600D03*
X144808400Y-80111600D03*
X144808400Y-81381600D03*
X149758400Y-81381600D03*
X149758400Y-80111600D03*
X149758400Y-78841600D03*
X149758400Y-77571600D03*
X149758400Y-76301600D03*
X149758400Y-75031600D03*
X149758400Y-73761600D03*
X149758400Y-72491600D03*
%TD*%
D10*
%TO.C,R16*%
X123748800Y-75983600D03*
X123748800Y-74333600D03*
%TD*%
D38*
%TO.C,Batt1*%
X70866000Y-99568000D03*
D39*
X63666000Y-99568000D03*
%TD*%
D40*
%TO.C,C6*%
X142544800Y-79819200D03*
X142544800Y-81369200D03*
%TD*%
D30*
%TO.C,REF\u002A\u002A*%
X81635600Y-36677600D03*
%TD*%
%TO.C,REF\u002A\u002A*%
X152883400Y-102006400D03*
%TD*%
%TO.C,REF\u002A\u002A*%
X146456400Y-59944000D03*
%TD*%
D13*
%TO.C,J2*%
X70713600Y-90627200D03*
D14*
X68173600Y-90627200D03*
X65633600Y-90627200D03*
X63093600Y-90627200D03*
%TD*%
D29*
%TO.C,R18*%
X153022800Y-86487000D03*
X154672800Y-86487000D03*
%TD*%
D13*
%TO.C,J3*%
X149800000Y-92800000D03*
D14*
X152340000Y-92800000D03*
%TD*%
D15*
%TO.C,DATA1*%
X156845000Y-90998000D03*
D16*
X156845000Y-88498000D03*
X156845000Y-86498000D03*
X156845000Y-83998000D03*
D17*
X159555000Y-80948000D03*
X159555000Y-94048000D03*
%TD*%
D10*
%TO.C,R8*%
X120523000Y-87312000D03*
X120523000Y-85662000D03*
%TD*%
M02*
