M48
; DRILL file {KiCad 7.0.7} date Fri Feb 23 22:21:47 2024
; FORMAT={-:-/ absolute / inch / decimal}
; #@! TF.CreationDate,2024-02-23T22:21:47-08:00
; #@! TF.GenerationSoftware,Kicad,Pcbnew,7.0.7
; #@! TF.FileFunction,Plated,1,2,PTH
FMAT,2
INCH
; #@! TA.AperFunction,Plated,PTH,ViaDrill
T1C0.0157
; #@! TA.AperFunction,Plated,PTH,ComponentDrill
T2C0.0276
; #@! TA.AperFunction,Plated,PTH,ComponentDrill
T3C0.0300
; #@! TA.AperFunction,Plated,PTH,ComponentDrill
T4C0.0315
; #@! TA.AperFunction,Plated,PTH,ComponentDrill
T5C0.0360
; #@! TA.AperFunction,Plated,PTH,ComponentDrill
T6C0.0362
; #@! TA.AperFunction,Plated,PTH,ComponentDrill
T7C0.0374
; #@! TA.AperFunction,Plated,PTH,ComponentDrill
T8C0.0394
; #@! TA.AperFunction,Plated,PTH,ComponentDrill
T9C0.0433
; #@! TA.AperFunction,Plated,PTH,ComponentDrill
T10C0.0472
; #@! TA.AperFunction,Plated,PTH,ComponentDrill
T11C0.0787
; #@! TA.AperFunction,Plated,PTH,ComponentDrill
T12C0.0827
; #@! TA.AperFunction,Plated,PTH,ComponentDrill
T13C0.1181
; #@! TA.AperFunction,Plated,PTH,ComponentDrill
T14C0.1772
%
G90
G05
T1
X3.575Y-3.605
X3.685Y-2.915
X4.009Y-3.679
X4.269Y-3.952
X4.473Y-3.632
X4.566Y-3.229
X4.659Y-3.085
X4.805Y-3.072
X4.963Y-3.205
X5.025Y-2.765
X5.336Y-2.904
X5.338Y-2.954
X5.3525Y-2.6975
X5.585Y-3.675
X5.622Y-2.724
X5.624Y-3.699
X5.7816Y-2.9042
X5.8231Y-2.903
T2
X5.5005Y-3.371
X5.6935Y-3.371
T3
X4.9Y-3.59
X4.9Y-3.99
X5.0Y-3.59
X5.0Y-3.99
X5.1Y-3.59
X5.1Y-3.99
X5.2Y-3.59
X5.2Y-3.99
X5.3Y-3.59
X5.3Y-3.99
X5.4Y-3.59
X5.4Y-3.99
T4
X3.9644Y-2.122
X3.9684Y-1.82
X4.0431Y-2.122
X4.0471Y-1.82
T5
X6.3156Y-3.971
X6.414Y-3.971
X6.5124Y-3.971
T6
X6.175Y-0.9448
X6.175Y-1.0432
X6.175Y-1.122
X6.175Y-1.2204
X6.175Y-1.7322
X6.175Y-1.8306
X6.175Y-1.9094
X6.175Y-2.0078
X6.175Y-2.5196
X6.175Y-2.618
X6.175Y-2.6968
X6.175Y-2.7952
X6.175Y-3.307
X6.175Y-3.4054
X6.175Y-3.4842
X6.175Y-3.5826
T7
X2.484Y-3.239
X2.5824Y-3.239
X2.6809Y-3.239
X2.7793Y-3.239
T8
X2.484Y-3.568
X2.584Y-3.568
X2.684Y-3.568
X2.784Y-3.568
X5.825Y-1.8458
X5.825Y-1.9458
X5.8976Y-3.6535
X5.9976Y-3.6535
T9
X2.4469Y-2.8189
X2.4469Y-2.9961
X2.7028Y-2.8189
X2.7028Y-2.9961
X3.8Y-2.88
X3.8Y-2.98
X3.8Y-3.08
X3.8Y-3.18
X3.8Y-3.28
X3.8Y-3.38
X3.8Y-3.48
X3.8Y-3.58
X3.8Y-3.68
X3.8Y-3.78
X3.8Y-3.88
X3.8Y-3.98
X4.4Y-2.88
X4.4Y-2.98
X4.4Y-3.08
X4.4Y-3.18
X4.4Y-3.28
X4.4Y-3.38
X4.4Y-3.48
X4.4Y-3.58
X4.4Y-3.68
X4.4Y-3.78
X4.4Y-3.88
X4.4Y-3.98
T10
X5.2824Y-1.9139
X5.5776Y-1.9139
T11
X2.5197Y-0.91
X2.5197Y-1.3037
X2.5197Y-1.6974
X2.5197Y-2.0911
X2.5197Y-2.4848
X2.8346Y-0.91
X2.8346Y-1.3037
X2.8346Y-1.6974
X2.8346Y-2.0911
X2.8346Y-2.4848
T12
X6.2817Y-0.8247
X6.2817Y-1.3405
X6.2817Y-1.6121
X6.2817Y-2.1279
X6.2817Y-2.3995
X6.2817Y-2.9153
X6.2817Y-3.1869
X6.2817Y-3.7027
T13
X4.297Y-2.182
X4.547Y-2.182
X4.787Y-2.182
X5.027Y-2.182
T14
X2.5065Y-3.92
X2.79Y-3.92
T10
G00X3.542Y-1.9031
M15
G01X3.672Y-1.9031
M16
G05
G00X3.542Y-2.1
M15
G01X3.672Y-2.1
M16
G05
T0
M30
