%TF.GenerationSoftware,KiCad,Pcbnew,8.0.4*%
%TF.CreationDate,2024-09-07T15:05:54-07:00*%
%TF.ProjectId,PDB,5044422e-6b69-4636-9164-5f7063625858,rev?*%
%TF.SameCoordinates,Original*%
%TF.FileFunction,Copper,L1,Top*%
%TF.FilePolarity,Positive*%
%FSLAX46Y46*%
G04 Gerber Fmt 4.6, Leading zero omitted, Abs format (unit mm)*
G04 Created by KiCad (PCBNEW 8.0.4) date 2024-09-07 15:05:54*
%MOMM*%
%LPD*%
G01*
G04 APERTURE LIST*
G04 Aperture macros list*
%AMRoundRect*
0 Rectangle with rounded corners*
0 $1 Rounding radius*
0 $2 $3 $4 $5 $6 $7 $8 $9 X,Y pos of 4 corners*
0 Add a 4 corners polygon primitive as box body*
4,1,4,$2,$3,$4,$5,$6,$7,$8,$9,$2,$3,0*
0 Add four circle primitives for the rounded corners*
1,1,$1+$1,$2,$3*
1,1,$1+$1,$4,$5*
1,1,$1+$1,$6,$7*
1,1,$1+$1,$8,$9*
0 Add four rect primitives between the rounded corners*
20,1,$1+$1,$2,$3,$4,$5,0*
20,1,$1+$1,$4,$5,$6,$7,0*
20,1,$1+$1,$6,$7,$8,$9,0*
20,1,$1+$1,$8,$9,$2,$3,0*%
G04 Aperture macros list end*
%TA.AperFunction,SMDPad,CuDef*%
%ADD10RoundRect,0.200000X0.275000X-0.200000X0.275000X0.200000X-0.275000X0.200000X-0.275000X-0.200000X0*%
%TD*%
%TA.AperFunction,ComponentPad*%
%ADD11R,1.600000X1.600000*%
%TD*%
%TA.AperFunction,ComponentPad*%
%ADD12C,1.600000*%
%TD*%
%TA.AperFunction,ComponentPad*%
%ADD13R,1.700000X1.700000*%
%TD*%
%TA.AperFunction,ComponentPad*%
%ADD14O,1.700000X1.700000*%
%TD*%
%TA.AperFunction,ComponentPad*%
%ADD15R,1.524000X1.524000*%
%TD*%
%TA.AperFunction,ComponentPad*%
%ADD16C,1.524000*%
%TD*%
%TA.AperFunction,ComponentPad*%
%ADD17C,2.800000*%
%TD*%
%TA.AperFunction,ComponentPad*%
%ADD18RoundRect,0.250000X-0.600000X-0.725000X0.600000X-0.725000X0.600000X0.725000X-0.600000X0.725000X0*%
%TD*%
%TA.AperFunction,ComponentPad*%
%ADD19O,1.700000X1.950000*%
%TD*%
%TA.AperFunction,SMDPad,CuDef*%
%ADD20RoundRect,0.225000X0.225000X0.250000X-0.225000X0.250000X-0.225000X-0.250000X0.225000X-0.250000X0*%
%TD*%
%TA.AperFunction,ComponentPad*%
%ADD21C,1.800000*%
%TD*%
%TA.AperFunction,ComponentPad*%
%ADD22C,1.400000*%
%TD*%
%TA.AperFunction,SMDPad,CuDef*%
%ADD23RoundRect,0.200000X-0.275000X0.200000X-0.275000X-0.200000X0.275000X-0.200000X0.275000X0.200000X0*%
%TD*%
%TA.AperFunction,SMDPad,CuDef*%
%ADD24RoundRect,0.225000X0.250000X-0.225000X0.250000X0.225000X-0.250000X0.225000X-0.250000X-0.225000X0*%
%TD*%
%TA.AperFunction,ComponentPad*%
%ADD25C,3.000000*%
%TD*%
%TA.AperFunction,SMDPad,CuDef*%
%ADD26RoundRect,0.135000X-0.135000X-0.185000X0.135000X-0.185000X0.135000X0.185000X-0.135000X0.185000X0*%
%TD*%
%TA.AperFunction,SMDPad,CuDef*%
%ADD27R,2.921000X1.651000*%
%TD*%
%TA.AperFunction,SMDPad,CuDef*%
%ADD28O,2.401000X0.574000*%
%TD*%
%TA.AperFunction,SMDPad,CuDef*%
%ADD29RoundRect,0.200000X-0.200000X-0.275000X0.200000X-0.275000X0.200000X0.275000X-0.200000X0.275000X0*%
%TD*%
%TA.AperFunction,SMDPad,CuDef*%
%ADD30R,0.700000X1.250000*%
%TD*%
%TA.AperFunction,SMDPad,CuDef*%
%ADD31RoundRect,0.225000X-0.225000X-0.250000X0.225000X-0.250000X0.225000X0.250000X-0.225000X0.250000X0*%
%TD*%
%TA.AperFunction,ComponentPad*%
%ADD32C,2.000000*%
%TD*%
%TA.AperFunction,ComponentPad*%
%ADD33C,4.000000*%
%TD*%
%TA.AperFunction,ComponentPad*%
%ADD34O,5.500000X2.200000*%
%TD*%
%TA.AperFunction,SMDPad,CuDef*%
%ADD35RoundRect,0.150000X-0.825000X-0.150000X0.825000X-0.150000X0.825000X0.150000X-0.825000X0.150000X0*%
%TD*%
%TA.AperFunction,ComponentPad*%
%ADD36RoundRect,1.500000X1.500000X1.500000X-1.500000X1.500000X-1.500000X-1.500000X1.500000X-1.500000X0*%
%TD*%
%TA.AperFunction,ComponentPad*%
%ADD37C,6.000000*%
%TD*%
%TA.AperFunction,SMDPad,CuDef*%
%ADD38RoundRect,0.225000X-0.250000X0.225000X-0.250000X-0.225000X0.250000X-0.225000X0.250000X0.225000X0*%
%TD*%
%TA.AperFunction,ViaPad*%
%ADD39C,0.800000*%
%TD*%
%TA.AperFunction,Conductor*%
%ADD40C,0.250000*%
%TD*%
%TA.AperFunction,Conductor*%
%ADD41C,0.500000*%
%TD*%
%TA.AperFunction,Conductor*%
%ADD42C,1.000000*%
%TD*%
%TA.AperFunction,Conductor*%
%ADD43C,0.200000*%
%TD*%
%TA.AperFunction,Conductor*%
%ADD44C,3.000000*%
%TD*%
G04 APERTURE END LIST*
D10*
%TO.P,R11,1*%
%TO.N,Net-(D3-G)*%
X134645400Y-87007200D03*
%TO.P,R11,2*%
%TO.N,/G*%
X134645400Y-85357200D03*
%TD*%
D11*
%TO.P,C2,1*%
%TO.N,/5v*%
X100695688Y-53898800D03*
D12*
%TO.P,C2,2*%
%TO.N,GND*%
X102695688Y-53898800D03*
%TD*%
D13*
%TO.P,J1,1,Pin_1*%
%TO.N,GND*%
X147955000Y-46883400D03*
D14*
%TO.P,J1,2,Pin_2*%
%TO.N,/base*%
X147955000Y-49423400D03*
%TD*%
D15*
%TO.P,USB2,1,VCC*%
%TO.N,/5v*%
X156845000Y-50998000D03*
D16*
%TO.P,USB2,2,D-*%
%TO.N,unconnected-(USB2-D--Pad2)*%
X156845000Y-48498000D03*
%TO.P,USB2,3,D+*%
%TO.N,unconnected-(USB2-D+-Pad3)*%
X156845000Y-46498000D03*
%TO.P,USB2,4,GND*%
%TO.N,GND*%
X156845000Y-43998000D03*
D17*
%TO.P,USB2,5,Shield*%
X159555000Y-40948000D03*
%TO.P,USB2,6,Shield*%
X159555000Y-54048000D03*
%TD*%
D10*
%TO.P,R7,1*%
%TO.N,Net-(D3-E)*%
X118872000Y-87312000D03*
%TO.P,R7,2*%
%TO.N,/E*%
X118872000Y-85662000D03*
%TD*%
%TO.P,R6,1*%
%TO.N,/Cell1+2+3_s*%
X93599000Y-77723000D03*
%TO.P,R6,2*%
%TO.N,GND*%
X93599000Y-76073000D03*
%TD*%
D18*
%TO.P,Jst1,1,Pin_3*%
%TO.N,/Cell1+2+3*%
X63093600Y-82270600D03*
D19*
%TO.P,Jst1,2,Pin_2*%
%TO.N,/Cell1+2*%
X65593600Y-82270600D03*
%TO.P,Jst1,3,Pin_1*%
%TO.N,/Cell1*%
X68093600Y-82270600D03*
%TO.P,Jst1,4,GND*%
%TO.N,unconnected-(Jst1-GND-Pad4)*%
X70593600Y-82270600D03*
%TD*%
D16*
%TO.P,D3,1,E*%
%TO.N,Net-(D3-E)*%
X124460000Y-101346000D03*
%TO.P,D3,2,D*%
%TO.N,Net-(D3-D)*%
X127000000Y-101346000D03*
%TO.P,D3,3,DP*%
%TO.N,Net-(D3-DP)*%
X129540000Y-101346000D03*
%TO.P,D3,4,C*%
%TO.N,Net-(D3-C)*%
X132080000Y-101346000D03*
%TO.P,D3,5,G*%
%TO.N,Net-(D3-G)*%
X134620000Y-101346000D03*
%TO.P,D3,6,Dig4*%
%TO.N,/Dig4*%
X137160000Y-101346000D03*
%TO.P,D3,7,B*%
%TO.N,Net-(D3-B)*%
X137160000Y-91186000D03*
%TO.P,D3,8,Dig3*%
%TO.N,/Dig3*%
X134620000Y-91186000D03*
%TO.P,D3,9,Dig2*%
%TO.N,/Dig2*%
X132080000Y-91186000D03*
%TO.P,D3,10,F*%
%TO.N,Net-(D3-F)*%
X129540000Y-91186000D03*
%TO.P,D3,11,A*%
%TO.N,Net-(D3-A)*%
X127000000Y-91186000D03*
%TO.P,D3,12,Dig1*%
%TO.N,/Dig1*%
X124460000Y-91186000D03*
%TD*%
D20*
%TO.P,C3,1*%
%TO.N,/5v*%
X144335800Y-70891400D03*
%TO.P,C3,2*%
%TO.N,GND*%
X142785800Y-70891400D03*
%TD*%
D21*
%TO.P,B1,1,input*%
%TO.N,/5v*%
X134172000Y-48614000D03*
%TO.P,B1,2,output*%
%TO.N,/collector*%
X141672000Y-48614000D03*
%TD*%
D22*
%TO.P,Y1,1,1*%
%TO.N,Net-(U2-XI)*%
X144613800Y-85623400D03*
%TO.P,Y1,2,2*%
%TO.N,Net-(U2-XO)*%
X139713800Y-85623400D03*
%TD*%
D23*
%TO.P,R12,1*%
%TO.N,/A*%
X125984000Y-85662000D03*
%TO.P,R12,2*%
%TO.N,Net-(D3-A)*%
X125984000Y-87312000D03*
%TD*%
D10*
%TO.P,R2,1*%
%TO.N,/Cell1_s*%
X93599000Y-93218000D03*
%TO.P,R2,2*%
%TO.N,GND*%
X93599000Y-91568000D03*
%TD*%
D24*
%TO.P,C5,1*%
%TO.N,Net-(U2-XI)*%
X142544800Y-78219600D03*
%TO.P,C5,2*%
%TO.N,GND*%
X142544800Y-76669600D03*
%TD*%
D15*
%TO.P,USB3,1,VCC*%
%TO.N,/5v*%
X156845000Y-70998000D03*
D16*
%TO.P,USB3,2,D-*%
%TO.N,unconnected-(USB3-D--Pad2)*%
X156845000Y-68498000D03*
%TO.P,USB3,3,D+*%
%TO.N,unconnected-(USB3-D+-Pad3)*%
X156845000Y-66498000D03*
%TO.P,USB3,4,GND*%
%TO.N,GND*%
X156845000Y-63998000D03*
D17*
%TO.P,USB3,5,Shield*%
X159555000Y-60948000D03*
%TO.P,USB3,6,Shield*%
X159555000Y-74048000D03*
%TD*%
D25*
%TO.P,A2,1,ground*%
%TO.N,GND*%
X72000000Y-33113400D03*
%TO.P,A2,2,power*%
%TO.N,/12v*%
X64000000Y-33113400D03*
%TD*%
D23*
%TO.P,R5,1*%
%TO.N,/Cell1+2+3_s*%
X93599000Y-79185000D03*
%TO.P,R5,2*%
%TO.N,/Cell1+2+3*%
X93599000Y-80835000D03*
%TD*%
%TO.P,R3,1*%
%TO.N,/Cell1+2*%
X93599000Y-83757000D03*
%TO.P,R3,2*%
%TO.N,/Cell1+2_s*%
X93599000Y-85407000D03*
%TD*%
D26*
%TO.P,R21,1*%
%TO.N,/BatCal*%
X71290000Y-72600000D03*
%TO.P,R21,2*%
%TO.N,GND*%
X72310000Y-72600000D03*
%TD*%
D11*
%TO.P,Pro1,1,TX*%
%TO.N,/Tx*%
X111760000Y-101092000D03*
D12*
%TO.P,Pro1,2,RX*%
%TO.N,/Rx*%
X111760000Y-98552000D03*
%TO.P,Pro1,3,GND*%
%TO.N,GND*%
X111760000Y-96012000D03*
%TO.P,Pro1,4,GND*%
X111760000Y-93472000D03*
%TO.P,Pro1,5,2*%
%TO.N,/SDA*%
X111760000Y-90932000D03*
%TO.P,Pro1,6,3*%
%TO.N,/SCL*%
X111760000Y-88392000D03*
%TO.P,Pro1,7,4*%
%TO.N,unconnected-(Pro1-4-Pad7)*%
X111760000Y-85852000D03*
%TO.P,Pro1,8,5*%
%TO.N,unconnected-(Pro1-5-Pad8)*%
X111760000Y-83312000D03*
%TO.P,Pro1,9,6*%
%TO.N,unconnected-(Pro1-6-Pad9)*%
X111760000Y-80772000D03*
%TO.P,Pro1,10,7*%
%TO.N,unconnected-(Pro1-7-Pad10)*%
X111760000Y-78232000D03*
%TO.P,Pro1,11,8*%
%TO.N,/BatCal*%
X111760000Y-75692000D03*
%TO.P,Pro1,12,9*%
%TO.N,/Dig4*%
X111760000Y-73152000D03*
%TO.P,Pro1,13,10*%
%TO.N,/Buzzer*%
X96520000Y-73152000D03*
%TO.P,Pro1,14,16*%
%TO.N,/toggle*%
X96520000Y-75692000D03*
%TO.P,Pro1,15,14*%
%TO.N,/Dig3*%
X96520000Y-78232000D03*
%TO.P,Pro1,16,15*%
%TO.N,/Dig2*%
X96520000Y-80772000D03*
%TO.P,Pro1,17,A0*%
%TO.N,/Dig1*%
X96520000Y-83312000D03*
%TO.P,Pro1,18,A1*%
%TO.N,/Cell1+2+3_s*%
X96520000Y-85852000D03*
%TO.P,Pro1,19,A2*%
%TO.N,/Cell1+2_s*%
X96520000Y-88392000D03*
%TO.P,Pro1,20,A3*%
%TO.N,/Cell1_s*%
X96520000Y-90932000D03*
%TO.P,Pro1,21,VCC*%
%TO.N,/5v*%
X96520000Y-93472000D03*
%TO.P,Pro1,22,RST*%
%TO.N,unconnected-(Pro1-RST-Pad22)*%
X96520000Y-96012000D03*
%TO.P,Pro1,23,GND*%
%TO.N,GND*%
X96520000Y-98552000D03*
%TO.P,Pro1,24,RAW*%
%TO.N,unconnected-(Pro1-RAW-Pad24)*%
X96520000Y-101092000D03*
%TD*%
D27*
%TO.P,F1,1,in1*%
%TO.N,/battery*%
X82092800Y-100507800D03*
%TO.P,F1,2,in2*%
X88315800Y-100507800D03*
%TO.P,F1,3,out1*%
%TO.N,/fuse out*%
X82092800Y-87045800D03*
%TO.P,F1,4,out2*%
X88315800Y-87045800D03*
%TD*%
D10*
%TO.P,R10,1*%
%TO.N,Net-(D3-C)*%
X133019800Y-87007200D03*
%TO.P,R10,2*%
%TO.N,/C*%
X133019800Y-85357200D03*
%TD*%
D23*
%TO.P,R14,1*%
%TO.N,/B*%
X131394200Y-85357200D03*
%TO.P,R14,2*%
%TO.N,Net-(D3-B)*%
X131394200Y-87007200D03*
%TD*%
D25*
%TO.P,A4,1,ground*%
%TO.N,GND*%
X72000000Y-53113400D03*
%TO.P,A4,2,power*%
%TO.N,/12v*%
X64000000Y-53113400D03*
%TD*%
D15*
%TO.P,USB1,1,VCC*%
%TO.N,/5v*%
X156845000Y-30998000D03*
D16*
%TO.P,USB1,2,D-*%
%TO.N,unconnected-(USB1-D--Pad2)*%
X156845000Y-28498000D03*
%TO.P,USB1,3,D+*%
%TO.N,unconnected-(USB1-D+-Pad3)*%
X156845000Y-26498000D03*
%TO.P,USB1,4,GND*%
%TO.N,GND*%
X156845000Y-23998000D03*
D17*
%TO.P,USB1,5,Shield*%
X159555000Y-20948000D03*
%TO.P,USB1,6,Shield*%
X159555000Y-34048000D03*
%TD*%
D28*
%TO.P,U3,1,A0*%
%TO.N,GND*%
X128523800Y-72491600D03*
%TO.P,U3,2,A1*%
X128523800Y-73761600D03*
%TO.P,U3,3,A2*%
X128523800Y-75031600D03*
%TO.P,U3,4,P0*%
%TO.N,/E*%
X128523800Y-76301600D03*
%TO.P,U3,5,P1*%
%TO.N,/D*%
X128523800Y-77571600D03*
%TO.P,U3,6,P2*%
%TO.N,/DP*%
X128523800Y-78841600D03*
%TO.P,U3,7,P3*%
%TO.N,/A*%
X128523800Y-80111600D03*
%TO.P,U3,8,VSS*%
%TO.N,GND*%
X128523800Y-81381600D03*
%TO.P,U3,9,P4*%
%TO.N,/G*%
X138023800Y-81381600D03*
%TO.P,U3,10,P5*%
%TO.N,/C*%
X138023800Y-80111600D03*
%TO.P,U3,11,P6*%
%TO.N,/B*%
X138023800Y-78841600D03*
%TO.P,U3,12,P7*%
%TO.N,/F*%
X138023800Y-77571600D03*
%TO.P,U3,13,~{INT}*%
%TO.N,unconnected-(U3-~{INT}-Pad13)*%
X138023800Y-76301600D03*
%TO.P,U3,14,SCL*%
%TO.N,/SCL*%
X138023800Y-75031600D03*
%TO.P,U3,15,SDA*%
%TO.N,/SDA*%
X138023800Y-73761600D03*
%TO.P,U3,16,VDD*%
%TO.N,/5v*%
X138023800Y-72491600D03*
%TD*%
D29*
%TO.P,R20,1*%
%TO.N,/5v*%
X132779000Y-70612000D03*
%TO.P,R20,2*%
%TO.N,/SDA*%
X134429000Y-70612000D03*
%TD*%
D11*
%TO.P,C1,1*%
%TO.N,/12v*%
X100797288Y-46228000D03*
D12*
%TO.P,C1,2*%
%TO.N,GND*%
X102797288Y-46228000D03*
%TD*%
D29*
%TO.P,R17,1*%
%TO.N,/D-*%
X153048200Y-88493600D03*
%TO.P,R17,2*%
%TO.N,Net-(DATA1-D-)*%
X154698200Y-88493600D03*
%TD*%
D24*
%TO.P,C4,1*%
%TO.N,Net-(U2-V3)*%
X142547800Y-75070000D03*
%TO.P,C4,2*%
%TO.N,GND*%
X142547800Y-73520000D03*
%TD*%
D10*
%TO.P,R1,1*%
%TO.N,/Cell1*%
X93599000Y-96330000D03*
%TO.P,R1,2*%
%TO.N,/Cell1_s*%
X93599000Y-94680000D03*
%TD*%
D30*
%TO.P,Q1,1,B*%
%TO.N,/base*%
X118432500Y-76151000D03*
%TO.P,Q1,2,E*%
%TO.N,GND*%
X120332500Y-76151000D03*
%TO.P,Q1,3,C*%
%TO.N,/collector*%
X119382500Y-74151000D03*
%TD*%
D25*
%TO.P,A5,1,ground*%
%TO.N,GND*%
X72000000Y-63113400D03*
%TO.P,A5,2,power*%
%TO.N,/12v*%
X64000000Y-63113400D03*
%TD*%
D29*
%TO.P,R19,1*%
%TO.N,/5v*%
X129629400Y-70612000D03*
%TO.P,R19,2*%
%TO.N,/SCL*%
X131279400Y-70612000D03*
%TD*%
D31*
%TO.P,C7,1*%
%TO.N,GND*%
X135953200Y-70612000D03*
%TO.P,C7,2*%
%TO.N,/5v*%
X137503200Y-70612000D03*
%TD*%
D16*
%TO.P,SW2,1,A*%
%TO.N,/5v*%
X160415600Y-100863400D03*
%TO.P,SW2,2,B*%
%TO.N,/toggle*%
X162915600Y-100863400D03*
%TO.P,SW2,3,C*%
%TO.N,GND*%
X165415600Y-100863400D03*
%TD*%
D32*
%TO.P,SW3,1,2*%
%TO.N,/5v*%
X68650000Y-76100000D03*
X62150000Y-76100000D03*
%TO.P,SW3,2,A*%
%TO.N,/BatCal*%
X68650000Y-71600000D03*
X62150000Y-71600000D03*
%TD*%
D10*
%TO.P,R4,1*%
%TO.N,GND*%
X93599000Y-88582000D03*
%TO.P,R4,2*%
%TO.N,/Cell1+2_s*%
X93599000Y-86932000D03*
%TD*%
D25*
%TO.P,A3,1,ground*%
%TO.N,GND*%
X72000000Y-43113400D03*
%TO.P,A3,2,power*%
%TO.N,/12v*%
X64000000Y-43113400D03*
%TD*%
D33*
%TO.P,Converter1,1,OUT+*%
%TO.N,/5v*%
X127685800Y-55422800D03*
%TO.P,Converter1,2,OUT-*%
%TO.N,GND*%
X121589800Y-55422800D03*
%TO.P,Converter1,3,IN-*%
X115493800Y-55422800D03*
%TO.P,Converter1,4,IN+*%
%TO.N,/12v*%
X109143800Y-55422800D03*
%TD*%
D10*
%TO.P,R15,1*%
%TO.N,/Buzzer*%
X122097800Y-75983600D03*
%TO.P,R15,2*%
%TO.N,/base*%
X122097800Y-74333600D03*
%TD*%
%TO.P,R9,1*%
%TO.N,Net-(D3-DP)*%
X122174000Y-87312000D03*
%TO.P,R9,2*%
%TO.N,/DP*%
X122174000Y-85662000D03*
%TD*%
D25*
%TO.P,A1,1,ground*%
%TO.N,GND*%
X72000000Y-23113400D03*
%TO.P,A1,2,power*%
%TO.N,/12v*%
X64000000Y-23113400D03*
%TD*%
D23*
%TO.P,R13,1*%
%TO.N,/F*%
X127635000Y-85662000D03*
%TO.P,R13,2*%
%TO.N,Net-(D3-F)*%
X127635000Y-87312000D03*
%TD*%
D34*
%TO.P,Sw1,1,In*%
%TO.N,/fuse out*%
X91617800Y-53340000D03*
%TO.P,Sw1,2,Out*%
%TO.N,/12v*%
X91617800Y-48340000D03*
%TD*%
D35*
%TO.P,U2,1,GND*%
%TO.N,GND*%
X144808400Y-72491600D03*
%TO.P,U2,2,TXD*%
%TO.N,/Rx*%
X144808400Y-73761600D03*
%TO.P,U2,3,RXD*%
%TO.N,/Tx*%
X144808400Y-75031600D03*
%TO.P,U2,4,V3*%
%TO.N,Net-(U2-V3)*%
X144808400Y-76301600D03*
%TO.P,U2,5,UD+*%
%TO.N,/D+*%
X144808400Y-77571600D03*
%TO.P,U2,6,UD-*%
%TO.N,/D-*%
X144808400Y-78841600D03*
%TO.P,U2,7,XI*%
%TO.N,Net-(U2-XI)*%
X144808400Y-80111600D03*
%TO.P,U2,8,XO*%
%TO.N,Net-(U2-XO)*%
X144808400Y-81381600D03*
%TO.P,U2,9,~{CTS}*%
%TO.N,unconnected-(U2-~{CTS}-Pad9)*%
X149758400Y-81381600D03*
%TO.P,U2,10,~{DSR}*%
%TO.N,unconnected-(U2-~{DSR}-Pad10)*%
X149758400Y-80111600D03*
%TO.P,U2,11,~{RI}*%
%TO.N,unconnected-(U2-~{RI}-Pad11)*%
X149758400Y-78841600D03*
%TO.P,U2,12,~{DCD}*%
%TO.N,unconnected-(U2-~{DCD}-Pad12)*%
X149758400Y-77571600D03*
%TO.P,U2,13,~{DTR}*%
%TO.N,unconnected-(U2-~{DTR}-Pad13)*%
X149758400Y-76301600D03*
%TO.P,U2,14,~{RTS}*%
%TO.N,unconnected-(U2-~{RTS}-Pad14)*%
X149758400Y-75031600D03*
%TO.P,U2,15,R232*%
%TO.N,unconnected-(U2-R232-Pad15)*%
X149758400Y-73761600D03*
%TO.P,U2,16,VCC*%
%TO.N,/5v*%
X149758400Y-72491600D03*
%TD*%
D10*
%TO.P,R16,1*%
%TO.N,/5v*%
X123748800Y-75983600D03*
%TO.P,R16,2*%
%TO.N,/collector*%
X123748800Y-74333600D03*
%TD*%
D36*
%TO.P,Batt1,1,ground*%
%TO.N,GND*%
X70866000Y-99568000D03*
D37*
%TO.P,Batt1,2,power*%
%TO.N,/battery*%
X63666000Y-99568000D03*
%TD*%
D38*
%TO.P,C6,1*%
%TO.N,Net-(U2-XO)*%
X142544800Y-79819200D03*
%TO.P,C6,2*%
%TO.N,GND*%
X142544800Y-81369200D03*
%TD*%
D13*
%TO.P,J2,1,Pin_1*%
%TO.N,unconnected-(J2-Pin_1-Pad1)*%
X70713600Y-90627200D03*
D14*
%TO.P,J2,2,Pin_2*%
%TO.N,/Cell1*%
X68173600Y-90627200D03*
%TO.P,J2,3,Pin_3*%
%TO.N,/Cell1+2*%
X65633600Y-90627200D03*
%TO.P,J2,4,Pin_4*%
%TO.N,/Cell1+2+3*%
X63093600Y-90627200D03*
%TD*%
D29*
%TO.P,R18,1*%
%TO.N,/D+*%
X153022800Y-86487000D03*
%TO.P,R18,2*%
%TO.N,Net-(DATA1-D+)*%
X154672800Y-86487000D03*
%TD*%
D13*
%TO.P,J3,1,Pin_1*%
%TO.N,/5v*%
X149800000Y-92800000D03*
D14*
%TO.P,J3,2,Pin_2*%
%TO.N,Net-(DATA1-VCC)*%
X152340000Y-92800000D03*
%TD*%
D15*
%TO.P,DATA1,1,VCC*%
%TO.N,Net-(DATA1-VCC)*%
X156845000Y-90998000D03*
D16*
%TO.P,DATA1,2,D-*%
%TO.N,Net-(DATA1-D-)*%
X156845000Y-88498000D03*
%TO.P,DATA1,3,D+*%
%TO.N,Net-(DATA1-D+)*%
X156845000Y-86498000D03*
%TO.P,DATA1,4,GND*%
%TO.N,GND*%
X156845000Y-83998000D03*
D17*
%TO.P,DATA1,5,Shield*%
X159555000Y-80948000D03*
%TO.P,DATA1,6,Shield*%
X159555000Y-94048000D03*
%TD*%
D10*
%TO.P,R8,1*%
%TO.N,Net-(D3-D)*%
X120523000Y-87312000D03*
%TO.P,R8,2*%
%TO.N,/D*%
X120523000Y-85662000D03*
%TD*%
D39*
%TO.N,GND*%
X118338600Y-78359000D03*
X135953200Y-68516200D03*
X93599000Y-74041000D03*
X126060200Y-81407000D03*
X142798800Y-69189600D03*
X127635000Y-70231000D03*
X90804000Y-91568000D03*
%TO.N,/5v*%
X101828600Y-93446600D03*
X113614200Y-92252800D03*
%TO.N,/Tx*%
X142849600Y-93954600D03*
X147907200Y-73736200D03*
%TO.N,/toggle*%
X108432600Y-100380800D03*
%TO.N,/Rx*%
X141859000Y-93345000D03*
X146853296Y-73765505D03*
%TO.N,/SDA*%
X135534400Y-73761600D03*
X115976400Y-82016600D03*
%TO.N,/SCL*%
X122047000Y-78028800D03*
X135585200Y-75031600D03*
%TD*%
D40*
%TO.N,GND*%
X93599000Y-88582000D02*
X93599000Y-91568000D01*
X142798800Y-69189600D02*
X142785800Y-69202600D01*
X141516400Y-76504800D02*
X141516400Y-80356200D01*
X126085600Y-81381600D02*
X128523800Y-81381600D01*
X127635000Y-70231000D02*
X128523800Y-71119800D01*
X120332500Y-76365100D02*
X118338600Y-78359000D01*
X128523800Y-73761600D02*
X128523800Y-72491600D01*
X142836600Y-72297800D02*
X143030400Y-72491600D01*
X141516400Y-74536000D02*
X142532400Y-73520000D01*
X128523800Y-75031600D02*
X128523800Y-73761600D01*
X143030400Y-72491600D02*
X143030400Y-73037400D01*
X141516400Y-80356200D02*
X142529400Y-81369200D01*
X142785800Y-69202600D02*
X142785800Y-70891400D01*
X93599000Y-91568000D02*
X90804000Y-91568000D01*
X72000000Y-72290000D02*
X72000000Y-63113400D01*
X135953200Y-70612000D02*
X135953200Y-68516200D01*
X143030400Y-73037400D02*
X142547800Y-73520000D01*
X128523800Y-71119800D02*
X128523800Y-72491600D01*
X93599000Y-76073000D02*
X93599000Y-74041000D01*
X141516400Y-76504800D02*
X141516400Y-74536000D01*
X72310000Y-72600000D02*
X72000000Y-72290000D01*
X142544800Y-76669600D02*
X141696600Y-76669600D01*
X142836600Y-70891400D02*
X142836600Y-72297800D01*
X120332500Y-76151000D02*
X120332500Y-76365100D01*
X143030400Y-72491600D02*
X144808400Y-72491600D01*
X126060200Y-81407000D02*
X126085600Y-81381600D01*
X141681200Y-76669600D02*
X141516400Y-76504800D01*
D41*
%TO.N,/5v*%
X151000000Y-96150000D02*
X149800000Y-94950000D01*
D40*
X148158200Y-70891400D02*
X149758400Y-72491600D01*
X144386600Y-70891400D02*
X148158200Y-70891400D01*
D41*
X160415600Y-100863400D02*
X155702200Y-96150000D01*
D40*
X101803200Y-93472000D02*
X101828600Y-93446600D01*
X96520000Y-93472000D02*
X101803200Y-93472000D01*
D41*
X149800000Y-94950000D02*
X149800000Y-92800000D01*
D40*
X138011200Y-72479000D02*
X138023800Y-72491600D01*
D41*
X155702200Y-96150000D02*
X151000000Y-96150000D01*
D40*
%TO.N,/collector*%
X123748800Y-74333600D02*
X123938800Y-74333600D01*
X119382500Y-74151000D02*
X119382500Y-73352700D01*
X122516400Y-73101200D02*
X123748800Y-74333600D01*
X123938800Y-74333600D02*
X124231400Y-74041000D01*
X124231400Y-67360800D02*
X126542800Y-65049400D01*
X126542800Y-65049400D02*
X135229600Y-65049400D01*
X124231400Y-74041000D02*
X124231400Y-67360800D01*
X119634000Y-73101200D02*
X122516400Y-73101200D01*
X135229600Y-65049400D02*
X141672000Y-58607000D01*
X141672000Y-58607000D02*
X141672000Y-48614000D01*
X119382500Y-73352700D02*
X119634000Y-73101200D01*
%TO.N,Net-(U2-V3)*%
X142547800Y-75070000D02*
X143779400Y-76301600D01*
X143779400Y-76301600D02*
X144808400Y-76301600D01*
%TO.N,Net-(U2-XI)*%
X144431649Y-80111600D02*
X144808400Y-80111600D01*
X144613800Y-85623400D02*
X144613800Y-84265600D01*
X144613800Y-84265600D02*
X146253200Y-82626200D01*
X146253200Y-82626200D02*
X146253200Y-81000600D01*
X145364200Y-80111600D02*
X144808400Y-80111600D01*
X142544800Y-78224751D02*
X144431649Y-80111600D01*
X146253200Y-81000600D02*
X145364200Y-80111600D01*
%TO.N,Net-(U2-XO)*%
X144808400Y-81381600D02*
X144097200Y-81381600D01*
X142544800Y-79829200D02*
X142544800Y-79819200D01*
X142609400Y-82727800D02*
X143462200Y-82727800D01*
X143462200Y-82727800D02*
X144808400Y-81381600D01*
X144097200Y-81381600D02*
X142544800Y-79829200D01*
X139713800Y-85623400D02*
X142609400Y-82727800D01*
%TO.N,Net-(D3-E)*%
X124460000Y-101346000D02*
X124460000Y-99314000D01*
X124460000Y-99314000D02*
X118872000Y-93726000D01*
X118872000Y-93726000D02*
X118872000Y-87312000D01*
%TO.N,Net-(D3-D)*%
X120523000Y-93345000D02*
X120523000Y-87312000D01*
X126238000Y-99060000D02*
X120523000Y-93345000D01*
X126238000Y-100584000D02*
X126238000Y-99060000D01*
X127000000Y-101346000D02*
X126238000Y-100584000D01*
%TO.N,Net-(D3-DP)*%
X122174000Y-93980000D02*
X122174000Y-87312000D01*
X129540000Y-101346000D02*
X122174000Y-93980000D01*
%TO.N,Net-(D3-C)*%
X138480800Y-98298000D02*
X138938000Y-97840800D01*
X134772400Y-89306400D02*
X133019800Y-87553800D01*
X138938000Y-91338400D02*
X136906000Y-89306400D01*
X138938000Y-97840800D02*
X138938000Y-91338400D01*
X132080000Y-101346000D02*
X135128000Y-98298000D01*
X135128000Y-98298000D02*
X138480800Y-98298000D01*
X136906000Y-89306400D02*
X134772400Y-89306400D01*
X133019800Y-87553800D02*
X133019800Y-87007200D01*
%TO.N,Net-(D3-G)*%
X138812396Y-99060000D02*
X139713398Y-98158998D01*
X137160000Y-88646000D02*
X135128000Y-88646000D01*
X139713398Y-91199398D02*
X137160000Y-88646000D01*
X134874000Y-101346000D02*
X137160000Y-99060000D01*
X134620000Y-101346000D02*
X134874000Y-101346000D01*
X135128000Y-88646000D02*
X134645400Y-88163400D01*
X134645400Y-88163400D02*
X134645400Y-87007200D01*
X139713398Y-98158998D02*
X139713398Y-91199398D01*
X137160000Y-99060000D02*
X138812396Y-99060000D01*
%TO.N,/Cell1*%
X89255600Y-93421200D02*
X68681600Y-93421200D01*
X68173600Y-92913200D02*
X68173600Y-90627200D01*
X92164400Y-96330000D02*
X89255600Y-93421200D01*
X68681600Y-93421200D02*
X68173600Y-92913200D01*
X93599000Y-96330000D02*
X92164400Y-96330000D01*
%TO.N,/Cell1+2*%
X92315800Y-83757000D02*
X93599000Y-83757000D01*
X65633600Y-88239600D02*
X65735200Y-88138000D01*
X77520800Y-91490800D02*
X89306400Y-91490800D01*
X74168000Y-88138000D02*
X77520800Y-91490800D01*
X65633600Y-90627200D02*
X65633600Y-88239600D01*
X89306400Y-91490800D02*
X91694000Y-89103200D01*
X91694000Y-89103200D02*
X91694000Y-84378800D01*
X65735200Y-88138000D02*
X74168000Y-88138000D01*
X91694000Y-84378800D02*
X92315800Y-83757000D01*
%TO.N,/Cell1+2+3*%
X93599000Y-81661000D02*
X93599000Y-80835000D01*
X74676000Y-87274400D02*
X78054200Y-90652600D01*
X78054200Y-90652600D02*
X89052400Y-90652600D01*
X63093600Y-87223600D02*
X63144400Y-87274400D01*
X91084400Y-88620600D02*
X91084400Y-84175600D01*
X89052400Y-90652600D02*
X91084400Y-88620600D01*
X63144400Y-87274400D02*
X74676000Y-87274400D01*
X91084400Y-84175600D02*
X93599000Y-81661000D01*
X63093600Y-82270600D02*
X63093600Y-87223600D01*
%TO.N,/DP*%
X122174000Y-85662000D02*
X122174000Y-83439000D01*
X122174000Y-83439000D02*
X126771400Y-78841600D01*
X126771400Y-78841600D02*
X128523800Y-78841600D01*
%TO.N,/E*%
X118872000Y-85662000D02*
X118872000Y-84886800D01*
X118872000Y-84886800D02*
X127457200Y-76301600D01*
X127457200Y-76301600D02*
X128523800Y-76301600D01*
%TO.N,/D*%
X127152400Y-77571600D02*
X128523800Y-77571600D01*
X120523000Y-85662000D02*
X120523000Y-84201000D01*
X120523000Y-84201000D02*
X127152400Y-77571600D01*
%TO.N,/C*%
X133019800Y-85357200D02*
X133045200Y-85331800D01*
X133045200Y-81178400D02*
X134112000Y-80111600D01*
X134112000Y-80111600D02*
X138023800Y-80111600D01*
X133045200Y-85331800D02*
X133045200Y-81178400D01*
%TO.N,/A*%
X129019800Y-82626200D02*
X130810000Y-82626200D01*
X130327400Y-80111600D02*
X128523800Y-80111600D01*
X130810000Y-82626200D02*
X130810000Y-80594200D01*
X130810000Y-80594200D02*
X130327400Y-80111600D01*
X125984000Y-85662000D02*
X129019800Y-82626200D01*
%TO.N,/B*%
X133375400Y-78841600D02*
X138023800Y-78841600D01*
X132207000Y-83566000D02*
X132207000Y-80010000D01*
X131394200Y-85357200D02*
X131394200Y-84378800D01*
X132207000Y-80010000D02*
X133375400Y-78841600D01*
X131394200Y-84378800D02*
X132207000Y-83566000D01*
%TO.N,/Buzzer*%
X98298000Y-71374000D02*
X113436400Y-71374000D01*
X96520000Y-73152000D02*
X98298000Y-71374000D01*
X113436400Y-78892400D02*
X114503200Y-79959200D01*
X113436400Y-71374000D02*
X113436400Y-78892400D01*
X122097800Y-76784200D02*
X122097800Y-75983600D01*
X114503200Y-79959200D02*
X118922800Y-79959200D01*
X118922800Y-79959200D02*
X122097800Y-76784200D01*
%TO.N,/G*%
X134645400Y-85357200D02*
X134670800Y-85331800D01*
X134670800Y-85331800D02*
X134670800Y-81584800D01*
X134874000Y-81381600D02*
X138023800Y-81381600D01*
X134670800Y-81584800D02*
X134874000Y-81381600D01*
%TO.N,/F*%
X131419600Y-82956400D02*
X131419600Y-78079600D01*
X127635000Y-85662000D02*
X128714000Y-85662000D01*
X128714000Y-85662000D02*
X131419600Y-82956400D01*
X131419600Y-78079600D02*
X131927600Y-77571600D01*
X131927600Y-77571600D02*
X138023800Y-77571600D01*
%TO.N,Net-(D3-B)*%
X133350000Y-88963000D02*
X133350000Y-92862400D01*
X133350000Y-92862400D02*
X135483600Y-92862400D01*
X131394200Y-87007200D02*
X133350000Y-88963000D01*
X135483600Y-92862400D02*
X137160000Y-91186000D01*
%TO.N,Net-(D3-F)*%
X127635000Y-87312000D02*
X127952000Y-87312000D01*
X127952000Y-87312000D02*
X129540000Y-88900000D01*
X129540000Y-88900000D02*
X129540000Y-91186000D01*
%TO.N,/Cell1_s*%
X94996000Y-90932000D02*
X96520000Y-90932000D01*
X93599000Y-93218000D02*
X94742000Y-92075000D01*
X93599000Y-93218000D02*
X93599000Y-94680000D01*
X94742000Y-92075000D02*
X94742000Y-91186000D01*
X94742000Y-91186000D02*
X94996000Y-90932000D01*
%TO.N,/Cell1+2_s*%
X95059000Y-88392000D02*
X96520000Y-88392000D01*
X93599000Y-86932000D02*
X95059000Y-88392000D01*
X93599000Y-86932000D02*
X93599000Y-85407000D01*
%TO.N,/Cell1+2+3_s*%
X94742000Y-79756000D02*
X94742000Y-84836000D01*
X94742000Y-84836000D02*
X95758000Y-85852000D01*
X93599000Y-77723000D02*
X93599000Y-79185000D01*
X93599000Y-79185000D02*
X94171000Y-79185000D01*
X95758000Y-85852000D02*
X96520000Y-85852000D01*
X94171000Y-79185000D02*
X94742000Y-79756000D01*
%TO.N,Net-(D3-A)*%
X125984000Y-87630000D02*
X127254000Y-88900000D01*
X127254000Y-88900000D02*
X127254000Y-90932000D01*
X127254000Y-90932000D02*
X127000000Y-91186000D01*
X125984000Y-87312000D02*
X125984000Y-87630000D01*
D42*
%TO.N,Net-(DATA1-VCC)*%
X156006604Y-91200000D02*
X156526802Y-90679802D01*
X152340000Y-92800000D02*
X153940000Y-91200000D01*
X153940000Y-91200000D02*
X156006604Y-91200000D01*
D40*
%TO.N,Net-(DATA1-D-)*%
X156840600Y-88493600D02*
X156845000Y-88498000D01*
X154698200Y-88493600D02*
X156840600Y-88493600D01*
%TO.N,/Tx*%
X142849600Y-93954600D02*
X142849600Y-99161600D01*
X118389400Y-101092000D02*
X111760000Y-101092000D01*
X142849600Y-99161600D02*
X138785600Y-103225600D01*
X120523000Y-103225600D02*
X118389400Y-101092000D01*
X147907200Y-73736200D02*
X146611800Y-75031600D01*
X138785600Y-103225600D02*
X120523000Y-103225600D01*
X146611800Y-75031600D02*
X144808400Y-75031600D01*
D43*
%TO.N,/D+*%
X150867599Y-87252599D02*
X152257201Y-87252599D01*
X152257201Y-87252599D02*
X153022800Y-86487000D01*
X144808400Y-77571600D02*
X145218399Y-77981599D01*
X145218399Y-77981599D02*
X145787599Y-77981599D01*
X145787599Y-77981599D02*
X147570400Y-79764400D01*
X147570400Y-79764400D02*
X147570400Y-83955400D01*
X147570400Y-83955400D02*
X150867599Y-87252599D01*
%TO.N,/D-*%
X150681201Y-87702601D02*
X152257201Y-87702601D01*
X152257201Y-87702601D02*
X153048200Y-88493600D01*
X147120400Y-79950800D02*
X147120400Y-84141800D01*
X147120400Y-84141800D02*
X150681201Y-87702601D01*
X145218399Y-78431601D02*
X145601201Y-78431601D01*
X144808400Y-78841600D02*
X145218399Y-78431601D01*
X145601201Y-78431601D02*
X147120400Y-79950800D01*
D40*
%TO.N,Net-(DATA1-D+)*%
X156834000Y-86487000D02*
X156845000Y-86498000D01*
X154672800Y-86487000D02*
X156834000Y-86487000D01*
D44*
%TO.N,/fuse out*%
X86588600Y-53340000D02*
X91617800Y-53340000D01*
X85445600Y-80010000D02*
X85242400Y-79806800D01*
X88315800Y-82829400D02*
X88315800Y-87045800D01*
X85445600Y-80010000D02*
X84836000Y-80010000D01*
X82092800Y-87045800D02*
X88315800Y-87045800D01*
X85242400Y-79806800D02*
X85242400Y-54737000D01*
X85217000Y-54711600D02*
X86588600Y-53340000D01*
X85242400Y-54737000D02*
X85217000Y-54711600D01*
X82092800Y-82753200D02*
X82092800Y-87045800D01*
X85445600Y-80010000D02*
X85496400Y-80010000D01*
X85496400Y-80010000D02*
X88315800Y-82829400D01*
X84836000Y-80010000D02*
X82092800Y-82753200D01*
D40*
%TO.N,/base*%
X118432500Y-76106100D02*
X119437600Y-75101000D01*
X124777500Y-68135500D02*
X127228600Y-65684400D01*
X124663200Y-75184000D02*
X124777500Y-75069700D01*
X127228600Y-65684400D02*
X135839200Y-65684400D01*
X122097800Y-74333600D02*
X122531338Y-74333600D01*
X122531338Y-74333600D02*
X122936000Y-74738262D01*
X147955000Y-53568600D02*
X147955000Y-49423400D01*
X122936000Y-75184000D02*
X124663200Y-75184000D01*
X135839200Y-65684400D02*
X147955000Y-53568600D01*
X119437600Y-75101000D02*
X119444400Y-75107800D01*
X124777500Y-75069700D02*
X124777500Y-68135500D01*
X122936000Y-74738262D02*
X122936000Y-75184000D01*
X121323600Y-75107800D02*
X122097800Y-74333600D01*
X118432500Y-76151000D02*
X118432500Y-76106100D01*
X119444400Y-75107800D02*
X121323600Y-75107800D01*
%TO.N,/toggle*%
X108432600Y-82092800D02*
X108432600Y-100380800D01*
X96520000Y-75692000D02*
X102031800Y-75692000D01*
X102031800Y-75692000D02*
X108432600Y-82092800D01*
%TO.N,/BatCal*%
X70290000Y-71600000D02*
X71290000Y-72600000D01*
X68650000Y-71600000D02*
X70290000Y-71600000D01*
%TO.N,/Rx*%
X123494800Y-102717600D02*
X119329200Y-98552000D01*
X146853296Y-73765505D02*
X146849391Y-73761600D01*
X141859000Y-93345000D02*
X141859000Y-99034600D01*
X146849391Y-73761600D02*
X144808400Y-73761600D01*
X138176000Y-102717600D02*
X123494800Y-102717600D01*
X141859000Y-99034600D02*
X138176000Y-102717600D01*
X119329200Y-98552000D02*
X111760000Y-98552000D01*
%TO.N,/SDA*%
X134479800Y-72707000D02*
X135534400Y-73761600D01*
X113461800Y-90068400D02*
X112623600Y-90068400D01*
X112623600Y-90068400D02*
X111760000Y-90932000D01*
X134479800Y-70612000D02*
X134479800Y-72707000D01*
X114452400Y-83540600D02*
X114452400Y-89077800D01*
X115976400Y-82016600D02*
X114452400Y-83540600D01*
X114452400Y-89077800D02*
X113461800Y-90068400D01*
X138023800Y-73761600D02*
X135534400Y-73761600D01*
%TO.N,/SCL*%
X115798600Y-80670400D02*
X113563400Y-82905600D01*
X112903000Y-88392000D02*
X111760000Y-88392000D01*
X131355600Y-70612000D02*
X131355600Y-70802000D01*
X119024400Y-80670400D02*
X115798600Y-80670400D01*
X121589800Y-78105000D02*
X121970800Y-78105000D01*
X121970800Y-78105000D02*
X122047000Y-78028800D01*
X121589800Y-78105000D02*
X119024400Y-80670400D01*
X113563400Y-82905600D02*
X113563400Y-87731600D01*
X113563400Y-87731600D02*
X112903000Y-88392000D01*
X138023800Y-75031600D02*
X135585200Y-75031600D01*
X131355600Y-70802000D02*
X135585200Y-75031600D01*
%TD*%
%TA.AperFunction,Conductor*%
%TO.N,/battery*%
G36*
X68258827Y-93898402D02*
G01*
X68272757Y-93909628D01*
X68272988Y-93909348D01*
X68277759Y-93913263D01*
X68277767Y-93913271D01*
X68381525Y-93982600D01*
X68496815Y-94030355D01*
X68619206Y-94054700D01*
X88941006Y-94054700D01*
X89009127Y-94074702D01*
X89030101Y-94091605D01*
X91672329Y-96733833D01*
X91760567Y-96822071D01*
X91864325Y-96891400D01*
X91979615Y-96939155D01*
X92102006Y-96963500D01*
X92703338Y-96963500D01*
X92771459Y-96983502D01*
X92792433Y-97000405D01*
X92883839Y-97091811D01*
X92883844Y-97091815D01*
X92883845Y-97091816D01*
X93031087Y-97180827D01*
X93195351Y-97232013D01*
X93266735Y-97238500D01*
X93931264Y-97238499D01*
X94002649Y-97232013D01*
X94166913Y-97180827D01*
X94314155Y-97091816D01*
X94435816Y-96970155D01*
X94524827Y-96822913D01*
X94546505Y-96753346D01*
X94585867Y-96694260D01*
X94650924Y-96665834D01*
X94721022Y-96677094D01*
X94773905Y-96724464D01*
X94792800Y-96790830D01*
X94792800Y-103912221D01*
X94772798Y-103980342D01*
X94719142Y-104026835D01*
X94666622Y-104038221D01*
X59053822Y-103987778D01*
X58985729Y-103967679D01*
X58939312Y-103913958D01*
X58928000Y-103861778D01*
X58928000Y-99567995D01*
X59661176Y-99567995D01*
X59661176Y-99568004D01*
X59680460Y-99960542D01*
X59680460Y-99960548D01*
X59738128Y-100349305D01*
X59738129Y-100349310D01*
X59833623Y-100730545D01*
X59833627Y-100730557D01*
X59966022Y-101100573D01*
X60134063Y-101455864D01*
X60220203Y-101599581D01*
X60220205Y-101599581D01*
X61530023Y-100289762D01*
X61530835Y-100292791D01*
X61643706Y-100565285D01*
X61791179Y-100820715D01*
X61970731Y-101054711D01*
X62179289Y-101263269D01*
X62413285Y-101442821D01*
X62668715Y-101590294D01*
X62941209Y-101703165D01*
X62944235Y-101703975D01*
X61634417Y-103013793D01*
X61634417Y-103013795D01*
X61778135Y-103099936D01*
X62133426Y-103267977D01*
X62503442Y-103400372D01*
X62503454Y-103400376D01*
X62884689Y-103495870D01*
X62884694Y-103495871D01*
X63273454Y-103553539D01*
X63665996Y-103572824D01*
X63666004Y-103572824D01*
X64058542Y-103553539D01*
X64058548Y-103553539D01*
X64447305Y-103495871D01*
X64447310Y-103495870D01*
X64828545Y-103400376D01*
X64828557Y-103400372D01*
X65198573Y-103267977D01*
X65553864Y-103099936D01*
X65697581Y-103013795D01*
X65697581Y-103013793D01*
X64387764Y-101703976D01*
X64390791Y-101703165D01*
X64663285Y-101590294D01*
X64918715Y-101442821D01*
X65152711Y-101263269D01*
X65361269Y-101054711D01*
X65540821Y-100820715D01*
X65688294Y-100565285D01*
X65801165Y-100292791D01*
X65801976Y-100289764D01*
X67111793Y-101599581D01*
X67111795Y-101599581D01*
X67175650Y-101493047D01*
X67227828Y-101444901D01*
X67297752Y-101432607D01*
X67363222Y-101460069D01*
X67403453Y-101518567D01*
X67404218Y-101520985D01*
X67486322Y-101789532D01*
X67486323Y-101789535D01*
X67486325Y-101789540D01*
X67531506Y-101886431D01*
X67605036Y-102044118D01*
X67758023Y-102279697D01*
X67942307Y-102491692D01*
X68126592Y-102651888D01*
X68154303Y-102675977D01*
X68389882Y-102828964D01*
X68644460Y-102947675D01*
X68644467Y-102947677D01*
X68913071Y-103029799D01*
X68913074Y-103029800D01*
X68913077Y-103029800D01*
X68913082Y-103029802D01*
X69190520Y-103073743D01*
X69253663Y-103076500D01*
X72478336Y-103076499D01*
X72478338Y-103076499D01*
X72482862Y-103076301D01*
X72541480Y-103073743D01*
X72818918Y-103029802D01*
X73087540Y-102947675D01*
X73342118Y-102828964D01*
X73577697Y-102675977D01*
X73789692Y-102491692D01*
X73973977Y-102279697D01*
X74126964Y-102044118D01*
X74245675Y-101789540D01*
X74327802Y-101520918D01*
X74348331Y-101391303D01*
X79632300Y-101391303D01*
X79642909Y-101510626D01*
X79642909Y-101510629D01*
X79698859Y-101706165D01*
X79793021Y-101886431D01*
X79921547Y-102044052D01*
X80079168Y-102172578D01*
X80259434Y-102266740D01*
X80454971Y-102322690D01*
X80574296Y-102333299D01*
X80574303Y-102333300D01*
X81267300Y-102333300D01*
X82918300Y-102333300D01*
X83611297Y-102333300D01*
X83611303Y-102333299D01*
X83730626Y-102322690D01*
X83730629Y-102322690D01*
X83926165Y-102266740D01*
X84106431Y-102172578D01*
X84264052Y-102044052D01*
X84392578Y-101886431D01*
X84486740Y-101706165D01*
X84542690Y-101510629D01*
X84542690Y-101510626D01*
X84553299Y-101391303D01*
X85855300Y-101391303D01*
X85865909Y-101510626D01*
X85865909Y-101510629D01*
X85921859Y-101706165D01*
X86016021Y-101886431D01*
X86144547Y-102044052D01*
X86302168Y-102172578D01*
X86482434Y-102266740D01*
X86677971Y-102322690D01*
X86797296Y-102333299D01*
X86797303Y-102333300D01*
X87490300Y-102333300D01*
X89141300Y-102333300D01*
X89834297Y-102333300D01*
X89834303Y-102333299D01*
X89953626Y-102322690D01*
X89953629Y-102322690D01*
X90149165Y-102266740D01*
X90329431Y-102172578D01*
X90487052Y-102044052D01*
X90615578Y-101886431D01*
X90709740Y-101706165D01*
X90765690Y-101510629D01*
X90765690Y-101510626D01*
X90776299Y-101391303D01*
X90776300Y-101391297D01*
X90776300Y-101333300D01*
X89141300Y-101333300D01*
X89141300Y-102333300D01*
X87490300Y-102333300D01*
X87490300Y-101333300D01*
X85855300Y-101333300D01*
X85855300Y-101391303D01*
X84553299Y-101391303D01*
X84553300Y-101391297D01*
X84553300Y-101333300D01*
X82918300Y-101333300D01*
X82918300Y-102333300D01*
X81267300Y-102333300D01*
X81267300Y-101333300D01*
X79632300Y-101333300D01*
X79632300Y-101391303D01*
X74348331Y-101391303D01*
X74371743Y-101243480D01*
X74374500Y-101180337D01*
X74374500Y-99624296D01*
X79632300Y-99624296D01*
X79632300Y-99682300D01*
X81267300Y-99682300D01*
X82918300Y-99682300D01*
X84553300Y-99682300D01*
X84553300Y-99624303D01*
X84553299Y-99624296D01*
X85855300Y-99624296D01*
X85855300Y-99682300D01*
X87490300Y-99682300D01*
X89141300Y-99682300D01*
X90776300Y-99682300D01*
X90776300Y-99624303D01*
X90776299Y-99624296D01*
X90765690Y-99504973D01*
X90765690Y-99504970D01*
X90709740Y-99309434D01*
X90615578Y-99129168D01*
X90487052Y-98971547D01*
X90329431Y-98843021D01*
X90149165Y-98748859D01*
X89953628Y-98692909D01*
X89834303Y-98682300D01*
X89141300Y-98682300D01*
X89141300Y-99682300D01*
X87490300Y-99682300D01*
X87490300Y-98682300D01*
X86797296Y-98682300D01*
X86677973Y-98692909D01*
X86677970Y-98692909D01*
X86482434Y-98748859D01*
X86302168Y-98843021D01*
X86144547Y-98971547D01*
X86016021Y-99129168D01*
X85921859Y-99309434D01*
X85865909Y-99504970D01*
X85865909Y-99504973D01*
X85855300Y-99624296D01*
X84553299Y-99624296D01*
X84542690Y-99504973D01*
X84542690Y-99504970D01*
X84486740Y-99309434D01*
X84392578Y-99129168D01*
X84264052Y-98971547D01*
X84106431Y-98843021D01*
X83926165Y-98748859D01*
X83730628Y-98692909D01*
X83611303Y-98682300D01*
X82918300Y-98682300D01*
X82918300Y-99682300D01*
X81267300Y-99682300D01*
X81267300Y-98682300D01*
X80574296Y-98682300D01*
X80454973Y-98692909D01*
X80454970Y-98692909D01*
X80259434Y-98748859D01*
X80079168Y-98843021D01*
X79921547Y-98971547D01*
X79793021Y-99129168D01*
X79698859Y-99309434D01*
X79642909Y-99504970D01*
X79642909Y-99504973D01*
X79632300Y-99624296D01*
X74374500Y-99624296D01*
X74374499Y-97955664D01*
X74371743Y-97892520D01*
X74327802Y-97615082D01*
X74327781Y-97615014D01*
X74245677Y-97346467D01*
X74245675Y-97346460D01*
X74126964Y-97091882D01*
X73973977Y-96856303D01*
X73944221Y-96822073D01*
X73789692Y-96644307D01*
X73577697Y-96460023D01*
X73342118Y-96307036D01*
X73087540Y-96188325D01*
X73087535Y-96188323D01*
X73087532Y-96188322D01*
X72818928Y-96106200D01*
X72818925Y-96106199D01*
X72748055Y-96094974D01*
X72541480Y-96062257D01*
X72478337Y-96059500D01*
X69253661Y-96059500D01*
X69195046Y-96062059D01*
X69190520Y-96062257D01*
X69039985Y-96086098D01*
X68913074Y-96106199D01*
X68913071Y-96106200D01*
X68644467Y-96188322D01*
X68644461Y-96188324D01*
X68644460Y-96188325D01*
X68552405Y-96231250D01*
X68389881Y-96307036D01*
X68154302Y-96460023D01*
X67942307Y-96644307D01*
X67758023Y-96856302D01*
X67605036Y-97091881D01*
X67539692Y-97232013D01*
X67499729Y-97317716D01*
X67486322Y-97346467D01*
X67404218Y-97615014D01*
X67365173Y-97674310D01*
X67300269Y-97703084D01*
X67230111Y-97692200D01*
X67176976Y-97645114D01*
X67175650Y-97642952D01*
X67111795Y-97536417D01*
X67111793Y-97536417D01*
X65801975Y-98846234D01*
X65801165Y-98843209D01*
X65688294Y-98570715D01*
X65540821Y-98315285D01*
X65361269Y-98081289D01*
X65152711Y-97872731D01*
X64918715Y-97693179D01*
X64663285Y-97545706D01*
X64390791Y-97432835D01*
X64387762Y-97432023D01*
X65697581Y-96122205D01*
X65697581Y-96122203D01*
X65553864Y-96036063D01*
X65198573Y-95868022D01*
X64828557Y-95735627D01*
X64828545Y-95735623D01*
X64447310Y-95640129D01*
X64447305Y-95640128D01*
X64058545Y-95582460D01*
X63666004Y-95563176D01*
X63665996Y-95563176D01*
X63273457Y-95582460D01*
X63273451Y-95582460D01*
X62884694Y-95640128D01*
X62884689Y-95640129D01*
X62503454Y-95735623D01*
X62503442Y-95735627D01*
X62133426Y-95868022D01*
X61778135Y-96036063D01*
X61634416Y-96122204D01*
X62944236Y-97432023D01*
X62941209Y-97432835D01*
X62668715Y-97545706D01*
X62413285Y-97693179D01*
X62179289Y-97872731D01*
X61970731Y-98081289D01*
X61791179Y-98315285D01*
X61643706Y-98570715D01*
X61530835Y-98843209D01*
X61530023Y-98846235D01*
X60220204Y-97536416D01*
X60134063Y-97680135D01*
X59966022Y-98035426D01*
X59833627Y-98405442D01*
X59833623Y-98405454D01*
X59738129Y-98786689D01*
X59738128Y-98786694D01*
X59680460Y-99175451D01*
X59680460Y-99175457D01*
X59661176Y-99567995D01*
X58928000Y-99567995D01*
X58928000Y-94004400D01*
X58948002Y-93936279D01*
X59001658Y-93889786D01*
X59054000Y-93878400D01*
X68190706Y-93878400D01*
X68258827Y-93898402D01*
G37*
%TD.AperFunction*%
%TD*%
%TA.AperFunction,Conductor*%
%TO.N,/12v*%
G36*
X75637067Y-19146413D02*
G01*
X75766262Y-19205414D01*
X75873601Y-19298424D01*
X75950388Y-19417908D01*
X75990403Y-19554185D01*
X75995480Y-19626517D01*
X75971399Y-28752799D01*
X75971400Y-28752800D01*
X116391800Y-28752800D01*
X116532385Y-28773013D01*
X116661580Y-28832014D01*
X116768919Y-28925024D01*
X116845706Y-29044508D01*
X116885721Y-29180785D01*
X116890800Y-29251800D01*
X116890800Y-52039187D01*
X116870587Y-52179772D01*
X116811586Y-52308967D01*
X116718576Y-52416306D01*
X116599092Y-52493093D01*
X116462815Y-52533108D01*
X116320785Y-52533108D01*
X116276724Y-52524737D01*
X116015717Y-52462877D01*
X115668561Y-52422300D01*
X115668559Y-52422300D01*
X115319041Y-52422300D01*
X115319039Y-52422300D01*
X114971876Y-52462878D01*
X114631796Y-52543478D01*
X114631788Y-52543481D01*
X114303348Y-52663023D01*
X114303334Y-52663029D01*
X113991007Y-52819886D01*
X113698991Y-53011949D01*
X113431244Y-53236615D01*
X113191389Y-53490845D01*
X112982667Y-53771206D01*
X112982665Y-53771210D01*
X112807920Y-54073877D01*
X112807909Y-54073899D01*
X112776715Y-54146214D01*
X112702471Y-54267294D01*
X112597123Y-54362553D01*
X112469204Y-54424273D01*
X112329078Y-54447454D01*
X112188098Y-54430219D01*
X112057684Y-54373962D01*
X111948402Y-54283243D01*
X111869105Y-54165410D01*
X111860337Y-54146210D01*
X111829243Y-54074126D01*
X111829234Y-54074109D01*
X111728180Y-53899078D01*
X111728179Y-53899078D01*
X110594319Y-55032938D01*
X110533904Y-54847000D01*
X110426715Y-54636629D01*
X110287936Y-54445616D01*
X110120984Y-54278664D01*
X109929971Y-54139885D01*
X109719600Y-54032696D01*
X109533660Y-53972280D01*
X110670035Y-52835904D01*
X110670035Y-52835903D01*
X110646345Y-52820322D01*
X110334054Y-52663483D01*
X110005668Y-52543961D01*
X110005660Y-52543958D01*
X109665636Y-52463371D01*
X109318531Y-52422800D01*
X108969069Y-52422800D01*
X108621963Y-52463371D01*
X108281939Y-52543958D01*
X108281931Y-52543961D01*
X107953545Y-52663483D01*
X107641260Y-52820319D01*
X107617564Y-52835904D01*
X108753939Y-53972280D01*
X108568000Y-54032696D01*
X108357629Y-54139885D01*
X108166616Y-54278664D01*
X107999664Y-54445616D01*
X107860885Y-54636629D01*
X107753696Y-54847000D01*
X107693280Y-55032939D01*
X106559419Y-53899078D01*
X106559418Y-53899079D01*
X106458365Y-54074108D01*
X106458359Y-54074120D01*
X106319944Y-54395001D01*
X106219721Y-54729764D01*
X106219715Y-54729790D01*
X106159034Y-55073935D01*
X106138716Y-55422800D01*
X106159034Y-55771664D01*
X106219715Y-56115809D01*
X106219721Y-56115835D01*
X106319944Y-56450599D01*
X106458356Y-56771473D01*
X106458358Y-56771477D01*
X106559419Y-56946519D01*
X106559420Y-56946520D01*
X107693279Y-55812660D01*
X107753696Y-55998600D01*
X107860885Y-56208971D01*
X107999664Y-56399984D01*
X108166616Y-56566936D01*
X108357629Y-56705715D01*
X108568000Y-56812904D01*
X108753939Y-56873319D01*
X107617563Y-58009694D01*
X107617564Y-58009695D01*
X107641253Y-58025276D01*
X107641267Y-58025284D01*
X107953541Y-58182114D01*
X107953542Y-58182115D01*
X108281931Y-58301638D01*
X108281939Y-58301641D01*
X108621963Y-58382228D01*
X108969069Y-58422800D01*
X109318531Y-58422800D01*
X109665636Y-58382228D01*
X110005660Y-58301641D01*
X110005668Y-58301638D01*
X110334057Y-58182115D01*
X110334058Y-58182114D01*
X110646339Y-58025280D01*
X110646340Y-58025280D01*
X110670034Y-58009695D01*
X110670034Y-58009693D01*
X109533660Y-56873319D01*
X109719600Y-56812904D01*
X109929971Y-56705715D01*
X110120984Y-56566936D01*
X110287936Y-56399984D01*
X110426715Y-56208971D01*
X110533904Y-55998600D01*
X110594319Y-55812660D01*
X111728179Y-56946520D01*
X111728180Y-56946519D01*
X111829237Y-56771486D01*
X111860336Y-56699391D01*
X111934578Y-56578310D01*
X112039926Y-56483050D01*
X112167844Y-56421328D01*
X112307969Y-56398145D01*
X112448950Y-56415379D01*
X112579364Y-56471633D01*
X112688648Y-56562351D01*
X112767946Y-56680183D01*
X112776716Y-56699387D01*
X112807910Y-56771703D01*
X112807920Y-56771722D01*
X112982665Y-57074389D01*
X112982667Y-57074393D01*
X113139208Y-57284663D01*
X113191388Y-57354753D01*
X113431242Y-57608983D01*
X113698989Y-57833649D01*
X113698991Y-57833650D01*
X113991007Y-58025713D01*
X114303334Y-58182570D01*
X114303341Y-58182573D01*
X114303349Y-58182577D01*
X114631789Y-58302119D01*
X114631793Y-58302120D01*
X114631796Y-58302121D01*
X114971876Y-58382721D01*
X114971879Y-58382721D01*
X114971886Y-58382723D01*
X115242830Y-58414392D01*
X115319039Y-58423300D01*
X115319041Y-58423300D01*
X115668561Y-58423300D01*
X115725891Y-58416598D01*
X116015714Y-58382723D01*
X116276724Y-58320862D01*
X116418179Y-58308110D01*
X116557498Y-58335726D01*
X116683394Y-58401475D01*
X116785666Y-58500029D01*
X116856030Y-58623405D01*
X116888784Y-58761606D01*
X116890800Y-58806412D01*
X116890800Y-59340833D01*
X116956762Y-59428948D01*
X117006396Y-59562023D01*
X117017800Y-59668093D01*
X117017800Y-69833600D01*
X116997587Y-69974185D01*
X116938586Y-70103380D01*
X116845576Y-70210719D01*
X116726092Y-70287506D01*
X116589815Y-70327521D01*
X116518800Y-70332600D01*
X113952528Y-70332600D01*
X113811943Y-70312387D01*
X113798359Y-70308187D01*
X113699955Y-70276214D01*
X113699952Y-70276213D01*
X113524979Y-70248500D01*
X98209421Y-70248500D01*
X98049094Y-70273893D01*
X98034457Y-70276211D01*
X98034447Y-70276213D01*
X98002464Y-70286605D01*
X97936066Y-70308178D01*
X97796120Y-70332397D01*
X97781872Y-70332600D01*
X88241900Y-70332600D01*
X88101315Y-70312387D01*
X87972120Y-70253386D01*
X87864781Y-70160376D01*
X87787994Y-70040892D01*
X87747979Y-69904615D01*
X87742900Y-69833600D01*
X87742900Y-65002346D01*
X100227500Y-65002346D01*
X100227500Y-65248853D01*
X100259674Y-65493248D01*
X100259676Y-65493258D01*
X100323478Y-65731366D01*
X100417810Y-65959106D01*
X100541061Y-66172584D01*
X100541071Y-66172599D01*
X100691131Y-66368160D01*
X100865439Y-66542468D01*
X101061000Y-66692528D01*
X101061008Y-66692534D01*
X101274491Y-66815788D01*
X101502236Y-66910123D01*
X101740345Y-66973924D01*
X101740347Y-66973924D01*
X101740351Y-66973925D01*
X101890594Y-66993704D01*
X101984746Y-67006100D01*
X101984747Y-67006100D01*
X102231253Y-67006100D01*
X102231254Y-67006100D01*
X102384406Y-66985937D01*
X102475648Y-66973925D01*
X102475649Y-66973924D01*
X102475655Y-66973924D01*
X102713764Y-66910123D01*
X102941509Y-66815788D01*
X103154992Y-66692534D01*
X103350560Y-66542468D01*
X103524868Y-66368160D01*
X103674934Y-66172592D01*
X103798188Y-65959109D01*
X103892523Y-65731364D01*
X103956324Y-65493255D01*
X103988500Y-65248854D01*
X103988500Y-65002346D01*
X103956324Y-64757945D01*
X103892523Y-64519836D01*
X103798188Y-64292091D01*
X103674934Y-64078608D01*
X103641882Y-64035534D01*
X103524868Y-63883039D01*
X103350560Y-63708731D01*
X103154999Y-63558671D01*
X103154995Y-63558668D01*
X103154992Y-63558666D01*
X103154988Y-63558663D01*
X103154984Y-63558661D01*
X102941506Y-63435410D01*
X102713766Y-63341078D01*
X102713767Y-63341078D01*
X102713764Y-63341077D01*
X102626612Y-63317724D01*
X102475658Y-63277276D01*
X102475648Y-63277274D01*
X102257842Y-63248600D01*
X102231254Y-63245100D01*
X101984746Y-63245100D01*
X101960766Y-63248256D01*
X101740351Y-63277274D01*
X101740341Y-63277276D01*
X101539068Y-63331207D01*
X101502236Y-63341077D01*
X101502234Y-63341077D01*
X101502233Y-63341078D01*
X101274493Y-63435410D01*
X101061015Y-63558661D01*
X101061000Y-63558671D01*
X100865439Y-63708731D01*
X100691131Y-63883039D01*
X100541071Y-64078600D01*
X100541061Y-64078615D01*
X100417810Y-64292093D01*
X100323478Y-64519833D01*
X100259676Y-64757941D01*
X100259674Y-64757951D01*
X100227500Y-65002346D01*
X87742900Y-65002346D01*
X87742900Y-56339500D01*
X87763113Y-56198915D01*
X87822114Y-56069720D01*
X87915124Y-55962381D01*
X88034608Y-55885594D01*
X88170885Y-55845579D01*
X88241900Y-55840500D01*
X91758224Y-55840500D01*
X91758225Y-55840500D01*
X91868395Y-55828086D01*
X92037303Y-55809056D01*
X92037306Y-55809055D01*
X92037309Y-55809055D01*
X92311118Y-55746560D01*
X92576208Y-55653801D01*
X92829245Y-55531945D01*
X92829250Y-55531942D01*
X92853056Y-55516984D01*
X92982847Y-55459303D01*
X93118539Y-55440500D01*
X93405473Y-55440500D01*
X93405474Y-55440500D01*
X93678466Y-55404560D01*
X93944432Y-55333295D01*
X93951144Y-55330515D01*
X94198814Y-55227926D01*
X94198814Y-55227925D01*
X94198821Y-55227923D01*
X94437279Y-55090249D01*
X94655728Y-54922628D01*
X94850428Y-54727928D01*
X95018049Y-54509479D01*
X95155723Y-54271021D01*
X95195886Y-54174060D01*
X95261091Y-54016642D01*
X95261091Y-54016640D01*
X95261095Y-54016632D01*
X95332360Y-53750666D01*
X95368300Y-53477674D01*
X95368300Y-53202326D01*
X95347030Y-53040763D01*
X98895188Y-53040763D01*
X98895188Y-53040769D01*
X98895188Y-53040770D01*
X98895188Y-54756830D01*
X98905802Y-54876217D01*
X98961778Y-55071846D01*
X98961783Y-55071857D01*
X99055990Y-55252207D01*
X99055992Y-55252210D01*
X99184577Y-55409908D01*
X99184579Y-55409910D01*
X99334244Y-55531945D01*
X99342281Y-55538498D01*
X99522639Y-55632709D01*
X99718270Y-55688686D01*
X99837651Y-55699300D01*
X101553724Y-55699299D01*
X101673106Y-55688686D01*
X101673109Y-55688685D01*
X101893069Y-55625747D01*
X101894020Y-55629073D01*
X101991054Y-55605607D01*
X102132919Y-55612466D01*
X102185207Y-55625547D01*
X102293916Y-55659080D01*
X102560759Y-55699300D01*
X102560763Y-55699300D01*
X102830613Y-55699300D01*
X102830617Y-55699300D01*
X103097460Y-55659080D01*
X103355329Y-55579538D01*
X103598463Y-55462451D01*
X103821429Y-55310435D01*
X104019249Y-55126885D01*
X104187503Y-54915902D01*
X104322431Y-54682198D01*
X104421022Y-54430995D01*
X104481071Y-54167903D01*
X104501237Y-53898800D01*
X104481071Y-53629697D01*
X104421022Y-53366605D01*
X104380105Y-53262352D01*
X104322432Y-53115404D01*
X104322431Y-53115402D01*
X104187507Y-52881705D01*
X104187503Y-52881698D01*
X104187496Y-52881689D01*
X104019251Y-52670717D01*
X103884179Y-52545389D01*
X103821429Y-52487165D01*
X103598463Y-52335149D01*
X103515116Y-52295011D01*
X103355337Y-52218065D01*
X103355334Y-52218064D01*
X103355331Y-52218063D01*
X103355329Y-52218062D01*
X103097460Y-52138520D01*
X103097458Y-52138519D01*
X103097456Y-52138519D01*
X102991493Y-52122548D01*
X102830617Y-52098300D01*
X102560759Y-52098300D01*
X102382863Y-52125113D01*
X102293914Y-52138520D01*
X102185210Y-52172050D01*
X102044913Y-52194172D01*
X101904067Y-52175871D01*
X101887299Y-52170202D01*
X101673106Y-52108914D01*
X101553725Y-52098300D01*
X101553717Y-52098300D01*
X99837657Y-52098300D01*
X99718270Y-52108914D01*
X99522641Y-52164890D01*
X99522630Y-52164895D01*
X99342280Y-52259102D01*
X99342277Y-52259104D01*
X99184579Y-52387689D01*
X99184577Y-52387691D01*
X99055992Y-52545389D01*
X99055990Y-52545392D01*
X98961783Y-52725742D01*
X98961778Y-52725753D01*
X98917157Y-52881698D01*
X98905802Y-52921382D01*
X98895188Y-53040763D01*
X95347030Y-53040763D01*
X95332360Y-52929334D01*
X95261095Y-52663368D01*
X95261093Y-52663363D01*
X95261091Y-52663357D01*
X95155726Y-52408985D01*
X95113097Y-52335149D01*
X95018049Y-52170521D01*
X94850428Y-51952072D01*
X94655728Y-51757372D01*
X94437279Y-51589751D01*
X94198821Y-51452077D01*
X94198820Y-51452076D01*
X94198814Y-51452073D01*
X93944442Y-51346708D01*
X93944434Y-51346705D01*
X93851253Y-51321738D01*
X93720690Y-51265828D01*
X93611168Y-51175398D01*
X93531559Y-51057776D01*
X93488313Y-50922490D01*
X93484933Y-50780500D01*
X93521693Y-50643309D01*
X93595615Y-50522032D01*
X93700711Y-50426494D01*
X93828465Y-50364435D01*
X93851255Y-50357744D01*
X93944264Y-50332822D01*
X93944269Y-50332820D01*
X94198596Y-50227475D01*
X94436993Y-50089837D01*
X94436998Y-50089834D01*
X94655403Y-49922245D01*
X94850045Y-49727603D01*
X95017634Y-49509198D01*
X95017637Y-49509193D01*
X95155274Y-49270798D01*
X95230163Y-49090000D01*
X88005437Y-49090000D01*
X88080325Y-49270798D01*
X88217962Y-49509193D01*
X88217965Y-49509198D01*
X88385554Y-49727603D01*
X88580198Y-49922247D01*
X88609352Y-49944618D01*
X88708580Y-50046238D01*
X88775159Y-50171696D01*
X88803695Y-50310830D01*
X88791877Y-50452368D01*
X88740662Y-50584842D01*
X88654198Y-50697522D01*
X88539492Y-50781278D01*
X88405835Y-50829325D01*
X88305578Y-50839500D01*
X86448167Y-50839500D01*
X86169096Y-50870943D01*
X86169086Y-50870945D01*
X85895291Y-50933437D01*
X85895279Y-50933441D01*
X85630197Y-51026197D01*
X85630195Y-51026197D01*
X85630192Y-51026199D01*
X85564622Y-51057776D01*
X85377152Y-51148056D01*
X85139344Y-51297482D01*
X84919785Y-51472574D01*
X84919773Y-51472585D01*
X83349585Y-53042773D01*
X83349574Y-53042785D01*
X83174482Y-53262344D01*
X83025056Y-53500152D01*
X83025055Y-53500155D01*
X82904416Y-53750666D01*
X82903197Y-53753197D01*
X82810441Y-54018279D01*
X82810437Y-54018291D01*
X82747945Y-54292086D01*
X82747943Y-54292096D01*
X82716500Y-54571167D01*
X82716500Y-54852030D01*
X82738762Y-55049605D01*
X82741900Y-55105476D01*
X82741900Y-69833600D01*
X82721687Y-69974185D01*
X82662686Y-70103380D01*
X82569676Y-70210719D01*
X82450192Y-70287506D01*
X82313915Y-70327521D01*
X82242900Y-70332600D01*
X78130383Y-70332600D01*
X76038500Y-70349796D01*
X76035189Y-70349812D01*
X73625291Y-70353631D01*
X73484674Y-70333641D01*
X73355386Y-70274845D01*
X73247899Y-70182005D01*
X73170923Y-70062643D01*
X73130692Y-69926430D01*
X73125500Y-69854632D01*
X73125500Y-65640717D01*
X73145713Y-65500132D01*
X73204714Y-65370937D01*
X73297724Y-65263598D01*
X73331195Y-65237017D01*
X73342478Y-65228818D01*
X73342484Y-65228816D01*
X73597030Y-65043878D01*
X73826390Y-64828494D01*
X74026947Y-64586063D01*
X74195537Y-64320407D01*
X74329503Y-64035715D01*
X74426731Y-63736479D01*
X74485688Y-63427415D01*
X74485688Y-63427412D01*
X74485689Y-63427408D01*
X74505444Y-63113406D01*
X74505444Y-63113393D01*
X74485689Y-62799391D01*
X74485687Y-62799380D01*
X74426732Y-62490326D01*
X74426731Y-62490321D01*
X74329501Y-62191079D01*
X74329498Y-62191073D01*
X74195541Y-61906400D01*
X74195532Y-61906384D01*
X74026952Y-61640744D01*
X74026944Y-61640733D01*
X73962614Y-61562973D01*
X73826390Y-61398306D01*
X73597030Y-61182922D01*
X73342484Y-60997984D01*
X73342482Y-60997983D01*
X73342481Y-60997982D01*
X73342475Y-60997979D01*
X73067597Y-60846863D01*
X73066766Y-60846406D01*
X73066764Y-60846405D01*
X73066762Y-60846404D01*
X72774225Y-60730581D01*
X72774221Y-60730580D01*
X72469473Y-60652334D01*
X72469470Y-60652333D01*
X72469468Y-60652333D01*
X72157330Y-60612901D01*
X72157321Y-60612900D01*
X72157318Y-60612900D01*
X71842682Y-60612900D01*
X71842679Y-60612900D01*
X71842669Y-60612901D01*
X71530531Y-60652333D01*
X71225778Y-60730580D01*
X71225774Y-60730581D01*
X70933237Y-60846404D01*
X70657524Y-60997979D01*
X70657518Y-60997982D01*
X70402966Y-61182925D01*
X70173608Y-61398308D01*
X69973055Y-61640733D01*
X69973047Y-61640744D01*
X69804467Y-61906384D01*
X69804458Y-61906400D01*
X69670501Y-62191073D01*
X69670498Y-62191079D01*
X69573268Y-62490321D01*
X69573267Y-62490326D01*
X69514312Y-62799380D01*
X69514310Y-62799391D01*
X69494556Y-63113393D01*
X69494556Y-63113406D01*
X69514310Y-63427408D01*
X69514312Y-63427419D01*
X69573267Y-63736473D01*
X69573268Y-63736478D01*
X69670498Y-64035720D01*
X69670501Y-64035726D01*
X69804458Y-64320399D01*
X69804467Y-64320415D01*
X69973047Y-64586055D01*
X69973053Y-64586063D01*
X70173610Y-64828494D01*
X70402970Y-65043878D01*
X70657516Y-65228816D01*
X70657521Y-65228818D01*
X70668805Y-65237017D01*
X70770659Y-65336003D01*
X70840500Y-65459676D01*
X70872669Y-65598015D01*
X70874500Y-65640717D01*
X70874500Y-69790674D01*
X70854287Y-69931259D01*
X70795286Y-70060454D01*
X70702276Y-70167793D01*
X70582792Y-70244580D01*
X70446515Y-70284595D01*
X70304485Y-70284595D01*
X70168208Y-70244580D01*
X70048724Y-70167793D01*
X70022654Y-70143520D01*
X69963392Y-70084258D01*
X69821397Y-69977963D01*
X69734315Y-69912774D01*
X69734313Y-69912773D01*
X69734312Y-69912772D01*
X69483161Y-69775633D01*
X69215043Y-69675629D01*
X68935436Y-69614805D01*
X68935430Y-69614804D01*
X68935428Y-69614804D01*
X68650000Y-69594390D01*
X68364572Y-69614804D01*
X68364569Y-69614804D01*
X68364563Y-69614805D01*
X68084956Y-69675629D01*
X67816838Y-69775633D01*
X67565687Y-69912772D01*
X67565682Y-69912776D01*
X67336606Y-70084258D01*
X67202650Y-70218215D01*
X67088949Y-70303331D01*
X66955873Y-70352965D01*
X66850596Y-70364367D01*
X63955574Y-70368955D01*
X63814957Y-70348965D01*
X63685669Y-70290169D01*
X63601938Y-70222803D01*
X63463393Y-70084258D01*
X63252557Y-69926430D01*
X63234315Y-69912774D01*
X63234313Y-69912773D01*
X63234312Y-69912772D01*
X62983161Y-69775633D01*
X62715043Y-69675629D01*
X62435436Y-69614805D01*
X62435430Y-69614804D01*
X62435428Y-69614804D01*
X62150000Y-69594390D01*
X61864572Y-69614804D01*
X61864569Y-69614804D01*
X61864563Y-69614805D01*
X61584956Y-69675629D01*
X61316838Y-69775633D01*
X61065687Y-69912772D01*
X61065682Y-69912776D01*
X60836597Y-70084266D01*
X60835388Y-70085314D01*
X60834042Y-70086178D01*
X60822336Y-70094942D01*
X60821709Y-70094104D01*
X60715904Y-70162100D01*
X60579626Y-70202112D01*
X60437596Y-70202110D01*
X60301319Y-70162093D01*
X60181837Y-70085304D01*
X60088829Y-69977963D01*
X60029830Y-69848767D01*
X60009619Y-69708188D01*
X60010537Y-65330515D01*
X62843543Y-65330515D01*
X62933448Y-65379940D01*
X63225929Y-65495741D01*
X63530622Y-65573974D01*
X63530626Y-65573975D01*
X63842700Y-65613398D01*
X63842716Y-65613400D01*
X64157284Y-65613400D01*
X64157299Y-65613398D01*
X64469373Y-65573975D01*
X64469377Y-65573974D01*
X64774070Y-65495741D01*
X64774079Y-65495738D01*
X65066548Y-65379941D01*
X65066558Y-65379936D01*
X65156455Y-65330514D01*
X64000001Y-64174060D01*
X62843543Y-65330515D01*
X60010537Y-65330515D01*
X60011002Y-63113393D01*
X61495057Y-63113393D01*
X61495057Y-63113406D01*
X61514807Y-63427346D01*
X61514809Y-63427357D01*
X61573752Y-63736348D01*
X61670964Y-64035532D01*
X61670965Y-64035537D01*
X61781756Y-64270980D01*
X62939339Y-63113399D01*
X62840849Y-63014909D01*
X63000000Y-63014909D01*
X63000000Y-63211891D01*
X63038429Y-63405089D01*
X63113811Y-63587078D01*
X63223249Y-63750863D01*
X63362537Y-63890151D01*
X63526322Y-63999589D01*
X63708311Y-64074971D01*
X63901509Y-64113400D01*
X64098491Y-64113400D01*
X64291689Y-64074971D01*
X64473678Y-63999589D01*
X64637463Y-63890151D01*
X64776751Y-63750863D01*
X64886189Y-63587078D01*
X64961571Y-63405089D01*
X65000000Y-63211891D01*
X65000000Y-63113399D01*
X65060660Y-63113399D01*
X66218242Y-64270980D01*
X66329034Y-64035535D01*
X66329035Y-64035534D01*
X66426247Y-63736348D01*
X66485190Y-63427357D01*
X66485192Y-63427346D01*
X66504943Y-63113406D01*
X66504943Y-63113393D01*
X66485192Y-62799453D01*
X66485190Y-62799442D01*
X66426247Y-62490451D01*
X66329038Y-62191273D01*
X66329036Y-62191269D01*
X66218241Y-61955818D01*
X65060660Y-63113399D01*
X65000000Y-63113399D01*
X65000000Y-63014909D01*
X64961571Y-62821711D01*
X64886189Y-62639722D01*
X64776751Y-62475937D01*
X64637463Y-62336649D01*
X64473678Y-62227211D01*
X64291689Y-62151829D01*
X64098491Y-62113400D01*
X63901509Y-62113400D01*
X63708311Y-62151829D01*
X63526322Y-62227211D01*
X63362537Y-62336649D01*
X63223249Y-62475937D01*
X63113811Y-62639722D01*
X63038429Y-62821711D01*
X63000000Y-63014909D01*
X62840849Y-63014909D01*
X61781757Y-61955817D01*
X61781756Y-61955817D01*
X61670968Y-62191255D01*
X61670964Y-62191267D01*
X61573752Y-62490451D01*
X61514809Y-62799442D01*
X61514807Y-62799453D01*
X61495057Y-63113393D01*
X60011002Y-63113393D01*
X60011467Y-60896284D01*
X62843544Y-60896284D01*
X64000000Y-62052739D01*
X65156455Y-60896284D01*
X65156454Y-60896283D01*
X65066560Y-60846863D01*
X65066554Y-60846860D01*
X64774068Y-60731057D01*
X64469377Y-60652825D01*
X64469373Y-60652824D01*
X64157299Y-60613401D01*
X64157284Y-60613400D01*
X63842716Y-60613400D01*
X63842700Y-60613401D01*
X63530626Y-60652824D01*
X63530622Y-60652825D01*
X63225931Y-60731057D01*
X62933445Y-60846860D01*
X62843544Y-60896284D01*
X60011467Y-60896284D01*
X60012634Y-55330515D01*
X62843543Y-55330515D01*
X62933448Y-55379940D01*
X63225929Y-55495741D01*
X63530622Y-55573974D01*
X63530626Y-55573975D01*
X63842700Y-55613398D01*
X63842716Y-55613400D01*
X64157284Y-55613400D01*
X64157299Y-55613398D01*
X64469373Y-55573975D01*
X64469377Y-55573974D01*
X64774070Y-55495741D01*
X64774079Y-55495738D01*
X65066548Y-55379941D01*
X65066558Y-55379936D01*
X65156455Y-55330514D01*
X64000001Y-54174060D01*
X62843543Y-55330515D01*
X60012634Y-55330515D01*
X60013099Y-53113393D01*
X61495057Y-53113393D01*
X61495057Y-53113406D01*
X61514807Y-53427346D01*
X61514809Y-53427357D01*
X61573752Y-53736348D01*
X61670964Y-54035532D01*
X61670965Y-54035537D01*
X61781756Y-54270980D01*
X62939339Y-53113399D01*
X62840849Y-53014909D01*
X63000000Y-53014909D01*
X63000000Y-53211891D01*
X63038429Y-53405089D01*
X63113811Y-53587078D01*
X63223249Y-53750863D01*
X63362537Y-53890151D01*
X63526322Y-53999589D01*
X63708311Y-54074971D01*
X63901509Y-54113400D01*
X64098491Y-54113400D01*
X64291689Y-54074971D01*
X64473678Y-53999589D01*
X64637463Y-53890151D01*
X64776751Y-53750863D01*
X64886189Y-53587078D01*
X64961571Y-53405089D01*
X65000000Y-53211891D01*
X65000000Y-53113399D01*
X65060660Y-53113399D01*
X66218242Y-54270980D01*
X66329034Y-54035535D01*
X66329035Y-54035534D01*
X66426247Y-53736348D01*
X66485190Y-53427357D01*
X66485192Y-53427346D01*
X66504943Y-53113406D01*
X66504943Y-53113393D01*
X69494556Y-53113393D01*
X69494556Y-53113406D01*
X69514310Y-53427408D01*
X69514312Y-53427419D01*
X69573267Y-53736473D01*
X69573268Y-53736478D01*
X69670498Y-54035720D01*
X69670501Y-54035726D01*
X69804458Y-54320399D01*
X69804467Y-54320415D01*
X69973047Y-54586055D01*
X69973055Y-54586066D01*
X70052582Y-54682197D01*
X70173610Y-54828494D01*
X70402970Y-55043878D01*
X70657516Y-55228816D01*
X70933234Y-55380394D01*
X71225775Y-55496219D01*
X71530527Y-55574466D01*
X71842682Y-55613900D01*
X71842685Y-55613900D01*
X72157315Y-55613900D01*
X72157318Y-55613900D01*
X72469473Y-55574466D01*
X72774225Y-55496219D01*
X73066766Y-55380394D01*
X73342484Y-55228816D01*
X73597030Y-55043878D01*
X73826390Y-54828494D01*
X74026947Y-54586063D01*
X74148198Y-54395001D01*
X74195532Y-54320415D01*
X74195532Y-54320413D01*
X74195537Y-54320407D01*
X74218777Y-54271021D01*
X74329498Y-54035726D01*
X74329501Y-54035720D01*
X74329561Y-54035537D01*
X74426731Y-53736479D01*
X74485688Y-53427415D01*
X74485688Y-53427412D01*
X74485689Y-53427408D01*
X74505444Y-53113406D01*
X74505444Y-53113393D01*
X74485689Y-52799391D01*
X74485687Y-52799380D01*
X74426732Y-52490326D01*
X74426731Y-52490321D01*
X74329501Y-52191079D01*
X74329498Y-52191073D01*
X74195541Y-51906400D01*
X74195532Y-51906384D01*
X74026952Y-51640744D01*
X74026944Y-51640733D01*
X73870870Y-51452073D01*
X73826390Y-51398306D01*
X73597030Y-51182922D01*
X73342484Y-50997984D01*
X73342482Y-50997983D01*
X73342481Y-50997982D01*
X73342475Y-50997979D01*
X73225074Y-50933437D01*
X73066766Y-50846406D01*
X73066764Y-50846405D01*
X73066762Y-50846404D01*
X72774225Y-50730581D01*
X72774221Y-50730580D01*
X72469473Y-50652334D01*
X72469470Y-50652333D01*
X72469468Y-50652333D01*
X72157330Y-50612901D01*
X72157321Y-50612900D01*
X72157318Y-50612900D01*
X71842682Y-50612900D01*
X71842679Y-50612900D01*
X71842669Y-50612901D01*
X71530531Y-50652333D01*
X71225778Y-50730580D01*
X71225774Y-50730581D01*
X70933237Y-50846404D01*
X70657524Y-50997979D01*
X70657518Y-50997982D01*
X70402966Y-51182925D01*
X70173608Y-51398308D01*
X69973055Y-51640733D01*
X69973047Y-51640744D01*
X69804467Y-51906384D01*
X69804458Y-51906400D01*
X69670501Y-52191073D01*
X69670498Y-52191079D01*
X69573268Y-52490321D01*
X69573267Y-52490326D01*
X69514312Y-52799380D01*
X69514310Y-52799391D01*
X69494556Y-53113393D01*
X66504943Y-53113393D01*
X66485192Y-52799453D01*
X66485190Y-52799442D01*
X66426247Y-52490451D01*
X66329038Y-52191273D01*
X66329036Y-52191269D01*
X66218241Y-51955818D01*
X65060660Y-53113399D01*
X65000000Y-53113399D01*
X65000000Y-53014909D01*
X64961571Y-52821711D01*
X64886189Y-52639722D01*
X64776751Y-52475937D01*
X64637463Y-52336649D01*
X64473678Y-52227211D01*
X64291689Y-52151829D01*
X64098491Y-52113400D01*
X63901509Y-52113400D01*
X63708311Y-52151829D01*
X63526322Y-52227211D01*
X63362537Y-52336649D01*
X63223249Y-52475937D01*
X63113811Y-52639722D01*
X63038429Y-52821711D01*
X63000000Y-53014909D01*
X62840849Y-53014909D01*
X61781757Y-51955817D01*
X61781756Y-51955817D01*
X61670968Y-52191255D01*
X61670964Y-52191267D01*
X61573752Y-52490451D01*
X61514809Y-52799442D01*
X61514807Y-52799453D01*
X61495057Y-53113393D01*
X60013099Y-53113393D01*
X60013564Y-50896284D01*
X62843544Y-50896284D01*
X64000000Y-52052739D01*
X65156455Y-50896284D01*
X65156454Y-50896283D01*
X65066560Y-50846863D01*
X65066554Y-50846860D01*
X64774068Y-50731057D01*
X64469377Y-50652825D01*
X64469373Y-50652824D01*
X64157299Y-50613401D01*
X64157284Y-50613400D01*
X63842716Y-50613400D01*
X63842700Y-50613401D01*
X63530626Y-50652824D01*
X63530622Y-50652825D01*
X63225931Y-50731057D01*
X62933445Y-50846860D01*
X62843544Y-50896284D01*
X60013564Y-50896284D01*
X60014116Y-48261009D01*
X89367800Y-48261009D01*
X89367800Y-48418991D01*
X89408689Y-48571591D01*
X89487681Y-48708408D01*
X89599392Y-48820119D01*
X89736209Y-48899111D01*
X89888809Y-48940000D01*
X93346791Y-48940000D01*
X93499391Y-48899111D01*
X93636208Y-48820119D01*
X93747919Y-48708408D01*
X93826911Y-48571591D01*
X93867800Y-48418991D01*
X93867800Y-48261009D01*
X93826911Y-48108409D01*
X93747919Y-47971592D01*
X93636208Y-47859881D01*
X93499391Y-47780889D01*
X93346791Y-47740000D01*
X89888809Y-47740000D01*
X89736209Y-47780889D01*
X89599392Y-47859881D01*
X89487681Y-47971592D01*
X89408689Y-48108409D01*
X89367800Y-48261009D01*
X60014116Y-48261009D01*
X60014257Y-47589999D01*
X88005436Y-47589999D01*
X88005437Y-47590000D01*
X90867800Y-47590000D01*
X92367800Y-47590000D01*
X95230163Y-47590000D01*
X95230163Y-47589999D01*
X95155274Y-47409201D01*
X95017637Y-47170806D01*
X95017634Y-47170801D01*
X94952560Y-47085996D01*
X98997288Y-47085996D01*
X99007897Y-47205329D01*
X99063846Y-47400862D01*
X99063848Y-47400868D01*
X99158008Y-47581127D01*
X99158010Y-47581131D01*
X99286534Y-47738753D01*
X99444156Y-47867277D01*
X99444160Y-47867279D01*
X99624419Y-47961439D01*
X99624425Y-47961441D01*
X99819958Y-48017390D01*
X99939291Y-48028000D01*
X100047288Y-48028000D01*
X100047288Y-46978000D01*
X98997288Y-46978000D01*
X98997288Y-47085996D01*
X94952560Y-47085996D01*
X94850045Y-46952396D01*
X94655403Y-46757754D01*
X94436998Y-46590165D01*
X94436993Y-46590162D01*
X94198596Y-46452524D01*
X93944271Y-46347180D01*
X93678367Y-46275930D01*
X93678361Y-46275929D01*
X93405441Y-46240000D01*
X92367800Y-46240000D01*
X92367800Y-47590000D01*
X90867800Y-47590000D01*
X90867800Y-46240000D01*
X89830159Y-46240000D01*
X89557238Y-46275929D01*
X89557232Y-46275930D01*
X89291328Y-46347180D01*
X89037003Y-46452524D01*
X88798606Y-46590162D01*
X88798601Y-46590165D01*
X88580196Y-46757754D01*
X88385554Y-46952396D01*
X88217965Y-47170801D01*
X88217962Y-47170806D01*
X88080325Y-47409201D01*
X88005436Y-47589999D01*
X60014257Y-47589999D01*
X60014554Y-46175339D01*
X100397288Y-46175339D01*
X100397288Y-46280661D01*
X100424547Y-46382394D01*
X100477208Y-46473606D01*
X100551682Y-46548080D01*
X100642894Y-46600741D01*
X100744627Y-46628000D01*
X100849949Y-46628000D01*
X100951682Y-46600741D01*
X101025793Y-46557952D01*
X101071955Y-46760200D01*
X101170543Y-47011395D01*
X101170544Y-47011397D01*
X101282510Y-47205329D01*
X101305473Y-47245102D01*
X101438422Y-47411815D01*
X101510271Y-47534328D01*
X101544694Y-47672124D01*
X101547288Y-47722935D01*
X101547288Y-48028000D01*
X101655285Y-48028000D01*
X101774617Y-48017390D01*
X101994480Y-47954480D01*
X101995456Y-47957891D01*
X102091894Y-47934570D01*
X102233759Y-47941431D01*
X102286041Y-47954511D01*
X102395516Y-47988280D01*
X102662359Y-48028500D01*
X102662363Y-48028500D01*
X102932213Y-48028500D01*
X102932217Y-48028500D01*
X103199060Y-47988280D01*
X103456929Y-47908738D01*
X103700063Y-47791651D01*
X103923029Y-47639635D01*
X104120849Y-47456085D01*
X104289103Y-47245102D01*
X104424031Y-47011398D01*
X104522622Y-46760195D01*
X104582671Y-46497103D01*
X104602837Y-46228000D01*
X104582671Y-45958897D01*
X104522622Y-45695805D01*
X104490476Y-45613900D01*
X104424032Y-45444604D01*
X104424031Y-45444602D01*
X104289107Y-45210905D01*
X104289103Y-45210898D01*
X104289096Y-45210889D01*
X104120851Y-44999917D01*
X103986084Y-44874872D01*
X103923029Y-44816365D01*
X103700063Y-44664349D01*
X103616716Y-44624211D01*
X103456937Y-44547265D01*
X103456934Y-44547264D01*
X103456931Y-44547263D01*
X103456929Y-44547262D01*
X103199060Y-44467720D01*
X103199058Y-44467719D01*
X103199056Y-44467719D01*
X103093093Y-44451748D01*
X102932217Y-44427500D01*
X102662359Y-44427500D01*
X102561993Y-44442627D01*
X102395516Y-44467719D01*
X102286047Y-44501486D01*
X102145751Y-44523608D01*
X102004904Y-44505308D01*
X101989386Y-44500062D01*
X101774617Y-44438609D01*
X101655285Y-44428000D01*
X101547288Y-44428000D01*
X101547288Y-44733065D01*
X101527075Y-44873650D01*
X101468074Y-45002845D01*
X101438427Y-45044179D01*
X101429694Y-45055131D01*
X101305474Y-45210896D01*
X101305468Y-45210905D01*
X101170544Y-45444602D01*
X101170543Y-45444604D01*
X101071955Y-45695799D01*
X101025793Y-45898047D01*
X100951682Y-45855259D01*
X100849949Y-45828000D01*
X100744627Y-45828000D01*
X100642894Y-45855259D01*
X100551682Y-45907920D01*
X100477208Y-45982394D01*
X100424547Y-46073606D01*
X100397288Y-46175339D01*
X60014554Y-46175339D01*
X60014731Y-45330515D01*
X62843543Y-45330515D01*
X62933448Y-45379940D01*
X63225929Y-45495741D01*
X63530622Y-45573974D01*
X63530626Y-45573975D01*
X63842700Y-45613398D01*
X63842716Y-45613400D01*
X64157284Y-45613400D01*
X64157299Y-45613398D01*
X64469373Y-45573975D01*
X64469377Y-45573974D01*
X64774070Y-45495741D01*
X64774079Y-45495738D01*
X65066548Y-45379941D01*
X65066558Y-45379936D01*
X65156455Y-45330514D01*
X64000001Y-44174060D01*
X62843543Y-45330515D01*
X60014731Y-45330515D01*
X60015196Y-43113393D01*
X61495057Y-43113393D01*
X61495057Y-43113406D01*
X61514807Y-43427346D01*
X61514809Y-43427357D01*
X61573752Y-43736348D01*
X61670964Y-44035532D01*
X61670965Y-44035537D01*
X61781756Y-44270980D01*
X62939339Y-43113399D01*
X62840849Y-43014909D01*
X63000000Y-43014909D01*
X63000000Y-43211891D01*
X63038429Y-43405089D01*
X63113811Y-43587078D01*
X63223249Y-43750863D01*
X63362537Y-43890151D01*
X63526322Y-43999589D01*
X63708311Y-44074971D01*
X63901509Y-44113400D01*
X64098491Y-44113400D01*
X64291689Y-44074971D01*
X64473678Y-43999589D01*
X64637463Y-43890151D01*
X64776751Y-43750863D01*
X64886189Y-43587078D01*
X64961571Y-43405089D01*
X65000000Y-43211891D01*
X65000000Y-43113399D01*
X65060660Y-43113399D01*
X66218242Y-44270980D01*
X66329034Y-44035535D01*
X66329035Y-44035534D01*
X66426247Y-43736348D01*
X66485190Y-43427357D01*
X66485192Y-43427346D01*
X66504943Y-43113406D01*
X66504943Y-43113393D01*
X69494556Y-43113393D01*
X69494556Y-43113406D01*
X69514310Y-43427408D01*
X69514312Y-43427419D01*
X69573267Y-43736473D01*
X69573268Y-43736478D01*
X69670498Y-44035720D01*
X69670501Y-44035726D01*
X69804458Y-44320399D01*
X69804467Y-44320415D01*
X69973047Y-44586055D01*
X69973055Y-44586066D01*
X70037816Y-44664348D01*
X70173610Y-44828494D01*
X70402970Y-45043878D01*
X70657516Y-45228816D01*
X70933234Y-45380394D01*
X71225775Y-45496219D01*
X71530527Y-45574466D01*
X71842682Y-45613900D01*
X71842685Y-45613900D01*
X72157315Y-45613900D01*
X72157318Y-45613900D01*
X72469473Y-45574466D01*
X72774225Y-45496219D01*
X73066766Y-45380394D01*
X73085667Y-45370003D01*
X98997288Y-45370003D01*
X98997288Y-45478000D01*
X100047288Y-45478000D01*
X100047288Y-44428000D01*
X99939291Y-44428000D01*
X99819958Y-44438609D01*
X99624425Y-44494558D01*
X99624419Y-44494560D01*
X99444160Y-44588720D01*
X99444156Y-44588722D01*
X99286534Y-44717246D01*
X99158010Y-44874868D01*
X99158008Y-44874872D01*
X99063848Y-45055131D01*
X99063846Y-45055137D01*
X99007897Y-45250670D01*
X98997288Y-45370003D01*
X73085667Y-45370003D01*
X73342484Y-45228816D01*
X73597030Y-45043878D01*
X73826390Y-44828494D01*
X74026947Y-44586063D01*
X74195537Y-44320407D01*
X74329503Y-44035715D01*
X74426731Y-43736479D01*
X74485688Y-43427415D01*
X74485688Y-43427412D01*
X74485689Y-43427408D01*
X74505444Y-43113406D01*
X74505444Y-43113393D01*
X74485689Y-42799391D01*
X74485687Y-42799380D01*
X74426732Y-42490326D01*
X74426731Y-42490321D01*
X74329501Y-42191079D01*
X74329498Y-42191073D01*
X74195541Y-41906400D01*
X74195532Y-41906384D01*
X74026952Y-41640744D01*
X74026944Y-41640733D01*
X73962614Y-41562973D01*
X73826390Y-41398306D01*
X73597030Y-41182922D01*
X73342484Y-40997984D01*
X73342482Y-40997983D01*
X73342481Y-40997982D01*
X73342475Y-40997979D01*
X73067597Y-40846863D01*
X73066766Y-40846406D01*
X73066764Y-40846405D01*
X73066762Y-40846404D01*
X72774225Y-40730581D01*
X72774221Y-40730580D01*
X72469473Y-40652334D01*
X72469470Y-40652333D01*
X72469468Y-40652333D01*
X72157330Y-40612901D01*
X72157321Y-40612900D01*
X72157318Y-40612900D01*
X71842682Y-40612900D01*
X71842679Y-40612900D01*
X71842669Y-40612901D01*
X71530531Y-40652333D01*
X71225778Y-40730580D01*
X71225774Y-40730581D01*
X70933237Y-40846404D01*
X70657524Y-40997979D01*
X70657518Y-40997982D01*
X70402966Y-41182925D01*
X70173608Y-41398308D01*
X69973055Y-41640733D01*
X69973047Y-41640744D01*
X69804467Y-41906384D01*
X69804458Y-41906400D01*
X69670501Y-42191073D01*
X69670498Y-42191079D01*
X69573268Y-42490321D01*
X69573267Y-42490326D01*
X69514312Y-42799380D01*
X69514310Y-42799391D01*
X69494556Y-43113393D01*
X66504943Y-43113393D01*
X66485192Y-42799453D01*
X66485190Y-42799442D01*
X66426247Y-42490451D01*
X66329038Y-42191273D01*
X66329036Y-42191269D01*
X66218241Y-41955818D01*
X65060660Y-43113399D01*
X65000000Y-43113399D01*
X65000000Y-43014909D01*
X64961571Y-42821711D01*
X64886189Y-42639722D01*
X64776751Y-42475937D01*
X64637463Y-42336649D01*
X64473678Y-42227211D01*
X64291689Y-42151829D01*
X64098491Y-42113400D01*
X63901509Y-42113400D01*
X63708311Y-42151829D01*
X63526322Y-42227211D01*
X63362537Y-42336649D01*
X63223249Y-42475937D01*
X63113811Y-42639722D01*
X63038429Y-42821711D01*
X63000000Y-43014909D01*
X62840849Y-43014909D01*
X61781757Y-41955817D01*
X61781756Y-41955817D01*
X61670968Y-42191255D01*
X61670964Y-42191267D01*
X61573752Y-42490451D01*
X61514809Y-42799442D01*
X61514807Y-42799453D01*
X61495057Y-43113393D01*
X60015196Y-43113393D01*
X60015661Y-40896284D01*
X62843544Y-40896284D01*
X64000000Y-42052739D01*
X65156455Y-40896284D01*
X65156454Y-40896283D01*
X65066560Y-40846863D01*
X65066554Y-40846860D01*
X64774068Y-40731057D01*
X64469377Y-40652825D01*
X64469373Y-40652824D01*
X64157299Y-40613401D01*
X64157284Y-40613400D01*
X63842716Y-40613400D01*
X63842700Y-40613401D01*
X63530626Y-40652824D01*
X63530622Y-40652825D01*
X63225931Y-40731057D01*
X62933445Y-40846860D01*
X62843544Y-40896284D01*
X60015661Y-40896284D01*
X60016571Y-36554346D01*
X79755100Y-36554346D01*
X79755100Y-36800853D01*
X79787274Y-37045248D01*
X79787276Y-37045258D01*
X79851078Y-37283366D01*
X79945410Y-37511106D01*
X80068661Y-37724584D01*
X80068671Y-37724599D01*
X80218731Y-37920160D01*
X80393039Y-38094468D01*
X80588600Y-38244528D01*
X80588608Y-38244534D01*
X80802091Y-38367788D01*
X81029836Y-38462123D01*
X81267945Y-38525924D01*
X81267947Y-38525924D01*
X81267951Y-38525925D01*
X81418194Y-38545704D01*
X81512346Y-38558100D01*
X81512347Y-38558100D01*
X81758853Y-38558100D01*
X81758854Y-38558100D01*
X81912006Y-38537937D01*
X82003248Y-38525925D01*
X82003249Y-38525924D01*
X82003255Y-38525924D01*
X82241364Y-38462123D01*
X82469109Y-38367788D01*
X82682592Y-38244534D01*
X82878160Y-38094468D01*
X83052468Y-37920160D01*
X83202534Y-37724592D01*
X83325788Y-37511109D01*
X83420123Y-37283364D01*
X83483924Y-37045255D01*
X83516100Y-36800854D01*
X83516100Y-36554346D01*
X83483924Y-36309945D01*
X83420123Y-36071836D01*
X83325788Y-35844091D01*
X83202534Y-35630608D01*
X83202528Y-35630600D01*
X83052468Y-35435039D01*
X82878160Y-35260731D01*
X82682599Y-35110671D01*
X82682595Y-35110668D01*
X82682592Y-35110666D01*
X82682588Y-35110663D01*
X82682584Y-35110661D01*
X82469106Y-34987410D01*
X82241366Y-34893078D01*
X82241367Y-34893078D01*
X82241364Y-34893077D01*
X82154212Y-34869724D01*
X82003258Y-34829276D01*
X82003248Y-34829274D01*
X81785442Y-34800600D01*
X81758854Y-34797100D01*
X81512346Y-34797100D01*
X81488366Y-34800256D01*
X81267951Y-34829274D01*
X81267941Y-34829276D01*
X81066668Y-34883207D01*
X81029836Y-34893077D01*
X81029834Y-34893077D01*
X81029833Y-34893078D01*
X80802093Y-34987410D01*
X80588615Y-35110661D01*
X80588600Y-35110671D01*
X80393039Y-35260731D01*
X80218731Y-35435039D01*
X80068671Y-35630600D01*
X80068661Y-35630615D01*
X79945410Y-35844093D01*
X79851078Y-36071833D01*
X79787276Y-36309941D01*
X79787274Y-36309951D01*
X79755100Y-36554346D01*
X60016571Y-36554346D01*
X60016828Y-35330515D01*
X62843543Y-35330515D01*
X62933448Y-35379940D01*
X63225929Y-35495741D01*
X63530622Y-35573974D01*
X63530626Y-35573975D01*
X63842700Y-35613398D01*
X63842716Y-35613400D01*
X64157284Y-35613400D01*
X64157299Y-35613398D01*
X64469373Y-35573975D01*
X64469377Y-35573974D01*
X64774070Y-35495741D01*
X64774079Y-35495738D01*
X65066548Y-35379941D01*
X65066558Y-35379936D01*
X65156455Y-35330514D01*
X64000001Y-34174060D01*
X62843543Y-35330515D01*
X60016828Y-35330515D01*
X60017293Y-33113393D01*
X61495057Y-33113393D01*
X61495057Y-33113406D01*
X61514807Y-33427346D01*
X61514809Y-33427357D01*
X61573752Y-33736348D01*
X61670964Y-34035532D01*
X61670965Y-34035537D01*
X61781756Y-34270980D01*
X62939339Y-33113399D01*
X62840849Y-33014909D01*
X63000000Y-33014909D01*
X63000000Y-33211891D01*
X63038429Y-33405089D01*
X63113811Y-33587078D01*
X63223249Y-33750863D01*
X63362537Y-33890151D01*
X63526322Y-33999589D01*
X63708311Y-34074971D01*
X63901509Y-34113400D01*
X64098491Y-34113400D01*
X64291689Y-34074971D01*
X64473678Y-33999589D01*
X64637463Y-33890151D01*
X64776751Y-33750863D01*
X64886189Y-33587078D01*
X64961571Y-33405089D01*
X65000000Y-33211891D01*
X65000000Y-33113399D01*
X65060660Y-33113399D01*
X66218242Y-34270980D01*
X66329034Y-34035535D01*
X66329035Y-34035534D01*
X66426247Y-33736348D01*
X66485190Y-33427357D01*
X66485192Y-33427346D01*
X66504943Y-33113406D01*
X66504943Y-33113393D01*
X69494556Y-33113393D01*
X69494556Y-33113406D01*
X69514310Y-33427408D01*
X69514312Y-33427419D01*
X69573267Y-33736473D01*
X69573268Y-33736478D01*
X69670498Y-34035720D01*
X69670501Y-34035726D01*
X69804458Y-34320399D01*
X69804467Y-34320415D01*
X69973047Y-34586055D01*
X69973053Y-34586063D01*
X70173610Y-34828494D01*
X70402970Y-35043878D01*
X70657516Y-35228816D01*
X70933234Y-35380394D01*
X71225775Y-35496219D01*
X71530527Y-35574466D01*
X71842682Y-35613900D01*
X71842685Y-35613900D01*
X72157315Y-35613900D01*
X72157318Y-35613900D01*
X72469473Y-35574466D01*
X72774225Y-35496219D01*
X73066766Y-35380394D01*
X73342484Y-35228816D01*
X73597030Y-35043878D01*
X73826390Y-34828494D01*
X74026947Y-34586063D01*
X74195537Y-34320407D01*
X74329503Y-34035715D01*
X74426731Y-33736479D01*
X74485688Y-33427415D01*
X74485688Y-33427412D01*
X74485689Y-33427408D01*
X74505444Y-33113406D01*
X74505444Y-33113393D01*
X74485689Y-32799391D01*
X74485687Y-32799380D01*
X74426732Y-32490326D01*
X74426731Y-32490321D01*
X74329501Y-32191079D01*
X74329498Y-32191073D01*
X74195541Y-31906400D01*
X74195532Y-31906384D01*
X74026952Y-31640744D01*
X74026944Y-31640733D01*
X73962614Y-31562973D01*
X73826390Y-31398306D01*
X73597030Y-31182922D01*
X73342484Y-30997984D01*
X73342482Y-30997983D01*
X73342481Y-30997982D01*
X73342475Y-30997979D01*
X73067597Y-30846863D01*
X73066766Y-30846406D01*
X73066764Y-30846405D01*
X73066762Y-30846404D01*
X72774225Y-30730581D01*
X72774221Y-30730580D01*
X72469473Y-30652334D01*
X72469470Y-30652333D01*
X72469468Y-30652333D01*
X72157330Y-30612901D01*
X72157321Y-30612900D01*
X72157318Y-30612900D01*
X71842682Y-30612900D01*
X71842679Y-30612900D01*
X71842669Y-30612901D01*
X71530531Y-30652333D01*
X71225778Y-30730580D01*
X71225774Y-30730581D01*
X70933237Y-30846404D01*
X70657524Y-30997979D01*
X70657518Y-30997982D01*
X70402966Y-31182925D01*
X70173608Y-31398308D01*
X69973055Y-31640733D01*
X69973047Y-31640744D01*
X69804467Y-31906384D01*
X69804458Y-31906400D01*
X69670501Y-32191073D01*
X69670498Y-32191079D01*
X69573268Y-32490321D01*
X69573267Y-32490326D01*
X69514312Y-32799380D01*
X69514310Y-32799391D01*
X69494556Y-33113393D01*
X66504943Y-33113393D01*
X66485192Y-32799453D01*
X66485190Y-32799442D01*
X66426247Y-32490451D01*
X66329038Y-32191273D01*
X66329036Y-32191269D01*
X66218241Y-31955818D01*
X65060660Y-33113399D01*
X65000000Y-33113399D01*
X65000000Y-33014909D01*
X64961571Y-32821711D01*
X64886189Y-32639722D01*
X64776751Y-32475937D01*
X64637463Y-32336649D01*
X64473678Y-32227211D01*
X64291689Y-32151829D01*
X64098491Y-32113400D01*
X63901509Y-32113400D01*
X63708311Y-32151829D01*
X63526322Y-32227211D01*
X63362537Y-32336649D01*
X63223249Y-32475937D01*
X63113811Y-32639722D01*
X63038429Y-32821711D01*
X63000000Y-33014909D01*
X62840849Y-33014909D01*
X61781757Y-31955817D01*
X61781756Y-31955817D01*
X61670968Y-32191255D01*
X61670964Y-32191267D01*
X61573752Y-32490451D01*
X61514809Y-32799442D01*
X61514807Y-32799453D01*
X61495057Y-33113393D01*
X60017293Y-33113393D01*
X60017758Y-30896284D01*
X62843544Y-30896284D01*
X64000000Y-32052739D01*
X65156455Y-30896284D01*
X65156454Y-30896283D01*
X65066560Y-30846863D01*
X65066554Y-30846860D01*
X64774068Y-30731057D01*
X64469377Y-30652825D01*
X64469373Y-30652824D01*
X64157299Y-30613401D01*
X64157284Y-30613400D01*
X63842716Y-30613400D01*
X63842700Y-30613401D01*
X63530626Y-30652824D01*
X63530622Y-30652825D01*
X63225931Y-30731057D01*
X62933445Y-30846860D01*
X62843544Y-30896284D01*
X60017758Y-30896284D01*
X60018925Y-25330515D01*
X62843543Y-25330515D01*
X62933448Y-25379940D01*
X63225929Y-25495741D01*
X63530622Y-25573974D01*
X63530626Y-25573975D01*
X63842700Y-25613398D01*
X63842716Y-25613400D01*
X64157284Y-25613400D01*
X64157299Y-25613398D01*
X64469373Y-25573975D01*
X64469377Y-25573974D01*
X64774070Y-25495741D01*
X64774079Y-25495738D01*
X65066548Y-25379941D01*
X65066558Y-25379936D01*
X65156455Y-25330514D01*
X64000001Y-24174060D01*
X62843543Y-25330515D01*
X60018925Y-25330515D01*
X60019390Y-23113393D01*
X61495057Y-23113393D01*
X61495057Y-23113406D01*
X61514807Y-23427346D01*
X61514809Y-23427357D01*
X61573752Y-23736348D01*
X61670964Y-24035532D01*
X61670965Y-24035537D01*
X61781756Y-24270980D01*
X62939339Y-23113399D01*
X62840849Y-23014909D01*
X63000000Y-23014909D01*
X63000000Y-23211891D01*
X63038429Y-23405089D01*
X63113811Y-23587078D01*
X63223249Y-23750863D01*
X63362537Y-23890151D01*
X63526322Y-23999589D01*
X63708311Y-24074971D01*
X63901509Y-24113400D01*
X64098491Y-24113400D01*
X64291689Y-24074971D01*
X64473678Y-23999589D01*
X64637463Y-23890151D01*
X64776751Y-23750863D01*
X64886189Y-23587078D01*
X64961571Y-23405089D01*
X65000000Y-23211891D01*
X65000000Y-23113399D01*
X65060660Y-23113399D01*
X66218242Y-24270980D01*
X66329034Y-24035535D01*
X66329035Y-24035534D01*
X66426247Y-23736348D01*
X66485190Y-23427357D01*
X66485192Y-23427346D01*
X66504943Y-23113406D01*
X66504943Y-23113393D01*
X69494556Y-23113393D01*
X69494556Y-23113406D01*
X69514310Y-23427408D01*
X69514312Y-23427419D01*
X69573267Y-23736473D01*
X69573268Y-23736478D01*
X69670498Y-24035720D01*
X69670501Y-24035726D01*
X69804458Y-24320399D01*
X69804467Y-24320415D01*
X69973047Y-24586055D01*
X69973053Y-24586063D01*
X70173610Y-24828494D01*
X70402970Y-25043878D01*
X70657516Y-25228816D01*
X70933234Y-25380394D01*
X71225775Y-25496219D01*
X71530527Y-25574466D01*
X71842682Y-25613900D01*
X71842685Y-25613900D01*
X72157315Y-25613900D01*
X72157318Y-25613900D01*
X72469473Y-25574466D01*
X72774225Y-25496219D01*
X73066766Y-25380394D01*
X73342484Y-25228816D01*
X73597030Y-25043878D01*
X73826390Y-24828494D01*
X74026947Y-24586063D01*
X74195537Y-24320407D01*
X74329503Y-24035715D01*
X74426731Y-23736479D01*
X74485688Y-23427415D01*
X74485688Y-23427412D01*
X74485689Y-23427408D01*
X74505444Y-23113406D01*
X74505444Y-23113393D01*
X74485689Y-22799391D01*
X74485687Y-22799380D01*
X74426732Y-22490326D01*
X74426731Y-22490321D01*
X74329501Y-22191079D01*
X74329498Y-22191073D01*
X74195541Y-21906400D01*
X74195532Y-21906384D01*
X74026952Y-21640744D01*
X74026944Y-21640733D01*
X73962614Y-21562973D01*
X73826390Y-21398306D01*
X73597030Y-21182922D01*
X73342484Y-20997984D01*
X73342482Y-20997983D01*
X73342481Y-20997982D01*
X73342475Y-20997979D01*
X73067597Y-20846863D01*
X73066766Y-20846406D01*
X73066764Y-20846405D01*
X73066762Y-20846404D01*
X72774225Y-20730581D01*
X72774221Y-20730580D01*
X72469473Y-20652334D01*
X72469470Y-20652333D01*
X72469468Y-20652333D01*
X72157330Y-20612901D01*
X72157321Y-20612900D01*
X72157318Y-20612900D01*
X71842682Y-20612900D01*
X71842679Y-20612900D01*
X71842669Y-20612901D01*
X71530531Y-20652333D01*
X71225778Y-20730580D01*
X71225774Y-20730581D01*
X70933237Y-20846404D01*
X70657524Y-20997979D01*
X70657518Y-20997982D01*
X70402966Y-21182925D01*
X70173608Y-21398308D01*
X69973055Y-21640733D01*
X69973047Y-21640744D01*
X69804467Y-21906384D01*
X69804458Y-21906400D01*
X69670501Y-22191073D01*
X69670498Y-22191079D01*
X69573268Y-22490321D01*
X69573267Y-22490326D01*
X69514312Y-22799380D01*
X69514310Y-22799391D01*
X69494556Y-23113393D01*
X66504943Y-23113393D01*
X66485192Y-22799453D01*
X66485190Y-22799442D01*
X66426247Y-22490451D01*
X66329038Y-22191273D01*
X66329036Y-22191269D01*
X66218241Y-21955818D01*
X65060660Y-23113399D01*
X65000000Y-23113399D01*
X65000000Y-23014909D01*
X64961571Y-22821711D01*
X64886189Y-22639722D01*
X64776751Y-22475937D01*
X64637463Y-22336649D01*
X64473678Y-22227211D01*
X64291689Y-22151829D01*
X64098491Y-22113400D01*
X63901509Y-22113400D01*
X63708311Y-22151829D01*
X63526322Y-22227211D01*
X63362537Y-22336649D01*
X63223249Y-22475937D01*
X63113811Y-22639722D01*
X63038429Y-22821711D01*
X63000000Y-23014909D01*
X62840849Y-23014909D01*
X61781757Y-21955817D01*
X61781756Y-21955817D01*
X61670968Y-22191255D01*
X61670964Y-22191267D01*
X61573752Y-22490451D01*
X61514809Y-22799442D01*
X61514807Y-22799453D01*
X61495057Y-23113393D01*
X60019390Y-23113393D01*
X60019855Y-20896284D01*
X62843544Y-20896284D01*
X64000000Y-22052739D01*
X65156455Y-20896284D01*
X65156454Y-20896283D01*
X65066560Y-20846863D01*
X65066554Y-20846860D01*
X64774068Y-20731057D01*
X64469377Y-20652825D01*
X64469373Y-20652824D01*
X64157299Y-20613401D01*
X64157284Y-20613400D01*
X63842716Y-20613400D01*
X63842700Y-20613401D01*
X63530626Y-20652824D01*
X63530622Y-20652825D01*
X63225931Y-20731057D01*
X62933445Y-20846860D01*
X62843544Y-20896284D01*
X60019855Y-20896284D01*
X60020122Y-19625094D01*
X60040364Y-19484515D01*
X60099393Y-19355332D01*
X60192426Y-19248012D01*
X60311925Y-19171250D01*
X60448210Y-19131264D01*
X60519122Y-19126200D01*
X75496482Y-19126200D01*
X75637067Y-19146413D01*
G37*
%TD.AperFunction*%
%TD*%
%TA.AperFunction,Conductor*%
%TO.N,/5v*%
G36*
X155460752Y-28572107D02*
G01*
X155528860Y-28592152D01*
X155575319Y-28645837D01*
X155586192Y-28687124D01*
X155589021Y-28719457D01*
X155589022Y-28719463D01*
X155632519Y-28881795D01*
X155646559Y-28934193D01*
X155646561Y-28934199D01*
X155740511Y-29135675D01*
X155740512Y-29135677D01*
X155868016Y-29317772D01*
X155868020Y-29317777D01*
X155868023Y-29317781D01*
X156025219Y-29474977D01*
X156025223Y-29474980D01*
X156025227Y-29474983D01*
X156129124Y-29547732D01*
X156207323Y-29602488D01*
X156408804Y-29696440D01*
X156550080Y-29734295D01*
X156610699Y-29771244D01*
X156641721Y-29835105D01*
X156633293Y-29905599D01*
X156588091Y-29960346D01*
X156520465Y-29981964D01*
X156517466Y-29982000D01*
X156057986Y-29982000D01*
X156057977Y-29982001D01*
X155983894Y-29996737D01*
X155983892Y-29996737D01*
X155899875Y-30052875D01*
X155843737Y-30136893D01*
X155843736Y-30136894D01*
X155829000Y-30210977D01*
X155829000Y-30498000D01*
X157860999Y-30498000D01*
X157860999Y-30210986D01*
X157860998Y-30210977D01*
X157846262Y-30136894D01*
X157846262Y-30136892D01*
X157790124Y-30052875D01*
X157706106Y-29996737D01*
X157706105Y-29996736D01*
X157632022Y-29982000D01*
X157172535Y-29982000D01*
X157104414Y-29961998D01*
X157057921Y-29908342D01*
X157047817Y-29838068D01*
X157077311Y-29773488D01*
X157137037Y-29735104D01*
X157139844Y-29734315D01*
X157281196Y-29696440D01*
X157482677Y-29602488D01*
X157664781Y-29474977D01*
X157821977Y-29317781D01*
X157949488Y-29135677D01*
X158043440Y-28934196D01*
X158100978Y-28719463D01*
X158103654Y-28688870D01*
X158129515Y-28622756D01*
X158187017Y-28581115D01*
X158229247Y-28573854D01*
X159919230Y-28574920D01*
X159987337Y-28594965D01*
X160033796Y-28648650D01*
X160045149Y-28701170D01*
X160038510Y-32043939D01*
X160018372Y-32112020D01*
X159964625Y-32158406D01*
X159894331Y-32168371D01*
X159885736Y-32166811D01*
X159843351Y-32157591D01*
X159827298Y-32154099D01*
X159555000Y-32134625D01*
X159282694Y-32154100D01*
X159015948Y-32212127D01*
X159015947Y-32212127D01*
X158760156Y-32307532D01*
X158520547Y-32438369D01*
X158302011Y-32601963D01*
X158302002Y-32601971D01*
X158108971Y-32795002D01*
X158108963Y-32795011D01*
X157945369Y-33013547D01*
X157814532Y-33253156D01*
X157719127Y-33508947D01*
X157719127Y-33508948D01*
X157661100Y-33775694D01*
X157641625Y-34048000D01*
X157661100Y-34320305D01*
X157719127Y-34587051D01*
X157719127Y-34587052D01*
X157814532Y-34842843D01*
X157945369Y-35082452D01*
X158108963Y-35300988D01*
X158108966Y-35300991D01*
X158108968Y-35300994D01*
X158302006Y-35494032D01*
X158520551Y-35657633D01*
X158760155Y-35788467D01*
X159015940Y-35883870D01*
X159015943Y-35883870D01*
X159015947Y-35883872D01*
X159170322Y-35917454D01*
X159282698Y-35941900D01*
X159555000Y-35961375D01*
X159827302Y-35941900D01*
X159877765Y-35930922D01*
X159948577Y-35935985D01*
X160005414Y-35978531D01*
X160030226Y-36045051D01*
X160030547Y-36054292D01*
X160024815Y-38940959D01*
X160004677Y-39009040D01*
X159950930Y-39055426D01*
X159880636Y-39065391D01*
X159872034Y-39063830D01*
X159827302Y-39054100D01*
X159555000Y-39034625D01*
X159282694Y-39054100D01*
X159015948Y-39112127D01*
X159015947Y-39112127D01*
X158760156Y-39207532D01*
X158520547Y-39338369D01*
X158302011Y-39501963D01*
X158302002Y-39501971D01*
X158108971Y-39695002D01*
X158108963Y-39695011D01*
X157945369Y-39913547D01*
X157814532Y-40153156D01*
X157719127Y-40408947D01*
X157719127Y-40408948D01*
X157661100Y-40675694D01*
X157641625Y-40948000D01*
X157661100Y-41220305D01*
X157719127Y-41487051D01*
X157719127Y-41487052D01*
X157814532Y-41742843D01*
X157945369Y-41982452D01*
X158108963Y-42200988D01*
X158108966Y-42200991D01*
X158108968Y-42200994D01*
X158302006Y-42394032D01*
X158520551Y-42557633D01*
X158760155Y-42688467D01*
X159015940Y-42783870D01*
X159015943Y-42783870D01*
X159015947Y-42783872D01*
X159170322Y-42817454D01*
X159282698Y-42841900D01*
X159555000Y-42861375D01*
X159827302Y-42841900D01*
X159864057Y-42833904D01*
X159934870Y-42838967D01*
X159991707Y-42881513D01*
X160016519Y-42948033D01*
X160016840Y-42957274D01*
X159998813Y-52035303D01*
X159978675Y-52103384D01*
X159924928Y-52149770D01*
X159854634Y-52159735D01*
X159846032Y-52158174D01*
X159827302Y-52154100D01*
X159555000Y-52134625D01*
X159282694Y-52154100D01*
X159015948Y-52212127D01*
X159015947Y-52212127D01*
X158760156Y-52307532D01*
X158520547Y-52438369D01*
X158302011Y-52601963D01*
X158302002Y-52601971D01*
X158108971Y-52795002D01*
X158108963Y-52795011D01*
X157945369Y-53013547D01*
X157814532Y-53253156D01*
X157719127Y-53508947D01*
X157719127Y-53508948D01*
X157661100Y-53775694D01*
X157641625Y-54048000D01*
X157661100Y-54320305D01*
X157719127Y-54587051D01*
X157719127Y-54587052D01*
X157814532Y-54842843D01*
X157945369Y-55082452D01*
X158108963Y-55300988D01*
X158108966Y-55300991D01*
X158108968Y-55300994D01*
X158302006Y-55494032D01*
X158520551Y-55657633D01*
X158760155Y-55788467D01*
X159015940Y-55883870D01*
X159015943Y-55883870D01*
X159015947Y-55883872D01*
X159170322Y-55917454D01*
X159282698Y-55941900D01*
X159555000Y-55961375D01*
X159827302Y-55941900D01*
X159838029Y-55939566D01*
X159908840Y-55944626D01*
X159965679Y-55987169D01*
X159990494Y-56053687D01*
X159990816Y-56062935D01*
X159985118Y-58932324D01*
X159964980Y-59000405D01*
X159911233Y-59046791D01*
X159840939Y-59056756D01*
X159832346Y-59055197D01*
X159828972Y-59054463D01*
X159827298Y-59054099D01*
X159555000Y-59034625D01*
X159282694Y-59054100D01*
X159015948Y-59112127D01*
X159015947Y-59112127D01*
X158760156Y-59207532D01*
X158520547Y-59338369D01*
X158302011Y-59501963D01*
X158302002Y-59501971D01*
X158108971Y-59695002D01*
X158108963Y-59695011D01*
X157945369Y-59913547D01*
X157814532Y-60153156D01*
X157719127Y-60408947D01*
X157719127Y-60408948D01*
X157661100Y-60675694D01*
X157641625Y-60948000D01*
X157661100Y-61220305D01*
X157719127Y-61487051D01*
X157719127Y-61487052D01*
X157814532Y-61742843D01*
X157945369Y-61982452D01*
X158108963Y-62200988D01*
X158108966Y-62200991D01*
X158108968Y-62200994D01*
X158302006Y-62394032D01*
X158520551Y-62557633D01*
X158760155Y-62688467D01*
X159015940Y-62783870D01*
X159015943Y-62783870D01*
X159015947Y-62783872D01*
X159170322Y-62817454D01*
X159282698Y-62841900D01*
X159555000Y-62861375D01*
X159827302Y-62841900D01*
X159827307Y-62841898D01*
X159831755Y-62841260D01*
X159832022Y-62843117D01*
X159895053Y-62847579D01*
X159951920Y-62890084D01*
X159976780Y-62956585D01*
X159977108Y-62965917D01*
X159959114Y-72028443D01*
X159938976Y-72096524D01*
X159885229Y-72142910D01*
X159824126Y-72153872D01*
X159555000Y-72134625D01*
X159282694Y-72154100D01*
X159015948Y-72212127D01*
X159015947Y-72212127D01*
X158760156Y-72307532D01*
X158520547Y-72438369D01*
X158302011Y-72601963D01*
X158302002Y-72601971D01*
X158108971Y-72795002D01*
X158108963Y-72795011D01*
X157945369Y-73013547D01*
X157814532Y-73253156D01*
X157719127Y-73508947D01*
X157719127Y-73508948D01*
X157661100Y-73775694D01*
X157641625Y-74048000D01*
X157661100Y-74320305D01*
X157719127Y-74587051D01*
X157719127Y-74587052D01*
X157804180Y-74815089D01*
X157814533Y-74842845D01*
X157917601Y-75031600D01*
X157945369Y-75082452D01*
X158108963Y-75300988D01*
X158108966Y-75300991D01*
X158108968Y-75300994D01*
X158302006Y-75494032D01*
X158302009Y-75494034D01*
X158302011Y-75494036D01*
X158437192Y-75595231D01*
X158520551Y-75657633D01*
X158760155Y-75788467D01*
X159015940Y-75883870D01*
X159015943Y-75883870D01*
X159015947Y-75883872D01*
X159170322Y-75917454D01*
X159282698Y-75941900D01*
X159555000Y-75961375D01*
X159816105Y-75942700D01*
X159885476Y-75957791D01*
X159935678Y-76007993D01*
X159951091Y-76068629D01*
X159945414Y-78927464D01*
X159925276Y-78995545D01*
X159871529Y-79041931D01*
X159810425Y-79052892D01*
X159555000Y-79034625D01*
X159554999Y-79034625D01*
X159282694Y-79054100D01*
X159015948Y-79112127D01*
X159015947Y-79112127D01*
X158760156Y-79207532D01*
X158520547Y-79338369D01*
X158302011Y-79501963D01*
X158302002Y-79501971D01*
X158108971Y-79695002D01*
X158108963Y-79695011D01*
X157945369Y-79913547D01*
X157814532Y-80153156D01*
X157719127Y-80408947D01*
X157719127Y-80408948D01*
X157661100Y-80675694D01*
X157641625Y-80948000D01*
X157661100Y-81220305D01*
X157719127Y-81487051D01*
X157719127Y-81487052D01*
X157777322Y-81643080D01*
X157814533Y-81742845D01*
X157924345Y-81943951D01*
X157945369Y-81982452D01*
X158108963Y-82200988D01*
X158108966Y-82200991D01*
X158108968Y-82200994D01*
X158302006Y-82394032D01*
X158302009Y-82394034D01*
X158302011Y-82394036D01*
X158400415Y-82467700D01*
X158520551Y-82557633D01*
X158760155Y-82688467D01*
X159015940Y-82783870D01*
X159015943Y-82783870D01*
X159015947Y-82783872D01*
X159170322Y-82817454D01*
X159282698Y-82841900D01*
X159555000Y-82861375D01*
X159802398Y-82843681D01*
X159871773Y-82858773D01*
X159921975Y-82908975D01*
X159937387Y-82969610D01*
X159919405Y-92025603D01*
X159899267Y-92093684D01*
X159845520Y-92140070D01*
X159784417Y-92151032D01*
X159555000Y-92134625D01*
X159282694Y-92154100D01*
X159015948Y-92212127D01*
X159015947Y-92212127D01*
X158760156Y-92307532D01*
X158520547Y-92438369D01*
X158302011Y-92601963D01*
X158302002Y-92601971D01*
X158108971Y-92795002D01*
X158108963Y-92795011D01*
X157945369Y-93013547D01*
X157814532Y-93253156D01*
X157719127Y-93508947D01*
X157719127Y-93508948D01*
X157661100Y-93775694D01*
X157641625Y-94048000D01*
X157661100Y-94320305D01*
X157719127Y-94587051D01*
X157719127Y-94587052D01*
X157719130Y-94587060D01*
X157814533Y-94842845D01*
X157903514Y-95005802D01*
X157945369Y-95082452D01*
X158108963Y-95300988D01*
X158108966Y-95300991D01*
X158108968Y-95300994D01*
X158302006Y-95494032D01*
X158520551Y-95657633D01*
X158760155Y-95788467D01*
X159015940Y-95883870D01*
X159015943Y-95883870D01*
X159015947Y-95883872D01*
X159170322Y-95917454D01*
X159282698Y-95941900D01*
X159555000Y-95961375D01*
X159827302Y-95941900D01*
X160094051Y-95883872D01*
X160094052Y-95883872D01*
X160094053Y-95883871D01*
X160094060Y-95883870D01*
X160349845Y-95788467D01*
X160589449Y-95657633D01*
X160807994Y-95494032D01*
X161001032Y-95300994D01*
X161164633Y-95082449D01*
X161295467Y-94842845D01*
X161390870Y-94587060D01*
X161390872Y-94587051D01*
X161447280Y-94327751D01*
X161481305Y-94265439D01*
X161543617Y-94231413D01*
X161614433Y-94236478D01*
X161671268Y-94279025D01*
X161696079Y-94345545D01*
X161696400Y-94354534D01*
X161696400Y-100488091D01*
X161692107Y-100520702D01*
X161659619Y-100641948D01*
X161659484Y-100642718D01*
X161659330Y-100643027D01*
X161658199Y-100647251D01*
X161657349Y-100647023D01*
X161627949Y-100706326D01*
X161567031Y-100742788D01*
X161496070Y-100740527D01*
X161437597Y-100700261D01*
X161414826Y-100657398D01*
X161394782Y-100591322D01*
X161159609Y-100826496D01*
X161131069Y-100842079D01*
X161119179Y-100859874D01*
X161394781Y-101135476D01*
X161414826Y-101069400D01*
X161453741Y-101010019D01*
X161518583Y-100981103D01*
X161588764Y-100991834D01*
X161642003Y-101038804D01*
X161657776Y-101079663D01*
X161658199Y-101079550D01*
X161659255Y-101083494D01*
X161659485Y-101084088D01*
X161659619Y-101084853D01*
X161692107Y-101206098D01*
X161696400Y-101238709D01*
X161696400Y-102032800D01*
X161676398Y-102100921D01*
X161622742Y-102147414D01*
X161570400Y-102158800D01*
X156386800Y-102158800D01*
X156318679Y-102138798D01*
X156272186Y-102085142D01*
X156260800Y-102032800D01*
X156260800Y-101842582D01*
X160143522Y-101842582D01*
X160216435Y-101864700D01*
X160415597Y-101884316D01*
X160415603Y-101884316D01*
X160614768Y-101864700D01*
X160687676Y-101842583D01*
X160687677Y-101842582D01*
X160412074Y-101566979D01*
X160398683Y-101575927D01*
X160395598Y-101586435D01*
X160378696Y-101607409D01*
X160143522Y-101842582D01*
X156260800Y-101842582D01*
X156260800Y-100863397D01*
X159394684Y-100863397D01*
X159394684Y-100863400D01*
X159414300Y-101062569D01*
X159436416Y-101135477D01*
X159708493Y-100863400D01*
X159708493Y-100863399D01*
X159708492Y-100863397D01*
X159648330Y-100803235D01*
X159958600Y-100803235D01*
X159958600Y-100923565D01*
X159989744Y-101039795D01*
X160049909Y-101144004D01*
X160134996Y-101229091D01*
X160239205Y-101289256D01*
X160355435Y-101320400D01*
X160475765Y-101320400D01*
X160591995Y-101289256D01*
X160696204Y-101229091D01*
X160781291Y-101144004D01*
X160841456Y-101039795D01*
X160872600Y-100923565D01*
X160872600Y-100803235D01*
X160841456Y-100687005D01*
X160781291Y-100582796D01*
X160696204Y-100497709D01*
X160591995Y-100437544D01*
X160475765Y-100406400D01*
X160355435Y-100406400D01*
X160239205Y-100437544D01*
X160134996Y-100497709D01*
X160049909Y-100582796D01*
X159989744Y-100687005D01*
X159958600Y-100803235D01*
X159648330Y-100803235D01*
X159436416Y-100591321D01*
X159436415Y-100591321D01*
X159414300Y-100664229D01*
X159414299Y-100664232D01*
X159394684Y-100863397D01*
X156260800Y-100863397D01*
X156260800Y-99884215D01*
X160143521Y-99884215D01*
X160143521Y-99884216D01*
X160415597Y-100156292D01*
X160415599Y-100156293D01*
X160415600Y-100156293D01*
X160687677Y-99884216D01*
X160614769Y-99862100D01*
X160415603Y-99842484D01*
X160415597Y-99842484D01*
X160216432Y-99862099D01*
X160216429Y-99862100D01*
X160143521Y-99884215D01*
X156260800Y-99884215D01*
X156260800Y-94005400D01*
X153364082Y-94005400D01*
X153295961Y-93985398D01*
X153249468Y-93931742D01*
X153239364Y-93861468D01*
X153268858Y-93796888D01*
X153271382Y-93794062D01*
X153415714Y-93637277D01*
X153415724Y-93637265D01*
X153440558Y-93599254D01*
X153538860Y-93448791D01*
X153629296Y-93242616D01*
X153649590Y-93162476D01*
X153684561Y-93024380D01*
X153684563Y-93024370D01*
X153684564Y-93024368D01*
X153693642Y-92914804D01*
X153719200Y-92848571D01*
X153730108Y-92836124D01*
X154320831Y-92245404D01*
X154383143Y-92211379D01*
X154409926Y-92208500D01*
X155807657Y-92208500D01*
X155851688Y-92216443D01*
X155973799Y-92261989D01*
X155973802Y-92261989D01*
X155973803Y-92261990D01*
X156034350Y-92268499D01*
X156034355Y-92268499D01*
X156034362Y-92268500D01*
X156034368Y-92268500D01*
X157655632Y-92268500D01*
X157655638Y-92268500D01*
X157655645Y-92268499D01*
X157655649Y-92268499D01*
X157716196Y-92261990D01*
X157716199Y-92261989D01*
X157716201Y-92261989D01*
X157853204Y-92210889D01*
X157856396Y-92208500D01*
X157970261Y-92123261D01*
X158057887Y-92006207D01*
X158057887Y-92006206D01*
X158057889Y-92006204D01*
X158108989Y-91869201D01*
X158110958Y-91850894D01*
X158115499Y-91808649D01*
X158115500Y-91808632D01*
X158115500Y-90187367D01*
X158115499Y-90187350D01*
X158108990Y-90126803D01*
X158108988Y-90126795D01*
X158066542Y-90012995D01*
X158057889Y-89989796D01*
X158057888Y-89989794D01*
X158057887Y-89989792D01*
X157970261Y-89872738D01*
X157853207Y-89785112D01*
X157853202Y-89785110D01*
X157716204Y-89734011D01*
X157716197Y-89734010D01*
X157684786Y-89730633D01*
X157619194Y-89703464D01*
X157578703Y-89645146D01*
X157576169Y-89574194D01*
X157612396Y-89513136D01*
X157625985Y-89502142D01*
X157664781Y-89474977D01*
X157821977Y-89317781D01*
X157949488Y-89135677D01*
X158043440Y-88934196D01*
X158100978Y-88719463D01*
X158120353Y-88498000D01*
X158100978Y-88276537D01*
X158043440Y-88061804D01*
X157949488Y-87860324D01*
X157821977Y-87678219D01*
X157730853Y-87587095D01*
X157696827Y-87524783D01*
X157701892Y-87453968D01*
X157730853Y-87408905D01*
X157764965Y-87374793D01*
X157821977Y-87317781D01*
X157949488Y-87135677D01*
X158043440Y-86934196D01*
X158100978Y-86719463D01*
X158120353Y-86498000D01*
X158100978Y-86276537D01*
X158043440Y-86061804D01*
X157949488Y-85860324D01*
X157821977Y-85678219D01*
X157664781Y-85521023D01*
X157664777Y-85521020D01*
X157664772Y-85521016D01*
X157482677Y-85393512D01*
X157482675Y-85393511D01*
X157415517Y-85362195D01*
X157362232Y-85315278D01*
X157342771Y-85247001D01*
X157363313Y-85179041D01*
X157415517Y-85133805D01*
X157482677Y-85102488D01*
X157664781Y-84974977D01*
X157821977Y-84817781D01*
X157949488Y-84635677D01*
X158043440Y-84434196D01*
X158100978Y-84219463D01*
X158120353Y-83998000D01*
X158100978Y-83776537D01*
X158043440Y-83561804D01*
X157949488Y-83360324D01*
X157821977Y-83178219D01*
X157664781Y-83021023D01*
X157664777Y-83021020D01*
X157664772Y-83021016D01*
X157482677Y-82893512D01*
X157482675Y-82893511D01*
X157281199Y-82799561D01*
X157281193Y-82799559D01*
X157222648Y-82783872D01*
X157066463Y-82742022D01*
X156845000Y-82722647D01*
X156623537Y-82742022D01*
X156508463Y-82772856D01*
X156408806Y-82799559D01*
X156408801Y-82799561D01*
X156207323Y-82893512D01*
X156025222Y-83021020D01*
X156025216Y-83021025D01*
X155868025Y-83178216D01*
X155868020Y-83178222D01*
X155740512Y-83360323D01*
X155646561Y-83561801D01*
X155646559Y-83561806D01*
X155622617Y-83651161D01*
X155589022Y-83776537D01*
X155569647Y-83998000D01*
X155589022Y-84219463D01*
X155630593Y-84374605D01*
X155646559Y-84434193D01*
X155646561Y-84434199D01*
X155740511Y-84635675D01*
X155740512Y-84635677D01*
X155868016Y-84817772D01*
X155868020Y-84817777D01*
X155868023Y-84817781D01*
X156025219Y-84974977D01*
X156025223Y-84974980D01*
X156025227Y-84974983D01*
X156092152Y-85021844D01*
X156207323Y-85102488D01*
X156258619Y-85126407D01*
X156274482Y-85133805D01*
X156327767Y-85180723D01*
X156347228Y-85249000D01*
X156326686Y-85316960D01*
X156274483Y-85362194D01*
X156207325Y-85393510D01*
X156025222Y-85521020D01*
X156025216Y-85521025D01*
X155868025Y-85678216D01*
X155868020Y-85678222D01*
X155782911Y-85799771D01*
X155727454Y-85844099D01*
X155679698Y-85853500D01*
X155555043Y-85853500D01*
X155486922Y-85833498D01*
X155447215Y-85792685D01*
X155434620Y-85771851D01*
X155434618Y-85771848D01*
X155434616Y-85771845D01*
X155434613Y-85771842D01*
X155434610Y-85771838D01*
X155312960Y-85650188D01*
X155312955Y-85650184D01*
X155165713Y-85561173D01*
X155165712Y-85561172D01*
X155165711Y-85561172D01*
X155165706Y-85561170D01*
X155001446Y-85509986D01*
X154949523Y-85505268D01*
X154930065Y-85503500D01*
X154930062Y-85503500D01*
X154415538Y-85503500D01*
X154344153Y-85509986D01*
X154344152Y-85509986D01*
X154179893Y-85561170D01*
X154179888Y-85561172D01*
X154032644Y-85650184D01*
X154032639Y-85650188D01*
X153936895Y-85745933D01*
X153874583Y-85779959D01*
X153803768Y-85774894D01*
X153758705Y-85745933D01*
X153662960Y-85650188D01*
X153662955Y-85650184D01*
X153515713Y-85561173D01*
X153515712Y-85561172D01*
X153515711Y-85561172D01*
X153515706Y-85561170D01*
X153351446Y-85509986D01*
X153299523Y-85505268D01*
X153280065Y-85503500D01*
X153280062Y-85503500D01*
X152765538Y-85503500D01*
X152694153Y-85509986D01*
X152694152Y-85509986D01*
X152529893Y-85561170D01*
X152529888Y-85561172D01*
X152382644Y-85650184D01*
X152382639Y-85650188D01*
X152260988Y-85771839D01*
X152260984Y-85771844D01*
X152171972Y-85919088D01*
X152171970Y-85919093D01*
X152120786Y-86083353D01*
X152115478Y-86141763D01*
X152114361Y-86154071D01*
X152114300Y-86154737D01*
X152114300Y-86482759D01*
X152094298Y-86550880D01*
X152077397Y-86571853D01*
X152042058Y-86607193D01*
X151979746Y-86641219D01*
X151952961Y-86644099D01*
X151171838Y-86644099D01*
X151103717Y-86624097D01*
X151082743Y-86607194D01*
X148215805Y-83740256D01*
X148181779Y-83677944D01*
X148178900Y-83651161D01*
X148178900Y-82009848D01*
X148198902Y-81941727D01*
X148252558Y-81895234D01*
X148322832Y-81885130D01*
X148387412Y-81914624D01*
X148404460Y-81932623D01*
X148408948Y-81938409D01*
X148526589Y-82056050D01*
X148526596Y-82056055D01*
X148669794Y-82140743D01*
X148669797Y-82140743D01*
X148669799Y-82140745D01*
X148829569Y-82187162D01*
X148866888Y-82190099D01*
X148866889Y-82190100D01*
X148866898Y-82190100D01*
X150649911Y-82190100D01*
X150649911Y-82190099D01*
X150687231Y-82187162D01*
X150847001Y-82140745D01*
X150847003Y-82140743D01*
X150847005Y-82140743D01*
X150918604Y-82098399D01*
X150990207Y-82056053D01*
X151107853Y-81938407D01*
X151192545Y-81795201D01*
X151238962Y-81635431D01*
X151241899Y-81598111D01*
X151241900Y-81598111D01*
X151241900Y-81165089D01*
X151241899Y-81165088D01*
X151238962Y-81127771D01*
X151238962Y-81127770D01*
X151201867Y-81000087D01*
X151192545Y-80967999D01*
X151192543Y-80967997D01*
X151192543Y-80967994D01*
X151107856Y-80824798D01*
X151107855Y-80824797D01*
X151107853Y-80824793D01*
X151107849Y-80824789D01*
X151107108Y-80823833D01*
X151106756Y-80822937D01*
X151103818Y-80817969D01*
X151104619Y-80817495D01*
X151081156Y-80757750D01*
X151095052Y-80688126D01*
X151107108Y-80669367D01*
X151107845Y-80668414D01*
X151107853Y-80668407D01*
X151183209Y-80540987D01*
X151192543Y-80525205D01*
X151192543Y-80525203D01*
X151192545Y-80525201D01*
X151238962Y-80365431D01*
X151241899Y-80328111D01*
X151241900Y-80328111D01*
X151241900Y-79895089D01*
X151241899Y-79895088D01*
X151238962Y-79857771D01*
X151238962Y-79857770D01*
X151212243Y-79765802D01*
X151192545Y-79697999D01*
X151192543Y-79697997D01*
X151192543Y-79697994D01*
X151107856Y-79554798D01*
X151107855Y-79554797D01*
X151107853Y-79554793D01*
X151107849Y-79554789D01*
X151107108Y-79553833D01*
X151106756Y-79552937D01*
X151103818Y-79547969D01*
X151104619Y-79547495D01*
X151081156Y-79487750D01*
X151095052Y-79418126D01*
X151107108Y-79399367D01*
X151107845Y-79398414D01*
X151107853Y-79398407D01*
X151184978Y-79267996D01*
X151192543Y-79255205D01*
X151192543Y-79255203D01*
X151192545Y-79255201D01*
X151238962Y-79095431D01*
X151241899Y-79058111D01*
X151241900Y-79058111D01*
X151241900Y-78625089D01*
X151241899Y-78625088D01*
X151238962Y-78587771D01*
X151238962Y-78587770D01*
X151238962Y-78587769D01*
X151192545Y-78427999D01*
X151192543Y-78427997D01*
X151192543Y-78427994D01*
X151107856Y-78284798D01*
X151107855Y-78284797D01*
X151107853Y-78284793D01*
X151107849Y-78284789D01*
X151107108Y-78283833D01*
X151106756Y-78282937D01*
X151103818Y-78277969D01*
X151104619Y-78277495D01*
X151081156Y-78217750D01*
X151095052Y-78148126D01*
X151107108Y-78129367D01*
X151107845Y-78128414D01*
X151107853Y-78128407D01*
X151191218Y-77987445D01*
X151192543Y-77985205D01*
X151192543Y-77985203D01*
X151192545Y-77985201D01*
X151238962Y-77825431D01*
X151241899Y-77788111D01*
X151241900Y-77788111D01*
X151241900Y-77355089D01*
X151241899Y-77355088D01*
X151241493Y-77349934D01*
X151238962Y-77317769D01*
X151192545Y-77157999D01*
X151192543Y-77157997D01*
X151192543Y-77157994D01*
X151107856Y-77014798D01*
X151107855Y-77014797D01*
X151107853Y-77014793D01*
X151107849Y-77014789D01*
X151107108Y-77013833D01*
X151106756Y-77012937D01*
X151103818Y-77007969D01*
X151104619Y-77007495D01*
X151081156Y-76947750D01*
X151095052Y-76878126D01*
X151107108Y-76859367D01*
X151107845Y-76858414D01*
X151107853Y-76858407D01*
X151166673Y-76758948D01*
X151192543Y-76715205D01*
X151192543Y-76715203D01*
X151192545Y-76715201D01*
X151238962Y-76555431D01*
X151241899Y-76518111D01*
X151241900Y-76518111D01*
X151241900Y-76085089D01*
X151241899Y-76085088D01*
X151238962Y-76047771D01*
X151238962Y-76047770D01*
X151224634Y-75998452D01*
X151192545Y-75887999D01*
X151192543Y-75887997D01*
X151192543Y-75887994D01*
X151107856Y-75744798D01*
X151107855Y-75744797D01*
X151107853Y-75744793D01*
X151107849Y-75744789D01*
X151107108Y-75743833D01*
X151106756Y-75742937D01*
X151103818Y-75737969D01*
X151104619Y-75737495D01*
X151081156Y-75677750D01*
X151095052Y-75608126D01*
X151107108Y-75589367D01*
X151107845Y-75588414D01*
X151107853Y-75588407D01*
X151173532Y-75477350D01*
X151192543Y-75445205D01*
X151192543Y-75445203D01*
X151192545Y-75445201D01*
X151238962Y-75285431D01*
X151241899Y-75248111D01*
X151241900Y-75248111D01*
X151241900Y-74815089D01*
X151241899Y-74815088D01*
X151238962Y-74777771D01*
X151238962Y-74777770D01*
X151237537Y-74772865D01*
X151192545Y-74617999D01*
X151192543Y-74617997D01*
X151192543Y-74617994D01*
X151107856Y-74474798D01*
X151107855Y-74474797D01*
X151107853Y-74474793D01*
X151107849Y-74474789D01*
X151107108Y-74473833D01*
X151106756Y-74472937D01*
X151103818Y-74467969D01*
X151104619Y-74467495D01*
X151081156Y-74407750D01*
X151095052Y-74338126D01*
X151107108Y-74319367D01*
X151107845Y-74318414D01*
X151107853Y-74318407D01*
X151192545Y-74175201D01*
X151238962Y-74015431D01*
X151241899Y-73978111D01*
X151241900Y-73978111D01*
X151241900Y-73545089D01*
X151241899Y-73545088D01*
X151238962Y-73507771D01*
X151238962Y-73507770D01*
X151201867Y-73380087D01*
X151192545Y-73347999D01*
X151192543Y-73347997D01*
X151192543Y-73347994D01*
X151107855Y-73204796D01*
X151107850Y-73204789D01*
X150990210Y-73087149D01*
X150990206Y-73087146D01*
X150952073Y-73064594D01*
X150903621Y-73012701D01*
X150890916Y-72942850D01*
X150910724Y-72891324D01*
X150909815Y-72890861D01*
X150914246Y-72882163D01*
X150914281Y-72882074D01*
X150914318Y-72882022D01*
X150960390Y-72791600D01*
X148556410Y-72791600D01*
X148555937Y-72792370D01*
X148568538Y-72859466D01*
X148541837Y-72925250D01*
X148483809Y-72966156D01*
X148412878Y-72969196D01*
X148369105Y-72948826D01*
X148363953Y-72945082D01*
X148189488Y-72867406D01*
X148002687Y-72827700D01*
X147811713Y-72827700D01*
X147624911Y-72867406D01*
X147450446Y-72945082D01*
X147450444Y-72945084D01*
X147430940Y-72959254D01*
X147364072Y-72983110D01*
X147305634Y-72972422D01*
X147135584Y-72896711D01*
X146948783Y-72857005D01*
X146757809Y-72857005D01*
X146571005Y-72896711D01*
X146444553Y-72953011D01*
X146374186Y-72962445D01*
X146309889Y-72932338D01*
X146272076Y-72872249D01*
X146272307Y-72802755D01*
X146288962Y-72745431D01*
X146291899Y-72708111D01*
X146291900Y-72708111D01*
X146291900Y-72275089D01*
X146291899Y-72275088D01*
X146288962Y-72237771D01*
X146288962Y-72237770D01*
X146280086Y-72207219D01*
X146275548Y-72191599D01*
X148556409Y-72191599D01*
X148556410Y-72191600D01*
X149458400Y-72191600D01*
X150058400Y-72191600D01*
X150960390Y-72191600D01*
X150960390Y-72191599D01*
X150914317Y-72101175D01*
X150823823Y-72010682D01*
X150823824Y-72010682D01*
X150709800Y-71952584D01*
X150615192Y-71937600D01*
X150058400Y-71937600D01*
X150058400Y-72191600D01*
X149458400Y-72191600D01*
X149458400Y-71937600D01*
X148901607Y-71937600D01*
X148807002Y-71952583D01*
X148692976Y-72010682D01*
X148602482Y-72101175D01*
X148556409Y-72191599D01*
X146275548Y-72191599D01*
X146242545Y-72077999D01*
X146242543Y-72077997D01*
X146242543Y-72077994D01*
X146157855Y-71934796D01*
X146157850Y-71934789D01*
X146040210Y-71817149D01*
X146040203Y-71817144D01*
X145985888Y-71785022D01*
X155829001Y-71785022D01*
X155843737Y-71859105D01*
X155843737Y-71859107D01*
X155899875Y-71943124D01*
X155983893Y-71999262D01*
X155983894Y-71999263D01*
X156057980Y-72013999D01*
X156345000Y-72013999D01*
X157345000Y-72013999D01*
X157632014Y-72013999D01*
X157632022Y-72013998D01*
X157706105Y-71999262D01*
X157706107Y-71999262D01*
X157790124Y-71943124D01*
X157846262Y-71859106D01*
X157846263Y-71859105D01*
X157860999Y-71785022D01*
X157861000Y-71785015D01*
X157861000Y-71498000D01*
X157345000Y-71498000D01*
X157345000Y-72013999D01*
X156345000Y-72013999D01*
X156345000Y-71498000D01*
X155829001Y-71498000D01*
X155829001Y-71785022D01*
X145985888Y-71785022D01*
X145897005Y-71732456D01*
X145737229Y-71686037D01*
X145699911Y-71683100D01*
X145699902Y-71683100D01*
X145005349Y-71683100D01*
X144937228Y-71663098D01*
X144890735Y-71609442D01*
X144880631Y-71539168D01*
X144904481Y-71481591D01*
X144985532Y-71373320D01*
X144985533Y-71373318D01*
X144997438Y-71341400D01*
X144011800Y-71341400D01*
X143943679Y-71321398D01*
X143897186Y-71267742D01*
X143885800Y-71215400D01*
X143885800Y-70937440D01*
X156385000Y-70937440D01*
X156385000Y-71058560D01*
X156416349Y-71175553D01*
X156476909Y-71280446D01*
X156562554Y-71366091D01*
X156667447Y-71426651D01*
X156784440Y-71458000D01*
X156905560Y-71458000D01*
X157022553Y-71426651D01*
X157127446Y-71366091D01*
X157213091Y-71280446D01*
X157273651Y-71175553D01*
X157305000Y-71058560D01*
X157305000Y-70937440D01*
X157273651Y-70820447D01*
X157213091Y-70715554D01*
X157127446Y-70629909D01*
X157022553Y-70569349D01*
X156905560Y-70538000D01*
X156784440Y-70538000D01*
X156667447Y-70569349D01*
X156562554Y-70629909D01*
X156476909Y-70715554D01*
X156416349Y-70820447D01*
X156385000Y-70937440D01*
X143885800Y-70937440D01*
X143885800Y-70441400D01*
X144785800Y-70441400D01*
X144997438Y-70441400D01*
X144997438Y-70441399D01*
X144985533Y-70409482D01*
X144902986Y-70299213D01*
X144792718Y-70216667D01*
X144785800Y-70214086D01*
X144785800Y-70441400D01*
X143885800Y-70441400D01*
X143885800Y-70214086D01*
X143885799Y-70214086D01*
X143878879Y-70216667D01*
X143878878Y-70216668D01*
X143805736Y-70271422D01*
X143739216Y-70296233D01*
X143669842Y-70281142D01*
X143622986Y-70236701D01*
X143610629Y-70216668D01*
X143590085Y-70183360D01*
X143590084Y-70183359D01*
X143590079Y-70183353D01*
X143468838Y-70062112D01*
X143467147Y-70060775D01*
X143466288Y-70059562D01*
X143463651Y-70056925D01*
X143464101Y-70056474D01*
X143426120Y-70002833D01*
X143419300Y-69961942D01*
X143419300Y-69906562D01*
X143439302Y-69838441D01*
X143451658Y-69822258D01*
X143537840Y-69726544D01*
X143633327Y-69561156D01*
X143692342Y-69379528D01*
X143712304Y-69189600D01*
X143692342Y-68999672D01*
X143633327Y-68818044D01*
X143537840Y-68652656D01*
X143537838Y-68652654D01*
X143537834Y-68652648D01*
X143410055Y-68510735D01*
X143255552Y-68398482D01*
X143081088Y-68320806D01*
X142894287Y-68281100D01*
X142703313Y-68281100D01*
X142516511Y-68320806D01*
X142342047Y-68398482D01*
X142187544Y-68510735D01*
X142059765Y-68652648D01*
X142059758Y-68652658D01*
X141964276Y-68818038D01*
X141964273Y-68818045D01*
X141905257Y-68999672D01*
X141885296Y-69189600D01*
X141905257Y-69379527D01*
X141924868Y-69439882D01*
X141964273Y-69561156D01*
X142059760Y-69726544D01*
X142119937Y-69793377D01*
X142150653Y-69857382D01*
X142152300Y-69877686D01*
X142152300Y-69961942D01*
X142132298Y-70030063D01*
X142107946Y-70056922D01*
X142107949Y-70056925D01*
X142107891Y-70056982D01*
X142104453Y-70060775D01*
X142102761Y-70062112D01*
X141981520Y-70183353D01*
X141981515Y-70183359D01*
X141891498Y-70329299D01*
X141837563Y-70492066D01*
X141827300Y-70592519D01*
X141827300Y-71190280D01*
X141827299Y-71190280D01*
X141837563Y-71290733D01*
X141837564Y-71290736D01*
X141891498Y-71453501D01*
X141979084Y-71595499D01*
X141981515Y-71599440D01*
X141981520Y-71599446D01*
X142102753Y-71720679D01*
X142102757Y-71720682D01*
X142102760Y-71720685D01*
X142102762Y-71720686D01*
X142143246Y-71745657D01*
X142190725Y-71798443D01*
X142203100Y-71852898D01*
X142203100Y-72360196D01*
X142217487Y-72432522D01*
X142211159Y-72503236D01*
X142167605Y-72559304D01*
X142133541Y-72576709D01*
X141985698Y-72625698D01*
X141839759Y-72715715D01*
X141839753Y-72715720D01*
X141718520Y-72836953D01*
X141718515Y-72836959D01*
X141628498Y-72982899D01*
X141574563Y-73145666D01*
X141564300Y-73246119D01*
X141564300Y-73540006D01*
X141544298Y-73608127D01*
X141527395Y-73629101D01*
X141024331Y-74132164D01*
X141024326Y-74132171D01*
X140955001Y-74235923D01*
X140907246Y-74351212D01*
X140882900Y-74473603D01*
X140882900Y-74473606D01*
X140882900Y-76442406D01*
X140882900Y-80293806D01*
X140882900Y-80418594D01*
X140907245Y-80540985D01*
X140955000Y-80656275D01*
X141024329Y-80760033D01*
X141024331Y-80760035D01*
X141524395Y-81260099D01*
X141558421Y-81322411D01*
X141561300Y-81349194D01*
X141561300Y-81643080D01*
X141561299Y-81643080D01*
X141571563Y-81743533D01*
X141571564Y-81743536D01*
X141625498Y-81906301D01*
X141699630Y-82026486D01*
X141715515Y-82052240D01*
X141715520Y-82052246D01*
X141836753Y-82173479D01*
X141836759Y-82173484D01*
X141836760Y-82173485D01*
X141967739Y-82254274D01*
X142015215Y-82307058D01*
X142026618Y-82377133D01*
X141998326Y-82442249D01*
X141990685Y-82450608D01*
X140045397Y-84395897D01*
X139983085Y-84429922D01*
X139930055Y-84428661D01*
X139929878Y-84429670D01*
X139924460Y-84428715D01*
X139924458Y-84428714D01*
X139924455Y-84428714D01*
X139713800Y-84410284D01*
X139503145Y-84428714D01*
X139482675Y-84434199D01*
X139298891Y-84483443D01*
X139298887Y-84483445D01*
X139107238Y-84572812D01*
X138934032Y-84694092D01*
X138934021Y-84694101D01*
X138784501Y-84843621D01*
X138784492Y-84843632D01*
X138663212Y-85016838D01*
X138573845Y-85208487D01*
X138573843Y-85208491D01*
X138533778Y-85358016D01*
X138519114Y-85412745D01*
X138500684Y-85623400D01*
X138519114Y-85834055D01*
X138541898Y-85919087D01*
X138573843Y-86038308D01*
X138573845Y-86038312D01*
X138663212Y-86229961D01*
X138784492Y-86403167D01*
X138784496Y-86403172D01*
X138784499Y-86403176D01*
X138934024Y-86552701D01*
X138934028Y-86552704D01*
X138934032Y-86552707D01*
X139107238Y-86673987D01*
X139107241Y-86673988D01*
X139107242Y-86673989D01*
X139298890Y-86763356D01*
X139503145Y-86818086D01*
X139713800Y-86836516D01*
X139924455Y-86818086D01*
X140128710Y-86763356D01*
X140320358Y-86673989D01*
X140323422Y-86671844D01*
X140391611Y-86624097D01*
X140493576Y-86552701D01*
X140643101Y-86403176D01*
X140764389Y-86229958D01*
X140853756Y-86038310D01*
X140908486Y-85834055D01*
X140926916Y-85623400D01*
X140908486Y-85412745D01*
X140908483Y-85412734D01*
X140907531Y-85407330D01*
X140908845Y-85407098D01*
X140910374Y-85342545D01*
X140941297Y-85291805D01*
X142834902Y-83398202D01*
X142897212Y-83364179D01*
X142923995Y-83361300D01*
X143524593Y-83361300D01*
X143524594Y-83361300D01*
X143646985Y-83336955D01*
X143762275Y-83289200D01*
X143866033Y-83219871D01*
X144858899Y-82227005D01*
X144921211Y-82192979D01*
X144947994Y-82190100D01*
X145489205Y-82190100D01*
X145557326Y-82210102D01*
X145603819Y-82263758D01*
X145613923Y-82334032D01*
X145584429Y-82398612D01*
X145578300Y-82405195D01*
X144209967Y-83773529D01*
X144121731Y-83861764D01*
X144121726Y-83861771D01*
X144052401Y-83965523D01*
X144004646Y-84080812D01*
X143980300Y-84203203D01*
X143980300Y-84526083D01*
X143960298Y-84594204D01*
X143926571Y-84629296D01*
X143834024Y-84694098D01*
X143684496Y-84843627D01*
X143684492Y-84843632D01*
X143563212Y-85016838D01*
X143473845Y-85208487D01*
X143473843Y-85208491D01*
X143433778Y-85358016D01*
X143419114Y-85412745D01*
X143400684Y-85623400D01*
X143419114Y-85834055D01*
X143441898Y-85919087D01*
X143473843Y-86038308D01*
X143473845Y-86038312D01*
X143563212Y-86229961D01*
X143684492Y-86403167D01*
X143684496Y-86403172D01*
X143684499Y-86403176D01*
X143834024Y-86552701D01*
X143834028Y-86552704D01*
X143834032Y-86552707D01*
X144007238Y-86673987D01*
X144007241Y-86673988D01*
X144007242Y-86673989D01*
X144198890Y-86763356D01*
X144403145Y-86818086D01*
X144613800Y-86836516D01*
X144824455Y-86818086D01*
X145028710Y-86763356D01*
X145220358Y-86673989D01*
X145223422Y-86671844D01*
X145291611Y-86624097D01*
X145393576Y-86552701D01*
X145543101Y-86403176D01*
X145664389Y-86229958D01*
X145753756Y-86038310D01*
X145808486Y-85834055D01*
X145826916Y-85623400D01*
X145808486Y-85412745D01*
X145753756Y-85208490D01*
X145664389Y-85016842D01*
X145664388Y-85016841D01*
X145664387Y-85016838D01*
X145543107Y-84843632D01*
X145543103Y-84843627D01*
X145543101Y-84843624D01*
X145393576Y-84694099D01*
X145393575Y-84694098D01*
X145393574Y-84694097D01*
X145393571Y-84694095D01*
X145332855Y-84651581D01*
X145288526Y-84596124D01*
X145281217Y-84525505D01*
X145313247Y-84462144D01*
X145315998Y-84459305D01*
X146296805Y-83478499D01*
X146359117Y-83444473D01*
X146429933Y-83449538D01*
X146486768Y-83492085D01*
X146511579Y-83558605D01*
X146511900Y-83567594D01*
X146511900Y-84061690D01*
X146511900Y-84221910D01*
X146553368Y-84376673D01*
X146553369Y-84376675D01*
X146553370Y-84376677D01*
X146633475Y-84515423D01*
X146633483Y-84515433D01*
X150189869Y-88071817D01*
X150189890Y-88071840D01*
X150307566Y-88189516D01*
X150307570Y-88189519D01*
X150307573Y-88189522D01*
X150366721Y-88223671D01*
X150446328Y-88269633D01*
X150523709Y-88290367D01*
X150601090Y-88311101D01*
X150601091Y-88311101D01*
X150761311Y-88311101D01*
X151952962Y-88311101D01*
X152021083Y-88331103D01*
X152042057Y-88348006D01*
X152102795Y-88408744D01*
X152136821Y-88471056D01*
X152139700Y-88497839D01*
X152139700Y-88825861D01*
X152146186Y-88897246D01*
X152146186Y-88897247D01*
X152197370Y-89061506D01*
X152197372Y-89061511D01*
X152197373Y-89061513D01*
X152258364Y-89162404D01*
X152286384Y-89208755D01*
X152286388Y-89208760D01*
X152408039Y-89330411D01*
X152408044Y-89330415D01*
X152408045Y-89330416D01*
X152555287Y-89419427D01*
X152719551Y-89470613D01*
X152790935Y-89477100D01*
X153305464Y-89477099D01*
X153376849Y-89470613D01*
X153541113Y-89419427D01*
X153688355Y-89330416D01*
X153700999Y-89317772D01*
X153784105Y-89234667D01*
X153846417Y-89200641D01*
X153917232Y-89205706D01*
X153962295Y-89234667D01*
X154058039Y-89330411D01*
X154058044Y-89330415D01*
X154058045Y-89330416D01*
X154205287Y-89419427D01*
X154369551Y-89470613D01*
X154440935Y-89477100D01*
X154955464Y-89477099D01*
X155026849Y-89470613D01*
X155191113Y-89419427D01*
X155338355Y-89330416D01*
X155460016Y-89208755D01*
X155464921Y-89200641D01*
X155472615Y-89187915D01*
X155524974Y-89139967D01*
X155580443Y-89127100D01*
X155668914Y-89127100D01*
X155737035Y-89147102D01*
X155772127Y-89180829D01*
X155868020Y-89317777D01*
X155868023Y-89317781D01*
X156025219Y-89474977D01*
X156025222Y-89474979D01*
X156064014Y-89502142D01*
X156108342Y-89557600D01*
X156115651Y-89628219D01*
X156083620Y-89691579D01*
X156022419Y-89727564D01*
X156005212Y-89730633D01*
X155973803Y-89734009D01*
X155973795Y-89734011D01*
X155836797Y-89785110D01*
X155836792Y-89785112D01*
X155719738Y-89872738D01*
X155632113Y-89989791D01*
X155632111Y-89989795D01*
X155632111Y-89989796D01*
X155587449Y-90109535D01*
X155544905Y-90166368D01*
X155478384Y-90191179D01*
X155469396Y-90191500D01*
X153840668Y-90191500D01*
X153725026Y-90214503D01*
X153645831Y-90230256D01*
X153645829Y-90230256D01*
X153645823Y-90230258D01*
X153590477Y-90253184D01*
X153590476Y-90253185D01*
X153462296Y-90306278D01*
X153297123Y-90416643D01*
X153297116Y-90416648D01*
X152308977Y-91404788D01*
X152246665Y-91438814D01*
X152230303Y-91441261D01*
X152227447Y-91441498D01*
X152227435Y-91441500D01*
X152227431Y-91441500D01*
X152079035Y-91466262D01*
X152005369Y-91478555D01*
X152005360Y-91478557D01*
X151792428Y-91551656D01*
X151792426Y-91551658D01*
X151594426Y-91658810D01*
X151594424Y-91658811D01*
X151416762Y-91797091D01*
X151264279Y-91962729D01*
X151264275Y-91962734D01*
X151141139Y-92151210D01*
X151140809Y-92151820D01*
X151140609Y-92152021D01*
X151138290Y-92155571D01*
X151137559Y-92155093D01*
X151090793Y-92202207D01*
X151021475Y-92217555D01*
X150954864Y-92192991D01*
X150912107Y-92136313D01*
X150903999Y-92091844D01*
X150903999Y-91924986D01*
X150903998Y-91924977D01*
X150889262Y-91850894D01*
X150889262Y-91850892D01*
X150833124Y-91766875D01*
X150749106Y-91710737D01*
X150749105Y-91710736D01*
X150675022Y-91696000D01*
X150300000Y-91696000D01*
X150300000Y-92734174D01*
X150265925Y-92607007D01*
X150200099Y-92492993D01*
X150107007Y-92399901D01*
X149992993Y-92334075D01*
X149865826Y-92300000D01*
X149734174Y-92300000D01*
X149607007Y-92334075D01*
X149492993Y-92399901D01*
X149399901Y-92492993D01*
X149334075Y-92607007D01*
X149300000Y-92734174D01*
X149300000Y-92865826D01*
X149334075Y-92992993D01*
X149399901Y-93107007D01*
X149492993Y-93200099D01*
X149607007Y-93265925D01*
X149734174Y-93300000D01*
X148696001Y-93300000D01*
X148696001Y-93675022D01*
X148710737Y-93749105D01*
X148710737Y-93749106D01*
X148751023Y-93809398D01*
X148772238Y-93877151D01*
X148753455Y-93945618D01*
X148700638Y-93993061D01*
X148646258Y-94005400D01*
X143881894Y-94005400D01*
X143813773Y-93985398D01*
X143767280Y-93931742D01*
X143756584Y-93892570D01*
X143755467Y-93881944D01*
X143743142Y-93764672D01*
X143684127Y-93583044D01*
X143588640Y-93417656D01*
X143588638Y-93417654D01*
X143588634Y-93417648D01*
X143460855Y-93275735D01*
X143306352Y-93163482D01*
X143131888Y-93085806D01*
X142945087Y-93046100D01*
X142807701Y-93046100D01*
X142739580Y-93026098D01*
X142698216Y-92978361D01*
X142696829Y-92979163D01*
X142598041Y-92808058D01*
X142598034Y-92808048D01*
X142470255Y-92666135D01*
X142315752Y-92553882D01*
X142141288Y-92476206D01*
X141954487Y-92436500D01*
X141763513Y-92436500D01*
X141576711Y-92476206D01*
X141402247Y-92553882D01*
X141247744Y-92666135D01*
X141119965Y-92808048D01*
X141119958Y-92808058D01*
X141024476Y-92973438D01*
X141024473Y-92973444D01*
X141022615Y-92979163D01*
X140965457Y-93155072D01*
X140945496Y-93345000D01*
X140965457Y-93534927D01*
X140981090Y-93583038D01*
X141024473Y-93716556D01*
X141038854Y-93741465D01*
X141082118Y-93816400D01*
X141098856Y-93885395D01*
X141075636Y-93952487D01*
X141019829Y-93996374D01*
X140972999Y-94005400D01*
X140472898Y-94005400D01*
X140404777Y-93985398D01*
X140358284Y-93931742D01*
X140346898Y-93879400D01*
X140346898Y-91924977D01*
X148696000Y-91924977D01*
X148696000Y-92300000D01*
X149300000Y-92300000D01*
X149300000Y-91696000D01*
X148924986Y-91696000D01*
X148924976Y-91696001D01*
X148850894Y-91710737D01*
X148850892Y-91710737D01*
X148766875Y-91766875D01*
X148710737Y-91850893D01*
X148710736Y-91850894D01*
X148696000Y-91924977D01*
X140346898Y-91924977D01*
X140346898Y-91137005D01*
X140346897Y-91137001D01*
X140344473Y-91124813D01*
X140322553Y-91014613D01*
X140274798Y-90899323D01*
X140205469Y-90795565D01*
X140117231Y-90707327D01*
X137563833Y-88153929D01*
X137460075Y-88084600D01*
X137344785Y-88036845D01*
X137271086Y-88022185D01*
X137222396Y-88012500D01*
X137222394Y-88012500D01*
X135442594Y-88012500D01*
X135374473Y-87992498D01*
X135353499Y-87975595D01*
X135341131Y-87963227D01*
X135307105Y-87900915D01*
X135312170Y-87830100D01*
X135354717Y-87773264D01*
X135357687Y-87771262D01*
X135360547Y-87769020D01*
X135360555Y-87769016D01*
X135482216Y-87647355D01*
X135571227Y-87500113D01*
X135622413Y-87335849D01*
X135628900Y-87264465D01*
X135628899Y-86749936D01*
X135622413Y-86678551D01*
X135571227Y-86514287D01*
X135482216Y-86367045D01*
X135482215Y-86367044D01*
X135482211Y-86367039D01*
X135386467Y-86271295D01*
X135352441Y-86208983D01*
X135357506Y-86138168D01*
X135386467Y-86093105D01*
X135482211Y-85997360D01*
X135482216Y-85997355D01*
X135571227Y-85850113D01*
X135622413Y-85685849D01*
X135628900Y-85614465D01*
X135628899Y-85099936D01*
X135622413Y-85028551D01*
X135571227Y-84864287D01*
X135482216Y-84717045D01*
X135482215Y-84717044D01*
X135482211Y-84717039D01*
X135360555Y-84595383D01*
X135354556Y-84590683D01*
X135356273Y-84588490D01*
X135317160Y-84545768D01*
X135304300Y-84490312D01*
X135304300Y-82141100D01*
X135324302Y-82072979D01*
X135377958Y-82026486D01*
X135430300Y-82015100D01*
X136588315Y-82015100D01*
X136656436Y-82035102D01*
X136658316Y-82036335D01*
X136733484Y-82086560D01*
X136733486Y-82086561D01*
X136733489Y-82086563D01*
X136878261Y-82146529D01*
X137031950Y-82177100D01*
X139015650Y-82177100D01*
X139169339Y-82146529D01*
X139314111Y-82086563D01*
X139444402Y-81999505D01*
X139555205Y-81888702D01*
X139642263Y-81758411D01*
X139702229Y-81613639D01*
X139732800Y-81459950D01*
X139732800Y-81303250D01*
X139702229Y-81149561D01*
X139642263Y-81004789D01*
X139555205Y-80874498D01*
X139555200Y-80874492D01*
X139516403Y-80835695D01*
X139482377Y-80773383D01*
X139487442Y-80702568D01*
X139516403Y-80657505D01*
X139555200Y-80618707D01*
X139555205Y-80618702D01*
X139642263Y-80488411D01*
X139702229Y-80343639D01*
X139732800Y-80189950D01*
X139732800Y-80033250D01*
X139702229Y-79879561D01*
X139642263Y-79734789D01*
X139555205Y-79604498D01*
X139555200Y-79604492D01*
X139516403Y-79565695D01*
X139482377Y-79503383D01*
X139487442Y-79432568D01*
X139516403Y-79387505D01*
X139555200Y-79348707D01*
X139555205Y-79348702D01*
X139642263Y-79218411D01*
X139702229Y-79073639D01*
X139732800Y-78919950D01*
X139732800Y-78763250D01*
X139702229Y-78609561D01*
X139642263Y-78464789D01*
X139555205Y-78334498D01*
X139555200Y-78334492D01*
X139516403Y-78295695D01*
X139482377Y-78233383D01*
X139487442Y-78162568D01*
X139516403Y-78117505D01*
X139555200Y-78078707D01*
X139555205Y-78078702D01*
X139642263Y-77948411D01*
X139702229Y-77803639D01*
X139732800Y-77649950D01*
X139732800Y-77493250D01*
X139702229Y-77339561D01*
X139642263Y-77194789D01*
X139555205Y-77064498D01*
X139555200Y-77064492D01*
X139516403Y-77025695D01*
X139482377Y-76963383D01*
X139487442Y-76892568D01*
X139516403Y-76847505D01*
X139555200Y-76808707D01*
X139555205Y-76808702D01*
X139642263Y-76678411D01*
X139702229Y-76533639D01*
X139732800Y-76379950D01*
X139732800Y-76223250D01*
X139702229Y-76069561D01*
X139642263Y-75924789D01*
X139555205Y-75794498D01*
X139555200Y-75794492D01*
X139516403Y-75755695D01*
X139482377Y-75693383D01*
X139487442Y-75622568D01*
X139516403Y-75577505D01*
X139555200Y-75538707D01*
X139555205Y-75538702D01*
X139642263Y-75408411D01*
X139702229Y-75263639D01*
X139732800Y-75109950D01*
X139732800Y-74953250D01*
X139702229Y-74799561D01*
X139642263Y-74654789D01*
X139555205Y-74524498D01*
X139555200Y-74524492D01*
X139516403Y-74485695D01*
X139482377Y-74423383D01*
X139487442Y-74352568D01*
X139516403Y-74307505D01*
X139555200Y-74268707D01*
X139555205Y-74268702D01*
X139642263Y-74138411D01*
X139702229Y-73993639D01*
X139732800Y-73839950D01*
X139732800Y-73683250D01*
X139702229Y-73529561D01*
X139642263Y-73384789D01*
X139555205Y-73254498D01*
X139555200Y-73254492D01*
X139444407Y-73143699D01*
X139444401Y-73143694D01*
X139393233Y-73109505D01*
X139335807Y-73071133D01*
X139290280Y-73016658D01*
X139281432Y-72946215D01*
X139312073Y-72882171D01*
X139316715Y-72877274D01*
X139370207Y-72823782D01*
X139370210Y-72823777D01*
X139396293Y-72778600D01*
X136651307Y-72778600D01*
X136677389Y-72823777D01*
X136677395Y-72823786D01*
X136730884Y-72877275D01*
X136764910Y-72939587D01*
X136759845Y-73010402D01*
X136717298Y-73067238D01*
X136711791Y-73071135D01*
X136658317Y-73106865D01*
X136590564Y-73128080D01*
X136588315Y-73128100D01*
X136242600Y-73128100D01*
X136174479Y-73108098D01*
X136148963Y-73086410D01*
X136145652Y-73082733D01*
X135991152Y-72970482D01*
X135816688Y-72892806D01*
X135629887Y-72853100D01*
X135573995Y-72853100D01*
X135505874Y-72833098D01*
X135484900Y-72816195D01*
X135150205Y-72481500D01*
X135116179Y-72419188D01*
X135113300Y-72392405D01*
X135113300Y-72204599D01*
X136651306Y-72204599D01*
X136651307Y-72204600D01*
X137736800Y-72204600D01*
X138310800Y-72204600D01*
X139396293Y-72204600D01*
X139396293Y-72204599D01*
X139370210Y-72159422D01*
X139370204Y-72159413D01*
X139269489Y-72058698D01*
X139269479Y-72058691D01*
X139146119Y-71987469D01*
X139146114Y-71987467D01*
X139008527Y-71950600D01*
X138310800Y-71950600D01*
X138310800Y-72204600D01*
X137736800Y-72204600D01*
X137736800Y-71950600D01*
X137039072Y-71950600D01*
X136901485Y-71987467D01*
X136901480Y-71987469D01*
X136778120Y-72058691D01*
X136778110Y-72058698D01*
X136677395Y-72159413D01*
X136677389Y-72159422D01*
X136651306Y-72204599D01*
X135113300Y-72204599D01*
X135113300Y-71570291D01*
X135133302Y-71502170D01*
X135186958Y-71455677D01*
X135257232Y-71445573D01*
X135305445Y-71463049D01*
X135416099Y-71531302D01*
X135578864Y-71585236D01*
X135598956Y-71587288D01*
X135679320Y-71595500D01*
X135679328Y-71595500D01*
X136227080Y-71595500D01*
X136300136Y-71588035D01*
X136327536Y-71585236D01*
X136490301Y-71531302D01*
X136636240Y-71441285D01*
X136757485Y-71320040D01*
X136790386Y-71266698D01*
X136843172Y-71219220D01*
X136913246Y-71207817D01*
X136973137Y-71231977D01*
X137046279Y-71286731D01*
X137053200Y-71289312D01*
X137053200Y-71289311D01*
X137953200Y-71289311D01*
X137960120Y-71286731D01*
X138070386Y-71204186D01*
X138152933Y-71093917D01*
X138164838Y-71062000D01*
X137953200Y-71062000D01*
X137953200Y-71289311D01*
X137053200Y-71289311D01*
X137053200Y-70162000D01*
X137953200Y-70162000D01*
X138164838Y-70162000D01*
X138164838Y-70161999D01*
X138152933Y-70130082D01*
X138070386Y-70019813D01*
X137960118Y-69937267D01*
X137953200Y-69934686D01*
X137953200Y-70162000D01*
X137053200Y-70162000D01*
X137053200Y-69934686D01*
X137053199Y-69934686D01*
X137046279Y-69937267D01*
X137046278Y-69937268D01*
X136973136Y-69992022D01*
X136906616Y-70016833D01*
X136837242Y-70001742D01*
X136790386Y-69957301D01*
X136778029Y-69937268D01*
X136757485Y-69903960D01*
X136757484Y-69903959D01*
X136757479Y-69903953D01*
X136636238Y-69782712D01*
X136634547Y-69781375D01*
X136633688Y-69780162D01*
X136631051Y-69777525D01*
X136631501Y-69777074D01*
X136593520Y-69723433D01*
X136586700Y-69682542D01*
X136586700Y-69218724D01*
X136606702Y-69150603D01*
X136619058Y-69134420D01*
X136692240Y-69053144D01*
X136787727Y-68887756D01*
X136846742Y-68706128D01*
X136866704Y-68516200D01*
X136846742Y-68326272D01*
X136787727Y-68144644D01*
X136692240Y-67979256D01*
X136692238Y-67979254D01*
X136692234Y-67979248D01*
X136564455Y-67837335D01*
X136409952Y-67725082D01*
X136235488Y-67647406D01*
X136048687Y-67607700D01*
X135857713Y-67607700D01*
X135670911Y-67647406D01*
X135496447Y-67725082D01*
X135341944Y-67837335D01*
X135214165Y-67979248D01*
X135214158Y-67979258D01*
X135118676Y-68144638D01*
X135118673Y-68144645D01*
X135059657Y-68326272D01*
X135039696Y-68516200D01*
X135059657Y-68706127D01*
X135089726Y-68798670D01*
X135118673Y-68887756D01*
X135214160Y-69053144D01*
X135287337Y-69134415D01*
X135318053Y-69198420D01*
X135319700Y-69218724D01*
X135319700Y-69682542D01*
X135299698Y-69750663D01*
X135275342Y-69777525D01*
X135275346Y-69777529D01*
X135275281Y-69777593D01*
X135271853Y-69781375D01*
X135270164Y-69782710D01*
X135262514Y-69790360D01*
X135200200Y-69824383D01*
X135129385Y-69819315D01*
X135084326Y-69790355D01*
X135069155Y-69775184D01*
X134921913Y-69686173D01*
X134921912Y-69686172D01*
X134921911Y-69686172D01*
X134921906Y-69686170D01*
X134757646Y-69634986D01*
X134705723Y-69630268D01*
X134686265Y-69628500D01*
X134686262Y-69628500D01*
X134171738Y-69628500D01*
X134100353Y-69634986D01*
X134100352Y-69634986D01*
X133936093Y-69686170D01*
X133936088Y-69686172D01*
X133788844Y-69775184D01*
X133788839Y-69775188D01*
X133667188Y-69896839D01*
X133667184Y-69896844D01*
X133578172Y-70044088D01*
X133578167Y-70044099D01*
X133577614Y-70045875D01*
X133576856Y-70047011D01*
X133575041Y-70051045D01*
X133574370Y-70050743D01*
X133538246Y-70104957D01*
X133473185Y-70133376D01*
X133403088Y-70122108D01*
X133355943Y-70083199D01*
X133303652Y-70012347D01*
X133193537Y-69931079D01*
X133193534Y-69931077D01*
X133179000Y-69925991D01*
X133179000Y-70886000D01*
X133158998Y-70954121D01*
X133105342Y-71000614D01*
X133053000Y-71012000D01*
X132513695Y-71012000D01*
X132445574Y-70991998D01*
X132424594Y-70975090D01*
X132415899Y-70966394D01*
X132381878Y-70904080D01*
X132379000Y-70877304D01*
X132379000Y-69925991D01*
X132378999Y-69925991D01*
X132364465Y-69931077D01*
X132364458Y-69931081D01*
X132266419Y-70003436D01*
X132199731Y-70027793D01*
X132130462Y-70012230D01*
X132083773Y-69967243D01*
X132041216Y-69896845D01*
X132041213Y-69896842D01*
X132041211Y-69896839D01*
X131919560Y-69775188D01*
X131919555Y-69775184D01*
X131833948Y-69723433D01*
X131772313Y-69686173D01*
X131772312Y-69686172D01*
X131772311Y-69686172D01*
X131772306Y-69686170D01*
X131608046Y-69634986D01*
X131556123Y-69630268D01*
X131536665Y-69628500D01*
X131536662Y-69628500D01*
X131022138Y-69628500D01*
X130950753Y-69634986D01*
X130950752Y-69634986D01*
X130786493Y-69686170D01*
X130786488Y-69686172D01*
X130639244Y-69775184D01*
X130639239Y-69775188D01*
X130517588Y-69896839D01*
X130517584Y-69896844D01*
X130428572Y-70044088D01*
X130428567Y-70044099D01*
X130428014Y-70045875D01*
X130427256Y-70047011D01*
X130425441Y-70051045D01*
X130424770Y-70050743D01*
X130388646Y-70104957D01*
X130323585Y-70133376D01*
X130253488Y-70122108D01*
X130206343Y-70083199D01*
X130154052Y-70012347D01*
X130043937Y-69931079D01*
X130043934Y-69931077D01*
X130029400Y-69925991D01*
X130029400Y-71298007D01*
X130043934Y-71292922D01*
X130154054Y-71211651D01*
X130206343Y-71140801D01*
X130262887Y-71097868D01*
X130333667Y-71092321D01*
X130396209Y-71125920D01*
X130424987Y-71173159D01*
X130425441Y-71172955D01*
X130427075Y-71176585D01*
X130428015Y-71178128D01*
X130428567Y-71179900D01*
X130428572Y-71179911D01*
X130428573Y-71179913D01*
X130494707Y-71289312D01*
X130517584Y-71327155D01*
X130517588Y-71327160D01*
X130639239Y-71448811D01*
X130639244Y-71448815D01*
X130639245Y-71448816D01*
X130786487Y-71537827D01*
X130950751Y-71589013D01*
X131022135Y-71595500D01*
X131201004Y-71595499D01*
X131269125Y-71615501D01*
X131290100Y-71632404D01*
X134638077Y-74980382D01*
X134672103Y-75042694D01*
X134674292Y-75056306D01*
X134691657Y-75221527D01*
X134717476Y-75300988D01*
X134750673Y-75403156D01*
X134758550Y-75416799D01*
X134846158Y-75568541D01*
X134846165Y-75568551D01*
X134973944Y-75710464D01*
X135021194Y-75744793D01*
X135128448Y-75822718D01*
X135302912Y-75900394D01*
X135489713Y-75940100D01*
X135680687Y-75940100D01*
X135867488Y-75900394D01*
X136041952Y-75822718D01*
X136196453Y-75710466D01*
X136199763Y-75706790D01*
X136260209Y-75669550D01*
X136293400Y-75665100D01*
X136343126Y-75665100D01*
X136411247Y-75685102D01*
X136457740Y-75738758D01*
X136467844Y-75809032D01*
X136447891Y-75861101D01*
X136405339Y-75924784D01*
X136405337Y-75924788D01*
X136345372Y-76069557D01*
X136345371Y-76069560D01*
X136314800Y-76223246D01*
X136314800Y-76379953D01*
X136345371Y-76533639D01*
X136345372Y-76533642D01*
X136405337Y-76678411D01*
X136405339Y-76678415D01*
X136447891Y-76742099D01*
X136469106Y-76809852D01*
X136450323Y-76878318D01*
X136397505Y-76925761D01*
X136343126Y-76938100D01*
X131865203Y-76938100D01*
X131792168Y-76952628D01*
X131742815Y-76962445D01*
X131742813Y-76962445D01*
X131742812Y-76962446D01*
X131675275Y-76990421D01*
X131634056Y-77007495D01*
X131627523Y-77010201D01*
X131523771Y-77079526D01*
X131523764Y-77079531D01*
X130927531Y-77675764D01*
X130927526Y-77675771D01*
X130858201Y-77779523D01*
X130810446Y-77894812D01*
X130786100Y-78017203D01*
X130786100Y-79427332D01*
X130766098Y-79495453D01*
X130712442Y-79541946D01*
X130642168Y-79552050D01*
X130611883Y-79543741D01*
X130512185Y-79502445D01*
X130438308Y-79487750D01*
X130389796Y-79478100D01*
X130389794Y-79478100D01*
X130204474Y-79478100D01*
X130136353Y-79458098D01*
X130089860Y-79404442D01*
X130079756Y-79334168D01*
X130099709Y-79282099D01*
X130142260Y-79218415D01*
X130142263Y-79218411D01*
X130202229Y-79073639D01*
X130232800Y-78919950D01*
X130232800Y-78763250D01*
X130202229Y-78609561D01*
X130142263Y-78464789D01*
X130055205Y-78334498D01*
X130055200Y-78334492D01*
X130016403Y-78295695D01*
X129982377Y-78233383D01*
X129987442Y-78162568D01*
X130016403Y-78117505D01*
X130055200Y-78078707D01*
X130055205Y-78078702D01*
X130142263Y-77948411D01*
X130202229Y-77803639D01*
X130232800Y-77649950D01*
X130232800Y-77493250D01*
X130202229Y-77339561D01*
X130142263Y-77194789D01*
X130055205Y-77064498D01*
X130055200Y-77064492D01*
X130016403Y-77025695D01*
X129982377Y-76963383D01*
X129987442Y-76892568D01*
X130016403Y-76847505D01*
X130055200Y-76808707D01*
X130055205Y-76808702D01*
X130142263Y-76678411D01*
X130202229Y-76533639D01*
X130232800Y-76379950D01*
X130232800Y-76223250D01*
X130202229Y-76069561D01*
X130142263Y-75924789D01*
X130055205Y-75794498D01*
X130055200Y-75794492D01*
X130016403Y-75755695D01*
X129982377Y-75693383D01*
X129987442Y-75622568D01*
X130016403Y-75577505D01*
X130055200Y-75538707D01*
X130055205Y-75538702D01*
X130142263Y-75408411D01*
X130202229Y-75263639D01*
X130232800Y-75109950D01*
X130232800Y-74953250D01*
X130202229Y-74799561D01*
X130142263Y-74654789D01*
X130055205Y-74524498D01*
X130055200Y-74524492D01*
X130016403Y-74485695D01*
X129982377Y-74423383D01*
X129987442Y-74352568D01*
X130016403Y-74307505D01*
X130055200Y-74268707D01*
X130055205Y-74268702D01*
X130142263Y-74138411D01*
X130202229Y-73993639D01*
X130232800Y-73839950D01*
X130232800Y-73683250D01*
X130202229Y-73529561D01*
X130142263Y-73384789D01*
X130055205Y-73254498D01*
X130055200Y-73254492D01*
X130016403Y-73215695D01*
X129982377Y-73153383D01*
X129987442Y-73082568D01*
X130016403Y-73037505D01*
X130055200Y-72998707D01*
X130055205Y-72998702D01*
X130142263Y-72868411D01*
X130202229Y-72723639D01*
X130232800Y-72569950D01*
X130232800Y-72413250D01*
X130202229Y-72259561D01*
X130142263Y-72114789D01*
X130055205Y-71984498D01*
X130055200Y-71984492D01*
X129944407Y-71873699D01*
X129944401Y-71873694D01*
X129814111Y-71786637D01*
X129669342Y-71726672D01*
X129669339Y-71726671D01*
X129515653Y-71696100D01*
X129515650Y-71696100D01*
X129283300Y-71696100D01*
X129215179Y-71676098D01*
X129168686Y-71622442D01*
X129157300Y-71570100D01*
X129157300Y-71414258D01*
X129177302Y-71346137D01*
X129210387Y-71311498D01*
X129229400Y-71298007D01*
X129229400Y-69925991D01*
X129229399Y-69925991D01*
X129214865Y-69931077D01*
X129214862Y-69931079D01*
X129104747Y-70012347D01*
X129023476Y-70122465D01*
X128978276Y-70251639D01*
X128975400Y-70282311D01*
X128975400Y-70371306D01*
X128955398Y-70439427D01*
X128901742Y-70485920D01*
X128831468Y-70496024D01*
X128766888Y-70466530D01*
X128760305Y-70460401D01*
X128582122Y-70282218D01*
X128548096Y-70219906D01*
X128545907Y-70206293D01*
X128535256Y-70104957D01*
X128528542Y-70041072D01*
X128469527Y-69859444D01*
X128374040Y-69694056D01*
X128374038Y-69694054D01*
X128374034Y-69694048D01*
X128246255Y-69552135D01*
X128091752Y-69439882D01*
X127917288Y-69362206D01*
X127730487Y-69322500D01*
X127539513Y-69322500D01*
X127352711Y-69362206D01*
X127178247Y-69439882D01*
X127023744Y-69552135D01*
X126895965Y-69694048D01*
X126895958Y-69694058D01*
X126800476Y-69859438D01*
X126800473Y-69859445D01*
X126741457Y-70041072D01*
X126721496Y-70231000D01*
X126741457Y-70420927D01*
X126756275Y-70466530D01*
X126800473Y-70602556D01*
X126800476Y-70602561D01*
X126895958Y-70767941D01*
X126895965Y-70767951D01*
X127023744Y-70909864D01*
X127058361Y-70935015D01*
X127178248Y-71022118D01*
X127352712Y-71099794D01*
X127539513Y-71139500D01*
X127595406Y-71139500D01*
X127663527Y-71159502D01*
X127684501Y-71176405D01*
X127853395Y-71345299D01*
X127887421Y-71407611D01*
X127890300Y-71434394D01*
X127890300Y-71570100D01*
X127870298Y-71638221D01*
X127816642Y-71684714D01*
X127764300Y-71696100D01*
X127531946Y-71696100D01*
X127378260Y-71726671D01*
X127378257Y-71726672D01*
X127233488Y-71786637D01*
X127103198Y-71873694D01*
X127103192Y-71873699D01*
X126992399Y-71984492D01*
X126992394Y-71984498D01*
X126905337Y-72114788D01*
X126845372Y-72259557D01*
X126845371Y-72259560D01*
X126814800Y-72413246D01*
X126814800Y-72569953D01*
X126845371Y-72723639D01*
X126845372Y-72723642D01*
X126905337Y-72868411D01*
X126992394Y-72998701D01*
X126992399Y-72998707D01*
X127031197Y-73037505D01*
X127065223Y-73099817D01*
X127060158Y-73170632D01*
X127031197Y-73215695D01*
X126992399Y-73254492D01*
X126992394Y-73254498D01*
X126905337Y-73384788D01*
X126845372Y-73529557D01*
X126845371Y-73529560D01*
X126814800Y-73683246D01*
X126814800Y-73839953D01*
X126845371Y-73993639D01*
X126845372Y-73993642D01*
X126905337Y-74138411D01*
X126992394Y-74268701D01*
X126992399Y-74268707D01*
X127031197Y-74307505D01*
X127065223Y-74369817D01*
X127060158Y-74440632D01*
X127031197Y-74485695D01*
X126992399Y-74524492D01*
X126992394Y-74524498D01*
X126905337Y-74654788D01*
X126845372Y-74799557D01*
X126845371Y-74799560D01*
X126814800Y-74953246D01*
X126814800Y-75109953D01*
X126845371Y-75263639D01*
X126905337Y-75408411D01*
X126992394Y-75538701D01*
X126992399Y-75538707D01*
X127031197Y-75577505D01*
X127065223Y-75639817D01*
X127060158Y-75710632D01*
X127031197Y-75755695D01*
X126992399Y-75794492D01*
X126992394Y-75794498D01*
X126905336Y-75924789D01*
X126891756Y-75957576D01*
X126864442Y-75998452D01*
X118468167Y-84394729D01*
X118379931Y-84482964D01*
X118379926Y-84482971D01*
X118310762Y-84586483D01*
X118310600Y-84586725D01*
X118306707Y-84596124D01*
X118262846Y-84702011D01*
X118243367Y-84799933D01*
X118210458Y-84862842D01*
X118184977Y-84883176D01*
X118156842Y-84900185D01*
X118035188Y-85021839D01*
X118035184Y-85021844D01*
X117946172Y-85169088D01*
X117946170Y-85169093D01*
X117894986Y-85333353D01*
X117888500Y-85404737D01*
X117888500Y-85919261D01*
X117894986Y-85990646D01*
X117894986Y-85990647D01*
X117946170Y-86154906D01*
X117946172Y-86154911D01*
X117946173Y-86154913D01*
X118019697Y-86276537D01*
X118035184Y-86302155D01*
X118035188Y-86302160D01*
X118130933Y-86397905D01*
X118164959Y-86460217D01*
X118159894Y-86531032D01*
X118130933Y-86576095D01*
X118035188Y-86671839D01*
X118035184Y-86671844D01*
X117946172Y-86819088D01*
X117946170Y-86819093D01*
X117894986Y-86983353D01*
X117888500Y-87054737D01*
X117888500Y-87569261D01*
X117894986Y-87640646D01*
X117894986Y-87640647D01*
X117946170Y-87804906D01*
X117946172Y-87804911D01*
X118035184Y-87952155D01*
X118035188Y-87952160D01*
X118156838Y-88073810D01*
X118156841Y-88073812D01*
X118156845Y-88073816D01*
X118177682Y-88086412D01*
X118225632Y-88138770D01*
X118238500Y-88194242D01*
X118238500Y-93788396D01*
X118242678Y-93809398D01*
X118248106Y-93836689D01*
X118251713Y-93854818D01*
X118245385Y-93925532D01*
X118201831Y-93981599D01*
X118134879Y-94005219D01*
X118128134Y-94005400D01*
X113206800Y-94005400D01*
X113138679Y-93985398D01*
X113092186Y-93931742D01*
X113080800Y-93879400D01*
X113080800Y-90827900D01*
X113100802Y-90759779D01*
X113154458Y-90713286D01*
X113206800Y-90701900D01*
X113524193Y-90701900D01*
X113524194Y-90701900D01*
X113646585Y-90677555D01*
X113761875Y-90629800D01*
X113865633Y-90560471D01*
X114944471Y-89481633D01*
X115013800Y-89377875D01*
X115061555Y-89262585D01*
X115085900Y-89140194D01*
X115085900Y-89015406D01*
X115085900Y-83855194D01*
X115105902Y-83787073D01*
X115122805Y-83766099D01*
X115926899Y-82962005D01*
X115989211Y-82927979D01*
X116015994Y-82925100D01*
X116071887Y-82925100D01*
X116258688Y-82885394D01*
X116433152Y-82807718D01*
X116587653Y-82695466D01*
X116668636Y-82605525D01*
X116715434Y-82553551D01*
X116715435Y-82553549D01*
X116715440Y-82553544D01*
X116810927Y-82388156D01*
X116869942Y-82206528D01*
X116889904Y-82016600D01*
X116869942Y-81826672D01*
X116810927Y-81645044D01*
X116723085Y-81492898D01*
X116706348Y-81423905D01*
X116729568Y-81356813D01*
X116785375Y-81312926D01*
X116832205Y-81303900D01*
X119086793Y-81303900D01*
X119086794Y-81303900D01*
X119209185Y-81279555D01*
X119324475Y-81231800D01*
X119428233Y-81162471D01*
X121657288Y-78933414D01*
X121719597Y-78899392D01*
X121772578Y-78899266D01*
X121951509Y-78937300D01*
X121951513Y-78937300D01*
X122142487Y-78937300D01*
X122329288Y-78897594D01*
X122503752Y-78819918D01*
X122658253Y-78707666D01*
X122658255Y-78707664D01*
X122786034Y-78565751D01*
X122786035Y-78565749D01*
X122786040Y-78565744D01*
X122881527Y-78400356D01*
X122940542Y-78218728D01*
X122960504Y-78028800D01*
X122940542Y-77838872D01*
X122881527Y-77657244D01*
X122786040Y-77491856D01*
X122786038Y-77491854D01*
X122786034Y-77491848D01*
X122658257Y-77349937D01*
X122637401Y-77334784D01*
X122594048Y-77278561D01*
X122587974Y-77207825D01*
X122606696Y-77162851D01*
X122659200Y-77084275D01*
X122706955Y-76968985D01*
X122731300Y-76846594D01*
X122731300Y-76846593D01*
X122732175Y-76842195D01*
X122765083Y-76779286D01*
X122790571Y-76758948D01*
X122812948Y-76745420D01*
X122812955Y-76745416D01*
X122934616Y-76623755D01*
X122977604Y-76552643D01*
X123029963Y-76504696D01*
X123099933Y-76492666D01*
X123160253Y-76516450D01*
X123259259Y-76589520D01*
X123259264Y-76589522D01*
X123348799Y-76620852D01*
X124148800Y-76620852D01*
X124238335Y-76589522D01*
X124348452Y-76508252D01*
X124429722Y-76398134D01*
X124434808Y-76383600D01*
X124148800Y-76383600D01*
X124148800Y-76620852D01*
X123348799Y-76620852D01*
X123348800Y-76620851D01*
X123348800Y-75943500D01*
X123368802Y-75875379D01*
X123422458Y-75828886D01*
X123474800Y-75817500D01*
X124725593Y-75817500D01*
X124725594Y-75817500D01*
X124847985Y-75793155D01*
X124963275Y-75745400D01*
X125067033Y-75676071D01*
X125269572Y-75473533D01*
X125338901Y-75369775D01*
X125382863Y-75263639D01*
X125386655Y-75254485D01*
X125411000Y-75132094D01*
X125411000Y-68450094D01*
X125431002Y-68381973D01*
X125447905Y-68360999D01*
X127454099Y-66354805D01*
X127516411Y-66320779D01*
X127543194Y-66317900D01*
X135901593Y-66317900D01*
X135901594Y-66317900D01*
X136023985Y-66293555D01*
X136139275Y-66245800D01*
X136243033Y-66176471D01*
X138421504Y-63998000D01*
X155569647Y-63998000D01*
X155589022Y-64219463D01*
X155631769Y-64378995D01*
X155646559Y-64434193D01*
X155646561Y-64434199D01*
X155740511Y-64635675D01*
X155740512Y-64635677D01*
X155868016Y-64817772D01*
X155868020Y-64817777D01*
X155868023Y-64817781D01*
X156025219Y-64974977D01*
X156025223Y-64974980D01*
X156025227Y-64974983D01*
X156129124Y-65047732D01*
X156207323Y-65102488D01*
X156258619Y-65126407D01*
X156274482Y-65133805D01*
X156327767Y-65180723D01*
X156347228Y-65249000D01*
X156326686Y-65316960D01*
X156274483Y-65362194D01*
X156207325Y-65393510D01*
X156025222Y-65521020D01*
X156025216Y-65521025D01*
X155868025Y-65678216D01*
X155868020Y-65678222D01*
X155740512Y-65860323D01*
X155740512Y-65860324D01*
X155646560Y-66061804D01*
X155589022Y-66276537D01*
X155569647Y-66498000D01*
X155589022Y-66719463D01*
X155629018Y-66868729D01*
X155646559Y-66934193D01*
X155646561Y-66934199D01*
X155740511Y-67135675D01*
X155740512Y-67135677D01*
X155868016Y-67317772D01*
X155868020Y-67317777D01*
X155868023Y-67317781D01*
X155959147Y-67408905D01*
X155993172Y-67471217D01*
X155988106Y-67542033D01*
X155959147Y-67587095D01*
X155868020Y-67678222D01*
X155740512Y-67860323D01*
X155646561Y-68061801D01*
X155646559Y-68061806D01*
X155624363Y-68144644D01*
X155589022Y-68276537D01*
X155569647Y-68498000D01*
X155589022Y-68719463D01*
X155634116Y-68887754D01*
X155646559Y-68934193D01*
X155646561Y-68934199D01*
X155740511Y-69135675D01*
X155740512Y-69135677D01*
X155868016Y-69317772D01*
X155868020Y-69317777D01*
X155868023Y-69317781D01*
X156025219Y-69474977D01*
X156025223Y-69474980D01*
X156025227Y-69474983D01*
X156129124Y-69547732D01*
X156207323Y-69602488D01*
X156408804Y-69696440D01*
X156550080Y-69734295D01*
X156610699Y-69771244D01*
X156641721Y-69835105D01*
X156633293Y-69905599D01*
X156588091Y-69960346D01*
X156520465Y-69981964D01*
X156517466Y-69982000D01*
X156057986Y-69982000D01*
X156057977Y-69982001D01*
X155983894Y-69996737D01*
X155983892Y-69996737D01*
X155899875Y-70052875D01*
X155843737Y-70136893D01*
X155843736Y-70136894D01*
X155829000Y-70210977D01*
X155829000Y-70498000D01*
X157860999Y-70498000D01*
X157860999Y-70210986D01*
X157860998Y-70210977D01*
X157846262Y-70136894D01*
X157846262Y-70136892D01*
X157790124Y-70052875D01*
X157706106Y-69996737D01*
X157706105Y-69996736D01*
X157632022Y-69982000D01*
X157172535Y-69982000D01*
X157104414Y-69961998D01*
X157057921Y-69908342D01*
X157047817Y-69838068D01*
X157077311Y-69773488D01*
X157137037Y-69735104D01*
X157139844Y-69734315D01*
X157281196Y-69696440D01*
X157482677Y-69602488D01*
X157664781Y-69474977D01*
X157821977Y-69317781D01*
X157949488Y-69135677D01*
X158043440Y-68934196D01*
X158100978Y-68719463D01*
X158120353Y-68498000D01*
X158100978Y-68276537D01*
X158043440Y-68061804D01*
X157949488Y-67860324D01*
X157821977Y-67678219D01*
X157730853Y-67587095D01*
X157696827Y-67524783D01*
X157701892Y-67453968D01*
X157730853Y-67408905D01*
X157821977Y-67317781D01*
X157949488Y-67135677D01*
X158043440Y-66934196D01*
X158100978Y-66719463D01*
X158120353Y-66498000D01*
X158100978Y-66276537D01*
X158043440Y-66061804D01*
X157949488Y-65860324D01*
X157821977Y-65678219D01*
X157664781Y-65521023D01*
X157664777Y-65521020D01*
X157664772Y-65521016D01*
X157482677Y-65393512D01*
X157482675Y-65393511D01*
X157415517Y-65362195D01*
X157362232Y-65315278D01*
X157342771Y-65247001D01*
X157363313Y-65179041D01*
X157415517Y-65133805D01*
X157482677Y-65102488D01*
X157664781Y-64974977D01*
X157821977Y-64817781D01*
X157949488Y-64635677D01*
X158043440Y-64434196D01*
X158100978Y-64219463D01*
X158120353Y-63998000D01*
X158100978Y-63776537D01*
X158043440Y-63561804D01*
X157949488Y-63360324D01*
X157821977Y-63178219D01*
X157664781Y-63021023D01*
X157664777Y-63021020D01*
X157664772Y-63021016D01*
X157482677Y-62893512D01*
X157482675Y-62893511D01*
X157281199Y-62799561D01*
X157281193Y-62799559D01*
X157222648Y-62783872D01*
X157066463Y-62742022D01*
X156845000Y-62722647D01*
X156623537Y-62742022D01*
X156508463Y-62772856D01*
X156408806Y-62799559D01*
X156408801Y-62799561D01*
X156207323Y-62893512D01*
X156025222Y-63021020D01*
X156025216Y-63021025D01*
X155868025Y-63178216D01*
X155868020Y-63178222D01*
X155740512Y-63360323D01*
X155740512Y-63360324D01*
X155646560Y-63561804D01*
X155589022Y-63776537D01*
X155569647Y-63998000D01*
X138421504Y-63998000D01*
X142598762Y-59820743D01*
X144575900Y-59820743D01*
X144575900Y-60067256D01*
X144608074Y-60311648D01*
X144608076Y-60311655D01*
X144671877Y-60549764D01*
X144766212Y-60777509D01*
X144766213Y-60777510D01*
X144766218Y-60777521D01*
X144889463Y-60990988D01*
X144889467Y-60990994D01*
X145039524Y-61186551D01*
X145039543Y-61186572D01*
X145213827Y-61360856D01*
X145213848Y-61360875D01*
X145409405Y-61510932D01*
X145409411Y-61510936D01*
X145622878Y-61634181D01*
X145622882Y-61634182D01*
X145622891Y-61634188D01*
X145850636Y-61728523D01*
X146088745Y-61792324D01*
X146088749Y-61792324D01*
X146088751Y-61792325D01*
X146151738Y-61800617D01*
X146333146Y-61824500D01*
X146333153Y-61824500D01*
X146579647Y-61824500D01*
X146579654Y-61824500D01*
X146800532Y-61795420D01*
X146824048Y-61792325D01*
X146824048Y-61792324D01*
X146824055Y-61792324D01*
X147062164Y-61728523D01*
X147289909Y-61634188D01*
X147503392Y-61510934D01*
X147698960Y-61360868D01*
X147873268Y-61186560D01*
X148023334Y-60990992D01*
X148146588Y-60777509D01*
X148240923Y-60549764D01*
X148304724Y-60311655D01*
X148336900Y-60067254D01*
X148336900Y-59820746D01*
X148304724Y-59576345D01*
X148240923Y-59338236D01*
X148146588Y-59110491D01*
X148146582Y-59110482D01*
X148146581Y-59110478D01*
X148023336Y-58897011D01*
X148023332Y-58897005D01*
X147873275Y-58701448D01*
X147873256Y-58701427D01*
X147698972Y-58527143D01*
X147698951Y-58527124D01*
X147503394Y-58377067D01*
X147503388Y-58377063D01*
X147289921Y-58253818D01*
X147289913Y-58253814D01*
X147289909Y-58253812D01*
X147062164Y-58159477D01*
X146824055Y-58095676D01*
X146824048Y-58095674D01*
X146579656Y-58063500D01*
X146579654Y-58063500D01*
X146333146Y-58063500D01*
X146333143Y-58063500D01*
X146088751Y-58095674D01*
X145850636Y-58159477D01*
X145622889Y-58253813D01*
X145622878Y-58253818D01*
X145409411Y-58377063D01*
X145409405Y-58377067D01*
X145213848Y-58527124D01*
X145213827Y-58527143D01*
X145039543Y-58701427D01*
X145039524Y-58701448D01*
X144889467Y-58897005D01*
X144889463Y-58897011D01*
X144766218Y-59110478D01*
X144766213Y-59110489D01*
X144766212Y-59110491D01*
X144765533Y-59112130D01*
X144671877Y-59338236D01*
X144608074Y-59576351D01*
X144575900Y-59820743D01*
X142598762Y-59820743D01*
X148447072Y-53972433D01*
X148516401Y-53868675D01*
X148550168Y-53787152D01*
X148564155Y-53753385D01*
X148588500Y-53630994D01*
X148588500Y-51785022D01*
X155829001Y-51785022D01*
X155843737Y-51859105D01*
X155843737Y-51859107D01*
X155899875Y-51943124D01*
X155983893Y-51999262D01*
X155983894Y-51999263D01*
X156057980Y-52013999D01*
X156345000Y-52013999D01*
X157345000Y-52013999D01*
X157632014Y-52013999D01*
X157632022Y-52013998D01*
X157706105Y-51999262D01*
X157706107Y-51999262D01*
X157790124Y-51943124D01*
X157846262Y-51859106D01*
X157846263Y-51859105D01*
X157860999Y-51785022D01*
X157861000Y-51785015D01*
X157861000Y-51498000D01*
X157345000Y-51498000D01*
X157345000Y-52013999D01*
X156345000Y-52013999D01*
X156345000Y-51498000D01*
X155829001Y-51498000D01*
X155829001Y-51785022D01*
X148588500Y-51785022D01*
X148588500Y-50937440D01*
X156385000Y-50937440D01*
X156385000Y-51058560D01*
X156416349Y-51175553D01*
X156476909Y-51280446D01*
X156562554Y-51366091D01*
X156667447Y-51426651D01*
X156784440Y-51458000D01*
X156905560Y-51458000D01*
X157022553Y-51426651D01*
X157127446Y-51366091D01*
X157213091Y-51280446D01*
X157273651Y-51175553D01*
X157305000Y-51058560D01*
X157305000Y-50937440D01*
X157273651Y-50820447D01*
X157213091Y-50715554D01*
X157127446Y-50629909D01*
X157022553Y-50569349D01*
X156905560Y-50538000D01*
X156784440Y-50538000D01*
X156667447Y-50569349D01*
X156562554Y-50629909D01*
X156476909Y-50715554D01*
X156416349Y-50820447D01*
X156385000Y-50937440D01*
X148588500Y-50937440D01*
X148588500Y-50700320D01*
X148608502Y-50632199D01*
X148654527Y-50589508D01*
X148700576Y-50564589D01*
X148878240Y-50426306D01*
X149030722Y-50260668D01*
X149153860Y-50072191D01*
X149244296Y-49866016D01*
X149299564Y-49647768D01*
X149318156Y-49423400D01*
X149299564Y-49199032D01*
X149283520Y-49135675D01*
X149244297Y-48980787D01*
X149244296Y-48980786D01*
X149244296Y-48980784D01*
X149153860Y-48774609D01*
X149147140Y-48764324D01*
X149030724Y-48586134D01*
X149030719Y-48586129D01*
X148983659Y-48535009D01*
X148887524Y-48430579D01*
X148856103Y-48366914D01*
X148864090Y-48296368D01*
X148908948Y-48241339D01*
X148936183Y-48227189D01*
X149051204Y-48184289D01*
X149168261Y-48096661D01*
X149199531Y-48054889D01*
X149255887Y-47979607D01*
X149255887Y-47979606D01*
X149255889Y-47979604D01*
X149306989Y-47842601D01*
X149313500Y-47782038D01*
X149313500Y-45984762D01*
X149313499Y-45984750D01*
X149306990Y-45924203D01*
X149306988Y-45924195D01*
X149255889Y-45787197D01*
X149255887Y-45787192D01*
X149168261Y-45670138D01*
X149051207Y-45582512D01*
X149051202Y-45582510D01*
X148914204Y-45531411D01*
X148914196Y-45531409D01*
X148853649Y-45524900D01*
X148853638Y-45524900D01*
X147056362Y-45524900D01*
X147056350Y-45524900D01*
X146995803Y-45531409D01*
X146995795Y-45531411D01*
X146858797Y-45582510D01*
X146858792Y-45582512D01*
X146741738Y-45670138D01*
X146654112Y-45787192D01*
X146654110Y-45787197D01*
X146603011Y-45924195D01*
X146603009Y-45924203D01*
X146596500Y-45984750D01*
X146596500Y-47782049D01*
X146603009Y-47842596D01*
X146603011Y-47842604D01*
X146654110Y-47979602D01*
X146654112Y-47979607D01*
X146741738Y-48096661D01*
X146858791Y-48184286D01*
X146858792Y-48184286D01*
X146858796Y-48184289D01*
X146973810Y-48227187D01*
X147030642Y-48269732D01*
X147055453Y-48336252D01*
X147040362Y-48405626D01*
X147022475Y-48430579D01*
X146879280Y-48586129D01*
X146879275Y-48586134D01*
X146756141Y-48774606D01*
X146665703Y-48980786D01*
X146665702Y-48980787D01*
X146610437Y-49199024D01*
X146610436Y-49199030D01*
X146610436Y-49199032D01*
X146591844Y-49423400D01*
X146610437Y-49647775D01*
X146665702Y-49866012D01*
X146665703Y-49866013D01*
X146665704Y-49866016D01*
X146723043Y-49996736D01*
X146756141Y-50072193D01*
X146879275Y-50260665D01*
X146879279Y-50260670D01*
X147031762Y-50426308D01*
X147120592Y-50495447D01*
X147209424Y-50564589D01*
X147255471Y-50589508D01*
X147305859Y-50639518D01*
X147321500Y-50700320D01*
X147321500Y-53254005D01*
X147301498Y-53322126D01*
X147284595Y-53343100D01*
X142520595Y-58107100D01*
X142458283Y-58141126D01*
X142387468Y-58136061D01*
X142330632Y-58093514D01*
X142305821Y-58026994D01*
X142305500Y-58018005D01*
X142305500Y-49947772D01*
X142325502Y-49879651D01*
X142371532Y-49836958D01*
X142408913Y-49816727D01*
X142445017Y-49797190D01*
X142629220Y-49653818D01*
X142634790Y-49647768D01*
X142787314Y-49482083D01*
X142825653Y-49423400D01*
X142914984Y-49286669D01*
X143008749Y-49072907D01*
X143066051Y-48846626D01*
X143085327Y-48614000D01*
X143066051Y-48381374D01*
X143039503Y-48276537D01*
X143008750Y-48155096D01*
X143008747Y-48155089D01*
X142999444Y-48133881D01*
X142914984Y-47941331D01*
X142850481Y-47842601D01*
X142787314Y-47745916D01*
X142629225Y-47574186D01*
X142629221Y-47574182D01*
X142501762Y-47474977D01*
X142445017Y-47430810D01*
X142239727Y-47319713D01*
X142239724Y-47319712D01*
X142239723Y-47319711D01*
X142018955Y-47243921D01*
X142018948Y-47243919D01*
X141920411Y-47227476D01*
X141788712Y-47205500D01*
X141555288Y-47205500D01*
X141440066Y-47224727D01*
X141325051Y-47243919D01*
X141325044Y-47243921D01*
X141104276Y-47319711D01*
X141104273Y-47319713D01*
X140898985Y-47430809D01*
X140898983Y-47430810D01*
X140714778Y-47574182D01*
X140714774Y-47574186D01*
X140556685Y-47745916D01*
X140429015Y-47941331D01*
X140335252Y-48155089D01*
X140335249Y-48155096D01*
X140277950Y-48381366D01*
X140277949Y-48381372D01*
X140277949Y-48381374D01*
X140258673Y-48614000D01*
X140277863Y-48845591D01*
X140277950Y-48846633D01*
X140335249Y-49072903D01*
X140335252Y-49072910D01*
X140429015Y-49286668D01*
X140556685Y-49482083D01*
X140714774Y-49653813D01*
X140714778Y-49653817D01*
X140769538Y-49696438D01*
X140898983Y-49797190D01*
X140898988Y-49797192D01*
X140898990Y-49797194D01*
X140972468Y-49836958D01*
X141022859Y-49886971D01*
X141038500Y-49947772D01*
X141038500Y-58292406D01*
X141018498Y-58360527D01*
X141001595Y-58381501D01*
X135004101Y-64378995D01*
X134941789Y-64413021D01*
X134915006Y-64415900D01*
X126480403Y-64415900D01*
X126407368Y-64430428D01*
X126358015Y-64440245D01*
X126358013Y-64440245D01*
X126358012Y-64440246D01*
X126242723Y-64488001D01*
X126138971Y-64557326D01*
X126138964Y-64557331D01*
X123739331Y-66956964D01*
X123739326Y-66956971D01*
X123670001Y-67060723D01*
X123622246Y-67176012D01*
X123597900Y-67298403D01*
X123597900Y-72982604D01*
X123577898Y-73050725D01*
X123524242Y-73097218D01*
X123453968Y-73107322D01*
X123389388Y-73077828D01*
X123382805Y-73071700D01*
X123270359Y-72959254D01*
X122920233Y-72609129D01*
X122816475Y-72539800D01*
X122701185Y-72492045D01*
X122627486Y-72477385D01*
X122578796Y-72467700D01*
X122578794Y-72467700D01*
X119986291Y-72467700D01*
X119918170Y-72447698D01*
X119871677Y-72394042D01*
X119860291Y-72341913D01*
X119840606Y-60675694D01*
X119835241Y-57496214D01*
X119855128Y-57428061D01*
X119908705Y-57381478D01*
X119978962Y-57371255D01*
X120035299Y-57394065D01*
X120243021Y-57544984D01*
X120519621Y-57697047D01*
X120813098Y-57813243D01*
X121118825Y-57891740D01*
X121118833Y-57891741D01*
X121118832Y-57891741D01*
X121282929Y-57912470D01*
X121431979Y-57931300D01*
X121431983Y-57931300D01*
X121747617Y-57931300D01*
X121747621Y-57931300D01*
X122060775Y-57891740D01*
X122366502Y-57813243D01*
X122659979Y-57697047D01*
X122936579Y-57544984D01*
X123191940Y-57359454D01*
X123422033Y-57143382D01*
X123623232Y-56900175D01*
X123623234Y-56900170D01*
X123623237Y-56900168D01*
X123792356Y-56633678D01*
X123792362Y-56633669D01*
X123926756Y-56348066D01*
X124024295Y-56047872D01*
X124083441Y-55737820D01*
X124095833Y-55540853D01*
X124103260Y-55422806D01*
X124103260Y-55422796D01*
X125426964Y-55422796D01*
X125426964Y-55422803D01*
X125446288Y-55717632D01*
X125446291Y-55717650D01*
X125503931Y-56007428D01*
X125503933Y-56007435D01*
X125598907Y-56287215D01*
X125598911Y-56287225D01*
X125729589Y-56552215D01*
X125777529Y-56623963D01*
X126331879Y-56069613D01*
X126402885Y-56208971D01*
X126541664Y-56399984D01*
X126708616Y-56566936D01*
X126899629Y-56705715D01*
X127038985Y-56776720D01*
X126484635Y-57331070D01*
X126556384Y-57379010D01*
X126821374Y-57509688D01*
X126821384Y-57509692D01*
X127101164Y-57604666D01*
X127101171Y-57604668D01*
X127390949Y-57662308D01*
X127390967Y-57662311D01*
X127685797Y-57681636D01*
X127685803Y-57681636D01*
X127980632Y-57662311D01*
X127980650Y-57662308D01*
X128270428Y-57604668D01*
X128270435Y-57604666D01*
X128550215Y-57509692D01*
X128550225Y-57509688D01*
X128815220Y-57379008D01*
X128886962Y-57331070D01*
X128886963Y-57331069D01*
X128332614Y-56776720D01*
X128471971Y-56705715D01*
X128662984Y-56566936D01*
X128829936Y-56399984D01*
X128968715Y-56208971D01*
X129039720Y-56069614D01*
X129594069Y-56623963D01*
X129594070Y-56623962D01*
X129642008Y-56552220D01*
X129772688Y-56287225D01*
X129772692Y-56287215D01*
X129867666Y-56007435D01*
X129867668Y-56007428D01*
X129925308Y-55717650D01*
X129925311Y-55717632D01*
X129944636Y-55422803D01*
X129944636Y-55422796D01*
X129925311Y-55127967D01*
X129925308Y-55127949D01*
X129867668Y-54838171D01*
X129867666Y-54838164D01*
X129772692Y-54558384D01*
X129772688Y-54558374D01*
X129642010Y-54293384D01*
X129594070Y-54221635D01*
X129039720Y-54775985D01*
X128968715Y-54636629D01*
X128829936Y-54445616D01*
X128662984Y-54278664D01*
X128471971Y-54139885D01*
X128332613Y-54068879D01*
X128886963Y-53514529D01*
X128815215Y-53466589D01*
X128550225Y-53335911D01*
X128550215Y-53335907D01*
X128270435Y-53240933D01*
X128270428Y-53240931D01*
X127980650Y-53183291D01*
X127980632Y-53183288D01*
X127685803Y-53163964D01*
X127685797Y-53163964D01*
X127390967Y-53183288D01*
X127390949Y-53183291D01*
X127101171Y-53240931D01*
X127101164Y-53240933D01*
X126821384Y-53335907D01*
X126821374Y-53335911D01*
X126556383Y-53466590D01*
X126484635Y-53514528D01*
X126484635Y-53514529D01*
X127038985Y-54068879D01*
X126899629Y-54139885D01*
X126708616Y-54278664D01*
X126541664Y-54445616D01*
X126402885Y-54636629D01*
X126331879Y-54775985D01*
X125777529Y-54221635D01*
X125777528Y-54221635D01*
X125729590Y-54293383D01*
X125598911Y-54558374D01*
X125598907Y-54558384D01*
X125503933Y-54838164D01*
X125503931Y-54838171D01*
X125446291Y-55127949D01*
X125446288Y-55127967D01*
X125426964Y-55422796D01*
X124103260Y-55422796D01*
X124103260Y-55422793D01*
X124083442Y-55107792D01*
X124083440Y-55107775D01*
X124078609Y-55082449D01*
X124024295Y-54797728D01*
X123955842Y-54587051D01*
X123926760Y-54497545D01*
X123926755Y-54497532D01*
X123902325Y-54445616D01*
X123792362Y-54211931D01*
X123792356Y-54211921D01*
X123623237Y-53945431D01*
X123422036Y-53702221D01*
X123191939Y-53486145D01*
X122936581Y-53300617D01*
X122850248Y-53253155D01*
X122659979Y-53148553D01*
X122366502Y-53032357D01*
X122060775Y-52953860D01*
X122060770Y-52953859D01*
X122060765Y-52953858D01*
X122060767Y-52953858D01*
X121747635Y-52914301D01*
X121747624Y-52914300D01*
X121747621Y-52914300D01*
X121431979Y-52914300D01*
X121431976Y-52914300D01*
X121431964Y-52914301D01*
X121118833Y-52953858D01*
X120813101Y-53032356D01*
X120519621Y-53148553D01*
X120243018Y-53300617D01*
X120028313Y-53456609D01*
X119961445Y-53480468D01*
X119892293Y-53464387D01*
X119842813Y-53413473D01*
X119828253Y-53354892D01*
X119822092Y-49703448D01*
X133789657Y-49703448D01*
X133854840Y-49728701D01*
X134065068Y-49768000D01*
X134278932Y-49768000D01*
X134489159Y-49728701D01*
X134554342Y-49703448D01*
X134172001Y-49321107D01*
X134172000Y-49321107D01*
X133789657Y-49703448D01*
X119822092Y-49703448D01*
X119820254Y-48614000D01*
X133013056Y-48614000D01*
X133032789Y-48826956D01*
X133081330Y-48997560D01*
X133464893Y-48613999D01*
X133385903Y-48535009D01*
X133572000Y-48535009D01*
X133572000Y-48692991D01*
X133612889Y-48845591D01*
X133691881Y-48982408D01*
X133803592Y-49094119D01*
X133940409Y-49173111D01*
X134093009Y-49214000D01*
X134250991Y-49214000D01*
X134403591Y-49173111D01*
X134540408Y-49094119D01*
X134652119Y-48982408D01*
X134731111Y-48845591D01*
X134772000Y-48692991D01*
X134772000Y-48613999D01*
X134879107Y-48613999D01*
X134879107Y-48614001D01*
X135262667Y-48997561D01*
X135262667Y-48997560D01*
X135311210Y-48826956D01*
X135330943Y-48614000D01*
X135311210Y-48401043D01*
X135262667Y-48230438D01*
X134879107Y-48613999D01*
X134772000Y-48613999D01*
X134772000Y-48535009D01*
X134731111Y-48382409D01*
X134652119Y-48245592D01*
X134540408Y-48133881D01*
X134403591Y-48054889D01*
X134250991Y-48014000D01*
X134093009Y-48014000D01*
X133940409Y-48054889D01*
X133803592Y-48133881D01*
X133691881Y-48245592D01*
X133612889Y-48382409D01*
X133572000Y-48535009D01*
X133385903Y-48535009D01*
X133081331Y-48230437D01*
X133081330Y-48230438D01*
X133032789Y-48401041D01*
X133013056Y-48614000D01*
X119820254Y-48614000D01*
X119818416Y-47524549D01*
X133789657Y-47524549D01*
X133789657Y-47524551D01*
X134171999Y-47906893D01*
X134172000Y-47906893D01*
X134554341Y-47524549D01*
X134489164Y-47499299D01*
X134489165Y-47499299D01*
X134278932Y-47460000D01*
X134065068Y-47460000D01*
X133854836Y-47499299D01*
X133789657Y-47524549D01*
X119818416Y-47524549D01*
X119812466Y-43998000D01*
X155569647Y-43998000D01*
X155589022Y-44219463D01*
X155635273Y-44392074D01*
X155646559Y-44434193D01*
X155646561Y-44434199D01*
X155740511Y-44635675D01*
X155740512Y-44635677D01*
X155868016Y-44817772D01*
X155868020Y-44817777D01*
X155868023Y-44817781D01*
X156025219Y-44974977D01*
X156025223Y-44974980D01*
X156025227Y-44974983D01*
X156129124Y-45047732D01*
X156207323Y-45102488D01*
X156258619Y-45126407D01*
X156274482Y-45133805D01*
X156327767Y-45180723D01*
X156347228Y-45249000D01*
X156326686Y-45316960D01*
X156274483Y-45362194D01*
X156207325Y-45393510D01*
X156025222Y-45521020D01*
X156025216Y-45521025D01*
X155868025Y-45678216D01*
X155868020Y-45678222D01*
X155740512Y-45860323D01*
X155682491Y-45984750D01*
X155646560Y-46061804D01*
X155589022Y-46276537D01*
X155569647Y-46498000D01*
X155589022Y-46719463D01*
X155635273Y-46892074D01*
X155646559Y-46934193D01*
X155646561Y-46934199D01*
X155740511Y-47135675D01*
X155740512Y-47135677D01*
X155868016Y-47317772D01*
X155868020Y-47317777D01*
X155868023Y-47317781D01*
X155959147Y-47408905D01*
X155993172Y-47471217D01*
X155988106Y-47542033D01*
X155959147Y-47587095D01*
X155868020Y-47678222D01*
X155740512Y-47860323D01*
X155646561Y-48061801D01*
X155646560Y-48061804D01*
X155589022Y-48276537D01*
X155569647Y-48498000D01*
X155589022Y-48719463D01*
X155635273Y-48892074D01*
X155646559Y-48934193D01*
X155646561Y-48934199D01*
X155740511Y-49135675D01*
X155740512Y-49135677D01*
X155868016Y-49317772D01*
X155868020Y-49317777D01*
X155868023Y-49317781D01*
X156025219Y-49474977D01*
X156025223Y-49474980D01*
X156025227Y-49474983D01*
X156035367Y-49482083D01*
X156207323Y-49602488D01*
X156408804Y-49696440D01*
X156550080Y-49734295D01*
X156610699Y-49771244D01*
X156641721Y-49835105D01*
X156633293Y-49905599D01*
X156588091Y-49960346D01*
X156520465Y-49981964D01*
X156517466Y-49982000D01*
X156057986Y-49982000D01*
X156057977Y-49982001D01*
X155983894Y-49996737D01*
X155983892Y-49996737D01*
X155899875Y-50052875D01*
X155843737Y-50136893D01*
X155843736Y-50136894D01*
X155829000Y-50210977D01*
X155829000Y-50498000D01*
X157860999Y-50498000D01*
X157860999Y-50210986D01*
X157860998Y-50210977D01*
X157846262Y-50136894D01*
X157846262Y-50136892D01*
X157790124Y-50052875D01*
X157706106Y-49996737D01*
X157706105Y-49996736D01*
X157632022Y-49982000D01*
X157172535Y-49982000D01*
X157104414Y-49961998D01*
X157057921Y-49908342D01*
X157047817Y-49838068D01*
X157077311Y-49773488D01*
X157137037Y-49735104D01*
X157139844Y-49734315D01*
X157281196Y-49696440D01*
X157482677Y-49602488D01*
X157664781Y-49474977D01*
X157821977Y-49317781D01*
X157949488Y-49135677D01*
X158043440Y-48934196D01*
X158100978Y-48719463D01*
X158120353Y-48498000D01*
X158100978Y-48276537D01*
X158043440Y-48061804D01*
X157949488Y-47860324D01*
X157821977Y-47678219D01*
X157730853Y-47587095D01*
X157696827Y-47524783D01*
X157701892Y-47453968D01*
X157730853Y-47408905D01*
X157821977Y-47317781D01*
X157949488Y-47135677D01*
X158043440Y-46934196D01*
X158100978Y-46719463D01*
X158120353Y-46498000D01*
X158100978Y-46276537D01*
X158043440Y-46061804D01*
X157949488Y-45860324D01*
X157821977Y-45678219D01*
X157664781Y-45521023D01*
X157664777Y-45521020D01*
X157664772Y-45521016D01*
X157482677Y-45393512D01*
X157482675Y-45393511D01*
X157415517Y-45362195D01*
X157362232Y-45315278D01*
X157342771Y-45247001D01*
X157363313Y-45179041D01*
X157415517Y-45133805D01*
X157482677Y-45102488D01*
X157664781Y-44974977D01*
X157821977Y-44817781D01*
X157949488Y-44635677D01*
X158043440Y-44434196D01*
X158100978Y-44219463D01*
X158120353Y-43998000D01*
X158100978Y-43776537D01*
X158043440Y-43561804D01*
X157949488Y-43360324D01*
X157821977Y-43178219D01*
X157664781Y-43021023D01*
X157664777Y-43021020D01*
X157664772Y-43021016D01*
X157482677Y-42893512D01*
X157482675Y-42893511D01*
X157281199Y-42799561D01*
X157281193Y-42799559D01*
X157222648Y-42783872D01*
X157066463Y-42742022D01*
X156845000Y-42722647D01*
X156623537Y-42742022D01*
X156508463Y-42772856D01*
X156408806Y-42799559D01*
X156408801Y-42799561D01*
X156207323Y-42893512D01*
X156025222Y-43021020D01*
X156025216Y-43021025D01*
X155868025Y-43178216D01*
X155868020Y-43178222D01*
X155740512Y-43360323D01*
X155740512Y-43360324D01*
X155646560Y-43561804D01*
X155589022Y-43776537D01*
X155569647Y-43998000D01*
X119812466Y-43998000D01*
X119791859Y-31785022D01*
X155829001Y-31785022D01*
X155843737Y-31859105D01*
X155843737Y-31859107D01*
X155899875Y-31943124D01*
X155983893Y-31999262D01*
X155983894Y-31999263D01*
X156057980Y-32013999D01*
X156345000Y-32013999D01*
X157345000Y-32013999D01*
X157632014Y-32013999D01*
X157632022Y-32013998D01*
X157706105Y-31999262D01*
X157706107Y-31999262D01*
X157790124Y-31943124D01*
X157846262Y-31859106D01*
X157846263Y-31859105D01*
X157860999Y-31785022D01*
X157861000Y-31785015D01*
X157861000Y-31498000D01*
X157345000Y-31498000D01*
X157345000Y-32013999D01*
X156345000Y-32013999D01*
X156345000Y-31498000D01*
X155829001Y-31498000D01*
X155829001Y-31785022D01*
X119791859Y-31785022D01*
X119790429Y-30937440D01*
X156385000Y-30937440D01*
X156385000Y-31058560D01*
X156416349Y-31175553D01*
X156476909Y-31280446D01*
X156562554Y-31366091D01*
X156667447Y-31426651D01*
X156784440Y-31458000D01*
X156905560Y-31458000D01*
X157022553Y-31426651D01*
X157127446Y-31366091D01*
X157213091Y-31280446D01*
X157273651Y-31175553D01*
X157305000Y-31058560D01*
X157305000Y-30937440D01*
X157273651Y-30820447D01*
X157213091Y-30715554D01*
X157127446Y-30629909D01*
X157022553Y-30569349D01*
X156905560Y-30538000D01*
X156784440Y-30538000D01*
X156667447Y-30569349D01*
X156562554Y-30629909D01*
X156476909Y-30715554D01*
X156416349Y-30820447D01*
X156385000Y-30937440D01*
X119790429Y-30937440D01*
X119786613Y-28675891D01*
X119806500Y-28607737D01*
X119860077Y-28561154D01*
X119912688Y-28549679D01*
X155460752Y-28572107D01*
G37*
%TD.AperFunction*%
%TA.AperFunction,Conductor*%
G36*
X150300000Y-93174000D02*
G01*
X150279998Y-93242121D01*
X150226342Y-93288614D01*
X150174000Y-93300000D01*
X149865826Y-93300000D01*
X149992993Y-93265925D01*
X150107007Y-93200099D01*
X150200099Y-93107007D01*
X150265925Y-92992993D01*
X150300000Y-92865826D01*
X150300000Y-93174000D01*
G37*
%TD.AperFunction*%
%TD*%
M02*
