G04 EAGLE Gerber RS-274X export*
G75*
%MOMM*%
%FSLAX34Y34*%
%LPD*%
%IN*%
%IPPOS*%
%AMOC8*
5,1,8,0,0,1.08239X$1,22.5*%
G01*
%ADD10C,0.254000*%


D10*
X1270Y-1270D02*
X1120140Y-5080D01*
X1122680Y894080D01*
X2540Y892810D01*
X1270Y-1270D01*
X562914Y658540D02*
X561846Y658616D01*
X560785Y658769D01*
X559738Y658997D01*
X558710Y659299D01*
X557706Y659673D01*
X556731Y660118D01*
X555791Y660632D01*
X554890Y661211D01*
X554032Y661853D01*
X553222Y662555D01*
X552465Y663312D01*
X551763Y664122D01*
X551121Y664980D01*
X550542Y665881D01*
X550028Y666821D01*
X549583Y667796D01*
X549209Y668800D01*
X548907Y669828D01*
X548679Y670875D01*
X548526Y671936D01*
X548450Y673004D01*
X548450Y674076D01*
X548526Y675144D01*
X548679Y676205D01*
X548907Y677252D01*
X549209Y678280D01*
X549583Y679284D01*
X550028Y680259D01*
X550542Y681199D01*
X551121Y682100D01*
X551763Y682958D01*
X552465Y683768D01*
X553222Y684525D01*
X554032Y685227D01*
X554890Y685869D01*
X555791Y686448D01*
X556731Y686962D01*
X557706Y687407D01*
X558710Y687781D01*
X559738Y688083D01*
X560785Y688311D01*
X561846Y688464D01*
X562914Y688540D01*
X563986Y688540D01*
X565054Y688464D01*
X566115Y688311D01*
X567162Y688083D01*
X568190Y687781D01*
X569194Y687407D01*
X570169Y686962D01*
X571109Y686448D01*
X572010Y685869D01*
X572868Y685227D01*
X573678Y684525D01*
X574435Y683768D01*
X575137Y682958D01*
X575779Y682100D01*
X576358Y681199D01*
X576872Y680259D01*
X577317Y679284D01*
X577691Y678280D01*
X577993Y677252D01*
X578221Y676205D01*
X578374Y675144D01*
X578450Y674076D01*
X578450Y673004D01*
X578374Y671936D01*
X578221Y670875D01*
X577993Y669828D01*
X577691Y668800D01*
X577317Y667796D01*
X576872Y666821D01*
X576358Y665881D01*
X575779Y664980D01*
X575137Y664122D01*
X574435Y663312D01*
X573678Y662555D01*
X572868Y661853D01*
X572010Y661211D01*
X571109Y660632D01*
X570169Y660118D01*
X569194Y659673D01*
X568190Y659299D01*
X567162Y658997D01*
X566115Y658769D01*
X565054Y658616D01*
X563986Y658540D01*
X562914Y658540D01*
X100634Y658540D02*
X99566Y658616D01*
X98505Y658769D01*
X97458Y658997D01*
X96430Y659299D01*
X95426Y659673D01*
X94451Y660118D01*
X93511Y660632D01*
X92610Y661211D01*
X91752Y661853D01*
X90942Y662555D01*
X90185Y663312D01*
X89483Y664122D01*
X88841Y664980D01*
X88262Y665881D01*
X87748Y666821D01*
X87303Y667796D01*
X86929Y668800D01*
X86627Y669828D01*
X86399Y670875D01*
X86246Y671936D01*
X86170Y673004D01*
X86170Y674076D01*
X86246Y675144D01*
X86399Y676205D01*
X86627Y677252D01*
X86929Y678280D01*
X87303Y679284D01*
X87748Y680259D01*
X88262Y681199D01*
X88841Y682100D01*
X89483Y682958D01*
X90185Y683768D01*
X90942Y684525D01*
X91752Y685227D01*
X92610Y685869D01*
X93511Y686448D01*
X94451Y686962D01*
X95426Y687407D01*
X96430Y687781D01*
X97458Y688083D01*
X98505Y688311D01*
X99566Y688464D01*
X100634Y688540D01*
X101706Y688540D01*
X102774Y688464D01*
X103835Y688311D01*
X104882Y688083D01*
X105910Y687781D01*
X106914Y687407D01*
X107889Y686962D01*
X108829Y686448D01*
X109730Y685869D01*
X110588Y685227D01*
X111398Y684525D01*
X112155Y683768D01*
X112857Y682958D01*
X113499Y682100D01*
X114078Y681199D01*
X114592Y680259D01*
X115037Y679284D01*
X115411Y678280D01*
X115713Y677252D01*
X115941Y676205D01*
X116094Y675144D01*
X116170Y674076D01*
X116170Y673004D01*
X116094Y671936D01*
X115941Y670875D01*
X115713Y669828D01*
X115411Y668800D01*
X115037Y667796D01*
X114592Y666821D01*
X114078Y665881D01*
X113499Y664980D01*
X112857Y664122D01*
X112155Y663312D01*
X111398Y662555D01*
X110588Y661853D01*
X109730Y661211D01*
X108829Y660632D01*
X107889Y660118D01*
X106914Y659673D01*
X105910Y659299D01*
X104882Y658997D01*
X103835Y658769D01*
X102774Y658616D01*
X101706Y658540D01*
X100634Y658540D01*
X405434Y658540D02*
X404366Y658616D01*
X403305Y658769D01*
X402258Y658997D01*
X401230Y659299D01*
X400226Y659673D01*
X399251Y660118D01*
X398311Y660632D01*
X397410Y661211D01*
X396552Y661853D01*
X395742Y662555D01*
X394985Y663312D01*
X394283Y664122D01*
X393641Y664980D01*
X393062Y665881D01*
X392548Y666821D01*
X392103Y667796D01*
X391729Y668800D01*
X391427Y669828D01*
X391199Y670875D01*
X391046Y671936D01*
X390970Y673004D01*
X390970Y674076D01*
X391046Y675144D01*
X391199Y676205D01*
X391427Y677252D01*
X391729Y678280D01*
X392103Y679284D01*
X392548Y680259D01*
X393062Y681199D01*
X393641Y682100D01*
X394283Y682958D01*
X394985Y683768D01*
X395742Y684525D01*
X396552Y685227D01*
X397410Y685869D01*
X398311Y686448D01*
X399251Y686962D01*
X400226Y687407D01*
X401230Y687781D01*
X402258Y688083D01*
X403305Y688311D01*
X404366Y688464D01*
X405434Y688540D01*
X406506Y688540D01*
X407574Y688464D01*
X408635Y688311D01*
X409682Y688083D01*
X410710Y687781D01*
X411714Y687407D01*
X412689Y686962D01*
X413629Y686448D01*
X414530Y685869D01*
X415388Y685227D01*
X416198Y684525D01*
X416955Y683768D01*
X417657Y682958D01*
X418299Y682100D01*
X418878Y681199D01*
X419392Y680259D01*
X419837Y679284D01*
X420211Y678280D01*
X420513Y677252D01*
X420741Y676205D01*
X420894Y675144D01*
X420970Y674076D01*
X420970Y673004D01*
X420894Y671936D01*
X420741Y670875D01*
X420513Y669828D01*
X420211Y668800D01*
X419837Y667796D01*
X419392Y666821D01*
X418878Y665881D01*
X418299Y664980D01*
X417657Y664122D01*
X416955Y663312D01*
X416198Y662555D01*
X415388Y661853D01*
X414530Y661211D01*
X413629Y660632D01*
X412689Y660118D01*
X411714Y659673D01*
X410710Y659299D01*
X409682Y658997D01*
X408635Y658769D01*
X407574Y658616D01*
X406506Y658540D01*
X405434Y658540D01*
X256844Y658540D02*
X255776Y658616D01*
X254715Y658769D01*
X253668Y658997D01*
X252640Y659299D01*
X251636Y659673D01*
X250661Y660118D01*
X249721Y660632D01*
X248820Y661211D01*
X247962Y661853D01*
X247152Y662555D01*
X246395Y663312D01*
X245693Y664122D01*
X245051Y664980D01*
X244472Y665881D01*
X243958Y666821D01*
X243513Y667796D01*
X243139Y668800D01*
X242837Y669828D01*
X242609Y670875D01*
X242456Y671936D01*
X242380Y673004D01*
X242380Y674076D01*
X242456Y675144D01*
X242609Y676205D01*
X242837Y677252D01*
X243139Y678280D01*
X243513Y679284D01*
X243958Y680259D01*
X244472Y681199D01*
X245051Y682100D01*
X245693Y682958D01*
X246395Y683768D01*
X247152Y684525D01*
X247962Y685227D01*
X248820Y685869D01*
X249721Y686448D01*
X250661Y686962D01*
X251636Y687407D01*
X252640Y687781D01*
X253668Y688083D01*
X254715Y688311D01*
X255776Y688464D01*
X256844Y688540D01*
X257916Y688540D01*
X258984Y688464D01*
X260045Y688311D01*
X261092Y688083D01*
X262120Y687781D01*
X263124Y687407D01*
X264099Y686962D01*
X265039Y686448D01*
X265940Y685869D01*
X266798Y685227D01*
X267608Y684525D01*
X268365Y683768D01*
X269067Y682958D01*
X269709Y682100D01*
X270288Y681199D01*
X270802Y680259D01*
X271247Y679284D01*
X271621Y678280D01*
X271923Y677252D01*
X272151Y676205D01*
X272304Y675144D01*
X272380Y674076D01*
X272380Y673004D01*
X272304Y671936D01*
X272151Y670875D01*
X271923Y669828D01*
X271621Y668800D01*
X271247Y667796D01*
X270802Y666821D01*
X270288Y665881D01*
X269709Y664980D01*
X269067Y664122D01*
X268365Y663312D01*
X267608Y662555D01*
X266798Y661853D01*
X265940Y661211D01*
X265039Y660632D01*
X264099Y660118D01*
X263124Y659673D01*
X262120Y659299D01*
X261092Y658997D01*
X260045Y658769D01*
X258984Y658616D01*
X257916Y658540D01*
X256844Y658540D01*
X573325Y70077D02*
X573262Y69519D01*
X573137Y68972D01*
X572952Y68442D01*
X572708Y67936D01*
X572409Y67460D01*
X572059Y67021D01*
X571662Y66624D01*
X571223Y66274D01*
X570747Y65975D01*
X570241Y65731D01*
X569711Y65546D01*
X569164Y65421D01*
X568606Y65358D01*
X568044Y65358D01*
X567486Y65421D01*
X566939Y65546D01*
X566409Y65731D01*
X565903Y65975D01*
X565427Y66274D01*
X564988Y66624D01*
X564591Y67021D01*
X564241Y67460D01*
X563942Y67936D01*
X563698Y68442D01*
X563513Y68972D01*
X563388Y69519D01*
X563325Y70077D01*
X563325Y70639D01*
X563388Y71197D01*
X563513Y71744D01*
X563698Y72274D01*
X563942Y72780D01*
X564241Y73256D01*
X564591Y73695D01*
X564988Y74092D01*
X565427Y74442D01*
X565903Y74741D01*
X566409Y74985D01*
X566939Y75170D01*
X567486Y75295D01*
X568044Y75358D01*
X568606Y75358D01*
X569164Y75295D01*
X569711Y75170D01*
X570241Y74985D01*
X570747Y74741D01*
X571223Y74442D01*
X571662Y74092D01*
X572059Y73695D01*
X572409Y73256D01*
X572708Y72780D01*
X572952Y72274D01*
X573137Y71744D01*
X573262Y71197D01*
X573325Y70639D01*
X573325Y70077D01*
X648255Y119861D02*
X648192Y119303D01*
X648067Y118756D01*
X647882Y118226D01*
X647638Y117720D01*
X647339Y117244D01*
X646989Y116805D01*
X646592Y116408D01*
X646153Y116058D01*
X645677Y115759D01*
X645171Y115515D01*
X644641Y115330D01*
X644094Y115205D01*
X643536Y115142D01*
X642974Y115142D01*
X642416Y115205D01*
X641869Y115330D01*
X641339Y115515D01*
X640833Y115759D01*
X640357Y116058D01*
X639918Y116408D01*
X639521Y116805D01*
X639171Y117244D01*
X638872Y117720D01*
X638628Y118226D01*
X638443Y118756D01*
X638318Y119303D01*
X638255Y119861D01*
X638255Y120423D01*
X638318Y120981D01*
X638443Y121528D01*
X638628Y122058D01*
X638872Y122564D01*
X639171Y123040D01*
X639521Y123479D01*
X639918Y123876D01*
X640357Y124226D01*
X640833Y124525D01*
X641339Y124769D01*
X641869Y124954D01*
X642416Y125079D01*
X642974Y125142D01*
X643536Y125142D01*
X644094Y125079D01*
X644641Y124954D01*
X645171Y124769D01*
X645677Y124525D01*
X646153Y124226D01*
X646592Y123876D01*
X646989Y123479D01*
X647339Y123040D01*
X647638Y122564D01*
X647882Y122058D01*
X648067Y121528D01*
X648192Y120981D01*
X648255Y120423D01*
X648255Y119861D01*
M02*
