%
M48
M72
T01C0.0236
T02C0.0315
T03C0.0354
T04C0.0394
T05C0.0400
T06C0.0700
T07C0.0800
T08C0.1300
T09C0.1800
T10C0.2000
T11C0.2010
%
T01
X15235Y19435
X13035Y20735
X6835Y20435
X4835Y20335
X2835Y20335
X4335Y25635
X5535Y28135
X3735Y31335
X6235Y34235
X21635Y27735
T02
X5335Y1335
X6335Y1335
X7335Y1335
X8335Y1335
X9335Y1335
X10335Y1335
X11335Y1335
X12335Y1335
X12335Y5335
X11335Y5335
X10335Y5335
X9335Y5335
X8335Y5335
X7335Y5335
X6335Y5335
X5335Y5335
T03
X16851Y10154
X18819Y10154
X18819Y12516
X16851Y12516
X17051Y17654
X19019Y17654
X19019Y20016
X17051Y20016
T04
X14635Y17035
X13635Y17035
X12635Y17035
X11635Y17035
X10635Y17035
X9635Y17035
X8635Y17035
X7635Y17035
X6635Y17035
X5635Y17035
X4635Y17035
X3635Y17035
X3635Y11035
X4635Y11035
X5635Y11035
X6635Y11035
X7635Y11035
X8635Y11035
X9635Y11035
X10635Y11035
X11635Y11035
X12635Y11035
X13635Y11035
X14635Y11035
T05
X18335Y2435
X18335Y1435
X8060Y35637
X8060Y36622
X8060Y37606
X8060Y38590
X5415Y37435
X2855Y37435
T06
X22285Y38335
X25385Y38335
X29285Y38335
X32385Y38335
X36285Y38335
X39385Y38335
X43285Y38335
X46385Y38335
X46885Y2335
X43785Y2335
X39885Y2335
X36785Y2335
X32885Y2335
X29785Y2335
X25885Y2335
X22785Y2335
X50785Y2335
X53885Y2335
X57785Y2335
X60885Y2335
T07
X49135Y23935
X49135Y25435
X49135Y26935
X49135Y28435
T08
X46135Y14035
X18235Y5535
X8535Y24235
T09
X30765Y20035
X46505Y20035
X16735Y37235
X13935Y37235
T10
X61635Y37035
X61635Y15835
T11
X38635Y16635
X38635Y23435
M30
