G75*
%MOIN*%
%OFA0B0*%
%FSLAX25Y25*%
%IPPOS*%
%LPD*%
%AMOC8*
5,1,8,0,0,1.08239X$1,22.5*
%
%ADD10C,0.13500*%
%ADD11C,0.25000*%
%ADD12C,0.25500*%
%ADD13C,0.19000*%
%ADD14R,0.12100X0.07200*%
%ADD15C,0.14000*%
%ADD16C,0.13000*%
%ADD17C,0.21000*%
%ADD18C,0.08400*%
%ADD19R,0.05331X0.04937*%
%ADD20R,0.05900X0.05700*%
%ADD21R,0.04543X0.04150*%
%ADD22C,0.09600*%
%ADD23C,0.05943*%
%ADD24R,0.06000X0.03500*%
%ADD25C,0.08000*%
%ADD26C,0.04762*%
%ADD27R,0.04762X0.04762*%
D10*
X0227850Y0023350D03*
X0258850Y0023350D03*
X0297850Y0023350D03*
X0328850Y0023350D03*
X0367850Y0023350D03*
X0398850Y0023350D03*
X0437850Y0023350D03*
X0468850Y0023350D03*
X0507850Y0023350D03*
X0538850Y0023350D03*
X0577850Y0023350D03*
X0608850Y0023350D03*
X0463850Y0383350D03*
X0432850Y0383350D03*
X0393850Y0383350D03*
X0362850Y0383350D03*
X0323850Y0383350D03*
X0292850Y0383350D03*
X0253850Y0383350D03*
X0222850Y0383350D03*
D11*
X0167350Y0372350D03*
X0139350Y0372350D03*
D12*
X0386350Y0234350D03*
X0386350Y0166350D03*
D13*
X0307650Y0200350D03*
X0465050Y0200350D03*
D14*
X0470850Y0109850D03*
X0435850Y0109850D03*
X0400850Y0109850D03*
X0365850Y0109850D03*
X0330850Y0109850D03*
X0295850Y0109850D03*
X0260850Y0109850D03*
X0225850Y0109850D03*
X0225850Y0056850D03*
X0260850Y0056850D03*
X0295850Y0056850D03*
X0330850Y0056850D03*
X0365850Y0056850D03*
X0400850Y0056850D03*
X0435850Y0056850D03*
X0470850Y0056850D03*
X0505850Y0056850D03*
X0540850Y0056850D03*
X0575850Y0056850D03*
X0610850Y0056850D03*
X0610850Y0109850D03*
X0575850Y0109850D03*
X0540850Y0109850D03*
X0505850Y0109850D03*
X0465850Y0291850D03*
X0430850Y0291850D03*
X0395850Y0291850D03*
X0360850Y0291850D03*
X0325850Y0291850D03*
X0290850Y0291850D03*
X0255850Y0291850D03*
X0220850Y0291850D03*
X0220850Y0344850D03*
X0255850Y0344850D03*
X0290850Y0344850D03*
X0325850Y0344850D03*
X0360850Y0344850D03*
X0395850Y0344850D03*
X0430850Y0344850D03*
X0465850Y0344850D03*
D15*
X0461350Y0140350D03*
X0182350Y0055350D03*
X0085350Y0242350D03*
D16*
X0491350Y0239350D03*
X0491350Y0254350D03*
X0491350Y0269350D03*
X0491350Y0284350D03*
D17*
X0616350Y0370350D03*
X0616350Y0158350D03*
D18*
X0183350Y0024350D03*
X0183350Y0014350D03*
X0080602Y0356374D03*
X0080602Y0366216D03*
X0080602Y0376059D03*
X0080602Y0385901D03*
X0054145Y0374350D03*
X0028555Y0374350D03*
D19*
X0033350Y0331696D03*
X0033350Y0325004D03*
X0040350Y0287696D03*
X0040350Y0281004D03*
X0019350Y0282004D03*
X0019350Y0288696D03*
X0025350Y0265696D03*
X0025350Y0259004D03*
X0028350Y0231696D03*
X0028350Y0225004D03*
X0028350Y0216696D03*
X0028350Y0210004D03*
X0048350Y0210004D03*
X0048350Y0216696D03*
X0048350Y0225004D03*
X0048350Y0231696D03*
X0068350Y0231696D03*
X0068350Y0225004D03*
X0068350Y0216696D03*
X0068350Y0210004D03*
X0137350Y0194696D03*
X0137350Y0188004D03*
X0163350Y0156696D03*
X0163350Y0150004D03*
X0118350Y0086696D03*
X0118350Y0080004D03*
X0108350Y0080004D03*
X0098350Y0080004D03*
X0088350Y0080004D03*
X0088350Y0086696D03*
X0098350Y0086696D03*
X0108350Y0086696D03*
D20*
X0050350Y0257250D03*
X0050350Y0265450D03*
D21*
X0028287Y0305610D03*
X0028287Y0313090D03*
X0020019Y0309350D03*
X0049019Y0328350D03*
X0057287Y0324610D03*
X0057287Y0332090D03*
X0072019Y0328350D03*
X0080287Y0324610D03*
X0093019Y0328350D03*
X0080287Y0332090D03*
X0101287Y0332090D03*
X0101287Y0324610D03*
X0117287Y0195090D03*
X0117287Y0187610D03*
X0109019Y0191350D03*
D22*
X0106350Y0170350D03*
X0096350Y0170350D03*
X0086350Y0170350D03*
X0076350Y0170350D03*
X0066350Y0170350D03*
X0056350Y0170350D03*
X0046350Y0170350D03*
X0036350Y0170350D03*
X0116350Y0170350D03*
X0126350Y0170350D03*
X0136350Y0170350D03*
X0146350Y0170350D03*
X0146350Y0110350D03*
X0136350Y0110350D03*
X0126350Y0110350D03*
X0116350Y0110350D03*
X0106350Y0110350D03*
X0096350Y0110350D03*
X0086350Y0110350D03*
X0076350Y0110350D03*
X0066350Y0110350D03*
X0056350Y0110350D03*
X0046350Y0110350D03*
X0036350Y0110350D03*
D23*
X0168507Y0101539D03*
X0188193Y0101539D03*
X0188193Y0125161D03*
X0168507Y0125161D03*
X0170507Y0176539D03*
X0190193Y0176539D03*
X0190193Y0200161D03*
X0170507Y0200161D03*
D24*
X0124350Y0203578D03*
X0124350Y0207122D03*
D25*
X0053350Y0013350D03*
X0063350Y0013350D03*
X0073350Y0013350D03*
X0083350Y0013350D03*
X0093350Y0013350D03*
X0103350Y0013350D03*
X0113350Y0013350D03*
X0123350Y0013350D03*
X0123350Y0053350D03*
X0113350Y0053350D03*
X0103350Y0053350D03*
X0093350Y0053350D03*
X0083350Y0053350D03*
X0073350Y0053350D03*
X0063350Y0053350D03*
X0053350Y0053350D03*
D26*
X0152350Y0194350D03*
X0130350Y0207350D03*
X0068350Y0204350D03*
X0048350Y0203350D03*
X0028350Y0203350D03*
X0043350Y0256350D03*
X0055350Y0281350D03*
X0037350Y0313350D03*
X0062350Y0342350D03*
D27*
X0216350Y0277350D03*
M02*
