G75*
%MOIN*%
%OFA0B0*%
%FSLAX25Y25*%
%IPPOS*%
%LPD*%
%AMOC8*
5,1,8,0,0,1.08239X$1,22.5*
%
%ADD10C,0.12500*%
%ADD11C,0.24000*%
%ADD12C,0.24500*%
%ADD13C,0.12000*%
%ADD14C,0.07400*%
%ADD15C,0.08600*%
%ADD16C,0.04943*%
%ADD17C,0.07000*%
%ADD18C,0.04700*%
%ADD19C,0.03762*%
%ADD20C,0.01000*%
%ADD21C,0.01600*%
%ADD22R,0.03762X0.03762*%
%ADD23C,0.04000*%
D10*
X0227850Y0023350D03*
X0258850Y0023350D03*
X0297850Y0023350D03*
X0328850Y0023350D03*
X0367850Y0023350D03*
X0398850Y0023350D03*
X0437850Y0023350D03*
X0468850Y0023350D03*
X0507850Y0023350D03*
X0538850Y0023350D03*
X0577850Y0023350D03*
X0608850Y0023350D03*
X0463850Y0383350D03*
X0432850Y0383350D03*
X0393850Y0383350D03*
X0362850Y0383350D03*
X0323850Y0383350D03*
X0292850Y0383350D03*
X0253850Y0383350D03*
X0222850Y0383350D03*
D11*
X0167350Y0372350D03*
X0139350Y0372350D03*
D12*
X0386350Y0234350D03*
X0386350Y0166350D03*
D13*
X0491350Y0239350D03*
X0491350Y0254350D03*
X0491350Y0269350D03*
X0491350Y0284350D03*
D14*
X0080602Y0356374D03*
X0080602Y0366216D03*
X0080602Y0376059D03*
X0080602Y0385901D03*
X0054145Y0374350D03*
X0028555Y0374350D03*
X0183350Y0024350D03*
X0183350Y0014350D03*
D15*
X0146350Y0110350D03*
X0136350Y0110350D03*
X0126350Y0110350D03*
X0116350Y0110350D03*
X0106350Y0110350D03*
X0096350Y0110350D03*
X0086350Y0110350D03*
X0076350Y0110350D03*
X0066350Y0110350D03*
X0056350Y0110350D03*
X0046350Y0110350D03*
X0036350Y0110350D03*
X0036350Y0170350D03*
X0046350Y0170350D03*
X0056350Y0170350D03*
X0066350Y0170350D03*
X0076350Y0170350D03*
X0086350Y0170350D03*
X0096350Y0170350D03*
X0106350Y0170350D03*
X0116350Y0170350D03*
X0126350Y0170350D03*
X0136350Y0170350D03*
X0146350Y0170350D03*
D16*
X0170507Y0176539D03*
X0190193Y0176539D03*
X0190193Y0200161D03*
X0170507Y0200161D03*
X0168507Y0125161D03*
X0188193Y0125161D03*
X0188193Y0101539D03*
X0168507Y0101539D03*
D17*
X0123350Y0053350D03*
X0113350Y0053350D03*
X0103350Y0053350D03*
X0093350Y0053350D03*
X0083350Y0053350D03*
X0073350Y0053350D03*
X0063350Y0053350D03*
X0053350Y0053350D03*
X0053350Y0013350D03*
X0063350Y0013350D03*
X0073350Y0013350D03*
X0083350Y0013350D03*
X0093350Y0013350D03*
X0103350Y0013350D03*
X0113350Y0013350D03*
X0123350Y0013350D03*
D18*
X0008200Y0008200D02*
X0008200Y0398500D01*
X0628500Y0398500D01*
X0628500Y0379006D01*
X0628233Y0379468D01*
X0625468Y0382233D01*
X0622082Y0384188D01*
X0618305Y0385200D01*
X0614395Y0385200D01*
X0610618Y0384188D01*
X0607232Y0382233D01*
X0604467Y0379468D01*
X0602512Y0376082D01*
X0601500Y0372305D01*
X0601500Y0368395D01*
X0602512Y0364618D01*
X0604467Y0361232D01*
X0607232Y0358467D01*
X0610618Y0356512D01*
X0614395Y0355500D01*
X0618305Y0355500D01*
X0622082Y0356512D01*
X0625468Y0358467D01*
X0628233Y0361232D01*
X0628500Y0361694D01*
X0628500Y0167006D01*
X0628233Y0167468D01*
X0625468Y0170233D01*
X0622082Y0172188D01*
X0618305Y0173200D01*
X0614395Y0173200D01*
X0610618Y0172188D01*
X0607232Y0170233D01*
X0604467Y0167468D01*
X0602512Y0164082D01*
X0601500Y0160305D01*
X0601500Y0156395D01*
X0602512Y0152618D01*
X0604467Y0149232D01*
X0607232Y0146467D01*
X0610618Y0144512D01*
X0614395Y0143500D01*
X0618305Y0143500D01*
X0622082Y0144512D01*
X0625468Y0146467D01*
X0628233Y0149232D01*
X0628500Y0149694D01*
X0628500Y0008200D01*
X0186798Y0008200D01*
X0187275Y0008476D01*
X0188008Y0009038D01*
X0188662Y0009692D01*
X0189224Y0010425D01*
X0189687Y0011225D01*
X0190040Y0012079D01*
X0190279Y0012972D01*
X0190400Y0013888D01*
X0190400Y0014350D01*
X0190400Y0014812D01*
X0190279Y0015728D01*
X0190040Y0016621D01*
X0189687Y0017475D01*
X0189224Y0018275D01*
X0188662Y0019008D01*
X0188320Y0019350D01*
X0188662Y0019692D01*
X0189224Y0020425D01*
X0189687Y0021225D01*
X0190040Y0022079D01*
X0190279Y0022972D01*
X0190400Y0023888D01*
X0190400Y0024350D01*
X0190400Y0024812D01*
X0190279Y0025728D01*
X0190040Y0026621D01*
X0189687Y0027475D01*
X0189224Y0028275D01*
X0188662Y0029008D01*
X0188008Y0029662D01*
X0187275Y0030224D01*
X0186475Y0030687D01*
X0185621Y0031040D01*
X0184728Y0031279D01*
X0183812Y0031400D01*
X0183350Y0031400D01*
X0183350Y0024350D01*
X0183350Y0024350D01*
X0190400Y0024350D01*
X0183350Y0024350D01*
X0183350Y0024350D01*
X0183350Y0017300D01*
X0183350Y0014350D01*
X0183350Y0014350D01*
X0190400Y0014350D01*
X0183350Y0014350D01*
X0183350Y0014350D01*
X0183350Y0024350D01*
X0183350Y0024350D01*
X0183350Y0024350D01*
X0176300Y0024350D01*
X0176300Y0024812D01*
X0176421Y0025728D01*
X0176660Y0026621D01*
X0177013Y0027475D01*
X0177476Y0028275D01*
X0178038Y0029008D01*
X0178692Y0029662D01*
X0179425Y0030224D01*
X0180225Y0030687D01*
X0181079Y0031040D01*
X0181972Y0031279D01*
X0182888Y0031400D01*
X0183350Y0031400D01*
X0183350Y0024350D01*
X0176300Y0024350D01*
X0176300Y0023888D01*
X0176421Y0022972D01*
X0176660Y0022079D01*
X0177013Y0021225D01*
X0177476Y0020425D01*
X0178038Y0019692D01*
X0178380Y0019350D01*
X0178038Y0019008D01*
X0177476Y0018275D01*
X0177013Y0017475D01*
X0176660Y0016621D01*
X0176421Y0015728D01*
X0176300Y0014812D01*
X0176300Y0014350D01*
X0183350Y0014350D01*
X0183350Y0014350D01*
X0176300Y0014350D01*
X0176300Y0013888D01*
X0176421Y0012972D01*
X0176660Y0012079D01*
X0177013Y0011225D01*
X0177476Y0010425D01*
X0178038Y0009692D01*
X0178692Y0009038D01*
X0179425Y0008476D01*
X0179902Y0008200D01*
X0127322Y0008200D01*
X0128818Y0009696D01*
X0129800Y0012067D01*
X0129800Y0014497D01*
X0155474Y0040171D01*
X0156529Y0041226D01*
X0157100Y0042604D01*
X0157100Y0104096D01*
X0156529Y0105474D01*
X0153452Y0108551D01*
X0153600Y0108908D01*
X0153600Y0111792D01*
X0152496Y0114457D01*
X0150457Y0116496D01*
X0147792Y0117600D01*
X0144908Y0117600D01*
X0142243Y0116496D01*
X0141350Y0115603D01*
X0140457Y0116496D01*
X0137792Y0117600D01*
X0134908Y0117600D01*
X0132243Y0116496D01*
X0131350Y0115603D01*
X0130457Y0116496D01*
X0127792Y0117600D01*
X0124908Y0117600D01*
X0122243Y0116496D01*
X0121350Y0115603D01*
X0120457Y0116496D01*
X0117792Y0117600D01*
X0114908Y0117600D01*
X0112243Y0116496D01*
X0111350Y0115603D01*
X0110457Y0116496D01*
X0107792Y0117600D01*
X0104908Y0117600D01*
X0102243Y0116496D01*
X0101350Y0115603D01*
X0100457Y0116496D01*
X0097792Y0117600D01*
X0094908Y0117600D01*
X0092243Y0116496D01*
X0091350Y0115603D01*
X0090457Y0116496D01*
X0087792Y0117600D01*
X0084908Y0117600D01*
X0082243Y0116496D01*
X0081350Y0115603D01*
X0080457Y0116496D01*
X0077792Y0117600D01*
X0074908Y0117600D01*
X0072243Y0116496D01*
X0071633Y0115886D01*
X0071405Y0116114D01*
X0070609Y0116724D01*
X0069741Y0117226D01*
X0068814Y0117610D01*
X0067846Y0117869D01*
X0066851Y0118000D01*
X0066350Y0118000D01*
X0066350Y0110350D01*
X0066350Y0110350D01*
X0066350Y0102700D01*
X0066851Y0102700D01*
X0067846Y0102831D01*
X0068814Y0103090D01*
X0069741Y0103474D01*
X0070609Y0103976D01*
X0071405Y0104586D01*
X0071633Y0104814D01*
X0072243Y0104204D01*
X0072874Y0103942D01*
X0073171Y0103226D01*
X0074226Y0102171D01*
X0099600Y0076797D01*
X0099600Y0058722D01*
X0098350Y0057472D01*
X0097004Y0058818D01*
X0094633Y0059800D01*
X0092067Y0059800D01*
X0089696Y0058818D01*
X0088350Y0057472D01*
X0087100Y0058722D01*
X0087100Y0069096D01*
X0086529Y0070474D01*
X0053923Y0103081D01*
X0054854Y0102831D01*
X0055849Y0102700D01*
X0056350Y0102700D01*
X0056851Y0102700D01*
X0057846Y0102831D01*
X0058814Y0103090D01*
X0059741Y0103474D01*
X0060609Y0103976D01*
X0061350Y0104544D01*
X0062091Y0103976D01*
X0062959Y0103474D01*
X0063886Y0103090D01*
X0064854Y0102831D01*
X0065849Y0102700D01*
X0066350Y0102700D01*
X0066350Y0110350D01*
X0066350Y0110350D01*
X0066350Y0118000D01*
X0065849Y0118000D01*
X0064854Y0117869D01*
X0063886Y0117610D01*
X0062959Y0117226D01*
X0062091Y0116724D01*
X0061350Y0116156D01*
X0060609Y0116724D01*
X0059741Y0117226D01*
X0058814Y0117610D01*
X0057846Y0117869D01*
X0056851Y0118000D01*
X0056350Y0118000D01*
X0056350Y0110350D01*
X0056350Y0110350D01*
X0058700Y0110350D01*
X0066350Y0110350D01*
X0066350Y0110350D01*
X0056350Y0110350D01*
X0056350Y0110350D01*
X0056350Y0102700D01*
X0056350Y0110350D01*
X0056350Y0110350D01*
X0056350Y0118000D01*
X0055849Y0118000D01*
X0054854Y0117869D01*
X0053886Y0117610D01*
X0052959Y0117226D01*
X0052091Y0116724D01*
X0051295Y0116114D01*
X0051067Y0115886D01*
X0050457Y0116496D01*
X0047792Y0117600D01*
X0044908Y0117600D01*
X0042243Y0116496D01*
X0041350Y0115603D01*
X0040457Y0116496D01*
X0037792Y0117600D01*
X0034908Y0117600D01*
X0032243Y0116496D01*
X0030204Y0114457D01*
X0029100Y0111792D01*
X0029100Y0108908D01*
X0030204Y0106243D01*
X0032243Y0104204D01*
X0034900Y0103103D01*
X0034900Y0092664D01*
X0035425Y0091396D01*
X0036396Y0090425D01*
X0059900Y0066921D01*
X0059900Y0058902D01*
X0059696Y0058818D01*
X0058350Y0057472D01*
X0057004Y0058818D01*
X0054633Y0059800D01*
X0052067Y0059800D01*
X0049696Y0058818D01*
X0047882Y0057004D01*
X0046900Y0054633D01*
X0046900Y0052067D01*
X0047882Y0049696D01*
X0049696Y0047882D01*
X0052067Y0046900D01*
X0054633Y0046900D01*
X0057004Y0047882D01*
X0058350Y0049228D01*
X0059696Y0047882D01*
X0062067Y0046900D01*
X0064633Y0046900D01*
X0067004Y0047882D01*
X0068350Y0049228D01*
X0069696Y0047882D01*
X0072067Y0046900D01*
X0074633Y0046900D01*
X0077004Y0047882D01*
X0078350Y0049228D01*
X0079696Y0047882D01*
X0082067Y0046900D01*
X0084633Y0046900D01*
X0087004Y0047882D01*
X0088350Y0049228D01*
X0089696Y0047882D01*
X0092067Y0046900D01*
X0094633Y0046900D01*
X0097004Y0047882D01*
X0098350Y0049228D01*
X0099696Y0047882D01*
X0102067Y0046900D01*
X0104633Y0046900D01*
X0107004Y0047882D01*
X0108350Y0049228D01*
X0109696Y0047882D01*
X0112067Y0046900D01*
X0114633Y0046900D01*
X0117004Y0047882D01*
X0118350Y0049228D01*
X0119696Y0047882D01*
X0121734Y0047038D01*
X0094497Y0019800D01*
X0092067Y0019800D01*
X0089696Y0018818D01*
X0088350Y0017472D01*
X0087004Y0018818D01*
X0084633Y0019800D01*
X0082067Y0019800D01*
X0079696Y0018818D01*
X0078350Y0017472D01*
X0077004Y0018818D01*
X0074633Y0019800D01*
X0072067Y0019800D01*
X0069696Y0018818D01*
X0068350Y0017472D01*
X0067004Y0018818D01*
X0064633Y0019800D01*
X0062067Y0019800D01*
X0059696Y0018818D01*
X0058350Y0017472D01*
X0057004Y0018818D01*
X0054633Y0019800D01*
X0052067Y0019800D01*
X0049696Y0018818D01*
X0047882Y0017004D01*
X0046900Y0014633D01*
X0046900Y0012067D01*
X0047882Y0009696D01*
X0049378Y0008200D01*
X0008200Y0008200D01*
X0008200Y0012747D02*
X0046900Y0012747D01*
X0048324Y0017446D02*
X0008200Y0017446D01*
X0008200Y0022144D02*
X0096841Y0022144D01*
X0101539Y0026843D02*
X0008200Y0026843D01*
X0008200Y0031541D02*
X0106238Y0031541D01*
X0110936Y0036240D02*
X0008200Y0036240D01*
X0008200Y0040938D02*
X0115635Y0040938D01*
X0120333Y0045637D02*
X0008200Y0045637D01*
X0008200Y0050335D02*
X0047617Y0050335D01*
X0047066Y0055034D02*
X0008200Y0055034D01*
X0008200Y0059732D02*
X0051903Y0059732D01*
X0054797Y0059732D02*
X0059900Y0059732D01*
X0059900Y0064431D02*
X0008200Y0064431D01*
X0008200Y0069129D02*
X0057692Y0069129D01*
X0052993Y0073828D02*
X0008200Y0073828D01*
X0008200Y0078526D02*
X0048295Y0078526D01*
X0043596Y0083225D02*
X0008200Y0083225D01*
X0008200Y0087923D02*
X0038898Y0087923D01*
X0034917Y0092622D02*
X0008200Y0092622D01*
X0008200Y0097320D02*
X0034900Y0097320D01*
X0034900Y0102019D02*
X0008200Y0102019D01*
X0008200Y0106717D02*
X0030007Y0106717D01*
X0029100Y0111416D02*
X0008200Y0111416D01*
X0008200Y0116114D02*
X0031861Y0116114D01*
X0040839Y0116114D02*
X0041861Y0116114D01*
X0050839Y0116114D02*
X0051296Y0116114D01*
X0056350Y0116114D02*
X0056350Y0116114D01*
X0056350Y0111416D02*
X0056350Y0111416D01*
X0056350Y0106717D02*
X0056350Y0106717D01*
X0054985Y0102019D02*
X0074378Y0102019D01*
X0066350Y0106717D02*
X0066350Y0106717D01*
X0066350Y0111416D02*
X0066350Y0111416D01*
X0066350Y0116114D02*
X0066350Y0116114D01*
X0071404Y0116114D02*
X0071861Y0116114D01*
X0080839Y0116114D02*
X0081861Y0116114D01*
X0090839Y0116114D02*
X0091861Y0116114D01*
X0100839Y0116114D02*
X0101861Y0116114D01*
X0110839Y0116114D02*
X0111861Y0116114D01*
X0120839Y0116114D02*
X0121861Y0116114D01*
X0130839Y0116114D02*
X0131861Y0116114D01*
X0140839Y0116114D02*
X0141861Y0116114D01*
X0150839Y0116114D02*
X0628500Y0116114D01*
X0628500Y0111416D02*
X0153600Y0111416D01*
X0155286Y0106717D02*
X0166841Y0106717D01*
X0167429Y0106961D02*
X0165436Y0106135D01*
X0163911Y0104610D01*
X0163086Y0102617D01*
X0163086Y0100461D01*
X0163911Y0098468D01*
X0165436Y0096943D01*
X0167429Y0096117D01*
X0169586Y0096117D01*
X0171579Y0096943D01*
X0173104Y0098468D01*
X0173929Y0100461D01*
X0173929Y0102617D01*
X0173104Y0104610D01*
X0171579Y0106135D01*
X0169586Y0106961D01*
X0167429Y0106961D01*
X0170173Y0106717D02*
X0186527Y0106717D01*
X0187114Y0106961D02*
X0185121Y0106135D01*
X0183596Y0104610D01*
X0182771Y0102617D01*
X0182771Y0100461D01*
X0183596Y0098468D01*
X0185121Y0096943D01*
X0187114Y0096117D01*
X0189271Y0096117D01*
X0191264Y0096943D01*
X0192789Y0098468D01*
X0193614Y0100461D01*
X0193614Y0102617D01*
X0192789Y0104610D01*
X0191264Y0106135D01*
X0189271Y0106961D01*
X0187114Y0106961D01*
X0189859Y0106717D02*
X0628500Y0106717D01*
X0628500Y0102019D02*
X0193614Y0102019D01*
X0182771Y0102019D02*
X0173929Y0102019D01*
X0171956Y0097320D02*
X0184744Y0097320D01*
X0191641Y0097320D02*
X0628500Y0097320D01*
X0628500Y0092622D02*
X0157100Y0092622D01*
X0157100Y0097320D02*
X0165059Y0097320D01*
X0163086Y0102019D02*
X0157100Y0102019D01*
X0157100Y0087923D02*
X0628500Y0087923D01*
X0628500Y0083225D02*
X0157100Y0083225D01*
X0157100Y0078526D02*
X0628500Y0078526D01*
X0628500Y0073828D02*
X0157100Y0073828D01*
X0157100Y0069129D02*
X0628500Y0069129D01*
X0628500Y0064431D02*
X0189321Y0064431D01*
X0189319Y0064432D02*
X0186731Y0065927D01*
X0183844Y0066700D01*
X0180856Y0066700D01*
X0177969Y0065927D01*
X0175381Y0064432D01*
X0173268Y0062319D01*
X0171773Y0059731D01*
X0171000Y0056844D01*
X0171000Y0053856D01*
X0171773Y0050969D01*
X0173268Y0048381D01*
X0175381Y0046268D01*
X0177969Y0044773D01*
X0180856Y0044000D01*
X0183844Y0044000D01*
X0186731Y0044773D01*
X0189319Y0046268D01*
X0191432Y0048381D01*
X0192927Y0050969D01*
X0193700Y0053856D01*
X0193700Y0056844D01*
X0192927Y0059731D01*
X0191432Y0062319D01*
X0189319Y0064432D01*
X0192926Y0059732D02*
X0628500Y0059732D01*
X0628500Y0055034D02*
X0193700Y0055034D01*
X0192560Y0050335D02*
X0628500Y0050335D01*
X0628500Y0045637D02*
X0188226Y0045637D01*
X0176474Y0045637D02*
X0157100Y0045637D01*
X0157100Y0050335D02*
X0172139Y0050335D01*
X0171000Y0055034D02*
X0157100Y0055034D01*
X0157100Y0059732D02*
X0171774Y0059732D01*
X0175379Y0064431D02*
X0157100Y0064431D01*
X0156241Y0040938D02*
X0628500Y0040938D01*
X0628500Y0036240D02*
X0151543Y0036240D01*
X0146844Y0031541D02*
X0222842Y0031541D01*
X0223199Y0031765D02*
X0222286Y0031192D01*
X0221443Y0030519D01*
X0220681Y0029757D01*
X0220008Y0028914D01*
X0219435Y0028001D01*
X0218967Y0027030D01*
X0218611Y0026012D01*
X0218371Y0024961D01*
X0218250Y0023889D01*
X0218250Y0023350D01*
X0227850Y0023350D01*
X0237450Y0023350D01*
X0237450Y0023889D01*
X0237329Y0024961D01*
X0237089Y0026012D01*
X0236733Y0027030D01*
X0236265Y0028001D01*
X0235692Y0028914D01*
X0235019Y0029757D01*
X0234257Y0030519D01*
X0233414Y0031192D01*
X0232501Y0031765D01*
X0231530Y0032233D01*
X0230512Y0032589D01*
X0229461Y0032829D01*
X0228389Y0032950D01*
X0227850Y0032950D01*
X0227850Y0023350D01*
X0227850Y0023350D01*
X0227850Y0023350D01*
X0237450Y0023350D01*
X0237450Y0022811D01*
X0237329Y0021739D01*
X0237089Y0020688D01*
X0236733Y0019670D01*
X0236265Y0018699D01*
X0235692Y0017786D01*
X0235019Y0016943D01*
X0234257Y0016181D01*
X0233414Y0015508D01*
X0232501Y0014935D01*
X0231530Y0014467D01*
X0230512Y0014111D01*
X0229461Y0013871D01*
X0228389Y0013750D01*
X0227850Y0013750D01*
X0227850Y0023350D01*
X0227850Y0023350D01*
X0227850Y0023350D01*
X0227850Y0032950D01*
X0227311Y0032950D01*
X0226239Y0032829D01*
X0225188Y0032589D01*
X0224170Y0032233D01*
X0223199Y0031765D01*
X0227850Y0031541D02*
X0227850Y0031541D01*
X0227850Y0026843D02*
X0227850Y0026843D01*
X0227850Y0023350D02*
X0218250Y0023350D01*
X0218250Y0022811D01*
X0218371Y0021739D01*
X0218611Y0020688D01*
X0218967Y0019670D01*
X0219435Y0018699D01*
X0220008Y0017786D01*
X0220681Y0016943D01*
X0221443Y0016181D01*
X0222286Y0015508D01*
X0223199Y0014935D01*
X0224170Y0014467D01*
X0225188Y0014111D01*
X0226239Y0013871D01*
X0227311Y0013750D01*
X0227850Y0013750D01*
X0227850Y0023350D01*
X0227850Y0022144D02*
X0227850Y0022144D01*
X0227850Y0017446D02*
X0227850Y0017446D01*
X0235420Y0017446D02*
X0251744Y0017446D01*
X0251051Y0018139D02*
X0253639Y0015551D01*
X0257020Y0014150D01*
X0260680Y0014150D01*
X0264061Y0015551D01*
X0266649Y0018139D01*
X0268050Y0021520D01*
X0268050Y0025180D01*
X0266649Y0028561D01*
X0264061Y0031149D01*
X0260680Y0032550D01*
X0257020Y0032550D01*
X0253639Y0031149D01*
X0251051Y0028561D01*
X0249650Y0025180D01*
X0249650Y0021520D01*
X0251051Y0018139D01*
X0249650Y0022144D02*
X0237375Y0022144D01*
X0236799Y0026843D02*
X0250339Y0026843D01*
X0254584Y0031541D02*
X0232858Y0031541D01*
X0218901Y0026843D02*
X0189948Y0026843D01*
X0190058Y0022144D02*
X0218325Y0022144D01*
X0220280Y0017446D02*
X0189699Y0017446D01*
X0190219Y0012747D02*
X0628500Y0012747D01*
X0628500Y0017446D02*
X0615956Y0017446D01*
X0616649Y0018139D02*
X0618050Y0021520D01*
X0618050Y0025180D01*
X0616649Y0028561D01*
X0614061Y0031149D01*
X0610680Y0032550D01*
X0607020Y0032550D01*
X0603639Y0031149D01*
X0601051Y0028561D01*
X0599650Y0025180D01*
X0599650Y0021520D01*
X0601051Y0018139D01*
X0603639Y0015551D01*
X0607020Y0014150D01*
X0610680Y0014150D01*
X0614061Y0015551D01*
X0616649Y0018139D01*
X0618050Y0022144D02*
X0628500Y0022144D01*
X0628500Y0026843D02*
X0617361Y0026843D01*
X0613116Y0031541D02*
X0628500Y0031541D01*
X0604584Y0031541D02*
X0582858Y0031541D01*
X0582501Y0031765D02*
X0581530Y0032233D01*
X0580512Y0032589D01*
X0579461Y0032829D01*
X0578389Y0032950D01*
X0577850Y0032950D01*
X0577850Y0023350D01*
X0587450Y0023350D01*
X0587450Y0023889D01*
X0587329Y0024961D01*
X0587089Y0026012D01*
X0586733Y0027030D01*
X0586265Y0028001D01*
X0585692Y0028914D01*
X0585019Y0029757D01*
X0584257Y0030519D01*
X0583414Y0031192D01*
X0582501Y0031765D01*
X0577850Y0031541D02*
X0577850Y0031541D01*
X0577850Y0032950D02*
X0577311Y0032950D01*
X0576239Y0032829D01*
X0575188Y0032589D01*
X0574170Y0032233D01*
X0573199Y0031765D01*
X0572286Y0031192D01*
X0571443Y0030519D01*
X0570681Y0029757D01*
X0570008Y0028914D01*
X0569435Y0028001D01*
X0568967Y0027030D01*
X0568611Y0026012D01*
X0568371Y0024961D01*
X0568250Y0023889D01*
X0568250Y0023350D01*
X0577850Y0023350D01*
X0577850Y0023350D01*
X0577850Y0023350D01*
X0587450Y0023350D01*
X0587450Y0022811D01*
X0587329Y0021739D01*
X0587089Y0020688D01*
X0586733Y0019670D01*
X0586265Y0018699D01*
X0585692Y0017786D01*
X0585019Y0016943D01*
X0584257Y0016181D01*
X0583414Y0015508D01*
X0582501Y0014935D01*
X0581530Y0014467D01*
X0580512Y0014111D01*
X0579461Y0013871D01*
X0578389Y0013750D01*
X0577850Y0013750D01*
X0577850Y0023350D01*
X0577850Y0023350D01*
X0577850Y0023350D01*
X0577850Y0032950D01*
X0572842Y0031541D02*
X0543116Y0031541D01*
X0544061Y0031149D02*
X0540680Y0032550D01*
X0537020Y0032550D01*
X0533639Y0031149D01*
X0531051Y0028561D01*
X0529650Y0025180D01*
X0529650Y0021520D01*
X0531051Y0018139D01*
X0533639Y0015551D01*
X0537020Y0014150D01*
X0540680Y0014150D01*
X0544061Y0015551D01*
X0546649Y0018139D01*
X0548050Y0021520D01*
X0548050Y0025180D01*
X0546649Y0028561D01*
X0544061Y0031149D01*
X0547361Y0026843D02*
X0568901Y0026843D01*
X0568250Y0023350D02*
X0568250Y0022811D01*
X0568371Y0021739D01*
X0568611Y0020688D01*
X0568967Y0019670D01*
X0569435Y0018699D01*
X0570008Y0017786D01*
X0570681Y0016943D01*
X0571443Y0016181D01*
X0572286Y0015508D01*
X0573199Y0014935D01*
X0574170Y0014467D01*
X0575188Y0014111D01*
X0576239Y0013871D01*
X0577311Y0013750D01*
X0577850Y0013750D01*
X0577850Y0023350D01*
X0568250Y0023350D01*
X0568325Y0022144D02*
X0548050Y0022144D01*
X0545956Y0017446D02*
X0570280Y0017446D01*
X0577850Y0017446D02*
X0577850Y0017446D01*
X0577850Y0022144D02*
X0577850Y0022144D01*
X0577850Y0026843D02*
X0577850Y0026843D01*
X0586799Y0026843D02*
X0600339Y0026843D01*
X0599650Y0022144D02*
X0587375Y0022144D01*
X0585420Y0017446D02*
X0601744Y0017446D01*
X0534584Y0031541D02*
X0512858Y0031541D01*
X0512501Y0031765D02*
X0511530Y0032233D01*
X0510512Y0032589D01*
X0509461Y0032829D01*
X0508389Y0032950D01*
X0507850Y0032950D01*
X0507850Y0023350D01*
X0517450Y0023350D01*
X0517450Y0023889D01*
X0517329Y0024961D01*
X0517089Y0026012D01*
X0516733Y0027030D01*
X0516265Y0028001D01*
X0515692Y0028914D01*
X0515019Y0029757D01*
X0514257Y0030519D01*
X0513414Y0031192D01*
X0512501Y0031765D01*
X0507850Y0031541D02*
X0507850Y0031541D01*
X0507850Y0032950D02*
X0507311Y0032950D01*
X0506239Y0032829D01*
X0505188Y0032589D01*
X0504170Y0032233D01*
X0503199Y0031765D01*
X0502286Y0031192D01*
X0501443Y0030519D01*
X0500681Y0029757D01*
X0500008Y0028914D01*
X0499435Y0028001D01*
X0498967Y0027030D01*
X0498611Y0026012D01*
X0498371Y0024961D01*
X0498250Y0023889D01*
X0498250Y0023350D01*
X0507850Y0023350D01*
X0507850Y0023350D01*
X0507850Y0023350D01*
X0517450Y0023350D01*
X0517450Y0022811D01*
X0517329Y0021739D01*
X0517089Y0020688D01*
X0516733Y0019670D01*
X0516265Y0018699D01*
X0515692Y0017786D01*
X0515019Y0016943D01*
X0514257Y0016181D01*
X0513414Y0015508D01*
X0512501Y0014935D01*
X0511530Y0014467D01*
X0510512Y0014111D01*
X0509461Y0013871D01*
X0508389Y0013750D01*
X0507850Y0013750D01*
X0507850Y0023350D01*
X0507850Y0023350D01*
X0507850Y0023350D01*
X0507850Y0032950D01*
X0502842Y0031541D02*
X0473116Y0031541D01*
X0474061Y0031149D02*
X0470680Y0032550D01*
X0467020Y0032550D01*
X0463639Y0031149D01*
X0461051Y0028561D01*
X0459650Y0025180D01*
X0459650Y0021520D01*
X0461051Y0018139D01*
X0463639Y0015551D01*
X0467020Y0014150D01*
X0470680Y0014150D01*
X0474061Y0015551D01*
X0476649Y0018139D01*
X0478050Y0021520D01*
X0478050Y0025180D01*
X0476649Y0028561D01*
X0474061Y0031149D01*
X0477361Y0026843D02*
X0498901Y0026843D01*
X0498250Y0023350D02*
X0498250Y0022811D01*
X0498371Y0021739D01*
X0498611Y0020688D01*
X0498967Y0019670D01*
X0499435Y0018699D01*
X0500008Y0017786D01*
X0500681Y0016943D01*
X0501443Y0016181D01*
X0502286Y0015508D01*
X0503199Y0014935D01*
X0504170Y0014467D01*
X0505188Y0014111D01*
X0506239Y0013871D01*
X0507311Y0013750D01*
X0507850Y0013750D01*
X0507850Y0023350D01*
X0498250Y0023350D01*
X0498325Y0022144D02*
X0478050Y0022144D01*
X0475956Y0017446D02*
X0500280Y0017446D01*
X0507850Y0017446D02*
X0507850Y0017446D01*
X0507850Y0022144D02*
X0507850Y0022144D01*
X0507850Y0026843D02*
X0507850Y0026843D01*
X0516799Y0026843D02*
X0530339Y0026843D01*
X0529650Y0022144D02*
X0517375Y0022144D01*
X0515420Y0017446D02*
X0531744Y0017446D01*
X0464584Y0031541D02*
X0442858Y0031541D01*
X0442501Y0031765D02*
X0441530Y0032233D01*
X0440512Y0032589D01*
X0439461Y0032829D01*
X0438389Y0032950D01*
X0437850Y0032950D01*
X0437850Y0023350D01*
X0447450Y0023350D01*
X0447450Y0023889D01*
X0447329Y0024961D01*
X0447089Y0026012D01*
X0446733Y0027030D01*
X0446265Y0028001D01*
X0445692Y0028914D01*
X0445019Y0029757D01*
X0444257Y0030519D01*
X0443414Y0031192D01*
X0442501Y0031765D01*
X0437850Y0031541D02*
X0437850Y0031541D01*
X0437850Y0032950D02*
X0437311Y0032950D01*
X0436239Y0032829D01*
X0435188Y0032589D01*
X0434170Y0032233D01*
X0433199Y0031765D01*
X0432286Y0031192D01*
X0431443Y0030519D01*
X0430681Y0029757D01*
X0430008Y0028914D01*
X0429435Y0028001D01*
X0428967Y0027030D01*
X0428611Y0026012D01*
X0428371Y0024961D01*
X0428250Y0023889D01*
X0428250Y0023350D01*
X0437850Y0023350D01*
X0437850Y0023350D01*
X0437850Y0023350D01*
X0447450Y0023350D01*
X0447450Y0022811D01*
X0447329Y0021739D01*
X0447089Y0020688D01*
X0446733Y0019670D01*
X0446265Y0018699D01*
X0445692Y0017786D01*
X0445019Y0016943D01*
X0444257Y0016181D01*
X0443414Y0015508D01*
X0442501Y0014935D01*
X0441530Y0014467D01*
X0440512Y0014111D01*
X0439461Y0013871D01*
X0438389Y0013750D01*
X0437850Y0013750D01*
X0437850Y0023350D01*
X0437850Y0023350D01*
X0437850Y0023350D01*
X0437850Y0032950D01*
X0432842Y0031541D02*
X0403116Y0031541D01*
X0404061Y0031149D02*
X0400680Y0032550D01*
X0397020Y0032550D01*
X0393639Y0031149D01*
X0391051Y0028561D01*
X0389650Y0025180D01*
X0389650Y0021520D01*
X0391051Y0018139D01*
X0393639Y0015551D01*
X0397020Y0014150D01*
X0400680Y0014150D01*
X0404061Y0015551D01*
X0406649Y0018139D01*
X0408050Y0021520D01*
X0408050Y0025180D01*
X0406649Y0028561D01*
X0404061Y0031149D01*
X0407361Y0026843D02*
X0428901Y0026843D01*
X0428250Y0023350D02*
X0428250Y0022811D01*
X0428371Y0021739D01*
X0428611Y0020688D01*
X0428967Y0019670D01*
X0429435Y0018699D01*
X0430008Y0017786D01*
X0430681Y0016943D01*
X0431443Y0016181D01*
X0432286Y0015508D01*
X0433199Y0014935D01*
X0434170Y0014467D01*
X0435188Y0014111D01*
X0436239Y0013871D01*
X0437311Y0013750D01*
X0437850Y0013750D01*
X0437850Y0023350D01*
X0428250Y0023350D01*
X0428325Y0022144D02*
X0408050Y0022144D01*
X0405956Y0017446D02*
X0430280Y0017446D01*
X0437850Y0017446D02*
X0437850Y0017446D01*
X0437850Y0022144D02*
X0437850Y0022144D01*
X0437850Y0026843D02*
X0437850Y0026843D01*
X0446799Y0026843D02*
X0460339Y0026843D01*
X0459650Y0022144D02*
X0447375Y0022144D01*
X0445420Y0017446D02*
X0461744Y0017446D01*
X0394584Y0031541D02*
X0372858Y0031541D01*
X0372501Y0031765D02*
X0371530Y0032233D01*
X0370512Y0032589D01*
X0369461Y0032829D01*
X0368389Y0032950D01*
X0367850Y0032950D01*
X0367850Y0023350D01*
X0377450Y0023350D01*
X0377450Y0023889D01*
X0377329Y0024961D01*
X0377089Y0026012D01*
X0376733Y0027030D01*
X0376265Y0028001D01*
X0375692Y0028914D01*
X0375019Y0029757D01*
X0374257Y0030519D01*
X0373414Y0031192D01*
X0372501Y0031765D01*
X0367850Y0031541D02*
X0367850Y0031541D01*
X0367850Y0032950D02*
X0367311Y0032950D01*
X0366239Y0032829D01*
X0365188Y0032589D01*
X0364170Y0032233D01*
X0363199Y0031765D01*
X0362286Y0031192D01*
X0361443Y0030519D01*
X0360681Y0029757D01*
X0360008Y0028914D01*
X0359435Y0028001D01*
X0358967Y0027030D01*
X0358611Y0026012D01*
X0358371Y0024961D01*
X0358250Y0023889D01*
X0358250Y0023350D01*
X0367850Y0023350D01*
X0367850Y0023350D01*
X0367850Y0023350D01*
X0377450Y0023350D01*
X0377450Y0022811D01*
X0377329Y0021739D01*
X0377089Y0020688D01*
X0376733Y0019670D01*
X0376265Y0018699D01*
X0375692Y0017786D01*
X0375019Y0016943D01*
X0374257Y0016181D01*
X0373414Y0015508D01*
X0372501Y0014935D01*
X0371530Y0014467D01*
X0370512Y0014111D01*
X0369461Y0013871D01*
X0368389Y0013750D01*
X0367850Y0013750D01*
X0367850Y0023350D01*
X0367850Y0023350D01*
X0367850Y0023350D01*
X0367850Y0032950D01*
X0362842Y0031541D02*
X0333116Y0031541D01*
X0334061Y0031149D02*
X0330680Y0032550D01*
X0327020Y0032550D01*
X0323639Y0031149D01*
X0321051Y0028561D01*
X0319650Y0025180D01*
X0319650Y0021520D01*
X0321051Y0018139D01*
X0323639Y0015551D01*
X0327020Y0014150D01*
X0330680Y0014150D01*
X0334061Y0015551D01*
X0336649Y0018139D01*
X0338050Y0021520D01*
X0338050Y0025180D01*
X0336649Y0028561D01*
X0334061Y0031149D01*
X0337361Y0026843D02*
X0358901Y0026843D01*
X0358250Y0023350D02*
X0358250Y0022811D01*
X0358371Y0021739D01*
X0358611Y0020688D01*
X0358967Y0019670D01*
X0359435Y0018699D01*
X0360008Y0017786D01*
X0360681Y0016943D01*
X0361443Y0016181D01*
X0362286Y0015508D01*
X0363199Y0014935D01*
X0364170Y0014467D01*
X0365188Y0014111D01*
X0366239Y0013871D01*
X0367311Y0013750D01*
X0367850Y0013750D01*
X0367850Y0023350D01*
X0358250Y0023350D01*
X0358325Y0022144D02*
X0338050Y0022144D01*
X0335956Y0017446D02*
X0360280Y0017446D01*
X0367850Y0017446D02*
X0367850Y0017446D01*
X0367850Y0022144D02*
X0367850Y0022144D01*
X0367850Y0026843D02*
X0367850Y0026843D01*
X0376799Y0026843D02*
X0390339Y0026843D01*
X0389650Y0022144D02*
X0377375Y0022144D01*
X0375420Y0017446D02*
X0391744Y0017446D01*
X0324584Y0031541D02*
X0302858Y0031541D01*
X0302501Y0031765D02*
X0301530Y0032233D01*
X0300512Y0032589D01*
X0299461Y0032829D01*
X0298389Y0032950D01*
X0297850Y0032950D01*
X0297850Y0023350D01*
X0307450Y0023350D01*
X0307450Y0023889D01*
X0307329Y0024961D01*
X0307089Y0026012D01*
X0306733Y0027030D01*
X0306265Y0028001D01*
X0305692Y0028914D01*
X0305019Y0029757D01*
X0304257Y0030519D01*
X0303414Y0031192D01*
X0302501Y0031765D01*
X0297850Y0031541D02*
X0297850Y0031541D01*
X0297850Y0032950D02*
X0297311Y0032950D01*
X0296239Y0032829D01*
X0295188Y0032589D01*
X0294170Y0032233D01*
X0293199Y0031765D01*
X0292286Y0031192D01*
X0291443Y0030519D01*
X0290681Y0029757D01*
X0290008Y0028914D01*
X0289435Y0028001D01*
X0288967Y0027030D01*
X0288611Y0026012D01*
X0288371Y0024961D01*
X0288250Y0023889D01*
X0288250Y0023350D01*
X0297850Y0023350D01*
X0297850Y0023350D01*
X0297850Y0023350D01*
X0307450Y0023350D01*
X0307450Y0022811D01*
X0307329Y0021739D01*
X0307089Y0020688D01*
X0306733Y0019670D01*
X0306265Y0018699D01*
X0305692Y0017786D01*
X0305019Y0016943D01*
X0304257Y0016181D01*
X0303414Y0015508D01*
X0302501Y0014935D01*
X0301530Y0014467D01*
X0300512Y0014111D01*
X0299461Y0013871D01*
X0298389Y0013750D01*
X0297850Y0013750D01*
X0297850Y0023350D01*
X0297850Y0023350D01*
X0297850Y0023350D01*
X0297850Y0032950D01*
X0292842Y0031541D02*
X0263116Y0031541D01*
X0267361Y0026843D02*
X0288901Y0026843D01*
X0288250Y0023350D02*
X0288250Y0022811D01*
X0288371Y0021739D01*
X0288611Y0020688D01*
X0288967Y0019670D01*
X0289435Y0018699D01*
X0290008Y0017786D01*
X0290681Y0016943D01*
X0291443Y0016181D01*
X0292286Y0015508D01*
X0293199Y0014935D01*
X0294170Y0014467D01*
X0295188Y0014111D01*
X0296239Y0013871D01*
X0297311Y0013750D01*
X0297850Y0013750D01*
X0297850Y0023350D01*
X0288250Y0023350D01*
X0288325Y0022144D02*
X0268050Y0022144D01*
X0265956Y0017446D02*
X0290280Y0017446D01*
X0297850Y0017446D02*
X0297850Y0017446D01*
X0297850Y0022144D02*
X0297850Y0022144D01*
X0297850Y0026843D02*
X0297850Y0026843D01*
X0306799Y0026843D02*
X0320339Y0026843D01*
X0319650Y0022144D02*
X0307375Y0022144D01*
X0305420Y0017446D02*
X0321744Y0017446D01*
X0183350Y0017446D02*
X0183350Y0017446D01*
X0183350Y0022144D02*
X0183350Y0022144D01*
X0183350Y0026843D02*
X0183350Y0026843D01*
X0176752Y0026843D02*
X0142146Y0026843D01*
X0137447Y0022144D02*
X0176642Y0022144D01*
X0177001Y0017446D02*
X0132749Y0017446D01*
X0129800Y0012747D02*
X0176481Y0012747D01*
X0099600Y0059732D02*
X0094797Y0059732D01*
X0091903Y0059732D02*
X0087100Y0059732D01*
X0087100Y0064431D02*
X0099600Y0064431D01*
X0099600Y0069129D02*
X0087086Y0069129D01*
X0083176Y0073828D02*
X0099600Y0073828D01*
X0097871Y0078526D02*
X0078477Y0078526D01*
X0073779Y0083225D02*
X0093172Y0083225D01*
X0088473Y0087923D02*
X0069080Y0087923D01*
X0064382Y0092622D02*
X0083775Y0092622D01*
X0079076Y0097320D02*
X0059683Y0097320D01*
X0008200Y0120813D02*
X0165188Y0120813D01*
X0165436Y0120565D02*
X0167429Y0119739D01*
X0169586Y0119739D01*
X0171579Y0120565D01*
X0172425Y0121411D01*
X0176907Y0121411D01*
X0178285Y0121982D01*
X0182932Y0126629D01*
X0182771Y0126239D01*
X0182771Y0124083D01*
X0183596Y0122090D01*
X0185121Y0120565D01*
X0187114Y0119739D01*
X0189271Y0119739D01*
X0191264Y0120565D01*
X0192789Y0122090D01*
X0193614Y0124083D01*
X0193614Y0126239D01*
X0192789Y0128232D01*
X0191264Y0129757D01*
X0189271Y0130583D01*
X0187114Y0130583D01*
X0186725Y0130421D01*
X0218474Y0162171D01*
X0219529Y0163226D01*
X0220100Y0164604D01*
X0220100Y0273166D01*
X0220732Y0273798D01*
X0221181Y0274882D01*
X0221181Y0279818D01*
X0220732Y0280902D01*
X0219902Y0281732D01*
X0218818Y0282181D01*
X0213882Y0282181D01*
X0212798Y0281732D01*
X0211968Y0280902D01*
X0211519Y0279818D01*
X0211519Y0274882D01*
X0211968Y0273798D01*
X0212600Y0273166D01*
X0212600Y0166903D01*
X0174608Y0128911D01*
X0172425Y0128911D01*
X0171579Y0129757D01*
X0169586Y0130583D01*
X0167429Y0130583D01*
X0165436Y0129757D01*
X0163911Y0128232D01*
X0163086Y0126239D01*
X0163086Y0124083D01*
X0163911Y0122090D01*
X0165436Y0120565D01*
X0163086Y0125511D02*
X0008200Y0125511D01*
X0008200Y0130210D02*
X0166529Y0130210D01*
X0170486Y0130210D02*
X0175907Y0130210D01*
X0180605Y0134908D02*
X0008200Y0134908D01*
X0008200Y0139607D02*
X0185304Y0139607D01*
X0190002Y0144305D02*
X0008200Y0144305D01*
X0008200Y0149004D02*
X0194701Y0149004D01*
X0199399Y0153702D02*
X0157703Y0153702D01*
X0157154Y0153154D02*
X0167400Y0163400D01*
X0182988Y0163400D01*
X0184807Y0164154D01*
X0192125Y0171471D01*
X0193264Y0171943D01*
X0194789Y0173468D01*
X0195614Y0175461D01*
X0195614Y0177617D01*
X0194789Y0179610D01*
X0193264Y0181135D01*
X0191271Y0181961D01*
X0189114Y0181961D01*
X0187121Y0181135D01*
X0185596Y0179610D01*
X0185125Y0178471D01*
X0179953Y0173300D01*
X0174936Y0173300D01*
X0175104Y0173468D01*
X0175929Y0175461D01*
X0175929Y0177617D01*
X0175104Y0179610D01*
X0173579Y0181135D01*
X0171586Y0181961D01*
X0169429Y0181961D01*
X0167436Y0181135D01*
X0166290Y0179989D01*
X0155590Y0179989D01*
X0153275Y0182304D01*
X0152304Y0183275D01*
X0151036Y0183800D01*
X0108779Y0183800D01*
X0101800Y0190779D01*
X0101800Y0290036D01*
X0101275Y0291304D01*
X0068800Y0323779D01*
X0068800Y0340036D01*
X0068275Y0341304D01*
X0067181Y0342398D01*
X0067181Y0343311D01*
X0066446Y0345087D01*
X0065087Y0346446D01*
X0063311Y0347181D01*
X0061389Y0347181D01*
X0059613Y0346446D01*
X0058254Y0345087D01*
X0057519Y0343311D01*
X0057519Y0341389D01*
X0058254Y0339613D01*
X0059613Y0338254D01*
X0061389Y0337519D01*
X0061900Y0337519D01*
X0061900Y0321664D01*
X0062425Y0320396D01*
X0094900Y0287921D01*
X0094900Y0248509D01*
X0094432Y0249319D01*
X0092319Y0251432D01*
X0089731Y0252927D01*
X0086844Y0253700D01*
X0083856Y0253700D01*
X0080969Y0252927D01*
X0078381Y0251432D01*
X0076268Y0249319D01*
X0074773Y0246731D01*
X0074000Y0243844D01*
X0074000Y0240856D01*
X0074773Y0237969D01*
X0076268Y0235381D01*
X0078381Y0233268D01*
X0080969Y0231773D01*
X0083856Y0231000D01*
X0086844Y0231000D01*
X0089731Y0231773D01*
X0092319Y0233268D01*
X0094432Y0235381D01*
X0094900Y0236191D01*
X0094900Y0188664D01*
X0095425Y0187396D01*
X0096396Y0186425D01*
X0105221Y0177600D01*
X0104908Y0177600D01*
X0102243Y0176496D01*
X0101350Y0175603D01*
X0100457Y0176496D01*
X0097792Y0177600D01*
X0094908Y0177600D01*
X0092243Y0176496D01*
X0091350Y0175603D01*
X0090457Y0176496D01*
X0087792Y0177600D01*
X0084908Y0177600D01*
X0082243Y0176496D01*
X0081350Y0175603D01*
X0080457Y0176496D01*
X0077792Y0177600D01*
X0074908Y0177600D01*
X0072243Y0176496D01*
X0071350Y0175603D01*
X0070457Y0176496D01*
X0067792Y0177600D01*
X0064908Y0177600D01*
X0062243Y0176496D01*
X0061350Y0175603D01*
X0060457Y0176496D01*
X0057792Y0177600D01*
X0054908Y0177600D01*
X0052243Y0176496D01*
X0051633Y0175886D01*
X0051405Y0176114D01*
X0050609Y0176724D01*
X0049741Y0177226D01*
X0048814Y0177610D01*
X0047846Y0177869D01*
X0046851Y0178000D01*
X0046350Y0178000D01*
X0046350Y0170350D01*
X0046350Y0170350D01*
X0046350Y0178000D01*
X0045849Y0178000D01*
X0044854Y0177869D01*
X0043886Y0177610D01*
X0042959Y0177226D01*
X0042091Y0176724D01*
X0041295Y0176114D01*
X0041067Y0175886D01*
X0040457Y0176496D01*
X0037792Y0177600D01*
X0034908Y0177600D01*
X0032243Y0176496D01*
X0030204Y0174457D01*
X0029100Y0171792D01*
X0029100Y0168908D01*
X0030204Y0166243D01*
X0031400Y0165047D01*
X0031400Y0164365D01*
X0032154Y0162546D01*
X0040154Y0154546D01*
X0041546Y0153154D01*
X0043365Y0152400D01*
X0155335Y0152400D01*
X0157154Y0153154D01*
X0162401Y0158401D02*
X0204098Y0158401D01*
X0210006Y0153702D02*
X0377856Y0153702D01*
X0377017Y0154187D02*
X0380483Y0152186D01*
X0384349Y0151150D01*
X0388351Y0151150D01*
X0392217Y0152186D01*
X0395683Y0154187D01*
X0398513Y0157017D01*
X0400514Y0160483D01*
X0401550Y0164349D01*
X0401550Y0168351D01*
X0400514Y0172217D01*
X0398513Y0175683D01*
X0395683Y0178513D01*
X0392217Y0180514D01*
X0388351Y0181550D01*
X0384349Y0181550D01*
X0380483Y0180514D01*
X0377017Y0178513D01*
X0374187Y0175683D01*
X0372186Y0172217D01*
X0371150Y0168351D01*
X0371150Y0164349D01*
X0372186Y0160483D01*
X0374187Y0157017D01*
X0377017Y0154187D01*
X0373388Y0158401D02*
X0214704Y0158401D01*
X0219403Y0163099D02*
X0371485Y0163099D01*
X0371150Y0167798D02*
X0220100Y0167798D01*
X0220100Y0172496D02*
X0372347Y0172496D01*
X0375699Y0177195D02*
X0220100Y0177195D01*
X0220100Y0181893D02*
X0628500Y0181893D01*
X0628500Y0177195D02*
X0397001Y0177195D01*
X0400353Y0172496D02*
X0611769Y0172496D01*
X0604797Y0167798D02*
X0401550Y0167798D01*
X0401215Y0163099D02*
X0602249Y0163099D01*
X0601500Y0158401D02*
X0399312Y0158401D01*
X0394844Y0153702D02*
X0602221Y0153702D01*
X0604695Y0149004D02*
X0468747Y0149004D01*
X0468319Y0149432D02*
X0465731Y0150927D01*
X0462844Y0151700D01*
X0459856Y0151700D01*
X0456969Y0150927D01*
X0454381Y0149432D01*
X0452268Y0147319D01*
X0450773Y0144731D01*
X0450000Y0141844D01*
X0450000Y0138856D01*
X0450773Y0135969D01*
X0452268Y0133381D01*
X0454381Y0131268D01*
X0456969Y0129773D01*
X0459856Y0129000D01*
X0462844Y0129000D01*
X0465731Y0129773D01*
X0468319Y0131268D01*
X0470432Y0133381D01*
X0471927Y0135969D01*
X0472700Y0138856D01*
X0472700Y0141844D01*
X0471927Y0144731D01*
X0470432Y0147319D01*
X0468319Y0149432D01*
X0472041Y0144305D02*
X0611389Y0144305D01*
X0621311Y0144305D02*
X0628500Y0144305D01*
X0628500Y0139607D02*
X0472700Y0139607D01*
X0471314Y0134908D02*
X0628500Y0134908D01*
X0628500Y0130210D02*
X0466487Y0130210D01*
X0456213Y0130210D02*
X0190171Y0130210D01*
X0191212Y0134908D02*
X0451386Y0134908D01*
X0450000Y0139607D02*
X0195910Y0139607D01*
X0200609Y0144305D02*
X0450659Y0144305D01*
X0453953Y0149004D02*
X0205307Y0149004D01*
X0208796Y0163099D02*
X0167100Y0163099D01*
X0161154Y0171154D02*
X0152300Y0162300D01*
X0046400Y0162300D01*
X0046000Y0162700D01*
X0046350Y0162700D01*
X0046851Y0162700D01*
X0047846Y0162831D01*
X0048814Y0163090D01*
X0049741Y0163474D01*
X0050609Y0163976D01*
X0051405Y0164586D01*
X0051633Y0164814D01*
X0052243Y0164204D01*
X0054908Y0163100D01*
X0057792Y0163100D01*
X0060457Y0164204D01*
X0061350Y0165097D01*
X0062243Y0164204D01*
X0064908Y0163100D01*
X0067792Y0163100D01*
X0070457Y0164204D01*
X0071350Y0165097D01*
X0072243Y0164204D01*
X0074908Y0163100D01*
X0077792Y0163100D01*
X0080457Y0164204D01*
X0081350Y0165097D01*
X0082243Y0164204D01*
X0084908Y0163100D01*
X0087792Y0163100D01*
X0090457Y0164204D01*
X0091350Y0165097D01*
X0092243Y0164204D01*
X0094908Y0163100D01*
X0097792Y0163100D01*
X0100457Y0164204D01*
X0101350Y0165097D01*
X0102243Y0164204D01*
X0104908Y0163100D01*
X0107792Y0163100D01*
X0110457Y0164204D01*
X0111350Y0165097D01*
X0112243Y0164204D01*
X0114908Y0163100D01*
X0117792Y0163100D01*
X0120457Y0164204D01*
X0121350Y0165097D01*
X0122243Y0164204D01*
X0124908Y0163100D01*
X0127792Y0163100D01*
X0130457Y0164204D01*
X0131350Y0165097D01*
X0132243Y0164204D01*
X0134908Y0163100D01*
X0137792Y0163100D01*
X0140457Y0164204D01*
X0141350Y0165097D01*
X0142243Y0164204D01*
X0144908Y0163100D01*
X0147792Y0163100D01*
X0150457Y0164204D01*
X0152496Y0166243D01*
X0153600Y0168908D01*
X0153600Y0171792D01*
X0152977Y0173295D01*
X0153475Y0173089D01*
X0163856Y0173089D01*
X0162546Y0172546D01*
X0161154Y0171154D01*
X0162496Y0172496D02*
X0153308Y0172496D01*
X0153140Y0167798D02*
X0157798Y0167798D01*
X0153099Y0163099D02*
X0048836Y0163099D01*
X0046350Y0163099D02*
X0046350Y0163099D01*
X0046350Y0162700D02*
X0046350Y0170350D01*
X0046350Y0162700D01*
X0046350Y0167798D02*
X0046350Y0167798D01*
X0046350Y0170350D02*
X0046350Y0170350D01*
X0046350Y0172496D02*
X0046350Y0172496D01*
X0046350Y0177195D02*
X0046350Y0177195D01*
X0049794Y0177195D02*
X0053930Y0177195D01*
X0058770Y0177195D02*
X0063930Y0177195D01*
X0068770Y0177195D02*
X0073930Y0177195D01*
X0078770Y0177195D02*
X0083930Y0177195D01*
X0088770Y0177195D02*
X0093930Y0177195D01*
X0098770Y0177195D02*
X0103930Y0177195D01*
X0100928Y0181893D02*
X0008200Y0181893D01*
X0008200Y0177195D02*
X0033930Y0177195D01*
X0038770Y0177195D02*
X0042906Y0177195D01*
X0029392Y0172496D02*
X0008200Y0172496D01*
X0008200Y0167798D02*
X0029560Y0167798D01*
X0031924Y0163099D02*
X0008200Y0163099D01*
X0008200Y0158401D02*
X0036299Y0158401D01*
X0040997Y0153702D02*
X0008200Y0153702D01*
X0008200Y0186592D02*
X0096229Y0186592D01*
X0105987Y0186592D02*
X0212600Y0186592D01*
X0212600Y0181893D02*
X0191433Y0181893D01*
X0188952Y0181893D02*
X0171748Y0181893D01*
X0169267Y0181893D02*
X0153686Y0181893D01*
X0167436Y0195565D02*
X0169429Y0194739D01*
X0171586Y0194739D01*
X0173579Y0195565D01*
X0175104Y0197090D01*
X0175929Y0199083D01*
X0175929Y0201239D01*
X0175104Y0203232D01*
X0173579Y0204757D01*
X0171586Y0205583D01*
X0169429Y0205583D01*
X0167436Y0204757D01*
X0165911Y0203232D01*
X0165086Y0201239D01*
X0165086Y0199083D01*
X0165911Y0197090D01*
X0167436Y0195565D01*
X0167012Y0195989D02*
X0101800Y0195989D01*
X0101800Y0200687D02*
X0165086Y0200687D01*
X0168954Y0205386D02*
X0101800Y0205386D01*
X0101800Y0210084D02*
X0212600Y0210084D01*
X0212600Y0205386D02*
X0192761Y0205386D01*
X0192427Y0205556D02*
X0191556Y0205839D01*
X0190651Y0205983D01*
X0190193Y0205983D01*
X0190193Y0200161D01*
X0196014Y0200161D01*
X0190193Y0200161D01*
X0190193Y0200161D01*
X0190193Y0194339D01*
X0190651Y0194339D01*
X0191556Y0194483D01*
X0192427Y0194766D01*
X0193244Y0195182D01*
X0193985Y0195721D01*
X0194633Y0196368D01*
X0195172Y0197110D01*
X0195588Y0197926D01*
X0195871Y0198798D01*
X0196014Y0199703D01*
X0196014Y0200161D01*
X0196014Y0200619D01*
X0195871Y0201524D01*
X0195588Y0202396D01*
X0195172Y0203212D01*
X0194633Y0203954D01*
X0193985Y0204602D01*
X0193244Y0205140D01*
X0192427Y0205556D01*
X0190193Y0205386D02*
X0190192Y0205386D01*
X0190192Y0205983D02*
X0189734Y0205983D01*
X0188829Y0205839D01*
X0187958Y0205556D01*
X0187141Y0205140D01*
X0186400Y0204602D01*
X0185752Y0203954D01*
X0185213Y0203212D01*
X0184797Y0202396D01*
X0184514Y0201524D01*
X0184371Y0200619D01*
X0184371Y0200161D01*
X0184371Y0199703D01*
X0184514Y0198798D01*
X0184797Y0197926D01*
X0185213Y0197110D01*
X0185752Y0196368D01*
X0186400Y0195721D01*
X0187141Y0195182D01*
X0187958Y0194766D01*
X0188829Y0194483D01*
X0189734Y0194339D01*
X0190192Y0194339D01*
X0190192Y0200161D01*
X0184371Y0200161D01*
X0190192Y0200161D01*
X0190192Y0200161D01*
X0190192Y0205983D01*
X0187624Y0205386D02*
X0172061Y0205386D01*
X0175929Y0200687D02*
X0184382Y0200687D01*
X0186132Y0195989D02*
X0174003Y0195989D01*
X0190192Y0195989D02*
X0190193Y0195989D01*
X0194254Y0195989D02*
X0212600Y0195989D01*
X0212600Y0200687D02*
X0196003Y0200687D01*
X0190193Y0200687D02*
X0190192Y0200687D01*
X0190193Y0200161D02*
X0190192Y0200161D01*
X0190193Y0200161D01*
X0212600Y0191290D02*
X0101800Y0191290D01*
X0094900Y0191290D02*
X0008200Y0191290D01*
X0008200Y0195989D02*
X0094900Y0195989D01*
X0094900Y0200687D02*
X0008200Y0200687D01*
X0008200Y0205386D02*
X0094900Y0205386D01*
X0094900Y0210084D02*
X0008200Y0210084D01*
X0008200Y0214783D02*
X0094900Y0214783D01*
X0094900Y0219482D02*
X0008200Y0219482D01*
X0008200Y0224180D02*
X0094900Y0224180D01*
X0094900Y0228879D02*
X0008200Y0228879D01*
X0008200Y0233577D02*
X0078072Y0233577D01*
X0074691Y0238276D02*
X0008200Y0238276D01*
X0008200Y0242974D02*
X0074000Y0242974D01*
X0075317Y0247673D02*
X0008200Y0247673D01*
X0008200Y0252371D02*
X0080007Y0252371D01*
X0090693Y0252371D02*
X0094900Y0252371D01*
X0094900Y0257070D02*
X0008200Y0257070D01*
X0008200Y0261768D02*
X0094900Y0261768D01*
X0094900Y0266467D02*
X0008200Y0266467D01*
X0008200Y0271165D02*
X0094900Y0271165D01*
X0094900Y0275864D02*
X0008200Y0275864D01*
X0008200Y0280562D02*
X0094900Y0280562D01*
X0101800Y0280562D02*
X0211827Y0280562D01*
X0211519Y0275864D02*
X0101800Y0275864D01*
X0101800Y0271165D02*
X0212600Y0271165D01*
X0212600Y0266467D02*
X0101800Y0266467D01*
X0101800Y0261768D02*
X0212600Y0261768D01*
X0212600Y0257070D02*
X0101800Y0257070D01*
X0101800Y0252371D02*
X0212600Y0252371D01*
X0220100Y0252371D02*
X0482211Y0252371D01*
X0482118Y0252781D02*
X0482351Y0251758D01*
X0482698Y0250766D01*
X0483154Y0249820D01*
X0483712Y0248931D01*
X0484367Y0248110D01*
X0485110Y0247367D01*
X0485931Y0246712D01*
X0486007Y0246664D01*
X0483763Y0244420D01*
X0482400Y0241130D01*
X0482400Y0237570D01*
X0483763Y0234280D01*
X0486280Y0231763D01*
X0489570Y0230400D01*
X0493130Y0230400D01*
X0496420Y0231763D01*
X0498937Y0234280D01*
X0500300Y0237570D01*
X0500300Y0241130D01*
X0498937Y0244420D01*
X0496693Y0246664D01*
X0496769Y0246712D01*
X0497590Y0247367D01*
X0498333Y0248110D01*
X0498987Y0248931D01*
X0499546Y0249820D01*
X0500002Y0250766D01*
X0500349Y0251758D01*
X0500582Y0252781D01*
X0500700Y0253825D01*
X0500700Y0254350D01*
X0500700Y0254875D01*
X0500582Y0255919D01*
X0500349Y0256942D01*
X0500002Y0257934D01*
X0499546Y0258880D01*
X0498987Y0259769D01*
X0498333Y0260590D01*
X0497590Y0261333D01*
X0496942Y0261850D01*
X0497590Y0262367D01*
X0498333Y0263110D01*
X0498987Y0263931D01*
X0499546Y0264820D01*
X0500002Y0265766D01*
X0500349Y0266758D01*
X0500582Y0267781D01*
X0500700Y0268825D01*
X0500700Y0269350D01*
X0500700Y0269875D01*
X0500582Y0270919D01*
X0500349Y0271942D01*
X0500002Y0272934D01*
X0499546Y0273880D01*
X0498987Y0274769D01*
X0498333Y0275590D01*
X0497590Y0276333D01*
X0496769Y0276988D01*
X0496693Y0277035D01*
X0498937Y0279280D01*
X0500300Y0282570D01*
X0500300Y0286130D01*
X0498937Y0289420D01*
X0496420Y0291937D01*
X0493130Y0293300D01*
X0489570Y0293300D01*
X0486280Y0291937D01*
X0483763Y0289420D01*
X0482400Y0286130D01*
X0482400Y0282570D01*
X0483763Y0279280D01*
X0486007Y0277035D01*
X0485931Y0276988D01*
X0485110Y0276333D01*
X0484367Y0275590D01*
X0483712Y0274769D01*
X0483154Y0273880D01*
X0482698Y0272934D01*
X0482351Y0271942D01*
X0482118Y0270919D01*
X0482000Y0269875D01*
X0482000Y0269350D01*
X0491350Y0269350D01*
X0501350Y0279350D01*
X0501350Y0314850D01*
X0432850Y0383350D01*
X0442450Y0383350D01*
X0442450Y0383889D01*
X0442329Y0384961D01*
X0442089Y0386012D01*
X0441733Y0387030D01*
X0441265Y0388001D01*
X0440692Y0388914D01*
X0440019Y0389757D01*
X0439257Y0390519D01*
X0438414Y0391192D01*
X0437501Y0391765D01*
X0436530Y0392233D01*
X0435512Y0392589D01*
X0434461Y0392829D01*
X0433389Y0392950D01*
X0432850Y0392950D01*
X0432850Y0383350D01*
X0432850Y0383350D01*
X0432850Y0383350D01*
X0442450Y0383350D01*
X0442450Y0382811D01*
X0442329Y0381739D01*
X0442089Y0380688D01*
X0441733Y0379670D01*
X0441265Y0378699D01*
X0440692Y0377786D01*
X0440019Y0376943D01*
X0439257Y0376181D01*
X0438414Y0375508D01*
X0437501Y0374935D01*
X0436530Y0374467D01*
X0435512Y0374111D01*
X0434461Y0373871D01*
X0433389Y0373750D01*
X0432850Y0373750D01*
X0432850Y0383350D01*
X0432850Y0383350D01*
X0432850Y0383350D01*
X0423250Y0383350D01*
X0423250Y0383889D01*
X0423371Y0384961D01*
X0423611Y0386012D01*
X0423967Y0387030D01*
X0424435Y0388001D01*
X0425008Y0388914D01*
X0425681Y0389757D01*
X0426443Y0390519D01*
X0427286Y0391192D01*
X0428199Y0391765D01*
X0429170Y0392233D01*
X0430188Y0392589D01*
X0431239Y0392829D01*
X0432311Y0392950D01*
X0432850Y0392950D01*
X0432850Y0383350D01*
X0432850Y0373750D01*
X0432311Y0373750D01*
X0431239Y0373871D01*
X0430188Y0374111D01*
X0429170Y0374467D01*
X0428199Y0374935D01*
X0427286Y0375508D01*
X0426443Y0376181D01*
X0425681Y0376943D01*
X0425008Y0377786D01*
X0424435Y0378699D01*
X0423967Y0379670D01*
X0423611Y0380688D01*
X0423371Y0381739D01*
X0423250Y0382811D01*
X0423250Y0383350D01*
X0432850Y0383350D01*
X0432850Y0383929D02*
X0432850Y0383929D01*
X0432850Y0379231D02*
X0432850Y0379231D01*
X0432850Y0374532D02*
X0432850Y0374532D01*
X0436666Y0374532D02*
X0461097Y0374532D01*
X0462020Y0374150D02*
X0458639Y0375551D01*
X0456051Y0378139D01*
X0454650Y0381520D01*
X0454650Y0385180D01*
X0456051Y0388561D01*
X0458639Y0391149D01*
X0462020Y0392550D01*
X0465680Y0392550D01*
X0469061Y0391149D01*
X0471649Y0388561D01*
X0473050Y0385180D01*
X0473050Y0381520D01*
X0471649Y0378139D01*
X0469061Y0375551D01*
X0465680Y0374150D01*
X0462020Y0374150D01*
X0466603Y0374532D02*
X0602097Y0374532D01*
X0604330Y0379231D02*
X0472102Y0379231D01*
X0473050Y0383929D02*
X0610170Y0383929D01*
X0622530Y0383929D02*
X0628500Y0383929D01*
X0628500Y0379231D02*
X0628370Y0379231D01*
X0628500Y0388628D02*
X0471583Y0388628D01*
X0456117Y0388628D02*
X0440871Y0388628D01*
X0442445Y0383929D02*
X0454650Y0383929D01*
X0455598Y0379231D02*
X0441522Y0379231D01*
X0432850Y0388628D02*
X0432850Y0388628D01*
X0424829Y0388628D02*
X0401583Y0388628D01*
X0401649Y0388561D02*
X0399061Y0391149D01*
X0395680Y0392550D01*
X0392020Y0392550D01*
X0388639Y0391149D01*
X0386051Y0388561D01*
X0384650Y0385180D01*
X0384650Y0381520D01*
X0386051Y0378139D01*
X0388639Y0375551D01*
X0392020Y0374150D01*
X0395680Y0374150D01*
X0399061Y0375551D01*
X0401649Y0378139D01*
X0403050Y0381520D01*
X0403050Y0385180D01*
X0401649Y0388561D01*
X0403050Y0383929D02*
X0423255Y0383929D01*
X0424178Y0379231D02*
X0402102Y0379231D01*
X0396603Y0374532D02*
X0429034Y0374532D01*
X0391097Y0374532D02*
X0366666Y0374532D01*
X0366530Y0374467D02*
X0367501Y0374935D01*
X0368414Y0375508D01*
X0369257Y0376181D01*
X0370019Y0376943D01*
X0370692Y0377786D01*
X0371265Y0378699D01*
X0371733Y0379670D01*
X0372089Y0380688D01*
X0372329Y0381739D01*
X0372450Y0382811D01*
X0372450Y0383350D01*
X0372450Y0383889D01*
X0372329Y0384961D01*
X0372089Y0386012D01*
X0371733Y0387030D01*
X0371265Y0388001D01*
X0370692Y0388914D01*
X0370019Y0389757D01*
X0369257Y0390519D01*
X0368414Y0391192D01*
X0367501Y0391765D01*
X0366530Y0392233D01*
X0365512Y0392589D01*
X0364461Y0392829D01*
X0363389Y0392950D01*
X0362850Y0392950D01*
X0362850Y0383350D01*
X0372450Y0383350D01*
X0362850Y0383350D01*
X0362850Y0383350D01*
X0362850Y0383350D01*
X0362850Y0373750D01*
X0363389Y0373750D01*
X0364461Y0373871D01*
X0365512Y0374111D01*
X0366530Y0374467D01*
X0362850Y0374532D02*
X0362850Y0374532D01*
X0362850Y0373750D02*
X0362850Y0383350D01*
X0362850Y0383350D01*
X0362850Y0383350D01*
X0353250Y0383350D01*
X0353250Y0383889D01*
X0353371Y0384961D01*
X0353611Y0386012D01*
X0353967Y0387030D01*
X0354435Y0388001D01*
X0355008Y0388914D01*
X0355681Y0389757D01*
X0356443Y0390519D01*
X0357286Y0391192D01*
X0358199Y0391765D01*
X0359170Y0392233D01*
X0360188Y0392589D01*
X0361239Y0392829D01*
X0362311Y0392950D01*
X0362850Y0392950D01*
X0362850Y0383350D01*
X0353250Y0383350D01*
X0353250Y0382811D01*
X0353371Y0381739D01*
X0353611Y0380688D01*
X0353967Y0379670D01*
X0354435Y0378699D01*
X0355008Y0377786D01*
X0355681Y0376943D01*
X0356443Y0376181D01*
X0357286Y0375508D01*
X0358199Y0374935D01*
X0359170Y0374467D01*
X0360188Y0374111D01*
X0361239Y0373871D01*
X0362311Y0373750D01*
X0362850Y0373750D01*
X0359034Y0374532D02*
X0326603Y0374532D01*
X0325680Y0374150D02*
X0329061Y0375551D01*
X0331649Y0378139D01*
X0333050Y0381520D01*
X0333050Y0385180D01*
X0331649Y0388561D01*
X0329061Y0391149D01*
X0325680Y0392550D01*
X0322020Y0392550D01*
X0318639Y0391149D01*
X0316051Y0388561D01*
X0314650Y0385180D01*
X0314650Y0381520D01*
X0316051Y0378139D01*
X0318639Y0375551D01*
X0322020Y0374150D01*
X0325680Y0374150D01*
X0321097Y0374532D02*
X0296666Y0374532D01*
X0296530Y0374467D02*
X0297501Y0374935D01*
X0298414Y0375508D01*
X0299257Y0376181D01*
X0300019Y0376943D01*
X0300692Y0377786D01*
X0301265Y0378699D01*
X0301733Y0379670D01*
X0302089Y0380688D01*
X0302329Y0381739D01*
X0302450Y0382811D01*
X0302450Y0383350D01*
X0302450Y0383889D01*
X0302329Y0384961D01*
X0302089Y0386012D01*
X0301733Y0387030D01*
X0301265Y0388001D01*
X0300692Y0388914D01*
X0300019Y0389757D01*
X0299257Y0390519D01*
X0298414Y0391192D01*
X0297501Y0391765D01*
X0296530Y0392233D01*
X0295512Y0392589D01*
X0294461Y0392829D01*
X0293389Y0392950D01*
X0292850Y0392950D01*
X0292850Y0383350D01*
X0302450Y0383350D01*
X0292850Y0383350D01*
X0292850Y0383350D01*
X0292850Y0383350D01*
X0292850Y0373750D01*
X0293389Y0373750D01*
X0294461Y0373871D01*
X0295512Y0374111D01*
X0296530Y0374467D01*
X0292850Y0374532D02*
X0292850Y0374532D01*
X0292850Y0373750D02*
X0292850Y0383350D01*
X0292850Y0383350D01*
X0292850Y0383350D01*
X0283250Y0383350D01*
X0283250Y0383889D01*
X0283371Y0384961D01*
X0283611Y0386012D01*
X0283967Y0387030D01*
X0284435Y0388001D01*
X0285008Y0388914D01*
X0285681Y0389757D01*
X0286443Y0390519D01*
X0287286Y0391192D01*
X0288199Y0391765D01*
X0289170Y0392233D01*
X0290188Y0392589D01*
X0291239Y0392829D01*
X0292311Y0392950D01*
X0292850Y0392950D01*
X0292850Y0383350D01*
X0283250Y0383350D01*
X0283250Y0382811D01*
X0283371Y0381739D01*
X0283611Y0380688D01*
X0283967Y0379670D01*
X0284435Y0378699D01*
X0285008Y0377786D01*
X0285681Y0376943D01*
X0286443Y0376181D01*
X0287286Y0375508D01*
X0288199Y0374935D01*
X0289170Y0374467D01*
X0290188Y0374111D01*
X0291239Y0373871D01*
X0292311Y0373750D01*
X0292850Y0373750D01*
X0289034Y0374532D02*
X0256603Y0374532D01*
X0255680Y0374150D02*
X0259061Y0375551D01*
X0261649Y0378139D01*
X0263050Y0381520D01*
X0263050Y0385180D01*
X0261649Y0388561D01*
X0259061Y0391149D01*
X0255680Y0392550D01*
X0252020Y0392550D01*
X0248639Y0391149D01*
X0246051Y0388561D01*
X0244650Y0385180D01*
X0244650Y0381520D01*
X0246051Y0378139D01*
X0248639Y0375551D01*
X0252020Y0374150D01*
X0255680Y0374150D01*
X0251097Y0374532D02*
X0226666Y0374532D01*
X0226530Y0374467D02*
X0227501Y0374935D01*
X0228414Y0375508D01*
X0229257Y0376181D01*
X0230019Y0376943D01*
X0230692Y0377786D01*
X0231265Y0378699D01*
X0231733Y0379670D01*
X0232089Y0380688D01*
X0232329Y0381739D01*
X0232450Y0382811D01*
X0232450Y0383350D01*
X0232450Y0383889D01*
X0232329Y0384961D01*
X0232089Y0386012D01*
X0231733Y0387030D01*
X0231265Y0388001D01*
X0230692Y0388914D01*
X0230019Y0389757D01*
X0229257Y0390519D01*
X0228414Y0391192D01*
X0227501Y0391765D01*
X0226530Y0392233D01*
X0225512Y0392589D01*
X0224461Y0392829D01*
X0223389Y0392950D01*
X0222850Y0392950D01*
X0222850Y0383350D01*
X0232450Y0383350D01*
X0222850Y0383350D01*
X0222850Y0383350D01*
X0222850Y0383350D01*
X0222850Y0373750D01*
X0223389Y0373750D01*
X0224461Y0373871D01*
X0225512Y0374111D01*
X0226530Y0374467D01*
X0222850Y0374532D02*
X0222850Y0374532D01*
X0222850Y0373750D02*
X0222850Y0383350D01*
X0222850Y0383350D01*
X0222850Y0383350D01*
X0213250Y0383350D01*
X0213250Y0383889D01*
X0213371Y0384961D01*
X0213611Y0386012D01*
X0213967Y0387030D01*
X0214435Y0388001D01*
X0215008Y0388914D01*
X0215681Y0389757D01*
X0216443Y0390519D01*
X0217286Y0391192D01*
X0218199Y0391765D01*
X0219170Y0392233D01*
X0220188Y0392589D01*
X0221239Y0392829D01*
X0222311Y0392950D01*
X0222850Y0392950D01*
X0222850Y0383350D01*
X0213250Y0383350D01*
X0213250Y0382811D01*
X0213371Y0381739D01*
X0213611Y0380688D01*
X0213967Y0379670D01*
X0214435Y0378699D01*
X0215008Y0377786D01*
X0215681Y0376943D01*
X0216443Y0376181D01*
X0217286Y0375508D01*
X0218199Y0374935D01*
X0219170Y0374467D01*
X0220188Y0374111D01*
X0221239Y0373871D01*
X0222311Y0373750D01*
X0222850Y0373750D01*
X0219034Y0374532D02*
X0182243Y0374532D01*
X0182300Y0374318D02*
X0181281Y0378120D01*
X0179313Y0381530D01*
X0176530Y0384313D01*
X0173120Y0386281D01*
X0169318Y0387300D01*
X0165382Y0387300D01*
X0161580Y0386281D01*
X0158170Y0384313D01*
X0155387Y0381530D01*
X0153509Y0378277D01*
X0153243Y0378921D01*
X0152532Y0380251D01*
X0151694Y0381505D01*
X0150737Y0382671D01*
X0149671Y0383737D01*
X0148505Y0384694D01*
X0147251Y0385532D01*
X0145921Y0386243D01*
X0144527Y0386820D01*
X0143084Y0387258D01*
X0141605Y0387552D01*
X0141500Y0387562D01*
X0141500Y0374500D01*
X0137200Y0374500D01*
X0137200Y0387562D01*
X0137095Y0387552D01*
X0135616Y0387258D01*
X0134172Y0386820D01*
X0132779Y0386243D01*
X0131449Y0385532D01*
X0130195Y0384694D01*
X0129029Y0383737D01*
X0127963Y0382671D01*
X0127006Y0381505D01*
X0126168Y0380251D01*
X0125457Y0378921D01*
X0124880Y0377527D01*
X0124442Y0376084D01*
X0124148Y0374605D01*
X0124137Y0374500D01*
X0137200Y0374500D01*
X0137200Y0370200D01*
X0141500Y0370200D01*
X0141500Y0357137D01*
X0141605Y0357148D01*
X0143084Y0357442D01*
X0144527Y0357880D01*
X0145921Y0358457D01*
X0147251Y0359168D01*
X0148505Y0360006D01*
X0149671Y0360963D01*
X0150737Y0362029D01*
X0151694Y0363195D01*
X0152532Y0364449D01*
X0153243Y0365779D01*
X0153509Y0366423D01*
X0155387Y0363170D01*
X0158170Y0360387D01*
X0161580Y0358419D01*
X0165382Y0357400D01*
X0169318Y0357400D01*
X0173120Y0358419D01*
X0176530Y0360387D01*
X0179313Y0363170D01*
X0181281Y0366580D01*
X0182300Y0370382D01*
X0182300Y0374318D01*
X0180640Y0379231D02*
X0214178Y0379231D01*
X0213255Y0383929D02*
X0176913Y0383929D01*
X0157787Y0383929D02*
X0149437Y0383929D01*
X0153077Y0379231D02*
X0154060Y0379231D01*
X0141500Y0379231D02*
X0137200Y0379231D01*
X0137200Y0383929D02*
X0141500Y0383929D01*
X0141500Y0374532D02*
X0137200Y0374532D01*
X0137200Y0370200D02*
X0124137Y0370200D01*
X0124148Y0370095D01*
X0124442Y0368616D01*
X0124880Y0367172D01*
X0125457Y0365779D01*
X0126168Y0364449D01*
X0127006Y0363195D01*
X0127963Y0362029D01*
X0129029Y0360963D01*
X0130195Y0360006D01*
X0131449Y0359168D01*
X0132779Y0358457D01*
X0134172Y0357880D01*
X0135616Y0357442D01*
X0137095Y0357148D01*
X0137200Y0357137D01*
X0137200Y0370200D01*
X0137200Y0369834D02*
X0141500Y0369834D01*
X0141500Y0365135D02*
X0137200Y0365135D01*
X0137200Y0360437D02*
X0141500Y0360437D01*
X0149030Y0360437D02*
X0158121Y0360437D01*
X0154253Y0365135D02*
X0152899Y0365135D01*
X0176579Y0360437D02*
X0605262Y0360437D01*
X0602373Y0365135D02*
X0180447Y0365135D01*
X0182153Y0369834D02*
X0601500Y0369834D01*
X0613505Y0355738D02*
X0087252Y0355738D01*
X0087252Y0355051D02*
X0087252Y0357696D01*
X0086240Y0360141D01*
X0085085Y0361295D01*
X0086240Y0362449D01*
X0087252Y0364893D01*
X0087252Y0367539D01*
X0086240Y0369983D01*
X0085085Y0371137D01*
X0086240Y0372292D01*
X0087252Y0374736D01*
X0087252Y0377381D01*
X0086240Y0379826D01*
X0085085Y0380980D01*
X0086240Y0382134D01*
X0087252Y0384578D01*
X0087252Y0387224D01*
X0086240Y0389668D01*
X0084369Y0391539D01*
X0081925Y0392551D01*
X0079279Y0392551D01*
X0076835Y0391539D01*
X0074964Y0389668D01*
X0073952Y0387224D01*
X0073952Y0384578D01*
X0074964Y0382134D01*
X0076119Y0380980D01*
X0074964Y0379826D01*
X0073952Y0377381D01*
X0073952Y0374736D01*
X0074964Y0372292D01*
X0076119Y0371137D01*
X0074964Y0369983D01*
X0073952Y0367539D01*
X0073952Y0364893D01*
X0074964Y0362449D01*
X0076119Y0361295D01*
X0074964Y0360141D01*
X0073952Y0357696D01*
X0073952Y0355051D01*
X0074964Y0352607D01*
X0076835Y0350736D01*
X0079279Y0349724D01*
X0081925Y0349724D01*
X0084369Y0350736D01*
X0086240Y0352607D01*
X0087252Y0355051D01*
X0084673Y0351040D02*
X0628500Y0351040D01*
X0628500Y0355738D02*
X0619195Y0355738D01*
X0627438Y0360437D02*
X0628500Y0360437D01*
X0628500Y0346341D02*
X0065191Y0346341D01*
X0067936Y0341643D02*
X0628500Y0341643D01*
X0628500Y0336944D02*
X0068800Y0336944D01*
X0068800Y0332246D02*
X0628500Y0332246D01*
X0628500Y0327547D02*
X0068800Y0327547D01*
X0069730Y0322849D02*
X0628500Y0322849D01*
X0628500Y0318150D02*
X0074429Y0318150D01*
X0079127Y0313452D02*
X0628500Y0313452D01*
X0628500Y0308753D02*
X0083826Y0308753D01*
X0088524Y0304055D02*
X0628500Y0304055D01*
X0628500Y0299356D02*
X0093223Y0299356D01*
X0097921Y0294658D02*
X0628500Y0294658D01*
X0628500Y0289959D02*
X0498398Y0289959D01*
X0500300Y0285261D02*
X0628500Y0285261D01*
X0628500Y0280562D02*
X0499468Y0280562D01*
X0498059Y0275864D02*
X0628500Y0275864D01*
X0628500Y0271165D02*
X0500526Y0271165D01*
X0500700Y0269350D02*
X0491350Y0269350D01*
X0490350Y0268350D01*
X0491350Y0269350D02*
X0482000Y0269350D01*
X0482000Y0268825D01*
X0482118Y0267781D01*
X0482351Y0266758D01*
X0482698Y0265766D01*
X0483154Y0264820D01*
X0483712Y0263931D01*
X0484367Y0263110D01*
X0485110Y0262367D01*
X0485758Y0261850D01*
X0485110Y0261333D01*
X0484367Y0260590D01*
X0483712Y0259769D01*
X0483154Y0258880D01*
X0482698Y0257934D01*
X0482351Y0256942D01*
X0482118Y0255919D01*
X0482000Y0254875D01*
X0482000Y0254350D01*
X0491350Y0254350D01*
X0500700Y0254350D01*
X0491350Y0254350D01*
X0491350Y0254350D01*
X0491350Y0254350D01*
X0491350Y0269350D01*
X0491350Y0269350D01*
X0491350Y0269350D01*
X0500700Y0269350D01*
X0500247Y0266467D02*
X0628500Y0266467D01*
X0628500Y0261768D02*
X0497044Y0261768D01*
X0491350Y0261768D02*
X0491350Y0261768D01*
X0491350Y0263700D02*
X0491350Y0254350D01*
X0491350Y0254350D01*
X0482000Y0254350D01*
X0482000Y0253825D01*
X0482118Y0252781D01*
X0482396Y0257070D02*
X0220100Y0257070D01*
X0220100Y0261768D02*
X0485656Y0261768D01*
X0482453Y0266467D02*
X0220100Y0266467D01*
X0220100Y0271165D02*
X0482174Y0271165D01*
X0484641Y0275864D02*
X0221181Y0275864D01*
X0220873Y0280562D02*
X0483232Y0280562D01*
X0482400Y0285261D02*
X0101800Y0285261D01*
X0101800Y0289959D02*
X0484302Y0289959D01*
X0491350Y0269350D02*
X0491350Y0269350D01*
X0491350Y0263700D01*
X0491350Y0266467D02*
X0491350Y0266467D01*
X0491350Y0257070D02*
X0491350Y0257070D01*
X0500304Y0257070D02*
X0628500Y0257070D01*
X0628500Y0252371D02*
X0500489Y0252371D01*
X0497895Y0247673D02*
X0628500Y0247673D01*
X0628500Y0242974D02*
X0499536Y0242974D01*
X0500300Y0238276D02*
X0628500Y0238276D01*
X0628500Y0233577D02*
X0498234Y0233577D01*
X0484466Y0233577D02*
X0401550Y0233577D01*
X0401550Y0232349D02*
X0400514Y0228483D01*
X0398513Y0225017D01*
X0395683Y0222187D01*
X0392217Y0220186D01*
X0388351Y0219150D01*
X0384349Y0219150D01*
X0380483Y0220186D01*
X0377017Y0222187D01*
X0374187Y0225017D01*
X0372186Y0228483D01*
X0371150Y0232349D01*
X0371150Y0236351D01*
X0372186Y0240217D01*
X0374187Y0243683D01*
X0377017Y0246513D01*
X0380483Y0248514D01*
X0384349Y0249550D01*
X0388351Y0249550D01*
X0392217Y0248514D01*
X0395683Y0246513D01*
X0398513Y0243683D01*
X0400514Y0240217D01*
X0401550Y0236351D01*
X0401550Y0232349D01*
X0400620Y0228879D02*
X0628500Y0228879D01*
X0628500Y0224180D02*
X0397676Y0224180D01*
X0389588Y0219482D02*
X0628500Y0219482D01*
X0628500Y0214783D02*
X0220100Y0214783D01*
X0220100Y0210084D02*
X0297798Y0210084D01*
X0296567Y0208854D02*
X0294744Y0205696D01*
X0293800Y0202173D01*
X0293800Y0198527D01*
X0294744Y0195004D01*
X0296567Y0191846D01*
X0299146Y0189267D01*
X0302304Y0187444D01*
X0305827Y0186500D01*
X0309473Y0186500D01*
X0312996Y0187444D01*
X0316154Y0189267D01*
X0318733Y0191846D01*
X0320556Y0195004D01*
X0321500Y0198527D01*
X0321500Y0202173D01*
X0320556Y0205696D01*
X0318733Y0208854D01*
X0316154Y0211433D01*
X0312996Y0213256D01*
X0309473Y0214200D01*
X0305827Y0214200D01*
X0302304Y0213256D01*
X0299146Y0211433D01*
X0296567Y0208854D01*
X0294661Y0205386D02*
X0220100Y0205386D01*
X0220100Y0200687D02*
X0293800Y0200687D01*
X0294480Y0195989D02*
X0220100Y0195989D01*
X0220100Y0191290D02*
X0297123Y0191290D01*
X0305483Y0186592D02*
X0220100Y0186592D01*
X0212600Y0177195D02*
X0195614Y0177195D01*
X0193817Y0172496D02*
X0212600Y0172496D01*
X0212600Y0167798D02*
X0188452Y0167798D01*
X0183848Y0177195D02*
X0175929Y0177195D01*
X0212600Y0214783D02*
X0101800Y0214783D01*
X0101800Y0219482D02*
X0212600Y0219482D01*
X0220100Y0219482D02*
X0383112Y0219482D01*
X0375024Y0224180D02*
X0220100Y0224180D01*
X0220100Y0228879D02*
X0372080Y0228879D01*
X0371150Y0233577D02*
X0220100Y0233577D01*
X0220100Y0238276D02*
X0371666Y0238276D01*
X0373778Y0242974D02*
X0220100Y0242974D01*
X0220100Y0247673D02*
X0379025Y0247673D01*
X0393675Y0247673D02*
X0484805Y0247673D01*
X0483164Y0242974D02*
X0398922Y0242974D01*
X0401034Y0238276D02*
X0482400Y0238276D01*
X0470396Y0213256D02*
X0466873Y0214200D01*
X0463227Y0214200D01*
X0459704Y0213256D01*
X0456546Y0211433D01*
X0453967Y0208854D01*
X0452144Y0205696D01*
X0451200Y0202173D01*
X0451200Y0198527D01*
X0452144Y0195004D01*
X0453967Y0191846D01*
X0456546Y0189267D01*
X0459704Y0187444D01*
X0463227Y0186500D01*
X0466873Y0186500D01*
X0470396Y0187444D01*
X0473554Y0189267D01*
X0476133Y0191846D01*
X0477956Y0195004D01*
X0478900Y0198527D01*
X0478900Y0202173D01*
X0477956Y0205696D01*
X0476133Y0208854D01*
X0473554Y0211433D01*
X0470396Y0213256D01*
X0474902Y0210084D02*
X0628500Y0210084D01*
X0628500Y0205386D02*
X0478039Y0205386D01*
X0478900Y0200687D02*
X0628500Y0200687D01*
X0628500Y0195989D02*
X0478220Y0195989D01*
X0475577Y0191290D02*
X0628500Y0191290D01*
X0628500Y0186592D02*
X0467217Y0186592D01*
X0462883Y0186592D02*
X0309817Y0186592D01*
X0318177Y0191290D02*
X0454523Y0191290D01*
X0451880Y0195989D02*
X0320820Y0195989D01*
X0321500Y0200687D02*
X0451200Y0200687D01*
X0452061Y0205386D02*
X0320639Y0205386D01*
X0317502Y0210084D02*
X0455198Y0210084D01*
X0620931Y0172496D02*
X0628500Y0172496D01*
X0628500Y0167798D02*
X0627903Y0167798D01*
X0628005Y0149004D02*
X0628500Y0149004D01*
X0628500Y0125511D02*
X0193614Y0125511D01*
X0191512Y0120813D02*
X0628500Y0120813D01*
X0212600Y0224180D02*
X0101800Y0224180D01*
X0101800Y0228879D02*
X0212600Y0228879D01*
X0212600Y0233577D02*
X0101800Y0233577D01*
X0101800Y0238276D02*
X0212600Y0238276D01*
X0212600Y0242974D02*
X0101800Y0242974D01*
X0101800Y0247673D02*
X0212600Y0247673D01*
X0094900Y0233577D02*
X0092628Y0233577D01*
X0094900Y0285261D02*
X0008200Y0285261D01*
X0008200Y0289959D02*
X0092862Y0289959D01*
X0088163Y0294658D02*
X0008200Y0294658D01*
X0008200Y0299356D02*
X0083465Y0299356D01*
X0078766Y0304055D02*
X0008200Y0304055D01*
X0008200Y0308753D02*
X0074068Y0308753D01*
X0069369Y0313452D02*
X0008200Y0313452D01*
X0008200Y0318150D02*
X0064671Y0318150D01*
X0061900Y0322849D02*
X0008200Y0322849D01*
X0008200Y0327547D02*
X0061900Y0327547D01*
X0061900Y0332246D02*
X0008200Y0332246D01*
X0008200Y0336944D02*
X0061900Y0336944D01*
X0057519Y0341643D02*
X0008200Y0341643D01*
X0008200Y0346341D02*
X0059509Y0346341D01*
X0073952Y0355738D02*
X0008200Y0355738D01*
X0008200Y0351040D02*
X0076531Y0351040D01*
X0075261Y0360437D02*
X0008200Y0360437D01*
X0008200Y0365135D02*
X0073952Y0365135D01*
X0074903Y0369834D02*
X0059034Y0369834D01*
X0059783Y0370583D02*
X0057912Y0368712D01*
X0055468Y0367700D01*
X0052823Y0367700D01*
X0050378Y0368712D01*
X0048508Y0370583D01*
X0047495Y0373027D01*
X0047495Y0375673D01*
X0048508Y0378117D01*
X0050378Y0379988D01*
X0052823Y0381000D01*
X0055468Y0381000D01*
X0057912Y0379988D01*
X0059783Y0378117D01*
X0060795Y0375673D01*
X0060795Y0373027D01*
X0059783Y0370583D01*
X0060795Y0374532D02*
X0074036Y0374532D01*
X0074718Y0379231D02*
X0058669Y0379231D01*
X0049622Y0379231D02*
X0033078Y0379231D01*
X0032322Y0379988D02*
X0029877Y0381000D01*
X0027232Y0381000D01*
X0024788Y0379988D01*
X0022917Y0378117D01*
X0021905Y0375673D01*
X0021905Y0373027D01*
X0022917Y0370583D01*
X0024788Y0368712D01*
X0027232Y0367700D01*
X0029877Y0367700D01*
X0032322Y0368712D01*
X0034192Y0370583D01*
X0035205Y0373027D01*
X0035205Y0375673D01*
X0034192Y0378117D01*
X0032322Y0379988D01*
X0035205Y0374532D02*
X0047495Y0374532D01*
X0049257Y0369834D02*
X0033443Y0369834D01*
X0023666Y0369834D02*
X0008200Y0369834D01*
X0008200Y0374532D02*
X0021905Y0374532D01*
X0024031Y0379231D02*
X0008200Y0379231D01*
X0008200Y0383929D02*
X0074221Y0383929D01*
X0074534Y0388628D02*
X0008200Y0388628D01*
X0008200Y0393326D02*
X0628500Y0393326D01*
X0628500Y0398025D02*
X0008200Y0398025D01*
X0086670Y0388628D02*
X0214829Y0388628D01*
X0222850Y0388628D02*
X0222850Y0388628D01*
X0222850Y0383929D02*
X0222850Y0383929D01*
X0222850Y0379231D02*
X0222850Y0379231D01*
X0231522Y0379231D02*
X0245598Y0379231D01*
X0244650Y0383929D02*
X0232445Y0383929D01*
X0230871Y0388628D02*
X0246117Y0388628D01*
X0261583Y0388628D02*
X0284829Y0388628D01*
X0283255Y0383929D02*
X0263050Y0383929D01*
X0262102Y0379231D02*
X0284178Y0379231D01*
X0292850Y0379231D02*
X0292850Y0379231D01*
X0292850Y0383929D02*
X0292850Y0383929D01*
X0292850Y0388628D02*
X0292850Y0388628D01*
X0300871Y0388628D02*
X0316117Y0388628D01*
X0314650Y0383929D02*
X0302445Y0383929D01*
X0301522Y0379231D02*
X0315598Y0379231D01*
X0332102Y0379231D02*
X0354178Y0379231D01*
X0353255Y0383929D02*
X0333050Y0383929D01*
X0331583Y0388628D02*
X0354829Y0388628D01*
X0362850Y0388628D02*
X0362850Y0388628D01*
X0362850Y0383929D02*
X0362850Y0383929D01*
X0362850Y0379231D02*
X0362850Y0379231D01*
X0371522Y0379231D02*
X0385598Y0379231D01*
X0384650Y0383929D02*
X0372445Y0383929D01*
X0370871Y0388628D02*
X0386117Y0388628D01*
X0129263Y0383929D02*
X0086983Y0383929D01*
X0086486Y0379231D02*
X0125623Y0379231D01*
X0124141Y0374532D02*
X0087168Y0374532D01*
X0086301Y0369834D02*
X0124200Y0369834D01*
X0125801Y0365135D02*
X0087252Y0365135D01*
X0085943Y0360437D02*
X0129670Y0360437D01*
X0181815Y0125511D02*
X0182771Y0125511D01*
X0184873Y0120813D02*
X0171827Y0120813D01*
D19*
X0152350Y0194350D03*
X0130350Y0207350D03*
X0068350Y0204350D03*
X0048350Y0203350D03*
X0028350Y0203350D03*
X0043350Y0256350D03*
X0055350Y0281350D03*
X0037350Y0313350D03*
X0062350Y0342350D03*
D20*
X0065350Y0339350D01*
X0065350Y0322350D01*
X0098350Y0289350D01*
X0098350Y0189350D01*
X0107350Y0180350D01*
X0150350Y0180350D01*
X0154161Y0176539D01*
X0170507Y0176539D01*
X0136350Y0110350D02*
X0139350Y0107350D01*
X0139350Y0053350D01*
X0103350Y0017350D01*
X0103350Y0013350D01*
X0063350Y0053350D02*
X0063350Y0068350D01*
X0038350Y0093350D01*
X0038350Y0108350D01*
X0036350Y0110350D01*
X0040350Y0256350D02*
X0043350Y0256350D01*
D21*
X0216350Y0277350D02*
X0216350Y0165350D01*
X0176161Y0125161D01*
X0168507Y0125161D01*
X0153350Y0103350D02*
X0146350Y0110350D01*
X0153350Y0103350D02*
X0153350Y0043350D01*
X0123350Y0013350D01*
X0093350Y0013350D02*
X0133350Y0053350D01*
X0133350Y0103350D01*
X0126350Y0110350D01*
X0103350Y0078350D02*
X0076350Y0105350D01*
X0076350Y0110350D01*
X0046350Y0110350D02*
X0046350Y0105350D01*
X0083350Y0068350D01*
X0083350Y0053350D01*
X0103350Y0053350D02*
X0103350Y0078350D01*
D22*
X0216350Y0277350D03*
D23*
X0190193Y0176539D02*
X0182004Y0168350D01*
X0165350Y0168350D01*
X0154350Y0157350D01*
X0044350Y0157350D01*
X0036350Y0165350D01*
X0036350Y0170350D01*
M02*
