G75*
%MOIN*%
%OFA0B0*%
%FSLAX25Y25*%
%IPPOS*%
%LPD*%
%AMOC8*
5,1,8,0,0,1.08239X$1,22.5*
%
%ADD10R,0.10100X0.05200*%
%ADD11R,0.03331X0.02937*%
%ADD12R,0.03900X0.03700*%
%ADD13R,0.02543X0.02150*%
D10*
X0225850Y0056850D03*
X0260850Y0056850D03*
X0295850Y0056850D03*
X0330850Y0056850D03*
X0365850Y0056850D03*
X0400850Y0056850D03*
X0435850Y0056850D03*
X0470850Y0056850D03*
X0505850Y0056850D03*
X0540850Y0056850D03*
X0575850Y0056850D03*
X0610850Y0056850D03*
X0610850Y0109850D03*
X0575850Y0109850D03*
X0540850Y0109850D03*
X0505850Y0109850D03*
X0470850Y0109850D03*
X0435850Y0109850D03*
X0400850Y0109850D03*
X0365850Y0109850D03*
X0330850Y0109850D03*
X0295850Y0109850D03*
X0260850Y0109850D03*
X0225850Y0109850D03*
X0220850Y0291850D03*
X0255850Y0291850D03*
X0290850Y0291850D03*
X0325850Y0291850D03*
X0360850Y0291850D03*
X0395850Y0291850D03*
X0430850Y0291850D03*
X0465850Y0291850D03*
X0465850Y0344850D03*
X0430850Y0344850D03*
X0395850Y0344850D03*
X0360850Y0344850D03*
X0325850Y0344850D03*
X0290850Y0344850D03*
X0255850Y0344850D03*
X0220850Y0344850D03*
D11*
X0088350Y0080004D03*
X0098350Y0080004D03*
X0108350Y0080004D03*
X0108350Y0086696D03*
X0098350Y0086696D03*
X0088350Y0086696D03*
X0118350Y0086696D03*
X0118350Y0080004D03*
X0163350Y0150004D03*
X0163350Y0156696D03*
X0137350Y0188004D03*
X0137350Y0194696D03*
X0068350Y0210004D03*
X0068350Y0216696D03*
X0068350Y0225004D03*
X0068350Y0231696D03*
X0048350Y0231696D03*
X0048350Y0225004D03*
X0048350Y0216696D03*
X0048350Y0210004D03*
X0028350Y0210004D03*
X0028350Y0216696D03*
X0028350Y0225004D03*
X0028350Y0231696D03*
X0025350Y0259004D03*
X0025350Y0265696D03*
X0019350Y0282004D03*
X0019350Y0288696D03*
X0040350Y0287696D03*
X0040350Y0281004D03*
X0033350Y0325004D03*
X0033350Y0331696D03*
D12*
X0050350Y0265450D03*
X0050350Y0257250D03*
D13*
X0028287Y0305610D03*
X0028287Y0313090D03*
X0020019Y0309350D03*
X0049019Y0328350D03*
X0057287Y0324610D03*
X0057287Y0332090D03*
X0072019Y0328350D03*
X0080287Y0324610D03*
X0093019Y0328350D03*
X0080287Y0332090D03*
X0101287Y0332090D03*
X0101287Y0324610D03*
X0117287Y0195090D03*
X0117287Y0187610D03*
X0109019Y0191350D03*
M02*
