%TF.GenerationSoftware,KiCad,Pcbnew,7.0.7*%
%TF.CreationDate,2024-04-10T23:56:21-07:00*%
%TF.ProjectId,USBTTL,55534254-544c-42e6-9b69-6361645f7063,rev?*%
%TF.SameCoordinates,Original*%
%TF.FileFunction,Soldermask,Top*%
%TF.FilePolarity,Negative*%
%FSLAX46Y46*%
G04 Gerber Fmt 4.6, Leading zero omitted, Abs format (unit mm)*
G04 Created by KiCad (PCBNEW 7.0.7) date 2024-04-10 23:56:21*
%MOMM*%
%LPD*%
G01*
G04 APERTURE LIST*
G04 Aperture macros list*
%AMRoundRect*
0 Rectangle with rounded corners*
0 $1 Rounding radius*
0 $2 $3 $4 $5 $6 $7 $8 $9 X,Y pos of 4 corners*
0 Add a 4 corners polygon primitive as box body*
4,1,4,$2,$3,$4,$5,$6,$7,$8,$9,$2,$3,0*
0 Add four circle primitives for the rounded corners*
1,1,$1+$1,$2,$3*
1,1,$1+$1,$4,$5*
1,1,$1+$1,$6,$7*
1,1,$1+$1,$8,$9*
0 Add four rect primitives between the rounded corners*
20,1,$1+$1,$2,$3,$4,$5,0*
20,1,$1+$1,$4,$5,$6,$7,0*
20,1,$1+$1,$6,$7,$8,$9,0*
20,1,$1+$1,$8,$9,$2,$3,0*%
G04 Aperture macros list end*
%ADD10C,1.400000*%
%ADD11RoundRect,0.150000X-0.825000X-0.150000X0.825000X-0.150000X0.825000X0.150000X-0.825000X0.150000X0*%
%ADD12RoundRect,0.225000X-0.250000X0.225000X-0.250000X-0.225000X0.250000X-0.225000X0.250000X0.225000X0*%
%ADD13RoundRect,0.200000X-0.275000X0.200000X-0.275000X-0.200000X0.275000X-0.200000X0.275000X0.200000X0*%
%ADD14RoundRect,0.225000X0.250000X-0.225000X0.250000X0.225000X-0.250000X0.225000X-0.250000X-0.225000X0*%
%ADD15R,1.700000X1.700000*%
%ADD16O,1.700000X1.700000*%
%ADD17R,1.524000X1.524000*%
%ADD18C,1.524000*%
%ADD19C,2.800000*%
G04 APERTURE END LIST*
D10*
%TO.C,Y1*%
X72500000Y-59500000D03*
X67600000Y-59500000D03*
%TD*%
D11*
%TO.C,U1*%
X67525000Y-45555000D03*
X67525000Y-46825000D03*
X67525000Y-48095000D03*
X67525000Y-49365000D03*
X67525000Y-50635000D03*
X67525000Y-51905000D03*
X67525000Y-53175000D03*
X67525000Y-54445000D03*
X72475000Y-54445000D03*
X72475000Y-53175000D03*
X72475000Y-51905000D03*
X72475000Y-50635000D03*
X72475000Y-49365000D03*
X72475000Y-48095000D03*
X72475000Y-46825000D03*
X72475000Y-45555000D03*
%TD*%
D12*
%TO.C,C3*%
X77000000Y-60225000D03*
X77000000Y-61775000D03*
%TD*%
D13*
%TO.C,R2*%
X69000000Y-42175000D03*
X69000000Y-43825000D03*
%TD*%
%TO.C,R1*%
X71000000Y-42175000D03*
X71000000Y-43825000D03*
%TD*%
D14*
%TO.C,C2*%
X78000000Y-42775000D03*
X78000000Y-41225000D03*
%TD*%
D15*
%TO.C,J1*%
X59000000Y-61000000D03*
D16*
X59000000Y-58460000D03*
X59000000Y-55920000D03*
X59000000Y-53380000D03*
X59000000Y-50840000D03*
X59000000Y-48300000D03*
X59000000Y-45760000D03*
X59000000Y-43220000D03*
%TD*%
D14*
%TO.C,C4*%
X63000000Y-61775000D03*
X63000000Y-60225000D03*
%TD*%
D15*
%TO.C,J2*%
X81000000Y-43000000D03*
D16*
X81000000Y-45540000D03*
X81000000Y-48080000D03*
X81000000Y-50620000D03*
X81000000Y-53160000D03*
X81000000Y-55700000D03*
X81000000Y-58240000D03*
X81000000Y-60780000D03*
%TD*%
D17*
%TO.C,USB1*%
X73500000Y-39715000D03*
D18*
X71000000Y-39715000D03*
X69000000Y-39715000D03*
X66500000Y-39715000D03*
D19*
X63450000Y-37005000D03*
X76550000Y-37005000D03*
%TD*%
D12*
%TO.C,C1*%
X62000000Y-41225000D03*
X62000000Y-42775000D03*
%TD*%
M02*
