%TF.GenerationSoftware,KiCad,Pcbnew,7.0.7*%
%TF.CreationDate,2024-02-01T17:54:51-08:00*%
%TF.ProjectId,servocontrollerproject,73657276-6f63-46f6-9e74-726f6c6c6572,rev?*%
%TF.SameCoordinates,Original*%
%TF.FileFunction,Legend,Top*%
%TF.FilePolarity,Positive*%
%FSLAX46Y46*%
G04 Gerber Fmt 4.6, Leading zero omitted, Abs format (unit mm)*
G04 Created by KiCad (PCBNEW 7.0.7) date 2024-02-01 17:54:51*
%MOMM*%
%LPD*%
G01*
G04 APERTURE LIST*
%ADD10C,0.100000*%
%ADD11C,0.150000*%
%ADD12C,0.300000*%
%ADD13C,0.400000*%
%ADD14C,0.250000*%
%ADD15C,0.120000*%
%ADD16C,0.130000*%
%ADD17C,0.254000*%
G04 APERTURE END LIST*
D10*
D11*
X177002200Y-166007200D02*
X285002200Y-166007200D01*
X285002200Y-198007200D01*
X177002200Y-198007200D01*
X177002200Y-166007200D01*
D10*
D11*
X10000000Y-10000000D02*
X287002200Y-10000000D01*
X287002200Y-200007200D01*
X10000000Y-200007200D01*
X10000000Y-10000000D01*
D10*
D11*
X12000000Y-12000000D02*
X285002200Y-12000000D01*
X285002200Y-198007200D01*
X12000000Y-198007200D01*
X12000000Y-12000000D01*
D10*
D11*
X60000000Y-12000000D02*
X60000000Y-10000000D01*
D10*
D11*
X110000000Y-12000000D02*
X110000000Y-10000000D01*
D10*
D11*
X160000000Y-12000000D02*
X160000000Y-10000000D01*
D10*
D11*
X210000000Y-12000000D02*
X210000000Y-10000000D01*
D10*
D11*
X260000000Y-12000000D02*
X260000000Y-10000000D01*
D10*
D11*
X36089160Y-11593604D02*
X35346303Y-11593604D01*
X35717731Y-11593604D02*
X35717731Y-10293604D01*
X35717731Y-10293604D02*
X35593922Y-10479319D01*
X35593922Y-10479319D02*
X35470112Y-10603128D01*
X35470112Y-10603128D02*
X35346303Y-10665033D01*
D10*
D11*
X85346303Y-10417414D02*
X85408207Y-10355509D01*
X85408207Y-10355509D02*
X85532017Y-10293604D01*
X85532017Y-10293604D02*
X85841541Y-10293604D01*
X85841541Y-10293604D02*
X85965350Y-10355509D01*
X85965350Y-10355509D02*
X86027255Y-10417414D01*
X86027255Y-10417414D02*
X86089160Y-10541223D01*
X86089160Y-10541223D02*
X86089160Y-10665033D01*
X86089160Y-10665033D02*
X86027255Y-10850747D01*
X86027255Y-10850747D02*
X85284398Y-11593604D01*
X85284398Y-11593604D02*
X86089160Y-11593604D01*
D10*
D11*
X135284398Y-10293604D02*
X136089160Y-10293604D01*
X136089160Y-10293604D02*
X135655826Y-10788842D01*
X135655826Y-10788842D02*
X135841541Y-10788842D01*
X135841541Y-10788842D02*
X135965350Y-10850747D01*
X135965350Y-10850747D02*
X136027255Y-10912652D01*
X136027255Y-10912652D02*
X136089160Y-11036461D01*
X136089160Y-11036461D02*
X136089160Y-11345985D01*
X136089160Y-11345985D02*
X136027255Y-11469795D01*
X136027255Y-11469795D02*
X135965350Y-11531700D01*
X135965350Y-11531700D02*
X135841541Y-11593604D01*
X135841541Y-11593604D02*
X135470112Y-11593604D01*
X135470112Y-11593604D02*
X135346303Y-11531700D01*
X135346303Y-11531700D02*
X135284398Y-11469795D01*
D10*
D11*
X185965350Y-10726938D02*
X185965350Y-11593604D01*
X185655826Y-10231700D02*
X185346303Y-11160271D01*
X185346303Y-11160271D02*
X186151064Y-11160271D01*
D10*
D11*
X236027255Y-10293604D02*
X235408207Y-10293604D01*
X235408207Y-10293604D02*
X235346303Y-10912652D01*
X235346303Y-10912652D02*
X235408207Y-10850747D01*
X235408207Y-10850747D02*
X235532017Y-10788842D01*
X235532017Y-10788842D02*
X235841541Y-10788842D01*
X235841541Y-10788842D02*
X235965350Y-10850747D01*
X235965350Y-10850747D02*
X236027255Y-10912652D01*
X236027255Y-10912652D02*
X236089160Y-11036461D01*
X236089160Y-11036461D02*
X236089160Y-11345985D01*
X236089160Y-11345985D02*
X236027255Y-11469795D01*
X236027255Y-11469795D02*
X235965350Y-11531700D01*
X235965350Y-11531700D02*
X235841541Y-11593604D01*
X235841541Y-11593604D02*
X235532017Y-11593604D01*
X235532017Y-11593604D02*
X235408207Y-11531700D01*
X235408207Y-11531700D02*
X235346303Y-11469795D01*
D10*
D11*
X285965350Y-10293604D02*
X285717731Y-10293604D01*
X285717731Y-10293604D02*
X285593922Y-10355509D01*
X285593922Y-10355509D02*
X285532017Y-10417414D01*
X285532017Y-10417414D02*
X285408207Y-10603128D01*
X285408207Y-10603128D02*
X285346303Y-10850747D01*
X285346303Y-10850747D02*
X285346303Y-11345985D01*
X285346303Y-11345985D02*
X285408207Y-11469795D01*
X285408207Y-11469795D02*
X285470112Y-11531700D01*
X285470112Y-11531700D02*
X285593922Y-11593604D01*
X285593922Y-11593604D02*
X285841541Y-11593604D01*
X285841541Y-11593604D02*
X285965350Y-11531700D01*
X285965350Y-11531700D02*
X286027255Y-11469795D01*
X286027255Y-11469795D02*
X286089160Y-11345985D01*
X286089160Y-11345985D02*
X286089160Y-11036461D01*
X286089160Y-11036461D02*
X286027255Y-10912652D01*
X286027255Y-10912652D02*
X285965350Y-10850747D01*
X285965350Y-10850747D02*
X285841541Y-10788842D01*
X285841541Y-10788842D02*
X285593922Y-10788842D01*
X285593922Y-10788842D02*
X285470112Y-10850747D01*
X285470112Y-10850747D02*
X285408207Y-10912652D01*
X285408207Y-10912652D02*
X285346303Y-11036461D01*
D10*
D11*
X60000000Y-198007200D02*
X60000000Y-200007200D01*
D10*
D11*
X110000000Y-198007200D02*
X110000000Y-200007200D01*
D10*
D11*
X160000000Y-198007200D02*
X160000000Y-200007200D01*
D10*
D11*
X210000000Y-198007200D02*
X210000000Y-200007200D01*
D10*
D11*
X260000000Y-198007200D02*
X260000000Y-200007200D01*
D10*
D11*
X36089160Y-199600804D02*
X35346303Y-199600804D01*
X35717731Y-199600804D02*
X35717731Y-198300804D01*
X35717731Y-198300804D02*
X35593922Y-198486519D01*
X35593922Y-198486519D02*
X35470112Y-198610328D01*
X35470112Y-198610328D02*
X35346303Y-198672233D01*
D10*
D11*
X85346303Y-198424614D02*
X85408207Y-198362709D01*
X85408207Y-198362709D02*
X85532017Y-198300804D01*
X85532017Y-198300804D02*
X85841541Y-198300804D01*
X85841541Y-198300804D02*
X85965350Y-198362709D01*
X85965350Y-198362709D02*
X86027255Y-198424614D01*
X86027255Y-198424614D02*
X86089160Y-198548423D01*
X86089160Y-198548423D02*
X86089160Y-198672233D01*
X86089160Y-198672233D02*
X86027255Y-198857947D01*
X86027255Y-198857947D02*
X85284398Y-199600804D01*
X85284398Y-199600804D02*
X86089160Y-199600804D01*
D10*
D11*
X135284398Y-198300804D02*
X136089160Y-198300804D01*
X136089160Y-198300804D02*
X135655826Y-198796042D01*
X135655826Y-198796042D02*
X135841541Y-198796042D01*
X135841541Y-198796042D02*
X135965350Y-198857947D01*
X135965350Y-198857947D02*
X136027255Y-198919852D01*
X136027255Y-198919852D02*
X136089160Y-199043661D01*
X136089160Y-199043661D02*
X136089160Y-199353185D01*
X136089160Y-199353185D02*
X136027255Y-199476995D01*
X136027255Y-199476995D02*
X135965350Y-199538900D01*
X135965350Y-199538900D02*
X135841541Y-199600804D01*
X135841541Y-199600804D02*
X135470112Y-199600804D01*
X135470112Y-199600804D02*
X135346303Y-199538900D01*
X135346303Y-199538900D02*
X135284398Y-199476995D01*
D10*
D11*
X185965350Y-198734138D02*
X185965350Y-199600804D01*
X185655826Y-198238900D02*
X185346303Y-199167471D01*
X185346303Y-199167471D02*
X186151064Y-199167471D01*
D10*
D11*
X236027255Y-198300804D02*
X235408207Y-198300804D01*
X235408207Y-198300804D02*
X235346303Y-198919852D01*
X235346303Y-198919852D02*
X235408207Y-198857947D01*
X235408207Y-198857947D02*
X235532017Y-198796042D01*
X235532017Y-198796042D02*
X235841541Y-198796042D01*
X235841541Y-198796042D02*
X235965350Y-198857947D01*
X235965350Y-198857947D02*
X236027255Y-198919852D01*
X236027255Y-198919852D02*
X236089160Y-199043661D01*
X236089160Y-199043661D02*
X236089160Y-199353185D01*
X236089160Y-199353185D02*
X236027255Y-199476995D01*
X236027255Y-199476995D02*
X235965350Y-199538900D01*
X235965350Y-199538900D02*
X235841541Y-199600804D01*
X235841541Y-199600804D02*
X235532017Y-199600804D01*
X235532017Y-199600804D02*
X235408207Y-199538900D01*
X235408207Y-199538900D02*
X235346303Y-199476995D01*
D10*
D11*
X285965350Y-198300804D02*
X285717731Y-198300804D01*
X285717731Y-198300804D02*
X285593922Y-198362709D01*
X285593922Y-198362709D02*
X285532017Y-198424614D01*
X285532017Y-198424614D02*
X285408207Y-198610328D01*
X285408207Y-198610328D02*
X285346303Y-198857947D01*
X285346303Y-198857947D02*
X285346303Y-199353185D01*
X285346303Y-199353185D02*
X285408207Y-199476995D01*
X285408207Y-199476995D02*
X285470112Y-199538900D01*
X285470112Y-199538900D02*
X285593922Y-199600804D01*
X285593922Y-199600804D02*
X285841541Y-199600804D01*
X285841541Y-199600804D02*
X285965350Y-199538900D01*
X285965350Y-199538900D02*
X286027255Y-199476995D01*
X286027255Y-199476995D02*
X286089160Y-199353185D01*
X286089160Y-199353185D02*
X286089160Y-199043661D01*
X286089160Y-199043661D02*
X286027255Y-198919852D01*
X286027255Y-198919852D02*
X285965350Y-198857947D01*
X285965350Y-198857947D02*
X285841541Y-198796042D01*
X285841541Y-198796042D02*
X285593922Y-198796042D01*
X285593922Y-198796042D02*
X285470112Y-198857947D01*
X285470112Y-198857947D02*
X285408207Y-198919852D01*
X285408207Y-198919852D02*
X285346303Y-199043661D01*
D10*
D11*
X10000000Y-60000000D02*
X12000000Y-60000000D01*
D10*
D11*
X10000000Y-110000000D02*
X12000000Y-110000000D01*
D10*
D11*
X10000000Y-160000000D02*
X12000000Y-160000000D01*
D10*
D11*
X10690476Y-35222176D02*
X11309523Y-35222176D01*
X10566666Y-35593604D02*
X10999999Y-34293604D01*
X10999999Y-34293604D02*
X11433333Y-35593604D01*
D10*
D11*
X11092857Y-84912652D02*
X11278571Y-84974557D01*
X11278571Y-84974557D02*
X11340476Y-85036461D01*
X11340476Y-85036461D02*
X11402380Y-85160271D01*
X11402380Y-85160271D02*
X11402380Y-85345985D01*
X11402380Y-85345985D02*
X11340476Y-85469795D01*
X11340476Y-85469795D02*
X11278571Y-85531700D01*
X11278571Y-85531700D02*
X11154761Y-85593604D01*
X11154761Y-85593604D02*
X10659523Y-85593604D01*
X10659523Y-85593604D02*
X10659523Y-84293604D01*
X10659523Y-84293604D02*
X11092857Y-84293604D01*
X11092857Y-84293604D02*
X11216666Y-84355509D01*
X11216666Y-84355509D02*
X11278571Y-84417414D01*
X11278571Y-84417414D02*
X11340476Y-84541223D01*
X11340476Y-84541223D02*
X11340476Y-84665033D01*
X11340476Y-84665033D02*
X11278571Y-84788842D01*
X11278571Y-84788842D02*
X11216666Y-84850747D01*
X11216666Y-84850747D02*
X11092857Y-84912652D01*
X11092857Y-84912652D02*
X10659523Y-84912652D01*
D10*
D11*
X11402380Y-135469795D02*
X11340476Y-135531700D01*
X11340476Y-135531700D02*
X11154761Y-135593604D01*
X11154761Y-135593604D02*
X11030952Y-135593604D01*
X11030952Y-135593604D02*
X10845238Y-135531700D01*
X10845238Y-135531700D02*
X10721428Y-135407890D01*
X10721428Y-135407890D02*
X10659523Y-135284080D01*
X10659523Y-135284080D02*
X10597619Y-135036461D01*
X10597619Y-135036461D02*
X10597619Y-134850747D01*
X10597619Y-134850747D02*
X10659523Y-134603128D01*
X10659523Y-134603128D02*
X10721428Y-134479319D01*
X10721428Y-134479319D02*
X10845238Y-134355509D01*
X10845238Y-134355509D02*
X11030952Y-134293604D01*
X11030952Y-134293604D02*
X11154761Y-134293604D01*
X11154761Y-134293604D02*
X11340476Y-134355509D01*
X11340476Y-134355509D02*
X11402380Y-134417414D01*
D10*
D11*
X10659523Y-185593604D02*
X10659523Y-184293604D01*
X10659523Y-184293604D02*
X10969047Y-184293604D01*
X10969047Y-184293604D02*
X11154761Y-184355509D01*
X11154761Y-184355509D02*
X11278571Y-184479319D01*
X11278571Y-184479319D02*
X11340476Y-184603128D01*
X11340476Y-184603128D02*
X11402380Y-184850747D01*
X11402380Y-184850747D02*
X11402380Y-185036461D01*
X11402380Y-185036461D02*
X11340476Y-185284080D01*
X11340476Y-185284080D02*
X11278571Y-185407890D01*
X11278571Y-185407890D02*
X11154761Y-185531700D01*
X11154761Y-185531700D02*
X10969047Y-185593604D01*
X10969047Y-185593604D02*
X10659523Y-185593604D01*
D10*
D11*
X287002200Y-60000000D02*
X285002200Y-60000000D01*
D10*
D11*
X287002200Y-110000000D02*
X285002200Y-110000000D01*
D10*
D11*
X287002200Y-160000000D02*
X285002200Y-160000000D01*
D10*
D11*
X285692676Y-35222176D02*
X286311723Y-35222176D01*
X285568866Y-35593604D02*
X286002199Y-34293604D01*
X286002199Y-34293604D02*
X286435533Y-35593604D01*
D10*
D11*
X286095057Y-84912652D02*
X286280771Y-84974557D01*
X286280771Y-84974557D02*
X286342676Y-85036461D01*
X286342676Y-85036461D02*
X286404580Y-85160271D01*
X286404580Y-85160271D02*
X286404580Y-85345985D01*
X286404580Y-85345985D02*
X286342676Y-85469795D01*
X286342676Y-85469795D02*
X286280771Y-85531700D01*
X286280771Y-85531700D02*
X286156961Y-85593604D01*
X286156961Y-85593604D02*
X285661723Y-85593604D01*
X285661723Y-85593604D02*
X285661723Y-84293604D01*
X285661723Y-84293604D02*
X286095057Y-84293604D01*
X286095057Y-84293604D02*
X286218866Y-84355509D01*
X286218866Y-84355509D02*
X286280771Y-84417414D01*
X286280771Y-84417414D02*
X286342676Y-84541223D01*
X286342676Y-84541223D02*
X286342676Y-84665033D01*
X286342676Y-84665033D02*
X286280771Y-84788842D01*
X286280771Y-84788842D02*
X286218866Y-84850747D01*
X286218866Y-84850747D02*
X286095057Y-84912652D01*
X286095057Y-84912652D02*
X285661723Y-84912652D01*
D10*
D11*
X286404580Y-135469795D02*
X286342676Y-135531700D01*
X286342676Y-135531700D02*
X286156961Y-135593604D01*
X286156961Y-135593604D02*
X286033152Y-135593604D01*
X286033152Y-135593604D02*
X285847438Y-135531700D01*
X285847438Y-135531700D02*
X285723628Y-135407890D01*
X285723628Y-135407890D02*
X285661723Y-135284080D01*
X285661723Y-135284080D02*
X285599819Y-135036461D01*
X285599819Y-135036461D02*
X285599819Y-134850747D01*
X285599819Y-134850747D02*
X285661723Y-134603128D01*
X285661723Y-134603128D02*
X285723628Y-134479319D01*
X285723628Y-134479319D02*
X285847438Y-134355509D01*
X285847438Y-134355509D02*
X286033152Y-134293604D01*
X286033152Y-134293604D02*
X286156961Y-134293604D01*
X286156961Y-134293604D02*
X286342676Y-134355509D01*
X286342676Y-134355509D02*
X286404580Y-134417414D01*
D10*
D11*
X285661723Y-185593604D02*
X285661723Y-184293604D01*
X285661723Y-184293604D02*
X285971247Y-184293604D01*
X285971247Y-184293604D02*
X286156961Y-184355509D01*
X286156961Y-184355509D02*
X286280771Y-184479319D01*
X286280771Y-184479319D02*
X286342676Y-184603128D01*
X286342676Y-184603128D02*
X286404580Y-184850747D01*
X286404580Y-184850747D02*
X286404580Y-185036461D01*
X286404580Y-185036461D02*
X286342676Y-185284080D01*
X286342676Y-185284080D02*
X286280771Y-185407890D01*
X286280771Y-185407890D02*
X286156961Y-185531700D01*
X286156961Y-185531700D02*
X285971247Y-185593604D01*
X285971247Y-185593604D02*
X285661723Y-185593604D01*
D10*
D11*
X200458026Y-193793328D02*
X200458026Y-192293328D01*
X200458026Y-192293328D02*
X200815169Y-192293328D01*
X200815169Y-192293328D02*
X201029455Y-192364757D01*
X201029455Y-192364757D02*
X201172312Y-192507614D01*
X201172312Y-192507614D02*
X201243741Y-192650471D01*
X201243741Y-192650471D02*
X201315169Y-192936185D01*
X201315169Y-192936185D02*
X201315169Y-193150471D01*
X201315169Y-193150471D02*
X201243741Y-193436185D01*
X201243741Y-193436185D02*
X201172312Y-193579042D01*
X201172312Y-193579042D02*
X201029455Y-193721900D01*
X201029455Y-193721900D02*
X200815169Y-193793328D01*
X200815169Y-193793328D02*
X200458026Y-193793328D01*
X202600884Y-193793328D02*
X202600884Y-193007614D01*
X202600884Y-193007614D02*
X202529455Y-192864757D01*
X202529455Y-192864757D02*
X202386598Y-192793328D01*
X202386598Y-192793328D02*
X202100884Y-192793328D01*
X202100884Y-192793328D02*
X201958026Y-192864757D01*
X202600884Y-193721900D02*
X202458026Y-193793328D01*
X202458026Y-193793328D02*
X202100884Y-193793328D01*
X202100884Y-193793328D02*
X201958026Y-193721900D01*
X201958026Y-193721900D02*
X201886598Y-193579042D01*
X201886598Y-193579042D02*
X201886598Y-193436185D01*
X201886598Y-193436185D02*
X201958026Y-193293328D01*
X201958026Y-193293328D02*
X202100884Y-193221900D01*
X202100884Y-193221900D02*
X202458026Y-193221900D01*
X202458026Y-193221900D02*
X202600884Y-193150471D01*
X203100884Y-192793328D02*
X203672312Y-192793328D01*
X203315169Y-192293328D02*
X203315169Y-193579042D01*
X203315169Y-193579042D02*
X203386598Y-193721900D01*
X203386598Y-193721900D02*
X203529455Y-193793328D01*
X203529455Y-193793328D02*
X203672312Y-193793328D01*
X204743741Y-193721900D02*
X204600884Y-193793328D01*
X204600884Y-193793328D02*
X204315170Y-193793328D01*
X204315170Y-193793328D02*
X204172312Y-193721900D01*
X204172312Y-193721900D02*
X204100884Y-193579042D01*
X204100884Y-193579042D02*
X204100884Y-193007614D01*
X204100884Y-193007614D02*
X204172312Y-192864757D01*
X204172312Y-192864757D02*
X204315170Y-192793328D01*
X204315170Y-192793328D02*
X204600884Y-192793328D01*
X204600884Y-192793328D02*
X204743741Y-192864757D01*
X204743741Y-192864757D02*
X204815170Y-193007614D01*
X204815170Y-193007614D02*
X204815170Y-193150471D01*
X204815170Y-193150471D02*
X204100884Y-193293328D01*
X205458026Y-193650471D02*
X205529455Y-193721900D01*
X205529455Y-193721900D02*
X205458026Y-193793328D01*
X205458026Y-193793328D02*
X205386598Y-193721900D01*
X205386598Y-193721900D02*
X205458026Y-193650471D01*
X205458026Y-193650471D02*
X205458026Y-193793328D01*
X205458026Y-192864757D02*
X205529455Y-192936185D01*
X205529455Y-192936185D02*
X205458026Y-193007614D01*
X205458026Y-193007614D02*
X205386598Y-192936185D01*
X205386598Y-192936185D02*
X205458026Y-192864757D01*
X205458026Y-192864757D02*
X205458026Y-193007614D01*
D10*
D11*
X177002200Y-194507200D02*
X285002200Y-194507200D01*
D10*
D11*
X178458026Y-196593328D02*
X178458026Y-195093328D01*
X179315169Y-196593328D02*
X178672312Y-195736185D01*
X179315169Y-195093328D02*
X178458026Y-195950471D01*
X179958026Y-196593328D02*
X179958026Y-195593328D01*
X179958026Y-195093328D02*
X179886598Y-195164757D01*
X179886598Y-195164757D02*
X179958026Y-195236185D01*
X179958026Y-195236185D02*
X180029455Y-195164757D01*
X180029455Y-195164757D02*
X179958026Y-195093328D01*
X179958026Y-195093328D02*
X179958026Y-195236185D01*
X181529455Y-196450471D02*
X181458027Y-196521900D01*
X181458027Y-196521900D02*
X181243741Y-196593328D01*
X181243741Y-196593328D02*
X181100884Y-196593328D01*
X181100884Y-196593328D02*
X180886598Y-196521900D01*
X180886598Y-196521900D02*
X180743741Y-196379042D01*
X180743741Y-196379042D02*
X180672312Y-196236185D01*
X180672312Y-196236185D02*
X180600884Y-195950471D01*
X180600884Y-195950471D02*
X180600884Y-195736185D01*
X180600884Y-195736185D02*
X180672312Y-195450471D01*
X180672312Y-195450471D02*
X180743741Y-195307614D01*
X180743741Y-195307614D02*
X180886598Y-195164757D01*
X180886598Y-195164757D02*
X181100884Y-195093328D01*
X181100884Y-195093328D02*
X181243741Y-195093328D01*
X181243741Y-195093328D02*
X181458027Y-195164757D01*
X181458027Y-195164757D02*
X181529455Y-195236185D01*
X182815170Y-196593328D02*
X182815170Y-195807614D01*
X182815170Y-195807614D02*
X182743741Y-195664757D01*
X182743741Y-195664757D02*
X182600884Y-195593328D01*
X182600884Y-195593328D02*
X182315170Y-195593328D01*
X182315170Y-195593328D02*
X182172312Y-195664757D01*
X182815170Y-196521900D02*
X182672312Y-196593328D01*
X182672312Y-196593328D02*
X182315170Y-196593328D01*
X182315170Y-196593328D02*
X182172312Y-196521900D01*
X182172312Y-196521900D02*
X182100884Y-196379042D01*
X182100884Y-196379042D02*
X182100884Y-196236185D01*
X182100884Y-196236185D02*
X182172312Y-196093328D01*
X182172312Y-196093328D02*
X182315170Y-196021900D01*
X182315170Y-196021900D02*
X182672312Y-196021900D01*
X182672312Y-196021900D02*
X182815170Y-195950471D01*
X184172313Y-196593328D02*
X184172313Y-195093328D01*
X184172313Y-196521900D02*
X184029455Y-196593328D01*
X184029455Y-196593328D02*
X183743741Y-196593328D01*
X183743741Y-196593328D02*
X183600884Y-196521900D01*
X183600884Y-196521900D02*
X183529455Y-196450471D01*
X183529455Y-196450471D02*
X183458027Y-196307614D01*
X183458027Y-196307614D02*
X183458027Y-195879042D01*
X183458027Y-195879042D02*
X183529455Y-195736185D01*
X183529455Y-195736185D02*
X183600884Y-195664757D01*
X183600884Y-195664757D02*
X183743741Y-195593328D01*
X183743741Y-195593328D02*
X184029455Y-195593328D01*
X184029455Y-195593328D02*
X184172313Y-195664757D01*
X186029455Y-195807614D02*
X186529455Y-195807614D01*
X186743741Y-196593328D02*
X186029455Y-196593328D01*
X186029455Y-196593328D02*
X186029455Y-195093328D01*
X186029455Y-195093328D02*
X186743741Y-195093328D01*
X187386598Y-196450471D02*
X187458027Y-196521900D01*
X187458027Y-196521900D02*
X187386598Y-196593328D01*
X187386598Y-196593328D02*
X187315170Y-196521900D01*
X187315170Y-196521900D02*
X187386598Y-196450471D01*
X187386598Y-196450471D02*
X187386598Y-196593328D01*
X188100884Y-196593328D02*
X188100884Y-195093328D01*
X188100884Y-195093328D02*
X188458027Y-195093328D01*
X188458027Y-195093328D02*
X188672313Y-195164757D01*
X188672313Y-195164757D02*
X188815170Y-195307614D01*
X188815170Y-195307614D02*
X188886599Y-195450471D01*
X188886599Y-195450471D02*
X188958027Y-195736185D01*
X188958027Y-195736185D02*
X188958027Y-195950471D01*
X188958027Y-195950471D02*
X188886599Y-196236185D01*
X188886599Y-196236185D02*
X188815170Y-196379042D01*
X188815170Y-196379042D02*
X188672313Y-196521900D01*
X188672313Y-196521900D02*
X188458027Y-196593328D01*
X188458027Y-196593328D02*
X188100884Y-196593328D01*
X189600884Y-196450471D02*
X189672313Y-196521900D01*
X189672313Y-196521900D02*
X189600884Y-196593328D01*
X189600884Y-196593328D02*
X189529456Y-196521900D01*
X189529456Y-196521900D02*
X189600884Y-196450471D01*
X189600884Y-196450471D02*
X189600884Y-196593328D01*
X190243742Y-196164757D02*
X190958028Y-196164757D01*
X190100885Y-196593328D02*
X190600885Y-195093328D01*
X190600885Y-195093328D02*
X191100885Y-196593328D01*
X191600884Y-196450471D02*
X191672313Y-196521900D01*
X191672313Y-196521900D02*
X191600884Y-196593328D01*
X191600884Y-196593328D02*
X191529456Y-196521900D01*
X191529456Y-196521900D02*
X191600884Y-196450471D01*
X191600884Y-196450471D02*
X191600884Y-196593328D01*
X194600884Y-196593328D02*
X194600884Y-195093328D01*
X194743742Y-196021900D02*
X195172313Y-196593328D01*
X195172313Y-195593328D02*
X194600884Y-196164757D01*
X195815170Y-196593328D02*
X195815170Y-195593328D01*
X195815170Y-195093328D02*
X195743742Y-195164757D01*
X195743742Y-195164757D02*
X195815170Y-195236185D01*
X195815170Y-195236185D02*
X195886599Y-195164757D01*
X195886599Y-195164757D02*
X195815170Y-195093328D01*
X195815170Y-195093328D02*
X195815170Y-195236185D01*
X197172314Y-196521900D02*
X197029456Y-196593328D01*
X197029456Y-196593328D02*
X196743742Y-196593328D01*
X196743742Y-196593328D02*
X196600885Y-196521900D01*
X196600885Y-196521900D02*
X196529456Y-196450471D01*
X196529456Y-196450471D02*
X196458028Y-196307614D01*
X196458028Y-196307614D02*
X196458028Y-195879042D01*
X196458028Y-195879042D02*
X196529456Y-195736185D01*
X196529456Y-195736185D02*
X196600885Y-195664757D01*
X196600885Y-195664757D02*
X196743742Y-195593328D01*
X196743742Y-195593328D02*
X197029456Y-195593328D01*
X197029456Y-195593328D02*
X197172314Y-195664757D01*
X198458028Y-196593328D02*
X198458028Y-195807614D01*
X198458028Y-195807614D02*
X198386599Y-195664757D01*
X198386599Y-195664757D02*
X198243742Y-195593328D01*
X198243742Y-195593328D02*
X197958028Y-195593328D01*
X197958028Y-195593328D02*
X197815170Y-195664757D01*
X198458028Y-196521900D02*
X198315170Y-196593328D01*
X198315170Y-196593328D02*
X197958028Y-196593328D01*
X197958028Y-196593328D02*
X197815170Y-196521900D01*
X197815170Y-196521900D02*
X197743742Y-196379042D01*
X197743742Y-196379042D02*
X197743742Y-196236185D01*
X197743742Y-196236185D02*
X197815170Y-196093328D01*
X197815170Y-196093328D02*
X197958028Y-196021900D01*
X197958028Y-196021900D02*
X198315170Y-196021900D01*
X198315170Y-196021900D02*
X198458028Y-195950471D01*
X199815171Y-196593328D02*
X199815171Y-195093328D01*
X199815171Y-196521900D02*
X199672313Y-196593328D01*
X199672313Y-196593328D02*
X199386599Y-196593328D01*
X199386599Y-196593328D02*
X199243742Y-196521900D01*
X199243742Y-196521900D02*
X199172313Y-196450471D01*
X199172313Y-196450471D02*
X199100885Y-196307614D01*
X199100885Y-196307614D02*
X199100885Y-195879042D01*
X199100885Y-195879042D02*
X199172313Y-195736185D01*
X199172313Y-195736185D02*
X199243742Y-195664757D01*
X199243742Y-195664757D02*
X199386599Y-195593328D01*
X199386599Y-195593328D02*
X199672313Y-195593328D01*
X199672313Y-195593328D02*
X199815171Y-195664757D01*
X201529456Y-195093328D02*
X202529456Y-195093328D01*
X202529456Y-195093328D02*
X201886599Y-196593328D01*
X203100884Y-196450471D02*
X203172313Y-196521900D01*
X203172313Y-196521900D02*
X203100884Y-196593328D01*
X203100884Y-196593328D02*
X203029456Y-196521900D01*
X203029456Y-196521900D02*
X203100884Y-196450471D01*
X203100884Y-196450471D02*
X203100884Y-196593328D01*
X204100885Y-195093328D02*
X204243742Y-195093328D01*
X204243742Y-195093328D02*
X204386599Y-195164757D01*
X204386599Y-195164757D02*
X204458028Y-195236185D01*
X204458028Y-195236185D02*
X204529456Y-195379042D01*
X204529456Y-195379042D02*
X204600885Y-195664757D01*
X204600885Y-195664757D02*
X204600885Y-196021900D01*
X204600885Y-196021900D02*
X204529456Y-196307614D01*
X204529456Y-196307614D02*
X204458028Y-196450471D01*
X204458028Y-196450471D02*
X204386599Y-196521900D01*
X204386599Y-196521900D02*
X204243742Y-196593328D01*
X204243742Y-196593328D02*
X204100885Y-196593328D01*
X204100885Y-196593328D02*
X203958028Y-196521900D01*
X203958028Y-196521900D02*
X203886599Y-196450471D01*
X203886599Y-196450471D02*
X203815170Y-196307614D01*
X203815170Y-196307614D02*
X203743742Y-196021900D01*
X203743742Y-196021900D02*
X203743742Y-195664757D01*
X203743742Y-195664757D02*
X203815170Y-195379042D01*
X203815170Y-195379042D02*
X203886599Y-195236185D01*
X203886599Y-195236185D02*
X203958028Y-195164757D01*
X203958028Y-195164757D02*
X204100885Y-195093328D01*
X205243741Y-196450471D02*
X205315170Y-196521900D01*
X205315170Y-196521900D02*
X205243741Y-196593328D01*
X205243741Y-196593328D02*
X205172313Y-196521900D01*
X205172313Y-196521900D02*
X205243741Y-196450471D01*
X205243741Y-196450471D02*
X205243741Y-196593328D01*
X205815170Y-195093328D02*
X206815170Y-195093328D01*
X206815170Y-195093328D02*
X206172313Y-196593328D01*
D10*
D11*
X177002200Y-191507200D02*
X285002200Y-191507200D01*
D10*
D12*
X264413853Y-193785528D02*
X263913853Y-193071242D01*
X263556710Y-193785528D02*
X263556710Y-192285528D01*
X263556710Y-192285528D02*
X264128139Y-192285528D01*
X264128139Y-192285528D02*
X264270996Y-192356957D01*
X264270996Y-192356957D02*
X264342425Y-192428385D01*
X264342425Y-192428385D02*
X264413853Y-192571242D01*
X264413853Y-192571242D02*
X264413853Y-192785528D01*
X264413853Y-192785528D02*
X264342425Y-192928385D01*
X264342425Y-192928385D02*
X264270996Y-192999814D01*
X264270996Y-192999814D02*
X264128139Y-193071242D01*
X264128139Y-193071242D02*
X263556710Y-193071242D01*
X265628139Y-193714100D02*
X265485282Y-193785528D01*
X265485282Y-193785528D02*
X265199568Y-193785528D01*
X265199568Y-193785528D02*
X265056710Y-193714100D01*
X265056710Y-193714100D02*
X264985282Y-193571242D01*
X264985282Y-193571242D02*
X264985282Y-192999814D01*
X264985282Y-192999814D02*
X265056710Y-192856957D01*
X265056710Y-192856957D02*
X265199568Y-192785528D01*
X265199568Y-192785528D02*
X265485282Y-192785528D01*
X265485282Y-192785528D02*
X265628139Y-192856957D01*
X265628139Y-192856957D02*
X265699568Y-192999814D01*
X265699568Y-192999814D02*
X265699568Y-193142671D01*
X265699568Y-193142671D02*
X264985282Y-193285528D01*
X266199567Y-192785528D02*
X266556710Y-193785528D01*
X266556710Y-193785528D02*
X266913853Y-192785528D01*
X267485281Y-193642671D02*
X267556710Y-193714100D01*
X267556710Y-193714100D02*
X267485281Y-193785528D01*
X267485281Y-193785528D02*
X267413853Y-193714100D01*
X267413853Y-193714100D02*
X267485281Y-193642671D01*
X267485281Y-193642671D02*
X267485281Y-193785528D01*
X267485281Y-192856957D02*
X267556710Y-192928385D01*
X267556710Y-192928385D02*
X267485281Y-192999814D01*
X267485281Y-192999814D02*
X267413853Y-192928385D01*
X267413853Y-192928385D02*
X267485281Y-192856957D01*
X267485281Y-192856957D02*
X267485281Y-192999814D01*
D10*
D11*
X178386598Y-193721900D02*
X178600884Y-193793328D01*
X178600884Y-193793328D02*
X178958026Y-193793328D01*
X178958026Y-193793328D02*
X179100884Y-193721900D01*
X179100884Y-193721900D02*
X179172312Y-193650471D01*
X179172312Y-193650471D02*
X179243741Y-193507614D01*
X179243741Y-193507614D02*
X179243741Y-193364757D01*
X179243741Y-193364757D02*
X179172312Y-193221900D01*
X179172312Y-193221900D02*
X179100884Y-193150471D01*
X179100884Y-193150471D02*
X178958026Y-193079042D01*
X178958026Y-193079042D02*
X178672312Y-193007614D01*
X178672312Y-193007614D02*
X178529455Y-192936185D01*
X178529455Y-192936185D02*
X178458026Y-192864757D01*
X178458026Y-192864757D02*
X178386598Y-192721900D01*
X178386598Y-192721900D02*
X178386598Y-192579042D01*
X178386598Y-192579042D02*
X178458026Y-192436185D01*
X178458026Y-192436185D02*
X178529455Y-192364757D01*
X178529455Y-192364757D02*
X178672312Y-192293328D01*
X178672312Y-192293328D02*
X179029455Y-192293328D01*
X179029455Y-192293328D02*
X179243741Y-192364757D01*
X179886597Y-193793328D02*
X179886597Y-192793328D01*
X179886597Y-192293328D02*
X179815169Y-192364757D01*
X179815169Y-192364757D02*
X179886597Y-192436185D01*
X179886597Y-192436185D02*
X179958026Y-192364757D01*
X179958026Y-192364757D02*
X179886597Y-192293328D01*
X179886597Y-192293328D02*
X179886597Y-192436185D01*
X180458026Y-192793328D02*
X181243741Y-192793328D01*
X181243741Y-192793328D02*
X180458026Y-193793328D01*
X180458026Y-193793328D02*
X181243741Y-193793328D01*
X182386598Y-193721900D02*
X182243741Y-193793328D01*
X182243741Y-193793328D02*
X181958027Y-193793328D01*
X181958027Y-193793328D02*
X181815169Y-193721900D01*
X181815169Y-193721900D02*
X181743741Y-193579042D01*
X181743741Y-193579042D02*
X181743741Y-193007614D01*
X181743741Y-193007614D02*
X181815169Y-192864757D01*
X181815169Y-192864757D02*
X181958027Y-192793328D01*
X181958027Y-192793328D02*
X182243741Y-192793328D01*
X182243741Y-192793328D02*
X182386598Y-192864757D01*
X182386598Y-192864757D02*
X182458027Y-193007614D01*
X182458027Y-193007614D02*
X182458027Y-193150471D01*
X182458027Y-193150471D02*
X181743741Y-193293328D01*
X183100883Y-193650471D02*
X183172312Y-193721900D01*
X183172312Y-193721900D02*
X183100883Y-193793328D01*
X183100883Y-193793328D02*
X183029455Y-193721900D01*
X183029455Y-193721900D02*
X183100883Y-193650471D01*
X183100883Y-193650471D02*
X183100883Y-193793328D01*
X183100883Y-192864757D02*
X183172312Y-192936185D01*
X183172312Y-192936185D02*
X183100883Y-193007614D01*
X183100883Y-193007614D02*
X183029455Y-192936185D01*
X183029455Y-192936185D02*
X183100883Y-192864757D01*
X183100883Y-192864757D02*
X183100883Y-193007614D01*
X184886598Y-193364757D02*
X185600884Y-193364757D01*
X184743741Y-193793328D02*
X185243741Y-192293328D01*
X185243741Y-192293328D02*
X185743741Y-193793328D01*
X186886598Y-192793328D02*
X186886598Y-193793328D01*
X186529455Y-192221900D02*
X186172312Y-193293328D01*
X186172312Y-193293328D02*
X187100883Y-193293328D01*
D10*
D11*
X263458026Y-196593328D02*
X263458026Y-195093328D01*
X264815170Y-196593328D02*
X264815170Y-195093328D01*
X264815170Y-196521900D02*
X264672312Y-196593328D01*
X264672312Y-196593328D02*
X264386598Y-196593328D01*
X264386598Y-196593328D02*
X264243741Y-196521900D01*
X264243741Y-196521900D02*
X264172312Y-196450471D01*
X264172312Y-196450471D02*
X264100884Y-196307614D01*
X264100884Y-196307614D02*
X264100884Y-195879042D01*
X264100884Y-195879042D02*
X264172312Y-195736185D01*
X264172312Y-195736185D02*
X264243741Y-195664757D01*
X264243741Y-195664757D02*
X264386598Y-195593328D01*
X264386598Y-195593328D02*
X264672312Y-195593328D01*
X264672312Y-195593328D02*
X264815170Y-195664757D01*
X265529455Y-196450471D02*
X265600884Y-196521900D01*
X265600884Y-196521900D02*
X265529455Y-196593328D01*
X265529455Y-196593328D02*
X265458027Y-196521900D01*
X265458027Y-196521900D02*
X265529455Y-196450471D01*
X265529455Y-196450471D02*
X265529455Y-196593328D01*
X265529455Y-195664757D02*
X265600884Y-195736185D01*
X265600884Y-195736185D02*
X265529455Y-195807614D01*
X265529455Y-195807614D02*
X265458027Y-195736185D01*
X265458027Y-195736185D02*
X265529455Y-195664757D01*
X265529455Y-195664757D02*
X265529455Y-195807614D01*
X268172313Y-196593328D02*
X267315170Y-196593328D01*
X267743741Y-196593328D02*
X267743741Y-195093328D01*
X267743741Y-195093328D02*
X267600884Y-195307614D01*
X267600884Y-195307614D02*
X267458027Y-195450471D01*
X267458027Y-195450471D02*
X267315170Y-195521900D01*
X269886598Y-195021900D02*
X268600884Y-196950471D01*
X271172313Y-196593328D02*
X270315170Y-196593328D01*
X270743741Y-196593328D02*
X270743741Y-195093328D01*
X270743741Y-195093328D02*
X270600884Y-195307614D01*
X270600884Y-195307614D02*
X270458027Y-195450471D01*
X270458027Y-195450471D02*
X270315170Y-195521900D01*
D10*
D11*
X177002200Y-187507200D02*
X285002200Y-187507200D01*
D10*
D13*
X178693928Y-188211638D02*
X179836785Y-188211638D01*
X179015357Y-190211638D02*
X179265357Y-188211638D01*
X180253452Y-190211638D02*
X180420119Y-188878304D01*
X180503452Y-188211638D02*
X180396309Y-188306876D01*
X180396309Y-188306876D02*
X180479643Y-188402114D01*
X180479643Y-188402114D02*
X180586786Y-188306876D01*
X180586786Y-188306876D02*
X180503452Y-188211638D01*
X180503452Y-188211638D02*
X180479643Y-188402114D01*
X181086786Y-188878304D02*
X181848690Y-188878304D01*
X181455833Y-188211638D02*
X181241548Y-189925923D01*
X181241548Y-189925923D02*
X181312976Y-190116400D01*
X181312976Y-190116400D02*
X181491548Y-190211638D01*
X181491548Y-190211638D02*
X181682024Y-190211638D01*
X182634405Y-190211638D02*
X182455833Y-190116400D01*
X182455833Y-190116400D02*
X182384405Y-189925923D01*
X182384405Y-189925923D02*
X182598690Y-188211638D01*
X184170119Y-190116400D02*
X183967738Y-190211638D01*
X183967738Y-190211638D02*
X183586785Y-190211638D01*
X183586785Y-190211638D02*
X183408214Y-190116400D01*
X183408214Y-190116400D02*
X183336785Y-189925923D01*
X183336785Y-189925923D02*
X183432024Y-189164019D01*
X183432024Y-189164019D02*
X183551071Y-188973542D01*
X183551071Y-188973542D02*
X183753452Y-188878304D01*
X183753452Y-188878304D02*
X184134404Y-188878304D01*
X184134404Y-188878304D02*
X184312976Y-188973542D01*
X184312976Y-188973542D02*
X184384404Y-189164019D01*
X184384404Y-189164019D02*
X184360595Y-189354495D01*
X184360595Y-189354495D02*
X183384404Y-189544971D01*
X185134405Y-190021161D02*
X185217738Y-190116400D01*
X185217738Y-190116400D02*
X185110595Y-190211638D01*
X185110595Y-190211638D02*
X185027262Y-190116400D01*
X185027262Y-190116400D02*
X185134405Y-190021161D01*
X185134405Y-190021161D02*
X185110595Y-190211638D01*
X185265357Y-188973542D02*
X185348690Y-189068780D01*
X185348690Y-189068780D02*
X185241548Y-189164019D01*
X185241548Y-189164019D02*
X185158214Y-189068780D01*
X185158214Y-189068780D02*
X185265357Y-188973542D01*
X185265357Y-188973542D02*
X185241548Y-189164019D01*
D10*
D11*
X178958026Y-185607614D02*
X178458026Y-185607614D01*
X178458026Y-186393328D02*
X178458026Y-184893328D01*
X178458026Y-184893328D02*
X179172312Y-184893328D01*
X179743740Y-186393328D02*
X179743740Y-185393328D01*
X179743740Y-184893328D02*
X179672312Y-184964757D01*
X179672312Y-184964757D02*
X179743740Y-185036185D01*
X179743740Y-185036185D02*
X179815169Y-184964757D01*
X179815169Y-184964757D02*
X179743740Y-184893328D01*
X179743740Y-184893328D02*
X179743740Y-185036185D01*
X180672312Y-186393328D02*
X180529455Y-186321900D01*
X180529455Y-186321900D02*
X180458026Y-186179042D01*
X180458026Y-186179042D02*
X180458026Y-184893328D01*
X181815169Y-186321900D02*
X181672312Y-186393328D01*
X181672312Y-186393328D02*
X181386598Y-186393328D01*
X181386598Y-186393328D02*
X181243740Y-186321900D01*
X181243740Y-186321900D02*
X181172312Y-186179042D01*
X181172312Y-186179042D02*
X181172312Y-185607614D01*
X181172312Y-185607614D02*
X181243740Y-185464757D01*
X181243740Y-185464757D02*
X181386598Y-185393328D01*
X181386598Y-185393328D02*
X181672312Y-185393328D01*
X181672312Y-185393328D02*
X181815169Y-185464757D01*
X181815169Y-185464757D02*
X181886598Y-185607614D01*
X181886598Y-185607614D02*
X181886598Y-185750471D01*
X181886598Y-185750471D02*
X181172312Y-185893328D01*
X182529454Y-186250471D02*
X182600883Y-186321900D01*
X182600883Y-186321900D02*
X182529454Y-186393328D01*
X182529454Y-186393328D02*
X182458026Y-186321900D01*
X182458026Y-186321900D02*
X182529454Y-186250471D01*
X182529454Y-186250471D02*
X182529454Y-186393328D01*
X182529454Y-185464757D02*
X182600883Y-185536185D01*
X182600883Y-185536185D02*
X182529454Y-185607614D01*
X182529454Y-185607614D02*
X182458026Y-185536185D01*
X182458026Y-185536185D02*
X182529454Y-185464757D01*
X182529454Y-185464757D02*
X182529454Y-185607614D01*
X184315169Y-186321900D02*
X184458026Y-186393328D01*
X184458026Y-186393328D02*
X184743740Y-186393328D01*
X184743740Y-186393328D02*
X184886597Y-186321900D01*
X184886597Y-186321900D02*
X184958026Y-186179042D01*
X184958026Y-186179042D02*
X184958026Y-186107614D01*
X184958026Y-186107614D02*
X184886597Y-185964757D01*
X184886597Y-185964757D02*
X184743740Y-185893328D01*
X184743740Y-185893328D02*
X184529455Y-185893328D01*
X184529455Y-185893328D02*
X184386597Y-185821900D01*
X184386597Y-185821900D02*
X184315169Y-185679042D01*
X184315169Y-185679042D02*
X184315169Y-185607614D01*
X184315169Y-185607614D02*
X184386597Y-185464757D01*
X184386597Y-185464757D02*
X184529455Y-185393328D01*
X184529455Y-185393328D02*
X184743740Y-185393328D01*
X184743740Y-185393328D02*
X184886597Y-185464757D01*
X186172312Y-186321900D02*
X186029455Y-186393328D01*
X186029455Y-186393328D02*
X185743741Y-186393328D01*
X185743741Y-186393328D02*
X185600883Y-186321900D01*
X185600883Y-186321900D02*
X185529455Y-186179042D01*
X185529455Y-186179042D02*
X185529455Y-185607614D01*
X185529455Y-185607614D02*
X185600883Y-185464757D01*
X185600883Y-185464757D02*
X185743741Y-185393328D01*
X185743741Y-185393328D02*
X186029455Y-185393328D01*
X186029455Y-185393328D02*
X186172312Y-185464757D01*
X186172312Y-185464757D02*
X186243741Y-185607614D01*
X186243741Y-185607614D02*
X186243741Y-185750471D01*
X186243741Y-185750471D02*
X185529455Y-185893328D01*
X186886597Y-186393328D02*
X186886597Y-185393328D01*
X186886597Y-185679042D02*
X186958026Y-185536185D01*
X186958026Y-185536185D02*
X187029455Y-185464757D01*
X187029455Y-185464757D02*
X187172312Y-185393328D01*
X187172312Y-185393328D02*
X187315169Y-185393328D01*
X187672311Y-185393328D02*
X188029454Y-186393328D01*
X188029454Y-186393328D02*
X188386597Y-185393328D01*
X189172311Y-186393328D02*
X189029454Y-186321900D01*
X189029454Y-186321900D02*
X188958025Y-186250471D01*
X188958025Y-186250471D02*
X188886597Y-186107614D01*
X188886597Y-186107614D02*
X188886597Y-185679042D01*
X188886597Y-185679042D02*
X188958025Y-185536185D01*
X188958025Y-185536185D02*
X189029454Y-185464757D01*
X189029454Y-185464757D02*
X189172311Y-185393328D01*
X189172311Y-185393328D02*
X189386597Y-185393328D01*
X189386597Y-185393328D02*
X189529454Y-185464757D01*
X189529454Y-185464757D02*
X189600883Y-185536185D01*
X189600883Y-185536185D02*
X189672311Y-185679042D01*
X189672311Y-185679042D02*
X189672311Y-186107614D01*
X189672311Y-186107614D02*
X189600883Y-186250471D01*
X189600883Y-186250471D02*
X189529454Y-186321900D01*
X189529454Y-186321900D02*
X189386597Y-186393328D01*
X189386597Y-186393328D02*
X189172311Y-186393328D01*
X190958026Y-186321900D02*
X190815168Y-186393328D01*
X190815168Y-186393328D02*
X190529454Y-186393328D01*
X190529454Y-186393328D02*
X190386597Y-186321900D01*
X190386597Y-186321900D02*
X190315168Y-186250471D01*
X190315168Y-186250471D02*
X190243740Y-186107614D01*
X190243740Y-186107614D02*
X190243740Y-185679042D01*
X190243740Y-185679042D02*
X190315168Y-185536185D01*
X190315168Y-185536185D02*
X190386597Y-185464757D01*
X190386597Y-185464757D02*
X190529454Y-185393328D01*
X190529454Y-185393328D02*
X190815168Y-185393328D01*
X190815168Y-185393328D02*
X190958026Y-185464757D01*
X191815168Y-186393328D02*
X191672311Y-186321900D01*
X191672311Y-186321900D02*
X191600882Y-186250471D01*
X191600882Y-186250471D02*
X191529454Y-186107614D01*
X191529454Y-186107614D02*
X191529454Y-185679042D01*
X191529454Y-185679042D02*
X191600882Y-185536185D01*
X191600882Y-185536185D02*
X191672311Y-185464757D01*
X191672311Y-185464757D02*
X191815168Y-185393328D01*
X191815168Y-185393328D02*
X192029454Y-185393328D01*
X192029454Y-185393328D02*
X192172311Y-185464757D01*
X192172311Y-185464757D02*
X192243740Y-185536185D01*
X192243740Y-185536185D02*
X192315168Y-185679042D01*
X192315168Y-185679042D02*
X192315168Y-186107614D01*
X192315168Y-186107614D02*
X192243740Y-186250471D01*
X192243740Y-186250471D02*
X192172311Y-186321900D01*
X192172311Y-186321900D02*
X192029454Y-186393328D01*
X192029454Y-186393328D02*
X191815168Y-186393328D01*
X192958025Y-185393328D02*
X192958025Y-186393328D01*
X192958025Y-185536185D02*
X193029454Y-185464757D01*
X193029454Y-185464757D02*
X193172311Y-185393328D01*
X193172311Y-185393328D02*
X193386597Y-185393328D01*
X193386597Y-185393328D02*
X193529454Y-185464757D01*
X193529454Y-185464757D02*
X193600883Y-185607614D01*
X193600883Y-185607614D02*
X193600883Y-186393328D01*
X194100883Y-185393328D02*
X194672311Y-185393328D01*
X194315168Y-184893328D02*
X194315168Y-186179042D01*
X194315168Y-186179042D02*
X194386597Y-186321900D01*
X194386597Y-186321900D02*
X194529454Y-186393328D01*
X194529454Y-186393328D02*
X194672311Y-186393328D01*
X195172311Y-186393328D02*
X195172311Y-185393328D01*
X195172311Y-185679042D02*
X195243740Y-185536185D01*
X195243740Y-185536185D02*
X195315169Y-185464757D01*
X195315169Y-185464757D02*
X195458026Y-185393328D01*
X195458026Y-185393328D02*
X195600883Y-185393328D01*
X196315168Y-186393328D02*
X196172311Y-186321900D01*
X196172311Y-186321900D02*
X196100882Y-186250471D01*
X196100882Y-186250471D02*
X196029454Y-186107614D01*
X196029454Y-186107614D02*
X196029454Y-185679042D01*
X196029454Y-185679042D02*
X196100882Y-185536185D01*
X196100882Y-185536185D02*
X196172311Y-185464757D01*
X196172311Y-185464757D02*
X196315168Y-185393328D01*
X196315168Y-185393328D02*
X196529454Y-185393328D01*
X196529454Y-185393328D02*
X196672311Y-185464757D01*
X196672311Y-185464757D02*
X196743740Y-185536185D01*
X196743740Y-185536185D02*
X196815168Y-185679042D01*
X196815168Y-185679042D02*
X196815168Y-186107614D01*
X196815168Y-186107614D02*
X196743740Y-186250471D01*
X196743740Y-186250471D02*
X196672311Y-186321900D01*
X196672311Y-186321900D02*
X196529454Y-186393328D01*
X196529454Y-186393328D02*
X196315168Y-186393328D01*
X197672311Y-186393328D02*
X197529454Y-186321900D01*
X197529454Y-186321900D02*
X197458025Y-186179042D01*
X197458025Y-186179042D02*
X197458025Y-184893328D01*
X198458025Y-186393328D02*
X198315168Y-186321900D01*
X198315168Y-186321900D02*
X198243739Y-186179042D01*
X198243739Y-186179042D02*
X198243739Y-184893328D01*
X199600882Y-186321900D02*
X199458025Y-186393328D01*
X199458025Y-186393328D02*
X199172311Y-186393328D01*
X199172311Y-186393328D02*
X199029453Y-186321900D01*
X199029453Y-186321900D02*
X198958025Y-186179042D01*
X198958025Y-186179042D02*
X198958025Y-185607614D01*
X198958025Y-185607614D02*
X199029453Y-185464757D01*
X199029453Y-185464757D02*
X199172311Y-185393328D01*
X199172311Y-185393328D02*
X199458025Y-185393328D01*
X199458025Y-185393328D02*
X199600882Y-185464757D01*
X199600882Y-185464757D02*
X199672311Y-185607614D01*
X199672311Y-185607614D02*
X199672311Y-185750471D01*
X199672311Y-185750471D02*
X198958025Y-185893328D01*
X200315167Y-186393328D02*
X200315167Y-185393328D01*
X200315167Y-185679042D02*
X200386596Y-185536185D01*
X200386596Y-185536185D02*
X200458025Y-185464757D01*
X200458025Y-185464757D02*
X200600882Y-185393328D01*
X200600882Y-185393328D02*
X200743739Y-185393328D01*
X201243738Y-185393328D02*
X201243738Y-186893328D01*
X201243738Y-185464757D02*
X201386596Y-185393328D01*
X201386596Y-185393328D02*
X201672310Y-185393328D01*
X201672310Y-185393328D02*
X201815167Y-185464757D01*
X201815167Y-185464757D02*
X201886596Y-185536185D01*
X201886596Y-185536185D02*
X201958024Y-185679042D01*
X201958024Y-185679042D02*
X201958024Y-186107614D01*
X201958024Y-186107614D02*
X201886596Y-186250471D01*
X201886596Y-186250471D02*
X201815167Y-186321900D01*
X201815167Y-186321900D02*
X201672310Y-186393328D01*
X201672310Y-186393328D02*
X201386596Y-186393328D01*
X201386596Y-186393328D02*
X201243738Y-186321900D01*
X202600881Y-186393328D02*
X202600881Y-185393328D01*
X202600881Y-185679042D02*
X202672310Y-185536185D01*
X202672310Y-185536185D02*
X202743739Y-185464757D01*
X202743739Y-185464757D02*
X202886596Y-185393328D01*
X202886596Y-185393328D02*
X203029453Y-185393328D01*
X203743738Y-186393328D02*
X203600881Y-186321900D01*
X203600881Y-186321900D02*
X203529452Y-186250471D01*
X203529452Y-186250471D02*
X203458024Y-186107614D01*
X203458024Y-186107614D02*
X203458024Y-185679042D01*
X203458024Y-185679042D02*
X203529452Y-185536185D01*
X203529452Y-185536185D02*
X203600881Y-185464757D01*
X203600881Y-185464757D02*
X203743738Y-185393328D01*
X203743738Y-185393328D02*
X203958024Y-185393328D01*
X203958024Y-185393328D02*
X204100881Y-185464757D01*
X204100881Y-185464757D02*
X204172310Y-185536185D01*
X204172310Y-185536185D02*
X204243738Y-185679042D01*
X204243738Y-185679042D02*
X204243738Y-186107614D01*
X204243738Y-186107614D02*
X204172310Y-186250471D01*
X204172310Y-186250471D02*
X204100881Y-186321900D01*
X204100881Y-186321900D02*
X203958024Y-186393328D01*
X203958024Y-186393328D02*
X203743738Y-186393328D01*
X204886595Y-185393328D02*
X204886595Y-186679042D01*
X204886595Y-186679042D02*
X204815167Y-186821900D01*
X204815167Y-186821900D02*
X204672310Y-186893328D01*
X204672310Y-186893328D02*
X204600881Y-186893328D01*
X204886595Y-184893328D02*
X204815167Y-184964757D01*
X204815167Y-184964757D02*
X204886595Y-185036185D01*
X204886595Y-185036185D02*
X204958024Y-184964757D01*
X204958024Y-184964757D02*
X204886595Y-184893328D01*
X204886595Y-184893328D02*
X204886595Y-185036185D01*
X206172310Y-186321900D02*
X206029453Y-186393328D01*
X206029453Y-186393328D02*
X205743739Y-186393328D01*
X205743739Y-186393328D02*
X205600881Y-186321900D01*
X205600881Y-186321900D02*
X205529453Y-186179042D01*
X205529453Y-186179042D02*
X205529453Y-185607614D01*
X205529453Y-185607614D02*
X205600881Y-185464757D01*
X205600881Y-185464757D02*
X205743739Y-185393328D01*
X205743739Y-185393328D02*
X206029453Y-185393328D01*
X206029453Y-185393328D02*
X206172310Y-185464757D01*
X206172310Y-185464757D02*
X206243739Y-185607614D01*
X206243739Y-185607614D02*
X206243739Y-185750471D01*
X206243739Y-185750471D02*
X205529453Y-185893328D01*
X207529453Y-186321900D02*
X207386595Y-186393328D01*
X207386595Y-186393328D02*
X207100881Y-186393328D01*
X207100881Y-186393328D02*
X206958024Y-186321900D01*
X206958024Y-186321900D02*
X206886595Y-186250471D01*
X206886595Y-186250471D02*
X206815167Y-186107614D01*
X206815167Y-186107614D02*
X206815167Y-185679042D01*
X206815167Y-185679042D02*
X206886595Y-185536185D01*
X206886595Y-185536185D02*
X206958024Y-185464757D01*
X206958024Y-185464757D02*
X207100881Y-185393328D01*
X207100881Y-185393328D02*
X207386595Y-185393328D01*
X207386595Y-185393328D02*
X207529453Y-185464757D01*
X207958024Y-185393328D02*
X208529452Y-185393328D01*
X208172309Y-184893328D02*
X208172309Y-186179042D01*
X208172309Y-186179042D02*
X208243738Y-186321900D01*
X208243738Y-186321900D02*
X208386595Y-186393328D01*
X208386595Y-186393328D02*
X208529452Y-186393328D01*
X209029452Y-186250471D02*
X209100881Y-186321900D01*
X209100881Y-186321900D02*
X209029452Y-186393328D01*
X209029452Y-186393328D02*
X208958024Y-186321900D01*
X208958024Y-186321900D02*
X209029452Y-186250471D01*
X209029452Y-186250471D02*
X209029452Y-186393328D01*
X209743738Y-186393328D02*
X209743738Y-184893328D01*
X209886596Y-185821900D02*
X210315167Y-186393328D01*
X210315167Y-185393328D02*
X209743738Y-185964757D01*
X210958024Y-186393328D02*
X210958024Y-185393328D01*
X210958024Y-184893328D02*
X210886596Y-184964757D01*
X210886596Y-184964757D02*
X210958024Y-185036185D01*
X210958024Y-185036185D02*
X211029453Y-184964757D01*
X211029453Y-184964757D02*
X210958024Y-184893328D01*
X210958024Y-184893328D02*
X210958024Y-185036185D01*
X212315168Y-186321900D02*
X212172310Y-186393328D01*
X212172310Y-186393328D02*
X211886596Y-186393328D01*
X211886596Y-186393328D02*
X211743739Y-186321900D01*
X211743739Y-186321900D02*
X211672310Y-186250471D01*
X211672310Y-186250471D02*
X211600882Y-186107614D01*
X211600882Y-186107614D02*
X211600882Y-185679042D01*
X211600882Y-185679042D02*
X211672310Y-185536185D01*
X211672310Y-185536185D02*
X211743739Y-185464757D01*
X211743739Y-185464757D02*
X211886596Y-185393328D01*
X211886596Y-185393328D02*
X212172310Y-185393328D01*
X212172310Y-185393328D02*
X212315168Y-185464757D01*
X213600882Y-186393328D02*
X213600882Y-185607614D01*
X213600882Y-185607614D02*
X213529453Y-185464757D01*
X213529453Y-185464757D02*
X213386596Y-185393328D01*
X213386596Y-185393328D02*
X213100882Y-185393328D01*
X213100882Y-185393328D02*
X212958024Y-185464757D01*
X213600882Y-186321900D02*
X213458024Y-186393328D01*
X213458024Y-186393328D02*
X213100882Y-186393328D01*
X213100882Y-186393328D02*
X212958024Y-186321900D01*
X212958024Y-186321900D02*
X212886596Y-186179042D01*
X212886596Y-186179042D02*
X212886596Y-186036185D01*
X212886596Y-186036185D02*
X212958024Y-185893328D01*
X212958024Y-185893328D02*
X213100882Y-185821900D01*
X213100882Y-185821900D02*
X213458024Y-185821900D01*
X213458024Y-185821900D02*
X213600882Y-185750471D01*
X214958025Y-186393328D02*
X214958025Y-184893328D01*
X214958025Y-186321900D02*
X214815167Y-186393328D01*
X214815167Y-186393328D02*
X214529453Y-186393328D01*
X214529453Y-186393328D02*
X214386596Y-186321900D01*
X214386596Y-186321900D02*
X214315167Y-186250471D01*
X214315167Y-186250471D02*
X214243739Y-186107614D01*
X214243739Y-186107614D02*
X214243739Y-185679042D01*
X214243739Y-185679042D02*
X214315167Y-185536185D01*
X214315167Y-185536185D02*
X214386596Y-185464757D01*
X214386596Y-185464757D02*
X214529453Y-185393328D01*
X214529453Y-185393328D02*
X214815167Y-185393328D01*
X214815167Y-185393328D02*
X214958025Y-185464757D01*
X215315168Y-186536185D02*
X216458025Y-186536185D01*
X216815167Y-185393328D02*
X216815167Y-186893328D01*
X216815167Y-185464757D02*
X216958025Y-185393328D01*
X216958025Y-185393328D02*
X217243739Y-185393328D01*
X217243739Y-185393328D02*
X217386596Y-185464757D01*
X217386596Y-185464757D02*
X217458025Y-185536185D01*
X217458025Y-185536185D02*
X217529453Y-185679042D01*
X217529453Y-185679042D02*
X217529453Y-186107614D01*
X217529453Y-186107614D02*
X217458025Y-186250471D01*
X217458025Y-186250471D02*
X217386596Y-186321900D01*
X217386596Y-186321900D02*
X217243739Y-186393328D01*
X217243739Y-186393328D02*
X216958025Y-186393328D01*
X216958025Y-186393328D02*
X216815167Y-186321900D01*
X218815168Y-186321900D02*
X218672310Y-186393328D01*
X218672310Y-186393328D02*
X218386596Y-186393328D01*
X218386596Y-186393328D02*
X218243739Y-186321900D01*
X218243739Y-186321900D02*
X218172310Y-186250471D01*
X218172310Y-186250471D02*
X218100882Y-186107614D01*
X218100882Y-186107614D02*
X218100882Y-185679042D01*
X218100882Y-185679042D02*
X218172310Y-185536185D01*
X218172310Y-185536185D02*
X218243739Y-185464757D01*
X218243739Y-185464757D02*
X218386596Y-185393328D01*
X218386596Y-185393328D02*
X218672310Y-185393328D01*
X218672310Y-185393328D02*
X218815168Y-185464757D01*
X219458024Y-186393328D02*
X219458024Y-184893328D01*
X219458024Y-185464757D02*
X219600882Y-185393328D01*
X219600882Y-185393328D02*
X219886596Y-185393328D01*
X219886596Y-185393328D02*
X220029453Y-185464757D01*
X220029453Y-185464757D02*
X220100882Y-185536185D01*
X220100882Y-185536185D02*
X220172310Y-185679042D01*
X220172310Y-185679042D02*
X220172310Y-186107614D01*
X220172310Y-186107614D02*
X220100882Y-186250471D01*
X220100882Y-186250471D02*
X220029453Y-186321900D01*
X220029453Y-186321900D02*
X219886596Y-186393328D01*
X219886596Y-186393328D02*
X219600882Y-186393328D01*
X219600882Y-186393328D02*
X219458024Y-186321900D01*
D10*
D11*
X177002200Y-181507200D02*
X285002200Y-181507200D01*
D10*
D11*
X178386598Y-183621900D02*
X178600884Y-183693328D01*
X178600884Y-183693328D02*
X178958026Y-183693328D01*
X178958026Y-183693328D02*
X179100884Y-183621900D01*
X179100884Y-183621900D02*
X179172312Y-183550471D01*
X179172312Y-183550471D02*
X179243741Y-183407614D01*
X179243741Y-183407614D02*
X179243741Y-183264757D01*
X179243741Y-183264757D02*
X179172312Y-183121900D01*
X179172312Y-183121900D02*
X179100884Y-183050471D01*
X179100884Y-183050471D02*
X178958026Y-182979042D01*
X178958026Y-182979042D02*
X178672312Y-182907614D01*
X178672312Y-182907614D02*
X178529455Y-182836185D01*
X178529455Y-182836185D02*
X178458026Y-182764757D01*
X178458026Y-182764757D02*
X178386598Y-182621900D01*
X178386598Y-182621900D02*
X178386598Y-182479042D01*
X178386598Y-182479042D02*
X178458026Y-182336185D01*
X178458026Y-182336185D02*
X178529455Y-182264757D01*
X178529455Y-182264757D02*
X178672312Y-182193328D01*
X178672312Y-182193328D02*
X179029455Y-182193328D01*
X179029455Y-182193328D02*
X179243741Y-182264757D01*
X179886597Y-183693328D02*
X179886597Y-182193328D01*
X180529455Y-183693328D02*
X180529455Y-182907614D01*
X180529455Y-182907614D02*
X180458026Y-182764757D01*
X180458026Y-182764757D02*
X180315169Y-182693328D01*
X180315169Y-182693328D02*
X180100883Y-182693328D01*
X180100883Y-182693328D02*
X179958026Y-182764757D01*
X179958026Y-182764757D02*
X179886597Y-182836185D01*
X181815169Y-183621900D02*
X181672312Y-183693328D01*
X181672312Y-183693328D02*
X181386598Y-183693328D01*
X181386598Y-183693328D02*
X181243740Y-183621900D01*
X181243740Y-183621900D02*
X181172312Y-183479042D01*
X181172312Y-183479042D02*
X181172312Y-182907614D01*
X181172312Y-182907614D02*
X181243740Y-182764757D01*
X181243740Y-182764757D02*
X181386598Y-182693328D01*
X181386598Y-182693328D02*
X181672312Y-182693328D01*
X181672312Y-182693328D02*
X181815169Y-182764757D01*
X181815169Y-182764757D02*
X181886598Y-182907614D01*
X181886598Y-182907614D02*
X181886598Y-183050471D01*
X181886598Y-183050471D02*
X181172312Y-183193328D01*
X183100883Y-183621900D02*
X182958026Y-183693328D01*
X182958026Y-183693328D02*
X182672312Y-183693328D01*
X182672312Y-183693328D02*
X182529454Y-183621900D01*
X182529454Y-183621900D02*
X182458026Y-183479042D01*
X182458026Y-183479042D02*
X182458026Y-182907614D01*
X182458026Y-182907614D02*
X182529454Y-182764757D01*
X182529454Y-182764757D02*
X182672312Y-182693328D01*
X182672312Y-182693328D02*
X182958026Y-182693328D01*
X182958026Y-182693328D02*
X183100883Y-182764757D01*
X183100883Y-182764757D02*
X183172312Y-182907614D01*
X183172312Y-182907614D02*
X183172312Y-183050471D01*
X183172312Y-183050471D02*
X182458026Y-183193328D01*
X183600883Y-182693328D02*
X184172311Y-182693328D01*
X183815168Y-182193328D02*
X183815168Y-183479042D01*
X183815168Y-183479042D02*
X183886597Y-183621900D01*
X183886597Y-183621900D02*
X184029454Y-183693328D01*
X184029454Y-183693328D02*
X184172311Y-183693328D01*
X184672311Y-183550471D02*
X184743740Y-183621900D01*
X184743740Y-183621900D02*
X184672311Y-183693328D01*
X184672311Y-183693328D02*
X184600883Y-183621900D01*
X184600883Y-183621900D02*
X184672311Y-183550471D01*
X184672311Y-183550471D02*
X184672311Y-183693328D01*
X184672311Y-182764757D02*
X184743740Y-182836185D01*
X184743740Y-182836185D02*
X184672311Y-182907614D01*
X184672311Y-182907614D02*
X184600883Y-182836185D01*
X184600883Y-182836185D02*
X184672311Y-182764757D01*
X184672311Y-182764757D02*
X184672311Y-182907614D01*
D10*
D12*
D10*
D11*
D10*
D11*
D10*
D11*
D10*
D11*
D10*
D11*
X197002200Y-191507200D02*
X197002200Y-194507200D01*
D10*
D11*
X261002200Y-191507200D02*
X261002200Y-198007200D01*
D14*
X144602568Y-62174500D02*
X144781139Y-62234023D01*
X144781139Y-62234023D02*
X145078758Y-62234023D01*
X145078758Y-62234023D02*
X145197806Y-62174500D01*
X145197806Y-62174500D02*
X145257330Y-62114976D01*
X145257330Y-62114976D02*
X145316853Y-61995928D01*
X145316853Y-61995928D02*
X145316853Y-61876880D01*
X145316853Y-61876880D02*
X145257330Y-61757833D01*
X145257330Y-61757833D02*
X145197806Y-61698309D01*
X145197806Y-61698309D02*
X145078758Y-61638785D01*
X145078758Y-61638785D02*
X144840663Y-61579261D01*
X144840663Y-61579261D02*
X144721615Y-61519738D01*
X144721615Y-61519738D02*
X144662092Y-61460214D01*
X144662092Y-61460214D02*
X144602568Y-61341166D01*
X144602568Y-61341166D02*
X144602568Y-61222119D01*
X144602568Y-61222119D02*
X144662092Y-61103071D01*
X144662092Y-61103071D02*
X144721615Y-61043547D01*
X144721615Y-61043547D02*
X144840663Y-60984023D01*
X144840663Y-60984023D02*
X145138282Y-60984023D01*
X145138282Y-60984023D02*
X145316853Y-61043547D01*
X146328758Y-62174500D02*
X146209710Y-62234023D01*
X146209710Y-62234023D02*
X145971615Y-62234023D01*
X145971615Y-62234023D02*
X145852568Y-62174500D01*
X145852568Y-62174500D02*
X145793044Y-62055452D01*
X145793044Y-62055452D02*
X145793044Y-61579261D01*
X145793044Y-61579261D02*
X145852568Y-61460214D01*
X145852568Y-61460214D02*
X145971615Y-61400690D01*
X145971615Y-61400690D02*
X146209710Y-61400690D01*
X146209710Y-61400690D02*
X146328758Y-61460214D01*
X146328758Y-61460214D02*
X146388282Y-61579261D01*
X146388282Y-61579261D02*
X146388282Y-61698309D01*
X146388282Y-61698309D02*
X145793044Y-61817357D01*
X146923997Y-62234023D02*
X146923997Y-61400690D01*
X146923997Y-61638785D02*
X146983520Y-61519738D01*
X146983520Y-61519738D02*
X147043044Y-61460214D01*
X147043044Y-61460214D02*
X147162092Y-61400690D01*
X147162092Y-61400690D02*
X147281139Y-61400690D01*
X147578759Y-61400690D02*
X147876378Y-62234023D01*
X147876378Y-62234023D02*
X148173997Y-61400690D01*
X148828759Y-62234023D02*
X148709711Y-62174500D01*
X148709711Y-62174500D02*
X148650188Y-62114976D01*
X148650188Y-62114976D02*
X148590664Y-61995928D01*
X148590664Y-61995928D02*
X148590664Y-61638785D01*
X148590664Y-61638785D02*
X148650188Y-61519738D01*
X148650188Y-61519738D02*
X148709711Y-61460214D01*
X148709711Y-61460214D02*
X148828759Y-61400690D01*
X148828759Y-61400690D02*
X149007330Y-61400690D01*
X149007330Y-61400690D02*
X149126378Y-61460214D01*
X149126378Y-61460214D02*
X149185902Y-61519738D01*
X149185902Y-61519738D02*
X149245426Y-61638785D01*
X149245426Y-61638785D02*
X149245426Y-61995928D01*
X149245426Y-61995928D02*
X149185902Y-62114976D01*
X149185902Y-62114976D02*
X149126378Y-62174500D01*
X149126378Y-62174500D02*
X149007330Y-62234023D01*
X149007330Y-62234023D02*
X148828759Y-62234023D01*
X151447806Y-62114976D02*
X151388282Y-62174500D01*
X151388282Y-62174500D02*
X151209711Y-62234023D01*
X151209711Y-62234023D02*
X151090663Y-62234023D01*
X151090663Y-62234023D02*
X150912092Y-62174500D01*
X150912092Y-62174500D02*
X150793044Y-62055452D01*
X150793044Y-62055452D02*
X150733521Y-61936404D01*
X150733521Y-61936404D02*
X150673997Y-61698309D01*
X150673997Y-61698309D02*
X150673997Y-61519738D01*
X150673997Y-61519738D02*
X150733521Y-61281642D01*
X150733521Y-61281642D02*
X150793044Y-61162595D01*
X150793044Y-61162595D02*
X150912092Y-61043547D01*
X150912092Y-61043547D02*
X151090663Y-60984023D01*
X151090663Y-60984023D02*
X151209711Y-60984023D01*
X151209711Y-60984023D02*
X151388282Y-61043547D01*
X151388282Y-61043547D02*
X151447806Y-61103071D01*
X152162092Y-62234023D02*
X152043044Y-62174500D01*
X152043044Y-62174500D02*
X151983521Y-62114976D01*
X151983521Y-62114976D02*
X151923997Y-61995928D01*
X151923997Y-61995928D02*
X151923997Y-61638785D01*
X151923997Y-61638785D02*
X151983521Y-61519738D01*
X151983521Y-61519738D02*
X152043044Y-61460214D01*
X152043044Y-61460214D02*
X152162092Y-61400690D01*
X152162092Y-61400690D02*
X152340663Y-61400690D01*
X152340663Y-61400690D02*
X152459711Y-61460214D01*
X152459711Y-61460214D02*
X152519235Y-61519738D01*
X152519235Y-61519738D02*
X152578759Y-61638785D01*
X152578759Y-61638785D02*
X152578759Y-61995928D01*
X152578759Y-61995928D02*
X152519235Y-62114976D01*
X152519235Y-62114976D02*
X152459711Y-62174500D01*
X152459711Y-62174500D02*
X152340663Y-62234023D01*
X152340663Y-62234023D02*
X152162092Y-62234023D01*
X153114473Y-61400690D02*
X153114473Y-62234023D01*
X153114473Y-61519738D02*
X153173996Y-61460214D01*
X153173996Y-61460214D02*
X153293044Y-61400690D01*
X153293044Y-61400690D02*
X153471615Y-61400690D01*
X153471615Y-61400690D02*
X153590663Y-61460214D01*
X153590663Y-61460214D02*
X153650187Y-61579261D01*
X153650187Y-61579261D02*
X153650187Y-62234023D01*
X154066853Y-61400690D02*
X154543044Y-61400690D01*
X154245425Y-60984023D02*
X154245425Y-62055452D01*
X154245425Y-62055452D02*
X154304948Y-62174500D01*
X154304948Y-62174500D02*
X154423996Y-62234023D01*
X154423996Y-62234023D02*
X154543044Y-62234023D01*
X154959711Y-62234023D02*
X154959711Y-61400690D01*
X154959711Y-61638785D02*
X155019234Y-61519738D01*
X155019234Y-61519738D02*
X155078758Y-61460214D01*
X155078758Y-61460214D02*
X155197806Y-61400690D01*
X155197806Y-61400690D02*
X155316853Y-61400690D01*
X155912092Y-62234023D02*
X155793044Y-62174500D01*
X155793044Y-62174500D02*
X155733521Y-62114976D01*
X155733521Y-62114976D02*
X155673997Y-61995928D01*
X155673997Y-61995928D02*
X155673997Y-61638785D01*
X155673997Y-61638785D02*
X155733521Y-61519738D01*
X155733521Y-61519738D02*
X155793044Y-61460214D01*
X155793044Y-61460214D02*
X155912092Y-61400690D01*
X155912092Y-61400690D02*
X156090663Y-61400690D01*
X156090663Y-61400690D02*
X156209711Y-61460214D01*
X156209711Y-61460214D02*
X156269235Y-61519738D01*
X156269235Y-61519738D02*
X156328759Y-61638785D01*
X156328759Y-61638785D02*
X156328759Y-61995928D01*
X156328759Y-61995928D02*
X156269235Y-62114976D01*
X156269235Y-62114976D02*
X156209711Y-62174500D01*
X156209711Y-62174500D02*
X156090663Y-62234023D01*
X156090663Y-62234023D02*
X155912092Y-62234023D01*
X157043044Y-62234023D02*
X156923996Y-62174500D01*
X156923996Y-62174500D02*
X156864473Y-62055452D01*
X156864473Y-62055452D02*
X156864473Y-60984023D01*
X157697806Y-62234023D02*
X157578758Y-62174500D01*
X157578758Y-62174500D02*
X157519235Y-62055452D01*
X157519235Y-62055452D02*
X157519235Y-60984023D01*
X158650187Y-62174500D02*
X158531139Y-62234023D01*
X158531139Y-62234023D02*
X158293044Y-62234023D01*
X158293044Y-62234023D02*
X158173997Y-62174500D01*
X158173997Y-62174500D02*
X158114473Y-62055452D01*
X158114473Y-62055452D02*
X158114473Y-61579261D01*
X158114473Y-61579261D02*
X158173997Y-61460214D01*
X158173997Y-61460214D02*
X158293044Y-61400690D01*
X158293044Y-61400690D02*
X158531139Y-61400690D01*
X158531139Y-61400690D02*
X158650187Y-61460214D01*
X158650187Y-61460214D02*
X158709711Y-61579261D01*
X158709711Y-61579261D02*
X158709711Y-61698309D01*
X158709711Y-61698309D02*
X158114473Y-61817357D01*
X159245426Y-62234023D02*
X159245426Y-61400690D01*
X159245426Y-61638785D02*
X159304949Y-61519738D01*
X159304949Y-61519738D02*
X159364473Y-61460214D01*
X159364473Y-61460214D02*
X159483521Y-61400690D01*
X159483521Y-61400690D02*
X159602568Y-61400690D01*
D15*
X167831327Y-61457760D02*
X167945613Y-61495855D01*
X167945613Y-61495855D02*
X168136089Y-61495855D01*
X168136089Y-61495855D02*
X168212280Y-61457760D01*
X168212280Y-61457760D02*
X168250375Y-61419664D01*
X168250375Y-61419664D02*
X168288470Y-61343474D01*
X168288470Y-61343474D02*
X168288470Y-61267283D01*
X168288470Y-61267283D02*
X168250375Y-61191093D01*
X168250375Y-61191093D02*
X168212280Y-61152998D01*
X168212280Y-61152998D02*
X168136089Y-61114902D01*
X168136089Y-61114902D02*
X167983708Y-61076807D01*
X167983708Y-61076807D02*
X167907518Y-61038712D01*
X167907518Y-61038712D02*
X167869423Y-61000617D01*
X167869423Y-61000617D02*
X167831327Y-60924426D01*
X167831327Y-60924426D02*
X167831327Y-60848236D01*
X167831327Y-60848236D02*
X167869423Y-60772045D01*
X167869423Y-60772045D02*
X167907518Y-60733950D01*
X167907518Y-60733950D02*
X167983708Y-60695855D01*
X167983708Y-60695855D02*
X168174185Y-60695855D01*
X168174185Y-60695855D02*
X168288470Y-60733950D01*
X168631328Y-61495855D02*
X168631328Y-60695855D01*
X169431327Y-60733950D02*
X169355137Y-60695855D01*
X169355137Y-60695855D02*
X169240851Y-60695855D01*
X169240851Y-60695855D02*
X169126565Y-60733950D01*
X169126565Y-60733950D02*
X169050375Y-60810140D01*
X169050375Y-60810140D02*
X169012280Y-60886331D01*
X169012280Y-60886331D02*
X168974184Y-61038712D01*
X168974184Y-61038712D02*
X168974184Y-61152998D01*
X168974184Y-61152998D02*
X169012280Y-61305379D01*
X169012280Y-61305379D02*
X169050375Y-61381569D01*
X169050375Y-61381569D02*
X169126565Y-61457760D01*
X169126565Y-61457760D02*
X169240851Y-61495855D01*
X169240851Y-61495855D02*
X169317042Y-61495855D01*
X169317042Y-61495855D02*
X169431327Y-61457760D01*
X169431327Y-61457760D02*
X169469423Y-61419664D01*
X169469423Y-61419664D02*
X169469423Y-61152998D01*
X169469423Y-61152998D02*
X169317042Y-61152998D01*
X170307518Y-60695855D02*
X170574185Y-61495855D01*
X170574185Y-61495855D02*
X170840851Y-60695855D01*
X171564661Y-61419664D02*
X171526565Y-61457760D01*
X171526565Y-61457760D02*
X171412280Y-61495855D01*
X171412280Y-61495855D02*
X171336089Y-61495855D01*
X171336089Y-61495855D02*
X171221803Y-61457760D01*
X171221803Y-61457760D02*
X171145613Y-61381569D01*
X171145613Y-61381569D02*
X171107518Y-61305379D01*
X171107518Y-61305379D02*
X171069422Y-61152998D01*
X171069422Y-61152998D02*
X171069422Y-61038712D01*
X171069422Y-61038712D02*
X171107518Y-60886331D01*
X171107518Y-60886331D02*
X171145613Y-60810140D01*
X171145613Y-60810140D02*
X171221803Y-60733950D01*
X171221803Y-60733950D02*
X171336089Y-60695855D01*
X171336089Y-60695855D02*
X171412280Y-60695855D01*
X171412280Y-60695855D02*
X171526565Y-60733950D01*
X171526565Y-60733950D02*
X171564661Y-60772045D01*
X172364661Y-61419664D02*
X172326565Y-61457760D01*
X172326565Y-61457760D02*
X172212280Y-61495855D01*
X172212280Y-61495855D02*
X172136089Y-61495855D01*
X172136089Y-61495855D02*
X172021803Y-61457760D01*
X172021803Y-61457760D02*
X171945613Y-61381569D01*
X171945613Y-61381569D02*
X171907518Y-61305379D01*
X171907518Y-61305379D02*
X171869422Y-61152998D01*
X171869422Y-61152998D02*
X171869422Y-61038712D01*
X171869422Y-61038712D02*
X171907518Y-60886331D01*
X171907518Y-60886331D02*
X171945613Y-60810140D01*
X171945613Y-60810140D02*
X172021803Y-60733950D01*
X172021803Y-60733950D02*
X172136089Y-60695855D01*
X172136089Y-60695855D02*
X172212280Y-60695855D01*
X172212280Y-60695855D02*
X172326565Y-60733950D01*
X172326565Y-60733950D02*
X172364661Y-60772045D01*
X173736089Y-60733950D02*
X173659899Y-60695855D01*
X173659899Y-60695855D02*
X173545613Y-60695855D01*
X173545613Y-60695855D02*
X173431327Y-60733950D01*
X173431327Y-60733950D02*
X173355137Y-60810140D01*
X173355137Y-60810140D02*
X173317042Y-60886331D01*
X173317042Y-60886331D02*
X173278946Y-61038712D01*
X173278946Y-61038712D02*
X173278946Y-61152998D01*
X173278946Y-61152998D02*
X173317042Y-61305379D01*
X173317042Y-61305379D02*
X173355137Y-61381569D01*
X173355137Y-61381569D02*
X173431327Y-61457760D01*
X173431327Y-61457760D02*
X173545613Y-61495855D01*
X173545613Y-61495855D02*
X173621804Y-61495855D01*
X173621804Y-61495855D02*
X173736089Y-61457760D01*
X173736089Y-61457760D02*
X173774185Y-61419664D01*
X173774185Y-61419664D02*
X173774185Y-61152998D01*
X173774185Y-61152998D02*
X173621804Y-61152998D01*
X174117042Y-61495855D02*
X174117042Y-60695855D01*
X174117042Y-60695855D02*
X174574185Y-61495855D01*
X174574185Y-61495855D02*
X174574185Y-60695855D01*
X174955137Y-61495855D02*
X174955137Y-60695855D01*
X174955137Y-60695855D02*
X175145613Y-60695855D01*
X175145613Y-60695855D02*
X175259899Y-60733950D01*
X175259899Y-60733950D02*
X175336089Y-60810140D01*
X175336089Y-60810140D02*
X175374184Y-60886331D01*
X175374184Y-60886331D02*
X175412280Y-61038712D01*
X175412280Y-61038712D02*
X175412280Y-61152998D01*
X175412280Y-61152998D02*
X175374184Y-61305379D01*
X175374184Y-61305379D02*
X175336089Y-61381569D01*
X175336089Y-61381569D02*
X175259899Y-61457760D01*
X175259899Y-61457760D02*
X175145613Y-61495855D01*
X175145613Y-61495855D02*
X174955137Y-61495855D01*
D16*
X166625240Y-66128667D02*
X166663335Y-66014381D01*
X166663335Y-66014381D02*
X166663335Y-65823905D01*
X166663335Y-65823905D02*
X166625240Y-65747714D01*
X166625240Y-65747714D02*
X166587144Y-65709619D01*
X166587144Y-65709619D02*
X166510954Y-65671524D01*
X166510954Y-65671524D02*
X166434763Y-65671524D01*
X166434763Y-65671524D02*
X166358573Y-65709619D01*
X166358573Y-65709619D02*
X166320478Y-65747714D01*
X166320478Y-65747714D02*
X166282382Y-65823905D01*
X166282382Y-65823905D02*
X166244287Y-65976286D01*
X166244287Y-65976286D02*
X166206192Y-66052476D01*
X166206192Y-66052476D02*
X166168097Y-66090571D01*
X166168097Y-66090571D02*
X166091906Y-66128667D01*
X166091906Y-66128667D02*
X166015716Y-66128667D01*
X166015716Y-66128667D02*
X165939525Y-66090571D01*
X165939525Y-66090571D02*
X165901430Y-66052476D01*
X165901430Y-66052476D02*
X165863335Y-65976286D01*
X165863335Y-65976286D02*
X165863335Y-65785809D01*
X165863335Y-65785809D02*
X165901430Y-65671524D01*
X166625240Y-65023904D02*
X166663335Y-65100095D01*
X166663335Y-65100095D02*
X166663335Y-65252476D01*
X166663335Y-65252476D02*
X166625240Y-65328666D01*
X166625240Y-65328666D02*
X166549049Y-65366762D01*
X166549049Y-65366762D02*
X166244287Y-65366762D01*
X166244287Y-65366762D02*
X166168097Y-65328666D01*
X166168097Y-65328666D02*
X166130001Y-65252476D01*
X166130001Y-65252476D02*
X166130001Y-65100095D01*
X166130001Y-65100095D02*
X166168097Y-65023904D01*
X166168097Y-65023904D02*
X166244287Y-64985809D01*
X166244287Y-64985809D02*
X166320478Y-64985809D01*
X166320478Y-64985809D02*
X166396668Y-65366762D01*
X166663335Y-64642952D02*
X166130001Y-64642952D01*
X166282382Y-64642952D02*
X166206192Y-64604857D01*
X166206192Y-64604857D02*
X166168097Y-64566762D01*
X166168097Y-64566762D02*
X166130001Y-64490571D01*
X166130001Y-64490571D02*
X166130001Y-64414381D01*
X166130001Y-64223905D02*
X166663335Y-64033429D01*
X166663335Y-64033429D02*
X166130001Y-63842952D01*
X166663335Y-63423905D02*
X166625240Y-63500095D01*
X166625240Y-63500095D02*
X166587144Y-63538190D01*
X166587144Y-63538190D02*
X166510954Y-63576286D01*
X166510954Y-63576286D02*
X166282382Y-63576286D01*
X166282382Y-63576286D02*
X166206192Y-63538190D01*
X166206192Y-63538190D02*
X166168097Y-63500095D01*
X166168097Y-63500095D02*
X166130001Y-63423905D01*
X166130001Y-63423905D02*
X166130001Y-63309619D01*
X166130001Y-63309619D02*
X166168097Y-63233428D01*
X166168097Y-63233428D02*
X166206192Y-63195333D01*
X166206192Y-63195333D02*
X166282382Y-63157238D01*
X166282382Y-63157238D02*
X166510954Y-63157238D01*
X166510954Y-63157238D02*
X166587144Y-63195333D01*
X166587144Y-63195333D02*
X166625240Y-63233428D01*
X166625240Y-63233428D02*
X166663335Y-63309619D01*
X166663335Y-63309619D02*
X166663335Y-63423905D01*
X165863335Y-62661999D02*
X165863335Y-62585809D01*
X165863335Y-62585809D02*
X165901430Y-62509618D01*
X165901430Y-62509618D02*
X165939525Y-62471523D01*
X165939525Y-62471523D02*
X166015716Y-62433428D01*
X166015716Y-62433428D02*
X166168097Y-62395333D01*
X166168097Y-62395333D02*
X166358573Y-62395333D01*
X166358573Y-62395333D02*
X166510954Y-62433428D01*
X166510954Y-62433428D02*
X166587144Y-62471523D01*
X166587144Y-62471523D02*
X166625240Y-62509618D01*
X166625240Y-62509618D02*
X166663335Y-62585809D01*
X166663335Y-62585809D02*
X166663335Y-62661999D01*
X166663335Y-62661999D02*
X166625240Y-62738190D01*
X166625240Y-62738190D02*
X166587144Y-62776285D01*
X166587144Y-62776285D02*
X166510954Y-62814380D01*
X166510954Y-62814380D02*
X166358573Y-62852476D01*
X166358573Y-62852476D02*
X166168097Y-62852476D01*
X166168097Y-62852476D02*
X166015716Y-62814380D01*
X166015716Y-62814380D02*
X165939525Y-62776285D01*
X165939525Y-62776285D02*
X165901430Y-62738190D01*
X165901430Y-62738190D02*
X165863335Y-62661999D01*
X166625240Y-59966667D02*
X166663335Y-59852381D01*
X166663335Y-59852381D02*
X166663335Y-59661905D01*
X166663335Y-59661905D02*
X166625240Y-59585714D01*
X166625240Y-59585714D02*
X166587144Y-59547619D01*
X166587144Y-59547619D02*
X166510954Y-59509524D01*
X166510954Y-59509524D02*
X166434763Y-59509524D01*
X166434763Y-59509524D02*
X166358573Y-59547619D01*
X166358573Y-59547619D02*
X166320478Y-59585714D01*
X166320478Y-59585714D02*
X166282382Y-59661905D01*
X166282382Y-59661905D02*
X166244287Y-59814286D01*
X166244287Y-59814286D02*
X166206192Y-59890476D01*
X166206192Y-59890476D02*
X166168097Y-59928571D01*
X166168097Y-59928571D02*
X166091906Y-59966667D01*
X166091906Y-59966667D02*
X166015716Y-59966667D01*
X166015716Y-59966667D02*
X165939525Y-59928571D01*
X165939525Y-59928571D02*
X165901430Y-59890476D01*
X165901430Y-59890476D02*
X165863335Y-59814286D01*
X165863335Y-59814286D02*
X165863335Y-59623809D01*
X165863335Y-59623809D02*
X165901430Y-59509524D01*
X166625240Y-58861904D02*
X166663335Y-58938095D01*
X166663335Y-58938095D02*
X166663335Y-59090476D01*
X166663335Y-59090476D02*
X166625240Y-59166666D01*
X166625240Y-59166666D02*
X166549049Y-59204762D01*
X166549049Y-59204762D02*
X166244287Y-59204762D01*
X166244287Y-59204762D02*
X166168097Y-59166666D01*
X166168097Y-59166666D02*
X166130001Y-59090476D01*
X166130001Y-59090476D02*
X166130001Y-58938095D01*
X166130001Y-58938095D02*
X166168097Y-58861904D01*
X166168097Y-58861904D02*
X166244287Y-58823809D01*
X166244287Y-58823809D02*
X166320478Y-58823809D01*
X166320478Y-58823809D02*
X166396668Y-59204762D01*
X166663335Y-58480952D02*
X166130001Y-58480952D01*
X166282382Y-58480952D02*
X166206192Y-58442857D01*
X166206192Y-58442857D02*
X166168097Y-58404762D01*
X166168097Y-58404762D02*
X166130001Y-58328571D01*
X166130001Y-58328571D02*
X166130001Y-58252381D01*
X166130001Y-58061905D02*
X166663335Y-57871429D01*
X166663335Y-57871429D02*
X166130001Y-57680952D01*
X166663335Y-57261905D02*
X166625240Y-57338095D01*
X166625240Y-57338095D02*
X166587144Y-57376190D01*
X166587144Y-57376190D02*
X166510954Y-57414286D01*
X166510954Y-57414286D02*
X166282382Y-57414286D01*
X166282382Y-57414286D02*
X166206192Y-57376190D01*
X166206192Y-57376190D02*
X166168097Y-57338095D01*
X166168097Y-57338095D02*
X166130001Y-57261905D01*
X166130001Y-57261905D02*
X166130001Y-57147619D01*
X166130001Y-57147619D02*
X166168097Y-57071428D01*
X166168097Y-57071428D02*
X166206192Y-57033333D01*
X166206192Y-57033333D02*
X166282382Y-56995238D01*
X166282382Y-56995238D02*
X166510954Y-56995238D01*
X166510954Y-56995238D02*
X166587144Y-57033333D01*
X166587144Y-57033333D02*
X166625240Y-57071428D01*
X166625240Y-57071428D02*
X166663335Y-57147619D01*
X166663335Y-57147619D02*
X166663335Y-57261905D01*
X166663335Y-56233333D02*
X166663335Y-56690476D01*
X166663335Y-56461904D02*
X165863335Y-56461904D01*
X165863335Y-56461904D02*
X165977620Y-56538095D01*
X165977620Y-56538095D02*
X166053811Y-56614285D01*
X166053811Y-56614285D02*
X166091906Y-56690476D01*
D11*
X166899819Y-88859523D02*
X167709342Y-88859523D01*
X167709342Y-88859523D02*
X167804580Y-88811904D01*
X167804580Y-88811904D02*
X167852200Y-88764285D01*
X167852200Y-88764285D02*
X167899819Y-88669047D01*
X167899819Y-88669047D02*
X167899819Y-88478571D01*
X167899819Y-88478571D02*
X167852200Y-88383333D01*
X167852200Y-88383333D02*
X167804580Y-88335714D01*
X167804580Y-88335714D02*
X167709342Y-88288095D01*
X167709342Y-88288095D02*
X166899819Y-88288095D01*
X167852200Y-87859523D02*
X167899819Y-87716666D01*
X167899819Y-87716666D02*
X167899819Y-87478571D01*
X167899819Y-87478571D02*
X167852200Y-87383333D01*
X167852200Y-87383333D02*
X167804580Y-87335714D01*
X167804580Y-87335714D02*
X167709342Y-87288095D01*
X167709342Y-87288095D02*
X167614104Y-87288095D01*
X167614104Y-87288095D02*
X167518866Y-87335714D01*
X167518866Y-87335714D02*
X167471247Y-87383333D01*
X167471247Y-87383333D02*
X167423628Y-87478571D01*
X167423628Y-87478571D02*
X167376009Y-87669047D01*
X167376009Y-87669047D02*
X167328390Y-87764285D01*
X167328390Y-87764285D02*
X167280771Y-87811904D01*
X167280771Y-87811904D02*
X167185533Y-87859523D01*
X167185533Y-87859523D02*
X167090295Y-87859523D01*
X167090295Y-87859523D02*
X166995057Y-87811904D01*
X166995057Y-87811904D02*
X166947438Y-87764285D01*
X166947438Y-87764285D02*
X166899819Y-87669047D01*
X166899819Y-87669047D02*
X166899819Y-87430952D01*
X166899819Y-87430952D02*
X166947438Y-87288095D01*
X167376009Y-86526190D02*
X167423628Y-86383333D01*
X167423628Y-86383333D02*
X167471247Y-86335714D01*
X167471247Y-86335714D02*
X167566485Y-86288095D01*
X167566485Y-86288095D02*
X167709342Y-86288095D01*
X167709342Y-86288095D02*
X167804580Y-86335714D01*
X167804580Y-86335714D02*
X167852200Y-86383333D01*
X167852200Y-86383333D02*
X167899819Y-86478571D01*
X167899819Y-86478571D02*
X167899819Y-86859523D01*
X167899819Y-86859523D02*
X166899819Y-86859523D01*
X166899819Y-86859523D02*
X166899819Y-86526190D01*
X166899819Y-86526190D02*
X166947438Y-86430952D01*
X166947438Y-86430952D02*
X166995057Y-86383333D01*
X166995057Y-86383333D02*
X167090295Y-86335714D01*
X167090295Y-86335714D02*
X167185533Y-86335714D01*
X167185533Y-86335714D02*
X167280771Y-86383333D01*
X167280771Y-86383333D02*
X167328390Y-86430952D01*
X167328390Y-86430952D02*
X167376009Y-86526190D01*
X167376009Y-86526190D02*
X167376009Y-86859523D01*
X167518866Y-85859523D02*
X167518866Y-85097619D01*
X167614104Y-84669047D02*
X167614104Y-84192857D01*
X167899819Y-84764285D02*
X166899819Y-84430952D01*
X166899819Y-84430952D02*
X167899819Y-84097619D01*
D15*
%TO.C,Servo0*%
X167580000Y-65592000D02*
X167580000Y-64262000D01*
X168910000Y-65592000D02*
X167580000Y-65592000D01*
X170180000Y-65592000D02*
X175320000Y-65592000D01*
X170180000Y-65592000D02*
X170180000Y-62932000D01*
X175320000Y-65592000D02*
X175320000Y-62932000D01*
X170180000Y-62932000D02*
X175320000Y-62932000D01*
%TO.C,Servo1*%
X167595000Y-59496000D02*
X167595000Y-58166000D01*
X168925000Y-59496000D02*
X167595000Y-59496000D01*
X170195000Y-59496000D02*
X175335000Y-59496000D01*
X170195000Y-59496000D02*
X170195000Y-56836000D01*
X175335000Y-59496000D02*
X175335000Y-56836000D01*
X170195000Y-56836000D02*
X175335000Y-56836000D01*
%TO.C,C1*%
X175953646Y-76027000D02*
X174953646Y-76027000D01*
X175453646Y-76527000D02*
X175453646Y-75527000D01*
X170474000Y-78232000D02*
X170474000Y-68072000D01*
X170434000Y-78232000D02*
X170434000Y-68072000D01*
X170394000Y-78232000D02*
X170394000Y-68072000D01*
X170354000Y-78231000D02*
X170354000Y-68073000D01*
X170314000Y-78230000D02*
X170314000Y-68074000D01*
X170274000Y-78229000D02*
X170274000Y-68075000D01*
X170234000Y-78227000D02*
X170234000Y-68077000D01*
X170194000Y-78225000D02*
X170194000Y-68079000D01*
X170154000Y-78222000D02*
X170154000Y-68082000D01*
X170114000Y-78220000D02*
X170114000Y-68084000D01*
X170074000Y-78217000D02*
X170074000Y-68087000D01*
X170034000Y-78214000D02*
X170034000Y-68090000D01*
X169994000Y-78210000D02*
X169994000Y-68094000D01*
X169954000Y-78206000D02*
X169954000Y-68098000D01*
X169914000Y-78202000D02*
X169914000Y-68102000D01*
X169874000Y-78197000D02*
X169874000Y-68107000D01*
X169834000Y-78192000D02*
X169834000Y-68112000D01*
X169794000Y-78187000D02*
X169794000Y-68117000D01*
X169753000Y-78182000D02*
X169753000Y-68122000D01*
X169713000Y-78176000D02*
X169713000Y-68128000D01*
X169673000Y-78170000D02*
X169673000Y-68134000D01*
X169633000Y-78163000D02*
X169633000Y-68141000D01*
X169593000Y-78156000D02*
X169593000Y-68148000D01*
X169553000Y-78149000D02*
X169553000Y-68155000D01*
X169513000Y-78142000D02*
X169513000Y-68162000D01*
X169473000Y-78134000D02*
X169473000Y-68170000D01*
X169433000Y-78126000D02*
X169433000Y-68178000D01*
X169393000Y-78117000D02*
X169393000Y-68187000D01*
X169353000Y-78108000D02*
X169353000Y-68196000D01*
X169313000Y-78099000D02*
X169313000Y-68205000D01*
X169273000Y-78090000D02*
X169273000Y-68214000D01*
X169233000Y-78080000D02*
X169233000Y-68224000D01*
X169193000Y-78070000D02*
X169193000Y-74393000D01*
X169193000Y-71911000D02*
X169193000Y-68234000D01*
X169153000Y-78059000D02*
X169153000Y-74393000D01*
X169153000Y-71911000D02*
X169153000Y-68245000D01*
X169113000Y-78049000D02*
X169113000Y-74393000D01*
X169113000Y-71911000D02*
X169113000Y-68255000D01*
X169073000Y-78037000D02*
X169073000Y-74393000D01*
X169073000Y-71911000D02*
X169073000Y-68267000D01*
X169033000Y-78026000D02*
X169033000Y-74393000D01*
X169033000Y-71911000D02*
X169033000Y-68278000D01*
X168993000Y-78014000D02*
X168993000Y-74393000D01*
X168993000Y-71911000D02*
X168993000Y-68290000D01*
X168953000Y-78002000D02*
X168953000Y-74393000D01*
X168953000Y-71911000D02*
X168953000Y-68302000D01*
X168913000Y-77989000D02*
X168913000Y-74393000D01*
X168913000Y-71911000D02*
X168913000Y-68315000D01*
X168873000Y-77976000D02*
X168873000Y-74393000D01*
X168873000Y-71911000D02*
X168873000Y-68328000D01*
X168833000Y-77963000D02*
X168833000Y-74393000D01*
X168833000Y-71911000D02*
X168833000Y-68341000D01*
X168793000Y-77949000D02*
X168793000Y-74393000D01*
X168793000Y-71911000D02*
X168793000Y-68355000D01*
X168753000Y-77935000D02*
X168753000Y-74393000D01*
X168753000Y-71911000D02*
X168753000Y-68369000D01*
X168713000Y-77920000D02*
X168713000Y-74393000D01*
X168713000Y-71911000D02*
X168713000Y-68384000D01*
X168673000Y-77906000D02*
X168673000Y-74393000D01*
X168673000Y-71911000D02*
X168673000Y-68398000D01*
X168633000Y-77890000D02*
X168633000Y-74393000D01*
X168633000Y-71911000D02*
X168633000Y-68414000D01*
X168593000Y-77875000D02*
X168593000Y-74393000D01*
X168593000Y-71911000D02*
X168593000Y-68429000D01*
X168553000Y-77859000D02*
X168553000Y-74393000D01*
X168553000Y-71911000D02*
X168553000Y-68445000D01*
X168513000Y-77842000D02*
X168513000Y-74393000D01*
X168513000Y-71911000D02*
X168513000Y-68462000D01*
X168473000Y-77826000D02*
X168473000Y-74393000D01*
X168473000Y-71911000D02*
X168473000Y-68478000D01*
X168433000Y-77809000D02*
X168433000Y-74393000D01*
X168433000Y-71911000D02*
X168433000Y-68495000D01*
X168393000Y-77791000D02*
X168393000Y-74393000D01*
X168393000Y-71911000D02*
X168393000Y-68513000D01*
X168353000Y-77773000D02*
X168353000Y-74393000D01*
X168353000Y-71911000D02*
X168353000Y-68531000D01*
X168313000Y-77755000D02*
X168313000Y-74393000D01*
X168313000Y-71911000D02*
X168313000Y-68549000D01*
X168273000Y-77736000D02*
X168273000Y-74393000D01*
X168273000Y-71911000D02*
X168273000Y-68568000D01*
X168233000Y-77716000D02*
X168233000Y-74393000D01*
X168233000Y-71911000D02*
X168233000Y-68588000D01*
X168193000Y-77697000D02*
X168193000Y-74393000D01*
X168193000Y-71911000D02*
X168193000Y-68607000D01*
X168153000Y-77677000D02*
X168153000Y-74393000D01*
X168153000Y-71911000D02*
X168153000Y-68627000D01*
X168113000Y-77656000D02*
X168113000Y-74393000D01*
X168113000Y-71911000D02*
X168113000Y-68648000D01*
X168073000Y-77635000D02*
X168073000Y-74393000D01*
X168073000Y-71911000D02*
X168073000Y-68669000D01*
X168033000Y-77614000D02*
X168033000Y-74393000D01*
X168033000Y-71911000D02*
X168033000Y-68690000D01*
X167993000Y-77592000D02*
X167993000Y-74393000D01*
X167993000Y-71911000D02*
X167993000Y-68712000D01*
X167953000Y-77569000D02*
X167953000Y-74393000D01*
X167953000Y-71911000D02*
X167953000Y-68735000D01*
X167913000Y-77547000D02*
X167913000Y-74393000D01*
X167913000Y-71911000D02*
X167913000Y-68757000D01*
X167873000Y-77523000D02*
X167873000Y-74393000D01*
X167873000Y-71911000D02*
X167873000Y-68781000D01*
X167833000Y-77499000D02*
X167833000Y-74393000D01*
X167833000Y-71911000D02*
X167833000Y-68805000D01*
X167793000Y-77475000D02*
X167793000Y-74393000D01*
X167793000Y-71911000D02*
X167793000Y-68829000D01*
X167753000Y-77450000D02*
X167753000Y-74393000D01*
X167753000Y-71911000D02*
X167753000Y-68854000D01*
X167713000Y-77425000D02*
X167713000Y-74393000D01*
X167713000Y-71911000D02*
X167713000Y-68879000D01*
X167673000Y-77399000D02*
X167673000Y-74393000D01*
X167673000Y-71911000D02*
X167673000Y-68905000D01*
X167633000Y-77373000D02*
X167633000Y-74393000D01*
X167633000Y-71911000D02*
X167633000Y-68931000D01*
X167593000Y-77346000D02*
X167593000Y-74393000D01*
X167593000Y-71911000D02*
X167593000Y-68958000D01*
X167553000Y-77318000D02*
X167553000Y-74393000D01*
X167553000Y-71911000D02*
X167553000Y-68986000D01*
X167513000Y-77290000D02*
X167513000Y-74393000D01*
X167513000Y-71911000D02*
X167513000Y-69014000D01*
X167473000Y-77262000D02*
X167473000Y-74393000D01*
X167473000Y-71911000D02*
X167473000Y-69042000D01*
X167433000Y-77232000D02*
X167433000Y-74393000D01*
X167433000Y-71911000D02*
X167433000Y-69072000D01*
X167393000Y-77202000D02*
X167393000Y-74393000D01*
X167393000Y-71911000D02*
X167393000Y-69102000D01*
X167353000Y-77172000D02*
X167353000Y-74393000D01*
X167353000Y-71911000D02*
X167353000Y-69132000D01*
X167313000Y-77141000D02*
X167313000Y-74393000D01*
X167313000Y-71911000D02*
X167313000Y-69163000D01*
X167273000Y-77109000D02*
X167273000Y-74393000D01*
X167273000Y-71911000D02*
X167273000Y-69195000D01*
X167233000Y-77077000D02*
X167233000Y-74393000D01*
X167233000Y-71911000D02*
X167233000Y-69227000D01*
X167193000Y-77044000D02*
X167193000Y-74393000D01*
X167193000Y-71911000D02*
X167193000Y-69260000D01*
X167153000Y-77010000D02*
X167153000Y-74393000D01*
X167153000Y-71911000D02*
X167153000Y-69294000D01*
X167113000Y-76976000D02*
X167113000Y-74393000D01*
X167113000Y-71911000D02*
X167113000Y-69328000D01*
X167073000Y-76941000D02*
X167073000Y-74393000D01*
X167073000Y-71911000D02*
X167073000Y-69363000D01*
X167033000Y-76905000D02*
X167033000Y-74393000D01*
X167033000Y-71911000D02*
X167033000Y-69399000D01*
X166993000Y-76868000D02*
X166993000Y-74393000D01*
X166993000Y-71911000D02*
X166993000Y-69436000D01*
X166953000Y-76831000D02*
X166953000Y-74393000D01*
X166953000Y-71911000D02*
X166953000Y-69473000D01*
X166913000Y-76792000D02*
X166913000Y-74393000D01*
X166913000Y-71911000D02*
X166913000Y-69512000D01*
X166873000Y-76753000D02*
X166873000Y-74393000D01*
X166873000Y-71911000D02*
X166873000Y-69551000D01*
X166833000Y-76713000D02*
X166833000Y-74393000D01*
X166833000Y-71911000D02*
X166833000Y-69591000D01*
X166793000Y-76672000D02*
X166793000Y-74393000D01*
X166793000Y-71911000D02*
X166793000Y-69632000D01*
X166753000Y-76630000D02*
X166753000Y-74393000D01*
X166753000Y-71911000D02*
X166753000Y-69674000D01*
X166713000Y-76588000D02*
X166713000Y-69716000D01*
X166673000Y-76544000D02*
X166673000Y-69760000D01*
X166633000Y-76499000D02*
X166633000Y-69805000D01*
X166593000Y-76453000D02*
X166593000Y-69851000D01*
X166553000Y-76406000D02*
X166553000Y-69898000D01*
X166513000Y-76358000D02*
X166513000Y-69946000D01*
X166473000Y-76308000D02*
X166473000Y-69996000D01*
X166433000Y-76258000D02*
X166433000Y-70046000D01*
X166393000Y-76206000D02*
X166393000Y-70098000D01*
X166353000Y-76152000D02*
X166353000Y-70152000D01*
X166313000Y-76097000D02*
X166313000Y-70207000D01*
X166273000Y-76041000D02*
X166273000Y-70263000D01*
X166233000Y-75982000D02*
X166233000Y-70322000D01*
X166193000Y-75922000D02*
X166193000Y-70382000D01*
X166153000Y-75861000D02*
X166153000Y-70443000D01*
X166113000Y-75797000D02*
X166113000Y-70507000D01*
X166073000Y-75731000D02*
X166073000Y-70573000D01*
X166033000Y-75662000D02*
X166033000Y-70642000D01*
X165993000Y-75591000D02*
X165993000Y-70713000D01*
X165953000Y-75517000D02*
X165953000Y-70787000D01*
X165913000Y-75441000D02*
X165913000Y-70863000D01*
X165873000Y-75361000D02*
X165873000Y-70943000D01*
X165833000Y-75277000D02*
X165833000Y-71027000D01*
X165793000Y-75189000D02*
X165793000Y-71115000D01*
X165753000Y-75096000D02*
X165753000Y-71208000D01*
X165713000Y-74998000D02*
X165713000Y-71306000D01*
X165673000Y-74894000D02*
X165673000Y-71410000D01*
X165633000Y-74782000D02*
X165633000Y-71522000D01*
X165593000Y-74662000D02*
X165593000Y-71642000D01*
X165553000Y-74530000D02*
X165553000Y-71774000D01*
X165513000Y-74382000D02*
X165513000Y-71922000D01*
X165473000Y-74214000D02*
X165473000Y-72090000D01*
X165433000Y-74014000D02*
X165433000Y-72290000D01*
X165393000Y-73751000D02*
X165393000Y-72553000D01*
X175594000Y-73152000D02*
G75*
G03*
X175594000Y-73152000I-5120000J0D01*
G01*
D17*
%TO.C,J3*%
X162820000Y-93154000D02*
X165270000Y-93154000D01*
X162820000Y-93154000D02*
X162820000Y-79946000D01*
X176790000Y-93154000D02*
X168345000Y-93154000D01*
X169686000Y-90332000D02*
X174733000Y-89750000D01*
X169660000Y-89999000D02*
X169686000Y-90332000D01*
X170592000Y-89903000D02*
X170592000Y-87820000D01*
X174733000Y-89750000D02*
X174733000Y-87896000D01*
X172345000Y-89573000D02*
X172345000Y-88125000D01*
X174225000Y-89344000D02*
X169660000Y-89999000D01*
X174225000Y-88404000D02*
X174225000Y-89344000D01*
X174733000Y-87896000D02*
X169678000Y-87312000D01*
X169627000Y-87617000D02*
X174225000Y-88404000D01*
X169678000Y-87312000D02*
X169627000Y-87617000D01*
X169635000Y-85862000D02*
X169609000Y-85529000D01*
X169609000Y-85529000D02*
X174174000Y-84874000D01*
X170542000Y-85432000D02*
X170542000Y-83350000D01*
X174682000Y-85280000D02*
X169635000Y-85862000D01*
X172294000Y-85102000D02*
X172294000Y-83654000D01*
X174174000Y-84874000D02*
X174174000Y-83934000D01*
X174174000Y-83934000D02*
X169576000Y-83146000D01*
X174682000Y-83426000D02*
X174682000Y-85280000D01*
X169576000Y-83146000D02*
X169627000Y-82842000D01*
X169627000Y-82842000D02*
X174682000Y-83426000D01*
X162820000Y-79946000D02*
X165245000Y-79946000D01*
X176790000Y-79946000D02*
X176790000Y-93154000D01*
X176790000Y-79946000D02*
X168345000Y-79946000D01*
D11*
%TO.C,U1*%
X148170000Y-96510000D02*
X148170000Y-93970000D01*
X155790000Y-96510000D02*
X148170000Y-96510000D01*
X143090000Y-93970000D02*
X143090000Y-63490000D01*
X148170000Y-93970000D02*
X143090000Y-93970000D01*
X155790000Y-93970000D02*
X155790000Y-96510000D01*
X160870000Y-93970000D02*
X155790000Y-93970000D01*
X160870000Y-93970000D02*
X160870000Y-63490000D01*
X143090000Y-63490000D02*
X160870000Y-63490000D01*
%TD*%
D10*
%TO.C,Servo0*%
X168275000Y-65532000D02*
X167640000Y-64897000D01*
X175260000Y-65532000D02*
X168275000Y-65532000D01*
X167640000Y-64897000D02*
X167640000Y-62992000D01*
X167640000Y-62992000D02*
X175260000Y-62992000D01*
X175260000Y-62992000D02*
X175260000Y-65532000D01*
%TO.C,Servo1*%
X168290000Y-59436000D02*
X167655000Y-58801000D01*
X175275000Y-59436000D02*
X168290000Y-59436000D01*
X167655000Y-58801000D02*
X167655000Y-56896000D01*
X167655000Y-56896000D02*
X175275000Y-56896000D01*
X175275000Y-56896000D02*
X175275000Y-59436000D01*
%TO.C,C1*%
X174762861Y-75339500D02*
X173762861Y-75339500D01*
X174262861Y-75839500D02*
X174262861Y-74839500D01*
X175474000Y-73152000D02*
G75*
G03*
X175474000Y-73152000I-5000000J0D01*
G01*
%TD*%
M02*
