M48
; DRILL file {KiCad 7.0.7} date Thu Feb  1 17:54:53 2024
; FORMAT={-:-/ absolute / inch / decimal}
; #@! TF.CreationDate,2024-02-01T17:54:53-08:00
; #@! TF.GenerationSoftware,Kicad,Pcbnew,7.0.7
; #@! TF.FileFunction,Plated,1,2,PTH
FMAT,2
INCH
; #@! TA.AperFunction,Plated,PTH,ComponentDrill
T1C0.0362
; #@! TA.AperFunction,Plated,PTH,ComponentDrill
T2C0.0394
; #@! TA.AperFunction,Plated,PTH,ComponentDrill
T3C0.0433
; #@! TA.AperFunction,Plated,PTH,ComponentDrill
T4C0.0827
%
G90
G05
T1
X6.4602Y-3.2697
X6.4602Y-3.3681
X6.4602Y-3.4469
X6.4602Y-3.5453
T2
X6.6131Y-2.88
X6.65Y-2.53
X6.6506Y-2.29
X6.75Y-2.53
X6.7506Y-2.29
X6.81Y-2.88
X6.85Y-2.53
X6.8506Y-2.29
T3
X5.6835Y-2.5496
X5.6835Y-2.6496
X5.6835Y-2.7496
X5.6835Y-2.8496
X5.6835Y-2.9496
X5.6835Y-3.0496
X5.6835Y-3.1496
X5.6835Y-3.2496
X5.6835Y-3.3496
X5.6835Y-3.4496
X5.6835Y-3.5496
X5.6835Y-3.6496
X6.2835Y-2.5496
X6.2835Y-2.6496
X6.2835Y-2.7496
X6.2835Y-2.8496
X6.2835Y-2.9496
X6.2835Y-3.0496
X6.2835Y-3.1496
X6.2835Y-3.2496
X6.2835Y-3.3496
X6.2835Y-3.4496
X6.2835Y-3.5496
X6.2835Y-3.6496
T4
X6.5669Y-3.1496
X6.5669Y-3.6654
T0
M30
