G75*
%MOIN*%
%OFA0B0*%
%FSLAX25Y25*%
%IPPOS*%
%LPD*%
%AMOC8*
5,1,8,0,0,1.08239X$1,22.5*
%
%ADD10R,0.04937X0.05331*%
%ADD11C,0.13500*%
%ADD12R,0.08874X0.08874*%
%ADD13C,0.03150*%
%ADD14R,0.08874X0.03000*%
%ADD15R,0.08661X0.02756*%
%ADD16R,0.05331X0.04937*%
%ADD17C,0.10000*%
%ADD18R,0.25409X0.22260*%
%ADD19R,0.07299X0.04937*%
%ADD20R,0.04150X0.04150*%
%ADD21C,0.04762*%
%ADD22C,0.05156*%
D10*
X0133454Y0052000D03*
X0140146Y0052000D03*
X0155954Y0042000D03*
X0162646Y0042000D03*
X0141800Y0040346D03*
X0141800Y0033654D03*
X0155954Y0062000D03*
X0162646Y0062000D03*
X0145146Y0072000D03*
X0138454Y0072000D03*
X0155954Y0082000D03*
X0162646Y0082000D03*
X0162146Y0129000D03*
X0155454Y0129000D03*
D11*
X0021800Y0121500D03*
X0021800Y0152500D03*
X0021800Y0077500D03*
X0021800Y0046500D03*
D12*
X0063926Y0077000D03*
X0079674Y0077000D03*
D13*
X0080894Y0113378D03*
X0073020Y0113378D03*
X0065146Y0113378D03*
X0065146Y0121252D03*
X0073020Y0121252D03*
X0080894Y0121252D03*
X0080894Y0129126D03*
X0073020Y0129126D03*
X0065146Y0129126D03*
X0065146Y0144874D03*
X0073020Y0144874D03*
X0080894Y0144874D03*
X0080894Y0152748D03*
X0073020Y0152748D03*
X0065146Y0152748D03*
X0065146Y0160622D03*
X0073020Y0160622D03*
X0080894Y0160622D03*
X0092706Y0152748D03*
X0100580Y0152748D03*
X0108454Y0152748D03*
X0108454Y0144874D03*
X0100580Y0144874D03*
X0092706Y0144874D03*
X0092706Y0137000D03*
X0100580Y0137000D03*
X0108454Y0137000D03*
X0108454Y0129126D03*
X0100580Y0129126D03*
X0092706Y0129126D03*
X0092706Y0121252D03*
X0100580Y0121252D03*
X0108454Y0121252D03*
D14*
X0122233Y0121252D03*
X0122233Y0125189D03*
X0122233Y0129126D03*
X0122233Y0133063D03*
X0122233Y0137000D03*
X0122233Y0140937D03*
X0122233Y0144874D03*
X0122233Y0148811D03*
X0122233Y0152748D03*
X0122233Y0160622D03*
X0122233Y0113378D03*
X0051367Y0113378D03*
X0051367Y0117315D03*
X0051367Y0121252D03*
X0051367Y0125189D03*
X0051367Y0133063D03*
X0051367Y0140937D03*
X0051367Y0148811D03*
X0051367Y0152748D03*
X0051367Y0156685D03*
X0051367Y0160622D03*
X0051367Y0109441D03*
D15*
X0051387Y0129126D03*
X0051387Y0137000D03*
X0051387Y0144874D03*
X0051387Y0164559D03*
X0122213Y0164559D03*
X0122213Y0156685D03*
X0122213Y0117315D03*
X0122213Y0109441D03*
D16*
X0117800Y0083846D03*
X0117800Y0077154D03*
X0133300Y0040346D03*
X0133300Y0033654D03*
X0164300Y0027846D03*
X0164300Y0021154D03*
X0192800Y0043654D03*
X0192800Y0050346D03*
X0206300Y0050346D03*
X0206300Y0043654D03*
X0218800Y0043654D03*
X0218800Y0050346D03*
X0184300Y0094654D03*
X0184300Y0101346D03*
X0156800Y0158654D03*
X0156800Y0165346D03*
X0144300Y0165346D03*
X0144300Y0158654D03*
D17*
X0171800Y0152000D03*
X0171800Y0142000D03*
X0171800Y0132000D03*
X0171800Y0122000D03*
X0171800Y0112000D03*
X0171800Y0102000D03*
X0171800Y0092000D03*
X0171800Y0082000D03*
X0171800Y0072000D03*
X0171800Y0062000D03*
X0171800Y0052000D03*
X0171800Y0042000D03*
X0231800Y0042000D03*
X0231800Y0052000D03*
X0231800Y0062000D03*
X0231800Y0072000D03*
X0231800Y0082000D03*
X0231800Y0092000D03*
X0231800Y0102000D03*
X0231800Y0112000D03*
X0231800Y0122000D03*
X0231800Y0132000D03*
X0231800Y0142000D03*
X0231800Y0152000D03*
D18*
X0079643Y0042000D03*
D19*
X0050902Y0033024D03*
X0050902Y0050976D03*
D20*
X0184800Y0030953D03*
X0184800Y0025047D03*
X0198300Y0025047D03*
X0198300Y0030953D03*
X0211300Y0030953D03*
X0211300Y0025047D03*
X0224300Y0025047D03*
X0224300Y0030953D03*
D21*
X0151800Y0027000D03*
X0149300Y0062000D03*
X0133300Y0062500D03*
X0149300Y0082000D03*
X0087800Y0098000D03*
X0078800Y0098000D03*
X0134300Y0134500D03*
X0139300Y0139500D03*
X0149300Y0144500D03*
X0144300Y0148500D03*
D22*
X0106800Y0147000D03*
X0096800Y0142000D03*
X0106800Y0137000D03*
X0096800Y0132000D03*
X0106800Y0127000D03*
X0096800Y0122000D03*
X0081800Y0129500D03*
X0076800Y0124500D03*
X0069300Y0124500D03*
X0064300Y0129500D03*
X0069300Y0117000D03*
X0064300Y0112000D03*
X0076800Y0117000D03*
X0081800Y0112000D03*
X0081800Y0144500D03*
X0076800Y0149500D03*
X0069300Y0149500D03*
X0064300Y0144500D03*
X0069300Y0157000D03*
X0064300Y0162000D03*
X0076800Y0157000D03*
X0081800Y0162000D03*
X0096800Y0152000D03*
M02*
