G75*
%MOIN*%
%OFA0B0*%
%FSLAX25Y25*%
%IPPOS*%
%LPD*%
%AMOC8*
5,1,8,0,0,1.08239X$1,22.5*
%
%ADD10C,0.00000*%
%ADD11C,0.00200*%
%ADD12C,0.01000*%
%ADD13C,0.00500*%
%ADD14C,0.00800*%
%ADD15C,0.00400*%
%ADD16C,0.00300*%
%ADD17R,0.03000X0.03400*%
D10*
X0001800Y0002000D02*
X0239800Y0002000D01*
X0239800Y0177000D01*
X0001800Y0177000D01*
X0001800Y0002000D01*
D11*
X0004900Y0005100D02*
X0004900Y0007902D01*
X0006301Y0007902D01*
X0006768Y0007435D01*
X0006768Y0006501D01*
X0006301Y0006034D01*
X0004900Y0006034D01*
X0005834Y0006034D02*
X0006768Y0005100D01*
X0007662Y0005100D02*
X0009531Y0005100D01*
X0010425Y0006034D02*
X0011359Y0005100D01*
X0012293Y0006034D01*
X0012293Y0007902D01*
X0013187Y0006968D02*
X0013187Y0006501D01*
X0013654Y0006501D01*
X0013654Y0006968D01*
X0013187Y0006968D01*
X0013187Y0005567D02*
X0013187Y0005100D01*
X0013654Y0005100D01*
X0013654Y0005567D01*
X0013187Y0005567D01*
X0010425Y0006034D02*
X0010425Y0007902D01*
X0009531Y0007902D02*
X0007662Y0007902D01*
X0007662Y0005100D01*
X0007662Y0006501D02*
X0008596Y0006501D01*
X0017331Y0006968D02*
X0017798Y0006501D01*
X0019199Y0006501D01*
X0020093Y0006501D02*
X0021961Y0006501D01*
X0021961Y0006968D02*
X0021961Y0005100D01*
X0020093Y0005100D02*
X0020093Y0006968D01*
X0021027Y0007902D01*
X0021961Y0006968D01*
X0019199Y0007435D02*
X0019199Y0005567D01*
X0018732Y0005100D01*
X0017798Y0005100D01*
X0017331Y0005567D01*
X0017331Y0006968D02*
X0017331Y0007435D01*
X0017798Y0007902D01*
X0018732Y0007902D01*
X0019199Y0007435D01*
D12*
X0141680Y0037000D02*
X0141920Y0037000D01*
D13*
X0145046Y0036147D02*
X0146547Y0034646D01*
X0145797Y0033045D02*
X0145046Y0032294D01*
X0145046Y0030793D01*
X0145797Y0030042D01*
X0148799Y0030042D01*
X0149550Y0030793D01*
X0149550Y0032294D01*
X0148799Y0033045D01*
X0149550Y0034646D02*
X0149550Y0037649D01*
X0149550Y0036147D02*
X0145046Y0036147D01*
X0155342Y0035751D02*
X0157594Y0035751D01*
X0158345Y0036502D01*
X0158345Y0038003D01*
X0157594Y0038754D01*
X0155342Y0038754D01*
X0155342Y0034250D01*
X0156843Y0035751D02*
X0158345Y0034250D01*
X0159946Y0034250D02*
X0159946Y0035001D01*
X0162949Y0038003D01*
X0162949Y0038754D01*
X0159946Y0038754D01*
X0164800Y0035000D02*
X0238800Y0035000D01*
X0238800Y0167000D01*
X0217800Y0167000D01*
X0217800Y0151400D01*
X0185800Y0151400D01*
X0185800Y0167000D01*
X0185800Y0172000D01*
X0185800Y0167000D02*
X0217800Y0167000D01*
X0217800Y0172000D01*
X0185800Y0167000D02*
X0164800Y0167000D01*
X0164800Y0035000D01*
X0183046Y0042250D02*
X0183046Y0044502D01*
X0183797Y0045253D01*
X0185298Y0045253D01*
X0186049Y0044502D01*
X0186049Y0042250D01*
X0187550Y0042250D02*
X0183046Y0042250D01*
X0186049Y0043751D02*
X0187550Y0045253D01*
X0187550Y0046854D02*
X0187550Y0049856D01*
X0187550Y0048355D02*
X0183046Y0048355D01*
X0184547Y0046854D01*
X0183797Y0051458D02*
X0183046Y0052208D01*
X0183046Y0053710D01*
X0183797Y0054460D01*
X0184547Y0054460D01*
X0185298Y0053710D01*
X0186049Y0054460D01*
X0186799Y0054460D01*
X0187550Y0053710D01*
X0187550Y0052208D01*
X0186799Y0051458D01*
X0185298Y0052959D02*
X0185298Y0053710D01*
X0196546Y0053710D02*
X0198798Y0051458D01*
X0198798Y0054460D01*
X0201050Y0053710D02*
X0196546Y0053710D01*
X0196546Y0048355D02*
X0201050Y0048355D01*
X0201050Y0046854D02*
X0201050Y0049856D01*
X0198047Y0046854D02*
X0196546Y0048355D01*
X0197297Y0045253D02*
X0198798Y0045253D01*
X0199549Y0044502D01*
X0199549Y0042250D01*
X0201050Y0042250D02*
X0196546Y0042250D01*
X0196546Y0044502D01*
X0197297Y0045253D01*
X0199549Y0043751D02*
X0201050Y0045253D01*
X0209046Y0044502D02*
X0209046Y0042250D01*
X0213550Y0042250D01*
X0212049Y0042250D02*
X0212049Y0044502D01*
X0211298Y0045253D01*
X0209797Y0045253D01*
X0209046Y0044502D01*
X0212049Y0043751D02*
X0213550Y0045253D01*
X0213550Y0046854D02*
X0213550Y0049856D01*
X0213550Y0048355D02*
X0209046Y0048355D01*
X0210547Y0046854D01*
X0211298Y0051458D02*
X0209046Y0051458D01*
X0209046Y0054460D01*
X0210547Y0053710D02*
X0210547Y0052959D01*
X0211298Y0051458D01*
X0212799Y0051458D02*
X0213550Y0052208D01*
X0213550Y0053710D01*
X0212799Y0054460D01*
X0211298Y0054460D01*
X0210547Y0053710D01*
X0207299Y0031649D02*
X0208050Y0030898D01*
X0208050Y0028646D01*
X0203546Y0028646D01*
X0203546Y0030898D01*
X0204297Y0031649D01*
X0205047Y0031649D01*
X0205798Y0030898D01*
X0205798Y0028646D01*
X0205798Y0027045D02*
X0205798Y0025543D01*
X0205798Y0027045D02*
X0207299Y0027045D01*
X0208050Y0026294D01*
X0208050Y0024793D01*
X0207299Y0024042D01*
X0204297Y0024042D01*
X0203546Y0024793D01*
X0203546Y0026294D01*
X0204297Y0027045D01*
X0205798Y0030898D02*
X0206549Y0031649D01*
X0207299Y0031649D01*
X0216546Y0030147D02*
X0218047Y0031649D01*
X0221050Y0031649D01*
X0218798Y0031649D02*
X0218798Y0028646D01*
X0218047Y0028646D02*
X0216546Y0030147D01*
X0218047Y0028646D02*
X0221050Y0028646D01*
X0221050Y0025543D02*
X0216546Y0025543D01*
X0216546Y0024042D02*
X0216546Y0027045D01*
X0217297Y0022441D02*
X0216546Y0021690D01*
X0216546Y0020189D01*
X0217297Y0019438D01*
X0220299Y0019438D01*
X0221050Y0020189D01*
X0221050Y0021690D01*
X0220299Y0022441D01*
X0217297Y0022441D01*
X0216546Y0017837D02*
X0221050Y0017837D01*
X0221050Y0014834D02*
X0216546Y0014834D01*
X0218047Y0016336D01*
X0216546Y0017837D01*
X0208050Y0017870D02*
X0208050Y0016369D01*
X0208050Y0017120D02*
X0203546Y0017120D01*
X0203546Y0017870D02*
X0203546Y0016369D01*
X0204297Y0014768D02*
X0203546Y0014017D01*
X0203546Y0011765D01*
X0208050Y0011765D01*
X0208050Y0014017D01*
X0207299Y0014768D01*
X0204297Y0014768D01*
X0205047Y0019438D02*
X0203546Y0020939D01*
X0205047Y0022441D01*
X0208050Y0022441D01*
X0205798Y0022441D02*
X0205798Y0019438D01*
X0205047Y0019438D02*
X0208050Y0019438D01*
X0194550Y0019438D02*
X0191547Y0019438D01*
X0190046Y0020939D01*
X0191547Y0022441D01*
X0194550Y0022441D01*
X0193799Y0024042D02*
X0194550Y0024793D01*
X0194550Y0026294D01*
X0193799Y0027045D01*
X0192298Y0027045D01*
X0192298Y0025543D01*
X0190797Y0024042D02*
X0193799Y0024042D01*
X0192298Y0022441D02*
X0192298Y0019438D01*
X0190046Y0017870D02*
X0190046Y0016369D01*
X0190046Y0017120D02*
X0194550Y0017120D01*
X0194550Y0017870D02*
X0194550Y0016369D01*
X0193799Y0014768D02*
X0190797Y0014768D01*
X0190046Y0014017D01*
X0190046Y0011765D01*
X0194550Y0011765D01*
X0194550Y0014017D01*
X0193799Y0014768D01*
X0190797Y0024042D02*
X0190046Y0024793D01*
X0190046Y0026294D01*
X0190797Y0027045D01*
X0191547Y0028646D02*
X0190046Y0030147D01*
X0191547Y0031649D01*
X0194550Y0031649D01*
X0192298Y0031649D02*
X0192298Y0028646D01*
X0191547Y0028646D02*
X0194550Y0028646D01*
X0166050Y0015606D02*
X0166050Y0014105D01*
X0165299Y0013354D01*
X0164549Y0013354D01*
X0163798Y0014105D01*
X0163798Y0015606D01*
X0164549Y0016356D01*
X0165299Y0016356D01*
X0166050Y0015606D01*
X0163798Y0015606D02*
X0163047Y0016356D01*
X0162297Y0016356D01*
X0161546Y0015606D01*
X0161546Y0014105D01*
X0162297Y0013354D01*
X0163047Y0013354D01*
X0163798Y0014105D01*
X0163798Y0011753D02*
X0164549Y0011002D01*
X0164549Y0008750D01*
X0166050Y0008750D02*
X0161546Y0008750D01*
X0161546Y0011002D01*
X0162297Y0011753D01*
X0163798Y0011753D01*
X0164549Y0010251D02*
X0166050Y0011753D01*
X0128050Y0032250D02*
X0123546Y0032250D01*
X0123546Y0034502D01*
X0124297Y0035253D01*
X0125798Y0035253D01*
X0126549Y0034502D01*
X0126549Y0032250D01*
X0126549Y0033751D02*
X0128050Y0035253D01*
X0128050Y0036854D02*
X0128050Y0039856D01*
X0128050Y0038355D02*
X0123546Y0038355D01*
X0125047Y0036854D01*
X0124297Y0041458D02*
X0123546Y0042208D01*
X0123546Y0043710D01*
X0124297Y0044460D01*
X0127299Y0041458D01*
X0128050Y0042208D01*
X0128050Y0043710D01*
X0127299Y0044460D01*
X0124297Y0044460D01*
X0124297Y0041458D02*
X0127299Y0041458D01*
X0127906Y0049250D02*
X0128656Y0050001D01*
X0128656Y0053003D01*
X0127906Y0053754D01*
X0126405Y0053754D01*
X0125654Y0053003D01*
X0125654Y0052253D01*
X0126405Y0051502D01*
X0128656Y0051502D01*
X0127906Y0049250D02*
X0126405Y0049250D01*
X0125654Y0050001D01*
X0124053Y0049250D02*
X0122551Y0050751D01*
X0123302Y0050751D02*
X0121050Y0050751D01*
X0121050Y0049250D02*
X0121050Y0053754D01*
X0123302Y0053754D01*
X0124053Y0053003D01*
X0124053Y0051502D01*
X0123302Y0050751D01*
X0137842Y0064250D02*
X0137842Y0068754D01*
X0140094Y0068754D01*
X0140845Y0068003D01*
X0140845Y0066502D01*
X0140094Y0065751D01*
X0137842Y0065751D01*
X0139343Y0065751D02*
X0140845Y0064250D01*
X0142446Y0065001D02*
X0143197Y0064250D01*
X0144698Y0064250D01*
X0145449Y0065001D01*
X0145449Y0066502D01*
X0144698Y0067253D01*
X0143947Y0067253D01*
X0142446Y0066502D01*
X0142446Y0068754D01*
X0145449Y0068754D01*
X0155342Y0074250D02*
X0155342Y0078754D01*
X0157594Y0078754D01*
X0158345Y0078003D01*
X0158345Y0076502D01*
X0157594Y0075751D01*
X0155342Y0075751D01*
X0156843Y0075751D02*
X0158345Y0074250D01*
X0159946Y0076502D02*
X0162949Y0076502D01*
X0162198Y0074250D02*
X0162198Y0078754D01*
X0159946Y0076502D01*
X0157594Y0058754D02*
X0155342Y0058754D01*
X0155342Y0054250D01*
X0155342Y0055751D02*
X0157594Y0055751D01*
X0158345Y0056502D01*
X0158345Y0058003D01*
X0157594Y0058754D01*
X0156843Y0055751D02*
X0158345Y0054250D01*
X0159946Y0055001D02*
X0159946Y0056502D01*
X0162198Y0056502D01*
X0162949Y0055751D01*
X0162949Y0055001D01*
X0162198Y0054250D01*
X0160697Y0054250D01*
X0159946Y0055001D01*
X0159946Y0056502D02*
X0161447Y0058003D01*
X0162949Y0058754D01*
X0187546Y0093250D02*
X0187546Y0095502D01*
X0188297Y0096253D01*
X0189798Y0096253D01*
X0190549Y0095502D01*
X0190549Y0093250D01*
X0192050Y0093250D02*
X0187546Y0093250D01*
X0190549Y0094751D02*
X0192050Y0096253D01*
X0192050Y0097854D02*
X0192050Y0100856D01*
X0192050Y0099355D02*
X0187546Y0099355D01*
X0189047Y0097854D01*
X0188297Y0102458D02*
X0187546Y0103208D01*
X0187546Y0104710D01*
X0188297Y0105460D01*
X0189047Y0105460D01*
X0192050Y0102458D01*
X0192050Y0105460D01*
X0162449Y0122001D02*
X0161698Y0121250D01*
X0160197Y0121250D01*
X0159446Y0122001D01*
X0157845Y0121250D02*
X0156343Y0122751D01*
X0157094Y0122751D02*
X0154842Y0122751D01*
X0154842Y0121250D02*
X0154842Y0125754D01*
X0157094Y0125754D01*
X0157845Y0125003D01*
X0157845Y0123502D01*
X0157094Y0122751D01*
X0159446Y0125003D02*
X0160197Y0125754D01*
X0161698Y0125754D01*
X0162449Y0125003D01*
X0162449Y0124253D01*
X0161698Y0123502D01*
X0162449Y0122751D01*
X0162449Y0122001D01*
X0161698Y0123502D02*
X0160947Y0123502D01*
X0118296Y0105504D02*
X0115934Y0103142D01*
X0057666Y0103142D01*
X0055304Y0105504D01*
X0055304Y0168496D01*
X0057666Y0170858D01*
X0115934Y0170858D01*
X0118296Y0168496D01*
X0118296Y0105504D01*
X0110422Y0109441D02*
X0110424Y0109529D01*
X0110430Y0109617D01*
X0110440Y0109705D01*
X0110454Y0109793D01*
X0110471Y0109879D01*
X0110493Y0109965D01*
X0110518Y0110049D01*
X0110548Y0110133D01*
X0110580Y0110215D01*
X0110617Y0110295D01*
X0110657Y0110374D01*
X0110701Y0110451D01*
X0110748Y0110526D01*
X0110798Y0110598D01*
X0110852Y0110669D01*
X0110908Y0110736D01*
X0110968Y0110802D01*
X0111030Y0110864D01*
X0111096Y0110924D01*
X0111163Y0110980D01*
X0111234Y0111034D01*
X0111306Y0111084D01*
X0111381Y0111131D01*
X0111458Y0111175D01*
X0111537Y0111215D01*
X0111617Y0111252D01*
X0111699Y0111284D01*
X0111783Y0111314D01*
X0111867Y0111339D01*
X0111953Y0111361D01*
X0112039Y0111378D01*
X0112127Y0111392D01*
X0112215Y0111402D01*
X0112303Y0111408D01*
X0112391Y0111410D01*
X0112479Y0111408D01*
X0112567Y0111402D01*
X0112655Y0111392D01*
X0112743Y0111378D01*
X0112829Y0111361D01*
X0112915Y0111339D01*
X0112999Y0111314D01*
X0113083Y0111284D01*
X0113165Y0111252D01*
X0113245Y0111215D01*
X0113324Y0111175D01*
X0113401Y0111131D01*
X0113476Y0111084D01*
X0113548Y0111034D01*
X0113619Y0110980D01*
X0113686Y0110924D01*
X0113752Y0110864D01*
X0113814Y0110802D01*
X0113874Y0110736D01*
X0113930Y0110669D01*
X0113984Y0110598D01*
X0114034Y0110526D01*
X0114081Y0110451D01*
X0114125Y0110374D01*
X0114165Y0110295D01*
X0114202Y0110215D01*
X0114234Y0110133D01*
X0114264Y0110049D01*
X0114289Y0109965D01*
X0114311Y0109879D01*
X0114328Y0109793D01*
X0114342Y0109705D01*
X0114352Y0109617D01*
X0114358Y0109529D01*
X0114360Y0109441D01*
X0114358Y0109353D01*
X0114352Y0109265D01*
X0114342Y0109177D01*
X0114328Y0109089D01*
X0114311Y0109003D01*
X0114289Y0108917D01*
X0114264Y0108833D01*
X0114234Y0108749D01*
X0114202Y0108667D01*
X0114165Y0108587D01*
X0114125Y0108508D01*
X0114081Y0108431D01*
X0114034Y0108356D01*
X0113984Y0108284D01*
X0113930Y0108213D01*
X0113874Y0108146D01*
X0113814Y0108080D01*
X0113752Y0108018D01*
X0113686Y0107958D01*
X0113619Y0107902D01*
X0113548Y0107848D01*
X0113476Y0107798D01*
X0113401Y0107751D01*
X0113324Y0107707D01*
X0113245Y0107667D01*
X0113165Y0107630D01*
X0113083Y0107598D01*
X0112999Y0107568D01*
X0112915Y0107543D01*
X0112829Y0107521D01*
X0112743Y0107504D01*
X0112655Y0107490D01*
X0112567Y0107480D01*
X0112479Y0107474D01*
X0112391Y0107472D01*
X0112303Y0107474D01*
X0112215Y0107480D01*
X0112127Y0107490D01*
X0112039Y0107504D01*
X0111953Y0107521D01*
X0111867Y0107543D01*
X0111783Y0107568D01*
X0111699Y0107598D01*
X0111617Y0107630D01*
X0111537Y0107667D01*
X0111458Y0107707D01*
X0111381Y0107751D01*
X0111306Y0107798D01*
X0111234Y0107848D01*
X0111163Y0107902D01*
X0111096Y0107958D01*
X0111030Y0108018D01*
X0110968Y0108080D01*
X0110908Y0108146D01*
X0110852Y0108213D01*
X0110798Y0108284D01*
X0110748Y0108356D01*
X0110701Y0108431D01*
X0110657Y0108508D01*
X0110617Y0108587D01*
X0110580Y0108667D01*
X0110548Y0108749D01*
X0110518Y0108833D01*
X0110493Y0108917D01*
X0110471Y0109003D01*
X0110454Y0109089D01*
X0110440Y0109177D01*
X0110430Y0109265D01*
X0110424Y0109353D01*
X0110422Y0109441D01*
X0112550Y0087960D02*
X0112550Y0084958D01*
X0112550Y0086459D02*
X0108046Y0086459D01*
X0109547Y0084958D01*
X0112550Y0083356D02*
X0112550Y0080354D01*
X0112550Y0081855D02*
X0108046Y0081855D01*
X0109547Y0080354D01*
X0108797Y0078753D02*
X0108046Y0078002D01*
X0108046Y0075750D01*
X0112550Y0075750D01*
X0111049Y0075750D02*
X0111049Y0078002D01*
X0110298Y0078753D01*
X0108797Y0078753D01*
X0111049Y0077251D02*
X0112550Y0078753D01*
X0069656Y0084750D02*
X0066654Y0084750D01*
X0068155Y0084750D02*
X0068155Y0089254D01*
X0066654Y0087753D01*
X0065053Y0088503D02*
X0064302Y0089254D01*
X0062050Y0089254D01*
X0062050Y0084750D01*
X0064302Y0084750D01*
X0065053Y0085501D01*
X0065053Y0088503D01*
X0037300Y0093000D02*
X0037300Y0062000D01*
X0006300Y0062000D01*
X0006300Y0031000D01*
X0037300Y0031000D01*
X0037300Y0062000D01*
X0047550Y0061003D02*
X0047550Y0058001D01*
X0048301Y0057250D01*
X0049802Y0057250D01*
X0050553Y0058001D01*
X0050553Y0061003D01*
X0049802Y0061754D01*
X0048301Y0061754D01*
X0047550Y0061003D01*
X0049051Y0058751D02*
X0050553Y0057250D01*
X0052154Y0057250D02*
X0055156Y0057250D01*
X0053655Y0057250D02*
X0053655Y0061754D01*
X0052154Y0060253D01*
X0035449Y0029254D02*
X0032446Y0029254D01*
X0033947Y0029254D02*
X0033947Y0024750D01*
X0030845Y0024750D02*
X0030845Y0027753D01*
X0029343Y0029254D01*
X0027842Y0027753D01*
X0027842Y0024750D01*
X0026241Y0025501D02*
X0025490Y0024750D01*
X0023238Y0024750D01*
X0023238Y0029254D01*
X0025490Y0029254D01*
X0026241Y0028503D01*
X0026241Y0027753D01*
X0025490Y0027002D01*
X0023238Y0027002D01*
X0021637Y0026251D02*
X0021637Y0029254D01*
X0018634Y0029254D02*
X0018634Y0026251D01*
X0020136Y0024750D01*
X0021637Y0026251D01*
X0025490Y0027002D02*
X0026241Y0026251D01*
X0026241Y0025501D01*
X0027842Y0027002D02*
X0030845Y0027002D01*
X0006300Y0062000D02*
X0006300Y0093000D01*
X0037300Y0093000D01*
X0033947Y0099750D02*
X0033947Y0104254D01*
X0032446Y0104254D02*
X0035449Y0104254D01*
X0037300Y0106000D02*
X0006300Y0106000D01*
X0006300Y0137000D01*
X0037300Y0137000D01*
X0037300Y0106000D01*
X0030845Y0103503D02*
X0030845Y0100501D01*
X0030094Y0099750D01*
X0028593Y0099750D01*
X0027842Y0100501D01*
X0027842Y0103503D01*
X0028593Y0104254D01*
X0030094Y0104254D01*
X0030845Y0103503D01*
X0026241Y0104254D02*
X0026241Y0099750D01*
X0023238Y0099750D02*
X0023238Y0104254D01*
X0024739Y0102753D01*
X0026241Y0104254D01*
X0021637Y0104254D02*
X0021637Y0101251D01*
X0020136Y0099750D01*
X0018634Y0101251D01*
X0018634Y0104254D01*
X0006300Y0137000D02*
X0006300Y0168000D01*
X0037300Y0168000D01*
X0037300Y0137000D01*
X0140050Y0170250D02*
X0140050Y0174754D01*
X0142302Y0174754D01*
X0143053Y0174003D01*
X0143053Y0172502D01*
X0142302Y0171751D01*
X0140050Y0171751D01*
X0141551Y0171751D02*
X0143053Y0170250D01*
X0144654Y0170250D02*
X0147656Y0170250D01*
X0146155Y0170250D02*
X0146155Y0174754D01*
X0144654Y0173253D01*
X0152050Y0174754D02*
X0152050Y0170250D01*
X0152050Y0171751D02*
X0154302Y0171751D01*
X0155053Y0172502D01*
X0155053Y0174003D01*
X0154302Y0174754D01*
X0152050Y0174754D01*
X0153551Y0171751D02*
X0155053Y0170250D01*
X0156654Y0170250D02*
X0159656Y0173253D01*
X0159656Y0174003D01*
X0158906Y0174754D01*
X0157405Y0174754D01*
X0156654Y0174003D01*
X0156654Y0170250D02*
X0159656Y0170250D01*
X0230297Y0031649D02*
X0231047Y0031649D01*
X0231798Y0030898D01*
X0231798Y0028646D01*
X0229546Y0028646D02*
X0229546Y0030898D01*
X0230297Y0031649D01*
X0231798Y0030898D02*
X0232549Y0031649D01*
X0233299Y0031649D01*
X0234050Y0030898D01*
X0234050Y0028646D01*
X0229546Y0028646D01*
X0229546Y0027045D02*
X0229546Y0024042D01*
X0229546Y0025543D02*
X0234050Y0025543D01*
X0233299Y0022441D02*
X0230297Y0022441D01*
X0229546Y0021690D01*
X0229546Y0020189D01*
X0230297Y0019438D01*
X0233299Y0019438D01*
X0234050Y0020189D01*
X0234050Y0021690D01*
X0233299Y0022441D01*
X0234050Y0017837D02*
X0229546Y0017837D01*
X0231047Y0016336D01*
X0229546Y0014834D01*
X0234050Y0014834D01*
D14*
X0084900Y0029100D02*
X0061300Y0029098D01*
X0061300Y0054902D01*
X0084900Y0054900D01*
X0080855Y0071291D02*
X0062745Y0071291D01*
X0062745Y0071882D01*
X0062745Y0082118D02*
X0062745Y0082709D01*
X0080855Y0082709D01*
X0080855Y0082118D01*
X0074162Y0080937D02*
X0074162Y0073063D01*
X0080855Y0071882D02*
X0080855Y0071291D01*
D15*
X0109723Y0097200D02*
X0111257Y0097200D01*
X0110490Y0097200D02*
X0110490Y0101804D01*
X0109723Y0101804D02*
X0111257Y0101804D01*
X0112792Y0101037D02*
X0112792Y0097967D01*
X0113559Y0097200D01*
X0115094Y0097200D01*
X0115861Y0097967D01*
X0117396Y0097200D02*
X0120465Y0097200D01*
X0118931Y0097200D02*
X0118931Y0101804D01*
X0117396Y0100269D01*
X0115861Y0101037D02*
X0115094Y0101804D01*
X0113559Y0101804D01*
X0112792Y0101037D01*
X0122996Y0092581D02*
X0126065Y0089512D01*
X0125298Y0090279D02*
X0127600Y0092581D01*
X0127600Y0089512D02*
X0122996Y0089512D01*
X0123763Y0087977D02*
X0126833Y0084908D01*
X0127600Y0085675D01*
X0127600Y0087210D01*
X0126833Y0087977D01*
X0123763Y0087977D01*
X0122996Y0087210D01*
X0122996Y0085675D01*
X0123763Y0084908D01*
X0126833Y0084908D01*
X0126833Y0083373D02*
X0123763Y0083373D01*
X0126833Y0080304D01*
X0127600Y0081071D01*
X0127600Y0082606D01*
X0126833Y0083373D01*
X0123763Y0083373D02*
X0122996Y0082606D01*
X0122996Y0081071D01*
X0123763Y0080304D01*
X0126833Y0080304D01*
X0127600Y0078769D02*
X0127600Y0075700D01*
X0127600Y0077235D02*
X0122996Y0077235D01*
X0124531Y0075700D01*
X0137792Y0075200D02*
X0140861Y0075200D01*
X0139327Y0075200D02*
X0139327Y0079804D01*
X0137792Y0078269D01*
X0142396Y0076735D02*
X0145465Y0079804D01*
X0143163Y0077502D02*
X0145465Y0075200D01*
X0142396Y0075200D02*
X0142396Y0079804D01*
X0155292Y0085200D02*
X0158361Y0085200D01*
X0156827Y0085200D02*
X0156827Y0089804D01*
X0155292Y0088269D01*
X0159896Y0086735D02*
X0162965Y0089804D01*
X0159896Y0089804D02*
X0159896Y0085200D01*
X0160663Y0087502D02*
X0162965Y0085200D01*
X0162965Y0069804D02*
X0159896Y0066735D01*
X0160663Y0067502D02*
X0162965Y0065200D01*
X0159896Y0065200D02*
X0159896Y0069804D01*
X0156827Y0069804D02*
X0156827Y0065200D01*
X0158361Y0065200D02*
X0155292Y0065200D01*
X0155292Y0068269D02*
X0156827Y0069804D01*
X0131277Y0059804D02*
X0128208Y0056735D01*
X0128975Y0057502D02*
X0131277Y0055200D01*
X0128208Y0055200D02*
X0128208Y0059804D01*
X0126673Y0059037D02*
X0123604Y0055967D01*
X0124371Y0055200D01*
X0125906Y0055200D01*
X0126673Y0055967D01*
X0126673Y0059037D01*
X0125906Y0059804D01*
X0124371Y0059804D01*
X0123604Y0059037D01*
X0123604Y0055967D01*
X0122069Y0055200D02*
X0119000Y0055200D01*
X0120535Y0055200D02*
X0120535Y0059804D01*
X0119000Y0058269D01*
X0117496Y0044665D02*
X0120565Y0041596D01*
X0119798Y0042363D02*
X0122100Y0044665D01*
X0122100Y0041596D02*
X0117496Y0041596D01*
X0117496Y0040061D02*
X0117496Y0036992D01*
X0119798Y0036992D01*
X0119031Y0038527D01*
X0119031Y0039294D01*
X0119798Y0040061D01*
X0121333Y0040061D01*
X0122100Y0039294D01*
X0122100Y0037759D01*
X0121333Y0036992D01*
X0121333Y0035457D02*
X0122100Y0035457D01*
X0122100Y0034690D01*
X0121333Y0034690D01*
X0121333Y0035457D01*
X0122100Y0033156D02*
X0122100Y0030086D01*
X0122100Y0031621D02*
X0117496Y0031621D01*
X0119031Y0030086D01*
X0119138Y0025804D02*
X0118371Y0025037D01*
X0119138Y0025804D02*
X0120673Y0025804D01*
X0121440Y0025037D01*
X0121440Y0024269D01*
X0118371Y0021200D01*
X0121440Y0021200D01*
X0122975Y0021967D02*
X0123742Y0021200D01*
X0125277Y0021200D01*
X0126044Y0021967D01*
X0126044Y0023502D01*
X0125277Y0024269D01*
X0124509Y0024269D01*
X0122975Y0023502D01*
X0122975Y0025804D01*
X0126044Y0025804D01*
X0127578Y0025037D02*
X0128346Y0025804D01*
X0129880Y0025804D01*
X0130648Y0025037D01*
X0130648Y0024269D01*
X0127578Y0021200D01*
X0130648Y0021200D01*
X0116836Y0021967D02*
X0116069Y0021200D01*
X0114534Y0021200D01*
X0113767Y0021967D01*
X0113767Y0025037D01*
X0114534Y0025804D01*
X0116069Y0025804D01*
X0116836Y0025037D01*
X0116836Y0021967D01*
X0112232Y0025804D02*
X0109163Y0025804D01*
X0110697Y0025804D02*
X0110697Y0021200D01*
X0106094Y0021200D02*
X0106094Y0025804D01*
X0107628Y0025804D02*
X0104559Y0025804D01*
X0103024Y0025804D02*
X0099955Y0025804D01*
X0099955Y0021200D01*
X0103024Y0021200D01*
X0101490Y0023502D02*
X0099955Y0023502D01*
X0098420Y0025804D02*
X0095351Y0025804D01*
X0095351Y0021200D01*
X0093816Y0021967D02*
X0093049Y0021200D01*
X0091514Y0021200D01*
X0090747Y0021967D01*
X0089212Y0021967D02*
X0088445Y0021200D01*
X0086910Y0021200D01*
X0086143Y0021967D01*
X0086143Y0025037D01*
X0086910Y0025804D01*
X0088445Y0025804D01*
X0089212Y0025037D01*
X0089212Y0021967D01*
X0090747Y0024269D02*
X0091514Y0023502D01*
X0093049Y0023502D01*
X0093816Y0022735D01*
X0093816Y0021967D01*
X0095351Y0023502D02*
X0096886Y0023502D01*
X0093816Y0025037D02*
X0093049Y0025804D01*
X0091514Y0025804D01*
X0090747Y0025037D01*
X0090747Y0024269D01*
X0084609Y0025804D02*
X0084609Y0021200D01*
X0081539Y0021200D02*
X0081539Y0025804D01*
X0083074Y0024269D01*
X0084609Y0025804D01*
X0080005Y0023502D02*
X0076935Y0023502D01*
X0075401Y0021200D02*
X0072331Y0021200D01*
X0072331Y0025804D01*
X0070797Y0025804D02*
X0067727Y0025804D01*
X0067727Y0021200D01*
X0070797Y0021200D01*
X0069262Y0023502D02*
X0067727Y0023502D01*
X0066193Y0021200D02*
X0066193Y0025804D01*
X0063124Y0025804D02*
X0066193Y0021200D01*
X0063124Y0021200D02*
X0063124Y0025804D01*
X0061589Y0025804D02*
X0061589Y0021200D01*
X0058520Y0025804D01*
X0058520Y0021200D01*
X0056985Y0021200D02*
X0056985Y0024269D01*
X0055450Y0025804D01*
X0053916Y0024269D01*
X0053916Y0021200D01*
X0052381Y0021200D02*
X0052381Y0025804D01*
X0052381Y0023502D02*
X0049312Y0023502D01*
X0047777Y0025037D02*
X0047010Y0025804D01*
X0045475Y0025804D01*
X0044708Y0025037D01*
X0044708Y0021967D01*
X0045475Y0021200D01*
X0047010Y0021200D01*
X0047777Y0021967D01*
X0049312Y0021200D02*
X0049312Y0025804D01*
X0053916Y0023502D02*
X0056985Y0023502D01*
X0043173Y0023502D02*
X0040104Y0023502D01*
X0038569Y0021200D02*
X0038569Y0025804D01*
X0035500Y0025804D02*
X0038569Y0021200D01*
X0035500Y0021200D02*
X0035500Y0025804D01*
X0154496Y0020977D02*
X0157565Y0017908D01*
X0156798Y0018675D02*
X0159100Y0020977D01*
X0159100Y0017908D02*
X0154496Y0017908D01*
X0155263Y0016373D02*
X0158333Y0013304D01*
X0159100Y0014071D01*
X0159100Y0015606D01*
X0158333Y0016373D01*
X0155263Y0016373D01*
X0154496Y0015606D01*
X0154496Y0014071D01*
X0155263Y0013304D01*
X0158333Y0013304D01*
X0159100Y0011769D02*
X0159100Y0008700D01*
X0159100Y0010235D02*
X0154496Y0010235D01*
X0156031Y0008700D01*
X0155292Y0045200D02*
X0158361Y0045200D01*
X0156827Y0045200D02*
X0156827Y0049804D01*
X0155292Y0048269D01*
X0159896Y0046735D02*
X0162965Y0049804D01*
X0159896Y0049804D02*
X0159896Y0045200D01*
X0160663Y0047502D02*
X0162965Y0045200D01*
X0199496Y0060294D02*
X0203333Y0060294D01*
X0204100Y0061061D01*
X0204100Y0062596D01*
X0203333Y0063363D01*
X0199496Y0063363D01*
X0200263Y0064898D02*
X0199496Y0065665D01*
X0199496Y0067200D01*
X0200263Y0067967D01*
X0201798Y0067200D02*
X0201798Y0065665D01*
X0201031Y0064898D01*
X0200263Y0064898D01*
X0198729Y0066433D02*
X0204867Y0066433D01*
X0204100Y0067200D02*
X0203333Y0067967D01*
X0202565Y0067967D01*
X0201798Y0067200D01*
X0204100Y0067200D02*
X0204100Y0065665D01*
X0203333Y0064898D01*
X0204100Y0069502D02*
X0204100Y0072571D01*
X0204100Y0071037D02*
X0199496Y0071037D01*
X0201031Y0069502D01*
X0197333Y0093200D02*
X0198100Y0093967D01*
X0198100Y0095502D01*
X0197333Y0096269D01*
X0196565Y0096269D01*
X0195798Y0095502D01*
X0195798Y0094735D01*
X0195798Y0095502D02*
X0195031Y0096269D01*
X0194263Y0096269D01*
X0193496Y0095502D01*
X0193496Y0093967D01*
X0194263Y0093200D01*
X0194263Y0097804D02*
X0193496Y0098571D01*
X0193496Y0100106D01*
X0194263Y0100873D01*
X0195031Y0100873D01*
X0195798Y0100106D01*
X0196565Y0100873D01*
X0197333Y0100873D01*
X0198100Y0100106D01*
X0198100Y0098571D01*
X0197333Y0097804D01*
X0195798Y0099339D02*
X0195798Y0100106D01*
X0194263Y0102408D02*
X0193496Y0103175D01*
X0193496Y0104710D01*
X0194263Y0105477D01*
X0197333Y0102408D01*
X0198100Y0103175D01*
X0198100Y0104710D01*
X0197333Y0105477D01*
X0194263Y0105477D01*
X0194263Y0102408D02*
X0197333Y0102408D01*
X0162465Y0132200D02*
X0160163Y0134502D01*
X0159396Y0133735D02*
X0162465Y0136804D01*
X0159396Y0136804D02*
X0159396Y0132200D01*
X0157861Y0132200D02*
X0154792Y0132200D01*
X0156327Y0132200D02*
X0156327Y0136804D01*
X0154792Y0135269D01*
X0150298Y0154200D02*
X0150298Y0157269D01*
X0151833Y0158804D02*
X0151833Y0159571D01*
X0152600Y0159571D01*
X0152600Y0158804D01*
X0151833Y0158804D01*
X0152600Y0156502D02*
X0147996Y0156502D01*
X0150298Y0154200D01*
X0151833Y0161106D02*
X0152600Y0161106D01*
X0151833Y0161106D02*
X0148763Y0164175D01*
X0147996Y0164175D01*
X0147996Y0161106D01*
X0147996Y0165710D02*
X0152600Y0165710D01*
X0151065Y0165710D02*
X0147996Y0168779D01*
X0150298Y0166477D02*
X0152600Y0168779D01*
X0140100Y0168665D02*
X0137798Y0166363D01*
X0138565Y0165596D02*
X0135496Y0168665D01*
X0135496Y0165596D02*
X0140100Y0165596D01*
X0136263Y0164061D02*
X0139333Y0160992D01*
X0140100Y0160992D01*
X0140100Y0159457D02*
X0140100Y0158690D01*
X0139333Y0158690D01*
X0139333Y0159457D01*
X0140100Y0159457D01*
X0135496Y0160992D02*
X0135496Y0164061D01*
X0136263Y0164061D01*
X0137798Y0157156D02*
X0137798Y0154086D01*
X0135496Y0156388D01*
X0140100Y0156388D01*
X0114965Y0171967D02*
X0114965Y0175037D01*
X0111896Y0171967D01*
X0112663Y0171200D01*
X0114198Y0171200D01*
X0114965Y0171967D01*
X0111896Y0171967D02*
X0111896Y0175037D01*
X0112663Y0175804D01*
X0114198Y0175804D01*
X0114965Y0175037D01*
X0110361Y0175037D02*
X0110361Y0174269D01*
X0109594Y0173502D01*
X0110361Y0172735D01*
X0110361Y0171967D01*
X0109594Y0171200D01*
X0108059Y0171200D01*
X0107292Y0171967D01*
X0105757Y0173502D02*
X0105757Y0175037D01*
X0104990Y0175804D01*
X0102688Y0175804D01*
X0102688Y0171200D01*
X0102688Y0172735D02*
X0104990Y0172735D01*
X0105757Y0173502D01*
X0107292Y0175037D02*
X0108059Y0175804D01*
X0109594Y0175804D01*
X0110361Y0175037D01*
X0109594Y0173502D02*
X0108827Y0173502D01*
X0101154Y0172735D02*
X0101154Y0171967D01*
X0100386Y0171200D01*
X0098852Y0171200D01*
X0098084Y0171967D01*
X0096550Y0171200D02*
X0093480Y0171200D01*
X0096550Y0174269D01*
X0096550Y0175037D01*
X0095782Y0175804D01*
X0094248Y0175804D01*
X0093480Y0175037D01*
X0091946Y0175804D02*
X0091946Y0171200D01*
X0091946Y0173502D02*
X0088876Y0173502D01*
X0088876Y0171200D02*
X0088876Y0175804D01*
X0087342Y0175804D02*
X0087342Y0171200D01*
X0084272Y0175804D01*
X0084272Y0171200D01*
X0082738Y0172735D02*
X0082738Y0175804D01*
X0082738Y0172735D02*
X0081203Y0171200D01*
X0079669Y0172735D01*
X0079669Y0175804D01*
X0098084Y0175037D02*
X0098084Y0174269D01*
X0098852Y0173502D01*
X0100386Y0173502D01*
X0101154Y0172735D01*
X0101154Y0175037D02*
X0100386Y0175804D01*
X0098852Y0175804D01*
X0098084Y0175037D01*
D16*
X0186950Y0165853D02*
X0186950Y0162150D01*
X0189419Y0162150D02*
X0189419Y0165853D01*
X0188184Y0164619D01*
X0186950Y0165853D01*
X0190633Y0164619D02*
X0191250Y0164619D01*
X0191250Y0162150D01*
X0190633Y0162150D02*
X0191868Y0162150D01*
X0193089Y0162767D02*
X0193706Y0162150D01*
X0195557Y0162150D01*
X0196772Y0162150D02*
X0196772Y0164619D01*
X0195557Y0164619D02*
X0193706Y0164619D01*
X0193089Y0164002D01*
X0193089Y0162767D01*
X0191250Y0165853D02*
X0191250Y0166470D01*
X0196772Y0163384D02*
X0198006Y0164619D01*
X0198623Y0164619D01*
X0199841Y0164002D02*
X0199841Y0162767D01*
X0200458Y0162150D01*
X0201693Y0162150D01*
X0202310Y0162767D01*
X0202310Y0164002D01*
X0201693Y0164619D01*
X0200458Y0164619D01*
X0199841Y0164002D01*
X0207207Y0162767D02*
X0207824Y0162150D01*
X0209059Y0162150D01*
X0209676Y0162767D01*
X0209676Y0165853D01*
X0210890Y0165236D02*
X0210890Y0164619D01*
X0211508Y0164002D01*
X0212742Y0164002D01*
X0213359Y0163384D01*
X0213359Y0162767D01*
X0212742Y0162150D01*
X0211508Y0162150D01*
X0210890Y0162767D01*
X0214574Y0162150D02*
X0216425Y0162150D01*
X0217042Y0162767D01*
X0217042Y0163384D01*
X0216425Y0164002D01*
X0214574Y0164002D01*
X0213359Y0165236D02*
X0212742Y0165853D01*
X0211508Y0165853D01*
X0210890Y0165236D01*
X0214574Y0165853D02*
X0216425Y0165853D01*
X0217042Y0165236D01*
X0217042Y0164619D01*
X0216425Y0164002D01*
X0214574Y0165853D02*
X0214574Y0162150D01*
X0207207Y0162767D02*
X0207207Y0165853D01*
X0210380Y0028551D02*
X0211300Y0027331D01*
X0213111Y0027331D01*
X0212160Y0028551D02*
X0211400Y0027391D01*
X0211300Y0027331D02*
X0209489Y0027331D01*
X0210400Y0028550D02*
X0212150Y0028550D01*
X0222489Y0027331D02*
X0224300Y0027331D01*
X0223380Y0028551D01*
X0223400Y0028550D02*
X0225150Y0028550D01*
X0225160Y0028551D02*
X0224400Y0027391D01*
X0224300Y0027331D02*
X0226111Y0027331D01*
X0200111Y0027331D02*
X0198300Y0027331D01*
X0197380Y0028551D01*
X0197400Y0028550D02*
X0199150Y0028550D01*
X0199160Y0028551D02*
X0198400Y0027391D01*
X0198300Y0027331D02*
X0196489Y0027331D01*
X0186611Y0027331D02*
X0184800Y0027331D01*
X0183880Y0028551D01*
X0183900Y0028550D02*
X0185650Y0028550D01*
X0185660Y0028551D02*
X0184900Y0027391D01*
X0184800Y0027331D02*
X0182989Y0027331D01*
D17*
X0059400Y0042000D03*
M02*
