G04 EAGLE Gerber RS-274X export*
G75*
%MOMM*%
%FSLAX34Y34*%
%LPD*%
%INSoldermask Bottom*%
%IPPOS*%
%AMOC8*
5,1,8,0,0,1.08239X$1,22.5*%
G01*
%ADD10C,2.133600*%
%ADD11C,1.930400*%
%ADD12C,2.895600*%
%ADD13C,0.909600*%
%ADD14C,4.445000*%
%ADD15C,3.556000*%


D10*
X180340Y51750D03*
X205740Y51750D03*
X231140Y51750D03*
X256540Y51750D03*
X358600Y50480D03*
X384000Y50480D03*
X409400Y50480D03*
X434800Y50480D03*
D11*
X70100Y560798D03*
X95100Y560798D03*
X95100Y580610D03*
X70100Y580610D03*
D12*
X22402Y607788D03*
X142798Y607788D03*
D11*
X33020Y43340D03*
X58420Y43340D03*
X83820Y43340D03*
X33020Y68740D03*
X58420Y68740D03*
X83820Y68740D03*
D13*
X499440Y459750D03*
X514680Y459750D03*
X499440Y449590D03*
X514680Y449590D03*
X499440Y439430D03*
X514680Y439430D03*
X501980Y219720D03*
X517220Y219720D03*
X501980Y209560D03*
X517220Y209560D03*
X501980Y199400D03*
X517220Y199400D03*
D14*
X613386Y240574D03*
X613386Y161834D03*
D15*
X100000Y300000D03*
X610000Y60000D03*
X210000Y670000D03*
D14*
X613256Y468894D03*
X613256Y390154D03*
X591768Y670640D03*
X513028Y670640D03*
M02*
