M48
; DRILL file {KiCad 7.0.7} date Wed Nov 15 20:07:24 2023
; FORMAT={-:-/ absolute / metric / decimal}
; #@! TF.CreationDate,2023-11-15T20:07:24-08:00
; #@! TF.GenerationSoftware,Kicad,Pcbnew,7.0.7
; #@! TF.FileFunction,Plated,1,2,PTH
FMAT,2
METRIC
; #@! TA.AperFunction,Plated,PTH,ComponentDrill
T1C0.950
; #@! TA.AperFunction,Plated,PTH,ComponentDrill
T2C1.100
; #@! TA.AperFunction,Plated,PTH,ComponentDrill
T3C2.300
%
G90
G05
T1
X155.22Y-110.8
X155.22Y-113.3
X155.22Y-115.3
X155.22Y-117.8
T2
X146.05Y-88.615
X146.05Y-103.855
X148.59Y-88.615
X148.59Y-103.855
X151.13Y-88.615
X151.13Y-103.855
X153.67Y-88.615
X153.67Y-103.855
X156.21Y-88.615
X156.21Y-103.855
X158.75Y-88.615
X158.75Y-103.855
X161.29Y-88.615
X161.29Y-103.855
X163.83Y-88.615
X163.83Y-103.855
X164.96Y-118.11
X165.0Y-110.49
X166.37Y-88.615
X166.37Y-103.855
X167.46Y-118.11
X167.5Y-110.49
X168.91Y-88.615
X168.91Y-103.855
X169.96Y-118.11
X170.0Y-110.49
X171.45Y-88.615
X171.45Y-103.855
X173.99Y-88.615
X173.99Y-103.855
T3
X152.51Y-107.73
X152.51Y-120.87
T0
M30
