%TF.GenerationSoftware,KiCad,Pcbnew,7.0.7*%
%TF.CreationDate,2023-11-15T19:42:13-08:00*%
%TF.ProjectId,servocontrollerproject,73657276-6f63-46f6-9e74-726f6c6c6572,rev?*%
%TF.SameCoordinates,Original*%
%TF.FileFunction,Drillmap*%
%TF.FilePolarity,Positive*%
%FSLAX45Y45*%
G04 Gerber Fmt 4.5, Leading zero omitted, Abs format (unit mm)*
G04 Created by KiCad (PCBNEW 7.0.7) date 2023-11-15 19:42:14*
%MOMM*%
%LPD*%
G01*
G04 APERTURE LIST*
%ADD10C,0.100000*%
%ADD11C,0.200000*%
%ADD12C,0.095000*%
%ADD13C,0.110000*%
%ADD14C,0.230000*%
G04 APERTURE END LIST*
D10*
X13550000Y-8100000D02*
X18350000Y-8100000D01*
X18350000Y-12900000D01*
X13550000Y-12900000D01*
X13550000Y-8100000D01*
X14150000Y-8550000D02*
G75*
G03*
X14150000Y-8550000I-200000J0D01*
G01*
X18050000Y-8550000D02*
G75*
G03*
X18050000Y-8550000I-200000J0D01*
G01*
X18050000Y-12500000D02*
G75*
G03*
X18050000Y-12500000I-200000J0D01*
G01*
X14150000Y-12500000D02*
G75*
G03*
X14150000Y-12500000I-200000J0D01*
G01*
D11*
D12*
X15474500Y-11032500D02*
X15569500Y-11127500D01*
X15569500Y-11032500D02*
X15474500Y-11127500D01*
X15474500Y-11282500D02*
X15569500Y-11377500D01*
X15569500Y-11282500D02*
X15474500Y-11377500D01*
X15474500Y-11482500D02*
X15569500Y-11577500D01*
X15569500Y-11482500D02*
X15474500Y-11577500D01*
X15474500Y-11732500D02*
X15569500Y-11827500D01*
X15569500Y-11732500D02*
X15474500Y-11827500D01*
D13*
X14660000Y-8861500D02*
G75*
G03*
X14660000Y-8861500I-55000J0D01*
G01*
X14660000Y-10385500D02*
G75*
G03*
X14660000Y-10385500I-55000J0D01*
G01*
X14914000Y-8861500D02*
G75*
G03*
X14914000Y-8861500I-55000J0D01*
G01*
X14914000Y-10385500D02*
G75*
G03*
X14914000Y-10385500I-55000J0D01*
G01*
X15168000Y-8861500D02*
G75*
G03*
X15168000Y-8861500I-55000J0D01*
G01*
X15168000Y-10385500D02*
G75*
G03*
X15168000Y-10385500I-55000J0D01*
G01*
X15422000Y-8861500D02*
G75*
G03*
X15422000Y-8861500I-55000J0D01*
G01*
X15422000Y-10385500D02*
G75*
G03*
X15422000Y-10385500I-55000J0D01*
G01*
X15676000Y-8861500D02*
G75*
G03*
X15676000Y-8861500I-55000J0D01*
G01*
X15676000Y-10385500D02*
G75*
G03*
X15676000Y-10385500I-55000J0D01*
G01*
X15930000Y-8861500D02*
G75*
G03*
X15930000Y-8861500I-55000J0D01*
G01*
X15930000Y-10385500D02*
G75*
G03*
X15930000Y-10385500I-55000J0D01*
G01*
X16184000Y-8861500D02*
G75*
G03*
X16184000Y-8861500I-55000J0D01*
G01*
X16184000Y-10385500D02*
G75*
G03*
X16184000Y-10385500I-55000J0D01*
G01*
X16438000Y-8861500D02*
G75*
G03*
X16438000Y-8861500I-55000J0D01*
G01*
X16438000Y-10385500D02*
G75*
G03*
X16438000Y-10385500I-55000J0D01*
G01*
X16551000Y-11811000D02*
G75*
G03*
X16551000Y-11811000I-55000J0D01*
G01*
X16555000Y-11049000D02*
G75*
G03*
X16555000Y-11049000I-55000J0D01*
G01*
X16692000Y-8861500D02*
G75*
G03*
X16692000Y-8861500I-55000J0D01*
G01*
X16692000Y-10385500D02*
G75*
G03*
X16692000Y-10385500I-55000J0D01*
G01*
X16801000Y-11811000D02*
G75*
G03*
X16801000Y-11811000I-55000J0D01*
G01*
X16805000Y-11049000D02*
G75*
G03*
X16805000Y-11049000I-55000J0D01*
G01*
X16946000Y-8861500D02*
G75*
G03*
X16946000Y-8861500I-55000J0D01*
G01*
X16946000Y-10385500D02*
G75*
G03*
X16946000Y-10385500I-55000J0D01*
G01*
X17051000Y-11811000D02*
G75*
G03*
X17051000Y-11811000I-55000J0D01*
G01*
X17055000Y-11049000D02*
G75*
G03*
X17055000Y-11049000I-55000J0D01*
G01*
X17200000Y-8861500D02*
G75*
G03*
X17200000Y-8861500I-55000J0D01*
G01*
X17200000Y-10385500D02*
G75*
G03*
X17200000Y-10385500I-55000J0D01*
G01*
X17454000Y-8861500D02*
G75*
G03*
X17454000Y-8861500I-55000J0D01*
G01*
X17454000Y-10385500D02*
G75*
G03*
X17454000Y-10385500I-55000J0D01*
G01*
D14*
X15251000Y-10658000D02*
X15251000Y-10888000D01*
X15136000Y-10773000D02*
X15366000Y-10773000D01*
X15251000Y-11972000D02*
X15251000Y-12202000D01*
X15136000Y-12087000D02*
X15366000Y-12087000D01*
D11*
X13805777Y-13216484D02*
X13805777Y-13016484D01*
X13805777Y-13016484D02*
X13853396Y-13016484D01*
X13853396Y-13016484D02*
X13881967Y-13026008D01*
X13881967Y-13026008D02*
X13901015Y-13045055D01*
X13901015Y-13045055D02*
X13910539Y-13064103D01*
X13910539Y-13064103D02*
X13920062Y-13102198D01*
X13920062Y-13102198D02*
X13920062Y-13130769D01*
X13920062Y-13130769D02*
X13910539Y-13168865D01*
X13910539Y-13168865D02*
X13901015Y-13187912D01*
X13901015Y-13187912D02*
X13881967Y-13206960D01*
X13881967Y-13206960D02*
X13853396Y-13216484D01*
X13853396Y-13216484D02*
X13805777Y-13216484D01*
X14005777Y-13216484D02*
X14005777Y-13083150D01*
X14005777Y-13121246D02*
X14015301Y-13102198D01*
X14015301Y-13102198D02*
X14024824Y-13092674D01*
X14024824Y-13092674D02*
X14043872Y-13083150D01*
X14043872Y-13083150D02*
X14062920Y-13083150D01*
X14129586Y-13216484D02*
X14129586Y-13083150D01*
X14129586Y-13016484D02*
X14120062Y-13026008D01*
X14120062Y-13026008D02*
X14129586Y-13035531D01*
X14129586Y-13035531D02*
X14139110Y-13026008D01*
X14139110Y-13026008D02*
X14129586Y-13016484D01*
X14129586Y-13016484D02*
X14129586Y-13035531D01*
X14253396Y-13216484D02*
X14234348Y-13206960D01*
X14234348Y-13206960D02*
X14224824Y-13187912D01*
X14224824Y-13187912D02*
X14224824Y-13016484D01*
X14358158Y-13216484D02*
X14339110Y-13206960D01*
X14339110Y-13206960D02*
X14329586Y-13187912D01*
X14329586Y-13187912D02*
X14329586Y-13016484D01*
X14586729Y-13216484D02*
X14586729Y-13016484D01*
X14586729Y-13016484D02*
X14653396Y-13159341D01*
X14653396Y-13159341D02*
X14720062Y-13016484D01*
X14720062Y-13016484D02*
X14720062Y-13216484D01*
X14901015Y-13216484D02*
X14901015Y-13111722D01*
X14901015Y-13111722D02*
X14891491Y-13092674D01*
X14891491Y-13092674D02*
X14872443Y-13083150D01*
X14872443Y-13083150D02*
X14834348Y-13083150D01*
X14834348Y-13083150D02*
X14815301Y-13092674D01*
X14901015Y-13206960D02*
X14881967Y-13216484D01*
X14881967Y-13216484D02*
X14834348Y-13216484D01*
X14834348Y-13216484D02*
X14815301Y-13206960D01*
X14815301Y-13206960D02*
X14805777Y-13187912D01*
X14805777Y-13187912D02*
X14805777Y-13168865D01*
X14805777Y-13168865D02*
X14815301Y-13149817D01*
X14815301Y-13149817D02*
X14834348Y-13140293D01*
X14834348Y-13140293D02*
X14881967Y-13140293D01*
X14881967Y-13140293D02*
X14901015Y-13130769D01*
X14996253Y-13083150D02*
X14996253Y-13283150D01*
X14996253Y-13092674D02*
X15015301Y-13083150D01*
X15015301Y-13083150D02*
X15053396Y-13083150D01*
X15053396Y-13083150D02*
X15072443Y-13092674D01*
X15072443Y-13092674D02*
X15081967Y-13102198D01*
X15081967Y-13102198D02*
X15091491Y-13121246D01*
X15091491Y-13121246D02*
X15091491Y-13178388D01*
X15091491Y-13178388D02*
X15081967Y-13197436D01*
X15081967Y-13197436D02*
X15072443Y-13206960D01*
X15072443Y-13206960D02*
X15053396Y-13216484D01*
X15053396Y-13216484D02*
X15015301Y-13216484D01*
X15015301Y-13216484D02*
X14996253Y-13206960D01*
X15177205Y-13197436D02*
X15186729Y-13206960D01*
X15186729Y-13206960D02*
X15177205Y-13216484D01*
X15177205Y-13216484D02*
X15167682Y-13206960D01*
X15167682Y-13206960D02*
X15177205Y-13197436D01*
X15177205Y-13197436D02*
X15177205Y-13216484D01*
X15177205Y-13092674D02*
X15186729Y-13102198D01*
X15186729Y-13102198D02*
X15177205Y-13111722D01*
X15177205Y-13111722D02*
X15167682Y-13102198D01*
X15167682Y-13102198D02*
X15177205Y-13092674D01*
X15177205Y-13092674D02*
X15177205Y-13111722D01*
D12*
X13450000Y-13497500D02*
X13545000Y-13592500D01*
X13545000Y-13497500D02*
X13450000Y-13592500D01*
D11*
X13843872Y-13436484D02*
X13862920Y-13436484D01*
X13862920Y-13436484D02*
X13881967Y-13446008D01*
X13881967Y-13446008D02*
X13891491Y-13455531D01*
X13891491Y-13455531D02*
X13901015Y-13474579D01*
X13901015Y-13474579D02*
X13910539Y-13512674D01*
X13910539Y-13512674D02*
X13910539Y-13560293D01*
X13910539Y-13560293D02*
X13901015Y-13598388D01*
X13901015Y-13598388D02*
X13891491Y-13617436D01*
X13891491Y-13617436D02*
X13881967Y-13626960D01*
X13881967Y-13626960D02*
X13862920Y-13636484D01*
X13862920Y-13636484D02*
X13843872Y-13636484D01*
X13843872Y-13636484D02*
X13824824Y-13626960D01*
X13824824Y-13626960D02*
X13815301Y-13617436D01*
X13815301Y-13617436D02*
X13805777Y-13598388D01*
X13805777Y-13598388D02*
X13796253Y-13560293D01*
X13796253Y-13560293D02*
X13796253Y-13512674D01*
X13796253Y-13512674D02*
X13805777Y-13474579D01*
X13805777Y-13474579D02*
X13815301Y-13455531D01*
X13815301Y-13455531D02*
X13824824Y-13446008D01*
X13824824Y-13446008D02*
X13843872Y-13436484D01*
X13996253Y-13617436D02*
X14005777Y-13626960D01*
X14005777Y-13626960D02*
X13996253Y-13636484D01*
X13996253Y-13636484D02*
X13986729Y-13626960D01*
X13986729Y-13626960D02*
X13996253Y-13617436D01*
X13996253Y-13617436D02*
X13996253Y-13636484D01*
X14101015Y-13636484D02*
X14139110Y-13636484D01*
X14139110Y-13636484D02*
X14158158Y-13626960D01*
X14158158Y-13626960D02*
X14167682Y-13617436D01*
X14167682Y-13617436D02*
X14186729Y-13588865D01*
X14186729Y-13588865D02*
X14196253Y-13550769D01*
X14196253Y-13550769D02*
X14196253Y-13474579D01*
X14196253Y-13474579D02*
X14186729Y-13455531D01*
X14186729Y-13455531D02*
X14177205Y-13446008D01*
X14177205Y-13446008D02*
X14158158Y-13436484D01*
X14158158Y-13436484D02*
X14120062Y-13436484D01*
X14120062Y-13436484D02*
X14101015Y-13446008D01*
X14101015Y-13446008D02*
X14091491Y-13455531D01*
X14091491Y-13455531D02*
X14081967Y-13474579D01*
X14081967Y-13474579D02*
X14081967Y-13522198D01*
X14081967Y-13522198D02*
X14091491Y-13541246D01*
X14091491Y-13541246D02*
X14101015Y-13550769D01*
X14101015Y-13550769D02*
X14120062Y-13560293D01*
X14120062Y-13560293D02*
X14158158Y-13560293D01*
X14158158Y-13560293D02*
X14177205Y-13550769D01*
X14177205Y-13550769D02*
X14186729Y-13541246D01*
X14186729Y-13541246D02*
X14196253Y-13522198D01*
X14377205Y-13436484D02*
X14281967Y-13436484D01*
X14281967Y-13436484D02*
X14272443Y-13531722D01*
X14272443Y-13531722D02*
X14281967Y-13522198D01*
X14281967Y-13522198D02*
X14301015Y-13512674D01*
X14301015Y-13512674D02*
X14348634Y-13512674D01*
X14348634Y-13512674D02*
X14367682Y-13522198D01*
X14367682Y-13522198D02*
X14377205Y-13531722D01*
X14377205Y-13531722D02*
X14386729Y-13550769D01*
X14386729Y-13550769D02*
X14386729Y-13598388D01*
X14386729Y-13598388D02*
X14377205Y-13617436D01*
X14377205Y-13617436D02*
X14367682Y-13626960D01*
X14367682Y-13626960D02*
X14348634Y-13636484D01*
X14348634Y-13636484D02*
X14301015Y-13636484D01*
X14301015Y-13636484D02*
X14281967Y-13626960D01*
X14281967Y-13626960D02*
X14272443Y-13617436D01*
X14510539Y-13436484D02*
X14529586Y-13436484D01*
X14529586Y-13436484D02*
X14548634Y-13446008D01*
X14548634Y-13446008D02*
X14558158Y-13455531D01*
X14558158Y-13455531D02*
X14567682Y-13474579D01*
X14567682Y-13474579D02*
X14577205Y-13512674D01*
X14577205Y-13512674D02*
X14577205Y-13560293D01*
X14577205Y-13560293D02*
X14567682Y-13598388D01*
X14567682Y-13598388D02*
X14558158Y-13617436D01*
X14558158Y-13617436D02*
X14548634Y-13626960D01*
X14548634Y-13626960D02*
X14529586Y-13636484D01*
X14529586Y-13636484D02*
X14510539Y-13636484D01*
X14510539Y-13636484D02*
X14491491Y-13626960D01*
X14491491Y-13626960D02*
X14481967Y-13617436D01*
X14481967Y-13617436D02*
X14472443Y-13598388D01*
X14472443Y-13598388D02*
X14462920Y-13560293D01*
X14462920Y-13560293D02*
X14462920Y-13512674D01*
X14462920Y-13512674D02*
X14472443Y-13474579D01*
X14472443Y-13474579D02*
X14481967Y-13455531D01*
X14481967Y-13455531D02*
X14491491Y-13446008D01*
X14491491Y-13446008D02*
X14510539Y-13436484D01*
X14662920Y-13636484D02*
X14662920Y-13503150D01*
X14662920Y-13522198D02*
X14672443Y-13512674D01*
X14672443Y-13512674D02*
X14691491Y-13503150D01*
X14691491Y-13503150D02*
X14720063Y-13503150D01*
X14720063Y-13503150D02*
X14739110Y-13512674D01*
X14739110Y-13512674D02*
X14748634Y-13531722D01*
X14748634Y-13531722D02*
X14748634Y-13636484D01*
X14748634Y-13531722D02*
X14758158Y-13512674D01*
X14758158Y-13512674D02*
X14777205Y-13503150D01*
X14777205Y-13503150D02*
X14805777Y-13503150D01*
X14805777Y-13503150D02*
X14824824Y-13512674D01*
X14824824Y-13512674D02*
X14834348Y-13531722D01*
X14834348Y-13531722D02*
X14834348Y-13636484D01*
X14929586Y-13636484D02*
X14929586Y-13503150D01*
X14929586Y-13522198D02*
X14939110Y-13512674D01*
X14939110Y-13512674D02*
X14958158Y-13503150D01*
X14958158Y-13503150D02*
X14986729Y-13503150D01*
X14986729Y-13503150D02*
X15005777Y-13512674D01*
X15005777Y-13512674D02*
X15015301Y-13531722D01*
X15015301Y-13531722D02*
X15015301Y-13636484D01*
X15015301Y-13531722D02*
X15024824Y-13512674D01*
X15024824Y-13512674D02*
X15043872Y-13503150D01*
X15043872Y-13503150D02*
X15072443Y-13503150D01*
X15072443Y-13503150D02*
X15091491Y-13512674D01*
X15091491Y-13512674D02*
X15101015Y-13531722D01*
X15101015Y-13531722D02*
X15101015Y-13636484D01*
X15491491Y-13426960D02*
X15320063Y-13684103D01*
X15748634Y-13436484D02*
X15767682Y-13436484D01*
X15767682Y-13436484D02*
X15786729Y-13446008D01*
X15786729Y-13446008D02*
X15796253Y-13455531D01*
X15796253Y-13455531D02*
X15805777Y-13474579D01*
X15805777Y-13474579D02*
X15815301Y-13512674D01*
X15815301Y-13512674D02*
X15815301Y-13560293D01*
X15815301Y-13560293D02*
X15805777Y-13598388D01*
X15805777Y-13598388D02*
X15796253Y-13617436D01*
X15796253Y-13617436D02*
X15786729Y-13626960D01*
X15786729Y-13626960D02*
X15767682Y-13636484D01*
X15767682Y-13636484D02*
X15748634Y-13636484D01*
X15748634Y-13636484D02*
X15729586Y-13626960D01*
X15729586Y-13626960D02*
X15720063Y-13617436D01*
X15720063Y-13617436D02*
X15710539Y-13598388D01*
X15710539Y-13598388D02*
X15701015Y-13560293D01*
X15701015Y-13560293D02*
X15701015Y-13512674D01*
X15701015Y-13512674D02*
X15710539Y-13474579D01*
X15710539Y-13474579D02*
X15720063Y-13455531D01*
X15720063Y-13455531D02*
X15729586Y-13446008D01*
X15729586Y-13446008D02*
X15748634Y-13436484D01*
X15901015Y-13617436D02*
X15910539Y-13626960D01*
X15910539Y-13626960D02*
X15901015Y-13636484D01*
X15901015Y-13636484D02*
X15891491Y-13626960D01*
X15891491Y-13626960D02*
X15901015Y-13617436D01*
X15901015Y-13617436D02*
X15901015Y-13636484D01*
X16034348Y-13436484D02*
X16053396Y-13436484D01*
X16053396Y-13436484D02*
X16072444Y-13446008D01*
X16072444Y-13446008D02*
X16081967Y-13455531D01*
X16081967Y-13455531D02*
X16091491Y-13474579D01*
X16091491Y-13474579D02*
X16101015Y-13512674D01*
X16101015Y-13512674D02*
X16101015Y-13560293D01*
X16101015Y-13560293D02*
X16091491Y-13598388D01*
X16091491Y-13598388D02*
X16081967Y-13617436D01*
X16081967Y-13617436D02*
X16072444Y-13626960D01*
X16072444Y-13626960D02*
X16053396Y-13636484D01*
X16053396Y-13636484D02*
X16034348Y-13636484D01*
X16034348Y-13636484D02*
X16015301Y-13626960D01*
X16015301Y-13626960D02*
X16005777Y-13617436D01*
X16005777Y-13617436D02*
X15996253Y-13598388D01*
X15996253Y-13598388D02*
X15986729Y-13560293D01*
X15986729Y-13560293D02*
X15986729Y-13512674D01*
X15986729Y-13512674D02*
X15996253Y-13474579D01*
X15996253Y-13474579D02*
X16005777Y-13455531D01*
X16005777Y-13455531D02*
X16015301Y-13446008D01*
X16015301Y-13446008D02*
X16034348Y-13436484D01*
X16167682Y-13436484D02*
X16291491Y-13436484D01*
X16291491Y-13436484D02*
X16224825Y-13512674D01*
X16224825Y-13512674D02*
X16253396Y-13512674D01*
X16253396Y-13512674D02*
X16272444Y-13522198D01*
X16272444Y-13522198D02*
X16281967Y-13531722D01*
X16281967Y-13531722D02*
X16291491Y-13550769D01*
X16291491Y-13550769D02*
X16291491Y-13598388D01*
X16291491Y-13598388D02*
X16281967Y-13617436D01*
X16281967Y-13617436D02*
X16272444Y-13626960D01*
X16272444Y-13626960D02*
X16253396Y-13636484D01*
X16253396Y-13636484D02*
X16196253Y-13636484D01*
X16196253Y-13636484D02*
X16177206Y-13626960D01*
X16177206Y-13626960D02*
X16167682Y-13617436D01*
X16358158Y-13436484D02*
X16491491Y-13436484D01*
X16491491Y-13436484D02*
X16405777Y-13636484D01*
X16653396Y-13503150D02*
X16653396Y-13636484D01*
X16605777Y-13426960D02*
X16558158Y-13569817D01*
X16558158Y-13569817D02*
X16681967Y-13569817D01*
X16748634Y-13436484D02*
X16748634Y-13474579D01*
X16824825Y-13436484D02*
X16824825Y-13474579D01*
X17120063Y-13712674D02*
X17110539Y-13703150D01*
X17110539Y-13703150D02*
X17091491Y-13674579D01*
X17091491Y-13674579D02*
X17081968Y-13655531D01*
X17081968Y-13655531D02*
X17072444Y-13626960D01*
X17072444Y-13626960D02*
X17062920Y-13579341D01*
X17062920Y-13579341D02*
X17062920Y-13541246D01*
X17062920Y-13541246D02*
X17072444Y-13493627D01*
X17072444Y-13493627D02*
X17081968Y-13465055D01*
X17081968Y-13465055D02*
X17091491Y-13446008D01*
X17091491Y-13446008D02*
X17110539Y-13417436D01*
X17110539Y-13417436D02*
X17120063Y-13407912D01*
X17281968Y-13503150D02*
X17281968Y-13636484D01*
X17234349Y-13426960D02*
X17186730Y-13569817D01*
X17186730Y-13569817D02*
X17310539Y-13569817D01*
X17539111Y-13636484D02*
X17539111Y-13436484D01*
X17624825Y-13636484D02*
X17624825Y-13531722D01*
X17624825Y-13531722D02*
X17615301Y-13512674D01*
X17615301Y-13512674D02*
X17596253Y-13503150D01*
X17596253Y-13503150D02*
X17567682Y-13503150D01*
X17567682Y-13503150D02*
X17548634Y-13512674D01*
X17548634Y-13512674D02*
X17539111Y-13522198D01*
X17748634Y-13636484D02*
X17729587Y-13626960D01*
X17729587Y-13626960D02*
X17720063Y-13617436D01*
X17720063Y-13617436D02*
X17710539Y-13598388D01*
X17710539Y-13598388D02*
X17710539Y-13541246D01*
X17710539Y-13541246D02*
X17720063Y-13522198D01*
X17720063Y-13522198D02*
X17729587Y-13512674D01*
X17729587Y-13512674D02*
X17748634Y-13503150D01*
X17748634Y-13503150D02*
X17777206Y-13503150D01*
X17777206Y-13503150D02*
X17796253Y-13512674D01*
X17796253Y-13512674D02*
X17805777Y-13522198D01*
X17805777Y-13522198D02*
X17815301Y-13541246D01*
X17815301Y-13541246D02*
X17815301Y-13598388D01*
X17815301Y-13598388D02*
X17805777Y-13617436D01*
X17805777Y-13617436D02*
X17796253Y-13626960D01*
X17796253Y-13626960D02*
X17777206Y-13636484D01*
X17777206Y-13636484D02*
X17748634Y-13636484D01*
X17929587Y-13636484D02*
X17910539Y-13626960D01*
X17910539Y-13626960D02*
X17901015Y-13607912D01*
X17901015Y-13607912D02*
X17901015Y-13436484D01*
X18081968Y-13626960D02*
X18062920Y-13636484D01*
X18062920Y-13636484D02*
X18024825Y-13636484D01*
X18024825Y-13636484D02*
X18005777Y-13626960D01*
X18005777Y-13626960D02*
X17996253Y-13607912D01*
X17996253Y-13607912D02*
X17996253Y-13531722D01*
X17996253Y-13531722D02*
X18005777Y-13512674D01*
X18005777Y-13512674D02*
X18024825Y-13503150D01*
X18024825Y-13503150D02*
X18062920Y-13503150D01*
X18062920Y-13503150D02*
X18081968Y-13512674D01*
X18081968Y-13512674D02*
X18091492Y-13531722D01*
X18091492Y-13531722D02*
X18091492Y-13550769D01*
X18091492Y-13550769D02*
X17996253Y-13569817D01*
X18167682Y-13626960D02*
X18186730Y-13636484D01*
X18186730Y-13636484D02*
X18224825Y-13636484D01*
X18224825Y-13636484D02*
X18243873Y-13626960D01*
X18243873Y-13626960D02*
X18253396Y-13607912D01*
X18253396Y-13607912D02*
X18253396Y-13598388D01*
X18253396Y-13598388D02*
X18243873Y-13579341D01*
X18243873Y-13579341D02*
X18224825Y-13569817D01*
X18224825Y-13569817D02*
X18196253Y-13569817D01*
X18196253Y-13569817D02*
X18177206Y-13560293D01*
X18177206Y-13560293D02*
X18167682Y-13541246D01*
X18167682Y-13541246D02*
X18167682Y-13531722D01*
X18167682Y-13531722D02*
X18177206Y-13512674D01*
X18177206Y-13512674D02*
X18196253Y-13503150D01*
X18196253Y-13503150D02*
X18224825Y-13503150D01*
X18224825Y-13503150D02*
X18243873Y-13512674D01*
X18320063Y-13712674D02*
X18329587Y-13703150D01*
X18329587Y-13703150D02*
X18348634Y-13674579D01*
X18348634Y-13674579D02*
X18358158Y-13655531D01*
X18358158Y-13655531D02*
X18367682Y-13626960D01*
X18367682Y-13626960D02*
X18377206Y-13579341D01*
X18377206Y-13579341D02*
X18377206Y-13541246D01*
X18377206Y-13541246D02*
X18367682Y-13493627D01*
X18367682Y-13493627D02*
X18358158Y-13465055D01*
X18358158Y-13465055D02*
X18348634Y-13446008D01*
X18348634Y-13446008D02*
X18329587Y-13417436D01*
X18329587Y-13417436D02*
X18320063Y-13407912D01*
D13*
X13545000Y-13809000D02*
G75*
G03*
X13545000Y-13809000I-55000J0D01*
G01*
D11*
X13910539Y-13900484D02*
X13796253Y-13900484D01*
X13853396Y-13900484D02*
X13853396Y-13700484D01*
X13853396Y-13700484D02*
X13834348Y-13729055D01*
X13834348Y-13729055D02*
X13815301Y-13748103D01*
X13815301Y-13748103D02*
X13796253Y-13757627D01*
X13996253Y-13881436D02*
X14005777Y-13890960D01*
X14005777Y-13890960D02*
X13996253Y-13900484D01*
X13996253Y-13900484D02*
X13986729Y-13890960D01*
X13986729Y-13890960D02*
X13996253Y-13881436D01*
X13996253Y-13881436D02*
X13996253Y-13900484D01*
X14196253Y-13900484D02*
X14081967Y-13900484D01*
X14139110Y-13900484D02*
X14139110Y-13700484D01*
X14139110Y-13700484D02*
X14120062Y-13729055D01*
X14120062Y-13729055D02*
X14101015Y-13748103D01*
X14101015Y-13748103D02*
X14081967Y-13757627D01*
X14320062Y-13700484D02*
X14339110Y-13700484D01*
X14339110Y-13700484D02*
X14358158Y-13710008D01*
X14358158Y-13710008D02*
X14367682Y-13719531D01*
X14367682Y-13719531D02*
X14377205Y-13738579D01*
X14377205Y-13738579D02*
X14386729Y-13776674D01*
X14386729Y-13776674D02*
X14386729Y-13824293D01*
X14386729Y-13824293D02*
X14377205Y-13862388D01*
X14377205Y-13862388D02*
X14367682Y-13881436D01*
X14367682Y-13881436D02*
X14358158Y-13890960D01*
X14358158Y-13890960D02*
X14339110Y-13900484D01*
X14339110Y-13900484D02*
X14320062Y-13900484D01*
X14320062Y-13900484D02*
X14301015Y-13890960D01*
X14301015Y-13890960D02*
X14291491Y-13881436D01*
X14291491Y-13881436D02*
X14281967Y-13862388D01*
X14281967Y-13862388D02*
X14272443Y-13824293D01*
X14272443Y-13824293D02*
X14272443Y-13776674D01*
X14272443Y-13776674D02*
X14281967Y-13738579D01*
X14281967Y-13738579D02*
X14291491Y-13719531D01*
X14291491Y-13719531D02*
X14301015Y-13710008D01*
X14301015Y-13710008D02*
X14320062Y-13700484D01*
X14510539Y-13700484D02*
X14529586Y-13700484D01*
X14529586Y-13700484D02*
X14548634Y-13710008D01*
X14548634Y-13710008D02*
X14558158Y-13719531D01*
X14558158Y-13719531D02*
X14567682Y-13738579D01*
X14567682Y-13738579D02*
X14577205Y-13776674D01*
X14577205Y-13776674D02*
X14577205Y-13824293D01*
X14577205Y-13824293D02*
X14567682Y-13862388D01*
X14567682Y-13862388D02*
X14558158Y-13881436D01*
X14558158Y-13881436D02*
X14548634Y-13890960D01*
X14548634Y-13890960D02*
X14529586Y-13900484D01*
X14529586Y-13900484D02*
X14510539Y-13900484D01*
X14510539Y-13900484D02*
X14491491Y-13890960D01*
X14491491Y-13890960D02*
X14481967Y-13881436D01*
X14481967Y-13881436D02*
X14472443Y-13862388D01*
X14472443Y-13862388D02*
X14462920Y-13824293D01*
X14462920Y-13824293D02*
X14462920Y-13776674D01*
X14462920Y-13776674D02*
X14472443Y-13738579D01*
X14472443Y-13738579D02*
X14481967Y-13719531D01*
X14481967Y-13719531D02*
X14491491Y-13710008D01*
X14491491Y-13710008D02*
X14510539Y-13700484D01*
X14662920Y-13900484D02*
X14662920Y-13767150D01*
X14662920Y-13786198D02*
X14672443Y-13776674D01*
X14672443Y-13776674D02*
X14691491Y-13767150D01*
X14691491Y-13767150D02*
X14720063Y-13767150D01*
X14720063Y-13767150D02*
X14739110Y-13776674D01*
X14739110Y-13776674D02*
X14748634Y-13795722D01*
X14748634Y-13795722D02*
X14748634Y-13900484D01*
X14748634Y-13795722D02*
X14758158Y-13776674D01*
X14758158Y-13776674D02*
X14777205Y-13767150D01*
X14777205Y-13767150D02*
X14805777Y-13767150D01*
X14805777Y-13767150D02*
X14824824Y-13776674D01*
X14824824Y-13776674D02*
X14834348Y-13795722D01*
X14834348Y-13795722D02*
X14834348Y-13900484D01*
X14929586Y-13900484D02*
X14929586Y-13767150D01*
X14929586Y-13786198D02*
X14939110Y-13776674D01*
X14939110Y-13776674D02*
X14958158Y-13767150D01*
X14958158Y-13767150D02*
X14986729Y-13767150D01*
X14986729Y-13767150D02*
X15005777Y-13776674D01*
X15005777Y-13776674D02*
X15015301Y-13795722D01*
X15015301Y-13795722D02*
X15015301Y-13900484D01*
X15015301Y-13795722D02*
X15024824Y-13776674D01*
X15024824Y-13776674D02*
X15043872Y-13767150D01*
X15043872Y-13767150D02*
X15072443Y-13767150D01*
X15072443Y-13767150D02*
X15091491Y-13776674D01*
X15091491Y-13776674D02*
X15101015Y-13795722D01*
X15101015Y-13795722D02*
X15101015Y-13900484D01*
X15491491Y-13690960D02*
X15320063Y-13948103D01*
X15748634Y-13700484D02*
X15767682Y-13700484D01*
X15767682Y-13700484D02*
X15786729Y-13710008D01*
X15786729Y-13710008D02*
X15796253Y-13719531D01*
X15796253Y-13719531D02*
X15805777Y-13738579D01*
X15805777Y-13738579D02*
X15815301Y-13776674D01*
X15815301Y-13776674D02*
X15815301Y-13824293D01*
X15815301Y-13824293D02*
X15805777Y-13862388D01*
X15805777Y-13862388D02*
X15796253Y-13881436D01*
X15796253Y-13881436D02*
X15786729Y-13890960D01*
X15786729Y-13890960D02*
X15767682Y-13900484D01*
X15767682Y-13900484D02*
X15748634Y-13900484D01*
X15748634Y-13900484D02*
X15729586Y-13890960D01*
X15729586Y-13890960D02*
X15720063Y-13881436D01*
X15720063Y-13881436D02*
X15710539Y-13862388D01*
X15710539Y-13862388D02*
X15701015Y-13824293D01*
X15701015Y-13824293D02*
X15701015Y-13776674D01*
X15701015Y-13776674D02*
X15710539Y-13738579D01*
X15710539Y-13738579D02*
X15720063Y-13719531D01*
X15720063Y-13719531D02*
X15729586Y-13710008D01*
X15729586Y-13710008D02*
X15748634Y-13700484D01*
X15901015Y-13881436D02*
X15910539Y-13890960D01*
X15910539Y-13890960D02*
X15901015Y-13900484D01*
X15901015Y-13900484D02*
X15891491Y-13890960D01*
X15891491Y-13890960D02*
X15901015Y-13881436D01*
X15901015Y-13881436D02*
X15901015Y-13900484D01*
X16034348Y-13700484D02*
X16053396Y-13700484D01*
X16053396Y-13700484D02*
X16072444Y-13710008D01*
X16072444Y-13710008D02*
X16081967Y-13719531D01*
X16081967Y-13719531D02*
X16091491Y-13738579D01*
X16091491Y-13738579D02*
X16101015Y-13776674D01*
X16101015Y-13776674D02*
X16101015Y-13824293D01*
X16101015Y-13824293D02*
X16091491Y-13862388D01*
X16091491Y-13862388D02*
X16081967Y-13881436D01*
X16081967Y-13881436D02*
X16072444Y-13890960D01*
X16072444Y-13890960D02*
X16053396Y-13900484D01*
X16053396Y-13900484D02*
X16034348Y-13900484D01*
X16034348Y-13900484D02*
X16015301Y-13890960D01*
X16015301Y-13890960D02*
X16005777Y-13881436D01*
X16005777Y-13881436D02*
X15996253Y-13862388D01*
X15996253Y-13862388D02*
X15986729Y-13824293D01*
X15986729Y-13824293D02*
X15986729Y-13776674D01*
X15986729Y-13776674D02*
X15996253Y-13738579D01*
X15996253Y-13738579D02*
X16005777Y-13719531D01*
X16005777Y-13719531D02*
X16015301Y-13710008D01*
X16015301Y-13710008D02*
X16034348Y-13700484D01*
X16272444Y-13767150D02*
X16272444Y-13900484D01*
X16224825Y-13690960D02*
X16177206Y-13833817D01*
X16177206Y-13833817D02*
X16301015Y-13833817D01*
X16358158Y-13700484D02*
X16481967Y-13700484D01*
X16481967Y-13700484D02*
X16415301Y-13776674D01*
X16415301Y-13776674D02*
X16443872Y-13776674D01*
X16443872Y-13776674D02*
X16462920Y-13786198D01*
X16462920Y-13786198D02*
X16472444Y-13795722D01*
X16472444Y-13795722D02*
X16481967Y-13814769D01*
X16481967Y-13814769D02*
X16481967Y-13862388D01*
X16481967Y-13862388D02*
X16472444Y-13881436D01*
X16472444Y-13881436D02*
X16462920Y-13890960D01*
X16462920Y-13890960D02*
X16443872Y-13900484D01*
X16443872Y-13900484D02*
X16386729Y-13900484D01*
X16386729Y-13900484D02*
X16367682Y-13890960D01*
X16367682Y-13890960D02*
X16358158Y-13881436D01*
X16548634Y-13700484D02*
X16672444Y-13700484D01*
X16672444Y-13700484D02*
X16605777Y-13776674D01*
X16605777Y-13776674D02*
X16634348Y-13776674D01*
X16634348Y-13776674D02*
X16653396Y-13786198D01*
X16653396Y-13786198D02*
X16662920Y-13795722D01*
X16662920Y-13795722D02*
X16672444Y-13814769D01*
X16672444Y-13814769D02*
X16672444Y-13862388D01*
X16672444Y-13862388D02*
X16662920Y-13881436D01*
X16662920Y-13881436D02*
X16653396Y-13890960D01*
X16653396Y-13890960D02*
X16634348Y-13900484D01*
X16634348Y-13900484D02*
X16577206Y-13900484D01*
X16577206Y-13900484D02*
X16558158Y-13890960D01*
X16558158Y-13890960D02*
X16548634Y-13881436D01*
X16748634Y-13700484D02*
X16748634Y-13738579D01*
X16824825Y-13700484D02*
X16824825Y-13738579D01*
X17120063Y-13976674D02*
X17110539Y-13967150D01*
X17110539Y-13967150D02*
X17091491Y-13938579D01*
X17091491Y-13938579D02*
X17081968Y-13919531D01*
X17081968Y-13919531D02*
X17072444Y-13890960D01*
X17072444Y-13890960D02*
X17062920Y-13843341D01*
X17062920Y-13843341D02*
X17062920Y-13805246D01*
X17062920Y-13805246D02*
X17072444Y-13757627D01*
X17072444Y-13757627D02*
X17081968Y-13729055D01*
X17081968Y-13729055D02*
X17091491Y-13710008D01*
X17091491Y-13710008D02*
X17110539Y-13681436D01*
X17110539Y-13681436D02*
X17120063Y-13671912D01*
X17177206Y-13700484D02*
X17301015Y-13700484D01*
X17301015Y-13700484D02*
X17234349Y-13776674D01*
X17234349Y-13776674D02*
X17262920Y-13776674D01*
X17262920Y-13776674D02*
X17281968Y-13786198D01*
X17281968Y-13786198D02*
X17291491Y-13795722D01*
X17291491Y-13795722D02*
X17301015Y-13814769D01*
X17301015Y-13814769D02*
X17301015Y-13862388D01*
X17301015Y-13862388D02*
X17291491Y-13881436D01*
X17291491Y-13881436D02*
X17281968Y-13890960D01*
X17281968Y-13890960D02*
X17262920Y-13900484D01*
X17262920Y-13900484D02*
X17205777Y-13900484D01*
X17205777Y-13900484D02*
X17186730Y-13890960D01*
X17186730Y-13890960D02*
X17177206Y-13881436D01*
X17424825Y-13700484D02*
X17443872Y-13700484D01*
X17443872Y-13700484D02*
X17462920Y-13710008D01*
X17462920Y-13710008D02*
X17472444Y-13719531D01*
X17472444Y-13719531D02*
X17481968Y-13738579D01*
X17481968Y-13738579D02*
X17491491Y-13776674D01*
X17491491Y-13776674D02*
X17491491Y-13824293D01*
X17491491Y-13824293D02*
X17481968Y-13862388D01*
X17481968Y-13862388D02*
X17472444Y-13881436D01*
X17472444Y-13881436D02*
X17462920Y-13890960D01*
X17462920Y-13890960D02*
X17443872Y-13900484D01*
X17443872Y-13900484D02*
X17424825Y-13900484D01*
X17424825Y-13900484D02*
X17405777Y-13890960D01*
X17405777Y-13890960D02*
X17396253Y-13881436D01*
X17396253Y-13881436D02*
X17386730Y-13862388D01*
X17386730Y-13862388D02*
X17377206Y-13824293D01*
X17377206Y-13824293D02*
X17377206Y-13776674D01*
X17377206Y-13776674D02*
X17386730Y-13738579D01*
X17386730Y-13738579D02*
X17396253Y-13719531D01*
X17396253Y-13719531D02*
X17405777Y-13710008D01*
X17405777Y-13710008D02*
X17424825Y-13700484D01*
X17729587Y-13900484D02*
X17729587Y-13700484D01*
X17815301Y-13900484D02*
X17815301Y-13795722D01*
X17815301Y-13795722D02*
X17805777Y-13776674D01*
X17805777Y-13776674D02*
X17786730Y-13767150D01*
X17786730Y-13767150D02*
X17758158Y-13767150D01*
X17758158Y-13767150D02*
X17739111Y-13776674D01*
X17739111Y-13776674D02*
X17729587Y-13786198D01*
X17939111Y-13900484D02*
X17920063Y-13890960D01*
X17920063Y-13890960D02*
X17910539Y-13881436D01*
X17910539Y-13881436D02*
X17901015Y-13862388D01*
X17901015Y-13862388D02*
X17901015Y-13805246D01*
X17901015Y-13805246D02*
X17910539Y-13786198D01*
X17910539Y-13786198D02*
X17920063Y-13776674D01*
X17920063Y-13776674D02*
X17939111Y-13767150D01*
X17939111Y-13767150D02*
X17967682Y-13767150D01*
X17967682Y-13767150D02*
X17986730Y-13776674D01*
X17986730Y-13776674D02*
X17996253Y-13786198D01*
X17996253Y-13786198D02*
X18005777Y-13805246D01*
X18005777Y-13805246D02*
X18005777Y-13862388D01*
X18005777Y-13862388D02*
X17996253Y-13881436D01*
X17996253Y-13881436D02*
X17986730Y-13890960D01*
X17986730Y-13890960D02*
X17967682Y-13900484D01*
X17967682Y-13900484D02*
X17939111Y-13900484D01*
X18120063Y-13900484D02*
X18101015Y-13890960D01*
X18101015Y-13890960D02*
X18091492Y-13871912D01*
X18091492Y-13871912D02*
X18091492Y-13700484D01*
X18272444Y-13890960D02*
X18253396Y-13900484D01*
X18253396Y-13900484D02*
X18215301Y-13900484D01*
X18215301Y-13900484D02*
X18196253Y-13890960D01*
X18196253Y-13890960D02*
X18186730Y-13871912D01*
X18186730Y-13871912D02*
X18186730Y-13795722D01*
X18186730Y-13795722D02*
X18196253Y-13776674D01*
X18196253Y-13776674D02*
X18215301Y-13767150D01*
X18215301Y-13767150D02*
X18253396Y-13767150D01*
X18253396Y-13767150D02*
X18272444Y-13776674D01*
X18272444Y-13776674D02*
X18281968Y-13795722D01*
X18281968Y-13795722D02*
X18281968Y-13814769D01*
X18281968Y-13814769D02*
X18186730Y-13833817D01*
X18358158Y-13890960D02*
X18377206Y-13900484D01*
X18377206Y-13900484D02*
X18415301Y-13900484D01*
X18415301Y-13900484D02*
X18434349Y-13890960D01*
X18434349Y-13890960D02*
X18443873Y-13871912D01*
X18443873Y-13871912D02*
X18443873Y-13862388D01*
X18443873Y-13862388D02*
X18434349Y-13843341D01*
X18434349Y-13843341D02*
X18415301Y-13833817D01*
X18415301Y-13833817D02*
X18386730Y-13833817D01*
X18386730Y-13833817D02*
X18367682Y-13824293D01*
X18367682Y-13824293D02*
X18358158Y-13805246D01*
X18358158Y-13805246D02*
X18358158Y-13795722D01*
X18358158Y-13795722D02*
X18367682Y-13776674D01*
X18367682Y-13776674D02*
X18386730Y-13767150D01*
X18386730Y-13767150D02*
X18415301Y-13767150D01*
X18415301Y-13767150D02*
X18434349Y-13776674D01*
X18510539Y-13976674D02*
X18520063Y-13967150D01*
X18520063Y-13967150D02*
X18539111Y-13938579D01*
X18539111Y-13938579D02*
X18548634Y-13919531D01*
X18548634Y-13919531D02*
X18558158Y-13890960D01*
X18558158Y-13890960D02*
X18567682Y-13843341D01*
X18567682Y-13843341D02*
X18567682Y-13805246D01*
X18567682Y-13805246D02*
X18558158Y-13757627D01*
X18558158Y-13757627D02*
X18548634Y-13729055D01*
X18548634Y-13729055D02*
X18539111Y-13710008D01*
X18539111Y-13710008D02*
X18520063Y-13681436D01*
X18520063Y-13681436D02*
X18510539Y-13671912D01*
X13445000Y-13973000D02*
X13445000Y-14173000D01*
X13345000Y-14073000D02*
X13545000Y-14073000D01*
X13796253Y-13983531D02*
X13805777Y-13974008D01*
X13805777Y-13974008D02*
X13824824Y-13964484D01*
X13824824Y-13964484D02*
X13872443Y-13964484D01*
X13872443Y-13964484D02*
X13891491Y-13974008D01*
X13891491Y-13974008D02*
X13901015Y-13983531D01*
X13901015Y-13983531D02*
X13910539Y-14002579D01*
X13910539Y-14002579D02*
X13910539Y-14021627D01*
X13910539Y-14021627D02*
X13901015Y-14050198D01*
X13901015Y-14050198D02*
X13786729Y-14164484D01*
X13786729Y-14164484D02*
X13910539Y-14164484D01*
X13996253Y-14145436D02*
X14005777Y-14154960D01*
X14005777Y-14154960D02*
X13996253Y-14164484D01*
X13996253Y-14164484D02*
X13986729Y-14154960D01*
X13986729Y-14154960D02*
X13996253Y-14145436D01*
X13996253Y-14145436D02*
X13996253Y-14164484D01*
X14072443Y-13964484D02*
X14196253Y-13964484D01*
X14196253Y-13964484D02*
X14129586Y-14040674D01*
X14129586Y-14040674D02*
X14158158Y-14040674D01*
X14158158Y-14040674D02*
X14177205Y-14050198D01*
X14177205Y-14050198D02*
X14186729Y-14059722D01*
X14186729Y-14059722D02*
X14196253Y-14078769D01*
X14196253Y-14078769D02*
X14196253Y-14126388D01*
X14196253Y-14126388D02*
X14186729Y-14145436D01*
X14186729Y-14145436D02*
X14177205Y-14154960D01*
X14177205Y-14154960D02*
X14158158Y-14164484D01*
X14158158Y-14164484D02*
X14101015Y-14164484D01*
X14101015Y-14164484D02*
X14081967Y-14154960D01*
X14081967Y-14154960D02*
X14072443Y-14145436D01*
X14320062Y-13964484D02*
X14339110Y-13964484D01*
X14339110Y-13964484D02*
X14358158Y-13974008D01*
X14358158Y-13974008D02*
X14367682Y-13983531D01*
X14367682Y-13983531D02*
X14377205Y-14002579D01*
X14377205Y-14002579D02*
X14386729Y-14040674D01*
X14386729Y-14040674D02*
X14386729Y-14088293D01*
X14386729Y-14088293D02*
X14377205Y-14126388D01*
X14377205Y-14126388D02*
X14367682Y-14145436D01*
X14367682Y-14145436D02*
X14358158Y-14154960D01*
X14358158Y-14154960D02*
X14339110Y-14164484D01*
X14339110Y-14164484D02*
X14320062Y-14164484D01*
X14320062Y-14164484D02*
X14301015Y-14154960D01*
X14301015Y-14154960D02*
X14291491Y-14145436D01*
X14291491Y-14145436D02*
X14281967Y-14126388D01*
X14281967Y-14126388D02*
X14272443Y-14088293D01*
X14272443Y-14088293D02*
X14272443Y-14040674D01*
X14272443Y-14040674D02*
X14281967Y-14002579D01*
X14281967Y-14002579D02*
X14291491Y-13983531D01*
X14291491Y-13983531D02*
X14301015Y-13974008D01*
X14301015Y-13974008D02*
X14320062Y-13964484D01*
X14510539Y-13964484D02*
X14529586Y-13964484D01*
X14529586Y-13964484D02*
X14548634Y-13974008D01*
X14548634Y-13974008D02*
X14558158Y-13983531D01*
X14558158Y-13983531D02*
X14567682Y-14002579D01*
X14567682Y-14002579D02*
X14577205Y-14040674D01*
X14577205Y-14040674D02*
X14577205Y-14088293D01*
X14577205Y-14088293D02*
X14567682Y-14126388D01*
X14567682Y-14126388D02*
X14558158Y-14145436D01*
X14558158Y-14145436D02*
X14548634Y-14154960D01*
X14548634Y-14154960D02*
X14529586Y-14164484D01*
X14529586Y-14164484D02*
X14510539Y-14164484D01*
X14510539Y-14164484D02*
X14491491Y-14154960D01*
X14491491Y-14154960D02*
X14481967Y-14145436D01*
X14481967Y-14145436D02*
X14472443Y-14126388D01*
X14472443Y-14126388D02*
X14462920Y-14088293D01*
X14462920Y-14088293D02*
X14462920Y-14040674D01*
X14462920Y-14040674D02*
X14472443Y-14002579D01*
X14472443Y-14002579D02*
X14481967Y-13983531D01*
X14481967Y-13983531D02*
X14491491Y-13974008D01*
X14491491Y-13974008D02*
X14510539Y-13964484D01*
X14662920Y-14164484D02*
X14662920Y-14031150D01*
X14662920Y-14050198D02*
X14672443Y-14040674D01*
X14672443Y-14040674D02*
X14691491Y-14031150D01*
X14691491Y-14031150D02*
X14720063Y-14031150D01*
X14720063Y-14031150D02*
X14739110Y-14040674D01*
X14739110Y-14040674D02*
X14748634Y-14059722D01*
X14748634Y-14059722D02*
X14748634Y-14164484D01*
X14748634Y-14059722D02*
X14758158Y-14040674D01*
X14758158Y-14040674D02*
X14777205Y-14031150D01*
X14777205Y-14031150D02*
X14805777Y-14031150D01*
X14805777Y-14031150D02*
X14824824Y-14040674D01*
X14824824Y-14040674D02*
X14834348Y-14059722D01*
X14834348Y-14059722D02*
X14834348Y-14164484D01*
X14929586Y-14164484D02*
X14929586Y-14031150D01*
X14929586Y-14050198D02*
X14939110Y-14040674D01*
X14939110Y-14040674D02*
X14958158Y-14031150D01*
X14958158Y-14031150D02*
X14986729Y-14031150D01*
X14986729Y-14031150D02*
X15005777Y-14040674D01*
X15005777Y-14040674D02*
X15015301Y-14059722D01*
X15015301Y-14059722D02*
X15015301Y-14164484D01*
X15015301Y-14059722D02*
X15024824Y-14040674D01*
X15024824Y-14040674D02*
X15043872Y-14031150D01*
X15043872Y-14031150D02*
X15072443Y-14031150D01*
X15072443Y-14031150D02*
X15091491Y-14040674D01*
X15091491Y-14040674D02*
X15101015Y-14059722D01*
X15101015Y-14059722D02*
X15101015Y-14164484D01*
X15491491Y-13954960D02*
X15320063Y-14212103D01*
X15748634Y-13964484D02*
X15767682Y-13964484D01*
X15767682Y-13964484D02*
X15786729Y-13974008D01*
X15786729Y-13974008D02*
X15796253Y-13983531D01*
X15796253Y-13983531D02*
X15805777Y-14002579D01*
X15805777Y-14002579D02*
X15815301Y-14040674D01*
X15815301Y-14040674D02*
X15815301Y-14088293D01*
X15815301Y-14088293D02*
X15805777Y-14126388D01*
X15805777Y-14126388D02*
X15796253Y-14145436D01*
X15796253Y-14145436D02*
X15786729Y-14154960D01*
X15786729Y-14154960D02*
X15767682Y-14164484D01*
X15767682Y-14164484D02*
X15748634Y-14164484D01*
X15748634Y-14164484D02*
X15729586Y-14154960D01*
X15729586Y-14154960D02*
X15720063Y-14145436D01*
X15720063Y-14145436D02*
X15710539Y-14126388D01*
X15710539Y-14126388D02*
X15701015Y-14088293D01*
X15701015Y-14088293D02*
X15701015Y-14040674D01*
X15701015Y-14040674D02*
X15710539Y-14002579D01*
X15710539Y-14002579D02*
X15720063Y-13983531D01*
X15720063Y-13983531D02*
X15729586Y-13974008D01*
X15729586Y-13974008D02*
X15748634Y-13964484D01*
X15901015Y-14145436D02*
X15910539Y-14154960D01*
X15910539Y-14154960D02*
X15901015Y-14164484D01*
X15901015Y-14164484D02*
X15891491Y-14154960D01*
X15891491Y-14154960D02*
X15901015Y-14145436D01*
X15901015Y-14145436D02*
X15901015Y-14164484D01*
X16034348Y-13964484D02*
X16053396Y-13964484D01*
X16053396Y-13964484D02*
X16072444Y-13974008D01*
X16072444Y-13974008D02*
X16081967Y-13983531D01*
X16081967Y-13983531D02*
X16091491Y-14002579D01*
X16091491Y-14002579D02*
X16101015Y-14040674D01*
X16101015Y-14040674D02*
X16101015Y-14088293D01*
X16101015Y-14088293D02*
X16091491Y-14126388D01*
X16091491Y-14126388D02*
X16081967Y-14145436D01*
X16081967Y-14145436D02*
X16072444Y-14154960D01*
X16072444Y-14154960D02*
X16053396Y-14164484D01*
X16053396Y-14164484D02*
X16034348Y-14164484D01*
X16034348Y-14164484D02*
X16015301Y-14154960D01*
X16015301Y-14154960D02*
X16005777Y-14145436D01*
X16005777Y-14145436D02*
X15996253Y-14126388D01*
X15996253Y-14126388D02*
X15986729Y-14088293D01*
X15986729Y-14088293D02*
X15986729Y-14040674D01*
X15986729Y-14040674D02*
X15996253Y-14002579D01*
X15996253Y-14002579D02*
X16005777Y-13983531D01*
X16005777Y-13983531D02*
X16015301Y-13974008D01*
X16015301Y-13974008D02*
X16034348Y-13964484D01*
X16196253Y-14164484D02*
X16234348Y-14164484D01*
X16234348Y-14164484D02*
X16253396Y-14154960D01*
X16253396Y-14154960D02*
X16262920Y-14145436D01*
X16262920Y-14145436D02*
X16281967Y-14116865D01*
X16281967Y-14116865D02*
X16291491Y-14078769D01*
X16291491Y-14078769D02*
X16291491Y-14002579D01*
X16291491Y-14002579D02*
X16281967Y-13983531D01*
X16281967Y-13983531D02*
X16272444Y-13974008D01*
X16272444Y-13974008D02*
X16253396Y-13964484D01*
X16253396Y-13964484D02*
X16215301Y-13964484D01*
X16215301Y-13964484D02*
X16196253Y-13974008D01*
X16196253Y-13974008D02*
X16186729Y-13983531D01*
X16186729Y-13983531D02*
X16177206Y-14002579D01*
X16177206Y-14002579D02*
X16177206Y-14050198D01*
X16177206Y-14050198D02*
X16186729Y-14069246D01*
X16186729Y-14069246D02*
X16196253Y-14078769D01*
X16196253Y-14078769D02*
X16215301Y-14088293D01*
X16215301Y-14088293D02*
X16253396Y-14088293D01*
X16253396Y-14088293D02*
X16272444Y-14078769D01*
X16272444Y-14078769D02*
X16281967Y-14069246D01*
X16281967Y-14069246D02*
X16291491Y-14050198D01*
X16415301Y-13964484D02*
X16434348Y-13964484D01*
X16434348Y-13964484D02*
X16453396Y-13974008D01*
X16453396Y-13974008D02*
X16462920Y-13983531D01*
X16462920Y-13983531D02*
X16472444Y-14002579D01*
X16472444Y-14002579D02*
X16481967Y-14040674D01*
X16481967Y-14040674D02*
X16481967Y-14088293D01*
X16481967Y-14088293D02*
X16472444Y-14126388D01*
X16472444Y-14126388D02*
X16462920Y-14145436D01*
X16462920Y-14145436D02*
X16453396Y-14154960D01*
X16453396Y-14154960D02*
X16434348Y-14164484D01*
X16434348Y-14164484D02*
X16415301Y-14164484D01*
X16415301Y-14164484D02*
X16396253Y-14154960D01*
X16396253Y-14154960D02*
X16386729Y-14145436D01*
X16386729Y-14145436D02*
X16377206Y-14126388D01*
X16377206Y-14126388D02*
X16367682Y-14088293D01*
X16367682Y-14088293D02*
X16367682Y-14040674D01*
X16367682Y-14040674D02*
X16377206Y-14002579D01*
X16377206Y-14002579D02*
X16386729Y-13983531D01*
X16386729Y-13983531D02*
X16396253Y-13974008D01*
X16396253Y-13974008D02*
X16415301Y-13964484D01*
X16653396Y-13964484D02*
X16615301Y-13964484D01*
X16615301Y-13964484D02*
X16596253Y-13974008D01*
X16596253Y-13974008D02*
X16586729Y-13983531D01*
X16586729Y-13983531D02*
X16567682Y-14012103D01*
X16567682Y-14012103D02*
X16558158Y-14050198D01*
X16558158Y-14050198D02*
X16558158Y-14126388D01*
X16558158Y-14126388D02*
X16567682Y-14145436D01*
X16567682Y-14145436D02*
X16577206Y-14154960D01*
X16577206Y-14154960D02*
X16596253Y-14164484D01*
X16596253Y-14164484D02*
X16634348Y-14164484D01*
X16634348Y-14164484D02*
X16653396Y-14154960D01*
X16653396Y-14154960D02*
X16662920Y-14145436D01*
X16662920Y-14145436D02*
X16672444Y-14126388D01*
X16672444Y-14126388D02*
X16672444Y-14078769D01*
X16672444Y-14078769D02*
X16662920Y-14059722D01*
X16662920Y-14059722D02*
X16653396Y-14050198D01*
X16653396Y-14050198D02*
X16634348Y-14040674D01*
X16634348Y-14040674D02*
X16596253Y-14040674D01*
X16596253Y-14040674D02*
X16577206Y-14050198D01*
X16577206Y-14050198D02*
X16567682Y-14059722D01*
X16567682Y-14059722D02*
X16558158Y-14078769D01*
X16748634Y-13964484D02*
X16748634Y-14002579D01*
X16824825Y-13964484D02*
X16824825Y-14002579D01*
X17120063Y-14240674D02*
X17110539Y-14231150D01*
X17110539Y-14231150D02*
X17091491Y-14202579D01*
X17091491Y-14202579D02*
X17081968Y-14183531D01*
X17081968Y-14183531D02*
X17072444Y-14154960D01*
X17072444Y-14154960D02*
X17062920Y-14107341D01*
X17062920Y-14107341D02*
X17062920Y-14069246D01*
X17062920Y-14069246D02*
X17072444Y-14021627D01*
X17072444Y-14021627D02*
X17081968Y-13993055D01*
X17081968Y-13993055D02*
X17091491Y-13974008D01*
X17091491Y-13974008D02*
X17110539Y-13945436D01*
X17110539Y-13945436D02*
X17120063Y-13935912D01*
X17186730Y-13983531D02*
X17196253Y-13974008D01*
X17196253Y-13974008D02*
X17215301Y-13964484D01*
X17215301Y-13964484D02*
X17262920Y-13964484D01*
X17262920Y-13964484D02*
X17281968Y-13974008D01*
X17281968Y-13974008D02*
X17291491Y-13983531D01*
X17291491Y-13983531D02*
X17301015Y-14002579D01*
X17301015Y-14002579D02*
X17301015Y-14021627D01*
X17301015Y-14021627D02*
X17291491Y-14050198D01*
X17291491Y-14050198D02*
X17177206Y-14164484D01*
X17177206Y-14164484D02*
X17301015Y-14164484D01*
X17539111Y-14164484D02*
X17539111Y-13964484D01*
X17624825Y-14164484D02*
X17624825Y-14059722D01*
X17624825Y-14059722D02*
X17615301Y-14040674D01*
X17615301Y-14040674D02*
X17596253Y-14031150D01*
X17596253Y-14031150D02*
X17567682Y-14031150D01*
X17567682Y-14031150D02*
X17548634Y-14040674D01*
X17548634Y-14040674D02*
X17539111Y-14050198D01*
X17748634Y-14164484D02*
X17729587Y-14154960D01*
X17729587Y-14154960D02*
X17720063Y-14145436D01*
X17720063Y-14145436D02*
X17710539Y-14126388D01*
X17710539Y-14126388D02*
X17710539Y-14069246D01*
X17710539Y-14069246D02*
X17720063Y-14050198D01*
X17720063Y-14050198D02*
X17729587Y-14040674D01*
X17729587Y-14040674D02*
X17748634Y-14031150D01*
X17748634Y-14031150D02*
X17777206Y-14031150D01*
X17777206Y-14031150D02*
X17796253Y-14040674D01*
X17796253Y-14040674D02*
X17805777Y-14050198D01*
X17805777Y-14050198D02*
X17815301Y-14069246D01*
X17815301Y-14069246D02*
X17815301Y-14126388D01*
X17815301Y-14126388D02*
X17805777Y-14145436D01*
X17805777Y-14145436D02*
X17796253Y-14154960D01*
X17796253Y-14154960D02*
X17777206Y-14164484D01*
X17777206Y-14164484D02*
X17748634Y-14164484D01*
X17929587Y-14164484D02*
X17910539Y-14154960D01*
X17910539Y-14154960D02*
X17901015Y-14135912D01*
X17901015Y-14135912D02*
X17901015Y-13964484D01*
X18081968Y-14154960D02*
X18062920Y-14164484D01*
X18062920Y-14164484D02*
X18024825Y-14164484D01*
X18024825Y-14164484D02*
X18005777Y-14154960D01*
X18005777Y-14154960D02*
X17996253Y-14135912D01*
X17996253Y-14135912D02*
X17996253Y-14059722D01*
X17996253Y-14059722D02*
X18005777Y-14040674D01*
X18005777Y-14040674D02*
X18024825Y-14031150D01*
X18024825Y-14031150D02*
X18062920Y-14031150D01*
X18062920Y-14031150D02*
X18081968Y-14040674D01*
X18081968Y-14040674D02*
X18091492Y-14059722D01*
X18091492Y-14059722D02*
X18091492Y-14078769D01*
X18091492Y-14078769D02*
X17996253Y-14097817D01*
X18167682Y-14154960D02*
X18186730Y-14164484D01*
X18186730Y-14164484D02*
X18224825Y-14164484D01*
X18224825Y-14164484D02*
X18243873Y-14154960D01*
X18243873Y-14154960D02*
X18253396Y-14135912D01*
X18253396Y-14135912D02*
X18253396Y-14126388D01*
X18253396Y-14126388D02*
X18243873Y-14107341D01*
X18243873Y-14107341D02*
X18224825Y-14097817D01*
X18224825Y-14097817D02*
X18196253Y-14097817D01*
X18196253Y-14097817D02*
X18177206Y-14088293D01*
X18177206Y-14088293D02*
X18167682Y-14069246D01*
X18167682Y-14069246D02*
X18167682Y-14059722D01*
X18167682Y-14059722D02*
X18177206Y-14040674D01*
X18177206Y-14040674D02*
X18196253Y-14031150D01*
X18196253Y-14031150D02*
X18224825Y-14031150D01*
X18224825Y-14031150D02*
X18243873Y-14040674D01*
X18320063Y-14240674D02*
X18329587Y-14231150D01*
X18329587Y-14231150D02*
X18348634Y-14202579D01*
X18348634Y-14202579D02*
X18358158Y-14183531D01*
X18358158Y-14183531D02*
X18367682Y-14154960D01*
X18367682Y-14154960D02*
X18377206Y-14107341D01*
X18377206Y-14107341D02*
X18377206Y-14069246D01*
X18377206Y-14069246D02*
X18367682Y-14021627D01*
X18367682Y-14021627D02*
X18358158Y-13993055D01*
X18358158Y-13993055D02*
X18348634Y-13974008D01*
X18348634Y-13974008D02*
X18329587Y-13945436D01*
X18329587Y-13945436D02*
X18320063Y-13935912D01*
M02*
