%TF.GenerationSoftware,KiCad,Pcbnew,7.0.7*%
%TF.CreationDate,2023-11-15T20:06:27-08:00*%
%TF.ProjectId,servocontrollerproject,73657276-6f63-46f6-9e74-726f6c6c6572,rev?*%
%TF.SameCoordinates,Original*%
%TF.FileFunction,Legend,Bot*%
%TF.FilePolarity,Positive*%
%FSLAX46Y46*%
G04 Gerber Fmt 4.6, Leading zero omitted, Abs format (unit mm)*
G04 Created by KiCad (PCBNEW 7.0.7) date 2023-11-15 20:06:27*
%MOMM*%
%LPD*%
G01*
G04 APERTURE LIST*
%ADD10C,0.100000*%
%ADD11C,0.150000*%
%ADD12C,0.300000*%
%ADD13C,0.400000*%
G04 APERTURE END LIST*
D10*
D11*
X177002200Y-166007200D02*
X285002200Y-166007200D01*
X285002200Y-198007200D01*
X177002200Y-198007200D01*
X177002200Y-166007200D01*
D10*
D11*
X10000000Y-10000000D02*
X287002200Y-10000000D01*
X287002200Y-200007200D01*
X10000000Y-200007200D01*
X10000000Y-10000000D01*
D10*
D11*
X12000000Y-12000000D02*
X285002200Y-12000000D01*
X285002200Y-198007200D01*
X12000000Y-198007200D01*
X12000000Y-12000000D01*
D10*
D11*
X60000000Y-12000000D02*
X60000000Y-10000000D01*
D10*
D11*
X110000000Y-12000000D02*
X110000000Y-10000000D01*
D10*
D11*
X160000000Y-12000000D02*
X160000000Y-10000000D01*
D10*
D11*
X210000000Y-12000000D02*
X210000000Y-10000000D01*
D10*
D11*
X260000000Y-12000000D02*
X260000000Y-10000000D01*
D10*
D11*
X36089160Y-11593604D02*
X35346303Y-11593604D01*
X35717731Y-11593604D02*
X35717731Y-10293604D01*
X35717731Y-10293604D02*
X35593922Y-10479319D01*
X35593922Y-10479319D02*
X35470112Y-10603128D01*
X35470112Y-10603128D02*
X35346303Y-10665033D01*
D10*
D11*
X85346303Y-10417414D02*
X85408207Y-10355509D01*
X85408207Y-10355509D02*
X85532017Y-10293604D01*
X85532017Y-10293604D02*
X85841541Y-10293604D01*
X85841541Y-10293604D02*
X85965350Y-10355509D01*
X85965350Y-10355509D02*
X86027255Y-10417414D01*
X86027255Y-10417414D02*
X86089160Y-10541223D01*
X86089160Y-10541223D02*
X86089160Y-10665033D01*
X86089160Y-10665033D02*
X86027255Y-10850747D01*
X86027255Y-10850747D02*
X85284398Y-11593604D01*
X85284398Y-11593604D02*
X86089160Y-11593604D01*
D10*
D11*
X135284398Y-10293604D02*
X136089160Y-10293604D01*
X136089160Y-10293604D02*
X135655826Y-10788842D01*
X135655826Y-10788842D02*
X135841541Y-10788842D01*
X135841541Y-10788842D02*
X135965350Y-10850747D01*
X135965350Y-10850747D02*
X136027255Y-10912652D01*
X136027255Y-10912652D02*
X136089160Y-11036461D01*
X136089160Y-11036461D02*
X136089160Y-11345985D01*
X136089160Y-11345985D02*
X136027255Y-11469795D01*
X136027255Y-11469795D02*
X135965350Y-11531700D01*
X135965350Y-11531700D02*
X135841541Y-11593604D01*
X135841541Y-11593604D02*
X135470112Y-11593604D01*
X135470112Y-11593604D02*
X135346303Y-11531700D01*
X135346303Y-11531700D02*
X135284398Y-11469795D01*
D10*
D11*
X185965350Y-10726938D02*
X185965350Y-11593604D01*
X185655826Y-10231700D02*
X185346303Y-11160271D01*
X185346303Y-11160271D02*
X186151064Y-11160271D01*
D10*
D11*
X236027255Y-10293604D02*
X235408207Y-10293604D01*
X235408207Y-10293604D02*
X235346303Y-10912652D01*
X235346303Y-10912652D02*
X235408207Y-10850747D01*
X235408207Y-10850747D02*
X235532017Y-10788842D01*
X235532017Y-10788842D02*
X235841541Y-10788842D01*
X235841541Y-10788842D02*
X235965350Y-10850747D01*
X235965350Y-10850747D02*
X236027255Y-10912652D01*
X236027255Y-10912652D02*
X236089160Y-11036461D01*
X236089160Y-11036461D02*
X236089160Y-11345985D01*
X236089160Y-11345985D02*
X236027255Y-11469795D01*
X236027255Y-11469795D02*
X235965350Y-11531700D01*
X235965350Y-11531700D02*
X235841541Y-11593604D01*
X235841541Y-11593604D02*
X235532017Y-11593604D01*
X235532017Y-11593604D02*
X235408207Y-11531700D01*
X235408207Y-11531700D02*
X235346303Y-11469795D01*
D10*
D11*
X285965350Y-10293604D02*
X285717731Y-10293604D01*
X285717731Y-10293604D02*
X285593922Y-10355509D01*
X285593922Y-10355509D02*
X285532017Y-10417414D01*
X285532017Y-10417414D02*
X285408207Y-10603128D01*
X285408207Y-10603128D02*
X285346303Y-10850747D01*
X285346303Y-10850747D02*
X285346303Y-11345985D01*
X285346303Y-11345985D02*
X285408207Y-11469795D01*
X285408207Y-11469795D02*
X285470112Y-11531700D01*
X285470112Y-11531700D02*
X285593922Y-11593604D01*
X285593922Y-11593604D02*
X285841541Y-11593604D01*
X285841541Y-11593604D02*
X285965350Y-11531700D01*
X285965350Y-11531700D02*
X286027255Y-11469795D01*
X286027255Y-11469795D02*
X286089160Y-11345985D01*
X286089160Y-11345985D02*
X286089160Y-11036461D01*
X286089160Y-11036461D02*
X286027255Y-10912652D01*
X286027255Y-10912652D02*
X285965350Y-10850747D01*
X285965350Y-10850747D02*
X285841541Y-10788842D01*
X285841541Y-10788842D02*
X285593922Y-10788842D01*
X285593922Y-10788842D02*
X285470112Y-10850747D01*
X285470112Y-10850747D02*
X285408207Y-10912652D01*
X285408207Y-10912652D02*
X285346303Y-11036461D01*
D10*
D11*
X60000000Y-198007200D02*
X60000000Y-200007200D01*
D10*
D11*
X110000000Y-198007200D02*
X110000000Y-200007200D01*
D10*
D11*
X160000000Y-198007200D02*
X160000000Y-200007200D01*
D10*
D11*
X210000000Y-198007200D02*
X210000000Y-200007200D01*
D10*
D11*
X260000000Y-198007200D02*
X260000000Y-200007200D01*
D10*
D11*
X36089160Y-199600804D02*
X35346303Y-199600804D01*
X35717731Y-199600804D02*
X35717731Y-198300804D01*
X35717731Y-198300804D02*
X35593922Y-198486519D01*
X35593922Y-198486519D02*
X35470112Y-198610328D01*
X35470112Y-198610328D02*
X35346303Y-198672233D01*
D10*
D11*
X85346303Y-198424614D02*
X85408207Y-198362709D01*
X85408207Y-198362709D02*
X85532017Y-198300804D01*
X85532017Y-198300804D02*
X85841541Y-198300804D01*
X85841541Y-198300804D02*
X85965350Y-198362709D01*
X85965350Y-198362709D02*
X86027255Y-198424614D01*
X86027255Y-198424614D02*
X86089160Y-198548423D01*
X86089160Y-198548423D02*
X86089160Y-198672233D01*
X86089160Y-198672233D02*
X86027255Y-198857947D01*
X86027255Y-198857947D02*
X85284398Y-199600804D01*
X85284398Y-199600804D02*
X86089160Y-199600804D01*
D10*
D11*
X135284398Y-198300804D02*
X136089160Y-198300804D01*
X136089160Y-198300804D02*
X135655826Y-198796042D01*
X135655826Y-198796042D02*
X135841541Y-198796042D01*
X135841541Y-198796042D02*
X135965350Y-198857947D01*
X135965350Y-198857947D02*
X136027255Y-198919852D01*
X136027255Y-198919852D02*
X136089160Y-199043661D01*
X136089160Y-199043661D02*
X136089160Y-199353185D01*
X136089160Y-199353185D02*
X136027255Y-199476995D01*
X136027255Y-199476995D02*
X135965350Y-199538900D01*
X135965350Y-199538900D02*
X135841541Y-199600804D01*
X135841541Y-199600804D02*
X135470112Y-199600804D01*
X135470112Y-199600804D02*
X135346303Y-199538900D01*
X135346303Y-199538900D02*
X135284398Y-199476995D01*
D10*
D11*
X185965350Y-198734138D02*
X185965350Y-199600804D01*
X185655826Y-198238900D02*
X185346303Y-199167471D01*
X185346303Y-199167471D02*
X186151064Y-199167471D01*
D10*
D11*
X236027255Y-198300804D02*
X235408207Y-198300804D01*
X235408207Y-198300804D02*
X235346303Y-198919852D01*
X235346303Y-198919852D02*
X235408207Y-198857947D01*
X235408207Y-198857947D02*
X235532017Y-198796042D01*
X235532017Y-198796042D02*
X235841541Y-198796042D01*
X235841541Y-198796042D02*
X235965350Y-198857947D01*
X235965350Y-198857947D02*
X236027255Y-198919852D01*
X236027255Y-198919852D02*
X236089160Y-199043661D01*
X236089160Y-199043661D02*
X236089160Y-199353185D01*
X236089160Y-199353185D02*
X236027255Y-199476995D01*
X236027255Y-199476995D02*
X235965350Y-199538900D01*
X235965350Y-199538900D02*
X235841541Y-199600804D01*
X235841541Y-199600804D02*
X235532017Y-199600804D01*
X235532017Y-199600804D02*
X235408207Y-199538900D01*
X235408207Y-199538900D02*
X235346303Y-199476995D01*
D10*
D11*
X285965350Y-198300804D02*
X285717731Y-198300804D01*
X285717731Y-198300804D02*
X285593922Y-198362709D01*
X285593922Y-198362709D02*
X285532017Y-198424614D01*
X285532017Y-198424614D02*
X285408207Y-198610328D01*
X285408207Y-198610328D02*
X285346303Y-198857947D01*
X285346303Y-198857947D02*
X285346303Y-199353185D01*
X285346303Y-199353185D02*
X285408207Y-199476995D01*
X285408207Y-199476995D02*
X285470112Y-199538900D01*
X285470112Y-199538900D02*
X285593922Y-199600804D01*
X285593922Y-199600804D02*
X285841541Y-199600804D01*
X285841541Y-199600804D02*
X285965350Y-199538900D01*
X285965350Y-199538900D02*
X286027255Y-199476995D01*
X286027255Y-199476995D02*
X286089160Y-199353185D01*
X286089160Y-199353185D02*
X286089160Y-199043661D01*
X286089160Y-199043661D02*
X286027255Y-198919852D01*
X286027255Y-198919852D02*
X285965350Y-198857947D01*
X285965350Y-198857947D02*
X285841541Y-198796042D01*
X285841541Y-198796042D02*
X285593922Y-198796042D01*
X285593922Y-198796042D02*
X285470112Y-198857947D01*
X285470112Y-198857947D02*
X285408207Y-198919852D01*
X285408207Y-198919852D02*
X285346303Y-199043661D01*
D10*
D11*
X10000000Y-60000000D02*
X12000000Y-60000000D01*
D10*
D11*
X10000000Y-110000000D02*
X12000000Y-110000000D01*
D10*
D11*
X10000000Y-160000000D02*
X12000000Y-160000000D01*
D10*
D11*
X10690476Y-35222176D02*
X11309523Y-35222176D01*
X10566666Y-35593604D02*
X10999999Y-34293604D01*
X10999999Y-34293604D02*
X11433333Y-35593604D01*
D10*
D11*
X11092857Y-84912652D02*
X11278571Y-84974557D01*
X11278571Y-84974557D02*
X11340476Y-85036461D01*
X11340476Y-85036461D02*
X11402380Y-85160271D01*
X11402380Y-85160271D02*
X11402380Y-85345985D01*
X11402380Y-85345985D02*
X11340476Y-85469795D01*
X11340476Y-85469795D02*
X11278571Y-85531700D01*
X11278571Y-85531700D02*
X11154761Y-85593604D01*
X11154761Y-85593604D02*
X10659523Y-85593604D01*
X10659523Y-85593604D02*
X10659523Y-84293604D01*
X10659523Y-84293604D02*
X11092857Y-84293604D01*
X11092857Y-84293604D02*
X11216666Y-84355509D01*
X11216666Y-84355509D02*
X11278571Y-84417414D01*
X11278571Y-84417414D02*
X11340476Y-84541223D01*
X11340476Y-84541223D02*
X11340476Y-84665033D01*
X11340476Y-84665033D02*
X11278571Y-84788842D01*
X11278571Y-84788842D02*
X11216666Y-84850747D01*
X11216666Y-84850747D02*
X11092857Y-84912652D01*
X11092857Y-84912652D02*
X10659523Y-84912652D01*
D10*
D11*
X11402380Y-135469795D02*
X11340476Y-135531700D01*
X11340476Y-135531700D02*
X11154761Y-135593604D01*
X11154761Y-135593604D02*
X11030952Y-135593604D01*
X11030952Y-135593604D02*
X10845238Y-135531700D01*
X10845238Y-135531700D02*
X10721428Y-135407890D01*
X10721428Y-135407890D02*
X10659523Y-135284080D01*
X10659523Y-135284080D02*
X10597619Y-135036461D01*
X10597619Y-135036461D02*
X10597619Y-134850747D01*
X10597619Y-134850747D02*
X10659523Y-134603128D01*
X10659523Y-134603128D02*
X10721428Y-134479319D01*
X10721428Y-134479319D02*
X10845238Y-134355509D01*
X10845238Y-134355509D02*
X11030952Y-134293604D01*
X11030952Y-134293604D02*
X11154761Y-134293604D01*
X11154761Y-134293604D02*
X11340476Y-134355509D01*
X11340476Y-134355509D02*
X11402380Y-134417414D01*
D10*
D11*
X10659523Y-185593604D02*
X10659523Y-184293604D01*
X10659523Y-184293604D02*
X10969047Y-184293604D01*
X10969047Y-184293604D02*
X11154761Y-184355509D01*
X11154761Y-184355509D02*
X11278571Y-184479319D01*
X11278571Y-184479319D02*
X11340476Y-184603128D01*
X11340476Y-184603128D02*
X11402380Y-184850747D01*
X11402380Y-184850747D02*
X11402380Y-185036461D01*
X11402380Y-185036461D02*
X11340476Y-185284080D01*
X11340476Y-185284080D02*
X11278571Y-185407890D01*
X11278571Y-185407890D02*
X11154761Y-185531700D01*
X11154761Y-185531700D02*
X10969047Y-185593604D01*
X10969047Y-185593604D02*
X10659523Y-185593604D01*
D10*
D11*
X287002200Y-60000000D02*
X285002200Y-60000000D01*
D10*
D11*
X287002200Y-110000000D02*
X285002200Y-110000000D01*
D10*
D11*
X287002200Y-160000000D02*
X285002200Y-160000000D01*
D10*
D11*
X285692676Y-35222176D02*
X286311723Y-35222176D01*
X285568866Y-35593604D02*
X286002199Y-34293604D01*
X286002199Y-34293604D02*
X286435533Y-35593604D01*
D10*
D11*
X286095057Y-84912652D02*
X286280771Y-84974557D01*
X286280771Y-84974557D02*
X286342676Y-85036461D01*
X286342676Y-85036461D02*
X286404580Y-85160271D01*
X286404580Y-85160271D02*
X286404580Y-85345985D01*
X286404580Y-85345985D02*
X286342676Y-85469795D01*
X286342676Y-85469795D02*
X286280771Y-85531700D01*
X286280771Y-85531700D02*
X286156961Y-85593604D01*
X286156961Y-85593604D02*
X285661723Y-85593604D01*
X285661723Y-85593604D02*
X285661723Y-84293604D01*
X285661723Y-84293604D02*
X286095057Y-84293604D01*
X286095057Y-84293604D02*
X286218866Y-84355509D01*
X286218866Y-84355509D02*
X286280771Y-84417414D01*
X286280771Y-84417414D02*
X286342676Y-84541223D01*
X286342676Y-84541223D02*
X286342676Y-84665033D01*
X286342676Y-84665033D02*
X286280771Y-84788842D01*
X286280771Y-84788842D02*
X286218866Y-84850747D01*
X286218866Y-84850747D02*
X286095057Y-84912652D01*
X286095057Y-84912652D02*
X285661723Y-84912652D01*
D10*
D11*
X286404580Y-135469795D02*
X286342676Y-135531700D01*
X286342676Y-135531700D02*
X286156961Y-135593604D01*
X286156961Y-135593604D02*
X286033152Y-135593604D01*
X286033152Y-135593604D02*
X285847438Y-135531700D01*
X285847438Y-135531700D02*
X285723628Y-135407890D01*
X285723628Y-135407890D02*
X285661723Y-135284080D01*
X285661723Y-135284080D02*
X285599819Y-135036461D01*
X285599819Y-135036461D02*
X285599819Y-134850747D01*
X285599819Y-134850747D02*
X285661723Y-134603128D01*
X285661723Y-134603128D02*
X285723628Y-134479319D01*
X285723628Y-134479319D02*
X285847438Y-134355509D01*
X285847438Y-134355509D02*
X286033152Y-134293604D01*
X286033152Y-134293604D02*
X286156961Y-134293604D01*
X286156961Y-134293604D02*
X286342676Y-134355509D01*
X286342676Y-134355509D02*
X286404580Y-134417414D01*
D10*
D11*
X285661723Y-185593604D02*
X285661723Y-184293604D01*
X285661723Y-184293604D02*
X285971247Y-184293604D01*
X285971247Y-184293604D02*
X286156961Y-184355509D01*
X286156961Y-184355509D02*
X286280771Y-184479319D01*
X286280771Y-184479319D02*
X286342676Y-184603128D01*
X286342676Y-184603128D02*
X286404580Y-184850747D01*
X286404580Y-184850747D02*
X286404580Y-185036461D01*
X286404580Y-185036461D02*
X286342676Y-185284080D01*
X286342676Y-185284080D02*
X286280771Y-185407890D01*
X286280771Y-185407890D02*
X286156961Y-185531700D01*
X286156961Y-185531700D02*
X285971247Y-185593604D01*
X285971247Y-185593604D02*
X285661723Y-185593604D01*
D10*
D11*
X200458026Y-193793328D02*
X200458026Y-192293328D01*
X200458026Y-192293328D02*
X200815169Y-192293328D01*
X200815169Y-192293328D02*
X201029455Y-192364757D01*
X201029455Y-192364757D02*
X201172312Y-192507614D01*
X201172312Y-192507614D02*
X201243741Y-192650471D01*
X201243741Y-192650471D02*
X201315169Y-192936185D01*
X201315169Y-192936185D02*
X201315169Y-193150471D01*
X201315169Y-193150471D02*
X201243741Y-193436185D01*
X201243741Y-193436185D02*
X201172312Y-193579042D01*
X201172312Y-193579042D02*
X201029455Y-193721900D01*
X201029455Y-193721900D02*
X200815169Y-193793328D01*
X200815169Y-193793328D02*
X200458026Y-193793328D01*
X202600884Y-193793328D02*
X202600884Y-193007614D01*
X202600884Y-193007614D02*
X202529455Y-192864757D01*
X202529455Y-192864757D02*
X202386598Y-192793328D01*
X202386598Y-192793328D02*
X202100884Y-192793328D01*
X202100884Y-192793328D02*
X201958026Y-192864757D01*
X202600884Y-193721900D02*
X202458026Y-193793328D01*
X202458026Y-193793328D02*
X202100884Y-193793328D01*
X202100884Y-193793328D02*
X201958026Y-193721900D01*
X201958026Y-193721900D02*
X201886598Y-193579042D01*
X201886598Y-193579042D02*
X201886598Y-193436185D01*
X201886598Y-193436185D02*
X201958026Y-193293328D01*
X201958026Y-193293328D02*
X202100884Y-193221900D01*
X202100884Y-193221900D02*
X202458026Y-193221900D01*
X202458026Y-193221900D02*
X202600884Y-193150471D01*
X203100884Y-192793328D02*
X203672312Y-192793328D01*
X203315169Y-192293328D02*
X203315169Y-193579042D01*
X203315169Y-193579042D02*
X203386598Y-193721900D01*
X203386598Y-193721900D02*
X203529455Y-193793328D01*
X203529455Y-193793328D02*
X203672312Y-193793328D01*
X204743741Y-193721900D02*
X204600884Y-193793328D01*
X204600884Y-193793328D02*
X204315170Y-193793328D01*
X204315170Y-193793328D02*
X204172312Y-193721900D01*
X204172312Y-193721900D02*
X204100884Y-193579042D01*
X204100884Y-193579042D02*
X204100884Y-193007614D01*
X204100884Y-193007614D02*
X204172312Y-192864757D01*
X204172312Y-192864757D02*
X204315170Y-192793328D01*
X204315170Y-192793328D02*
X204600884Y-192793328D01*
X204600884Y-192793328D02*
X204743741Y-192864757D01*
X204743741Y-192864757D02*
X204815170Y-193007614D01*
X204815170Y-193007614D02*
X204815170Y-193150471D01*
X204815170Y-193150471D02*
X204100884Y-193293328D01*
X205458026Y-193650471D02*
X205529455Y-193721900D01*
X205529455Y-193721900D02*
X205458026Y-193793328D01*
X205458026Y-193793328D02*
X205386598Y-193721900D01*
X205386598Y-193721900D02*
X205458026Y-193650471D01*
X205458026Y-193650471D02*
X205458026Y-193793328D01*
X205458026Y-192864757D02*
X205529455Y-192936185D01*
X205529455Y-192936185D02*
X205458026Y-193007614D01*
X205458026Y-193007614D02*
X205386598Y-192936185D01*
X205386598Y-192936185D02*
X205458026Y-192864757D01*
X205458026Y-192864757D02*
X205458026Y-193007614D01*
D10*
D11*
X177002200Y-194507200D02*
X285002200Y-194507200D01*
D10*
D11*
X178458026Y-196593328D02*
X178458026Y-195093328D01*
X179315169Y-196593328D02*
X178672312Y-195736185D01*
X179315169Y-195093328D02*
X178458026Y-195950471D01*
X179958026Y-196593328D02*
X179958026Y-195593328D01*
X179958026Y-195093328D02*
X179886598Y-195164757D01*
X179886598Y-195164757D02*
X179958026Y-195236185D01*
X179958026Y-195236185D02*
X180029455Y-195164757D01*
X180029455Y-195164757D02*
X179958026Y-195093328D01*
X179958026Y-195093328D02*
X179958026Y-195236185D01*
X181529455Y-196450471D02*
X181458027Y-196521900D01*
X181458027Y-196521900D02*
X181243741Y-196593328D01*
X181243741Y-196593328D02*
X181100884Y-196593328D01*
X181100884Y-196593328D02*
X180886598Y-196521900D01*
X180886598Y-196521900D02*
X180743741Y-196379042D01*
X180743741Y-196379042D02*
X180672312Y-196236185D01*
X180672312Y-196236185D02*
X180600884Y-195950471D01*
X180600884Y-195950471D02*
X180600884Y-195736185D01*
X180600884Y-195736185D02*
X180672312Y-195450471D01*
X180672312Y-195450471D02*
X180743741Y-195307614D01*
X180743741Y-195307614D02*
X180886598Y-195164757D01*
X180886598Y-195164757D02*
X181100884Y-195093328D01*
X181100884Y-195093328D02*
X181243741Y-195093328D01*
X181243741Y-195093328D02*
X181458027Y-195164757D01*
X181458027Y-195164757D02*
X181529455Y-195236185D01*
X182815170Y-196593328D02*
X182815170Y-195807614D01*
X182815170Y-195807614D02*
X182743741Y-195664757D01*
X182743741Y-195664757D02*
X182600884Y-195593328D01*
X182600884Y-195593328D02*
X182315170Y-195593328D01*
X182315170Y-195593328D02*
X182172312Y-195664757D01*
X182815170Y-196521900D02*
X182672312Y-196593328D01*
X182672312Y-196593328D02*
X182315170Y-196593328D01*
X182315170Y-196593328D02*
X182172312Y-196521900D01*
X182172312Y-196521900D02*
X182100884Y-196379042D01*
X182100884Y-196379042D02*
X182100884Y-196236185D01*
X182100884Y-196236185D02*
X182172312Y-196093328D01*
X182172312Y-196093328D02*
X182315170Y-196021900D01*
X182315170Y-196021900D02*
X182672312Y-196021900D01*
X182672312Y-196021900D02*
X182815170Y-195950471D01*
X184172313Y-196593328D02*
X184172313Y-195093328D01*
X184172313Y-196521900D02*
X184029455Y-196593328D01*
X184029455Y-196593328D02*
X183743741Y-196593328D01*
X183743741Y-196593328D02*
X183600884Y-196521900D01*
X183600884Y-196521900D02*
X183529455Y-196450471D01*
X183529455Y-196450471D02*
X183458027Y-196307614D01*
X183458027Y-196307614D02*
X183458027Y-195879042D01*
X183458027Y-195879042D02*
X183529455Y-195736185D01*
X183529455Y-195736185D02*
X183600884Y-195664757D01*
X183600884Y-195664757D02*
X183743741Y-195593328D01*
X183743741Y-195593328D02*
X184029455Y-195593328D01*
X184029455Y-195593328D02*
X184172313Y-195664757D01*
X186029455Y-195807614D02*
X186529455Y-195807614D01*
X186743741Y-196593328D02*
X186029455Y-196593328D01*
X186029455Y-196593328D02*
X186029455Y-195093328D01*
X186029455Y-195093328D02*
X186743741Y-195093328D01*
X187386598Y-196450471D02*
X187458027Y-196521900D01*
X187458027Y-196521900D02*
X187386598Y-196593328D01*
X187386598Y-196593328D02*
X187315170Y-196521900D01*
X187315170Y-196521900D02*
X187386598Y-196450471D01*
X187386598Y-196450471D02*
X187386598Y-196593328D01*
X188100884Y-196593328D02*
X188100884Y-195093328D01*
X188100884Y-195093328D02*
X188458027Y-195093328D01*
X188458027Y-195093328D02*
X188672313Y-195164757D01*
X188672313Y-195164757D02*
X188815170Y-195307614D01*
X188815170Y-195307614D02*
X188886599Y-195450471D01*
X188886599Y-195450471D02*
X188958027Y-195736185D01*
X188958027Y-195736185D02*
X188958027Y-195950471D01*
X188958027Y-195950471D02*
X188886599Y-196236185D01*
X188886599Y-196236185D02*
X188815170Y-196379042D01*
X188815170Y-196379042D02*
X188672313Y-196521900D01*
X188672313Y-196521900D02*
X188458027Y-196593328D01*
X188458027Y-196593328D02*
X188100884Y-196593328D01*
X189600884Y-196450471D02*
X189672313Y-196521900D01*
X189672313Y-196521900D02*
X189600884Y-196593328D01*
X189600884Y-196593328D02*
X189529456Y-196521900D01*
X189529456Y-196521900D02*
X189600884Y-196450471D01*
X189600884Y-196450471D02*
X189600884Y-196593328D01*
X190243742Y-196164757D02*
X190958028Y-196164757D01*
X190100885Y-196593328D02*
X190600885Y-195093328D01*
X190600885Y-195093328D02*
X191100885Y-196593328D01*
X191600884Y-196450471D02*
X191672313Y-196521900D01*
X191672313Y-196521900D02*
X191600884Y-196593328D01*
X191600884Y-196593328D02*
X191529456Y-196521900D01*
X191529456Y-196521900D02*
X191600884Y-196450471D01*
X191600884Y-196450471D02*
X191600884Y-196593328D01*
X194600884Y-196593328D02*
X194600884Y-195093328D01*
X194743742Y-196021900D02*
X195172313Y-196593328D01*
X195172313Y-195593328D02*
X194600884Y-196164757D01*
X195815170Y-196593328D02*
X195815170Y-195593328D01*
X195815170Y-195093328D02*
X195743742Y-195164757D01*
X195743742Y-195164757D02*
X195815170Y-195236185D01*
X195815170Y-195236185D02*
X195886599Y-195164757D01*
X195886599Y-195164757D02*
X195815170Y-195093328D01*
X195815170Y-195093328D02*
X195815170Y-195236185D01*
X197172314Y-196521900D02*
X197029456Y-196593328D01*
X197029456Y-196593328D02*
X196743742Y-196593328D01*
X196743742Y-196593328D02*
X196600885Y-196521900D01*
X196600885Y-196521900D02*
X196529456Y-196450471D01*
X196529456Y-196450471D02*
X196458028Y-196307614D01*
X196458028Y-196307614D02*
X196458028Y-195879042D01*
X196458028Y-195879042D02*
X196529456Y-195736185D01*
X196529456Y-195736185D02*
X196600885Y-195664757D01*
X196600885Y-195664757D02*
X196743742Y-195593328D01*
X196743742Y-195593328D02*
X197029456Y-195593328D01*
X197029456Y-195593328D02*
X197172314Y-195664757D01*
X198458028Y-196593328D02*
X198458028Y-195807614D01*
X198458028Y-195807614D02*
X198386599Y-195664757D01*
X198386599Y-195664757D02*
X198243742Y-195593328D01*
X198243742Y-195593328D02*
X197958028Y-195593328D01*
X197958028Y-195593328D02*
X197815170Y-195664757D01*
X198458028Y-196521900D02*
X198315170Y-196593328D01*
X198315170Y-196593328D02*
X197958028Y-196593328D01*
X197958028Y-196593328D02*
X197815170Y-196521900D01*
X197815170Y-196521900D02*
X197743742Y-196379042D01*
X197743742Y-196379042D02*
X197743742Y-196236185D01*
X197743742Y-196236185D02*
X197815170Y-196093328D01*
X197815170Y-196093328D02*
X197958028Y-196021900D01*
X197958028Y-196021900D02*
X198315170Y-196021900D01*
X198315170Y-196021900D02*
X198458028Y-195950471D01*
X199815171Y-196593328D02*
X199815171Y-195093328D01*
X199815171Y-196521900D02*
X199672313Y-196593328D01*
X199672313Y-196593328D02*
X199386599Y-196593328D01*
X199386599Y-196593328D02*
X199243742Y-196521900D01*
X199243742Y-196521900D02*
X199172313Y-196450471D01*
X199172313Y-196450471D02*
X199100885Y-196307614D01*
X199100885Y-196307614D02*
X199100885Y-195879042D01*
X199100885Y-195879042D02*
X199172313Y-195736185D01*
X199172313Y-195736185D02*
X199243742Y-195664757D01*
X199243742Y-195664757D02*
X199386599Y-195593328D01*
X199386599Y-195593328D02*
X199672313Y-195593328D01*
X199672313Y-195593328D02*
X199815171Y-195664757D01*
X201529456Y-195093328D02*
X202529456Y-195093328D01*
X202529456Y-195093328D02*
X201886599Y-196593328D01*
X203100884Y-196450471D02*
X203172313Y-196521900D01*
X203172313Y-196521900D02*
X203100884Y-196593328D01*
X203100884Y-196593328D02*
X203029456Y-196521900D01*
X203029456Y-196521900D02*
X203100884Y-196450471D01*
X203100884Y-196450471D02*
X203100884Y-196593328D01*
X204100885Y-195093328D02*
X204243742Y-195093328D01*
X204243742Y-195093328D02*
X204386599Y-195164757D01*
X204386599Y-195164757D02*
X204458028Y-195236185D01*
X204458028Y-195236185D02*
X204529456Y-195379042D01*
X204529456Y-195379042D02*
X204600885Y-195664757D01*
X204600885Y-195664757D02*
X204600885Y-196021900D01*
X204600885Y-196021900D02*
X204529456Y-196307614D01*
X204529456Y-196307614D02*
X204458028Y-196450471D01*
X204458028Y-196450471D02*
X204386599Y-196521900D01*
X204386599Y-196521900D02*
X204243742Y-196593328D01*
X204243742Y-196593328D02*
X204100885Y-196593328D01*
X204100885Y-196593328D02*
X203958028Y-196521900D01*
X203958028Y-196521900D02*
X203886599Y-196450471D01*
X203886599Y-196450471D02*
X203815170Y-196307614D01*
X203815170Y-196307614D02*
X203743742Y-196021900D01*
X203743742Y-196021900D02*
X203743742Y-195664757D01*
X203743742Y-195664757D02*
X203815170Y-195379042D01*
X203815170Y-195379042D02*
X203886599Y-195236185D01*
X203886599Y-195236185D02*
X203958028Y-195164757D01*
X203958028Y-195164757D02*
X204100885Y-195093328D01*
X205243741Y-196450471D02*
X205315170Y-196521900D01*
X205315170Y-196521900D02*
X205243741Y-196593328D01*
X205243741Y-196593328D02*
X205172313Y-196521900D01*
X205172313Y-196521900D02*
X205243741Y-196450471D01*
X205243741Y-196450471D02*
X205243741Y-196593328D01*
X205815170Y-195093328D02*
X206815170Y-195093328D01*
X206815170Y-195093328D02*
X206172313Y-196593328D01*
D10*
D11*
X177002200Y-191507200D02*
X285002200Y-191507200D01*
D10*
D12*
X264413853Y-193785528D02*
X263913853Y-193071242D01*
X263556710Y-193785528D02*
X263556710Y-192285528D01*
X263556710Y-192285528D02*
X264128139Y-192285528D01*
X264128139Y-192285528D02*
X264270996Y-192356957D01*
X264270996Y-192356957D02*
X264342425Y-192428385D01*
X264342425Y-192428385D02*
X264413853Y-192571242D01*
X264413853Y-192571242D02*
X264413853Y-192785528D01*
X264413853Y-192785528D02*
X264342425Y-192928385D01*
X264342425Y-192928385D02*
X264270996Y-192999814D01*
X264270996Y-192999814D02*
X264128139Y-193071242D01*
X264128139Y-193071242D02*
X263556710Y-193071242D01*
X265628139Y-193714100D02*
X265485282Y-193785528D01*
X265485282Y-193785528D02*
X265199568Y-193785528D01*
X265199568Y-193785528D02*
X265056710Y-193714100D01*
X265056710Y-193714100D02*
X264985282Y-193571242D01*
X264985282Y-193571242D02*
X264985282Y-192999814D01*
X264985282Y-192999814D02*
X265056710Y-192856957D01*
X265056710Y-192856957D02*
X265199568Y-192785528D01*
X265199568Y-192785528D02*
X265485282Y-192785528D01*
X265485282Y-192785528D02*
X265628139Y-192856957D01*
X265628139Y-192856957D02*
X265699568Y-192999814D01*
X265699568Y-192999814D02*
X265699568Y-193142671D01*
X265699568Y-193142671D02*
X264985282Y-193285528D01*
X266199567Y-192785528D02*
X266556710Y-193785528D01*
X266556710Y-193785528D02*
X266913853Y-192785528D01*
X267485281Y-193642671D02*
X267556710Y-193714100D01*
X267556710Y-193714100D02*
X267485281Y-193785528D01*
X267485281Y-193785528D02*
X267413853Y-193714100D01*
X267413853Y-193714100D02*
X267485281Y-193642671D01*
X267485281Y-193642671D02*
X267485281Y-193785528D01*
X267485281Y-192856957D02*
X267556710Y-192928385D01*
X267556710Y-192928385D02*
X267485281Y-192999814D01*
X267485281Y-192999814D02*
X267413853Y-192928385D01*
X267413853Y-192928385D02*
X267485281Y-192856957D01*
X267485281Y-192856957D02*
X267485281Y-192999814D01*
D10*
D11*
X178386598Y-193721900D02*
X178600884Y-193793328D01*
X178600884Y-193793328D02*
X178958026Y-193793328D01*
X178958026Y-193793328D02*
X179100884Y-193721900D01*
X179100884Y-193721900D02*
X179172312Y-193650471D01*
X179172312Y-193650471D02*
X179243741Y-193507614D01*
X179243741Y-193507614D02*
X179243741Y-193364757D01*
X179243741Y-193364757D02*
X179172312Y-193221900D01*
X179172312Y-193221900D02*
X179100884Y-193150471D01*
X179100884Y-193150471D02*
X178958026Y-193079042D01*
X178958026Y-193079042D02*
X178672312Y-193007614D01*
X178672312Y-193007614D02*
X178529455Y-192936185D01*
X178529455Y-192936185D02*
X178458026Y-192864757D01*
X178458026Y-192864757D02*
X178386598Y-192721900D01*
X178386598Y-192721900D02*
X178386598Y-192579042D01*
X178386598Y-192579042D02*
X178458026Y-192436185D01*
X178458026Y-192436185D02*
X178529455Y-192364757D01*
X178529455Y-192364757D02*
X178672312Y-192293328D01*
X178672312Y-192293328D02*
X179029455Y-192293328D01*
X179029455Y-192293328D02*
X179243741Y-192364757D01*
X179886597Y-193793328D02*
X179886597Y-192793328D01*
X179886597Y-192293328D02*
X179815169Y-192364757D01*
X179815169Y-192364757D02*
X179886597Y-192436185D01*
X179886597Y-192436185D02*
X179958026Y-192364757D01*
X179958026Y-192364757D02*
X179886597Y-192293328D01*
X179886597Y-192293328D02*
X179886597Y-192436185D01*
X180458026Y-192793328D02*
X181243741Y-192793328D01*
X181243741Y-192793328D02*
X180458026Y-193793328D01*
X180458026Y-193793328D02*
X181243741Y-193793328D01*
X182386598Y-193721900D02*
X182243741Y-193793328D01*
X182243741Y-193793328D02*
X181958027Y-193793328D01*
X181958027Y-193793328D02*
X181815169Y-193721900D01*
X181815169Y-193721900D02*
X181743741Y-193579042D01*
X181743741Y-193579042D02*
X181743741Y-193007614D01*
X181743741Y-193007614D02*
X181815169Y-192864757D01*
X181815169Y-192864757D02*
X181958027Y-192793328D01*
X181958027Y-192793328D02*
X182243741Y-192793328D01*
X182243741Y-192793328D02*
X182386598Y-192864757D01*
X182386598Y-192864757D02*
X182458027Y-193007614D01*
X182458027Y-193007614D02*
X182458027Y-193150471D01*
X182458027Y-193150471D02*
X181743741Y-193293328D01*
X183100883Y-193650471D02*
X183172312Y-193721900D01*
X183172312Y-193721900D02*
X183100883Y-193793328D01*
X183100883Y-193793328D02*
X183029455Y-193721900D01*
X183029455Y-193721900D02*
X183100883Y-193650471D01*
X183100883Y-193650471D02*
X183100883Y-193793328D01*
X183100883Y-192864757D02*
X183172312Y-192936185D01*
X183172312Y-192936185D02*
X183100883Y-193007614D01*
X183100883Y-193007614D02*
X183029455Y-192936185D01*
X183029455Y-192936185D02*
X183100883Y-192864757D01*
X183100883Y-192864757D02*
X183100883Y-193007614D01*
X184886598Y-193364757D02*
X185600884Y-193364757D01*
X184743741Y-193793328D02*
X185243741Y-192293328D01*
X185243741Y-192293328D02*
X185743741Y-193793328D01*
X186886598Y-192793328D02*
X186886598Y-193793328D01*
X186529455Y-192221900D02*
X186172312Y-193293328D01*
X186172312Y-193293328D02*
X187100883Y-193293328D01*
D10*
D11*
X263458026Y-196593328D02*
X263458026Y-195093328D01*
X264815170Y-196593328D02*
X264815170Y-195093328D01*
X264815170Y-196521900D02*
X264672312Y-196593328D01*
X264672312Y-196593328D02*
X264386598Y-196593328D01*
X264386598Y-196593328D02*
X264243741Y-196521900D01*
X264243741Y-196521900D02*
X264172312Y-196450471D01*
X264172312Y-196450471D02*
X264100884Y-196307614D01*
X264100884Y-196307614D02*
X264100884Y-195879042D01*
X264100884Y-195879042D02*
X264172312Y-195736185D01*
X264172312Y-195736185D02*
X264243741Y-195664757D01*
X264243741Y-195664757D02*
X264386598Y-195593328D01*
X264386598Y-195593328D02*
X264672312Y-195593328D01*
X264672312Y-195593328D02*
X264815170Y-195664757D01*
X265529455Y-196450471D02*
X265600884Y-196521900D01*
X265600884Y-196521900D02*
X265529455Y-196593328D01*
X265529455Y-196593328D02*
X265458027Y-196521900D01*
X265458027Y-196521900D02*
X265529455Y-196450471D01*
X265529455Y-196450471D02*
X265529455Y-196593328D01*
X265529455Y-195664757D02*
X265600884Y-195736185D01*
X265600884Y-195736185D02*
X265529455Y-195807614D01*
X265529455Y-195807614D02*
X265458027Y-195736185D01*
X265458027Y-195736185D02*
X265529455Y-195664757D01*
X265529455Y-195664757D02*
X265529455Y-195807614D01*
X268172313Y-196593328D02*
X267315170Y-196593328D01*
X267743741Y-196593328D02*
X267743741Y-195093328D01*
X267743741Y-195093328D02*
X267600884Y-195307614D01*
X267600884Y-195307614D02*
X267458027Y-195450471D01*
X267458027Y-195450471D02*
X267315170Y-195521900D01*
X269886598Y-195021900D02*
X268600884Y-196950471D01*
X271172313Y-196593328D02*
X270315170Y-196593328D01*
X270743741Y-196593328D02*
X270743741Y-195093328D01*
X270743741Y-195093328D02*
X270600884Y-195307614D01*
X270600884Y-195307614D02*
X270458027Y-195450471D01*
X270458027Y-195450471D02*
X270315170Y-195521900D01*
D10*
D11*
X177002200Y-187507200D02*
X285002200Y-187507200D01*
D10*
D13*
X178693928Y-188211638D02*
X179836785Y-188211638D01*
X179015357Y-190211638D02*
X179265357Y-188211638D01*
X180253452Y-190211638D02*
X180420119Y-188878304D01*
X180503452Y-188211638D02*
X180396309Y-188306876D01*
X180396309Y-188306876D02*
X180479643Y-188402114D01*
X180479643Y-188402114D02*
X180586786Y-188306876D01*
X180586786Y-188306876D02*
X180503452Y-188211638D01*
X180503452Y-188211638D02*
X180479643Y-188402114D01*
X181086786Y-188878304D02*
X181848690Y-188878304D01*
X181455833Y-188211638D02*
X181241548Y-189925923D01*
X181241548Y-189925923D02*
X181312976Y-190116400D01*
X181312976Y-190116400D02*
X181491548Y-190211638D01*
X181491548Y-190211638D02*
X181682024Y-190211638D01*
X182634405Y-190211638D02*
X182455833Y-190116400D01*
X182455833Y-190116400D02*
X182384405Y-189925923D01*
X182384405Y-189925923D02*
X182598690Y-188211638D01*
X184170119Y-190116400D02*
X183967738Y-190211638D01*
X183967738Y-190211638D02*
X183586785Y-190211638D01*
X183586785Y-190211638D02*
X183408214Y-190116400D01*
X183408214Y-190116400D02*
X183336785Y-189925923D01*
X183336785Y-189925923D02*
X183432024Y-189164019D01*
X183432024Y-189164019D02*
X183551071Y-188973542D01*
X183551071Y-188973542D02*
X183753452Y-188878304D01*
X183753452Y-188878304D02*
X184134404Y-188878304D01*
X184134404Y-188878304D02*
X184312976Y-188973542D01*
X184312976Y-188973542D02*
X184384404Y-189164019D01*
X184384404Y-189164019D02*
X184360595Y-189354495D01*
X184360595Y-189354495D02*
X183384404Y-189544971D01*
X185134405Y-190021161D02*
X185217738Y-190116400D01*
X185217738Y-190116400D02*
X185110595Y-190211638D01*
X185110595Y-190211638D02*
X185027262Y-190116400D01*
X185027262Y-190116400D02*
X185134405Y-190021161D01*
X185134405Y-190021161D02*
X185110595Y-190211638D01*
X185265357Y-188973542D02*
X185348690Y-189068780D01*
X185348690Y-189068780D02*
X185241548Y-189164019D01*
X185241548Y-189164019D02*
X185158214Y-189068780D01*
X185158214Y-189068780D02*
X185265357Y-188973542D01*
X185265357Y-188973542D02*
X185241548Y-189164019D01*
D10*
D11*
X178958026Y-185607614D02*
X178458026Y-185607614D01*
X178458026Y-186393328D02*
X178458026Y-184893328D01*
X178458026Y-184893328D02*
X179172312Y-184893328D01*
X179743740Y-186393328D02*
X179743740Y-185393328D01*
X179743740Y-184893328D02*
X179672312Y-184964757D01*
X179672312Y-184964757D02*
X179743740Y-185036185D01*
X179743740Y-185036185D02*
X179815169Y-184964757D01*
X179815169Y-184964757D02*
X179743740Y-184893328D01*
X179743740Y-184893328D02*
X179743740Y-185036185D01*
X180672312Y-186393328D02*
X180529455Y-186321900D01*
X180529455Y-186321900D02*
X180458026Y-186179042D01*
X180458026Y-186179042D02*
X180458026Y-184893328D01*
X181815169Y-186321900D02*
X181672312Y-186393328D01*
X181672312Y-186393328D02*
X181386598Y-186393328D01*
X181386598Y-186393328D02*
X181243740Y-186321900D01*
X181243740Y-186321900D02*
X181172312Y-186179042D01*
X181172312Y-186179042D02*
X181172312Y-185607614D01*
X181172312Y-185607614D02*
X181243740Y-185464757D01*
X181243740Y-185464757D02*
X181386598Y-185393328D01*
X181386598Y-185393328D02*
X181672312Y-185393328D01*
X181672312Y-185393328D02*
X181815169Y-185464757D01*
X181815169Y-185464757D02*
X181886598Y-185607614D01*
X181886598Y-185607614D02*
X181886598Y-185750471D01*
X181886598Y-185750471D02*
X181172312Y-185893328D01*
X182529454Y-186250471D02*
X182600883Y-186321900D01*
X182600883Y-186321900D02*
X182529454Y-186393328D01*
X182529454Y-186393328D02*
X182458026Y-186321900D01*
X182458026Y-186321900D02*
X182529454Y-186250471D01*
X182529454Y-186250471D02*
X182529454Y-186393328D01*
X182529454Y-185464757D02*
X182600883Y-185536185D01*
X182600883Y-185536185D02*
X182529454Y-185607614D01*
X182529454Y-185607614D02*
X182458026Y-185536185D01*
X182458026Y-185536185D02*
X182529454Y-185464757D01*
X182529454Y-185464757D02*
X182529454Y-185607614D01*
X184315169Y-186321900D02*
X184458026Y-186393328D01*
X184458026Y-186393328D02*
X184743740Y-186393328D01*
X184743740Y-186393328D02*
X184886597Y-186321900D01*
X184886597Y-186321900D02*
X184958026Y-186179042D01*
X184958026Y-186179042D02*
X184958026Y-186107614D01*
X184958026Y-186107614D02*
X184886597Y-185964757D01*
X184886597Y-185964757D02*
X184743740Y-185893328D01*
X184743740Y-185893328D02*
X184529455Y-185893328D01*
X184529455Y-185893328D02*
X184386597Y-185821900D01*
X184386597Y-185821900D02*
X184315169Y-185679042D01*
X184315169Y-185679042D02*
X184315169Y-185607614D01*
X184315169Y-185607614D02*
X184386597Y-185464757D01*
X184386597Y-185464757D02*
X184529455Y-185393328D01*
X184529455Y-185393328D02*
X184743740Y-185393328D01*
X184743740Y-185393328D02*
X184886597Y-185464757D01*
X186172312Y-186321900D02*
X186029455Y-186393328D01*
X186029455Y-186393328D02*
X185743741Y-186393328D01*
X185743741Y-186393328D02*
X185600883Y-186321900D01*
X185600883Y-186321900D02*
X185529455Y-186179042D01*
X185529455Y-186179042D02*
X185529455Y-185607614D01*
X185529455Y-185607614D02*
X185600883Y-185464757D01*
X185600883Y-185464757D02*
X185743741Y-185393328D01*
X185743741Y-185393328D02*
X186029455Y-185393328D01*
X186029455Y-185393328D02*
X186172312Y-185464757D01*
X186172312Y-185464757D02*
X186243741Y-185607614D01*
X186243741Y-185607614D02*
X186243741Y-185750471D01*
X186243741Y-185750471D02*
X185529455Y-185893328D01*
X186886597Y-186393328D02*
X186886597Y-185393328D01*
X186886597Y-185679042D02*
X186958026Y-185536185D01*
X186958026Y-185536185D02*
X187029455Y-185464757D01*
X187029455Y-185464757D02*
X187172312Y-185393328D01*
X187172312Y-185393328D02*
X187315169Y-185393328D01*
X187672311Y-185393328D02*
X188029454Y-186393328D01*
X188029454Y-186393328D02*
X188386597Y-185393328D01*
X189172311Y-186393328D02*
X189029454Y-186321900D01*
X189029454Y-186321900D02*
X188958025Y-186250471D01*
X188958025Y-186250471D02*
X188886597Y-186107614D01*
X188886597Y-186107614D02*
X188886597Y-185679042D01*
X188886597Y-185679042D02*
X188958025Y-185536185D01*
X188958025Y-185536185D02*
X189029454Y-185464757D01*
X189029454Y-185464757D02*
X189172311Y-185393328D01*
X189172311Y-185393328D02*
X189386597Y-185393328D01*
X189386597Y-185393328D02*
X189529454Y-185464757D01*
X189529454Y-185464757D02*
X189600883Y-185536185D01*
X189600883Y-185536185D02*
X189672311Y-185679042D01*
X189672311Y-185679042D02*
X189672311Y-186107614D01*
X189672311Y-186107614D02*
X189600883Y-186250471D01*
X189600883Y-186250471D02*
X189529454Y-186321900D01*
X189529454Y-186321900D02*
X189386597Y-186393328D01*
X189386597Y-186393328D02*
X189172311Y-186393328D01*
X190958026Y-186321900D02*
X190815168Y-186393328D01*
X190815168Y-186393328D02*
X190529454Y-186393328D01*
X190529454Y-186393328D02*
X190386597Y-186321900D01*
X190386597Y-186321900D02*
X190315168Y-186250471D01*
X190315168Y-186250471D02*
X190243740Y-186107614D01*
X190243740Y-186107614D02*
X190243740Y-185679042D01*
X190243740Y-185679042D02*
X190315168Y-185536185D01*
X190315168Y-185536185D02*
X190386597Y-185464757D01*
X190386597Y-185464757D02*
X190529454Y-185393328D01*
X190529454Y-185393328D02*
X190815168Y-185393328D01*
X190815168Y-185393328D02*
X190958026Y-185464757D01*
X191815168Y-186393328D02*
X191672311Y-186321900D01*
X191672311Y-186321900D02*
X191600882Y-186250471D01*
X191600882Y-186250471D02*
X191529454Y-186107614D01*
X191529454Y-186107614D02*
X191529454Y-185679042D01*
X191529454Y-185679042D02*
X191600882Y-185536185D01*
X191600882Y-185536185D02*
X191672311Y-185464757D01*
X191672311Y-185464757D02*
X191815168Y-185393328D01*
X191815168Y-185393328D02*
X192029454Y-185393328D01*
X192029454Y-185393328D02*
X192172311Y-185464757D01*
X192172311Y-185464757D02*
X192243740Y-185536185D01*
X192243740Y-185536185D02*
X192315168Y-185679042D01*
X192315168Y-185679042D02*
X192315168Y-186107614D01*
X192315168Y-186107614D02*
X192243740Y-186250471D01*
X192243740Y-186250471D02*
X192172311Y-186321900D01*
X192172311Y-186321900D02*
X192029454Y-186393328D01*
X192029454Y-186393328D02*
X191815168Y-186393328D01*
X192958025Y-185393328D02*
X192958025Y-186393328D01*
X192958025Y-185536185D02*
X193029454Y-185464757D01*
X193029454Y-185464757D02*
X193172311Y-185393328D01*
X193172311Y-185393328D02*
X193386597Y-185393328D01*
X193386597Y-185393328D02*
X193529454Y-185464757D01*
X193529454Y-185464757D02*
X193600883Y-185607614D01*
X193600883Y-185607614D02*
X193600883Y-186393328D01*
X194100883Y-185393328D02*
X194672311Y-185393328D01*
X194315168Y-184893328D02*
X194315168Y-186179042D01*
X194315168Y-186179042D02*
X194386597Y-186321900D01*
X194386597Y-186321900D02*
X194529454Y-186393328D01*
X194529454Y-186393328D02*
X194672311Y-186393328D01*
X195172311Y-186393328D02*
X195172311Y-185393328D01*
X195172311Y-185679042D02*
X195243740Y-185536185D01*
X195243740Y-185536185D02*
X195315169Y-185464757D01*
X195315169Y-185464757D02*
X195458026Y-185393328D01*
X195458026Y-185393328D02*
X195600883Y-185393328D01*
X196315168Y-186393328D02*
X196172311Y-186321900D01*
X196172311Y-186321900D02*
X196100882Y-186250471D01*
X196100882Y-186250471D02*
X196029454Y-186107614D01*
X196029454Y-186107614D02*
X196029454Y-185679042D01*
X196029454Y-185679042D02*
X196100882Y-185536185D01*
X196100882Y-185536185D02*
X196172311Y-185464757D01*
X196172311Y-185464757D02*
X196315168Y-185393328D01*
X196315168Y-185393328D02*
X196529454Y-185393328D01*
X196529454Y-185393328D02*
X196672311Y-185464757D01*
X196672311Y-185464757D02*
X196743740Y-185536185D01*
X196743740Y-185536185D02*
X196815168Y-185679042D01*
X196815168Y-185679042D02*
X196815168Y-186107614D01*
X196815168Y-186107614D02*
X196743740Y-186250471D01*
X196743740Y-186250471D02*
X196672311Y-186321900D01*
X196672311Y-186321900D02*
X196529454Y-186393328D01*
X196529454Y-186393328D02*
X196315168Y-186393328D01*
X197672311Y-186393328D02*
X197529454Y-186321900D01*
X197529454Y-186321900D02*
X197458025Y-186179042D01*
X197458025Y-186179042D02*
X197458025Y-184893328D01*
X198458025Y-186393328D02*
X198315168Y-186321900D01*
X198315168Y-186321900D02*
X198243739Y-186179042D01*
X198243739Y-186179042D02*
X198243739Y-184893328D01*
X199600882Y-186321900D02*
X199458025Y-186393328D01*
X199458025Y-186393328D02*
X199172311Y-186393328D01*
X199172311Y-186393328D02*
X199029453Y-186321900D01*
X199029453Y-186321900D02*
X198958025Y-186179042D01*
X198958025Y-186179042D02*
X198958025Y-185607614D01*
X198958025Y-185607614D02*
X199029453Y-185464757D01*
X199029453Y-185464757D02*
X199172311Y-185393328D01*
X199172311Y-185393328D02*
X199458025Y-185393328D01*
X199458025Y-185393328D02*
X199600882Y-185464757D01*
X199600882Y-185464757D02*
X199672311Y-185607614D01*
X199672311Y-185607614D02*
X199672311Y-185750471D01*
X199672311Y-185750471D02*
X198958025Y-185893328D01*
X200315167Y-186393328D02*
X200315167Y-185393328D01*
X200315167Y-185679042D02*
X200386596Y-185536185D01*
X200386596Y-185536185D02*
X200458025Y-185464757D01*
X200458025Y-185464757D02*
X200600882Y-185393328D01*
X200600882Y-185393328D02*
X200743739Y-185393328D01*
X201243738Y-185393328D02*
X201243738Y-186893328D01*
X201243738Y-185464757D02*
X201386596Y-185393328D01*
X201386596Y-185393328D02*
X201672310Y-185393328D01*
X201672310Y-185393328D02*
X201815167Y-185464757D01*
X201815167Y-185464757D02*
X201886596Y-185536185D01*
X201886596Y-185536185D02*
X201958024Y-185679042D01*
X201958024Y-185679042D02*
X201958024Y-186107614D01*
X201958024Y-186107614D02*
X201886596Y-186250471D01*
X201886596Y-186250471D02*
X201815167Y-186321900D01*
X201815167Y-186321900D02*
X201672310Y-186393328D01*
X201672310Y-186393328D02*
X201386596Y-186393328D01*
X201386596Y-186393328D02*
X201243738Y-186321900D01*
X202600881Y-186393328D02*
X202600881Y-185393328D01*
X202600881Y-185679042D02*
X202672310Y-185536185D01*
X202672310Y-185536185D02*
X202743739Y-185464757D01*
X202743739Y-185464757D02*
X202886596Y-185393328D01*
X202886596Y-185393328D02*
X203029453Y-185393328D01*
X203743738Y-186393328D02*
X203600881Y-186321900D01*
X203600881Y-186321900D02*
X203529452Y-186250471D01*
X203529452Y-186250471D02*
X203458024Y-186107614D01*
X203458024Y-186107614D02*
X203458024Y-185679042D01*
X203458024Y-185679042D02*
X203529452Y-185536185D01*
X203529452Y-185536185D02*
X203600881Y-185464757D01*
X203600881Y-185464757D02*
X203743738Y-185393328D01*
X203743738Y-185393328D02*
X203958024Y-185393328D01*
X203958024Y-185393328D02*
X204100881Y-185464757D01*
X204100881Y-185464757D02*
X204172310Y-185536185D01*
X204172310Y-185536185D02*
X204243738Y-185679042D01*
X204243738Y-185679042D02*
X204243738Y-186107614D01*
X204243738Y-186107614D02*
X204172310Y-186250471D01*
X204172310Y-186250471D02*
X204100881Y-186321900D01*
X204100881Y-186321900D02*
X203958024Y-186393328D01*
X203958024Y-186393328D02*
X203743738Y-186393328D01*
X204886595Y-185393328D02*
X204886595Y-186679042D01*
X204886595Y-186679042D02*
X204815167Y-186821900D01*
X204815167Y-186821900D02*
X204672310Y-186893328D01*
X204672310Y-186893328D02*
X204600881Y-186893328D01*
X204886595Y-184893328D02*
X204815167Y-184964757D01*
X204815167Y-184964757D02*
X204886595Y-185036185D01*
X204886595Y-185036185D02*
X204958024Y-184964757D01*
X204958024Y-184964757D02*
X204886595Y-184893328D01*
X204886595Y-184893328D02*
X204886595Y-185036185D01*
X206172310Y-186321900D02*
X206029453Y-186393328D01*
X206029453Y-186393328D02*
X205743739Y-186393328D01*
X205743739Y-186393328D02*
X205600881Y-186321900D01*
X205600881Y-186321900D02*
X205529453Y-186179042D01*
X205529453Y-186179042D02*
X205529453Y-185607614D01*
X205529453Y-185607614D02*
X205600881Y-185464757D01*
X205600881Y-185464757D02*
X205743739Y-185393328D01*
X205743739Y-185393328D02*
X206029453Y-185393328D01*
X206029453Y-185393328D02*
X206172310Y-185464757D01*
X206172310Y-185464757D02*
X206243739Y-185607614D01*
X206243739Y-185607614D02*
X206243739Y-185750471D01*
X206243739Y-185750471D02*
X205529453Y-185893328D01*
X207529453Y-186321900D02*
X207386595Y-186393328D01*
X207386595Y-186393328D02*
X207100881Y-186393328D01*
X207100881Y-186393328D02*
X206958024Y-186321900D01*
X206958024Y-186321900D02*
X206886595Y-186250471D01*
X206886595Y-186250471D02*
X206815167Y-186107614D01*
X206815167Y-186107614D02*
X206815167Y-185679042D01*
X206815167Y-185679042D02*
X206886595Y-185536185D01*
X206886595Y-185536185D02*
X206958024Y-185464757D01*
X206958024Y-185464757D02*
X207100881Y-185393328D01*
X207100881Y-185393328D02*
X207386595Y-185393328D01*
X207386595Y-185393328D02*
X207529453Y-185464757D01*
X207958024Y-185393328D02*
X208529452Y-185393328D01*
X208172309Y-184893328D02*
X208172309Y-186179042D01*
X208172309Y-186179042D02*
X208243738Y-186321900D01*
X208243738Y-186321900D02*
X208386595Y-186393328D01*
X208386595Y-186393328D02*
X208529452Y-186393328D01*
X209029452Y-186250471D02*
X209100881Y-186321900D01*
X209100881Y-186321900D02*
X209029452Y-186393328D01*
X209029452Y-186393328D02*
X208958024Y-186321900D01*
X208958024Y-186321900D02*
X209029452Y-186250471D01*
X209029452Y-186250471D02*
X209029452Y-186393328D01*
X209743738Y-186393328D02*
X209743738Y-184893328D01*
X209886596Y-185821900D02*
X210315167Y-186393328D01*
X210315167Y-185393328D02*
X209743738Y-185964757D01*
X210958024Y-186393328D02*
X210958024Y-185393328D01*
X210958024Y-184893328D02*
X210886596Y-184964757D01*
X210886596Y-184964757D02*
X210958024Y-185036185D01*
X210958024Y-185036185D02*
X211029453Y-184964757D01*
X211029453Y-184964757D02*
X210958024Y-184893328D01*
X210958024Y-184893328D02*
X210958024Y-185036185D01*
X212315168Y-186321900D02*
X212172310Y-186393328D01*
X212172310Y-186393328D02*
X211886596Y-186393328D01*
X211886596Y-186393328D02*
X211743739Y-186321900D01*
X211743739Y-186321900D02*
X211672310Y-186250471D01*
X211672310Y-186250471D02*
X211600882Y-186107614D01*
X211600882Y-186107614D02*
X211600882Y-185679042D01*
X211600882Y-185679042D02*
X211672310Y-185536185D01*
X211672310Y-185536185D02*
X211743739Y-185464757D01*
X211743739Y-185464757D02*
X211886596Y-185393328D01*
X211886596Y-185393328D02*
X212172310Y-185393328D01*
X212172310Y-185393328D02*
X212315168Y-185464757D01*
X213600882Y-186393328D02*
X213600882Y-185607614D01*
X213600882Y-185607614D02*
X213529453Y-185464757D01*
X213529453Y-185464757D02*
X213386596Y-185393328D01*
X213386596Y-185393328D02*
X213100882Y-185393328D01*
X213100882Y-185393328D02*
X212958024Y-185464757D01*
X213600882Y-186321900D02*
X213458024Y-186393328D01*
X213458024Y-186393328D02*
X213100882Y-186393328D01*
X213100882Y-186393328D02*
X212958024Y-186321900D01*
X212958024Y-186321900D02*
X212886596Y-186179042D01*
X212886596Y-186179042D02*
X212886596Y-186036185D01*
X212886596Y-186036185D02*
X212958024Y-185893328D01*
X212958024Y-185893328D02*
X213100882Y-185821900D01*
X213100882Y-185821900D02*
X213458024Y-185821900D01*
X213458024Y-185821900D02*
X213600882Y-185750471D01*
X214958025Y-186393328D02*
X214958025Y-184893328D01*
X214958025Y-186321900D02*
X214815167Y-186393328D01*
X214815167Y-186393328D02*
X214529453Y-186393328D01*
X214529453Y-186393328D02*
X214386596Y-186321900D01*
X214386596Y-186321900D02*
X214315167Y-186250471D01*
X214315167Y-186250471D02*
X214243739Y-186107614D01*
X214243739Y-186107614D02*
X214243739Y-185679042D01*
X214243739Y-185679042D02*
X214315167Y-185536185D01*
X214315167Y-185536185D02*
X214386596Y-185464757D01*
X214386596Y-185464757D02*
X214529453Y-185393328D01*
X214529453Y-185393328D02*
X214815167Y-185393328D01*
X214815167Y-185393328D02*
X214958025Y-185464757D01*
X215315168Y-186536185D02*
X216458025Y-186536185D01*
X216815167Y-185393328D02*
X216815167Y-186893328D01*
X216815167Y-185464757D02*
X216958025Y-185393328D01*
X216958025Y-185393328D02*
X217243739Y-185393328D01*
X217243739Y-185393328D02*
X217386596Y-185464757D01*
X217386596Y-185464757D02*
X217458025Y-185536185D01*
X217458025Y-185536185D02*
X217529453Y-185679042D01*
X217529453Y-185679042D02*
X217529453Y-186107614D01*
X217529453Y-186107614D02*
X217458025Y-186250471D01*
X217458025Y-186250471D02*
X217386596Y-186321900D01*
X217386596Y-186321900D02*
X217243739Y-186393328D01*
X217243739Y-186393328D02*
X216958025Y-186393328D01*
X216958025Y-186393328D02*
X216815167Y-186321900D01*
X218815168Y-186321900D02*
X218672310Y-186393328D01*
X218672310Y-186393328D02*
X218386596Y-186393328D01*
X218386596Y-186393328D02*
X218243739Y-186321900D01*
X218243739Y-186321900D02*
X218172310Y-186250471D01*
X218172310Y-186250471D02*
X218100882Y-186107614D01*
X218100882Y-186107614D02*
X218100882Y-185679042D01*
X218100882Y-185679042D02*
X218172310Y-185536185D01*
X218172310Y-185536185D02*
X218243739Y-185464757D01*
X218243739Y-185464757D02*
X218386596Y-185393328D01*
X218386596Y-185393328D02*
X218672310Y-185393328D01*
X218672310Y-185393328D02*
X218815168Y-185464757D01*
X219458024Y-186393328D02*
X219458024Y-184893328D01*
X219458024Y-185464757D02*
X219600882Y-185393328D01*
X219600882Y-185393328D02*
X219886596Y-185393328D01*
X219886596Y-185393328D02*
X220029453Y-185464757D01*
X220029453Y-185464757D02*
X220100882Y-185536185D01*
X220100882Y-185536185D02*
X220172310Y-185679042D01*
X220172310Y-185679042D02*
X220172310Y-186107614D01*
X220172310Y-186107614D02*
X220100882Y-186250471D01*
X220100882Y-186250471D02*
X220029453Y-186321900D01*
X220029453Y-186321900D02*
X219886596Y-186393328D01*
X219886596Y-186393328D02*
X219600882Y-186393328D01*
X219600882Y-186393328D02*
X219458024Y-186321900D01*
D10*
D11*
X177002200Y-181507200D02*
X285002200Y-181507200D01*
D10*
D11*
X178386598Y-183621900D02*
X178600884Y-183693328D01*
X178600884Y-183693328D02*
X178958026Y-183693328D01*
X178958026Y-183693328D02*
X179100884Y-183621900D01*
X179100884Y-183621900D02*
X179172312Y-183550471D01*
X179172312Y-183550471D02*
X179243741Y-183407614D01*
X179243741Y-183407614D02*
X179243741Y-183264757D01*
X179243741Y-183264757D02*
X179172312Y-183121900D01*
X179172312Y-183121900D02*
X179100884Y-183050471D01*
X179100884Y-183050471D02*
X178958026Y-182979042D01*
X178958026Y-182979042D02*
X178672312Y-182907614D01*
X178672312Y-182907614D02*
X178529455Y-182836185D01*
X178529455Y-182836185D02*
X178458026Y-182764757D01*
X178458026Y-182764757D02*
X178386598Y-182621900D01*
X178386598Y-182621900D02*
X178386598Y-182479042D01*
X178386598Y-182479042D02*
X178458026Y-182336185D01*
X178458026Y-182336185D02*
X178529455Y-182264757D01*
X178529455Y-182264757D02*
X178672312Y-182193328D01*
X178672312Y-182193328D02*
X179029455Y-182193328D01*
X179029455Y-182193328D02*
X179243741Y-182264757D01*
X179886597Y-183693328D02*
X179886597Y-182193328D01*
X180529455Y-183693328D02*
X180529455Y-182907614D01*
X180529455Y-182907614D02*
X180458026Y-182764757D01*
X180458026Y-182764757D02*
X180315169Y-182693328D01*
X180315169Y-182693328D02*
X180100883Y-182693328D01*
X180100883Y-182693328D02*
X179958026Y-182764757D01*
X179958026Y-182764757D02*
X179886597Y-182836185D01*
X181815169Y-183621900D02*
X181672312Y-183693328D01*
X181672312Y-183693328D02*
X181386598Y-183693328D01*
X181386598Y-183693328D02*
X181243740Y-183621900D01*
X181243740Y-183621900D02*
X181172312Y-183479042D01*
X181172312Y-183479042D02*
X181172312Y-182907614D01*
X181172312Y-182907614D02*
X181243740Y-182764757D01*
X181243740Y-182764757D02*
X181386598Y-182693328D01*
X181386598Y-182693328D02*
X181672312Y-182693328D01*
X181672312Y-182693328D02*
X181815169Y-182764757D01*
X181815169Y-182764757D02*
X181886598Y-182907614D01*
X181886598Y-182907614D02*
X181886598Y-183050471D01*
X181886598Y-183050471D02*
X181172312Y-183193328D01*
X183100883Y-183621900D02*
X182958026Y-183693328D01*
X182958026Y-183693328D02*
X182672312Y-183693328D01*
X182672312Y-183693328D02*
X182529454Y-183621900D01*
X182529454Y-183621900D02*
X182458026Y-183479042D01*
X182458026Y-183479042D02*
X182458026Y-182907614D01*
X182458026Y-182907614D02*
X182529454Y-182764757D01*
X182529454Y-182764757D02*
X182672312Y-182693328D01*
X182672312Y-182693328D02*
X182958026Y-182693328D01*
X182958026Y-182693328D02*
X183100883Y-182764757D01*
X183100883Y-182764757D02*
X183172312Y-182907614D01*
X183172312Y-182907614D02*
X183172312Y-183050471D01*
X183172312Y-183050471D02*
X182458026Y-183193328D01*
X183600883Y-182693328D02*
X184172311Y-182693328D01*
X183815168Y-182193328D02*
X183815168Y-183479042D01*
X183815168Y-183479042D02*
X183886597Y-183621900D01*
X183886597Y-183621900D02*
X184029454Y-183693328D01*
X184029454Y-183693328D02*
X184172311Y-183693328D01*
X184672311Y-183550471D02*
X184743740Y-183621900D01*
X184743740Y-183621900D02*
X184672311Y-183693328D01*
X184672311Y-183693328D02*
X184600883Y-183621900D01*
X184600883Y-183621900D02*
X184672311Y-183550471D01*
X184672311Y-183550471D02*
X184672311Y-183693328D01*
X184672311Y-182764757D02*
X184743740Y-182836185D01*
X184743740Y-182836185D02*
X184672311Y-182907614D01*
X184672311Y-182907614D02*
X184600883Y-182836185D01*
X184600883Y-182836185D02*
X184672311Y-182764757D01*
X184672311Y-182764757D02*
X184672311Y-182907614D01*
D10*
D12*
D10*
D11*
D10*
D11*
D10*
D11*
D10*
D11*
D10*
D11*
X197002200Y-191507200D02*
X197002200Y-194507200D01*
D10*
D11*
X261002200Y-191507200D02*
X261002200Y-198007200D01*
X143908207Y-91114580D02*
X143860588Y-91162200D01*
X143860588Y-91162200D02*
X143717731Y-91209819D01*
X143717731Y-91209819D02*
X143622493Y-91209819D01*
X143622493Y-91209819D02*
X143479636Y-91162200D01*
X143479636Y-91162200D02*
X143384398Y-91066961D01*
X143384398Y-91066961D02*
X143336779Y-90971723D01*
X143336779Y-90971723D02*
X143289160Y-90781247D01*
X143289160Y-90781247D02*
X143289160Y-90638390D01*
X143289160Y-90638390D02*
X143336779Y-90447914D01*
X143336779Y-90447914D02*
X143384398Y-90352676D01*
X143384398Y-90352676D02*
X143479636Y-90257438D01*
X143479636Y-90257438D02*
X143622493Y-90209819D01*
X143622493Y-90209819D02*
X143717731Y-90209819D01*
X143717731Y-90209819D02*
X143860588Y-90257438D01*
X143860588Y-90257438D02*
X143908207Y-90305057D01*
X144479636Y-91209819D02*
X144384398Y-91162200D01*
X144384398Y-91162200D02*
X144336779Y-91114580D01*
X144336779Y-91114580D02*
X144289160Y-91019342D01*
X144289160Y-91019342D02*
X144289160Y-90733628D01*
X144289160Y-90733628D02*
X144336779Y-90638390D01*
X144336779Y-90638390D02*
X144384398Y-90590771D01*
X144384398Y-90590771D02*
X144479636Y-90543152D01*
X144479636Y-90543152D02*
X144622493Y-90543152D01*
X144622493Y-90543152D02*
X144717731Y-90590771D01*
X144717731Y-90590771D02*
X144765350Y-90638390D01*
X144765350Y-90638390D02*
X144812969Y-90733628D01*
X144812969Y-90733628D02*
X144812969Y-91019342D01*
X144812969Y-91019342D02*
X144765350Y-91114580D01*
X144765350Y-91114580D02*
X144717731Y-91162200D01*
X144717731Y-91162200D02*
X144622493Y-91209819D01*
X144622493Y-91209819D02*
X144479636Y-91209819D01*
X145241541Y-90543152D02*
X145241541Y-91543152D01*
X145241541Y-90590771D02*
X145336779Y-90543152D01*
X145336779Y-90543152D02*
X145527255Y-90543152D01*
X145527255Y-90543152D02*
X145622493Y-90590771D01*
X145622493Y-90590771D02*
X145670112Y-90638390D01*
X145670112Y-90638390D02*
X145717731Y-90733628D01*
X145717731Y-90733628D02*
X145717731Y-91019342D01*
X145717731Y-91019342D02*
X145670112Y-91114580D01*
X145670112Y-91114580D02*
X145622493Y-91162200D01*
X145622493Y-91162200D02*
X145527255Y-91209819D01*
X145527255Y-91209819D02*
X145336779Y-91209819D01*
X145336779Y-91209819D02*
X145241541Y-91162200D01*
X146051065Y-90543152D02*
X146289160Y-91209819D01*
X146527255Y-90543152D02*
X146289160Y-91209819D01*
X146289160Y-91209819D02*
X146193922Y-91447914D01*
X146193922Y-91447914D02*
X146146303Y-91495533D01*
X146146303Y-91495533D02*
X146051065Y-91543152D01*
X146908208Y-91209819D02*
X146908208Y-90543152D01*
X146908208Y-90733628D02*
X146955827Y-90638390D01*
X146955827Y-90638390D02*
X147003446Y-90590771D01*
X147003446Y-90590771D02*
X147098684Y-90543152D01*
X147098684Y-90543152D02*
X147193922Y-90543152D01*
X147527256Y-91209819D02*
X147527256Y-90543152D01*
X147527256Y-90209819D02*
X147479637Y-90257438D01*
X147479637Y-90257438D02*
X147527256Y-90305057D01*
X147527256Y-90305057D02*
X147574875Y-90257438D01*
X147574875Y-90257438D02*
X147527256Y-90209819D01*
X147527256Y-90209819D02*
X147527256Y-90305057D01*
X148432017Y-90543152D02*
X148432017Y-91352676D01*
X148432017Y-91352676D02*
X148384398Y-91447914D01*
X148384398Y-91447914D02*
X148336779Y-91495533D01*
X148336779Y-91495533D02*
X148241541Y-91543152D01*
X148241541Y-91543152D02*
X148098684Y-91543152D01*
X148098684Y-91543152D02*
X148003446Y-91495533D01*
X148432017Y-91162200D02*
X148336779Y-91209819D01*
X148336779Y-91209819D02*
X148146303Y-91209819D01*
X148146303Y-91209819D02*
X148051065Y-91162200D01*
X148051065Y-91162200D02*
X148003446Y-91114580D01*
X148003446Y-91114580D02*
X147955827Y-91019342D01*
X147955827Y-91019342D02*
X147955827Y-90733628D01*
X147955827Y-90733628D02*
X148003446Y-90638390D01*
X148003446Y-90638390D02*
X148051065Y-90590771D01*
X148051065Y-90590771D02*
X148146303Y-90543152D01*
X148146303Y-90543152D02*
X148336779Y-90543152D01*
X148336779Y-90543152D02*
X148432017Y-90590771D01*
X148908208Y-91209819D02*
X148908208Y-90209819D01*
X149336779Y-91209819D02*
X149336779Y-90686009D01*
X149336779Y-90686009D02*
X149289160Y-90590771D01*
X149289160Y-90590771D02*
X149193922Y-90543152D01*
X149193922Y-90543152D02*
X149051065Y-90543152D01*
X149051065Y-90543152D02*
X148955827Y-90590771D01*
X148955827Y-90590771D02*
X148908208Y-90638390D01*
X149670113Y-90543152D02*
X150051065Y-90543152D01*
X149812970Y-90209819D02*
X149812970Y-91066961D01*
X149812970Y-91066961D02*
X149860589Y-91162200D01*
X149860589Y-91162200D02*
X149955827Y-91209819D01*
X149955827Y-91209819D02*
X150051065Y-91209819D01*
X151432018Y-91590771D02*
X151384399Y-91543152D01*
X151384399Y-91543152D02*
X151289161Y-91400295D01*
X151289161Y-91400295D02*
X151241542Y-91305057D01*
X151241542Y-91305057D02*
X151193923Y-91162200D01*
X151193923Y-91162200D02*
X151146304Y-90924104D01*
X151146304Y-90924104D02*
X151146304Y-90733628D01*
X151146304Y-90733628D02*
X151193923Y-90495533D01*
X151193923Y-90495533D02*
X151241542Y-90352676D01*
X151241542Y-90352676D02*
X151289161Y-90257438D01*
X151289161Y-90257438D02*
X151384399Y-90114580D01*
X151384399Y-90114580D02*
X151432018Y-90066961D01*
X152241542Y-91162200D02*
X152146304Y-91209819D01*
X152146304Y-91209819D02*
X151955828Y-91209819D01*
X151955828Y-91209819D02*
X151860590Y-91162200D01*
X151860590Y-91162200D02*
X151812971Y-91114580D01*
X151812971Y-91114580D02*
X151765352Y-91019342D01*
X151765352Y-91019342D02*
X151765352Y-90733628D01*
X151765352Y-90733628D02*
X151812971Y-90638390D01*
X151812971Y-90638390D02*
X151860590Y-90590771D01*
X151860590Y-90590771D02*
X151955828Y-90543152D01*
X151955828Y-90543152D02*
X152146304Y-90543152D01*
X152146304Y-90543152D02*
X152241542Y-90590771D01*
X152574876Y-91590771D02*
X152622495Y-91543152D01*
X152622495Y-91543152D02*
X152717733Y-91400295D01*
X152717733Y-91400295D02*
X152765352Y-91305057D01*
X152765352Y-91305057D02*
X152812971Y-91162200D01*
X152812971Y-91162200D02*
X152860590Y-90924104D01*
X152860590Y-90924104D02*
X152860590Y-90733628D01*
X152860590Y-90733628D02*
X152812971Y-90495533D01*
X152812971Y-90495533D02*
X152765352Y-90352676D01*
X152765352Y-90352676D02*
X152717733Y-90257438D01*
X152717733Y-90257438D02*
X152622495Y-90114580D01*
X152622495Y-90114580D02*
X152574876Y-90066961D01*
X154051067Y-90305057D02*
X154098686Y-90257438D01*
X154098686Y-90257438D02*
X154193924Y-90209819D01*
X154193924Y-90209819D02*
X154432019Y-90209819D01*
X154432019Y-90209819D02*
X154527257Y-90257438D01*
X154527257Y-90257438D02*
X154574876Y-90305057D01*
X154574876Y-90305057D02*
X154622495Y-90400295D01*
X154622495Y-90400295D02*
X154622495Y-90495533D01*
X154622495Y-90495533D02*
X154574876Y-90638390D01*
X154574876Y-90638390D02*
X154003448Y-91209819D01*
X154003448Y-91209819D02*
X154622495Y-91209819D01*
X155241543Y-90209819D02*
X155336781Y-90209819D01*
X155336781Y-90209819D02*
X155432019Y-90257438D01*
X155432019Y-90257438D02*
X155479638Y-90305057D01*
X155479638Y-90305057D02*
X155527257Y-90400295D01*
X155527257Y-90400295D02*
X155574876Y-90590771D01*
X155574876Y-90590771D02*
X155574876Y-90828866D01*
X155574876Y-90828866D02*
X155527257Y-91019342D01*
X155527257Y-91019342D02*
X155479638Y-91114580D01*
X155479638Y-91114580D02*
X155432019Y-91162200D01*
X155432019Y-91162200D02*
X155336781Y-91209819D01*
X155336781Y-91209819D02*
X155241543Y-91209819D01*
X155241543Y-91209819D02*
X155146305Y-91162200D01*
X155146305Y-91162200D02*
X155098686Y-91114580D01*
X155098686Y-91114580D02*
X155051067Y-91019342D01*
X155051067Y-91019342D02*
X155003448Y-90828866D01*
X155003448Y-90828866D02*
X155003448Y-90590771D01*
X155003448Y-90590771D02*
X155051067Y-90400295D01*
X155051067Y-90400295D02*
X155098686Y-90305057D01*
X155098686Y-90305057D02*
X155146305Y-90257438D01*
X155146305Y-90257438D02*
X155241543Y-90209819D01*
X155955829Y-90305057D02*
X156003448Y-90257438D01*
X156003448Y-90257438D02*
X156098686Y-90209819D01*
X156098686Y-90209819D02*
X156336781Y-90209819D01*
X156336781Y-90209819D02*
X156432019Y-90257438D01*
X156432019Y-90257438D02*
X156479638Y-90305057D01*
X156479638Y-90305057D02*
X156527257Y-90400295D01*
X156527257Y-90400295D02*
X156527257Y-90495533D01*
X156527257Y-90495533D02*
X156479638Y-90638390D01*
X156479638Y-90638390D02*
X155908210Y-91209819D01*
X155908210Y-91209819D02*
X156527257Y-91209819D01*
X156860591Y-90209819D02*
X157479638Y-90209819D01*
X157479638Y-90209819D02*
X157146305Y-90590771D01*
X157146305Y-90590771D02*
X157289162Y-90590771D01*
X157289162Y-90590771D02*
X157384400Y-90638390D01*
X157384400Y-90638390D02*
X157432019Y-90686009D01*
X157432019Y-90686009D02*
X157479638Y-90781247D01*
X157479638Y-90781247D02*
X157479638Y-91019342D01*
X157479638Y-91019342D02*
X157432019Y-91114580D01*
X157432019Y-91114580D02*
X157384400Y-91162200D01*
X157384400Y-91162200D02*
X157289162Y-91209819D01*
X157289162Y-91209819D02*
X157003448Y-91209819D01*
X157003448Y-91209819D02*
X156908210Y-91162200D01*
X156908210Y-91162200D02*
X156860591Y-91114580D01*
X157955829Y-91162200D02*
X157955829Y-91209819D01*
X157955829Y-91209819D02*
X157908210Y-91305057D01*
X157908210Y-91305057D02*
X157860591Y-91352676D01*
X159146305Y-91209819D02*
X159146305Y-90209819D01*
X159146305Y-90209819D02*
X159527257Y-90209819D01*
X159527257Y-90209819D02*
X159622495Y-90257438D01*
X159622495Y-90257438D02*
X159670114Y-90305057D01*
X159670114Y-90305057D02*
X159717733Y-90400295D01*
X159717733Y-90400295D02*
X159717733Y-90543152D01*
X159717733Y-90543152D02*
X159670114Y-90638390D01*
X159670114Y-90638390D02*
X159622495Y-90686009D01*
X159622495Y-90686009D02*
X159527257Y-90733628D01*
X159527257Y-90733628D02*
X159146305Y-90733628D01*
X160146305Y-91209819D02*
X160146305Y-90543152D01*
X160146305Y-90209819D02*
X160098686Y-90257438D01*
X160098686Y-90257438D02*
X160146305Y-90305057D01*
X160146305Y-90305057D02*
X160193924Y-90257438D01*
X160193924Y-90257438D02*
X160146305Y-90209819D01*
X160146305Y-90209819D02*
X160146305Y-90305057D01*
X160765352Y-91209819D02*
X160670114Y-91162200D01*
X160670114Y-91162200D02*
X160622495Y-91114580D01*
X160622495Y-91114580D02*
X160574876Y-91019342D01*
X160574876Y-91019342D02*
X160574876Y-90733628D01*
X160574876Y-90733628D02*
X160622495Y-90638390D01*
X160622495Y-90638390D02*
X160670114Y-90590771D01*
X160670114Y-90590771D02*
X160765352Y-90543152D01*
X160765352Y-90543152D02*
X160908209Y-90543152D01*
X160908209Y-90543152D02*
X161003447Y-90590771D01*
X161003447Y-90590771D02*
X161051066Y-90638390D01*
X161051066Y-90638390D02*
X161098685Y-90733628D01*
X161098685Y-90733628D02*
X161098685Y-91019342D01*
X161098685Y-91019342D02*
X161051066Y-91114580D01*
X161051066Y-91114580D02*
X161003447Y-91162200D01*
X161003447Y-91162200D02*
X160908209Y-91209819D01*
X160908209Y-91209819D02*
X160765352Y-91209819D01*
X161527257Y-90543152D02*
X161527257Y-91209819D01*
X161527257Y-90638390D02*
X161574876Y-90590771D01*
X161574876Y-90590771D02*
X161670114Y-90543152D01*
X161670114Y-90543152D02*
X161812971Y-90543152D01*
X161812971Y-90543152D02*
X161908209Y-90590771D01*
X161908209Y-90590771D02*
X161955828Y-90686009D01*
X161955828Y-90686009D02*
X161955828Y-91209819D01*
X162812971Y-91162200D02*
X162717733Y-91209819D01*
X162717733Y-91209819D02*
X162527257Y-91209819D01*
X162527257Y-91209819D02*
X162432019Y-91162200D01*
X162432019Y-91162200D02*
X162384400Y-91066961D01*
X162384400Y-91066961D02*
X162384400Y-90686009D01*
X162384400Y-90686009D02*
X162432019Y-90590771D01*
X162432019Y-90590771D02*
X162527257Y-90543152D01*
X162527257Y-90543152D02*
X162717733Y-90543152D01*
X162717733Y-90543152D02*
X162812971Y-90590771D01*
X162812971Y-90590771D02*
X162860590Y-90686009D01*
X162860590Y-90686009D02*
X162860590Y-90781247D01*
X162860590Y-90781247D02*
X162384400Y-90876485D01*
X163670114Y-91162200D02*
X163574876Y-91209819D01*
X163574876Y-91209819D02*
X163384400Y-91209819D01*
X163384400Y-91209819D02*
X163289162Y-91162200D01*
X163289162Y-91162200D02*
X163241543Y-91066961D01*
X163241543Y-91066961D02*
X163241543Y-90686009D01*
X163241543Y-90686009D02*
X163289162Y-90590771D01*
X163289162Y-90590771D02*
X163384400Y-90543152D01*
X163384400Y-90543152D02*
X163574876Y-90543152D01*
X163574876Y-90543152D02*
X163670114Y-90590771D01*
X163670114Y-90590771D02*
X163717733Y-90686009D01*
X163717733Y-90686009D02*
X163717733Y-90781247D01*
X163717733Y-90781247D02*
X163241543Y-90876485D01*
X164146305Y-91209819D02*
X164146305Y-90543152D01*
X164146305Y-90733628D02*
X164193924Y-90638390D01*
X164193924Y-90638390D02*
X164241543Y-90590771D01*
X164241543Y-90590771D02*
X164336781Y-90543152D01*
X164336781Y-90543152D02*
X164432019Y-90543152D01*
X164717734Y-91162200D02*
X164812972Y-91209819D01*
X164812972Y-91209819D02*
X165003448Y-91209819D01*
X165003448Y-91209819D02*
X165098686Y-91162200D01*
X165098686Y-91162200D02*
X165146305Y-91066961D01*
X165146305Y-91066961D02*
X165146305Y-91019342D01*
X165146305Y-91019342D02*
X165098686Y-90924104D01*
X165098686Y-90924104D02*
X165003448Y-90876485D01*
X165003448Y-90876485D02*
X164860591Y-90876485D01*
X164860591Y-90876485D02*
X164765353Y-90828866D01*
X164765353Y-90828866D02*
X164717734Y-90733628D01*
X164717734Y-90733628D02*
X164717734Y-90686009D01*
X164717734Y-90686009D02*
X164765353Y-90590771D01*
X164765353Y-90590771D02*
X164860591Y-90543152D01*
X164860591Y-90543152D02*
X165003448Y-90543152D01*
X165003448Y-90543152D02*
X165098686Y-90590771D01*
X166336782Y-91209819D02*
X166336782Y-90543152D01*
X166336782Y-90209819D02*
X166289163Y-90257438D01*
X166289163Y-90257438D02*
X166336782Y-90305057D01*
X166336782Y-90305057D02*
X166384401Y-90257438D01*
X166384401Y-90257438D02*
X166336782Y-90209819D01*
X166336782Y-90209819D02*
X166336782Y-90305057D01*
X166812972Y-90543152D02*
X166812972Y-91209819D01*
X166812972Y-90638390D02*
X166860591Y-90590771D01*
X166860591Y-90590771D02*
X166955829Y-90543152D01*
X166955829Y-90543152D02*
X167098686Y-90543152D01*
X167098686Y-90543152D02*
X167193924Y-90590771D01*
X167193924Y-90590771D02*
X167241543Y-90686009D01*
X167241543Y-90686009D02*
X167241543Y-91209819D01*
X168479639Y-90686009D02*
X168812972Y-90686009D01*
X168955829Y-91209819D02*
X168479639Y-91209819D01*
X168479639Y-91209819D02*
X168479639Y-90209819D01*
X168479639Y-90209819D02*
X168955829Y-90209819D01*
X169384401Y-90543152D02*
X169384401Y-91209819D01*
X169384401Y-90638390D02*
X169432020Y-90590771D01*
X169432020Y-90590771D02*
X169527258Y-90543152D01*
X169527258Y-90543152D02*
X169670115Y-90543152D01*
X169670115Y-90543152D02*
X169765353Y-90590771D01*
X169765353Y-90590771D02*
X169812972Y-90686009D01*
X169812972Y-90686009D02*
X169812972Y-91209819D01*
X170717734Y-90543152D02*
X170717734Y-91352676D01*
X170717734Y-91352676D02*
X170670115Y-91447914D01*
X170670115Y-91447914D02*
X170622496Y-91495533D01*
X170622496Y-91495533D02*
X170527258Y-91543152D01*
X170527258Y-91543152D02*
X170384401Y-91543152D01*
X170384401Y-91543152D02*
X170289163Y-91495533D01*
X170717734Y-91162200D02*
X170622496Y-91209819D01*
X170622496Y-91209819D02*
X170432020Y-91209819D01*
X170432020Y-91209819D02*
X170336782Y-91162200D01*
X170336782Y-91162200D02*
X170289163Y-91114580D01*
X170289163Y-91114580D02*
X170241544Y-91019342D01*
X170241544Y-91019342D02*
X170241544Y-90733628D01*
X170241544Y-90733628D02*
X170289163Y-90638390D01*
X170289163Y-90638390D02*
X170336782Y-90590771D01*
X170336782Y-90590771D02*
X170432020Y-90543152D01*
X170432020Y-90543152D02*
X170622496Y-90543152D01*
X170622496Y-90543152D02*
X170717734Y-90590771D01*
X171193925Y-91209819D02*
X171193925Y-90543152D01*
X171193925Y-90209819D02*
X171146306Y-90257438D01*
X171146306Y-90257438D02*
X171193925Y-90305057D01*
X171193925Y-90305057D02*
X171241544Y-90257438D01*
X171241544Y-90257438D02*
X171193925Y-90209819D01*
X171193925Y-90209819D02*
X171193925Y-90305057D01*
X171670115Y-90543152D02*
X171670115Y-91209819D01*
X171670115Y-90638390D02*
X171717734Y-90590771D01*
X171717734Y-90590771D02*
X171812972Y-90543152D01*
X171812972Y-90543152D02*
X171955829Y-90543152D01*
X171955829Y-90543152D02*
X172051067Y-90590771D01*
X172051067Y-90590771D02*
X172098686Y-90686009D01*
X172098686Y-90686009D02*
X172098686Y-91209819D01*
X172955829Y-91162200D02*
X172860591Y-91209819D01*
X172860591Y-91209819D02*
X172670115Y-91209819D01*
X172670115Y-91209819D02*
X172574877Y-91162200D01*
X172574877Y-91162200D02*
X172527258Y-91066961D01*
X172527258Y-91066961D02*
X172527258Y-90686009D01*
X172527258Y-90686009D02*
X172574877Y-90590771D01*
X172574877Y-90590771D02*
X172670115Y-90543152D01*
X172670115Y-90543152D02*
X172860591Y-90543152D01*
X172860591Y-90543152D02*
X172955829Y-90590771D01*
X172955829Y-90590771D02*
X173003448Y-90686009D01*
X173003448Y-90686009D02*
X173003448Y-90781247D01*
X173003448Y-90781247D02*
X172527258Y-90876485D01*
X173812972Y-91162200D02*
X173717734Y-91209819D01*
X173717734Y-91209819D02*
X173527258Y-91209819D01*
X173527258Y-91209819D02*
X173432020Y-91162200D01*
X173432020Y-91162200D02*
X173384401Y-91066961D01*
X173384401Y-91066961D02*
X173384401Y-90686009D01*
X173384401Y-90686009D02*
X173432020Y-90590771D01*
X173432020Y-90590771D02*
X173527258Y-90543152D01*
X173527258Y-90543152D02*
X173717734Y-90543152D01*
X173717734Y-90543152D02*
X173812972Y-90590771D01*
X173812972Y-90590771D02*
X173860591Y-90686009D01*
X173860591Y-90686009D02*
X173860591Y-90781247D01*
X173860591Y-90781247D02*
X173384401Y-90876485D01*
X174289163Y-91209819D02*
X174289163Y-90543152D01*
X174289163Y-90733628D02*
X174336782Y-90638390D01*
X174336782Y-90638390D02*
X174384401Y-90590771D01*
X174384401Y-90590771D02*
X174479639Y-90543152D01*
X174479639Y-90543152D02*
X174574877Y-90543152D01*
X174908211Y-91209819D02*
X174908211Y-90543152D01*
X174908211Y-90209819D02*
X174860592Y-90257438D01*
X174860592Y-90257438D02*
X174908211Y-90305057D01*
X174908211Y-90305057D02*
X174955830Y-90257438D01*
X174955830Y-90257438D02*
X174908211Y-90209819D01*
X174908211Y-90209819D02*
X174908211Y-90305057D01*
X175384401Y-90543152D02*
X175384401Y-91209819D01*
X175384401Y-90638390D02*
X175432020Y-90590771D01*
X175432020Y-90590771D02*
X175527258Y-90543152D01*
X175527258Y-90543152D02*
X175670115Y-90543152D01*
X175670115Y-90543152D02*
X175765353Y-90590771D01*
X175765353Y-90590771D02*
X175812972Y-90686009D01*
X175812972Y-90686009D02*
X175812972Y-91209819D01*
X176717734Y-90543152D02*
X176717734Y-91352676D01*
X176717734Y-91352676D02*
X176670115Y-91447914D01*
X176670115Y-91447914D02*
X176622496Y-91495533D01*
X176622496Y-91495533D02*
X176527258Y-91543152D01*
X176527258Y-91543152D02*
X176384401Y-91543152D01*
X176384401Y-91543152D02*
X176289163Y-91495533D01*
X176717734Y-91162200D02*
X176622496Y-91209819D01*
X176622496Y-91209819D02*
X176432020Y-91209819D01*
X176432020Y-91209819D02*
X176336782Y-91162200D01*
X176336782Y-91162200D02*
X176289163Y-91114580D01*
X176289163Y-91114580D02*
X176241544Y-91019342D01*
X176241544Y-91019342D02*
X176241544Y-90733628D01*
X176241544Y-90733628D02*
X176289163Y-90638390D01*
X176289163Y-90638390D02*
X176336782Y-90590771D01*
X176336782Y-90590771D02*
X176432020Y-90543152D01*
X176432020Y-90543152D02*
X176622496Y-90543152D01*
X176622496Y-90543152D02*
X176717734Y-90590771D01*
X143289160Y-92534104D02*
X143765350Y-92534104D01*
X143193922Y-92819819D02*
X143527255Y-91819819D01*
X143527255Y-91819819D02*
X143860588Y-92819819D01*
X144336779Y-92819819D02*
X144241541Y-92772200D01*
X144241541Y-92772200D02*
X144193922Y-92676961D01*
X144193922Y-92676961D02*
X144193922Y-91819819D01*
X144860589Y-92819819D02*
X144765351Y-92772200D01*
X144765351Y-92772200D02*
X144717732Y-92676961D01*
X144717732Y-92676961D02*
X144717732Y-91819819D01*
X146003447Y-92819819D02*
X146003447Y-92153152D01*
X146003447Y-92343628D02*
X146051066Y-92248390D01*
X146051066Y-92248390D02*
X146098685Y-92200771D01*
X146098685Y-92200771D02*
X146193923Y-92153152D01*
X146193923Y-92153152D02*
X146289161Y-92153152D01*
X146622495Y-92819819D02*
X146622495Y-92153152D01*
X146622495Y-91819819D02*
X146574876Y-91867438D01*
X146574876Y-91867438D02*
X146622495Y-91915057D01*
X146622495Y-91915057D02*
X146670114Y-91867438D01*
X146670114Y-91867438D02*
X146622495Y-91819819D01*
X146622495Y-91819819D02*
X146622495Y-91915057D01*
X147527256Y-92153152D02*
X147527256Y-92962676D01*
X147527256Y-92962676D02*
X147479637Y-93057914D01*
X147479637Y-93057914D02*
X147432018Y-93105533D01*
X147432018Y-93105533D02*
X147336780Y-93153152D01*
X147336780Y-93153152D02*
X147193923Y-93153152D01*
X147193923Y-93153152D02*
X147098685Y-93105533D01*
X147527256Y-92772200D02*
X147432018Y-92819819D01*
X147432018Y-92819819D02*
X147241542Y-92819819D01*
X147241542Y-92819819D02*
X147146304Y-92772200D01*
X147146304Y-92772200D02*
X147098685Y-92724580D01*
X147098685Y-92724580D02*
X147051066Y-92629342D01*
X147051066Y-92629342D02*
X147051066Y-92343628D01*
X147051066Y-92343628D02*
X147098685Y-92248390D01*
X147098685Y-92248390D02*
X147146304Y-92200771D01*
X147146304Y-92200771D02*
X147241542Y-92153152D01*
X147241542Y-92153152D02*
X147432018Y-92153152D01*
X147432018Y-92153152D02*
X147527256Y-92200771D01*
X148003447Y-92819819D02*
X148003447Y-91819819D01*
X148432018Y-92819819D02*
X148432018Y-92296009D01*
X148432018Y-92296009D02*
X148384399Y-92200771D01*
X148384399Y-92200771D02*
X148289161Y-92153152D01*
X148289161Y-92153152D02*
X148146304Y-92153152D01*
X148146304Y-92153152D02*
X148051066Y-92200771D01*
X148051066Y-92200771D02*
X148003447Y-92248390D01*
X148765352Y-92153152D02*
X149146304Y-92153152D01*
X148908209Y-91819819D02*
X148908209Y-92676961D01*
X148908209Y-92676961D02*
X148955828Y-92772200D01*
X148955828Y-92772200D02*
X149051066Y-92819819D01*
X149051066Y-92819819D02*
X149146304Y-92819819D01*
X149432019Y-92772200D02*
X149527257Y-92819819D01*
X149527257Y-92819819D02*
X149717733Y-92819819D01*
X149717733Y-92819819D02*
X149812971Y-92772200D01*
X149812971Y-92772200D02*
X149860590Y-92676961D01*
X149860590Y-92676961D02*
X149860590Y-92629342D01*
X149860590Y-92629342D02*
X149812971Y-92534104D01*
X149812971Y-92534104D02*
X149717733Y-92486485D01*
X149717733Y-92486485D02*
X149574876Y-92486485D01*
X149574876Y-92486485D02*
X149479638Y-92438866D01*
X149479638Y-92438866D02*
X149432019Y-92343628D01*
X149432019Y-92343628D02*
X149432019Y-92296009D01*
X149432019Y-92296009D02*
X149479638Y-92200771D01*
X149479638Y-92200771D02*
X149574876Y-92153152D01*
X149574876Y-92153152D02*
X149717733Y-92153152D01*
X149717733Y-92153152D02*
X149812971Y-92200771D01*
X151051067Y-92819819D02*
X151051067Y-92153152D01*
X151051067Y-92343628D02*
X151098686Y-92248390D01*
X151098686Y-92248390D02*
X151146305Y-92200771D01*
X151146305Y-92200771D02*
X151241543Y-92153152D01*
X151241543Y-92153152D02*
X151336781Y-92153152D01*
X152051067Y-92772200D02*
X151955829Y-92819819D01*
X151955829Y-92819819D02*
X151765353Y-92819819D01*
X151765353Y-92819819D02*
X151670115Y-92772200D01*
X151670115Y-92772200D02*
X151622496Y-92676961D01*
X151622496Y-92676961D02*
X151622496Y-92296009D01*
X151622496Y-92296009D02*
X151670115Y-92200771D01*
X151670115Y-92200771D02*
X151765353Y-92153152D01*
X151765353Y-92153152D02*
X151955829Y-92153152D01*
X151955829Y-92153152D02*
X152051067Y-92200771D01*
X152051067Y-92200771D02*
X152098686Y-92296009D01*
X152098686Y-92296009D02*
X152098686Y-92391247D01*
X152098686Y-92391247D02*
X151622496Y-92486485D01*
X152479639Y-92772200D02*
X152574877Y-92819819D01*
X152574877Y-92819819D02*
X152765353Y-92819819D01*
X152765353Y-92819819D02*
X152860591Y-92772200D01*
X152860591Y-92772200D02*
X152908210Y-92676961D01*
X152908210Y-92676961D02*
X152908210Y-92629342D01*
X152908210Y-92629342D02*
X152860591Y-92534104D01*
X152860591Y-92534104D02*
X152765353Y-92486485D01*
X152765353Y-92486485D02*
X152622496Y-92486485D01*
X152622496Y-92486485D02*
X152527258Y-92438866D01*
X152527258Y-92438866D02*
X152479639Y-92343628D01*
X152479639Y-92343628D02*
X152479639Y-92296009D01*
X152479639Y-92296009D02*
X152527258Y-92200771D01*
X152527258Y-92200771D02*
X152622496Y-92153152D01*
X152622496Y-92153152D02*
X152765353Y-92153152D01*
X152765353Y-92153152D02*
X152860591Y-92200771D01*
X153717734Y-92772200D02*
X153622496Y-92819819D01*
X153622496Y-92819819D02*
X153432020Y-92819819D01*
X153432020Y-92819819D02*
X153336782Y-92772200D01*
X153336782Y-92772200D02*
X153289163Y-92676961D01*
X153289163Y-92676961D02*
X153289163Y-92296009D01*
X153289163Y-92296009D02*
X153336782Y-92200771D01*
X153336782Y-92200771D02*
X153432020Y-92153152D01*
X153432020Y-92153152D02*
X153622496Y-92153152D01*
X153622496Y-92153152D02*
X153717734Y-92200771D01*
X153717734Y-92200771D02*
X153765353Y-92296009D01*
X153765353Y-92296009D02*
X153765353Y-92391247D01*
X153765353Y-92391247D02*
X153289163Y-92486485D01*
X154193925Y-92819819D02*
X154193925Y-92153152D01*
X154193925Y-92343628D02*
X154241544Y-92248390D01*
X154241544Y-92248390D02*
X154289163Y-92200771D01*
X154289163Y-92200771D02*
X154384401Y-92153152D01*
X154384401Y-92153152D02*
X154479639Y-92153152D01*
X154717735Y-92153152D02*
X154955830Y-92819819D01*
X154955830Y-92819819D02*
X155193925Y-92153152D01*
X155955830Y-92772200D02*
X155860592Y-92819819D01*
X155860592Y-92819819D02*
X155670116Y-92819819D01*
X155670116Y-92819819D02*
X155574878Y-92772200D01*
X155574878Y-92772200D02*
X155527259Y-92676961D01*
X155527259Y-92676961D02*
X155527259Y-92296009D01*
X155527259Y-92296009D02*
X155574878Y-92200771D01*
X155574878Y-92200771D02*
X155670116Y-92153152D01*
X155670116Y-92153152D02*
X155860592Y-92153152D01*
X155860592Y-92153152D02*
X155955830Y-92200771D01*
X155955830Y-92200771D02*
X156003449Y-92296009D01*
X156003449Y-92296009D02*
X156003449Y-92391247D01*
X156003449Y-92391247D02*
X155527259Y-92486485D01*
X156860592Y-92819819D02*
X156860592Y-91819819D01*
X156860592Y-92772200D02*
X156765354Y-92819819D01*
X156765354Y-92819819D02*
X156574878Y-92819819D01*
X156574878Y-92819819D02*
X156479640Y-92772200D01*
X156479640Y-92772200D02*
X156432021Y-92724580D01*
X156432021Y-92724580D02*
X156384402Y-92629342D01*
X156384402Y-92629342D02*
X156384402Y-92343628D01*
X156384402Y-92343628D02*
X156432021Y-92248390D01*
X156432021Y-92248390D02*
X156479640Y-92200771D01*
X156479640Y-92200771D02*
X156574878Y-92153152D01*
X156574878Y-92153152D02*
X156765354Y-92153152D01*
X156765354Y-92153152D02*
X156860592Y-92200771D01*
X157336783Y-92724580D02*
X157384402Y-92772200D01*
X157384402Y-92772200D02*
X157336783Y-92819819D01*
X157336783Y-92819819D02*
X157289164Y-92772200D01*
X157289164Y-92772200D02*
X157336783Y-92724580D01*
X157336783Y-92724580D02*
X157336783Y-92819819D01*
X143336779Y-96039819D02*
X143336779Y-95039819D01*
X143336779Y-95039819D02*
X143574874Y-95039819D01*
X143574874Y-95039819D02*
X143717731Y-95087438D01*
X143717731Y-95087438D02*
X143812969Y-95182676D01*
X143812969Y-95182676D02*
X143860588Y-95277914D01*
X143860588Y-95277914D02*
X143908207Y-95468390D01*
X143908207Y-95468390D02*
X143908207Y-95611247D01*
X143908207Y-95611247D02*
X143860588Y-95801723D01*
X143860588Y-95801723D02*
X143812969Y-95896961D01*
X143812969Y-95896961D02*
X143717731Y-95992200D01*
X143717731Y-95992200D02*
X143574874Y-96039819D01*
X143574874Y-96039819D02*
X143336779Y-96039819D01*
X144717731Y-95992200D02*
X144622493Y-96039819D01*
X144622493Y-96039819D02*
X144432017Y-96039819D01*
X144432017Y-96039819D02*
X144336779Y-95992200D01*
X144336779Y-95992200D02*
X144289160Y-95896961D01*
X144289160Y-95896961D02*
X144289160Y-95516009D01*
X144289160Y-95516009D02*
X144336779Y-95420771D01*
X144336779Y-95420771D02*
X144432017Y-95373152D01*
X144432017Y-95373152D02*
X144622493Y-95373152D01*
X144622493Y-95373152D02*
X144717731Y-95420771D01*
X144717731Y-95420771D02*
X144765350Y-95516009D01*
X144765350Y-95516009D02*
X144765350Y-95611247D01*
X144765350Y-95611247D02*
X144289160Y-95706485D01*
X145146303Y-95992200D02*
X145241541Y-96039819D01*
X145241541Y-96039819D02*
X145432017Y-96039819D01*
X145432017Y-96039819D02*
X145527255Y-95992200D01*
X145527255Y-95992200D02*
X145574874Y-95896961D01*
X145574874Y-95896961D02*
X145574874Y-95849342D01*
X145574874Y-95849342D02*
X145527255Y-95754104D01*
X145527255Y-95754104D02*
X145432017Y-95706485D01*
X145432017Y-95706485D02*
X145289160Y-95706485D01*
X145289160Y-95706485D02*
X145193922Y-95658866D01*
X145193922Y-95658866D02*
X145146303Y-95563628D01*
X145146303Y-95563628D02*
X145146303Y-95516009D01*
X145146303Y-95516009D02*
X145193922Y-95420771D01*
X145193922Y-95420771D02*
X145289160Y-95373152D01*
X145289160Y-95373152D02*
X145432017Y-95373152D01*
X145432017Y-95373152D02*
X145527255Y-95420771D01*
X146003446Y-96039819D02*
X146003446Y-95373152D01*
X146003446Y-95039819D02*
X145955827Y-95087438D01*
X145955827Y-95087438D02*
X146003446Y-95135057D01*
X146003446Y-95135057D02*
X146051065Y-95087438D01*
X146051065Y-95087438D02*
X146003446Y-95039819D01*
X146003446Y-95039819D02*
X146003446Y-95135057D01*
X146908207Y-95373152D02*
X146908207Y-96182676D01*
X146908207Y-96182676D02*
X146860588Y-96277914D01*
X146860588Y-96277914D02*
X146812969Y-96325533D01*
X146812969Y-96325533D02*
X146717731Y-96373152D01*
X146717731Y-96373152D02*
X146574874Y-96373152D01*
X146574874Y-96373152D02*
X146479636Y-96325533D01*
X146908207Y-95992200D02*
X146812969Y-96039819D01*
X146812969Y-96039819D02*
X146622493Y-96039819D01*
X146622493Y-96039819D02*
X146527255Y-95992200D01*
X146527255Y-95992200D02*
X146479636Y-95944580D01*
X146479636Y-95944580D02*
X146432017Y-95849342D01*
X146432017Y-95849342D02*
X146432017Y-95563628D01*
X146432017Y-95563628D02*
X146479636Y-95468390D01*
X146479636Y-95468390D02*
X146527255Y-95420771D01*
X146527255Y-95420771D02*
X146622493Y-95373152D01*
X146622493Y-95373152D02*
X146812969Y-95373152D01*
X146812969Y-95373152D02*
X146908207Y-95420771D01*
X147384398Y-95373152D02*
X147384398Y-96039819D01*
X147384398Y-95468390D02*
X147432017Y-95420771D01*
X147432017Y-95420771D02*
X147527255Y-95373152D01*
X147527255Y-95373152D02*
X147670112Y-95373152D01*
X147670112Y-95373152D02*
X147765350Y-95420771D01*
X147765350Y-95420771D02*
X147812969Y-95516009D01*
X147812969Y-95516009D02*
X147812969Y-96039819D01*
X149051065Y-96039819D02*
X149051065Y-95039819D01*
X149051065Y-95420771D02*
X149146303Y-95373152D01*
X149146303Y-95373152D02*
X149336779Y-95373152D01*
X149336779Y-95373152D02*
X149432017Y-95420771D01*
X149432017Y-95420771D02*
X149479636Y-95468390D01*
X149479636Y-95468390D02*
X149527255Y-95563628D01*
X149527255Y-95563628D02*
X149527255Y-95849342D01*
X149527255Y-95849342D02*
X149479636Y-95944580D01*
X149479636Y-95944580D02*
X149432017Y-95992200D01*
X149432017Y-95992200D02*
X149336779Y-96039819D01*
X149336779Y-96039819D02*
X149146303Y-96039819D01*
X149146303Y-96039819D02*
X149051065Y-95992200D01*
X149860589Y-95373152D02*
X150098684Y-96039819D01*
X150336779Y-95373152D02*
X150098684Y-96039819D01*
X150098684Y-96039819D02*
X150003446Y-96277914D01*
X150003446Y-96277914D02*
X149955827Y-96325533D01*
X149955827Y-96325533D02*
X149860589Y-96373152D01*
X150717732Y-95944580D02*
X150765351Y-95992200D01*
X150765351Y-95992200D02*
X150717732Y-96039819D01*
X150717732Y-96039819D02*
X150670113Y-95992200D01*
X150670113Y-95992200D02*
X150717732Y-95944580D01*
X150717732Y-95944580D02*
X150717732Y-96039819D01*
X150717732Y-95420771D02*
X150765351Y-95468390D01*
X150765351Y-95468390D02*
X150717732Y-95516009D01*
X150717732Y-95516009D02*
X150670113Y-95468390D01*
X150670113Y-95468390D02*
X150717732Y-95420771D01*
X150717732Y-95420771D02*
X150717732Y-95516009D01*
X152241541Y-95039819D02*
X152241541Y-95754104D01*
X152241541Y-95754104D02*
X152193922Y-95896961D01*
X152193922Y-95896961D02*
X152098684Y-95992200D01*
X152098684Y-95992200D02*
X151955827Y-96039819D01*
X151955827Y-96039819D02*
X151860589Y-96039819D01*
X152717732Y-96039819D02*
X152717732Y-95373152D01*
X152717732Y-95039819D02*
X152670113Y-95087438D01*
X152670113Y-95087438D02*
X152717732Y-95135057D01*
X152717732Y-95135057D02*
X152765351Y-95087438D01*
X152765351Y-95087438D02*
X152717732Y-95039819D01*
X152717732Y-95039819D02*
X152717732Y-95135057D01*
X153193922Y-96039819D02*
X153193922Y-95373152D01*
X153193922Y-95468390D02*
X153241541Y-95420771D01*
X153241541Y-95420771D02*
X153336779Y-95373152D01*
X153336779Y-95373152D02*
X153479636Y-95373152D01*
X153479636Y-95373152D02*
X153574874Y-95420771D01*
X153574874Y-95420771D02*
X153622493Y-95516009D01*
X153622493Y-95516009D02*
X153622493Y-96039819D01*
X153622493Y-95516009D02*
X153670112Y-95420771D01*
X153670112Y-95420771D02*
X153765350Y-95373152D01*
X153765350Y-95373152D02*
X153908207Y-95373152D01*
X153908207Y-95373152D02*
X154003446Y-95420771D01*
X154003446Y-95420771D02*
X154051065Y-95516009D01*
X154051065Y-95516009D02*
X154051065Y-96039819D01*
X154527255Y-96039819D02*
X154527255Y-95373152D01*
X154527255Y-95468390D02*
X154574874Y-95420771D01*
X154574874Y-95420771D02*
X154670112Y-95373152D01*
X154670112Y-95373152D02*
X154812969Y-95373152D01*
X154812969Y-95373152D02*
X154908207Y-95420771D01*
X154908207Y-95420771D02*
X154955826Y-95516009D01*
X154955826Y-95516009D02*
X154955826Y-96039819D01*
X154955826Y-95516009D02*
X155003445Y-95420771D01*
X155003445Y-95420771D02*
X155098683Y-95373152D01*
X155098683Y-95373152D02*
X155241540Y-95373152D01*
X155241540Y-95373152D02*
X155336779Y-95420771D01*
X155336779Y-95420771D02*
X155384398Y-95516009D01*
X155384398Y-95516009D02*
X155384398Y-96039819D01*
X155765350Y-95373152D02*
X156003445Y-96039819D01*
X156241540Y-95373152D02*
X156003445Y-96039819D01*
X156003445Y-96039819D02*
X155908207Y-96277914D01*
X155908207Y-96277914D02*
X155860588Y-96325533D01*
X155860588Y-96325533D02*
X155765350Y-96373152D01*
X157384398Y-96039819D02*
X157384398Y-95039819D01*
X157384398Y-95516009D02*
X157955826Y-95516009D01*
X157955826Y-96039819D02*
X157955826Y-95039819D01*
X143193922Y-96649819D02*
X143765350Y-96649819D01*
X143479636Y-97649819D02*
X143479636Y-96649819D01*
X144098684Y-97649819D02*
X144098684Y-96649819D01*
X144527255Y-97649819D02*
X144527255Y-97126009D01*
X144527255Y-97126009D02*
X144479636Y-97030771D01*
X144479636Y-97030771D02*
X144384398Y-96983152D01*
X144384398Y-96983152D02*
X144241541Y-96983152D01*
X144241541Y-96983152D02*
X144146303Y-97030771D01*
X144146303Y-97030771D02*
X144098684Y-97078390D01*
X145003446Y-97649819D02*
X145003446Y-96983152D01*
X145003446Y-96649819D02*
X144955827Y-96697438D01*
X144955827Y-96697438D02*
X145003446Y-96745057D01*
X145003446Y-96745057D02*
X145051065Y-96697438D01*
X145051065Y-96697438D02*
X145003446Y-96649819D01*
X145003446Y-96649819D02*
X145003446Y-96745057D01*
X145432017Y-97602200D02*
X145527255Y-97649819D01*
X145527255Y-97649819D02*
X145717731Y-97649819D01*
X145717731Y-97649819D02*
X145812969Y-97602200D01*
X145812969Y-97602200D02*
X145860588Y-97506961D01*
X145860588Y-97506961D02*
X145860588Y-97459342D01*
X145860588Y-97459342D02*
X145812969Y-97364104D01*
X145812969Y-97364104D02*
X145717731Y-97316485D01*
X145717731Y-97316485D02*
X145574874Y-97316485D01*
X145574874Y-97316485D02*
X145479636Y-97268866D01*
X145479636Y-97268866D02*
X145432017Y-97173628D01*
X145432017Y-97173628D02*
X145432017Y-97126009D01*
X145432017Y-97126009D02*
X145479636Y-97030771D01*
X145479636Y-97030771D02*
X145574874Y-96983152D01*
X145574874Y-96983152D02*
X145717731Y-96983152D01*
X145717731Y-96983152D02*
X145812969Y-97030771D01*
X147479636Y-97649819D02*
X147479636Y-96649819D01*
X147479636Y-97602200D02*
X147384398Y-97649819D01*
X147384398Y-97649819D02*
X147193922Y-97649819D01*
X147193922Y-97649819D02*
X147098684Y-97602200D01*
X147098684Y-97602200D02*
X147051065Y-97554580D01*
X147051065Y-97554580D02*
X147003446Y-97459342D01*
X147003446Y-97459342D02*
X147003446Y-97173628D01*
X147003446Y-97173628D02*
X147051065Y-97078390D01*
X147051065Y-97078390D02*
X147098684Y-97030771D01*
X147098684Y-97030771D02*
X147193922Y-96983152D01*
X147193922Y-96983152D02*
X147384398Y-96983152D01*
X147384398Y-96983152D02*
X147479636Y-97030771D01*
X148336779Y-97602200D02*
X148241541Y-97649819D01*
X148241541Y-97649819D02*
X148051065Y-97649819D01*
X148051065Y-97649819D02*
X147955827Y-97602200D01*
X147955827Y-97602200D02*
X147908208Y-97506961D01*
X147908208Y-97506961D02*
X147908208Y-97126009D01*
X147908208Y-97126009D02*
X147955827Y-97030771D01*
X147955827Y-97030771D02*
X148051065Y-96983152D01*
X148051065Y-96983152D02*
X148241541Y-96983152D01*
X148241541Y-96983152D02*
X148336779Y-97030771D01*
X148336779Y-97030771D02*
X148384398Y-97126009D01*
X148384398Y-97126009D02*
X148384398Y-97221247D01*
X148384398Y-97221247D02*
X147908208Y-97316485D01*
X148765351Y-97602200D02*
X148860589Y-97649819D01*
X148860589Y-97649819D02*
X149051065Y-97649819D01*
X149051065Y-97649819D02*
X149146303Y-97602200D01*
X149146303Y-97602200D02*
X149193922Y-97506961D01*
X149193922Y-97506961D02*
X149193922Y-97459342D01*
X149193922Y-97459342D02*
X149146303Y-97364104D01*
X149146303Y-97364104D02*
X149051065Y-97316485D01*
X149051065Y-97316485D02*
X148908208Y-97316485D01*
X148908208Y-97316485D02*
X148812970Y-97268866D01*
X148812970Y-97268866D02*
X148765351Y-97173628D01*
X148765351Y-97173628D02*
X148765351Y-97126009D01*
X148765351Y-97126009D02*
X148812970Y-97030771D01*
X148812970Y-97030771D02*
X148908208Y-96983152D01*
X148908208Y-96983152D02*
X149051065Y-96983152D01*
X149051065Y-96983152D02*
X149146303Y-97030771D01*
X149622494Y-97649819D02*
X149622494Y-96983152D01*
X149622494Y-96649819D02*
X149574875Y-96697438D01*
X149574875Y-96697438D02*
X149622494Y-96745057D01*
X149622494Y-96745057D02*
X149670113Y-96697438D01*
X149670113Y-96697438D02*
X149622494Y-96649819D01*
X149622494Y-96649819D02*
X149622494Y-96745057D01*
X150527255Y-96983152D02*
X150527255Y-97792676D01*
X150527255Y-97792676D02*
X150479636Y-97887914D01*
X150479636Y-97887914D02*
X150432017Y-97935533D01*
X150432017Y-97935533D02*
X150336779Y-97983152D01*
X150336779Y-97983152D02*
X150193922Y-97983152D01*
X150193922Y-97983152D02*
X150098684Y-97935533D01*
X150527255Y-97602200D02*
X150432017Y-97649819D01*
X150432017Y-97649819D02*
X150241541Y-97649819D01*
X150241541Y-97649819D02*
X150146303Y-97602200D01*
X150146303Y-97602200D02*
X150098684Y-97554580D01*
X150098684Y-97554580D02*
X150051065Y-97459342D01*
X150051065Y-97459342D02*
X150051065Y-97173628D01*
X150051065Y-97173628D02*
X150098684Y-97078390D01*
X150098684Y-97078390D02*
X150146303Y-97030771D01*
X150146303Y-97030771D02*
X150241541Y-96983152D01*
X150241541Y-96983152D02*
X150432017Y-96983152D01*
X150432017Y-96983152D02*
X150527255Y-97030771D01*
X151003446Y-96983152D02*
X151003446Y-97649819D01*
X151003446Y-97078390D02*
X151051065Y-97030771D01*
X151051065Y-97030771D02*
X151146303Y-96983152D01*
X151146303Y-96983152D02*
X151289160Y-96983152D01*
X151289160Y-96983152D02*
X151384398Y-97030771D01*
X151384398Y-97030771D02*
X151432017Y-97126009D01*
X151432017Y-97126009D02*
X151432017Y-97649819D01*
X152670113Y-97649819D02*
X152670113Y-96983152D01*
X152670113Y-96649819D02*
X152622494Y-96697438D01*
X152622494Y-96697438D02*
X152670113Y-96745057D01*
X152670113Y-96745057D02*
X152717732Y-96697438D01*
X152717732Y-96697438D02*
X152670113Y-96649819D01*
X152670113Y-96649819D02*
X152670113Y-96745057D01*
X153098684Y-97602200D02*
X153193922Y-97649819D01*
X153193922Y-97649819D02*
X153384398Y-97649819D01*
X153384398Y-97649819D02*
X153479636Y-97602200D01*
X153479636Y-97602200D02*
X153527255Y-97506961D01*
X153527255Y-97506961D02*
X153527255Y-97459342D01*
X153527255Y-97459342D02*
X153479636Y-97364104D01*
X153479636Y-97364104D02*
X153384398Y-97316485D01*
X153384398Y-97316485D02*
X153241541Y-97316485D01*
X153241541Y-97316485D02*
X153146303Y-97268866D01*
X153146303Y-97268866D02*
X153098684Y-97173628D01*
X153098684Y-97173628D02*
X153098684Y-97126009D01*
X153098684Y-97126009D02*
X153146303Y-97030771D01*
X153146303Y-97030771D02*
X153241541Y-96983152D01*
X153241541Y-96983152D02*
X153384398Y-96983152D01*
X153384398Y-96983152D02*
X153479636Y-97030771D01*
X154860589Y-97649819D02*
X154765351Y-97602200D01*
X154765351Y-97602200D02*
X154717732Y-97554580D01*
X154717732Y-97554580D02*
X154670113Y-97459342D01*
X154670113Y-97459342D02*
X154670113Y-97173628D01*
X154670113Y-97173628D02*
X154717732Y-97078390D01*
X154717732Y-97078390D02*
X154765351Y-97030771D01*
X154765351Y-97030771D02*
X154860589Y-96983152D01*
X154860589Y-96983152D02*
X155003446Y-96983152D01*
X155003446Y-96983152D02*
X155098684Y-97030771D01*
X155098684Y-97030771D02*
X155146303Y-97078390D01*
X155146303Y-97078390D02*
X155193922Y-97173628D01*
X155193922Y-97173628D02*
X155193922Y-97459342D01*
X155193922Y-97459342D02*
X155146303Y-97554580D01*
X155146303Y-97554580D02*
X155098684Y-97602200D01*
X155098684Y-97602200D02*
X155003446Y-97649819D01*
X155003446Y-97649819D02*
X154860589Y-97649819D01*
X155622494Y-96983152D02*
X155622494Y-97983152D01*
X155622494Y-97030771D02*
X155717732Y-96983152D01*
X155717732Y-96983152D02*
X155908208Y-96983152D01*
X155908208Y-96983152D02*
X156003446Y-97030771D01*
X156003446Y-97030771D02*
X156051065Y-97078390D01*
X156051065Y-97078390D02*
X156098684Y-97173628D01*
X156098684Y-97173628D02*
X156098684Y-97459342D01*
X156098684Y-97459342D02*
X156051065Y-97554580D01*
X156051065Y-97554580D02*
X156003446Y-97602200D01*
X156003446Y-97602200D02*
X155908208Y-97649819D01*
X155908208Y-97649819D02*
X155717732Y-97649819D01*
X155717732Y-97649819D02*
X155622494Y-97602200D01*
X156908208Y-97602200D02*
X156812970Y-97649819D01*
X156812970Y-97649819D02*
X156622494Y-97649819D01*
X156622494Y-97649819D02*
X156527256Y-97602200D01*
X156527256Y-97602200D02*
X156479637Y-97506961D01*
X156479637Y-97506961D02*
X156479637Y-97126009D01*
X156479637Y-97126009D02*
X156527256Y-97030771D01*
X156527256Y-97030771D02*
X156622494Y-96983152D01*
X156622494Y-96983152D02*
X156812970Y-96983152D01*
X156812970Y-96983152D02*
X156908208Y-97030771D01*
X156908208Y-97030771D02*
X156955827Y-97126009D01*
X156955827Y-97126009D02*
X156955827Y-97221247D01*
X156955827Y-97221247D02*
X156479637Y-97316485D01*
X157384399Y-96983152D02*
X157384399Y-97649819D01*
X157384399Y-97078390D02*
X157432018Y-97030771D01*
X157432018Y-97030771D02*
X157527256Y-96983152D01*
X157527256Y-96983152D02*
X157670113Y-96983152D01*
X157670113Y-96983152D02*
X157765351Y-97030771D01*
X157765351Y-97030771D02*
X157812970Y-97126009D01*
X157812970Y-97126009D02*
X157812970Y-97649819D01*
X159003447Y-97602200D02*
X159098685Y-97649819D01*
X159098685Y-97649819D02*
X159289161Y-97649819D01*
X159289161Y-97649819D02*
X159384399Y-97602200D01*
X159384399Y-97602200D02*
X159432018Y-97506961D01*
X159432018Y-97506961D02*
X159432018Y-97459342D01*
X159432018Y-97459342D02*
X159384399Y-97364104D01*
X159384399Y-97364104D02*
X159289161Y-97316485D01*
X159289161Y-97316485D02*
X159146304Y-97316485D01*
X159146304Y-97316485D02*
X159051066Y-97268866D01*
X159051066Y-97268866D02*
X159003447Y-97173628D01*
X159003447Y-97173628D02*
X159003447Y-97126009D01*
X159003447Y-97126009D02*
X159051066Y-97030771D01*
X159051066Y-97030771D02*
X159146304Y-96983152D01*
X159146304Y-96983152D02*
X159289161Y-96983152D01*
X159289161Y-96983152D02*
X159384399Y-97030771D01*
X160003447Y-97649819D02*
X159908209Y-97602200D01*
X159908209Y-97602200D02*
X159860590Y-97554580D01*
X159860590Y-97554580D02*
X159812971Y-97459342D01*
X159812971Y-97459342D02*
X159812971Y-97173628D01*
X159812971Y-97173628D02*
X159860590Y-97078390D01*
X159860590Y-97078390D02*
X159908209Y-97030771D01*
X159908209Y-97030771D02*
X160003447Y-96983152D01*
X160003447Y-96983152D02*
X160146304Y-96983152D01*
X160146304Y-96983152D02*
X160241542Y-97030771D01*
X160241542Y-97030771D02*
X160289161Y-97078390D01*
X160289161Y-97078390D02*
X160336780Y-97173628D01*
X160336780Y-97173628D02*
X160336780Y-97459342D01*
X160336780Y-97459342D02*
X160289161Y-97554580D01*
X160289161Y-97554580D02*
X160241542Y-97602200D01*
X160241542Y-97602200D02*
X160146304Y-97649819D01*
X160146304Y-97649819D02*
X160003447Y-97649819D01*
X161193923Y-96983152D02*
X161193923Y-97649819D01*
X160765352Y-96983152D02*
X160765352Y-97506961D01*
X160765352Y-97506961D02*
X160812971Y-97602200D01*
X160812971Y-97602200D02*
X160908209Y-97649819D01*
X160908209Y-97649819D02*
X161051066Y-97649819D01*
X161051066Y-97649819D02*
X161146304Y-97602200D01*
X161146304Y-97602200D02*
X161193923Y-97554580D01*
X161670114Y-97649819D02*
X161670114Y-96983152D01*
X161670114Y-97173628D02*
X161717733Y-97078390D01*
X161717733Y-97078390D02*
X161765352Y-97030771D01*
X161765352Y-97030771D02*
X161860590Y-96983152D01*
X161860590Y-96983152D02*
X161955828Y-96983152D01*
X162717733Y-97602200D02*
X162622495Y-97649819D01*
X162622495Y-97649819D02*
X162432019Y-97649819D01*
X162432019Y-97649819D02*
X162336781Y-97602200D01*
X162336781Y-97602200D02*
X162289162Y-97554580D01*
X162289162Y-97554580D02*
X162241543Y-97459342D01*
X162241543Y-97459342D02*
X162241543Y-97173628D01*
X162241543Y-97173628D02*
X162289162Y-97078390D01*
X162289162Y-97078390D02*
X162336781Y-97030771D01*
X162336781Y-97030771D02*
X162432019Y-96983152D01*
X162432019Y-96983152D02*
X162622495Y-96983152D01*
X162622495Y-96983152D02*
X162717733Y-97030771D01*
X163527257Y-97602200D02*
X163432019Y-97649819D01*
X163432019Y-97649819D02*
X163241543Y-97649819D01*
X163241543Y-97649819D02*
X163146305Y-97602200D01*
X163146305Y-97602200D02*
X163098686Y-97506961D01*
X163098686Y-97506961D02*
X163098686Y-97126009D01*
X163098686Y-97126009D02*
X163146305Y-97030771D01*
X163146305Y-97030771D02*
X163241543Y-96983152D01*
X163241543Y-96983152D02*
X163432019Y-96983152D01*
X163432019Y-96983152D02*
X163527257Y-97030771D01*
X163527257Y-97030771D02*
X163574876Y-97126009D01*
X163574876Y-97126009D02*
X163574876Y-97221247D01*
X163574876Y-97221247D02*
X163098686Y-97316485D01*
X164765353Y-97649819D02*
X164765353Y-96649819D01*
X165193924Y-97649819D02*
X165193924Y-97126009D01*
X165193924Y-97126009D02*
X165146305Y-97030771D01*
X165146305Y-97030771D02*
X165051067Y-96983152D01*
X165051067Y-96983152D02*
X164908210Y-96983152D01*
X164908210Y-96983152D02*
X164812972Y-97030771D01*
X164812972Y-97030771D02*
X164765353Y-97078390D01*
X166098686Y-97649819D02*
X166098686Y-97126009D01*
X166098686Y-97126009D02*
X166051067Y-97030771D01*
X166051067Y-97030771D02*
X165955829Y-96983152D01*
X165955829Y-96983152D02*
X165765353Y-96983152D01*
X165765353Y-96983152D02*
X165670115Y-97030771D01*
X166098686Y-97602200D02*
X166003448Y-97649819D01*
X166003448Y-97649819D02*
X165765353Y-97649819D01*
X165765353Y-97649819D02*
X165670115Y-97602200D01*
X165670115Y-97602200D02*
X165622496Y-97506961D01*
X165622496Y-97506961D02*
X165622496Y-97411723D01*
X165622496Y-97411723D02*
X165670115Y-97316485D01*
X165670115Y-97316485D02*
X165765353Y-97268866D01*
X165765353Y-97268866D02*
X166003448Y-97268866D01*
X166003448Y-97268866D02*
X166098686Y-97221247D01*
X166574877Y-97649819D02*
X166574877Y-96983152D01*
X166574877Y-97173628D02*
X166622496Y-97078390D01*
X166622496Y-97078390D02*
X166670115Y-97030771D01*
X166670115Y-97030771D02*
X166765353Y-96983152D01*
X166765353Y-96983152D02*
X166860591Y-96983152D01*
X167622496Y-97649819D02*
X167622496Y-96649819D01*
X167622496Y-97602200D02*
X167527258Y-97649819D01*
X167527258Y-97649819D02*
X167336782Y-97649819D01*
X167336782Y-97649819D02*
X167241544Y-97602200D01*
X167241544Y-97602200D02*
X167193925Y-97554580D01*
X167193925Y-97554580D02*
X167146306Y-97459342D01*
X167146306Y-97459342D02*
X167146306Y-97173628D01*
X167146306Y-97173628D02*
X167193925Y-97078390D01*
X167193925Y-97078390D02*
X167241544Y-97030771D01*
X167241544Y-97030771D02*
X167336782Y-96983152D01*
X167336782Y-96983152D02*
X167527258Y-96983152D01*
X167527258Y-96983152D02*
X167622496Y-97030771D01*
X168003449Y-96983152D02*
X168193925Y-97649819D01*
X168193925Y-97649819D02*
X168384401Y-97173628D01*
X168384401Y-97173628D02*
X168574877Y-97649819D01*
X168574877Y-97649819D02*
X168765353Y-96983152D01*
X169574877Y-97649819D02*
X169574877Y-97126009D01*
X169574877Y-97126009D02*
X169527258Y-97030771D01*
X169527258Y-97030771D02*
X169432020Y-96983152D01*
X169432020Y-96983152D02*
X169241544Y-96983152D01*
X169241544Y-96983152D02*
X169146306Y-97030771D01*
X169574877Y-97602200D02*
X169479639Y-97649819D01*
X169479639Y-97649819D02*
X169241544Y-97649819D01*
X169241544Y-97649819D02*
X169146306Y-97602200D01*
X169146306Y-97602200D02*
X169098687Y-97506961D01*
X169098687Y-97506961D02*
X169098687Y-97411723D01*
X169098687Y-97411723D02*
X169146306Y-97316485D01*
X169146306Y-97316485D02*
X169241544Y-97268866D01*
X169241544Y-97268866D02*
X169479639Y-97268866D01*
X169479639Y-97268866D02*
X169574877Y-97221247D01*
X170051068Y-97649819D02*
X170051068Y-96983152D01*
X170051068Y-97173628D02*
X170098687Y-97078390D01*
X170098687Y-97078390D02*
X170146306Y-97030771D01*
X170146306Y-97030771D02*
X170241544Y-96983152D01*
X170241544Y-96983152D02*
X170336782Y-96983152D01*
X171051068Y-97602200D02*
X170955830Y-97649819D01*
X170955830Y-97649819D02*
X170765354Y-97649819D01*
X170765354Y-97649819D02*
X170670116Y-97602200D01*
X170670116Y-97602200D02*
X170622497Y-97506961D01*
X170622497Y-97506961D02*
X170622497Y-97126009D01*
X170622497Y-97126009D02*
X170670116Y-97030771D01*
X170670116Y-97030771D02*
X170765354Y-96983152D01*
X170765354Y-96983152D02*
X170955830Y-96983152D01*
X170955830Y-96983152D02*
X171051068Y-97030771D01*
X171051068Y-97030771D02*
X171098687Y-97126009D01*
X171098687Y-97126009D02*
X171098687Y-97221247D01*
X171098687Y-97221247D02*
X170622497Y-97316485D01*
X171527259Y-97554580D02*
X171574878Y-97602200D01*
X171574878Y-97602200D02*
X171527259Y-97649819D01*
X171527259Y-97649819D02*
X171479640Y-97602200D01*
X171479640Y-97602200D02*
X171527259Y-97554580D01*
X171527259Y-97554580D02*
X171527259Y-97649819D01*
X143670112Y-98736009D02*
X143336779Y-98736009D01*
X143336779Y-99259819D02*
X143336779Y-98259819D01*
X143336779Y-98259819D02*
X143812969Y-98259819D01*
X144336779Y-99259819D02*
X144241541Y-99212200D01*
X144241541Y-99212200D02*
X144193922Y-99164580D01*
X144193922Y-99164580D02*
X144146303Y-99069342D01*
X144146303Y-99069342D02*
X144146303Y-98783628D01*
X144146303Y-98783628D02*
X144193922Y-98688390D01*
X144193922Y-98688390D02*
X144241541Y-98640771D01*
X144241541Y-98640771D02*
X144336779Y-98593152D01*
X144336779Y-98593152D02*
X144479636Y-98593152D01*
X144479636Y-98593152D02*
X144574874Y-98640771D01*
X144574874Y-98640771D02*
X144622493Y-98688390D01*
X144622493Y-98688390D02*
X144670112Y-98783628D01*
X144670112Y-98783628D02*
X144670112Y-99069342D01*
X144670112Y-99069342D02*
X144622493Y-99164580D01*
X144622493Y-99164580D02*
X144574874Y-99212200D01*
X144574874Y-99212200D02*
X144479636Y-99259819D01*
X144479636Y-99259819D02*
X144336779Y-99259819D01*
X145098684Y-99259819D02*
X145098684Y-98593152D01*
X145098684Y-98783628D02*
X145146303Y-98688390D01*
X145146303Y-98688390D02*
X145193922Y-98640771D01*
X145193922Y-98640771D02*
X145289160Y-98593152D01*
X145289160Y-98593152D02*
X145384398Y-98593152D01*
X146479637Y-99259819D02*
X146479637Y-98593152D01*
X146479637Y-98688390D02*
X146527256Y-98640771D01*
X146527256Y-98640771D02*
X146622494Y-98593152D01*
X146622494Y-98593152D02*
X146765351Y-98593152D01*
X146765351Y-98593152D02*
X146860589Y-98640771D01*
X146860589Y-98640771D02*
X146908208Y-98736009D01*
X146908208Y-98736009D02*
X146908208Y-99259819D01*
X146908208Y-98736009D02*
X146955827Y-98640771D01*
X146955827Y-98640771D02*
X147051065Y-98593152D01*
X147051065Y-98593152D02*
X147193922Y-98593152D01*
X147193922Y-98593152D02*
X147289161Y-98640771D01*
X147289161Y-98640771D02*
X147336780Y-98736009D01*
X147336780Y-98736009D02*
X147336780Y-99259819D01*
X147955827Y-99259819D02*
X147860589Y-99212200D01*
X147860589Y-99212200D02*
X147812970Y-99164580D01*
X147812970Y-99164580D02*
X147765351Y-99069342D01*
X147765351Y-99069342D02*
X147765351Y-98783628D01*
X147765351Y-98783628D02*
X147812970Y-98688390D01*
X147812970Y-98688390D02*
X147860589Y-98640771D01*
X147860589Y-98640771D02*
X147955827Y-98593152D01*
X147955827Y-98593152D02*
X148098684Y-98593152D01*
X148098684Y-98593152D02*
X148193922Y-98640771D01*
X148193922Y-98640771D02*
X148241541Y-98688390D01*
X148241541Y-98688390D02*
X148289160Y-98783628D01*
X148289160Y-98783628D02*
X148289160Y-99069342D01*
X148289160Y-99069342D02*
X148241541Y-99164580D01*
X148241541Y-99164580D02*
X148193922Y-99212200D01*
X148193922Y-99212200D02*
X148098684Y-99259819D01*
X148098684Y-99259819D02*
X147955827Y-99259819D01*
X148717732Y-99259819D02*
X148717732Y-98593152D01*
X148717732Y-98783628D02*
X148765351Y-98688390D01*
X148765351Y-98688390D02*
X148812970Y-98640771D01*
X148812970Y-98640771D02*
X148908208Y-98593152D01*
X148908208Y-98593152D02*
X149003446Y-98593152D01*
X149717732Y-99212200D02*
X149622494Y-99259819D01*
X149622494Y-99259819D02*
X149432018Y-99259819D01*
X149432018Y-99259819D02*
X149336780Y-99212200D01*
X149336780Y-99212200D02*
X149289161Y-99116961D01*
X149289161Y-99116961D02*
X149289161Y-98736009D01*
X149289161Y-98736009D02*
X149336780Y-98640771D01*
X149336780Y-98640771D02*
X149432018Y-98593152D01*
X149432018Y-98593152D02*
X149622494Y-98593152D01*
X149622494Y-98593152D02*
X149717732Y-98640771D01*
X149717732Y-98640771D02*
X149765351Y-98736009D01*
X149765351Y-98736009D02*
X149765351Y-98831247D01*
X149765351Y-98831247D02*
X149289161Y-98926485D01*
X150955828Y-99259819D02*
X150955828Y-98593152D01*
X150955828Y-98259819D02*
X150908209Y-98307438D01*
X150908209Y-98307438D02*
X150955828Y-98355057D01*
X150955828Y-98355057D02*
X151003447Y-98307438D01*
X151003447Y-98307438D02*
X150955828Y-98259819D01*
X150955828Y-98259819D02*
X150955828Y-98355057D01*
X151432018Y-98593152D02*
X151432018Y-99259819D01*
X151432018Y-98688390D02*
X151479637Y-98640771D01*
X151479637Y-98640771D02*
X151574875Y-98593152D01*
X151574875Y-98593152D02*
X151717732Y-98593152D01*
X151717732Y-98593152D02*
X151812970Y-98640771D01*
X151812970Y-98640771D02*
X151860589Y-98736009D01*
X151860589Y-98736009D02*
X151860589Y-99259819D01*
X152193923Y-98593152D02*
X152574875Y-98593152D01*
X152336780Y-99259819D02*
X152336780Y-98402676D01*
X152336780Y-98402676D02*
X152384399Y-98307438D01*
X152384399Y-98307438D02*
X152479637Y-98259819D01*
X152479637Y-98259819D02*
X152574875Y-98259819D01*
X153051066Y-99259819D02*
X152955828Y-99212200D01*
X152955828Y-99212200D02*
X152908209Y-99164580D01*
X152908209Y-99164580D02*
X152860590Y-99069342D01*
X152860590Y-99069342D02*
X152860590Y-98783628D01*
X152860590Y-98783628D02*
X152908209Y-98688390D01*
X152908209Y-98688390D02*
X152955828Y-98640771D01*
X152955828Y-98640771D02*
X153051066Y-98593152D01*
X153051066Y-98593152D02*
X153193923Y-98593152D01*
X153193923Y-98593152D02*
X153289161Y-98640771D01*
X153289161Y-98640771D02*
X153336780Y-98688390D01*
X153336780Y-98688390D02*
X153384399Y-98783628D01*
X153384399Y-98783628D02*
X153384399Y-99069342D01*
X153384399Y-99069342D02*
X153336780Y-99164580D01*
X153336780Y-99164580D02*
X153289161Y-99212200D01*
X153289161Y-99212200D02*
X153193923Y-99259819D01*
X153193923Y-99259819D02*
X153051066Y-99259819D01*
X153812971Y-99259819D02*
X153812971Y-98593152D01*
X153812971Y-98783628D02*
X153860590Y-98688390D01*
X153860590Y-98688390D02*
X153908209Y-98640771D01*
X153908209Y-98640771D02*
X154003447Y-98593152D01*
X154003447Y-98593152D02*
X154098685Y-98593152D01*
X154432019Y-99259819D02*
X154432019Y-98593152D01*
X154432019Y-98688390D02*
X154479638Y-98640771D01*
X154479638Y-98640771D02*
X154574876Y-98593152D01*
X154574876Y-98593152D02*
X154717733Y-98593152D01*
X154717733Y-98593152D02*
X154812971Y-98640771D01*
X154812971Y-98640771D02*
X154860590Y-98736009D01*
X154860590Y-98736009D02*
X154860590Y-99259819D01*
X154860590Y-98736009D02*
X154908209Y-98640771D01*
X154908209Y-98640771D02*
X155003447Y-98593152D01*
X155003447Y-98593152D02*
X155146304Y-98593152D01*
X155146304Y-98593152D02*
X155241543Y-98640771D01*
X155241543Y-98640771D02*
X155289162Y-98736009D01*
X155289162Y-98736009D02*
X155289162Y-99259819D01*
X156193923Y-99259819D02*
X156193923Y-98736009D01*
X156193923Y-98736009D02*
X156146304Y-98640771D01*
X156146304Y-98640771D02*
X156051066Y-98593152D01*
X156051066Y-98593152D02*
X155860590Y-98593152D01*
X155860590Y-98593152D02*
X155765352Y-98640771D01*
X156193923Y-99212200D02*
X156098685Y-99259819D01*
X156098685Y-99259819D02*
X155860590Y-99259819D01*
X155860590Y-99259819D02*
X155765352Y-99212200D01*
X155765352Y-99212200D02*
X155717733Y-99116961D01*
X155717733Y-99116961D02*
X155717733Y-99021723D01*
X155717733Y-99021723D02*
X155765352Y-98926485D01*
X155765352Y-98926485D02*
X155860590Y-98878866D01*
X155860590Y-98878866D02*
X156098685Y-98878866D01*
X156098685Y-98878866D02*
X156193923Y-98831247D01*
X156527257Y-98593152D02*
X156908209Y-98593152D01*
X156670114Y-98259819D02*
X156670114Y-99116961D01*
X156670114Y-99116961D02*
X156717733Y-99212200D01*
X156717733Y-99212200D02*
X156812971Y-99259819D01*
X156812971Y-99259819D02*
X156908209Y-99259819D01*
X157241543Y-99259819D02*
X157241543Y-98593152D01*
X157241543Y-98259819D02*
X157193924Y-98307438D01*
X157193924Y-98307438D02*
X157241543Y-98355057D01*
X157241543Y-98355057D02*
X157289162Y-98307438D01*
X157289162Y-98307438D02*
X157241543Y-98259819D01*
X157241543Y-98259819D02*
X157241543Y-98355057D01*
X157860590Y-99259819D02*
X157765352Y-99212200D01*
X157765352Y-99212200D02*
X157717733Y-99164580D01*
X157717733Y-99164580D02*
X157670114Y-99069342D01*
X157670114Y-99069342D02*
X157670114Y-98783628D01*
X157670114Y-98783628D02*
X157717733Y-98688390D01*
X157717733Y-98688390D02*
X157765352Y-98640771D01*
X157765352Y-98640771D02*
X157860590Y-98593152D01*
X157860590Y-98593152D02*
X158003447Y-98593152D01*
X158003447Y-98593152D02*
X158098685Y-98640771D01*
X158098685Y-98640771D02*
X158146304Y-98688390D01*
X158146304Y-98688390D02*
X158193923Y-98783628D01*
X158193923Y-98783628D02*
X158193923Y-99069342D01*
X158193923Y-99069342D02*
X158146304Y-99164580D01*
X158146304Y-99164580D02*
X158098685Y-99212200D01*
X158098685Y-99212200D02*
X158003447Y-99259819D01*
X158003447Y-99259819D02*
X157860590Y-99259819D01*
X158622495Y-98593152D02*
X158622495Y-99259819D01*
X158622495Y-98688390D02*
X158670114Y-98640771D01*
X158670114Y-98640771D02*
X158765352Y-98593152D01*
X158765352Y-98593152D02*
X158908209Y-98593152D01*
X158908209Y-98593152D02*
X159003447Y-98640771D01*
X159003447Y-98640771D02*
X159051066Y-98736009D01*
X159051066Y-98736009D02*
X159051066Y-99259819D01*
X159574876Y-99212200D02*
X159574876Y-99259819D01*
X159574876Y-99259819D02*
X159527257Y-99355057D01*
X159527257Y-99355057D02*
X159479638Y-99402676D01*
X160670114Y-98593152D02*
X160908209Y-99259819D01*
X160908209Y-99259819D02*
X161146304Y-98593152D01*
X161527257Y-99259819D02*
X161527257Y-98593152D01*
X161527257Y-98259819D02*
X161479638Y-98307438D01*
X161479638Y-98307438D02*
X161527257Y-98355057D01*
X161527257Y-98355057D02*
X161574876Y-98307438D01*
X161574876Y-98307438D02*
X161527257Y-98259819D01*
X161527257Y-98259819D02*
X161527257Y-98355057D01*
X161955828Y-99212200D02*
X162051066Y-99259819D01*
X162051066Y-99259819D02*
X162241542Y-99259819D01*
X162241542Y-99259819D02*
X162336780Y-99212200D01*
X162336780Y-99212200D02*
X162384399Y-99116961D01*
X162384399Y-99116961D02*
X162384399Y-99069342D01*
X162384399Y-99069342D02*
X162336780Y-98974104D01*
X162336780Y-98974104D02*
X162241542Y-98926485D01*
X162241542Y-98926485D02*
X162098685Y-98926485D01*
X162098685Y-98926485D02*
X162003447Y-98878866D01*
X162003447Y-98878866D02*
X161955828Y-98783628D01*
X161955828Y-98783628D02*
X161955828Y-98736009D01*
X161955828Y-98736009D02*
X162003447Y-98640771D01*
X162003447Y-98640771D02*
X162098685Y-98593152D01*
X162098685Y-98593152D02*
X162241542Y-98593152D01*
X162241542Y-98593152D02*
X162336780Y-98640771D01*
X162812971Y-99259819D02*
X162812971Y-98593152D01*
X162812971Y-98259819D02*
X162765352Y-98307438D01*
X162765352Y-98307438D02*
X162812971Y-98355057D01*
X162812971Y-98355057D02*
X162860590Y-98307438D01*
X162860590Y-98307438D02*
X162812971Y-98259819D01*
X162812971Y-98259819D02*
X162812971Y-98355057D01*
X163146304Y-98593152D02*
X163527256Y-98593152D01*
X163289161Y-98259819D02*
X163289161Y-99116961D01*
X163289161Y-99116961D02*
X163336780Y-99212200D01*
X163336780Y-99212200D02*
X163432018Y-99259819D01*
X163432018Y-99259819D02*
X163527256Y-99259819D01*
X143765350Y-100203152D02*
X143765350Y-101012676D01*
X143765350Y-101012676D02*
X143717731Y-101107914D01*
X143717731Y-101107914D02*
X143670112Y-101155533D01*
X143670112Y-101155533D02*
X143574874Y-101203152D01*
X143574874Y-101203152D02*
X143432017Y-101203152D01*
X143432017Y-101203152D02*
X143336779Y-101155533D01*
X143765350Y-100822200D02*
X143670112Y-100869819D01*
X143670112Y-100869819D02*
X143479636Y-100869819D01*
X143479636Y-100869819D02*
X143384398Y-100822200D01*
X143384398Y-100822200D02*
X143336779Y-100774580D01*
X143336779Y-100774580D02*
X143289160Y-100679342D01*
X143289160Y-100679342D02*
X143289160Y-100393628D01*
X143289160Y-100393628D02*
X143336779Y-100298390D01*
X143336779Y-100298390D02*
X143384398Y-100250771D01*
X143384398Y-100250771D02*
X143479636Y-100203152D01*
X143479636Y-100203152D02*
X143670112Y-100203152D01*
X143670112Y-100203152D02*
X143765350Y-100250771D01*
X144241541Y-100869819D02*
X144241541Y-100203152D01*
X144241541Y-99869819D02*
X144193922Y-99917438D01*
X144193922Y-99917438D02*
X144241541Y-99965057D01*
X144241541Y-99965057D02*
X144289160Y-99917438D01*
X144289160Y-99917438D02*
X144241541Y-99869819D01*
X144241541Y-99869819D02*
X144241541Y-99965057D01*
X144574874Y-100203152D02*
X144955826Y-100203152D01*
X144717731Y-99869819D02*
X144717731Y-100726961D01*
X144717731Y-100726961D02*
X144765350Y-100822200D01*
X144765350Y-100822200D02*
X144860588Y-100869819D01*
X144860588Y-100869819D02*
X144955826Y-100869819D01*
X145289160Y-100869819D02*
X145289160Y-99869819D01*
X145717731Y-100869819D02*
X145717731Y-100346009D01*
X145717731Y-100346009D02*
X145670112Y-100250771D01*
X145670112Y-100250771D02*
X145574874Y-100203152D01*
X145574874Y-100203152D02*
X145432017Y-100203152D01*
X145432017Y-100203152D02*
X145336779Y-100250771D01*
X145336779Y-100250771D02*
X145289160Y-100298390D01*
X146622493Y-100203152D02*
X146622493Y-100869819D01*
X146193922Y-100203152D02*
X146193922Y-100726961D01*
X146193922Y-100726961D02*
X146241541Y-100822200D01*
X146241541Y-100822200D02*
X146336779Y-100869819D01*
X146336779Y-100869819D02*
X146479636Y-100869819D01*
X146479636Y-100869819D02*
X146574874Y-100822200D01*
X146574874Y-100822200D02*
X146622493Y-100774580D01*
X147098684Y-100869819D02*
X147098684Y-99869819D01*
X147098684Y-100250771D02*
X147193922Y-100203152D01*
X147193922Y-100203152D02*
X147384398Y-100203152D01*
X147384398Y-100203152D02*
X147479636Y-100250771D01*
X147479636Y-100250771D02*
X147527255Y-100298390D01*
X147527255Y-100298390D02*
X147574874Y-100393628D01*
X147574874Y-100393628D02*
X147574874Y-100679342D01*
X147574874Y-100679342D02*
X147527255Y-100774580D01*
X147527255Y-100774580D02*
X147479636Y-100822200D01*
X147479636Y-100822200D02*
X147384398Y-100869819D01*
X147384398Y-100869819D02*
X147193922Y-100869819D01*
X147193922Y-100869819D02*
X147098684Y-100822200D01*
X148003446Y-100774580D02*
X148051065Y-100822200D01*
X148051065Y-100822200D02*
X148003446Y-100869819D01*
X148003446Y-100869819D02*
X147955827Y-100822200D01*
X147955827Y-100822200D02*
X148003446Y-100774580D01*
X148003446Y-100774580D02*
X148003446Y-100869819D01*
X148908207Y-100822200D02*
X148812969Y-100869819D01*
X148812969Y-100869819D02*
X148622493Y-100869819D01*
X148622493Y-100869819D02*
X148527255Y-100822200D01*
X148527255Y-100822200D02*
X148479636Y-100774580D01*
X148479636Y-100774580D02*
X148432017Y-100679342D01*
X148432017Y-100679342D02*
X148432017Y-100393628D01*
X148432017Y-100393628D02*
X148479636Y-100298390D01*
X148479636Y-100298390D02*
X148527255Y-100250771D01*
X148527255Y-100250771D02*
X148622493Y-100203152D01*
X148622493Y-100203152D02*
X148812969Y-100203152D01*
X148812969Y-100203152D02*
X148908207Y-100250771D01*
X149479636Y-100869819D02*
X149384398Y-100822200D01*
X149384398Y-100822200D02*
X149336779Y-100774580D01*
X149336779Y-100774580D02*
X149289160Y-100679342D01*
X149289160Y-100679342D02*
X149289160Y-100393628D01*
X149289160Y-100393628D02*
X149336779Y-100298390D01*
X149336779Y-100298390D02*
X149384398Y-100250771D01*
X149384398Y-100250771D02*
X149479636Y-100203152D01*
X149479636Y-100203152D02*
X149622493Y-100203152D01*
X149622493Y-100203152D02*
X149717731Y-100250771D01*
X149717731Y-100250771D02*
X149765350Y-100298390D01*
X149765350Y-100298390D02*
X149812969Y-100393628D01*
X149812969Y-100393628D02*
X149812969Y-100679342D01*
X149812969Y-100679342D02*
X149765350Y-100774580D01*
X149765350Y-100774580D02*
X149717731Y-100822200D01*
X149717731Y-100822200D02*
X149622493Y-100869819D01*
X149622493Y-100869819D02*
X149479636Y-100869819D01*
X150241541Y-100869819D02*
X150241541Y-100203152D01*
X150241541Y-100298390D02*
X150289160Y-100250771D01*
X150289160Y-100250771D02*
X150384398Y-100203152D01*
X150384398Y-100203152D02*
X150527255Y-100203152D01*
X150527255Y-100203152D02*
X150622493Y-100250771D01*
X150622493Y-100250771D02*
X150670112Y-100346009D01*
X150670112Y-100346009D02*
X150670112Y-100869819D01*
X150670112Y-100346009D02*
X150717731Y-100250771D01*
X150717731Y-100250771D02*
X150812969Y-100203152D01*
X150812969Y-100203152D02*
X150955826Y-100203152D01*
X150955826Y-100203152D02*
X151051065Y-100250771D01*
X151051065Y-100250771D02*
X151098684Y-100346009D01*
X151098684Y-100346009D02*
X151098684Y-100869819D01*
X152289159Y-99822200D02*
X151432017Y-101107914D01*
X152622493Y-100203152D02*
X152622493Y-101203152D01*
X152622493Y-100250771D02*
X152717731Y-100203152D01*
X152717731Y-100203152D02*
X152908207Y-100203152D01*
X152908207Y-100203152D02*
X153003445Y-100250771D01*
X153003445Y-100250771D02*
X153051064Y-100298390D01*
X153051064Y-100298390D02*
X153098683Y-100393628D01*
X153098683Y-100393628D02*
X153098683Y-100679342D01*
X153098683Y-100679342D02*
X153051064Y-100774580D01*
X153051064Y-100774580D02*
X153003445Y-100822200D01*
X153003445Y-100822200D02*
X152908207Y-100869819D01*
X152908207Y-100869819D02*
X152717731Y-100869819D01*
X152717731Y-100869819D02*
X152622493Y-100822200D01*
X153527255Y-100869819D02*
X153527255Y-100203152D01*
X153527255Y-99869819D02*
X153479636Y-99917438D01*
X153479636Y-99917438D02*
X153527255Y-99965057D01*
X153527255Y-99965057D02*
X153574874Y-99917438D01*
X153574874Y-99917438D02*
X153527255Y-99869819D01*
X153527255Y-99869819D02*
X153527255Y-99965057D01*
X154146302Y-100869819D02*
X154051064Y-100822200D01*
X154051064Y-100822200D02*
X154003445Y-100774580D01*
X154003445Y-100774580D02*
X153955826Y-100679342D01*
X153955826Y-100679342D02*
X153955826Y-100393628D01*
X153955826Y-100393628D02*
X154003445Y-100298390D01*
X154003445Y-100298390D02*
X154051064Y-100250771D01*
X154051064Y-100250771D02*
X154146302Y-100203152D01*
X154146302Y-100203152D02*
X154289159Y-100203152D01*
X154289159Y-100203152D02*
X154384397Y-100250771D01*
X154384397Y-100250771D02*
X154432016Y-100298390D01*
X154432016Y-100298390D02*
X154479635Y-100393628D01*
X154479635Y-100393628D02*
X154479635Y-100679342D01*
X154479635Y-100679342D02*
X154432016Y-100774580D01*
X154432016Y-100774580D02*
X154384397Y-100822200D01*
X154384397Y-100822200D02*
X154289159Y-100869819D01*
X154289159Y-100869819D02*
X154146302Y-100869819D01*
X154908207Y-100203152D02*
X154908207Y-100869819D01*
X154908207Y-100298390D02*
X154955826Y-100250771D01*
X154955826Y-100250771D02*
X155051064Y-100203152D01*
X155051064Y-100203152D02*
X155193921Y-100203152D01*
X155193921Y-100203152D02*
X155289159Y-100250771D01*
X155289159Y-100250771D02*
X155336778Y-100346009D01*
X155336778Y-100346009D02*
X155336778Y-100869819D01*
X156193921Y-100822200D02*
X156098683Y-100869819D01*
X156098683Y-100869819D02*
X155908207Y-100869819D01*
X155908207Y-100869819D02*
X155812969Y-100822200D01*
X155812969Y-100822200D02*
X155765350Y-100726961D01*
X155765350Y-100726961D02*
X155765350Y-100346009D01*
X155765350Y-100346009D02*
X155812969Y-100250771D01*
X155812969Y-100250771D02*
X155908207Y-100203152D01*
X155908207Y-100203152D02*
X156098683Y-100203152D01*
X156098683Y-100203152D02*
X156193921Y-100250771D01*
X156193921Y-100250771D02*
X156241540Y-100346009D01*
X156241540Y-100346009D02*
X156241540Y-100441247D01*
X156241540Y-100441247D02*
X155765350Y-100536485D01*
X157051064Y-100822200D02*
X156955826Y-100869819D01*
X156955826Y-100869819D02*
X156765350Y-100869819D01*
X156765350Y-100869819D02*
X156670112Y-100822200D01*
X156670112Y-100822200D02*
X156622493Y-100726961D01*
X156622493Y-100726961D02*
X156622493Y-100346009D01*
X156622493Y-100346009D02*
X156670112Y-100250771D01*
X156670112Y-100250771D02*
X156765350Y-100203152D01*
X156765350Y-100203152D02*
X156955826Y-100203152D01*
X156955826Y-100203152D02*
X157051064Y-100250771D01*
X157051064Y-100250771D02*
X157098683Y-100346009D01*
X157098683Y-100346009D02*
X157098683Y-100441247D01*
X157098683Y-100441247D02*
X156622493Y-100536485D01*
X157527255Y-100869819D02*
X157527255Y-100203152D01*
X157527255Y-100393628D02*
X157574874Y-100298390D01*
X157574874Y-100298390D02*
X157622493Y-100250771D01*
X157622493Y-100250771D02*
X157717731Y-100203152D01*
X157717731Y-100203152D02*
X157812969Y-100203152D01*
X158098684Y-100822200D02*
X158193922Y-100869819D01*
X158193922Y-100869819D02*
X158384398Y-100869819D01*
X158384398Y-100869819D02*
X158479636Y-100822200D01*
X158479636Y-100822200D02*
X158527255Y-100726961D01*
X158527255Y-100726961D02*
X158527255Y-100679342D01*
X158527255Y-100679342D02*
X158479636Y-100584104D01*
X158479636Y-100584104D02*
X158384398Y-100536485D01*
X158384398Y-100536485D02*
X158241541Y-100536485D01*
X158241541Y-100536485D02*
X158146303Y-100488866D01*
X158146303Y-100488866D02*
X158098684Y-100393628D01*
X158098684Y-100393628D02*
X158098684Y-100346009D01*
X158098684Y-100346009D02*
X158146303Y-100250771D01*
X158146303Y-100250771D02*
X158241541Y-100203152D01*
X158241541Y-100203152D02*
X158384398Y-100203152D01*
X158384398Y-100203152D02*
X158479636Y-100250771D01*
X159670112Y-99822200D02*
X158812970Y-101107914D01*
X160003446Y-100869819D02*
X160003446Y-99869819D01*
X160003446Y-99869819D02*
X160384398Y-99869819D01*
X160384398Y-99869819D02*
X160479636Y-99917438D01*
X160479636Y-99917438D02*
X160527255Y-99965057D01*
X160527255Y-99965057D02*
X160574874Y-100060295D01*
X160574874Y-100060295D02*
X160574874Y-100203152D01*
X160574874Y-100203152D02*
X160527255Y-100298390D01*
X160527255Y-100298390D02*
X160479636Y-100346009D01*
X160479636Y-100346009D02*
X160384398Y-100393628D01*
X160384398Y-100393628D02*
X160003446Y-100393628D01*
X161003446Y-100869819D02*
X161003446Y-100203152D01*
X161003446Y-99869819D02*
X160955827Y-99917438D01*
X160955827Y-99917438D02*
X161003446Y-99965057D01*
X161003446Y-99965057D02*
X161051065Y-99917438D01*
X161051065Y-99917438D02*
X161003446Y-99869819D01*
X161003446Y-99869819D02*
X161003446Y-99965057D01*
X161479636Y-100346009D02*
X161812969Y-100346009D01*
X161955826Y-100869819D02*
X161479636Y-100869819D01*
X161479636Y-100869819D02*
X161479636Y-99869819D01*
X161479636Y-99869819D02*
X161955826Y-99869819D01*
X162527255Y-100869819D02*
X162432017Y-100822200D01*
X162432017Y-100822200D02*
X162384398Y-100726961D01*
X162384398Y-100726961D02*
X162384398Y-99869819D01*
X163289160Y-100822200D02*
X163193922Y-100869819D01*
X163193922Y-100869819D02*
X163003446Y-100869819D01*
X163003446Y-100869819D02*
X162908208Y-100822200D01*
X162908208Y-100822200D02*
X162860589Y-100726961D01*
X162860589Y-100726961D02*
X162860589Y-100346009D01*
X162860589Y-100346009D02*
X162908208Y-100250771D01*
X162908208Y-100250771D02*
X163003446Y-100203152D01*
X163003446Y-100203152D02*
X163193922Y-100203152D01*
X163193922Y-100203152D02*
X163289160Y-100250771D01*
X163289160Y-100250771D02*
X163336779Y-100346009D01*
X163336779Y-100346009D02*
X163336779Y-100441247D01*
X163336779Y-100441247D02*
X162860589Y-100536485D01*
X164193922Y-100822200D02*
X164098684Y-100869819D01*
X164098684Y-100869819D02*
X163908208Y-100869819D01*
X163908208Y-100869819D02*
X163812970Y-100822200D01*
X163812970Y-100822200D02*
X163765351Y-100774580D01*
X163765351Y-100774580D02*
X163717732Y-100679342D01*
X163717732Y-100679342D02*
X163717732Y-100393628D01*
X163717732Y-100393628D02*
X163765351Y-100298390D01*
X163765351Y-100298390D02*
X163812970Y-100250771D01*
X163812970Y-100250771D02*
X163908208Y-100203152D01*
X163908208Y-100203152D02*
X164098684Y-100203152D01*
X164098684Y-100203152D02*
X164193922Y-100250771D01*
X164479637Y-100203152D02*
X164860589Y-100203152D01*
X164622494Y-99869819D02*
X164622494Y-100726961D01*
X164622494Y-100726961D02*
X164670113Y-100822200D01*
X164670113Y-100822200D02*
X164765351Y-100869819D01*
X164765351Y-100869819D02*
X164860589Y-100869819D01*
X165193923Y-100869819D02*
X165193923Y-100203152D01*
X165193923Y-100393628D02*
X165241542Y-100298390D01*
X165241542Y-100298390D02*
X165289161Y-100250771D01*
X165289161Y-100250771D02*
X165384399Y-100203152D01*
X165384399Y-100203152D02*
X165479637Y-100203152D01*
X165812971Y-100869819D02*
X165812971Y-100203152D01*
X165812971Y-99869819D02*
X165765352Y-99917438D01*
X165765352Y-99917438D02*
X165812971Y-99965057D01*
X165812971Y-99965057D02*
X165860590Y-99917438D01*
X165860590Y-99917438D02*
X165812971Y-99869819D01*
X165812971Y-99869819D02*
X165812971Y-99965057D01*
X166717732Y-100822200D02*
X166622494Y-100869819D01*
X166622494Y-100869819D02*
X166432018Y-100869819D01*
X166432018Y-100869819D02*
X166336780Y-100822200D01*
X166336780Y-100822200D02*
X166289161Y-100774580D01*
X166289161Y-100774580D02*
X166241542Y-100679342D01*
X166241542Y-100679342D02*
X166241542Y-100393628D01*
X166241542Y-100393628D02*
X166289161Y-100298390D01*
X166289161Y-100298390D02*
X166336780Y-100250771D01*
X166336780Y-100250771D02*
X166432018Y-100203152D01*
X166432018Y-100203152D02*
X166622494Y-100203152D01*
X166622494Y-100203152D02*
X166717732Y-100250771D01*
X167574875Y-100869819D02*
X167574875Y-100346009D01*
X167574875Y-100346009D02*
X167527256Y-100250771D01*
X167527256Y-100250771D02*
X167432018Y-100203152D01*
X167432018Y-100203152D02*
X167241542Y-100203152D01*
X167241542Y-100203152D02*
X167146304Y-100250771D01*
X167574875Y-100822200D02*
X167479637Y-100869819D01*
X167479637Y-100869819D02*
X167241542Y-100869819D01*
X167241542Y-100869819D02*
X167146304Y-100822200D01*
X167146304Y-100822200D02*
X167098685Y-100726961D01*
X167098685Y-100726961D02*
X167098685Y-100631723D01*
X167098685Y-100631723D02*
X167146304Y-100536485D01*
X167146304Y-100536485D02*
X167241542Y-100488866D01*
X167241542Y-100488866D02*
X167479637Y-100488866D01*
X167479637Y-100488866D02*
X167574875Y-100441247D01*
X168193923Y-100869819D02*
X168098685Y-100822200D01*
X168098685Y-100822200D02*
X168051066Y-100726961D01*
X168051066Y-100726961D02*
X168051066Y-99869819D01*
%TO.C,U1*%
X142240000Y-92425000D02*
X144780000Y-92425000D01*
X142240000Y-100045000D02*
X142240000Y-92425000D01*
X144780000Y-87345000D02*
X175260000Y-87345000D01*
X144780000Y-92425000D02*
X144780000Y-87345000D01*
X144780000Y-100045000D02*
X142240000Y-100045000D01*
X144780000Y-105125000D02*
X144780000Y-100045000D01*
X175260000Y-87345000D02*
X175260000Y-105125000D01*
X175260000Y-105125000D02*
X144780000Y-105125000D01*
%TD*%
M02*
