M48
;GenerationSoftware,Autodesk,EAGLE,9.3.0*%
;CreationDate,2019-12-27T23:11:19Z*%
FMAT,2
ICI,OFF
METRIC,TZ,000.000
T14C0.381
T13C0.400
T12C0.450
T11C0.457
T10C0.800
T9C0.914
T8C1.000
T7C1.016
T6C2.200
T5C2.286
T4C2.667
T3C3.000
T2C3.302
T1C4.572
%
G90
M71
T1
X10287Y11049
X17399Y11049
T2
X41783Y57912
X107315Y29591
X107569Y81661
X32258Y29591
X65151Y48260
X67183Y81534
T3
X25738Y67354
X40597Y67354
X56345Y67354
X10117Y67354
T4
X16383Y29083
X16637Y42418
X8763Y42418
X8509Y29083
X16510Y54864
X8636Y54864
T5
X71577Y9918
X83617Y9918
T6
X55245Y79454
X55245Y72754
X9017Y79454
X9017Y72754
X39497Y79454
X39497Y72754
X24638Y79454
X24638Y72754
T7
X40513Y5715
X76581Y22479
X79121Y22479
X81661Y22479
X45593Y5715
X43053Y5715
X48133Y5715
T8
X76708Y66802
X76708Y64262
X76708Y61722
X76708Y59182
X76708Y54102
X84328Y54102
X84328Y56642
X84328Y59182
X84328Y61722
X84328Y64262
X84328Y66802
X84328Y69342
X84328Y71882
X84328Y74422
X84328Y76962
X59271Y9525
X61882Y9525
X98171Y53721
X105771Y53721
X94869Y2413
X97409Y2413
X99949Y2413
X94869Y4953
X97409Y4953
X99949Y4953
X56832Y7036
X64325Y12014
X76708Y76962
X76708Y74422
X76708Y71882
X76708Y56642
X76708Y69342
T9
X78847Y14617
X76347Y14617
X76347Y12636
X78847Y12636
T10
X17399Y75057
X17399Y77557
X47752Y76922
X47752Y74422
T11
X101346Y34798
X103251Y38100
X100965Y41402
X99441Y36449
X104521Y48006
X91059Y46228
X92837Y48133
X91186Y49911
X93218Y51943
X81534Y43053
X83185Y39370
X73533Y43688
X74930Y41783
X80899Y36449
X74295Y25273
X58166Y31115
X58166Y33147
X61087Y32639
X63881Y32639
X88519Y21336
X74803Y7874
X68199Y32893
X77343Y29718
X86995Y4318
X110363Y48387
X92456Y41148
X92837Y32512
X101346Y62357
X102870Y67945
X102743Y73025
X84328Y15240
X84328Y13589
X86741Y15875
X86741Y13208
X86614Y10541
X85598Y6985
X88265Y7112
X89789Y6223
X67691Y30861
X40894Y20955
X2032Y3556
X2286Y16256
X2794Y26924
X3175Y35306
X10033Y30988
X10668Y14986
X8890Y35306
X3048Y48260
X8509Y48768
X2667Y58166
X61087Y24130
X21971Y42926
X35687Y27051
X38227Y27559
X20447Y23622
X15748Y37338
X19304Y35560
X22098Y38227
X4445Y67056
X3175Y62484
X8509Y62484
X17272Y62484
X17018Y66167
X17018Y70485
X44577Y61468
X37592Y63373
X37719Y61341
X37719Y59309
X37719Y57150
X37846Y55372
X48260Y62611
X48768Y56134
X94615Y49911
X42037Y50927
X38100Y49022
X39116Y49022
X40132Y49022
X41148Y49022
X49149Y48387
X57912Y52197
X57785Y54610
X57658Y56642
X57785Y59182
X57912Y61849
X60579Y61722
X60579Y59436
X60706Y57023
X60452Y54356
X60452Y52451
X53594Y43561
X42037Y39116
X39116Y38735
X36068Y38735
X33147Y38862
X29972Y38862
X26924Y38989
X41275Y26797
X28956Y26924
X18415Y17780
X25146Y19050
X24257Y14859
X24765Y9398
X36703Y11430
X35306Y9906
X34163Y8509
X32639Y7112
X30988Y5715
X28829Y5588
X26670Y5969
X28194Y2159
X32004Y2286
X34417Y4064
X36195Y5588
X37592Y6731
X48895Y17653
X52451Y11430
X44450Y1524
X51689Y2159
X50927Y7620
X54102Y8509
X54483Y11684
X63500Y8382
X68199Y4191
X75692Y2159
X42037Y51943
X57277Y23749
X57277Y20701
X65786Y25527
X50673Y27940
X54102Y33655
X91440Y19304
X93472Y59817
X89408Y48133
X89281Y58420
X69469Y67818
X64770Y52451
X67691Y45212
X65659Y42672
X65532Y38989
X55753Y25400
X55499Y20828
X52578Y19812
X60071Y23876
X59436Y22987
X58166Y21844
X58293Y24638
X55753Y22860
X66548Y21082
X73406Y17145
X109601Y9652
X104394Y13081
X97155Y19685
X109347Y15367
X87757Y29337
X89662Y30988
X81280Y30353
X85217Y32131
X92456Y29337
X96647Y24384
X98425Y26035
X100457Y26670
T12
X90678Y34925
X94869Y39116
X68834Y29591
X97282Y36957
X90678Y33782
X97028Y39116
X98679Y37846
X72263Y43434
X65786Y23542
X62103Y14986
X34544Y15748
X72898Y28194
X96647Y34417
X64516Y60071
X64516Y14732
X28321Y15748
X85725Y13970
X85725Y43434
X99568Y28067
X79375Y44958
X90170Y41148
X78232Y45974
X88985Y43942
X69088Y42164
X81407Y27940
X70358Y44196
X79121Y31750
X80137Y32639
X71247Y45212
X71374Y29083
X81153Y33528
T13
X32766Y22606
X34798Y22606
X42291Y47879
X43307Y47879
X43307Y46863
X29210Y47498
X35433Y45974
X32385Y47498
X35433Y47498
X29083Y45974
X32385Y45974
X44577Y50292
X43434Y50292
X42291Y46863
X32766Y23622
X33782Y23622
X34798Y23622
X33782Y22606
T14
X101854Y36957
X87249Y18669
X86275Y21505
X67056Y26416
X97409Y35306
X89408Y18796
X87122Y23114
X90202Y36798
X92329Y31115
X101981Y27813
M30