%TF.GenerationSoftware,KiCad,Pcbnew,7.0.7*%
%TF.CreationDate,2023-08-27T13:56:46-07:00*%
%TF.ProjectId,DC-DC_converter,44432d44-435f-4636-9f6e-766572746572,rev?*%
%TF.SameCoordinates,Original*%
%TF.FileFunction,Legend,Top*%
%TF.FilePolarity,Positive*%
%FSLAX46Y46*%
G04 Gerber Fmt 4.6, Leading zero omitted, Abs format (unit mm)*
G04 Created by KiCad (PCBNEW 7.0.7) date 2023-08-27 13:56:46*
%MOMM*%
%LPD*%
G01*
G04 APERTURE LIST*
%ADD10C,0.150000*%
%ADD11C,0.200000*%
%ADD12C,0.152000*%
%ADD13C,0.120000*%
%ADD14C,0.254000*%
G04 APERTURE END LIST*
D10*
X54356095Y-80861819D02*
X54356095Y-81671342D01*
X54356095Y-81671342D02*
X54403714Y-81766580D01*
X54403714Y-81766580D02*
X54451333Y-81814200D01*
X54451333Y-81814200D02*
X54546571Y-81861819D01*
X54546571Y-81861819D02*
X54737047Y-81861819D01*
X54737047Y-81861819D02*
X54832285Y-81814200D01*
X54832285Y-81814200D02*
X54879904Y-81766580D01*
X54879904Y-81766580D02*
X54927523Y-81671342D01*
X54927523Y-81671342D02*
X54927523Y-80861819D01*
X55927523Y-81861819D02*
X55356095Y-81861819D01*
X55641809Y-81861819D02*
X55641809Y-80861819D01*
X55641809Y-80861819D02*
X55546571Y-81004676D01*
X55546571Y-81004676D02*
X55451333Y-81099914D01*
X55451333Y-81099914D02*
X55356095Y-81147533D01*
X55951571Y-71955819D02*
X55618238Y-71479628D01*
X55380143Y-71955819D02*
X55380143Y-70955819D01*
X55380143Y-70955819D02*
X55761095Y-70955819D01*
X55761095Y-70955819D02*
X55856333Y-71003438D01*
X55856333Y-71003438D02*
X55903952Y-71051057D01*
X55903952Y-71051057D02*
X55951571Y-71146295D01*
X55951571Y-71146295D02*
X55951571Y-71289152D01*
X55951571Y-71289152D02*
X55903952Y-71384390D01*
X55903952Y-71384390D02*
X55856333Y-71432009D01*
X55856333Y-71432009D02*
X55761095Y-71479628D01*
X55761095Y-71479628D02*
X55380143Y-71479628D01*
X56380143Y-71289152D02*
X56380143Y-72289152D01*
X56380143Y-71336771D02*
X56475381Y-71289152D01*
X56475381Y-71289152D02*
X56665857Y-71289152D01*
X56665857Y-71289152D02*
X56761095Y-71336771D01*
X56761095Y-71336771D02*
X56808714Y-71384390D01*
X56808714Y-71384390D02*
X56856333Y-71479628D01*
X56856333Y-71479628D02*
X56856333Y-71765342D01*
X56856333Y-71765342D02*
X56808714Y-71860580D01*
X56808714Y-71860580D02*
X56761095Y-71908200D01*
X56761095Y-71908200D02*
X56665857Y-71955819D01*
X56665857Y-71955819D02*
X56475381Y-71955819D01*
X56475381Y-71955819D02*
X56380143Y-71908200D01*
X57713476Y-71289152D02*
X57713476Y-72098676D01*
X57713476Y-72098676D02*
X57665857Y-72193914D01*
X57665857Y-72193914D02*
X57618238Y-72241533D01*
X57618238Y-72241533D02*
X57523000Y-72289152D01*
X57523000Y-72289152D02*
X57380143Y-72289152D01*
X57380143Y-72289152D02*
X57284905Y-72241533D01*
X57713476Y-71908200D02*
X57618238Y-71955819D01*
X57618238Y-71955819D02*
X57427762Y-71955819D01*
X57427762Y-71955819D02*
X57332524Y-71908200D01*
X57332524Y-71908200D02*
X57284905Y-71860580D01*
X57284905Y-71860580D02*
X57237286Y-71765342D01*
X57237286Y-71765342D02*
X57237286Y-71479628D01*
X57237286Y-71479628D02*
X57284905Y-71384390D01*
X57284905Y-71384390D02*
X57332524Y-71336771D01*
X57332524Y-71336771D02*
X57427762Y-71289152D01*
X57427762Y-71289152D02*
X57618238Y-71289152D01*
X57618238Y-71289152D02*
X57713476Y-71336771D01*
X58713476Y-71955819D02*
X58142048Y-71955819D01*
X58427762Y-71955819D02*
X58427762Y-70955819D01*
X58427762Y-70955819D02*
X58332524Y-71098676D01*
X58332524Y-71098676D02*
X58237286Y-71193914D01*
X58237286Y-71193914D02*
X58142048Y-71241533D01*
X72540904Y-87830819D02*
X72207571Y-87354628D01*
X71969476Y-87830819D02*
X71969476Y-86830819D01*
X71969476Y-86830819D02*
X72350428Y-86830819D01*
X72350428Y-86830819D02*
X72445666Y-86878438D01*
X72445666Y-86878438D02*
X72493285Y-86926057D01*
X72493285Y-86926057D02*
X72540904Y-87021295D01*
X72540904Y-87021295D02*
X72540904Y-87164152D01*
X72540904Y-87164152D02*
X72493285Y-87259390D01*
X72493285Y-87259390D02*
X72445666Y-87307009D01*
X72445666Y-87307009D02*
X72350428Y-87354628D01*
X72350428Y-87354628D02*
X71969476Y-87354628D01*
X72826619Y-87164152D02*
X73207571Y-87164152D01*
X72969476Y-87830819D02*
X72969476Y-86973676D01*
X72969476Y-86973676D02*
X73017095Y-86878438D01*
X73017095Y-86878438D02*
X73112333Y-86830819D01*
X73112333Y-86830819D02*
X73207571Y-86830819D01*
X73398048Y-87164152D02*
X73779000Y-87164152D01*
X73540905Y-87830819D02*
X73540905Y-86973676D01*
X73540905Y-86973676D02*
X73588524Y-86878438D01*
X73588524Y-86878438D02*
X73683762Y-86830819D01*
X73683762Y-86830819D02*
X73779000Y-86830819D01*
X74636143Y-87830819D02*
X74064715Y-87830819D01*
X74350429Y-87830819D02*
X74350429Y-86830819D01*
X74350429Y-86830819D02*
X74255191Y-86973676D01*
X74255191Y-86973676D02*
X74159953Y-87068914D01*
X74159953Y-87068914D02*
X74064715Y-87116533D01*
X64318023Y-83893819D02*
X63984690Y-83417628D01*
X63746595Y-83893819D02*
X63746595Y-82893819D01*
X63746595Y-82893819D02*
X64127547Y-82893819D01*
X64127547Y-82893819D02*
X64222785Y-82941438D01*
X64222785Y-82941438D02*
X64270404Y-82989057D01*
X64270404Y-82989057D02*
X64318023Y-83084295D01*
X64318023Y-83084295D02*
X64318023Y-83227152D01*
X64318023Y-83227152D02*
X64270404Y-83322390D01*
X64270404Y-83322390D02*
X64222785Y-83370009D01*
X64222785Y-83370009D02*
X64127547Y-83417628D01*
X64127547Y-83417628D02*
X63746595Y-83417628D01*
X64603738Y-83227152D02*
X64984690Y-83227152D01*
X64746595Y-83893819D02*
X64746595Y-83036676D01*
X64746595Y-83036676D02*
X64794214Y-82941438D01*
X64794214Y-82941438D02*
X64889452Y-82893819D01*
X64889452Y-82893819D02*
X64984690Y-82893819D01*
X65318024Y-83893819D02*
X65318024Y-82893819D01*
X65318024Y-83274771D02*
X65413262Y-83227152D01*
X65413262Y-83227152D02*
X65603738Y-83227152D01*
X65603738Y-83227152D02*
X65698976Y-83274771D01*
X65698976Y-83274771D02*
X65746595Y-83322390D01*
X65746595Y-83322390D02*
X65794214Y-83417628D01*
X65794214Y-83417628D02*
X65794214Y-83703342D01*
X65794214Y-83703342D02*
X65746595Y-83798580D01*
X65746595Y-83798580D02*
X65698976Y-83846200D01*
X65698976Y-83846200D02*
X65603738Y-83893819D01*
X65603738Y-83893819D02*
X65413262Y-83893819D01*
X65413262Y-83893819D02*
X65318024Y-83846200D01*
X66079929Y-83227152D02*
X66460881Y-83227152D01*
X66222786Y-82893819D02*
X66222786Y-83750961D01*
X66222786Y-83750961D02*
X66270405Y-83846200D01*
X66270405Y-83846200D02*
X66365643Y-83893819D01*
X66365643Y-83893819D02*
X66460881Y-83893819D01*
X67318024Y-83893819D02*
X66746596Y-83893819D01*
X67032310Y-83893819D02*
X67032310Y-82893819D01*
X67032310Y-82893819D02*
X66937072Y-83036676D01*
X66937072Y-83036676D02*
X66841834Y-83131914D01*
X66841834Y-83131914D02*
X66746596Y-83179533D01*
X64151356Y-85798819D02*
X63818023Y-85322628D01*
X63579928Y-85798819D02*
X63579928Y-84798819D01*
X63579928Y-84798819D02*
X63960880Y-84798819D01*
X63960880Y-84798819D02*
X64056118Y-84846438D01*
X64056118Y-84846438D02*
X64103737Y-84894057D01*
X64103737Y-84894057D02*
X64151356Y-84989295D01*
X64151356Y-84989295D02*
X64151356Y-85132152D01*
X64151356Y-85132152D02*
X64103737Y-85227390D01*
X64103737Y-85227390D02*
X64056118Y-85275009D01*
X64056118Y-85275009D02*
X63960880Y-85322628D01*
X63960880Y-85322628D02*
X63579928Y-85322628D01*
X64437071Y-85132152D02*
X64818023Y-85132152D01*
X64579928Y-85798819D02*
X64579928Y-84941676D01*
X64579928Y-84941676D02*
X64627547Y-84846438D01*
X64627547Y-84846438D02*
X64722785Y-84798819D01*
X64722785Y-84798819D02*
X64818023Y-84798819D01*
X65151357Y-85798819D02*
X65151357Y-84798819D01*
X65151357Y-85179771D02*
X65246595Y-85132152D01*
X65246595Y-85132152D02*
X65437071Y-85132152D01*
X65437071Y-85132152D02*
X65532309Y-85179771D01*
X65532309Y-85179771D02*
X65579928Y-85227390D01*
X65579928Y-85227390D02*
X65627547Y-85322628D01*
X65627547Y-85322628D02*
X65627547Y-85608342D01*
X65627547Y-85608342D02*
X65579928Y-85703580D01*
X65579928Y-85703580D02*
X65532309Y-85751200D01*
X65532309Y-85751200D02*
X65437071Y-85798819D01*
X65437071Y-85798819D02*
X65246595Y-85798819D01*
X65246595Y-85798819D02*
X65151357Y-85751200D01*
X66056119Y-85798819D02*
X66056119Y-84798819D01*
X66056119Y-85179771D02*
X66151357Y-85132152D01*
X66151357Y-85132152D02*
X66341833Y-85132152D01*
X66341833Y-85132152D02*
X66437071Y-85179771D01*
X66437071Y-85179771D02*
X66484690Y-85227390D01*
X66484690Y-85227390D02*
X66532309Y-85322628D01*
X66532309Y-85322628D02*
X66532309Y-85608342D01*
X66532309Y-85608342D02*
X66484690Y-85703580D01*
X66484690Y-85703580D02*
X66437071Y-85751200D01*
X66437071Y-85751200D02*
X66341833Y-85798819D01*
X66341833Y-85798819D02*
X66151357Y-85798819D01*
X66151357Y-85798819D02*
X66056119Y-85751200D01*
X67484690Y-85798819D02*
X66913262Y-85798819D01*
X67198976Y-85798819D02*
X67198976Y-84798819D01*
X67198976Y-84798819D02*
X67103738Y-84941676D01*
X67103738Y-84941676D02*
X67008500Y-85036914D01*
X67008500Y-85036914D02*
X66913262Y-85084533D01*
X79938666Y-89243819D02*
X80129142Y-89243819D01*
X80129142Y-89243819D02*
X80224380Y-89291438D01*
X80224380Y-89291438D02*
X80319618Y-89386676D01*
X80319618Y-89386676D02*
X80367237Y-89577152D01*
X80367237Y-89577152D02*
X80367237Y-89910485D01*
X80367237Y-89910485D02*
X80319618Y-90100961D01*
X80319618Y-90100961D02*
X80224380Y-90196200D01*
X80224380Y-90196200D02*
X80129142Y-90243819D01*
X80129142Y-90243819D02*
X79938666Y-90243819D01*
X79938666Y-90243819D02*
X79843428Y-90196200D01*
X79843428Y-90196200D02*
X79748190Y-90100961D01*
X79748190Y-90100961D02*
X79700571Y-89910485D01*
X79700571Y-89910485D02*
X79700571Y-89577152D01*
X79700571Y-89577152D02*
X79748190Y-89386676D01*
X79748190Y-89386676D02*
X79843428Y-89291438D01*
X79843428Y-89291438D02*
X79938666Y-89243819D01*
X81224380Y-89577152D02*
X81224380Y-90243819D01*
X80795809Y-89577152D02*
X80795809Y-90100961D01*
X80795809Y-90100961D02*
X80843428Y-90196200D01*
X80843428Y-90196200D02*
X80938666Y-90243819D01*
X80938666Y-90243819D02*
X81081523Y-90243819D01*
X81081523Y-90243819D02*
X81176761Y-90196200D01*
X81176761Y-90196200D02*
X81224380Y-90148580D01*
X81557714Y-89577152D02*
X81938666Y-89577152D01*
X81700571Y-89243819D02*
X81700571Y-90100961D01*
X81700571Y-90100961D02*
X81748190Y-90196200D01*
X81748190Y-90196200D02*
X81843428Y-90243819D01*
X81843428Y-90243819D02*
X81938666Y-90243819D01*
D11*
X80675951Y-94765733D02*
X79914047Y-94765733D01*
X80294999Y-94384780D02*
X80294999Y-95146685D01*
X72675951Y-94765733D02*
X71914047Y-94765733D01*
D10*
X60031333Y-65783619D02*
X59555143Y-65783619D01*
X59555143Y-65783619D02*
X59555143Y-64783619D01*
X60888476Y-65783619D02*
X60317048Y-65783619D01*
X60602762Y-65783619D02*
X60602762Y-64783619D01*
X60602762Y-64783619D02*
X60507524Y-64926476D01*
X60507524Y-64926476D02*
X60412286Y-65021714D01*
X60412286Y-65021714D02*
X60317048Y-65069333D01*
X50220619Y-90243819D02*
X50220619Y-89243819D01*
X50696809Y-89577152D02*
X50696809Y-90243819D01*
X50696809Y-89672390D02*
X50744428Y-89624771D01*
X50744428Y-89624771D02*
X50839666Y-89577152D01*
X50839666Y-89577152D02*
X50982523Y-89577152D01*
X50982523Y-89577152D02*
X51077761Y-89624771D01*
X51077761Y-89624771D02*
X51125380Y-89720009D01*
X51125380Y-89720009D02*
X51125380Y-90243819D01*
D11*
X51341048Y-90908266D02*
X52102953Y-90908266D01*
X51722000Y-91289219D02*
X51722000Y-90527314D01*
X59341048Y-90908266D02*
X60102953Y-90908266D01*
D10*
X73445856Y-85068580D02*
X73398237Y-85116200D01*
X73398237Y-85116200D02*
X73255380Y-85163819D01*
X73255380Y-85163819D02*
X73160142Y-85163819D01*
X73160142Y-85163819D02*
X73017285Y-85116200D01*
X73017285Y-85116200D02*
X72922047Y-85020961D01*
X72922047Y-85020961D02*
X72874428Y-84925723D01*
X72874428Y-84925723D02*
X72826809Y-84735247D01*
X72826809Y-84735247D02*
X72826809Y-84592390D01*
X72826809Y-84592390D02*
X72874428Y-84401914D01*
X72874428Y-84401914D02*
X72922047Y-84306676D01*
X72922047Y-84306676D02*
X73017285Y-84211438D01*
X73017285Y-84211438D02*
X73160142Y-84163819D01*
X73160142Y-84163819D02*
X73255380Y-84163819D01*
X73255380Y-84163819D02*
X73398237Y-84211438D01*
X73398237Y-84211438D02*
X73445856Y-84259057D01*
X74017285Y-85163819D02*
X73922047Y-85116200D01*
X73922047Y-85116200D02*
X73874428Y-85068580D01*
X73874428Y-85068580D02*
X73826809Y-84973342D01*
X73826809Y-84973342D02*
X73826809Y-84687628D01*
X73826809Y-84687628D02*
X73874428Y-84592390D01*
X73874428Y-84592390D02*
X73922047Y-84544771D01*
X73922047Y-84544771D02*
X74017285Y-84497152D01*
X74017285Y-84497152D02*
X74160142Y-84497152D01*
X74160142Y-84497152D02*
X74255380Y-84544771D01*
X74255380Y-84544771D02*
X74302999Y-84592390D01*
X74302999Y-84592390D02*
X74350618Y-84687628D01*
X74350618Y-84687628D02*
X74350618Y-84973342D01*
X74350618Y-84973342D02*
X74302999Y-85068580D01*
X74302999Y-85068580D02*
X74255380Y-85116200D01*
X74255380Y-85116200D02*
X74160142Y-85163819D01*
X74160142Y-85163819D02*
X74017285Y-85163819D01*
X75207761Y-84497152D02*
X75207761Y-85163819D01*
X74779190Y-84497152D02*
X74779190Y-85020961D01*
X74779190Y-85020961D02*
X74826809Y-85116200D01*
X74826809Y-85116200D02*
X74922047Y-85163819D01*
X74922047Y-85163819D02*
X75064904Y-85163819D01*
X75064904Y-85163819D02*
X75160142Y-85116200D01*
X75160142Y-85116200D02*
X75207761Y-85068580D01*
X75541095Y-84497152D02*
X75922047Y-84497152D01*
X75683952Y-84163819D02*
X75683952Y-85020961D01*
X75683952Y-85020961D02*
X75731571Y-85116200D01*
X75731571Y-85116200D02*
X75826809Y-85163819D01*
X75826809Y-85163819D02*
X75922047Y-85163819D01*
X76779190Y-85163819D02*
X76207762Y-85163819D01*
X76493476Y-85163819D02*
X76493476Y-84163819D01*
X76493476Y-84163819D02*
X76398238Y-84306676D01*
X76398238Y-84306676D02*
X76303000Y-84401914D01*
X76303000Y-84401914D02*
X76207762Y-84449533D01*
X50427095Y-85703580D02*
X50379476Y-85751200D01*
X50379476Y-85751200D02*
X50236619Y-85798819D01*
X50236619Y-85798819D02*
X50141381Y-85798819D01*
X50141381Y-85798819D02*
X49998524Y-85751200D01*
X49998524Y-85751200D02*
X49903286Y-85655961D01*
X49903286Y-85655961D02*
X49855667Y-85560723D01*
X49855667Y-85560723D02*
X49808048Y-85370247D01*
X49808048Y-85370247D02*
X49808048Y-85227390D01*
X49808048Y-85227390D02*
X49855667Y-85036914D01*
X49855667Y-85036914D02*
X49903286Y-84941676D01*
X49903286Y-84941676D02*
X49998524Y-84846438D01*
X49998524Y-84846438D02*
X50141381Y-84798819D01*
X50141381Y-84798819D02*
X50236619Y-84798819D01*
X50236619Y-84798819D02*
X50379476Y-84846438D01*
X50379476Y-84846438D02*
X50427095Y-84894057D01*
X50855667Y-85798819D02*
X50855667Y-85132152D01*
X50855667Y-84798819D02*
X50808048Y-84846438D01*
X50808048Y-84846438D02*
X50855667Y-84894057D01*
X50855667Y-84894057D02*
X50903286Y-84846438D01*
X50903286Y-84846438D02*
X50855667Y-84798819D01*
X50855667Y-84798819D02*
X50855667Y-84894057D01*
X51331857Y-85132152D02*
X51331857Y-85798819D01*
X51331857Y-85227390D02*
X51379476Y-85179771D01*
X51379476Y-85179771D02*
X51474714Y-85132152D01*
X51474714Y-85132152D02*
X51617571Y-85132152D01*
X51617571Y-85132152D02*
X51712809Y-85179771D01*
X51712809Y-85179771D02*
X51760428Y-85275009D01*
X51760428Y-85275009D02*
X51760428Y-85798819D01*
X52141381Y-85798819D02*
X52665190Y-85132152D01*
X52141381Y-85132152D02*
X52665190Y-85798819D01*
X53569952Y-85798819D02*
X52998524Y-85798819D01*
X53284238Y-85798819D02*
X53284238Y-84798819D01*
X53284238Y-84798819D02*
X53189000Y-84941676D01*
X53189000Y-84941676D02*
X53093762Y-85036914D01*
X53093762Y-85036914D02*
X52998524Y-85084533D01*
X51085857Y-83671580D02*
X51038238Y-83719200D01*
X51038238Y-83719200D02*
X50895381Y-83766819D01*
X50895381Y-83766819D02*
X50800143Y-83766819D01*
X50800143Y-83766819D02*
X50657286Y-83719200D01*
X50657286Y-83719200D02*
X50562048Y-83623961D01*
X50562048Y-83623961D02*
X50514429Y-83528723D01*
X50514429Y-83528723D02*
X50466810Y-83338247D01*
X50466810Y-83338247D02*
X50466810Y-83195390D01*
X50466810Y-83195390D02*
X50514429Y-83004914D01*
X50514429Y-83004914D02*
X50562048Y-82909676D01*
X50562048Y-82909676D02*
X50657286Y-82814438D01*
X50657286Y-82814438D02*
X50800143Y-82766819D01*
X50800143Y-82766819D02*
X50895381Y-82766819D01*
X50895381Y-82766819D02*
X51038238Y-82814438D01*
X51038238Y-82814438D02*
X51085857Y-82862057D01*
X51514429Y-83766819D02*
X51514429Y-83100152D01*
X51514429Y-82766819D02*
X51466810Y-82814438D01*
X51466810Y-82814438D02*
X51514429Y-82862057D01*
X51514429Y-82862057D02*
X51562048Y-82814438D01*
X51562048Y-82814438D02*
X51514429Y-82766819D01*
X51514429Y-82766819D02*
X51514429Y-82862057D01*
X51990619Y-83100152D02*
X51990619Y-83766819D01*
X51990619Y-83195390D02*
X52038238Y-83147771D01*
X52038238Y-83147771D02*
X52133476Y-83100152D01*
X52133476Y-83100152D02*
X52276333Y-83100152D01*
X52276333Y-83100152D02*
X52371571Y-83147771D01*
X52371571Y-83147771D02*
X52419190Y-83243009D01*
X52419190Y-83243009D02*
X52419190Y-83766819D01*
X52847762Y-82862057D02*
X52895381Y-82814438D01*
X52895381Y-82814438D02*
X52990619Y-82766819D01*
X52990619Y-82766819D02*
X53228714Y-82766819D01*
X53228714Y-82766819D02*
X53323952Y-82814438D01*
X53323952Y-82814438D02*
X53371571Y-82862057D01*
X53371571Y-82862057D02*
X53419190Y-82957295D01*
X53419190Y-82957295D02*
X53419190Y-83052533D01*
X53419190Y-83052533D02*
X53371571Y-83195390D01*
X53371571Y-83195390D02*
X52800143Y-83766819D01*
X52800143Y-83766819D02*
X53419190Y-83766819D01*
X51212857Y-87735580D02*
X51165238Y-87783200D01*
X51165238Y-87783200D02*
X51022381Y-87830819D01*
X51022381Y-87830819D02*
X50927143Y-87830819D01*
X50927143Y-87830819D02*
X50784286Y-87783200D01*
X50784286Y-87783200D02*
X50689048Y-87687961D01*
X50689048Y-87687961D02*
X50641429Y-87592723D01*
X50641429Y-87592723D02*
X50593810Y-87402247D01*
X50593810Y-87402247D02*
X50593810Y-87259390D01*
X50593810Y-87259390D02*
X50641429Y-87068914D01*
X50641429Y-87068914D02*
X50689048Y-86973676D01*
X50689048Y-86973676D02*
X50784286Y-86878438D01*
X50784286Y-86878438D02*
X50927143Y-86830819D01*
X50927143Y-86830819D02*
X51022381Y-86830819D01*
X51022381Y-86830819D02*
X51165238Y-86878438D01*
X51165238Y-86878438D02*
X51212857Y-86926057D01*
X51641429Y-87830819D02*
X51641429Y-87164152D01*
X51641429Y-86830819D02*
X51593810Y-86878438D01*
X51593810Y-86878438D02*
X51641429Y-86926057D01*
X51641429Y-86926057D02*
X51689048Y-86878438D01*
X51689048Y-86878438D02*
X51641429Y-86830819D01*
X51641429Y-86830819D02*
X51641429Y-86926057D01*
X52117619Y-87164152D02*
X52117619Y-87830819D01*
X52117619Y-87259390D02*
X52165238Y-87211771D01*
X52165238Y-87211771D02*
X52260476Y-87164152D01*
X52260476Y-87164152D02*
X52403333Y-87164152D01*
X52403333Y-87164152D02*
X52498571Y-87211771D01*
X52498571Y-87211771D02*
X52546190Y-87307009D01*
X52546190Y-87307009D02*
X52546190Y-87830819D01*
X53546190Y-87830819D02*
X52974762Y-87830819D01*
X53260476Y-87830819D02*
X53260476Y-86830819D01*
X53260476Y-86830819D02*
X53165238Y-86973676D01*
X53165238Y-86973676D02*
X53070000Y-87068914D01*
X53070000Y-87068914D02*
X52974762Y-87116533D01*
X64389404Y-87989580D02*
X64341785Y-88037200D01*
X64341785Y-88037200D02*
X64198928Y-88084819D01*
X64198928Y-88084819D02*
X64103690Y-88084819D01*
X64103690Y-88084819D02*
X63960833Y-88037200D01*
X63960833Y-88037200D02*
X63865595Y-87941961D01*
X63865595Y-87941961D02*
X63817976Y-87846723D01*
X63817976Y-87846723D02*
X63770357Y-87656247D01*
X63770357Y-87656247D02*
X63770357Y-87513390D01*
X63770357Y-87513390D02*
X63817976Y-87322914D01*
X63817976Y-87322914D02*
X63865595Y-87227676D01*
X63865595Y-87227676D02*
X63960833Y-87132438D01*
X63960833Y-87132438D02*
X64103690Y-87084819D01*
X64103690Y-87084819D02*
X64198928Y-87084819D01*
X64198928Y-87084819D02*
X64341785Y-87132438D01*
X64341785Y-87132438D02*
X64389404Y-87180057D01*
X64675119Y-87418152D02*
X65056071Y-87418152D01*
X64817976Y-88084819D02*
X64817976Y-87227676D01*
X64817976Y-87227676D02*
X64865595Y-87132438D01*
X64865595Y-87132438D02*
X64960833Y-87084819D01*
X64960833Y-87084819D02*
X65056071Y-87084819D01*
X65246548Y-87418152D02*
X65627500Y-87418152D01*
X65389405Y-88084819D02*
X65389405Y-87227676D01*
X65389405Y-87227676D02*
X65437024Y-87132438D01*
X65437024Y-87132438D02*
X65532262Y-87084819D01*
X65532262Y-87084819D02*
X65627500Y-87084819D01*
X66484643Y-88084819D02*
X65913215Y-88084819D01*
X66198929Y-88084819D02*
X66198929Y-87084819D01*
X66198929Y-87084819D02*
X66103691Y-87227676D01*
X66103691Y-87227676D02*
X66008453Y-87322914D01*
X66008453Y-87322914D02*
X65913215Y-87370533D01*
X51403475Y-73638580D02*
X51355856Y-73686200D01*
X51355856Y-73686200D02*
X51212999Y-73733819D01*
X51212999Y-73733819D02*
X51117761Y-73733819D01*
X51117761Y-73733819D02*
X50974904Y-73686200D01*
X50974904Y-73686200D02*
X50879666Y-73590961D01*
X50879666Y-73590961D02*
X50832047Y-73495723D01*
X50832047Y-73495723D02*
X50784428Y-73305247D01*
X50784428Y-73305247D02*
X50784428Y-73162390D01*
X50784428Y-73162390D02*
X50832047Y-72971914D01*
X50832047Y-72971914D02*
X50879666Y-72876676D01*
X50879666Y-72876676D02*
X50974904Y-72781438D01*
X50974904Y-72781438D02*
X51117761Y-72733819D01*
X51117761Y-72733819D02*
X51212999Y-72733819D01*
X51212999Y-72733819D02*
X51355856Y-72781438D01*
X51355856Y-72781438D02*
X51403475Y-72829057D01*
X51832047Y-73733819D02*
X51832047Y-72733819D01*
X51832047Y-73114771D02*
X51927285Y-73067152D01*
X51927285Y-73067152D02*
X52117761Y-73067152D01*
X52117761Y-73067152D02*
X52212999Y-73114771D01*
X52212999Y-73114771D02*
X52260618Y-73162390D01*
X52260618Y-73162390D02*
X52308237Y-73257628D01*
X52308237Y-73257628D02*
X52308237Y-73543342D01*
X52308237Y-73543342D02*
X52260618Y-73638580D01*
X52260618Y-73638580D02*
X52212999Y-73686200D01*
X52212999Y-73686200D02*
X52117761Y-73733819D01*
X52117761Y-73733819D02*
X51927285Y-73733819D01*
X51927285Y-73733819D02*
X51832047Y-73686200D01*
X52879666Y-73733819D02*
X52784428Y-73686200D01*
X52784428Y-73686200D02*
X52736809Y-73638580D01*
X52736809Y-73638580D02*
X52689190Y-73543342D01*
X52689190Y-73543342D02*
X52689190Y-73257628D01*
X52689190Y-73257628D02*
X52736809Y-73162390D01*
X52736809Y-73162390D02*
X52784428Y-73114771D01*
X52784428Y-73114771D02*
X52879666Y-73067152D01*
X52879666Y-73067152D02*
X53022523Y-73067152D01*
X53022523Y-73067152D02*
X53117761Y-73114771D01*
X53117761Y-73114771D02*
X53165380Y-73162390D01*
X53165380Y-73162390D02*
X53212999Y-73257628D01*
X53212999Y-73257628D02*
X53212999Y-73543342D01*
X53212999Y-73543342D02*
X53165380Y-73638580D01*
X53165380Y-73638580D02*
X53117761Y-73686200D01*
X53117761Y-73686200D02*
X53022523Y-73733819D01*
X53022523Y-73733819D02*
X52879666Y-73733819D01*
X53784428Y-73733819D02*
X53689190Y-73686200D01*
X53689190Y-73686200D02*
X53641571Y-73638580D01*
X53641571Y-73638580D02*
X53593952Y-73543342D01*
X53593952Y-73543342D02*
X53593952Y-73257628D01*
X53593952Y-73257628D02*
X53641571Y-73162390D01*
X53641571Y-73162390D02*
X53689190Y-73114771D01*
X53689190Y-73114771D02*
X53784428Y-73067152D01*
X53784428Y-73067152D02*
X53927285Y-73067152D01*
X53927285Y-73067152D02*
X54022523Y-73114771D01*
X54022523Y-73114771D02*
X54070142Y-73162390D01*
X54070142Y-73162390D02*
X54117761Y-73257628D01*
X54117761Y-73257628D02*
X54117761Y-73543342D01*
X54117761Y-73543342D02*
X54070142Y-73638580D01*
X54070142Y-73638580D02*
X54022523Y-73686200D01*
X54022523Y-73686200D02*
X53927285Y-73733819D01*
X53927285Y-73733819D02*
X53784428Y-73733819D01*
X54403476Y-73067152D02*
X54784428Y-73067152D01*
X54546333Y-72733819D02*
X54546333Y-73590961D01*
X54546333Y-73590961D02*
X54593952Y-73686200D01*
X54593952Y-73686200D02*
X54689190Y-73733819D01*
X54689190Y-73733819D02*
X54784428Y-73733819D01*
X55641571Y-73733819D02*
X55070143Y-73733819D01*
X55355857Y-73733819D02*
X55355857Y-72733819D01*
X55355857Y-72733819D02*
X55260619Y-72876676D01*
X55260619Y-72876676D02*
X55165381Y-72971914D01*
X55165381Y-72971914D02*
X55070143Y-73019533D01*
D12*
%TO.C,U1*%
X53775000Y-77193000D02*
X53440000Y-77193000D01*
X54377000Y-80293000D02*
X54783000Y-80293000D01*
X53440000Y-77193000D02*
X53440000Y-78188000D01*
X55537000Y-80293000D02*
X55575000Y-80293000D01*
X56540000Y-77193000D02*
X56185000Y-77193000D01*
X53440000Y-79798000D02*
X53440000Y-80293000D01*
X56540000Y-77688000D02*
X56540000Y-77193000D01*
X56185000Y-80293000D02*
X56540000Y-80293000D01*
X56540000Y-80293000D02*
X56540000Y-79798000D01*
X55575000Y-77193000D02*
X54885000Y-77193000D01*
X53440000Y-80293000D02*
X53623000Y-80293000D01*
D10*
X56865000Y-79793000D02*
G75*
G03*
X56865000Y-79793000I-75000J0D01*
G01*
D13*
%TO.C,Rpg1*%
X57885000Y-74194936D02*
X57885000Y-74649064D01*
X56415000Y-74194936D02*
X56415000Y-74649064D01*
%TO.C,Rff1*%
X69876936Y-86641000D02*
X70331064Y-86641000D01*
X69876936Y-88111000D02*
X70331064Y-88111000D01*
%TO.C,Rfbt1*%
X61798564Y-84047000D02*
X61344436Y-84047000D01*
X61798564Y-82577000D02*
X61344436Y-82577000D01*
%TO.C,Rfbb1*%
X61344436Y-84609000D02*
X61798564Y-84609000D01*
X61344436Y-86079000D02*
X61798564Y-86079000D01*
%TO.C,Out*%
X74295000Y-96837000D02*
X66295000Y-96837000D01*
X66295000Y-96837000D02*
X66295000Y-88837000D01*
X66295000Y-88837000D02*
X74295000Y-88837000D01*
X74295000Y-88837000D02*
X74295000Y-96837000D01*
X74295000Y-96837000D02*
X82295000Y-96837000D01*
X82295000Y-96837000D02*
X82295000Y-88837000D01*
X82295000Y-88837000D02*
X74295000Y-88837000D01*
X74295000Y-88837000D02*
X74295000Y-96837000D01*
D14*
%TO.C,L1*%
X79389000Y-79212800D02*
X79389000Y-81421800D01*
X62188000Y-81421800D02*
X79389000Y-81421800D01*
X62188000Y-64221800D02*
X79389000Y-64221800D01*
X62188000Y-66415800D02*
X62188000Y-64221800D01*
X62188000Y-81421800D02*
X62188000Y-79227800D01*
X79389000Y-64221800D02*
X79389000Y-66430800D01*
D13*
%TO.C,In*%
X57722000Y-88837000D02*
X65722000Y-88837000D01*
X65722000Y-88837000D02*
X65722000Y-96837000D01*
X65722000Y-96837000D02*
X57722000Y-96837000D01*
X57722000Y-96837000D02*
X57722000Y-88837000D01*
X57722000Y-88837000D02*
X49722000Y-88837000D01*
X49722000Y-88837000D02*
X49722000Y-96837000D01*
X49722000Y-96837000D02*
X57722000Y-96837000D01*
X57722000Y-96837000D02*
X57722000Y-88837000D01*
%TO.C,Cout1*%
X71069252Y-86069000D02*
X69646748Y-86069000D01*
X71069252Y-83349000D02*
X69646748Y-83349000D01*
%TO.C,Cinx1*%
X55237748Y-86079000D02*
X55760252Y-86079000D01*
X55237748Y-84609000D02*
X55760252Y-84609000D01*
%TO.C,Cin2*%
X55237748Y-84047000D02*
X55760252Y-84047000D01*
X55237748Y-82577000D02*
X55760252Y-82577000D01*
%TO.C,Cin1*%
X55237748Y-88111000D02*
X55760252Y-88111000D01*
X55237748Y-86641000D02*
X55760252Y-86641000D01*
%TO.C,Cff1*%
X61832752Y-86641000D02*
X61310248Y-86641000D01*
X61832752Y-88111000D02*
X61310248Y-88111000D01*
%TO.C,Cboot1*%
X53840748Y-75792000D02*
X54363252Y-75792000D01*
X53840748Y-74322000D02*
X54363252Y-74322000D01*
%TD*%
M02*
