G04 EAGLE Gerber RS-274X export*
G75*
%MOMM*%
%FSLAX34Y34*%
%LPD*%
%INBottom Copper*%
%IPPOS*%
%AMOC8*
5,1,8,0,0,1.08239X$1,22.5*%
G01*
%ADD10C,0.908000*%
%ADD11C,4.191000*%
%ADD12P,2.034460X8X292.500000*%
%ADD13C,0.856400*%
%ADD14C,0.254000*%
%ADD15C,0.756400*%
%ADD16C,0.304800*%
%ADD17C,0.508000*%
%ADD18C,1.016000*%

G36*
X671831Y10945D02*
X671831Y10945D01*
X671850Y10949D01*
X671869Y10946D01*
X671971Y10969D01*
X672074Y10985D01*
X672091Y10995D01*
X672110Y10999D01*
X672199Y11052D01*
X672291Y11101D01*
X672304Y11115D01*
X672321Y11125D01*
X672388Y11204D01*
X672460Y11279D01*
X672468Y11297D01*
X672481Y11312D01*
X672520Y11408D01*
X672563Y11503D01*
X672566Y11522D01*
X672573Y11540D01*
X672591Y11707D01*
X672591Y19653D01*
X672577Y19743D01*
X672569Y19834D01*
X672557Y19863D01*
X672552Y19895D01*
X672509Y19976D01*
X672473Y20060D01*
X672447Y20092D01*
X672436Y20113D01*
X672413Y20135D01*
X672368Y20191D01*
X665987Y26572D01*
X665987Y90268D01*
X671098Y95379D01*
X684432Y108713D01*
X752697Y108713D01*
X752787Y108727D01*
X752878Y108735D01*
X752907Y108747D01*
X752939Y108752D01*
X753020Y108795D01*
X753104Y108831D01*
X753136Y108857D01*
X753157Y108868D01*
X753179Y108891D01*
X753235Y108936D01*
X757204Y112905D01*
X757257Y112979D01*
X757317Y113048D01*
X757329Y113079D01*
X757348Y113105D01*
X757375Y113192D01*
X757409Y113277D01*
X757413Y113318D01*
X757420Y113340D01*
X757419Y113372D01*
X757427Y113443D01*
X757427Y191770D01*
X757424Y191790D01*
X757426Y191809D01*
X757404Y191911D01*
X757388Y192013D01*
X757378Y192030D01*
X757374Y192050D01*
X757321Y192139D01*
X757272Y192230D01*
X757258Y192244D01*
X757248Y192261D01*
X757169Y192328D01*
X757094Y192399D01*
X757076Y192408D01*
X757061Y192421D01*
X756965Y192460D01*
X756871Y192503D01*
X756851Y192505D01*
X756833Y192513D01*
X756666Y192531D01*
X689925Y192531D01*
X686561Y195895D01*
X686561Y205425D01*
X705165Y224029D01*
X707390Y224029D01*
X707410Y224032D01*
X707429Y224030D01*
X707531Y224052D01*
X707633Y224069D01*
X707650Y224078D01*
X707670Y224082D01*
X707759Y224135D01*
X707850Y224184D01*
X707864Y224198D01*
X707881Y224208D01*
X707948Y224287D01*
X708020Y224362D01*
X708028Y224380D01*
X708041Y224395D01*
X708080Y224491D01*
X708123Y224585D01*
X708125Y224605D01*
X708133Y224623D01*
X708151Y224790D01*
X708151Y252730D01*
X708137Y252820D01*
X708129Y252911D01*
X708117Y252941D01*
X708112Y252973D01*
X708069Y253053D01*
X708033Y253137D01*
X708007Y253169D01*
X707996Y253190D01*
X707973Y253212D01*
X707928Y253268D01*
X697768Y263428D01*
X697694Y263481D01*
X697625Y263541D01*
X697595Y263553D01*
X697569Y263572D01*
X697482Y263599D01*
X697397Y263633D01*
X697356Y263637D01*
X697333Y263644D01*
X697301Y263643D01*
X697230Y263651D01*
X671830Y263651D01*
X671740Y263637D01*
X671649Y263629D01*
X671619Y263617D01*
X671587Y263612D01*
X671507Y263569D01*
X671423Y263533D01*
X671391Y263507D01*
X671370Y263496D01*
X671348Y263473D01*
X671292Y263428D01*
X670022Y262158D01*
X669977Y262096D01*
X669949Y262066D01*
X669944Y262055D01*
X669909Y262015D01*
X669897Y261985D01*
X669878Y261959D01*
X669851Y261872D01*
X669817Y261787D01*
X669813Y261746D01*
X669806Y261723D01*
X669807Y261691D01*
X669799Y261620D01*
X669799Y188435D01*
X669814Y188345D01*
X669821Y188254D01*
X669833Y188224D01*
X669839Y188192D01*
X669881Y188112D01*
X669917Y188028D01*
X669943Y187996D01*
X669954Y187975D01*
X669977Y187953D01*
X670022Y187897D01*
X682181Y175738D01*
X682255Y175685D01*
X682324Y175625D01*
X682354Y175613D01*
X682380Y175594D01*
X682467Y175567D01*
X682552Y175533D01*
X682593Y175529D01*
X682616Y175522D01*
X682648Y175523D01*
X682719Y175515D01*
X688754Y175515D01*
X689583Y174686D01*
X689657Y174633D01*
X689726Y174573D01*
X689756Y174561D01*
X689782Y174542D01*
X689869Y174515D01*
X689954Y174481D01*
X689995Y174477D01*
X690018Y174470D01*
X690050Y174471D01*
X690121Y174463D01*
X692237Y174463D01*
X694745Y173424D01*
X696664Y171505D01*
X697703Y168997D01*
X697703Y167162D01*
X697710Y167117D01*
X697708Y167071D01*
X697730Y166996D01*
X697742Y166919D01*
X697764Y166879D01*
X697777Y166834D01*
X697821Y166770D01*
X697858Y166702D01*
X697891Y166670D01*
X697917Y166632D01*
X697979Y166586D01*
X698036Y166532D01*
X698078Y166513D01*
X698114Y166486D01*
X698188Y166461D01*
X698259Y166429D01*
X698305Y166424D01*
X698348Y166409D01*
X698426Y166410D01*
X698503Y166402D01*
X698548Y166411D01*
X698594Y166412D01*
X698726Y166450D01*
X698744Y166454D01*
X698748Y166456D01*
X698755Y166458D01*
X699683Y166843D01*
X702397Y166843D01*
X704905Y165804D01*
X706824Y163885D01*
X707863Y161377D01*
X707863Y158663D01*
X706862Y156247D01*
X706852Y156203D01*
X706832Y156161D01*
X706824Y156084D01*
X706806Y156008D01*
X706810Y155962D01*
X706805Y155917D01*
X706822Y155840D01*
X706829Y155763D01*
X706848Y155721D01*
X706857Y155676D01*
X706897Y155609D01*
X706929Y155538D01*
X706960Y155504D01*
X706984Y155465D01*
X707043Y155414D01*
X707095Y155357D01*
X707136Y155335D01*
X707171Y155305D01*
X707243Y155276D01*
X707311Y155239D01*
X707356Y155230D01*
X707399Y155213D01*
X707535Y155198D01*
X707553Y155195D01*
X707558Y155196D01*
X707565Y155195D01*
X719271Y155195D01*
X719361Y155209D01*
X719452Y155217D01*
X719481Y155229D01*
X719513Y155234D01*
X719594Y155277D01*
X719678Y155313D01*
X719710Y155339D01*
X719731Y155350D01*
X719753Y155373D01*
X719809Y155418D01*
X721305Y156914D01*
X723813Y157953D01*
X726527Y157953D01*
X729035Y156914D01*
X730954Y154995D01*
X731993Y152487D01*
X731993Y149773D01*
X730954Y147265D01*
X730023Y146334D01*
X729981Y146276D01*
X729932Y146224D01*
X729910Y146177D01*
X729880Y146135D01*
X729858Y146066D01*
X729828Y146001D01*
X729822Y145949D01*
X729807Y145899D01*
X729809Y145828D01*
X729801Y145757D01*
X729812Y145706D01*
X729814Y145654D01*
X729838Y145586D01*
X729853Y145516D01*
X729880Y145471D01*
X729898Y145423D01*
X729943Y145367D01*
X729980Y145305D01*
X730019Y145271D01*
X730052Y145231D01*
X730112Y145192D01*
X730166Y145145D01*
X730215Y145126D01*
X730259Y145098D01*
X730328Y145080D01*
X730395Y145053D01*
X730466Y145045D01*
X730497Y145037D01*
X730520Y145039D01*
X730561Y145035D01*
X735871Y145035D01*
X735961Y145049D01*
X736052Y145057D01*
X736082Y145069D01*
X736114Y145074D01*
X736194Y145117D01*
X736278Y145153D01*
X736310Y145179D01*
X736331Y145190D01*
X736353Y145213D01*
X736409Y145258D01*
X739932Y148781D01*
X739985Y148855D01*
X740045Y148924D01*
X740057Y148954D01*
X740076Y148980D01*
X740103Y149067D01*
X740137Y149152D01*
X740141Y149193D01*
X740148Y149216D01*
X740147Y149248D01*
X740155Y149319D01*
X740155Y155391D01*
X740141Y155481D01*
X740133Y155572D01*
X740121Y155601D01*
X740116Y155633D01*
X740073Y155714D01*
X740037Y155798D01*
X740011Y155830D01*
X740000Y155851D01*
X739977Y155873D01*
X739932Y155929D01*
X738436Y157425D01*
X737397Y159933D01*
X737397Y162647D01*
X738436Y165155D01*
X740355Y167074D01*
X742863Y168113D01*
X745577Y168113D01*
X748085Y167074D01*
X750004Y165155D01*
X751043Y162647D01*
X751043Y159933D01*
X750004Y157425D01*
X748508Y155929D01*
X748455Y155855D01*
X748395Y155785D01*
X748383Y155755D01*
X748364Y155729D01*
X748337Y155642D01*
X748303Y155557D01*
X748299Y155516D01*
X748292Y155494D01*
X748293Y155462D01*
X748285Y155391D01*
X748285Y145636D01*
X739554Y136905D01*
X673956Y136905D01*
X672591Y138270D01*
X672591Y139392D01*
X672577Y139482D01*
X672569Y139573D01*
X672557Y139603D01*
X672552Y139635D01*
X672509Y139715D01*
X672473Y139799D01*
X672447Y139831D01*
X672436Y139852D01*
X672413Y139874D01*
X672368Y139930D01*
X601471Y210827D01*
X601471Y259951D01*
X601457Y260042D01*
X601449Y260132D01*
X601437Y260162D01*
X601432Y260194D01*
X601389Y260275D01*
X601353Y260359D01*
X601327Y260391D01*
X601316Y260412D01*
X601293Y260434D01*
X601248Y260490D01*
X599597Y262141D01*
X598713Y264275D01*
X598713Y266585D01*
X599597Y268719D01*
X599827Y268949D01*
X599853Y268986D01*
X599887Y269017D01*
X599925Y269085D01*
X599970Y269148D01*
X599984Y269192D01*
X600006Y269232D01*
X600020Y269309D01*
X600042Y269383D01*
X600041Y269429D01*
X600049Y269474D01*
X600038Y269552D01*
X600036Y269629D01*
X600020Y269672D01*
X600014Y269718D01*
X599978Y269787D01*
X599952Y269860D01*
X599923Y269896D01*
X599902Y269937D01*
X599847Y269991D01*
X599798Y270052D01*
X599759Y270077D01*
X599727Y270109D01*
X599607Y270175D01*
X599591Y270185D01*
X599586Y270187D01*
X599580Y270190D01*
X598626Y270585D01*
X597466Y271360D01*
X597438Y271388D01*
X597422Y271400D01*
X597410Y271415D01*
X597322Y271471D01*
X597239Y271532D01*
X597219Y271537D01*
X597203Y271548D01*
X597102Y271574D01*
X597003Y271604D01*
X596984Y271603D01*
X596964Y271608D01*
X596861Y271600D01*
X596758Y271598D01*
X596739Y271591D01*
X596719Y271589D01*
X596624Y271549D01*
X596527Y271513D01*
X596511Y271501D01*
X596493Y271493D01*
X596362Y271388D01*
X596334Y271360D01*
X595174Y270585D01*
X593885Y270051D01*
X592819Y269839D01*
X592819Y275861D01*
X601742Y275861D01*
X601761Y275864D01*
X601781Y275862D01*
X601883Y275884D01*
X601985Y275900D01*
X601986Y275901D01*
X602013Y275889D01*
X602033Y275887D01*
X602051Y275879D01*
X602218Y275861D01*
X609001Y275861D01*
X608789Y274795D01*
X608255Y273506D01*
X607480Y272346D01*
X606972Y271839D01*
X606945Y271801D01*
X606912Y271770D01*
X606874Y271702D01*
X606829Y271639D01*
X606815Y271595D01*
X606793Y271555D01*
X606779Y271478D01*
X606756Y271404D01*
X606758Y271358D01*
X606749Y271313D01*
X606761Y271236D01*
X606763Y271158D01*
X606779Y271115D01*
X606785Y271069D01*
X606821Y271000D01*
X606847Y270927D01*
X606876Y270891D01*
X606897Y270850D01*
X606952Y270796D01*
X607001Y270735D01*
X607039Y270710D01*
X607072Y270678D01*
X607193Y270612D01*
X607208Y270602D01*
X607213Y270601D01*
X607219Y270597D01*
X607809Y270353D01*
X609443Y268719D01*
X610327Y266585D01*
X610327Y264275D01*
X609443Y262141D01*
X607792Y260490D01*
X607739Y260416D01*
X607679Y260346D01*
X607667Y260316D01*
X607648Y260290D01*
X607621Y260203D01*
X607587Y260118D01*
X607583Y260077D01*
X607576Y260055D01*
X607577Y260023D01*
X607569Y259951D01*
X607569Y213668D01*
X607583Y213578D01*
X607591Y213487D01*
X607603Y213457D01*
X607608Y213425D01*
X607651Y213345D01*
X607687Y213261D01*
X607713Y213229D01*
X607724Y213208D01*
X607747Y213186D01*
X607792Y213130D01*
X671292Y149630D01*
X671350Y149588D01*
X671402Y149539D01*
X671449Y149517D01*
X671491Y149486D01*
X671560Y149465D01*
X671625Y149435D01*
X671677Y149429D01*
X671727Y149414D01*
X671798Y149416D01*
X671869Y149408D01*
X671920Y149419D01*
X671972Y149420D01*
X672040Y149445D01*
X672110Y149460D01*
X672154Y149487D01*
X672203Y149505D01*
X672259Y149550D01*
X672321Y149586D01*
X672355Y149626D01*
X672395Y149658D01*
X672434Y149719D01*
X672481Y149773D01*
X672500Y149822D01*
X672528Y149865D01*
X672546Y149935D01*
X672573Y150001D01*
X672581Y150073D01*
X672589Y150104D01*
X672587Y150127D01*
X672591Y150168D01*
X672591Y152092D01*
X672577Y152182D01*
X672569Y152273D01*
X672557Y152303D01*
X672552Y152335D01*
X672509Y152415D01*
X672473Y152499D01*
X672447Y152531D01*
X672436Y152552D01*
X672413Y152574D01*
X672368Y152630D01*
X645921Y179077D01*
X645921Y276957D01*
X645907Y277048D01*
X645899Y277138D01*
X645887Y277168D01*
X645882Y277200D01*
X645839Y277281D01*
X645803Y277365D01*
X645777Y277397D01*
X645766Y277418D01*
X645743Y277440D01*
X645698Y277496D01*
X644047Y279147D01*
X643163Y281281D01*
X643163Y283591D01*
X644047Y285725D01*
X645681Y287359D01*
X647815Y288243D01*
X650125Y288243D01*
X652259Y287359D01*
X653609Y286009D01*
X653646Y285982D01*
X653677Y285948D01*
X653745Y285911D01*
X653809Y285866D01*
X653853Y285852D01*
X653893Y285830D01*
X653969Y285816D01*
X654044Y285793D01*
X654090Y285794D01*
X654135Y285786D01*
X654212Y285797D01*
X654290Y285800D01*
X654333Y285815D01*
X654378Y285822D01*
X654448Y285857D01*
X654521Y285884D01*
X654556Y285913D01*
X654597Y285933D01*
X654652Y285989D01*
X654713Y286038D01*
X654738Y286076D01*
X654770Y286109D01*
X654836Y286229D01*
X654846Y286245D01*
X654847Y286249D01*
X654851Y286256D01*
X655477Y287769D01*
X657111Y289403D01*
X659245Y290287D01*
X661555Y290287D01*
X663689Y289403D01*
X665323Y287769D01*
X666182Y285696D01*
X666206Y285656D01*
X666222Y285613D01*
X666270Y285553D01*
X666311Y285487D01*
X666347Y285457D01*
X666375Y285421D01*
X666441Y285379D01*
X666501Y285330D01*
X666544Y285313D01*
X666582Y285288D01*
X666658Y285269D01*
X666730Y285242D01*
X666776Y285240D01*
X666821Y285228D01*
X666898Y285234D01*
X666976Y285231D01*
X667020Y285244D01*
X667066Y285247D01*
X667138Y285278D01*
X667212Y285300D01*
X667250Y285326D01*
X667292Y285344D01*
X667399Y285429D01*
X667414Y285440D01*
X667417Y285444D01*
X667423Y285449D01*
X669610Y287636D01*
X669663Y287710D01*
X669723Y287779D01*
X669735Y287809D01*
X669754Y287835D01*
X669781Y287923D01*
X669815Y288007D01*
X669819Y288048D01*
X669826Y288071D01*
X669825Y288103D01*
X669833Y288174D01*
X669833Y289445D01*
X670717Y291579D01*
X672368Y293230D01*
X672421Y293304D01*
X672481Y293374D01*
X672493Y293404D01*
X672512Y293430D01*
X672539Y293517D01*
X672573Y293602D01*
X672577Y293643D01*
X672584Y293665D01*
X672583Y293697D01*
X672591Y293769D01*
X672591Y313127D01*
X672581Y313192D01*
X672580Y313258D01*
X672557Y313338D01*
X672552Y313370D01*
X672542Y313387D01*
X672533Y313419D01*
X672373Y313805D01*
X672373Y316115D01*
X672533Y316501D01*
X672548Y316565D01*
X672573Y316626D01*
X672582Y316709D01*
X672589Y316741D01*
X672588Y316760D01*
X672591Y316793D01*
X672591Y319024D01*
X672588Y319044D01*
X672590Y319063D01*
X672568Y319165D01*
X672552Y319267D01*
X672542Y319284D01*
X672538Y319304D01*
X672485Y319393D01*
X672436Y319484D01*
X672422Y319498D01*
X672412Y319515D01*
X672333Y319582D01*
X672258Y319654D01*
X672240Y319662D01*
X672225Y319675D01*
X672129Y319714D01*
X672035Y319757D01*
X672015Y319759D01*
X671997Y319767D01*
X671830Y319785D01*
X662846Y319785D01*
X662781Y319775D01*
X662716Y319774D01*
X662636Y319751D01*
X662603Y319746D01*
X662586Y319736D01*
X662555Y319727D01*
X661555Y319313D01*
X659245Y319313D01*
X657111Y320197D01*
X655477Y321831D01*
X654593Y323965D01*
X654593Y326275D01*
X655477Y328409D01*
X657111Y330043D01*
X659245Y330927D01*
X661555Y330927D01*
X663689Y330043D01*
X665323Y328409D01*
X666207Y326275D01*
X666207Y326136D01*
X666210Y326116D01*
X666208Y326097D01*
X666230Y325995D01*
X666246Y325893D01*
X666256Y325876D01*
X666260Y325856D01*
X666313Y325767D01*
X666362Y325676D01*
X666376Y325662D01*
X666386Y325645D01*
X666465Y325578D01*
X666540Y325506D01*
X666558Y325498D01*
X666573Y325485D01*
X666669Y325446D01*
X666763Y325403D01*
X666783Y325401D01*
X666801Y325393D01*
X666968Y325375D01*
X671830Y325375D01*
X671850Y325378D01*
X671869Y325376D01*
X671971Y325398D01*
X672073Y325414D01*
X672090Y325424D01*
X672110Y325428D01*
X672199Y325481D01*
X672290Y325530D01*
X672304Y325544D01*
X672321Y325554D01*
X672388Y325633D01*
X672460Y325708D01*
X672468Y325726D01*
X672481Y325741D01*
X672520Y325837D01*
X672563Y325931D01*
X672565Y325951D01*
X672573Y325969D01*
X672591Y326136D01*
X672591Y335789D01*
X704850Y335789D01*
X704940Y335804D01*
X705031Y335811D01*
X705061Y335823D01*
X705093Y335829D01*
X705173Y335871D01*
X705257Y335907D01*
X705289Y335933D01*
X705310Y335944D01*
X705332Y335967D01*
X705388Y336012D01*
X711738Y342362D01*
X711791Y342436D01*
X711851Y342505D01*
X711863Y342535D01*
X711882Y342561D01*
X711909Y342648D01*
X711943Y342733D01*
X711947Y342774D01*
X711954Y342797D01*
X711953Y342829D01*
X711961Y342900D01*
X711961Y391160D01*
X711947Y391250D01*
X711939Y391341D01*
X711927Y391371D01*
X711922Y391403D01*
X711879Y391483D01*
X711843Y391567D01*
X711817Y391599D01*
X711806Y391620D01*
X711783Y391642D01*
X711738Y391698D01*
X685291Y418145D01*
X685291Y428945D01*
X686115Y429769D01*
X751525Y429769D01*
X756128Y425166D01*
X756186Y425124D01*
X756238Y425074D01*
X756285Y425053D01*
X756327Y425022D01*
X756396Y425001D01*
X756461Y424971D01*
X756513Y424965D01*
X756563Y424950D01*
X756634Y424952D01*
X756705Y424944D01*
X756756Y424955D01*
X756808Y424956D01*
X756876Y424981D01*
X756946Y424996D01*
X756991Y425023D01*
X757039Y425041D01*
X757095Y425085D01*
X757157Y425122D01*
X757191Y425162D01*
X757231Y425194D01*
X757270Y425255D01*
X757317Y425309D01*
X757336Y425357D01*
X757364Y425401D01*
X757382Y425471D01*
X757409Y425537D01*
X757417Y425609D01*
X757425Y425640D01*
X757423Y425663D01*
X757427Y425704D01*
X757427Y446627D01*
X757413Y446717D01*
X757405Y446808D01*
X757393Y446837D01*
X757388Y446869D01*
X757345Y446950D01*
X757309Y447034D01*
X757283Y447066D01*
X757272Y447087D01*
X757249Y447109D01*
X757223Y447141D01*
X757222Y447143D01*
X757221Y447145D01*
X757204Y447165D01*
X750695Y453674D01*
X750621Y453727D01*
X750552Y453787D01*
X750521Y453799D01*
X750495Y453818D01*
X750408Y453845D01*
X750323Y453879D01*
X750282Y453883D01*
X750260Y453890D01*
X750228Y453889D01*
X750157Y453897D01*
X672649Y453897D01*
X672579Y453886D01*
X672507Y453884D01*
X672458Y453866D01*
X672407Y453858D01*
X672343Y453824D01*
X672276Y453799D01*
X672235Y453767D01*
X672189Y453742D01*
X672140Y453690D01*
X672084Y453646D01*
X672056Y453602D01*
X672020Y453564D01*
X671990Y453499D01*
X671951Y453439D01*
X671938Y453388D01*
X671916Y453341D01*
X671908Y453270D01*
X671891Y453200D01*
X671895Y453148D01*
X671889Y453097D01*
X671904Y453026D01*
X671910Y452955D01*
X671930Y452907D01*
X671941Y452856D01*
X671978Y452795D01*
X672006Y452729D01*
X672051Y452673D01*
X672068Y452645D01*
X672085Y452630D01*
X672111Y452598D01*
X672534Y452175D01*
X673573Y449667D01*
X673573Y446953D01*
X672534Y444445D01*
X672512Y444423D01*
X672493Y444475D01*
X672461Y444516D01*
X672436Y444562D01*
X672385Y444611D01*
X672340Y444667D01*
X672296Y444695D01*
X672258Y444731D01*
X672193Y444761D01*
X672133Y444800D01*
X672082Y444813D01*
X672035Y444835D01*
X671964Y444842D01*
X671894Y444860D01*
X671842Y444856D01*
X671791Y444862D01*
X671720Y444846D01*
X671649Y444841D01*
X671601Y444821D01*
X671550Y444809D01*
X671489Y444773D01*
X671423Y444745D01*
X671367Y444700D01*
X671355Y444693D01*
X671354Y444692D01*
X671339Y444683D01*
X671324Y444665D01*
X671292Y444640D01*
X670022Y443370D01*
X669969Y443296D01*
X669909Y443226D01*
X669897Y443196D01*
X669878Y443170D01*
X669851Y443083D01*
X669817Y442998D01*
X669813Y442957D01*
X669806Y442935D01*
X669807Y442903D01*
X669799Y442831D01*
X669799Y357433D01*
X669809Y357368D01*
X669810Y357303D01*
X669833Y357222D01*
X669838Y357190D01*
X669848Y357173D01*
X669857Y357141D01*
X670017Y356755D01*
X670017Y354445D01*
X669133Y352311D01*
X667499Y350677D01*
X665365Y349793D01*
X663055Y349793D01*
X660921Y350677D01*
X659287Y352311D01*
X658403Y354445D01*
X658403Y356755D01*
X659287Y358889D01*
X660921Y360523D01*
X663130Y361438D01*
X663183Y361446D01*
X663200Y361456D01*
X663220Y361460D01*
X663309Y361513D01*
X663400Y361562D01*
X663414Y361576D01*
X663431Y361586D01*
X663498Y361665D01*
X663570Y361740D01*
X663578Y361758D01*
X663591Y361773D01*
X663630Y361869D01*
X663673Y361963D01*
X663675Y361983D01*
X663683Y362001D01*
X663701Y362168D01*
X663701Y442831D01*
X663687Y442922D01*
X663679Y443012D01*
X663667Y443042D01*
X663662Y443074D01*
X663619Y443155D01*
X663583Y443239D01*
X663557Y443271D01*
X663546Y443292D01*
X663523Y443314D01*
X663478Y443370D01*
X661827Y445021D01*
X660943Y447155D01*
X660943Y449465D01*
X661827Y451599D01*
X662826Y452598D01*
X662868Y452656D01*
X662917Y452708D01*
X662939Y452755D01*
X662969Y452797D01*
X662990Y452866D01*
X663021Y452931D01*
X663026Y452983D01*
X663042Y453033D01*
X663040Y453104D01*
X663048Y453175D01*
X663037Y453226D01*
X663035Y453278D01*
X663011Y453346D01*
X662995Y453416D01*
X662969Y453461D01*
X662951Y453509D01*
X662906Y453565D01*
X662869Y453627D01*
X662830Y453661D01*
X662797Y453701D01*
X662737Y453740D01*
X662682Y453787D01*
X662634Y453806D01*
X662590Y453834D01*
X662521Y453852D01*
X662454Y453879D01*
X662383Y453887D01*
X662352Y453895D01*
X662328Y453893D01*
X662287Y453897D01*
X655973Y453897D01*
X655902Y453886D01*
X655830Y453884D01*
X655781Y453866D01*
X655730Y453858D01*
X655666Y453824D01*
X655599Y453799D01*
X655558Y453767D01*
X655512Y453742D01*
X655463Y453690D01*
X655407Y453646D01*
X655379Y453602D01*
X655343Y453564D01*
X655313Y453499D01*
X655274Y453439D01*
X655261Y453388D01*
X655239Y453341D01*
X655231Y453270D01*
X655214Y453200D01*
X655218Y453148D01*
X655212Y453097D01*
X655228Y453026D01*
X655233Y452955D01*
X655253Y452907D01*
X655265Y452856D01*
X655301Y452795D01*
X655329Y452729D01*
X655374Y452673D01*
X655391Y452645D01*
X655409Y452630D01*
X655434Y452598D01*
X656433Y451599D01*
X657317Y449465D01*
X657317Y447155D01*
X656433Y445021D01*
X654799Y443387D01*
X652590Y442472D01*
X652537Y442464D01*
X652520Y442454D01*
X652500Y442450D01*
X652411Y442397D01*
X652320Y442348D01*
X652306Y442334D01*
X652289Y442324D01*
X652222Y442245D01*
X652150Y442170D01*
X652142Y442152D01*
X652129Y442137D01*
X652090Y442041D01*
X652047Y441947D01*
X652045Y441927D01*
X652037Y441909D01*
X652019Y441742D01*
X652019Y357269D01*
X652033Y357178D01*
X652041Y357088D01*
X652053Y357058D01*
X652058Y357026D01*
X652101Y356945D01*
X652137Y356861D01*
X652163Y356829D01*
X652174Y356808D01*
X652197Y356786D01*
X652242Y356730D01*
X653893Y355079D01*
X654777Y352945D01*
X654777Y350635D01*
X653893Y348501D01*
X652259Y346867D01*
X650125Y345983D01*
X647815Y345983D01*
X645681Y346867D01*
X644047Y348501D01*
X643163Y350635D01*
X643163Y352945D01*
X644047Y355079D01*
X645698Y356730D01*
X645751Y356804D01*
X645811Y356874D01*
X645823Y356904D01*
X645842Y356930D01*
X645869Y357017D01*
X645903Y357102D01*
X645907Y357143D01*
X645914Y357165D01*
X645913Y357197D01*
X645921Y357269D01*
X645921Y446477D01*
X645911Y446542D01*
X645910Y446607D01*
X645887Y446688D01*
X645882Y446720D01*
X645872Y446737D01*
X645863Y446769D01*
X645703Y447155D01*
X645703Y449465D01*
X646587Y451599D01*
X647586Y452598D01*
X647628Y452656D01*
X647677Y452708D01*
X647699Y452755D01*
X647729Y452797D01*
X647750Y452866D01*
X647781Y452931D01*
X647786Y452983D01*
X647802Y453033D01*
X647800Y453104D01*
X647808Y453175D01*
X647797Y453226D01*
X647795Y453278D01*
X647771Y453346D01*
X647755Y453416D01*
X647729Y453461D01*
X647711Y453509D01*
X647666Y453565D01*
X647629Y453627D01*
X647590Y453661D01*
X647557Y453701D01*
X647497Y453740D01*
X647442Y453787D01*
X647394Y453806D01*
X647350Y453834D01*
X647281Y453852D01*
X647214Y453879D01*
X647143Y453887D01*
X647112Y453895D01*
X647088Y453893D01*
X647047Y453897D01*
X636172Y453897D01*
X601217Y488852D01*
X601217Y525526D01*
X601214Y525546D01*
X601216Y525565D01*
X601194Y525667D01*
X601178Y525769D01*
X601168Y525786D01*
X601164Y525806D01*
X601111Y525895D01*
X601062Y525986D01*
X601048Y526000D01*
X601038Y526017D01*
X600959Y526084D01*
X600884Y526156D01*
X600866Y526164D01*
X600851Y526177D01*
X600755Y526216D01*
X600661Y526259D01*
X600641Y526261D01*
X600623Y526269D01*
X600456Y526287D01*
X552196Y526287D01*
X552176Y526284D01*
X552157Y526286D01*
X552055Y526264D01*
X551953Y526248D01*
X551936Y526238D01*
X551916Y526234D01*
X551827Y526181D01*
X551736Y526132D01*
X551722Y526118D01*
X551705Y526108D01*
X551638Y526029D01*
X551566Y525954D01*
X551558Y525936D01*
X551545Y525921D01*
X551506Y525825D01*
X551463Y525731D01*
X551461Y525711D01*
X551453Y525693D01*
X551435Y525526D01*
X551435Y462236D01*
X550429Y459809D01*
X491968Y401347D01*
X491915Y401273D01*
X491855Y401204D01*
X491843Y401174D01*
X491824Y401147D01*
X491797Y401060D01*
X491763Y400976D01*
X491759Y400935D01*
X491752Y400912D01*
X491753Y400880D01*
X491745Y400809D01*
X491745Y356826D01*
X490739Y354399D01*
X488881Y352541D01*
X486454Y351535D01*
X483826Y351535D01*
X481399Y352541D01*
X479541Y354399D01*
X478535Y356826D01*
X478535Y405174D01*
X479541Y407601D01*
X538002Y466063D01*
X538055Y466137D01*
X538115Y466206D01*
X538127Y466236D01*
X538146Y466263D01*
X538173Y466350D01*
X538207Y466434D01*
X538211Y466475D01*
X538218Y466498D01*
X538217Y466530D01*
X538225Y466601D01*
X538225Y525526D01*
X538222Y525546D01*
X538224Y525565D01*
X538202Y525667D01*
X538186Y525769D01*
X538176Y525786D01*
X538172Y525806D01*
X538119Y525895D01*
X538070Y525986D01*
X538056Y526000D01*
X538046Y526017D01*
X537967Y526084D01*
X537892Y526156D01*
X537874Y526164D01*
X537859Y526177D01*
X537763Y526216D01*
X537669Y526259D01*
X537649Y526261D01*
X537631Y526269D01*
X537464Y526287D01*
X516792Y526287D01*
X502157Y540922D01*
X502157Y599538D01*
X504315Y601696D01*
X527334Y624715D01*
X529492Y626873D01*
X664308Y626873D01*
X666625Y624556D01*
X666699Y624503D01*
X666768Y624443D01*
X666799Y624431D01*
X666825Y624412D01*
X666912Y624385D01*
X666997Y624351D01*
X667038Y624347D01*
X667060Y624340D01*
X667092Y624341D01*
X667163Y624333D01*
X900528Y624333D01*
X902686Y622175D01*
X915545Y609316D01*
X917703Y607158D01*
X917703Y342802D01*
X900528Y325627D01*
X859692Y325627D01*
X845057Y340262D01*
X845057Y382721D01*
X845055Y382735D01*
X845056Y382747D01*
X845046Y382796D01*
X845044Y382863D01*
X845026Y382912D01*
X845018Y382963D01*
X844984Y383027D01*
X844959Y383094D01*
X844927Y383135D01*
X844902Y383181D01*
X844850Y383230D01*
X844806Y383286D01*
X844762Y383314D01*
X844724Y383350D01*
X844659Y383380D01*
X844599Y383419D01*
X844548Y383432D01*
X844501Y383454D01*
X844430Y383462D01*
X844360Y383479D01*
X844308Y383475D01*
X844257Y383481D01*
X844186Y383466D01*
X844115Y383460D01*
X844067Y383440D01*
X844016Y383429D01*
X843955Y383392D01*
X843889Y383364D01*
X843834Y383320D01*
X843823Y383314D01*
X843821Y383312D01*
X843805Y383302D01*
X843790Y383285D01*
X843758Y383259D01*
X843335Y382836D01*
X840827Y381797D01*
X838113Y381797D01*
X836205Y382587D01*
X836161Y382598D01*
X836119Y382617D01*
X836042Y382626D01*
X835966Y382644D01*
X835920Y382639D01*
X835875Y382644D01*
X835798Y382628D01*
X835721Y382620D01*
X835679Y382602D01*
X835634Y382592D01*
X835567Y382552D01*
X835496Y382520D01*
X835462Y382489D01*
X835423Y382466D01*
X835372Y382407D01*
X835315Y382354D01*
X835293Y382314D01*
X835263Y382279D01*
X835234Y382207D01*
X835197Y382139D01*
X835188Y382093D01*
X835171Y382051D01*
X835156Y381915D01*
X835153Y381897D01*
X835154Y381892D01*
X835153Y381884D01*
X835153Y223484D01*
X835156Y223464D01*
X835154Y223445D01*
X835176Y223343D01*
X835192Y223241D01*
X835202Y223224D01*
X835206Y223204D01*
X835259Y223115D01*
X835308Y223024D01*
X835322Y223010D01*
X835332Y222993D01*
X835411Y222926D01*
X835486Y222854D01*
X835504Y222846D01*
X835519Y222833D01*
X835615Y222794D01*
X835709Y222751D01*
X835729Y222749D01*
X835747Y222741D01*
X835914Y222723D01*
X838287Y222723D01*
X838925Y222459D01*
X838969Y222448D01*
X839011Y222429D01*
X839088Y222420D01*
X839164Y222402D01*
X839210Y222407D01*
X839255Y222402D01*
X839332Y222418D01*
X839409Y222426D01*
X839451Y222444D01*
X839496Y222454D01*
X839563Y222494D01*
X839634Y222526D01*
X839668Y222557D01*
X839707Y222580D01*
X839758Y222639D01*
X839815Y222692D01*
X839837Y222732D01*
X839867Y222767D01*
X839896Y222839D01*
X839933Y222907D01*
X839942Y222953D01*
X839959Y222995D01*
X839974Y223131D01*
X839977Y223149D01*
X839976Y223154D01*
X839977Y223162D01*
X839977Y293468D01*
X849532Y303023D01*
X901798Y303023D01*
X915163Y289658D01*
X915163Y49432D01*
X878217Y12487D01*
X878175Y12428D01*
X878126Y12376D01*
X878104Y12329D01*
X878074Y12287D01*
X878053Y12218D01*
X878022Y12153D01*
X878017Y12101D01*
X878002Y12052D01*
X878003Y11980D01*
X877996Y11908D01*
X878007Y11858D01*
X878008Y11806D01*
X878033Y11738D01*
X878048Y11668D01*
X878075Y11623D01*
X878092Y11575D01*
X878137Y11519D01*
X878174Y11457D01*
X878214Y11423D01*
X878246Y11383D01*
X878307Y11344D01*
X878362Y11297D01*
X878409Y11278D01*
X878453Y11250D01*
X878523Y11232D01*
X878590Y11205D01*
X878660Y11198D01*
X878691Y11190D01*
X878715Y11192D01*
X878757Y11187D01*
X1076420Y11418D01*
X1076439Y11421D01*
X1076457Y11419D01*
X1076560Y11441D01*
X1076663Y11458D01*
X1076679Y11467D01*
X1076698Y11471D01*
X1076788Y11524D01*
X1076880Y11573D01*
X1076893Y11587D01*
X1076909Y11596D01*
X1076977Y11676D01*
X1077049Y11752D01*
X1077057Y11769D01*
X1077069Y11783D01*
X1077108Y11880D01*
X1077153Y11975D01*
X1077155Y11994D01*
X1077162Y12011D01*
X1077181Y12178D01*
X1077768Y313689D01*
X1078408Y642354D01*
X1078405Y642375D01*
X1078407Y642396D01*
X1078385Y642496D01*
X1078369Y642597D01*
X1078359Y642615D01*
X1078354Y642636D01*
X1078302Y642724D01*
X1078254Y642814D01*
X1078239Y642829D01*
X1078228Y642847D01*
X1078150Y642913D01*
X1078076Y642984D01*
X1078057Y642993D01*
X1078041Y643007D01*
X1077946Y643045D01*
X1077853Y643088D01*
X1077832Y643090D01*
X1077813Y643098D01*
X1077646Y643117D01*
X664209Y642635D01*
X9672Y641872D01*
X9652Y641869D01*
X9632Y641871D01*
X9531Y641849D01*
X9430Y641832D01*
X9412Y641823D01*
X9392Y641818D01*
X9304Y641765D01*
X9212Y641717D01*
X9198Y641702D01*
X9181Y641692D01*
X9114Y641613D01*
X9043Y641538D01*
X9035Y641520D01*
X9022Y641504D01*
X8983Y641409D01*
X8940Y641315D01*
X8938Y641295D01*
X8930Y641276D01*
X8912Y641109D01*
X10139Y10933D01*
X10143Y10914D01*
X10141Y10894D01*
X10163Y10793D01*
X10180Y10691D01*
X10189Y10673D01*
X10193Y10654D01*
X10246Y10565D01*
X10295Y10473D01*
X10309Y10460D01*
X10319Y10443D01*
X10398Y10376D01*
X10474Y10304D01*
X10492Y10296D01*
X10507Y10283D01*
X10603Y10245D01*
X10697Y10201D01*
X10717Y10199D01*
X10735Y10192D01*
X10902Y10173D01*
X671831Y10945D01*
G37*
G36*
X875120Y13224D02*
X875120Y13224D01*
X875211Y13231D01*
X875241Y13243D01*
X875273Y13249D01*
X875353Y13291D01*
X875437Y13327D01*
X875469Y13353D01*
X875490Y13364D01*
X875512Y13387D01*
X875568Y13432D01*
X912398Y50262D01*
X912451Y50336D01*
X912511Y50405D01*
X912523Y50435D01*
X912542Y50461D01*
X912569Y50548D01*
X912603Y50633D01*
X912607Y50674D01*
X912614Y50697D01*
X912613Y50729D01*
X912621Y50800D01*
X912621Y288290D01*
X912607Y288380D01*
X912599Y288471D01*
X912587Y288501D01*
X912582Y288533D01*
X912539Y288613D01*
X912503Y288697D01*
X912477Y288729D01*
X912466Y288750D01*
X912443Y288772D01*
X912398Y288828D01*
X900968Y300258D01*
X900894Y300311D01*
X900825Y300371D01*
X900795Y300383D01*
X900769Y300402D01*
X900682Y300429D01*
X900597Y300463D01*
X900556Y300467D01*
X900533Y300474D01*
X900501Y300473D01*
X900430Y300481D01*
X850900Y300481D01*
X850810Y300467D01*
X850719Y300459D01*
X850689Y300447D01*
X850657Y300442D01*
X850577Y300399D01*
X850493Y300363D01*
X850461Y300337D01*
X850440Y300326D01*
X850418Y300303D01*
X850362Y300258D01*
X842742Y292638D01*
X842689Y292564D01*
X842629Y292495D01*
X842617Y292465D01*
X842598Y292439D01*
X842571Y292352D01*
X842537Y292267D01*
X842533Y292226D01*
X842526Y292203D01*
X842527Y292171D01*
X842519Y292100D01*
X842519Y220275D01*
X842534Y220185D01*
X842541Y220094D01*
X842553Y220065D01*
X842559Y220033D01*
X842577Y219999D01*
X842579Y219989D01*
X842602Y219949D01*
X842637Y219868D01*
X842663Y219836D01*
X842674Y219815D01*
X842694Y219796D01*
X842705Y219778D01*
X842711Y219773D01*
X843753Y217257D01*
X843753Y214543D01*
X842703Y212010D01*
X842689Y211989D01*
X842629Y211920D01*
X842617Y211889D01*
X842598Y211863D01*
X842571Y211776D01*
X842537Y211691D01*
X842533Y211650D01*
X842526Y211628D01*
X842527Y211596D01*
X842519Y211525D01*
X842519Y165665D01*
X842534Y165575D01*
X842541Y165484D01*
X842553Y165455D01*
X842559Y165423D01*
X842601Y165342D01*
X842637Y165258D01*
X842663Y165226D01*
X842674Y165205D01*
X842697Y165183D01*
X842708Y165169D01*
X843753Y162647D01*
X843753Y159933D01*
X842703Y157400D01*
X842689Y157379D01*
X842629Y157310D01*
X842617Y157279D01*
X842598Y157253D01*
X842571Y157166D01*
X842537Y157081D01*
X842533Y157040D01*
X842526Y157018D01*
X842527Y156986D01*
X842519Y156915D01*
X842519Y117155D01*
X832611Y107248D01*
X832611Y155645D01*
X832597Y155735D01*
X832589Y155826D01*
X832577Y155855D01*
X832572Y155887D01*
X832529Y155968D01*
X832493Y156052D01*
X832467Y156084D01*
X832456Y156105D01*
X832433Y156127D01*
X832388Y156183D01*
X831146Y157425D01*
X830107Y159933D01*
X830107Y162647D01*
X831146Y165155D01*
X832388Y166397D01*
X832441Y166471D01*
X832501Y166540D01*
X832513Y166571D01*
X832532Y166597D01*
X832559Y166684D01*
X832593Y166769D01*
X832597Y166810D01*
X832604Y166832D01*
X832603Y166864D01*
X832611Y166935D01*
X832611Y210255D01*
X832597Y210345D01*
X832589Y210436D01*
X832577Y210465D01*
X832572Y210497D01*
X832529Y210578D01*
X832493Y210662D01*
X832467Y210694D01*
X832456Y210715D01*
X832433Y210737D01*
X832388Y210793D01*
X831146Y212035D01*
X830107Y214543D01*
X830107Y217257D01*
X831146Y219765D01*
X832388Y221007D01*
X832441Y221081D01*
X832501Y221150D01*
X832513Y221181D01*
X832532Y221207D01*
X832559Y221294D01*
X832593Y221379D01*
X832597Y221420D01*
X832604Y221442D01*
X832603Y221474D01*
X832611Y221545D01*
X832611Y513080D01*
X832597Y513170D01*
X832589Y513261D01*
X832577Y513291D01*
X832572Y513323D01*
X832529Y513403D01*
X832493Y513487D01*
X832467Y513519D01*
X832456Y513540D01*
X832433Y513562D01*
X832388Y513618D01*
X823498Y522508D01*
X823424Y522561D01*
X823355Y522621D01*
X823325Y522633D01*
X823299Y522652D01*
X823212Y522679D01*
X823127Y522713D01*
X823086Y522717D01*
X823063Y522724D01*
X823031Y522723D01*
X822960Y522731D01*
X673415Y522731D01*
X664971Y531175D01*
X664971Y531369D01*
X835345Y531369D01*
X847599Y519115D01*
X847599Y341630D01*
X847614Y341540D01*
X847621Y341449D01*
X847633Y341419D01*
X847639Y341387D01*
X847681Y341307D01*
X847717Y341223D01*
X847743Y341191D01*
X847754Y341170D01*
X847777Y341148D01*
X847822Y341092D01*
X860522Y328392D01*
X860596Y328339D01*
X860665Y328279D01*
X860695Y328267D01*
X860721Y328248D01*
X860808Y328221D01*
X860893Y328187D01*
X860934Y328183D01*
X860957Y328176D01*
X860989Y328177D01*
X861060Y328169D01*
X899160Y328169D01*
X899250Y328184D01*
X899341Y328191D01*
X899371Y328203D01*
X899403Y328209D01*
X899483Y328251D01*
X899567Y328287D01*
X899599Y328313D01*
X899620Y328324D01*
X899642Y328347D01*
X899698Y328392D01*
X914938Y343632D01*
X914982Y343693D01*
X915015Y343727D01*
X915020Y343739D01*
X915051Y343775D01*
X915063Y343805D01*
X915082Y343831D01*
X915109Y343918D01*
X915143Y344003D01*
X915147Y344044D01*
X915154Y344067D01*
X915153Y344099D01*
X915161Y344170D01*
X915161Y591179D01*
X915151Y591244D01*
X915150Y591309D01*
X915127Y591389D01*
X915122Y591422D01*
X915112Y591439D01*
X915103Y591470D01*
X914427Y593102D01*
X914427Y595618D01*
X915103Y597250D01*
X915118Y597314D01*
X915143Y597374D01*
X915152Y597457D01*
X915159Y597489D01*
X915158Y597509D01*
X915161Y597541D01*
X915161Y605790D01*
X915147Y605880D01*
X915139Y605971D01*
X915127Y606001D01*
X915122Y606033D01*
X915079Y606113D01*
X915043Y606197D01*
X915017Y606229D01*
X915006Y606250D01*
X914983Y606272D01*
X914938Y606328D01*
X899698Y621568D01*
X899624Y621621D01*
X899555Y621681D01*
X899525Y621693D01*
X899499Y621712D01*
X899412Y621739D01*
X899327Y621773D01*
X899286Y621777D01*
X899263Y621784D01*
X899231Y621783D01*
X899160Y621791D01*
X664971Y621791D01*
X664971Y622300D01*
X664957Y622390D01*
X664949Y622481D01*
X664937Y622511D01*
X664932Y622543D01*
X664889Y622623D01*
X664853Y622707D01*
X664827Y622739D01*
X664816Y622760D01*
X664793Y622782D01*
X664748Y622838D01*
X663478Y624108D01*
X663404Y624161D01*
X663335Y624221D01*
X663305Y624233D01*
X663279Y624252D01*
X663192Y624279D01*
X663107Y624313D01*
X663066Y624317D01*
X663043Y624324D01*
X663011Y624323D01*
X662940Y624331D01*
X530860Y624331D01*
X530770Y624317D01*
X530679Y624309D01*
X530649Y624297D01*
X530617Y624292D01*
X530537Y624249D01*
X530453Y624213D01*
X530421Y624187D01*
X530400Y624176D01*
X530378Y624153D01*
X530322Y624108D01*
X504922Y598708D01*
X504869Y598634D01*
X504809Y598565D01*
X504797Y598535D01*
X504778Y598509D01*
X504751Y598422D01*
X504717Y598337D01*
X504713Y598296D01*
X504706Y598273D01*
X504707Y598241D01*
X504699Y598170D01*
X504699Y542290D01*
X504714Y542200D01*
X504721Y542109D01*
X504733Y542079D01*
X504739Y542047D01*
X504764Y541998D01*
X504765Y541998D01*
X504766Y541995D01*
X504781Y541967D01*
X504817Y541883D01*
X504843Y541851D01*
X504854Y541830D01*
X504877Y541808D01*
X504882Y541802D01*
X504891Y541787D01*
X504901Y541778D01*
X504922Y541752D01*
X517622Y529052D01*
X517696Y528999D01*
X517765Y528939D01*
X517795Y528927D01*
X517821Y528908D01*
X517908Y528881D01*
X517993Y528847D01*
X518034Y528843D01*
X518057Y528836D01*
X518089Y528837D01*
X518160Y528829D01*
X603759Y528829D01*
X603759Y490220D01*
X603774Y490130D01*
X603781Y490039D01*
X603793Y490009D01*
X603799Y489977D01*
X603841Y489897D01*
X603877Y489813D01*
X603903Y489781D01*
X603914Y489760D01*
X603937Y489738D01*
X603982Y489682D01*
X637002Y456662D01*
X637076Y456609D01*
X637145Y456549D01*
X637175Y456537D01*
X637201Y456518D01*
X637288Y456491D01*
X637373Y456457D01*
X637414Y456453D01*
X637437Y456446D01*
X637469Y456447D01*
X637540Y456439D01*
X751525Y456439D01*
X759969Y447995D01*
X759969Y289835D01*
X759984Y289745D01*
X759991Y289654D01*
X760003Y289625D01*
X760009Y289593D01*
X760051Y289512D01*
X760087Y289428D01*
X760113Y289396D01*
X760124Y289375D01*
X760147Y289353D01*
X760192Y289297D01*
X761144Y288345D01*
X762183Y285837D01*
X762183Y283123D01*
X761144Y280615D01*
X760192Y279663D01*
X760139Y279589D01*
X760079Y279520D01*
X760067Y279489D01*
X760048Y279463D01*
X760021Y279376D01*
X759987Y279291D01*
X759983Y279250D01*
X759976Y279228D01*
X759977Y279196D01*
X759969Y279125D01*
X759969Y112075D01*
X754065Y106171D01*
X685800Y106171D01*
X685710Y106157D01*
X685619Y106149D01*
X685589Y106137D01*
X685557Y106132D01*
X685477Y106089D01*
X685393Y106053D01*
X685361Y106027D01*
X685340Y106016D01*
X685318Y105993D01*
X685262Y105948D01*
X668752Y89438D01*
X668699Y89364D01*
X668639Y89295D01*
X668627Y89265D01*
X668608Y89239D01*
X668581Y89152D01*
X668547Y89067D01*
X668543Y89026D01*
X668536Y89003D01*
X668537Y88971D01*
X668529Y88900D01*
X668529Y27940D01*
X668544Y27850D01*
X668551Y27759D01*
X668563Y27729D01*
X668569Y27697D01*
X668611Y27617D01*
X668647Y27533D01*
X668673Y27501D01*
X668684Y27480D01*
X668707Y27458D01*
X668752Y27402D01*
X682722Y13432D01*
X682796Y13379D01*
X682865Y13319D01*
X682895Y13307D01*
X682921Y13288D01*
X683008Y13261D01*
X683093Y13227D01*
X683134Y13223D01*
X683157Y13216D01*
X683189Y13217D01*
X683260Y13209D01*
X875030Y13209D01*
X875120Y13224D01*
G37*
%LPC*%
G36*
X992276Y207644D02*
X992276Y207644D01*
X983641Y211221D01*
X977031Y217831D01*
X973454Y226466D01*
X973454Y235814D01*
X977031Y244449D01*
X983641Y251059D01*
X992415Y254693D01*
X992515Y254755D01*
X992615Y254815D01*
X992619Y254820D01*
X992624Y254823D01*
X992699Y254913D01*
X992775Y255002D01*
X992777Y255008D01*
X992781Y255012D01*
X992823Y255120D01*
X992867Y255230D01*
X992868Y255237D01*
X992869Y255242D01*
X992870Y255260D01*
X992885Y255397D01*
X992885Y301531D01*
X992871Y301621D01*
X992863Y301712D01*
X992851Y301742D01*
X992846Y301774D01*
X992803Y301854D01*
X992767Y301938D01*
X992741Y301970D01*
X992730Y301991D01*
X992707Y302013D01*
X992662Y302069D01*
X990627Y304104D01*
X990553Y304157D01*
X990484Y304217D01*
X990454Y304229D01*
X990428Y304248D01*
X990341Y304275D01*
X990256Y304309D01*
X990215Y304313D01*
X990193Y304320D01*
X990160Y304319D01*
X990089Y304327D01*
X987973Y304327D01*
X985465Y305366D01*
X983546Y307285D01*
X982507Y309793D01*
X982507Y312507D01*
X983546Y315015D01*
X985493Y316962D01*
X985505Y316978D01*
X985520Y316990D01*
X985576Y317078D01*
X985636Y317161D01*
X985642Y317180D01*
X985653Y317197D01*
X985678Y317298D01*
X985709Y317397D01*
X985708Y317416D01*
X985713Y317436D01*
X985705Y317539D01*
X985702Y317642D01*
X985696Y317661D01*
X985694Y317681D01*
X985654Y317776D01*
X985618Y317873D01*
X985605Y317889D01*
X985598Y317907D01*
X985493Y318038D01*
X983546Y319985D01*
X982507Y322493D01*
X982507Y325207D01*
X983546Y327715D01*
X985465Y329634D01*
X987973Y330673D01*
X990089Y330673D01*
X990179Y330687D01*
X990270Y330695D01*
X990300Y330707D01*
X990332Y330712D01*
X990412Y330755D01*
X990496Y330791D01*
X990528Y330817D01*
X990549Y330828D01*
X990571Y330851D01*
X990627Y330896D01*
X991392Y331661D01*
X991445Y331735D01*
X991505Y331804D01*
X991517Y331834D01*
X991536Y331860D01*
X991563Y331947D01*
X991597Y332032D01*
X991601Y332073D01*
X991608Y332096D01*
X991607Y332128D01*
X991615Y332199D01*
X991615Y366903D01*
X991596Y367018D01*
X991579Y367134D01*
X991577Y367140D01*
X991576Y367146D01*
X991521Y367249D01*
X991468Y367354D01*
X991463Y367358D01*
X991460Y367364D01*
X991376Y367443D01*
X991292Y367526D01*
X991286Y367529D01*
X991282Y367533D01*
X991265Y367541D01*
X991145Y367607D01*
X982371Y371241D01*
X975761Y377851D01*
X972184Y386486D01*
X972184Y395834D01*
X975761Y404469D01*
X982371Y411079D01*
X991006Y414656D01*
X1000354Y414656D01*
X1008989Y411079D01*
X1015599Y404469D01*
X1019176Y395834D01*
X1019176Y386486D01*
X1015599Y377851D01*
X1008989Y371241D01*
X1000215Y367607D01*
X1000115Y367545D01*
X1000015Y367485D01*
X1000011Y367480D01*
X1000006Y367477D01*
X999931Y367387D01*
X999855Y367298D01*
X999853Y367292D01*
X999849Y367288D01*
X999807Y367180D01*
X999763Y367070D01*
X999762Y367063D01*
X999761Y367058D01*
X999760Y367040D01*
X999745Y366903D01*
X999745Y328516D01*
X996376Y325147D01*
X996323Y325073D01*
X996263Y325004D01*
X996251Y324974D01*
X996232Y324948D01*
X996205Y324861D01*
X996171Y324776D01*
X996167Y324735D01*
X996160Y324712D01*
X996161Y324680D01*
X996153Y324609D01*
X996153Y322493D01*
X995114Y319985D01*
X993167Y318038D01*
X993155Y318022D01*
X993140Y318010D01*
X993084Y317922D01*
X993024Y317839D01*
X993018Y317820D01*
X993007Y317803D01*
X992982Y317702D01*
X992951Y317603D01*
X992952Y317584D01*
X992947Y317564D01*
X992955Y317461D01*
X992958Y317358D01*
X992964Y317339D01*
X992966Y317319D01*
X993006Y317224D01*
X993042Y317127D01*
X993054Y317111D01*
X993062Y317093D01*
X993167Y316962D01*
X995114Y315015D01*
X996153Y312507D01*
X996153Y310391D01*
X996167Y310301D01*
X996175Y310210D01*
X996187Y310180D01*
X996192Y310148D01*
X996235Y310068D01*
X996271Y309984D01*
X996297Y309952D01*
X996308Y309931D01*
X996331Y309909D01*
X996376Y309853D01*
X998411Y307818D01*
X1001015Y305214D01*
X1001015Y255397D01*
X1001034Y255282D01*
X1001051Y255166D01*
X1001053Y255160D01*
X1001054Y255154D01*
X1001109Y255051D01*
X1001162Y254946D01*
X1001167Y254942D01*
X1001170Y254936D01*
X1001254Y254857D01*
X1001338Y254774D01*
X1001344Y254771D01*
X1001348Y254767D01*
X1001365Y254759D01*
X1001485Y254693D01*
X1010259Y251059D01*
X1016869Y244449D01*
X1020446Y235814D01*
X1020446Y226466D01*
X1016869Y217831D01*
X1010259Y211221D01*
X1001624Y207644D01*
X992276Y207644D01*
G37*
%LPD*%
%LPC*%
G36*
X171565Y196123D02*
X171565Y196123D01*
X169431Y197007D01*
X167797Y198641D01*
X166913Y200775D01*
X166913Y203085D01*
X167797Y205219D01*
X169448Y206870D01*
X169501Y206944D01*
X169561Y207014D01*
X169573Y207044D01*
X169592Y207070D01*
X169619Y207157D01*
X169653Y207242D01*
X169657Y207283D01*
X169664Y207305D01*
X169663Y207337D01*
X169671Y207409D01*
X169671Y307122D01*
X169668Y307142D01*
X169670Y307161D01*
X169648Y307263D01*
X169632Y307365D01*
X169622Y307382D01*
X169618Y307402D01*
X169565Y307491D01*
X169516Y307582D01*
X169502Y307596D01*
X169492Y307613D01*
X169413Y307680D01*
X169338Y307752D01*
X169320Y307760D01*
X169305Y307773D01*
X169209Y307812D01*
X169115Y307855D01*
X169095Y307857D01*
X169077Y307865D01*
X168910Y307883D01*
X167755Y307883D01*
X165621Y308767D01*
X163987Y310401D01*
X163103Y312535D01*
X163103Y314845D01*
X163987Y316979D01*
X165621Y318613D01*
X167755Y319497D01*
X170065Y319497D01*
X172199Y318613D01*
X173833Y316979D01*
X174717Y314845D01*
X174717Y312510D01*
X174731Y312420D01*
X174739Y312329D01*
X174751Y312299D01*
X174756Y312267D01*
X174799Y312187D01*
X174835Y312103D01*
X174861Y312071D01*
X174872Y312050D01*
X174895Y312028D01*
X174940Y311972D01*
X175769Y311143D01*
X175769Y244403D01*
X175784Y244307D01*
X175794Y244210D01*
X175804Y244186D01*
X175808Y244160D01*
X175854Y244074D01*
X175894Y243985D01*
X175911Y243966D01*
X175924Y243942D01*
X175994Y243876D01*
X176060Y243804D01*
X176083Y243791D01*
X176102Y243773D01*
X176190Y243732D01*
X176276Y243685D01*
X176301Y243680D01*
X176325Y243669D01*
X176422Y243659D01*
X176518Y243641D01*
X176544Y243645D01*
X176569Y243642D01*
X176665Y243663D01*
X176761Y243677D01*
X176784Y243689D01*
X176810Y243695D01*
X176893Y243745D01*
X176980Y243789D01*
X176999Y243807D01*
X177021Y243821D01*
X177084Y243895D01*
X177152Y243964D01*
X177168Y243993D01*
X177181Y244008D01*
X177193Y244038D01*
X177233Y244111D01*
X177957Y245859D01*
X179608Y247510D01*
X179661Y247584D01*
X179721Y247654D01*
X179733Y247684D01*
X179752Y247710D01*
X179779Y247797D01*
X179813Y247882D01*
X179817Y247923D01*
X179824Y247945D01*
X179823Y247977D01*
X179831Y248049D01*
X179831Y315831D01*
X179817Y315922D01*
X179809Y316012D01*
X179797Y316042D01*
X179792Y316074D01*
X179749Y316155D01*
X179713Y316239D01*
X179687Y316271D01*
X179676Y316292D01*
X179653Y316314D01*
X179608Y316370D01*
X177957Y318021D01*
X177073Y320155D01*
X177073Y322465D01*
X177957Y324599D01*
X179591Y326233D01*
X181725Y327117D01*
X184035Y327117D01*
X185629Y326457D01*
X185699Y326440D01*
X185766Y326415D01*
X185818Y326412D01*
X185868Y326400D01*
X185940Y326407D01*
X186011Y326404D01*
X186061Y326419D01*
X186113Y326424D01*
X186179Y326453D01*
X186247Y326473D01*
X186290Y326502D01*
X186338Y326524D01*
X186391Y326572D01*
X186450Y326613D01*
X186481Y326655D01*
X186519Y326690D01*
X186554Y326753D01*
X186596Y326810D01*
X186612Y326860D01*
X186638Y326905D01*
X186650Y326976D01*
X186673Y327044D01*
X186672Y327096D01*
X186681Y327147D01*
X186671Y327218D01*
X186670Y327290D01*
X186650Y327359D01*
X186645Y327391D01*
X186635Y327412D01*
X186623Y327451D01*
X185963Y329045D01*
X185963Y331355D01*
X186847Y333489D01*
X188481Y335123D01*
X190615Y336007D01*
X192925Y336007D01*
X195059Y335123D01*
X196312Y333870D01*
X196370Y333828D01*
X196422Y333779D01*
X196469Y333757D01*
X196511Y333727D01*
X196580Y333706D01*
X196645Y333675D01*
X196697Y333670D01*
X196747Y333654D01*
X196818Y333656D01*
X196889Y333648D01*
X196940Y333659D01*
X196992Y333661D01*
X197060Y333685D01*
X197130Y333701D01*
X197175Y333727D01*
X197223Y333745D01*
X197279Y333790D01*
X197341Y333827D01*
X197375Y333866D01*
X197415Y333899D01*
X197454Y333959D01*
X197501Y334014D01*
X197520Y334062D01*
X197548Y334106D01*
X197566Y334175D01*
X197593Y334242D01*
X197601Y334313D01*
X197609Y334344D01*
X197607Y334368D01*
X197611Y334409D01*
X197611Y337602D01*
X197608Y337622D01*
X197610Y337641D01*
X197588Y337743D01*
X197572Y337845D01*
X197562Y337862D01*
X197558Y337882D01*
X197505Y337971D01*
X197456Y338062D01*
X197442Y338076D01*
X197432Y338093D01*
X197353Y338160D01*
X197278Y338232D01*
X197260Y338240D01*
X197245Y338253D01*
X197149Y338292D01*
X197055Y338335D01*
X197035Y338337D01*
X197017Y338345D01*
X197007Y338346D01*
X194831Y339247D01*
X193197Y340881D01*
X192313Y343015D01*
X192313Y345325D01*
X193197Y347459D01*
X194831Y349093D01*
X196965Y349977D01*
X199275Y349977D01*
X201409Y349093D01*
X203043Y347459D01*
X203927Y345325D01*
X203927Y343015D01*
X203767Y342629D01*
X203752Y342565D01*
X203727Y342504D01*
X203718Y342421D01*
X203711Y342389D01*
X203712Y342370D01*
X203709Y342337D01*
X203709Y219717D01*
X201610Y217618D01*
X201557Y217544D01*
X201497Y217475D01*
X201485Y217445D01*
X201466Y217418D01*
X201439Y217331D01*
X201405Y217247D01*
X201401Y217206D01*
X201394Y217183D01*
X201395Y217151D01*
X201387Y217080D01*
X201387Y214745D01*
X200503Y212611D01*
X198869Y210977D01*
X196735Y210093D01*
X194425Y210093D01*
X192291Y210977D01*
X190657Y212611D01*
X189773Y214745D01*
X189773Y217055D01*
X190657Y219189D01*
X192291Y220823D01*
X194425Y221707D01*
X196760Y221707D01*
X196850Y221721D01*
X196941Y221729D01*
X196971Y221741D01*
X197003Y221746D01*
X197083Y221789D01*
X197167Y221825D01*
X197199Y221851D01*
X197220Y221862D01*
X197242Y221885D01*
X197298Y221930D01*
X197388Y222020D01*
X197441Y222094D01*
X197443Y222096D01*
X197480Y222134D01*
X197484Y222143D01*
X197501Y222163D01*
X197513Y222193D01*
X197532Y222220D01*
X197557Y222300D01*
X197583Y222357D01*
X197585Y222371D01*
X197593Y222391D01*
X197597Y222432D01*
X197604Y222455D01*
X197603Y222487D01*
X197611Y222558D01*
X197611Y249791D01*
X197600Y249862D01*
X197598Y249934D01*
X197580Y249983D01*
X197572Y250034D01*
X197538Y250098D01*
X197513Y250165D01*
X197481Y250206D01*
X197456Y250252D01*
X197404Y250301D01*
X197360Y250357D01*
X197316Y250385D01*
X197278Y250421D01*
X197213Y250451D01*
X197153Y250490D01*
X197102Y250503D01*
X197055Y250525D01*
X196984Y250533D01*
X196914Y250550D01*
X196862Y250546D01*
X196811Y250552D01*
X196740Y250536D01*
X196669Y250531D01*
X196621Y250511D01*
X196570Y250499D01*
X196509Y250463D01*
X196443Y250435D01*
X196387Y250390D01*
X196359Y250373D01*
X196344Y250355D01*
X196312Y250330D01*
X195059Y249077D01*
X192925Y248193D01*
X190615Y248193D01*
X188481Y249077D01*
X187228Y250330D01*
X187170Y250372D01*
X187118Y250421D01*
X187071Y250443D01*
X187029Y250473D01*
X186960Y250494D01*
X186895Y250525D01*
X186843Y250530D01*
X186793Y250546D01*
X186722Y250544D01*
X186651Y250552D01*
X186600Y250541D01*
X186548Y250539D01*
X186480Y250515D01*
X186410Y250499D01*
X186365Y250473D01*
X186317Y250455D01*
X186261Y250410D01*
X186199Y250373D01*
X186165Y250334D01*
X186125Y250301D01*
X186086Y250241D01*
X186039Y250186D01*
X186020Y250138D01*
X185992Y250094D01*
X185974Y250025D01*
X185947Y249958D01*
X185939Y249887D01*
X185931Y249856D01*
X185933Y249832D01*
X185929Y249791D01*
X185929Y248049D01*
X185943Y247958D01*
X185951Y247868D01*
X185963Y247838D01*
X185968Y247806D01*
X186011Y247725D01*
X186047Y247641D01*
X186073Y247609D01*
X186084Y247588D01*
X186107Y247566D01*
X186152Y247510D01*
X187803Y245859D01*
X188687Y243725D01*
X188687Y241415D01*
X187803Y239281D01*
X186169Y237647D01*
X184035Y236763D01*
X181725Y236763D01*
X179591Y237647D01*
X177957Y239281D01*
X177233Y241029D01*
X177182Y241112D01*
X177136Y241198D01*
X177117Y241215D01*
X177104Y241238D01*
X177029Y241300D01*
X176958Y241367D01*
X176934Y241378D01*
X176914Y241395D01*
X176823Y241429D01*
X176735Y241471D01*
X176709Y241473D01*
X176685Y241483D01*
X176587Y241487D01*
X176491Y241498D01*
X176465Y241492D01*
X176439Y241493D01*
X176345Y241466D01*
X176250Y241445D01*
X176228Y241432D01*
X176203Y241425D01*
X176123Y241369D01*
X176039Y241319D01*
X176022Y241299D01*
X176001Y241284D01*
X175942Y241206D01*
X175879Y241132D01*
X175869Y241108D01*
X175854Y241087D01*
X175824Y240995D01*
X175787Y240904D01*
X175784Y240872D01*
X175778Y240853D01*
X175778Y240820D01*
X175769Y240737D01*
X175769Y207409D01*
X175783Y207318D01*
X175791Y207228D01*
X175803Y207198D01*
X175808Y207166D01*
X175851Y207085D01*
X175887Y207001D01*
X175913Y206969D01*
X175924Y206948D01*
X175947Y206926D01*
X175992Y206870D01*
X177643Y205219D01*
X178527Y203085D01*
X178527Y200775D01*
X177643Y198641D01*
X176009Y197007D01*
X173875Y196123D01*
X171565Y196123D01*
G37*
%LPD*%
%LPC*%
G36*
X283325Y158023D02*
X283325Y158023D01*
X281191Y158907D01*
X279557Y160541D01*
X278673Y162675D01*
X278673Y164985D01*
X278833Y165371D01*
X278848Y165435D01*
X278873Y165496D01*
X278882Y165579D01*
X278889Y165611D01*
X278888Y165630D01*
X278891Y165663D01*
X278891Y360372D01*
X278890Y360382D01*
X278890Y360388D01*
X278884Y360418D01*
X278877Y360462D01*
X278869Y360553D01*
X278857Y360583D01*
X278852Y360615D01*
X278809Y360695D01*
X278773Y360779D01*
X278747Y360811D01*
X278736Y360832D01*
X278713Y360854D01*
X278668Y360910D01*
X274768Y364810D01*
X274694Y364863D01*
X274625Y364923D01*
X274595Y364935D01*
X274568Y364954D01*
X274481Y364981D01*
X274397Y365015D01*
X274356Y365019D01*
X274333Y365026D01*
X274301Y365025D01*
X274230Y365033D01*
X271895Y365033D01*
X269761Y365917D01*
X268127Y367551D01*
X267243Y369685D01*
X267243Y371995D01*
X268127Y374129D01*
X269761Y375763D01*
X271895Y376647D01*
X274205Y376647D01*
X276339Y375763D01*
X277973Y374129D01*
X278857Y371995D01*
X278857Y369660D01*
X278871Y369570D01*
X278879Y369479D01*
X278891Y369449D01*
X278896Y369417D01*
X278939Y369337D01*
X278975Y369253D01*
X279001Y369221D01*
X279012Y369200D01*
X279035Y369178D01*
X279080Y369122D01*
X284989Y363213D01*
X284989Y361079D01*
X284990Y361071D01*
X284990Y361070D01*
X284991Y361064D01*
X285000Y361009D01*
X285002Y360938D01*
X285020Y360888D01*
X285028Y360836D01*
X285061Y360773D01*
X285086Y360707D01*
X285119Y360665D01*
X285144Y360618D01*
X285195Y360570D01*
X285239Y360514D01*
X285283Y360486D01*
X285322Y360449D01*
X285386Y360419D01*
X285445Y360381D01*
X285497Y360368D01*
X285545Y360345D01*
X285615Y360338D01*
X285684Y360320D01*
X285737Y360324D01*
X285789Y360318D01*
X285859Y360333D01*
X285929Y360339D01*
X285978Y360359D01*
X286030Y360371D01*
X286090Y360407D01*
X286156Y360434D01*
X286195Y360470D01*
X286241Y360497D01*
X286287Y360550D01*
X286340Y360597D01*
X286380Y360659D01*
X286401Y360684D01*
X286409Y360705D01*
X286431Y360738D01*
X286458Y360826D01*
X286493Y360912D01*
X286497Y360951D01*
X286504Y360973D01*
X286503Y361005D01*
X286511Y361079D01*
X286511Y415997D01*
X286501Y416062D01*
X286500Y416127D01*
X286477Y416208D01*
X286472Y416240D01*
X286462Y416257D01*
X286453Y416289D01*
X286293Y416675D01*
X286293Y418985D01*
X287177Y421119D01*
X288811Y422753D01*
X290945Y423637D01*
X293255Y423637D01*
X295405Y422746D01*
X295430Y422728D01*
X295482Y422679D01*
X295529Y422657D01*
X295571Y422627D01*
X295640Y422606D01*
X295705Y422575D01*
X295757Y422570D01*
X295806Y422554D01*
X295878Y422556D01*
X295949Y422548D01*
X296000Y422559D01*
X296052Y422561D01*
X296120Y422585D01*
X296190Y422601D01*
X296234Y422627D01*
X296283Y422645D01*
X296339Y422690D01*
X296401Y422727D01*
X296435Y422766D01*
X296475Y422799D01*
X296514Y422859D01*
X296561Y422914D01*
X296580Y422962D01*
X296608Y423006D01*
X296626Y423075D01*
X296653Y423142D01*
X296661Y423213D01*
X296669Y423244D01*
X296667Y423268D01*
X296671Y423309D01*
X296671Y437751D01*
X296657Y437842D01*
X296649Y437932D01*
X296637Y437962D01*
X296632Y437994D01*
X296589Y438075D01*
X296553Y438159D01*
X296527Y438191D01*
X296516Y438212D01*
X296493Y438234D01*
X296448Y438290D01*
X294797Y439941D01*
X293913Y442075D01*
X293913Y444385D01*
X294797Y446519D01*
X296431Y448153D01*
X298565Y449037D01*
X300875Y449037D01*
X303009Y448153D01*
X304643Y446519D01*
X305527Y444385D01*
X305527Y442075D01*
X304643Y439941D01*
X302992Y438290D01*
X302939Y438216D01*
X302879Y438146D01*
X302867Y438116D01*
X302848Y438090D01*
X302821Y438003D01*
X302787Y437918D01*
X302783Y437877D01*
X302776Y437855D01*
X302777Y437823D01*
X302769Y437751D01*
X302769Y399179D01*
X302776Y399133D01*
X302777Y399130D01*
X302783Y399088D01*
X302791Y398998D01*
X302803Y398968D01*
X302808Y398936D01*
X302826Y398902D01*
X302828Y398892D01*
X302853Y398852D01*
X302887Y398771D01*
X302913Y398739D01*
X302924Y398718D01*
X302944Y398699D01*
X302955Y398681D01*
X302968Y398670D01*
X302992Y398640D01*
X304643Y396989D01*
X305527Y394855D01*
X305527Y392545D01*
X304643Y390411D01*
X303009Y388777D01*
X300875Y387893D01*
X298565Y387893D01*
X296431Y388777D01*
X294797Y390411D01*
X294073Y392159D01*
X294022Y392242D01*
X293976Y392328D01*
X293957Y392345D01*
X293944Y392368D01*
X293869Y392430D01*
X293798Y392497D01*
X293774Y392508D01*
X293754Y392525D01*
X293663Y392559D01*
X293575Y392601D01*
X293549Y392603D01*
X293525Y392613D01*
X293427Y392617D01*
X293331Y392628D01*
X293305Y392622D01*
X293279Y392623D01*
X293185Y392596D01*
X293090Y392575D01*
X293068Y392562D01*
X293043Y392555D01*
X292963Y392499D01*
X292879Y392449D01*
X292862Y392429D01*
X292841Y392414D01*
X292782Y392336D01*
X292719Y392262D01*
X292709Y392238D01*
X292694Y392217D01*
X292664Y392125D01*
X292627Y392034D01*
X292624Y392002D01*
X292618Y391983D01*
X292618Y391950D01*
X292609Y391867D01*
X292609Y361079D01*
X292610Y361071D01*
X292610Y361070D01*
X292611Y361064D01*
X292623Y360988D01*
X292631Y360898D01*
X292643Y360868D01*
X292648Y360836D01*
X292691Y360755D01*
X292727Y360671D01*
X292753Y360639D01*
X292764Y360618D01*
X292787Y360596D01*
X292832Y360540D01*
X294483Y358889D01*
X295367Y356755D01*
X295367Y354445D01*
X294483Y352311D01*
X292849Y350677D01*
X290715Y349793D01*
X288405Y349793D01*
X286255Y350684D01*
X286230Y350702D01*
X286178Y350751D01*
X286131Y350773D01*
X286089Y350803D01*
X286020Y350824D01*
X285955Y350855D01*
X285903Y350860D01*
X285854Y350876D01*
X285782Y350874D01*
X285711Y350882D01*
X285660Y350871D01*
X285608Y350869D01*
X285540Y350845D01*
X285470Y350829D01*
X285426Y350803D01*
X285377Y350785D01*
X285321Y350740D01*
X285259Y350703D01*
X285225Y350664D01*
X285185Y350631D01*
X285146Y350571D01*
X285099Y350516D01*
X285080Y350468D01*
X285052Y350424D01*
X285034Y350355D01*
X285007Y350288D01*
X284999Y350217D01*
X284991Y350186D01*
X284993Y350162D01*
X284989Y350121D01*
X284989Y170398D01*
X284992Y170378D01*
X284990Y170359D01*
X285012Y170257D01*
X285028Y170155D01*
X285038Y170138D01*
X285042Y170118D01*
X285095Y170029D01*
X285144Y169938D01*
X285158Y169924D01*
X285168Y169907D01*
X285247Y169840D01*
X285322Y169768D01*
X285340Y169760D01*
X285355Y169747D01*
X285451Y169708D01*
X285545Y169665D01*
X285565Y169663D01*
X285583Y169655D01*
X285593Y169654D01*
X287769Y168753D01*
X289403Y167119D01*
X290287Y164985D01*
X290287Y162675D01*
X289403Y160541D01*
X287769Y158907D01*
X285635Y158023D01*
X283325Y158023D01*
G37*
%LPD*%
G36*
X715641Y319039D02*
X715641Y319039D01*
X715732Y319047D01*
X715762Y319059D01*
X715794Y319064D01*
X715874Y319107D01*
X715958Y319143D01*
X715990Y319169D01*
X716011Y319180D01*
X716033Y319203D01*
X716089Y319248D01*
X728566Y331725D01*
X747211Y331725D01*
X747301Y331739D01*
X747392Y331747D01*
X747421Y331759D01*
X747453Y331764D01*
X747534Y331807D01*
X747618Y331843D01*
X747650Y331869D01*
X747671Y331880D01*
X747693Y331903D01*
X747749Y331948D01*
X749245Y333444D01*
X751753Y334483D01*
X754467Y334483D01*
X756375Y333693D01*
X756419Y333682D01*
X756461Y333663D01*
X756538Y333654D01*
X756614Y333636D01*
X756660Y333641D01*
X756705Y333636D01*
X756782Y333652D01*
X756859Y333659D01*
X756901Y333678D01*
X756946Y333688D01*
X757013Y333728D01*
X757084Y333759D01*
X757118Y333791D01*
X757157Y333814D01*
X757208Y333873D01*
X757265Y333926D01*
X757287Y333966D01*
X757317Y334001D01*
X757346Y334073D01*
X757383Y334141D01*
X757392Y334187D01*
X757409Y334229D01*
X757424Y334365D01*
X757427Y334383D01*
X757426Y334388D01*
X757427Y334396D01*
X757427Y413766D01*
X757416Y413837D01*
X757414Y413908D01*
X757396Y413957D01*
X757388Y414009D01*
X757354Y414072D01*
X757329Y414139D01*
X757297Y414180D01*
X757272Y414226D01*
X757221Y414275D01*
X757176Y414331D01*
X757132Y414360D01*
X757094Y414396D01*
X757029Y414426D01*
X756969Y414464D01*
X756918Y414477D01*
X756871Y414499D01*
X756800Y414507D01*
X756730Y414525D01*
X756678Y414520D01*
X756627Y414526D01*
X756556Y414511D01*
X756485Y414505D01*
X756437Y414485D01*
X756386Y414474D01*
X756325Y414437D01*
X756259Y414409D01*
X756203Y414364D01*
X756175Y414348D01*
X756160Y414330D01*
X756128Y414304D01*
X751525Y409701D01*
X741796Y409701D01*
X741706Y409687D01*
X741615Y409679D01*
X741585Y409667D01*
X741553Y409662D01*
X741472Y409619D01*
X741388Y409583D01*
X741356Y409557D01*
X741336Y409546D01*
X741313Y409523D01*
X741257Y409478D01*
X726664Y394884D01*
X726611Y394811D01*
X726551Y394741D01*
X726539Y394711D01*
X726520Y394685D01*
X726493Y394598D01*
X726459Y394513D01*
X726455Y394472D01*
X726448Y394450D01*
X726449Y394417D01*
X726441Y394346D01*
X726441Y332432D01*
X715234Y321224D01*
X714333Y320324D01*
X714292Y320266D01*
X714242Y320214D01*
X714220Y320167D01*
X714190Y320125D01*
X714169Y320056D01*
X714139Y319991D01*
X714133Y319939D01*
X714118Y319889D01*
X714119Y319818D01*
X714112Y319747D01*
X714123Y319696D01*
X714124Y319644D01*
X714149Y319576D01*
X714164Y319506D01*
X714190Y319461D01*
X714208Y319413D01*
X714253Y319357D01*
X714290Y319295D01*
X714330Y319261D01*
X714362Y319221D01*
X714422Y319182D01*
X714477Y319135D01*
X714525Y319116D01*
X714569Y319088D01*
X714638Y319070D01*
X714705Y319043D01*
X714776Y319035D01*
X714807Y319027D01*
X714831Y319029D01*
X714872Y319025D01*
X715551Y319025D01*
X715641Y319039D01*
G37*
%LPC*%
G36*
X69965Y366303D02*
X69965Y366303D01*
X67831Y367187D01*
X66197Y368821D01*
X65313Y370955D01*
X65313Y373265D01*
X66197Y375399D01*
X67831Y377033D01*
X67855Y377043D01*
X67954Y377104D01*
X68055Y377164D01*
X68059Y377169D01*
X68064Y377172D01*
X68139Y377262D01*
X68215Y377351D01*
X68217Y377357D01*
X68221Y377362D01*
X68263Y377470D01*
X68307Y377579D01*
X68308Y377587D01*
X68309Y377592D01*
X68310Y377610D01*
X68325Y377746D01*
X68325Y488838D01*
X70185Y490698D01*
X90558Y511071D01*
X90626Y511165D01*
X90696Y511260D01*
X90698Y511266D01*
X90702Y511271D01*
X90736Y511382D01*
X90773Y511493D01*
X90773Y511500D01*
X90774Y511506D01*
X90771Y511623D01*
X90770Y511739D01*
X90768Y511747D01*
X90768Y511751D01*
X90762Y511769D01*
X90723Y511901D01*
X90713Y511925D01*
X90713Y514235D01*
X91597Y516369D01*
X93231Y518003D01*
X95365Y518887D01*
X97675Y518887D01*
X99809Y518003D01*
X101443Y516369D01*
X102327Y514235D01*
X102327Y511925D01*
X101443Y509791D01*
X99809Y508157D01*
X97675Y507273D01*
X95365Y507273D01*
X95341Y507283D01*
X95227Y507310D01*
X95113Y507339D01*
X95107Y507338D01*
X95101Y507340D01*
X94984Y507329D01*
X94868Y507320D01*
X94862Y507317D01*
X94856Y507317D01*
X94749Y507269D01*
X94642Y507223D01*
X94636Y507219D01*
X94631Y507217D01*
X94618Y507204D01*
X94511Y507118D01*
X74138Y486745D01*
X74085Y486671D01*
X74025Y486602D01*
X74013Y486572D01*
X73994Y486546D01*
X73967Y486459D01*
X73933Y486374D01*
X73929Y486333D01*
X73922Y486311D01*
X73923Y486278D01*
X73915Y486207D01*
X73915Y386225D01*
X73918Y386207D01*
X73916Y386192D01*
X73927Y386142D01*
X73928Y386082D01*
X73946Y386033D01*
X73954Y385982D01*
X73966Y385960D01*
X73968Y385951D01*
X73989Y385917D01*
X74013Y385851D01*
X74045Y385810D01*
X74070Y385764D01*
X74093Y385742D01*
X74094Y385740D01*
X74104Y385732D01*
X74122Y385715D01*
X74166Y385659D01*
X74210Y385631D01*
X74248Y385595D01*
X74313Y385565D01*
X74373Y385526D01*
X74424Y385513D01*
X74471Y385491D01*
X74542Y385483D01*
X74612Y385466D01*
X74664Y385470D01*
X74715Y385464D01*
X74786Y385480D01*
X74857Y385485D01*
X74905Y385505D01*
X74918Y385508D01*
X74925Y385509D01*
X74927Y385510D01*
X74956Y385517D01*
X75017Y385553D01*
X75083Y385581D01*
X75127Y385616D01*
X75143Y385625D01*
X75151Y385633D01*
X75167Y385643D01*
X75182Y385661D01*
X75214Y385686D01*
X76721Y387193D01*
X76745Y387203D01*
X76844Y387264D01*
X76945Y387324D01*
X76949Y387329D01*
X76954Y387332D01*
X77029Y387422D01*
X77105Y387511D01*
X77107Y387517D01*
X77111Y387522D01*
X77153Y387630D01*
X77197Y387739D01*
X77198Y387747D01*
X77199Y387752D01*
X77200Y387770D01*
X77215Y387906D01*
X77215Y478678D01*
X79075Y480538D01*
X95638Y497101D01*
X95706Y497195D01*
X95776Y497290D01*
X95778Y497296D01*
X95782Y497301D01*
X95816Y497412D01*
X95853Y497523D01*
X95853Y497530D01*
X95854Y497536D01*
X95851Y497653D01*
X95850Y497769D01*
X95848Y497777D01*
X95848Y497781D01*
X95842Y497799D01*
X95803Y497931D01*
X95793Y497955D01*
X95793Y500265D01*
X96677Y502399D01*
X98311Y504033D01*
X100445Y504917D01*
X102755Y504917D01*
X104889Y504033D01*
X106523Y502399D01*
X107407Y500265D01*
X107407Y497955D01*
X106523Y495821D01*
X104889Y494187D01*
X102755Y493303D01*
X100445Y493303D01*
X100421Y493313D01*
X100307Y493340D01*
X100193Y493369D01*
X100187Y493368D01*
X100181Y493370D01*
X100064Y493359D01*
X99948Y493350D01*
X99942Y493347D01*
X99936Y493347D01*
X99829Y493299D01*
X99722Y493253D01*
X99716Y493249D01*
X99711Y493247D01*
X99698Y493234D01*
X99591Y493148D01*
X83028Y476585D01*
X82984Y476525D01*
X82948Y476487D01*
X82941Y476473D01*
X82915Y476442D01*
X82903Y476412D01*
X82884Y476386D01*
X82857Y476299D01*
X82823Y476214D01*
X82819Y476173D01*
X82812Y476151D01*
X82813Y476118D01*
X82805Y476047D01*
X82805Y387906D01*
X82824Y387791D01*
X82841Y387675D01*
X82843Y387670D01*
X82844Y387663D01*
X82899Y387560D01*
X82952Y387456D01*
X82957Y387452D01*
X82960Y387446D01*
X83044Y387366D01*
X83128Y387284D01*
X83134Y387280D01*
X83138Y387277D01*
X83155Y387269D01*
X83275Y387203D01*
X83299Y387193D01*
X84933Y385559D01*
X85817Y383425D01*
X85817Y381115D01*
X84933Y378981D01*
X83299Y377347D01*
X81165Y376463D01*
X78855Y376463D01*
X76721Y377347D01*
X75214Y378854D01*
X75156Y378896D01*
X75104Y378945D01*
X75057Y378967D01*
X75015Y378997D01*
X74946Y379018D01*
X74881Y379049D01*
X74829Y379054D01*
X74779Y379070D01*
X74708Y379068D01*
X74637Y379076D01*
X74586Y379065D01*
X74534Y379063D01*
X74466Y379039D01*
X74396Y379023D01*
X74351Y378997D01*
X74303Y378979D01*
X74247Y378934D01*
X74185Y378897D01*
X74151Y378858D01*
X74111Y378825D01*
X74072Y378765D01*
X74025Y378710D01*
X74006Y378662D01*
X73978Y378618D01*
X73960Y378549D01*
X73933Y378482D01*
X73925Y378411D01*
X73917Y378380D01*
X73919Y378356D01*
X73915Y378315D01*
X73915Y377746D01*
X73934Y377631D01*
X73951Y377515D01*
X73953Y377510D01*
X73954Y377503D01*
X74009Y377400D01*
X74062Y377296D01*
X74067Y377292D01*
X74070Y377286D01*
X74154Y377206D01*
X74238Y377124D01*
X74244Y377120D01*
X74248Y377117D01*
X74265Y377109D01*
X74385Y377043D01*
X74409Y377033D01*
X76043Y375399D01*
X76927Y373265D01*
X76927Y370955D01*
X76043Y368821D01*
X74409Y367187D01*
X72275Y366303D01*
X69965Y366303D01*
G37*
%LPD*%
%LPC*%
G36*
X992276Y128904D02*
X992276Y128904D01*
X983641Y132481D01*
X977031Y139091D01*
X973454Y147726D01*
X973454Y157074D01*
X977031Y165709D01*
X983641Y172319D01*
X992276Y175896D01*
X1001624Y175896D01*
X1010259Y172319D01*
X1016869Y165709D01*
X1020446Y157074D01*
X1020446Y147726D01*
X1016869Y139091D01*
X1010259Y132481D01*
X1001624Y128904D01*
X992276Y128904D01*
G37*
%LPD*%
%LPC*%
G36*
X991006Y446404D02*
X991006Y446404D01*
X982371Y449981D01*
X975761Y456591D01*
X972184Y465226D01*
X972184Y474574D01*
X975761Y483209D01*
X982371Y489819D01*
X991006Y493396D01*
X1000354Y493396D01*
X1008989Y489819D01*
X1015599Y483209D01*
X1019176Y474574D01*
X1019176Y465226D01*
X1015599Y456591D01*
X1008989Y449981D01*
X1000354Y446404D01*
X991006Y446404D01*
G37*
%LPD*%
G36*
X756756Y205245D02*
X756756Y205245D01*
X756808Y205246D01*
X756876Y205271D01*
X756946Y205286D01*
X756991Y205313D01*
X757039Y205331D01*
X757095Y205375D01*
X757157Y205412D01*
X757191Y205452D01*
X757231Y205484D01*
X757270Y205545D01*
X757317Y205599D01*
X757336Y205647D01*
X757364Y205691D01*
X757382Y205761D01*
X757409Y205827D01*
X757417Y205899D01*
X757425Y205930D01*
X757423Y205953D01*
X757427Y205994D01*
X757427Y276896D01*
X757426Y276903D01*
X757426Y276904D01*
X757424Y276916D01*
X757426Y276935D01*
X757404Y277037D01*
X757388Y277139D01*
X757378Y277156D01*
X757374Y277176D01*
X757321Y277265D01*
X757272Y277356D01*
X757258Y277370D01*
X757248Y277387D01*
X757169Y277454D01*
X757094Y277526D01*
X757076Y277534D01*
X757061Y277547D01*
X756965Y277586D01*
X756871Y277629D01*
X756851Y277631D01*
X756833Y277639D01*
X756666Y277657D01*
X754003Y277657D01*
X752184Y278411D01*
X752070Y278437D01*
X751957Y278466D01*
X751950Y278466D01*
X751944Y278467D01*
X751828Y278456D01*
X751711Y278447D01*
X751706Y278444D01*
X751699Y278444D01*
X751592Y278396D01*
X751485Y278351D01*
X751479Y278346D01*
X751475Y278344D01*
X751461Y278331D01*
X751354Y278246D01*
X738566Y265457D01*
X738513Y265383D01*
X738453Y265314D01*
X738441Y265284D01*
X738422Y265258D01*
X738395Y265171D01*
X738361Y265086D01*
X738357Y265045D01*
X738350Y265022D01*
X738351Y264990D01*
X738343Y264919D01*
X738343Y262803D01*
X737304Y260295D01*
X735385Y258376D01*
X732877Y257337D01*
X730163Y257337D01*
X727655Y258376D01*
X726978Y259053D01*
X726920Y259095D01*
X726868Y259144D01*
X726821Y259166D01*
X726779Y259196D01*
X726710Y259218D01*
X726645Y259248D01*
X726593Y259253D01*
X726543Y259269D01*
X726472Y259267D01*
X726401Y259275D01*
X726350Y259264D01*
X726298Y259262D01*
X726230Y259238D01*
X726160Y259223D01*
X726116Y259196D01*
X726067Y259178D01*
X726011Y259133D01*
X725949Y259096D01*
X725915Y259057D01*
X725875Y259024D01*
X725836Y258964D01*
X725789Y258910D01*
X725770Y258861D01*
X725742Y258817D01*
X725724Y258748D01*
X725697Y258681D01*
X725689Y258610D01*
X725681Y258579D01*
X725683Y258556D01*
X725679Y258515D01*
X725679Y228600D01*
X725694Y228510D01*
X725701Y228419D01*
X725713Y228389D01*
X725719Y228357D01*
X725761Y228277D01*
X725797Y228193D01*
X725823Y228161D01*
X725834Y228140D01*
X725857Y228118D01*
X725902Y228062D01*
X743682Y210282D01*
X743756Y210229D01*
X743825Y210169D01*
X743855Y210157D01*
X743881Y210138D01*
X743968Y210111D01*
X744053Y210077D01*
X744094Y210073D01*
X744117Y210066D01*
X744149Y210067D01*
X744220Y210059D01*
X751525Y210059D01*
X756128Y205456D01*
X756186Y205414D01*
X756238Y205364D01*
X756285Y205343D01*
X756327Y205312D01*
X756396Y205291D01*
X756461Y205261D01*
X756513Y205255D01*
X756563Y205240D01*
X756634Y205242D01*
X756705Y205234D01*
X756756Y205245D01*
G37*
%LPC*%
G36*
X115685Y274863D02*
X115685Y274863D01*
X113551Y275747D01*
X111917Y277381D01*
X111033Y279515D01*
X111033Y281825D01*
X111917Y283959D01*
X113551Y285593D01*
X115685Y286477D01*
X118020Y286477D01*
X118110Y286491D01*
X118201Y286499D01*
X118231Y286511D01*
X118263Y286516D01*
X118343Y286559D01*
X118427Y286595D01*
X118459Y286621D01*
X118480Y286632D01*
X118502Y286655D01*
X118558Y286700D01*
X121188Y289330D01*
X121241Y289404D01*
X121301Y289473D01*
X121313Y289503D01*
X121332Y289530D01*
X121359Y289617D01*
X121393Y289701D01*
X121397Y289742D01*
X121404Y289765D01*
X121403Y289797D01*
X121411Y289868D01*
X121411Y436481D01*
X121409Y436498D01*
X121410Y436513D01*
X121396Y436579D01*
X121389Y436662D01*
X121377Y436692D01*
X121372Y436724D01*
X121359Y436747D01*
X121358Y436753D01*
X121342Y436781D01*
X121329Y436805D01*
X121293Y436889D01*
X121267Y436921D01*
X121256Y436942D01*
X121233Y436964D01*
X121188Y437020D01*
X119537Y438671D01*
X118653Y440805D01*
X118653Y443115D01*
X119537Y445249D01*
X121171Y446883D01*
X123305Y447767D01*
X125615Y447767D01*
X127749Y446883D01*
X129383Y445249D01*
X130267Y443115D01*
X130267Y440805D01*
X129383Y438671D01*
X127732Y437020D01*
X127679Y436946D01*
X127643Y436904D01*
X127640Y436902D01*
X127640Y436901D01*
X127619Y436876D01*
X127607Y436846D01*
X127588Y436820D01*
X127561Y436733D01*
X127556Y436720D01*
X127537Y436678D01*
X127536Y436670D01*
X127527Y436648D01*
X127523Y436607D01*
X127516Y436585D01*
X127517Y436553D01*
X127509Y436481D01*
X127509Y287027D01*
X122870Y282388D01*
X122817Y282314D01*
X122757Y282245D01*
X122745Y282215D01*
X122726Y282188D01*
X122699Y282101D01*
X122665Y282017D01*
X122661Y281976D01*
X122654Y281953D01*
X122655Y281921D01*
X122647Y281850D01*
X122647Y279515D01*
X121763Y277381D01*
X120129Y275747D01*
X117995Y274863D01*
X115685Y274863D01*
G37*
%LPD*%
G36*
X724807Y260081D02*
X724807Y260081D01*
X724833Y260081D01*
X724925Y260115D01*
X725018Y260142D01*
X725040Y260157D01*
X725064Y260166D01*
X725140Y260227D01*
X725220Y260282D01*
X725236Y260303D01*
X725256Y260319D01*
X725309Y260401D01*
X725367Y260480D01*
X725375Y260504D01*
X725389Y260526D01*
X725413Y260621D01*
X725443Y260713D01*
X725443Y260740D01*
X725449Y260765D01*
X725442Y260862D01*
X725441Y260959D01*
X725432Y260991D01*
X725430Y261010D01*
X725417Y261040D01*
X725394Y261120D01*
X724697Y262803D01*
X724697Y265517D01*
X725736Y268025D01*
X727655Y269944D01*
X730163Y270983D01*
X732279Y270983D01*
X732369Y270997D01*
X732460Y271005D01*
X732490Y271017D01*
X732522Y271022D01*
X732602Y271065D01*
X732686Y271101D01*
X732718Y271127D01*
X732739Y271138D01*
X732761Y271161D01*
X732817Y271206D01*
X749200Y287588D01*
X749238Y287642D01*
X749284Y287688D01*
X749324Y287761D01*
X749343Y287788D01*
X749349Y287807D01*
X749365Y287835D01*
X749576Y288345D01*
X751495Y290264D01*
X754003Y291303D01*
X756666Y291303D01*
X756686Y291306D01*
X756705Y291304D01*
X756807Y291326D01*
X756909Y291342D01*
X756926Y291352D01*
X756946Y291356D01*
X757035Y291409D01*
X757126Y291458D01*
X757140Y291472D01*
X757157Y291482D01*
X757224Y291561D01*
X757296Y291636D01*
X757304Y291654D01*
X757317Y291669D01*
X757356Y291765D01*
X757399Y291859D01*
X757401Y291879D01*
X757409Y291897D01*
X757427Y292064D01*
X757427Y300604D01*
X757420Y300649D01*
X757422Y300695D01*
X757400Y300770D01*
X757388Y300847D01*
X757366Y300887D01*
X757353Y300932D01*
X757309Y300996D01*
X757272Y301064D01*
X757239Y301096D01*
X757213Y301134D01*
X757151Y301180D01*
X757094Y301234D01*
X757052Y301253D01*
X757016Y301280D01*
X756942Y301304D01*
X756871Y301337D01*
X756825Y301342D01*
X756782Y301357D01*
X756704Y301356D01*
X756627Y301364D01*
X756582Y301355D01*
X756536Y301354D01*
X756404Y301316D01*
X756386Y301312D01*
X756382Y301310D01*
X756375Y301307D01*
X754467Y300517D01*
X752351Y300517D01*
X752261Y300503D01*
X752170Y300495D01*
X752140Y300483D01*
X752108Y300478D01*
X752028Y300435D01*
X751944Y300399D01*
X751912Y300373D01*
X751891Y300362D01*
X751869Y300339D01*
X751813Y300294D01*
X744634Y293115D01*
X684025Y293115D01*
X683960Y293105D01*
X683895Y293104D01*
X683815Y293081D01*
X683782Y293076D01*
X683765Y293066D01*
X683734Y293057D01*
X683347Y292897D01*
X682256Y292897D01*
X682211Y292890D01*
X682165Y292892D01*
X682090Y292870D01*
X682013Y292858D01*
X681972Y292836D01*
X681928Y292823D01*
X681864Y292779D01*
X681796Y292742D01*
X681764Y292709D01*
X681726Y292683D01*
X681680Y292620D01*
X681626Y292564D01*
X681607Y292522D01*
X681580Y292486D01*
X681555Y292412D01*
X681523Y292341D01*
X681518Y292295D01*
X681503Y292252D01*
X681504Y292174D01*
X681496Y292097D01*
X681505Y292052D01*
X681506Y292006D01*
X681544Y291874D01*
X681548Y291856D01*
X681550Y291852D01*
X681552Y291845D01*
X682463Y289647D01*
X682463Y287020D01*
X682466Y287000D01*
X682464Y286981D01*
X682486Y286879D01*
X682502Y286777D01*
X682512Y286760D01*
X682516Y286740D01*
X682569Y286651D01*
X682618Y286560D01*
X682632Y286546D01*
X682642Y286529D01*
X682721Y286462D01*
X682796Y286391D01*
X682814Y286382D01*
X682829Y286369D01*
X682925Y286330D01*
X683019Y286287D01*
X683039Y286285D01*
X683057Y286277D01*
X683224Y286259D01*
X698185Y286259D01*
X724153Y260291D01*
X724232Y260234D01*
X724307Y260172D01*
X724331Y260163D01*
X724352Y260147D01*
X724445Y260119D01*
X724536Y260084D01*
X724562Y260083D01*
X724587Y260075D01*
X724685Y260077D01*
X724782Y260073D01*
X724807Y260081D01*
G37*
%LPC*%
G36*
X491605Y231683D02*
X491605Y231683D01*
X489471Y232567D01*
X487837Y234201D01*
X486953Y236335D01*
X486953Y238645D01*
X487837Y240779D01*
X489471Y242413D01*
X489495Y242423D01*
X489594Y242484D01*
X489614Y242496D01*
X489639Y242510D01*
X489643Y242514D01*
X489695Y242544D01*
X489699Y242549D01*
X489704Y242552D01*
X489779Y242642D01*
X489855Y242731D01*
X489857Y242737D01*
X489861Y242742D01*
X489903Y242850D01*
X489947Y242959D01*
X489948Y242967D01*
X489949Y242972D01*
X489950Y242990D01*
X489965Y243126D01*
X489965Y272938D01*
X518952Y301925D01*
X519005Y301999D01*
X519065Y302068D01*
X519077Y302098D01*
X519096Y302124D01*
X519123Y302211D01*
X519157Y302296D01*
X519161Y302337D01*
X519168Y302359D01*
X519167Y302392D01*
X519175Y302463D01*
X519175Y322362D01*
X519172Y322382D01*
X519174Y322401D01*
X519152Y322503D01*
X519136Y322605D01*
X519126Y322622D01*
X519122Y322642D01*
X519069Y322731D01*
X519020Y322822D01*
X519006Y322836D01*
X518996Y322853D01*
X518917Y322920D01*
X518842Y322992D01*
X518824Y323000D01*
X518809Y323013D01*
X518713Y323052D01*
X518619Y323095D01*
X518599Y323097D01*
X518581Y323105D01*
X518414Y323123D01*
X517005Y323123D01*
X514871Y324007D01*
X513237Y325641D01*
X512353Y327775D01*
X512353Y330085D01*
X513237Y332219D01*
X514871Y333853D01*
X517005Y334737D01*
X519315Y334737D01*
X521449Y333853D01*
X523083Y332219D01*
X523967Y330085D01*
X523967Y327775D01*
X523957Y327751D01*
X523930Y327637D01*
X523901Y327523D01*
X523902Y327517D01*
X523900Y327511D01*
X523911Y327394D01*
X523920Y327278D01*
X523923Y327272D01*
X523923Y327266D01*
X523971Y327159D01*
X524017Y327052D01*
X524021Y327046D01*
X524023Y327041D01*
X524036Y327028D01*
X524122Y326921D01*
X524765Y326278D01*
X524765Y299832D01*
X495778Y270845D01*
X495725Y270771D01*
X495665Y270702D01*
X495653Y270672D01*
X495634Y270646D01*
X495607Y270559D01*
X495573Y270474D01*
X495569Y270433D01*
X495562Y270411D01*
X495563Y270378D01*
X495555Y270307D01*
X495555Y243126D01*
X495574Y243011D01*
X495591Y242895D01*
X495593Y242890D01*
X495594Y242883D01*
X495649Y242780D01*
X495702Y242676D01*
X495707Y242672D01*
X495710Y242666D01*
X495794Y242586D01*
X495878Y242504D01*
X495884Y242500D01*
X495888Y242497D01*
X495905Y242489D01*
X495942Y242468D01*
X495946Y242465D01*
X495954Y242462D01*
X496025Y242423D01*
X496049Y242413D01*
X497683Y240779D01*
X498567Y238645D01*
X498567Y236335D01*
X497683Y234201D01*
X496049Y232567D01*
X493915Y231683D01*
X491605Y231683D01*
G37*
%LPD*%
%LPC*%
G36*
X293485Y255813D02*
X293485Y255813D01*
X291351Y256697D01*
X289717Y258331D01*
X288833Y260465D01*
X288833Y262775D01*
X289717Y264909D01*
X291368Y266560D01*
X291421Y266634D01*
X291481Y266704D01*
X291493Y266734D01*
X291512Y266760D01*
X291539Y266847D01*
X291573Y266932D01*
X291577Y266973D01*
X291584Y266995D01*
X291583Y267027D01*
X291591Y267099D01*
X291591Y332733D01*
X298770Y339912D01*
X298823Y339986D01*
X298883Y340055D01*
X298895Y340085D01*
X298914Y340112D01*
X298941Y340199D01*
X298975Y340283D01*
X298979Y340324D01*
X298986Y340347D01*
X298985Y340379D01*
X298993Y340450D01*
X298993Y342785D01*
X299877Y344919D01*
X301511Y346553D01*
X303645Y347437D01*
X305955Y347437D01*
X308089Y346553D01*
X309723Y344919D01*
X310607Y342785D01*
X310607Y340475D01*
X309723Y338341D01*
X308089Y336707D01*
X305955Y335823D01*
X303620Y335823D01*
X303530Y335809D01*
X303439Y335801D01*
X303409Y335789D01*
X303377Y335784D01*
X303297Y335741D01*
X303213Y335705D01*
X303181Y335679D01*
X303160Y335668D01*
X303138Y335645D01*
X303082Y335600D01*
X297912Y330430D01*
X297869Y330370D01*
X297827Y330327D01*
X297820Y330311D01*
X297799Y330287D01*
X297787Y330257D01*
X297768Y330230D01*
X297741Y330143D01*
X297737Y330133D01*
X297724Y330103D01*
X297723Y330097D01*
X297707Y330059D01*
X297703Y330018D01*
X297696Y329995D01*
X297697Y329963D01*
X297689Y329892D01*
X297689Y267099D01*
X297703Y267008D01*
X297711Y266918D01*
X297723Y266888D01*
X297728Y266856D01*
X297771Y266775D01*
X297807Y266691D01*
X297833Y266659D01*
X297844Y266638D01*
X297867Y266616D01*
X297912Y266560D01*
X299563Y264909D01*
X300447Y262775D01*
X300447Y260465D01*
X299563Y258331D01*
X297929Y256697D01*
X295795Y255813D01*
X293485Y255813D01*
G37*
%LPD*%
%LPC*%
G36*
X329045Y286293D02*
X329045Y286293D01*
X326911Y287177D01*
X325277Y288811D01*
X324393Y290945D01*
X324393Y293255D01*
X325277Y295389D01*
X326928Y297040D01*
X326981Y297114D01*
X327041Y297184D01*
X327053Y297214D01*
X327072Y297240D01*
X327099Y297327D01*
X327133Y297412D01*
X327137Y297453D01*
X327144Y297475D01*
X327143Y297507D01*
X327151Y297579D01*
X327151Y371711D01*
X327137Y371802D01*
X327129Y371892D01*
X327117Y371922D01*
X327112Y371954D01*
X327069Y372035D01*
X327033Y372119D01*
X327007Y372151D01*
X326996Y372172D01*
X326973Y372194D01*
X326928Y372250D01*
X326547Y372631D01*
X325663Y374765D01*
X325663Y377075D01*
X326547Y379209D01*
X328181Y380843D01*
X330315Y381727D01*
X332625Y381727D01*
X334759Y380843D01*
X336393Y379209D01*
X337277Y377075D01*
X337277Y374765D01*
X336393Y372631D01*
X334759Y370997D01*
X333719Y370566D01*
X333619Y370504D01*
X333519Y370445D01*
X333515Y370440D01*
X333510Y370437D01*
X333435Y370346D01*
X333359Y370258D01*
X333357Y370252D01*
X333353Y370247D01*
X333311Y370139D01*
X333267Y370030D01*
X333266Y370022D01*
X333265Y370018D01*
X333264Y369999D01*
X333249Y369863D01*
X333249Y297579D01*
X333263Y297488D01*
X333271Y297398D01*
X333283Y297368D01*
X333288Y297336D01*
X333331Y297255D01*
X333367Y297171D01*
X333393Y297139D01*
X333404Y297118D01*
X333427Y297096D01*
X333472Y297040D01*
X335123Y295389D01*
X336007Y293255D01*
X336007Y290945D01*
X335123Y288811D01*
X333489Y287177D01*
X331355Y286293D01*
X329045Y286293D01*
G37*
%LPD*%
%LPC*%
G36*
X317615Y310423D02*
X317615Y310423D01*
X315481Y311307D01*
X313847Y312941D01*
X312963Y315075D01*
X312963Y317385D01*
X313847Y319519D01*
X315498Y321170D01*
X315551Y321244D01*
X315611Y321314D01*
X315623Y321344D01*
X315642Y321370D01*
X315669Y321457D01*
X315703Y321542D01*
X315707Y321583D01*
X315714Y321605D01*
X315713Y321637D01*
X315721Y321709D01*
X315721Y373162D01*
X315718Y373182D01*
X315720Y373201D01*
X315698Y373303D01*
X315682Y373405D01*
X315672Y373422D01*
X315668Y373442D01*
X315615Y373531D01*
X315566Y373622D01*
X315552Y373636D01*
X315542Y373653D01*
X315463Y373720D01*
X315388Y373792D01*
X315370Y373800D01*
X315355Y373813D01*
X315259Y373852D01*
X315165Y373895D01*
X315145Y373897D01*
X315127Y373905D01*
X315117Y373906D01*
X312941Y374807D01*
X311307Y376441D01*
X310423Y378575D01*
X310423Y380885D01*
X311307Y383019D01*
X312941Y384653D01*
X315075Y385537D01*
X317385Y385537D01*
X319519Y384653D01*
X321153Y383019D01*
X322037Y380885D01*
X322037Y378575D01*
X321877Y378189D01*
X321862Y378125D01*
X321837Y378064D01*
X321828Y377981D01*
X321821Y377949D01*
X321822Y377930D01*
X321819Y377897D01*
X321819Y321709D01*
X321833Y321618D01*
X321841Y321528D01*
X321853Y321498D01*
X321858Y321466D01*
X321901Y321385D01*
X321937Y321301D01*
X321963Y321269D01*
X321974Y321248D01*
X321997Y321226D01*
X322042Y321170D01*
X323693Y319519D01*
X324577Y317385D01*
X324577Y315075D01*
X323693Y312941D01*
X322059Y311307D01*
X319925Y310423D01*
X317615Y310423D01*
G37*
%LPD*%
%LPC*%
G36*
X210935Y417103D02*
X210935Y417103D01*
X208801Y417987D01*
X207167Y419621D01*
X206283Y421755D01*
X206283Y424065D01*
X207167Y426199D01*
X207802Y426834D01*
X207849Y426900D01*
X207859Y426910D01*
X207862Y426916D01*
X207915Y426978D01*
X207927Y427008D01*
X207946Y427034D01*
X207973Y427121D01*
X208007Y427206D01*
X208011Y427247D01*
X208018Y427269D01*
X208017Y427301D01*
X208025Y427373D01*
X208025Y446311D01*
X208011Y446401D01*
X208003Y446492D01*
X207991Y446522D01*
X207986Y446554D01*
X207943Y446634D01*
X207907Y446718D01*
X207881Y446750D01*
X207870Y446771D01*
X207847Y446793D01*
X207802Y446849D01*
X203481Y451170D01*
X203407Y451223D01*
X203338Y451283D01*
X203308Y451295D01*
X203282Y451314D01*
X203195Y451341D01*
X203110Y451375D01*
X203069Y451379D01*
X203046Y451386D01*
X203014Y451385D01*
X202943Y451393D01*
X202045Y451393D01*
X199911Y452277D01*
X198277Y453911D01*
X197393Y456045D01*
X197393Y458355D01*
X198277Y460489D01*
X199911Y462123D01*
X202045Y463007D01*
X204355Y463007D01*
X206489Y462123D01*
X208123Y460489D01*
X209007Y458355D01*
X209007Y457457D01*
X209021Y457367D01*
X209029Y457276D01*
X209041Y457246D01*
X209046Y457214D01*
X209089Y457134D01*
X209125Y457050D01*
X209151Y457018D01*
X209162Y456997D01*
X209185Y456975D01*
X209230Y456919D01*
X216155Y449994D01*
X216155Y427373D01*
X216169Y427282D01*
X216177Y427192D01*
X216189Y427162D01*
X216194Y427130D01*
X216237Y427049D01*
X216273Y426965D01*
X216299Y426933D01*
X216310Y426912D01*
X216333Y426890D01*
X216378Y426834D01*
X217013Y426199D01*
X217897Y424065D01*
X217897Y421755D01*
X217013Y419621D01*
X215379Y417987D01*
X213245Y417103D01*
X210935Y417103D01*
G37*
%LPD*%
%LPC*%
G36*
X373936Y178307D02*
X373936Y178307D01*
X367537Y184706D01*
X367537Y193754D01*
X373936Y200153D01*
X382984Y200153D01*
X389383Y193754D01*
X389383Y184706D01*
X382984Y178307D01*
X373936Y178307D01*
G37*
%LPD*%
%LPC*%
G36*
X348536Y178307D02*
X348536Y178307D01*
X342137Y184706D01*
X342137Y193754D01*
X348536Y200153D01*
X357584Y200153D01*
X363983Y193754D01*
X363983Y184706D01*
X357584Y178307D01*
X348536Y178307D01*
G37*
%LPD*%
%LPC*%
G36*
X373936Y152907D02*
X373936Y152907D01*
X367537Y159306D01*
X367537Y168354D01*
X373936Y174753D01*
X382984Y174753D01*
X389383Y168354D01*
X389383Y159306D01*
X382984Y152907D01*
X373936Y152907D01*
G37*
%LPD*%
%LPC*%
G36*
X348536Y152907D02*
X348536Y152907D01*
X342137Y159306D01*
X342137Y168354D01*
X348536Y174753D01*
X357584Y174753D01*
X363983Y168354D01*
X363983Y159306D01*
X357584Y152907D01*
X348536Y152907D01*
G37*
%LPD*%
%LPC*%
G36*
X348536Y406907D02*
X348536Y406907D01*
X342137Y413306D01*
X342137Y422354D01*
X348536Y428753D01*
X357584Y428753D01*
X363983Y422354D01*
X363983Y413306D01*
X357584Y406907D01*
X348536Y406907D01*
G37*
%LPD*%
%LPC*%
G36*
X373936Y406907D02*
X373936Y406907D01*
X367537Y413306D01*
X367537Y422354D01*
X373936Y428753D01*
X382984Y428753D01*
X389383Y422354D01*
X389383Y413306D01*
X382984Y406907D01*
X373936Y406907D01*
G37*
%LPD*%
%LPC*%
G36*
X348536Y381507D02*
X348536Y381507D01*
X342137Y387906D01*
X342137Y396954D01*
X348536Y403353D01*
X357584Y403353D01*
X363983Y396954D01*
X363983Y387906D01*
X357584Y381507D01*
X348536Y381507D01*
G37*
%LPD*%
%LPC*%
G36*
X373936Y381507D02*
X373936Y381507D01*
X367537Y387906D01*
X367537Y396954D01*
X373936Y403353D01*
X382984Y403353D01*
X389383Y396954D01*
X389383Y387906D01*
X382984Y381507D01*
X373936Y381507D01*
G37*
%LPD*%
%LPC*%
G36*
X348536Y356107D02*
X348536Y356107D01*
X342137Y362506D01*
X342137Y371554D01*
X348536Y377953D01*
X357584Y377953D01*
X363983Y371554D01*
X363983Y362506D01*
X357584Y356107D01*
X348536Y356107D01*
G37*
%LPD*%
%LPC*%
G36*
X373936Y356107D02*
X373936Y356107D01*
X367537Y362506D01*
X367537Y371554D01*
X373936Y377953D01*
X382984Y377953D01*
X389383Y371554D01*
X389383Y362506D01*
X382984Y356107D01*
X373936Y356107D01*
G37*
%LPD*%
%LPC*%
G36*
X348536Y330707D02*
X348536Y330707D01*
X342137Y337106D01*
X342137Y346154D01*
X348536Y352553D01*
X357584Y352553D01*
X363983Y346154D01*
X363983Y337106D01*
X357584Y330707D01*
X348536Y330707D01*
G37*
%LPD*%
%LPC*%
G36*
X373936Y330707D02*
X373936Y330707D01*
X367537Y337106D01*
X367537Y346154D01*
X373936Y352553D01*
X382984Y352553D01*
X389383Y346154D01*
X389383Y337106D01*
X382984Y330707D01*
X373936Y330707D01*
G37*
%LPD*%
%LPC*%
G36*
X373936Y305307D02*
X373936Y305307D01*
X367537Y311706D01*
X367537Y320754D01*
X373936Y327153D01*
X382984Y327153D01*
X389383Y320754D01*
X389383Y311706D01*
X382984Y305307D01*
X373936Y305307D01*
G37*
%LPD*%
%LPC*%
G36*
X348536Y305307D02*
X348536Y305307D01*
X342137Y311706D01*
X342137Y320754D01*
X348536Y327153D01*
X357584Y327153D01*
X363983Y320754D01*
X363983Y311706D01*
X357584Y305307D01*
X348536Y305307D01*
G37*
%LPD*%
%LPC*%
G36*
X348536Y279907D02*
X348536Y279907D01*
X342137Y286306D01*
X342137Y295354D01*
X348536Y301753D01*
X357584Y301753D01*
X363983Y295354D01*
X363983Y286306D01*
X357584Y279907D01*
X348536Y279907D01*
G37*
%LPD*%
%LPC*%
G36*
X373936Y279907D02*
X373936Y279907D01*
X367537Y286306D01*
X367537Y295354D01*
X373936Y301753D01*
X382984Y301753D01*
X389383Y295354D01*
X389383Y286306D01*
X382984Y279907D01*
X373936Y279907D01*
G37*
%LPD*%
%LPC*%
G36*
X348536Y254507D02*
X348536Y254507D01*
X342137Y260906D01*
X342137Y269954D01*
X348536Y276353D01*
X357584Y276353D01*
X363983Y269954D01*
X363983Y260906D01*
X357584Y254507D01*
X348536Y254507D01*
G37*
%LPD*%
%LPC*%
G36*
X373936Y254507D02*
X373936Y254507D01*
X367537Y260906D01*
X367537Y269954D01*
X373936Y276353D01*
X382984Y276353D01*
X389383Y269954D01*
X389383Y260906D01*
X382984Y254507D01*
X373936Y254507D01*
G37*
%LPD*%
%LPC*%
G36*
X348536Y229107D02*
X348536Y229107D01*
X342137Y235506D01*
X342137Y244554D01*
X348536Y250953D01*
X357584Y250953D01*
X363983Y244554D01*
X363983Y235506D01*
X357584Y229107D01*
X348536Y229107D01*
G37*
%LPD*%
%LPC*%
G36*
X373936Y229107D02*
X373936Y229107D01*
X367537Y235506D01*
X367537Y244554D01*
X373936Y250953D01*
X382984Y250953D01*
X389383Y244554D01*
X389383Y235506D01*
X382984Y229107D01*
X373936Y229107D01*
G37*
%LPD*%
%LPC*%
G36*
X373936Y203707D02*
X373936Y203707D01*
X367537Y210106D01*
X367537Y219154D01*
X373936Y225553D01*
X382984Y225553D01*
X389383Y219154D01*
X389383Y210106D01*
X382984Y203707D01*
X373936Y203707D01*
G37*
%LPD*%
%LPC*%
G36*
X348536Y203707D02*
X348536Y203707D01*
X342137Y210106D01*
X342137Y219154D01*
X348536Y225553D01*
X357584Y225553D01*
X363983Y219154D01*
X363983Y210106D01*
X357584Y203707D01*
X348536Y203707D01*
G37*
%LPD*%
%LPC*%
G36*
X546353Y584453D02*
X546353Y584453D01*
X546353Y606403D01*
X548772Y606130D01*
X548846Y606113D01*
X549152Y606044D01*
X549152Y606043D01*
X551345Y605543D01*
X553835Y604672D01*
X556213Y603526D01*
X558448Y602122D01*
X560511Y600477D01*
X562377Y598611D01*
X564022Y596548D01*
X565426Y594313D01*
X566572Y591935D01*
X567443Y589445D01*
X568030Y586872D01*
X568303Y584453D01*
X546353Y584453D01*
G37*
%LPD*%
%LPC*%
G36*
X467613Y584453D02*
X467613Y584453D01*
X467613Y606403D01*
X470032Y606130D01*
X472605Y605543D01*
X475095Y604672D01*
X477473Y603526D01*
X479708Y602122D01*
X481771Y600477D01*
X483637Y598611D01*
X485282Y596548D01*
X486686Y594313D01*
X487832Y591935D01*
X488703Y589445D01*
X489290Y586872D01*
X489563Y584453D01*
X467613Y584453D01*
G37*
%LPD*%
%LPC*%
G36*
X442617Y584453D02*
X442617Y584453D01*
X442890Y586872D01*
X443477Y589445D01*
X444348Y591935D01*
X445494Y594313D01*
X446898Y596548D01*
X448543Y598611D01*
X450409Y600477D01*
X452472Y602122D01*
X454707Y603526D01*
X457085Y604672D01*
X459575Y605543D01*
X462148Y606130D01*
X464567Y606403D01*
X464567Y584453D01*
X442617Y584453D01*
G37*
%LPD*%
%LPC*%
G36*
X521357Y584453D02*
X521357Y584453D01*
X521630Y586872D01*
X522217Y589445D01*
X523088Y591935D01*
X524234Y594313D01*
X525638Y596548D01*
X527283Y598611D01*
X529149Y600477D01*
X531212Y602122D01*
X533447Y603526D01*
X535825Y604672D01*
X538315Y605543D01*
X540888Y606130D01*
X543307Y606403D01*
X543307Y584453D01*
X521357Y584453D01*
G37*
%LPD*%
%LPC*%
G36*
X467613Y581407D02*
X467613Y581407D01*
X489563Y581407D01*
X489290Y578988D01*
X488703Y576415D01*
X487832Y573925D01*
X486686Y571547D01*
X485282Y569312D01*
X483637Y567249D01*
X481771Y565383D01*
X479708Y563738D01*
X477473Y562334D01*
X475095Y561188D01*
X472605Y560317D01*
X470032Y559730D01*
X467613Y559457D01*
X467613Y581407D01*
G37*
%LPD*%
%LPC*%
G36*
X546353Y581407D02*
X546353Y581407D01*
X568303Y581407D01*
X568030Y578988D01*
X567443Y576415D01*
X566572Y573925D01*
X565426Y571547D01*
X564022Y569312D01*
X562377Y567249D01*
X560511Y565383D01*
X558448Y563738D01*
X556213Y562334D01*
X553835Y561188D01*
X551345Y560317D01*
X548772Y559730D01*
X546353Y559457D01*
X546353Y581407D01*
G37*
%LPD*%
%LPC*%
G36*
X462148Y559730D02*
X462148Y559730D01*
X461939Y559777D01*
X461939Y559778D01*
X459575Y560317D01*
X457085Y561188D01*
X454707Y562334D01*
X452472Y563738D01*
X450409Y565383D01*
X448543Y567249D01*
X446898Y569312D01*
X445494Y571547D01*
X444348Y573925D01*
X443477Y576415D01*
X442890Y578988D01*
X442617Y581407D01*
X464567Y581407D01*
X464567Y559457D01*
X462148Y559730D01*
G37*
%LPD*%
%LPC*%
G36*
X538315Y560317D02*
X538315Y560317D01*
X535825Y561188D01*
X533447Y562334D01*
X531212Y563738D01*
X529149Y565383D01*
X527283Y567249D01*
X525638Y569312D01*
X524234Y571547D01*
X523088Y573925D01*
X522217Y576415D01*
X521630Y578988D01*
X521357Y581407D01*
X543307Y581407D01*
X543307Y559457D01*
X540888Y559730D01*
X540721Y559768D01*
X538315Y560317D01*
G37*
%LPD*%
%LPC*%
G36*
X582659Y277859D02*
X582659Y277859D01*
X582659Y288561D01*
X590821Y288561D01*
X590821Y277859D01*
X582659Y277859D01*
G37*
%LPD*%
%LPC*%
G36*
X592819Y277859D02*
X592819Y277859D01*
X592819Y288561D01*
X600981Y288561D01*
X600981Y277859D01*
X592819Y277859D01*
G37*
%LPD*%
%LPC*%
G36*
X582659Y290559D02*
X582659Y290559D01*
X582659Y301261D01*
X590821Y301261D01*
X590821Y290559D01*
X582659Y290559D01*
G37*
%LPD*%
%LPC*%
G36*
X592819Y290559D02*
X592819Y290559D01*
X592819Y301261D01*
X600981Y301261D01*
X600981Y290559D01*
X592819Y290559D01*
G37*
%LPD*%
%LPC*%
G36*
X354583Y139953D02*
X354583Y139953D01*
X354583Y150369D01*
X358005Y150369D01*
X364999Y143375D01*
X364999Y139953D01*
X354583Y139953D01*
G37*
%LPD*%
%LPC*%
G36*
X379983Y139953D02*
X379983Y139953D01*
X379983Y150369D01*
X383405Y150369D01*
X390399Y143375D01*
X390399Y139953D01*
X379983Y139953D01*
G37*
%LPD*%
%LPC*%
G36*
X366521Y139953D02*
X366521Y139953D01*
X366521Y143375D01*
X373515Y150369D01*
X376937Y150369D01*
X376937Y139953D01*
X366521Y139953D01*
G37*
%LPD*%
%LPC*%
G36*
X341121Y139953D02*
X341121Y139953D01*
X341121Y143375D01*
X348115Y150369D01*
X351537Y150369D01*
X351537Y139953D01*
X341121Y139953D01*
G37*
%LPD*%
%LPC*%
G36*
X354583Y126491D02*
X354583Y126491D01*
X354583Y136907D01*
X364999Y136907D01*
X364999Y133485D01*
X358005Y126491D01*
X354583Y126491D01*
G37*
%LPD*%
%LPC*%
G36*
X379983Y126491D02*
X379983Y126491D01*
X379983Y136907D01*
X390399Y136907D01*
X390399Y133485D01*
X383405Y126491D01*
X379983Y126491D01*
G37*
%LPD*%
%LPC*%
G36*
X373515Y126491D02*
X373515Y126491D01*
X366521Y133485D01*
X366521Y136907D01*
X376937Y136907D01*
X376937Y126491D01*
X373515Y126491D01*
G37*
%LPD*%
%LPC*%
G36*
X348115Y126491D02*
X348115Y126491D01*
X341121Y133485D01*
X341121Y136907D01*
X351537Y136907D01*
X351537Y126491D01*
X348115Y126491D01*
G37*
%LPD*%
%LPC*%
G36*
X592819Y303259D02*
X592819Y303259D01*
X592819Y312691D01*
X600981Y312691D01*
X600981Y303259D01*
X592819Y303259D01*
G37*
%LPD*%
%LPC*%
G36*
X582659Y303259D02*
X582659Y303259D01*
X582659Y312691D01*
X590821Y312691D01*
X590821Y303259D01*
X582659Y303259D01*
G37*
%LPD*%
%LPC*%
G36*
X602979Y277859D02*
X602979Y277859D01*
X602979Y288561D01*
X609001Y288561D01*
X608789Y287495D01*
X608255Y286206D01*
X607480Y285046D01*
X606494Y284060D01*
X606169Y283843D01*
X606135Y283812D01*
X606096Y283788D01*
X606046Y283728D01*
X605989Y283675D01*
X605967Y283635D01*
X605938Y283600D01*
X605909Y283527D01*
X605872Y283459D01*
X605864Y283413D01*
X605848Y283371D01*
X605844Y283293D01*
X605831Y283216D01*
X605838Y283171D01*
X605835Y283125D01*
X605856Y283050D01*
X605868Y282973D01*
X605889Y282933D01*
X605902Y282888D01*
X605946Y282824D01*
X605982Y282755D01*
X606015Y282723D01*
X606040Y282685D01*
X606145Y282597D01*
X606159Y282584D01*
X606163Y282582D01*
X606169Y282577D01*
X606494Y282360D01*
X607480Y281374D01*
X608255Y280214D01*
X608789Y278925D01*
X609001Y277859D01*
X602979Y277859D01*
G37*
%LPD*%
%LPC*%
G36*
X602979Y290559D02*
X602979Y290559D01*
X602979Y301261D01*
X609001Y301261D01*
X608789Y300195D01*
X608255Y298906D01*
X607480Y297746D01*
X606494Y296760D01*
X606169Y296543D01*
X606135Y296512D01*
X606096Y296488D01*
X606046Y296428D01*
X605989Y296375D01*
X605967Y296335D01*
X605938Y296299D01*
X605909Y296227D01*
X605872Y296159D01*
X605864Y296113D01*
X605848Y296071D01*
X605844Y295993D01*
X605831Y295916D01*
X605838Y295871D01*
X605835Y295825D01*
X605856Y295750D01*
X605868Y295673D01*
X605889Y295632D01*
X605902Y295588D01*
X605946Y295524D01*
X605982Y295455D01*
X606015Y295423D01*
X606040Y295385D01*
X606145Y295297D01*
X606159Y295284D01*
X606163Y295282D01*
X606169Y295277D01*
X606494Y295060D01*
X607480Y294074D01*
X608255Y292914D01*
X608789Y291625D01*
X609001Y290559D01*
X602979Y290559D01*
G37*
%LPD*%
%LPC*%
G36*
X574639Y277859D02*
X574639Y277859D01*
X574851Y278925D01*
X575385Y280214D01*
X576160Y281374D01*
X577146Y282360D01*
X577471Y282577D01*
X577505Y282608D01*
X577544Y282632D01*
X577594Y282692D01*
X577651Y282745D01*
X577673Y282785D01*
X577702Y282820D01*
X577731Y282893D01*
X577768Y282961D01*
X577776Y283007D01*
X577792Y283049D01*
X577796Y283127D01*
X577809Y283204D01*
X577802Y283249D01*
X577805Y283295D01*
X577784Y283370D01*
X577772Y283447D01*
X577751Y283487D01*
X577738Y283532D01*
X577694Y283596D01*
X577658Y283665D01*
X577625Y283697D01*
X577600Y283735D01*
X577495Y283823D01*
X577481Y283836D01*
X577477Y283838D01*
X577471Y283843D01*
X577146Y284060D01*
X576160Y285046D01*
X575385Y286206D01*
X574851Y287495D01*
X574639Y288561D01*
X580661Y288561D01*
X580661Y277859D01*
X574639Y277859D01*
G37*
%LPD*%
%LPC*%
G36*
X574639Y290559D02*
X574639Y290559D01*
X574851Y291625D01*
X575385Y292914D01*
X576160Y294074D01*
X577146Y295060D01*
X577471Y295277D01*
X577505Y295308D01*
X577544Y295332D01*
X577594Y295392D01*
X577651Y295445D01*
X577673Y295485D01*
X577702Y295521D01*
X577731Y295593D01*
X577768Y295661D01*
X577776Y295707D01*
X577792Y295749D01*
X577796Y295827D01*
X577809Y295904D01*
X577802Y295949D01*
X577805Y295995D01*
X577784Y296070D01*
X577772Y296147D01*
X577751Y296188D01*
X577738Y296232D01*
X577694Y296296D01*
X577658Y296365D01*
X577625Y296397D01*
X577600Y296435D01*
X577495Y296523D01*
X577481Y296536D01*
X577477Y296538D01*
X577471Y296543D01*
X577146Y296760D01*
X576160Y297746D01*
X575385Y298906D01*
X574851Y300195D01*
X574639Y301261D01*
X580661Y301261D01*
X580661Y290559D01*
X574639Y290559D01*
G37*
%LPD*%
%LPC*%
G36*
X602979Y303259D02*
X602979Y303259D01*
X602979Y312691D01*
X609001Y312691D01*
X608789Y311625D01*
X608255Y310336D01*
X607480Y309176D01*
X606817Y308513D01*
X606805Y308497D01*
X606790Y308485D01*
X606734Y308397D01*
X606673Y308314D01*
X606668Y308295D01*
X606657Y308278D01*
X606631Y308177D01*
X606601Y308078D01*
X606602Y308059D01*
X606597Y308039D01*
X606605Y307936D01*
X606607Y307833D01*
X606614Y307814D01*
X606616Y307794D01*
X606656Y307699D01*
X606692Y307602D01*
X606704Y307586D01*
X606712Y307568D01*
X606817Y307437D01*
X607480Y306774D01*
X608255Y305614D01*
X608789Y304325D01*
X609001Y303259D01*
X602979Y303259D01*
G37*
%LPD*%
%LPC*%
G36*
X574639Y303259D02*
X574639Y303259D01*
X574851Y304325D01*
X575385Y305614D01*
X576160Y306774D01*
X576823Y307437D01*
X576835Y307453D01*
X576850Y307465D01*
X576906Y307553D01*
X576967Y307636D01*
X576972Y307655D01*
X576983Y307672D01*
X577009Y307773D01*
X577039Y307872D01*
X577038Y307891D01*
X577043Y307911D01*
X577035Y308014D01*
X577033Y308117D01*
X577026Y308136D01*
X577024Y308156D01*
X576984Y308251D01*
X576948Y308348D01*
X576936Y308364D01*
X576928Y308382D01*
X576823Y308513D01*
X576160Y309176D01*
X575385Y310336D01*
X574851Y311625D01*
X574639Y312691D01*
X580661Y312691D01*
X580661Y303259D01*
X574639Y303259D01*
G37*
%LPD*%
%LPC*%
G36*
X582659Y314689D02*
X582659Y314689D01*
X582659Y320711D01*
X583725Y320499D01*
X585014Y319965D01*
X586174Y319190D01*
X586202Y319162D01*
X586218Y319150D01*
X586230Y319135D01*
X586317Y319079D01*
X586401Y319018D01*
X586420Y319013D01*
X586437Y319002D01*
X586538Y318976D01*
X586636Y318946D01*
X586656Y318947D01*
X586676Y318942D01*
X586779Y318950D01*
X586882Y318952D01*
X586901Y318959D01*
X586921Y318961D01*
X587016Y319001D01*
X587113Y319037D01*
X587129Y319049D01*
X587147Y319057D01*
X587278Y319162D01*
X587306Y319190D01*
X588466Y319965D01*
X589755Y320499D01*
X590821Y320711D01*
X590821Y314689D01*
X582659Y314689D01*
G37*
%LPD*%
%LPC*%
G36*
X592819Y314689D02*
X592819Y314689D01*
X592819Y320711D01*
X593885Y320499D01*
X595174Y319965D01*
X596334Y319190D01*
X596362Y319162D01*
X596378Y319150D01*
X596390Y319135D01*
X596477Y319079D01*
X596561Y319018D01*
X596580Y319013D01*
X596597Y319002D01*
X596698Y318976D01*
X596796Y318946D01*
X596816Y318947D01*
X596836Y318942D01*
X596939Y318950D01*
X597042Y318952D01*
X597061Y318959D01*
X597081Y318961D01*
X597176Y319001D01*
X597273Y319037D01*
X597289Y319049D01*
X597307Y319057D01*
X597438Y319162D01*
X597466Y319190D01*
X598626Y319965D01*
X599915Y320499D01*
X600981Y320711D01*
X600981Y314689D01*
X592819Y314689D01*
G37*
%LPD*%
%LPC*%
G36*
X589755Y270051D02*
X589755Y270051D01*
X588466Y270585D01*
X587306Y271360D01*
X587278Y271388D01*
X587262Y271400D01*
X587250Y271415D01*
X587163Y271471D01*
X587079Y271532D01*
X587060Y271537D01*
X587043Y271548D01*
X586942Y271574D01*
X586844Y271604D01*
X586824Y271603D01*
X586804Y271608D01*
X586701Y271600D01*
X586598Y271598D01*
X586579Y271591D01*
X586559Y271589D01*
X586464Y271549D01*
X586367Y271513D01*
X586351Y271501D01*
X586333Y271493D01*
X586202Y271388D01*
X586174Y271360D01*
X585014Y270585D01*
X583725Y270051D01*
X582659Y269839D01*
X582659Y275861D01*
X590821Y275861D01*
X590821Y269839D01*
X589755Y270051D01*
G37*
%LPD*%
%LPC*%
G36*
X602979Y314689D02*
X602979Y314689D01*
X602979Y320711D01*
X604045Y320499D01*
X605334Y319965D01*
X606494Y319190D01*
X607480Y318204D01*
X608255Y317044D01*
X608789Y315755D01*
X609001Y314689D01*
X602979Y314689D01*
G37*
%LPD*%
%LPC*%
G36*
X574639Y314689D02*
X574639Y314689D01*
X574851Y315755D01*
X575385Y317044D01*
X576160Y318204D01*
X577146Y319190D01*
X578306Y319965D01*
X579595Y320499D01*
X580661Y320711D01*
X580661Y314689D01*
X574639Y314689D01*
G37*
%LPD*%
%LPC*%
G36*
X579595Y270051D02*
X579595Y270051D01*
X578306Y270585D01*
X577146Y271360D01*
X576160Y272346D01*
X575385Y273506D01*
X574851Y274795D01*
X574639Y275861D01*
X580661Y275861D01*
X580661Y269839D01*
X579595Y270051D01*
G37*
%LPD*%
%LPC*%
G36*
X466089Y582929D02*
X466089Y582929D01*
X466089Y582931D01*
X466091Y582931D01*
X466091Y582929D01*
X466089Y582929D01*
G37*
%LPD*%
%LPC*%
G36*
X544829Y582929D02*
X544829Y582929D01*
X544829Y582931D01*
X544831Y582931D01*
X544831Y582929D01*
X544829Y582929D01*
G37*
%LPD*%
%LPC*%
G36*
X353059Y138429D02*
X353059Y138429D01*
X353059Y138431D01*
X353061Y138431D01*
X353061Y138429D01*
X353059Y138429D01*
G37*
%LPD*%
%LPC*%
G36*
X378459Y138429D02*
X378459Y138429D01*
X378459Y138431D01*
X378461Y138431D01*
X378461Y138429D01*
X378459Y138429D01*
G37*
%LPD*%
D10*
X581660Y313690D03*
X591820Y313690D03*
X601980Y313690D03*
X591820Y276860D03*
X601980Y276860D03*
X581660Y276860D03*
X581660Y289560D03*
X591820Y289560D03*
X601980Y289560D03*
X601980Y302260D03*
X591820Y302260D03*
X581660Y302260D03*
D11*
X996950Y152400D03*
X996950Y231140D03*
X995680Y469900D03*
X995680Y391160D03*
X544830Y582930D03*
X466090Y582930D03*
D12*
X353060Y417830D03*
X378460Y417830D03*
X353060Y392430D03*
X378460Y392430D03*
X353060Y367030D03*
X378460Y367030D03*
X353060Y341630D03*
X378460Y341630D03*
X353060Y316230D03*
X378460Y316230D03*
X353060Y290830D03*
X378460Y290830D03*
X353060Y265430D03*
X378460Y265430D03*
X353060Y240030D03*
X378460Y240030D03*
X353060Y214630D03*
X378460Y214630D03*
X353060Y189230D03*
X378460Y189230D03*
X353060Y163830D03*
X378460Y163830D03*
X353060Y138430D03*
X378460Y138430D03*
D13*
X692150Y421640D03*
X693420Y200660D03*
D14*
X713740Y220980D01*
X713740Y255270D02*
X699770Y269240D01*
X684530Y269240D01*
D13*
X684530Y269240D03*
D14*
X713740Y255270D02*
X713740Y220980D01*
X716280Y397510D02*
X692150Y421640D01*
X716280Y336550D02*
X708660Y328930D01*
X670560Y328930D01*
X669290Y330200D01*
D13*
X669290Y330200D03*
D14*
X716280Y336550D02*
X716280Y397510D01*
D15*
X937260Y299720D03*
X683260Y127000D03*
X731520Y120650D03*
X683260Y241300D03*
X721360Y284480D03*
X737870Y354330D03*
X692150Y372110D03*
X751840Y250190D03*
X972820Y547370D03*
X585470Y358140D03*
X594360Y358140D03*
X608330Y358140D03*
X627380Y359410D03*
X585470Y375920D03*
X600710Y374650D03*
X622300Y375920D03*
X560070Y492760D03*
X558800Y477520D03*
X554990Y450850D03*
X535940Y430530D03*
X532130Y494030D03*
X530860Y476250D03*
X521970Y461010D03*
X509270Y444500D03*
X566420Y200660D03*
X467360Y166370D03*
X577850Y137160D03*
X488950Y99060D03*
X582930Y43180D03*
X361950Y88900D03*
X341630Y38100D03*
X85090Y57150D03*
X210820Y54610D03*
X13970Y424180D03*
X33020Y356870D03*
X33020Y345440D03*
X13970Y435610D03*
X29210Y213360D03*
X46990Y572770D03*
X300990Y590550D03*
X318770Y508000D03*
X410210Y486410D03*
X450850Y377190D03*
X463550Y341630D03*
X463550Y330200D03*
X453390Y318770D03*
X454660Y308610D03*
X497840Y389890D03*
X506730Y389890D03*
X520700Y403860D03*
X530860Y403860D03*
X699770Y632460D03*
X712470Y632460D03*
X723900Y632460D03*
X802640Y632460D03*
X812800Y632460D03*
X822960Y632460D03*
X833120Y632460D03*
X734060Y632460D03*
X167640Y383540D03*
X184150Y391160D03*
X242570Y416560D03*
X260350Y410210D03*
X245110Y320040D03*
X264160Y309880D03*
X237490Y290830D03*
X307340Y288290D03*
X43180Y149860D03*
X74930Y295910D03*
X134620Y363220D03*
X151130Y354330D03*
X547370Y228600D03*
X581660Y229870D03*
X924560Y52070D03*
X916940Y38100D03*
X902970Y25400D03*
X657860Y62230D03*
X655320Y41910D03*
X659130Y20320D03*
X641350Y53340D03*
X640080Y29210D03*
X939800Y40640D03*
X923290Y21590D03*
X920750Y594360D03*
X922020Y582930D03*
X916940Y614680D03*
X240030Y227330D03*
X237490Y200660D03*
X316230Y198120D03*
X318770Y227330D03*
X321310Y251460D03*
D13*
X492760Y237490D03*
D14*
X492760Y271780D01*
X521970Y300990D01*
X521970Y325120D01*
X518160Y328930D01*
D13*
X518160Y328930D03*
X292100Y417830D03*
D16*
X289560Y415290D01*
X289560Y355600D01*
D13*
X289560Y355600D03*
X299720Y393700D03*
D16*
X299720Y443230D01*
D13*
X299720Y443230D03*
X124460Y441960D03*
D16*
X124460Y288290D01*
X116840Y280670D01*
D13*
X116840Y280670D03*
X304800Y341630D03*
D16*
X294640Y331470D01*
X294640Y261620D01*
D13*
X294640Y261620D03*
X318770Y316230D03*
D16*
X318770Y377190D01*
X316230Y379730D01*
D13*
X316230Y379730D03*
X330200Y292100D03*
D16*
X330200Y374650D01*
X331470Y375920D01*
D13*
X331470Y375920D03*
X191770Y254000D03*
D16*
X191770Y330200D01*
D13*
X191770Y330200D03*
X182880Y242570D03*
D16*
X182880Y321310D01*
D13*
X182880Y321310D03*
X195580Y215900D03*
D16*
X200660Y220980D01*
X200660Y341630D01*
X198120Y344170D01*
D13*
X198120Y344170D03*
X172720Y201930D03*
D16*
X172720Y309880D01*
X168910Y313690D01*
D13*
X168910Y313690D03*
X284480Y163830D03*
X273050Y370840D03*
D16*
X281940Y166370D02*
X284480Y163830D01*
X281940Y361950D02*
X273050Y370840D01*
X281940Y361950D02*
X281940Y166370D01*
D13*
X203200Y457200D03*
D17*
X212090Y448310D01*
X212090Y422910D01*
D13*
X212090Y422910D03*
X101600Y499110D03*
D14*
X80010Y477520D01*
X80010Y382270D01*
D13*
X80010Y382270D03*
X96520Y513080D03*
D14*
X71120Y487680D01*
X71120Y372110D01*
D13*
X71120Y372110D03*
X666750Y448310D03*
D16*
X666750Y358140D01*
X664210Y355600D01*
D13*
X664210Y355600D03*
X840740Y443230D03*
D16*
X840740Y389890D01*
X839470Y388620D01*
D13*
X839470Y388620D03*
X749300Y421640D03*
D14*
X748030Y421640D01*
X722630Y396240D01*
X722630Y334010D02*
X711200Y322580D01*
X662940Y322580D01*
X660400Y325120D01*
D13*
X660400Y325120D03*
D14*
X722630Y334010D02*
X722630Y396240D01*
D13*
X753110Y327660D03*
D16*
X730250Y327660D01*
X717550Y314960D01*
X678180Y314960D01*
D13*
X678180Y314960D03*
D16*
X995680Y330200D02*
X995680Y391160D01*
X995680Y330200D02*
X989330Y323850D01*
D13*
X989330Y323850D03*
X753110Y307340D03*
D16*
X742950Y297180D01*
X684530Y297180D02*
X681990Y299720D01*
D13*
X681990Y299720D03*
D16*
X684530Y297180D02*
X742950Y297180D01*
D13*
X651510Y448310D03*
D16*
X648970Y445770D01*
X648970Y351790D01*
D13*
X648970Y351790D03*
X751840Y317572D03*
D16*
X741752Y317572D01*
X732790Y308610D01*
X689327Y308610D01*
X688347Y307630D01*
D13*
X688347Y307630D03*
D18*
X544830Y463550D02*
X544830Y582930D01*
X544830Y463550D02*
X485140Y403860D01*
X485140Y389890D01*
D13*
X485140Y358140D03*
D18*
X485140Y379730D02*
X485140Y389890D01*
X485140Y379730D02*
X485140Y369570D01*
X485140Y358140D01*
D13*
X485140Y369570D03*
X485140Y379730D03*
X485140Y389890D03*
D15*
X695960Y571500D03*
X695960Y560070D03*
X695960Y548640D03*
X734060Y576580D03*
X734060Y563880D03*
X734060Y549910D03*
X763270Y571500D03*
X762000Y551180D03*
X802640Y572770D03*
X802640Y560070D03*
X802640Y548640D03*
X833120Y572770D03*
X831850Y562610D03*
X833120Y551180D03*
X878840Y565150D03*
X881380Y552450D03*
X862330Y558800D03*
X692150Y97790D03*
X692150Y87630D03*
X690880Y77470D03*
X716280Y96520D03*
X716280Y86360D03*
X716280Y74930D03*
X746760Y87630D03*
X791210Y99060D03*
X791210Y88900D03*
X791210Y77470D03*
X819150Y99060D03*
X819150Y88900D03*
X819150Y77470D03*
X843280Y88900D03*
X873760Y514350D03*
X883920Y514350D03*
X873760Y501650D03*
X883920Y501650D03*
X854710Y515620D03*
X854710Y506730D03*
X854710Y497840D03*
X875030Y360680D03*
X885190Y360680D03*
X875030Y349250D03*
X885190Y349250D03*
X854710Y361950D03*
X854710Y353060D03*
X854710Y344170D03*
X868680Y281940D03*
X878840Y281940D03*
X878840Y271780D03*
X868680Y271780D03*
X848360Y285750D03*
X848360Y276860D03*
X848360Y266700D03*
X869950Y137160D03*
X880110Y137160D03*
X869950Y125730D03*
X880110Y125730D03*
X852170Y139700D03*
X852170Y130810D03*
X852170Y121920D03*
D13*
X690880Y167640D03*
D16*
X687070Y171450D01*
X680720Y171450D01*
X665480Y186690D01*
D13*
X675640Y288290D03*
D16*
X674576Y288290D01*
X665480Y279194D01*
X665480Y186690D01*
X996950Y231140D02*
X996950Y303530D01*
X989330Y311150D01*
D13*
X989330Y311150D03*
X701040Y160020D03*
D16*
X680720Y160020D01*
X657860Y182880D01*
X657860Y281940D01*
X660400Y284480D01*
D13*
X660400Y284480D03*
X725170Y151130D03*
D16*
X648970Y180340D02*
X648970Y282436D01*
D13*
X648970Y282436D03*
D16*
X678180Y151130D02*
X725170Y151130D01*
X678180Y151130D02*
X648970Y180340D01*
D13*
X755360Y284480D03*
D16*
X751840Y284480D01*
X731520Y264160D01*
D13*
X731520Y264160D03*
X836930Y215900D03*
D16*
X836930Y161290D01*
D13*
X836930Y161290D03*
X744220Y161290D03*
D16*
X744220Y147320D01*
X737870Y140970D01*
X675640Y140970D01*
X604520Y212090D02*
X604520Y265430D01*
D13*
X604520Y265430D03*
D16*
X604520Y212090D02*
X675640Y140970D01*
D13*
X748030Y200660D03*
D14*
X740410Y200660D01*
X720090Y220980D01*
X720090Y257810D02*
X703580Y274320D01*
X692150Y274320D01*
X687070Y279400D01*
D13*
X687070Y279400D03*
D14*
X720090Y257810D02*
X720090Y220980D01*
M02*
