G04 EAGLE Gerber RS-274X export*
G75*
%MOMM*%
%FSLAX34Y34*%
%LPD*%
%INSoldermask Bottom*%
%IPPOS*%
%AMOC8*
5,1,8,0,0,1.08239X$1,22.5*%
G01*
%ADD10C,1.111200*%
%ADD11C,4.394200*%
%ADD12P,2.254402X8X292.500000*%
%ADD13C,1.059600*%
%ADD14C,0.959600*%


D10*
X581660Y313690D03*
X591820Y313690D03*
X601980Y313690D03*
X591820Y276860D03*
X601980Y276860D03*
X581660Y276860D03*
X581660Y289560D03*
X591820Y289560D03*
X601980Y289560D03*
X601980Y302260D03*
X591820Y302260D03*
X581660Y302260D03*
D11*
X996950Y152400D03*
X996950Y231140D03*
X995680Y469900D03*
X995680Y391160D03*
X544830Y582930D03*
X466090Y582930D03*
D12*
X353060Y417830D03*
X378460Y417830D03*
X353060Y392430D03*
X378460Y392430D03*
X353060Y367030D03*
X378460Y367030D03*
X353060Y341630D03*
X378460Y341630D03*
X353060Y316230D03*
X378460Y316230D03*
X353060Y290830D03*
X378460Y290830D03*
X353060Y265430D03*
X378460Y265430D03*
X353060Y240030D03*
X378460Y240030D03*
X353060Y214630D03*
X378460Y214630D03*
X353060Y189230D03*
X378460Y189230D03*
X353060Y163830D03*
X378460Y163830D03*
X353060Y138430D03*
X378460Y138430D03*
D13*
X692150Y421640D03*
X693420Y200660D03*
X684530Y269240D03*
X669290Y330200D03*
D14*
X937260Y299720D03*
X683260Y127000D03*
X731520Y120650D03*
X683260Y241300D03*
X721360Y284480D03*
X737870Y354330D03*
X692150Y372110D03*
X751840Y250190D03*
X972820Y547370D03*
X585470Y358140D03*
X594360Y358140D03*
X608330Y358140D03*
X627380Y359410D03*
X585470Y375920D03*
X600710Y374650D03*
X622300Y375920D03*
X560070Y492760D03*
X558800Y477520D03*
X554990Y450850D03*
X535940Y430530D03*
X532130Y494030D03*
X530860Y476250D03*
X521970Y461010D03*
X509270Y444500D03*
X566420Y200660D03*
X467360Y166370D03*
X577850Y137160D03*
X488950Y99060D03*
X582930Y43180D03*
X361950Y88900D03*
X341630Y38100D03*
X85090Y57150D03*
X210820Y54610D03*
X13970Y424180D03*
X33020Y356870D03*
X33020Y345440D03*
X13970Y435610D03*
X29210Y213360D03*
X46990Y572770D03*
X300990Y590550D03*
X318770Y508000D03*
X410210Y486410D03*
X450850Y377190D03*
X463550Y341630D03*
X463550Y330200D03*
X453390Y318770D03*
X454660Y308610D03*
X497840Y389890D03*
X506730Y389890D03*
X520700Y403860D03*
X530860Y403860D03*
X699770Y632460D03*
X712470Y632460D03*
X723900Y632460D03*
X802640Y632460D03*
X812800Y632460D03*
X822960Y632460D03*
X833120Y632460D03*
X734060Y632460D03*
X167640Y383540D03*
X184150Y391160D03*
X242570Y416560D03*
X260350Y410210D03*
X245110Y320040D03*
X264160Y309880D03*
X237490Y290830D03*
X307340Y288290D03*
X43180Y149860D03*
X74930Y295910D03*
X134620Y363220D03*
X151130Y354330D03*
X547370Y228600D03*
X581660Y229870D03*
X924560Y52070D03*
X916940Y38100D03*
X902970Y25400D03*
X657860Y62230D03*
X655320Y41910D03*
X659130Y20320D03*
X641350Y53340D03*
X640080Y29210D03*
X939800Y40640D03*
X923290Y21590D03*
X920750Y594360D03*
X922020Y582930D03*
X916940Y614680D03*
X240030Y227330D03*
X237490Y200660D03*
X316230Y198120D03*
X318770Y227330D03*
X321310Y251460D03*
D13*
X492760Y237490D03*
X518160Y328930D03*
X292100Y417830D03*
X289560Y355600D03*
X299720Y393700D03*
X299720Y443230D03*
X124460Y441960D03*
X116840Y280670D03*
X304800Y341630D03*
X294640Y261620D03*
X318770Y316230D03*
X316230Y379730D03*
X330200Y292100D03*
X331470Y375920D03*
X191770Y254000D03*
X191770Y330200D03*
X182880Y242570D03*
X182880Y321310D03*
X195580Y215900D03*
X198120Y344170D03*
X172720Y201930D03*
X168910Y313690D03*
X284480Y163830D03*
X273050Y370840D03*
X203200Y457200D03*
X212090Y422910D03*
X101600Y499110D03*
X80010Y382270D03*
X96520Y513080D03*
X71120Y372110D03*
X666750Y448310D03*
X664210Y355600D03*
X840740Y443230D03*
X839470Y388620D03*
X749300Y421640D03*
X660400Y325120D03*
X753110Y327660D03*
X678180Y314960D03*
X989330Y323850D03*
X753110Y307340D03*
X681990Y299720D03*
X651510Y448310D03*
X648970Y351790D03*
X751840Y317572D03*
X688347Y307630D03*
X485140Y358140D03*
X485140Y369570D03*
X485140Y379730D03*
X485140Y389890D03*
D14*
X695960Y571500D03*
X695960Y560070D03*
X695960Y548640D03*
X734060Y576580D03*
X734060Y563880D03*
X734060Y549910D03*
X763270Y571500D03*
X762000Y551180D03*
X802640Y572770D03*
X802640Y560070D03*
X802640Y548640D03*
X833120Y572770D03*
X831850Y562610D03*
X833120Y551180D03*
X878840Y565150D03*
X881380Y552450D03*
X862330Y558800D03*
X692150Y97790D03*
X692150Y87630D03*
X690880Y77470D03*
X716280Y96520D03*
X716280Y86360D03*
X716280Y74930D03*
X746760Y87630D03*
X791210Y99060D03*
X791210Y88900D03*
X791210Y77470D03*
X819150Y99060D03*
X819150Y88900D03*
X819150Y77470D03*
X843280Y88900D03*
X873760Y514350D03*
X883920Y514350D03*
X873760Y501650D03*
X883920Y501650D03*
X854710Y515620D03*
X854710Y506730D03*
X854710Y497840D03*
X875030Y360680D03*
X885190Y360680D03*
X875030Y349250D03*
X885190Y349250D03*
X854710Y361950D03*
X854710Y353060D03*
X854710Y344170D03*
X868680Y281940D03*
X878840Y281940D03*
X878840Y271780D03*
X868680Y271780D03*
X848360Y285750D03*
X848360Y276860D03*
X848360Y266700D03*
X869950Y137160D03*
X880110Y137160D03*
X869950Y125730D03*
X880110Y125730D03*
X852170Y139700D03*
X852170Y130810D03*
X852170Y121920D03*
D13*
X690880Y167640D03*
X675640Y288290D03*
X989330Y311150D03*
X701040Y160020D03*
X660400Y284480D03*
X725170Y151130D03*
X648970Y282436D03*
X755360Y284480D03*
X731520Y264160D03*
X836930Y215900D03*
X836930Y161290D03*
X744220Y161290D03*
X604520Y265430D03*
X748030Y200660D03*
X687070Y279400D03*
M02*
