G04 EAGLE Gerber RS-274X export*
G75*
%MOMM*%
%FSLAX34Y34*%
%LPD*%
%INSolderpaste Top*%
%IPPOS*%
%AMOC8*
5,1,8,0,0,1.08239X$1,22.5*%
G01*
%ADD10R,1.100000X1.000000*%
%ADD11R,1.000000X2.950000*%
%ADD12R,1.000000X1.100000*%
%ADD13R,1.800000X3.200000*%
%ADD14R,1.500000X0.300000*%
%ADD15R,2.900000X4.700000*%
%ADD16R,1.500000X0.500000*%
%ADD17R,0.500000X1.500000*%
%ADD18R,0.400000X1.350000*%
%ADD19R,2.100000X1.600000*%
%ADD20R,1.800000X1.900000*%
%ADD21R,1.900000X1.900000*%
%ADD22R,5.500000X1.500000*%
%ADD23R,0.635000X0.304800*%

G36*
X872746Y398131D02*
X872746Y398131D01*
X872749Y398130D01*
X872832Y398167D01*
X874246Y399581D01*
X874248Y399584D01*
X874250Y399585D01*
X874283Y399670D01*
X874283Y402716D01*
X874282Y402719D01*
X874283Y402722D01*
X874246Y402805D01*
X872832Y404219D01*
X872829Y404221D01*
X872828Y404223D01*
X872743Y404256D01*
X869697Y404256D01*
X869694Y404255D01*
X869691Y404256D01*
X869608Y404219D01*
X868194Y402805D01*
X868193Y402802D01*
X868190Y402801D01*
X868157Y402716D01*
X868157Y399670D01*
X868158Y399667D01*
X868157Y399664D01*
X868194Y399581D01*
X869608Y398167D01*
X869611Y398166D01*
X869612Y398163D01*
X869697Y398130D01*
X872743Y398130D01*
X872746Y398131D01*
G37*
G36*
X880366Y355205D02*
X880366Y355205D01*
X880369Y355204D01*
X880452Y355241D01*
X881866Y356655D01*
X881868Y356658D01*
X881870Y356659D01*
X881903Y356744D01*
X881903Y359790D01*
X881902Y359793D01*
X881903Y359796D01*
X881866Y359879D01*
X880452Y361293D01*
X880449Y361295D01*
X880448Y361297D01*
X880363Y361330D01*
X877317Y361330D01*
X877314Y361329D01*
X877311Y361330D01*
X877228Y361293D01*
X875814Y359879D01*
X875813Y359876D01*
X875810Y359875D01*
X875777Y359790D01*
X875777Y356744D01*
X875778Y356741D01*
X875777Y356738D01*
X875814Y356655D01*
X877228Y355241D01*
X877231Y355240D01*
X877232Y355237D01*
X877317Y355204D01*
X880363Y355204D01*
X880366Y355205D01*
G37*
G36*
X875286Y267321D02*
X875286Y267321D01*
X875289Y267320D01*
X875372Y267357D01*
X876786Y268771D01*
X876788Y268774D01*
X876790Y268775D01*
X876823Y268860D01*
X876823Y271906D01*
X876822Y271909D01*
X876823Y271912D01*
X876786Y271995D01*
X875372Y273409D01*
X875369Y273411D01*
X875368Y273413D01*
X875283Y273446D01*
X872237Y273446D01*
X872234Y273445D01*
X872231Y273446D01*
X872148Y273409D01*
X870734Y271995D01*
X870733Y271992D01*
X870730Y271991D01*
X870697Y271906D01*
X870697Y268860D01*
X870698Y268857D01*
X870697Y268854D01*
X870734Y268771D01*
X872148Y267357D01*
X872151Y267356D01*
X872152Y267353D01*
X872237Y267320D01*
X875283Y267320D01*
X875286Y267321D01*
G37*
G36*
X872746Y448931D02*
X872746Y448931D01*
X872749Y448930D01*
X872832Y448967D01*
X874246Y450381D01*
X874248Y450384D01*
X874250Y450385D01*
X874283Y450470D01*
X874283Y453516D01*
X874282Y453519D01*
X874283Y453522D01*
X874246Y453605D01*
X872832Y455019D01*
X872829Y455021D01*
X872828Y455023D01*
X872743Y455056D01*
X869697Y455056D01*
X869694Y455055D01*
X869691Y455056D01*
X869608Y455019D01*
X868194Y453605D01*
X868193Y453602D01*
X868190Y453601D01*
X868157Y453516D01*
X868157Y450470D01*
X868158Y450467D01*
X868157Y450464D01*
X868194Y450381D01*
X869608Y448967D01*
X869611Y448966D01*
X869612Y448963D01*
X869697Y448930D01*
X872743Y448930D01*
X872746Y448931D01*
G37*
G36*
X872746Y456805D02*
X872746Y456805D01*
X872749Y456804D01*
X872832Y456841D01*
X874246Y458255D01*
X874248Y458258D01*
X874250Y458259D01*
X874283Y458344D01*
X874283Y461390D01*
X874282Y461393D01*
X874283Y461396D01*
X874246Y461479D01*
X872832Y462893D01*
X872829Y462895D01*
X872828Y462897D01*
X872743Y462930D01*
X869697Y462930D01*
X869694Y462929D01*
X869691Y462930D01*
X869608Y462893D01*
X868194Y461479D01*
X868193Y461476D01*
X868190Y461475D01*
X868157Y461390D01*
X868157Y458344D01*
X868158Y458341D01*
X868157Y458338D01*
X868194Y458255D01*
X869608Y456841D01*
X869611Y456840D01*
X869612Y456837D01*
X869697Y456804D01*
X872743Y456804D01*
X872746Y456805D01*
G37*
G36*
X880366Y347331D02*
X880366Y347331D01*
X880369Y347330D01*
X880452Y347367D01*
X881866Y348781D01*
X881868Y348784D01*
X881870Y348785D01*
X881903Y348870D01*
X881903Y351916D01*
X881902Y351919D01*
X881903Y351922D01*
X881866Y352005D01*
X880452Y353419D01*
X880449Y353421D01*
X880448Y353423D01*
X880363Y353456D01*
X877317Y353456D01*
X877314Y353455D01*
X877311Y353456D01*
X877228Y353419D01*
X875814Y352005D01*
X875813Y352002D01*
X875810Y352001D01*
X875777Y351916D01*
X875777Y348870D01*
X875778Y348867D01*
X875777Y348864D01*
X875814Y348781D01*
X877228Y347367D01*
X877231Y347366D01*
X877232Y347363D01*
X877317Y347330D01*
X880363Y347330D01*
X880366Y347331D01*
G37*
G36*
X880366Y499731D02*
X880366Y499731D01*
X880369Y499730D01*
X880452Y499767D01*
X881866Y501181D01*
X881868Y501184D01*
X881870Y501185D01*
X881903Y501270D01*
X881903Y504316D01*
X881902Y504319D01*
X881903Y504322D01*
X881866Y504405D01*
X880452Y505819D01*
X880449Y505821D01*
X880448Y505823D01*
X880363Y505856D01*
X877317Y505856D01*
X877314Y505855D01*
X877311Y505856D01*
X877228Y505819D01*
X875814Y504405D01*
X875813Y504402D01*
X875810Y504401D01*
X875777Y504316D01*
X875777Y501270D01*
X875778Y501267D01*
X875777Y501264D01*
X875814Y501181D01*
X877228Y499767D01*
X877231Y499766D01*
X877232Y499763D01*
X877317Y499730D01*
X880363Y499730D01*
X880366Y499731D01*
G37*
G36*
X880366Y507605D02*
X880366Y507605D01*
X880369Y507604D01*
X880452Y507641D01*
X881866Y509055D01*
X881868Y509058D01*
X881870Y509059D01*
X881903Y509144D01*
X881903Y512190D01*
X881902Y512193D01*
X881903Y512196D01*
X881866Y512279D01*
X880452Y513693D01*
X880449Y513695D01*
X880448Y513697D01*
X880363Y513730D01*
X877317Y513730D01*
X877314Y513729D01*
X877311Y513730D01*
X877228Y513693D01*
X875814Y512279D01*
X875813Y512276D01*
X875810Y512275D01*
X875777Y512190D01*
X875777Y509144D01*
X875778Y509141D01*
X875777Y509138D01*
X875814Y509055D01*
X877228Y507641D01*
X877231Y507640D01*
X877232Y507637D01*
X877317Y507604D01*
X880363Y507604D01*
X880366Y507605D01*
G37*
G36*
X875286Y275195D02*
X875286Y275195D01*
X875289Y275194D01*
X875372Y275231D01*
X876786Y276645D01*
X876788Y276648D01*
X876790Y276649D01*
X876823Y276734D01*
X876823Y279780D01*
X876822Y279783D01*
X876823Y279786D01*
X876786Y279869D01*
X875372Y281283D01*
X875369Y281285D01*
X875368Y281287D01*
X875283Y281320D01*
X872237Y281320D01*
X872234Y281319D01*
X872231Y281320D01*
X872148Y281283D01*
X870734Y279869D01*
X870733Y279866D01*
X870730Y279865D01*
X870697Y279780D01*
X870697Y276734D01*
X870698Y276731D01*
X870697Y276728D01*
X870734Y276645D01*
X872148Y275231D01*
X872151Y275230D01*
X872152Y275227D01*
X872237Y275194D01*
X875283Y275194D01*
X875286Y275195D01*
G37*
G36*
X872746Y406005D02*
X872746Y406005D01*
X872749Y406004D01*
X872832Y406041D01*
X874246Y407455D01*
X874248Y407458D01*
X874250Y407459D01*
X874283Y407544D01*
X874283Y410590D01*
X874282Y410593D01*
X874283Y410596D01*
X874246Y410679D01*
X872832Y412093D01*
X872829Y412095D01*
X872828Y412097D01*
X872743Y412130D01*
X869697Y412130D01*
X869694Y412129D01*
X869691Y412130D01*
X869608Y412093D01*
X868194Y410679D01*
X868193Y410676D01*
X868190Y410675D01*
X868157Y410590D01*
X868157Y407544D01*
X868158Y407541D01*
X868157Y407538D01*
X868194Y407455D01*
X869608Y406041D01*
X869611Y406040D01*
X869612Y406037D01*
X869697Y406004D01*
X872743Y406004D01*
X872746Y406005D01*
G37*
G36*
X872746Y226935D02*
X872746Y226935D01*
X872749Y226934D01*
X872832Y226971D01*
X874246Y228385D01*
X874248Y228388D01*
X874250Y228389D01*
X874283Y228474D01*
X874283Y231520D01*
X874282Y231523D01*
X874283Y231526D01*
X874246Y231609D01*
X872832Y233023D01*
X872829Y233025D01*
X872828Y233027D01*
X872743Y233060D01*
X869697Y233060D01*
X869694Y233059D01*
X869691Y233060D01*
X869608Y233023D01*
X868194Y231609D01*
X868193Y231606D01*
X868190Y231605D01*
X868157Y231520D01*
X868157Y228474D01*
X868158Y228471D01*
X868157Y228468D01*
X868194Y228385D01*
X869608Y226971D01*
X869611Y226970D01*
X869612Y226967D01*
X869697Y226934D01*
X872743Y226934D01*
X872746Y226935D01*
G37*
G36*
X872746Y219061D02*
X872746Y219061D01*
X872749Y219060D01*
X872832Y219097D01*
X874246Y220511D01*
X874248Y220514D01*
X874250Y220515D01*
X874283Y220600D01*
X874283Y223646D01*
X874282Y223649D01*
X874283Y223652D01*
X874246Y223735D01*
X872832Y225149D01*
X872829Y225151D01*
X872828Y225153D01*
X872743Y225186D01*
X869697Y225186D01*
X869694Y225185D01*
X869691Y225186D01*
X869608Y225149D01*
X868194Y223735D01*
X868193Y223732D01*
X868190Y223731D01*
X868157Y223646D01*
X868157Y220600D01*
X868158Y220597D01*
X868157Y220594D01*
X868194Y220511D01*
X869608Y219097D01*
X869611Y219096D01*
X869612Y219093D01*
X869697Y219060D01*
X872743Y219060D01*
X872746Y219061D01*
G37*
G36*
X871476Y177405D02*
X871476Y177405D01*
X871479Y177404D01*
X871562Y177441D01*
X872976Y178855D01*
X872978Y178858D01*
X872980Y178859D01*
X873013Y178944D01*
X873013Y181990D01*
X873012Y181993D01*
X873013Y181996D01*
X872976Y182079D01*
X871562Y183493D01*
X871559Y183495D01*
X871558Y183497D01*
X871473Y183530D01*
X868427Y183530D01*
X868424Y183529D01*
X868421Y183530D01*
X868338Y183493D01*
X866924Y182079D01*
X866923Y182076D01*
X866920Y182075D01*
X866887Y181990D01*
X866887Y178944D01*
X866888Y178941D01*
X866887Y178938D01*
X866924Y178855D01*
X868338Y177441D01*
X868341Y177440D01*
X868342Y177437D01*
X868427Y177404D01*
X871473Y177404D01*
X871476Y177405D01*
G37*
G36*
X871476Y169531D02*
X871476Y169531D01*
X871479Y169530D01*
X871562Y169567D01*
X872976Y170981D01*
X872978Y170984D01*
X872980Y170985D01*
X873013Y171070D01*
X873013Y174116D01*
X873012Y174119D01*
X873013Y174122D01*
X872976Y174205D01*
X871562Y175619D01*
X871559Y175621D01*
X871558Y175623D01*
X871473Y175656D01*
X868427Y175656D01*
X868424Y175655D01*
X868421Y175656D01*
X868338Y175619D01*
X866924Y174205D01*
X866923Y174202D01*
X866920Y174201D01*
X866887Y174116D01*
X866887Y171070D01*
X866888Y171067D01*
X866887Y171064D01*
X866924Y170981D01*
X868338Y169567D01*
X868341Y169566D01*
X868342Y169563D01*
X868427Y169530D01*
X871473Y169530D01*
X871476Y169531D01*
G37*
G36*
X876556Y130415D02*
X876556Y130415D01*
X876559Y130414D01*
X876642Y130451D01*
X878056Y131865D01*
X878058Y131868D01*
X878060Y131869D01*
X878093Y131954D01*
X878093Y135000D01*
X878092Y135003D01*
X878093Y135006D01*
X878056Y135089D01*
X876642Y136503D01*
X876639Y136505D01*
X876638Y136507D01*
X876553Y136540D01*
X873507Y136540D01*
X873504Y136539D01*
X873501Y136540D01*
X873418Y136503D01*
X872004Y135089D01*
X872003Y135086D01*
X872000Y135085D01*
X871967Y135000D01*
X871967Y131954D01*
X871968Y131951D01*
X871967Y131948D01*
X872004Y131865D01*
X873418Y130451D01*
X873421Y130450D01*
X873422Y130447D01*
X873507Y130414D01*
X876553Y130414D01*
X876556Y130415D01*
G37*
G36*
X876556Y122541D02*
X876556Y122541D01*
X876559Y122540D01*
X876642Y122577D01*
X878056Y123991D01*
X878058Y123994D01*
X878060Y123995D01*
X878093Y124080D01*
X878093Y127126D01*
X878092Y127129D01*
X878093Y127132D01*
X878056Y127215D01*
X876642Y128629D01*
X876639Y128631D01*
X876638Y128633D01*
X876553Y128666D01*
X873507Y128666D01*
X873504Y128665D01*
X873501Y128666D01*
X873418Y128629D01*
X872004Y127215D01*
X872003Y127212D01*
X872000Y127211D01*
X871967Y127126D01*
X871967Y124080D01*
X871968Y124077D01*
X871967Y124074D01*
X872004Y123991D01*
X873418Y122577D01*
X873421Y122576D01*
X873422Y122573D01*
X873507Y122540D01*
X876553Y122540D01*
X876556Y122541D01*
G37*
G36*
X856230Y400231D02*
X856230Y400231D01*
X856232Y400230D01*
X856275Y400250D01*
X856319Y400268D01*
X856319Y400270D01*
X856321Y400271D01*
X856354Y400356D01*
X856354Y403404D01*
X856353Y403406D01*
X856354Y403408D01*
X856334Y403451D01*
X856316Y403495D01*
X856314Y403495D01*
X856313Y403497D01*
X856228Y403530D01*
X850132Y403530D01*
X850130Y403529D01*
X850128Y403530D01*
X850085Y403510D01*
X850041Y403492D01*
X850041Y403490D01*
X850039Y403489D01*
X850006Y403404D01*
X850006Y400356D01*
X850007Y400354D01*
X850006Y400352D01*
X850026Y400309D01*
X850044Y400265D01*
X850046Y400265D01*
X850047Y400263D01*
X850132Y400230D01*
X856228Y400230D01*
X856230Y400231D01*
G37*
G36*
X868930Y501831D02*
X868930Y501831D01*
X868932Y501830D01*
X868975Y501850D01*
X869019Y501868D01*
X869019Y501870D01*
X869021Y501871D01*
X869054Y501956D01*
X869054Y505004D01*
X869053Y505006D01*
X869054Y505008D01*
X869034Y505051D01*
X869016Y505095D01*
X869014Y505095D01*
X869013Y505097D01*
X868928Y505130D01*
X862832Y505130D01*
X862830Y505129D01*
X862828Y505130D01*
X862785Y505110D01*
X862741Y505092D01*
X862741Y505090D01*
X862739Y505089D01*
X862706Y505004D01*
X862706Y501956D01*
X862707Y501954D01*
X862706Y501952D01*
X862726Y501909D01*
X862744Y501865D01*
X862746Y501865D01*
X862747Y501863D01*
X862832Y501830D01*
X868928Y501830D01*
X868930Y501831D01*
G37*
G36*
X899930Y501831D02*
X899930Y501831D01*
X899932Y501830D01*
X899975Y501850D01*
X900019Y501868D01*
X900019Y501870D01*
X900021Y501871D01*
X900054Y501956D01*
X900054Y505004D01*
X900053Y505006D01*
X900054Y505008D01*
X900034Y505051D01*
X900016Y505095D01*
X900014Y505095D01*
X900013Y505097D01*
X899928Y505130D01*
X893832Y505130D01*
X893830Y505129D01*
X893828Y505130D01*
X893785Y505110D01*
X893741Y505092D01*
X893741Y505090D01*
X893739Y505089D01*
X893706Y505004D01*
X893706Y501956D01*
X893707Y501954D01*
X893706Y501952D01*
X893726Y501909D01*
X893744Y501865D01*
X893746Y501865D01*
X893747Y501863D01*
X893832Y501830D01*
X899928Y501830D01*
X899930Y501831D01*
G37*
G36*
X899930Y495331D02*
X899930Y495331D01*
X899932Y495330D01*
X899975Y495350D01*
X900019Y495368D01*
X900019Y495370D01*
X900021Y495371D01*
X900054Y495456D01*
X900054Y498504D01*
X900053Y498506D01*
X900054Y498508D01*
X900034Y498551D01*
X900016Y498595D01*
X900014Y498595D01*
X900013Y498597D01*
X899928Y498630D01*
X893832Y498630D01*
X893830Y498629D01*
X893828Y498630D01*
X893785Y498610D01*
X893741Y498592D01*
X893741Y498590D01*
X893739Y498589D01*
X893706Y498504D01*
X893706Y495456D01*
X893707Y495454D01*
X893706Y495452D01*
X893726Y495409D01*
X893744Y495365D01*
X893746Y495365D01*
X893747Y495363D01*
X893832Y495330D01*
X899928Y495330D01*
X899930Y495331D01*
G37*
G36*
X899930Y362431D02*
X899930Y362431D01*
X899932Y362430D01*
X899975Y362450D01*
X900019Y362468D01*
X900019Y362470D01*
X900021Y362471D01*
X900054Y362556D01*
X900054Y365604D01*
X900053Y365606D01*
X900054Y365608D01*
X900034Y365651D01*
X900016Y365695D01*
X900014Y365695D01*
X900013Y365697D01*
X899928Y365730D01*
X893832Y365730D01*
X893830Y365729D01*
X893828Y365730D01*
X893785Y365710D01*
X893741Y365692D01*
X893741Y365690D01*
X893739Y365689D01*
X893706Y365604D01*
X893706Y362556D01*
X893707Y362554D01*
X893706Y362552D01*
X893726Y362509D01*
X893744Y362465D01*
X893746Y362465D01*
X893747Y362463D01*
X893832Y362430D01*
X899928Y362430D01*
X899930Y362431D01*
G37*
G36*
X887230Y400231D02*
X887230Y400231D01*
X887232Y400230D01*
X887275Y400250D01*
X887319Y400268D01*
X887319Y400270D01*
X887321Y400271D01*
X887354Y400356D01*
X887354Y403404D01*
X887353Y403406D01*
X887354Y403408D01*
X887334Y403451D01*
X887316Y403495D01*
X887314Y403495D01*
X887313Y403497D01*
X887228Y403530D01*
X881132Y403530D01*
X881130Y403529D01*
X881128Y403530D01*
X881085Y403510D01*
X881041Y403492D01*
X881041Y403490D01*
X881039Y403489D01*
X881006Y403404D01*
X881006Y400356D01*
X881007Y400354D01*
X881006Y400352D01*
X881026Y400309D01*
X881044Y400265D01*
X881046Y400265D01*
X881047Y400263D01*
X881132Y400230D01*
X887228Y400230D01*
X887230Y400231D01*
G37*
G36*
X863850Y262921D02*
X863850Y262921D01*
X863852Y262920D01*
X863895Y262940D01*
X863939Y262958D01*
X863939Y262960D01*
X863941Y262961D01*
X863974Y263046D01*
X863974Y266094D01*
X863973Y266096D01*
X863974Y266098D01*
X863954Y266141D01*
X863936Y266185D01*
X863934Y266185D01*
X863933Y266187D01*
X863848Y266220D01*
X857752Y266220D01*
X857750Y266219D01*
X857748Y266220D01*
X857705Y266200D01*
X857661Y266182D01*
X857661Y266180D01*
X857659Y266179D01*
X857626Y266094D01*
X857626Y263046D01*
X857627Y263044D01*
X857626Y263042D01*
X857646Y262999D01*
X857664Y262955D01*
X857666Y262955D01*
X857667Y262953D01*
X857752Y262920D01*
X863848Y262920D01*
X863850Y262921D01*
G37*
G36*
X899930Y355931D02*
X899930Y355931D01*
X899932Y355930D01*
X899975Y355950D01*
X900019Y355968D01*
X900019Y355970D01*
X900021Y355971D01*
X900054Y356056D01*
X900054Y359104D01*
X900053Y359106D01*
X900054Y359108D01*
X900034Y359151D01*
X900016Y359195D01*
X900014Y359195D01*
X900013Y359197D01*
X899928Y359230D01*
X893832Y359230D01*
X893830Y359229D01*
X893828Y359230D01*
X893785Y359210D01*
X893741Y359192D01*
X893741Y359190D01*
X893739Y359189D01*
X893706Y359104D01*
X893706Y356056D01*
X893707Y356054D01*
X893706Y356052D01*
X893726Y356009D01*
X893744Y355965D01*
X893746Y355965D01*
X893747Y355963D01*
X893832Y355930D01*
X899928Y355930D01*
X899930Y355931D01*
G37*
G36*
X868930Y355931D02*
X868930Y355931D01*
X868932Y355930D01*
X868975Y355950D01*
X869019Y355968D01*
X869019Y355970D01*
X869021Y355971D01*
X869054Y356056D01*
X869054Y359104D01*
X869053Y359106D01*
X869054Y359108D01*
X869034Y359151D01*
X869016Y359195D01*
X869014Y359195D01*
X869013Y359197D01*
X868928Y359230D01*
X862832Y359230D01*
X862830Y359229D01*
X862828Y359230D01*
X862785Y359210D01*
X862741Y359192D01*
X862741Y359190D01*
X862739Y359189D01*
X862706Y359104D01*
X862706Y356056D01*
X862707Y356054D01*
X862706Y356052D01*
X862726Y356009D01*
X862744Y355965D01*
X862746Y355965D01*
X862747Y355963D01*
X862832Y355930D01*
X868928Y355930D01*
X868930Y355931D01*
G37*
G36*
X894850Y269421D02*
X894850Y269421D01*
X894852Y269420D01*
X894895Y269440D01*
X894939Y269458D01*
X894939Y269460D01*
X894941Y269461D01*
X894974Y269546D01*
X894974Y272594D01*
X894973Y272596D01*
X894974Y272598D01*
X894954Y272641D01*
X894936Y272685D01*
X894934Y272685D01*
X894933Y272687D01*
X894848Y272720D01*
X888752Y272720D01*
X888750Y272719D01*
X888748Y272720D01*
X888705Y272700D01*
X888661Y272682D01*
X888661Y272680D01*
X888659Y272679D01*
X888626Y272594D01*
X888626Y269546D01*
X888627Y269544D01*
X888626Y269542D01*
X888646Y269499D01*
X888664Y269455D01*
X888666Y269455D01*
X888667Y269453D01*
X888752Y269420D01*
X894848Y269420D01*
X894850Y269421D01*
G37*
G36*
X887230Y393731D02*
X887230Y393731D01*
X887232Y393730D01*
X887275Y393750D01*
X887319Y393768D01*
X887319Y393770D01*
X887321Y393771D01*
X887354Y393856D01*
X887354Y396904D01*
X887353Y396906D01*
X887354Y396908D01*
X887334Y396951D01*
X887316Y396995D01*
X887314Y396995D01*
X887313Y396997D01*
X887228Y397030D01*
X881132Y397030D01*
X881130Y397029D01*
X881128Y397030D01*
X881085Y397010D01*
X881041Y396992D01*
X881041Y396990D01*
X881039Y396989D01*
X881006Y396904D01*
X881006Y393856D01*
X881007Y393854D01*
X881006Y393852D01*
X881026Y393809D01*
X881044Y393765D01*
X881046Y393765D01*
X881047Y393763D01*
X881132Y393730D01*
X887228Y393730D01*
X887230Y393731D01*
G37*
G36*
X887230Y464031D02*
X887230Y464031D01*
X887232Y464030D01*
X887275Y464050D01*
X887319Y464068D01*
X887319Y464070D01*
X887321Y464071D01*
X887354Y464156D01*
X887354Y467204D01*
X887353Y467206D01*
X887354Y467208D01*
X887334Y467251D01*
X887316Y467295D01*
X887314Y467295D01*
X887313Y467297D01*
X887228Y467330D01*
X881132Y467330D01*
X881130Y467329D01*
X881128Y467330D01*
X881085Y467310D01*
X881041Y467292D01*
X881041Y467290D01*
X881039Y467289D01*
X881006Y467204D01*
X881006Y464156D01*
X881007Y464154D01*
X881006Y464152D01*
X881026Y464109D01*
X881044Y464065D01*
X881046Y464065D01*
X881047Y464063D01*
X881132Y464030D01*
X887228Y464030D01*
X887230Y464031D01*
G37*
G36*
X856230Y464031D02*
X856230Y464031D01*
X856232Y464030D01*
X856275Y464050D01*
X856319Y464068D01*
X856319Y464070D01*
X856321Y464071D01*
X856354Y464156D01*
X856354Y467204D01*
X856353Y467206D01*
X856354Y467208D01*
X856334Y467251D01*
X856316Y467295D01*
X856314Y467295D01*
X856313Y467297D01*
X856228Y467330D01*
X850132Y467330D01*
X850130Y467329D01*
X850128Y467330D01*
X850085Y467310D01*
X850041Y467292D01*
X850041Y467290D01*
X850039Y467289D01*
X850006Y467204D01*
X850006Y464156D01*
X850007Y464154D01*
X850006Y464152D01*
X850026Y464109D01*
X850044Y464065D01*
X850046Y464065D01*
X850047Y464063D01*
X850132Y464030D01*
X856228Y464030D01*
X856230Y464031D01*
G37*
G36*
X856230Y393731D02*
X856230Y393731D01*
X856232Y393730D01*
X856275Y393750D01*
X856319Y393768D01*
X856319Y393770D01*
X856321Y393771D01*
X856354Y393856D01*
X856354Y396904D01*
X856353Y396906D01*
X856354Y396908D01*
X856334Y396951D01*
X856316Y396995D01*
X856314Y396995D01*
X856313Y396997D01*
X856228Y397030D01*
X850132Y397030D01*
X850130Y397029D01*
X850128Y397030D01*
X850085Y397010D01*
X850041Y396992D01*
X850041Y396990D01*
X850039Y396989D01*
X850006Y396904D01*
X850006Y393856D01*
X850007Y393854D01*
X850006Y393852D01*
X850026Y393809D01*
X850044Y393765D01*
X850046Y393765D01*
X850047Y393763D01*
X850132Y393730D01*
X856228Y393730D01*
X856230Y393731D01*
G37*
G36*
X899930Y342931D02*
X899930Y342931D01*
X899932Y342930D01*
X899975Y342950D01*
X900019Y342968D01*
X900019Y342970D01*
X900021Y342971D01*
X900054Y343056D01*
X900054Y346104D01*
X900053Y346106D01*
X900054Y346108D01*
X900034Y346151D01*
X900016Y346195D01*
X900014Y346195D01*
X900013Y346197D01*
X899928Y346230D01*
X893832Y346230D01*
X893830Y346229D01*
X893828Y346230D01*
X893785Y346210D01*
X893741Y346192D01*
X893741Y346190D01*
X893739Y346189D01*
X893706Y346104D01*
X893706Y343056D01*
X893707Y343054D01*
X893706Y343052D01*
X893726Y343009D01*
X893744Y342965D01*
X893746Y342965D01*
X893747Y342963D01*
X893832Y342930D01*
X899928Y342930D01*
X899930Y342931D01*
G37*
G36*
X887230Y457531D02*
X887230Y457531D01*
X887232Y457530D01*
X887275Y457550D01*
X887319Y457568D01*
X887319Y457570D01*
X887321Y457571D01*
X887354Y457656D01*
X887354Y460704D01*
X887353Y460706D01*
X887354Y460708D01*
X887334Y460751D01*
X887316Y460795D01*
X887314Y460795D01*
X887313Y460797D01*
X887228Y460830D01*
X881132Y460830D01*
X881130Y460829D01*
X881128Y460830D01*
X881085Y460810D01*
X881041Y460792D01*
X881041Y460790D01*
X881039Y460789D01*
X881006Y460704D01*
X881006Y457656D01*
X881007Y457654D01*
X881006Y457652D01*
X881026Y457609D01*
X881044Y457565D01*
X881046Y457565D01*
X881047Y457563D01*
X881132Y457530D01*
X887228Y457530D01*
X887230Y457531D01*
G37*
G36*
X856230Y457531D02*
X856230Y457531D01*
X856232Y457530D01*
X856275Y457550D01*
X856319Y457568D01*
X856319Y457570D01*
X856321Y457571D01*
X856354Y457656D01*
X856354Y460704D01*
X856353Y460706D01*
X856354Y460708D01*
X856334Y460751D01*
X856316Y460795D01*
X856314Y460795D01*
X856313Y460797D01*
X856228Y460830D01*
X850132Y460830D01*
X850130Y460829D01*
X850128Y460830D01*
X850085Y460810D01*
X850041Y460792D01*
X850041Y460790D01*
X850039Y460789D01*
X850006Y460704D01*
X850006Y457656D01*
X850007Y457654D01*
X850006Y457652D01*
X850026Y457609D01*
X850044Y457565D01*
X850046Y457565D01*
X850047Y457563D01*
X850132Y457530D01*
X856228Y457530D01*
X856230Y457531D01*
G37*
G36*
X894850Y275921D02*
X894850Y275921D01*
X894852Y275920D01*
X894895Y275940D01*
X894939Y275958D01*
X894939Y275960D01*
X894941Y275961D01*
X894974Y276046D01*
X894974Y279094D01*
X894973Y279096D01*
X894974Y279098D01*
X894954Y279141D01*
X894936Y279185D01*
X894934Y279185D01*
X894933Y279187D01*
X894848Y279220D01*
X888752Y279220D01*
X888750Y279219D01*
X888748Y279220D01*
X888705Y279200D01*
X888661Y279182D01*
X888661Y279180D01*
X888659Y279179D01*
X888626Y279094D01*
X888626Y276046D01*
X888627Y276044D01*
X888626Y276042D01*
X888646Y275999D01*
X888664Y275955D01*
X888666Y275955D01*
X888667Y275953D01*
X888752Y275920D01*
X894848Y275920D01*
X894850Y275921D01*
G37*
G36*
X863850Y269421D02*
X863850Y269421D01*
X863852Y269420D01*
X863895Y269440D01*
X863939Y269458D01*
X863939Y269460D01*
X863941Y269461D01*
X863974Y269546D01*
X863974Y272594D01*
X863973Y272596D01*
X863974Y272598D01*
X863954Y272641D01*
X863936Y272685D01*
X863934Y272685D01*
X863933Y272687D01*
X863848Y272720D01*
X857752Y272720D01*
X857750Y272719D01*
X857748Y272720D01*
X857705Y272700D01*
X857661Y272682D01*
X857661Y272680D01*
X857659Y272679D01*
X857626Y272594D01*
X857626Y269546D01*
X857627Y269544D01*
X857626Y269542D01*
X857646Y269499D01*
X857664Y269455D01*
X857666Y269455D01*
X857667Y269453D01*
X857752Y269420D01*
X863848Y269420D01*
X863850Y269421D01*
G37*
G36*
X856230Y451031D02*
X856230Y451031D01*
X856232Y451030D01*
X856275Y451050D01*
X856319Y451068D01*
X856319Y451070D01*
X856321Y451071D01*
X856354Y451156D01*
X856354Y454204D01*
X856353Y454206D01*
X856354Y454208D01*
X856334Y454251D01*
X856316Y454295D01*
X856314Y454295D01*
X856313Y454297D01*
X856228Y454330D01*
X850132Y454330D01*
X850130Y454329D01*
X850128Y454330D01*
X850085Y454310D01*
X850041Y454292D01*
X850041Y454290D01*
X850039Y454289D01*
X850006Y454204D01*
X850006Y451156D01*
X850007Y451154D01*
X850006Y451152D01*
X850026Y451109D01*
X850044Y451065D01*
X850046Y451065D01*
X850047Y451063D01*
X850132Y451030D01*
X856228Y451030D01*
X856230Y451031D01*
G37*
G36*
X887230Y451031D02*
X887230Y451031D01*
X887232Y451030D01*
X887275Y451050D01*
X887319Y451068D01*
X887319Y451070D01*
X887321Y451071D01*
X887354Y451156D01*
X887354Y454204D01*
X887353Y454206D01*
X887354Y454208D01*
X887334Y454251D01*
X887316Y454295D01*
X887314Y454295D01*
X887313Y454297D01*
X887228Y454330D01*
X881132Y454330D01*
X881130Y454329D01*
X881128Y454330D01*
X881085Y454310D01*
X881041Y454292D01*
X881041Y454290D01*
X881039Y454289D01*
X881006Y454204D01*
X881006Y451156D01*
X881007Y451154D01*
X881006Y451152D01*
X881026Y451109D01*
X881044Y451065D01*
X881046Y451065D01*
X881047Y451063D01*
X881132Y451030D01*
X887228Y451030D01*
X887230Y451031D01*
G37*
G36*
X887230Y444531D02*
X887230Y444531D01*
X887232Y444530D01*
X887275Y444550D01*
X887319Y444568D01*
X887319Y444570D01*
X887321Y444571D01*
X887354Y444656D01*
X887354Y447704D01*
X887353Y447706D01*
X887354Y447708D01*
X887334Y447751D01*
X887316Y447795D01*
X887314Y447795D01*
X887313Y447797D01*
X887228Y447830D01*
X881132Y447830D01*
X881130Y447829D01*
X881128Y447830D01*
X881085Y447810D01*
X881041Y447792D01*
X881041Y447790D01*
X881039Y447789D01*
X881006Y447704D01*
X881006Y444656D01*
X881007Y444654D01*
X881006Y444652D01*
X881026Y444609D01*
X881044Y444565D01*
X881046Y444565D01*
X881047Y444563D01*
X881132Y444530D01*
X887228Y444530D01*
X887230Y444531D01*
G37*
G36*
X856230Y444531D02*
X856230Y444531D01*
X856232Y444530D01*
X856275Y444550D01*
X856319Y444568D01*
X856319Y444570D01*
X856321Y444571D01*
X856354Y444656D01*
X856354Y447704D01*
X856353Y447706D01*
X856354Y447708D01*
X856334Y447751D01*
X856316Y447795D01*
X856314Y447795D01*
X856313Y447797D01*
X856228Y447830D01*
X850132Y447830D01*
X850130Y447829D01*
X850128Y447830D01*
X850085Y447810D01*
X850041Y447792D01*
X850041Y447790D01*
X850039Y447789D01*
X850006Y447704D01*
X850006Y444656D01*
X850007Y444654D01*
X850006Y444652D01*
X850026Y444609D01*
X850044Y444565D01*
X850046Y444565D01*
X850047Y444563D01*
X850132Y444530D01*
X856228Y444530D01*
X856230Y444531D01*
G37*
G36*
X868930Y342931D02*
X868930Y342931D01*
X868932Y342930D01*
X868975Y342950D01*
X869019Y342968D01*
X869019Y342970D01*
X869021Y342971D01*
X869054Y343056D01*
X869054Y346104D01*
X869053Y346106D01*
X869054Y346108D01*
X869034Y346151D01*
X869016Y346195D01*
X869014Y346195D01*
X869013Y346197D01*
X868928Y346230D01*
X862832Y346230D01*
X862830Y346229D01*
X862828Y346230D01*
X862785Y346210D01*
X862741Y346192D01*
X862741Y346190D01*
X862739Y346189D01*
X862706Y346104D01*
X862706Y343056D01*
X862707Y343054D01*
X862706Y343052D01*
X862726Y343009D01*
X862744Y342965D01*
X862746Y342965D01*
X862747Y342963D01*
X862832Y342930D01*
X868928Y342930D01*
X868930Y342931D01*
G37*
G36*
X868930Y349431D02*
X868930Y349431D01*
X868932Y349430D01*
X868975Y349450D01*
X869019Y349468D01*
X869019Y349470D01*
X869021Y349471D01*
X869054Y349556D01*
X869054Y352604D01*
X869053Y352606D01*
X869054Y352608D01*
X869034Y352651D01*
X869016Y352695D01*
X869014Y352695D01*
X869013Y352697D01*
X868928Y352730D01*
X862832Y352730D01*
X862830Y352729D01*
X862828Y352730D01*
X862785Y352710D01*
X862741Y352692D01*
X862741Y352690D01*
X862739Y352689D01*
X862706Y352604D01*
X862706Y349556D01*
X862707Y349554D01*
X862706Y349552D01*
X862726Y349509D01*
X862744Y349465D01*
X862746Y349465D01*
X862747Y349463D01*
X862832Y349430D01*
X868928Y349430D01*
X868930Y349431D01*
G37*
G36*
X899930Y349431D02*
X899930Y349431D01*
X899932Y349430D01*
X899975Y349450D01*
X900019Y349468D01*
X900019Y349470D01*
X900021Y349471D01*
X900054Y349556D01*
X900054Y352604D01*
X900053Y352606D01*
X900054Y352608D01*
X900034Y352651D01*
X900016Y352695D01*
X900014Y352695D01*
X900013Y352697D01*
X899928Y352730D01*
X893832Y352730D01*
X893830Y352729D01*
X893828Y352730D01*
X893785Y352710D01*
X893741Y352692D01*
X893741Y352690D01*
X893739Y352689D01*
X893706Y352604D01*
X893706Y349556D01*
X893707Y349554D01*
X893706Y349552D01*
X893726Y349509D01*
X893744Y349465D01*
X893746Y349465D01*
X893747Y349463D01*
X893832Y349430D01*
X899928Y349430D01*
X899930Y349431D01*
G37*
G36*
X863850Y275921D02*
X863850Y275921D01*
X863852Y275920D01*
X863895Y275940D01*
X863939Y275958D01*
X863939Y275960D01*
X863941Y275961D01*
X863974Y276046D01*
X863974Y279094D01*
X863973Y279096D01*
X863974Y279098D01*
X863954Y279141D01*
X863936Y279185D01*
X863934Y279185D01*
X863933Y279187D01*
X863848Y279220D01*
X857752Y279220D01*
X857750Y279219D01*
X857748Y279220D01*
X857705Y279200D01*
X857661Y279182D01*
X857661Y279180D01*
X857659Y279179D01*
X857626Y279094D01*
X857626Y276046D01*
X857627Y276044D01*
X857626Y276042D01*
X857646Y275999D01*
X857664Y275955D01*
X857666Y275955D01*
X857667Y275953D01*
X857752Y275920D01*
X863848Y275920D01*
X863850Y275921D01*
G37*
G36*
X856230Y413231D02*
X856230Y413231D01*
X856232Y413230D01*
X856275Y413250D01*
X856319Y413268D01*
X856319Y413270D01*
X856321Y413271D01*
X856354Y413356D01*
X856354Y416404D01*
X856353Y416406D01*
X856354Y416408D01*
X856334Y416451D01*
X856316Y416495D01*
X856314Y416495D01*
X856313Y416497D01*
X856228Y416530D01*
X850132Y416530D01*
X850130Y416529D01*
X850128Y416530D01*
X850085Y416510D01*
X850041Y416492D01*
X850041Y416490D01*
X850039Y416489D01*
X850006Y416404D01*
X850006Y413356D01*
X850007Y413354D01*
X850006Y413352D01*
X850026Y413309D01*
X850044Y413265D01*
X850046Y413265D01*
X850047Y413263D01*
X850132Y413230D01*
X856228Y413230D01*
X856230Y413231D01*
G37*
G36*
X887230Y413231D02*
X887230Y413231D01*
X887232Y413230D01*
X887275Y413250D01*
X887319Y413268D01*
X887319Y413270D01*
X887321Y413271D01*
X887354Y413356D01*
X887354Y416404D01*
X887353Y416406D01*
X887354Y416408D01*
X887334Y416451D01*
X887316Y416495D01*
X887314Y416495D01*
X887313Y416497D01*
X887228Y416530D01*
X881132Y416530D01*
X881130Y416529D01*
X881128Y416530D01*
X881085Y416510D01*
X881041Y416492D01*
X881041Y416490D01*
X881039Y416489D01*
X881006Y416404D01*
X881006Y413356D01*
X881007Y413354D01*
X881006Y413352D01*
X881026Y413309D01*
X881044Y413265D01*
X881046Y413265D01*
X881047Y413263D01*
X881132Y413230D01*
X887228Y413230D01*
X887230Y413231D01*
G37*
G36*
X856230Y406731D02*
X856230Y406731D01*
X856232Y406730D01*
X856275Y406750D01*
X856319Y406768D01*
X856319Y406770D01*
X856321Y406771D01*
X856354Y406856D01*
X856354Y409904D01*
X856353Y409906D01*
X856354Y409908D01*
X856334Y409951D01*
X856316Y409995D01*
X856314Y409995D01*
X856313Y409997D01*
X856228Y410030D01*
X850132Y410030D01*
X850130Y410029D01*
X850128Y410030D01*
X850085Y410010D01*
X850041Y409992D01*
X850041Y409990D01*
X850039Y409989D01*
X850006Y409904D01*
X850006Y406856D01*
X850007Y406854D01*
X850006Y406852D01*
X850026Y406809D01*
X850044Y406765D01*
X850046Y406765D01*
X850047Y406763D01*
X850132Y406730D01*
X856228Y406730D01*
X856230Y406731D01*
G37*
G36*
X894850Y282421D02*
X894850Y282421D01*
X894852Y282420D01*
X894895Y282440D01*
X894939Y282458D01*
X894939Y282460D01*
X894941Y282461D01*
X894974Y282546D01*
X894974Y285594D01*
X894973Y285596D01*
X894974Y285598D01*
X894954Y285641D01*
X894936Y285685D01*
X894934Y285685D01*
X894933Y285687D01*
X894848Y285720D01*
X888752Y285720D01*
X888750Y285719D01*
X888748Y285720D01*
X888705Y285700D01*
X888661Y285682D01*
X888661Y285680D01*
X888659Y285679D01*
X888626Y285594D01*
X888626Y282546D01*
X888627Y282544D01*
X888626Y282542D01*
X888646Y282499D01*
X888664Y282455D01*
X888666Y282455D01*
X888667Y282453D01*
X888752Y282420D01*
X894848Y282420D01*
X894850Y282421D01*
G37*
G36*
X899930Y514831D02*
X899930Y514831D01*
X899932Y514830D01*
X899975Y514850D01*
X900019Y514868D01*
X900019Y514870D01*
X900021Y514871D01*
X900054Y514956D01*
X900054Y518004D01*
X900053Y518006D01*
X900054Y518008D01*
X900034Y518051D01*
X900016Y518095D01*
X900014Y518095D01*
X900013Y518097D01*
X899928Y518130D01*
X893832Y518130D01*
X893830Y518129D01*
X893828Y518130D01*
X893785Y518110D01*
X893741Y518092D01*
X893741Y518090D01*
X893739Y518089D01*
X893706Y518004D01*
X893706Y514956D01*
X893707Y514954D01*
X893706Y514952D01*
X893726Y514909D01*
X893744Y514865D01*
X893746Y514865D01*
X893747Y514863D01*
X893832Y514830D01*
X899928Y514830D01*
X899930Y514831D01*
G37*
G36*
X887230Y406731D02*
X887230Y406731D01*
X887232Y406730D01*
X887275Y406750D01*
X887319Y406768D01*
X887319Y406770D01*
X887321Y406771D01*
X887354Y406856D01*
X887354Y409904D01*
X887353Y409906D01*
X887354Y409908D01*
X887334Y409951D01*
X887316Y409995D01*
X887314Y409995D01*
X887313Y409997D01*
X887228Y410030D01*
X881132Y410030D01*
X881130Y410029D01*
X881128Y410030D01*
X881085Y410010D01*
X881041Y409992D01*
X881041Y409990D01*
X881039Y409989D01*
X881006Y409904D01*
X881006Y406856D01*
X881007Y406854D01*
X881006Y406852D01*
X881026Y406809D01*
X881044Y406765D01*
X881046Y406765D01*
X881047Y406763D01*
X881132Y406730D01*
X887228Y406730D01*
X887230Y406731D01*
G37*
G36*
X894850Y262921D02*
X894850Y262921D01*
X894852Y262920D01*
X894895Y262940D01*
X894939Y262958D01*
X894939Y262960D01*
X894941Y262961D01*
X894974Y263046D01*
X894974Y266094D01*
X894973Y266096D01*
X894974Y266098D01*
X894954Y266141D01*
X894936Y266185D01*
X894934Y266185D01*
X894933Y266187D01*
X894848Y266220D01*
X888752Y266220D01*
X888750Y266219D01*
X888748Y266220D01*
X888705Y266200D01*
X888661Y266182D01*
X888661Y266180D01*
X888659Y266179D01*
X888626Y266094D01*
X888626Y263046D01*
X888627Y263044D01*
X888626Y263042D01*
X888646Y262999D01*
X888664Y262955D01*
X888666Y262955D01*
X888667Y262953D01*
X888752Y262920D01*
X894848Y262920D01*
X894850Y262921D01*
G37*
G36*
X887230Y234161D02*
X887230Y234161D01*
X887232Y234160D01*
X887275Y234180D01*
X887319Y234198D01*
X887319Y234200D01*
X887321Y234201D01*
X887354Y234286D01*
X887354Y237334D01*
X887353Y237336D01*
X887354Y237338D01*
X887334Y237381D01*
X887316Y237425D01*
X887314Y237425D01*
X887313Y237427D01*
X887228Y237460D01*
X881132Y237460D01*
X881130Y237459D01*
X881128Y237460D01*
X881085Y237440D01*
X881041Y237422D01*
X881041Y237420D01*
X881039Y237419D01*
X881006Y237334D01*
X881006Y234286D01*
X881007Y234284D01*
X881006Y234282D01*
X881026Y234239D01*
X881044Y234195D01*
X881046Y234195D01*
X881047Y234193D01*
X881132Y234160D01*
X887228Y234160D01*
X887230Y234161D01*
G37*
G36*
X856230Y234161D02*
X856230Y234161D01*
X856232Y234160D01*
X856275Y234180D01*
X856319Y234198D01*
X856319Y234200D01*
X856321Y234201D01*
X856354Y234286D01*
X856354Y237334D01*
X856353Y237336D01*
X856354Y237338D01*
X856334Y237381D01*
X856316Y237425D01*
X856314Y237425D01*
X856313Y237427D01*
X856228Y237460D01*
X850132Y237460D01*
X850130Y237459D01*
X850128Y237460D01*
X850085Y237440D01*
X850041Y237422D01*
X850041Y237420D01*
X850039Y237419D01*
X850006Y237334D01*
X850006Y234286D01*
X850007Y234284D01*
X850006Y234282D01*
X850026Y234239D01*
X850044Y234195D01*
X850046Y234195D01*
X850047Y234193D01*
X850132Y234160D01*
X856228Y234160D01*
X856230Y234161D01*
G37*
G36*
X868930Y514831D02*
X868930Y514831D01*
X868932Y514830D01*
X868975Y514850D01*
X869019Y514868D01*
X869019Y514870D01*
X869021Y514871D01*
X869054Y514956D01*
X869054Y518004D01*
X869053Y518006D01*
X869054Y518008D01*
X869034Y518051D01*
X869016Y518095D01*
X869014Y518095D01*
X869013Y518097D01*
X868928Y518130D01*
X862832Y518130D01*
X862830Y518129D01*
X862828Y518130D01*
X862785Y518110D01*
X862741Y518092D01*
X862741Y518090D01*
X862739Y518089D01*
X862706Y518004D01*
X862706Y514956D01*
X862707Y514954D01*
X862706Y514952D01*
X862726Y514909D01*
X862744Y514865D01*
X862746Y514865D01*
X862747Y514863D01*
X862832Y514830D01*
X868928Y514830D01*
X868930Y514831D01*
G37*
G36*
X887230Y227661D02*
X887230Y227661D01*
X887232Y227660D01*
X887275Y227680D01*
X887319Y227698D01*
X887319Y227700D01*
X887321Y227701D01*
X887354Y227786D01*
X887354Y230834D01*
X887353Y230836D01*
X887354Y230838D01*
X887334Y230881D01*
X887316Y230925D01*
X887314Y230925D01*
X887313Y230927D01*
X887228Y230960D01*
X881132Y230960D01*
X881130Y230959D01*
X881128Y230960D01*
X881085Y230940D01*
X881041Y230922D01*
X881041Y230920D01*
X881039Y230919D01*
X881006Y230834D01*
X881006Y227786D01*
X881007Y227784D01*
X881006Y227782D01*
X881026Y227739D01*
X881044Y227695D01*
X881046Y227695D01*
X881047Y227693D01*
X881132Y227660D01*
X887228Y227660D01*
X887230Y227661D01*
G37*
G36*
X856230Y227661D02*
X856230Y227661D01*
X856232Y227660D01*
X856275Y227680D01*
X856319Y227698D01*
X856319Y227700D01*
X856321Y227701D01*
X856354Y227786D01*
X856354Y230834D01*
X856353Y230836D01*
X856354Y230838D01*
X856334Y230881D01*
X856316Y230925D01*
X856314Y230925D01*
X856313Y230927D01*
X856228Y230960D01*
X850132Y230960D01*
X850130Y230959D01*
X850128Y230960D01*
X850085Y230940D01*
X850041Y230922D01*
X850041Y230920D01*
X850039Y230919D01*
X850006Y230834D01*
X850006Y227786D01*
X850007Y227784D01*
X850006Y227782D01*
X850026Y227739D01*
X850044Y227695D01*
X850046Y227695D01*
X850047Y227693D01*
X850132Y227660D01*
X856228Y227660D01*
X856230Y227661D01*
G37*
G36*
X863850Y282421D02*
X863850Y282421D01*
X863852Y282420D01*
X863895Y282440D01*
X863939Y282458D01*
X863939Y282460D01*
X863941Y282461D01*
X863974Y282546D01*
X863974Y285594D01*
X863973Y285596D01*
X863974Y285598D01*
X863954Y285641D01*
X863936Y285685D01*
X863934Y285685D01*
X863933Y285687D01*
X863848Y285720D01*
X857752Y285720D01*
X857750Y285719D01*
X857748Y285720D01*
X857705Y285700D01*
X857661Y285682D01*
X857661Y285680D01*
X857659Y285679D01*
X857626Y285594D01*
X857626Y282546D01*
X857627Y282544D01*
X857626Y282542D01*
X857646Y282499D01*
X857664Y282455D01*
X857666Y282455D01*
X857667Y282453D01*
X857752Y282420D01*
X863848Y282420D01*
X863850Y282421D01*
G37*
G36*
X856230Y221161D02*
X856230Y221161D01*
X856232Y221160D01*
X856275Y221180D01*
X856319Y221198D01*
X856319Y221200D01*
X856321Y221201D01*
X856354Y221286D01*
X856354Y224334D01*
X856353Y224336D01*
X856354Y224338D01*
X856334Y224381D01*
X856316Y224425D01*
X856314Y224425D01*
X856313Y224427D01*
X856228Y224460D01*
X850132Y224460D01*
X850130Y224459D01*
X850128Y224460D01*
X850085Y224440D01*
X850041Y224422D01*
X850041Y224420D01*
X850039Y224419D01*
X850006Y224334D01*
X850006Y221286D01*
X850007Y221284D01*
X850006Y221282D01*
X850026Y221239D01*
X850044Y221195D01*
X850046Y221195D01*
X850047Y221193D01*
X850132Y221160D01*
X856228Y221160D01*
X856230Y221161D01*
G37*
G36*
X887230Y221161D02*
X887230Y221161D01*
X887232Y221160D01*
X887275Y221180D01*
X887319Y221198D01*
X887319Y221200D01*
X887321Y221201D01*
X887354Y221286D01*
X887354Y224334D01*
X887353Y224336D01*
X887354Y224338D01*
X887334Y224381D01*
X887316Y224425D01*
X887314Y224425D01*
X887313Y224427D01*
X887228Y224460D01*
X881132Y224460D01*
X881130Y224459D01*
X881128Y224460D01*
X881085Y224440D01*
X881041Y224422D01*
X881041Y224420D01*
X881039Y224419D01*
X881006Y224334D01*
X881006Y221286D01*
X881007Y221284D01*
X881006Y221282D01*
X881026Y221239D01*
X881044Y221195D01*
X881046Y221195D01*
X881047Y221193D01*
X881132Y221160D01*
X887228Y221160D01*
X887230Y221161D01*
G37*
G36*
X887230Y214661D02*
X887230Y214661D01*
X887232Y214660D01*
X887275Y214680D01*
X887319Y214698D01*
X887319Y214700D01*
X887321Y214701D01*
X887354Y214786D01*
X887354Y217834D01*
X887353Y217836D01*
X887354Y217838D01*
X887334Y217881D01*
X887316Y217925D01*
X887314Y217925D01*
X887313Y217927D01*
X887228Y217960D01*
X881132Y217960D01*
X881130Y217959D01*
X881128Y217960D01*
X881085Y217940D01*
X881041Y217922D01*
X881041Y217920D01*
X881039Y217919D01*
X881006Y217834D01*
X881006Y214786D01*
X881007Y214784D01*
X881006Y214782D01*
X881026Y214739D01*
X881044Y214695D01*
X881046Y214695D01*
X881047Y214693D01*
X881132Y214660D01*
X887228Y214660D01*
X887230Y214661D01*
G37*
G36*
X856230Y214661D02*
X856230Y214661D01*
X856232Y214660D01*
X856275Y214680D01*
X856319Y214698D01*
X856319Y214700D01*
X856321Y214701D01*
X856354Y214786D01*
X856354Y217834D01*
X856353Y217836D01*
X856354Y217838D01*
X856334Y217881D01*
X856316Y217925D01*
X856314Y217925D01*
X856313Y217927D01*
X856228Y217960D01*
X850132Y217960D01*
X850130Y217959D01*
X850128Y217960D01*
X850085Y217940D01*
X850041Y217922D01*
X850041Y217920D01*
X850039Y217919D01*
X850006Y217834D01*
X850006Y214786D01*
X850007Y214784D01*
X850006Y214782D01*
X850026Y214739D01*
X850044Y214695D01*
X850046Y214695D01*
X850047Y214693D01*
X850132Y214660D01*
X856228Y214660D01*
X856230Y214661D01*
G37*
G36*
X854960Y184631D02*
X854960Y184631D01*
X854962Y184630D01*
X855005Y184650D01*
X855049Y184668D01*
X855049Y184670D01*
X855051Y184671D01*
X855084Y184756D01*
X855084Y187804D01*
X855083Y187806D01*
X855084Y187808D01*
X855064Y187851D01*
X855046Y187895D01*
X855044Y187895D01*
X855043Y187897D01*
X854958Y187930D01*
X848862Y187930D01*
X848860Y187929D01*
X848858Y187930D01*
X848815Y187910D01*
X848771Y187892D01*
X848771Y187890D01*
X848769Y187889D01*
X848736Y187804D01*
X848736Y184756D01*
X848737Y184754D01*
X848736Y184752D01*
X848756Y184709D01*
X848774Y184665D01*
X848776Y184665D01*
X848777Y184663D01*
X848862Y184630D01*
X854958Y184630D01*
X854960Y184631D01*
G37*
G36*
X885960Y184631D02*
X885960Y184631D01*
X885962Y184630D01*
X886005Y184650D01*
X886049Y184668D01*
X886049Y184670D01*
X886051Y184671D01*
X886084Y184756D01*
X886084Y187804D01*
X886083Y187806D01*
X886084Y187808D01*
X886064Y187851D01*
X886046Y187895D01*
X886044Y187895D01*
X886043Y187897D01*
X885958Y187930D01*
X879862Y187930D01*
X879860Y187929D01*
X879858Y187930D01*
X879815Y187910D01*
X879771Y187892D01*
X879771Y187890D01*
X879769Y187889D01*
X879736Y187804D01*
X879736Y184756D01*
X879737Y184754D01*
X879736Y184752D01*
X879756Y184709D01*
X879774Y184665D01*
X879776Y184665D01*
X879777Y184663D01*
X879862Y184630D01*
X885958Y184630D01*
X885960Y184631D01*
G37*
G36*
X868930Y362431D02*
X868930Y362431D01*
X868932Y362430D01*
X868975Y362450D01*
X869019Y362468D01*
X869019Y362470D01*
X869021Y362471D01*
X869054Y362556D01*
X869054Y365604D01*
X869053Y365606D01*
X869054Y365608D01*
X869034Y365651D01*
X869016Y365695D01*
X869014Y365695D01*
X869013Y365697D01*
X868928Y365730D01*
X862832Y365730D01*
X862830Y365729D01*
X862828Y365730D01*
X862785Y365710D01*
X862741Y365692D01*
X862741Y365690D01*
X862739Y365689D01*
X862706Y365604D01*
X862706Y362556D01*
X862707Y362554D01*
X862706Y362552D01*
X862726Y362509D01*
X862744Y362465D01*
X862746Y362465D01*
X862747Y362463D01*
X862832Y362430D01*
X868928Y362430D01*
X868930Y362431D01*
G37*
G36*
X854960Y178131D02*
X854960Y178131D01*
X854962Y178130D01*
X855005Y178150D01*
X855049Y178168D01*
X855049Y178170D01*
X855051Y178171D01*
X855084Y178256D01*
X855084Y181304D01*
X855083Y181306D01*
X855084Y181308D01*
X855064Y181351D01*
X855046Y181395D01*
X855044Y181395D01*
X855043Y181397D01*
X854958Y181430D01*
X848862Y181430D01*
X848860Y181429D01*
X848858Y181430D01*
X848815Y181410D01*
X848771Y181392D01*
X848771Y181390D01*
X848769Y181389D01*
X848736Y181304D01*
X848736Y178256D01*
X848737Y178254D01*
X848736Y178252D01*
X848756Y178209D01*
X848774Y178165D01*
X848776Y178165D01*
X848777Y178163D01*
X848862Y178130D01*
X854958Y178130D01*
X854960Y178131D01*
G37*
G36*
X885960Y178131D02*
X885960Y178131D01*
X885962Y178130D01*
X886005Y178150D01*
X886049Y178168D01*
X886049Y178170D01*
X886051Y178171D01*
X886084Y178256D01*
X886084Y181304D01*
X886083Y181306D01*
X886084Y181308D01*
X886064Y181351D01*
X886046Y181395D01*
X886044Y181395D01*
X886043Y181397D01*
X885958Y181430D01*
X879862Y181430D01*
X879860Y181429D01*
X879858Y181430D01*
X879815Y181410D01*
X879771Y181392D01*
X879771Y181390D01*
X879769Y181389D01*
X879736Y181304D01*
X879736Y178256D01*
X879737Y178254D01*
X879736Y178252D01*
X879756Y178209D01*
X879774Y178165D01*
X879776Y178165D01*
X879777Y178163D01*
X879862Y178130D01*
X885958Y178130D01*
X885960Y178131D01*
G37*
G36*
X899930Y508331D02*
X899930Y508331D01*
X899932Y508330D01*
X899975Y508350D01*
X900019Y508368D01*
X900019Y508370D01*
X900021Y508371D01*
X900054Y508456D01*
X900054Y511504D01*
X900053Y511506D01*
X900054Y511508D01*
X900034Y511551D01*
X900016Y511595D01*
X900014Y511595D01*
X900013Y511597D01*
X899928Y511630D01*
X893832Y511630D01*
X893830Y511629D01*
X893828Y511630D01*
X893785Y511610D01*
X893741Y511592D01*
X893741Y511590D01*
X893739Y511589D01*
X893706Y511504D01*
X893706Y508456D01*
X893707Y508454D01*
X893706Y508452D01*
X893726Y508409D01*
X893744Y508365D01*
X893746Y508365D01*
X893747Y508363D01*
X893832Y508330D01*
X899928Y508330D01*
X899930Y508331D01*
G37*
G36*
X885960Y171631D02*
X885960Y171631D01*
X885962Y171630D01*
X886005Y171650D01*
X886049Y171668D01*
X886049Y171670D01*
X886051Y171671D01*
X886084Y171756D01*
X886084Y174804D01*
X886083Y174806D01*
X886084Y174808D01*
X886064Y174851D01*
X886046Y174895D01*
X886044Y174895D01*
X886043Y174897D01*
X885958Y174930D01*
X879862Y174930D01*
X879860Y174929D01*
X879858Y174930D01*
X879815Y174910D01*
X879771Y174892D01*
X879771Y174890D01*
X879769Y174889D01*
X879736Y174804D01*
X879736Y171756D01*
X879737Y171754D01*
X879736Y171752D01*
X879756Y171709D01*
X879774Y171665D01*
X879776Y171665D01*
X879777Y171663D01*
X879862Y171630D01*
X885958Y171630D01*
X885960Y171631D01*
G37*
G36*
X854960Y171631D02*
X854960Y171631D01*
X854962Y171630D01*
X855005Y171650D01*
X855049Y171668D01*
X855049Y171670D01*
X855051Y171671D01*
X855084Y171756D01*
X855084Y174804D01*
X855083Y174806D01*
X855084Y174808D01*
X855064Y174851D01*
X855046Y174895D01*
X855044Y174895D01*
X855043Y174897D01*
X854958Y174930D01*
X848862Y174930D01*
X848860Y174929D01*
X848858Y174930D01*
X848815Y174910D01*
X848771Y174892D01*
X848771Y174890D01*
X848769Y174889D01*
X848736Y174804D01*
X848736Y171756D01*
X848737Y171754D01*
X848736Y171752D01*
X848756Y171709D01*
X848774Y171665D01*
X848776Y171665D01*
X848777Y171663D01*
X848862Y171630D01*
X854958Y171630D01*
X854960Y171631D01*
G37*
G36*
X854960Y165131D02*
X854960Y165131D01*
X854962Y165130D01*
X855005Y165150D01*
X855049Y165168D01*
X855049Y165170D01*
X855051Y165171D01*
X855084Y165256D01*
X855084Y168304D01*
X855083Y168306D01*
X855084Y168308D01*
X855064Y168351D01*
X855046Y168395D01*
X855044Y168395D01*
X855043Y168397D01*
X854958Y168430D01*
X848862Y168430D01*
X848860Y168429D01*
X848858Y168430D01*
X848815Y168410D01*
X848771Y168392D01*
X848771Y168390D01*
X848769Y168389D01*
X848736Y168304D01*
X848736Y165256D01*
X848737Y165254D01*
X848736Y165252D01*
X848756Y165209D01*
X848774Y165165D01*
X848776Y165165D01*
X848777Y165163D01*
X848862Y165130D01*
X854958Y165130D01*
X854960Y165131D01*
G37*
G36*
X885960Y165131D02*
X885960Y165131D01*
X885962Y165130D01*
X886005Y165150D01*
X886049Y165168D01*
X886049Y165170D01*
X886051Y165171D01*
X886084Y165256D01*
X886084Y168304D01*
X886083Y168306D01*
X886084Y168308D01*
X886064Y168351D01*
X886046Y168395D01*
X886044Y168395D01*
X886043Y168397D01*
X885958Y168430D01*
X879862Y168430D01*
X879860Y168429D01*
X879858Y168430D01*
X879815Y168410D01*
X879771Y168392D01*
X879771Y168390D01*
X879769Y168389D01*
X879736Y168304D01*
X879736Y165256D01*
X879737Y165254D01*
X879736Y165252D01*
X879756Y165209D01*
X879774Y165165D01*
X879776Y165165D01*
X879777Y165163D01*
X879862Y165130D01*
X885958Y165130D01*
X885960Y165131D01*
G37*
G36*
X865120Y137641D02*
X865120Y137641D01*
X865122Y137640D01*
X865165Y137660D01*
X865209Y137678D01*
X865209Y137680D01*
X865211Y137681D01*
X865244Y137766D01*
X865244Y140814D01*
X865243Y140816D01*
X865244Y140818D01*
X865224Y140861D01*
X865206Y140905D01*
X865204Y140905D01*
X865203Y140907D01*
X865118Y140940D01*
X859022Y140940D01*
X859020Y140939D01*
X859018Y140940D01*
X858975Y140920D01*
X858931Y140902D01*
X858931Y140900D01*
X858929Y140899D01*
X858896Y140814D01*
X858896Y137766D01*
X858897Y137764D01*
X858896Y137762D01*
X858916Y137719D01*
X858934Y137675D01*
X858936Y137675D01*
X858937Y137673D01*
X859022Y137640D01*
X865118Y137640D01*
X865120Y137641D01*
G37*
G36*
X896120Y137641D02*
X896120Y137641D01*
X896122Y137640D01*
X896165Y137660D01*
X896209Y137678D01*
X896209Y137680D01*
X896211Y137681D01*
X896244Y137766D01*
X896244Y140814D01*
X896243Y140816D01*
X896244Y140818D01*
X896224Y140861D01*
X896206Y140905D01*
X896204Y140905D01*
X896203Y140907D01*
X896118Y140940D01*
X890022Y140940D01*
X890020Y140939D01*
X890018Y140940D01*
X889975Y140920D01*
X889931Y140902D01*
X889931Y140900D01*
X889929Y140899D01*
X889896Y140814D01*
X889896Y137766D01*
X889897Y137764D01*
X889896Y137762D01*
X889916Y137719D01*
X889934Y137675D01*
X889936Y137675D01*
X889937Y137673D01*
X890022Y137640D01*
X896118Y137640D01*
X896120Y137641D01*
G37*
G36*
X868930Y508331D02*
X868930Y508331D01*
X868932Y508330D01*
X868975Y508350D01*
X869019Y508368D01*
X869019Y508370D01*
X869021Y508371D01*
X869054Y508456D01*
X869054Y511504D01*
X869053Y511506D01*
X869054Y511508D01*
X869034Y511551D01*
X869016Y511595D01*
X869014Y511595D01*
X869013Y511597D01*
X868928Y511630D01*
X862832Y511630D01*
X862830Y511629D01*
X862828Y511630D01*
X862785Y511610D01*
X862741Y511592D01*
X862741Y511590D01*
X862739Y511589D01*
X862706Y511504D01*
X862706Y508456D01*
X862707Y508454D01*
X862706Y508452D01*
X862726Y508409D01*
X862744Y508365D01*
X862746Y508365D01*
X862747Y508363D01*
X862832Y508330D01*
X868928Y508330D01*
X868930Y508331D01*
G37*
G36*
X896120Y131141D02*
X896120Y131141D01*
X896122Y131140D01*
X896165Y131160D01*
X896209Y131178D01*
X896209Y131180D01*
X896211Y131181D01*
X896244Y131266D01*
X896244Y134314D01*
X896243Y134316D01*
X896244Y134318D01*
X896224Y134361D01*
X896206Y134405D01*
X896204Y134405D01*
X896203Y134407D01*
X896118Y134440D01*
X890022Y134440D01*
X890020Y134439D01*
X890018Y134440D01*
X889975Y134420D01*
X889931Y134402D01*
X889931Y134400D01*
X889929Y134399D01*
X889896Y134314D01*
X889896Y131266D01*
X889897Y131264D01*
X889896Y131262D01*
X889916Y131219D01*
X889934Y131175D01*
X889936Y131175D01*
X889937Y131173D01*
X890022Y131140D01*
X896118Y131140D01*
X896120Y131141D01*
G37*
G36*
X865120Y131141D02*
X865120Y131141D01*
X865122Y131140D01*
X865165Y131160D01*
X865209Y131178D01*
X865209Y131180D01*
X865211Y131181D01*
X865244Y131266D01*
X865244Y134314D01*
X865243Y134316D01*
X865244Y134318D01*
X865224Y134361D01*
X865206Y134405D01*
X865204Y134405D01*
X865203Y134407D01*
X865118Y134440D01*
X859022Y134440D01*
X859020Y134439D01*
X859018Y134440D01*
X858975Y134420D01*
X858931Y134402D01*
X858931Y134400D01*
X858929Y134399D01*
X858896Y134314D01*
X858896Y131266D01*
X858897Y131264D01*
X858896Y131262D01*
X858916Y131219D01*
X858934Y131175D01*
X858936Y131175D01*
X858937Y131173D01*
X859022Y131140D01*
X865118Y131140D01*
X865120Y131141D01*
G37*
G36*
X868930Y495331D02*
X868930Y495331D01*
X868932Y495330D01*
X868975Y495350D01*
X869019Y495368D01*
X869019Y495370D01*
X869021Y495371D01*
X869054Y495456D01*
X869054Y498504D01*
X869053Y498506D01*
X869054Y498508D01*
X869034Y498551D01*
X869016Y498595D01*
X869014Y498595D01*
X869013Y498597D01*
X868928Y498630D01*
X862832Y498630D01*
X862830Y498629D01*
X862828Y498630D01*
X862785Y498610D01*
X862741Y498592D01*
X862741Y498590D01*
X862739Y498589D01*
X862706Y498504D01*
X862706Y495456D01*
X862707Y495454D01*
X862706Y495452D01*
X862726Y495409D01*
X862744Y495365D01*
X862746Y495365D01*
X862747Y495363D01*
X862832Y495330D01*
X868928Y495330D01*
X868930Y495331D01*
G37*
G36*
X865120Y124641D02*
X865120Y124641D01*
X865122Y124640D01*
X865165Y124660D01*
X865209Y124678D01*
X865209Y124680D01*
X865211Y124681D01*
X865244Y124766D01*
X865244Y127814D01*
X865243Y127816D01*
X865244Y127818D01*
X865224Y127861D01*
X865206Y127905D01*
X865204Y127905D01*
X865203Y127907D01*
X865118Y127940D01*
X859022Y127940D01*
X859020Y127939D01*
X859018Y127940D01*
X858975Y127920D01*
X858931Y127902D01*
X858931Y127900D01*
X858929Y127899D01*
X858896Y127814D01*
X858896Y124766D01*
X858897Y124764D01*
X858896Y124762D01*
X858916Y124719D01*
X858934Y124675D01*
X858936Y124675D01*
X858937Y124673D01*
X859022Y124640D01*
X865118Y124640D01*
X865120Y124641D01*
G37*
G36*
X896120Y124641D02*
X896120Y124641D01*
X896122Y124640D01*
X896165Y124660D01*
X896209Y124678D01*
X896209Y124680D01*
X896211Y124681D01*
X896244Y124766D01*
X896244Y127814D01*
X896243Y127816D01*
X896244Y127818D01*
X896224Y127861D01*
X896206Y127905D01*
X896204Y127905D01*
X896203Y127907D01*
X896118Y127940D01*
X890022Y127940D01*
X890020Y127939D01*
X890018Y127940D01*
X889975Y127920D01*
X889931Y127902D01*
X889931Y127900D01*
X889929Y127899D01*
X889896Y127814D01*
X889896Y124766D01*
X889897Y124764D01*
X889896Y124762D01*
X889916Y124719D01*
X889934Y124675D01*
X889936Y124675D01*
X889937Y124673D01*
X890022Y124640D01*
X896118Y124640D01*
X896120Y124641D01*
G37*
G36*
X865120Y118141D02*
X865120Y118141D01*
X865122Y118140D01*
X865165Y118160D01*
X865209Y118178D01*
X865209Y118180D01*
X865211Y118181D01*
X865244Y118266D01*
X865244Y121314D01*
X865243Y121316D01*
X865244Y121318D01*
X865224Y121361D01*
X865206Y121405D01*
X865204Y121405D01*
X865203Y121407D01*
X865118Y121440D01*
X859022Y121440D01*
X859020Y121439D01*
X859018Y121440D01*
X858975Y121420D01*
X858931Y121402D01*
X858931Y121400D01*
X858929Y121399D01*
X858896Y121314D01*
X858896Y118266D01*
X858897Y118264D01*
X858896Y118262D01*
X858916Y118219D01*
X858934Y118175D01*
X858936Y118175D01*
X858937Y118173D01*
X859022Y118140D01*
X865118Y118140D01*
X865120Y118141D01*
G37*
G36*
X896120Y118141D02*
X896120Y118141D01*
X896122Y118140D01*
X896165Y118160D01*
X896209Y118178D01*
X896209Y118180D01*
X896211Y118181D01*
X896244Y118266D01*
X896244Y121314D01*
X896243Y121316D01*
X896244Y121318D01*
X896224Y121361D01*
X896206Y121405D01*
X896204Y121405D01*
X896203Y121407D01*
X896118Y121440D01*
X890022Y121440D01*
X890020Y121439D01*
X890018Y121440D01*
X889975Y121420D01*
X889931Y121402D01*
X889931Y121400D01*
X889929Y121399D01*
X889896Y121314D01*
X889896Y118266D01*
X889897Y118264D01*
X889896Y118262D01*
X889916Y118219D01*
X889934Y118175D01*
X889936Y118175D01*
X889937Y118173D01*
X890022Y118140D01*
X896118Y118140D01*
X896120Y118141D01*
G37*
G36*
X879363Y456805D02*
X879363Y456805D01*
X879365Y456804D01*
X879408Y456824D01*
X879451Y456842D01*
X879452Y456844D01*
X879454Y456845D01*
X879487Y456930D01*
X879487Y462804D01*
X879486Y462806D01*
X879487Y462808D01*
X879467Y462851D01*
X879449Y462895D01*
X879447Y462895D01*
X879446Y462897D01*
X879361Y462930D01*
X877571Y462930D01*
X877568Y462929D01*
X877565Y462930D01*
X877482Y462893D01*
X876068Y461479D01*
X876067Y461476D01*
X876064Y461475D01*
X876031Y461390D01*
X876031Y458344D01*
X876032Y458341D01*
X876031Y458338D01*
X876068Y458255D01*
X877482Y456841D01*
X877485Y456840D01*
X877486Y456837D01*
X877571Y456804D01*
X879361Y456804D01*
X879363Y456805D01*
G37*
G36*
X864872Y456805D02*
X864872Y456805D01*
X864875Y456804D01*
X864958Y456841D01*
X866372Y458255D01*
X866374Y458258D01*
X866376Y458259D01*
X866409Y458344D01*
X866409Y461390D01*
X866408Y461393D01*
X866409Y461396D01*
X866372Y461479D01*
X864958Y462893D01*
X864955Y462895D01*
X864954Y462897D01*
X864869Y462930D01*
X863079Y462930D01*
X863077Y462929D01*
X863075Y462930D01*
X863032Y462910D01*
X862989Y462892D01*
X862988Y462890D01*
X862986Y462889D01*
X862953Y462804D01*
X862953Y456930D01*
X862954Y456928D01*
X862953Y456926D01*
X862973Y456883D01*
X862991Y456839D01*
X862994Y456839D01*
X862994Y456837D01*
X863079Y456804D01*
X864869Y456804D01*
X864872Y456805D01*
G37*
G36*
X879363Y448931D02*
X879363Y448931D01*
X879365Y448930D01*
X879408Y448950D01*
X879451Y448968D01*
X879452Y448970D01*
X879454Y448971D01*
X879487Y449056D01*
X879487Y454930D01*
X879486Y454932D01*
X879487Y454934D01*
X879467Y454977D01*
X879449Y455021D01*
X879447Y455021D01*
X879446Y455023D01*
X879361Y455056D01*
X877571Y455056D01*
X877568Y455055D01*
X877565Y455056D01*
X877482Y455019D01*
X876068Y453605D01*
X876067Y453602D01*
X876064Y453601D01*
X876031Y453516D01*
X876031Y450470D01*
X876032Y450467D01*
X876031Y450464D01*
X876068Y450381D01*
X877482Y448967D01*
X877485Y448966D01*
X877486Y448963D01*
X877571Y448930D01*
X879361Y448930D01*
X879363Y448931D01*
G37*
G36*
X872492Y347331D02*
X872492Y347331D01*
X872495Y347330D01*
X872578Y347367D01*
X873992Y348781D01*
X873994Y348784D01*
X873996Y348785D01*
X874029Y348870D01*
X874029Y351916D01*
X874028Y351919D01*
X874029Y351922D01*
X873992Y352005D01*
X872578Y353419D01*
X872575Y353421D01*
X872574Y353423D01*
X872489Y353456D01*
X870699Y353456D01*
X870697Y353455D01*
X870695Y353456D01*
X870652Y353436D01*
X870609Y353418D01*
X870608Y353416D01*
X870606Y353415D01*
X870573Y353330D01*
X870573Y347456D01*
X870574Y347454D01*
X870573Y347452D01*
X870593Y347409D01*
X870611Y347365D01*
X870614Y347365D01*
X870614Y347363D01*
X870699Y347330D01*
X872489Y347330D01*
X872492Y347331D01*
G37*
G36*
X879363Y406005D02*
X879363Y406005D01*
X879365Y406004D01*
X879408Y406024D01*
X879451Y406042D01*
X879452Y406044D01*
X879454Y406045D01*
X879487Y406130D01*
X879487Y412004D01*
X879486Y412006D01*
X879487Y412008D01*
X879467Y412051D01*
X879449Y412095D01*
X879447Y412095D01*
X879446Y412097D01*
X879361Y412130D01*
X877571Y412130D01*
X877568Y412129D01*
X877565Y412130D01*
X877482Y412093D01*
X876068Y410679D01*
X876067Y410676D01*
X876064Y410675D01*
X876031Y410590D01*
X876031Y407544D01*
X876032Y407541D01*
X876031Y407538D01*
X876068Y407455D01*
X877482Y406041D01*
X877485Y406040D01*
X877486Y406037D01*
X877571Y406004D01*
X879361Y406004D01*
X879363Y406005D01*
G37*
G36*
X864872Y406005D02*
X864872Y406005D01*
X864875Y406004D01*
X864958Y406041D01*
X866372Y407455D01*
X866374Y407458D01*
X866376Y407459D01*
X866409Y407544D01*
X866409Y410590D01*
X866408Y410593D01*
X866409Y410596D01*
X866372Y410679D01*
X864958Y412093D01*
X864955Y412095D01*
X864954Y412097D01*
X864869Y412130D01*
X863079Y412130D01*
X863077Y412129D01*
X863075Y412130D01*
X863032Y412110D01*
X862989Y412092D01*
X862988Y412090D01*
X862986Y412089D01*
X862953Y412004D01*
X862953Y406130D01*
X862954Y406128D01*
X862953Y406126D01*
X862973Y406083D01*
X862991Y406039D01*
X862994Y406039D01*
X862994Y406037D01*
X863079Y406004D01*
X864869Y406004D01*
X864872Y406005D01*
G37*
G36*
X864872Y398131D02*
X864872Y398131D01*
X864875Y398130D01*
X864958Y398167D01*
X866372Y399581D01*
X866374Y399584D01*
X866376Y399585D01*
X866409Y399670D01*
X866409Y402716D01*
X866408Y402719D01*
X866409Y402722D01*
X866372Y402805D01*
X864958Y404219D01*
X864955Y404221D01*
X864954Y404223D01*
X864869Y404256D01*
X863079Y404256D01*
X863077Y404255D01*
X863075Y404256D01*
X863032Y404236D01*
X862989Y404218D01*
X862988Y404216D01*
X862986Y404215D01*
X862953Y404130D01*
X862953Y398256D01*
X862954Y398254D01*
X862953Y398252D01*
X862973Y398209D01*
X862991Y398165D01*
X862994Y398165D01*
X862994Y398163D01*
X863079Y398130D01*
X864869Y398130D01*
X864872Y398131D01*
G37*
G36*
X863602Y177405D02*
X863602Y177405D01*
X863605Y177404D01*
X863688Y177441D01*
X865102Y178855D01*
X865104Y178858D01*
X865106Y178859D01*
X865139Y178944D01*
X865139Y181990D01*
X865138Y181993D01*
X865139Y181996D01*
X865102Y182079D01*
X863688Y183493D01*
X863685Y183495D01*
X863684Y183497D01*
X863599Y183530D01*
X861809Y183530D01*
X861807Y183529D01*
X861805Y183530D01*
X861762Y183510D01*
X861719Y183492D01*
X861718Y183490D01*
X861716Y183489D01*
X861683Y183404D01*
X861683Y177530D01*
X861684Y177528D01*
X861683Y177526D01*
X861703Y177483D01*
X861721Y177439D01*
X861724Y177439D01*
X861724Y177437D01*
X861809Y177404D01*
X863599Y177404D01*
X863602Y177405D01*
G37*
G36*
X878093Y177405D02*
X878093Y177405D01*
X878095Y177404D01*
X878138Y177424D01*
X878181Y177442D01*
X878182Y177444D01*
X878184Y177445D01*
X878217Y177530D01*
X878217Y183404D01*
X878216Y183406D01*
X878217Y183408D01*
X878197Y183451D01*
X878179Y183495D01*
X878177Y183495D01*
X878176Y183497D01*
X878091Y183530D01*
X876301Y183530D01*
X876298Y183529D01*
X876295Y183530D01*
X876212Y183493D01*
X874798Y182079D01*
X874797Y182076D01*
X874794Y182075D01*
X874761Y181990D01*
X874761Y178944D01*
X874762Y178941D01*
X874761Y178938D01*
X874798Y178855D01*
X876212Y177441D01*
X876215Y177440D01*
X876216Y177437D01*
X876301Y177404D01*
X878091Y177404D01*
X878093Y177405D01*
G37*
G36*
X879363Y398131D02*
X879363Y398131D01*
X879365Y398130D01*
X879408Y398150D01*
X879451Y398168D01*
X879452Y398170D01*
X879454Y398171D01*
X879487Y398256D01*
X879487Y404130D01*
X879486Y404132D01*
X879487Y404134D01*
X879467Y404177D01*
X879449Y404221D01*
X879447Y404221D01*
X879446Y404223D01*
X879361Y404256D01*
X877571Y404256D01*
X877568Y404255D01*
X877565Y404256D01*
X877482Y404219D01*
X876068Y402805D01*
X876067Y402802D01*
X876064Y402801D01*
X876031Y402716D01*
X876031Y399670D01*
X876032Y399667D01*
X876031Y399664D01*
X876068Y399581D01*
X877482Y398167D01*
X877485Y398166D01*
X877486Y398163D01*
X877571Y398130D01*
X879361Y398130D01*
X879363Y398131D01*
G37*
G36*
X864872Y448931D02*
X864872Y448931D01*
X864875Y448930D01*
X864958Y448967D01*
X866372Y450381D01*
X866374Y450384D01*
X866376Y450385D01*
X866409Y450470D01*
X866409Y453516D01*
X866408Y453519D01*
X866409Y453522D01*
X866372Y453605D01*
X864958Y455019D01*
X864955Y455021D01*
X864954Y455023D01*
X864869Y455056D01*
X863079Y455056D01*
X863077Y455055D01*
X863075Y455056D01*
X863032Y455036D01*
X862989Y455018D01*
X862988Y455016D01*
X862986Y455015D01*
X862953Y454930D01*
X862953Y449056D01*
X862954Y449054D01*
X862953Y449052D01*
X862973Y449009D01*
X862991Y448965D01*
X862994Y448965D01*
X862994Y448963D01*
X863079Y448930D01*
X864869Y448930D01*
X864872Y448931D01*
G37*
G36*
X867412Y275195D02*
X867412Y275195D01*
X867415Y275194D01*
X867498Y275231D01*
X868912Y276645D01*
X868914Y276648D01*
X868916Y276649D01*
X868949Y276734D01*
X868949Y279780D01*
X868948Y279783D01*
X868949Y279786D01*
X868912Y279869D01*
X867498Y281283D01*
X867495Y281285D01*
X867494Y281287D01*
X867409Y281320D01*
X865619Y281320D01*
X865617Y281319D01*
X865615Y281320D01*
X865572Y281300D01*
X865529Y281282D01*
X865528Y281280D01*
X865526Y281279D01*
X865493Y281194D01*
X865493Y275320D01*
X865494Y275318D01*
X865493Y275316D01*
X865513Y275273D01*
X865531Y275229D01*
X865534Y275229D01*
X865534Y275227D01*
X865619Y275194D01*
X867409Y275194D01*
X867412Y275195D01*
G37*
G36*
X863602Y169531D02*
X863602Y169531D01*
X863605Y169530D01*
X863688Y169567D01*
X865102Y170981D01*
X865104Y170984D01*
X865106Y170985D01*
X865139Y171070D01*
X865139Y174116D01*
X865138Y174119D01*
X865139Y174122D01*
X865102Y174205D01*
X863688Y175619D01*
X863685Y175621D01*
X863684Y175623D01*
X863599Y175656D01*
X861809Y175656D01*
X861807Y175655D01*
X861805Y175656D01*
X861762Y175636D01*
X861719Y175618D01*
X861718Y175616D01*
X861716Y175615D01*
X861683Y175530D01*
X861683Y169656D01*
X861684Y169654D01*
X861683Y169652D01*
X861703Y169609D01*
X861721Y169565D01*
X861724Y169565D01*
X861724Y169563D01*
X861809Y169530D01*
X863599Y169530D01*
X863602Y169531D01*
G37*
G36*
X878093Y169531D02*
X878093Y169531D01*
X878095Y169530D01*
X878138Y169550D01*
X878181Y169568D01*
X878182Y169570D01*
X878184Y169571D01*
X878217Y169656D01*
X878217Y175530D01*
X878216Y175532D01*
X878217Y175534D01*
X878197Y175577D01*
X878179Y175621D01*
X878177Y175621D01*
X878176Y175623D01*
X878091Y175656D01*
X876301Y175656D01*
X876298Y175655D01*
X876295Y175656D01*
X876212Y175619D01*
X874798Y174205D01*
X874797Y174202D01*
X874794Y174201D01*
X874761Y174116D01*
X874761Y171070D01*
X874762Y171067D01*
X874761Y171064D01*
X874798Y170981D01*
X876212Y169567D01*
X876215Y169566D01*
X876216Y169563D01*
X876301Y169530D01*
X878091Y169530D01*
X878093Y169531D01*
G37*
G36*
X881903Y275195D02*
X881903Y275195D01*
X881905Y275194D01*
X881948Y275214D01*
X881991Y275232D01*
X881992Y275234D01*
X881994Y275235D01*
X882027Y275320D01*
X882027Y281194D01*
X882026Y281196D01*
X882027Y281198D01*
X882007Y281241D01*
X881989Y281285D01*
X881987Y281285D01*
X881986Y281287D01*
X881901Y281320D01*
X880111Y281320D01*
X880108Y281319D01*
X880105Y281320D01*
X880022Y281283D01*
X878608Y279869D01*
X878607Y279866D01*
X878604Y279865D01*
X878571Y279780D01*
X878571Y276734D01*
X878572Y276731D01*
X878571Y276728D01*
X878608Y276645D01*
X880022Y275231D01*
X880025Y275230D01*
X880026Y275227D01*
X880111Y275194D01*
X881901Y275194D01*
X881903Y275195D01*
G37*
G36*
X867412Y267321D02*
X867412Y267321D01*
X867415Y267320D01*
X867498Y267357D01*
X868912Y268771D01*
X868914Y268774D01*
X868916Y268775D01*
X868949Y268860D01*
X868949Y271906D01*
X868948Y271909D01*
X868949Y271912D01*
X868912Y271995D01*
X867498Y273409D01*
X867495Y273411D01*
X867494Y273413D01*
X867409Y273446D01*
X865619Y273446D01*
X865617Y273445D01*
X865615Y273446D01*
X865572Y273426D01*
X865529Y273408D01*
X865528Y273406D01*
X865526Y273405D01*
X865493Y273320D01*
X865493Y267446D01*
X865494Y267444D01*
X865493Y267442D01*
X865513Y267399D01*
X865531Y267355D01*
X865534Y267355D01*
X865534Y267353D01*
X865619Y267320D01*
X867409Y267320D01*
X867412Y267321D01*
G37*
G36*
X881903Y267321D02*
X881903Y267321D01*
X881905Y267320D01*
X881948Y267340D01*
X881991Y267358D01*
X881992Y267360D01*
X881994Y267361D01*
X882027Y267446D01*
X882027Y273320D01*
X882026Y273322D01*
X882027Y273324D01*
X882007Y273367D01*
X881989Y273411D01*
X881987Y273411D01*
X881986Y273413D01*
X881901Y273446D01*
X880111Y273446D01*
X880108Y273445D01*
X880105Y273446D01*
X880022Y273409D01*
X878608Y271995D01*
X878607Y271992D01*
X878604Y271991D01*
X878571Y271906D01*
X878571Y268860D01*
X878572Y268857D01*
X878571Y268854D01*
X878608Y268771D01*
X880022Y267357D01*
X880025Y267356D01*
X880026Y267353D01*
X880111Y267320D01*
X881901Y267320D01*
X881903Y267321D01*
G37*
G36*
X886983Y355205D02*
X886983Y355205D01*
X886985Y355204D01*
X887028Y355224D01*
X887071Y355242D01*
X887072Y355244D01*
X887074Y355245D01*
X887107Y355330D01*
X887107Y361204D01*
X887106Y361206D01*
X887107Y361208D01*
X887087Y361251D01*
X887069Y361295D01*
X887067Y361295D01*
X887066Y361297D01*
X886981Y361330D01*
X885191Y361330D01*
X885188Y361329D01*
X885185Y361330D01*
X885102Y361293D01*
X883688Y359879D01*
X883687Y359876D01*
X883684Y359875D01*
X883651Y359790D01*
X883651Y356744D01*
X883652Y356741D01*
X883651Y356738D01*
X883688Y356655D01*
X885102Y355241D01*
X885105Y355240D01*
X885106Y355237D01*
X885191Y355204D01*
X886981Y355204D01*
X886983Y355205D01*
G37*
G36*
X872492Y507605D02*
X872492Y507605D01*
X872495Y507604D01*
X872578Y507641D01*
X873992Y509055D01*
X873994Y509058D01*
X873996Y509059D01*
X874029Y509144D01*
X874029Y512190D01*
X874028Y512193D01*
X874029Y512196D01*
X873992Y512279D01*
X872578Y513693D01*
X872575Y513695D01*
X872574Y513697D01*
X872489Y513730D01*
X870699Y513730D01*
X870697Y513729D01*
X870695Y513730D01*
X870652Y513710D01*
X870609Y513692D01*
X870608Y513690D01*
X870606Y513689D01*
X870573Y513604D01*
X870573Y507730D01*
X870574Y507728D01*
X870573Y507726D01*
X870593Y507683D01*
X870611Y507639D01*
X870614Y507639D01*
X870614Y507637D01*
X870699Y507604D01*
X872489Y507604D01*
X872492Y507605D01*
G37*
G36*
X886983Y507605D02*
X886983Y507605D01*
X886985Y507604D01*
X887028Y507624D01*
X887071Y507642D01*
X887072Y507644D01*
X887074Y507645D01*
X887107Y507730D01*
X887107Y513604D01*
X887106Y513606D01*
X887107Y513608D01*
X887087Y513651D01*
X887069Y513695D01*
X887067Y513695D01*
X887066Y513697D01*
X886981Y513730D01*
X885191Y513730D01*
X885188Y513729D01*
X885185Y513730D01*
X885102Y513693D01*
X883688Y512279D01*
X883687Y512276D01*
X883684Y512275D01*
X883651Y512190D01*
X883651Y509144D01*
X883652Y509141D01*
X883651Y509138D01*
X883688Y509055D01*
X885102Y507641D01*
X885105Y507640D01*
X885106Y507637D01*
X885191Y507604D01*
X886981Y507604D01*
X886983Y507605D01*
G37*
G36*
X883173Y130415D02*
X883173Y130415D01*
X883175Y130414D01*
X883218Y130434D01*
X883261Y130452D01*
X883262Y130454D01*
X883264Y130455D01*
X883297Y130540D01*
X883297Y136414D01*
X883296Y136416D01*
X883297Y136418D01*
X883277Y136461D01*
X883259Y136505D01*
X883257Y136505D01*
X883256Y136507D01*
X883171Y136540D01*
X881381Y136540D01*
X881378Y136539D01*
X881375Y136540D01*
X881292Y136503D01*
X879878Y135089D01*
X879877Y135086D01*
X879874Y135085D01*
X879841Y135000D01*
X879841Y131954D01*
X879842Y131951D01*
X879841Y131948D01*
X879878Y131865D01*
X881292Y130451D01*
X881295Y130450D01*
X881296Y130447D01*
X881381Y130414D01*
X883171Y130414D01*
X883173Y130415D01*
G37*
G36*
X868682Y130415D02*
X868682Y130415D01*
X868685Y130414D01*
X868768Y130451D01*
X870182Y131865D01*
X870184Y131868D01*
X870186Y131869D01*
X870219Y131954D01*
X870219Y135000D01*
X870218Y135003D01*
X870219Y135006D01*
X870182Y135089D01*
X868768Y136503D01*
X868765Y136505D01*
X868764Y136507D01*
X868679Y136540D01*
X866889Y136540D01*
X866887Y136539D01*
X866885Y136540D01*
X866842Y136520D01*
X866799Y136502D01*
X866798Y136500D01*
X866796Y136499D01*
X866763Y136414D01*
X866763Y130540D01*
X866764Y130538D01*
X866763Y130536D01*
X866783Y130493D01*
X866801Y130449D01*
X866804Y130449D01*
X866804Y130447D01*
X866889Y130414D01*
X868679Y130414D01*
X868682Y130415D01*
G37*
G36*
X872492Y499731D02*
X872492Y499731D01*
X872495Y499730D01*
X872578Y499767D01*
X873992Y501181D01*
X873994Y501184D01*
X873996Y501185D01*
X874029Y501270D01*
X874029Y504316D01*
X874028Y504319D01*
X874029Y504322D01*
X873992Y504405D01*
X872578Y505819D01*
X872575Y505821D01*
X872574Y505823D01*
X872489Y505856D01*
X870699Y505856D01*
X870697Y505855D01*
X870695Y505856D01*
X870652Y505836D01*
X870609Y505818D01*
X870608Y505816D01*
X870606Y505815D01*
X870573Y505730D01*
X870573Y499856D01*
X870574Y499854D01*
X870573Y499852D01*
X870593Y499809D01*
X870611Y499765D01*
X870614Y499765D01*
X870614Y499763D01*
X870699Y499730D01*
X872489Y499730D01*
X872492Y499731D01*
G37*
G36*
X864872Y226935D02*
X864872Y226935D01*
X864875Y226934D01*
X864958Y226971D01*
X866372Y228385D01*
X866374Y228388D01*
X866376Y228389D01*
X866409Y228474D01*
X866409Y231520D01*
X866408Y231523D01*
X866409Y231526D01*
X866372Y231609D01*
X864958Y233023D01*
X864955Y233025D01*
X864954Y233027D01*
X864869Y233060D01*
X863079Y233060D01*
X863077Y233059D01*
X863075Y233060D01*
X863032Y233040D01*
X862989Y233022D01*
X862988Y233020D01*
X862986Y233019D01*
X862953Y232934D01*
X862953Y227060D01*
X862954Y227058D01*
X862953Y227056D01*
X862973Y227013D01*
X862991Y226969D01*
X862994Y226969D01*
X862994Y226967D01*
X863079Y226934D01*
X864869Y226934D01*
X864872Y226935D01*
G37*
G36*
X879363Y226935D02*
X879363Y226935D01*
X879365Y226934D01*
X879408Y226954D01*
X879451Y226972D01*
X879452Y226974D01*
X879454Y226975D01*
X879487Y227060D01*
X879487Y232934D01*
X879486Y232936D01*
X879487Y232938D01*
X879467Y232981D01*
X879449Y233025D01*
X879447Y233025D01*
X879446Y233027D01*
X879361Y233060D01*
X877571Y233060D01*
X877568Y233059D01*
X877565Y233060D01*
X877482Y233023D01*
X876068Y231609D01*
X876067Y231606D01*
X876064Y231605D01*
X876031Y231520D01*
X876031Y228474D01*
X876032Y228471D01*
X876031Y228468D01*
X876068Y228385D01*
X877482Y226971D01*
X877485Y226970D01*
X877486Y226967D01*
X877571Y226934D01*
X879361Y226934D01*
X879363Y226935D01*
G37*
G36*
X883173Y122541D02*
X883173Y122541D01*
X883175Y122540D01*
X883218Y122560D01*
X883261Y122578D01*
X883262Y122580D01*
X883264Y122581D01*
X883297Y122666D01*
X883297Y128540D01*
X883296Y128542D01*
X883297Y128544D01*
X883277Y128587D01*
X883259Y128631D01*
X883257Y128631D01*
X883256Y128633D01*
X883171Y128666D01*
X881381Y128666D01*
X881378Y128665D01*
X881375Y128666D01*
X881292Y128629D01*
X879878Y127215D01*
X879877Y127212D01*
X879874Y127211D01*
X879841Y127126D01*
X879841Y124080D01*
X879842Y124077D01*
X879841Y124074D01*
X879878Y123991D01*
X881292Y122577D01*
X881295Y122576D01*
X881296Y122573D01*
X881381Y122540D01*
X883171Y122540D01*
X883173Y122541D01*
G37*
G36*
X886983Y499731D02*
X886983Y499731D01*
X886985Y499730D01*
X887028Y499750D01*
X887071Y499768D01*
X887072Y499770D01*
X887074Y499771D01*
X887107Y499856D01*
X887107Y505730D01*
X887106Y505732D01*
X887107Y505734D01*
X887087Y505777D01*
X887069Y505821D01*
X887067Y505821D01*
X887066Y505823D01*
X886981Y505856D01*
X885191Y505856D01*
X885188Y505855D01*
X885185Y505856D01*
X885102Y505819D01*
X883688Y504405D01*
X883687Y504402D01*
X883684Y504401D01*
X883651Y504316D01*
X883651Y501270D01*
X883652Y501267D01*
X883651Y501264D01*
X883688Y501181D01*
X885102Y499767D01*
X885105Y499766D01*
X885106Y499763D01*
X885191Y499730D01*
X886981Y499730D01*
X886983Y499731D01*
G37*
G36*
X868682Y122541D02*
X868682Y122541D01*
X868685Y122540D01*
X868768Y122577D01*
X870182Y123991D01*
X870184Y123994D01*
X870186Y123995D01*
X870219Y124080D01*
X870219Y127126D01*
X870218Y127129D01*
X870219Y127132D01*
X870182Y127215D01*
X868768Y128629D01*
X868765Y128631D01*
X868764Y128633D01*
X868679Y128666D01*
X866889Y128666D01*
X866887Y128665D01*
X866885Y128666D01*
X866842Y128646D01*
X866799Y128628D01*
X866798Y128626D01*
X866796Y128625D01*
X866763Y128540D01*
X866763Y122666D01*
X866764Y122664D01*
X866763Y122662D01*
X866783Y122619D01*
X866801Y122575D01*
X866804Y122575D01*
X866804Y122573D01*
X866889Y122540D01*
X868679Y122540D01*
X868682Y122541D01*
G37*
G36*
X872492Y355205D02*
X872492Y355205D01*
X872495Y355204D01*
X872578Y355241D01*
X873992Y356655D01*
X873994Y356658D01*
X873996Y356659D01*
X874029Y356744D01*
X874029Y359790D01*
X874028Y359793D01*
X874029Y359796D01*
X873992Y359879D01*
X872578Y361293D01*
X872575Y361295D01*
X872574Y361297D01*
X872489Y361330D01*
X870699Y361330D01*
X870697Y361329D01*
X870695Y361330D01*
X870652Y361310D01*
X870609Y361292D01*
X870608Y361290D01*
X870606Y361289D01*
X870573Y361204D01*
X870573Y355330D01*
X870574Y355328D01*
X870573Y355326D01*
X870593Y355283D01*
X870611Y355239D01*
X870614Y355239D01*
X870614Y355237D01*
X870699Y355204D01*
X872489Y355204D01*
X872492Y355205D01*
G37*
G36*
X879363Y219061D02*
X879363Y219061D01*
X879365Y219060D01*
X879408Y219080D01*
X879451Y219098D01*
X879452Y219100D01*
X879454Y219101D01*
X879487Y219186D01*
X879487Y225060D01*
X879486Y225062D01*
X879487Y225064D01*
X879467Y225107D01*
X879449Y225151D01*
X879447Y225151D01*
X879446Y225153D01*
X879361Y225186D01*
X877571Y225186D01*
X877568Y225185D01*
X877565Y225186D01*
X877482Y225149D01*
X876068Y223735D01*
X876067Y223732D01*
X876064Y223731D01*
X876031Y223646D01*
X876031Y220600D01*
X876032Y220597D01*
X876031Y220594D01*
X876068Y220511D01*
X877482Y219097D01*
X877485Y219096D01*
X877486Y219093D01*
X877571Y219060D01*
X879361Y219060D01*
X879363Y219061D01*
G37*
G36*
X886983Y347331D02*
X886983Y347331D01*
X886985Y347330D01*
X887028Y347350D01*
X887071Y347368D01*
X887072Y347370D01*
X887074Y347371D01*
X887107Y347456D01*
X887107Y353330D01*
X887106Y353332D01*
X887107Y353334D01*
X887087Y353377D01*
X887069Y353421D01*
X887067Y353421D01*
X887066Y353423D01*
X886981Y353456D01*
X885191Y353456D01*
X885188Y353455D01*
X885185Y353456D01*
X885102Y353419D01*
X883688Y352005D01*
X883687Y352002D01*
X883684Y352001D01*
X883651Y351916D01*
X883651Y348870D01*
X883652Y348867D01*
X883651Y348864D01*
X883688Y348781D01*
X885102Y347367D01*
X885105Y347366D01*
X885106Y347363D01*
X885191Y347330D01*
X886981Y347330D01*
X886983Y347331D01*
G37*
G36*
X864872Y219061D02*
X864872Y219061D01*
X864875Y219060D01*
X864958Y219097D01*
X866372Y220511D01*
X866374Y220514D01*
X866376Y220515D01*
X866409Y220600D01*
X866409Y223646D01*
X866408Y223649D01*
X866409Y223652D01*
X866372Y223735D01*
X864958Y225149D01*
X864955Y225151D01*
X864954Y225153D01*
X864869Y225186D01*
X863079Y225186D01*
X863077Y225185D01*
X863075Y225186D01*
X863032Y225166D01*
X862989Y225148D01*
X862988Y225146D01*
X862986Y225145D01*
X862953Y225060D01*
X862953Y219186D01*
X862954Y219184D01*
X862953Y219182D01*
X862973Y219139D01*
X862991Y219095D01*
X862994Y219095D01*
X862994Y219093D01*
X863079Y219060D01*
X864869Y219060D01*
X864872Y219061D01*
G37*
G36*
X876556Y138289D02*
X876556Y138289D01*
X876559Y138288D01*
X876642Y138325D01*
X878056Y139739D01*
X878058Y139742D01*
X878060Y139743D01*
X878093Y139828D01*
X878093Y140983D01*
X878092Y140985D01*
X878093Y140987D01*
X878073Y141030D01*
X878055Y141073D01*
X878053Y141074D01*
X878052Y141076D01*
X877967Y141109D01*
X872093Y141109D01*
X872091Y141108D01*
X872089Y141109D01*
X872046Y141089D01*
X872002Y141071D01*
X872002Y141069D01*
X872000Y141068D01*
X871967Y140983D01*
X871967Y139828D01*
X871968Y139825D01*
X871967Y139822D01*
X872004Y139739D01*
X873418Y138325D01*
X873421Y138324D01*
X873422Y138321D01*
X873507Y138288D01*
X876553Y138288D01*
X876556Y138289D01*
G37*
G36*
X875286Y283069D02*
X875286Y283069D01*
X875289Y283068D01*
X875372Y283105D01*
X876786Y284519D01*
X876788Y284522D01*
X876790Y284523D01*
X876823Y284608D01*
X876823Y285763D01*
X876822Y285765D01*
X876823Y285767D01*
X876803Y285810D01*
X876785Y285853D01*
X876783Y285854D01*
X876782Y285856D01*
X876697Y285889D01*
X870823Y285889D01*
X870821Y285888D01*
X870819Y285889D01*
X870776Y285869D01*
X870732Y285851D01*
X870732Y285849D01*
X870730Y285848D01*
X870697Y285763D01*
X870697Y284608D01*
X870698Y284605D01*
X870697Y284602D01*
X870734Y284519D01*
X872148Y283105D01*
X872151Y283104D01*
X872152Y283101D01*
X872237Y283068D01*
X875283Y283068D01*
X875286Y283069D01*
G37*
G36*
X874159Y444362D02*
X874159Y444362D01*
X874161Y444361D01*
X874204Y444381D01*
X874248Y444399D01*
X874248Y444402D01*
X874250Y444402D01*
X874283Y444487D01*
X874283Y445642D01*
X874282Y445645D01*
X874283Y445648D01*
X874246Y445731D01*
X872832Y447145D01*
X872829Y447147D01*
X872828Y447149D01*
X872743Y447182D01*
X869697Y447182D01*
X869694Y447181D01*
X869691Y447182D01*
X869608Y447145D01*
X868194Y445731D01*
X868193Y445728D01*
X868190Y445727D01*
X868157Y445642D01*
X868157Y444487D01*
X868158Y444485D01*
X868157Y444483D01*
X868177Y444440D01*
X868195Y444397D01*
X868197Y444396D01*
X868198Y444394D01*
X868283Y444361D01*
X874157Y444361D01*
X874159Y444362D01*
G37*
G36*
X880366Y515479D02*
X880366Y515479D01*
X880369Y515478D01*
X880452Y515515D01*
X881866Y516929D01*
X881868Y516932D01*
X881870Y516933D01*
X881903Y517018D01*
X881903Y518173D01*
X881902Y518175D01*
X881903Y518177D01*
X881883Y518220D01*
X881865Y518263D01*
X881863Y518264D01*
X881862Y518266D01*
X881777Y518299D01*
X875903Y518299D01*
X875901Y518298D01*
X875899Y518299D01*
X875856Y518279D01*
X875812Y518261D01*
X875812Y518259D01*
X875810Y518258D01*
X875777Y518173D01*
X875777Y517018D01*
X875778Y517015D01*
X875777Y517012D01*
X875814Y516929D01*
X877228Y515515D01*
X877231Y515514D01*
X877232Y515511D01*
X877317Y515478D01*
X880363Y515478D01*
X880366Y515479D01*
G37*
G36*
X872746Y464679D02*
X872746Y464679D01*
X872749Y464678D01*
X872832Y464715D01*
X874246Y466129D01*
X874248Y466132D01*
X874250Y466133D01*
X874283Y466218D01*
X874283Y467373D01*
X874282Y467375D01*
X874283Y467377D01*
X874263Y467420D01*
X874245Y467463D01*
X874243Y467464D01*
X874242Y467466D01*
X874157Y467499D01*
X868283Y467499D01*
X868281Y467498D01*
X868279Y467499D01*
X868236Y467479D01*
X868192Y467461D01*
X868192Y467459D01*
X868190Y467458D01*
X868157Y467373D01*
X868157Y466218D01*
X868158Y466215D01*
X868157Y466212D01*
X868194Y466129D01*
X869608Y464715D01*
X869611Y464714D01*
X869612Y464711D01*
X869697Y464678D01*
X872743Y464678D01*
X872746Y464679D01*
G37*
G36*
X881779Y495162D02*
X881779Y495162D01*
X881781Y495161D01*
X881824Y495181D01*
X881868Y495199D01*
X881868Y495202D01*
X881870Y495202D01*
X881903Y495287D01*
X881903Y496442D01*
X881902Y496445D01*
X881903Y496448D01*
X881866Y496531D01*
X880452Y497945D01*
X880449Y497947D01*
X880448Y497949D01*
X880363Y497982D01*
X877317Y497982D01*
X877314Y497981D01*
X877311Y497982D01*
X877228Y497945D01*
X875814Y496531D01*
X875813Y496528D01*
X875810Y496527D01*
X875777Y496442D01*
X875777Y495287D01*
X875778Y495285D01*
X875777Y495283D01*
X875797Y495240D01*
X875815Y495197D01*
X875817Y495196D01*
X875818Y495194D01*
X875903Y495161D01*
X881777Y495161D01*
X881779Y495162D01*
G37*
G36*
X880366Y363079D02*
X880366Y363079D01*
X880369Y363078D01*
X880452Y363115D01*
X881866Y364529D01*
X881868Y364532D01*
X881870Y364533D01*
X881903Y364618D01*
X881903Y365773D01*
X881902Y365775D01*
X881903Y365777D01*
X881883Y365820D01*
X881865Y365863D01*
X881863Y365864D01*
X881862Y365866D01*
X881777Y365899D01*
X875903Y365899D01*
X875901Y365898D01*
X875899Y365899D01*
X875856Y365879D01*
X875812Y365861D01*
X875812Y365859D01*
X875810Y365858D01*
X875777Y365773D01*
X875777Y364618D01*
X875778Y364615D01*
X875777Y364612D01*
X875814Y364529D01*
X877228Y363115D01*
X877231Y363114D01*
X877232Y363111D01*
X877317Y363078D01*
X880363Y363078D01*
X880366Y363079D01*
G37*
G36*
X876699Y262752D02*
X876699Y262752D01*
X876701Y262751D01*
X876744Y262771D01*
X876788Y262789D01*
X876788Y262792D01*
X876790Y262792D01*
X876823Y262877D01*
X876823Y264032D01*
X876822Y264035D01*
X876823Y264038D01*
X876786Y264121D01*
X875372Y265535D01*
X875369Y265537D01*
X875368Y265539D01*
X875283Y265572D01*
X872237Y265572D01*
X872234Y265571D01*
X872231Y265572D01*
X872148Y265535D01*
X870734Y264121D01*
X870733Y264118D01*
X870730Y264117D01*
X870697Y264032D01*
X870697Y262877D01*
X870698Y262875D01*
X870697Y262873D01*
X870717Y262830D01*
X870735Y262787D01*
X870737Y262786D01*
X870738Y262784D01*
X870823Y262751D01*
X876697Y262751D01*
X876699Y262752D01*
G37*
G36*
X872746Y234809D02*
X872746Y234809D01*
X872749Y234808D01*
X872832Y234845D01*
X874246Y236259D01*
X874248Y236262D01*
X874250Y236263D01*
X874283Y236348D01*
X874283Y237503D01*
X874282Y237505D01*
X874283Y237507D01*
X874263Y237550D01*
X874245Y237593D01*
X874243Y237594D01*
X874242Y237596D01*
X874157Y237629D01*
X868283Y237629D01*
X868281Y237628D01*
X868279Y237629D01*
X868236Y237609D01*
X868192Y237591D01*
X868192Y237589D01*
X868190Y237588D01*
X868157Y237503D01*
X868157Y236348D01*
X868158Y236345D01*
X868157Y236342D01*
X868194Y236259D01*
X869608Y234845D01*
X869611Y234844D01*
X869612Y234841D01*
X869697Y234808D01*
X872743Y234808D01*
X872746Y234809D01*
G37*
G36*
X874159Y393562D02*
X874159Y393562D01*
X874161Y393561D01*
X874204Y393581D01*
X874248Y393599D01*
X874248Y393602D01*
X874250Y393602D01*
X874283Y393687D01*
X874283Y394842D01*
X874282Y394845D01*
X874283Y394848D01*
X874246Y394931D01*
X872832Y396345D01*
X872829Y396347D01*
X872828Y396349D01*
X872743Y396382D01*
X869697Y396382D01*
X869694Y396381D01*
X869691Y396382D01*
X869608Y396345D01*
X868194Y394931D01*
X868193Y394928D01*
X868190Y394927D01*
X868157Y394842D01*
X868157Y393687D01*
X868158Y393685D01*
X868157Y393683D01*
X868177Y393640D01*
X868195Y393597D01*
X868197Y393596D01*
X868198Y393594D01*
X868283Y393561D01*
X874157Y393561D01*
X874159Y393562D01*
G37*
G36*
X872746Y413879D02*
X872746Y413879D01*
X872749Y413878D01*
X872832Y413915D01*
X874246Y415329D01*
X874248Y415332D01*
X874250Y415333D01*
X874283Y415418D01*
X874283Y416573D01*
X874282Y416575D01*
X874283Y416577D01*
X874263Y416620D01*
X874245Y416663D01*
X874243Y416664D01*
X874242Y416666D01*
X874157Y416699D01*
X868283Y416699D01*
X868281Y416698D01*
X868279Y416699D01*
X868236Y416679D01*
X868192Y416661D01*
X868192Y416659D01*
X868190Y416658D01*
X868157Y416573D01*
X868157Y415418D01*
X868158Y415415D01*
X868157Y415412D01*
X868194Y415329D01*
X869608Y413915D01*
X869611Y413914D01*
X869612Y413911D01*
X869697Y413878D01*
X872743Y413878D01*
X872746Y413879D01*
G37*
G36*
X874159Y214492D02*
X874159Y214492D01*
X874161Y214491D01*
X874204Y214511D01*
X874248Y214529D01*
X874248Y214532D01*
X874250Y214532D01*
X874283Y214617D01*
X874283Y215772D01*
X874282Y215775D01*
X874283Y215778D01*
X874246Y215861D01*
X872832Y217275D01*
X872829Y217277D01*
X872828Y217279D01*
X872743Y217312D01*
X869697Y217312D01*
X869694Y217311D01*
X869691Y217312D01*
X869608Y217275D01*
X868194Y215861D01*
X868193Y215858D01*
X868190Y215857D01*
X868157Y215772D01*
X868157Y214617D01*
X868158Y214615D01*
X868157Y214613D01*
X868177Y214570D01*
X868195Y214527D01*
X868197Y214526D01*
X868198Y214524D01*
X868283Y214491D01*
X874157Y214491D01*
X874159Y214492D01*
G37*
G36*
X871476Y185279D02*
X871476Y185279D01*
X871479Y185278D01*
X871562Y185315D01*
X872976Y186729D01*
X872978Y186732D01*
X872980Y186733D01*
X873013Y186818D01*
X873013Y187973D01*
X873012Y187975D01*
X873013Y187977D01*
X872993Y188020D01*
X872975Y188063D01*
X872973Y188064D01*
X872972Y188066D01*
X872887Y188099D01*
X867013Y188099D01*
X867011Y188098D01*
X867009Y188099D01*
X866966Y188079D01*
X866922Y188061D01*
X866922Y188059D01*
X866920Y188058D01*
X866887Y187973D01*
X866887Y186818D01*
X866888Y186815D01*
X866887Y186812D01*
X866924Y186729D01*
X868338Y185315D01*
X868341Y185314D01*
X868342Y185311D01*
X868427Y185278D01*
X871473Y185278D01*
X871476Y185279D01*
G37*
G36*
X881779Y342762D02*
X881779Y342762D01*
X881781Y342761D01*
X881824Y342781D01*
X881868Y342799D01*
X881868Y342802D01*
X881870Y342802D01*
X881903Y342887D01*
X881903Y344042D01*
X881902Y344045D01*
X881903Y344048D01*
X881866Y344131D01*
X880452Y345545D01*
X880449Y345547D01*
X880448Y345549D01*
X880363Y345582D01*
X877317Y345582D01*
X877314Y345581D01*
X877311Y345582D01*
X877228Y345545D01*
X875814Y344131D01*
X875813Y344128D01*
X875810Y344127D01*
X875777Y344042D01*
X875777Y342887D01*
X875778Y342885D01*
X875777Y342883D01*
X875797Y342840D01*
X875815Y342797D01*
X875817Y342796D01*
X875818Y342794D01*
X875903Y342761D01*
X881777Y342761D01*
X881779Y342762D01*
G37*
G36*
X872889Y164962D02*
X872889Y164962D01*
X872891Y164961D01*
X872934Y164981D01*
X872978Y164999D01*
X872978Y165002D01*
X872980Y165002D01*
X873013Y165087D01*
X873013Y166242D01*
X873012Y166245D01*
X873013Y166248D01*
X872976Y166331D01*
X871562Y167745D01*
X871559Y167747D01*
X871558Y167749D01*
X871473Y167782D01*
X868427Y167782D01*
X868424Y167781D01*
X868421Y167782D01*
X868338Y167745D01*
X866924Y166331D01*
X866923Y166328D01*
X866920Y166327D01*
X866887Y166242D01*
X866887Y165087D01*
X866888Y165085D01*
X866887Y165083D01*
X866907Y165040D01*
X866925Y164997D01*
X866927Y164996D01*
X866928Y164994D01*
X867013Y164961D01*
X872887Y164961D01*
X872889Y164962D01*
G37*
G36*
X877969Y117972D02*
X877969Y117972D01*
X877971Y117971D01*
X878014Y117991D01*
X878058Y118009D01*
X878058Y118012D01*
X878060Y118012D01*
X878093Y118097D01*
X878093Y119252D01*
X878092Y119255D01*
X878093Y119258D01*
X878056Y119341D01*
X876642Y120755D01*
X876639Y120757D01*
X876638Y120759D01*
X876553Y120792D01*
X873507Y120792D01*
X873504Y120791D01*
X873501Y120792D01*
X873418Y120755D01*
X872004Y119341D01*
X872003Y119338D01*
X872000Y119337D01*
X871967Y119252D01*
X871967Y118097D01*
X871968Y118095D01*
X871967Y118093D01*
X871987Y118050D01*
X872005Y118007D01*
X872007Y118006D01*
X872008Y118004D01*
X872093Y117971D01*
X877967Y117971D01*
X877969Y117972D01*
G37*
G36*
X864872Y234809D02*
X864872Y234809D01*
X864875Y234808D01*
X864958Y234845D01*
X866372Y236259D01*
X866374Y236262D01*
X866376Y236263D01*
X866409Y236348D01*
X866409Y237503D01*
X866408Y237505D01*
X866409Y237507D01*
X866389Y237550D01*
X866371Y237593D01*
X866369Y237594D01*
X866368Y237596D01*
X866283Y237629D01*
X863079Y237629D01*
X863077Y237628D01*
X863075Y237629D01*
X863032Y237609D01*
X862989Y237591D01*
X862988Y237589D01*
X862986Y237588D01*
X862953Y237503D01*
X862953Y234934D01*
X862954Y234932D01*
X862953Y234930D01*
X862973Y234887D01*
X862991Y234843D01*
X862994Y234843D01*
X862994Y234841D01*
X863079Y234808D01*
X864869Y234808D01*
X864872Y234809D01*
G37*
G36*
X872492Y515479D02*
X872492Y515479D01*
X872495Y515478D01*
X872578Y515515D01*
X873992Y516929D01*
X873994Y516932D01*
X873996Y516933D01*
X874029Y517018D01*
X874029Y518173D01*
X874028Y518175D01*
X874029Y518177D01*
X874009Y518220D01*
X873991Y518263D01*
X873989Y518264D01*
X873988Y518266D01*
X873903Y518299D01*
X870699Y518299D01*
X870697Y518298D01*
X870695Y518299D01*
X870652Y518279D01*
X870609Y518261D01*
X870608Y518259D01*
X870606Y518258D01*
X870573Y518173D01*
X870573Y515604D01*
X870574Y515602D01*
X870573Y515600D01*
X870593Y515557D01*
X870611Y515513D01*
X870614Y515513D01*
X870614Y515511D01*
X870699Y515478D01*
X872489Y515478D01*
X872492Y515479D01*
G37*
G36*
X881903Y283069D02*
X881903Y283069D01*
X881905Y283068D01*
X881948Y283088D01*
X881991Y283106D01*
X881992Y283108D01*
X881994Y283109D01*
X882027Y283194D01*
X882027Y285763D01*
X882026Y285765D01*
X882027Y285767D01*
X882007Y285810D01*
X881989Y285853D01*
X881987Y285854D01*
X881986Y285856D01*
X881901Y285889D01*
X878697Y285889D01*
X878695Y285888D01*
X878693Y285889D01*
X878650Y285869D01*
X878606Y285851D01*
X878606Y285849D01*
X878604Y285848D01*
X878571Y285763D01*
X878571Y284608D01*
X878572Y284605D01*
X878571Y284602D01*
X878608Y284519D01*
X880022Y283105D01*
X880025Y283104D01*
X880026Y283101D01*
X880111Y283068D01*
X881901Y283068D01*
X881903Y283069D01*
G37*
G36*
X886983Y515479D02*
X886983Y515479D01*
X886985Y515478D01*
X887028Y515498D01*
X887071Y515516D01*
X887072Y515518D01*
X887074Y515519D01*
X887107Y515604D01*
X887107Y518173D01*
X887106Y518175D01*
X887107Y518177D01*
X887087Y518220D01*
X887069Y518263D01*
X887067Y518264D01*
X887066Y518266D01*
X886981Y518299D01*
X883777Y518299D01*
X883775Y518298D01*
X883773Y518299D01*
X883730Y518279D01*
X883686Y518261D01*
X883686Y518259D01*
X883684Y518258D01*
X883651Y518173D01*
X883651Y517018D01*
X883652Y517015D01*
X883651Y517012D01*
X883688Y516929D01*
X885102Y515515D01*
X885105Y515514D01*
X885106Y515511D01*
X885191Y515478D01*
X886981Y515478D01*
X886983Y515479D01*
G37*
G36*
X886983Y495162D02*
X886983Y495162D01*
X886985Y495161D01*
X887028Y495181D01*
X887071Y495199D01*
X887072Y495202D01*
X887074Y495202D01*
X887107Y495287D01*
X887107Y497856D01*
X887106Y497858D01*
X887107Y497860D01*
X887087Y497903D01*
X887069Y497947D01*
X887067Y497947D01*
X887066Y497949D01*
X886981Y497982D01*
X885191Y497982D01*
X885188Y497981D01*
X885185Y497982D01*
X885102Y497945D01*
X883688Y496531D01*
X883687Y496528D01*
X883684Y496527D01*
X883651Y496442D01*
X883651Y495287D01*
X883652Y495285D01*
X883651Y495283D01*
X883671Y495240D01*
X883689Y495197D01*
X883691Y495196D01*
X883692Y495194D01*
X883777Y495161D01*
X886981Y495161D01*
X886983Y495162D01*
G37*
G36*
X873905Y495162D02*
X873905Y495162D01*
X873907Y495161D01*
X873950Y495181D01*
X873994Y495199D01*
X873994Y495202D01*
X873996Y495202D01*
X874029Y495287D01*
X874029Y496442D01*
X874028Y496445D01*
X874029Y496448D01*
X873992Y496531D01*
X872578Y497945D01*
X872575Y497947D01*
X872574Y497949D01*
X872489Y497982D01*
X870699Y497982D01*
X870697Y497981D01*
X870695Y497982D01*
X870652Y497962D01*
X870609Y497944D01*
X870608Y497942D01*
X870606Y497941D01*
X870573Y497856D01*
X870573Y495287D01*
X870574Y495285D01*
X870573Y495283D01*
X870593Y495240D01*
X870611Y495197D01*
X870614Y495196D01*
X870614Y495194D01*
X870699Y495161D01*
X873903Y495161D01*
X873905Y495162D01*
G37*
G36*
X879363Y464679D02*
X879363Y464679D01*
X879365Y464678D01*
X879408Y464698D01*
X879451Y464716D01*
X879452Y464718D01*
X879454Y464719D01*
X879487Y464804D01*
X879487Y467373D01*
X879486Y467375D01*
X879487Y467377D01*
X879467Y467420D01*
X879449Y467463D01*
X879447Y467464D01*
X879446Y467466D01*
X879361Y467499D01*
X876157Y467499D01*
X876155Y467498D01*
X876153Y467499D01*
X876110Y467479D01*
X876066Y467461D01*
X876066Y467459D01*
X876064Y467458D01*
X876031Y467373D01*
X876031Y466218D01*
X876032Y466215D01*
X876031Y466212D01*
X876068Y466129D01*
X877482Y464715D01*
X877485Y464714D01*
X877486Y464711D01*
X877571Y464678D01*
X879361Y464678D01*
X879363Y464679D01*
G37*
G36*
X864872Y464679D02*
X864872Y464679D01*
X864875Y464678D01*
X864958Y464715D01*
X866372Y466129D01*
X866374Y466132D01*
X866376Y466133D01*
X866409Y466218D01*
X866409Y467373D01*
X866408Y467375D01*
X866409Y467377D01*
X866389Y467420D01*
X866371Y467463D01*
X866369Y467464D01*
X866368Y467466D01*
X866283Y467499D01*
X863079Y467499D01*
X863077Y467498D01*
X863075Y467499D01*
X863032Y467479D01*
X862989Y467461D01*
X862988Y467459D01*
X862986Y467458D01*
X862953Y467373D01*
X862953Y464804D01*
X862954Y464802D01*
X862953Y464800D01*
X862973Y464757D01*
X862991Y464713D01*
X862994Y464713D01*
X862994Y464711D01*
X863079Y464678D01*
X864869Y464678D01*
X864872Y464679D01*
G37*
G36*
X879363Y444362D02*
X879363Y444362D01*
X879365Y444361D01*
X879408Y444381D01*
X879451Y444399D01*
X879452Y444402D01*
X879454Y444402D01*
X879487Y444487D01*
X879487Y447056D01*
X879486Y447058D01*
X879487Y447060D01*
X879467Y447103D01*
X879449Y447147D01*
X879447Y447147D01*
X879446Y447149D01*
X879361Y447182D01*
X877571Y447182D01*
X877568Y447181D01*
X877565Y447182D01*
X877482Y447145D01*
X876068Y445731D01*
X876067Y445728D01*
X876064Y445727D01*
X876031Y445642D01*
X876031Y444487D01*
X876032Y444485D01*
X876031Y444483D01*
X876051Y444440D01*
X876069Y444397D01*
X876071Y444396D01*
X876072Y444394D01*
X876157Y444361D01*
X879361Y444361D01*
X879363Y444362D01*
G37*
G36*
X865015Y164962D02*
X865015Y164962D01*
X865017Y164961D01*
X865060Y164981D01*
X865104Y164999D01*
X865104Y165002D01*
X865106Y165002D01*
X865139Y165087D01*
X865139Y166242D01*
X865138Y166245D01*
X865139Y166248D01*
X865102Y166331D01*
X863688Y167745D01*
X863685Y167747D01*
X863684Y167749D01*
X863599Y167782D01*
X861809Y167782D01*
X861807Y167781D01*
X861805Y167782D01*
X861762Y167762D01*
X861719Y167744D01*
X861718Y167742D01*
X861716Y167741D01*
X861683Y167656D01*
X861683Y165087D01*
X861684Y165085D01*
X861683Y165083D01*
X861703Y165040D01*
X861721Y164997D01*
X861724Y164996D01*
X861724Y164994D01*
X861809Y164961D01*
X865013Y164961D01*
X865015Y164962D01*
G37*
G36*
X866285Y444362D02*
X866285Y444362D01*
X866287Y444361D01*
X866330Y444381D01*
X866374Y444399D01*
X866374Y444402D01*
X866376Y444402D01*
X866409Y444487D01*
X866409Y445642D01*
X866408Y445645D01*
X866409Y445648D01*
X866372Y445731D01*
X864958Y447145D01*
X864955Y447147D01*
X864954Y447149D01*
X864869Y447182D01*
X863079Y447182D01*
X863077Y447181D01*
X863075Y447182D01*
X863032Y447162D01*
X862989Y447144D01*
X862988Y447142D01*
X862986Y447141D01*
X862953Y447056D01*
X862953Y444487D01*
X862954Y444485D01*
X862953Y444483D01*
X862973Y444440D01*
X862991Y444397D01*
X862994Y444396D01*
X862994Y444394D01*
X863079Y444361D01*
X866283Y444361D01*
X866285Y444362D01*
G37*
G36*
X878093Y164962D02*
X878093Y164962D01*
X878095Y164961D01*
X878138Y164981D01*
X878181Y164999D01*
X878182Y165002D01*
X878184Y165002D01*
X878217Y165087D01*
X878217Y167656D01*
X878216Y167658D01*
X878217Y167660D01*
X878197Y167703D01*
X878179Y167747D01*
X878177Y167747D01*
X878176Y167749D01*
X878091Y167782D01*
X876301Y167782D01*
X876298Y167781D01*
X876295Y167782D01*
X876212Y167745D01*
X874798Y166331D01*
X874797Y166328D01*
X874794Y166327D01*
X874761Y166242D01*
X874761Y165087D01*
X874762Y165085D01*
X874761Y165083D01*
X874781Y165040D01*
X874799Y164997D01*
X874801Y164996D01*
X874802Y164994D01*
X874887Y164961D01*
X878091Y164961D01*
X878093Y164962D01*
G37*
G36*
X868682Y138289D02*
X868682Y138289D01*
X868685Y138288D01*
X868768Y138325D01*
X870182Y139739D01*
X870184Y139742D01*
X870186Y139743D01*
X870219Y139828D01*
X870219Y140983D01*
X870218Y140985D01*
X870219Y140987D01*
X870199Y141030D01*
X870181Y141073D01*
X870179Y141074D01*
X870178Y141076D01*
X870093Y141109D01*
X866889Y141109D01*
X866887Y141108D01*
X866885Y141109D01*
X866842Y141089D01*
X866799Y141071D01*
X866798Y141069D01*
X866796Y141068D01*
X866763Y140983D01*
X866763Y138414D01*
X866764Y138412D01*
X866763Y138410D01*
X866783Y138367D01*
X866801Y138323D01*
X866804Y138323D01*
X866804Y138321D01*
X866889Y138288D01*
X868679Y138288D01*
X868682Y138289D01*
G37*
G36*
X883173Y138289D02*
X883173Y138289D01*
X883175Y138288D01*
X883218Y138308D01*
X883261Y138326D01*
X883262Y138328D01*
X883264Y138329D01*
X883297Y138414D01*
X883297Y140983D01*
X883296Y140985D01*
X883297Y140987D01*
X883277Y141030D01*
X883259Y141073D01*
X883257Y141074D01*
X883256Y141076D01*
X883171Y141109D01*
X879967Y141109D01*
X879965Y141108D01*
X879963Y141109D01*
X879920Y141089D01*
X879876Y141071D01*
X879876Y141069D01*
X879874Y141068D01*
X879841Y140983D01*
X879841Y139828D01*
X879842Y139825D01*
X879841Y139822D01*
X879878Y139739D01*
X881292Y138325D01*
X881295Y138324D01*
X881296Y138321D01*
X881381Y138288D01*
X883171Y138288D01*
X883173Y138289D01*
G37*
G36*
X879363Y413879D02*
X879363Y413879D01*
X879365Y413878D01*
X879408Y413898D01*
X879451Y413916D01*
X879452Y413918D01*
X879454Y413919D01*
X879487Y414004D01*
X879487Y416573D01*
X879486Y416575D01*
X879487Y416577D01*
X879467Y416620D01*
X879449Y416663D01*
X879447Y416664D01*
X879446Y416666D01*
X879361Y416699D01*
X876157Y416699D01*
X876155Y416698D01*
X876153Y416699D01*
X876110Y416679D01*
X876066Y416661D01*
X876066Y416659D01*
X876064Y416658D01*
X876031Y416573D01*
X876031Y415418D01*
X876032Y415415D01*
X876031Y415412D01*
X876068Y415329D01*
X877482Y413915D01*
X877485Y413914D01*
X877486Y413911D01*
X877571Y413878D01*
X879361Y413878D01*
X879363Y413879D01*
G37*
G36*
X864872Y413879D02*
X864872Y413879D01*
X864875Y413878D01*
X864958Y413915D01*
X866372Y415329D01*
X866374Y415332D01*
X866376Y415333D01*
X866409Y415418D01*
X866409Y416573D01*
X866408Y416575D01*
X866409Y416577D01*
X866389Y416620D01*
X866371Y416663D01*
X866369Y416664D01*
X866368Y416666D01*
X866283Y416699D01*
X863079Y416699D01*
X863077Y416698D01*
X863075Y416699D01*
X863032Y416679D01*
X862989Y416661D01*
X862988Y416659D01*
X862986Y416658D01*
X862953Y416573D01*
X862953Y414004D01*
X862954Y414002D01*
X862953Y414000D01*
X862973Y413957D01*
X862991Y413913D01*
X862994Y413913D01*
X862994Y413911D01*
X863079Y413878D01*
X864869Y413878D01*
X864872Y413879D01*
G37*
G36*
X866285Y393562D02*
X866285Y393562D01*
X866287Y393561D01*
X866330Y393581D01*
X866374Y393599D01*
X866374Y393602D01*
X866376Y393602D01*
X866409Y393687D01*
X866409Y394842D01*
X866408Y394845D01*
X866409Y394848D01*
X866372Y394931D01*
X864958Y396345D01*
X864955Y396347D01*
X864954Y396349D01*
X864869Y396382D01*
X863079Y396382D01*
X863077Y396381D01*
X863075Y396382D01*
X863032Y396362D01*
X862989Y396344D01*
X862988Y396342D01*
X862986Y396341D01*
X862953Y396256D01*
X862953Y393687D01*
X862954Y393685D01*
X862953Y393683D01*
X862973Y393640D01*
X862991Y393597D01*
X862994Y393596D01*
X862994Y393594D01*
X863079Y393561D01*
X866283Y393561D01*
X866285Y393562D01*
G37*
G36*
X879363Y393562D02*
X879363Y393562D01*
X879365Y393561D01*
X879408Y393581D01*
X879451Y393599D01*
X879452Y393602D01*
X879454Y393602D01*
X879487Y393687D01*
X879487Y396256D01*
X879486Y396258D01*
X879487Y396260D01*
X879467Y396303D01*
X879449Y396347D01*
X879447Y396347D01*
X879446Y396349D01*
X879361Y396382D01*
X877571Y396382D01*
X877568Y396381D01*
X877565Y396382D01*
X877482Y396345D01*
X876068Y394931D01*
X876067Y394928D01*
X876064Y394927D01*
X876031Y394842D01*
X876031Y393687D01*
X876032Y393685D01*
X876031Y393683D01*
X876051Y393640D01*
X876069Y393597D01*
X876071Y393596D01*
X876072Y393594D01*
X876157Y393561D01*
X879361Y393561D01*
X879363Y393562D01*
G37*
G36*
X886983Y363079D02*
X886983Y363079D01*
X886985Y363078D01*
X887028Y363098D01*
X887071Y363116D01*
X887072Y363118D01*
X887074Y363119D01*
X887107Y363204D01*
X887107Y365773D01*
X887106Y365775D01*
X887107Y365777D01*
X887087Y365820D01*
X887069Y365863D01*
X887067Y365864D01*
X887066Y365866D01*
X886981Y365899D01*
X883777Y365899D01*
X883775Y365898D01*
X883773Y365899D01*
X883730Y365879D01*
X883686Y365861D01*
X883686Y365859D01*
X883684Y365858D01*
X883651Y365773D01*
X883651Y364618D01*
X883652Y364615D01*
X883651Y364612D01*
X883688Y364529D01*
X885102Y363115D01*
X885105Y363114D01*
X885106Y363111D01*
X885191Y363078D01*
X886981Y363078D01*
X886983Y363079D01*
G37*
G36*
X866285Y214492D02*
X866285Y214492D01*
X866287Y214491D01*
X866330Y214511D01*
X866374Y214529D01*
X866374Y214532D01*
X866376Y214532D01*
X866409Y214617D01*
X866409Y215772D01*
X866408Y215775D01*
X866409Y215778D01*
X866372Y215861D01*
X864958Y217275D01*
X864955Y217277D01*
X864954Y217279D01*
X864869Y217312D01*
X863079Y217312D01*
X863077Y217311D01*
X863075Y217312D01*
X863032Y217292D01*
X862989Y217274D01*
X862988Y217272D01*
X862986Y217271D01*
X862953Y217186D01*
X862953Y214617D01*
X862954Y214615D01*
X862953Y214613D01*
X862973Y214570D01*
X862991Y214527D01*
X862994Y214526D01*
X862994Y214524D01*
X863079Y214491D01*
X866283Y214491D01*
X866285Y214492D01*
G37*
G36*
X873905Y342762D02*
X873905Y342762D01*
X873907Y342761D01*
X873950Y342781D01*
X873994Y342799D01*
X873994Y342802D01*
X873996Y342802D01*
X874029Y342887D01*
X874029Y344042D01*
X874028Y344045D01*
X874029Y344048D01*
X873992Y344131D01*
X872578Y345545D01*
X872575Y345547D01*
X872574Y345549D01*
X872489Y345582D01*
X870699Y345582D01*
X870697Y345581D01*
X870695Y345582D01*
X870652Y345562D01*
X870609Y345544D01*
X870608Y345542D01*
X870606Y345541D01*
X870573Y345456D01*
X870573Y342887D01*
X870574Y342885D01*
X870573Y342883D01*
X870593Y342840D01*
X870611Y342797D01*
X870614Y342796D01*
X870614Y342794D01*
X870699Y342761D01*
X873903Y342761D01*
X873905Y342762D01*
G37*
G36*
X879363Y214492D02*
X879363Y214492D01*
X879365Y214491D01*
X879408Y214511D01*
X879451Y214529D01*
X879452Y214532D01*
X879454Y214532D01*
X879487Y214617D01*
X879487Y217186D01*
X879486Y217188D01*
X879487Y217190D01*
X879467Y217233D01*
X879449Y217277D01*
X879447Y217277D01*
X879446Y217279D01*
X879361Y217312D01*
X877571Y217312D01*
X877568Y217311D01*
X877565Y217312D01*
X877482Y217275D01*
X876068Y215861D01*
X876067Y215858D01*
X876064Y215857D01*
X876031Y215772D01*
X876031Y214617D01*
X876032Y214615D01*
X876031Y214613D01*
X876051Y214570D01*
X876069Y214527D01*
X876071Y214526D01*
X876072Y214524D01*
X876157Y214491D01*
X879361Y214491D01*
X879363Y214492D01*
G37*
G36*
X886983Y342762D02*
X886983Y342762D01*
X886985Y342761D01*
X887028Y342781D01*
X887071Y342799D01*
X887072Y342802D01*
X887074Y342802D01*
X887107Y342887D01*
X887107Y345456D01*
X887106Y345458D01*
X887107Y345460D01*
X887087Y345503D01*
X887069Y345547D01*
X887067Y345547D01*
X887066Y345549D01*
X886981Y345582D01*
X885191Y345582D01*
X885188Y345581D01*
X885185Y345582D01*
X885102Y345545D01*
X883688Y344131D01*
X883687Y344128D01*
X883684Y344127D01*
X883651Y344042D01*
X883651Y342887D01*
X883652Y342885D01*
X883651Y342883D01*
X883671Y342840D01*
X883689Y342797D01*
X883691Y342796D01*
X883692Y342794D01*
X883777Y342761D01*
X886981Y342761D01*
X886983Y342762D01*
G37*
G36*
X863602Y185279D02*
X863602Y185279D01*
X863605Y185278D01*
X863688Y185315D01*
X865102Y186729D01*
X865104Y186732D01*
X865106Y186733D01*
X865139Y186818D01*
X865139Y187973D01*
X865138Y187975D01*
X865139Y187977D01*
X865119Y188020D01*
X865101Y188063D01*
X865099Y188064D01*
X865098Y188066D01*
X865013Y188099D01*
X861809Y188099D01*
X861807Y188098D01*
X861805Y188099D01*
X861762Y188079D01*
X861719Y188061D01*
X861718Y188059D01*
X861716Y188058D01*
X861683Y187973D01*
X861683Y185404D01*
X861684Y185402D01*
X861683Y185400D01*
X861703Y185357D01*
X861721Y185313D01*
X861724Y185313D01*
X861724Y185311D01*
X861809Y185278D01*
X863599Y185278D01*
X863602Y185279D01*
G37*
G36*
X878093Y185279D02*
X878093Y185279D01*
X878095Y185278D01*
X878138Y185298D01*
X878181Y185316D01*
X878182Y185318D01*
X878184Y185319D01*
X878217Y185404D01*
X878217Y187973D01*
X878216Y187975D01*
X878217Y187977D01*
X878197Y188020D01*
X878179Y188063D01*
X878177Y188064D01*
X878176Y188066D01*
X878091Y188099D01*
X874887Y188099D01*
X874885Y188098D01*
X874883Y188099D01*
X874840Y188079D01*
X874796Y188061D01*
X874796Y188059D01*
X874794Y188058D01*
X874761Y187973D01*
X874761Y186818D01*
X874762Y186815D01*
X874761Y186812D01*
X874798Y186729D01*
X876212Y185315D01*
X876215Y185314D01*
X876216Y185311D01*
X876301Y185278D01*
X878091Y185278D01*
X878093Y185279D01*
G37*
G36*
X868825Y262752D02*
X868825Y262752D01*
X868827Y262751D01*
X868870Y262771D01*
X868914Y262789D01*
X868914Y262792D01*
X868916Y262792D01*
X868949Y262877D01*
X868949Y264032D01*
X868948Y264035D01*
X868949Y264038D01*
X868912Y264121D01*
X867498Y265535D01*
X867495Y265537D01*
X867494Y265539D01*
X867409Y265572D01*
X865619Y265572D01*
X865617Y265571D01*
X865615Y265572D01*
X865572Y265552D01*
X865529Y265534D01*
X865528Y265532D01*
X865526Y265531D01*
X865493Y265446D01*
X865493Y262877D01*
X865494Y262875D01*
X865493Y262873D01*
X865513Y262830D01*
X865531Y262787D01*
X865534Y262786D01*
X865534Y262784D01*
X865619Y262751D01*
X868823Y262751D01*
X868825Y262752D01*
G37*
G36*
X881903Y262752D02*
X881903Y262752D01*
X881905Y262751D01*
X881948Y262771D01*
X881991Y262789D01*
X881992Y262792D01*
X881994Y262792D01*
X882027Y262877D01*
X882027Y265446D01*
X882026Y265448D01*
X882027Y265450D01*
X882007Y265493D01*
X881989Y265537D01*
X881987Y265537D01*
X881986Y265539D01*
X881901Y265572D01*
X880111Y265572D01*
X880108Y265571D01*
X880105Y265572D01*
X880022Y265535D01*
X878608Y264121D01*
X878607Y264118D01*
X878604Y264117D01*
X878571Y264032D01*
X878571Y262877D01*
X878572Y262875D01*
X878571Y262873D01*
X878591Y262830D01*
X878609Y262787D01*
X878611Y262786D01*
X878612Y262784D01*
X878697Y262751D01*
X881901Y262751D01*
X881903Y262752D01*
G37*
G36*
X872492Y363079D02*
X872492Y363079D01*
X872495Y363078D01*
X872578Y363115D01*
X873992Y364529D01*
X873994Y364532D01*
X873996Y364533D01*
X874029Y364618D01*
X874029Y365773D01*
X874028Y365775D01*
X874029Y365777D01*
X874009Y365820D01*
X873991Y365863D01*
X873989Y365864D01*
X873988Y365866D01*
X873903Y365899D01*
X870699Y365899D01*
X870697Y365898D01*
X870695Y365899D01*
X870652Y365879D01*
X870609Y365861D01*
X870608Y365859D01*
X870606Y365858D01*
X870573Y365773D01*
X870573Y363204D01*
X870574Y363202D01*
X870573Y363200D01*
X870593Y363157D01*
X870611Y363113D01*
X870614Y363113D01*
X870614Y363111D01*
X870699Y363078D01*
X872489Y363078D01*
X872492Y363079D01*
G37*
G36*
X867412Y283069D02*
X867412Y283069D01*
X867415Y283068D01*
X867498Y283105D01*
X868912Y284519D01*
X868914Y284522D01*
X868916Y284523D01*
X868949Y284608D01*
X868949Y285763D01*
X868948Y285765D01*
X868949Y285767D01*
X868929Y285810D01*
X868911Y285853D01*
X868909Y285854D01*
X868908Y285856D01*
X868823Y285889D01*
X865619Y285889D01*
X865617Y285888D01*
X865615Y285889D01*
X865572Y285869D01*
X865529Y285851D01*
X865528Y285849D01*
X865526Y285848D01*
X865493Y285763D01*
X865493Y283194D01*
X865494Y283192D01*
X865493Y283190D01*
X865513Y283147D01*
X865531Y283103D01*
X865534Y283103D01*
X865534Y283101D01*
X865619Y283068D01*
X867409Y283068D01*
X867412Y283069D01*
G37*
G36*
X879363Y234809D02*
X879363Y234809D01*
X879365Y234808D01*
X879408Y234828D01*
X879451Y234846D01*
X879452Y234848D01*
X879454Y234849D01*
X879487Y234934D01*
X879487Y237503D01*
X879486Y237505D01*
X879487Y237507D01*
X879467Y237550D01*
X879449Y237593D01*
X879447Y237594D01*
X879446Y237596D01*
X879361Y237629D01*
X876157Y237629D01*
X876155Y237628D01*
X876153Y237629D01*
X876110Y237609D01*
X876066Y237591D01*
X876066Y237589D01*
X876064Y237588D01*
X876031Y237503D01*
X876031Y236348D01*
X876032Y236345D01*
X876031Y236342D01*
X876068Y236259D01*
X877482Y234845D01*
X877485Y234844D01*
X877486Y234841D01*
X877571Y234808D01*
X879361Y234808D01*
X879363Y234809D01*
G37*
G36*
X883173Y117972D02*
X883173Y117972D01*
X883175Y117971D01*
X883218Y117991D01*
X883261Y118009D01*
X883262Y118012D01*
X883264Y118012D01*
X883297Y118097D01*
X883297Y120666D01*
X883296Y120668D01*
X883297Y120670D01*
X883277Y120713D01*
X883259Y120757D01*
X883257Y120757D01*
X883256Y120759D01*
X883171Y120792D01*
X881381Y120792D01*
X881378Y120791D01*
X881375Y120792D01*
X881292Y120755D01*
X879878Y119341D01*
X879877Y119338D01*
X879874Y119337D01*
X879841Y119252D01*
X879841Y118097D01*
X879842Y118095D01*
X879841Y118093D01*
X879861Y118050D01*
X879879Y118007D01*
X879881Y118006D01*
X879882Y118004D01*
X879967Y117971D01*
X883171Y117971D01*
X883173Y117972D01*
G37*
G36*
X870095Y117972D02*
X870095Y117972D01*
X870097Y117971D01*
X870140Y117991D01*
X870184Y118009D01*
X870184Y118012D01*
X870186Y118012D01*
X870219Y118097D01*
X870219Y119252D01*
X870218Y119255D01*
X870219Y119258D01*
X870182Y119341D01*
X868768Y120755D01*
X868765Y120757D01*
X868764Y120759D01*
X868679Y120792D01*
X866889Y120792D01*
X866887Y120791D01*
X866885Y120792D01*
X866842Y120772D01*
X866799Y120754D01*
X866798Y120752D01*
X866796Y120751D01*
X866763Y120666D01*
X866763Y118097D01*
X866764Y118095D01*
X866763Y118093D01*
X866783Y118050D01*
X866801Y118007D01*
X866804Y118006D01*
X866804Y118004D01*
X866889Y117971D01*
X870093Y117971D01*
X870095Y117972D01*
G37*
D10*
X472830Y311150D03*
X489830Y311150D03*
D11*
X805180Y38230D03*
X805180Y86230D03*
X703580Y38230D03*
X703580Y86230D03*
D12*
X894080Y578730D03*
X894080Y561730D03*
D11*
X817880Y606930D03*
X817880Y558930D03*
X716280Y606930D03*
X716280Y558930D03*
D12*
X881380Y53730D03*
X881380Y70730D03*
D10*
X480450Y334010D03*
X497450Y334010D03*
D12*
X501650Y374260D03*
X501650Y357260D03*
X525780Y386960D03*
X525780Y369960D03*
D10*
X551570Y370840D03*
X568570Y370840D03*
D12*
X86360Y79130D03*
X86360Y96130D03*
X213360Y79130D03*
X213360Y96130D03*
D10*
X32140Y426720D03*
X49140Y426720D03*
X48650Y351790D03*
X65650Y351790D03*
D12*
X104530Y256540D03*
X121530Y256540D03*
X509660Y236220D03*
X526660Y236220D03*
D13*
X692090Y421640D03*
X748090Y421640D03*
X692090Y200660D03*
X748090Y200660D03*
D14*
X563880Y340360D03*
X563880Y335360D03*
X563880Y330360D03*
X563880Y325360D03*
X563880Y320360D03*
X563880Y315360D03*
X563880Y310360D03*
X563880Y305360D03*
X563880Y300360D03*
X563880Y295360D03*
X563880Y290360D03*
X563880Y285360D03*
X563880Y280360D03*
X563880Y275360D03*
X563880Y270360D03*
X563880Y265360D03*
X563880Y260360D03*
X563880Y255360D03*
X563880Y250360D03*
X621880Y250360D03*
X621880Y255360D03*
X621880Y260360D03*
X621880Y265360D03*
X621880Y270360D03*
X621880Y275360D03*
X621880Y280360D03*
X621880Y285360D03*
X621880Y290360D03*
X621880Y295360D03*
X621880Y300360D03*
X621880Y305360D03*
X621880Y310360D03*
X621880Y315360D03*
X621880Y320360D03*
X621880Y325360D03*
X621880Y330360D03*
X621880Y335360D03*
X621880Y340360D03*
D15*
X591820Y295910D03*
D16*
X104560Y394330D03*
X104560Y386330D03*
X104560Y378330D03*
X104560Y370330D03*
X104560Y362330D03*
X104560Y354330D03*
X104560Y346330D03*
X104560Y338330D03*
X104560Y330330D03*
X104560Y322330D03*
X104560Y314330D03*
D17*
X122560Y296330D03*
X130560Y296330D03*
X138560Y296330D03*
X146560Y296330D03*
X154560Y296330D03*
X162560Y296330D03*
X170560Y296330D03*
X178560Y296330D03*
X186560Y296330D03*
X194560Y296330D03*
X202560Y296330D03*
D16*
X220560Y314330D03*
X220560Y322330D03*
X220560Y330330D03*
X220560Y338330D03*
X220560Y346330D03*
X220560Y354330D03*
X220560Y362330D03*
X220560Y370330D03*
X220560Y378330D03*
X220560Y386330D03*
X220560Y394330D03*
D17*
X202560Y412330D03*
X194560Y412330D03*
X186560Y412330D03*
X178560Y412330D03*
X170560Y412330D03*
X162560Y412330D03*
X154560Y412330D03*
X146560Y412330D03*
X138560Y412330D03*
X130560Y412330D03*
X122560Y412330D03*
D18*
X193340Y590710D03*
X186840Y590710D03*
X180340Y590710D03*
X173840Y590710D03*
X167340Y590710D03*
D19*
X211340Y591960D03*
X149340Y591960D03*
D20*
X220340Y617460D03*
X140340Y617460D03*
D21*
X192340Y617460D03*
X168340Y617460D03*
D22*
X106860Y151130D03*
X192860Y151130D03*
D10*
X215510Y534670D03*
X198510Y534670D03*
X140090Y532130D03*
X157090Y532130D03*
D23*
X865880Y516480D03*
X865880Y509980D03*
X865880Y503480D03*
X865880Y496980D03*
X884180Y446180D03*
X884180Y452680D03*
X884180Y459180D03*
X884180Y465680D03*
X865880Y364080D03*
X865880Y357580D03*
X865880Y351080D03*
X865880Y344580D03*
X884180Y395380D03*
X884180Y401880D03*
X884180Y408380D03*
X884180Y414880D03*
X862070Y139290D03*
X862070Y132790D03*
X862070Y126290D03*
X862070Y119790D03*
X882910Y166780D03*
X882910Y173280D03*
X882910Y179780D03*
X882910Y186280D03*
X860800Y284070D03*
X860800Y277570D03*
X860800Y271070D03*
X860800Y264570D03*
X884180Y216310D03*
X884180Y222810D03*
X884180Y229310D03*
X884180Y235810D03*
M02*
