%
M48
M72
T01C0.0394
T02C0.0400
T03C0.1300
%
T01
X1900Y4900
X1900Y5900
X1900Y6900
X1900Y7900
X1900Y8900
X1900Y9900
X1900Y10900
X1900Y11900
X1900Y12900
X1900Y13900
X1900Y14900
X1900Y15900
X7900Y15900
X7900Y14900
X7900Y13900
X7900Y12900
X7900Y11900
X7900Y10900
X7900Y9900
X7900Y8900
X7900Y7900
X7900Y6900
X7900Y5900
X7900Y4900
X10500Y12343
X10500Y14981
T02
X10600Y9600
X10600Y8600
X10600Y7600
X10600Y6100
X10600Y5100
X10600Y4100
T03
X1600Y1600
X9100Y1600
X1600Y18300
X9100Y18400
M30
