G75*
%MOIN*%
%OFA0B0*%
%FSLAX25Y25*%
%IPPOS*%
%LPD*%
%AMOC8*
5,1,8,0,0,1.08239X$1,22.5*
%
%ADD10C,0.00000*%
D10*
X0001000Y0001000D02*
X0001000Y0201000D01*
X0126000Y0201000D01*
X0126000Y0001000D01*
X0084500Y0016000D02*
X0084502Y0016161D01*
X0084508Y0016321D01*
X0084518Y0016482D01*
X0084532Y0016642D01*
X0084550Y0016802D01*
X0084571Y0016961D01*
X0084597Y0017120D01*
X0084627Y0017278D01*
X0084660Y0017435D01*
X0084698Y0017592D01*
X0084739Y0017747D01*
X0084784Y0017901D01*
X0084833Y0018054D01*
X0084886Y0018206D01*
X0084942Y0018357D01*
X0085003Y0018506D01*
X0085066Y0018654D01*
X0085134Y0018800D01*
X0085205Y0018944D01*
X0085279Y0019086D01*
X0085357Y0019227D01*
X0085439Y0019365D01*
X0085524Y0019502D01*
X0085612Y0019636D01*
X0085704Y0019768D01*
X0085799Y0019898D01*
X0085897Y0020026D01*
X0085998Y0020151D01*
X0086102Y0020273D01*
X0086209Y0020393D01*
X0086319Y0020510D01*
X0086432Y0020625D01*
X0086548Y0020736D01*
X0086667Y0020845D01*
X0086788Y0020950D01*
X0086912Y0021053D01*
X0087038Y0021153D01*
X0087166Y0021249D01*
X0087297Y0021342D01*
X0087431Y0021432D01*
X0087566Y0021519D01*
X0087704Y0021602D01*
X0087843Y0021682D01*
X0087985Y0021758D01*
X0088128Y0021831D01*
X0088273Y0021900D01*
X0088420Y0021966D01*
X0088568Y0022028D01*
X0088718Y0022086D01*
X0088869Y0022141D01*
X0089022Y0022192D01*
X0089176Y0022239D01*
X0089331Y0022282D01*
X0089487Y0022321D01*
X0089643Y0022357D01*
X0089801Y0022388D01*
X0089959Y0022416D01*
X0090118Y0022440D01*
X0090278Y0022460D01*
X0090438Y0022476D01*
X0090598Y0022488D01*
X0090759Y0022496D01*
X0090920Y0022500D01*
X0091080Y0022500D01*
X0091241Y0022496D01*
X0091402Y0022488D01*
X0091562Y0022476D01*
X0091722Y0022460D01*
X0091882Y0022440D01*
X0092041Y0022416D01*
X0092199Y0022388D01*
X0092357Y0022357D01*
X0092513Y0022321D01*
X0092669Y0022282D01*
X0092824Y0022239D01*
X0092978Y0022192D01*
X0093131Y0022141D01*
X0093282Y0022086D01*
X0093432Y0022028D01*
X0093580Y0021966D01*
X0093727Y0021900D01*
X0093872Y0021831D01*
X0094015Y0021758D01*
X0094157Y0021682D01*
X0094296Y0021602D01*
X0094434Y0021519D01*
X0094569Y0021432D01*
X0094703Y0021342D01*
X0094834Y0021249D01*
X0094962Y0021153D01*
X0095088Y0021053D01*
X0095212Y0020950D01*
X0095333Y0020845D01*
X0095452Y0020736D01*
X0095568Y0020625D01*
X0095681Y0020510D01*
X0095791Y0020393D01*
X0095898Y0020273D01*
X0096002Y0020151D01*
X0096103Y0020026D01*
X0096201Y0019898D01*
X0096296Y0019768D01*
X0096388Y0019636D01*
X0096476Y0019502D01*
X0096561Y0019365D01*
X0096643Y0019227D01*
X0096721Y0019086D01*
X0096795Y0018944D01*
X0096866Y0018800D01*
X0096934Y0018654D01*
X0096997Y0018506D01*
X0097058Y0018357D01*
X0097114Y0018206D01*
X0097167Y0018054D01*
X0097216Y0017901D01*
X0097261Y0017747D01*
X0097302Y0017592D01*
X0097340Y0017435D01*
X0097373Y0017278D01*
X0097403Y0017120D01*
X0097429Y0016961D01*
X0097450Y0016802D01*
X0097468Y0016642D01*
X0097482Y0016482D01*
X0097492Y0016321D01*
X0097498Y0016161D01*
X0097500Y0016000D01*
X0097498Y0015839D01*
X0097492Y0015679D01*
X0097482Y0015518D01*
X0097468Y0015358D01*
X0097450Y0015198D01*
X0097429Y0015039D01*
X0097403Y0014880D01*
X0097373Y0014722D01*
X0097340Y0014565D01*
X0097302Y0014408D01*
X0097261Y0014253D01*
X0097216Y0014099D01*
X0097167Y0013946D01*
X0097114Y0013794D01*
X0097058Y0013643D01*
X0096997Y0013494D01*
X0096934Y0013346D01*
X0096866Y0013200D01*
X0096795Y0013056D01*
X0096721Y0012914D01*
X0096643Y0012773D01*
X0096561Y0012635D01*
X0096476Y0012498D01*
X0096388Y0012364D01*
X0096296Y0012232D01*
X0096201Y0012102D01*
X0096103Y0011974D01*
X0096002Y0011849D01*
X0095898Y0011727D01*
X0095791Y0011607D01*
X0095681Y0011490D01*
X0095568Y0011375D01*
X0095452Y0011264D01*
X0095333Y0011155D01*
X0095212Y0011050D01*
X0095088Y0010947D01*
X0094962Y0010847D01*
X0094834Y0010751D01*
X0094703Y0010658D01*
X0094569Y0010568D01*
X0094434Y0010481D01*
X0094296Y0010398D01*
X0094157Y0010318D01*
X0094015Y0010242D01*
X0093872Y0010169D01*
X0093727Y0010100D01*
X0093580Y0010034D01*
X0093432Y0009972D01*
X0093282Y0009914D01*
X0093131Y0009859D01*
X0092978Y0009808D01*
X0092824Y0009761D01*
X0092669Y0009718D01*
X0092513Y0009679D01*
X0092357Y0009643D01*
X0092199Y0009612D01*
X0092041Y0009584D01*
X0091882Y0009560D01*
X0091722Y0009540D01*
X0091562Y0009524D01*
X0091402Y0009512D01*
X0091241Y0009504D01*
X0091080Y0009500D01*
X0090920Y0009500D01*
X0090759Y0009504D01*
X0090598Y0009512D01*
X0090438Y0009524D01*
X0090278Y0009540D01*
X0090118Y0009560D01*
X0089959Y0009584D01*
X0089801Y0009612D01*
X0089643Y0009643D01*
X0089487Y0009679D01*
X0089331Y0009718D01*
X0089176Y0009761D01*
X0089022Y0009808D01*
X0088869Y0009859D01*
X0088718Y0009914D01*
X0088568Y0009972D01*
X0088420Y0010034D01*
X0088273Y0010100D01*
X0088128Y0010169D01*
X0087985Y0010242D01*
X0087843Y0010318D01*
X0087704Y0010398D01*
X0087566Y0010481D01*
X0087431Y0010568D01*
X0087297Y0010658D01*
X0087166Y0010751D01*
X0087038Y0010847D01*
X0086912Y0010947D01*
X0086788Y0011050D01*
X0086667Y0011155D01*
X0086548Y0011264D01*
X0086432Y0011375D01*
X0086319Y0011490D01*
X0086209Y0011607D01*
X0086102Y0011727D01*
X0085998Y0011849D01*
X0085897Y0011974D01*
X0085799Y0012102D01*
X0085704Y0012232D01*
X0085612Y0012364D01*
X0085524Y0012498D01*
X0085439Y0012635D01*
X0085357Y0012773D01*
X0085279Y0012914D01*
X0085205Y0013056D01*
X0085134Y0013200D01*
X0085066Y0013346D01*
X0085003Y0013494D01*
X0084942Y0013643D01*
X0084886Y0013794D01*
X0084833Y0013946D01*
X0084784Y0014099D01*
X0084739Y0014253D01*
X0084698Y0014408D01*
X0084660Y0014565D01*
X0084627Y0014722D01*
X0084597Y0014880D01*
X0084571Y0015039D01*
X0084550Y0015198D01*
X0084532Y0015358D01*
X0084518Y0015518D01*
X0084508Y0015679D01*
X0084502Y0015839D01*
X0084500Y0016000D01*
X0009500Y0016000D02*
X0009502Y0016161D01*
X0009508Y0016321D01*
X0009518Y0016482D01*
X0009532Y0016642D01*
X0009550Y0016802D01*
X0009571Y0016961D01*
X0009597Y0017120D01*
X0009627Y0017278D01*
X0009660Y0017435D01*
X0009698Y0017592D01*
X0009739Y0017747D01*
X0009784Y0017901D01*
X0009833Y0018054D01*
X0009886Y0018206D01*
X0009942Y0018357D01*
X0010003Y0018506D01*
X0010066Y0018654D01*
X0010134Y0018800D01*
X0010205Y0018944D01*
X0010279Y0019086D01*
X0010357Y0019227D01*
X0010439Y0019365D01*
X0010524Y0019502D01*
X0010612Y0019636D01*
X0010704Y0019768D01*
X0010799Y0019898D01*
X0010897Y0020026D01*
X0010998Y0020151D01*
X0011102Y0020273D01*
X0011209Y0020393D01*
X0011319Y0020510D01*
X0011432Y0020625D01*
X0011548Y0020736D01*
X0011667Y0020845D01*
X0011788Y0020950D01*
X0011912Y0021053D01*
X0012038Y0021153D01*
X0012166Y0021249D01*
X0012297Y0021342D01*
X0012431Y0021432D01*
X0012566Y0021519D01*
X0012704Y0021602D01*
X0012843Y0021682D01*
X0012985Y0021758D01*
X0013128Y0021831D01*
X0013273Y0021900D01*
X0013420Y0021966D01*
X0013568Y0022028D01*
X0013718Y0022086D01*
X0013869Y0022141D01*
X0014022Y0022192D01*
X0014176Y0022239D01*
X0014331Y0022282D01*
X0014487Y0022321D01*
X0014643Y0022357D01*
X0014801Y0022388D01*
X0014959Y0022416D01*
X0015118Y0022440D01*
X0015278Y0022460D01*
X0015438Y0022476D01*
X0015598Y0022488D01*
X0015759Y0022496D01*
X0015920Y0022500D01*
X0016080Y0022500D01*
X0016241Y0022496D01*
X0016402Y0022488D01*
X0016562Y0022476D01*
X0016722Y0022460D01*
X0016882Y0022440D01*
X0017041Y0022416D01*
X0017199Y0022388D01*
X0017357Y0022357D01*
X0017513Y0022321D01*
X0017669Y0022282D01*
X0017824Y0022239D01*
X0017978Y0022192D01*
X0018131Y0022141D01*
X0018282Y0022086D01*
X0018432Y0022028D01*
X0018580Y0021966D01*
X0018727Y0021900D01*
X0018872Y0021831D01*
X0019015Y0021758D01*
X0019157Y0021682D01*
X0019296Y0021602D01*
X0019434Y0021519D01*
X0019569Y0021432D01*
X0019703Y0021342D01*
X0019834Y0021249D01*
X0019962Y0021153D01*
X0020088Y0021053D01*
X0020212Y0020950D01*
X0020333Y0020845D01*
X0020452Y0020736D01*
X0020568Y0020625D01*
X0020681Y0020510D01*
X0020791Y0020393D01*
X0020898Y0020273D01*
X0021002Y0020151D01*
X0021103Y0020026D01*
X0021201Y0019898D01*
X0021296Y0019768D01*
X0021388Y0019636D01*
X0021476Y0019502D01*
X0021561Y0019365D01*
X0021643Y0019227D01*
X0021721Y0019086D01*
X0021795Y0018944D01*
X0021866Y0018800D01*
X0021934Y0018654D01*
X0021997Y0018506D01*
X0022058Y0018357D01*
X0022114Y0018206D01*
X0022167Y0018054D01*
X0022216Y0017901D01*
X0022261Y0017747D01*
X0022302Y0017592D01*
X0022340Y0017435D01*
X0022373Y0017278D01*
X0022403Y0017120D01*
X0022429Y0016961D01*
X0022450Y0016802D01*
X0022468Y0016642D01*
X0022482Y0016482D01*
X0022492Y0016321D01*
X0022498Y0016161D01*
X0022500Y0016000D01*
X0022498Y0015839D01*
X0022492Y0015679D01*
X0022482Y0015518D01*
X0022468Y0015358D01*
X0022450Y0015198D01*
X0022429Y0015039D01*
X0022403Y0014880D01*
X0022373Y0014722D01*
X0022340Y0014565D01*
X0022302Y0014408D01*
X0022261Y0014253D01*
X0022216Y0014099D01*
X0022167Y0013946D01*
X0022114Y0013794D01*
X0022058Y0013643D01*
X0021997Y0013494D01*
X0021934Y0013346D01*
X0021866Y0013200D01*
X0021795Y0013056D01*
X0021721Y0012914D01*
X0021643Y0012773D01*
X0021561Y0012635D01*
X0021476Y0012498D01*
X0021388Y0012364D01*
X0021296Y0012232D01*
X0021201Y0012102D01*
X0021103Y0011974D01*
X0021002Y0011849D01*
X0020898Y0011727D01*
X0020791Y0011607D01*
X0020681Y0011490D01*
X0020568Y0011375D01*
X0020452Y0011264D01*
X0020333Y0011155D01*
X0020212Y0011050D01*
X0020088Y0010947D01*
X0019962Y0010847D01*
X0019834Y0010751D01*
X0019703Y0010658D01*
X0019569Y0010568D01*
X0019434Y0010481D01*
X0019296Y0010398D01*
X0019157Y0010318D01*
X0019015Y0010242D01*
X0018872Y0010169D01*
X0018727Y0010100D01*
X0018580Y0010034D01*
X0018432Y0009972D01*
X0018282Y0009914D01*
X0018131Y0009859D01*
X0017978Y0009808D01*
X0017824Y0009761D01*
X0017669Y0009718D01*
X0017513Y0009679D01*
X0017357Y0009643D01*
X0017199Y0009612D01*
X0017041Y0009584D01*
X0016882Y0009560D01*
X0016722Y0009540D01*
X0016562Y0009524D01*
X0016402Y0009512D01*
X0016241Y0009504D01*
X0016080Y0009500D01*
X0015920Y0009500D01*
X0015759Y0009504D01*
X0015598Y0009512D01*
X0015438Y0009524D01*
X0015278Y0009540D01*
X0015118Y0009560D01*
X0014959Y0009584D01*
X0014801Y0009612D01*
X0014643Y0009643D01*
X0014487Y0009679D01*
X0014331Y0009718D01*
X0014176Y0009761D01*
X0014022Y0009808D01*
X0013869Y0009859D01*
X0013718Y0009914D01*
X0013568Y0009972D01*
X0013420Y0010034D01*
X0013273Y0010100D01*
X0013128Y0010169D01*
X0012985Y0010242D01*
X0012843Y0010318D01*
X0012704Y0010398D01*
X0012566Y0010481D01*
X0012431Y0010568D01*
X0012297Y0010658D01*
X0012166Y0010751D01*
X0012038Y0010847D01*
X0011912Y0010947D01*
X0011788Y0011050D01*
X0011667Y0011155D01*
X0011548Y0011264D01*
X0011432Y0011375D01*
X0011319Y0011490D01*
X0011209Y0011607D01*
X0011102Y0011727D01*
X0010998Y0011849D01*
X0010897Y0011974D01*
X0010799Y0012102D01*
X0010704Y0012232D01*
X0010612Y0012364D01*
X0010524Y0012498D01*
X0010439Y0012635D01*
X0010357Y0012773D01*
X0010279Y0012914D01*
X0010205Y0013056D01*
X0010134Y0013200D01*
X0010066Y0013346D01*
X0010003Y0013494D01*
X0009942Y0013643D01*
X0009886Y0013794D01*
X0009833Y0013946D01*
X0009784Y0014099D01*
X0009739Y0014253D01*
X0009698Y0014408D01*
X0009660Y0014565D01*
X0009627Y0014722D01*
X0009597Y0014880D01*
X0009571Y0015039D01*
X0009550Y0015198D01*
X0009532Y0015358D01*
X0009518Y0015518D01*
X0009508Y0015679D01*
X0009502Y0015839D01*
X0009500Y0016000D01*
X0009500Y0183000D02*
X0009502Y0183161D01*
X0009508Y0183321D01*
X0009518Y0183482D01*
X0009532Y0183642D01*
X0009550Y0183802D01*
X0009571Y0183961D01*
X0009597Y0184120D01*
X0009627Y0184278D01*
X0009660Y0184435D01*
X0009698Y0184592D01*
X0009739Y0184747D01*
X0009784Y0184901D01*
X0009833Y0185054D01*
X0009886Y0185206D01*
X0009942Y0185357D01*
X0010003Y0185506D01*
X0010066Y0185654D01*
X0010134Y0185800D01*
X0010205Y0185944D01*
X0010279Y0186086D01*
X0010357Y0186227D01*
X0010439Y0186365D01*
X0010524Y0186502D01*
X0010612Y0186636D01*
X0010704Y0186768D01*
X0010799Y0186898D01*
X0010897Y0187026D01*
X0010998Y0187151D01*
X0011102Y0187273D01*
X0011209Y0187393D01*
X0011319Y0187510D01*
X0011432Y0187625D01*
X0011548Y0187736D01*
X0011667Y0187845D01*
X0011788Y0187950D01*
X0011912Y0188053D01*
X0012038Y0188153D01*
X0012166Y0188249D01*
X0012297Y0188342D01*
X0012431Y0188432D01*
X0012566Y0188519D01*
X0012704Y0188602D01*
X0012843Y0188682D01*
X0012985Y0188758D01*
X0013128Y0188831D01*
X0013273Y0188900D01*
X0013420Y0188966D01*
X0013568Y0189028D01*
X0013718Y0189086D01*
X0013869Y0189141D01*
X0014022Y0189192D01*
X0014176Y0189239D01*
X0014331Y0189282D01*
X0014487Y0189321D01*
X0014643Y0189357D01*
X0014801Y0189388D01*
X0014959Y0189416D01*
X0015118Y0189440D01*
X0015278Y0189460D01*
X0015438Y0189476D01*
X0015598Y0189488D01*
X0015759Y0189496D01*
X0015920Y0189500D01*
X0016080Y0189500D01*
X0016241Y0189496D01*
X0016402Y0189488D01*
X0016562Y0189476D01*
X0016722Y0189460D01*
X0016882Y0189440D01*
X0017041Y0189416D01*
X0017199Y0189388D01*
X0017357Y0189357D01*
X0017513Y0189321D01*
X0017669Y0189282D01*
X0017824Y0189239D01*
X0017978Y0189192D01*
X0018131Y0189141D01*
X0018282Y0189086D01*
X0018432Y0189028D01*
X0018580Y0188966D01*
X0018727Y0188900D01*
X0018872Y0188831D01*
X0019015Y0188758D01*
X0019157Y0188682D01*
X0019296Y0188602D01*
X0019434Y0188519D01*
X0019569Y0188432D01*
X0019703Y0188342D01*
X0019834Y0188249D01*
X0019962Y0188153D01*
X0020088Y0188053D01*
X0020212Y0187950D01*
X0020333Y0187845D01*
X0020452Y0187736D01*
X0020568Y0187625D01*
X0020681Y0187510D01*
X0020791Y0187393D01*
X0020898Y0187273D01*
X0021002Y0187151D01*
X0021103Y0187026D01*
X0021201Y0186898D01*
X0021296Y0186768D01*
X0021388Y0186636D01*
X0021476Y0186502D01*
X0021561Y0186365D01*
X0021643Y0186227D01*
X0021721Y0186086D01*
X0021795Y0185944D01*
X0021866Y0185800D01*
X0021934Y0185654D01*
X0021997Y0185506D01*
X0022058Y0185357D01*
X0022114Y0185206D01*
X0022167Y0185054D01*
X0022216Y0184901D01*
X0022261Y0184747D01*
X0022302Y0184592D01*
X0022340Y0184435D01*
X0022373Y0184278D01*
X0022403Y0184120D01*
X0022429Y0183961D01*
X0022450Y0183802D01*
X0022468Y0183642D01*
X0022482Y0183482D01*
X0022492Y0183321D01*
X0022498Y0183161D01*
X0022500Y0183000D01*
X0022498Y0182839D01*
X0022492Y0182679D01*
X0022482Y0182518D01*
X0022468Y0182358D01*
X0022450Y0182198D01*
X0022429Y0182039D01*
X0022403Y0181880D01*
X0022373Y0181722D01*
X0022340Y0181565D01*
X0022302Y0181408D01*
X0022261Y0181253D01*
X0022216Y0181099D01*
X0022167Y0180946D01*
X0022114Y0180794D01*
X0022058Y0180643D01*
X0021997Y0180494D01*
X0021934Y0180346D01*
X0021866Y0180200D01*
X0021795Y0180056D01*
X0021721Y0179914D01*
X0021643Y0179773D01*
X0021561Y0179635D01*
X0021476Y0179498D01*
X0021388Y0179364D01*
X0021296Y0179232D01*
X0021201Y0179102D01*
X0021103Y0178974D01*
X0021002Y0178849D01*
X0020898Y0178727D01*
X0020791Y0178607D01*
X0020681Y0178490D01*
X0020568Y0178375D01*
X0020452Y0178264D01*
X0020333Y0178155D01*
X0020212Y0178050D01*
X0020088Y0177947D01*
X0019962Y0177847D01*
X0019834Y0177751D01*
X0019703Y0177658D01*
X0019569Y0177568D01*
X0019434Y0177481D01*
X0019296Y0177398D01*
X0019157Y0177318D01*
X0019015Y0177242D01*
X0018872Y0177169D01*
X0018727Y0177100D01*
X0018580Y0177034D01*
X0018432Y0176972D01*
X0018282Y0176914D01*
X0018131Y0176859D01*
X0017978Y0176808D01*
X0017824Y0176761D01*
X0017669Y0176718D01*
X0017513Y0176679D01*
X0017357Y0176643D01*
X0017199Y0176612D01*
X0017041Y0176584D01*
X0016882Y0176560D01*
X0016722Y0176540D01*
X0016562Y0176524D01*
X0016402Y0176512D01*
X0016241Y0176504D01*
X0016080Y0176500D01*
X0015920Y0176500D01*
X0015759Y0176504D01*
X0015598Y0176512D01*
X0015438Y0176524D01*
X0015278Y0176540D01*
X0015118Y0176560D01*
X0014959Y0176584D01*
X0014801Y0176612D01*
X0014643Y0176643D01*
X0014487Y0176679D01*
X0014331Y0176718D01*
X0014176Y0176761D01*
X0014022Y0176808D01*
X0013869Y0176859D01*
X0013718Y0176914D01*
X0013568Y0176972D01*
X0013420Y0177034D01*
X0013273Y0177100D01*
X0013128Y0177169D01*
X0012985Y0177242D01*
X0012843Y0177318D01*
X0012704Y0177398D01*
X0012566Y0177481D01*
X0012431Y0177568D01*
X0012297Y0177658D01*
X0012166Y0177751D01*
X0012038Y0177847D01*
X0011912Y0177947D01*
X0011788Y0178050D01*
X0011667Y0178155D01*
X0011548Y0178264D01*
X0011432Y0178375D01*
X0011319Y0178490D01*
X0011209Y0178607D01*
X0011102Y0178727D01*
X0010998Y0178849D01*
X0010897Y0178974D01*
X0010799Y0179102D01*
X0010704Y0179232D01*
X0010612Y0179364D01*
X0010524Y0179498D01*
X0010439Y0179635D01*
X0010357Y0179773D01*
X0010279Y0179914D01*
X0010205Y0180056D01*
X0010134Y0180200D01*
X0010066Y0180346D01*
X0010003Y0180494D01*
X0009942Y0180643D01*
X0009886Y0180794D01*
X0009833Y0180946D01*
X0009784Y0181099D01*
X0009739Y0181253D01*
X0009698Y0181408D01*
X0009660Y0181565D01*
X0009627Y0181722D01*
X0009597Y0181880D01*
X0009571Y0182039D01*
X0009550Y0182198D01*
X0009532Y0182358D01*
X0009518Y0182518D01*
X0009508Y0182679D01*
X0009502Y0182839D01*
X0009500Y0183000D01*
X0084500Y0184000D02*
X0084502Y0184161D01*
X0084508Y0184321D01*
X0084518Y0184482D01*
X0084532Y0184642D01*
X0084550Y0184802D01*
X0084571Y0184961D01*
X0084597Y0185120D01*
X0084627Y0185278D01*
X0084660Y0185435D01*
X0084698Y0185592D01*
X0084739Y0185747D01*
X0084784Y0185901D01*
X0084833Y0186054D01*
X0084886Y0186206D01*
X0084942Y0186357D01*
X0085003Y0186506D01*
X0085066Y0186654D01*
X0085134Y0186800D01*
X0085205Y0186944D01*
X0085279Y0187086D01*
X0085357Y0187227D01*
X0085439Y0187365D01*
X0085524Y0187502D01*
X0085612Y0187636D01*
X0085704Y0187768D01*
X0085799Y0187898D01*
X0085897Y0188026D01*
X0085998Y0188151D01*
X0086102Y0188273D01*
X0086209Y0188393D01*
X0086319Y0188510D01*
X0086432Y0188625D01*
X0086548Y0188736D01*
X0086667Y0188845D01*
X0086788Y0188950D01*
X0086912Y0189053D01*
X0087038Y0189153D01*
X0087166Y0189249D01*
X0087297Y0189342D01*
X0087431Y0189432D01*
X0087566Y0189519D01*
X0087704Y0189602D01*
X0087843Y0189682D01*
X0087985Y0189758D01*
X0088128Y0189831D01*
X0088273Y0189900D01*
X0088420Y0189966D01*
X0088568Y0190028D01*
X0088718Y0190086D01*
X0088869Y0190141D01*
X0089022Y0190192D01*
X0089176Y0190239D01*
X0089331Y0190282D01*
X0089487Y0190321D01*
X0089643Y0190357D01*
X0089801Y0190388D01*
X0089959Y0190416D01*
X0090118Y0190440D01*
X0090278Y0190460D01*
X0090438Y0190476D01*
X0090598Y0190488D01*
X0090759Y0190496D01*
X0090920Y0190500D01*
X0091080Y0190500D01*
X0091241Y0190496D01*
X0091402Y0190488D01*
X0091562Y0190476D01*
X0091722Y0190460D01*
X0091882Y0190440D01*
X0092041Y0190416D01*
X0092199Y0190388D01*
X0092357Y0190357D01*
X0092513Y0190321D01*
X0092669Y0190282D01*
X0092824Y0190239D01*
X0092978Y0190192D01*
X0093131Y0190141D01*
X0093282Y0190086D01*
X0093432Y0190028D01*
X0093580Y0189966D01*
X0093727Y0189900D01*
X0093872Y0189831D01*
X0094015Y0189758D01*
X0094157Y0189682D01*
X0094296Y0189602D01*
X0094434Y0189519D01*
X0094569Y0189432D01*
X0094703Y0189342D01*
X0094834Y0189249D01*
X0094962Y0189153D01*
X0095088Y0189053D01*
X0095212Y0188950D01*
X0095333Y0188845D01*
X0095452Y0188736D01*
X0095568Y0188625D01*
X0095681Y0188510D01*
X0095791Y0188393D01*
X0095898Y0188273D01*
X0096002Y0188151D01*
X0096103Y0188026D01*
X0096201Y0187898D01*
X0096296Y0187768D01*
X0096388Y0187636D01*
X0096476Y0187502D01*
X0096561Y0187365D01*
X0096643Y0187227D01*
X0096721Y0187086D01*
X0096795Y0186944D01*
X0096866Y0186800D01*
X0096934Y0186654D01*
X0096997Y0186506D01*
X0097058Y0186357D01*
X0097114Y0186206D01*
X0097167Y0186054D01*
X0097216Y0185901D01*
X0097261Y0185747D01*
X0097302Y0185592D01*
X0097340Y0185435D01*
X0097373Y0185278D01*
X0097403Y0185120D01*
X0097429Y0184961D01*
X0097450Y0184802D01*
X0097468Y0184642D01*
X0097482Y0184482D01*
X0097492Y0184321D01*
X0097498Y0184161D01*
X0097500Y0184000D01*
X0097498Y0183839D01*
X0097492Y0183679D01*
X0097482Y0183518D01*
X0097468Y0183358D01*
X0097450Y0183198D01*
X0097429Y0183039D01*
X0097403Y0182880D01*
X0097373Y0182722D01*
X0097340Y0182565D01*
X0097302Y0182408D01*
X0097261Y0182253D01*
X0097216Y0182099D01*
X0097167Y0181946D01*
X0097114Y0181794D01*
X0097058Y0181643D01*
X0096997Y0181494D01*
X0096934Y0181346D01*
X0096866Y0181200D01*
X0096795Y0181056D01*
X0096721Y0180914D01*
X0096643Y0180773D01*
X0096561Y0180635D01*
X0096476Y0180498D01*
X0096388Y0180364D01*
X0096296Y0180232D01*
X0096201Y0180102D01*
X0096103Y0179974D01*
X0096002Y0179849D01*
X0095898Y0179727D01*
X0095791Y0179607D01*
X0095681Y0179490D01*
X0095568Y0179375D01*
X0095452Y0179264D01*
X0095333Y0179155D01*
X0095212Y0179050D01*
X0095088Y0178947D01*
X0094962Y0178847D01*
X0094834Y0178751D01*
X0094703Y0178658D01*
X0094569Y0178568D01*
X0094434Y0178481D01*
X0094296Y0178398D01*
X0094157Y0178318D01*
X0094015Y0178242D01*
X0093872Y0178169D01*
X0093727Y0178100D01*
X0093580Y0178034D01*
X0093432Y0177972D01*
X0093282Y0177914D01*
X0093131Y0177859D01*
X0092978Y0177808D01*
X0092824Y0177761D01*
X0092669Y0177718D01*
X0092513Y0177679D01*
X0092357Y0177643D01*
X0092199Y0177612D01*
X0092041Y0177584D01*
X0091882Y0177560D01*
X0091722Y0177540D01*
X0091562Y0177524D01*
X0091402Y0177512D01*
X0091241Y0177504D01*
X0091080Y0177500D01*
X0090920Y0177500D01*
X0090759Y0177504D01*
X0090598Y0177512D01*
X0090438Y0177524D01*
X0090278Y0177540D01*
X0090118Y0177560D01*
X0089959Y0177584D01*
X0089801Y0177612D01*
X0089643Y0177643D01*
X0089487Y0177679D01*
X0089331Y0177718D01*
X0089176Y0177761D01*
X0089022Y0177808D01*
X0088869Y0177859D01*
X0088718Y0177914D01*
X0088568Y0177972D01*
X0088420Y0178034D01*
X0088273Y0178100D01*
X0088128Y0178169D01*
X0087985Y0178242D01*
X0087843Y0178318D01*
X0087704Y0178398D01*
X0087566Y0178481D01*
X0087431Y0178568D01*
X0087297Y0178658D01*
X0087166Y0178751D01*
X0087038Y0178847D01*
X0086912Y0178947D01*
X0086788Y0179050D01*
X0086667Y0179155D01*
X0086548Y0179264D01*
X0086432Y0179375D01*
X0086319Y0179490D01*
X0086209Y0179607D01*
X0086102Y0179727D01*
X0085998Y0179849D01*
X0085897Y0179974D01*
X0085799Y0180102D01*
X0085704Y0180232D01*
X0085612Y0180364D01*
X0085524Y0180498D01*
X0085439Y0180635D01*
X0085357Y0180773D01*
X0085279Y0180914D01*
X0085205Y0181056D01*
X0085134Y0181200D01*
X0085066Y0181346D01*
X0085003Y0181494D01*
X0084942Y0181643D01*
X0084886Y0181794D01*
X0084833Y0181946D01*
X0084784Y0182099D01*
X0084739Y0182253D01*
X0084698Y0182408D01*
X0084660Y0182565D01*
X0084627Y0182722D01*
X0084597Y0182880D01*
X0084571Y0183039D01*
X0084550Y0183198D01*
X0084532Y0183358D01*
X0084518Y0183518D01*
X0084508Y0183679D01*
X0084502Y0183839D01*
X0084500Y0184000D01*
M02*
