G75*
%MOIN*%
%OFA0B0*%
%FSLAX25Y25*%
%IPPOS*%
%LPD*%
%AMOC8*
5,1,8,0,0,1.08239X$1,22.5*
%
%ADD10C,0.07400*%
%ADD11C,0.09000*%
%ADD12C,0.08600*%
%ADD13C,0.01600*%
D10*
X0106000Y0041000D03*
X0106000Y0051000D03*
X0106000Y0061000D03*
X0106000Y0076000D03*
X0106000Y0086000D03*
X0106000Y0096000D03*
D11*
X0079000Y0099000D03*
X0079000Y0109000D03*
X0079000Y0119000D03*
X0079000Y0129000D03*
X0079000Y0139000D03*
X0079000Y0149000D03*
X0079000Y0159000D03*
X0079000Y0089000D03*
X0079000Y0079000D03*
X0079000Y0069000D03*
X0079000Y0059000D03*
X0079000Y0049000D03*
X0019000Y0049000D03*
X0019000Y0059000D03*
X0019000Y0069000D03*
X0019000Y0079000D03*
X0019000Y0089000D03*
X0019000Y0099000D03*
X0019000Y0109000D03*
X0019000Y0119000D03*
X0019000Y0129000D03*
X0019000Y0139000D03*
X0019000Y0149000D03*
X0019000Y0159000D03*
D12*
X0105000Y0149811D03*
X0105000Y0123433D03*
D13*
X0016000Y0043857D02*
X0016000Y0036000D01*
X0104744Y0036000D01*
X0103111Y0036676D01*
X0101676Y0038111D01*
X0100900Y0039986D01*
X0100900Y0042014D01*
X0101676Y0043889D01*
X0103111Y0045324D01*
X0104744Y0046000D01*
X0103111Y0046676D01*
X0101676Y0048111D01*
X0100900Y0049986D01*
X0100900Y0052014D01*
X0101676Y0053889D01*
X0103111Y0055324D01*
X0104237Y0055790D01*
X0103889Y0055903D01*
X0103117Y0056296D01*
X0102417Y0056805D01*
X0101805Y0057417D01*
X0101296Y0058117D01*
X0100903Y0058889D01*
X0100635Y0059712D01*
X0100500Y0060567D01*
X0100500Y0060800D01*
X0105800Y0060800D01*
X0105800Y0061200D01*
X0105800Y0066500D01*
X0105567Y0066500D01*
X0104712Y0066365D01*
X0103889Y0066097D01*
X0103117Y0065704D01*
X0102417Y0065195D01*
X0101805Y0064583D01*
X0101296Y0063883D01*
X0100903Y0063111D01*
X0100635Y0062288D01*
X0100500Y0061433D01*
X0100500Y0061200D01*
X0105800Y0061200D01*
X0106200Y0061200D01*
X0106200Y0066500D01*
X0106433Y0066500D01*
X0107288Y0066365D01*
X0108111Y0066097D01*
X0108883Y0065704D01*
X0109583Y0065195D01*
X0110195Y0064583D01*
X0110704Y0063883D01*
X0111097Y0063111D01*
X0111365Y0062288D01*
X0111500Y0061433D01*
X0111500Y0061200D01*
X0106200Y0061200D01*
X0106200Y0060800D01*
X0111500Y0060800D01*
X0111500Y0060567D01*
X0111365Y0059712D01*
X0111097Y0058889D01*
X0110704Y0058117D01*
X0110195Y0057417D01*
X0109583Y0056805D01*
X0108883Y0056296D01*
X0108111Y0055903D01*
X0107763Y0055790D01*
X0108889Y0055324D01*
X0110324Y0053889D01*
X0111100Y0052014D01*
X0111100Y0049986D01*
X0110324Y0048111D01*
X0108889Y0046676D01*
X0107256Y0046000D01*
X0108889Y0045324D01*
X0110324Y0043889D01*
X0111100Y0042014D01*
X0111100Y0039986D01*
X0110324Y0038111D01*
X0108889Y0036676D01*
X0107256Y0036000D01*
X0122700Y0036000D01*
X0122700Y0137000D01*
X0084558Y0137000D01*
X0084002Y0135658D01*
X0082344Y0134000D01*
X0084002Y0132342D01*
X0084900Y0130174D01*
X0084900Y0127826D01*
X0084002Y0125658D01*
X0082344Y0124000D01*
X0084002Y0122342D01*
X0084900Y0120174D01*
X0084900Y0117826D01*
X0084002Y0115658D01*
X0082344Y0114000D01*
X0084002Y0112342D01*
X0084900Y0110174D01*
X0084900Y0107826D01*
X0084002Y0105658D01*
X0082344Y0104000D01*
X0084002Y0102342D01*
X0084900Y0100174D01*
X0084900Y0097826D01*
X0084002Y0095658D01*
X0082344Y0094000D01*
X0084002Y0092342D01*
X0084900Y0090174D01*
X0084900Y0087826D01*
X0084002Y0085658D01*
X0082551Y0084207D01*
X0083104Y0083805D01*
X0083805Y0083104D01*
X0084388Y0082302D01*
X0084838Y0081418D01*
X0085145Y0080475D01*
X0085300Y0079496D01*
X0085300Y0079184D01*
X0079184Y0079184D01*
X0079184Y0078816D01*
X0079184Y0069184D01*
X0078816Y0069184D01*
X0078816Y0068816D01*
X0072700Y0068816D01*
X0072700Y0068504D01*
X0072855Y0067525D01*
X0073162Y0066582D01*
X0073612Y0065698D01*
X0074195Y0064896D01*
X0074896Y0064195D01*
X0075449Y0063793D01*
X0073998Y0062342D01*
X0073100Y0060174D01*
X0073100Y0057826D01*
X0073998Y0055658D01*
X0075656Y0054000D01*
X0073998Y0052342D01*
X0073100Y0050174D01*
X0073100Y0047826D01*
X0073998Y0045658D01*
X0075658Y0043998D01*
X0077826Y0043100D01*
X0080174Y0043100D01*
X0082342Y0043998D01*
X0084002Y0045658D01*
X0084900Y0047826D01*
X0084900Y0050174D01*
X0084002Y0052342D01*
X0082344Y0054000D01*
X0084002Y0055658D01*
X0084900Y0057826D01*
X0084900Y0060174D01*
X0084002Y0062342D01*
X0082551Y0063793D01*
X0083104Y0064195D01*
X0083805Y0064896D01*
X0084388Y0065698D01*
X0084838Y0066582D01*
X0085145Y0067525D01*
X0085300Y0068504D01*
X0085300Y0068816D01*
X0079184Y0068816D01*
X0079184Y0069184D01*
X0085300Y0069184D01*
X0085300Y0069496D01*
X0085145Y0070475D01*
X0084838Y0071418D01*
X0084388Y0072302D01*
X0083805Y0073104D01*
X0083104Y0073805D01*
X0082836Y0074000D01*
X0083104Y0074195D01*
X0083805Y0074896D01*
X0084388Y0075698D01*
X0084838Y0076582D01*
X0085145Y0077525D01*
X0085300Y0078504D01*
X0085300Y0078816D01*
X0079184Y0078816D01*
X0078816Y0078816D01*
X0078816Y0075300D01*
X0078816Y0069184D01*
X0072700Y0069184D01*
X0072700Y0069496D01*
X0072855Y0070475D01*
X0073162Y0071418D01*
X0073612Y0072302D01*
X0074195Y0073104D01*
X0074896Y0073805D01*
X0075164Y0074000D01*
X0074896Y0074195D01*
X0074195Y0074896D01*
X0073612Y0075698D01*
X0073162Y0076582D01*
X0072855Y0077525D01*
X0072700Y0078504D01*
X0072700Y0078816D01*
X0078816Y0078816D01*
X0078816Y0079184D01*
X0072700Y0079184D01*
X0072700Y0079496D01*
X0072855Y0080475D01*
X0073162Y0081418D01*
X0073612Y0082302D01*
X0074195Y0083104D01*
X0074896Y0083805D01*
X0075449Y0084207D01*
X0073998Y0085658D01*
X0073100Y0087826D01*
X0073100Y0090174D01*
X0073998Y0092342D01*
X0075656Y0094000D01*
X0073998Y0095658D01*
X0073100Y0097826D01*
X0073100Y0100174D01*
X0073998Y0102342D01*
X0075656Y0104000D01*
X0073998Y0105658D01*
X0073100Y0107826D01*
X0073100Y0110174D01*
X0073998Y0112342D01*
X0075656Y0114000D01*
X0073998Y0115658D01*
X0073100Y0117826D01*
X0073100Y0120174D01*
X0073998Y0122342D01*
X0075656Y0124000D01*
X0073998Y0125658D01*
X0073100Y0127826D01*
X0073100Y0130174D01*
X0073998Y0132342D01*
X0075656Y0134000D01*
X0073998Y0135658D01*
X0073442Y0137000D01*
X0024558Y0137000D01*
X0024002Y0135658D01*
X0022344Y0134000D01*
X0024002Y0132342D01*
X0024900Y0130174D01*
X0024900Y0127826D01*
X0024002Y0125658D01*
X0022344Y0124000D01*
X0024002Y0122342D01*
X0024900Y0120174D01*
X0024900Y0117826D01*
X0024002Y0115658D01*
X0022344Y0114000D01*
X0024002Y0112342D01*
X0024900Y0110174D01*
X0024900Y0107826D01*
X0024002Y0105658D01*
X0022344Y0104000D01*
X0024002Y0102342D01*
X0024900Y0100174D01*
X0024900Y0097826D01*
X0024002Y0095658D01*
X0022344Y0094000D01*
X0024002Y0092342D01*
X0024900Y0090174D01*
X0024900Y0087826D01*
X0024002Y0085658D01*
X0022344Y0084000D01*
X0024002Y0082342D01*
X0024900Y0080174D01*
X0024900Y0077826D01*
X0024002Y0075658D01*
X0022344Y0074000D01*
X0024002Y0072342D01*
X0024900Y0070174D01*
X0024900Y0067826D01*
X0024002Y0065658D01*
X0022551Y0064207D01*
X0023104Y0063805D01*
X0023805Y0063104D01*
X0024388Y0062302D01*
X0024838Y0061418D01*
X0025145Y0060475D01*
X0025300Y0059496D01*
X0025300Y0059184D01*
X0019184Y0059184D01*
X0019184Y0058816D01*
X0025300Y0058816D01*
X0025300Y0058504D01*
X0025145Y0057525D01*
X0024838Y0056582D01*
X0024388Y0055698D01*
X0023805Y0054896D01*
X0023104Y0054195D01*
X0022551Y0053793D01*
X0024002Y0052342D01*
X0024900Y0050174D01*
X0024900Y0047826D01*
X0024002Y0045658D01*
X0022342Y0043998D01*
X0020174Y0043100D01*
X0017826Y0043100D01*
X0016000Y0043857D01*
X0016000Y0042561D02*
X0101127Y0042561D01*
X0100900Y0040963D02*
X0016000Y0040963D01*
X0016000Y0039364D02*
X0101157Y0039364D01*
X0102022Y0037766D02*
X0016000Y0037766D01*
X0016000Y0036167D02*
X0104340Y0036167D01*
X0107660Y0036167D02*
X0122700Y0036167D01*
X0122700Y0037766D02*
X0109978Y0037766D01*
X0110843Y0039364D02*
X0122700Y0039364D01*
X0122700Y0040963D02*
X0111100Y0040963D01*
X0110873Y0042561D02*
X0122700Y0042561D01*
X0122700Y0044160D02*
X0110053Y0044160D01*
X0107839Y0045758D02*
X0122700Y0045758D01*
X0122700Y0047357D02*
X0109569Y0047357D01*
X0110673Y0048955D02*
X0122700Y0048955D01*
X0122700Y0050554D02*
X0111100Y0050554D01*
X0111043Y0052152D02*
X0122700Y0052152D01*
X0122700Y0053751D02*
X0110381Y0053751D01*
X0108827Y0055349D02*
X0122700Y0055349D01*
X0122700Y0056948D02*
X0109726Y0056948D01*
X0110923Y0058546D02*
X0122700Y0058546D01*
X0122700Y0060145D02*
X0111433Y0060145D01*
X0111451Y0061743D02*
X0122700Y0061743D01*
X0122700Y0063342D02*
X0110980Y0063342D01*
X0109838Y0064940D02*
X0122700Y0064940D01*
X0122700Y0066539D02*
X0084817Y0066539D01*
X0085242Y0068137D02*
X0122700Y0068137D01*
X0122700Y0069736D02*
X0085262Y0069736D01*
X0084866Y0071334D02*
X0103937Y0071334D01*
X0103111Y0071676D02*
X0104986Y0070900D01*
X0107014Y0070900D01*
X0108889Y0071676D01*
X0110324Y0073111D01*
X0111100Y0074986D01*
X0111100Y0077014D01*
X0110324Y0078889D01*
X0108889Y0080324D01*
X0107256Y0081000D01*
X0108889Y0081676D01*
X0110324Y0083111D01*
X0111100Y0084986D01*
X0111100Y0087014D01*
X0110324Y0088889D01*
X0108889Y0090324D01*
X0107763Y0090790D01*
X0108111Y0090903D01*
X0108883Y0091296D01*
X0109583Y0091805D01*
X0110195Y0092417D01*
X0110704Y0093117D01*
X0111097Y0093889D01*
X0111365Y0094712D01*
X0111500Y0095567D01*
X0111500Y0095800D01*
X0106200Y0095800D01*
X0106200Y0096200D01*
X0111500Y0096200D01*
X0111500Y0096433D01*
X0111365Y0097288D01*
X0111097Y0098111D01*
X0110704Y0098883D01*
X0110195Y0099583D01*
X0109583Y0100195D01*
X0108883Y0100704D01*
X0108111Y0101097D01*
X0107288Y0101365D01*
X0106433Y0101500D01*
X0106200Y0101500D01*
X0106200Y0096200D01*
X0105800Y0096200D01*
X0105800Y0101500D01*
X0105567Y0101500D01*
X0104712Y0101365D01*
X0103889Y0101097D01*
X0103117Y0100704D01*
X0102417Y0100195D01*
X0101805Y0099583D01*
X0101296Y0098883D01*
X0100903Y0098111D01*
X0100635Y0097288D01*
X0100500Y0096433D01*
X0100500Y0096200D01*
X0105800Y0096200D01*
X0105800Y0095800D01*
X0100500Y0095800D01*
X0100500Y0095567D01*
X0100635Y0094712D01*
X0100903Y0093889D01*
X0101296Y0093117D01*
X0101805Y0092417D01*
X0102417Y0091805D01*
X0103117Y0091296D01*
X0103889Y0090903D01*
X0104237Y0090790D01*
X0103111Y0090324D01*
X0101676Y0088889D01*
X0100900Y0087014D01*
X0100900Y0084986D01*
X0101676Y0083111D01*
X0103111Y0081676D01*
X0104744Y0081000D01*
X0103111Y0080324D01*
X0101676Y0078889D01*
X0100900Y0077014D01*
X0100900Y0074986D01*
X0101676Y0073111D01*
X0103111Y0071676D01*
X0101854Y0072933D02*
X0083930Y0072933D01*
X0083441Y0074532D02*
X0101088Y0074532D01*
X0100900Y0076130D02*
X0084608Y0076130D01*
X0085177Y0077729D02*
X0101196Y0077729D01*
X0102115Y0079327D02*
X0085300Y0079327D01*
X0084999Y0080926D02*
X0104564Y0080926D01*
X0102263Y0082524D02*
X0084227Y0082524D01*
X0082668Y0084123D02*
X0101257Y0084123D01*
X0100900Y0085721D02*
X0084028Y0085721D01*
X0084690Y0087320D02*
X0101026Y0087320D01*
X0101706Y0088918D02*
X0084900Y0088918D01*
X0084758Y0090517D02*
X0103577Y0090517D01*
X0102107Y0092115D02*
X0084096Y0092115D01*
X0082630Y0093714D02*
X0100992Y0093714D01*
X0100540Y0095312D02*
X0083656Y0095312D01*
X0084521Y0096911D02*
X0100576Y0096911D01*
X0101106Y0098509D02*
X0084900Y0098509D01*
X0084900Y0100108D02*
X0102330Y0100108D01*
X0105800Y0100108D02*
X0106200Y0100108D01*
X0106200Y0098509D02*
X0105800Y0098509D01*
X0105800Y0096911D02*
X0106200Y0096911D01*
X0109670Y0100108D02*
X0122700Y0100108D01*
X0122700Y0101706D02*
X0084265Y0101706D01*
X0083039Y0103305D02*
X0122700Y0103305D01*
X0122700Y0104903D02*
X0083247Y0104903D01*
X0084351Y0106502D02*
X0122700Y0106502D01*
X0122700Y0108100D02*
X0084900Y0108100D01*
X0084900Y0109699D02*
X0122700Y0109699D01*
X0122700Y0111297D02*
X0084435Y0111297D01*
X0083448Y0112896D02*
X0122700Y0112896D01*
X0122700Y0114494D02*
X0082838Y0114494D01*
X0084182Y0116093D02*
X0122700Y0116093D01*
X0122700Y0117691D02*
X0107069Y0117691D01*
X0107342Y0117780D02*
X0108197Y0118216D01*
X0108974Y0118780D01*
X0109653Y0119459D01*
X0110217Y0120236D01*
X0110653Y0121091D01*
X0110950Y0122005D01*
X0111100Y0122953D01*
X0111100Y0123249D01*
X0105184Y0123249D01*
X0105184Y0117333D01*
X0105480Y0117333D01*
X0106428Y0117483D01*
X0107342Y0117780D01*
X0105184Y0117691D02*
X0104816Y0117691D01*
X0104816Y0117333D02*
X0104816Y0123249D01*
X0098900Y0123249D01*
X0098900Y0122953D01*
X0099050Y0122005D01*
X0099347Y0121091D01*
X0099783Y0120236D01*
X0100347Y0119459D01*
X0101026Y0118780D01*
X0101803Y0118216D01*
X0102658Y0117780D01*
X0103572Y0117483D01*
X0104520Y0117333D01*
X0104816Y0117333D01*
X0104816Y0119290D02*
X0105184Y0119290D01*
X0105184Y0120888D02*
X0104816Y0120888D01*
X0104816Y0122487D02*
X0105184Y0122487D01*
X0105184Y0123249D02*
X0104816Y0123249D01*
X0104816Y0123617D01*
X0098900Y0123617D01*
X0098900Y0123913D01*
X0099050Y0124861D01*
X0099347Y0125775D01*
X0099783Y0126630D01*
X0100347Y0127407D01*
X0101026Y0128086D01*
X0101803Y0128650D01*
X0102658Y0129086D01*
X0103572Y0129383D01*
X0104520Y0129533D01*
X0104816Y0129533D01*
X0104816Y0123617D01*
X0105184Y0123617D01*
X0111100Y0123617D01*
X0111100Y0123913D01*
X0110950Y0124861D01*
X0110653Y0125775D01*
X0110217Y0126630D01*
X0109653Y0127407D01*
X0108974Y0128086D01*
X0108197Y0128650D01*
X0107342Y0129086D01*
X0106428Y0129383D01*
X0105480Y0129533D01*
X0105184Y0129533D01*
X0105184Y0123617D01*
X0105184Y0123249D01*
X0105184Y0124085D02*
X0104816Y0124085D01*
X0104816Y0125684D02*
X0105184Y0125684D01*
X0105184Y0127282D02*
X0104816Y0127282D01*
X0104816Y0128881D02*
X0105184Y0128881D01*
X0107744Y0128881D02*
X0122700Y0128881D01*
X0122700Y0130479D02*
X0084773Y0130479D01*
X0084900Y0128881D02*
X0102256Y0128881D01*
X0100257Y0127282D02*
X0084675Y0127282D01*
X0084013Y0125684D02*
X0099317Y0125684D01*
X0098927Y0124085D02*
X0082429Y0124085D01*
X0083857Y0122487D02*
X0098974Y0122487D01*
X0099450Y0120888D02*
X0084604Y0120888D01*
X0084900Y0119290D02*
X0100517Y0119290D01*
X0102931Y0117691D02*
X0084844Y0117691D01*
X0075571Y0124085D02*
X0022429Y0124085D01*
X0023857Y0122487D02*
X0074143Y0122487D01*
X0073396Y0120888D02*
X0024604Y0120888D01*
X0024900Y0119290D02*
X0073100Y0119290D01*
X0073156Y0117691D02*
X0024844Y0117691D01*
X0024182Y0116093D02*
X0073818Y0116093D01*
X0075162Y0114494D02*
X0022838Y0114494D01*
X0023448Y0112896D02*
X0074552Y0112896D01*
X0073565Y0111297D02*
X0024435Y0111297D01*
X0024900Y0109699D02*
X0073100Y0109699D01*
X0073100Y0108100D02*
X0024900Y0108100D01*
X0024351Y0106502D02*
X0073649Y0106502D01*
X0074753Y0104903D02*
X0023247Y0104903D01*
X0023039Y0103305D02*
X0074961Y0103305D01*
X0073735Y0101706D02*
X0024265Y0101706D01*
X0024900Y0100108D02*
X0073100Y0100108D01*
X0073100Y0098509D02*
X0024900Y0098509D01*
X0024521Y0096911D02*
X0073479Y0096911D01*
X0074344Y0095312D02*
X0023656Y0095312D01*
X0022630Y0093714D02*
X0075370Y0093714D01*
X0073904Y0092115D02*
X0024096Y0092115D01*
X0024758Y0090517D02*
X0073242Y0090517D01*
X0073100Y0088918D02*
X0024900Y0088918D01*
X0024690Y0087320D02*
X0073310Y0087320D01*
X0073972Y0085721D02*
X0024028Y0085721D01*
X0022466Y0084123D02*
X0075332Y0084123D01*
X0073773Y0082524D02*
X0023820Y0082524D01*
X0024589Y0080926D02*
X0073001Y0080926D01*
X0072700Y0079327D02*
X0024900Y0079327D01*
X0024859Y0077729D02*
X0072823Y0077729D01*
X0073392Y0076130D02*
X0024197Y0076130D01*
X0022875Y0074532D02*
X0074559Y0074532D01*
X0074070Y0072933D02*
X0023411Y0072933D01*
X0024419Y0071334D02*
X0073134Y0071334D01*
X0072738Y0069736D02*
X0024900Y0069736D01*
X0024900Y0068137D02*
X0072758Y0068137D01*
X0073183Y0066539D02*
X0024367Y0066539D01*
X0023284Y0064940D02*
X0074162Y0064940D01*
X0074998Y0063342D02*
X0023568Y0063342D01*
X0024673Y0061743D02*
X0073750Y0061743D01*
X0073100Y0060145D02*
X0025197Y0060145D01*
X0025300Y0058546D02*
X0073100Y0058546D01*
X0073464Y0056948D02*
X0024957Y0056948D01*
X0024135Y0055349D02*
X0074307Y0055349D01*
X0075407Y0053751D02*
X0022593Y0053751D01*
X0024080Y0052152D02*
X0073920Y0052152D01*
X0073258Y0050554D02*
X0024742Y0050554D01*
X0024900Y0048955D02*
X0073100Y0048955D01*
X0073295Y0047357D02*
X0024705Y0047357D01*
X0024043Y0045758D02*
X0073957Y0045758D01*
X0075496Y0044160D02*
X0022504Y0044160D01*
X0078816Y0069736D02*
X0079184Y0069736D01*
X0079184Y0071334D02*
X0078816Y0071334D01*
X0078816Y0072933D02*
X0079184Y0072933D01*
X0079184Y0074532D02*
X0078816Y0074532D01*
X0078816Y0076130D02*
X0079184Y0076130D01*
X0079184Y0077729D02*
X0078816Y0077729D01*
X0083838Y0064940D02*
X0102162Y0064940D01*
X0101020Y0063342D02*
X0083002Y0063342D01*
X0084250Y0061743D02*
X0100549Y0061743D01*
X0100567Y0060145D02*
X0084900Y0060145D01*
X0084900Y0058546D02*
X0101077Y0058546D01*
X0102274Y0056948D02*
X0084536Y0056948D01*
X0083693Y0055349D02*
X0103173Y0055349D01*
X0101619Y0053751D02*
X0082593Y0053751D01*
X0084080Y0052152D02*
X0100957Y0052152D01*
X0100900Y0050554D02*
X0084742Y0050554D01*
X0084900Y0048955D02*
X0101327Y0048955D01*
X0102431Y0047357D02*
X0084705Y0047357D01*
X0084043Y0045758D02*
X0104161Y0045758D01*
X0101947Y0044160D02*
X0082504Y0044160D01*
X0105800Y0061743D02*
X0106200Y0061743D01*
X0106200Y0063342D02*
X0105800Y0063342D01*
X0105800Y0064940D02*
X0106200Y0064940D01*
X0108063Y0071334D02*
X0122700Y0071334D01*
X0122700Y0072933D02*
X0110145Y0072933D01*
X0110912Y0074532D02*
X0122700Y0074532D01*
X0122700Y0076130D02*
X0111100Y0076130D01*
X0110804Y0077729D02*
X0122700Y0077729D01*
X0122700Y0079327D02*
X0109885Y0079327D01*
X0109737Y0082524D02*
X0122700Y0082524D01*
X0122700Y0080926D02*
X0107436Y0080926D01*
X0110743Y0084123D02*
X0122700Y0084123D01*
X0122700Y0085721D02*
X0111100Y0085721D01*
X0110974Y0087320D02*
X0122700Y0087320D01*
X0122700Y0088918D02*
X0110294Y0088918D01*
X0108423Y0090517D02*
X0122700Y0090517D01*
X0122700Y0092115D02*
X0109893Y0092115D01*
X0111008Y0093714D02*
X0122700Y0093714D01*
X0122700Y0095312D02*
X0111460Y0095312D01*
X0111424Y0096911D02*
X0122700Y0096911D01*
X0122700Y0098509D02*
X0110894Y0098509D01*
X0109483Y0119290D02*
X0122700Y0119290D01*
X0122700Y0120888D02*
X0110550Y0120888D01*
X0111026Y0122487D02*
X0122700Y0122487D01*
X0122700Y0124085D02*
X0111073Y0124085D01*
X0110683Y0125684D02*
X0122700Y0125684D01*
X0122700Y0127282D02*
X0109743Y0127282D01*
X0122700Y0132078D02*
X0084111Y0132078D01*
X0082667Y0133676D02*
X0122700Y0133676D01*
X0122700Y0135275D02*
X0083619Y0135275D01*
X0084505Y0136873D02*
X0122700Y0136873D01*
X0075333Y0133676D02*
X0022667Y0133676D01*
X0023619Y0135275D02*
X0074381Y0135275D01*
X0073495Y0136873D02*
X0024505Y0136873D01*
X0024111Y0132078D02*
X0073889Y0132078D01*
X0073227Y0130479D02*
X0024773Y0130479D01*
X0024900Y0128881D02*
X0073100Y0128881D01*
X0073325Y0127282D02*
X0024675Y0127282D01*
X0024013Y0125684D02*
X0073987Y0125684D01*
M02*
