G75*
%MOIN*%
%OFA0B0*%
%FSLAX25Y25*%
%IPPOS*%
%LPD*%
%AMOC8*
5,1,8,0,0,1.08239X$1,22.5*
%
%ADD10C,0.08400*%
%ADD11R,0.05331X0.04937*%
%ADD12R,0.05900X0.05700*%
%ADD13R,0.04543X0.04150*%
%ADD14C,0.10000*%
%ADD15C,0.08000*%
%ADD16R,0.01732X0.06850*%
%ADD17C,0.25000*%
%ADD18R,0.04937X0.05331*%
%ADD19C,0.05943*%
%ADD20C,0.13500*%
%ADD21OC8,0.07100*%
%ADD22R,0.03756X0.06512*%
%ADD23R,0.20685X0.20685*%
%ADD24R,0.03480X0.04268*%
%ADD25C,0.04762*%
D10*
X0077200Y0014405D03*
X0077200Y0039995D03*
X0164000Y0010000D03*
X0174000Y0010000D03*
X0187400Y0009600D03*
X0197400Y0009600D03*
X0140200Y0124000D03*
X0140200Y0134000D03*
X0140200Y0144000D03*
X0140200Y0154000D03*
X0150849Y0185252D03*
X0160691Y0185252D03*
X0170534Y0185252D03*
X0180376Y0185252D03*
D11*
X0180400Y0169946D03*
X0180400Y0163254D03*
X0170800Y0163254D03*
X0170800Y0169946D03*
X0160600Y0169946D03*
X0160600Y0163254D03*
X0151000Y0163254D03*
X0151000Y0169946D03*
X0097600Y0144146D03*
X0097600Y0137454D03*
X0087400Y0138054D03*
X0087400Y0144746D03*
X0057400Y0147854D03*
X0057400Y0154546D03*
X0057400Y0135546D03*
X0057400Y0128854D03*
X0057400Y0117346D03*
X0057400Y0110654D03*
X0057400Y0099946D03*
X0057400Y0093254D03*
X0087600Y0061546D03*
X0087600Y0054854D03*
X0097000Y0054854D03*
X0097000Y0061546D03*
X0106200Y0061946D03*
X0106200Y0055254D03*
X0146200Y0058854D03*
X0146200Y0065546D03*
X0154000Y0065546D03*
X0154000Y0058854D03*
X0176200Y0059454D03*
X0176200Y0066146D03*
X0189654Y0055600D03*
X0196346Y0055600D03*
X0196346Y0091000D03*
X0189654Y0091000D03*
D12*
X0107000Y0042100D03*
X0107000Y0033900D03*
D13*
X0078337Y0055260D03*
X0070069Y0059000D03*
X0078337Y0062740D03*
X0177063Y0112460D03*
X0185331Y0116200D03*
X0177063Y0119940D03*
D14*
X0127800Y0124000D03*
X0127800Y0114000D03*
X0127800Y0104000D03*
X0127800Y0094000D03*
X0127800Y0084000D03*
X0127800Y0074000D03*
X0067800Y0074000D03*
X0067800Y0084000D03*
X0067800Y0094000D03*
X0067800Y0104000D03*
X0067800Y0114000D03*
X0067800Y0124000D03*
X0067800Y0134000D03*
X0067800Y0144000D03*
X0067800Y0154000D03*
X0067800Y0164000D03*
X0067800Y0174000D03*
X0067800Y0184000D03*
X0127800Y0184000D03*
X0127800Y0174000D03*
X0127800Y0164000D03*
X0127800Y0154000D03*
X0127800Y0144000D03*
X0127800Y0134000D03*
D15*
X0047600Y0135800D03*
X0047600Y0125800D03*
X0047600Y0115800D03*
X0047600Y0105800D03*
X0047600Y0095800D03*
X0047600Y0085800D03*
X0007600Y0085800D03*
X0007600Y0095800D03*
X0007600Y0105800D03*
X0007600Y0115800D03*
X0007600Y0125800D03*
X0007600Y0135800D03*
X0007600Y0145800D03*
X0007600Y0155800D03*
X0047600Y0155800D03*
X0047600Y0145800D03*
D16*
X0146164Y0113424D03*
X0148723Y0113424D03*
X0151282Y0113424D03*
X0153841Y0113424D03*
X0156400Y0113424D03*
X0158959Y0113424D03*
X0161518Y0113424D03*
X0164077Y0113424D03*
X0166636Y0113424D03*
X0169195Y0113424D03*
X0169195Y0091376D03*
X0166636Y0091376D03*
X0164077Y0091376D03*
X0161518Y0091376D03*
X0158959Y0091376D03*
X0156400Y0091376D03*
X0153841Y0091376D03*
X0151282Y0091376D03*
X0148723Y0091376D03*
X0146164Y0091376D03*
D17*
X0228200Y0182200D03*
X0256200Y0182200D03*
D18*
X0202946Y0149800D03*
X0196254Y0149800D03*
X0180400Y0149546D03*
X0173200Y0149546D03*
X0173200Y0142854D03*
X0180400Y0142854D03*
X0194454Y0125800D03*
X0201146Y0125800D03*
X0201146Y0116200D03*
X0194454Y0116200D03*
X0157600Y0142854D03*
X0151000Y0142854D03*
X0151000Y0149546D03*
X0157600Y0149546D03*
X0196254Y0079600D03*
X0202946Y0079600D03*
X0202946Y0065800D03*
X0196254Y0065800D03*
X0184000Y0069654D03*
X0184000Y0076346D03*
X0169000Y0065546D03*
X0161800Y0065546D03*
X0161800Y0058854D03*
X0169000Y0058854D03*
X0178600Y0038546D03*
X0178600Y0031854D03*
D19*
X0147811Y0034843D03*
X0147811Y0015157D03*
X0124189Y0015157D03*
X0124189Y0034843D03*
D20*
X0227300Y0019000D03*
X0258300Y0019000D03*
D21*
X0224200Y0049400D03*
X0224200Y0119400D03*
D22*
X0251500Y0133967D03*
X0256500Y0133967D03*
X0261500Y0133967D03*
X0266500Y0133967D03*
X0266500Y0095567D03*
X0261500Y0095567D03*
X0256500Y0095567D03*
X0251500Y0095567D03*
D23*
X0259000Y0111315D03*
X0259000Y0149715D03*
D24*
X0202328Y0102400D03*
X0193272Y0102400D03*
D25*
X0172600Y0107200D03*
X0169600Y0102400D03*
X0156400Y0107200D03*
X0145600Y0085000D03*
X0152800Y0077800D03*
X0151600Y0073000D03*
X0178600Y0076600D03*
X0183400Y0059800D03*
X0184000Y0037600D03*
X0173800Y0131200D03*
X0106000Y0157000D03*
M02*
