G75*
%MOIN*%
%OFA0B0*%
%FSLAX25Y25*%
%IPPOS*%
%LPD*%
%AMOC8*
5,1,8,0,0,1.08239X$1,22.5*
%
%ADD10C,0.07400*%
%ADD11R,0.04331X0.03937*%
%ADD12R,0.04900X0.04700*%
%ADD13R,0.03543X0.03150*%
%ADD14C,0.09000*%
%ADD15C,0.07000*%
%ADD16R,0.01181X0.06535*%
%ADD17C,0.24000*%
%ADD18R,0.03937X0.04331*%
%ADD19C,0.04943*%
%ADD20C,0.12500*%
%ADD21OC8,0.06100*%
%ADD22R,0.02756X0.05512*%
%ADD23R,0.19685X0.19685*%
%ADD24R,0.02480X0.03268*%
%ADD25C,0.01000*%
%ADD26C,0.03762*%
%ADD27C,0.01600*%
D10*
X0077200Y0014405D03*
X0077200Y0039995D03*
X0164000Y0010000D03*
X0174000Y0010000D03*
X0187400Y0009600D03*
X0197400Y0009600D03*
X0140200Y0124000D03*
X0140200Y0134000D03*
X0140200Y0144000D03*
X0140200Y0154000D03*
X0150849Y0185252D03*
X0160691Y0185252D03*
X0170534Y0185252D03*
X0180376Y0185252D03*
D11*
X0180400Y0169946D03*
X0180400Y0163254D03*
X0170800Y0163254D03*
X0170800Y0169946D03*
X0160600Y0169946D03*
X0160600Y0163254D03*
X0151000Y0163254D03*
X0151000Y0169946D03*
X0097600Y0144146D03*
X0097600Y0137454D03*
X0087400Y0138054D03*
X0087400Y0144746D03*
X0057400Y0147854D03*
X0057400Y0154546D03*
X0057400Y0135546D03*
X0057400Y0128854D03*
X0057400Y0117346D03*
X0057400Y0110654D03*
X0057400Y0099946D03*
X0057400Y0093254D03*
X0087600Y0061546D03*
X0087600Y0054854D03*
X0097000Y0054854D03*
X0097000Y0061546D03*
X0106200Y0061946D03*
X0106200Y0055254D03*
X0146200Y0058854D03*
X0146200Y0065546D03*
X0154000Y0065546D03*
X0154000Y0058854D03*
X0176200Y0059454D03*
X0176200Y0066146D03*
X0189654Y0055600D03*
X0196346Y0055600D03*
X0196346Y0091000D03*
X0189654Y0091000D03*
D12*
X0107000Y0042100D03*
X0107000Y0033900D03*
D13*
X0078337Y0055260D03*
X0070069Y0059000D03*
X0078337Y0062740D03*
X0177063Y0112460D03*
X0185331Y0116200D03*
X0177063Y0119940D03*
D14*
X0127800Y0124000D03*
X0127800Y0114000D03*
X0127800Y0104000D03*
X0127800Y0094000D03*
X0127800Y0084000D03*
X0127800Y0074000D03*
X0067800Y0074000D03*
X0067800Y0084000D03*
X0067800Y0094000D03*
X0067800Y0104000D03*
X0067800Y0114000D03*
X0067800Y0124000D03*
X0067800Y0134000D03*
X0067800Y0144000D03*
X0067800Y0154000D03*
X0067800Y0164000D03*
X0067800Y0174000D03*
X0067800Y0184000D03*
X0127800Y0184000D03*
X0127800Y0174000D03*
X0127800Y0164000D03*
X0127800Y0154000D03*
X0127800Y0144000D03*
X0127800Y0134000D03*
D15*
X0047600Y0135800D03*
X0047600Y0125800D03*
X0047600Y0115800D03*
X0047600Y0105800D03*
X0047600Y0095800D03*
X0047600Y0085800D03*
X0007600Y0085800D03*
X0007600Y0095800D03*
X0007600Y0105800D03*
X0007600Y0115800D03*
X0007600Y0125800D03*
X0007600Y0135800D03*
X0007600Y0145800D03*
X0007600Y0155800D03*
X0047600Y0155800D03*
X0047600Y0145800D03*
D16*
X0146164Y0113424D03*
X0148723Y0113424D03*
X0151282Y0113424D03*
X0153841Y0113424D03*
X0156400Y0113424D03*
X0158959Y0113424D03*
X0161518Y0113424D03*
X0164077Y0113424D03*
X0166636Y0113424D03*
X0169195Y0113424D03*
X0169195Y0091376D03*
X0166636Y0091376D03*
X0164077Y0091376D03*
X0161518Y0091376D03*
X0158959Y0091376D03*
X0156400Y0091376D03*
X0153841Y0091376D03*
X0151282Y0091376D03*
X0148723Y0091376D03*
X0146164Y0091376D03*
D17*
X0228200Y0182200D03*
X0256200Y0182200D03*
D18*
X0202946Y0149800D03*
X0196254Y0149800D03*
X0180400Y0149546D03*
X0173200Y0149546D03*
X0173200Y0142854D03*
X0180400Y0142854D03*
X0194454Y0125800D03*
X0201146Y0125800D03*
X0201146Y0116200D03*
X0194454Y0116200D03*
X0157600Y0142854D03*
X0151000Y0142854D03*
X0151000Y0149546D03*
X0157600Y0149546D03*
X0196254Y0079600D03*
X0202946Y0079600D03*
X0202946Y0065800D03*
X0196254Y0065800D03*
X0184000Y0069654D03*
X0184000Y0076346D03*
X0169000Y0065546D03*
X0161800Y0065546D03*
X0161800Y0058854D03*
X0169000Y0058854D03*
X0178600Y0038546D03*
X0178600Y0031854D03*
D19*
X0147811Y0034843D03*
X0147811Y0015157D03*
X0124189Y0015157D03*
X0124189Y0034843D03*
D20*
X0227300Y0019000D03*
X0258300Y0019000D03*
D21*
X0224200Y0049400D03*
X0224200Y0119400D03*
D22*
X0251500Y0133967D03*
X0256500Y0133967D03*
X0261500Y0133967D03*
X0266500Y0133967D03*
X0266500Y0095567D03*
X0261500Y0095567D03*
X0256500Y0095567D03*
X0251500Y0095567D03*
D23*
X0259000Y0111315D03*
X0259000Y0149715D03*
D24*
X0202328Y0102400D03*
X0193272Y0102400D03*
D25*
X0194454Y0103581D01*
X0194454Y0116200D01*
X0185331Y0116200D01*
X0177063Y0112460D02*
X0177063Y0103863D01*
X0172000Y0098800D01*
X0149200Y0098800D01*
X0146200Y0095800D01*
X0146200Y0091413D01*
X0146164Y0091376D01*
X0148600Y0091254D02*
X0148723Y0091376D01*
X0148600Y0091254D02*
X0148600Y0085600D01*
X0148000Y0085000D01*
X0145600Y0085000D01*
X0152800Y0077800D02*
X0153841Y0078841D01*
X0153841Y0091376D01*
X0156400Y0091376D02*
X0156400Y0074800D01*
X0154600Y0073000D01*
X0151600Y0073000D01*
X0152800Y0077800D02*
X0153400Y0078400D01*
X0158800Y0071200D02*
X0158800Y0091217D01*
X0158959Y0091376D01*
X0161518Y0091376D02*
X0161800Y0091094D01*
X0161800Y0065546D01*
X0165400Y0062200D02*
X0165400Y0018600D01*
X0174000Y0010000D01*
X0147811Y0015157D02*
X0124189Y0015157D01*
X0124189Y0034843D02*
X0147811Y0034843D01*
X0147811Y0057243D01*
X0146200Y0058854D01*
X0146200Y0065546D02*
X0154000Y0065546D01*
X0154000Y0066400D01*
X0158800Y0071200D01*
X0164200Y0074200D02*
X0164200Y0091254D01*
X0164077Y0091376D01*
X0166600Y0091340D02*
X0166636Y0091376D01*
X0166600Y0091340D02*
X0166600Y0076600D01*
X0172600Y0070600D01*
X0172600Y0054400D01*
X0178600Y0048400D01*
X0178600Y0038546D01*
X0183054Y0038546D01*
X0184000Y0037600D01*
X0202946Y0054054D02*
X0207400Y0049600D01*
X0211600Y0049600D01*
X0212200Y0050200D01*
X0202946Y0054054D02*
X0202946Y0065800D01*
X0196346Y0065707D02*
X0196254Y0065800D01*
X0187854Y0065800D01*
X0184000Y0069654D01*
X0183400Y0069054D01*
X0183400Y0059800D01*
X0176200Y0066146D02*
X0176200Y0072400D01*
X0169600Y0079000D01*
X0169600Y0090972D01*
X0169195Y0091376D01*
X0169600Y0102400D02*
X0151600Y0102400D01*
X0148723Y0105277D01*
X0148723Y0113424D01*
X0151282Y0113424D02*
X0151282Y0107518D01*
X0154600Y0104200D01*
X0164200Y0104200D01*
X0167800Y0107800D01*
X0172000Y0107800D01*
X0172600Y0107200D01*
X0166636Y0113424D02*
X0166600Y0113460D01*
X0166600Y0142600D01*
X0170200Y0146200D01*
X0176800Y0146200D01*
X0180146Y0149546D01*
X0180400Y0149546D01*
X0180400Y0163254D01*
X0180400Y0169946D02*
X0180376Y0169970D01*
X0180376Y0185252D01*
X0170534Y0185252D02*
X0170534Y0170213D01*
X0170800Y0169946D01*
X0170800Y0163254D02*
X0170800Y0151946D01*
X0173200Y0149546D01*
X0171146Y0149546D01*
X0164800Y0143200D01*
X0164800Y0118000D01*
X0164200Y0117400D01*
X0164200Y0113546D01*
X0164077Y0113424D01*
X0161518Y0113424D01*
X0158959Y0113424D01*
X0156400Y0113424D02*
X0156400Y0107200D01*
X0156400Y0113424D02*
X0156400Y0119200D01*
X0163000Y0125800D01*
X0163000Y0148000D01*
X0161454Y0149546D01*
X0157600Y0149546D01*
X0157600Y0160254D01*
X0160600Y0163254D01*
X0160600Y0169946D02*
X0160691Y0170038D01*
X0160691Y0185252D01*
X0150849Y0185252D02*
X0150849Y0170098D01*
X0151000Y0169946D01*
X0151000Y0163254D02*
X0151000Y0149546D01*
X0151254Y0149546D01*
X0154600Y0146200D01*
X0160600Y0146200D01*
X0161200Y0145600D01*
X0161200Y0130000D01*
X0154000Y0122800D01*
X0154000Y0113583D01*
X0153841Y0113424D01*
X0146164Y0113424D02*
X0139376Y0113424D01*
X0134200Y0118600D01*
X0134200Y0128000D01*
X0140200Y0134000D01*
X0140200Y0144000D02*
X0134200Y0150000D01*
X0134200Y0187000D01*
X0131200Y0190000D01*
X0124000Y0190000D01*
X0116200Y0182200D01*
X0116200Y0153400D01*
X0100254Y0137454D01*
X0097600Y0137454D01*
X0089546Y0129400D01*
X0083800Y0129400D01*
X0079200Y0134000D01*
X0067800Y0134000D01*
X0062946Y0128854D02*
X0067800Y0124000D01*
X0062946Y0128854D02*
X0057400Y0128854D01*
X0057400Y0135546D02*
X0047854Y0135546D01*
X0047600Y0135800D01*
X0055546Y0147854D02*
X0047600Y0155800D01*
X0057400Y0154546D02*
X0057400Y0164800D01*
X0066600Y0174000D01*
X0067800Y0174000D01*
X0057400Y0147854D02*
X0055546Y0147854D01*
X0067800Y0144000D02*
X0068546Y0144746D01*
X0087400Y0144746D01*
X0113200Y0170546D01*
X0113200Y0182800D01*
X0122200Y0191800D01*
X0132400Y0191800D01*
X0136000Y0188200D01*
X0136000Y0159400D01*
X0140200Y0155200D01*
X0140200Y0154000D01*
X0106000Y0157000D02*
X0097600Y0148600D01*
X0097600Y0144146D01*
X0090907Y0137454D01*
X0087907Y0137454D01*
X0087907Y0137546D01*
X0087400Y0138054D01*
X0067946Y0144146D02*
X0067800Y0144000D01*
X0057400Y0117346D02*
X0060746Y0114000D01*
X0067800Y0114000D01*
X0057400Y0110654D02*
X0057254Y0110654D01*
X0053200Y0106600D01*
X0053200Y0101400D01*
X0047600Y0095800D01*
X0055054Y0093254D02*
X0047600Y0085800D01*
X0045000Y0078400D02*
X0007600Y0115800D01*
X0007600Y0105800D02*
X0038600Y0074800D01*
X0050800Y0074800D01*
X0060000Y0084000D01*
X0067800Y0084000D01*
X0067800Y0074000D02*
X0054800Y0074000D01*
X0052000Y0071200D01*
X0022200Y0071200D01*
X0007600Y0085800D01*
X0045000Y0078400D02*
X0051400Y0078400D01*
X0067000Y0094000D01*
X0067800Y0094000D01*
X0057400Y0093254D02*
X0055054Y0093254D01*
X0057400Y0099946D02*
X0061454Y0104000D01*
X0067800Y0104000D01*
X0106200Y0061946D02*
X0118254Y0074000D01*
X0127800Y0074000D01*
X0106200Y0061946D02*
X0097400Y0061946D01*
X0097000Y0061546D01*
X0097000Y0054854D02*
X0087600Y0054854D01*
X0078743Y0054854D01*
X0078337Y0055260D01*
X0070069Y0059000D02*
X0065800Y0054731D01*
X0065800Y0032200D01*
X0077200Y0020800D01*
X0077200Y0014405D01*
X0107000Y0042100D02*
X0107000Y0054454D01*
X0106200Y0055254D01*
X0165400Y0062200D02*
X0168746Y0065546D01*
X0169000Y0065546D01*
X0169000Y0069400D01*
X0164200Y0074200D01*
X0178600Y0076600D02*
X0183746Y0076600D01*
X0184000Y0076346D01*
X0193000Y0076346D01*
X0196254Y0079600D01*
X0196254Y0090907D01*
X0196346Y0091000D01*
X0199600Y0086200D02*
X0201400Y0088000D01*
X0201400Y0101472D01*
X0202328Y0102400D01*
X0201146Y0103581D01*
X0201146Y0116200D01*
X0200800Y0116546D01*
X0200800Y0119800D01*
X0194800Y0125800D01*
X0194454Y0125800D01*
X0201146Y0125800D02*
X0201146Y0125454D01*
X0206800Y0119800D01*
X0208000Y0119800D01*
X0206200Y0118000D01*
X0206200Y0087400D01*
X0202946Y0084146D01*
X0202946Y0079600D01*
X0199600Y0076000D02*
X0199600Y0086200D01*
X0199600Y0076000D02*
X0203200Y0072400D01*
X0263200Y0072400D01*
X0266500Y0075700D01*
X0266500Y0095567D01*
X0266500Y0133967D02*
X0266500Y0135100D01*
X0263200Y0138400D01*
X0207654Y0138400D01*
X0196254Y0149800D01*
X0177654Y0131200D01*
X0173800Y0131200D01*
X0202946Y0149800D02*
X0211000Y0149800D01*
X0211600Y0119800D02*
X0208000Y0119800D01*
X0211600Y0119800D02*
X0212200Y0119200D01*
X0196346Y0065707D02*
X0196346Y0055600D01*
D26*
X0183400Y0059800D03*
X0178600Y0076600D03*
X0152800Y0077800D03*
X0151600Y0073000D03*
X0145600Y0085000D03*
X0169600Y0102400D03*
X0172600Y0107200D03*
X0156400Y0107200D03*
X0173800Y0131200D03*
X0106000Y0157000D03*
X0184000Y0037600D03*
D27*
X0004890Y0004300D02*
X0004658Y0081813D01*
X0004824Y0081646D01*
X0006625Y0080900D01*
X0008575Y0080900D01*
X0009450Y0081263D01*
X0021413Y0069300D01*
X0052787Y0069300D01*
X0053900Y0070413D01*
X0055587Y0072100D01*
X0062201Y0072100D01*
X0062798Y0070658D01*
X0064458Y0068998D01*
X0066626Y0068100D01*
X0068974Y0068100D01*
X0071142Y0068998D01*
X0072802Y0070658D01*
X0073700Y0072826D01*
X0073700Y0075174D01*
X0072802Y0077342D01*
X0071144Y0079000D01*
X0072802Y0080658D01*
X0073700Y0082826D01*
X0073700Y0085174D01*
X0072802Y0087342D01*
X0071144Y0089000D01*
X0072802Y0090658D01*
X0073700Y0092826D01*
X0073700Y0095174D01*
X0072802Y0097342D01*
X0071144Y0099000D01*
X0072802Y0100658D01*
X0073700Y0102826D01*
X0073700Y0105174D01*
X0072802Y0107342D01*
X0071144Y0109000D01*
X0072802Y0110658D01*
X0073700Y0112826D01*
X0073700Y0115174D01*
X0072802Y0117342D01*
X0071144Y0119000D01*
X0072802Y0120658D01*
X0073700Y0122826D01*
X0073700Y0125174D01*
X0072802Y0127342D01*
X0071144Y0129000D01*
X0072802Y0130658D01*
X0073399Y0132100D01*
X0078413Y0132100D01*
X0081900Y0128613D01*
X0083013Y0127500D01*
X0090333Y0127500D01*
X0096918Y0134085D01*
X0100345Y0134085D01*
X0101165Y0134905D01*
X0101165Y0135678D01*
X0116987Y0151500D01*
X0118100Y0152613D01*
X0118100Y0181413D01*
X0121928Y0185241D01*
X0121900Y0185174D01*
X0121900Y0182826D01*
X0122798Y0180658D01*
X0124249Y0179207D01*
X0123696Y0178805D01*
X0122995Y0178104D01*
X0122412Y0177302D01*
X0121962Y0176418D01*
X0121655Y0175475D01*
X0121500Y0174496D01*
X0121500Y0174184D01*
X0127616Y0174184D01*
X0127616Y0173816D01*
X0121500Y0173816D01*
X0121500Y0173504D01*
X0121655Y0172525D01*
X0121962Y0171582D01*
X0122412Y0170698D01*
X0122995Y0169896D01*
X0123696Y0169195D01*
X0124249Y0168793D01*
X0122798Y0167342D01*
X0121900Y0165174D01*
X0121900Y0162826D01*
X0122798Y0160658D01*
X0124456Y0159000D01*
X0122798Y0157342D01*
X0121900Y0155174D01*
X0121900Y0152826D01*
X0122798Y0150658D01*
X0124456Y0149000D01*
X0122798Y0147342D01*
X0121900Y0145174D01*
X0121900Y0142826D01*
X0122798Y0140658D01*
X0124456Y0139000D01*
X0122798Y0137342D01*
X0121900Y0135174D01*
X0121900Y0132826D01*
X0122798Y0130658D01*
X0124456Y0129000D01*
X0122798Y0127342D01*
X0121900Y0125174D01*
X0121900Y0122826D01*
X0122798Y0120658D01*
X0124456Y0119000D01*
X0122798Y0117342D01*
X0121900Y0115174D01*
X0121900Y0112826D01*
X0122798Y0110658D01*
X0124456Y0109000D01*
X0122798Y0107342D01*
X0121900Y0105174D01*
X0121900Y0102826D01*
X0122798Y0100658D01*
X0124456Y0099000D01*
X0122798Y0097342D01*
X0121900Y0095174D01*
X0121900Y0092826D01*
X0122798Y0090658D01*
X0124456Y0089000D01*
X0122798Y0087342D01*
X0121900Y0085174D01*
X0121900Y0082826D01*
X0122798Y0080658D01*
X0124456Y0079000D01*
X0122798Y0077342D01*
X0122201Y0075900D01*
X0117467Y0075900D01*
X0106881Y0065315D01*
X0103455Y0065315D01*
X0102635Y0064495D01*
X0102635Y0063846D01*
X0100565Y0063846D01*
X0100565Y0064095D01*
X0099745Y0064915D01*
X0094255Y0064915D01*
X0093435Y0064095D01*
X0093435Y0058998D01*
X0094233Y0058200D01*
X0093435Y0057402D01*
X0093435Y0056754D01*
X0091165Y0056754D01*
X0091165Y0057402D01*
X0090591Y0057976D01*
X0090871Y0058138D01*
X0091206Y0058473D01*
X0091443Y0058883D01*
X0091565Y0059341D01*
X0091565Y0061362D01*
X0087784Y0061362D01*
X0087784Y0061731D01*
X0087416Y0061731D01*
X0087416Y0065315D01*
X0085198Y0065315D01*
X0084740Y0065192D01*
X0084329Y0064955D01*
X0083994Y0064620D01*
X0083757Y0064210D01*
X0083635Y0063752D01*
X0083635Y0061731D01*
X0087416Y0061731D01*
X0087416Y0061362D01*
X0083635Y0061362D01*
X0083635Y0059341D01*
X0083757Y0058883D01*
X0083994Y0058473D01*
X0084329Y0058138D01*
X0084609Y0057976D01*
X0084035Y0057402D01*
X0084035Y0056754D01*
X0081509Y0056754D01*
X0081509Y0057415D01*
X0080689Y0058235D01*
X0075985Y0058235D01*
X0075165Y0057415D01*
X0075165Y0053105D01*
X0075985Y0052285D01*
X0080689Y0052285D01*
X0081357Y0052954D01*
X0084035Y0052954D01*
X0084035Y0052305D01*
X0084855Y0051485D01*
X0090345Y0051485D01*
X0091165Y0052305D01*
X0091165Y0052954D01*
X0093435Y0052954D01*
X0093435Y0052305D01*
X0094255Y0051485D01*
X0099745Y0051485D01*
X0100565Y0052305D01*
X0100565Y0057402D01*
X0099767Y0058200D01*
X0100565Y0058998D01*
X0100565Y0060046D01*
X0102635Y0060046D01*
X0102635Y0059398D01*
X0103433Y0058600D01*
X0102635Y0057802D01*
X0102635Y0052705D01*
X0103455Y0051885D01*
X0105100Y0051885D01*
X0105100Y0045850D01*
X0103970Y0045850D01*
X0103150Y0045030D01*
X0103150Y0039170D01*
X0103970Y0038350D01*
X0110030Y0038350D01*
X0110850Y0039170D01*
X0110850Y0045030D01*
X0110030Y0045850D01*
X0108900Y0045850D01*
X0108900Y0051885D01*
X0108945Y0051885D01*
X0109765Y0052705D01*
X0109765Y0057802D01*
X0108967Y0058600D01*
X0109765Y0059398D01*
X0109765Y0062825D01*
X0119041Y0072100D01*
X0122201Y0072100D01*
X0122798Y0070658D01*
X0124458Y0068998D01*
X0126626Y0068100D01*
X0128974Y0068100D01*
X0131142Y0068998D01*
X0132802Y0070658D01*
X0133700Y0072826D01*
X0133700Y0075174D01*
X0132802Y0077342D01*
X0131144Y0079000D01*
X0132802Y0080658D01*
X0133700Y0082826D01*
X0133700Y0085174D01*
X0132802Y0087342D01*
X0131144Y0089000D01*
X0132802Y0090658D01*
X0133700Y0092826D01*
X0133700Y0095174D01*
X0132802Y0097342D01*
X0131144Y0099000D01*
X0132802Y0100658D01*
X0133700Y0102826D01*
X0133700Y0105174D01*
X0132802Y0107342D01*
X0131144Y0109000D01*
X0132802Y0110658D01*
X0133700Y0112826D01*
X0133700Y0115174D01*
X0132824Y0117289D01*
X0133413Y0116700D01*
X0138589Y0111524D01*
X0144173Y0111524D01*
X0144173Y0109576D01*
X0144993Y0108756D01*
X0146823Y0108756D01*
X0146823Y0104490D01*
X0149700Y0101613D01*
X0150613Y0100700D01*
X0148413Y0100700D01*
X0145413Y0097700D01*
X0144300Y0096587D01*
X0144300Y0095351D01*
X0144173Y0095224D01*
X0144173Y0087960D01*
X0143741Y0087782D01*
X0142818Y0086859D01*
X0142319Y0085653D01*
X0142319Y0084347D01*
X0142818Y0083141D01*
X0143741Y0082218D01*
X0144947Y0081719D01*
X0146253Y0081719D01*
X0147459Y0082218D01*
X0148340Y0083100D01*
X0148787Y0083100D01*
X0149387Y0083700D01*
X0150500Y0084813D01*
X0150500Y0086309D01*
X0151282Y0086309D01*
X0151941Y0086309D01*
X0151941Y0080996D01*
X0150941Y0080582D01*
X0150018Y0079659D01*
X0149519Y0078453D01*
X0149519Y0077147D01*
X0150018Y0075941D01*
X0150050Y0075910D01*
X0149741Y0075782D01*
X0148818Y0074859D01*
X0148319Y0073653D01*
X0148319Y0072347D01*
X0148818Y0071141D01*
X0149741Y0070218D01*
X0150947Y0069719D01*
X0152253Y0069719D01*
X0153459Y0070218D01*
X0154340Y0071100D01*
X0155387Y0071100D01*
X0156900Y0072613D01*
X0156900Y0071987D01*
X0153828Y0068915D01*
X0151255Y0068915D01*
X0150435Y0068095D01*
X0150435Y0067446D01*
X0149765Y0067446D01*
X0149765Y0068095D01*
X0148945Y0068915D01*
X0143455Y0068915D01*
X0142635Y0068095D01*
X0142635Y0062998D01*
X0143433Y0062200D01*
X0142635Y0061402D01*
X0142635Y0056305D01*
X0143455Y0055485D01*
X0145911Y0055485D01*
X0145911Y0038246D01*
X0145618Y0038125D01*
X0144529Y0037036D01*
X0144407Y0036743D01*
X0127593Y0036743D01*
X0127471Y0037036D01*
X0126382Y0038125D01*
X0124959Y0038714D01*
X0123419Y0038714D01*
X0121996Y0038125D01*
X0120907Y0037036D01*
X0120317Y0035613D01*
X0120317Y0034072D01*
X0120907Y0032649D01*
X0121996Y0031560D01*
X0123419Y0030971D01*
X0124959Y0030971D01*
X0126382Y0031560D01*
X0127471Y0032649D01*
X0127593Y0032943D01*
X0144407Y0032943D01*
X0144529Y0032649D01*
X0145618Y0031560D01*
X0147041Y0030971D01*
X0148581Y0030971D01*
X0150004Y0031560D01*
X0151093Y0032649D01*
X0151683Y0034072D01*
X0151683Y0035613D01*
X0151093Y0037036D01*
X0150004Y0038125D01*
X0149711Y0038246D01*
X0149711Y0056251D01*
X0149765Y0056305D01*
X0149765Y0061402D01*
X0148967Y0062200D01*
X0149765Y0062998D01*
X0149765Y0063646D01*
X0150435Y0063646D01*
X0150435Y0062998D01*
X0151009Y0062424D01*
X0150729Y0062262D01*
X0150394Y0061927D01*
X0150157Y0061517D01*
X0150035Y0061059D01*
X0150035Y0059038D01*
X0153816Y0059038D01*
X0153816Y0058669D01*
X0154184Y0058669D01*
X0154184Y0055085D01*
X0156402Y0055085D01*
X0156860Y0055208D01*
X0157271Y0055445D01*
X0157606Y0055780D01*
X0157843Y0056190D01*
X0157965Y0056648D01*
X0157965Y0058669D01*
X0154184Y0058669D01*
X0154184Y0059038D01*
X0157965Y0059038D01*
X0157965Y0061059D01*
X0157843Y0061517D01*
X0157606Y0061927D01*
X0157271Y0062262D01*
X0156991Y0062424D01*
X0157565Y0062998D01*
X0157565Y0067278D01*
X0158431Y0068145D01*
X0158431Y0062801D01*
X0158756Y0062477D01*
X0158726Y0062459D01*
X0158391Y0062124D01*
X0158154Y0061714D01*
X0158031Y0061256D01*
X0158031Y0059038D01*
X0161616Y0059038D01*
X0161616Y0058669D01*
X0161984Y0058669D01*
X0161984Y0054888D01*
X0163500Y0054888D01*
X0163500Y0017813D01*
X0166325Y0014988D01*
X0166111Y0015097D01*
X0165288Y0015365D01*
X0164433Y0015500D01*
X0164200Y0015500D01*
X0164200Y0010200D01*
X0163800Y0010200D01*
X0163800Y0015500D01*
X0163567Y0015500D01*
X0162712Y0015365D01*
X0161889Y0015097D01*
X0161117Y0014704D01*
X0160417Y0014195D01*
X0159805Y0013583D01*
X0159296Y0012883D01*
X0158903Y0012111D01*
X0158635Y0011288D01*
X0158500Y0010433D01*
X0158500Y0010200D01*
X0163800Y0010200D01*
X0163800Y0009800D01*
X0164200Y0009800D01*
X0164200Y0004500D01*
X0164433Y0004500D01*
X0165288Y0004635D01*
X0166111Y0004903D01*
X0166883Y0005296D01*
X0167583Y0005805D01*
X0168195Y0006417D01*
X0168704Y0007117D01*
X0169097Y0007889D01*
X0169210Y0008237D01*
X0169676Y0007111D01*
X0171111Y0005676D01*
X0172986Y0004900D01*
X0175014Y0004900D01*
X0176889Y0005676D01*
X0178324Y0007111D01*
X0179100Y0008986D01*
X0179100Y0011014D01*
X0178324Y0012889D01*
X0176889Y0014324D01*
X0175014Y0015100D01*
X0172986Y0015100D01*
X0171997Y0014690D01*
X0167300Y0019387D01*
X0167300Y0054888D01*
X0168816Y0054888D01*
X0168816Y0058669D01*
X0169184Y0058669D01*
X0169184Y0054888D01*
X0170700Y0054888D01*
X0170700Y0053613D01*
X0171813Y0052500D01*
X0176700Y0047613D01*
X0176700Y0042112D01*
X0176052Y0042112D01*
X0175231Y0041292D01*
X0175231Y0035801D01*
X0175556Y0035477D01*
X0175526Y0035459D01*
X0175191Y0035124D01*
X0174954Y0034714D01*
X0174831Y0034256D01*
X0174831Y0032038D01*
X0178416Y0032038D01*
X0178416Y0031669D01*
X0178784Y0031669D01*
X0178784Y0027888D01*
X0180805Y0027888D01*
X0181263Y0028011D01*
X0181674Y0028248D01*
X0182009Y0028583D01*
X0182246Y0028993D01*
X0182368Y0029451D01*
X0182368Y0031669D01*
X0178784Y0031669D01*
X0178784Y0032038D01*
X0182368Y0032038D01*
X0182368Y0034256D01*
X0182246Y0034714D01*
X0182199Y0034795D01*
X0183347Y0034319D01*
X0184653Y0034319D01*
X0185859Y0034818D01*
X0186782Y0035741D01*
X0187281Y0036947D01*
X0187281Y0038253D01*
X0186782Y0039459D01*
X0185859Y0040382D01*
X0184653Y0040881D01*
X0183347Y0040881D01*
X0182298Y0040446D01*
X0181968Y0040446D01*
X0181968Y0041292D01*
X0181148Y0042112D01*
X0180500Y0042112D01*
X0180500Y0049187D01*
X0179387Y0050300D01*
X0174500Y0055187D01*
X0174500Y0055685D01*
X0176016Y0055685D01*
X0176016Y0059269D01*
X0176384Y0059269D01*
X0176384Y0055685D01*
X0178602Y0055685D01*
X0179060Y0055808D01*
X0179471Y0056045D01*
X0179806Y0056380D01*
X0180043Y0056790D01*
X0180165Y0057248D01*
X0180165Y0059035D01*
X0180618Y0057941D01*
X0181541Y0057018D01*
X0182747Y0056519D01*
X0184053Y0056519D01*
X0185259Y0057018D01*
X0185688Y0057448D01*
X0185688Y0055784D01*
X0189469Y0055784D01*
X0189469Y0055416D01*
X0185688Y0055416D01*
X0185688Y0053395D01*
X0185811Y0052937D01*
X0186048Y0052526D01*
X0186383Y0052191D01*
X0186793Y0051954D01*
X0187251Y0051831D01*
X0189469Y0051831D01*
X0189469Y0055416D01*
X0189838Y0055416D01*
X0189838Y0051831D01*
X0190000Y0051831D01*
X0190000Y0025600D01*
X0209200Y0025600D01*
X0209200Y0068200D01*
X0273300Y0068200D01*
X0273300Y0004300D01*
X0198887Y0004300D01*
X0199511Y0004503D01*
X0200283Y0004896D01*
X0200983Y0005405D01*
X0201595Y0006017D01*
X0202104Y0006717D01*
X0202497Y0007489D01*
X0202765Y0008312D01*
X0202900Y0009167D01*
X0202900Y0009400D01*
X0197600Y0009400D01*
X0197600Y0009800D01*
X0197200Y0009800D01*
X0197200Y0015100D01*
X0196967Y0015100D01*
X0196112Y0014965D01*
X0195289Y0014697D01*
X0194517Y0014304D01*
X0193817Y0013795D01*
X0193205Y0013183D01*
X0192696Y0012483D01*
X0192400Y0011902D01*
X0192104Y0012483D01*
X0191595Y0013183D01*
X0190983Y0013795D01*
X0190283Y0014304D01*
X0189511Y0014697D01*
X0188688Y0014965D01*
X0187833Y0015100D01*
X0187600Y0015100D01*
X0187600Y0009800D01*
X0197200Y0009800D01*
X0197200Y0009400D01*
X0191900Y0009400D01*
X0187600Y0009400D01*
X0187600Y0009800D01*
X0187200Y0009800D01*
X0187200Y0015100D01*
X0186967Y0015100D01*
X0186112Y0014965D01*
X0185289Y0014697D01*
X0184517Y0014304D01*
X0183817Y0013795D01*
X0183205Y0013183D01*
X0182696Y0012483D01*
X0182303Y0011711D01*
X0182035Y0010888D01*
X0181900Y0010033D01*
X0181900Y0009800D01*
X0187200Y0009800D01*
X0187200Y0009400D01*
X0181900Y0009400D01*
X0181900Y0009167D01*
X0182035Y0008312D01*
X0182303Y0007489D01*
X0182696Y0006717D01*
X0183205Y0006017D01*
X0183817Y0005405D01*
X0184517Y0004896D01*
X0185289Y0004503D01*
X0185913Y0004300D01*
X0004890Y0004300D01*
X0004886Y0005796D02*
X0160430Y0005796D01*
X0160417Y0005805D02*
X0161117Y0005296D01*
X0161889Y0004903D01*
X0162712Y0004635D01*
X0163567Y0004500D01*
X0163800Y0004500D01*
X0163800Y0009800D01*
X0158500Y0009800D01*
X0158500Y0009567D01*
X0158635Y0008712D01*
X0158903Y0007889D01*
X0159296Y0007117D01*
X0159805Y0006417D01*
X0160417Y0005805D01*
X0159155Y0007394D02*
X0004881Y0007394D01*
X0004876Y0008993D02*
X0158591Y0008993D01*
X0158525Y0010591D02*
X0080599Y0010591D01*
X0080089Y0010081D02*
X0081524Y0011516D01*
X0082300Y0013390D01*
X0082300Y0015419D01*
X0081524Y0017294D01*
X0080089Y0018728D01*
X0079100Y0019138D01*
X0079100Y0021587D01*
X0067700Y0032987D01*
X0067700Y0053944D01*
X0069781Y0056025D01*
X0072421Y0056025D01*
X0073241Y0056845D01*
X0073241Y0061155D01*
X0072421Y0061975D01*
X0067718Y0061975D01*
X0066898Y0061155D01*
X0066898Y0058515D01*
X0063900Y0055518D01*
X0063900Y0031413D01*
X0065013Y0030300D01*
X0075300Y0020013D01*
X0075300Y0019138D01*
X0074311Y0018728D01*
X0072876Y0017294D01*
X0072100Y0015419D01*
X0072100Y0013390D01*
X0072876Y0011516D01*
X0074311Y0010081D01*
X0076186Y0009305D01*
X0078214Y0009305D01*
X0080089Y0010081D01*
X0081803Y0012190D02*
X0121682Y0012190D01*
X0121996Y0011875D02*
X0123419Y0011286D01*
X0124959Y0011286D01*
X0126382Y0011875D01*
X0127471Y0012964D01*
X0127593Y0013257D01*
X0144407Y0013257D01*
X0144529Y0012964D01*
X0145618Y0011875D01*
X0147041Y0011286D01*
X0148581Y0011286D01*
X0150004Y0011875D01*
X0151093Y0012964D01*
X0151683Y0014387D01*
X0151683Y0015928D01*
X0151093Y0017351D01*
X0150004Y0018440D01*
X0148581Y0019029D01*
X0147041Y0019029D01*
X0145618Y0018440D01*
X0144529Y0017351D01*
X0144407Y0017057D01*
X0127593Y0017057D01*
X0127471Y0017351D01*
X0126382Y0018440D01*
X0124959Y0019029D01*
X0123419Y0019029D01*
X0121996Y0018440D01*
X0120907Y0017351D01*
X0120317Y0015928D01*
X0120317Y0014387D01*
X0120907Y0012964D01*
X0121996Y0011875D01*
X0120566Y0013788D02*
X0082300Y0013788D01*
X0082300Y0015387D02*
X0120317Y0015387D01*
X0120755Y0016985D02*
X0081651Y0016985D01*
X0080234Y0018584D02*
X0122343Y0018584D01*
X0126035Y0018584D02*
X0145965Y0018584D01*
X0149657Y0018584D02*
X0163500Y0018584D01*
X0163500Y0020182D02*
X0079100Y0020182D01*
X0078906Y0021781D02*
X0163500Y0021781D01*
X0163500Y0023379D02*
X0077308Y0023379D01*
X0075709Y0024978D02*
X0163500Y0024978D01*
X0163500Y0026576D02*
X0074111Y0026576D01*
X0072512Y0028175D02*
X0163500Y0028175D01*
X0163500Y0029773D02*
X0109774Y0029773D01*
X0109687Y0029750D02*
X0110145Y0029873D01*
X0110555Y0030110D01*
X0110890Y0030445D01*
X0111127Y0030855D01*
X0111250Y0031313D01*
X0111250Y0033525D01*
X0107375Y0033525D01*
X0107375Y0034275D01*
X0106625Y0034275D01*
X0106625Y0038050D01*
X0104313Y0038050D01*
X0103855Y0037927D01*
X0103445Y0037690D01*
X0103110Y0037355D01*
X0102873Y0036945D01*
X0102750Y0036487D01*
X0102750Y0034275D01*
X0106625Y0034275D01*
X0106625Y0033525D01*
X0107375Y0033525D01*
X0107375Y0029750D01*
X0109687Y0029750D01*
X0111250Y0031372D02*
X0122451Y0031372D01*
X0120774Y0032970D02*
X0111250Y0032970D01*
X0111250Y0034275D02*
X0111250Y0036487D01*
X0111127Y0036945D01*
X0110890Y0037355D01*
X0110555Y0037690D01*
X0110145Y0037927D01*
X0109687Y0038050D01*
X0107375Y0038050D01*
X0107375Y0034275D01*
X0111250Y0034275D01*
X0111250Y0034569D02*
X0120317Y0034569D01*
X0120547Y0036167D02*
X0111250Y0036167D01*
X0110425Y0037766D02*
X0121637Y0037766D01*
X0126741Y0037766D02*
X0145259Y0037766D01*
X0145911Y0039364D02*
X0110850Y0039364D01*
X0110850Y0040963D02*
X0145911Y0040963D01*
X0145911Y0042561D02*
X0110850Y0042561D01*
X0110850Y0044160D02*
X0145911Y0044160D01*
X0145911Y0045758D02*
X0110122Y0045758D01*
X0108900Y0047357D02*
X0145911Y0047357D01*
X0145911Y0048955D02*
X0108900Y0048955D01*
X0108900Y0050554D02*
X0145911Y0050554D01*
X0145911Y0052152D02*
X0109213Y0052152D01*
X0109765Y0053751D02*
X0145911Y0053751D01*
X0145911Y0055349D02*
X0109765Y0055349D01*
X0109765Y0056948D02*
X0142635Y0056948D01*
X0142635Y0058546D02*
X0109021Y0058546D01*
X0109765Y0060145D02*
X0142635Y0060145D01*
X0142976Y0061743D02*
X0109765Y0061743D01*
X0110282Y0063342D02*
X0142635Y0063342D01*
X0142635Y0064940D02*
X0111881Y0064940D01*
X0113480Y0066539D02*
X0142635Y0066539D01*
X0142677Y0068137D02*
X0129064Y0068137D01*
X0126536Y0068137D02*
X0115078Y0068137D01*
X0116677Y0069736D02*
X0123720Y0069736D01*
X0122518Y0071334D02*
X0118275Y0071334D01*
X0114500Y0072933D02*
X0073700Y0072933D01*
X0073700Y0074532D02*
X0116098Y0074532D01*
X0112901Y0071334D02*
X0073082Y0071334D01*
X0071880Y0069736D02*
X0111303Y0069736D01*
X0109704Y0068137D02*
X0069064Y0068137D01*
X0066536Y0068137D02*
X0004699Y0068137D01*
X0004703Y0066539D02*
X0108106Y0066539D01*
X0103080Y0064940D02*
X0090885Y0064940D01*
X0090871Y0064955D02*
X0090460Y0065192D01*
X0090002Y0065315D01*
X0087784Y0065315D01*
X0087784Y0061731D01*
X0091565Y0061731D01*
X0091565Y0063752D01*
X0091443Y0064210D01*
X0091206Y0064620D01*
X0090871Y0064955D01*
X0091565Y0063342D02*
X0093435Y0063342D01*
X0093435Y0061743D02*
X0091565Y0061743D01*
X0091565Y0060145D02*
X0093435Y0060145D01*
X0093886Y0058546D02*
X0091248Y0058546D01*
X0091165Y0056948D02*
X0093435Y0056948D01*
X0093587Y0052152D02*
X0091013Y0052152D01*
X0084187Y0052152D02*
X0067700Y0052152D01*
X0067700Y0050554D02*
X0105100Y0050554D01*
X0105100Y0048955D02*
X0067700Y0048955D01*
X0067700Y0047357D02*
X0105100Y0047357D01*
X0103878Y0045758D02*
X0067700Y0045758D01*
X0067700Y0044160D02*
X0074152Y0044160D01*
X0074311Y0044319D02*
X0072876Y0042884D01*
X0072100Y0041010D01*
X0072100Y0038981D01*
X0072876Y0037106D01*
X0074311Y0035672D01*
X0076186Y0034895D01*
X0078214Y0034895D01*
X0080089Y0035672D01*
X0081524Y0037106D01*
X0082300Y0038981D01*
X0082300Y0041010D01*
X0081524Y0042884D01*
X0080089Y0044319D01*
X0078214Y0045095D01*
X0076186Y0045095D01*
X0074311Y0044319D01*
X0072743Y0042561D02*
X0067700Y0042561D01*
X0067700Y0040963D02*
X0072100Y0040963D01*
X0072100Y0039364D02*
X0067700Y0039364D01*
X0067700Y0037766D02*
X0072603Y0037766D01*
X0073816Y0036167D02*
X0067700Y0036167D01*
X0067700Y0034569D02*
X0102750Y0034569D01*
X0102750Y0033525D02*
X0102750Y0031313D01*
X0102873Y0030855D01*
X0103110Y0030445D01*
X0103445Y0030110D01*
X0103855Y0029873D01*
X0104313Y0029750D01*
X0106625Y0029750D01*
X0106625Y0033525D01*
X0102750Y0033525D01*
X0102750Y0032970D02*
X0067717Y0032970D01*
X0069315Y0031372D02*
X0102750Y0031372D01*
X0104226Y0029773D02*
X0070914Y0029773D01*
X0067138Y0028175D02*
X0004818Y0028175D01*
X0004814Y0029773D02*
X0065540Y0029773D01*
X0063941Y0031372D02*
X0004809Y0031372D01*
X0004804Y0032970D02*
X0063900Y0032970D01*
X0063900Y0034569D02*
X0004799Y0034569D01*
X0004795Y0036167D02*
X0063900Y0036167D01*
X0063900Y0037766D02*
X0004790Y0037766D01*
X0004785Y0039364D02*
X0063900Y0039364D01*
X0063900Y0040963D02*
X0004780Y0040963D01*
X0004775Y0042561D02*
X0063900Y0042561D01*
X0063900Y0044160D02*
X0004771Y0044160D01*
X0004766Y0045758D02*
X0063900Y0045758D01*
X0063900Y0047357D02*
X0004761Y0047357D01*
X0004756Y0048955D02*
X0063900Y0048955D01*
X0063900Y0050554D02*
X0004751Y0050554D01*
X0004747Y0052152D02*
X0063900Y0052152D01*
X0063900Y0053751D02*
X0004742Y0053751D01*
X0004737Y0055349D02*
X0063900Y0055349D01*
X0065330Y0056948D02*
X0004732Y0056948D01*
X0004727Y0058546D02*
X0066898Y0058546D01*
X0066898Y0060145D02*
X0004723Y0060145D01*
X0004718Y0061743D02*
X0067486Y0061743D01*
X0072652Y0061743D02*
X0074765Y0061743D01*
X0074765Y0060928D02*
X0074765Y0062740D01*
X0078337Y0062740D01*
X0078337Y0059365D01*
X0080346Y0059365D01*
X0080803Y0059488D01*
X0081214Y0059725D01*
X0081549Y0060060D01*
X0081786Y0060471D01*
X0081909Y0060928D01*
X0081909Y0062740D01*
X0078337Y0062740D01*
X0078337Y0062740D01*
X0078337Y0059365D01*
X0076328Y0059365D01*
X0075871Y0059488D01*
X0075460Y0059725D01*
X0075125Y0060060D01*
X0074888Y0060471D01*
X0074765Y0060928D01*
X0075076Y0060145D02*
X0073241Y0060145D01*
X0073241Y0058546D02*
X0083952Y0058546D01*
X0084035Y0056948D02*
X0081509Y0056948D01*
X0081598Y0060145D02*
X0083635Y0060145D01*
X0083635Y0061743D02*
X0081909Y0061743D01*
X0081909Y0062740D02*
X0081909Y0064552D01*
X0081786Y0065010D01*
X0081549Y0065420D01*
X0081214Y0065755D01*
X0080803Y0065992D01*
X0080346Y0066115D01*
X0078337Y0066115D01*
X0076328Y0066115D01*
X0075871Y0065992D01*
X0075460Y0065755D01*
X0075125Y0065420D01*
X0074888Y0065010D01*
X0074765Y0064552D01*
X0074765Y0062740D01*
X0078337Y0062740D01*
X0078337Y0062740D01*
X0078337Y0062740D01*
X0081909Y0062740D01*
X0081909Y0063342D02*
X0083635Y0063342D01*
X0084315Y0064940D02*
X0081805Y0064940D01*
X0078337Y0064940D02*
X0078337Y0064940D01*
X0078337Y0066115D02*
X0078337Y0062740D01*
X0078337Y0062740D01*
X0078337Y0066115D01*
X0078337Y0063342D02*
X0078337Y0063342D01*
X0078337Y0061743D02*
X0078337Y0061743D01*
X0078337Y0060145D02*
X0078337Y0060145D01*
X0075165Y0056948D02*
X0073241Y0056948D01*
X0075165Y0055349D02*
X0069106Y0055349D01*
X0067700Y0053751D02*
X0075165Y0053751D01*
X0074765Y0063342D02*
X0004713Y0063342D01*
X0004708Y0064940D02*
X0074869Y0064940D01*
X0063720Y0069736D02*
X0053223Y0069736D01*
X0054821Y0071334D02*
X0062518Y0071334D01*
X0072415Y0077729D02*
X0123185Y0077729D01*
X0122296Y0076130D02*
X0073304Y0076130D01*
X0071471Y0079327D02*
X0124129Y0079327D01*
X0122687Y0080926D02*
X0072913Y0080926D01*
X0073575Y0082524D02*
X0122025Y0082524D01*
X0121900Y0084123D02*
X0073700Y0084123D01*
X0073473Y0085721D02*
X0122127Y0085721D01*
X0122789Y0087320D02*
X0072811Y0087320D01*
X0071226Y0088918D02*
X0124374Y0088918D01*
X0122939Y0090517D02*
X0072660Y0090517D01*
X0073405Y0092115D02*
X0122195Y0092115D01*
X0121900Y0093714D02*
X0073700Y0093714D01*
X0073643Y0095312D02*
X0121957Y0095312D01*
X0122620Y0096911D02*
X0072980Y0096911D01*
X0071635Y0098509D02*
X0123965Y0098509D01*
X0123348Y0100108D02*
X0072252Y0100108D01*
X0073236Y0101706D02*
X0122364Y0101706D01*
X0121900Y0103305D02*
X0073700Y0103305D01*
X0073700Y0104903D02*
X0121900Y0104903D01*
X0122450Y0106502D02*
X0073150Y0106502D01*
X0072044Y0108100D02*
X0123556Y0108100D01*
X0123757Y0109699D02*
X0071843Y0109699D01*
X0073067Y0111297D02*
X0122533Y0111297D01*
X0121900Y0112896D02*
X0073700Y0112896D01*
X0073700Y0114494D02*
X0121900Y0114494D01*
X0122281Y0116093D02*
X0073319Y0116093D01*
X0072453Y0117691D02*
X0123147Y0117691D01*
X0124166Y0119290D02*
X0071434Y0119290D01*
X0072897Y0120888D02*
X0122703Y0120888D01*
X0122041Y0122487D02*
X0073559Y0122487D01*
X0073700Y0124085D02*
X0121900Y0124085D01*
X0122111Y0125684D02*
X0073489Y0125684D01*
X0072827Y0127282D02*
X0122773Y0127282D01*
X0124337Y0128881D02*
X0091714Y0128881D01*
X0093313Y0130479D02*
X0122977Y0130479D01*
X0122210Y0132078D02*
X0094911Y0132078D01*
X0096510Y0133676D02*
X0121900Y0133676D01*
X0121942Y0135275D02*
X0101165Y0135275D01*
X0102360Y0136873D02*
X0122604Y0136873D01*
X0123928Y0138472D02*
X0103959Y0138472D01*
X0105557Y0140070D02*
X0123386Y0140070D01*
X0122379Y0141669D02*
X0107156Y0141669D01*
X0108755Y0143268D02*
X0121900Y0143268D01*
X0121900Y0144866D02*
X0110353Y0144866D01*
X0111952Y0146465D02*
X0122435Y0146465D01*
X0123519Y0148063D02*
X0113550Y0148063D01*
X0115149Y0149662D02*
X0123795Y0149662D01*
X0122549Y0151260D02*
X0116747Y0151260D01*
X0118100Y0152859D02*
X0121900Y0152859D01*
X0121900Y0154457D02*
X0118100Y0154457D01*
X0118100Y0156056D02*
X0122265Y0156056D01*
X0123110Y0157654D02*
X0118100Y0157654D01*
X0118100Y0159253D02*
X0124204Y0159253D01*
X0122718Y0160851D02*
X0118100Y0160851D01*
X0118100Y0162450D02*
X0122056Y0162450D01*
X0121900Y0164048D02*
X0118100Y0164048D01*
X0118100Y0165647D02*
X0122096Y0165647D01*
X0122758Y0167245D02*
X0118100Y0167245D01*
X0118100Y0168844D02*
X0124179Y0168844D01*
X0122598Y0170442D02*
X0118100Y0170442D01*
X0118100Y0172041D02*
X0121812Y0172041D01*
X0121500Y0173639D02*
X0118100Y0173639D01*
X0118100Y0175238D02*
X0121618Y0175238D01*
X0122174Y0176836D02*
X0118100Y0176836D01*
X0118100Y0178435D02*
X0123325Y0178435D01*
X0123423Y0180033D02*
X0118100Y0180033D01*
X0118319Y0181632D02*
X0122395Y0181632D01*
X0121900Y0183230D02*
X0119917Y0183230D01*
X0121516Y0184829D02*
X0121900Y0184829D01*
X0117337Y0189624D02*
X0069639Y0189624D01*
X0068974Y0189900D02*
X0071142Y0189002D01*
X0072802Y0187342D01*
X0073700Y0185174D01*
X0073700Y0182826D01*
X0072802Y0180658D01*
X0071144Y0179000D01*
X0072802Y0177342D01*
X0073700Y0175174D01*
X0073700Y0172826D01*
X0072802Y0170658D01*
X0071351Y0169207D01*
X0071904Y0168805D01*
X0072605Y0168104D01*
X0073188Y0167302D01*
X0073638Y0166418D01*
X0073945Y0165475D01*
X0074100Y0164496D01*
X0074100Y0164184D01*
X0067984Y0164184D01*
X0067984Y0163816D01*
X0067984Y0157700D01*
X0067984Y0154184D01*
X0067616Y0154184D01*
X0067616Y0153816D01*
X0061500Y0153816D01*
X0061500Y0153504D01*
X0061655Y0152525D01*
X0061962Y0151582D01*
X0062412Y0150698D01*
X0062995Y0149896D01*
X0063696Y0149195D01*
X0064249Y0148793D01*
X0062798Y0147342D01*
X0061900Y0145174D01*
X0061900Y0142826D01*
X0062798Y0140658D01*
X0064456Y0139000D01*
X0062798Y0137342D01*
X0061900Y0135174D01*
X0061900Y0132826D01*
X0062759Y0130754D01*
X0060965Y0130754D01*
X0060965Y0131402D01*
X0060167Y0132200D01*
X0060965Y0132998D01*
X0060965Y0138095D01*
X0060145Y0138915D01*
X0054655Y0138915D01*
X0053835Y0138095D01*
X0053835Y0137446D01*
X0052222Y0137446D01*
X0051754Y0138576D01*
X0050376Y0139954D01*
X0048575Y0140700D01*
X0046625Y0140700D01*
X0044824Y0139954D01*
X0043446Y0138576D01*
X0042700Y0136775D01*
X0042700Y0134825D01*
X0043446Y0133024D01*
X0044824Y0131646D01*
X0046625Y0130900D01*
X0048575Y0130900D01*
X0050376Y0131646D01*
X0051754Y0133024D01*
X0052012Y0133646D01*
X0053835Y0133646D01*
X0053835Y0132998D01*
X0054633Y0132200D01*
X0053835Y0131402D01*
X0053835Y0126305D01*
X0054655Y0125485D01*
X0060145Y0125485D01*
X0060965Y0126305D01*
X0060965Y0126954D01*
X0062159Y0126954D01*
X0062497Y0126616D01*
X0061900Y0125174D01*
X0061900Y0122826D01*
X0062798Y0120658D01*
X0064456Y0119000D01*
X0062798Y0117342D01*
X0062201Y0115900D01*
X0061533Y0115900D01*
X0060965Y0116468D01*
X0060965Y0119895D01*
X0060145Y0120715D01*
X0054655Y0120715D01*
X0053835Y0119895D01*
X0053835Y0114798D01*
X0054633Y0114000D01*
X0053835Y0113202D01*
X0053835Y0109922D01*
X0052413Y0108500D01*
X0051969Y0108056D01*
X0051754Y0108576D01*
X0050376Y0109954D01*
X0048575Y0110700D01*
X0046625Y0110700D01*
X0044824Y0109954D01*
X0043446Y0108576D01*
X0042700Y0106775D01*
X0042700Y0104825D01*
X0043446Y0103024D01*
X0044824Y0101646D01*
X0046625Y0100900D01*
X0048575Y0100900D01*
X0050376Y0101646D01*
X0051300Y0102570D01*
X0051300Y0102187D01*
X0049450Y0100337D01*
X0048575Y0100700D01*
X0046625Y0100700D01*
X0044824Y0099954D01*
X0043446Y0098576D01*
X0042700Y0096775D01*
X0042700Y0094825D01*
X0043446Y0093024D01*
X0044824Y0091646D01*
X0046625Y0090900D01*
X0048575Y0090900D01*
X0050376Y0091646D01*
X0051754Y0093024D01*
X0052500Y0094825D01*
X0052500Y0096775D01*
X0052137Y0097650D01*
X0053835Y0099348D01*
X0053835Y0097398D01*
X0054633Y0096600D01*
X0053835Y0095802D01*
X0053835Y0094722D01*
X0049450Y0090337D01*
X0048575Y0090700D01*
X0046625Y0090700D01*
X0044824Y0089954D01*
X0043446Y0088576D01*
X0042700Y0086775D01*
X0042700Y0084825D01*
X0043446Y0083024D01*
X0044824Y0081646D01*
X0046625Y0080900D01*
X0048575Y0080900D01*
X0050376Y0081646D01*
X0051754Y0083024D01*
X0052500Y0084825D01*
X0052500Y0086775D01*
X0052137Y0087650D01*
X0054513Y0090026D01*
X0054655Y0089885D01*
X0060145Y0089885D01*
X0060965Y0090705D01*
X0060965Y0095802D01*
X0060167Y0096600D01*
X0060965Y0097398D01*
X0060965Y0100825D01*
X0062212Y0102072D01*
X0062798Y0100658D01*
X0064456Y0099000D01*
X0062798Y0097342D01*
X0061900Y0095174D01*
X0061900Y0092826D01*
X0062263Y0091950D01*
X0050613Y0080300D01*
X0045787Y0080300D01*
X0012137Y0113950D01*
X0012500Y0114825D01*
X0012500Y0116775D01*
X0011754Y0118576D01*
X0010376Y0119954D01*
X0008575Y0120700D01*
X0006625Y0120700D01*
X0004824Y0119954D01*
X0004544Y0119674D01*
X0004537Y0121933D01*
X0004824Y0121646D01*
X0006625Y0120900D01*
X0008575Y0120900D01*
X0010376Y0121646D01*
X0011754Y0123024D01*
X0012500Y0124825D01*
X0012500Y0126775D01*
X0011754Y0128576D01*
X0010376Y0129954D01*
X0008575Y0130700D01*
X0006625Y0130700D01*
X0004824Y0129954D01*
X0004514Y0129644D01*
X0004507Y0131963D01*
X0004824Y0131646D01*
X0006625Y0130900D01*
X0008575Y0130900D01*
X0010376Y0131646D01*
X0011754Y0133024D01*
X0012500Y0134825D01*
X0012500Y0136775D01*
X0011754Y0138576D01*
X0010376Y0139954D01*
X0008575Y0140700D01*
X0006625Y0140700D01*
X0004824Y0139954D01*
X0004484Y0139614D01*
X0004477Y0141993D01*
X0004824Y0141646D01*
X0006625Y0140900D01*
X0008575Y0140900D01*
X0010376Y0141646D01*
X0011754Y0143024D01*
X0012500Y0144825D01*
X0012500Y0146775D01*
X0011754Y0148576D01*
X0010376Y0149954D01*
X0008575Y0150700D01*
X0006625Y0150700D01*
X0004824Y0149954D01*
X0004454Y0149584D01*
X0004447Y0152023D01*
X0004824Y0151646D01*
X0006625Y0150900D01*
X0008575Y0150900D01*
X0010376Y0151646D01*
X0011754Y0153024D01*
X0012500Y0154825D01*
X0012500Y0156775D01*
X0011754Y0158576D01*
X0010376Y0159954D01*
X0008575Y0160700D01*
X0006625Y0160700D01*
X0004824Y0159954D01*
X0004424Y0159554D01*
X0004310Y0197700D01*
X0190000Y0197700D01*
X0190000Y0146233D01*
X0184150Y0140384D01*
X0184168Y0140451D01*
X0184168Y0142669D01*
X0180584Y0142669D01*
X0180584Y0138888D01*
X0182605Y0138888D01*
X0182673Y0138906D01*
X0176867Y0133100D01*
X0176540Y0133100D01*
X0175659Y0133982D01*
X0174453Y0134481D01*
X0173147Y0134481D01*
X0171941Y0133982D01*
X0171018Y0133059D01*
X0170519Y0131853D01*
X0170519Y0130547D01*
X0171018Y0129341D01*
X0171941Y0128418D01*
X0173147Y0127919D01*
X0174453Y0127919D01*
X0175659Y0128418D01*
X0176540Y0129300D01*
X0178441Y0129300D01*
X0190000Y0140859D01*
X0190000Y0118100D01*
X0188502Y0118100D01*
X0188502Y0118355D01*
X0187682Y0119175D01*
X0182979Y0119175D01*
X0182159Y0118355D01*
X0182159Y0114045D01*
X0182979Y0113225D01*
X0187682Y0113225D01*
X0188502Y0114045D01*
X0188502Y0114300D01*
X0190000Y0114300D01*
X0190000Y0094768D01*
X0189838Y0094768D01*
X0189838Y0091184D01*
X0189469Y0091184D01*
X0189469Y0090816D01*
X0185688Y0090816D01*
X0185688Y0088795D01*
X0185811Y0088337D01*
X0186048Y0087926D01*
X0186383Y0087591D01*
X0186793Y0087354D01*
X0187251Y0087231D01*
X0189469Y0087231D01*
X0189469Y0090816D01*
X0189838Y0090816D01*
X0189838Y0087231D01*
X0190000Y0087231D01*
X0190000Y0078246D01*
X0187368Y0078246D01*
X0187368Y0079092D01*
X0186548Y0079912D01*
X0181452Y0079912D01*
X0180690Y0079150D01*
X0180459Y0079382D01*
X0179253Y0079881D01*
X0177947Y0079881D01*
X0176741Y0079382D01*
X0175818Y0078459D01*
X0175319Y0077253D01*
X0175319Y0075968D01*
X0171500Y0079787D01*
X0171500Y0091759D01*
X0171186Y0092073D01*
X0171186Y0095224D01*
X0170366Y0096044D01*
X0168025Y0096044D01*
X0167916Y0095935D01*
X0167807Y0096044D01*
X0165466Y0096044D01*
X0165357Y0095935D01*
X0165248Y0096044D01*
X0162907Y0096044D01*
X0162798Y0095935D01*
X0162689Y0096044D01*
X0160348Y0096044D01*
X0160239Y0095935D01*
X0160130Y0096044D01*
X0157789Y0096044D01*
X0157680Y0095935D01*
X0157570Y0096044D01*
X0155230Y0096044D01*
X0155120Y0095935D01*
X0155011Y0096044D01*
X0153018Y0096044D01*
X0152978Y0096084D01*
X0152567Y0096321D01*
X0152109Y0096444D01*
X0151282Y0096444D01*
X0151282Y0091377D01*
X0151282Y0091377D01*
X0151282Y0096444D01*
X0150454Y0096444D01*
X0149997Y0096321D01*
X0149586Y0096084D01*
X0149546Y0096044D01*
X0149131Y0096044D01*
X0149987Y0096900D01*
X0172787Y0096900D01*
X0173900Y0098013D01*
X0178963Y0103076D01*
X0178963Y0109485D01*
X0179415Y0109485D01*
X0180235Y0110305D01*
X0180235Y0114615D01*
X0179415Y0115435D01*
X0174711Y0115435D01*
X0173891Y0114615D01*
X0173891Y0110305D01*
X0174043Y0110154D01*
X0173253Y0110481D01*
X0171947Y0110481D01*
X0171186Y0110166D01*
X0171186Y0117271D01*
X0170366Y0118091D01*
X0168500Y0118091D01*
X0168500Y0141813D01*
X0169725Y0143038D01*
X0173016Y0143038D01*
X0173016Y0142669D01*
X0173384Y0142669D01*
X0173384Y0138888D01*
X0175405Y0138888D01*
X0175863Y0139011D01*
X0176274Y0139248D01*
X0176609Y0139583D01*
X0176800Y0139914D01*
X0176991Y0139583D01*
X0177326Y0139248D01*
X0177737Y0139011D01*
X0178195Y0138888D01*
X0180216Y0138888D01*
X0180216Y0142669D01*
X0180584Y0142669D01*
X0180584Y0143038D01*
X0184168Y0143038D01*
X0184168Y0145256D01*
X0184046Y0145714D01*
X0183809Y0146124D01*
X0183474Y0146459D01*
X0183444Y0146477D01*
X0183768Y0146801D01*
X0183768Y0152292D01*
X0182948Y0153112D01*
X0182300Y0153112D01*
X0182300Y0159885D01*
X0183145Y0159885D01*
X0183965Y0160705D01*
X0183965Y0165802D01*
X0183167Y0166600D01*
X0183965Y0167398D01*
X0183965Y0172495D01*
X0183145Y0173315D01*
X0182276Y0173315D01*
X0182276Y0180519D01*
X0183265Y0180928D01*
X0184700Y0182363D01*
X0185476Y0184238D01*
X0185476Y0186266D01*
X0184700Y0188141D01*
X0183265Y0189576D01*
X0181391Y0190352D01*
X0179362Y0190352D01*
X0177487Y0189576D01*
X0176053Y0188141D01*
X0175455Y0186698D01*
X0174857Y0188141D01*
X0173423Y0189576D01*
X0171548Y0190352D01*
X0169519Y0190352D01*
X0167645Y0189576D01*
X0166210Y0188141D01*
X0165613Y0186698D01*
X0165015Y0188141D01*
X0163580Y0189576D01*
X0161706Y0190352D01*
X0159677Y0190352D01*
X0157802Y0189576D01*
X0156368Y0188141D01*
X0155770Y0186698D01*
X0155172Y0188141D01*
X0153738Y0189576D01*
X0151863Y0190352D01*
X0149834Y0190352D01*
X0147960Y0189576D01*
X0146525Y0188141D01*
X0145749Y0186266D01*
X0145749Y0184238D01*
X0146525Y0182363D01*
X0147960Y0180928D01*
X0148949Y0180519D01*
X0148949Y0173315D01*
X0148255Y0173315D01*
X0147435Y0172495D01*
X0147435Y0167398D01*
X0148233Y0166600D01*
X0147435Y0165802D01*
X0147435Y0160705D01*
X0148255Y0159885D01*
X0149100Y0159885D01*
X0149100Y0153112D01*
X0148452Y0153112D01*
X0147631Y0152292D01*
X0147631Y0146801D01*
X0147956Y0146477D01*
X0147926Y0146459D01*
X0147591Y0146124D01*
X0147354Y0145714D01*
X0147231Y0145256D01*
X0147231Y0143038D01*
X0150816Y0143038D01*
X0150816Y0142669D01*
X0151184Y0142669D01*
X0151184Y0138888D01*
X0153205Y0138888D01*
X0153663Y0139011D01*
X0154074Y0139248D01*
X0154300Y0139474D01*
X0154526Y0139248D01*
X0154937Y0139011D01*
X0155395Y0138888D01*
X0157416Y0138888D01*
X0157416Y0142669D01*
X0157784Y0142669D01*
X0157784Y0138888D01*
X0159300Y0138888D01*
X0159300Y0130787D01*
X0153213Y0124700D01*
X0152100Y0123587D01*
X0152100Y0118091D01*
X0150111Y0118091D01*
X0150002Y0117982D01*
X0149893Y0118091D01*
X0147552Y0118091D01*
X0147443Y0117982D01*
X0147334Y0118091D01*
X0144993Y0118091D01*
X0144173Y0117271D01*
X0144173Y0115324D01*
X0140163Y0115324D01*
X0136100Y0119387D01*
X0136100Y0120322D01*
X0136617Y0119805D01*
X0137317Y0119296D01*
X0138089Y0118903D01*
X0138912Y0118635D01*
X0139767Y0118500D01*
X0140000Y0118500D01*
X0140000Y0123800D01*
X0140400Y0123800D01*
X0140400Y0124200D01*
X0145700Y0124200D01*
X0145700Y0124433D01*
X0145565Y0125288D01*
X0145297Y0126111D01*
X0144904Y0126883D01*
X0144395Y0127583D01*
X0143783Y0128195D01*
X0143083Y0128704D01*
X0142311Y0129097D01*
X0141963Y0129210D01*
X0143089Y0129676D01*
X0144524Y0131111D01*
X0145300Y0132986D01*
X0145300Y0135014D01*
X0144524Y0136889D01*
X0143089Y0138324D01*
X0141456Y0139000D01*
X0143089Y0139676D01*
X0144524Y0141111D01*
X0145300Y0142986D01*
X0145300Y0145014D01*
X0144524Y0146889D01*
X0143089Y0148324D01*
X0141456Y0149000D01*
X0143089Y0149676D01*
X0144524Y0151111D01*
X0145300Y0152986D01*
X0145300Y0155014D01*
X0144524Y0156889D01*
X0143089Y0158324D01*
X0141214Y0159100D01*
X0139186Y0159100D01*
X0139045Y0159042D01*
X0137900Y0160187D01*
X0137900Y0188987D01*
X0134300Y0192587D01*
X0133187Y0193700D01*
X0121413Y0193700D01*
X0112413Y0184700D01*
X0111300Y0183587D01*
X0111300Y0171333D01*
X0088082Y0148115D01*
X0084655Y0148115D01*
X0083835Y0147295D01*
X0083835Y0146646D01*
X0073090Y0146646D01*
X0072802Y0147342D01*
X0071351Y0148793D01*
X0071904Y0149195D01*
X0072605Y0149896D01*
X0073188Y0150698D01*
X0073638Y0151582D01*
X0073945Y0152525D01*
X0074100Y0153504D01*
X0074100Y0153816D01*
X0067984Y0153816D01*
X0067984Y0154184D01*
X0074100Y0154184D01*
X0074100Y0154496D01*
X0073945Y0155475D01*
X0073638Y0156418D01*
X0073188Y0157302D01*
X0072605Y0158104D01*
X0071904Y0158805D01*
X0071636Y0159000D01*
X0071904Y0159195D01*
X0072605Y0159896D01*
X0073188Y0160698D01*
X0073638Y0161582D01*
X0073945Y0162525D01*
X0074100Y0163504D01*
X0074100Y0163816D01*
X0067984Y0163816D01*
X0067616Y0163816D01*
X0067616Y0154184D01*
X0061500Y0154184D01*
X0061500Y0154496D01*
X0061655Y0155475D01*
X0061962Y0156418D01*
X0062412Y0157302D01*
X0062995Y0158104D01*
X0063696Y0158805D01*
X0063964Y0159000D01*
X0063696Y0159195D01*
X0062995Y0159896D01*
X0062412Y0160698D01*
X0061962Y0161582D01*
X0061655Y0162525D01*
X0061500Y0163504D01*
X0061500Y0163816D01*
X0067616Y0163816D01*
X0067616Y0164184D01*
X0061500Y0164184D01*
X0061500Y0164496D01*
X0061655Y0165475D01*
X0061962Y0166418D01*
X0062228Y0166941D01*
X0059300Y0164013D01*
X0059300Y0157915D01*
X0060145Y0157915D01*
X0060965Y0157095D01*
X0060965Y0151998D01*
X0060167Y0151200D01*
X0060965Y0150402D01*
X0060965Y0145305D01*
X0060145Y0144485D01*
X0054655Y0144485D01*
X0053835Y0145305D01*
X0053835Y0146878D01*
X0049450Y0151263D01*
X0048575Y0150900D01*
X0046625Y0150900D01*
X0044824Y0151646D01*
X0043446Y0153024D01*
X0042700Y0154825D01*
X0042700Y0156775D01*
X0043446Y0158576D01*
X0044824Y0159954D01*
X0046625Y0160700D01*
X0048575Y0160700D01*
X0050376Y0159954D01*
X0051754Y0158576D01*
X0052500Y0156775D01*
X0052500Y0154825D01*
X0052137Y0153950D01*
X0053835Y0152252D01*
X0053835Y0157095D01*
X0054655Y0157915D01*
X0055500Y0157915D01*
X0055500Y0165587D01*
X0056613Y0166700D01*
X0062146Y0172233D01*
X0061900Y0172826D01*
X0061900Y0175174D01*
X0062798Y0177342D01*
X0064456Y0179000D01*
X0062798Y0180658D01*
X0061900Y0182826D01*
X0061900Y0185174D01*
X0062798Y0187342D01*
X0064458Y0189002D01*
X0066626Y0189900D01*
X0068974Y0189900D01*
X0065961Y0189624D02*
X0004334Y0189624D01*
X0004339Y0188026D02*
X0063482Y0188026D01*
X0062419Y0186427D02*
X0004344Y0186427D01*
X0004349Y0184829D02*
X0061900Y0184829D01*
X0061900Y0183230D02*
X0004353Y0183230D01*
X0004358Y0181632D02*
X0062395Y0181632D01*
X0063423Y0180033D02*
X0004363Y0180033D01*
X0004368Y0178435D02*
X0063891Y0178435D01*
X0062589Y0176836D02*
X0004373Y0176836D01*
X0004377Y0175238D02*
X0061927Y0175238D01*
X0061900Y0173639D02*
X0004382Y0173639D01*
X0004387Y0172041D02*
X0061954Y0172041D01*
X0060355Y0170442D02*
X0004392Y0170442D01*
X0004396Y0168844D02*
X0058757Y0168844D01*
X0057158Y0167245D02*
X0004401Y0167245D01*
X0004406Y0165647D02*
X0055560Y0165647D01*
X0055500Y0164048D02*
X0004411Y0164048D01*
X0004416Y0162450D02*
X0055500Y0162450D01*
X0055500Y0160851D02*
X0004420Y0160851D01*
X0011077Y0159253D02*
X0044123Y0159253D01*
X0043064Y0157654D02*
X0012136Y0157654D01*
X0012500Y0156056D02*
X0042700Y0156056D01*
X0042853Y0154457D02*
X0012347Y0154457D01*
X0011588Y0152859D02*
X0043612Y0152859D01*
X0045756Y0151260D02*
X0009444Y0151260D01*
X0010668Y0149662D02*
X0044532Y0149662D01*
X0044824Y0149954D02*
X0043446Y0148576D01*
X0042700Y0146775D01*
X0042700Y0144825D01*
X0043446Y0143024D01*
X0044824Y0141646D01*
X0046625Y0140900D01*
X0048575Y0140900D01*
X0050376Y0141646D01*
X0051754Y0143024D01*
X0052500Y0144825D01*
X0052500Y0146775D01*
X0051754Y0148576D01*
X0050376Y0149954D01*
X0048575Y0150700D01*
X0046625Y0150700D01*
X0044824Y0149954D01*
X0043234Y0148063D02*
X0011966Y0148063D01*
X0012500Y0146465D02*
X0042700Y0146465D01*
X0042700Y0144866D02*
X0012500Y0144866D01*
X0011855Y0143268D02*
X0043345Y0143268D01*
X0044801Y0141669D02*
X0010399Y0141669D01*
X0010094Y0140070D02*
X0045106Y0140070D01*
X0043403Y0138472D02*
X0011797Y0138472D01*
X0012459Y0136873D02*
X0042741Y0136873D01*
X0042700Y0135275D02*
X0012500Y0135275D01*
X0012024Y0133676D02*
X0043176Y0133676D01*
X0044392Y0132078D02*
X0010808Y0132078D01*
X0009107Y0130479D02*
X0046093Y0130479D01*
X0046625Y0130700D02*
X0044824Y0129954D01*
X0043446Y0128576D01*
X0042700Y0126775D01*
X0042700Y0124825D01*
X0043446Y0123024D01*
X0044824Y0121646D01*
X0046625Y0120900D01*
X0048575Y0120900D01*
X0050376Y0121646D01*
X0051754Y0123024D01*
X0052500Y0124825D01*
X0052500Y0126775D01*
X0051754Y0128576D01*
X0050376Y0129954D01*
X0048575Y0130700D01*
X0046625Y0130700D01*
X0049107Y0130479D02*
X0053835Y0130479D01*
X0053835Y0128881D02*
X0051449Y0128881D01*
X0052290Y0127282D02*
X0053835Y0127282D01*
X0054456Y0125684D02*
X0052500Y0125684D01*
X0052193Y0124085D02*
X0061900Y0124085D01*
X0062041Y0122487D02*
X0051216Y0122487D01*
X0050376Y0119954D02*
X0048575Y0120700D01*
X0046625Y0120700D01*
X0044824Y0119954D01*
X0043446Y0118576D01*
X0042700Y0116775D01*
X0042700Y0114825D01*
X0043446Y0113024D01*
X0044824Y0111646D01*
X0046625Y0110900D01*
X0048575Y0110900D01*
X0050376Y0111646D01*
X0051754Y0113024D01*
X0052500Y0114825D01*
X0052500Y0116775D01*
X0051754Y0118576D01*
X0050376Y0119954D01*
X0051040Y0119290D02*
X0053835Y0119290D01*
X0053835Y0117691D02*
X0052120Y0117691D01*
X0052500Y0116093D02*
X0053835Y0116093D01*
X0054138Y0114494D02*
X0052363Y0114494D01*
X0051625Y0112896D02*
X0053835Y0112896D01*
X0053835Y0111297D02*
X0049534Y0111297D01*
X0050631Y0109699D02*
X0053612Y0109699D01*
X0052013Y0108100D02*
X0051951Y0108100D01*
X0045666Y0111297D02*
X0014790Y0111297D01*
X0016388Y0109699D02*
X0044569Y0109699D01*
X0043249Y0108100D02*
X0017987Y0108100D01*
X0019585Y0106502D02*
X0042700Y0106502D01*
X0042700Y0104903D02*
X0021184Y0104903D01*
X0022782Y0103305D02*
X0043330Y0103305D01*
X0044764Y0101706D02*
X0024381Y0101706D01*
X0025979Y0100108D02*
X0045195Y0100108D01*
X0043418Y0098509D02*
X0027578Y0098509D01*
X0029176Y0096911D02*
X0042756Y0096911D01*
X0042700Y0095312D02*
X0030775Y0095312D01*
X0032373Y0093714D02*
X0043160Y0093714D01*
X0044355Y0092115D02*
X0033972Y0092115D01*
X0035570Y0090517D02*
X0046183Y0090517D01*
X0049017Y0090517D02*
X0049630Y0090517D01*
X0050845Y0092115D02*
X0051228Y0092115D01*
X0052040Y0093714D02*
X0052827Y0093714D01*
X0052500Y0095312D02*
X0053835Y0095312D01*
X0054322Y0096911D02*
X0052444Y0096911D01*
X0052996Y0098509D02*
X0053835Y0098509D01*
X0050819Y0101706D02*
X0050436Y0101706D01*
X0060965Y0100108D02*
X0063348Y0100108D01*
X0063965Y0098509D02*
X0060965Y0098509D01*
X0060478Y0096911D02*
X0062620Y0096911D01*
X0061957Y0095312D02*
X0060965Y0095312D01*
X0060965Y0093714D02*
X0061900Y0093714D01*
X0062195Y0092115D02*
X0060965Y0092115D01*
X0060830Y0090517D02*
X0060777Y0090517D01*
X0059231Y0088918D02*
X0053405Y0088918D01*
X0052274Y0087320D02*
X0057633Y0087320D01*
X0056034Y0085721D02*
X0052500Y0085721D01*
X0052209Y0084123D02*
X0054436Y0084123D01*
X0052837Y0082524D02*
X0051254Y0082524D01*
X0051239Y0080926D02*
X0048636Y0080926D01*
X0046564Y0080926D02*
X0045161Y0080926D01*
X0043946Y0082524D02*
X0043563Y0082524D01*
X0042991Y0084123D02*
X0041964Y0084123D01*
X0042700Y0085721D02*
X0040366Y0085721D01*
X0038767Y0087320D02*
X0042926Y0087320D01*
X0043788Y0088918D02*
X0037169Y0088918D01*
X0017780Y0072933D02*
X0004684Y0072933D01*
X0004689Y0071334D02*
X0019378Y0071334D01*
X0020977Y0069736D02*
X0004694Y0069736D01*
X0004679Y0074532D02*
X0016181Y0074532D01*
X0014583Y0076130D02*
X0004675Y0076130D01*
X0004670Y0077729D02*
X0012984Y0077729D01*
X0011386Y0079327D02*
X0004665Y0079327D01*
X0004660Y0080926D02*
X0006564Y0080926D01*
X0008636Y0080926D02*
X0009787Y0080926D01*
X0013191Y0112896D02*
X0043575Y0112896D01*
X0042837Y0114494D02*
X0012363Y0114494D01*
X0012500Y0116093D02*
X0042700Y0116093D01*
X0043080Y0117691D02*
X0012120Y0117691D01*
X0011040Y0119290D02*
X0044160Y0119290D01*
X0043983Y0122487D02*
X0011216Y0122487D01*
X0012193Y0124085D02*
X0043006Y0124085D01*
X0042700Y0125684D02*
X0012500Y0125684D01*
X0012290Y0127282D02*
X0042910Y0127282D01*
X0043751Y0128881D02*
X0011449Y0128881D01*
X0006093Y0130479D02*
X0004512Y0130479D01*
X0004540Y0120888D02*
X0062703Y0120888D01*
X0064166Y0119290D02*
X0060965Y0119290D01*
X0060965Y0117691D02*
X0063147Y0117691D01*
X0062281Y0116093D02*
X0061341Y0116093D01*
X0062111Y0125684D02*
X0060344Y0125684D01*
X0060289Y0132078D02*
X0062210Y0132078D01*
X0061900Y0133676D02*
X0060965Y0133676D01*
X0060965Y0135275D02*
X0061942Y0135275D01*
X0062604Y0136873D02*
X0060965Y0136873D01*
X0060588Y0138472D02*
X0063928Y0138472D01*
X0063386Y0140070D02*
X0050094Y0140070D01*
X0050399Y0141669D02*
X0062379Y0141669D01*
X0061900Y0143268D02*
X0051855Y0143268D01*
X0052500Y0144866D02*
X0054274Y0144866D01*
X0053835Y0146465D02*
X0052500Y0146465D01*
X0052650Y0148063D02*
X0051966Y0148063D01*
X0051051Y0149662D02*
X0050668Y0149662D01*
X0049453Y0151260D02*
X0049444Y0151260D01*
X0053228Y0152859D02*
X0053835Y0152859D01*
X0053835Y0154457D02*
X0052347Y0154457D01*
X0052500Y0156056D02*
X0053835Y0156056D01*
X0054394Y0157654D02*
X0052136Y0157654D01*
X0051077Y0159253D02*
X0055500Y0159253D01*
X0059300Y0159253D02*
X0063638Y0159253D01*
X0062668Y0157654D02*
X0060406Y0157654D01*
X0060965Y0156056D02*
X0061844Y0156056D01*
X0061500Y0154457D02*
X0060965Y0154457D01*
X0060965Y0152859D02*
X0061602Y0152859D01*
X0062125Y0151260D02*
X0060227Y0151260D01*
X0060965Y0149662D02*
X0063229Y0149662D01*
X0063519Y0148063D02*
X0060965Y0148063D01*
X0060965Y0146465D02*
X0062435Y0146465D01*
X0061900Y0144866D02*
X0060526Y0144866D01*
X0054212Y0138472D02*
X0051797Y0138472D01*
X0050808Y0132078D02*
X0054511Y0132078D01*
X0071263Y0128881D02*
X0081632Y0128881D01*
X0080034Y0130479D02*
X0072623Y0130479D01*
X0073390Y0132078D02*
X0078435Y0132078D01*
X0084603Y0148063D02*
X0072081Y0148063D01*
X0072371Y0149662D02*
X0089628Y0149662D01*
X0091227Y0151260D02*
X0073475Y0151260D01*
X0073998Y0152859D02*
X0092825Y0152859D01*
X0094424Y0154457D02*
X0074100Y0154457D01*
X0073756Y0156056D02*
X0096022Y0156056D01*
X0097621Y0157654D02*
X0072932Y0157654D01*
X0071962Y0159253D02*
X0099219Y0159253D01*
X0100818Y0160851D02*
X0073266Y0160851D01*
X0073920Y0162450D02*
X0102416Y0162450D01*
X0104015Y0164048D02*
X0067984Y0164048D01*
X0067616Y0164048D02*
X0059335Y0164048D01*
X0059300Y0162450D02*
X0061680Y0162450D01*
X0062334Y0160851D02*
X0059300Y0160851D01*
X0060934Y0165647D02*
X0061711Y0165647D01*
X0067616Y0162450D02*
X0067984Y0162450D01*
X0067984Y0160851D02*
X0067616Y0160851D01*
X0067616Y0159253D02*
X0067984Y0159253D01*
X0067984Y0157654D02*
X0067616Y0157654D01*
X0067616Y0156056D02*
X0067984Y0156056D01*
X0067984Y0154457D02*
X0067616Y0154457D01*
X0073889Y0165647D02*
X0105613Y0165647D01*
X0107212Y0167245D02*
X0073217Y0167245D01*
X0071851Y0168844D02*
X0108810Y0168844D01*
X0110409Y0170442D02*
X0072586Y0170442D01*
X0073375Y0172041D02*
X0111300Y0172041D01*
X0111300Y0173639D02*
X0073700Y0173639D01*
X0073673Y0175238D02*
X0111300Y0175238D01*
X0111300Y0176836D02*
X0073011Y0176836D01*
X0071709Y0178435D02*
X0111300Y0178435D01*
X0111300Y0180033D02*
X0072177Y0180033D01*
X0073205Y0181632D02*
X0111300Y0181632D01*
X0111300Y0183230D02*
X0073700Y0183230D01*
X0073700Y0184829D02*
X0112542Y0184829D01*
X0114140Y0186427D02*
X0073181Y0186427D01*
X0072118Y0188026D02*
X0115739Y0188026D01*
X0118936Y0191223D02*
X0004329Y0191223D01*
X0004325Y0192821D02*
X0120534Y0192821D01*
X0134066Y0192821D02*
X0190000Y0192821D01*
X0190000Y0191223D02*
X0135664Y0191223D01*
X0137263Y0189624D02*
X0148078Y0189624D01*
X0146478Y0188026D02*
X0137900Y0188026D01*
X0137900Y0186427D02*
X0145815Y0186427D01*
X0145749Y0184829D02*
X0137900Y0184829D01*
X0137900Y0183230D02*
X0146166Y0183230D01*
X0147257Y0181632D02*
X0137900Y0181632D01*
X0137900Y0180033D02*
X0148949Y0180033D01*
X0148949Y0178435D02*
X0137900Y0178435D01*
X0137900Y0176836D02*
X0148949Y0176836D01*
X0148949Y0175238D02*
X0137900Y0175238D01*
X0137900Y0173639D02*
X0148949Y0173639D01*
X0147435Y0172041D02*
X0137900Y0172041D01*
X0137900Y0170442D02*
X0147435Y0170442D01*
X0147435Y0168844D02*
X0137900Y0168844D01*
X0137900Y0167245D02*
X0147588Y0167245D01*
X0147435Y0165647D02*
X0137900Y0165647D01*
X0137900Y0164048D02*
X0147435Y0164048D01*
X0147435Y0162450D02*
X0137900Y0162450D01*
X0137900Y0160851D02*
X0147435Y0160851D01*
X0149100Y0159253D02*
X0138834Y0159253D01*
X0143758Y0157654D02*
X0149100Y0157654D01*
X0149100Y0156056D02*
X0144869Y0156056D01*
X0145300Y0154457D02*
X0149100Y0154457D01*
X0148198Y0152859D02*
X0145247Y0152859D01*
X0144585Y0151260D02*
X0147631Y0151260D01*
X0147631Y0149662D02*
X0143053Y0149662D01*
X0143349Y0148063D02*
X0147631Y0148063D01*
X0147935Y0146465D02*
X0144699Y0146465D01*
X0145300Y0144866D02*
X0147231Y0144866D01*
X0147231Y0143268D02*
X0145300Y0143268D01*
X0144755Y0141669D02*
X0147231Y0141669D01*
X0147231Y0142669D02*
X0147231Y0140451D01*
X0147354Y0139993D01*
X0147591Y0139583D01*
X0147926Y0139248D01*
X0148337Y0139011D01*
X0148795Y0138888D01*
X0150816Y0138888D01*
X0150816Y0142669D01*
X0147231Y0142669D01*
X0147334Y0140070D02*
X0143483Y0140070D01*
X0142731Y0138472D02*
X0159300Y0138472D01*
X0159300Y0136873D02*
X0144530Y0136873D01*
X0145192Y0135275D02*
X0159300Y0135275D01*
X0159300Y0133676D02*
X0145300Y0133676D01*
X0144924Y0132078D02*
X0159300Y0132078D01*
X0158992Y0130479D02*
X0143892Y0130479D01*
X0142735Y0128881D02*
X0157394Y0128881D01*
X0155795Y0127282D02*
X0144614Y0127282D01*
X0145436Y0125684D02*
X0154197Y0125684D01*
X0152598Y0124085D02*
X0140400Y0124085D01*
X0140400Y0123800D02*
X0145700Y0123800D01*
X0145700Y0123567D01*
X0145565Y0122712D01*
X0145297Y0121889D01*
X0144904Y0121117D01*
X0144395Y0120417D01*
X0143783Y0119805D01*
X0143083Y0119296D01*
X0142311Y0118903D01*
X0141488Y0118635D01*
X0140633Y0118500D01*
X0140400Y0118500D01*
X0140400Y0123800D01*
X0140400Y0122487D02*
X0140000Y0122487D01*
X0140000Y0120888D02*
X0140400Y0120888D01*
X0140400Y0119290D02*
X0140000Y0119290D01*
X0137329Y0119290D02*
X0136197Y0119290D01*
X0137796Y0117691D02*
X0144593Y0117691D01*
X0144173Y0116093D02*
X0139394Y0116093D01*
X0137217Y0112896D02*
X0133700Y0112896D01*
X0133700Y0114494D02*
X0135619Y0114494D01*
X0134020Y0116093D02*
X0133319Y0116093D01*
X0133067Y0111297D02*
X0144173Y0111297D01*
X0144173Y0109699D02*
X0131843Y0109699D01*
X0132044Y0108100D02*
X0146823Y0108100D01*
X0146823Y0106502D02*
X0133150Y0106502D01*
X0133700Y0104903D02*
X0146823Y0104903D01*
X0148008Y0103305D02*
X0133700Y0103305D01*
X0133236Y0101706D02*
X0149607Y0101706D01*
X0147821Y0100108D02*
X0132252Y0100108D01*
X0131635Y0098509D02*
X0146222Y0098509D01*
X0144624Y0096911D02*
X0132980Y0096911D01*
X0133643Y0095312D02*
X0144261Y0095312D01*
X0144173Y0093714D02*
X0133700Y0093714D01*
X0133405Y0092115D02*
X0144173Y0092115D01*
X0144173Y0090517D02*
X0132660Y0090517D01*
X0131226Y0088918D02*
X0144173Y0088918D01*
X0143279Y0087320D02*
X0132811Y0087320D01*
X0133473Y0085721D02*
X0142347Y0085721D01*
X0142412Y0084123D02*
X0133700Y0084123D01*
X0133575Y0082524D02*
X0143436Y0082524D01*
X0147764Y0082524D02*
X0151941Y0082524D01*
X0151941Y0084123D02*
X0149810Y0084123D01*
X0150500Y0085721D02*
X0151941Y0085721D01*
X0151282Y0086309D02*
X0151282Y0091376D01*
X0151282Y0091376D01*
X0151282Y0086309D01*
X0151282Y0087320D02*
X0151282Y0087320D01*
X0151282Y0088918D02*
X0151282Y0088918D01*
X0151282Y0090517D02*
X0151282Y0090517D01*
X0151282Y0092115D02*
X0151282Y0092115D01*
X0151282Y0093714D02*
X0151282Y0093714D01*
X0151282Y0095312D02*
X0151282Y0095312D01*
X0151772Y0080926D02*
X0132913Y0080926D01*
X0131471Y0079327D02*
X0149881Y0079327D01*
X0149519Y0077729D02*
X0132415Y0077729D01*
X0133304Y0076130D02*
X0149940Y0076130D01*
X0148683Y0074532D02*
X0133700Y0074532D01*
X0133700Y0072933D02*
X0148319Y0072933D01*
X0148738Y0071334D02*
X0133082Y0071334D01*
X0131880Y0069736D02*
X0150906Y0069736D01*
X0152294Y0069736D02*
X0154649Y0069736D01*
X0155621Y0071334D02*
X0156248Y0071334D01*
X0158424Y0068137D02*
X0158431Y0068137D01*
X0158431Y0066539D02*
X0157565Y0066539D01*
X0157565Y0064940D02*
X0158431Y0064940D01*
X0158431Y0063342D02*
X0157565Y0063342D01*
X0157712Y0061743D02*
X0158171Y0061743D01*
X0158031Y0060145D02*
X0157965Y0060145D01*
X0158031Y0058669D02*
X0158031Y0056451D01*
X0158154Y0055993D01*
X0158391Y0055583D01*
X0158726Y0055248D01*
X0159137Y0055011D01*
X0159595Y0054888D01*
X0161616Y0054888D01*
X0161616Y0058669D01*
X0158031Y0058669D01*
X0158031Y0058546D02*
X0157965Y0058546D01*
X0157965Y0056948D02*
X0158031Y0056948D01*
X0158625Y0055349D02*
X0157106Y0055349D01*
X0154184Y0055349D02*
X0153816Y0055349D01*
X0153816Y0055085D02*
X0153816Y0058669D01*
X0150035Y0058669D01*
X0150035Y0056648D01*
X0150157Y0056190D01*
X0150394Y0055780D01*
X0150729Y0055445D01*
X0151140Y0055208D01*
X0151598Y0055085D01*
X0153816Y0055085D01*
X0153816Y0056948D02*
X0154184Y0056948D01*
X0154184Y0058546D02*
X0153816Y0058546D01*
X0150035Y0058546D02*
X0149765Y0058546D01*
X0149765Y0056948D02*
X0150035Y0056948D01*
X0149711Y0055349D02*
X0150894Y0055349D01*
X0149711Y0053751D02*
X0163500Y0053751D01*
X0163500Y0052152D02*
X0149711Y0052152D01*
X0149711Y0050554D02*
X0163500Y0050554D01*
X0163500Y0048955D02*
X0149711Y0048955D01*
X0149711Y0047357D02*
X0163500Y0047357D01*
X0163500Y0045758D02*
X0149711Y0045758D01*
X0149711Y0044160D02*
X0163500Y0044160D01*
X0163500Y0042561D02*
X0149711Y0042561D01*
X0149711Y0040963D02*
X0163500Y0040963D01*
X0163500Y0039364D02*
X0149711Y0039364D01*
X0150363Y0037766D02*
X0163500Y0037766D01*
X0163500Y0036167D02*
X0151453Y0036167D01*
X0151683Y0034569D02*
X0163500Y0034569D01*
X0163500Y0032970D02*
X0151226Y0032970D01*
X0149549Y0031372D02*
X0163500Y0031372D01*
X0167300Y0031372D02*
X0174831Y0031372D01*
X0174831Y0031669D02*
X0174831Y0029451D01*
X0174954Y0028993D01*
X0175191Y0028583D01*
X0175526Y0028248D01*
X0175937Y0028011D01*
X0176395Y0027888D01*
X0178416Y0027888D01*
X0178416Y0031669D01*
X0174831Y0031669D01*
X0174831Y0032970D02*
X0167300Y0032970D01*
X0167300Y0034569D02*
X0174915Y0034569D01*
X0175231Y0036167D02*
X0167300Y0036167D01*
X0167300Y0037766D02*
X0175231Y0037766D01*
X0175231Y0039364D02*
X0167300Y0039364D01*
X0167300Y0040963D02*
X0175231Y0040963D01*
X0176700Y0042561D02*
X0167300Y0042561D01*
X0167300Y0044160D02*
X0176700Y0044160D01*
X0176700Y0045758D02*
X0167300Y0045758D01*
X0167300Y0047357D02*
X0176700Y0047357D01*
X0175358Y0048955D02*
X0167300Y0048955D01*
X0167300Y0050554D02*
X0173759Y0050554D01*
X0172161Y0052152D02*
X0167300Y0052152D01*
X0167300Y0053751D02*
X0170700Y0053751D01*
X0171813Y0052500D02*
X0171813Y0052500D01*
X0169184Y0055349D02*
X0168816Y0055349D01*
X0168816Y0056948D02*
X0169184Y0056948D01*
X0169184Y0058546D02*
X0168816Y0058546D01*
X0174500Y0055349D02*
X0185688Y0055349D01*
X0185688Y0053751D02*
X0175936Y0053751D01*
X0177535Y0052152D02*
X0186450Y0052152D01*
X0189469Y0052152D02*
X0189838Y0052152D01*
X0189838Y0053751D02*
X0189469Y0053751D01*
X0189469Y0055349D02*
X0189838Y0055349D01*
X0189838Y0055784D02*
X0189469Y0055784D01*
X0189469Y0059368D01*
X0187251Y0059368D01*
X0186793Y0059246D01*
X0186681Y0059181D01*
X0186681Y0060453D01*
X0186182Y0061659D01*
X0185300Y0062540D01*
X0185300Y0065667D01*
X0187067Y0063900D01*
X0190000Y0063900D01*
X0190000Y0059368D01*
X0189838Y0059368D01*
X0189838Y0055784D01*
X0189838Y0056948D02*
X0189469Y0056948D01*
X0189469Y0058546D02*
X0189838Y0058546D01*
X0190000Y0060145D02*
X0186681Y0060145D01*
X0186097Y0061743D02*
X0190000Y0061743D01*
X0190000Y0063342D02*
X0185300Y0063342D01*
X0185300Y0064940D02*
X0186026Y0064940D01*
X0180368Y0058546D02*
X0180165Y0058546D01*
X0180085Y0056948D02*
X0181712Y0056948D01*
X0185088Y0056948D02*
X0185688Y0056948D01*
X0190000Y0050554D02*
X0179133Y0050554D01*
X0179387Y0050300D02*
X0179387Y0050300D01*
X0180500Y0048955D02*
X0190000Y0048955D01*
X0190000Y0047357D02*
X0180500Y0047357D01*
X0180500Y0045758D02*
X0190000Y0045758D01*
X0190000Y0044160D02*
X0180500Y0044160D01*
X0180500Y0042561D02*
X0190000Y0042561D01*
X0190000Y0040963D02*
X0181968Y0040963D01*
X0186821Y0039364D02*
X0190000Y0039364D01*
X0190000Y0037766D02*
X0187281Y0037766D01*
X0186958Y0036167D02*
X0190000Y0036167D01*
X0190000Y0034569D02*
X0185256Y0034569D01*
X0182744Y0034569D02*
X0182285Y0034569D01*
X0182368Y0032970D02*
X0190000Y0032970D01*
X0190000Y0031372D02*
X0182368Y0031372D01*
X0182368Y0029773D02*
X0190000Y0029773D01*
X0190000Y0028175D02*
X0181547Y0028175D01*
X0178784Y0028175D02*
X0178416Y0028175D01*
X0178416Y0029773D02*
X0178784Y0029773D01*
X0178784Y0031372D02*
X0178416Y0031372D01*
X0174831Y0029773D02*
X0167300Y0029773D01*
X0167300Y0028175D02*
X0175653Y0028175D01*
X0167300Y0026576D02*
X0190000Y0026576D01*
X0197600Y0015100D02*
X0197600Y0009800D01*
X0202900Y0009800D01*
X0202900Y0010033D01*
X0202765Y0010888D01*
X0202497Y0011711D01*
X0202104Y0012483D01*
X0201595Y0013183D01*
X0200983Y0013795D01*
X0200283Y0014304D01*
X0199511Y0014697D01*
X0198688Y0014965D01*
X0197833Y0015100D01*
X0197600Y0015100D01*
X0197600Y0013788D02*
X0197200Y0013788D01*
X0197200Y0012190D02*
X0197600Y0012190D01*
X0197600Y0010591D02*
X0197200Y0010591D01*
X0193810Y0013788D02*
X0190990Y0013788D01*
X0192253Y0012190D02*
X0192547Y0012190D01*
X0187600Y0012190D02*
X0187200Y0012190D01*
X0187200Y0013788D02*
X0187600Y0013788D01*
X0187600Y0010591D02*
X0187200Y0010591D01*
X0183810Y0013788D02*
X0177424Y0013788D01*
X0178613Y0012190D02*
X0182547Y0012190D01*
X0181988Y0010591D02*
X0179100Y0010591D01*
X0179100Y0008993D02*
X0181928Y0008993D01*
X0182351Y0007394D02*
X0178441Y0007394D01*
X0177008Y0005796D02*
X0183426Y0005796D01*
X0170992Y0005796D02*
X0167570Y0005796D01*
X0168845Y0007394D02*
X0169559Y0007394D01*
X0164200Y0007394D02*
X0163800Y0007394D01*
X0163800Y0005796D02*
X0164200Y0005796D01*
X0164200Y0008993D02*
X0163800Y0008993D01*
X0163800Y0010591D02*
X0164200Y0010591D01*
X0164200Y0012190D02*
X0163800Y0012190D01*
X0163800Y0013788D02*
X0164200Y0013788D01*
X0164200Y0015387D02*
X0163800Y0015387D01*
X0162851Y0015387D02*
X0151683Y0015387D01*
X0151434Y0013788D02*
X0160010Y0013788D01*
X0158943Y0012190D02*
X0150318Y0012190D01*
X0145304Y0012190D02*
X0126696Y0012190D01*
X0151245Y0016985D02*
X0164328Y0016985D01*
X0165149Y0015387D02*
X0165926Y0015387D01*
X0169702Y0016985D02*
X0219854Y0016985D01*
X0219650Y0017478D02*
X0220815Y0014667D01*
X0222967Y0012515D01*
X0225778Y0011350D01*
X0228822Y0011350D01*
X0231633Y0012515D01*
X0233785Y0014667D01*
X0234950Y0017478D01*
X0234950Y0020522D01*
X0233785Y0023333D01*
X0231633Y0025485D01*
X0228822Y0026650D01*
X0225778Y0026650D01*
X0222967Y0025485D01*
X0220815Y0023333D01*
X0219650Y0020522D01*
X0219650Y0017478D01*
X0219650Y0018584D02*
X0168103Y0018584D01*
X0167300Y0020182D02*
X0219650Y0020182D01*
X0220171Y0021781D02*
X0167300Y0021781D01*
X0167300Y0023379D02*
X0220860Y0023379D01*
X0222459Y0024978D02*
X0167300Y0024978D01*
X0171300Y0015387D02*
X0220516Y0015387D01*
X0221693Y0013788D02*
X0200990Y0013788D01*
X0202253Y0012190D02*
X0223751Y0012190D01*
X0230849Y0012190D02*
X0253996Y0012190D01*
X0253818Y0012292D02*
X0254732Y0011765D01*
X0255707Y0011361D01*
X0256726Y0011088D01*
X0257500Y0010986D01*
X0257500Y0018200D01*
X0259100Y0018200D01*
X0259100Y0019800D01*
X0266314Y0019800D01*
X0266212Y0020574D01*
X0265939Y0021593D01*
X0265535Y0022568D01*
X0265008Y0023482D01*
X0264365Y0024319D01*
X0263619Y0025065D01*
X0262782Y0025708D01*
X0261868Y0026235D01*
X0260893Y0026639D01*
X0259874Y0026912D01*
X0259100Y0027014D01*
X0259100Y0019800D01*
X0257500Y0019800D01*
X0257500Y0027014D01*
X0256726Y0026912D01*
X0255707Y0026639D01*
X0254732Y0026235D01*
X0253818Y0025708D01*
X0252981Y0025065D01*
X0252235Y0024319D01*
X0251592Y0023482D01*
X0251065Y0022568D01*
X0250661Y0021593D01*
X0250388Y0020574D01*
X0250286Y0019800D01*
X0257500Y0019800D01*
X0257500Y0018200D01*
X0250286Y0018200D01*
X0250388Y0017426D01*
X0250661Y0016407D01*
X0251065Y0015432D01*
X0251592Y0014518D01*
X0252235Y0013681D01*
X0252981Y0012935D01*
X0253818Y0012292D01*
X0252152Y0013788D02*
X0232907Y0013788D01*
X0234084Y0015387D02*
X0251091Y0015387D01*
X0250506Y0016985D02*
X0234746Y0016985D01*
X0234950Y0018584D02*
X0257500Y0018584D01*
X0257500Y0020182D02*
X0259100Y0020182D01*
X0259100Y0018584D02*
X0273300Y0018584D01*
X0273300Y0020182D02*
X0266264Y0020182D01*
X0265861Y0021781D02*
X0273300Y0021781D01*
X0273300Y0023379D02*
X0265067Y0023379D01*
X0263707Y0024978D02*
X0273300Y0024978D01*
X0273300Y0026576D02*
X0261045Y0026576D01*
X0259100Y0026576D02*
X0257500Y0026576D01*
X0257500Y0024978D02*
X0259100Y0024978D01*
X0259100Y0023379D02*
X0257500Y0023379D01*
X0257500Y0021781D02*
X0259100Y0021781D01*
X0259100Y0018200D02*
X0266314Y0018200D01*
X0266212Y0017426D01*
X0265939Y0016407D01*
X0265535Y0015432D01*
X0265008Y0014518D01*
X0264365Y0013681D01*
X0263619Y0012935D01*
X0262782Y0012292D01*
X0261868Y0011765D01*
X0260893Y0011361D01*
X0259874Y0011088D01*
X0259100Y0010986D01*
X0259100Y0018200D01*
X0259100Y0016985D02*
X0257500Y0016985D01*
X0257500Y0015387D02*
X0259100Y0015387D01*
X0259100Y0013788D02*
X0257500Y0013788D01*
X0257500Y0012190D02*
X0259100Y0012190D01*
X0262604Y0012190D02*
X0273300Y0012190D01*
X0273300Y0013788D02*
X0264448Y0013788D01*
X0265509Y0015387D02*
X0273300Y0015387D01*
X0273300Y0016985D02*
X0266094Y0016985D01*
X0273300Y0010591D02*
X0202812Y0010591D01*
X0202872Y0008993D02*
X0273300Y0008993D01*
X0273300Y0007394D02*
X0202449Y0007394D01*
X0201374Y0005796D02*
X0273300Y0005796D01*
X0250739Y0021781D02*
X0234429Y0021781D01*
X0234950Y0020182D02*
X0250336Y0020182D01*
X0251533Y0023379D02*
X0233740Y0023379D01*
X0232141Y0024978D02*
X0252893Y0024978D01*
X0255555Y0026576D02*
X0229000Y0026576D01*
X0225600Y0026576D02*
X0209200Y0026576D01*
X0209200Y0028175D02*
X0273300Y0028175D01*
X0273300Y0029773D02*
X0209200Y0029773D01*
X0209200Y0031372D02*
X0273300Y0031372D01*
X0273300Y0032970D02*
X0209200Y0032970D01*
X0209200Y0034569D02*
X0273300Y0034569D01*
X0273300Y0036167D02*
X0209200Y0036167D01*
X0209200Y0037766D02*
X0273300Y0037766D01*
X0273300Y0039364D02*
X0209200Y0039364D01*
X0209200Y0040963D02*
X0273300Y0040963D01*
X0273300Y0042561D02*
X0209200Y0042561D01*
X0209200Y0044160D02*
X0273300Y0044160D01*
X0273300Y0045758D02*
X0227417Y0045758D01*
X0226209Y0044550D02*
X0224575Y0044550D01*
X0224575Y0049025D01*
X0224575Y0049775D01*
X0223825Y0049775D01*
X0223825Y0054250D01*
X0222191Y0054250D01*
X0219350Y0051409D01*
X0219350Y0049775D01*
X0223825Y0049775D01*
X0223825Y0049025D01*
X0219350Y0049025D01*
X0219350Y0047391D01*
X0222191Y0044550D01*
X0223825Y0044550D01*
X0223825Y0049025D01*
X0224575Y0049025D01*
X0229050Y0049025D01*
X0229050Y0047391D01*
X0226209Y0044550D01*
X0224575Y0045758D02*
X0223825Y0045758D01*
X0223825Y0047357D02*
X0224575Y0047357D01*
X0224575Y0048955D02*
X0223825Y0048955D01*
X0224575Y0049775D02*
X0224575Y0054250D01*
X0226209Y0054250D01*
X0229050Y0051409D01*
X0229050Y0049775D01*
X0224575Y0049775D01*
X0224575Y0050554D02*
X0223825Y0050554D01*
X0223825Y0052152D02*
X0224575Y0052152D01*
X0224575Y0053751D02*
X0223825Y0053751D01*
X0221692Y0053751D02*
X0209200Y0053751D01*
X0209200Y0055349D02*
X0273300Y0055349D01*
X0273300Y0053751D02*
X0226708Y0053751D01*
X0228307Y0052152D02*
X0273300Y0052152D01*
X0273300Y0050554D02*
X0229050Y0050554D01*
X0229050Y0048955D02*
X0273300Y0048955D01*
X0273300Y0047357D02*
X0229016Y0047357D01*
X0220983Y0045758D02*
X0209200Y0045758D01*
X0209200Y0047357D02*
X0219384Y0047357D01*
X0219350Y0048955D02*
X0209200Y0048955D01*
X0209200Y0050554D02*
X0219350Y0050554D01*
X0220093Y0052152D02*
X0209200Y0052152D01*
X0209200Y0056948D02*
X0273300Y0056948D01*
X0273300Y0058546D02*
X0209200Y0058546D01*
X0209200Y0060145D02*
X0273300Y0060145D01*
X0273300Y0061743D02*
X0209200Y0061743D01*
X0209200Y0063342D02*
X0273300Y0063342D01*
X0273300Y0064940D02*
X0209200Y0064940D01*
X0209200Y0066539D02*
X0273300Y0066539D01*
X0273300Y0068137D02*
X0209200Y0068137D01*
X0208600Y0077200D02*
X0208600Y0125200D01*
X0238600Y0125200D01*
X0238600Y0100000D01*
X0249427Y0100000D01*
X0249017Y0099763D01*
X0248682Y0099428D01*
X0248445Y0099018D01*
X0248322Y0098560D01*
X0248322Y0095567D01*
X0251500Y0095567D01*
X0256500Y0095567D01*
X0261500Y0095567D01*
X0261500Y0095567D01*
X0258322Y0095567D01*
X0256500Y0095567D01*
X0256500Y0095567D01*
X0256500Y0095567D01*
X0253322Y0095567D01*
X0251500Y0095567D01*
X0251500Y0095567D01*
X0251500Y0095567D01*
X0248322Y0095567D01*
X0248322Y0092574D01*
X0248445Y0092116D01*
X0248682Y0091706D01*
X0249017Y0091371D01*
X0249427Y0091134D01*
X0249885Y0091011D01*
X0251500Y0091011D01*
X0253115Y0091011D01*
X0253573Y0091134D01*
X0253983Y0091371D01*
X0254000Y0091387D01*
X0254017Y0091371D01*
X0254427Y0091134D01*
X0254885Y0091011D01*
X0256500Y0091011D01*
X0258115Y0091011D01*
X0258573Y0091134D01*
X0258983Y0091371D01*
X0259000Y0091387D01*
X0259017Y0091371D01*
X0259427Y0091134D01*
X0259885Y0091011D01*
X0261500Y0091011D01*
X0263115Y0091011D01*
X0263573Y0091134D01*
X0263800Y0091265D01*
X0263800Y0077200D01*
X0208600Y0077200D01*
X0208600Y0077729D02*
X0263800Y0077729D01*
X0263800Y0079327D02*
X0208600Y0079327D01*
X0208600Y0080926D02*
X0263800Y0080926D01*
X0263800Y0082524D02*
X0208600Y0082524D01*
X0208600Y0084123D02*
X0263800Y0084123D01*
X0263800Y0085721D02*
X0208600Y0085721D01*
X0208600Y0087320D02*
X0263800Y0087320D01*
X0263800Y0088918D02*
X0208600Y0088918D01*
X0208600Y0090517D02*
X0263800Y0090517D01*
X0261500Y0091011D02*
X0261500Y0095567D01*
X0261500Y0095567D01*
X0261500Y0091011D01*
X0261500Y0092115D02*
X0261500Y0092115D01*
X0261500Y0093714D02*
X0261500Y0093714D01*
X0261500Y0095312D02*
X0261500Y0095312D01*
X0256500Y0095312D02*
X0256500Y0095312D01*
X0256500Y0095567D02*
X0256500Y0091011D01*
X0256500Y0095567D01*
X0256500Y0095567D01*
X0256500Y0093714D02*
X0256500Y0093714D01*
X0256500Y0092115D02*
X0256500Y0092115D01*
X0251500Y0092115D02*
X0251500Y0092115D01*
X0251500Y0091011D02*
X0251500Y0095567D01*
X0251500Y0095567D01*
X0251500Y0091011D01*
X0251500Y0093714D02*
X0251500Y0093714D01*
X0251500Y0095312D02*
X0251500Y0095312D01*
X0248322Y0095312D02*
X0208600Y0095312D01*
X0208600Y0093714D02*
X0248322Y0093714D01*
X0248445Y0092115D02*
X0208600Y0092115D01*
X0208600Y0096911D02*
X0248322Y0096911D01*
X0248322Y0098509D02*
X0208600Y0098509D01*
X0208600Y0100108D02*
X0238600Y0100108D01*
X0238600Y0101706D02*
X0208600Y0101706D01*
X0208600Y0103305D02*
X0238600Y0103305D01*
X0238600Y0104903D02*
X0208600Y0104903D01*
X0208600Y0106502D02*
X0238600Y0106502D01*
X0238600Y0108100D02*
X0208600Y0108100D01*
X0208600Y0109699D02*
X0238600Y0109699D01*
X0238600Y0111297D02*
X0208600Y0111297D01*
X0208600Y0112896D02*
X0238600Y0112896D01*
X0238600Y0114494D02*
X0208600Y0114494D01*
X0208600Y0116093D02*
X0220648Y0116093D01*
X0219350Y0117391D02*
X0222191Y0114550D01*
X0223825Y0114550D01*
X0223825Y0119025D01*
X0219350Y0119025D01*
X0219350Y0117391D01*
X0219350Y0117691D02*
X0208600Y0117691D01*
X0208600Y0119290D02*
X0223825Y0119290D01*
X0223825Y0119025D02*
X0223825Y0119775D01*
X0223825Y0124250D01*
X0222191Y0124250D01*
X0219350Y0121409D01*
X0219350Y0119775D01*
X0223825Y0119775D01*
X0224575Y0119775D01*
X0224575Y0124250D01*
X0226209Y0124250D01*
X0229050Y0121409D01*
X0229050Y0119775D01*
X0224575Y0119775D01*
X0224575Y0119025D01*
X0229050Y0119025D01*
X0229050Y0117391D01*
X0226209Y0114550D01*
X0224575Y0114550D01*
X0224575Y0119025D01*
X0223825Y0119025D01*
X0224575Y0119290D02*
X0238600Y0119290D01*
X0238600Y0120888D02*
X0229050Y0120888D01*
X0227972Y0122487D02*
X0238600Y0122487D01*
X0238600Y0124085D02*
X0226374Y0124085D01*
X0224575Y0124085D02*
X0223825Y0124085D01*
X0223825Y0122487D02*
X0224575Y0122487D01*
X0224575Y0120888D02*
X0223825Y0120888D01*
X0223825Y0117691D02*
X0224575Y0117691D01*
X0224575Y0116093D02*
X0223825Y0116093D01*
X0227752Y0116093D02*
X0238600Y0116093D01*
X0238600Y0117691D02*
X0229050Y0117691D01*
X0222026Y0124085D02*
X0208600Y0124085D01*
X0208600Y0122487D02*
X0220428Y0122487D01*
X0219350Y0120888D02*
X0208600Y0120888D01*
X0190000Y0120888D02*
X0180635Y0120888D01*
X0180635Y0121752D02*
X0180635Y0119940D01*
X0180635Y0118128D01*
X0180512Y0117671D01*
X0180275Y0117260D01*
X0179940Y0116925D01*
X0179529Y0116688D01*
X0179072Y0116565D01*
X0177063Y0116565D01*
X0177063Y0119940D01*
X0177063Y0119940D01*
X0177063Y0116565D01*
X0175054Y0116565D01*
X0174597Y0116688D01*
X0174186Y0116925D01*
X0173851Y0117260D01*
X0173614Y0117671D01*
X0173491Y0118128D01*
X0173491Y0119940D01*
X0177063Y0119940D01*
X0177063Y0119940D01*
X0180635Y0119940D01*
X0177063Y0119940D01*
X0177063Y0119940D01*
X0173491Y0119940D01*
X0173491Y0121752D01*
X0173614Y0122210D01*
X0173851Y0122620D01*
X0174186Y0122955D01*
X0174597Y0123192D01*
X0175054Y0123315D01*
X0177063Y0123315D01*
X0177063Y0119940D01*
X0177063Y0119940D01*
X0177063Y0123315D01*
X0179072Y0123315D01*
X0179529Y0123192D01*
X0179940Y0122955D01*
X0180275Y0122620D01*
X0180512Y0122210D01*
X0180635Y0121752D01*
X0180352Y0122487D02*
X0190000Y0122487D01*
X0190000Y0124085D02*
X0168500Y0124085D01*
X0168500Y0122487D02*
X0173774Y0122487D01*
X0173491Y0120888D02*
X0168500Y0120888D01*
X0168500Y0119290D02*
X0173491Y0119290D01*
X0173608Y0117691D02*
X0170766Y0117691D01*
X0171186Y0116093D02*
X0182159Y0116093D01*
X0182159Y0117691D02*
X0180518Y0117691D01*
X0180635Y0119290D02*
X0190000Y0119290D01*
X0190000Y0125684D02*
X0168500Y0125684D01*
X0168500Y0127282D02*
X0190000Y0127282D01*
X0190000Y0128881D02*
X0176121Y0128881D01*
X0179620Y0130479D02*
X0190000Y0130479D01*
X0190000Y0132078D02*
X0181218Y0132078D01*
X0182817Y0133676D02*
X0190000Y0133676D01*
X0190000Y0135275D02*
X0184415Y0135275D01*
X0186014Y0136873D02*
X0190000Y0136873D01*
X0190000Y0138472D02*
X0187613Y0138472D01*
X0189211Y0140070D02*
X0190000Y0140070D01*
X0187034Y0143268D02*
X0184168Y0143268D01*
X0184168Y0144866D02*
X0188633Y0144866D01*
X0190000Y0146465D02*
X0183465Y0146465D01*
X0183768Y0148063D02*
X0190000Y0148063D01*
X0190000Y0149662D02*
X0183768Y0149662D01*
X0183768Y0151260D02*
X0190000Y0151260D01*
X0190000Y0152859D02*
X0183202Y0152859D01*
X0182300Y0154457D02*
X0190000Y0154457D01*
X0190000Y0156056D02*
X0182300Y0156056D01*
X0182300Y0157654D02*
X0190000Y0157654D01*
X0190000Y0159253D02*
X0182300Y0159253D01*
X0183965Y0160851D02*
X0190000Y0160851D01*
X0190000Y0162450D02*
X0183965Y0162450D01*
X0183965Y0164048D02*
X0190000Y0164048D01*
X0190000Y0165647D02*
X0183965Y0165647D01*
X0183812Y0167245D02*
X0190000Y0167245D01*
X0190000Y0168844D02*
X0183965Y0168844D01*
X0183965Y0170442D02*
X0190000Y0170442D01*
X0190000Y0172041D02*
X0183965Y0172041D01*
X0182276Y0173639D02*
X0190000Y0173639D01*
X0190000Y0175238D02*
X0182276Y0175238D01*
X0182276Y0176836D02*
X0190000Y0176836D01*
X0190000Y0178435D02*
X0182276Y0178435D01*
X0182276Y0180033D02*
X0190000Y0180033D01*
X0190000Y0181632D02*
X0183969Y0181632D01*
X0185059Y0183230D02*
X0190000Y0183230D01*
X0190000Y0184829D02*
X0185476Y0184829D01*
X0185410Y0186427D02*
X0190000Y0186427D01*
X0190000Y0188026D02*
X0184748Y0188026D01*
X0183148Y0189624D02*
X0190000Y0189624D01*
X0190000Y0194420D02*
X0004320Y0194420D01*
X0004315Y0196018D02*
X0190000Y0196018D01*
X0190000Y0197617D02*
X0004310Y0197617D01*
X0004449Y0151260D02*
X0005756Y0151260D01*
X0004532Y0149662D02*
X0004454Y0149662D01*
X0004478Y0141669D02*
X0004801Y0141669D01*
X0005106Y0140070D02*
X0004483Y0140070D01*
X0061847Y0101706D02*
X0062364Y0101706D01*
X0087416Y0064940D02*
X0087784Y0064940D01*
X0087784Y0063342D02*
X0087416Y0063342D01*
X0087416Y0061743D02*
X0087784Y0061743D01*
X0100114Y0058546D02*
X0103379Y0058546D01*
X0102635Y0056948D02*
X0100565Y0056948D01*
X0100565Y0055349D02*
X0102635Y0055349D01*
X0102635Y0053751D02*
X0100565Y0053751D01*
X0100413Y0052152D02*
X0103187Y0052152D01*
X0103150Y0044160D02*
X0080248Y0044160D01*
X0081657Y0042561D02*
X0103150Y0042561D01*
X0103150Y0040963D02*
X0082300Y0040963D01*
X0082300Y0039364D02*
X0103150Y0039364D01*
X0103575Y0037766D02*
X0081797Y0037766D01*
X0080584Y0036167D02*
X0102750Y0036167D01*
X0106625Y0036167D02*
X0107375Y0036167D01*
X0107375Y0034569D02*
X0106625Y0034569D01*
X0106625Y0032970D02*
X0107375Y0032970D01*
X0107375Y0031372D02*
X0106625Y0031372D01*
X0106625Y0029773D02*
X0107375Y0029773D01*
X0107375Y0037766D02*
X0106625Y0037766D01*
X0125927Y0031372D02*
X0146073Y0031372D01*
X0161616Y0055349D02*
X0161984Y0055349D01*
X0161984Y0056948D02*
X0161616Y0056948D01*
X0161616Y0058546D02*
X0161984Y0058546D01*
X0150288Y0061743D02*
X0149424Y0061743D01*
X0149765Y0060145D02*
X0150035Y0060145D01*
X0149765Y0063342D02*
X0150435Y0063342D01*
X0150477Y0068137D02*
X0149723Y0068137D01*
X0171960Y0079327D02*
X0176687Y0079327D01*
X0175516Y0077729D02*
X0173558Y0077729D01*
X0175157Y0076130D02*
X0175319Y0076130D01*
X0180513Y0079327D02*
X0180867Y0079327D01*
X0187133Y0079327D02*
X0190000Y0079327D01*
X0190000Y0080926D02*
X0171500Y0080926D01*
X0171500Y0082524D02*
X0190000Y0082524D01*
X0190000Y0084123D02*
X0171500Y0084123D01*
X0171500Y0085721D02*
X0190000Y0085721D01*
X0189838Y0087320D02*
X0189469Y0087320D01*
X0189469Y0088918D02*
X0189838Y0088918D01*
X0189838Y0090517D02*
X0189469Y0090517D01*
X0189469Y0091184D02*
X0185688Y0091184D01*
X0185688Y0093205D01*
X0185811Y0093663D01*
X0186048Y0094074D01*
X0186383Y0094409D01*
X0186793Y0094646D01*
X0187251Y0094768D01*
X0189469Y0094768D01*
X0189469Y0091184D01*
X0189469Y0092115D02*
X0189838Y0092115D01*
X0189838Y0093714D02*
X0189469Y0093714D01*
X0190000Y0095312D02*
X0171098Y0095312D01*
X0171186Y0093714D02*
X0185840Y0093714D01*
X0185688Y0092115D02*
X0171186Y0092115D01*
X0171500Y0090517D02*
X0185688Y0090517D01*
X0185688Y0088918D02*
X0171500Y0088918D01*
X0171500Y0087320D02*
X0186922Y0087320D01*
X0190000Y0096911D02*
X0172798Y0096911D01*
X0174396Y0098509D02*
X0190000Y0098509D01*
X0190000Y0100108D02*
X0175995Y0100108D01*
X0177593Y0101706D02*
X0190000Y0101706D01*
X0190000Y0103305D02*
X0178963Y0103305D01*
X0178963Y0104903D02*
X0190000Y0104903D01*
X0190000Y0106502D02*
X0178963Y0106502D01*
X0178963Y0108100D02*
X0190000Y0108100D01*
X0190000Y0109699D02*
X0179628Y0109699D01*
X0180235Y0111297D02*
X0190000Y0111297D01*
X0190000Y0112896D02*
X0180235Y0112896D01*
X0180235Y0114494D02*
X0182159Y0114494D01*
X0177063Y0117691D02*
X0177063Y0117691D01*
X0177063Y0119290D02*
X0177063Y0119290D01*
X0177063Y0120888D02*
X0177063Y0120888D01*
X0177063Y0122487D02*
X0177063Y0122487D01*
X0171479Y0128881D02*
X0168500Y0128881D01*
X0168500Y0130479D02*
X0170547Y0130479D01*
X0170612Y0132078D02*
X0168500Y0132078D01*
X0168500Y0133676D02*
X0171636Y0133676D01*
X0168500Y0135275D02*
X0179041Y0135275D01*
X0177443Y0133676D02*
X0175964Y0133676D01*
X0180640Y0136873D02*
X0168500Y0136873D01*
X0168500Y0138472D02*
X0182239Y0138472D01*
X0180584Y0140070D02*
X0180216Y0140070D01*
X0180216Y0141669D02*
X0180584Y0141669D01*
X0180216Y0142669D02*
X0173384Y0142669D01*
X0173384Y0143038D01*
X0176968Y0143038D01*
X0180216Y0143038D01*
X0180216Y0142669D01*
X0184168Y0141669D02*
X0185436Y0141669D01*
X0173384Y0141669D02*
X0173016Y0141669D01*
X0173016Y0142669D02*
X0173016Y0138888D01*
X0170995Y0138888D01*
X0170537Y0139011D01*
X0170126Y0139248D01*
X0169791Y0139583D01*
X0169554Y0139993D01*
X0169431Y0140451D01*
X0169431Y0142669D01*
X0173016Y0142669D01*
X0173016Y0140070D02*
X0173384Y0140070D01*
X0169534Y0140070D02*
X0168500Y0140070D01*
X0168500Y0141669D02*
X0169431Y0141669D01*
X0157784Y0141669D02*
X0157416Y0141669D01*
X0157416Y0142669D02*
X0151184Y0142669D01*
X0151184Y0143038D01*
X0154768Y0143038D01*
X0157416Y0143038D01*
X0157416Y0142669D01*
X0157416Y0140070D02*
X0157784Y0140070D01*
X0151184Y0140070D02*
X0150816Y0140070D01*
X0150816Y0141669D02*
X0151184Y0141669D01*
X0152100Y0122487D02*
X0145491Y0122487D01*
X0144738Y0120888D02*
X0152100Y0120888D01*
X0152100Y0119290D02*
X0143071Y0119290D01*
X0171186Y0114494D02*
X0173891Y0114494D01*
X0173891Y0112896D02*
X0171186Y0112896D01*
X0171186Y0111297D02*
X0173891Y0111297D01*
X0208600Y0140300D02*
X0208600Y0197700D01*
X0270400Y0197700D01*
X0270400Y0160460D01*
X0270283Y0160663D01*
X0269948Y0160998D01*
X0269537Y0161235D01*
X0269079Y0161357D01*
X0259800Y0161357D01*
X0259800Y0150515D01*
X0258200Y0150515D01*
X0258200Y0161357D01*
X0248920Y0161357D01*
X0248463Y0161235D01*
X0248052Y0160998D01*
X0247717Y0160663D01*
X0247480Y0160252D01*
X0247357Y0159794D01*
X0247357Y0150515D01*
X0258200Y0150515D01*
X0258200Y0148915D01*
X0247357Y0148915D01*
X0247357Y0140300D01*
X0208600Y0140300D01*
X0208600Y0141669D02*
X0247357Y0141669D01*
X0247357Y0143268D02*
X0208600Y0143268D01*
X0208600Y0144866D02*
X0247357Y0144866D01*
X0247357Y0146465D02*
X0208600Y0146465D01*
X0208600Y0148063D02*
X0247357Y0148063D01*
X0247357Y0151260D02*
X0208600Y0151260D01*
X0208600Y0149662D02*
X0258200Y0149662D01*
X0258200Y0151260D02*
X0259800Y0151260D01*
X0259800Y0152859D02*
X0258200Y0152859D01*
X0258200Y0154457D02*
X0259800Y0154457D01*
X0259800Y0156056D02*
X0258200Y0156056D01*
X0258200Y0157654D02*
X0259800Y0157654D01*
X0259800Y0159253D02*
X0258200Y0159253D01*
X0258200Y0160851D02*
X0259800Y0160851D01*
X0258227Y0168533D02*
X0259557Y0168797D01*
X0260855Y0169191D01*
X0262107Y0169710D01*
X0263303Y0170349D01*
X0264431Y0171102D01*
X0265479Y0171963D01*
X0266437Y0172921D01*
X0267298Y0173969D01*
X0268051Y0175097D01*
X0268690Y0176293D01*
X0269209Y0177545D01*
X0269603Y0178843D01*
X0269867Y0180173D01*
X0269988Y0181400D01*
X0257000Y0181400D01*
X0257000Y0183000D01*
X0269988Y0183000D01*
X0269867Y0184227D01*
X0269603Y0185557D01*
X0269209Y0186855D01*
X0268690Y0188107D01*
X0268051Y0189303D01*
X0267298Y0190431D01*
X0266437Y0191479D01*
X0265479Y0192437D01*
X0264431Y0193298D01*
X0263303Y0194051D01*
X0262107Y0194690D01*
X0260855Y0195209D01*
X0259557Y0195603D01*
X0258227Y0195867D01*
X0257000Y0195988D01*
X0257000Y0183000D01*
X0255400Y0183000D01*
X0255400Y0195988D01*
X0254173Y0195867D01*
X0252843Y0195603D01*
X0251545Y0195209D01*
X0250293Y0194690D01*
X0249097Y0194051D01*
X0247969Y0193298D01*
X0246921Y0192437D01*
X0245963Y0191479D01*
X0245102Y0190431D01*
X0244349Y0189303D01*
X0243710Y0188107D01*
X0243191Y0186855D01*
X0242797Y0185557D01*
X0242533Y0184227D01*
X0242412Y0183000D01*
X0255400Y0183000D01*
X0255400Y0181400D01*
X0257000Y0181400D01*
X0257000Y0168412D01*
X0258227Y0168533D01*
X0257000Y0168844D02*
X0255400Y0168844D01*
X0255400Y0168412D02*
X0255400Y0181400D01*
X0242412Y0181400D01*
X0242533Y0180173D01*
X0242797Y0178843D01*
X0243191Y0177545D01*
X0243710Y0176293D01*
X0244349Y0175097D01*
X0245102Y0173969D01*
X0245963Y0172921D01*
X0246921Y0171963D01*
X0247969Y0171102D01*
X0249097Y0170349D01*
X0250293Y0169710D01*
X0251545Y0169191D01*
X0252843Y0168797D01*
X0254173Y0168533D01*
X0255400Y0168412D01*
X0255400Y0170442D02*
X0257000Y0170442D01*
X0257000Y0172041D02*
X0255400Y0172041D01*
X0255400Y0173639D02*
X0257000Y0173639D01*
X0257000Y0175238D02*
X0255400Y0175238D01*
X0255400Y0176836D02*
X0257000Y0176836D01*
X0257000Y0178435D02*
X0255400Y0178435D01*
X0255400Y0180033D02*
X0257000Y0180033D01*
X0257000Y0181632D02*
X0270400Y0181632D01*
X0270400Y0183230D02*
X0269965Y0183230D01*
X0269747Y0184829D02*
X0270400Y0184829D01*
X0270400Y0186427D02*
X0269339Y0186427D01*
X0268724Y0188026D02*
X0270400Y0188026D01*
X0270400Y0189624D02*
X0267836Y0189624D01*
X0266647Y0191223D02*
X0270400Y0191223D01*
X0270400Y0192821D02*
X0265011Y0192821D01*
X0262613Y0194420D02*
X0270400Y0194420D01*
X0270400Y0196018D02*
X0208600Y0196018D01*
X0208600Y0194420D02*
X0222565Y0194420D01*
X0223028Y0194687D02*
X0219972Y0192923D01*
X0217477Y0190428D01*
X0215713Y0187372D01*
X0214800Y0183964D01*
X0214800Y0180436D01*
X0215713Y0177028D01*
X0217477Y0173972D01*
X0219972Y0171477D01*
X0223028Y0169713D01*
X0226436Y0168800D01*
X0229964Y0168800D01*
X0233372Y0169713D01*
X0236428Y0171477D01*
X0238923Y0173972D01*
X0240687Y0177028D01*
X0241600Y0180436D01*
X0241600Y0183964D01*
X0240687Y0187372D01*
X0238923Y0190428D01*
X0236428Y0192923D01*
X0233372Y0194687D01*
X0229964Y0195600D01*
X0226436Y0195600D01*
X0223028Y0194687D01*
X0219871Y0192821D02*
X0208600Y0192821D01*
X0208600Y0191223D02*
X0218272Y0191223D01*
X0217013Y0189624D02*
X0208600Y0189624D01*
X0208600Y0188026D02*
X0216091Y0188026D01*
X0215460Y0186427D02*
X0208600Y0186427D01*
X0208600Y0184829D02*
X0215032Y0184829D01*
X0214800Y0183230D02*
X0208600Y0183230D01*
X0208600Y0181632D02*
X0214800Y0181632D01*
X0214908Y0180033D02*
X0208600Y0180033D01*
X0208600Y0178435D02*
X0215336Y0178435D01*
X0215824Y0176836D02*
X0208600Y0176836D01*
X0208600Y0175238D02*
X0216747Y0175238D01*
X0217810Y0173639D02*
X0208600Y0173639D01*
X0208600Y0172041D02*
X0219409Y0172041D01*
X0221765Y0170442D02*
X0208600Y0170442D01*
X0208600Y0168844D02*
X0226273Y0168844D01*
X0230127Y0168844D02*
X0252690Y0168844D01*
X0248957Y0170442D02*
X0234635Y0170442D01*
X0236991Y0172041D02*
X0246843Y0172041D01*
X0245373Y0173639D02*
X0238590Y0173639D01*
X0239653Y0175238D02*
X0244274Y0175238D01*
X0243485Y0176836D02*
X0240576Y0176836D01*
X0241064Y0178435D02*
X0242921Y0178435D01*
X0242561Y0180033D02*
X0241492Y0180033D01*
X0241600Y0181632D02*
X0255400Y0181632D01*
X0255400Y0183230D02*
X0257000Y0183230D01*
X0257000Y0184829D02*
X0255400Y0184829D01*
X0255400Y0186427D02*
X0257000Y0186427D01*
X0257000Y0188026D02*
X0255400Y0188026D01*
X0255400Y0189624D02*
X0257000Y0189624D01*
X0257000Y0191223D02*
X0255400Y0191223D01*
X0255400Y0192821D02*
X0257000Y0192821D01*
X0257000Y0194420D02*
X0255400Y0194420D01*
X0249787Y0194420D02*
X0233835Y0194420D01*
X0236529Y0192821D02*
X0247389Y0192821D01*
X0245753Y0191223D02*
X0238128Y0191223D01*
X0239387Y0189624D02*
X0244564Y0189624D01*
X0243676Y0188026D02*
X0240309Y0188026D01*
X0240940Y0186427D02*
X0243061Y0186427D01*
X0242653Y0184829D02*
X0241368Y0184829D01*
X0241600Y0183230D02*
X0242435Y0183230D01*
X0259710Y0168844D02*
X0270400Y0168844D01*
X0270400Y0170442D02*
X0263443Y0170442D01*
X0265557Y0172041D02*
X0270400Y0172041D01*
X0270400Y0173639D02*
X0267027Y0173639D01*
X0268126Y0175238D02*
X0270400Y0175238D01*
X0270400Y0176836D02*
X0268915Y0176836D01*
X0269479Y0178435D02*
X0270400Y0178435D01*
X0270400Y0180033D02*
X0269839Y0180033D01*
X0270400Y0167245D02*
X0208600Y0167245D01*
X0208600Y0165647D02*
X0270400Y0165647D01*
X0270400Y0164048D02*
X0208600Y0164048D01*
X0208600Y0162450D02*
X0270400Y0162450D01*
X0270400Y0160851D02*
X0270094Y0160851D01*
X0247906Y0160851D02*
X0208600Y0160851D01*
X0208600Y0159253D02*
X0247357Y0159253D01*
X0247357Y0157654D02*
X0208600Y0157654D01*
X0208600Y0156056D02*
X0247357Y0156056D01*
X0247357Y0154457D02*
X0208600Y0154457D01*
X0208600Y0152859D02*
X0247357Y0152859D01*
X0248322Y0135400D02*
X0242200Y0135400D01*
X0242200Y0102400D01*
X0247357Y0102400D01*
X0247357Y0110515D01*
X0258200Y0110515D01*
X0258200Y0112115D01*
X0258200Y0122957D01*
X0248920Y0122957D01*
X0248463Y0122835D01*
X0248052Y0122598D01*
X0247717Y0122263D01*
X0247480Y0121852D01*
X0247357Y0121394D01*
X0247357Y0112115D01*
X0258200Y0112115D01*
X0259800Y0112115D01*
X0259800Y0122957D01*
X0269079Y0122957D01*
X0269537Y0122835D01*
X0269800Y0122683D01*
X0269800Y0124000D01*
X0262000Y0124000D01*
X0262000Y0129411D01*
X0261500Y0129411D01*
X0261500Y0133967D01*
X0261500Y0133967D01*
X0256500Y0133967D01*
X0256500Y0133967D01*
X0256500Y0133967D01*
X0251500Y0133967D01*
X0251500Y0133967D01*
X0251500Y0133967D01*
X0248322Y0133967D01*
X0248322Y0135400D01*
X0248322Y0135275D02*
X0242200Y0135275D01*
X0242200Y0133676D02*
X0248322Y0133676D01*
X0248322Y0133967D02*
X0248322Y0130974D01*
X0248445Y0130516D01*
X0248682Y0130106D01*
X0249017Y0129771D01*
X0249427Y0129534D01*
X0249885Y0129411D01*
X0251500Y0129411D01*
X0253115Y0129411D01*
X0253573Y0129534D01*
X0253983Y0129771D01*
X0254000Y0129787D01*
X0254017Y0129771D01*
X0254427Y0129534D01*
X0254885Y0129411D01*
X0256500Y0129411D01*
X0258115Y0129411D01*
X0258573Y0129534D01*
X0258983Y0129771D01*
X0259000Y0129787D01*
X0259017Y0129771D01*
X0259427Y0129534D01*
X0259885Y0129411D01*
X0261500Y0129411D01*
X0261500Y0133967D01*
X0258322Y0133967D01*
X0256500Y0133967D01*
X0253322Y0133967D01*
X0251500Y0133967D01*
X0248322Y0133967D01*
X0248322Y0132078D02*
X0242200Y0132078D01*
X0242200Y0130479D02*
X0248466Y0130479D01*
X0251500Y0130479D02*
X0251500Y0130479D01*
X0251500Y0129411D02*
X0251500Y0133967D01*
X0251500Y0133967D01*
X0251500Y0129411D01*
X0251500Y0132078D02*
X0251500Y0132078D01*
X0251500Y0133676D02*
X0251500Y0133676D01*
X0256500Y0133676D02*
X0256500Y0133676D01*
X0256500Y0133967D02*
X0256500Y0129411D01*
X0256500Y0133967D01*
X0256500Y0133967D01*
X0256500Y0132078D02*
X0256500Y0132078D01*
X0256500Y0130479D02*
X0256500Y0130479D01*
X0261500Y0130479D02*
X0261500Y0130479D01*
X0261500Y0132078D02*
X0261500Y0132078D01*
X0261500Y0133676D02*
X0261500Y0133676D01*
X0261500Y0133967D02*
X0261500Y0133967D01*
X0262000Y0128881D02*
X0242200Y0128881D01*
X0242200Y0127282D02*
X0262000Y0127282D01*
X0262000Y0125684D02*
X0242200Y0125684D01*
X0242200Y0124085D02*
X0262000Y0124085D01*
X0259800Y0122487D02*
X0258200Y0122487D01*
X0258200Y0120888D02*
X0259800Y0120888D01*
X0259800Y0119290D02*
X0258200Y0119290D01*
X0258200Y0117691D02*
X0259800Y0117691D01*
X0259800Y0116093D02*
X0258200Y0116093D01*
X0258200Y0114494D02*
X0259800Y0114494D01*
X0259800Y0112896D02*
X0258200Y0112896D01*
X0258200Y0111297D02*
X0242200Y0111297D01*
X0242200Y0109699D02*
X0247357Y0109699D01*
X0247357Y0108100D02*
X0242200Y0108100D01*
X0242200Y0106502D02*
X0247357Y0106502D01*
X0247357Y0104903D02*
X0242200Y0104903D01*
X0242200Y0103305D02*
X0247357Y0103305D01*
X0247357Y0112896D02*
X0242200Y0112896D01*
X0242200Y0114494D02*
X0247357Y0114494D01*
X0247357Y0116093D02*
X0242200Y0116093D01*
X0242200Y0117691D02*
X0247357Y0117691D01*
X0247357Y0119290D02*
X0242200Y0119290D01*
X0242200Y0120888D02*
X0247357Y0120888D01*
X0247941Y0122487D02*
X0242200Y0122487D01*
X0176384Y0058546D02*
X0176016Y0058546D01*
X0176016Y0056948D02*
X0176384Y0056948D01*
X0075131Y0020182D02*
X0004842Y0020182D01*
X0004847Y0018584D02*
X0074166Y0018584D01*
X0072749Y0016985D02*
X0004852Y0016985D01*
X0004857Y0015387D02*
X0072100Y0015387D01*
X0072100Y0013788D02*
X0004862Y0013788D01*
X0004866Y0012190D02*
X0072597Y0012190D01*
X0073801Y0010591D02*
X0004871Y0010591D01*
X0004838Y0021781D02*
X0073532Y0021781D01*
X0071934Y0023379D02*
X0004833Y0023379D01*
X0004828Y0024978D02*
X0070335Y0024978D01*
X0068737Y0026576D02*
X0004823Y0026576D01*
X0155220Y0188026D02*
X0156320Y0188026D01*
X0157920Y0189624D02*
X0153620Y0189624D01*
X0163462Y0189624D02*
X0167763Y0189624D01*
X0166163Y0188026D02*
X0165063Y0188026D01*
X0173305Y0189624D02*
X0177605Y0189624D01*
X0176005Y0188026D02*
X0174905Y0188026D01*
X0208600Y0197617D02*
X0270400Y0197617D01*
M02*
