G75*
%MOIN*%
%OFA0B0*%
%FSLAX25Y25*%
%IPPOS*%
%LPD*%
%AMOC8*
5,1,8,0,0,1.08239X$1,22.5*
%
%ADD10C,0.08400*%
%ADD11C,0.10000*%
%ADD12C,0.08000*%
%ADD13C,0.25000*%
%ADD14C,0.05943*%
%ADD15C,0.13500*%
%ADD16OC8,0.07100*%
%ADD17C,0.04762*%
D10*
X0077200Y0014405D03*
X0077200Y0039995D03*
X0164000Y0010000D03*
X0174000Y0010000D03*
X0187400Y0009600D03*
X0197400Y0009600D03*
X0140200Y0124000D03*
X0140200Y0134000D03*
X0140200Y0144000D03*
X0140200Y0154000D03*
X0150849Y0185252D03*
X0160691Y0185252D03*
X0170534Y0185252D03*
X0180376Y0185252D03*
D11*
X0127800Y0184000D03*
X0127800Y0174000D03*
X0127800Y0164000D03*
X0127800Y0154000D03*
X0127800Y0144000D03*
X0127800Y0134000D03*
X0127800Y0124000D03*
X0127800Y0114000D03*
X0127800Y0104000D03*
X0127800Y0094000D03*
X0127800Y0084000D03*
X0127800Y0074000D03*
X0067800Y0074000D03*
X0067800Y0084000D03*
X0067800Y0094000D03*
X0067800Y0104000D03*
X0067800Y0114000D03*
X0067800Y0124000D03*
X0067800Y0134000D03*
X0067800Y0144000D03*
X0067800Y0154000D03*
X0067800Y0164000D03*
X0067800Y0174000D03*
X0067800Y0184000D03*
D12*
X0047600Y0155800D03*
X0047600Y0145800D03*
X0047600Y0135800D03*
X0047600Y0125800D03*
X0047600Y0115800D03*
X0047600Y0105800D03*
X0047600Y0095800D03*
X0047600Y0085800D03*
X0007600Y0085800D03*
X0007600Y0095800D03*
X0007600Y0105800D03*
X0007600Y0115800D03*
X0007600Y0125800D03*
X0007600Y0135800D03*
X0007600Y0145800D03*
X0007600Y0155800D03*
D13*
X0228200Y0182200D03*
X0256200Y0182200D03*
D14*
X0147811Y0034843D03*
X0147811Y0015157D03*
X0124189Y0015157D03*
X0124189Y0034843D03*
D15*
X0227300Y0019000D03*
X0258300Y0019000D03*
D16*
X0224200Y0049400D03*
X0224200Y0119400D03*
D17*
X0173800Y0131200D03*
X0172600Y0107200D03*
X0169600Y0102400D03*
X0156400Y0107200D03*
X0145600Y0085000D03*
X0152800Y0077800D03*
X0151600Y0073000D03*
X0178600Y0076600D03*
X0183400Y0059800D03*
X0184000Y0037600D03*
X0106000Y0157000D03*
M02*
