%
M48
M72
T01C0.0236
T02C0.0315
T03C0.0354
T04C0.0394
T05C0.0400
T06C0.0470
T07C0.0700
T08C0.1800
%
T01
X14560Y8500
X15280Y7780
X15160Y7300
X17860Y7660
X18340Y5980
X18400Y3760
X16960Y10240
X17260Y10720
X15640Y10720
X17380Y13120
X10600Y15700
T02
X4760Y15580
X4760Y14580
X4760Y13580
X4760Y12580
X4760Y11580
X4760Y10580
X4760Y9580
X4760Y8580
X760Y8580
X760Y9580
X760Y10580
X760Y11580
X760Y12580
X760Y13580
X760Y14580
X760Y15580
T03
X12419Y3484
X12419Y1516
X14781Y1516
X14781Y3484
T04
X12780Y7400
X12780Y8400
X12780Y9400
X12780Y10400
X12780Y11400
X12780Y12400
X12780Y13400
X12780Y14400
X12780Y15400
X12780Y16400
X12780Y17400
X12780Y18400
X6780Y18400
X6780Y17400
X6780Y16400
X6780Y15400
X6780Y14400
X6780Y13400
X6780Y12400
X6780Y11400
X6780Y10400
X6780Y9400
X6780Y8400
X6780Y7400
T05
X7720Y1440
X7720Y4000
X16400Y1000
X17400Y1000
X18740Y960
X19740Y960
X14020Y12400
X14020Y13400
X14020Y14400
X14020Y15400
X15085Y18525
X16069Y18525
X17053Y18525
X18038Y18525
T06
X22420Y11940
X22420Y4940
T07
X22730Y1900
X25830Y1900
T08
X25620Y18220
X22820Y18220
M30
