G04 EAGLE Gerber RS-274X export*
G75*
%MOMM*%
%FSLAX34Y34*%
%LPD*%
%IN*%
%IPPOS*%
%AMOC8*
5,1,8,0,0,1.08239X$1,22.5*%
G01*
%ADD10C,0.254000*%


D10*
X0Y0D02*
X670000Y0D01*
X670000Y720000D01*
X0Y720000D01*
X0Y0D01*
X100540Y316510D02*
X101619Y316439D01*
X102691Y316298D01*
X103751Y316087D01*
X104795Y315808D01*
X105819Y315460D01*
X106817Y315046D01*
X107787Y314568D01*
X108723Y314028D01*
X109622Y313427D01*
X110479Y312769D01*
X111292Y312057D01*
X112057Y311292D01*
X112769Y310479D01*
X113427Y309622D01*
X114028Y308723D01*
X114568Y307787D01*
X115046Y306817D01*
X115460Y305819D01*
X115808Y304795D01*
X116087Y303751D01*
X116298Y302691D01*
X116439Y301619D01*
X116510Y300540D01*
X116510Y299460D01*
X116439Y298381D01*
X116298Y297309D01*
X116087Y296249D01*
X115808Y295205D01*
X115460Y294181D01*
X115046Y293183D01*
X114568Y292213D01*
X114028Y291277D01*
X113427Y290378D01*
X112769Y289521D01*
X112057Y288708D01*
X111292Y287944D01*
X110479Y287231D01*
X109622Y286573D01*
X108723Y285972D01*
X107787Y285432D01*
X106817Y284954D01*
X105819Y284540D01*
X104795Y284192D01*
X103751Y283913D01*
X102691Y283702D01*
X101619Y283561D01*
X100540Y283490D01*
X99460Y283490D01*
X98381Y283561D01*
X97309Y283702D01*
X96249Y283913D01*
X95205Y284192D01*
X94181Y284540D01*
X93183Y284954D01*
X92213Y285432D01*
X91277Y285972D01*
X90378Y286573D01*
X89521Y287231D01*
X88708Y287944D01*
X87944Y288708D01*
X87231Y289521D01*
X86573Y290378D01*
X85972Y291277D01*
X85432Y292213D01*
X84954Y293183D01*
X84540Y294181D01*
X84192Y295205D01*
X83913Y296249D01*
X83702Y297309D01*
X83561Y298381D01*
X83490Y299460D01*
X83490Y300540D01*
X83561Y301619D01*
X83702Y302691D01*
X83913Y303751D01*
X84192Y304795D01*
X84540Y305819D01*
X84954Y306817D01*
X85432Y307787D01*
X85972Y308723D01*
X86573Y309622D01*
X87231Y310479D01*
X87944Y311292D01*
X88708Y312057D01*
X89521Y312769D01*
X90378Y313427D01*
X91277Y314028D01*
X92213Y314568D01*
X93183Y315046D01*
X94181Y315460D01*
X95205Y315808D01*
X96249Y316087D01*
X97309Y316298D01*
X98381Y316439D01*
X99460Y316510D01*
X100540Y316510D01*
X626510Y59460D02*
X626439Y58381D01*
X626298Y57309D01*
X626087Y56249D01*
X625808Y55205D01*
X625460Y54181D01*
X625046Y53183D01*
X624568Y52213D01*
X624028Y51277D01*
X623427Y50378D01*
X622769Y49521D01*
X622057Y48708D01*
X621292Y47944D01*
X620479Y47231D01*
X619622Y46573D01*
X618723Y45972D01*
X617787Y45432D01*
X616817Y44954D01*
X615819Y44540D01*
X614795Y44192D01*
X613751Y43913D01*
X612691Y43702D01*
X611619Y43561D01*
X610540Y43490D01*
X609460Y43490D01*
X608381Y43561D01*
X607309Y43702D01*
X606249Y43913D01*
X605205Y44192D01*
X604181Y44540D01*
X603183Y44954D01*
X602213Y45432D01*
X601277Y45972D01*
X600378Y46573D01*
X599521Y47231D01*
X598708Y47944D01*
X597944Y48708D01*
X597231Y49521D01*
X596573Y50378D01*
X595972Y51277D01*
X595432Y52213D01*
X594954Y53183D01*
X594540Y54181D01*
X594192Y55205D01*
X593913Y56249D01*
X593702Y57309D01*
X593561Y58381D01*
X593490Y59460D01*
X593490Y60540D01*
X593561Y61619D01*
X593702Y62691D01*
X593913Y63751D01*
X594192Y64795D01*
X594540Y65819D01*
X594954Y66817D01*
X595432Y67787D01*
X595972Y68723D01*
X596573Y69622D01*
X597231Y70479D01*
X597944Y71292D01*
X598708Y72057D01*
X599521Y72769D01*
X600378Y73427D01*
X601277Y74028D01*
X602213Y74568D01*
X603183Y75046D01*
X604181Y75460D01*
X605205Y75808D01*
X606249Y76087D01*
X607309Y76298D01*
X608381Y76439D01*
X609460Y76510D01*
X610540Y76510D01*
X611619Y76439D01*
X612691Y76298D01*
X613751Y76087D01*
X614795Y75808D01*
X615819Y75460D01*
X616817Y75046D01*
X617787Y74568D01*
X618723Y74028D01*
X619622Y73427D01*
X620479Y72769D01*
X621292Y72057D01*
X622057Y71292D01*
X622769Y70479D01*
X623427Y69622D01*
X624028Y68723D01*
X624568Y67787D01*
X625046Y66817D01*
X625460Y65819D01*
X625808Y64795D01*
X626087Y63751D01*
X626298Y62691D01*
X626439Y61619D01*
X626510Y60540D01*
X626510Y59460D01*
X226510Y669460D02*
X226439Y668381D01*
X226298Y667309D01*
X226087Y666249D01*
X225808Y665205D01*
X225460Y664181D01*
X225046Y663183D01*
X224568Y662213D01*
X224028Y661277D01*
X223427Y660378D01*
X222769Y659521D01*
X222057Y658708D01*
X221292Y657944D01*
X220479Y657231D01*
X219622Y656573D01*
X218723Y655972D01*
X217787Y655432D01*
X216817Y654954D01*
X215819Y654540D01*
X214795Y654192D01*
X213751Y653913D01*
X212691Y653702D01*
X211619Y653561D01*
X210540Y653490D01*
X209460Y653490D01*
X208381Y653561D01*
X207309Y653702D01*
X206249Y653913D01*
X205205Y654192D01*
X204181Y654540D01*
X203183Y654954D01*
X202213Y655432D01*
X201277Y655972D01*
X200378Y656573D01*
X199521Y657231D01*
X198708Y657944D01*
X197944Y658708D01*
X197231Y659521D01*
X196573Y660378D01*
X195972Y661277D01*
X195432Y662213D01*
X194954Y663183D01*
X194540Y664181D01*
X194192Y665205D01*
X193913Y666249D01*
X193702Y667309D01*
X193561Y668381D01*
X193490Y669460D01*
X193490Y670540D01*
X193561Y671619D01*
X193702Y672691D01*
X193913Y673751D01*
X194192Y674795D01*
X194540Y675819D01*
X194954Y676817D01*
X195432Y677787D01*
X195972Y678723D01*
X196573Y679622D01*
X197231Y680479D01*
X197944Y681292D01*
X198708Y682057D01*
X199521Y682769D01*
X200378Y683427D01*
X201277Y684028D01*
X202213Y684568D01*
X203183Y685046D01*
X204181Y685460D01*
X205205Y685808D01*
X206249Y686087D01*
X207309Y686298D01*
X208381Y686439D01*
X209460Y686510D01*
X210540Y686510D01*
X211619Y686439D01*
X212691Y686298D01*
X213751Y686087D01*
X214795Y685808D01*
X215819Y685460D01*
X216817Y685046D01*
X217787Y684568D01*
X218723Y684028D01*
X219622Y683427D01*
X220479Y682769D01*
X221292Y682057D01*
X222057Y681292D01*
X222769Y680479D01*
X223427Y679622D01*
X224028Y678723D01*
X224568Y677787D01*
X225046Y676817D01*
X225460Y675819D01*
X225808Y674795D01*
X226087Y673751D01*
X226298Y672691D01*
X226439Y671619D01*
X226510Y670540D01*
X226510Y669460D01*
M02*
