G04 EAGLE Gerber RS-274X export*
G75*
%MOMM*%
%FSLAX34Y34*%
%LPD*%
%INSolderpaste Top*%
%IPPOS*%
%AMOC8*
5,1,8,0,0,1.08239X$1,22.5*%
G01*
%ADD10R,0.846000X0.746000*%
%ADD11R,1.051597X1.545997*%
%ADD12R,1.955800X0.254000*%
%ADD13R,0.746000X0.846000*%
%ADD14R,0.400000X0.600000*%
%ADD15R,0.350000X0.600000*%
%ADD16R,0.647600X0.147600*%
%ADD17R,0.147600X0.647600*%
%ADD18R,0.446000X0.646000*%
%ADD19R,0.646000X0.446000*%
%ADD20R,2.746000X0.746000*%
%ADD21R,0.990600X1.143000*%
%ADD22R,1.651000X2.286000*%

G36*
X508602Y194690D02*
X508602Y194690D01*
X508604Y194689D01*
X508647Y194709D01*
X508691Y194727D01*
X508691Y194730D01*
X508693Y194730D01*
X508726Y194815D01*
X508726Y199272D01*
X508725Y199275D01*
X508726Y199278D01*
X508689Y199361D01*
X507275Y200775D01*
X507272Y200777D01*
X507271Y200779D01*
X507186Y200812D01*
X504140Y200812D01*
X504137Y200811D01*
X504134Y200812D01*
X504051Y200775D01*
X502637Y199361D01*
X502636Y199358D01*
X502633Y199357D01*
X502600Y199272D01*
X502600Y194815D01*
X502601Y194813D01*
X502600Y194811D01*
X502620Y194768D01*
X502638Y194725D01*
X502640Y194724D01*
X502641Y194722D01*
X502726Y194689D01*
X508600Y194689D01*
X508602Y194690D01*
G37*
G36*
X516476Y194690D02*
X516476Y194690D01*
X516478Y194689D01*
X516521Y194709D01*
X516565Y194727D01*
X516565Y194730D01*
X516567Y194730D01*
X516600Y194815D01*
X516600Y199272D01*
X516599Y199275D01*
X516600Y199278D01*
X516563Y199361D01*
X515149Y200775D01*
X515146Y200777D01*
X515145Y200779D01*
X515060Y200812D01*
X512014Y200812D01*
X512011Y200811D01*
X512008Y200812D01*
X511925Y200775D01*
X510511Y199361D01*
X510510Y199358D01*
X510507Y199357D01*
X510474Y199272D01*
X510474Y194815D01*
X510475Y194813D01*
X510474Y194811D01*
X510494Y194768D01*
X510512Y194725D01*
X510514Y194724D01*
X510515Y194722D01*
X510600Y194689D01*
X516474Y194689D01*
X516476Y194690D01*
G37*
G36*
X512523Y458339D02*
X512523Y458339D01*
X512526Y458338D01*
X512609Y458375D01*
X514023Y459789D01*
X514025Y459792D01*
X514027Y459793D01*
X514060Y459878D01*
X514060Y464335D01*
X514059Y464337D01*
X514060Y464339D01*
X514040Y464382D01*
X514022Y464425D01*
X514020Y464426D01*
X514019Y464428D01*
X513934Y464461D01*
X508060Y464461D01*
X508058Y464460D01*
X508056Y464461D01*
X508013Y464441D01*
X507969Y464423D01*
X507969Y464421D01*
X507967Y464420D01*
X507934Y464335D01*
X507934Y459878D01*
X507935Y459875D01*
X507934Y459872D01*
X507971Y459789D01*
X509385Y458375D01*
X509388Y458374D01*
X509389Y458371D01*
X509474Y458338D01*
X512520Y458338D01*
X512523Y458339D01*
G37*
G36*
X504649Y458339D02*
X504649Y458339D01*
X504652Y458338D01*
X504735Y458375D01*
X506149Y459789D01*
X506151Y459792D01*
X506153Y459793D01*
X506186Y459878D01*
X506186Y464335D01*
X506185Y464337D01*
X506186Y464339D01*
X506166Y464382D01*
X506148Y464425D01*
X506146Y464426D01*
X506145Y464428D01*
X506060Y464461D01*
X500186Y464461D01*
X500184Y464460D01*
X500182Y464461D01*
X500139Y464441D01*
X500095Y464423D01*
X500095Y464421D01*
X500093Y464420D01*
X500060Y464335D01*
X500060Y459878D01*
X500061Y459875D01*
X500060Y459872D01*
X500097Y459789D01*
X501511Y458375D01*
X501514Y458374D01*
X501515Y458371D01*
X501600Y458338D01*
X504646Y458338D01*
X504649Y458339D01*
G37*
G36*
X506062Y434720D02*
X506062Y434720D01*
X506064Y434719D01*
X506107Y434739D01*
X506151Y434757D01*
X506151Y434760D01*
X506153Y434760D01*
X506186Y434845D01*
X506186Y439302D01*
X506185Y439305D01*
X506186Y439308D01*
X506149Y439391D01*
X504735Y440805D01*
X504732Y440807D01*
X504731Y440809D01*
X504646Y440842D01*
X501600Y440842D01*
X501597Y440841D01*
X501594Y440842D01*
X501511Y440805D01*
X500097Y439391D01*
X500096Y439388D01*
X500093Y439387D01*
X500060Y439302D01*
X500060Y434845D01*
X500061Y434843D01*
X500060Y434841D01*
X500080Y434798D01*
X500098Y434755D01*
X500100Y434754D01*
X500101Y434752D01*
X500186Y434719D01*
X506060Y434719D01*
X506062Y434720D01*
G37*
G36*
X507189Y218309D02*
X507189Y218309D01*
X507192Y218308D01*
X507275Y218345D01*
X508689Y219759D01*
X508691Y219762D01*
X508693Y219763D01*
X508726Y219848D01*
X508726Y224305D01*
X508725Y224307D01*
X508726Y224309D01*
X508706Y224352D01*
X508688Y224395D01*
X508686Y224396D01*
X508685Y224398D01*
X508600Y224431D01*
X502726Y224431D01*
X502724Y224430D01*
X502722Y224431D01*
X502679Y224411D01*
X502635Y224393D01*
X502635Y224391D01*
X502633Y224390D01*
X502600Y224305D01*
X502600Y219848D01*
X502601Y219845D01*
X502600Y219842D01*
X502637Y219759D01*
X504051Y218345D01*
X504054Y218344D01*
X504055Y218341D01*
X504140Y218308D01*
X507186Y218308D01*
X507189Y218309D01*
G37*
G36*
X513936Y434720D02*
X513936Y434720D01*
X513938Y434719D01*
X513981Y434739D01*
X514025Y434757D01*
X514025Y434760D01*
X514027Y434760D01*
X514060Y434845D01*
X514060Y439302D01*
X514059Y439305D01*
X514060Y439308D01*
X514023Y439391D01*
X512609Y440805D01*
X512606Y440807D01*
X512605Y440809D01*
X512520Y440842D01*
X509474Y440842D01*
X509471Y440841D01*
X509468Y440842D01*
X509385Y440805D01*
X507971Y439391D01*
X507970Y439388D01*
X507967Y439387D01*
X507934Y439302D01*
X507934Y434845D01*
X507935Y434843D01*
X507934Y434841D01*
X507954Y434798D01*
X507972Y434755D01*
X507974Y434754D01*
X507975Y434752D01*
X508060Y434719D01*
X513934Y434719D01*
X513936Y434720D01*
G37*
G36*
X515063Y218309D02*
X515063Y218309D01*
X515066Y218308D01*
X515149Y218345D01*
X516563Y219759D01*
X516565Y219762D01*
X516567Y219763D01*
X516600Y219848D01*
X516600Y224305D01*
X516599Y224307D01*
X516600Y224309D01*
X516580Y224352D01*
X516562Y224395D01*
X516560Y224396D01*
X516559Y224398D01*
X516474Y224431D01*
X510600Y224431D01*
X510598Y224430D01*
X510596Y224431D01*
X510553Y224411D01*
X510509Y224393D01*
X510509Y224391D01*
X510507Y224390D01*
X510474Y224305D01*
X510474Y219848D01*
X510475Y219845D01*
X510474Y219842D01*
X510511Y219759D01*
X511925Y218345D01*
X511928Y218344D01*
X511929Y218341D01*
X512014Y218308D01*
X515060Y218308D01*
X515063Y218309D01*
G37*
G36*
X515063Y202561D02*
X515063Y202561D01*
X515066Y202560D01*
X515149Y202597D01*
X516563Y204011D01*
X516565Y204014D01*
X516567Y204015D01*
X516600Y204100D01*
X516600Y207146D01*
X516599Y207149D01*
X516600Y207152D01*
X516563Y207235D01*
X515149Y208649D01*
X515146Y208651D01*
X515145Y208653D01*
X515060Y208686D01*
X512014Y208686D01*
X512011Y208685D01*
X512008Y208686D01*
X511925Y208649D01*
X510511Y207235D01*
X510510Y207232D01*
X510507Y207231D01*
X510474Y207146D01*
X510474Y204100D01*
X510475Y204097D01*
X510474Y204094D01*
X510511Y204011D01*
X511925Y202597D01*
X511928Y202596D01*
X511929Y202593D01*
X512014Y202560D01*
X515060Y202560D01*
X515063Y202561D01*
G37*
G36*
X512523Y442591D02*
X512523Y442591D01*
X512526Y442590D01*
X512609Y442627D01*
X514023Y444041D01*
X514025Y444044D01*
X514027Y444045D01*
X514060Y444130D01*
X514060Y447176D01*
X514059Y447179D01*
X514060Y447182D01*
X514023Y447265D01*
X512609Y448679D01*
X512606Y448681D01*
X512605Y448683D01*
X512520Y448716D01*
X509474Y448716D01*
X509471Y448715D01*
X509468Y448716D01*
X509385Y448679D01*
X507971Y447265D01*
X507970Y447262D01*
X507967Y447261D01*
X507934Y447176D01*
X507934Y444130D01*
X507935Y444127D01*
X507934Y444124D01*
X507971Y444041D01*
X509385Y442627D01*
X509388Y442626D01*
X509389Y442623D01*
X509474Y442590D01*
X512520Y442590D01*
X512523Y442591D01*
G37*
G36*
X507189Y210435D02*
X507189Y210435D01*
X507192Y210434D01*
X507275Y210471D01*
X508689Y211885D01*
X508691Y211888D01*
X508693Y211889D01*
X508726Y211974D01*
X508726Y215020D01*
X508725Y215023D01*
X508726Y215026D01*
X508689Y215109D01*
X507275Y216523D01*
X507272Y216525D01*
X507271Y216527D01*
X507186Y216560D01*
X504140Y216560D01*
X504137Y216559D01*
X504134Y216560D01*
X504051Y216523D01*
X502637Y215109D01*
X502636Y215106D01*
X502633Y215105D01*
X502600Y215020D01*
X502600Y211974D01*
X502601Y211971D01*
X502600Y211968D01*
X502637Y211885D01*
X504051Y210471D01*
X504054Y210470D01*
X504055Y210467D01*
X504140Y210434D01*
X507186Y210434D01*
X507189Y210435D01*
G37*
G36*
X515063Y210435D02*
X515063Y210435D01*
X515066Y210434D01*
X515149Y210471D01*
X516563Y211885D01*
X516565Y211888D01*
X516567Y211889D01*
X516600Y211974D01*
X516600Y215020D01*
X516599Y215023D01*
X516600Y215026D01*
X516563Y215109D01*
X515149Y216523D01*
X515146Y216525D01*
X515145Y216527D01*
X515060Y216560D01*
X512014Y216560D01*
X512011Y216559D01*
X512008Y216560D01*
X511925Y216523D01*
X510511Y215109D01*
X510510Y215106D01*
X510507Y215105D01*
X510474Y215020D01*
X510474Y211974D01*
X510475Y211971D01*
X510474Y211968D01*
X510511Y211885D01*
X511925Y210471D01*
X511928Y210470D01*
X511929Y210467D01*
X512014Y210434D01*
X515060Y210434D01*
X515063Y210435D01*
G37*
G36*
X507189Y202561D02*
X507189Y202561D01*
X507192Y202560D01*
X507275Y202597D01*
X508689Y204011D01*
X508691Y204014D01*
X508693Y204015D01*
X508726Y204100D01*
X508726Y207146D01*
X508725Y207149D01*
X508726Y207152D01*
X508689Y207235D01*
X507275Y208649D01*
X507272Y208651D01*
X507271Y208653D01*
X507186Y208686D01*
X504140Y208686D01*
X504137Y208685D01*
X504134Y208686D01*
X504051Y208649D01*
X502637Y207235D01*
X502636Y207232D01*
X502633Y207231D01*
X502600Y207146D01*
X502600Y204100D01*
X502601Y204097D01*
X502600Y204094D01*
X502637Y204011D01*
X504051Y202597D01*
X504054Y202596D01*
X504055Y202593D01*
X504140Y202560D01*
X507186Y202560D01*
X507189Y202561D01*
G37*
G36*
X512523Y450465D02*
X512523Y450465D01*
X512526Y450464D01*
X512609Y450501D01*
X514023Y451915D01*
X514025Y451918D01*
X514027Y451919D01*
X514060Y452004D01*
X514060Y455050D01*
X514059Y455053D01*
X514060Y455056D01*
X514023Y455139D01*
X512609Y456553D01*
X512606Y456555D01*
X512605Y456557D01*
X512520Y456590D01*
X509474Y456590D01*
X509471Y456589D01*
X509468Y456590D01*
X509385Y456553D01*
X507971Y455139D01*
X507970Y455136D01*
X507967Y455135D01*
X507934Y455050D01*
X507934Y452004D01*
X507935Y452001D01*
X507934Y451998D01*
X507971Y451915D01*
X509385Y450501D01*
X509388Y450500D01*
X509389Y450497D01*
X509474Y450464D01*
X512520Y450464D01*
X512523Y450465D01*
G37*
G36*
X504649Y450465D02*
X504649Y450465D01*
X504652Y450464D01*
X504735Y450501D01*
X506149Y451915D01*
X506151Y451918D01*
X506153Y451919D01*
X506186Y452004D01*
X506186Y455050D01*
X506185Y455053D01*
X506186Y455056D01*
X506149Y455139D01*
X504735Y456553D01*
X504732Y456555D01*
X504731Y456557D01*
X504646Y456590D01*
X501600Y456590D01*
X501597Y456589D01*
X501594Y456590D01*
X501511Y456553D01*
X500097Y455139D01*
X500096Y455136D01*
X500093Y455135D01*
X500060Y455050D01*
X500060Y452004D01*
X500061Y452001D01*
X500060Y451998D01*
X500097Y451915D01*
X501511Y450501D01*
X501514Y450500D01*
X501515Y450497D01*
X501600Y450464D01*
X504646Y450464D01*
X504649Y450465D01*
G37*
G36*
X504649Y442591D02*
X504649Y442591D01*
X504652Y442590D01*
X504735Y442627D01*
X506149Y444041D01*
X506151Y444044D01*
X506153Y444045D01*
X506186Y444130D01*
X506186Y447176D01*
X506185Y447179D01*
X506186Y447182D01*
X506149Y447265D01*
X504735Y448679D01*
X504732Y448681D01*
X504731Y448683D01*
X504646Y448716D01*
X501600Y448716D01*
X501597Y448715D01*
X501594Y448716D01*
X501511Y448679D01*
X500097Y447265D01*
X500096Y447262D01*
X500093Y447261D01*
X500060Y447176D01*
X500060Y444130D01*
X500061Y444127D01*
X500060Y444124D01*
X500097Y444041D01*
X501511Y442627D01*
X501514Y442626D01*
X501515Y442623D01*
X501600Y442590D01*
X504646Y442590D01*
X504649Y442591D01*
G37*
G36*
X499315Y218309D02*
X499315Y218309D01*
X499318Y218308D01*
X499401Y218345D01*
X500815Y219759D01*
X500817Y219762D01*
X500819Y219763D01*
X500852Y219848D01*
X500852Y224305D01*
X500851Y224307D01*
X500852Y224309D01*
X500832Y224352D01*
X500814Y224395D01*
X500812Y224396D01*
X500811Y224398D01*
X500726Y224431D01*
X498411Y224431D01*
X498409Y224430D01*
X498407Y224431D01*
X498364Y224411D01*
X498321Y224393D01*
X498320Y224391D01*
X498318Y224390D01*
X498285Y224305D01*
X498285Y218434D01*
X498286Y218432D01*
X498285Y218430D01*
X498305Y218387D01*
X498323Y218343D01*
X498326Y218343D01*
X498326Y218341D01*
X498411Y218308D01*
X499312Y218308D01*
X499315Y218309D01*
G37*
G36*
X518251Y434720D02*
X518251Y434720D01*
X518253Y434719D01*
X518296Y434739D01*
X518339Y434757D01*
X518340Y434760D01*
X518342Y434760D01*
X518375Y434845D01*
X518375Y440716D01*
X518374Y440718D01*
X518375Y440720D01*
X518355Y440763D01*
X518337Y440807D01*
X518335Y440807D01*
X518334Y440809D01*
X518249Y440842D01*
X517348Y440842D01*
X517345Y440841D01*
X517342Y440842D01*
X517259Y440805D01*
X515845Y439391D01*
X515844Y439388D01*
X515841Y439387D01*
X515808Y439302D01*
X515808Y434845D01*
X515809Y434843D01*
X515808Y434841D01*
X515828Y434798D01*
X515846Y434755D01*
X515848Y434754D01*
X515849Y434752D01*
X515934Y434719D01*
X518249Y434719D01*
X518251Y434720D01*
G37*
G36*
X498188Y434720D02*
X498188Y434720D01*
X498190Y434719D01*
X498233Y434739D01*
X498277Y434757D01*
X498277Y434760D01*
X498279Y434760D01*
X498312Y434845D01*
X498312Y439302D01*
X498311Y439305D01*
X498312Y439308D01*
X498275Y439391D01*
X496861Y440805D01*
X496858Y440807D01*
X496857Y440809D01*
X496772Y440842D01*
X495871Y440842D01*
X495869Y440841D01*
X495867Y440842D01*
X495824Y440822D01*
X495781Y440804D01*
X495780Y440802D01*
X495778Y440801D01*
X495745Y440716D01*
X495745Y434845D01*
X495746Y434843D01*
X495745Y434841D01*
X495765Y434798D01*
X495783Y434755D01*
X495786Y434754D01*
X495786Y434752D01*
X495871Y434719D01*
X498186Y434719D01*
X498188Y434720D01*
G37*
G36*
X520791Y218309D02*
X520791Y218309D01*
X520793Y218308D01*
X520836Y218328D01*
X520879Y218346D01*
X520880Y218348D01*
X520882Y218349D01*
X520915Y218434D01*
X520915Y224305D01*
X520914Y224307D01*
X520915Y224309D01*
X520895Y224352D01*
X520877Y224395D01*
X520875Y224396D01*
X520874Y224398D01*
X520789Y224431D01*
X518474Y224431D01*
X518472Y224430D01*
X518470Y224431D01*
X518427Y224411D01*
X518383Y224393D01*
X518383Y224391D01*
X518381Y224390D01*
X518348Y224305D01*
X518348Y219848D01*
X518349Y219845D01*
X518348Y219842D01*
X518385Y219759D01*
X519799Y218345D01*
X519802Y218344D01*
X519803Y218341D01*
X519888Y218308D01*
X520789Y218308D01*
X520791Y218309D01*
G37*
G36*
X518251Y458339D02*
X518251Y458339D01*
X518253Y458338D01*
X518296Y458358D01*
X518339Y458376D01*
X518340Y458378D01*
X518342Y458379D01*
X518375Y458464D01*
X518375Y464335D01*
X518374Y464337D01*
X518375Y464339D01*
X518355Y464382D01*
X518337Y464425D01*
X518335Y464426D01*
X518334Y464428D01*
X518249Y464461D01*
X515934Y464461D01*
X515932Y464460D01*
X515930Y464461D01*
X515887Y464441D01*
X515843Y464423D01*
X515843Y464421D01*
X515841Y464420D01*
X515808Y464335D01*
X515808Y459878D01*
X515809Y459875D01*
X515808Y459872D01*
X515845Y459789D01*
X517259Y458375D01*
X517262Y458374D01*
X517263Y458371D01*
X517348Y458338D01*
X518249Y458338D01*
X518251Y458339D01*
G37*
G36*
X496775Y458339D02*
X496775Y458339D01*
X496778Y458338D01*
X496861Y458375D01*
X498275Y459789D01*
X498277Y459792D01*
X498279Y459793D01*
X498312Y459878D01*
X498312Y464335D01*
X498311Y464337D01*
X498312Y464339D01*
X498292Y464382D01*
X498274Y464425D01*
X498272Y464426D01*
X498271Y464428D01*
X498186Y464461D01*
X495871Y464461D01*
X495869Y464460D01*
X495867Y464461D01*
X495824Y464441D01*
X495781Y464423D01*
X495780Y464421D01*
X495778Y464420D01*
X495745Y464335D01*
X495745Y458464D01*
X495746Y458462D01*
X495745Y458460D01*
X495765Y458417D01*
X495783Y458373D01*
X495786Y458373D01*
X495786Y458371D01*
X495871Y458338D01*
X496772Y458338D01*
X496775Y458339D01*
G37*
G36*
X500728Y194690D02*
X500728Y194690D01*
X500730Y194689D01*
X500773Y194709D01*
X500817Y194727D01*
X500817Y194730D01*
X500819Y194730D01*
X500852Y194815D01*
X500852Y199272D01*
X500851Y199275D01*
X500852Y199278D01*
X500815Y199361D01*
X499401Y200775D01*
X499398Y200777D01*
X499397Y200779D01*
X499312Y200812D01*
X498411Y200812D01*
X498409Y200811D01*
X498407Y200812D01*
X498364Y200792D01*
X498321Y200774D01*
X498320Y200772D01*
X498318Y200771D01*
X498285Y200686D01*
X498285Y194815D01*
X498286Y194813D01*
X498285Y194811D01*
X498305Y194768D01*
X498323Y194725D01*
X498326Y194724D01*
X498326Y194722D01*
X498411Y194689D01*
X500726Y194689D01*
X500728Y194690D01*
G37*
G36*
X520791Y194690D02*
X520791Y194690D01*
X520793Y194689D01*
X520836Y194709D01*
X520879Y194727D01*
X520880Y194730D01*
X520882Y194730D01*
X520915Y194815D01*
X520915Y200686D01*
X520914Y200688D01*
X520915Y200690D01*
X520895Y200733D01*
X520877Y200777D01*
X520875Y200777D01*
X520874Y200779D01*
X520789Y200812D01*
X519888Y200812D01*
X519885Y200811D01*
X519882Y200812D01*
X519799Y200775D01*
X518385Y199361D01*
X518384Y199358D01*
X518381Y199357D01*
X518348Y199272D01*
X518348Y194815D01*
X518349Y194813D01*
X518348Y194811D01*
X518368Y194768D01*
X518386Y194725D01*
X518388Y194724D01*
X518389Y194722D01*
X518474Y194689D01*
X520789Y194689D01*
X520791Y194690D01*
G37*
G36*
X518251Y442591D02*
X518251Y442591D01*
X518253Y442590D01*
X518296Y442610D01*
X518339Y442628D01*
X518340Y442630D01*
X518342Y442631D01*
X518375Y442716D01*
X518375Y448590D01*
X518374Y448592D01*
X518375Y448594D01*
X518355Y448637D01*
X518337Y448681D01*
X518335Y448681D01*
X518334Y448683D01*
X518249Y448716D01*
X517348Y448716D01*
X517345Y448715D01*
X517342Y448716D01*
X517259Y448679D01*
X515845Y447265D01*
X515844Y447262D01*
X515841Y447261D01*
X515808Y447176D01*
X515808Y444130D01*
X515809Y444127D01*
X515808Y444124D01*
X515845Y444041D01*
X517259Y442627D01*
X517262Y442626D01*
X517263Y442623D01*
X517348Y442590D01*
X518249Y442590D01*
X518251Y442591D01*
G37*
G36*
X520791Y202561D02*
X520791Y202561D01*
X520793Y202560D01*
X520836Y202580D01*
X520879Y202598D01*
X520880Y202600D01*
X520882Y202601D01*
X520915Y202686D01*
X520915Y208560D01*
X520914Y208562D01*
X520915Y208564D01*
X520895Y208607D01*
X520877Y208651D01*
X520875Y208651D01*
X520874Y208653D01*
X520789Y208686D01*
X519888Y208686D01*
X519885Y208685D01*
X519882Y208686D01*
X519799Y208649D01*
X518385Y207235D01*
X518384Y207232D01*
X518381Y207231D01*
X518348Y207146D01*
X518348Y204100D01*
X518349Y204097D01*
X518348Y204094D01*
X518385Y204011D01*
X519799Y202597D01*
X519802Y202596D01*
X519803Y202593D01*
X519888Y202560D01*
X520789Y202560D01*
X520791Y202561D01*
G37*
G36*
X496775Y450465D02*
X496775Y450465D01*
X496778Y450464D01*
X496861Y450501D01*
X498275Y451915D01*
X498277Y451918D01*
X498279Y451919D01*
X498312Y452004D01*
X498312Y455050D01*
X498311Y455053D01*
X498312Y455056D01*
X498275Y455139D01*
X496861Y456553D01*
X496858Y456555D01*
X496857Y456557D01*
X496772Y456590D01*
X495871Y456590D01*
X495869Y456589D01*
X495867Y456590D01*
X495824Y456570D01*
X495781Y456552D01*
X495780Y456550D01*
X495778Y456549D01*
X495745Y456464D01*
X495745Y450590D01*
X495746Y450588D01*
X495745Y450586D01*
X495765Y450543D01*
X495783Y450499D01*
X495786Y450499D01*
X495786Y450497D01*
X495871Y450464D01*
X496772Y450464D01*
X496775Y450465D01*
G37*
G36*
X518251Y450465D02*
X518251Y450465D01*
X518253Y450464D01*
X518296Y450484D01*
X518339Y450502D01*
X518340Y450504D01*
X518342Y450505D01*
X518375Y450590D01*
X518375Y456464D01*
X518374Y456466D01*
X518375Y456468D01*
X518355Y456511D01*
X518337Y456555D01*
X518335Y456555D01*
X518334Y456557D01*
X518249Y456590D01*
X517348Y456590D01*
X517345Y456589D01*
X517342Y456590D01*
X517259Y456553D01*
X515845Y455139D01*
X515844Y455136D01*
X515841Y455135D01*
X515808Y455050D01*
X515808Y452004D01*
X515809Y452001D01*
X515808Y451998D01*
X515845Y451915D01*
X517259Y450501D01*
X517262Y450500D01*
X517263Y450497D01*
X517348Y450464D01*
X518249Y450464D01*
X518251Y450465D01*
G37*
G36*
X499315Y210435D02*
X499315Y210435D01*
X499318Y210434D01*
X499401Y210471D01*
X500815Y211885D01*
X500817Y211888D01*
X500819Y211889D01*
X500852Y211974D01*
X500852Y215020D01*
X500851Y215023D01*
X500852Y215026D01*
X500815Y215109D01*
X499401Y216523D01*
X499398Y216525D01*
X499397Y216527D01*
X499312Y216560D01*
X498411Y216560D01*
X498409Y216559D01*
X498407Y216560D01*
X498364Y216540D01*
X498321Y216522D01*
X498320Y216520D01*
X498318Y216519D01*
X498285Y216434D01*
X498285Y210560D01*
X498286Y210558D01*
X498285Y210556D01*
X498305Y210513D01*
X498323Y210469D01*
X498326Y210469D01*
X498326Y210467D01*
X498411Y210434D01*
X499312Y210434D01*
X499315Y210435D01*
G37*
G36*
X496775Y442591D02*
X496775Y442591D01*
X496778Y442590D01*
X496861Y442627D01*
X498275Y444041D01*
X498277Y444044D01*
X498279Y444045D01*
X498312Y444130D01*
X498312Y447176D01*
X498311Y447179D01*
X498312Y447182D01*
X498275Y447265D01*
X496861Y448679D01*
X496858Y448681D01*
X496857Y448683D01*
X496772Y448716D01*
X495871Y448716D01*
X495869Y448715D01*
X495867Y448716D01*
X495824Y448696D01*
X495781Y448678D01*
X495780Y448676D01*
X495778Y448675D01*
X495745Y448590D01*
X495745Y442716D01*
X495746Y442714D01*
X495745Y442712D01*
X495765Y442669D01*
X495783Y442625D01*
X495786Y442625D01*
X495786Y442623D01*
X495871Y442590D01*
X496772Y442590D01*
X496775Y442591D01*
G37*
G36*
X520791Y210435D02*
X520791Y210435D01*
X520793Y210434D01*
X520836Y210454D01*
X520879Y210472D01*
X520880Y210474D01*
X520882Y210475D01*
X520915Y210560D01*
X520915Y216434D01*
X520914Y216436D01*
X520915Y216438D01*
X520895Y216481D01*
X520877Y216525D01*
X520875Y216525D01*
X520874Y216527D01*
X520789Y216560D01*
X519888Y216560D01*
X519885Y216559D01*
X519882Y216560D01*
X519799Y216523D01*
X518385Y215109D01*
X518384Y215106D01*
X518381Y215105D01*
X518348Y215020D01*
X518348Y211974D01*
X518349Y211971D01*
X518348Y211968D01*
X518385Y211885D01*
X519799Y210471D01*
X519802Y210470D01*
X519803Y210467D01*
X519888Y210434D01*
X520789Y210434D01*
X520791Y210435D01*
G37*
G36*
X499315Y202561D02*
X499315Y202561D01*
X499318Y202560D01*
X499401Y202597D01*
X500815Y204011D01*
X500817Y204014D01*
X500819Y204015D01*
X500852Y204100D01*
X500852Y207146D01*
X500851Y207149D01*
X500852Y207152D01*
X500815Y207235D01*
X499401Y208649D01*
X499398Y208651D01*
X499397Y208653D01*
X499312Y208686D01*
X498411Y208686D01*
X498409Y208685D01*
X498407Y208686D01*
X498364Y208666D01*
X498321Y208648D01*
X498320Y208646D01*
X498318Y208645D01*
X498285Y208560D01*
X498285Y202686D01*
X498286Y202684D01*
X498285Y202682D01*
X498305Y202639D01*
X498323Y202595D01*
X498326Y202595D01*
X498326Y202593D01*
X498411Y202560D01*
X499312Y202560D01*
X499315Y202561D01*
G37*
D10*
X504910Y154950D03*
X521910Y154950D03*
D11*
X503192Y120080D03*
X531248Y120080D03*
D10*
X478240Y383550D03*
X495240Y383550D03*
D11*
X477792Y346720D03*
X505848Y346720D03*
D10*
X305520Y218450D03*
X322520Y218450D03*
X220430Y218450D03*
X237430Y218450D03*
X249876Y463052D03*
X232876Y463052D03*
X106130Y375930D03*
X123130Y375930D03*
D12*
X478310Y468640D03*
X478310Y455940D03*
X478310Y443240D03*
X478310Y430540D03*
X535810Y430540D03*
X535810Y443240D03*
X535810Y455940D03*
X535810Y468640D03*
X480850Y228610D03*
X480850Y215910D03*
X480850Y203210D03*
X480850Y190510D03*
X538350Y190510D03*
X538350Y203210D03*
X538350Y215910D03*
X538350Y228610D03*
D13*
X417280Y392440D03*
X434280Y392440D03*
X412200Y180350D03*
X429200Y180350D03*
X234890Y325130D03*
X217890Y325130D03*
D14*
X305130Y631210D03*
D15*
X296380Y631210D03*
X288380Y631210D03*
D14*
X279630Y631210D03*
X279630Y648210D03*
D15*
X288380Y648210D03*
X296380Y648210D03*
D14*
X305130Y648210D03*
X301320Y135910D03*
D15*
X292570Y135910D03*
X284570Y135910D03*
D14*
X275820Y135910D03*
X275820Y152910D03*
D15*
X284570Y152910D03*
X292570Y152910D03*
D14*
X301320Y152910D03*
D13*
X107400Y436890D03*
X124400Y436890D03*
X106130Y406410D03*
X123130Y406410D03*
D10*
X427050Y618890D03*
X427050Y635890D03*
D16*
X245730Y418710D03*
X245730Y413710D03*
X245730Y408710D03*
X245730Y403710D03*
X245730Y398710D03*
X245730Y393710D03*
X245730Y388710D03*
X245730Y383710D03*
X245730Y378710D03*
X245730Y373710D03*
X245730Y368710D03*
D17*
X254730Y359710D03*
X259730Y359710D03*
X264730Y359710D03*
X269730Y359710D03*
X274730Y359710D03*
X279730Y359710D03*
X284730Y359710D03*
X289730Y359710D03*
X294730Y359710D03*
X299730Y359710D03*
X304730Y359710D03*
D16*
X313730Y368710D03*
X313730Y373710D03*
X313730Y378710D03*
X313730Y383710D03*
X313730Y388710D03*
X313730Y393710D03*
X313730Y398710D03*
X313730Y403710D03*
X313730Y408710D03*
X313730Y413710D03*
X313730Y418710D03*
D17*
X304730Y427710D03*
X299730Y427710D03*
X294730Y427710D03*
X289730Y427710D03*
X284730Y427710D03*
X279730Y427710D03*
X274730Y427710D03*
X269730Y427710D03*
X264730Y427710D03*
X259730Y427710D03*
X254730Y427710D03*
D18*
X331950Y441970D03*
X318950Y441970D03*
X218620Y428000D03*
X231620Y428000D03*
D19*
X264490Y313550D03*
X264490Y326550D03*
D18*
X358620Y379740D03*
X345620Y379740D03*
D20*
X532662Y571510D03*
X482662Y571510D03*
X584632Y572018D03*
X634632Y572018D03*
D21*
X372440Y560080D03*
X372440Y582940D03*
X305130Y558810D03*
X305130Y581670D03*
X234010Y555000D03*
X234010Y577860D03*
X174320Y556270D03*
X174320Y579130D03*
X433400Y558810D03*
X433400Y581670D03*
D22*
X256235Y262900D03*
X298145Y262900D03*
M02*
