%TF.GenerationSoftware,KiCad,Pcbnew,6.0.9-8da3e8f707~117~ubuntu20.04.1*%
%TF.CreationDate,2023-02-11T13:52:53-08:00*%
%TF.ProjectId,PDB,5044422e-6b69-4636-9164-5f7063625858,rev?*%
%TF.SameCoordinates,Original*%
%TF.FileFunction,Legend,Top*%
%TF.FilePolarity,Positive*%
%FSLAX46Y46*%
G04 Gerber Fmt 4.6, Leading zero omitted, Abs format (unit mm)*
G04 Created by KiCad (PCBNEW 6.0.9-8da3e8f707~117~ubuntu20.04.1) date 2023-02-11 13:52:53*
%MOMM*%
%LPD*%
G01*
G04 APERTURE LIST*
%ADD10C,0.100000*%
%ADD11C,0.200000*%
%ADD12C,0.150000*%
%ADD13C,0.152000*%
%ADD14C,0.120000*%
%ADD15C,0.254000*%
%ADD16C,0.300000*%
%ADD17C,0.127000*%
G04 APERTURE END LIST*
D10*
X150365590Y-51025857D02*
X149865590Y-51025857D01*
X149865590Y-50906809D01*
X149889400Y-50835380D01*
X149937019Y-50787761D01*
X149984638Y-50763952D01*
X150079876Y-50740142D01*
X150151304Y-50740142D01*
X150246542Y-50763952D01*
X150294161Y-50787761D01*
X150341780Y-50835380D01*
X150365590Y-50906809D01*
X150365590Y-51025857D01*
X150365590Y-50525857D02*
X150032257Y-50525857D01*
X149865590Y-50525857D02*
X149889400Y-50549666D01*
X149913209Y-50525857D01*
X149889400Y-50502047D01*
X149865590Y-50525857D01*
X149913209Y-50525857D01*
X150341780Y-50311571D02*
X150365590Y-50263952D01*
X150365590Y-50168714D01*
X150341780Y-50121095D01*
X150294161Y-50097285D01*
X150270352Y-50097285D01*
X150222733Y-50121095D01*
X150198923Y-50168714D01*
X150198923Y-50240142D01*
X150175114Y-50287761D01*
X150127495Y-50311571D01*
X150103685Y-50311571D01*
X150056066Y-50287761D01*
X150032257Y-50240142D01*
X150032257Y-50168714D01*
X150056066Y-50121095D01*
X150365590Y-49668714D02*
X150103685Y-49668714D01*
X150056066Y-49692523D01*
X150032257Y-49740142D01*
X150032257Y-49835380D01*
X150056066Y-49883000D01*
X150341780Y-49668714D02*
X150365590Y-49716333D01*
X150365590Y-49835380D01*
X150341780Y-49883000D01*
X150294161Y-49906809D01*
X150246542Y-49906809D01*
X150198923Y-49883000D01*
X150175114Y-49835380D01*
X150175114Y-49716333D01*
X150151304Y-49668714D01*
X150365590Y-49430619D02*
X149865590Y-49430619D01*
X150056066Y-49430619D02*
X150032257Y-49383000D01*
X150032257Y-49287761D01*
X150056066Y-49240142D01*
X150079876Y-49216333D01*
X150127495Y-49192523D01*
X150270352Y-49192523D01*
X150317971Y-49216333D01*
X150341780Y-49240142D01*
X150365590Y-49287761D01*
X150365590Y-49383000D01*
X150341780Y-49430619D01*
X150365590Y-48906809D02*
X150341780Y-48954428D01*
X150294161Y-48978238D01*
X149865590Y-48978238D01*
X150341780Y-48525857D02*
X150365590Y-48573476D01*
X150365590Y-48668714D01*
X150341780Y-48716333D01*
X150294161Y-48740142D01*
X150103685Y-48740142D01*
X150056066Y-48716333D01*
X150032257Y-48668714D01*
X150032257Y-48573476D01*
X150056066Y-48525857D01*
X150103685Y-48502047D01*
X150151304Y-48502047D01*
X150198923Y-48740142D01*
X150103685Y-47740142D02*
X150127495Y-47668714D01*
X150151304Y-47644904D01*
X150198923Y-47621095D01*
X150270352Y-47621095D01*
X150317971Y-47644904D01*
X150341780Y-47668714D01*
X150365590Y-47716333D01*
X150365590Y-47906809D01*
X149865590Y-47906809D01*
X149865590Y-47740142D01*
X149889400Y-47692523D01*
X149913209Y-47668714D01*
X149960828Y-47644904D01*
X150008447Y-47644904D01*
X150056066Y-47668714D01*
X150079876Y-47692523D01*
X150103685Y-47740142D01*
X150103685Y-47906809D01*
X150032257Y-47192523D02*
X150365590Y-47192523D01*
X150032257Y-47406809D02*
X150294161Y-47406809D01*
X150341780Y-47383000D01*
X150365590Y-47335380D01*
X150365590Y-47263952D01*
X150341780Y-47216333D01*
X150317971Y-47192523D01*
X150032257Y-47002047D02*
X150032257Y-46740142D01*
X150365590Y-47002047D01*
X150365590Y-46740142D01*
X150032257Y-46597285D02*
X150032257Y-46335380D01*
X150365590Y-46597285D01*
X150365590Y-46335380D01*
X150365590Y-46144904D02*
X150032257Y-46144904D01*
X149865590Y-46144904D02*
X149889400Y-46168714D01*
X149913209Y-46144904D01*
X149889400Y-46121095D01*
X149865590Y-46144904D01*
X149913209Y-46144904D01*
X150032257Y-45906809D02*
X150365590Y-45906809D01*
X150079876Y-45906809D02*
X150056066Y-45883000D01*
X150032257Y-45835380D01*
X150032257Y-45763952D01*
X150056066Y-45716333D01*
X150103685Y-45692523D01*
X150365590Y-45692523D01*
X150032257Y-45240142D02*
X150437019Y-45240142D01*
X150484638Y-45263952D01*
X150508447Y-45287761D01*
X150532257Y-45335380D01*
X150532257Y-45406809D01*
X150508447Y-45454428D01*
X150341780Y-45240142D02*
X150365590Y-45287761D01*
X150365590Y-45383000D01*
X150341780Y-45430619D01*
X150317971Y-45454428D01*
X150270352Y-45478238D01*
X150127495Y-45478238D01*
X150079876Y-45454428D01*
X150056066Y-45430619D01*
X150032257Y-45383000D01*
X150032257Y-45287761D01*
X150056066Y-45240142D01*
X100668971Y-48003590D02*
X100383257Y-48003590D01*
X100526114Y-48003590D02*
X100526114Y-47503590D01*
X100478495Y-47575019D01*
X100430876Y-47622638D01*
X100383257Y-47646447D01*
X100978495Y-47503590D02*
X101026114Y-47503590D01*
X101073733Y-47527400D01*
X101097542Y-47551209D01*
X101121352Y-47598828D01*
X101145161Y-47694066D01*
X101145161Y-47813114D01*
X101121352Y-47908352D01*
X101097542Y-47955971D01*
X101073733Y-47979780D01*
X101026114Y-48003590D01*
X100978495Y-48003590D01*
X100930876Y-47979780D01*
X100907066Y-47955971D01*
X100883257Y-47908352D01*
X100859447Y-47813114D01*
X100859447Y-47694066D01*
X100883257Y-47598828D01*
X100907066Y-47551209D01*
X100930876Y-47527400D01*
X100978495Y-47503590D01*
X101573733Y-47670257D02*
X101573733Y-48003590D01*
X101359447Y-47670257D02*
X101359447Y-47932161D01*
X101383257Y-47979780D01*
X101430876Y-48003590D01*
X101502304Y-48003590D01*
X101549923Y-47979780D01*
X101573733Y-47955971D01*
X100516571Y-55648990D02*
X100230857Y-55648990D01*
X100373714Y-55648990D02*
X100373714Y-55148990D01*
X100326095Y-55220419D01*
X100278476Y-55268038D01*
X100230857Y-55291847D01*
X100826095Y-55148990D02*
X100873714Y-55148990D01*
X100921333Y-55172800D01*
X100945142Y-55196609D01*
X100968952Y-55244228D01*
X100992761Y-55339466D01*
X100992761Y-55458514D01*
X100968952Y-55553752D01*
X100945142Y-55601371D01*
X100921333Y-55625180D01*
X100873714Y-55648990D01*
X100826095Y-55648990D01*
X100778476Y-55625180D01*
X100754666Y-55601371D01*
X100730857Y-55553752D01*
X100707047Y-55458514D01*
X100707047Y-55339466D01*
X100730857Y-55244228D01*
X100754666Y-55196609D01*
X100778476Y-55172800D01*
X100826095Y-55148990D01*
X101421333Y-55315657D02*
X101421333Y-55648990D01*
X101207047Y-55315657D02*
X101207047Y-55577561D01*
X101230857Y-55625180D01*
X101278476Y-55648990D01*
X101349904Y-55648990D01*
X101397523Y-55625180D01*
X101421333Y-55601371D01*
D11*
X120216342Y-61451257D02*
X120216342Y-60251257D01*
X120673485Y-60251257D01*
X120787771Y-60308400D01*
X120844914Y-60365542D01*
X120902057Y-60479828D01*
X120902057Y-60651257D01*
X120844914Y-60765542D01*
X120787771Y-60822685D01*
X120673485Y-60879828D01*
X120216342Y-60879828D01*
X121416342Y-61451257D02*
X121416342Y-60651257D01*
X121416342Y-60251257D02*
X121359200Y-60308400D01*
X121416342Y-60365542D01*
X121473485Y-60308400D01*
X121416342Y-60251257D01*
X121416342Y-60365542D01*
X122159200Y-61451257D02*
X122044914Y-61394114D01*
X121987771Y-61336971D01*
X121930628Y-61222685D01*
X121930628Y-60879828D01*
X121987771Y-60765542D01*
X122044914Y-60708400D01*
X122159200Y-60651257D01*
X122330628Y-60651257D01*
X122444914Y-60708400D01*
X122502057Y-60765542D01*
X122559200Y-60879828D01*
X122559200Y-61222685D01*
X122502057Y-61336971D01*
X122444914Y-61394114D01*
X122330628Y-61451257D01*
X122159200Y-61451257D01*
X123073485Y-60651257D02*
X123073485Y-61451257D01*
X123073485Y-60765542D02*
X123130628Y-60708400D01*
X123244914Y-60651257D01*
X123416342Y-60651257D01*
X123530628Y-60708400D01*
X123587771Y-60822685D01*
X123587771Y-61451257D01*
X124616342Y-61394114D02*
X124502057Y-61451257D01*
X124273485Y-61451257D01*
X124159200Y-61394114D01*
X124102057Y-61279828D01*
X124102057Y-60822685D01*
X124159200Y-60708400D01*
X124273485Y-60651257D01*
X124502057Y-60651257D01*
X124616342Y-60708400D01*
X124673485Y-60822685D01*
X124673485Y-60936971D01*
X124102057Y-61051257D01*
X125644914Y-61394114D02*
X125530628Y-61451257D01*
X125302057Y-61451257D01*
X125187771Y-61394114D01*
X125130628Y-61279828D01*
X125130628Y-60822685D01*
X125187771Y-60708400D01*
X125302057Y-60651257D01*
X125530628Y-60651257D01*
X125644914Y-60708400D01*
X125702057Y-60822685D01*
X125702057Y-60936971D01*
X125130628Y-61051257D01*
X126216342Y-61451257D02*
X126216342Y-60651257D01*
X126216342Y-60879828D02*
X126273485Y-60765542D01*
X126330628Y-60708400D01*
X126444914Y-60651257D01*
X126559200Y-60651257D01*
X126902057Y-61394114D02*
X127016342Y-61451257D01*
X127244914Y-61451257D01*
X127359200Y-61394114D01*
X127416342Y-61279828D01*
X127416342Y-61222685D01*
X127359200Y-61108400D01*
X127244914Y-61051257D01*
X127073485Y-61051257D01*
X126959200Y-60994114D01*
X126902057Y-60879828D01*
X126902057Y-60822685D01*
X126959200Y-60708400D01*
X127073485Y-60651257D01*
X127244914Y-60651257D01*
X127359200Y-60708400D01*
X128844914Y-61451257D02*
X128844914Y-60651257D01*
X128844914Y-60251257D02*
X128787771Y-60308400D01*
X128844914Y-60365542D01*
X128902057Y-60308400D01*
X128844914Y-60251257D01*
X128844914Y-60365542D01*
X129416342Y-60651257D02*
X129416342Y-61451257D01*
X129416342Y-60765542D02*
X129473485Y-60708400D01*
X129587771Y-60651257D01*
X129759200Y-60651257D01*
X129873485Y-60708400D01*
X129930628Y-60822685D01*
X129930628Y-61451257D01*
X131416342Y-60822685D02*
X131816342Y-60822685D01*
X131987771Y-61451257D02*
X131416342Y-61451257D01*
X131416342Y-60251257D01*
X131987771Y-60251257D01*
X132502057Y-60651257D02*
X132502057Y-61451257D01*
X132502057Y-60765542D02*
X132559200Y-60708400D01*
X132673485Y-60651257D01*
X132844914Y-60651257D01*
X132959200Y-60708400D01*
X133016342Y-60822685D01*
X133016342Y-61451257D01*
X134102057Y-60651257D02*
X134102057Y-61622685D01*
X134044914Y-61736971D01*
X133987771Y-61794114D01*
X133873485Y-61851257D01*
X133702057Y-61851257D01*
X133587771Y-61794114D01*
X134102057Y-61394114D02*
X133987771Y-61451257D01*
X133759200Y-61451257D01*
X133644914Y-61394114D01*
X133587771Y-61336971D01*
X133530628Y-61222685D01*
X133530628Y-60879828D01*
X133587771Y-60765542D01*
X133644914Y-60708400D01*
X133759200Y-60651257D01*
X133987771Y-60651257D01*
X134102057Y-60708400D01*
X134673485Y-61451257D02*
X134673485Y-60651257D01*
X134673485Y-60251257D02*
X134616342Y-60308400D01*
X134673485Y-60365542D01*
X134730628Y-60308400D01*
X134673485Y-60251257D01*
X134673485Y-60365542D01*
X135244914Y-60651257D02*
X135244914Y-61451257D01*
X135244914Y-60765542D02*
X135302057Y-60708400D01*
X135416342Y-60651257D01*
X135587771Y-60651257D01*
X135702057Y-60708400D01*
X135759200Y-60822685D01*
X135759200Y-61451257D01*
X136787771Y-61394114D02*
X136673485Y-61451257D01*
X136444914Y-61451257D01*
X136330628Y-61394114D01*
X136273485Y-61279828D01*
X136273485Y-60822685D01*
X136330628Y-60708400D01*
X136444914Y-60651257D01*
X136673485Y-60651257D01*
X136787771Y-60708400D01*
X136844914Y-60822685D01*
X136844914Y-60936971D01*
X136273485Y-61051257D01*
X137816342Y-61394114D02*
X137702057Y-61451257D01*
X137473485Y-61451257D01*
X137359200Y-61394114D01*
X137302057Y-61279828D01*
X137302057Y-60822685D01*
X137359200Y-60708400D01*
X137473485Y-60651257D01*
X137702057Y-60651257D01*
X137816342Y-60708400D01*
X137873485Y-60822685D01*
X137873485Y-60936971D01*
X137302057Y-61051257D01*
X138387771Y-61451257D02*
X138387771Y-60651257D01*
X138387771Y-60879828D02*
X138444914Y-60765542D01*
X138502057Y-60708400D01*
X138616342Y-60651257D01*
X138730628Y-60651257D01*
X139130628Y-61451257D02*
X139130628Y-60651257D01*
X139130628Y-60251257D02*
X139073485Y-60308400D01*
X139130628Y-60365542D01*
X139187771Y-60308400D01*
X139130628Y-60251257D01*
X139130628Y-60365542D01*
X139702057Y-60651257D02*
X139702057Y-61451257D01*
X139702057Y-60765542D02*
X139759200Y-60708400D01*
X139873485Y-60651257D01*
X140044914Y-60651257D01*
X140159200Y-60708400D01*
X140216342Y-60822685D01*
X140216342Y-61451257D01*
X141302057Y-60651257D02*
X141302057Y-61622685D01*
X141244914Y-61736971D01*
X141187771Y-61794114D01*
X141073485Y-61851257D01*
X140902057Y-61851257D01*
X140787771Y-61794114D01*
X141302057Y-61394114D02*
X141187771Y-61451257D01*
X140959200Y-61451257D01*
X140844914Y-61394114D01*
X140787771Y-61336971D01*
X140730628Y-61222685D01*
X140730628Y-60879828D01*
X140787771Y-60765542D01*
X140844914Y-60708400D01*
X140959200Y-60651257D01*
X141187771Y-60651257D01*
X141302057Y-60708400D01*
X119702057Y-63383257D02*
X119702057Y-62183257D01*
X120159200Y-62183257D01*
X120273485Y-62240400D01*
X120330628Y-62297542D01*
X120387771Y-62411828D01*
X120387771Y-62583257D01*
X120330628Y-62697542D01*
X120273485Y-62754685D01*
X120159200Y-62811828D01*
X119702057Y-62811828D01*
X121073485Y-63383257D02*
X120959200Y-63326114D01*
X120902057Y-63268971D01*
X120844914Y-63154685D01*
X120844914Y-62811828D01*
X120902057Y-62697542D01*
X120959200Y-62640400D01*
X121073485Y-62583257D01*
X121244914Y-62583257D01*
X121359200Y-62640400D01*
X121416342Y-62697542D01*
X121473485Y-62811828D01*
X121473485Y-63154685D01*
X121416342Y-63268971D01*
X121359200Y-63326114D01*
X121244914Y-63383257D01*
X121073485Y-63383257D01*
X121873485Y-62583257D02*
X122102057Y-63383257D01*
X122330628Y-62811828D01*
X122559200Y-63383257D01*
X122787771Y-62583257D01*
X123702057Y-63326114D02*
X123587771Y-63383257D01*
X123359200Y-63383257D01*
X123244914Y-63326114D01*
X123187771Y-63211828D01*
X123187771Y-62754685D01*
X123244914Y-62640400D01*
X123359200Y-62583257D01*
X123587771Y-62583257D01*
X123702057Y-62640400D01*
X123759200Y-62754685D01*
X123759200Y-62868971D01*
X123187771Y-62983257D01*
X124273485Y-63383257D02*
X124273485Y-62583257D01*
X124273485Y-62811828D02*
X124330628Y-62697542D01*
X124387771Y-62640400D01*
X124502057Y-62583257D01*
X124616342Y-62583257D01*
X125930628Y-63383257D02*
X125930628Y-62183257D01*
X126216342Y-62183257D01*
X126387771Y-62240400D01*
X126502057Y-62354685D01*
X126559200Y-62468971D01*
X126616342Y-62697542D01*
X126616342Y-62868971D01*
X126559200Y-63097542D01*
X126502057Y-63211828D01*
X126387771Y-63326114D01*
X126216342Y-63383257D01*
X125930628Y-63383257D01*
X127130628Y-63383257D02*
X127130628Y-62583257D01*
X127130628Y-62183257D02*
X127073485Y-62240400D01*
X127130628Y-62297542D01*
X127187771Y-62240400D01*
X127130628Y-62183257D01*
X127130628Y-62297542D01*
X127644914Y-63326114D02*
X127759200Y-63383257D01*
X127987771Y-63383257D01*
X128102057Y-63326114D01*
X128159200Y-63211828D01*
X128159200Y-63154685D01*
X128102057Y-63040400D01*
X127987771Y-62983257D01*
X127816342Y-62983257D01*
X127702057Y-62926114D01*
X127644914Y-62811828D01*
X127644914Y-62754685D01*
X127702057Y-62640400D01*
X127816342Y-62583257D01*
X127987771Y-62583257D01*
X128102057Y-62640400D01*
X128502057Y-62583257D02*
X128959200Y-62583257D01*
X128673485Y-62183257D02*
X128673485Y-63211828D01*
X128730628Y-63326114D01*
X128844914Y-63383257D01*
X128959200Y-63383257D01*
X129359200Y-63383257D02*
X129359200Y-62583257D01*
X129359200Y-62811828D02*
X129416342Y-62697542D01*
X129473485Y-62640400D01*
X129587771Y-62583257D01*
X129702057Y-62583257D01*
X130102057Y-63383257D02*
X130102057Y-62583257D01*
X130102057Y-62183257D02*
X130044914Y-62240400D01*
X130102057Y-62297542D01*
X130159200Y-62240400D01*
X130102057Y-62183257D01*
X130102057Y-62297542D01*
X130673485Y-63383257D02*
X130673485Y-62183257D01*
X130673485Y-62640400D02*
X130787771Y-62583257D01*
X131016342Y-62583257D01*
X131130628Y-62640400D01*
X131187771Y-62697542D01*
X131244914Y-62811828D01*
X131244914Y-63154685D01*
X131187771Y-63268971D01*
X131130628Y-63326114D01*
X131016342Y-63383257D01*
X130787771Y-63383257D01*
X130673485Y-63326114D01*
X132273485Y-62583257D02*
X132273485Y-63383257D01*
X131759200Y-62583257D02*
X131759200Y-63211828D01*
X131816342Y-63326114D01*
X131930628Y-63383257D01*
X132102057Y-63383257D01*
X132216342Y-63326114D01*
X132273485Y-63268971D01*
X132673485Y-62583257D02*
X133130628Y-62583257D01*
X132844914Y-62183257D02*
X132844914Y-63211828D01*
X132902057Y-63326114D01*
X133016342Y-63383257D01*
X133130628Y-63383257D01*
X133530628Y-63383257D02*
X133530628Y-62583257D01*
X133530628Y-62183257D02*
X133473485Y-62240400D01*
X133530628Y-62297542D01*
X133587771Y-62240400D01*
X133530628Y-62183257D01*
X133530628Y-62297542D01*
X134273485Y-63383257D02*
X134159200Y-63326114D01*
X134102057Y-63268971D01*
X134044914Y-63154685D01*
X134044914Y-62811828D01*
X134102057Y-62697542D01*
X134159200Y-62640400D01*
X134273485Y-62583257D01*
X134444914Y-62583257D01*
X134559200Y-62640400D01*
X134616342Y-62697542D01*
X134673485Y-62811828D01*
X134673485Y-63154685D01*
X134616342Y-63268971D01*
X134559200Y-63326114D01*
X134444914Y-63383257D01*
X134273485Y-63383257D01*
X135187771Y-62583257D02*
X135187771Y-63383257D01*
X135187771Y-62697542D02*
X135244914Y-62640400D01*
X135359200Y-62583257D01*
X135530628Y-62583257D01*
X135644914Y-62640400D01*
X135702057Y-62754685D01*
X135702057Y-63383257D01*
X137587771Y-62754685D02*
X137759200Y-62811828D01*
X137816342Y-62868971D01*
X137873485Y-62983257D01*
X137873485Y-63154685D01*
X137816342Y-63268971D01*
X137759200Y-63326114D01*
X137644914Y-63383257D01*
X137187771Y-63383257D01*
X137187771Y-62183257D01*
X137587771Y-62183257D01*
X137702057Y-62240400D01*
X137759200Y-62297542D01*
X137816342Y-62411828D01*
X137816342Y-62526114D01*
X137759200Y-62640400D01*
X137702057Y-62697542D01*
X137587771Y-62754685D01*
X137187771Y-62754685D01*
X138559200Y-63383257D02*
X138444914Y-63326114D01*
X138387771Y-63268971D01*
X138330628Y-63154685D01*
X138330628Y-62811828D01*
X138387771Y-62697542D01*
X138444914Y-62640400D01*
X138559200Y-62583257D01*
X138730628Y-62583257D01*
X138844914Y-62640400D01*
X138902057Y-62697542D01*
X138959200Y-62811828D01*
X138959200Y-63154685D01*
X138902057Y-63268971D01*
X138844914Y-63326114D01*
X138730628Y-63383257D01*
X138559200Y-63383257D01*
X139987771Y-63383257D02*
X139987771Y-62754685D01*
X139930628Y-62640400D01*
X139816342Y-62583257D01*
X139587771Y-62583257D01*
X139473485Y-62640400D01*
X139987771Y-63326114D02*
X139873485Y-63383257D01*
X139587771Y-63383257D01*
X139473485Y-63326114D01*
X139416342Y-63211828D01*
X139416342Y-63097542D01*
X139473485Y-62983257D01*
X139587771Y-62926114D01*
X139873485Y-62926114D01*
X139987771Y-62868971D01*
X140559200Y-63383257D02*
X140559200Y-62583257D01*
X140559200Y-62811828D02*
X140616342Y-62697542D01*
X140673485Y-62640400D01*
X140787771Y-62583257D01*
X140902057Y-62583257D01*
X141816342Y-63383257D02*
X141816342Y-62183257D01*
X141816342Y-63326114D02*
X141702057Y-63383257D01*
X141473485Y-63383257D01*
X141359200Y-63326114D01*
X141302057Y-63268971D01*
X141244914Y-63154685D01*
X141244914Y-62811828D01*
X141302057Y-62697542D01*
X141359200Y-62640400D01*
X141473485Y-62583257D01*
X141702057Y-62583257D01*
X141816342Y-62640400D01*
D12*
X100735238Y-100833180D02*
X100735238Y-99833180D01*
X101116190Y-99833180D01*
X101211428Y-99880800D01*
X101259047Y-99928419D01*
X101306666Y-100023657D01*
X101306666Y-100166514D01*
X101259047Y-100261752D01*
X101211428Y-100309371D01*
X101116190Y-100356990D01*
X100735238Y-100356990D01*
X101735238Y-100833180D02*
X101735238Y-100166514D01*
X101735238Y-100356990D02*
X101782857Y-100261752D01*
X101830476Y-100214133D01*
X101925714Y-100166514D01*
X102020952Y-100166514D01*
X102497142Y-100833180D02*
X102401904Y-100785561D01*
X102354285Y-100737942D01*
X102306666Y-100642704D01*
X102306666Y-100356990D01*
X102354285Y-100261752D01*
X102401904Y-100214133D01*
X102497142Y-100166514D01*
X102640000Y-100166514D01*
X102735238Y-100214133D01*
X102782857Y-100261752D01*
X102830476Y-100356990D01*
X102830476Y-100642704D01*
X102782857Y-100737942D01*
X102735238Y-100785561D01*
X102640000Y-100833180D01*
X102497142Y-100833180D01*
X104020952Y-100833180D02*
X104020952Y-99833180D01*
X104354285Y-100547466D01*
X104687619Y-99833180D01*
X104687619Y-100833180D01*
X105163809Y-100833180D02*
X105163809Y-100166514D01*
X105163809Y-99833180D02*
X105116190Y-99880800D01*
X105163809Y-99928419D01*
X105211428Y-99880800D01*
X105163809Y-99833180D01*
X105163809Y-99928419D01*
X106068571Y-100785561D02*
X105973333Y-100833180D01*
X105782857Y-100833180D01*
X105687619Y-100785561D01*
X105640000Y-100737942D01*
X105592380Y-100642704D01*
X105592380Y-100356990D01*
X105640000Y-100261752D01*
X105687619Y-100214133D01*
X105782857Y-100166514D01*
X105973333Y-100166514D01*
X106068571Y-100214133D01*
X106497142Y-100833180D02*
X106497142Y-100166514D01*
X106497142Y-100356990D02*
X106544761Y-100261752D01*
X106592380Y-100214133D01*
X106687619Y-100166514D01*
X106782857Y-100166514D01*
X107259047Y-100833180D02*
X107163809Y-100785561D01*
X107116190Y-100737942D01*
X107068571Y-100642704D01*
X107068571Y-100356990D01*
X107116190Y-100261752D01*
X107163809Y-100214133D01*
X107259047Y-100166514D01*
X107401904Y-100166514D01*
X107497142Y-100214133D01*
X107544761Y-100261752D01*
X107592380Y-100356990D01*
X107592380Y-100642704D01*
X107544761Y-100737942D01*
X107497142Y-100785561D01*
X107401904Y-100833180D01*
X107259047Y-100833180D01*
X91071771Y-47119980D02*
X90500342Y-47119980D01*
X90786057Y-47119980D02*
X90786057Y-46119980D01*
X90690819Y-46262838D01*
X90595580Y-46358076D01*
X90500342Y-46405695D01*
X91452723Y-46215219D02*
X91500342Y-46167600D01*
X91595580Y-46119980D01*
X91833676Y-46119980D01*
X91928914Y-46167600D01*
X91976533Y-46215219D01*
X92024152Y-46310457D01*
X92024152Y-46405695D01*
X91976533Y-46548552D01*
X91405104Y-47119980D01*
X92024152Y-47119980D01*
X92357485Y-46453314D02*
X92595580Y-47119980D01*
X92833676Y-46453314D01*
X91119390Y-48729980D02*
X91024152Y-48682361D01*
X90976533Y-48634742D01*
X90928914Y-48539504D01*
X90928914Y-48253790D01*
X90976533Y-48158552D01*
X91024152Y-48110933D01*
X91119390Y-48063314D01*
X91262247Y-48063314D01*
X91357485Y-48110933D01*
X91405104Y-48158552D01*
X91452723Y-48253790D01*
X91452723Y-48539504D01*
X91405104Y-48634742D01*
X91357485Y-48682361D01*
X91262247Y-48729980D01*
X91119390Y-48729980D01*
X91881295Y-48063314D02*
X91881295Y-48729980D01*
X91881295Y-48158552D02*
X91928914Y-48110933D01*
X92024152Y-48063314D01*
X92167009Y-48063314D01*
X92262247Y-48110933D01*
X92309866Y-48206171D01*
X92309866Y-48729980D01*
D10*
%TO.C,R11*%
X134323971Y-84503390D02*
X134157304Y-84265295D01*
X134038257Y-84503390D02*
X134038257Y-84003390D01*
X134228733Y-84003390D01*
X134276352Y-84027200D01*
X134300161Y-84051009D01*
X134323971Y-84098628D01*
X134323971Y-84170057D01*
X134300161Y-84217676D01*
X134276352Y-84241485D01*
X134228733Y-84265295D01*
X134038257Y-84265295D01*
X134800161Y-84503390D02*
X134514447Y-84503390D01*
X134657304Y-84503390D02*
X134657304Y-84003390D01*
X134609685Y-84074819D01*
X134562066Y-84122438D01*
X134514447Y-84146247D01*
X135276352Y-84503390D02*
X134990638Y-84503390D01*
X135133495Y-84503390D02*
X135133495Y-84003390D01*
X135085876Y-84074819D01*
X135038257Y-84122438D01*
X134990638Y-84146247D01*
D12*
%TO.C,C2*%
X101529021Y-50505942D02*
X101481402Y-50553561D01*
X101338545Y-50601180D01*
X101243307Y-50601180D01*
X101100449Y-50553561D01*
X101005211Y-50458323D01*
X100957592Y-50363085D01*
X100909973Y-50172609D01*
X100909973Y-50029752D01*
X100957592Y-49839276D01*
X101005211Y-49744038D01*
X101100449Y-49648800D01*
X101243307Y-49601180D01*
X101338545Y-49601180D01*
X101481402Y-49648800D01*
X101529021Y-49696419D01*
X101909973Y-49696419D02*
X101957592Y-49648800D01*
X102052830Y-49601180D01*
X102290926Y-49601180D01*
X102386164Y-49648800D01*
X102433783Y-49696419D01*
X102481402Y-49791657D01*
X102481402Y-49886895D01*
X102433783Y-50029752D01*
X101862354Y-50601180D01*
X102481402Y-50601180D01*
%TO.C,J1*%
X147621666Y-44005780D02*
X147621666Y-44720066D01*
X147574047Y-44862923D01*
X147478809Y-44958161D01*
X147335952Y-45005780D01*
X147240714Y-45005780D01*
X148621666Y-45005780D02*
X148050238Y-45005780D01*
X148335952Y-45005780D02*
X148335952Y-44005780D01*
X148240714Y-44148638D01*
X148145476Y-44243876D01*
X148050238Y-44291495D01*
D13*
%TO.C,USB2*%
X153574071Y-49127057D02*
X154499357Y-49127057D01*
X154608214Y-49072628D01*
X154662642Y-49018200D01*
X154717071Y-48909342D01*
X154717071Y-48691628D01*
X154662642Y-48582771D01*
X154608214Y-48528342D01*
X154499357Y-48473914D01*
X153574071Y-48473914D01*
X154662642Y-47984057D02*
X154717071Y-47820771D01*
X154717071Y-47548628D01*
X154662642Y-47439771D01*
X154608214Y-47385342D01*
X154499357Y-47330914D01*
X154390500Y-47330914D01*
X154281642Y-47385342D01*
X154227214Y-47439771D01*
X154172785Y-47548628D01*
X154118357Y-47766342D01*
X154063928Y-47875200D01*
X154009500Y-47929628D01*
X153900642Y-47984057D01*
X153791785Y-47984057D01*
X153682928Y-47929628D01*
X153628500Y-47875200D01*
X153574071Y-47766342D01*
X153574071Y-47494200D01*
X153628500Y-47330914D01*
X154118357Y-46460057D02*
X154172785Y-46296771D01*
X154227214Y-46242342D01*
X154336071Y-46187914D01*
X154499357Y-46187914D01*
X154608214Y-46242342D01*
X154662642Y-46296771D01*
X154717071Y-46405628D01*
X154717071Y-46841057D01*
X153574071Y-46841057D01*
X153574071Y-46460057D01*
X153628500Y-46351200D01*
X153682928Y-46296771D01*
X153791785Y-46242342D01*
X153900642Y-46242342D01*
X154009500Y-46296771D01*
X154063928Y-46351200D01*
X154118357Y-46460057D01*
X154118357Y-46841057D01*
X153682928Y-45752485D02*
X153628500Y-45698057D01*
X153574071Y-45589200D01*
X153574071Y-45317057D01*
X153628500Y-45208200D01*
X153682928Y-45153771D01*
X153791785Y-45099342D01*
X153900642Y-45099342D01*
X154063928Y-45153771D01*
X154717071Y-45806914D01*
X154717071Y-45099342D01*
D12*
X159652380Y-49807523D02*
X160461904Y-49807523D01*
X160557142Y-49759904D01*
X160604761Y-49712285D01*
X160652380Y-49617047D01*
X160652380Y-49426571D01*
X160604761Y-49331333D01*
X160557142Y-49283714D01*
X160461904Y-49236095D01*
X159652380Y-49236095D01*
X160604761Y-48807523D02*
X160652380Y-48664666D01*
X160652380Y-48426571D01*
X160604761Y-48331333D01*
X160557142Y-48283714D01*
X160461904Y-48236095D01*
X160366666Y-48236095D01*
X160271428Y-48283714D01*
X160223809Y-48331333D01*
X160176190Y-48426571D01*
X160128571Y-48617047D01*
X160080952Y-48712285D01*
X160033333Y-48759904D01*
X159938095Y-48807523D01*
X159842857Y-48807523D01*
X159747619Y-48759904D01*
X159700000Y-48712285D01*
X159652380Y-48617047D01*
X159652380Y-48378952D01*
X159700000Y-48236095D01*
X160128571Y-47474190D02*
X160176190Y-47331333D01*
X160223809Y-47283714D01*
X160319047Y-47236095D01*
X160461904Y-47236095D01*
X160557142Y-47283714D01*
X160604761Y-47331333D01*
X160652380Y-47426571D01*
X160652380Y-47807523D01*
X159652380Y-47807523D01*
X159652380Y-47474190D01*
X159700000Y-47378952D01*
X159747619Y-47331333D01*
X159842857Y-47283714D01*
X159938095Y-47283714D01*
X160033333Y-47331333D01*
X160080952Y-47378952D01*
X160128571Y-47474190D01*
X160128571Y-47807523D01*
X160271428Y-46807523D02*
X160271428Y-46045619D01*
X160366666Y-45617047D02*
X160366666Y-45140857D01*
X160652380Y-45712285D02*
X159652380Y-45378952D01*
X160652380Y-45045619D01*
D10*
%TO.C,R7*%
X118788666Y-84808190D02*
X118622000Y-84570095D01*
X118502952Y-84808190D02*
X118502952Y-84308190D01*
X118693428Y-84308190D01*
X118741047Y-84332000D01*
X118764857Y-84355809D01*
X118788666Y-84403428D01*
X118788666Y-84474857D01*
X118764857Y-84522476D01*
X118741047Y-84546285D01*
X118693428Y-84570095D01*
X118502952Y-84570095D01*
X118955333Y-84308190D02*
X119288666Y-84308190D01*
X119074380Y-84808190D01*
%TO.C,R6*%
X92732990Y-76981333D02*
X92494895Y-77148000D01*
X92732990Y-77267047D02*
X92232990Y-77267047D01*
X92232990Y-77076571D01*
X92256800Y-77028952D01*
X92280609Y-77005142D01*
X92328228Y-76981333D01*
X92399657Y-76981333D01*
X92447276Y-77005142D01*
X92471085Y-77028952D01*
X92494895Y-77076571D01*
X92494895Y-77267047D01*
X92232990Y-76552761D02*
X92232990Y-76648000D01*
X92256800Y-76695619D01*
X92280609Y-76719428D01*
X92352038Y-76767047D01*
X92447276Y-76790857D01*
X92637752Y-76790857D01*
X92685371Y-76767047D01*
X92709180Y-76743238D01*
X92732990Y-76695619D01*
X92732990Y-76600380D01*
X92709180Y-76552761D01*
X92685371Y-76528952D01*
X92637752Y-76505142D01*
X92518704Y-76505142D01*
X92471085Y-76528952D01*
X92447276Y-76552761D01*
X92423466Y-76600380D01*
X92423466Y-76695619D01*
X92447276Y-76743238D01*
X92471085Y-76767047D01*
X92518704Y-76790857D01*
D12*
%TO.C,Jst1*%
X74083990Y-81545180D02*
X74083990Y-82259466D01*
X74036371Y-82402323D01*
X73941133Y-82497561D01*
X73798276Y-82545180D01*
X73703038Y-82545180D01*
X74512561Y-82497561D02*
X74607800Y-82545180D01*
X74798276Y-82545180D01*
X74893514Y-82497561D01*
X74941133Y-82402323D01*
X74941133Y-82354704D01*
X74893514Y-82259466D01*
X74798276Y-82211847D01*
X74655419Y-82211847D01*
X74560180Y-82164228D01*
X74512561Y-82068990D01*
X74512561Y-82021371D01*
X74560180Y-81926133D01*
X74655419Y-81878514D01*
X74798276Y-81878514D01*
X74893514Y-81926133D01*
X75226847Y-81878514D02*
X75607800Y-81878514D01*
X75369704Y-81545180D02*
X75369704Y-82402323D01*
X75417323Y-82497561D01*
X75512561Y-82545180D01*
X75607800Y-82545180D01*
X76464942Y-82545180D02*
X75893514Y-82545180D01*
X76179228Y-82545180D02*
X76179228Y-81545180D01*
X76083990Y-81688038D01*
X75988752Y-81783276D01*
X75893514Y-81830895D01*
D13*
%TO.C,D3*%
X130037942Y-94878071D02*
X130037942Y-93735071D01*
X130310085Y-93735071D01*
X130473371Y-93789500D01*
X130582228Y-93898357D01*
X130636657Y-94007214D01*
X130691085Y-94224928D01*
X130691085Y-94388214D01*
X130636657Y-94605928D01*
X130582228Y-94714785D01*
X130473371Y-94823642D01*
X130310085Y-94878071D01*
X130037942Y-94878071D01*
X131072085Y-93735071D02*
X131779657Y-93735071D01*
X131398657Y-94170500D01*
X131561942Y-94170500D01*
X131670800Y-94224928D01*
X131725228Y-94279357D01*
X131779657Y-94388214D01*
X131779657Y-94660357D01*
X131725228Y-94769214D01*
X131670800Y-94823642D01*
X131561942Y-94878071D01*
X131235371Y-94878071D01*
X131126514Y-94823642D01*
X131072085Y-94769214D01*
D12*
X129190952Y-87590380D02*
X129857619Y-87590380D01*
X129429047Y-88590380D01*
X130190952Y-88542761D02*
X130286190Y-88590380D01*
X130476666Y-88590380D01*
X130571904Y-88542761D01*
X130619523Y-88447523D01*
X130619523Y-88399904D01*
X130571904Y-88304666D01*
X130476666Y-88257047D01*
X130333809Y-88257047D01*
X130238571Y-88209428D01*
X130190952Y-88114190D01*
X130190952Y-88066571D01*
X130238571Y-87971333D01*
X130333809Y-87923714D01*
X130476666Y-87923714D01*
X130571904Y-87971333D01*
X131429047Y-88542761D02*
X131333809Y-88590380D01*
X131143333Y-88590380D01*
X131048095Y-88542761D01*
X131000476Y-88447523D01*
X131000476Y-88066571D01*
X131048095Y-87971333D01*
X131143333Y-87923714D01*
X131333809Y-87923714D01*
X131429047Y-87971333D01*
X131476666Y-88066571D01*
X131476666Y-88161809D01*
X131000476Y-88257047D01*
X132333809Y-87923714D02*
X132333809Y-88733238D01*
X132286190Y-88828476D01*
X132238571Y-88876095D01*
X132143333Y-88923714D01*
X132000476Y-88923714D01*
X131905238Y-88876095D01*
X132333809Y-88542761D02*
X132238571Y-88590380D01*
X132048095Y-88590380D01*
X131952857Y-88542761D01*
X131905238Y-88495142D01*
X131857619Y-88399904D01*
X131857619Y-88114190D01*
X131905238Y-88018952D01*
X131952857Y-87971333D01*
X132048095Y-87923714D01*
X132238571Y-87923714D01*
X132333809Y-87971333D01*
D10*
%TO.C,C3*%
X143477466Y-69926971D02*
X143453657Y-69950780D01*
X143382228Y-69974590D01*
X143334609Y-69974590D01*
X143263180Y-69950780D01*
X143215561Y-69903161D01*
X143191752Y-69855542D01*
X143167942Y-69760304D01*
X143167942Y-69688876D01*
X143191752Y-69593638D01*
X143215561Y-69546019D01*
X143263180Y-69498400D01*
X143334609Y-69474590D01*
X143382228Y-69474590D01*
X143453657Y-69498400D01*
X143477466Y-69522209D01*
X143644133Y-69474590D02*
X143953657Y-69474590D01*
X143786990Y-69665066D01*
X143858419Y-69665066D01*
X143906038Y-69688876D01*
X143929847Y-69712685D01*
X143953657Y-69760304D01*
X143953657Y-69879352D01*
X143929847Y-69926971D01*
X143906038Y-69950780D01*
X143858419Y-69974590D01*
X143715561Y-69974590D01*
X143667942Y-69950780D01*
X143644133Y-69926971D01*
D12*
%TO.C,B1*%
X131167238Y-43108571D02*
X131310095Y-43156190D01*
X131357714Y-43203809D01*
X131405333Y-43299047D01*
X131405333Y-43441904D01*
X131357714Y-43537142D01*
X131310095Y-43584761D01*
X131214857Y-43632380D01*
X130833904Y-43632380D01*
X130833904Y-42632380D01*
X131167238Y-42632380D01*
X131262476Y-42680000D01*
X131310095Y-42727619D01*
X131357714Y-42822857D01*
X131357714Y-42918095D01*
X131310095Y-43013333D01*
X131262476Y-43060952D01*
X131167238Y-43108571D01*
X130833904Y-43108571D01*
X132357714Y-43632380D02*
X131786285Y-43632380D01*
X132072000Y-43632380D02*
X132072000Y-42632380D01*
X131976761Y-42775238D01*
X131881523Y-42870476D01*
X131786285Y-42918095D01*
%TO.C,Y1*%
X148469409Y-85624990D02*
X148469409Y-86101180D01*
X148136076Y-85101180D02*
X148469409Y-85624990D01*
X148802742Y-85101180D01*
X149659885Y-86101180D02*
X149088457Y-86101180D01*
X149374171Y-86101180D02*
X149374171Y-85101180D01*
X149278933Y-85244038D01*
X149183695Y-85339276D01*
X149088457Y-85386895D01*
D10*
%TO.C,R12*%
X125662571Y-84808190D02*
X125495904Y-84570095D01*
X125376857Y-84808190D02*
X125376857Y-84308190D01*
X125567333Y-84308190D01*
X125614952Y-84332000D01*
X125638761Y-84355809D01*
X125662571Y-84403428D01*
X125662571Y-84474857D01*
X125638761Y-84522476D01*
X125614952Y-84546285D01*
X125567333Y-84570095D01*
X125376857Y-84570095D01*
X126138761Y-84808190D02*
X125853047Y-84808190D01*
X125995904Y-84808190D02*
X125995904Y-84308190D01*
X125948285Y-84379619D01*
X125900666Y-84427238D01*
X125853047Y-84451047D01*
X126329238Y-84355809D02*
X126353047Y-84332000D01*
X126400666Y-84308190D01*
X126519714Y-84308190D01*
X126567333Y-84332000D01*
X126591142Y-84355809D01*
X126614952Y-84403428D01*
X126614952Y-84451047D01*
X126591142Y-84522476D01*
X126305428Y-84808190D01*
X126614952Y-84808190D01*
%TO.C,R2*%
X92732990Y-92476333D02*
X92494895Y-92643000D01*
X92732990Y-92762047D02*
X92232990Y-92762047D01*
X92232990Y-92571571D01*
X92256800Y-92523952D01*
X92280609Y-92500142D01*
X92328228Y-92476333D01*
X92399657Y-92476333D01*
X92447276Y-92500142D01*
X92471085Y-92523952D01*
X92494895Y-92571571D01*
X92494895Y-92762047D01*
X92280609Y-92285857D02*
X92256800Y-92262047D01*
X92232990Y-92214428D01*
X92232990Y-92095380D01*
X92256800Y-92047761D01*
X92280609Y-92023952D01*
X92328228Y-92000142D01*
X92375847Y-92000142D01*
X92447276Y-92023952D01*
X92732990Y-92309666D01*
X92732990Y-92000142D01*
%TO.C,C5*%
X141216866Y-77623171D02*
X141193057Y-77646980D01*
X141121628Y-77670790D01*
X141074009Y-77670790D01*
X141002580Y-77646980D01*
X140954961Y-77599361D01*
X140931152Y-77551742D01*
X140907342Y-77456504D01*
X140907342Y-77385076D01*
X140931152Y-77289838D01*
X140954961Y-77242219D01*
X141002580Y-77194600D01*
X141074009Y-77170790D01*
X141121628Y-77170790D01*
X141193057Y-77194600D01*
X141216866Y-77218409D01*
X141669247Y-77170790D02*
X141431152Y-77170790D01*
X141407342Y-77408885D01*
X141431152Y-77385076D01*
X141478771Y-77361266D01*
X141597819Y-77361266D01*
X141645438Y-77385076D01*
X141669247Y-77408885D01*
X141693057Y-77456504D01*
X141693057Y-77575552D01*
X141669247Y-77623171D01*
X141645438Y-77646980D01*
X141597819Y-77670790D01*
X141478771Y-77670790D01*
X141431152Y-77646980D01*
X141407342Y-77623171D01*
D13*
%TO.C,USB3*%
X153574071Y-69127057D02*
X154499357Y-69127057D01*
X154608214Y-69072628D01*
X154662642Y-69018200D01*
X154717071Y-68909342D01*
X154717071Y-68691628D01*
X154662642Y-68582771D01*
X154608214Y-68528342D01*
X154499357Y-68473914D01*
X153574071Y-68473914D01*
X154662642Y-67984057D02*
X154717071Y-67820771D01*
X154717071Y-67548628D01*
X154662642Y-67439771D01*
X154608214Y-67385342D01*
X154499357Y-67330914D01*
X154390500Y-67330914D01*
X154281642Y-67385342D01*
X154227214Y-67439771D01*
X154172785Y-67548628D01*
X154118357Y-67766342D01*
X154063928Y-67875200D01*
X154009500Y-67929628D01*
X153900642Y-67984057D01*
X153791785Y-67984057D01*
X153682928Y-67929628D01*
X153628500Y-67875200D01*
X153574071Y-67766342D01*
X153574071Y-67494200D01*
X153628500Y-67330914D01*
X154118357Y-66460057D02*
X154172785Y-66296771D01*
X154227214Y-66242342D01*
X154336071Y-66187914D01*
X154499357Y-66187914D01*
X154608214Y-66242342D01*
X154662642Y-66296771D01*
X154717071Y-66405628D01*
X154717071Y-66841057D01*
X153574071Y-66841057D01*
X153574071Y-66460057D01*
X153628500Y-66351200D01*
X153682928Y-66296771D01*
X153791785Y-66242342D01*
X153900642Y-66242342D01*
X154009500Y-66296771D01*
X154063928Y-66351200D01*
X154118357Y-66460057D01*
X154118357Y-66841057D01*
X153574071Y-65806914D02*
X153574071Y-65099342D01*
X154009500Y-65480342D01*
X154009500Y-65317057D01*
X154063928Y-65208200D01*
X154118357Y-65153771D01*
X154227214Y-65099342D01*
X154499357Y-65099342D01*
X154608214Y-65153771D01*
X154662642Y-65208200D01*
X154717071Y-65317057D01*
X154717071Y-65643628D01*
X154662642Y-65752485D01*
X154608214Y-65806914D01*
D12*
X159652380Y-69807523D02*
X160461904Y-69807523D01*
X160557142Y-69759904D01*
X160604761Y-69712285D01*
X160652380Y-69617047D01*
X160652380Y-69426571D01*
X160604761Y-69331333D01*
X160557142Y-69283714D01*
X160461904Y-69236095D01*
X159652380Y-69236095D01*
X160604761Y-68807523D02*
X160652380Y-68664666D01*
X160652380Y-68426571D01*
X160604761Y-68331333D01*
X160557142Y-68283714D01*
X160461904Y-68236095D01*
X160366666Y-68236095D01*
X160271428Y-68283714D01*
X160223809Y-68331333D01*
X160176190Y-68426571D01*
X160128571Y-68617047D01*
X160080952Y-68712285D01*
X160033333Y-68759904D01*
X159938095Y-68807523D01*
X159842857Y-68807523D01*
X159747619Y-68759904D01*
X159700000Y-68712285D01*
X159652380Y-68617047D01*
X159652380Y-68378952D01*
X159700000Y-68236095D01*
X160128571Y-67474190D02*
X160176190Y-67331333D01*
X160223809Y-67283714D01*
X160319047Y-67236095D01*
X160461904Y-67236095D01*
X160557142Y-67283714D01*
X160604761Y-67331333D01*
X160652380Y-67426571D01*
X160652380Y-67807523D01*
X159652380Y-67807523D01*
X159652380Y-67474190D01*
X159700000Y-67378952D01*
X159747619Y-67331333D01*
X159842857Y-67283714D01*
X159938095Y-67283714D01*
X160033333Y-67331333D01*
X160080952Y-67378952D01*
X160128571Y-67474190D01*
X160128571Y-67807523D01*
X160271428Y-66807523D02*
X160271428Y-66045619D01*
X160366666Y-65617047D02*
X160366666Y-65140857D01*
X160652380Y-65712285D02*
X159652380Y-65378952D01*
X160652380Y-65045619D01*
D14*
%TO.C,A2*%
X58631200Y-29225066D02*
X58964533Y-29225066D01*
X58564533Y-29425066D02*
X58797866Y-28725066D01*
X59031200Y-29425066D01*
X59231200Y-28791733D02*
X59264533Y-28758400D01*
X59331200Y-28725066D01*
X59497866Y-28725066D01*
X59564533Y-28758400D01*
X59597866Y-28791733D01*
X59631200Y-28858400D01*
X59631200Y-28925066D01*
X59597866Y-29025066D01*
X59197866Y-29425066D01*
X59631200Y-29425066D01*
D11*
X69619047Y-31184828D02*
X70380952Y-31184828D01*
X61619047Y-31184828D02*
X62380952Y-31184828D01*
X62000000Y-31565780D02*
X62000000Y-30803876D01*
D10*
%TO.C,R5*%
X92732990Y-80093333D02*
X92494895Y-80260000D01*
X92732990Y-80379047D02*
X92232990Y-80379047D01*
X92232990Y-80188571D01*
X92256800Y-80140952D01*
X92280609Y-80117142D01*
X92328228Y-80093333D01*
X92399657Y-80093333D01*
X92447276Y-80117142D01*
X92471085Y-80140952D01*
X92494895Y-80188571D01*
X92494895Y-80379047D01*
X92232990Y-79640952D02*
X92232990Y-79879047D01*
X92471085Y-79902857D01*
X92447276Y-79879047D01*
X92423466Y-79831428D01*
X92423466Y-79712380D01*
X92447276Y-79664761D01*
X92471085Y-79640952D01*
X92518704Y-79617142D01*
X92637752Y-79617142D01*
X92685371Y-79640952D01*
X92709180Y-79664761D01*
X92732990Y-79712380D01*
X92732990Y-79831428D01*
X92709180Y-79879047D01*
X92685371Y-79902857D01*
%TO.C,R3*%
X92732990Y-84665333D02*
X92494895Y-84832000D01*
X92732990Y-84951047D02*
X92232990Y-84951047D01*
X92232990Y-84760571D01*
X92256800Y-84712952D01*
X92280609Y-84689142D01*
X92328228Y-84665333D01*
X92399657Y-84665333D01*
X92447276Y-84689142D01*
X92471085Y-84712952D01*
X92494895Y-84760571D01*
X92494895Y-84951047D01*
X92232990Y-84498666D02*
X92232990Y-84189142D01*
X92423466Y-84355809D01*
X92423466Y-84284380D01*
X92447276Y-84236761D01*
X92471085Y-84212952D01*
X92518704Y-84189142D01*
X92637752Y-84189142D01*
X92685371Y-84212952D01*
X92709180Y-84236761D01*
X92732990Y-84284380D01*
X92732990Y-84427238D01*
X92709180Y-84474857D01*
X92685371Y-84498666D01*
D12*
%TO.C,F1*%
X85061466Y-93679971D02*
X84728133Y-93679971D01*
X84728133Y-94203780D02*
X84728133Y-93203780D01*
X85204323Y-93203780D01*
X86109085Y-94203780D02*
X85537657Y-94203780D01*
X85823371Y-94203780D02*
X85823371Y-93203780D01*
X85728133Y-93346638D01*
X85632895Y-93441876D01*
X85537657Y-93489495D01*
D10*
%TO.C,R10*%
X132698371Y-84503390D02*
X132531704Y-84265295D01*
X132412657Y-84503390D02*
X132412657Y-84003390D01*
X132603133Y-84003390D01*
X132650752Y-84027200D01*
X132674561Y-84051009D01*
X132698371Y-84098628D01*
X132698371Y-84170057D01*
X132674561Y-84217676D01*
X132650752Y-84241485D01*
X132603133Y-84265295D01*
X132412657Y-84265295D01*
X133174561Y-84503390D02*
X132888847Y-84503390D01*
X133031704Y-84503390D02*
X133031704Y-84003390D01*
X132984085Y-84074819D01*
X132936466Y-84122438D01*
X132888847Y-84146247D01*
X133484085Y-84003390D02*
X133531704Y-84003390D01*
X133579323Y-84027200D01*
X133603133Y-84051009D01*
X133626942Y-84098628D01*
X133650752Y-84193866D01*
X133650752Y-84312914D01*
X133626942Y-84408152D01*
X133603133Y-84455771D01*
X133579323Y-84479580D01*
X133531704Y-84503390D01*
X133484085Y-84503390D01*
X133436466Y-84479580D01*
X133412657Y-84455771D01*
X133388847Y-84408152D01*
X133365038Y-84312914D01*
X133365038Y-84193866D01*
X133388847Y-84098628D01*
X133412657Y-84051009D01*
X133436466Y-84027200D01*
X133484085Y-84003390D01*
%TO.C,R14*%
X131072771Y-84503390D02*
X130906104Y-84265295D01*
X130787057Y-84503390D02*
X130787057Y-84003390D01*
X130977533Y-84003390D01*
X131025152Y-84027200D01*
X131048961Y-84051009D01*
X131072771Y-84098628D01*
X131072771Y-84170057D01*
X131048961Y-84217676D01*
X131025152Y-84241485D01*
X130977533Y-84265295D01*
X130787057Y-84265295D01*
X131548961Y-84503390D02*
X131263247Y-84503390D01*
X131406104Y-84503390D02*
X131406104Y-84003390D01*
X131358485Y-84074819D01*
X131310866Y-84122438D01*
X131263247Y-84146247D01*
X131977533Y-84170057D02*
X131977533Y-84503390D01*
X131858485Y-83979580D02*
X131739438Y-84336723D01*
X132048961Y-84336723D01*
D14*
%TO.C,A4*%
X58631200Y-49240266D02*
X58964533Y-49240266D01*
X58564533Y-49440266D02*
X58797866Y-48740266D01*
X59031200Y-49440266D01*
X59564533Y-48973600D02*
X59564533Y-49440266D01*
X59397866Y-48706933D02*
X59231200Y-49206933D01*
X59664533Y-49206933D01*
D11*
X61619047Y-51184828D02*
X62380952Y-51184828D01*
X62000000Y-51565780D02*
X62000000Y-50803876D01*
X69619047Y-51184828D02*
X70380952Y-51184828D01*
D13*
%TO.C,USB1*%
X153574071Y-29127057D02*
X154499357Y-29127057D01*
X154608214Y-29072628D01*
X154662642Y-29018200D01*
X154717071Y-28909342D01*
X154717071Y-28691628D01*
X154662642Y-28582771D01*
X154608214Y-28528342D01*
X154499357Y-28473914D01*
X153574071Y-28473914D01*
X154662642Y-27984057D02*
X154717071Y-27820771D01*
X154717071Y-27548628D01*
X154662642Y-27439771D01*
X154608214Y-27385342D01*
X154499357Y-27330914D01*
X154390500Y-27330914D01*
X154281642Y-27385342D01*
X154227214Y-27439771D01*
X154172785Y-27548628D01*
X154118357Y-27766342D01*
X154063928Y-27875200D01*
X154009500Y-27929628D01*
X153900642Y-27984057D01*
X153791785Y-27984057D01*
X153682928Y-27929628D01*
X153628500Y-27875200D01*
X153574071Y-27766342D01*
X153574071Y-27494200D01*
X153628500Y-27330914D01*
X154118357Y-26460057D02*
X154172785Y-26296771D01*
X154227214Y-26242342D01*
X154336071Y-26187914D01*
X154499357Y-26187914D01*
X154608214Y-26242342D01*
X154662642Y-26296771D01*
X154717071Y-26405628D01*
X154717071Y-26841057D01*
X153574071Y-26841057D01*
X153574071Y-26460057D01*
X153628500Y-26351200D01*
X153682928Y-26296771D01*
X153791785Y-26242342D01*
X153900642Y-26242342D01*
X154009500Y-26296771D01*
X154063928Y-26351200D01*
X154118357Y-26460057D01*
X154118357Y-26841057D01*
X154717071Y-25099342D02*
X154717071Y-25752485D01*
X154717071Y-25425914D02*
X153574071Y-25425914D01*
X153737357Y-25534771D01*
X153846214Y-25643628D01*
X153900642Y-25752485D01*
D12*
X159652380Y-29807523D02*
X160461904Y-29807523D01*
X160557142Y-29759904D01*
X160604761Y-29712285D01*
X160652380Y-29617047D01*
X160652380Y-29426571D01*
X160604761Y-29331333D01*
X160557142Y-29283714D01*
X160461904Y-29236095D01*
X159652380Y-29236095D01*
X160604761Y-28807523D02*
X160652380Y-28664666D01*
X160652380Y-28426571D01*
X160604761Y-28331333D01*
X160557142Y-28283714D01*
X160461904Y-28236095D01*
X160366666Y-28236095D01*
X160271428Y-28283714D01*
X160223809Y-28331333D01*
X160176190Y-28426571D01*
X160128571Y-28617047D01*
X160080952Y-28712285D01*
X160033333Y-28759904D01*
X159938095Y-28807523D01*
X159842857Y-28807523D01*
X159747619Y-28759904D01*
X159700000Y-28712285D01*
X159652380Y-28617047D01*
X159652380Y-28378952D01*
X159700000Y-28236095D01*
X160128571Y-27474190D02*
X160176190Y-27331333D01*
X160223809Y-27283714D01*
X160319047Y-27236095D01*
X160461904Y-27236095D01*
X160557142Y-27283714D01*
X160604761Y-27331333D01*
X160652380Y-27426571D01*
X160652380Y-27807523D01*
X159652380Y-27807523D01*
X159652380Y-27474190D01*
X159700000Y-27378952D01*
X159747619Y-27331333D01*
X159842857Y-27283714D01*
X159938095Y-27283714D01*
X160033333Y-27331333D01*
X160080952Y-27378952D01*
X160128571Y-27474190D01*
X160128571Y-27807523D01*
X160271428Y-26807523D02*
X160271428Y-26045619D01*
X160366666Y-25617047D02*
X160366666Y-25140857D01*
X160652380Y-25712285D02*
X159652380Y-25378952D01*
X160652380Y-25045619D01*
%TO.C,U3*%
X132511895Y-82383380D02*
X132511895Y-83192904D01*
X132559514Y-83288142D01*
X132607133Y-83335761D01*
X132702371Y-83383380D01*
X132892847Y-83383380D01*
X132988085Y-83335761D01*
X133035704Y-83288142D01*
X133083323Y-83192904D01*
X133083323Y-82383380D01*
X133464276Y-82383380D02*
X134083323Y-82383380D01*
X133749990Y-82764333D01*
X133892847Y-82764333D01*
X133988085Y-82811952D01*
X134035704Y-82859571D01*
X134083323Y-82954809D01*
X134083323Y-83192904D01*
X134035704Y-83288142D01*
X133988085Y-83335761D01*
X133892847Y-83383380D01*
X133607133Y-83383380D01*
X133511895Y-83335761D01*
X133464276Y-83288142D01*
D10*
%TO.C,R20*%
X133282571Y-69695190D02*
X133115904Y-69457095D01*
X132996857Y-69695190D02*
X132996857Y-69195190D01*
X133187333Y-69195190D01*
X133234952Y-69219000D01*
X133258761Y-69242809D01*
X133282571Y-69290428D01*
X133282571Y-69361857D01*
X133258761Y-69409476D01*
X133234952Y-69433285D01*
X133187333Y-69457095D01*
X132996857Y-69457095D01*
X133473047Y-69242809D02*
X133496857Y-69219000D01*
X133544476Y-69195190D01*
X133663523Y-69195190D01*
X133711142Y-69219000D01*
X133734952Y-69242809D01*
X133758761Y-69290428D01*
X133758761Y-69338047D01*
X133734952Y-69409476D01*
X133449238Y-69695190D01*
X133758761Y-69695190D01*
X134068285Y-69195190D02*
X134115904Y-69195190D01*
X134163523Y-69219000D01*
X134187333Y-69242809D01*
X134211142Y-69290428D01*
X134234952Y-69385666D01*
X134234952Y-69504714D01*
X134211142Y-69599952D01*
X134187333Y-69647571D01*
X134163523Y-69671380D01*
X134115904Y-69695190D01*
X134068285Y-69695190D01*
X134020666Y-69671380D01*
X133996857Y-69647571D01*
X133973047Y-69599952D01*
X133949238Y-69504714D01*
X133949238Y-69385666D01*
X133973047Y-69290428D01*
X133996857Y-69242809D01*
X134020666Y-69219000D01*
X134068285Y-69195190D01*
D12*
%TO.C,C1*%
X101630621Y-42835142D02*
X101583002Y-42882761D01*
X101440145Y-42930380D01*
X101344907Y-42930380D01*
X101202049Y-42882761D01*
X101106811Y-42787523D01*
X101059192Y-42692285D01*
X101011573Y-42501809D01*
X101011573Y-42358952D01*
X101059192Y-42168476D01*
X101106811Y-42073238D01*
X101202049Y-41978000D01*
X101344907Y-41930380D01*
X101440145Y-41930380D01*
X101583002Y-41978000D01*
X101630621Y-42025619D01*
X102583002Y-42930380D02*
X102011573Y-42930380D01*
X102297288Y-42930380D02*
X102297288Y-41930380D01*
X102202049Y-42073238D01*
X102106811Y-42168476D01*
X102011573Y-42216095D01*
D10*
%TO.C,R17*%
X152219790Y-88789628D02*
X151981695Y-88956295D01*
X152219790Y-89075342D02*
X151719790Y-89075342D01*
X151719790Y-88884866D01*
X151743600Y-88837247D01*
X151767409Y-88813438D01*
X151815028Y-88789628D01*
X151886457Y-88789628D01*
X151934076Y-88813438D01*
X151957885Y-88837247D01*
X151981695Y-88884866D01*
X151981695Y-89075342D01*
X152219790Y-88313438D02*
X152219790Y-88599152D01*
X152219790Y-88456295D02*
X151719790Y-88456295D01*
X151791219Y-88503914D01*
X151838838Y-88551533D01*
X151862647Y-88599152D01*
X151719790Y-88146771D02*
X151719790Y-87813438D01*
X152219790Y-88027723D01*
%TO.C,C4*%
X141216866Y-74473571D02*
X141193057Y-74497380D01*
X141121628Y-74521190D01*
X141074009Y-74521190D01*
X141002580Y-74497380D01*
X140954961Y-74449761D01*
X140931152Y-74402142D01*
X140907342Y-74306904D01*
X140907342Y-74235476D01*
X140931152Y-74140238D01*
X140954961Y-74092619D01*
X141002580Y-74045000D01*
X141074009Y-74021190D01*
X141121628Y-74021190D01*
X141193057Y-74045000D01*
X141216866Y-74068809D01*
X141645438Y-74187857D02*
X141645438Y-74521190D01*
X141526390Y-73997380D02*
X141407342Y-74354523D01*
X141716866Y-74354523D01*
%TO.C,R1*%
X92732990Y-95587333D02*
X92494895Y-95754000D01*
X92732990Y-95873047D02*
X92232990Y-95873047D01*
X92232990Y-95682571D01*
X92256800Y-95634952D01*
X92280609Y-95611142D01*
X92328228Y-95587333D01*
X92399657Y-95587333D01*
X92447276Y-95611142D01*
X92471085Y-95634952D01*
X92494895Y-95682571D01*
X92494895Y-95873047D01*
X92732990Y-95111142D02*
X92732990Y-95396857D01*
X92732990Y-95254000D02*
X92232990Y-95254000D01*
X92304419Y-95301619D01*
X92352038Y-95349238D01*
X92375847Y-95396857D01*
%TO.C,Q1*%
X117198780Y-75002409D02*
X117151161Y-74978600D01*
X117103542Y-74930980D01*
X117032114Y-74859552D01*
X116984495Y-74835742D01*
X116936876Y-74835742D01*
X116960685Y-74954790D02*
X116913066Y-74930980D01*
X116865447Y-74883361D01*
X116841638Y-74788123D01*
X116841638Y-74621457D01*
X116865447Y-74526219D01*
X116913066Y-74478600D01*
X116960685Y-74454790D01*
X117055923Y-74454790D01*
X117103542Y-74478600D01*
X117151161Y-74526219D01*
X117174971Y-74621457D01*
X117174971Y-74788123D01*
X117151161Y-74883361D01*
X117103542Y-74930980D01*
X117055923Y-74954790D01*
X116960685Y-74954790D01*
X117651161Y-74954790D02*
X117365447Y-74954790D01*
X117508304Y-74954790D02*
X117508304Y-74454790D01*
X117460685Y-74526219D01*
X117413066Y-74573838D01*
X117365447Y-74597647D01*
D14*
%TO.C,A5*%
X58631200Y-59222466D02*
X58964533Y-59222466D01*
X58564533Y-59422466D02*
X58797866Y-58722466D01*
X59031200Y-59422466D01*
X59597866Y-58722466D02*
X59264533Y-58722466D01*
X59231200Y-59055800D01*
X59264533Y-59022466D01*
X59331200Y-58989133D01*
X59497866Y-58989133D01*
X59564533Y-59022466D01*
X59597866Y-59055800D01*
X59631200Y-59122466D01*
X59631200Y-59289133D01*
X59597866Y-59355800D01*
X59564533Y-59389133D01*
X59497866Y-59422466D01*
X59331200Y-59422466D01*
X59264533Y-59389133D01*
X59231200Y-59355800D01*
D11*
X61619047Y-61184828D02*
X62380952Y-61184828D01*
X62000000Y-61565780D02*
X62000000Y-60803876D01*
X69619047Y-61184828D02*
X70380952Y-61184828D01*
D10*
%TO.C,R19*%
X130132971Y-69695190D02*
X129966304Y-69457095D01*
X129847257Y-69695190D02*
X129847257Y-69195190D01*
X130037733Y-69195190D01*
X130085352Y-69219000D01*
X130109161Y-69242809D01*
X130132971Y-69290428D01*
X130132971Y-69361857D01*
X130109161Y-69409476D01*
X130085352Y-69433285D01*
X130037733Y-69457095D01*
X129847257Y-69457095D01*
X130609161Y-69695190D02*
X130323447Y-69695190D01*
X130466304Y-69695190D02*
X130466304Y-69195190D01*
X130418685Y-69266619D01*
X130371066Y-69314238D01*
X130323447Y-69338047D01*
X130847257Y-69695190D02*
X130942495Y-69695190D01*
X130990114Y-69671380D01*
X131013923Y-69647571D01*
X131061542Y-69576142D01*
X131085352Y-69480904D01*
X131085352Y-69290428D01*
X131061542Y-69242809D01*
X131037733Y-69219000D01*
X130990114Y-69195190D01*
X130894876Y-69195190D01*
X130847257Y-69219000D01*
X130823447Y-69242809D01*
X130799638Y-69290428D01*
X130799638Y-69409476D01*
X130823447Y-69457095D01*
X130847257Y-69480904D01*
X130894876Y-69504714D01*
X130990114Y-69504714D01*
X131037733Y-69480904D01*
X131061542Y-69457095D01*
X131085352Y-69409476D01*
%TO.C,C7*%
X136644866Y-69672971D02*
X136621057Y-69696780D01*
X136549628Y-69720590D01*
X136502009Y-69720590D01*
X136430580Y-69696780D01*
X136382961Y-69649161D01*
X136359152Y-69601542D01*
X136335342Y-69506304D01*
X136335342Y-69434876D01*
X136359152Y-69339638D01*
X136382961Y-69292019D01*
X136430580Y-69244400D01*
X136502009Y-69220590D01*
X136549628Y-69220590D01*
X136621057Y-69244400D01*
X136644866Y-69268209D01*
X136811533Y-69220590D02*
X137144866Y-69220590D01*
X136930580Y-69720590D01*
D12*
%TO.C,SW2*%
X161582266Y-98368161D02*
X161725123Y-98415780D01*
X161963219Y-98415780D01*
X162058457Y-98368161D01*
X162106076Y-98320542D01*
X162153695Y-98225304D01*
X162153695Y-98130066D01*
X162106076Y-98034828D01*
X162058457Y-97987209D01*
X161963219Y-97939590D01*
X161772742Y-97891971D01*
X161677504Y-97844352D01*
X161629885Y-97796733D01*
X161582266Y-97701495D01*
X161582266Y-97606257D01*
X161629885Y-97511019D01*
X161677504Y-97463400D01*
X161772742Y-97415780D01*
X162010838Y-97415780D01*
X162153695Y-97463400D01*
X162487028Y-97415780D02*
X162725123Y-98415780D01*
X162915600Y-97701495D01*
X163106076Y-98415780D01*
X163344171Y-97415780D01*
X163677504Y-97511019D02*
X163725123Y-97463400D01*
X163820361Y-97415780D01*
X164058457Y-97415780D01*
X164153695Y-97463400D01*
X164201314Y-97511019D01*
X164248933Y-97606257D01*
X164248933Y-97701495D01*
X164201314Y-97844352D01*
X163629885Y-98415780D01*
X164248933Y-98415780D01*
D10*
%TO.C,R4*%
X92732990Y-87840333D02*
X92494895Y-88007000D01*
X92732990Y-88126047D02*
X92232990Y-88126047D01*
X92232990Y-87935571D01*
X92256800Y-87887952D01*
X92280609Y-87864142D01*
X92328228Y-87840333D01*
X92399657Y-87840333D01*
X92447276Y-87864142D01*
X92471085Y-87887952D01*
X92494895Y-87935571D01*
X92494895Y-88126047D01*
X92399657Y-87411761D02*
X92732990Y-87411761D01*
X92209180Y-87530809D02*
X92566323Y-87649857D01*
X92566323Y-87340333D01*
D14*
%TO.C,A3*%
X58631200Y-39232666D02*
X58964533Y-39232666D01*
X58564533Y-39432666D02*
X58797866Y-38732666D01*
X59031200Y-39432666D01*
X59197866Y-38732666D02*
X59631200Y-38732666D01*
X59397866Y-38999333D01*
X59497866Y-38999333D01*
X59564533Y-39032666D01*
X59597866Y-39066000D01*
X59631200Y-39132666D01*
X59631200Y-39299333D01*
X59597866Y-39366000D01*
X59564533Y-39399333D01*
X59497866Y-39432666D01*
X59297866Y-39432666D01*
X59231200Y-39399333D01*
X59197866Y-39366000D01*
D11*
X69619047Y-41184828D02*
X70380952Y-41184828D01*
X61619047Y-41184828D02*
X62380952Y-41184828D01*
X62000000Y-41565780D02*
X62000000Y-40803876D01*
D12*
%TO.C,Converter1*%
X115756865Y-51106615D02*
X115719369Y-51144110D01*
X115606883Y-51181605D01*
X115531893Y-51181605D01*
X115419407Y-51144110D01*
X115344416Y-51069119D01*
X115306921Y-50994129D01*
X115269425Y-50844147D01*
X115269425Y-50731661D01*
X115306921Y-50581680D01*
X115344416Y-50506689D01*
X115419407Y-50431699D01*
X115531893Y-50394203D01*
X115606883Y-50394203D01*
X115719369Y-50431699D01*
X115756865Y-50469194D01*
X116206809Y-51181605D02*
X116131818Y-51144110D01*
X116094323Y-51106615D01*
X116056827Y-51031624D01*
X116056827Y-50806652D01*
X116094323Y-50731661D01*
X116131818Y-50694166D01*
X116206809Y-50656671D01*
X116319295Y-50656671D01*
X116394285Y-50694166D01*
X116431781Y-50731661D01*
X116469276Y-50806652D01*
X116469276Y-51031624D01*
X116431781Y-51106615D01*
X116394285Y-51144110D01*
X116319295Y-51181605D01*
X116206809Y-51181605D01*
X116806734Y-50656671D02*
X116806734Y-51181605D01*
X116806734Y-50731661D02*
X116844229Y-50694166D01*
X116919220Y-50656671D01*
X117031706Y-50656671D01*
X117106697Y-50694166D01*
X117144192Y-50769157D01*
X117144192Y-51181605D01*
X117444155Y-50656671D02*
X117631631Y-51181605D01*
X117819108Y-50656671D01*
X118419033Y-51144110D02*
X118344043Y-51181605D01*
X118194061Y-51181605D01*
X118119071Y-51144110D01*
X118081575Y-51069119D01*
X118081575Y-50769157D01*
X118119071Y-50694166D01*
X118194061Y-50656671D01*
X118344043Y-50656671D01*
X118419033Y-50694166D01*
X118456529Y-50769157D01*
X118456529Y-50844147D01*
X118081575Y-50919138D01*
X118793987Y-51181605D02*
X118793987Y-50656671D01*
X118793987Y-50806652D02*
X118831482Y-50731661D01*
X118868977Y-50694166D01*
X118943968Y-50656671D01*
X119018959Y-50656671D01*
X119168940Y-50656671D02*
X119468903Y-50656671D01*
X119281426Y-50394203D02*
X119281426Y-51069119D01*
X119318921Y-51144110D01*
X119393912Y-51181605D01*
X119468903Y-51181605D01*
X120031333Y-51144110D02*
X119956342Y-51181605D01*
X119806361Y-51181605D01*
X119731370Y-51144110D01*
X119693875Y-51069119D01*
X119693875Y-50769157D01*
X119731370Y-50694166D01*
X119806361Y-50656671D01*
X119956342Y-50656671D01*
X120031333Y-50694166D01*
X120068828Y-50769157D01*
X120068828Y-50844147D01*
X119693875Y-50919138D01*
X120406286Y-51181605D02*
X120406286Y-50656671D01*
X120406286Y-50806652D02*
X120443781Y-50731661D01*
X120481277Y-50694166D01*
X120556267Y-50656671D01*
X120631258Y-50656671D01*
X121306174Y-51181605D02*
X120856230Y-51181605D01*
X121081202Y-51181605D02*
X121081202Y-50394203D01*
X121006211Y-50506689D01*
X120931221Y-50581680D01*
X120856230Y-50619175D01*
D10*
%TO.C,R15*%
X121776371Y-73479790D02*
X121609704Y-73241695D01*
X121490657Y-73479790D02*
X121490657Y-72979790D01*
X121681133Y-72979790D01*
X121728752Y-73003600D01*
X121752561Y-73027409D01*
X121776371Y-73075028D01*
X121776371Y-73146457D01*
X121752561Y-73194076D01*
X121728752Y-73217885D01*
X121681133Y-73241695D01*
X121490657Y-73241695D01*
X122252561Y-73479790D02*
X121966847Y-73479790D01*
X122109704Y-73479790D02*
X122109704Y-72979790D01*
X122062085Y-73051219D01*
X122014466Y-73098838D01*
X121966847Y-73122647D01*
X122704942Y-72979790D02*
X122466847Y-72979790D01*
X122443038Y-73217885D01*
X122466847Y-73194076D01*
X122514466Y-73170266D01*
X122633514Y-73170266D01*
X122681133Y-73194076D01*
X122704942Y-73217885D01*
X122728752Y-73265504D01*
X122728752Y-73384552D01*
X122704942Y-73432171D01*
X122681133Y-73455980D01*
X122633514Y-73479790D01*
X122514466Y-73479790D01*
X122466847Y-73455980D01*
X122443038Y-73432171D01*
%TO.C,R9*%
X122090666Y-84808190D02*
X121924000Y-84570095D01*
X121804952Y-84808190D02*
X121804952Y-84308190D01*
X121995428Y-84308190D01*
X122043047Y-84332000D01*
X122066857Y-84355809D01*
X122090666Y-84403428D01*
X122090666Y-84474857D01*
X122066857Y-84522476D01*
X122043047Y-84546285D01*
X121995428Y-84570095D01*
X121804952Y-84570095D01*
X122328761Y-84808190D02*
X122424000Y-84808190D01*
X122471619Y-84784380D01*
X122495428Y-84760571D01*
X122543047Y-84689142D01*
X122566857Y-84593904D01*
X122566857Y-84403428D01*
X122543047Y-84355809D01*
X122519238Y-84332000D01*
X122471619Y-84308190D01*
X122376380Y-84308190D01*
X122328761Y-84332000D01*
X122304952Y-84355809D01*
X122281142Y-84403428D01*
X122281142Y-84522476D01*
X122304952Y-84570095D01*
X122328761Y-84593904D01*
X122376380Y-84617714D01*
X122471619Y-84617714D01*
X122519238Y-84593904D01*
X122543047Y-84570095D01*
X122566857Y-84522476D01*
D14*
%TO.C,A1*%
X58631200Y-19217466D02*
X58964533Y-19217466D01*
X58564533Y-19417466D02*
X58797866Y-18717466D01*
X59031200Y-19417466D01*
X59631200Y-19417466D02*
X59231200Y-19417466D01*
X59431200Y-19417466D02*
X59431200Y-18717466D01*
X59364533Y-18817466D01*
X59297866Y-18884133D01*
X59231200Y-18917466D01*
D11*
X61619047Y-21184828D02*
X62380952Y-21184828D01*
X62000000Y-21565780D02*
X62000000Y-20803876D01*
X69619047Y-21184828D02*
X70380952Y-21184828D01*
D10*
%TO.C,R13*%
X127313571Y-84808190D02*
X127146904Y-84570095D01*
X127027857Y-84808190D02*
X127027857Y-84308190D01*
X127218333Y-84308190D01*
X127265952Y-84332000D01*
X127289761Y-84355809D01*
X127313571Y-84403428D01*
X127313571Y-84474857D01*
X127289761Y-84522476D01*
X127265952Y-84546285D01*
X127218333Y-84570095D01*
X127027857Y-84570095D01*
X127789761Y-84808190D02*
X127504047Y-84808190D01*
X127646904Y-84808190D02*
X127646904Y-84308190D01*
X127599285Y-84379619D01*
X127551666Y-84427238D01*
X127504047Y-84451047D01*
X127956428Y-84308190D02*
X128265952Y-84308190D01*
X128099285Y-84498666D01*
X128170714Y-84498666D01*
X128218333Y-84522476D01*
X128242142Y-84546285D01*
X128265952Y-84593904D01*
X128265952Y-84712952D01*
X128242142Y-84760571D01*
X128218333Y-84784380D01*
X128170714Y-84808190D01*
X128027857Y-84808190D01*
X127980238Y-84784380D01*
X127956428Y-84760571D01*
D12*
%TO.C,Sw1*%
X83702685Y-42898961D02*
X83845542Y-42946580D01*
X84083638Y-42946580D01*
X84178876Y-42898961D01*
X84226495Y-42851342D01*
X84274114Y-42756104D01*
X84274114Y-42660866D01*
X84226495Y-42565628D01*
X84178876Y-42518009D01*
X84083638Y-42470390D01*
X83893161Y-42422771D01*
X83797923Y-42375152D01*
X83750304Y-42327533D01*
X83702685Y-42232295D01*
X83702685Y-42137057D01*
X83750304Y-42041819D01*
X83797923Y-41994200D01*
X83893161Y-41946580D01*
X84131257Y-41946580D01*
X84274114Y-41994200D01*
X84607447Y-42279914D02*
X84797923Y-42946580D01*
X84988400Y-42470390D01*
X85178876Y-42946580D01*
X85369352Y-42279914D01*
X86274114Y-42946580D02*
X85702685Y-42946580D01*
X85988400Y-42946580D02*
X85988400Y-41946580D01*
X85893161Y-42089438D01*
X85797923Y-42184676D01*
X85702685Y-42232295D01*
%TO.C,U2*%
X146507295Y-70394580D02*
X146507295Y-71204104D01*
X146554914Y-71299342D01*
X146602533Y-71346961D01*
X146697771Y-71394580D01*
X146888247Y-71394580D01*
X146983485Y-71346961D01*
X147031104Y-71299342D01*
X147078723Y-71204104D01*
X147078723Y-70394580D01*
X147507295Y-70489819D02*
X147554914Y-70442200D01*
X147650152Y-70394580D01*
X147888247Y-70394580D01*
X147983485Y-70442200D01*
X148031104Y-70489819D01*
X148078723Y-70585057D01*
X148078723Y-70680295D01*
X148031104Y-70823152D01*
X147459676Y-71394580D01*
X148078723Y-71394580D01*
D10*
%TO.C,R16*%
X123427371Y-73479790D02*
X123260704Y-73241695D01*
X123141657Y-73479790D02*
X123141657Y-72979790D01*
X123332133Y-72979790D01*
X123379752Y-73003600D01*
X123403561Y-73027409D01*
X123427371Y-73075028D01*
X123427371Y-73146457D01*
X123403561Y-73194076D01*
X123379752Y-73217885D01*
X123332133Y-73241695D01*
X123141657Y-73241695D01*
X123903561Y-73479790D02*
X123617847Y-73479790D01*
X123760704Y-73479790D02*
X123760704Y-72979790D01*
X123713085Y-73051219D01*
X123665466Y-73098838D01*
X123617847Y-73122647D01*
X124332133Y-72979790D02*
X124236895Y-72979790D01*
X124189276Y-73003600D01*
X124165466Y-73027409D01*
X124117847Y-73098838D01*
X124094038Y-73194076D01*
X124094038Y-73384552D01*
X124117847Y-73432171D01*
X124141657Y-73455980D01*
X124189276Y-73479790D01*
X124284514Y-73479790D01*
X124332133Y-73455980D01*
X124355942Y-73432171D01*
X124379752Y-73384552D01*
X124379752Y-73265504D01*
X124355942Y-73217885D01*
X124332133Y-73194076D01*
X124284514Y-73170266D01*
X124189276Y-73170266D01*
X124141657Y-73194076D01*
X124117847Y-73217885D01*
X124094038Y-73265504D01*
D12*
%TO.C,Batt1*%
X65837428Y-93933971D02*
X65980285Y-93981590D01*
X66027904Y-94029209D01*
X66075523Y-94124447D01*
X66075523Y-94267304D01*
X66027904Y-94362542D01*
X65980285Y-94410161D01*
X65885047Y-94457780D01*
X65504095Y-94457780D01*
X65504095Y-93457780D01*
X65837428Y-93457780D01*
X65932666Y-93505400D01*
X65980285Y-93553019D01*
X66027904Y-93648257D01*
X66027904Y-93743495D01*
X65980285Y-93838733D01*
X65932666Y-93886352D01*
X65837428Y-93933971D01*
X65504095Y-93933971D01*
X66932666Y-94457780D02*
X66932666Y-93933971D01*
X66885047Y-93838733D01*
X66789809Y-93791114D01*
X66599333Y-93791114D01*
X66504095Y-93838733D01*
X66932666Y-94410161D02*
X66837428Y-94457780D01*
X66599333Y-94457780D01*
X66504095Y-94410161D01*
X66456476Y-94314923D01*
X66456476Y-94219685D01*
X66504095Y-94124447D01*
X66599333Y-94076828D01*
X66837428Y-94076828D01*
X66932666Y-94029209D01*
X67266000Y-93791114D02*
X67646952Y-93791114D01*
X67408857Y-93457780D02*
X67408857Y-94314923D01*
X67456476Y-94410161D01*
X67551714Y-94457780D01*
X67646952Y-94457780D01*
X67837428Y-93791114D02*
X68218380Y-93791114D01*
X67980285Y-93457780D02*
X67980285Y-94314923D01*
X68027904Y-94410161D01*
X68123142Y-94457780D01*
X68218380Y-94457780D01*
X69075523Y-94457780D02*
X68504095Y-94457780D01*
X68789809Y-94457780D02*
X68789809Y-93457780D01*
X68694571Y-93600638D01*
X68599333Y-93695876D01*
X68504095Y-93743495D01*
D10*
%TO.C,C6*%
X141216866Y-80772771D02*
X141193057Y-80796580D01*
X141121628Y-80820390D01*
X141074009Y-80820390D01*
X141002580Y-80796580D01*
X140954961Y-80748961D01*
X140931152Y-80701342D01*
X140907342Y-80606104D01*
X140907342Y-80534676D01*
X140931152Y-80439438D01*
X140954961Y-80391819D01*
X141002580Y-80344200D01*
X141074009Y-80320390D01*
X141121628Y-80320390D01*
X141193057Y-80344200D01*
X141216866Y-80368009D01*
X141645438Y-80320390D02*
X141550200Y-80320390D01*
X141502580Y-80344200D01*
X141478771Y-80368009D01*
X141431152Y-80439438D01*
X141407342Y-80534676D01*
X141407342Y-80725152D01*
X141431152Y-80772771D01*
X141454961Y-80796580D01*
X141502580Y-80820390D01*
X141597819Y-80820390D01*
X141645438Y-80796580D01*
X141669247Y-80772771D01*
X141693057Y-80725152D01*
X141693057Y-80606104D01*
X141669247Y-80558485D01*
X141645438Y-80534676D01*
X141597819Y-80510866D01*
X141502580Y-80510866D01*
X141454961Y-80534676D01*
X141431152Y-80558485D01*
X141407342Y-80606104D01*
D12*
%TO.C,J2*%
X73098066Y-90054180D02*
X73098066Y-90768466D01*
X73050447Y-90911323D01*
X72955209Y-91006561D01*
X72812352Y-91054180D01*
X72717114Y-91054180D01*
X73526638Y-90149419D02*
X73574257Y-90101800D01*
X73669495Y-90054180D01*
X73907590Y-90054180D01*
X74002828Y-90101800D01*
X74050447Y-90149419D01*
X74098066Y-90244657D01*
X74098066Y-90339895D01*
X74050447Y-90482752D01*
X73479019Y-91054180D01*
X74098066Y-91054180D01*
D10*
%TO.C,R18*%
X152194390Y-86808428D02*
X151956295Y-86975095D01*
X152194390Y-87094142D02*
X151694390Y-87094142D01*
X151694390Y-86903666D01*
X151718200Y-86856047D01*
X151742009Y-86832238D01*
X151789628Y-86808428D01*
X151861057Y-86808428D01*
X151908676Y-86832238D01*
X151932485Y-86856047D01*
X151956295Y-86903666D01*
X151956295Y-87094142D01*
X152194390Y-86332238D02*
X152194390Y-86617952D01*
X152194390Y-86475095D02*
X151694390Y-86475095D01*
X151765819Y-86522714D01*
X151813438Y-86570333D01*
X151837247Y-86617952D01*
X151908676Y-86046523D02*
X151884866Y-86094142D01*
X151861057Y-86117952D01*
X151813438Y-86141761D01*
X151789628Y-86141761D01*
X151742009Y-86117952D01*
X151718200Y-86094142D01*
X151694390Y-86046523D01*
X151694390Y-85951285D01*
X151718200Y-85903666D01*
X151742009Y-85879857D01*
X151789628Y-85856047D01*
X151813438Y-85856047D01*
X151861057Y-85879857D01*
X151884866Y-85903666D01*
X151908676Y-85951285D01*
X151908676Y-86046523D01*
X151932485Y-86094142D01*
X151956295Y-86117952D01*
X152003914Y-86141761D01*
X152099152Y-86141761D01*
X152146771Y-86117952D01*
X152170580Y-86094142D01*
X152194390Y-86046523D01*
X152194390Y-85951285D01*
X152170580Y-85903666D01*
X152146771Y-85879857D01*
X152099152Y-85856047D01*
X152003914Y-85856047D01*
X151956295Y-85879857D01*
X151932485Y-85903666D01*
X151908676Y-85951285D01*
D13*
%TO.C,DATA1*%
X154717071Y-84465057D02*
X153574071Y-84465057D01*
X153574071Y-84192914D01*
X153628500Y-84029628D01*
X153737357Y-83920771D01*
X153846214Y-83866342D01*
X154063928Y-83811914D01*
X154227214Y-83811914D01*
X154444928Y-83866342D01*
X154553785Y-83920771D01*
X154662642Y-84029628D01*
X154717071Y-84192914D01*
X154717071Y-84465057D01*
X154390500Y-83376485D02*
X154390500Y-82832200D01*
X154717071Y-83485342D02*
X153574071Y-83104342D01*
X154717071Y-82723342D01*
X153574071Y-82505628D02*
X153574071Y-81852485D01*
X154717071Y-82179057D02*
X153574071Y-82179057D01*
X154390500Y-81525914D02*
X154390500Y-80981628D01*
X154717071Y-81634771D02*
X153574071Y-81253771D01*
X154717071Y-80872771D01*
X154717071Y-79893057D02*
X154717071Y-80546200D01*
X154717071Y-80219628D02*
X153574071Y-80219628D01*
X153737357Y-80328485D01*
X153846214Y-80437342D01*
X153900642Y-80546200D01*
D12*
X159652380Y-89807523D02*
X160461904Y-89807523D01*
X160557142Y-89759904D01*
X160604761Y-89712285D01*
X160652380Y-89617047D01*
X160652380Y-89426571D01*
X160604761Y-89331333D01*
X160557142Y-89283714D01*
X160461904Y-89236095D01*
X159652380Y-89236095D01*
X160604761Y-88807523D02*
X160652380Y-88664666D01*
X160652380Y-88426571D01*
X160604761Y-88331333D01*
X160557142Y-88283714D01*
X160461904Y-88236095D01*
X160366666Y-88236095D01*
X160271428Y-88283714D01*
X160223809Y-88331333D01*
X160176190Y-88426571D01*
X160128571Y-88617047D01*
X160080952Y-88712285D01*
X160033333Y-88759904D01*
X159938095Y-88807523D01*
X159842857Y-88807523D01*
X159747619Y-88759904D01*
X159700000Y-88712285D01*
X159652380Y-88617047D01*
X159652380Y-88378952D01*
X159700000Y-88236095D01*
X160128571Y-87474190D02*
X160176190Y-87331333D01*
X160223809Y-87283714D01*
X160319047Y-87236095D01*
X160461904Y-87236095D01*
X160557142Y-87283714D01*
X160604761Y-87331333D01*
X160652380Y-87426571D01*
X160652380Y-87807523D01*
X159652380Y-87807523D01*
X159652380Y-87474190D01*
X159700000Y-87378952D01*
X159747619Y-87331333D01*
X159842857Y-87283714D01*
X159938095Y-87283714D01*
X160033333Y-87331333D01*
X160080952Y-87378952D01*
X160128571Y-87474190D01*
X160128571Y-87807523D01*
X160271428Y-86807523D02*
X160271428Y-86045619D01*
X160366666Y-85617047D02*
X160366666Y-85140857D01*
X160652380Y-85712285D02*
X159652380Y-85378952D01*
X160652380Y-85045619D01*
D10*
%TO.C,R8*%
X120439666Y-84808190D02*
X120273000Y-84570095D01*
X120153952Y-84808190D02*
X120153952Y-84308190D01*
X120344428Y-84308190D01*
X120392047Y-84332000D01*
X120415857Y-84355809D01*
X120439666Y-84403428D01*
X120439666Y-84474857D01*
X120415857Y-84522476D01*
X120392047Y-84546285D01*
X120344428Y-84570095D01*
X120153952Y-84570095D01*
X120725380Y-84522476D02*
X120677761Y-84498666D01*
X120653952Y-84474857D01*
X120630142Y-84427238D01*
X120630142Y-84403428D01*
X120653952Y-84355809D01*
X120677761Y-84332000D01*
X120725380Y-84308190D01*
X120820619Y-84308190D01*
X120868238Y-84332000D01*
X120892047Y-84355809D01*
X120915857Y-84403428D01*
X120915857Y-84427238D01*
X120892047Y-84474857D01*
X120868238Y-84498666D01*
X120820619Y-84522476D01*
X120725380Y-84522476D01*
X120677761Y-84546285D01*
X120653952Y-84570095D01*
X120630142Y-84617714D01*
X120630142Y-84712952D01*
X120653952Y-84760571D01*
X120677761Y-84784380D01*
X120725380Y-84808190D01*
X120820619Y-84808190D01*
X120868238Y-84784380D01*
X120892047Y-84760571D01*
X120915857Y-84712952D01*
X120915857Y-84617714D01*
X120892047Y-84570095D01*
X120868238Y-84546285D01*
X120820619Y-84522476D01*
D14*
%TO.C,R11*%
X134122900Y-86419458D02*
X134122900Y-85944942D01*
X135167900Y-86419458D02*
X135167900Y-85944942D01*
%TO.C,C2*%
X102335688Y-54938800D02*
X102335688Y-56399800D01*
X101775688Y-51319800D02*
X101775688Y-52858800D01*
X102576688Y-51470800D02*
X102576688Y-52858800D01*
X102816688Y-54938800D02*
X102816688Y-56227800D01*
X103496688Y-54938800D02*
X103496688Y-55762800D01*
X103256688Y-51833800D02*
X103256688Y-52858800D01*
X103416688Y-54938800D02*
X103416688Y-55835800D01*
X103656688Y-52199800D02*
X103656688Y-52858800D01*
X102976688Y-51651800D02*
X102976688Y-52858800D01*
X104296688Y-53614800D02*
X104296688Y-54182800D01*
X103456688Y-54938800D02*
X103456688Y-55799800D01*
X103376688Y-51927800D02*
X103376688Y-52858800D01*
X102015688Y-51337800D02*
X102015688Y-52858800D01*
X102856688Y-54938800D02*
X102856688Y-56208800D01*
X102616688Y-51484800D02*
X102616688Y-52858800D01*
X102456688Y-54938800D02*
X102456688Y-56366800D01*
X101815688Y-51320800D02*
X101815688Y-52858800D01*
X102255688Y-51378800D02*
X102255688Y-52858800D01*
X103096688Y-54938800D02*
X103096688Y-56073800D01*
X102976688Y-54938800D02*
X102976688Y-56145800D01*
X102416688Y-54938800D02*
X102416688Y-56378800D01*
X102055688Y-54938800D02*
X102055688Y-56454800D01*
X102416688Y-51418800D02*
X102416688Y-52858800D01*
X103056688Y-51698800D02*
X103056688Y-52858800D01*
X102896688Y-51608800D02*
X102896688Y-52858800D01*
X103136688Y-51749800D02*
X103136688Y-52858800D01*
X102055688Y-51342800D02*
X102055688Y-52858800D01*
X102135688Y-54938800D02*
X102135688Y-56441800D01*
X102776688Y-51550800D02*
X102776688Y-52858800D01*
X101975688Y-54938800D02*
X101975688Y-56463800D01*
X104256688Y-53380800D02*
X104256688Y-54416800D01*
X99140913Y-52173800D02*
X99140913Y-52673800D01*
X103616688Y-54938800D02*
X103616688Y-55641800D01*
X101855688Y-54938800D02*
X101855688Y-56474800D01*
X103816688Y-52398800D02*
X103816688Y-55398800D01*
X101895688Y-51325800D02*
X101895688Y-52858800D01*
X102696688Y-51516800D02*
X102696688Y-52858800D01*
X102175688Y-51362800D02*
X102175688Y-52858800D01*
X101735688Y-54938800D02*
X101735688Y-56478800D01*
X102095688Y-51348800D02*
X102095688Y-52858800D01*
X103216688Y-54938800D02*
X103216688Y-55993800D01*
X103016688Y-51674800D02*
X103016688Y-52858800D01*
X104216688Y-53221800D02*
X104216688Y-54575800D01*
X103096688Y-51723800D02*
X103096688Y-52858800D01*
X102496688Y-51443800D02*
X102496688Y-52858800D01*
X103616688Y-52155800D02*
X103616688Y-52858800D01*
X103176688Y-54938800D02*
X103176688Y-56020800D01*
X102656688Y-51500800D02*
X102656688Y-52858800D01*
X101895688Y-54938800D02*
X101895688Y-56471800D01*
X104016688Y-52720800D02*
X104016688Y-55076800D01*
X102496688Y-54938800D02*
X102496688Y-56353800D01*
X102656688Y-54938800D02*
X102656688Y-56296800D01*
X103696688Y-52245800D02*
X103696688Y-52858800D01*
X101775688Y-54938800D02*
X101775688Y-56477800D01*
X102215688Y-54938800D02*
X102215688Y-56426800D01*
X103136688Y-54938800D02*
X103136688Y-56047800D01*
X101695688Y-51318800D02*
X101695688Y-52858800D01*
X103376688Y-54938800D02*
X103376688Y-55869800D01*
X101695688Y-54938800D02*
X101695688Y-56478800D01*
X102456688Y-51430800D02*
X102456688Y-52858800D01*
X102215688Y-51370800D02*
X102215688Y-52858800D01*
X103296688Y-54938800D02*
X103296688Y-55933800D01*
X103576688Y-52113800D02*
X103576688Y-52858800D01*
X103696688Y-54938800D02*
X103696688Y-55551800D01*
X102295688Y-54938800D02*
X102295688Y-56409800D01*
X102856688Y-51588800D02*
X102856688Y-52858800D01*
X104136688Y-52983800D02*
X104136688Y-54813800D01*
X102576688Y-54938800D02*
X102576688Y-56326800D01*
X103856688Y-52455800D02*
X103856688Y-55341800D01*
X103296688Y-51863800D02*
X103296688Y-52858800D01*
X102095688Y-54938800D02*
X102095688Y-56448800D01*
X101935688Y-51329800D02*
X101935688Y-52858800D01*
X102816688Y-51569800D02*
X102816688Y-52858800D01*
X103776688Y-52344800D02*
X103776688Y-55452800D01*
X104096688Y-52887800D02*
X104096688Y-54909800D01*
X101735688Y-51318800D02*
X101735688Y-52858800D01*
X102536688Y-54938800D02*
X102536688Y-56340800D01*
X102936688Y-51630800D02*
X102936688Y-52858800D01*
X102736688Y-51533800D02*
X102736688Y-52858800D01*
X103576688Y-54938800D02*
X103576688Y-55683800D01*
X102375688Y-54938800D02*
X102375688Y-56389800D01*
X103336688Y-54938800D02*
X103336688Y-55902800D01*
X103416688Y-51961800D02*
X103416688Y-52858800D01*
X103536688Y-52072800D02*
X103536688Y-52858800D01*
X102015688Y-54938800D02*
X102015688Y-56459800D01*
X103936688Y-52579800D02*
X103936688Y-55217800D01*
X101855688Y-51322800D02*
X101855688Y-52858800D01*
X101815688Y-54938800D02*
X101815688Y-56476800D01*
X102616688Y-54938800D02*
X102616688Y-56312800D01*
X102536688Y-51456800D02*
X102536688Y-52858800D01*
X102175688Y-54938800D02*
X102175688Y-56434800D01*
X102936688Y-54938800D02*
X102936688Y-56166800D01*
X104176688Y-53093800D02*
X104176688Y-54703800D01*
X102375688Y-51407800D02*
X102375688Y-52858800D01*
X103056688Y-54938800D02*
X103056688Y-56098800D01*
X104056688Y-52800800D02*
X104056688Y-54996800D01*
X103896688Y-52515800D02*
X103896688Y-55281800D01*
X103016688Y-54938800D02*
X103016688Y-56122800D01*
X103496688Y-52034800D02*
X103496688Y-52858800D01*
X101935688Y-54938800D02*
X101935688Y-56467800D01*
X103256688Y-54938800D02*
X103256688Y-55963800D01*
X102295688Y-51387800D02*
X102295688Y-52858800D01*
X103456688Y-51997800D02*
X103456688Y-52858800D01*
X102255688Y-54938800D02*
X102255688Y-56418800D01*
X103656688Y-54938800D02*
X103656688Y-55597800D01*
X102896688Y-54938800D02*
X102896688Y-56188800D01*
X103176688Y-51776800D02*
X103176688Y-52858800D01*
X103216688Y-51803800D02*
X103216688Y-52858800D01*
X102696688Y-54938800D02*
X102696688Y-56280800D01*
X103976688Y-52647800D02*
X103976688Y-55149800D01*
X98890913Y-52423800D02*
X99390913Y-52423800D01*
X102135688Y-51355800D02*
X102135688Y-52858800D01*
X102776688Y-54938800D02*
X102776688Y-56246800D01*
X101975688Y-51333800D02*
X101975688Y-52858800D01*
X103536688Y-54938800D02*
X103536688Y-55724800D01*
X102335688Y-51397800D02*
X102335688Y-52858800D01*
X103336688Y-51894800D02*
X103336688Y-52858800D01*
X102736688Y-54938800D02*
X102736688Y-56263800D01*
X103736688Y-52293800D02*
X103736688Y-55503800D01*
X104315688Y-53898800D02*
G75*
G03*
X104315688Y-53898800I-2620000J0D01*
G01*
%TO.C,J1*%
X146625000Y-45553400D02*
X147955000Y-45553400D01*
X149285000Y-48153400D02*
X149285000Y-50753400D01*
X146625000Y-48153400D02*
X149285000Y-48153400D01*
X146625000Y-46883400D02*
X146625000Y-45553400D01*
X146625000Y-48153400D02*
X146625000Y-50753400D01*
X146625000Y-50753400D02*
X149285000Y-50753400D01*
D15*
%TO.C,USB2*%
X162390000Y-46810000D02*
X162364000Y-46477000D01*
X155575000Y-40894000D02*
X158000000Y-40894000D01*
X167437000Y-44374000D02*
X167437000Y-46228000D01*
X166980000Y-50292000D02*
X162415000Y-50947000D01*
X165049000Y-46050000D02*
X165049000Y-44602000D01*
X155575000Y-54102000D02*
X158025000Y-54102000D01*
X166929000Y-44882000D02*
X162331000Y-44094000D01*
X169545000Y-40894000D02*
X161100000Y-40894000D01*
X163297000Y-46380000D02*
X163297000Y-44298000D01*
X162382000Y-48565000D02*
X166980000Y-49352000D01*
X166929000Y-45822000D02*
X166929000Y-44882000D01*
X162415000Y-50947000D02*
X162441000Y-51280000D01*
X166980000Y-49352000D02*
X166980000Y-50292000D01*
X165100000Y-50521000D02*
X165100000Y-49073000D01*
X169545000Y-40894000D02*
X169545000Y-54102000D01*
X167488000Y-50698000D02*
X167488000Y-48844000D01*
X167488000Y-48844000D02*
X162433000Y-48260000D01*
X162331000Y-44094000D02*
X162382000Y-43790000D01*
X162441000Y-51280000D02*
X167488000Y-50698000D01*
X163347000Y-50851000D02*
X163347000Y-48768000D01*
X162433000Y-48260000D02*
X162382000Y-48565000D01*
X155575000Y-54102000D02*
X155575000Y-40894000D01*
X169545000Y-54102000D02*
X161100000Y-54102000D01*
X162364000Y-46477000D02*
X166929000Y-45822000D01*
X167437000Y-46228000D02*
X162390000Y-46810000D01*
X162382000Y-43790000D02*
X167437000Y-44374000D01*
D14*
%TO.C,R7*%
X118349500Y-86724258D02*
X118349500Y-86249742D01*
X119394500Y-86724258D02*
X119394500Y-86249742D01*
%TO.C,R6*%
X94121500Y-77135258D02*
X94121500Y-76660742D01*
X93076500Y-77135258D02*
X93076500Y-76660742D01*
%TO.C,Jst1*%
X63843600Y-80570600D02*
X69843600Y-80570600D01*
X62343600Y-79820600D02*
X60543600Y-79820600D01*
X60533600Y-79810600D02*
X60533600Y-85780600D01*
X60533600Y-85780600D02*
X73153600Y-85780600D01*
X63843600Y-79820600D02*
X63843600Y-80570600D01*
X73153600Y-79810600D02*
X60533600Y-79810600D01*
X69843600Y-79820600D02*
X63843600Y-79820600D01*
X73143600Y-80570600D02*
X73143600Y-79820600D01*
X61293600Y-85020600D02*
X66843600Y-85020600D01*
X72393600Y-82070600D02*
X72393600Y-85020600D01*
X72393600Y-85020600D02*
X66843600Y-85020600D01*
X73143600Y-82070600D02*
X72393600Y-82070600D01*
X73153600Y-85780600D02*
X73153600Y-79810600D01*
X61293600Y-82070600D02*
X61293600Y-85020600D01*
X60543600Y-79820600D02*
X60543600Y-80570600D01*
X60543600Y-80570600D02*
X62343600Y-80570600D01*
X69843600Y-80570600D02*
X69843600Y-79820600D01*
X71343600Y-79820600D02*
X71343600Y-80570600D01*
X71343600Y-80570600D02*
X73143600Y-80570600D01*
X62343600Y-80570600D02*
X62343600Y-79820600D01*
X60243600Y-79520600D02*
X60243600Y-80770600D01*
X60543600Y-82070600D02*
X61293600Y-82070600D01*
X61493600Y-79520600D02*
X60243600Y-79520600D01*
X73143600Y-79820600D02*
X71343600Y-79820600D01*
D15*
%TO.C,D3*%
X133604000Y-98933000D02*
X133477000Y-98679000D01*
X124841000Y-98425000D02*
X125095000Y-98298000D01*
X141859000Y-93599000D02*
X141605000Y-93726000D01*
X128524000Y-93345000D02*
X128651000Y-93599000D01*
X136525000Y-96647000D02*
X136398000Y-96393000D01*
X145810000Y-91186000D02*
X145810000Y-101346000D01*
X136525000Y-93853000D02*
X135128000Y-93853000D01*
X126238000Y-93726000D02*
X125984000Y-93853000D01*
X141605000Y-93726000D02*
X141097000Y-95504000D01*
X119761000Y-98552000D02*
X119888000Y-98806000D01*
X137033000Y-93599000D02*
X136525000Y-93853000D01*
X140462000Y-98298000D02*
X140716000Y-98171000D01*
X144526000Y-93980000D02*
X144399000Y-93726000D01*
X141859000Y-93599000D02*
X141605000Y-93726000D01*
X135382000Y-93345000D02*
X136906000Y-93345000D01*
X134239000Y-96139000D02*
X134620000Y-95885000D01*
X133858000Y-95631000D02*
X133985000Y-95885000D01*
X126365000Y-93980000D02*
X126238000Y-93726000D01*
X119761000Y-93472000D02*
X121285000Y-93472000D01*
X144272000Y-93472000D02*
X143764000Y-93726000D01*
X135636000Y-98298000D02*
X135763000Y-98552000D01*
X136398000Y-96393000D02*
X136144000Y-96520000D01*
X134366000Y-93853000D02*
X134620000Y-93726000D01*
X125476000Y-96266000D02*
X125222000Y-96393000D01*
X120142000Y-96520000D02*
X118745000Y-96520000D01*
X136906000Y-93345000D02*
X137033000Y-93599000D01*
X133477000Y-98298000D02*
X133985000Y-96520000D01*
X118237000Y-95758000D02*
X118364000Y-96012000D01*
X140843000Y-96266000D02*
X140335000Y-98044000D01*
X143637000Y-95631000D02*
X143764000Y-95885000D01*
X115810000Y-89186000D02*
X145810000Y-89186000D01*
X125603000Y-96520000D02*
X125476000Y-96266000D01*
X119888000Y-98806000D02*
X119380000Y-99060000D01*
X120650000Y-96266000D02*
X120142000Y-96520000D01*
X119380000Y-93726000D02*
X119761000Y-93472000D01*
X142367000Y-93726000D02*
X142240000Y-93472000D01*
X115810000Y-101346000D02*
X115810000Y-91186000D01*
X141097000Y-96139000D02*
X140843000Y-96266000D01*
X144145000Y-93853000D02*
X143637000Y-95631000D01*
X141224000Y-95758000D02*
X141478000Y-95631000D01*
X137287000Y-94107000D02*
X136779000Y-95885000D01*
X143256000Y-98298000D02*
X143764000Y-96520000D01*
X141986000Y-93853000D02*
X141859000Y-93599000D01*
X121285000Y-93472000D02*
X121412000Y-93726000D01*
X128905000Y-94107000D02*
X128778000Y-93853000D01*
X140843000Y-98806000D02*
X140716000Y-98552000D01*
X115810000Y-103346000D02*
X115810000Y-101346000D01*
X128778000Y-93853000D02*
X128524000Y-93980000D01*
X134366000Y-96393000D02*
X134239000Y-96139000D01*
X136017000Y-98425000D02*
X136525000Y-96647000D01*
X136144000Y-95885000D02*
X136271000Y-96139000D01*
X135509000Y-98679000D02*
X135001000Y-98933000D01*
X126238000Y-95885000D02*
X127762000Y-95885000D01*
X143383000Y-96393000D02*
X142875000Y-98171000D01*
X144145000Y-93853000D02*
X144399000Y-93726000D01*
X141097000Y-95504000D02*
X141224000Y-95758000D01*
X125095000Y-98298000D02*
X125603000Y-96520000D01*
X125476000Y-95631000D02*
X125603000Y-95885000D01*
X134239000Y-95758000D02*
X134747000Y-93980000D01*
X134366000Y-93853000D02*
X133858000Y-95631000D01*
X120777000Y-95885000D02*
X121285000Y-94107000D01*
X117475000Y-98298000D02*
X117602000Y-98552000D01*
X143510000Y-96012000D02*
X143002000Y-96266000D01*
X121539000Y-93980000D02*
X121666000Y-94234000D01*
X121285000Y-94107000D02*
X121539000Y-93980000D01*
X118364000Y-96012000D02*
X118618000Y-95885000D01*
X133985000Y-95885000D02*
X134239000Y-95758000D01*
X137160000Y-93853000D02*
X137287000Y-94107000D01*
X120904000Y-96774000D02*
X120777000Y-96520000D01*
X120142000Y-98679000D02*
X120396000Y-98552000D01*
X127381000Y-98552000D02*
X127635000Y-98425000D01*
X120777000Y-96520000D02*
X120523000Y-96647000D01*
X133858000Y-98425000D02*
X135382000Y-98425000D01*
X135001000Y-98933000D02*
X133604000Y-98933000D01*
X141097000Y-98298000D02*
X142621000Y-98298000D01*
X133223000Y-98425000D02*
X133477000Y-98298000D01*
X142240000Y-93472000D02*
X142621000Y-93218000D01*
X115810000Y-91186000D02*
X115810000Y-89186000D01*
X121158000Y-96012000D02*
X120904000Y-96139000D01*
X124714000Y-98171000D02*
X124841000Y-98425000D01*
X143764000Y-96520000D02*
X143637000Y-96266000D01*
X125984000Y-93853000D02*
X125476000Y-95631000D01*
X120904000Y-96139000D02*
X120777000Y-95885000D01*
X120396000Y-98552000D02*
X120904000Y-96774000D01*
X127127000Y-98679000D02*
X126619000Y-98933000D01*
X141605000Y-96266000D02*
X141478000Y-96012000D01*
X127762000Y-96520000D02*
X127254000Y-98298000D01*
X141478000Y-95631000D02*
X141986000Y-93853000D01*
X126238000Y-93726000D02*
X125984000Y-93853000D01*
X127889000Y-96139000D02*
X127381000Y-96393000D01*
X119126000Y-94107000D02*
X118999000Y-93853000D01*
X135128000Y-93853000D02*
X135001000Y-93599000D01*
X128524000Y-93980000D02*
X128016000Y-95758000D01*
X135001000Y-93599000D02*
X135382000Y-93345000D01*
X128016000Y-96393000D02*
X127762000Y-96520000D01*
X128143000Y-96012000D02*
X128397000Y-95885000D01*
X140335000Y-98044000D02*
X140462000Y-98298000D01*
X128143000Y-96647000D02*
X128016000Y-96393000D01*
X125222000Y-98933000D02*
X125095000Y-98679000D01*
X120015000Y-98425000D02*
X120142000Y-98679000D01*
X140716000Y-98552000D02*
X141097000Y-98298000D01*
X125857000Y-95758000D02*
X126365000Y-93980000D01*
X142748000Y-98552000D02*
X142240000Y-98806000D01*
X125222000Y-96393000D02*
X124714000Y-98171000D01*
X136906000Y-93980000D02*
X137160000Y-93853000D01*
X135763000Y-96393000D02*
X134366000Y-96393000D01*
X145810000Y-103346000D02*
X115810000Y-103346000D01*
X118999000Y-96012000D02*
X120523000Y-96012000D01*
X128143000Y-93853000D02*
X126746000Y-93853000D01*
X141478000Y-96012000D02*
X141859000Y-95758000D01*
X117983000Y-96520000D02*
X117475000Y-98298000D01*
X119380000Y-99060000D02*
X117983000Y-99060000D01*
X121412000Y-93726000D02*
X120904000Y-93980000D01*
X145810000Y-89186000D02*
X145810000Y-91186000D01*
X140716000Y-98171000D02*
X141224000Y-96393000D01*
X143764000Y-95885000D02*
X144018000Y-95758000D01*
X120904000Y-93980000D02*
X119507000Y-93980000D01*
X134620000Y-93726000D02*
X134366000Y-93853000D01*
X117983000Y-99060000D02*
X117856000Y-98806000D01*
X133604000Y-96393000D02*
X133096000Y-98171000D01*
X141986000Y-93853000D02*
X141859000Y-93599000D01*
X136398000Y-95758000D02*
X136906000Y-93980000D01*
X125984000Y-96393000D02*
X125857000Y-96139000D01*
X128651000Y-93599000D02*
X128143000Y-93853000D01*
X117602000Y-98552000D02*
X117856000Y-98425000D01*
X143764000Y-93726000D02*
X142367000Y-93726000D01*
X126619000Y-98933000D02*
X125222000Y-98933000D01*
X118364000Y-96647000D02*
X118237000Y-96393000D01*
X137160000Y-93853000D02*
X136906000Y-93980000D01*
X134620000Y-95885000D02*
X136144000Y-95885000D01*
X127635000Y-98425000D02*
X128143000Y-96647000D01*
X134620000Y-93726000D02*
X134747000Y-93980000D01*
X141859000Y-95758000D02*
X143383000Y-95758000D01*
X118237000Y-98552000D02*
X119761000Y-98552000D01*
X126365000Y-93980000D02*
X126238000Y-93726000D01*
X133223000Y-98425000D02*
X133477000Y-98298000D01*
X126619000Y-93599000D02*
X127000000Y-93345000D01*
X140462000Y-98298000D02*
X140716000Y-98171000D01*
X136271000Y-96139000D02*
X135763000Y-96393000D01*
X127381000Y-96393000D02*
X125984000Y-96393000D01*
X120523000Y-96012000D02*
X120650000Y-96266000D01*
X136779000Y-95885000D02*
X136525000Y-96012000D01*
X144145000Y-93218000D02*
X144272000Y-93472000D01*
X141224000Y-96393000D02*
X141097000Y-96139000D01*
X133096000Y-98171000D02*
X133223000Y-98425000D01*
X125476000Y-98425000D02*
X127000000Y-98425000D01*
X127762000Y-95885000D02*
X127889000Y-96139000D01*
X117602000Y-98552000D02*
X117856000Y-98425000D01*
X120523000Y-96647000D02*
X120015000Y-98425000D01*
X142240000Y-98806000D02*
X140843000Y-98806000D01*
X145810000Y-101346000D02*
X145810000Y-103346000D01*
X142621000Y-93218000D02*
X144145000Y-93218000D01*
X143637000Y-96266000D02*
X143383000Y-96393000D01*
X125095000Y-98679000D02*
X125476000Y-98425000D01*
X128016000Y-95758000D02*
X128143000Y-96012000D01*
X133985000Y-96520000D02*
X133858000Y-96266000D01*
X126746000Y-93853000D02*
X126619000Y-93599000D01*
X117856000Y-98806000D02*
X118237000Y-98552000D01*
X125857000Y-96139000D02*
X126238000Y-95885000D01*
X127000000Y-98425000D02*
X127127000Y-98679000D01*
X144018000Y-95758000D02*
X144526000Y-93980000D01*
X134747000Y-93980000D02*
X134620000Y-93726000D01*
X121539000Y-93980000D02*
X121285000Y-94107000D01*
X133858000Y-96266000D02*
X133604000Y-96393000D01*
X121666000Y-94234000D02*
X121158000Y-96012000D01*
X118618000Y-95885000D02*
X119126000Y-94107000D01*
X136525000Y-96012000D02*
X136398000Y-95758000D01*
X144399000Y-93726000D02*
X144145000Y-93853000D01*
X143383000Y-95758000D02*
X143510000Y-96012000D01*
X142621000Y-98298000D02*
X142748000Y-98552000D01*
X118999000Y-93853000D02*
X119126000Y-94107000D01*
X118745000Y-93980000D02*
X118999000Y-93853000D01*
X118999000Y-93853000D02*
X118745000Y-93980000D01*
X128524000Y-93980000D02*
X128778000Y-93853000D01*
X128397000Y-95885000D02*
X128905000Y-94107000D01*
X127254000Y-98298000D02*
X127381000Y-98552000D01*
X118618000Y-96266000D02*
X118999000Y-96012000D01*
X118745000Y-93980000D02*
X118237000Y-95758000D01*
X118745000Y-96520000D02*
X118618000Y-96266000D01*
X135382000Y-98425000D02*
X135509000Y-98679000D01*
X124841000Y-98425000D02*
X125095000Y-98298000D01*
X117856000Y-98425000D02*
X118364000Y-96647000D01*
X118237000Y-96393000D02*
X117983000Y-96520000D01*
X143002000Y-98425000D02*
X143256000Y-98298000D01*
X133477000Y-98679000D02*
X133858000Y-98425000D01*
X119507000Y-93980000D02*
X119380000Y-93726000D01*
X142875000Y-98171000D02*
X143002000Y-98425000D01*
X135763000Y-98552000D02*
X136017000Y-98425000D01*
X125603000Y-95885000D02*
X125857000Y-95758000D01*
X143002000Y-96266000D02*
X141605000Y-96266000D01*
X127000000Y-93345000D02*
X128524000Y-93345000D01*
X136144000Y-96520000D02*
X135636000Y-98298000D01*
X143964935Y-98371987D02*
G75*
G03*
X143970000Y-98372000I2065J-179013D01*
G01*
X128343935Y-98498987D02*
G75*
G03*
X128349000Y-98499000I2073J-179013D01*
G01*
X121104935Y-98625987D02*
G75*
G03*
X121110000Y-98626000I2073J-179013D01*
G01*
X136725935Y-98498987D02*
G75*
G03*
X136731000Y-98499000I2065J-179013D01*
G01*
D14*
%TO.C,C3*%
X143701380Y-71401400D02*
X143420220Y-71401400D01*
X143701380Y-70381400D02*
X143420220Y-70381400D01*
D15*
%TO.C,B1*%
X139192000Y-48614000D02*
G75*
G03*
X139192000Y-48614000I-1270000J0D01*
G01*
X144522000Y-48614000D02*
G75*
G03*
X144522000Y-48614000I-6600000J0D01*
G01*
%TO.C,Y1*%
X139013800Y-83273400D02*
X145312800Y-83273400D01*
X145211800Y-87401400D02*
X139115800Y-87401400D01*
X139013800Y-87973400D02*
X145312800Y-87973400D01*
X145211800Y-83845400D02*
X139115800Y-83845400D01*
X145212121Y-87402425D02*
G75*
G03*
X145211800Y-83844400I139679J1779025D01*
G01*
X145312551Y-87974390D02*
G75*
G03*
X145312800Y-83272400I92249J2350990D01*
G01*
X139114237Y-83845289D02*
G75*
G03*
X139115800Y-87401400I-126437J-1778111D01*
G01*
X139014500Y-83274429D02*
G75*
G03*
X139013800Y-87974400I-98700J-2349971D01*
G01*
D14*
%TO.C,R12*%
X126506500Y-86249742D02*
X126506500Y-86724258D01*
X125461500Y-86249742D02*
X125461500Y-86724258D01*
%TO.C,R2*%
X94121500Y-92630258D02*
X94121500Y-92155742D01*
X93076500Y-92630258D02*
X93076500Y-92155742D01*
%TO.C,C5*%
X142034800Y-77585180D02*
X142034800Y-77304020D01*
X143054800Y-77585180D02*
X143054800Y-77304020D01*
D15*
%TO.C,USB3*%
X166929000Y-65822000D02*
X166929000Y-64882000D01*
X162382000Y-68565000D02*
X166980000Y-69352000D01*
X163347000Y-70851000D02*
X163347000Y-68768000D01*
X162390000Y-66810000D02*
X162364000Y-66477000D01*
X165049000Y-66050000D02*
X165049000Y-64602000D01*
X162382000Y-63790000D02*
X167437000Y-64374000D01*
X165100000Y-70521000D02*
X165100000Y-69073000D01*
X162441000Y-71280000D02*
X167488000Y-70698000D01*
X166980000Y-70292000D02*
X162415000Y-70947000D01*
X155575000Y-74102000D02*
X155575000Y-60894000D01*
X162433000Y-68260000D02*
X162382000Y-68565000D01*
X162415000Y-70947000D02*
X162441000Y-71280000D01*
X167437000Y-64374000D02*
X167437000Y-66228000D01*
X166929000Y-64882000D02*
X162331000Y-64094000D01*
X155575000Y-60894000D02*
X158000000Y-60894000D01*
X163297000Y-66380000D02*
X163297000Y-64298000D01*
X169545000Y-74102000D02*
X161100000Y-74102000D01*
X155575000Y-74102000D02*
X158025000Y-74102000D01*
X167437000Y-66228000D02*
X162390000Y-66810000D01*
X169545000Y-60894000D02*
X161100000Y-60894000D01*
X167488000Y-68844000D02*
X162433000Y-68260000D01*
X162364000Y-66477000D02*
X166929000Y-65822000D01*
X166980000Y-69352000D02*
X166980000Y-70292000D01*
X167488000Y-70698000D02*
X167488000Y-68844000D01*
X169545000Y-60894000D02*
X169545000Y-74102000D01*
X162331000Y-64094000D02*
X162382000Y-63790000D01*
D14*
%TO.C,A2*%
X68000000Y-29113400D02*
X60000000Y-29113400D01*
X60000000Y-29113400D02*
X60000000Y-37113400D01*
X60000000Y-37113400D02*
X68000000Y-37113400D01*
X68000000Y-37113400D02*
X68000000Y-29113400D01*
X68000000Y-29113400D02*
X76000000Y-29113400D01*
X76000000Y-29113400D02*
X76000000Y-37113400D01*
X76000000Y-37113400D02*
X68000000Y-37113400D01*
X68000000Y-37113400D02*
X68000000Y-29113400D01*
%TO.C,R5*%
X93076500Y-79772742D02*
X93076500Y-80247258D01*
X94121500Y-79772742D02*
X94121500Y-80247258D01*
%TO.C,R3*%
X93076500Y-84344742D02*
X93076500Y-84819258D01*
X94121500Y-84344742D02*
X94121500Y-84819258D01*
D12*
%TO.C,Pro1*%
X107950000Y-104902000D02*
X100330000Y-104902000D01*
X95250000Y-102362000D02*
X95250000Y-71882000D01*
X113030000Y-102362000D02*
X107950000Y-102362000D01*
X107950000Y-102362000D02*
X107950000Y-104902000D01*
X100330000Y-102362000D02*
X95250000Y-102362000D01*
X113030000Y-102362000D02*
X113030000Y-71882000D01*
X95250000Y-71882000D02*
X113030000Y-71882000D01*
X100330000Y-104902000D02*
X100330000Y-102362000D01*
D14*
%TO.C,F1*%
X88506300Y-101396800D02*
X88506300Y-103682800D01*
X81775300Y-83870800D02*
X88506300Y-83870800D01*
X81775300Y-99618800D02*
X81775300Y-87934800D01*
X88506300Y-83870800D02*
X88506300Y-86156800D01*
X81775300Y-86156800D02*
X81775300Y-83870800D01*
X81775300Y-103682800D02*
X81775300Y-101396800D01*
X88506300Y-87934800D02*
X88506300Y-99618800D01*
X88506300Y-103682800D02*
X81775300Y-103682800D01*
%TO.C,R10*%
X132497300Y-86419458D02*
X132497300Y-85944942D01*
X133542300Y-86419458D02*
X133542300Y-85944942D01*
%TO.C,R14*%
X130871700Y-85944942D02*
X130871700Y-86419458D01*
X131916700Y-85944942D02*
X131916700Y-86419458D01*
%TO.C,A4*%
X68000000Y-49113400D02*
X60000000Y-49113400D01*
X60000000Y-49113400D02*
X60000000Y-57113400D01*
X60000000Y-57113400D02*
X68000000Y-57113400D01*
X68000000Y-57113400D02*
X68000000Y-49113400D01*
X68000000Y-49113400D02*
X76000000Y-49113400D01*
X76000000Y-49113400D02*
X76000000Y-57113400D01*
X76000000Y-57113400D02*
X68000000Y-57113400D01*
X68000000Y-57113400D02*
X68000000Y-49113400D01*
D15*
%TO.C,USB1*%
X169545000Y-20894000D02*
X161100000Y-20894000D01*
X155575000Y-34102000D02*
X158025000Y-34102000D01*
X166980000Y-29352000D02*
X166980000Y-30292000D01*
X162415000Y-30947000D02*
X162441000Y-31280000D01*
X162382000Y-28565000D02*
X166980000Y-29352000D01*
X169545000Y-20894000D02*
X169545000Y-34102000D01*
X169545000Y-34102000D02*
X161100000Y-34102000D01*
X166929000Y-24882000D02*
X162331000Y-24094000D01*
X162331000Y-24094000D02*
X162382000Y-23790000D01*
X165049000Y-26050000D02*
X165049000Y-24602000D01*
X162382000Y-23790000D02*
X167437000Y-24374000D01*
X162364000Y-26477000D02*
X166929000Y-25822000D01*
X167488000Y-28844000D02*
X162433000Y-28260000D01*
X167488000Y-30698000D02*
X167488000Y-28844000D01*
X165100000Y-30521000D02*
X165100000Y-29073000D01*
X166980000Y-30292000D02*
X162415000Y-30947000D01*
X162390000Y-26810000D02*
X162364000Y-26477000D01*
X155575000Y-20894000D02*
X158000000Y-20894000D01*
X166929000Y-25822000D02*
X166929000Y-24882000D01*
X155575000Y-34102000D02*
X155575000Y-20894000D01*
X167437000Y-24374000D02*
X167437000Y-26228000D01*
X162433000Y-28260000D02*
X162382000Y-28565000D01*
X163297000Y-26380000D02*
X163297000Y-24298000D01*
X162441000Y-31280000D02*
X167488000Y-30698000D01*
X167437000Y-26228000D02*
X162390000Y-26810000D01*
X163347000Y-30851000D02*
X163347000Y-28768000D01*
D13*
%TO.C,U3*%
X136594800Y-82162600D02*
X129952800Y-82162600D01*
X129952800Y-82162600D02*
X129952800Y-71710600D01*
X129952800Y-71710600D02*
X136594800Y-71710600D01*
X136594800Y-71710600D02*
X136594800Y-82162600D01*
D16*
X130854800Y-72491600D02*
G75*
G03*
X130854800Y-72491600I-150000J0D01*
G01*
D14*
%TO.C,R20*%
X133366742Y-71134500D02*
X133841258Y-71134500D01*
X133366742Y-70089500D02*
X133841258Y-70089500D01*
%TO.C,C1*%
X104278288Y-45423000D02*
X104278288Y-47033000D01*
X102958288Y-43918000D02*
X102958288Y-45188000D01*
X102998288Y-43938000D02*
X102998288Y-45188000D01*
X103958288Y-44785000D02*
X103958288Y-47671000D01*
X104358288Y-45710000D02*
X104358288Y-46746000D01*
X104038288Y-44909000D02*
X104038288Y-47547000D01*
X101797288Y-43648000D02*
X101797288Y-45188000D01*
X102397288Y-43717000D02*
X102397288Y-45188000D01*
X101797288Y-47268000D02*
X101797288Y-48808000D01*
X103798288Y-44575000D02*
X103798288Y-45188000D01*
X102558288Y-43760000D02*
X102558288Y-45188000D01*
X103318288Y-44133000D02*
X103318288Y-45188000D01*
X102037288Y-43659000D02*
X102037288Y-45188000D01*
X102998288Y-47268000D02*
X102998288Y-48518000D01*
X102357288Y-47268000D02*
X102357288Y-48748000D01*
X102437288Y-43727000D02*
X102437288Y-45188000D01*
X102638288Y-43786000D02*
X102638288Y-45188000D01*
X103078288Y-43981000D02*
X103078288Y-45188000D01*
X102678288Y-47268000D02*
X102678288Y-48656000D01*
X103718288Y-47268000D02*
X103718288Y-47971000D01*
X103278288Y-47268000D02*
X103278288Y-48350000D01*
X102397288Y-47268000D02*
X102397288Y-48739000D01*
X102638288Y-47268000D02*
X102638288Y-48670000D01*
X102477288Y-47268000D02*
X102477288Y-48719000D01*
X101837288Y-43648000D02*
X101837288Y-45188000D01*
X103238288Y-47268000D02*
X103238288Y-48377000D01*
X102758288Y-47268000D02*
X102758288Y-48626000D01*
X102317288Y-43700000D02*
X102317288Y-45188000D01*
X102838288Y-43863000D02*
X102838288Y-45188000D01*
X104078288Y-44977000D02*
X104078288Y-47479000D01*
X102197288Y-43678000D02*
X102197288Y-45188000D01*
X102718288Y-47268000D02*
X102718288Y-48642000D01*
X102197288Y-47268000D02*
X102197288Y-48778000D01*
X101877288Y-47268000D02*
X101877288Y-48807000D01*
X103478288Y-47268000D02*
X103478288Y-48199000D01*
X104238288Y-45313000D02*
X104238288Y-47143000D01*
X98992513Y-44753000D02*
X99492513Y-44753000D01*
X102437288Y-47268000D02*
X102437288Y-48729000D01*
X103718288Y-44485000D02*
X103718288Y-45188000D01*
X102237288Y-47268000D02*
X102237288Y-48771000D01*
X102237288Y-43685000D02*
X102237288Y-45188000D01*
X103038288Y-47268000D02*
X103038288Y-48496000D01*
X104118288Y-45050000D02*
X104118288Y-47406000D01*
X103478288Y-44257000D02*
X103478288Y-45188000D01*
X102157288Y-47268000D02*
X102157288Y-48784000D01*
X104318288Y-45551000D02*
X104318288Y-46905000D01*
X103678288Y-47268000D02*
X103678288Y-48013000D01*
X103118288Y-47268000D02*
X103118288Y-48452000D01*
X103598288Y-47268000D02*
X103598288Y-48092000D01*
X101957288Y-47268000D02*
X101957288Y-48804000D01*
X102718288Y-43814000D02*
X102718288Y-45188000D01*
X103438288Y-47268000D02*
X103438288Y-48232000D01*
X103798288Y-47268000D02*
X103798288Y-47881000D01*
X103278288Y-44106000D02*
X103278288Y-45188000D01*
X102157288Y-43672000D02*
X102157288Y-45188000D01*
X102037288Y-47268000D02*
X102037288Y-48797000D01*
X102317288Y-47268000D02*
X102317288Y-48756000D01*
X103998288Y-44845000D02*
X103998288Y-47611000D01*
X103078288Y-47268000D02*
X103078288Y-48475000D01*
X102958288Y-47268000D02*
X102958288Y-48538000D01*
X102918288Y-43899000D02*
X102918288Y-45188000D01*
X102878288Y-47268000D02*
X102878288Y-48576000D01*
X103398288Y-44193000D02*
X103398288Y-45188000D01*
X103878288Y-44674000D02*
X103878288Y-47782000D01*
X103518288Y-44291000D02*
X103518288Y-45188000D01*
X102518288Y-47268000D02*
X102518288Y-48708000D01*
X103358288Y-44163000D02*
X103358288Y-45188000D01*
X103198288Y-44053000D02*
X103198288Y-45188000D01*
X102918288Y-47268000D02*
X102918288Y-48557000D01*
X102558288Y-47268000D02*
X102558288Y-48696000D01*
X102678288Y-43800000D02*
X102678288Y-45188000D01*
X102798288Y-43846000D02*
X102798288Y-45188000D01*
X103678288Y-44443000D02*
X103678288Y-45188000D01*
X104158288Y-45130000D02*
X104158288Y-47326000D01*
X103318288Y-47268000D02*
X103318288Y-48323000D01*
X102077288Y-43663000D02*
X102077288Y-45188000D01*
X103438288Y-44224000D02*
X103438288Y-45188000D01*
X102357288Y-43708000D02*
X102357288Y-45188000D01*
X102477288Y-43737000D02*
X102477288Y-45188000D01*
X103198288Y-47268000D02*
X103198288Y-48403000D01*
X103398288Y-47268000D02*
X103398288Y-48263000D01*
X103558288Y-47268000D02*
X103558288Y-48129000D01*
X102798288Y-47268000D02*
X102798288Y-48610000D01*
X102117288Y-43667000D02*
X102117288Y-45188000D01*
X101877288Y-43649000D02*
X101877288Y-45188000D01*
X103238288Y-44079000D02*
X103238288Y-45188000D01*
X103758288Y-44529000D02*
X103758288Y-45188000D01*
X101997288Y-47268000D02*
X101997288Y-48801000D01*
X103758288Y-47268000D02*
X103758288Y-47927000D01*
X102277288Y-47268000D02*
X102277288Y-48764000D01*
X103838288Y-44623000D02*
X103838288Y-47833000D01*
X104198288Y-45217000D02*
X104198288Y-47239000D01*
X103918288Y-44728000D02*
X103918288Y-47728000D01*
X103598288Y-44364000D02*
X103598288Y-45188000D01*
X103158288Y-44028000D02*
X103158288Y-45188000D01*
X102277288Y-43692000D02*
X102277288Y-45188000D01*
X104398288Y-45944000D02*
X104398288Y-46512000D01*
X102077288Y-47268000D02*
X102077288Y-48793000D01*
X101957288Y-43652000D02*
X101957288Y-45188000D01*
X103518288Y-47268000D02*
X103518288Y-48165000D01*
X103558288Y-44327000D02*
X103558288Y-45188000D01*
X102878288Y-43880000D02*
X102878288Y-45188000D01*
X102598288Y-47268000D02*
X102598288Y-48683000D01*
X102838288Y-47268000D02*
X102838288Y-48593000D01*
X103638288Y-47268000D02*
X103638288Y-48054000D01*
X102598288Y-43773000D02*
X102598288Y-45188000D01*
X103118288Y-44004000D02*
X103118288Y-45188000D01*
X102117288Y-47268000D02*
X102117288Y-48789000D01*
X103358288Y-47268000D02*
X103358288Y-48293000D01*
X99242513Y-44503000D02*
X99242513Y-45003000D01*
X103158288Y-47268000D02*
X103158288Y-48428000D01*
X101837288Y-47268000D02*
X101837288Y-48808000D01*
X101917288Y-43650000D02*
X101917288Y-45188000D01*
X102758288Y-43830000D02*
X102758288Y-45188000D01*
X103638288Y-44402000D02*
X103638288Y-45188000D01*
X102518288Y-43748000D02*
X102518288Y-45188000D01*
X103038288Y-43960000D02*
X103038288Y-45188000D01*
X101997288Y-43655000D02*
X101997288Y-45188000D01*
X101917288Y-47268000D02*
X101917288Y-48806000D01*
X104417288Y-46228000D02*
G75*
G03*
X104417288Y-46228000I-2620000J0D01*
G01*
%TO.C,R17*%
X153635942Y-87971100D02*
X154110458Y-87971100D01*
X153635942Y-89016100D02*
X154110458Y-89016100D01*
%TO.C,C4*%
X143057800Y-74435580D02*
X143057800Y-74154420D01*
X142037800Y-74435580D02*
X142037800Y-74154420D01*
%TO.C,R1*%
X94121500Y-95742258D02*
X94121500Y-95267742D01*
X93076500Y-95742258D02*
X93076500Y-95267742D01*
D13*
%TO.C,Q1*%
X119837500Y-75877000D02*
X118927500Y-75877000D01*
X117856500Y-74425000D02*
X118887500Y-74425000D01*
X117856500Y-75877000D02*
X117856500Y-74425000D01*
X120908500Y-74425000D02*
X119877500Y-74425000D01*
X120908500Y-75877000D02*
X120908500Y-74425000D01*
D14*
%TO.C,A5*%
X68000000Y-59113400D02*
X76000000Y-59113400D01*
X76000000Y-59113400D02*
X76000000Y-67113400D01*
X76000000Y-67113400D02*
X68000000Y-67113400D01*
X68000000Y-67113400D02*
X68000000Y-59113400D01*
X68000000Y-59113400D02*
X60000000Y-59113400D01*
X60000000Y-59113400D02*
X60000000Y-67113400D01*
X60000000Y-67113400D02*
X68000000Y-67113400D01*
X68000000Y-67113400D02*
X68000000Y-59113400D01*
%TO.C,R19*%
X130217142Y-71134500D02*
X130691658Y-71134500D01*
X130217142Y-70089500D02*
X130691658Y-70089500D01*
%TO.C,C7*%
X136587620Y-70102000D02*
X136868780Y-70102000D01*
X136587620Y-71122000D02*
X136868780Y-71122000D01*
D15*
%TO.C,SW2*%
X164665600Y-100063400D02*
X164665600Y-100213400D01*
X161165600Y-101663400D02*
X162328600Y-101663400D01*
X167215600Y-101846400D02*
X167215600Y-102763400D01*
X161165600Y-101663400D02*
X161165600Y-101513400D01*
X158615600Y-98963400D02*
X167215600Y-98963400D01*
X161899600Y-100228400D02*
X161899600Y-101498400D01*
X158615600Y-98963400D02*
X158615600Y-102763400D01*
X163502600Y-101663400D02*
X164665600Y-101663400D01*
X158615600Y-102763400D02*
X167215600Y-102763400D01*
X164665600Y-101513400D02*
X164665600Y-101663400D01*
X167215600Y-98963400D02*
X167215600Y-101846400D01*
X161165600Y-100063400D02*
X162328600Y-100063400D01*
X163502600Y-100063400D02*
X164566600Y-100063400D01*
X161391600Y-101498400D02*
X161391600Y-100228400D01*
X161899600Y-101498400D02*
X161391600Y-101498400D01*
X161391600Y-100228400D02*
X161899600Y-100228400D01*
X161165600Y-100063400D02*
X161165600Y-100213400D01*
%TO.C,G\u002A\u002A\u002A*%
G36*
X114800298Y-61148200D02*
G01*
X115084269Y-61195700D01*
X115420534Y-61278480D01*
X115773322Y-61386126D01*
X116106857Y-61508219D01*
X116257685Y-61572542D01*
X116412176Y-61644632D01*
X116523255Y-61700482D01*
X116567681Y-61728383D01*
X116567744Y-61728728D01*
X116552100Y-61779564D01*
X116510892Y-61898782D01*
X116452702Y-62061606D01*
X116446624Y-62078381D01*
X116325505Y-62412305D01*
X116583050Y-62584217D01*
X116724615Y-62691215D01*
X116908198Y-62847603D01*
X117107805Y-63030534D01*
X117261180Y-63180253D01*
X117681764Y-63604378D01*
X118208471Y-63604378D01*
X118456259Y-63605700D01*
X118628258Y-63618065D01*
X118747885Y-63654075D01*
X118838558Y-63726331D01*
X118923694Y-63847434D01*
X119026712Y-64029984D01*
X119038214Y-64050863D01*
X119150893Y-64284636D01*
X119246955Y-64539453D01*
X119322805Y-64797474D01*
X119374849Y-65040858D01*
X119399493Y-65251766D01*
X119393142Y-65412359D01*
X119352202Y-65504796D01*
X119333466Y-65516262D01*
X119260564Y-65534579D01*
X119114004Y-65564948D01*
X118917894Y-65602520D01*
X118775361Y-65628493D01*
X118279267Y-65717111D01*
X118266234Y-65888576D01*
X118229592Y-66119003D01*
X118157061Y-66393680D01*
X118059509Y-66682699D01*
X117947805Y-66956152D01*
X117832817Y-67184130D01*
X117750470Y-67307889D01*
X117721322Y-67320358D01*
X117663957Y-67310185D01*
X117569744Y-67272985D01*
X117430054Y-67204376D01*
X117236257Y-67099975D01*
X116979724Y-66955398D01*
X116651824Y-66766262D01*
X116432326Y-66638382D01*
X116080387Y-66432839D01*
X116262054Y-66078505D01*
X116343325Y-65915208D01*
X116395786Y-65786376D01*
X116425661Y-65661610D01*
X116439175Y-65510515D01*
X116442555Y-65302692D01*
X116442465Y-65197576D01*
X116439449Y-64952006D01*
X116428267Y-64775883D01*
X116403635Y-64639478D01*
X116360272Y-64513061D01*
X116296033Y-64373324D01*
X116165190Y-64155923D01*
X115981179Y-63917897D01*
X115826000Y-63749042D01*
X115433581Y-63422810D01*
X114986747Y-63170598D01*
X114498770Y-62993885D01*
X113982928Y-62894148D01*
X113452494Y-62872866D01*
X112920743Y-62931518D01*
X112400950Y-63071582D01*
X111906391Y-63294536D01*
X111879658Y-63309533D01*
X111664382Y-63458027D01*
X111432003Y-63661030D01*
X111208360Y-63891946D01*
X111019291Y-64124182D01*
X110894282Y-64323714D01*
X110738021Y-64738161D01*
X110676986Y-65151738D01*
X110707390Y-65557229D01*
X110825442Y-65947414D01*
X111027356Y-66315078D01*
X111309341Y-66653002D01*
X111667610Y-66953969D01*
X112098373Y-67210763D01*
X112499775Y-67382131D01*
X112649348Y-67431464D01*
X112792239Y-67464804D01*
X112953787Y-67485128D01*
X113159329Y-67495414D01*
X113434206Y-67498637D01*
X113491962Y-67498697D01*
X113761143Y-67495856D01*
X114013959Y-67488083D01*
X114223822Y-67476527D01*
X114364140Y-67462337D01*
X114374672Y-67460578D01*
X114508768Y-67441094D01*
X114582092Y-67458538D01*
X114631437Y-67531808D01*
X114664422Y-67609406D01*
X114712236Y-67724609D01*
X114788866Y-67907829D01*
X114884513Y-68135687D01*
X114989374Y-68384806D01*
X115010883Y-68435820D01*
X115106374Y-68667828D01*
X115183419Y-68865871D01*
X115235706Y-69012851D01*
X115256926Y-69091669D01*
X115255973Y-69099872D01*
X115199486Y-69120380D01*
X115069144Y-69154458D01*
X114888376Y-69196189D01*
X114795748Y-69216114D01*
X114471533Y-69268720D01*
X114095990Y-69298918D01*
X113659541Y-69308604D01*
X112958955Y-69309456D01*
X112640521Y-69842757D01*
X112494677Y-70081598D01*
X112379014Y-70245131D01*
X112274554Y-70344235D01*
X112162319Y-70389787D01*
X112023332Y-70392664D01*
X111838614Y-70363744D01*
X111759042Y-70348001D01*
X111434423Y-70265448D01*
X111075336Y-70146326D01*
X110730804Y-70007676D01*
X110589814Y-69941590D01*
X110418173Y-69848915D01*
X110228779Y-69734877D01*
X110040868Y-69612643D01*
X109873674Y-69495381D01*
X109746434Y-69396258D01*
X109678384Y-69328443D01*
X109672041Y-69313326D01*
X109692309Y-69254974D01*
X109747451Y-69126534D01*
X109828970Y-68947159D01*
X109925255Y-68742517D01*
X110178470Y-68212436D01*
X109882028Y-67903722D01*
X109519075Y-67471694D01*
X109232545Y-67015498D01*
X109136293Y-66816585D01*
X109032698Y-66580941D01*
X108436341Y-66580941D01*
X108183791Y-66579922D01*
X108012185Y-66574797D01*
X107903254Y-66562460D01*
X107838728Y-66539807D01*
X107800339Y-66503733D01*
X107779497Y-66469320D01*
X107748306Y-66356966D01*
X107727578Y-66171278D01*
X107717267Y-65937578D01*
X107717325Y-65681191D01*
X107727705Y-65427444D01*
X107748360Y-65201659D01*
X107779243Y-65029163D01*
X107782204Y-65018245D01*
X107851922Y-64789840D01*
X107917154Y-64639912D01*
X107993027Y-64549678D01*
X108094667Y-64500356D01*
X108219190Y-64475630D01*
X108405381Y-64447954D01*
X108628185Y-64412929D01*
X108764802Y-64390549D01*
X109072993Y-64338984D01*
X109275756Y-63969540D01*
X109412238Y-63750743D01*
X109587100Y-63511101D01*
X109765966Y-63297229D01*
X109792850Y-63268315D01*
X110107181Y-62936534D01*
X109886021Y-62626606D01*
X109784525Y-62473047D01*
X109716378Y-62347568D01*
X109693790Y-62273275D01*
X109695786Y-62266638D01*
X109788875Y-62171736D01*
X109956073Y-62053599D01*
X110177826Y-61921729D01*
X110434581Y-61785625D01*
X110706783Y-61654789D01*
X110974879Y-61538720D01*
X111219315Y-61446919D01*
X111420536Y-61388886D01*
X111534726Y-61373176D01*
X111623858Y-61406510D01*
X111745573Y-61493612D01*
X111832383Y-61574321D01*
X111977013Y-61717426D01*
X112091798Y-61802016D01*
X112208012Y-61837223D01*
X112356929Y-61832179D01*
X112569825Y-61796014D01*
X112583039Y-61793489D01*
X112805303Y-61761385D01*
X113082915Y-61736264D01*
X113372069Y-61721592D01*
X113521981Y-61719231D01*
X114072899Y-61719222D01*
X114496329Y-61115582D01*
X114800298Y-61148200D01*
G37*
G36*
X114092627Y-65534013D02*
G01*
X114214986Y-65598677D01*
X114401826Y-65704197D01*
X114643383Y-65844605D01*
X114929893Y-66013932D01*
X115251592Y-66206212D01*
X115598717Y-66415475D01*
X115961503Y-66635755D01*
X116330186Y-66861082D01*
X116695004Y-67085490D01*
X117046191Y-67303011D01*
X117373984Y-67507676D01*
X117668619Y-67693517D01*
X117920333Y-67854567D01*
X118119361Y-67984858D01*
X118255939Y-68078422D01*
X118320305Y-68129291D01*
X118320973Y-68130044D01*
X118423314Y-68247656D01*
X118562974Y-68407726D01*
X118711885Y-68578088D01*
X118730250Y-68599074D01*
X118855089Y-68750127D01*
X118949000Y-68879784D01*
X118996016Y-68965471D01*
X118998603Y-68978521D01*
X118964405Y-69050014D01*
X118872003Y-69171983D01*
X118736683Y-69328246D01*
X118573733Y-69502620D01*
X118398439Y-69678922D01*
X118226087Y-69840971D01*
X118071966Y-69972584D01*
X118026827Y-70007233D01*
X117842574Y-70131518D01*
X117620703Y-70263736D01*
X117388849Y-70389172D01*
X117174649Y-70493113D01*
X117005739Y-70560845D01*
X116964619Y-70572750D01*
X116905783Y-70576517D01*
X116838603Y-70552360D01*
X116749708Y-70490218D01*
X116625724Y-70380032D01*
X116453280Y-70211745D01*
X116359314Y-70117413D01*
X115878033Y-69631917D01*
X114952294Y-67582818D01*
X114762543Y-67161586D01*
X114586659Y-66768768D01*
X114428629Y-66413444D01*
X114292441Y-66104692D01*
X114182084Y-65851592D01*
X114101546Y-65663223D01*
X114054813Y-65548663D01*
X114044513Y-65516172D01*
X114092627Y-65534013D01*
G37*
D14*
%TO.C,R4*%
X93076500Y-87994258D02*
X93076500Y-87519742D01*
X94121500Y-87994258D02*
X94121500Y-87519742D01*
%TO.C,A3*%
X68000000Y-39113400D02*
X60000000Y-39113400D01*
X60000000Y-39113400D02*
X60000000Y-47113400D01*
X60000000Y-47113400D02*
X68000000Y-47113400D01*
X68000000Y-47113400D02*
X68000000Y-39113400D01*
X68000000Y-39113400D02*
X76000000Y-39113400D01*
X76000000Y-39113400D02*
X76000000Y-47113400D01*
X76000000Y-47113400D02*
X68000000Y-47113400D01*
X68000000Y-47113400D02*
X68000000Y-39113400D01*
D17*
%TO.C,Converter1*%
X130479800Y-41452800D02*
X150037800Y-41452800D01*
X130479800Y-57962800D02*
X130479800Y-41452800D01*
X150037800Y2997200D02*
X86537800Y2997200D01*
X86537800Y-41452800D02*
X86537800Y2997200D01*
X106349800Y-41452800D02*
X86537800Y-41452800D01*
X106349800Y-57962800D02*
X106349800Y-41452800D01*
X150037800Y-41452800D02*
X150037800Y2997200D01*
X130479800Y-57962800D02*
X106349800Y-57962800D01*
D14*
%TO.C,R15*%
X121575300Y-75395858D02*
X121575300Y-74921342D01*
X122620300Y-75395858D02*
X122620300Y-74921342D01*
%TO.C,R9*%
X122696500Y-86724258D02*
X122696500Y-86249742D01*
X121651500Y-86724258D02*
X121651500Y-86249742D01*
%TO.C,A1*%
X68000000Y-19113400D02*
X76000000Y-19113400D01*
X76000000Y-19113400D02*
X76000000Y-27113400D01*
X76000000Y-27113400D02*
X68000000Y-27113400D01*
X68000000Y-27113400D02*
X68000000Y-19113400D01*
X68000000Y-19113400D02*
X60000000Y-19113400D01*
X60000000Y-19113400D02*
X60000000Y-27113400D01*
X60000000Y-27113400D02*
X68000000Y-27113400D01*
X68000000Y-27113400D02*
X68000000Y-19113400D01*
%TO.C,R13*%
X127112500Y-86249742D02*
X127112500Y-86724258D01*
X128157500Y-86249742D02*
X128157500Y-86724258D01*
%TO.C,Sw1*%
X96667800Y-41840000D02*
X86567800Y-41840000D01*
X86567800Y-41840000D02*
X86567800Y-56940000D01*
X86567800Y-56940000D02*
X96667800Y-56940000D01*
X96667800Y-56940000D02*
X96667800Y-41840000D01*
%TO.C,U2*%
X147283400Y-81996600D02*
X149233400Y-81996600D01*
X147283400Y-81996600D02*
X145333400Y-81996600D01*
X147283400Y-71876600D02*
X149233400Y-71876600D01*
X147283400Y-71876600D02*
X143833400Y-71876600D01*
%TO.C,R16*%
X124271300Y-75395858D02*
X124271300Y-74921342D01*
X123226300Y-75395858D02*
X123226300Y-74921342D01*
%TO.C,Batt1*%
X59416000Y-95418000D02*
X59416000Y-103718000D01*
X75116000Y-98018000D02*
X72266000Y-95418000D01*
X75116000Y-101168000D02*
X75116000Y-98018000D01*
X59416000Y-103718000D02*
X72266000Y-103718000D01*
X72266000Y-95418000D02*
X59416000Y-95418000D01*
X72266000Y-103718000D02*
X75116000Y-101168000D01*
%TO.C,C6*%
X143054800Y-80453620D02*
X143054800Y-80734780D01*
X142034800Y-80453620D02*
X142034800Y-80734780D01*
%TO.C,J2*%
X69443600Y-89297200D02*
X61763600Y-89297200D01*
X72043600Y-89297200D02*
X72043600Y-90627200D01*
X69443600Y-91957200D02*
X61763600Y-91957200D01*
X69443600Y-89297200D02*
X69443600Y-91957200D01*
X61763600Y-89297200D02*
X61763600Y-91957200D01*
X70713600Y-89297200D02*
X72043600Y-89297200D01*
%TO.C,R18*%
X153610542Y-87009500D02*
X154085058Y-87009500D01*
X153610542Y-85964500D02*
X154085058Y-85964500D01*
D15*
%TO.C,DATA1*%
X169545000Y-80894000D02*
X169545000Y-94102000D01*
X166929000Y-84882000D02*
X162331000Y-84094000D01*
X166980000Y-90292000D02*
X162415000Y-90947000D01*
X169545000Y-94102000D02*
X161100000Y-94102000D01*
X167488000Y-90698000D02*
X167488000Y-88844000D01*
X155575000Y-80894000D02*
X158000000Y-80894000D01*
X162331000Y-84094000D02*
X162382000Y-83790000D01*
X166980000Y-89352000D02*
X166980000Y-90292000D01*
X162382000Y-83790000D02*
X167437000Y-84374000D01*
X169545000Y-80894000D02*
X161100000Y-80894000D01*
X166929000Y-85822000D02*
X166929000Y-84882000D01*
X155575000Y-94102000D02*
X155575000Y-80894000D01*
X162415000Y-90947000D02*
X162441000Y-91280000D01*
X165049000Y-86050000D02*
X165049000Y-84602000D01*
X163297000Y-86380000D02*
X163297000Y-84298000D01*
X167437000Y-84374000D02*
X167437000Y-86228000D01*
X167437000Y-86228000D02*
X162390000Y-86810000D01*
X163347000Y-90851000D02*
X163347000Y-88768000D01*
X162441000Y-91280000D02*
X167488000Y-90698000D01*
X167488000Y-88844000D02*
X162433000Y-88260000D01*
X162382000Y-88565000D02*
X166980000Y-89352000D01*
X165100000Y-90521000D02*
X165100000Y-89073000D01*
X155575000Y-94102000D02*
X158025000Y-94102000D01*
X162364000Y-86477000D02*
X166929000Y-85822000D01*
X162390000Y-86810000D02*
X162364000Y-86477000D01*
X162433000Y-88260000D02*
X162382000Y-88565000D01*
D14*
%TO.C,R8*%
X120000500Y-86724258D02*
X120000500Y-86249742D01*
X121045500Y-86724258D02*
X121045500Y-86249742D01*
%TD*%
M02*
