G75*
%MOIN*%
%OFA0B0*%
%FSLAX25Y25*%
%IPPOS*%
%LPD*%
%AMOC8*
5,1,8,0,0,1.08239X$1,22.5*
%
%ADD10C,0.07000*%
%ADD11C,0.09000*%
%ADD12C,0.01600*%
D10*
X0048717Y0052299D03*
X0048717Y0062299D03*
X0048717Y0072299D03*
X0048717Y0082299D03*
X0048717Y0092299D03*
X0048717Y0102299D03*
X0048717Y0112299D03*
X0048717Y0122299D03*
D11*
X0028000Y0038000D03*
X0028000Y0048000D03*
X0028000Y0058000D03*
X0028000Y0068000D03*
X0028000Y0078000D03*
X0028000Y0088000D03*
X0028000Y0098000D03*
X0028000Y0108000D03*
X0028000Y0118000D03*
X0028000Y0128000D03*
X0028000Y0138000D03*
X0028000Y0148000D03*
X0088000Y0148000D03*
X0088000Y0138000D03*
X0088000Y0128000D03*
X0088000Y0118000D03*
X0088000Y0108000D03*
X0088000Y0098000D03*
X0088000Y0088000D03*
X0088000Y0078000D03*
X0088000Y0068000D03*
X0088000Y0058000D03*
X0088000Y0048000D03*
X0088000Y0038000D03*
D12*
X0073701Y0052299D01*
X0048717Y0052299D01*
X0048717Y0062299D02*
X0082299Y0062299D01*
X0088000Y0068000D01*
X0082299Y0072299D02*
X0088000Y0078000D01*
X0082299Y0072299D02*
X0048717Y0072299D01*
X0048717Y0102299D02*
X0048717Y0103283D01*
X0041000Y0111000D01*
X0041000Y0126000D01*
X0046000Y0131000D01*
X0081000Y0131000D01*
X0088000Y0138000D01*
X0088000Y0128000D02*
X0072299Y0112299D01*
X0048717Y0112299D01*
M02*
