G75*
%MOIN*%
%OFA0B0*%
%FSLAX25Y25*%
%IPPOS*%
%LPD*%
%AMOC8*
5,1,8,0,0,1.08239X$1,22.5*
%
%ADD10C,0.00000*%
D10*
X0001000Y0001000D02*
X0001000Y0196000D01*
X0108421Y0196000D01*
X0108421Y0001000D01*
X0001000Y0001000D01*
X0009500Y0016000D02*
X0009502Y0016161D01*
X0009508Y0016321D01*
X0009518Y0016482D01*
X0009532Y0016642D01*
X0009550Y0016802D01*
X0009571Y0016961D01*
X0009597Y0017120D01*
X0009627Y0017278D01*
X0009660Y0017435D01*
X0009698Y0017592D01*
X0009739Y0017747D01*
X0009784Y0017901D01*
X0009833Y0018054D01*
X0009886Y0018206D01*
X0009942Y0018357D01*
X0010003Y0018506D01*
X0010066Y0018654D01*
X0010134Y0018800D01*
X0010205Y0018944D01*
X0010279Y0019086D01*
X0010357Y0019227D01*
X0010439Y0019365D01*
X0010524Y0019502D01*
X0010612Y0019636D01*
X0010704Y0019768D01*
X0010799Y0019898D01*
X0010897Y0020026D01*
X0010998Y0020151D01*
X0011102Y0020273D01*
X0011209Y0020393D01*
X0011319Y0020510D01*
X0011432Y0020625D01*
X0011548Y0020736D01*
X0011667Y0020845D01*
X0011788Y0020950D01*
X0011912Y0021053D01*
X0012038Y0021153D01*
X0012166Y0021249D01*
X0012297Y0021342D01*
X0012431Y0021432D01*
X0012566Y0021519D01*
X0012704Y0021602D01*
X0012843Y0021682D01*
X0012985Y0021758D01*
X0013128Y0021831D01*
X0013273Y0021900D01*
X0013420Y0021966D01*
X0013568Y0022028D01*
X0013718Y0022086D01*
X0013869Y0022141D01*
X0014022Y0022192D01*
X0014176Y0022239D01*
X0014331Y0022282D01*
X0014487Y0022321D01*
X0014643Y0022357D01*
X0014801Y0022388D01*
X0014959Y0022416D01*
X0015118Y0022440D01*
X0015278Y0022460D01*
X0015438Y0022476D01*
X0015598Y0022488D01*
X0015759Y0022496D01*
X0015920Y0022500D01*
X0016080Y0022500D01*
X0016241Y0022496D01*
X0016402Y0022488D01*
X0016562Y0022476D01*
X0016722Y0022460D01*
X0016882Y0022440D01*
X0017041Y0022416D01*
X0017199Y0022388D01*
X0017357Y0022357D01*
X0017513Y0022321D01*
X0017669Y0022282D01*
X0017824Y0022239D01*
X0017978Y0022192D01*
X0018131Y0022141D01*
X0018282Y0022086D01*
X0018432Y0022028D01*
X0018580Y0021966D01*
X0018727Y0021900D01*
X0018872Y0021831D01*
X0019015Y0021758D01*
X0019157Y0021682D01*
X0019296Y0021602D01*
X0019434Y0021519D01*
X0019569Y0021432D01*
X0019703Y0021342D01*
X0019834Y0021249D01*
X0019962Y0021153D01*
X0020088Y0021053D01*
X0020212Y0020950D01*
X0020333Y0020845D01*
X0020452Y0020736D01*
X0020568Y0020625D01*
X0020681Y0020510D01*
X0020791Y0020393D01*
X0020898Y0020273D01*
X0021002Y0020151D01*
X0021103Y0020026D01*
X0021201Y0019898D01*
X0021296Y0019768D01*
X0021388Y0019636D01*
X0021476Y0019502D01*
X0021561Y0019365D01*
X0021643Y0019227D01*
X0021721Y0019086D01*
X0021795Y0018944D01*
X0021866Y0018800D01*
X0021934Y0018654D01*
X0021997Y0018506D01*
X0022058Y0018357D01*
X0022114Y0018206D01*
X0022167Y0018054D01*
X0022216Y0017901D01*
X0022261Y0017747D01*
X0022302Y0017592D01*
X0022340Y0017435D01*
X0022373Y0017278D01*
X0022403Y0017120D01*
X0022429Y0016961D01*
X0022450Y0016802D01*
X0022468Y0016642D01*
X0022482Y0016482D01*
X0022492Y0016321D01*
X0022498Y0016161D01*
X0022500Y0016000D01*
X0022498Y0015839D01*
X0022492Y0015679D01*
X0022482Y0015518D01*
X0022468Y0015358D01*
X0022450Y0015198D01*
X0022429Y0015039D01*
X0022403Y0014880D01*
X0022373Y0014722D01*
X0022340Y0014565D01*
X0022302Y0014408D01*
X0022261Y0014253D01*
X0022216Y0014099D01*
X0022167Y0013946D01*
X0022114Y0013794D01*
X0022058Y0013643D01*
X0021997Y0013494D01*
X0021934Y0013346D01*
X0021866Y0013200D01*
X0021795Y0013056D01*
X0021721Y0012914D01*
X0021643Y0012773D01*
X0021561Y0012635D01*
X0021476Y0012498D01*
X0021388Y0012364D01*
X0021296Y0012232D01*
X0021201Y0012102D01*
X0021103Y0011974D01*
X0021002Y0011849D01*
X0020898Y0011727D01*
X0020791Y0011607D01*
X0020681Y0011490D01*
X0020568Y0011375D01*
X0020452Y0011264D01*
X0020333Y0011155D01*
X0020212Y0011050D01*
X0020088Y0010947D01*
X0019962Y0010847D01*
X0019834Y0010751D01*
X0019703Y0010658D01*
X0019569Y0010568D01*
X0019434Y0010481D01*
X0019296Y0010398D01*
X0019157Y0010318D01*
X0019015Y0010242D01*
X0018872Y0010169D01*
X0018727Y0010100D01*
X0018580Y0010034D01*
X0018432Y0009972D01*
X0018282Y0009914D01*
X0018131Y0009859D01*
X0017978Y0009808D01*
X0017824Y0009761D01*
X0017669Y0009718D01*
X0017513Y0009679D01*
X0017357Y0009643D01*
X0017199Y0009612D01*
X0017041Y0009584D01*
X0016882Y0009560D01*
X0016722Y0009540D01*
X0016562Y0009524D01*
X0016402Y0009512D01*
X0016241Y0009504D01*
X0016080Y0009500D01*
X0015920Y0009500D01*
X0015759Y0009504D01*
X0015598Y0009512D01*
X0015438Y0009524D01*
X0015278Y0009540D01*
X0015118Y0009560D01*
X0014959Y0009584D01*
X0014801Y0009612D01*
X0014643Y0009643D01*
X0014487Y0009679D01*
X0014331Y0009718D01*
X0014176Y0009761D01*
X0014022Y0009808D01*
X0013869Y0009859D01*
X0013718Y0009914D01*
X0013568Y0009972D01*
X0013420Y0010034D01*
X0013273Y0010100D01*
X0013128Y0010169D01*
X0012985Y0010242D01*
X0012843Y0010318D01*
X0012704Y0010398D01*
X0012566Y0010481D01*
X0012431Y0010568D01*
X0012297Y0010658D01*
X0012166Y0010751D01*
X0012038Y0010847D01*
X0011912Y0010947D01*
X0011788Y0011050D01*
X0011667Y0011155D01*
X0011548Y0011264D01*
X0011432Y0011375D01*
X0011319Y0011490D01*
X0011209Y0011607D01*
X0011102Y0011727D01*
X0010998Y0011849D01*
X0010897Y0011974D01*
X0010799Y0012102D01*
X0010704Y0012232D01*
X0010612Y0012364D01*
X0010524Y0012498D01*
X0010439Y0012635D01*
X0010357Y0012773D01*
X0010279Y0012914D01*
X0010205Y0013056D01*
X0010134Y0013200D01*
X0010066Y0013346D01*
X0010003Y0013494D01*
X0009942Y0013643D01*
X0009886Y0013794D01*
X0009833Y0013946D01*
X0009784Y0014099D01*
X0009739Y0014253D01*
X0009698Y0014408D01*
X0009660Y0014565D01*
X0009627Y0014722D01*
X0009597Y0014880D01*
X0009571Y0015039D01*
X0009550Y0015198D01*
X0009532Y0015358D01*
X0009518Y0015518D01*
X0009508Y0015679D01*
X0009502Y0015839D01*
X0009500Y0016000D01*
X0097929Y0016394D02*
X0097931Y0016547D01*
X0097937Y0016701D01*
X0097947Y0016854D01*
X0097961Y0017006D01*
X0097979Y0017159D01*
X0098001Y0017310D01*
X0098026Y0017461D01*
X0098056Y0017612D01*
X0098090Y0017762D01*
X0098127Y0017910D01*
X0098168Y0018058D01*
X0098213Y0018204D01*
X0098262Y0018350D01*
X0098315Y0018494D01*
X0098371Y0018636D01*
X0098431Y0018777D01*
X0098495Y0018917D01*
X0098562Y0019055D01*
X0098633Y0019191D01*
X0098708Y0019325D01*
X0098785Y0019457D01*
X0098867Y0019587D01*
X0098951Y0019715D01*
X0099039Y0019841D01*
X0099130Y0019964D01*
X0099224Y0020085D01*
X0099322Y0020203D01*
X0099422Y0020319D01*
X0099526Y0020432D01*
X0099632Y0020543D01*
X0099741Y0020651D01*
X0099853Y0020756D01*
X0099967Y0020857D01*
X0100085Y0020956D01*
X0100204Y0021052D01*
X0100326Y0021145D01*
X0100451Y0021234D01*
X0100578Y0021321D01*
X0100707Y0021403D01*
X0100838Y0021483D01*
X0100971Y0021559D01*
X0101106Y0021632D01*
X0101243Y0021701D01*
X0101382Y0021766D01*
X0101522Y0021828D01*
X0101664Y0021886D01*
X0101807Y0021941D01*
X0101952Y0021992D01*
X0102098Y0022039D01*
X0102245Y0022082D01*
X0102393Y0022121D01*
X0102542Y0022157D01*
X0102692Y0022188D01*
X0102843Y0022216D01*
X0102994Y0022240D01*
X0103147Y0022260D01*
X0103299Y0022276D01*
X0103452Y0022288D01*
X0103605Y0022296D01*
X0103758Y0022300D01*
X0103912Y0022300D01*
X0104065Y0022296D01*
X0104218Y0022288D01*
X0104371Y0022276D01*
X0104523Y0022260D01*
X0104676Y0022240D01*
X0104827Y0022216D01*
X0104978Y0022188D01*
X0105128Y0022157D01*
X0105277Y0022121D01*
X0105425Y0022082D01*
X0105572Y0022039D01*
X0105718Y0021992D01*
X0105863Y0021941D01*
X0106006Y0021886D01*
X0106148Y0021828D01*
X0106288Y0021766D01*
X0106427Y0021701D01*
X0106564Y0021632D01*
X0106699Y0021559D01*
X0106832Y0021483D01*
X0106963Y0021403D01*
X0107092Y0021321D01*
X0107219Y0021234D01*
X0107344Y0021145D01*
X0107466Y0021052D01*
X0107585Y0020956D01*
X0107703Y0020857D01*
X0107817Y0020756D01*
X0107929Y0020651D01*
X0108038Y0020543D01*
X0108144Y0020432D01*
X0108248Y0020319D01*
X0108348Y0020203D01*
X0108446Y0020085D01*
X0108540Y0019964D01*
X0108631Y0019841D01*
X0108719Y0019715D01*
X0108803Y0019587D01*
X0108885Y0019457D01*
X0108962Y0019325D01*
X0109037Y0019191D01*
X0109108Y0019055D01*
X0109175Y0018917D01*
X0109239Y0018777D01*
X0109299Y0018636D01*
X0109355Y0018494D01*
X0109408Y0018350D01*
X0109457Y0018204D01*
X0109502Y0018058D01*
X0109543Y0017910D01*
X0109580Y0017762D01*
X0109614Y0017612D01*
X0109644Y0017461D01*
X0109669Y0017310D01*
X0109691Y0017159D01*
X0109709Y0017006D01*
X0109723Y0016854D01*
X0109733Y0016701D01*
X0109739Y0016547D01*
X0109741Y0016394D01*
X0109739Y0016241D01*
X0109733Y0016087D01*
X0109723Y0015934D01*
X0109709Y0015782D01*
X0109691Y0015629D01*
X0109669Y0015478D01*
X0109644Y0015327D01*
X0109614Y0015176D01*
X0109580Y0015026D01*
X0109543Y0014878D01*
X0109502Y0014730D01*
X0109457Y0014584D01*
X0109408Y0014438D01*
X0109355Y0014294D01*
X0109299Y0014152D01*
X0109239Y0014011D01*
X0109175Y0013871D01*
X0109108Y0013733D01*
X0109037Y0013597D01*
X0108962Y0013463D01*
X0108885Y0013331D01*
X0108803Y0013201D01*
X0108719Y0013073D01*
X0108631Y0012947D01*
X0108540Y0012824D01*
X0108446Y0012703D01*
X0108348Y0012585D01*
X0108248Y0012469D01*
X0108144Y0012356D01*
X0108038Y0012245D01*
X0107929Y0012137D01*
X0107817Y0012032D01*
X0107703Y0011931D01*
X0107585Y0011832D01*
X0107466Y0011736D01*
X0107344Y0011643D01*
X0107219Y0011554D01*
X0107092Y0011467D01*
X0106963Y0011385D01*
X0106832Y0011305D01*
X0106699Y0011229D01*
X0106564Y0011156D01*
X0106427Y0011087D01*
X0106288Y0011022D01*
X0106148Y0010960D01*
X0106006Y0010902D01*
X0105863Y0010847D01*
X0105718Y0010796D01*
X0105572Y0010749D01*
X0105425Y0010706D01*
X0105277Y0010667D01*
X0105128Y0010631D01*
X0104978Y0010600D01*
X0104827Y0010572D01*
X0104676Y0010548D01*
X0104523Y0010528D01*
X0104371Y0010512D01*
X0104218Y0010500D01*
X0104065Y0010492D01*
X0103912Y0010488D01*
X0103758Y0010488D01*
X0103605Y0010492D01*
X0103452Y0010500D01*
X0103299Y0010512D01*
X0103147Y0010528D01*
X0102994Y0010548D01*
X0102843Y0010572D01*
X0102692Y0010600D01*
X0102542Y0010631D01*
X0102393Y0010667D01*
X0102245Y0010706D01*
X0102098Y0010749D01*
X0101952Y0010796D01*
X0101807Y0010847D01*
X0101664Y0010902D01*
X0101522Y0010960D01*
X0101382Y0011022D01*
X0101243Y0011087D01*
X0101106Y0011156D01*
X0100971Y0011229D01*
X0100838Y0011305D01*
X0100707Y0011385D01*
X0100578Y0011467D01*
X0100451Y0011554D01*
X0100326Y0011643D01*
X0100204Y0011736D01*
X0100085Y0011832D01*
X0099967Y0011931D01*
X0099853Y0012032D01*
X0099741Y0012137D01*
X0099632Y0012245D01*
X0099526Y0012356D01*
X0099422Y0012469D01*
X0099322Y0012585D01*
X0099224Y0012703D01*
X0099130Y0012824D01*
X0099039Y0012947D01*
X0098951Y0013073D01*
X0098867Y0013201D01*
X0098785Y0013331D01*
X0098708Y0013463D01*
X0098633Y0013597D01*
X0098562Y0013733D01*
X0098495Y0013871D01*
X0098431Y0014011D01*
X0098371Y0014152D01*
X0098315Y0014294D01*
X0098262Y0014438D01*
X0098213Y0014584D01*
X0098168Y0014730D01*
X0098127Y0014878D01*
X0098090Y0015026D01*
X0098056Y0015176D01*
X0098026Y0015327D01*
X0098001Y0015478D01*
X0097979Y0015629D01*
X0097961Y0015782D01*
X0097947Y0015934D01*
X0097937Y0016087D01*
X0097931Y0016241D01*
X0097929Y0016394D01*
X0097929Y0158126D02*
X0097931Y0158279D01*
X0097937Y0158433D01*
X0097947Y0158586D01*
X0097961Y0158738D01*
X0097979Y0158891D01*
X0098001Y0159042D01*
X0098026Y0159193D01*
X0098056Y0159344D01*
X0098090Y0159494D01*
X0098127Y0159642D01*
X0098168Y0159790D01*
X0098213Y0159936D01*
X0098262Y0160082D01*
X0098315Y0160226D01*
X0098371Y0160368D01*
X0098431Y0160509D01*
X0098495Y0160649D01*
X0098562Y0160787D01*
X0098633Y0160923D01*
X0098708Y0161057D01*
X0098785Y0161189D01*
X0098867Y0161319D01*
X0098951Y0161447D01*
X0099039Y0161573D01*
X0099130Y0161696D01*
X0099224Y0161817D01*
X0099322Y0161935D01*
X0099422Y0162051D01*
X0099526Y0162164D01*
X0099632Y0162275D01*
X0099741Y0162383D01*
X0099853Y0162488D01*
X0099967Y0162589D01*
X0100085Y0162688D01*
X0100204Y0162784D01*
X0100326Y0162877D01*
X0100451Y0162966D01*
X0100578Y0163053D01*
X0100707Y0163135D01*
X0100838Y0163215D01*
X0100971Y0163291D01*
X0101106Y0163364D01*
X0101243Y0163433D01*
X0101382Y0163498D01*
X0101522Y0163560D01*
X0101664Y0163618D01*
X0101807Y0163673D01*
X0101952Y0163724D01*
X0102098Y0163771D01*
X0102245Y0163814D01*
X0102393Y0163853D01*
X0102542Y0163889D01*
X0102692Y0163920D01*
X0102843Y0163948D01*
X0102994Y0163972D01*
X0103147Y0163992D01*
X0103299Y0164008D01*
X0103452Y0164020D01*
X0103605Y0164028D01*
X0103758Y0164032D01*
X0103912Y0164032D01*
X0104065Y0164028D01*
X0104218Y0164020D01*
X0104371Y0164008D01*
X0104523Y0163992D01*
X0104676Y0163972D01*
X0104827Y0163948D01*
X0104978Y0163920D01*
X0105128Y0163889D01*
X0105277Y0163853D01*
X0105425Y0163814D01*
X0105572Y0163771D01*
X0105718Y0163724D01*
X0105863Y0163673D01*
X0106006Y0163618D01*
X0106148Y0163560D01*
X0106288Y0163498D01*
X0106427Y0163433D01*
X0106564Y0163364D01*
X0106699Y0163291D01*
X0106832Y0163215D01*
X0106963Y0163135D01*
X0107092Y0163053D01*
X0107219Y0162966D01*
X0107344Y0162877D01*
X0107466Y0162784D01*
X0107585Y0162688D01*
X0107703Y0162589D01*
X0107817Y0162488D01*
X0107929Y0162383D01*
X0108038Y0162275D01*
X0108144Y0162164D01*
X0108248Y0162051D01*
X0108348Y0161935D01*
X0108446Y0161817D01*
X0108540Y0161696D01*
X0108631Y0161573D01*
X0108719Y0161447D01*
X0108803Y0161319D01*
X0108885Y0161189D01*
X0108962Y0161057D01*
X0109037Y0160923D01*
X0109108Y0160787D01*
X0109175Y0160649D01*
X0109239Y0160509D01*
X0109299Y0160368D01*
X0109355Y0160226D01*
X0109408Y0160082D01*
X0109457Y0159936D01*
X0109502Y0159790D01*
X0109543Y0159642D01*
X0109580Y0159494D01*
X0109614Y0159344D01*
X0109644Y0159193D01*
X0109669Y0159042D01*
X0109691Y0158891D01*
X0109709Y0158738D01*
X0109723Y0158586D01*
X0109733Y0158433D01*
X0109739Y0158279D01*
X0109741Y0158126D01*
X0109739Y0157973D01*
X0109733Y0157819D01*
X0109723Y0157666D01*
X0109709Y0157514D01*
X0109691Y0157361D01*
X0109669Y0157210D01*
X0109644Y0157059D01*
X0109614Y0156908D01*
X0109580Y0156758D01*
X0109543Y0156610D01*
X0109502Y0156462D01*
X0109457Y0156316D01*
X0109408Y0156170D01*
X0109355Y0156026D01*
X0109299Y0155884D01*
X0109239Y0155743D01*
X0109175Y0155603D01*
X0109108Y0155465D01*
X0109037Y0155329D01*
X0108962Y0155195D01*
X0108885Y0155063D01*
X0108803Y0154933D01*
X0108719Y0154805D01*
X0108631Y0154679D01*
X0108540Y0154556D01*
X0108446Y0154435D01*
X0108348Y0154317D01*
X0108248Y0154201D01*
X0108144Y0154088D01*
X0108038Y0153977D01*
X0107929Y0153869D01*
X0107817Y0153764D01*
X0107703Y0153663D01*
X0107585Y0153564D01*
X0107466Y0153468D01*
X0107344Y0153375D01*
X0107219Y0153286D01*
X0107092Y0153199D01*
X0106963Y0153117D01*
X0106832Y0153037D01*
X0106699Y0152961D01*
X0106564Y0152888D01*
X0106427Y0152819D01*
X0106288Y0152754D01*
X0106148Y0152692D01*
X0106006Y0152634D01*
X0105863Y0152579D01*
X0105718Y0152528D01*
X0105572Y0152481D01*
X0105425Y0152438D01*
X0105277Y0152399D01*
X0105128Y0152363D01*
X0104978Y0152332D01*
X0104827Y0152304D01*
X0104676Y0152280D01*
X0104523Y0152260D01*
X0104371Y0152244D01*
X0104218Y0152232D01*
X0104065Y0152224D01*
X0103912Y0152220D01*
X0103758Y0152220D01*
X0103605Y0152224D01*
X0103452Y0152232D01*
X0103299Y0152244D01*
X0103147Y0152260D01*
X0102994Y0152280D01*
X0102843Y0152304D01*
X0102692Y0152332D01*
X0102542Y0152363D01*
X0102393Y0152399D01*
X0102245Y0152438D01*
X0102098Y0152481D01*
X0101952Y0152528D01*
X0101807Y0152579D01*
X0101664Y0152634D01*
X0101522Y0152692D01*
X0101382Y0152754D01*
X0101243Y0152819D01*
X0101106Y0152888D01*
X0100971Y0152961D01*
X0100838Y0153037D01*
X0100707Y0153117D01*
X0100578Y0153199D01*
X0100451Y0153286D01*
X0100326Y0153375D01*
X0100204Y0153468D01*
X0100085Y0153564D01*
X0099967Y0153663D01*
X0099853Y0153764D01*
X0099741Y0153869D01*
X0099632Y0153977D01*
X0099526Y0154088D01*
X0099422Y0154201D01*
X0099322Y0154317D01*
X0099224Y0154435D01*
X0099130Y0154556D01*
X0099039Y0154679D01*
X0098951Y0154805D01*
X0098867Y0154933D01*
X0098785Y0155063D01*
X0098708Y0155195D01*
X0098633Y0155329D01*
X0098562Y0155465D01*
X0098495Y0155603D01*
X0098431Y0155743D01*
X0098371Y0155884D01*
X0098315Y0156026D01*
X0098262Y0156170D01*
X0098213Y0156316D01*
X0098168Y0156462D01*
X0098127Y0156610D01*
X0098090Y0156758D01*
X0098056Y0156908D01*
X0098026Y0157059D01*
X0098001Y0157210D01*
X0097979Y0157361D01*
X0097961Y0157514D01*
X0097947Y0157666D01*
X0097937Y0157819D01*
X0097931Y0157973D01*
X0097929Y0158126D01*
X0084500Y0181000D02*
X0084502Y0181161D01*
X0084508Y0181321D01*
X0084518Y0181482D01*
X0084532Y0181642D01*
X0084550Y0181802D01*
X0084571Y0181961D01*
X0084597Y0182120D01*
X0084627Y0182278D01*
X0084660Y0182435D01*
X0084698Y0182592D01*
X0084739Y0182747D01*
X0084784Y0182901D01*
X0084833Y0183054D01*
X0084886Y0183206D01*
X0084942Y0183357D01*
X0085003Y0183506D01*
X0085066Y0183654D01*
X0085134Y0183800D01*
X0085205Y0183944D01*
X0085279Y0184086D01*
X0085357Y0184227D01*
X0085439Y0184365D01*
X0085524Y0184502D01*
X0085612Y0184636D01*
X0085704Y0184768D01*
X0085799Y0184898D01*
X0085897Y0185026D01*
X0085998Y0185151D01*
X0086102Y0185273D01*
X0086209Y0185393D01*
X0086319Y0185510D01*
X0086432Y0185625D01*
X0086548Y0185736D01*
X0086667Y0185845D01*
X0086788Y0185950D01*
X0086912Y0186053D01*
X0087038Y0186153D01*
X0087166Y0186249D01*
X0087297Y0186342D01*
X0087431Y0186432D01*
X0087566Y0186519D01*
X0087704Y0186602D01*
X0087843Y0186682D01*
X0087985Y0186758D01*
X0088128Y0186831D01*
X0088273Y0186900D01*
X0088420Y0186966D01*
X0088568Y0187028D01*
X0088718Y0187086D01*
X0088869Y0187141D01*
X0089022Y0187192D01*
X0089176Y0187239D01*
X0089331Y0187282D01*
X0089487Y0187321D01*
X0089643Y0187357D01*
X0089801Y0187388D01*
X0089959Y0187416D01*
X0090118Y0187440D01*
X0090278Y0187460D01*
X0090438Y0187476D01*
X0090598Y0187488D01*
X0090759Y0187496D01*
X0090920Y0187500D01*
X0091080Y0187500D01*
X0091241Y0187496D01*
X0091402Y0187488D01*
X0091562Y0187476D01*
X0091722Y0187460D01*
X0091882Y0187440D01*
X0092041Y0187416D01*
X0092199Y0187388D01*
X0092357Y0187357D01*
X0092513Y0187321D01*
X0092669Y0187282D01*
X0092824Y0187239D01*
X0092978Y0187192D01*
X0093131Y0187141D01*
X0093282Y0187086D01*
X0093432Y0187028D01*
X0093580Y0186966D01*
X0093727Y0186900D01*
X0093872Y0186831D01*
X0094015Y0186758D01*
X0094157Y0186682D01*
X0094296Y0186602D01*
X0094434Y0186519D01*
X0094569Y0186432D01*
X0094703Y0186342D01*
X0094834Y0186249D01*
X0094962Y0186153D01*
X0095088Y0186053D01*
X0095212Y0185950D01*
X0095333Y0185845D01*
X0095452Y0185736D01*
X0095568Y0185625D01*
X0095681Y0185510D01*
X0095791Y0185393D01*
X0095898Y0185273D01*
X0096002Y0185151D01*
X0096103Y0185026D01*
X0096201Y0184898D01*
X0096296Y0184768D01*
X0096388Y0184636D01*
X0096476Y0184502D01*
X0096561Y0184365D01*
X0096643Y0184227D01*
X0096721Y0184086D01*
X0096795Y0183944D01*
X0096866Y0183800D01*
X0096934Y0183654D01*
X0096997Y0183506D01*
X0097058Y0183357D01*
X0097114Y0183206D01*
X0097167Y0183054D01*
X0097216Y0182901D01*
X0097261Y0182747D01*
X0097302Y0182592D01*
X0097340Y0182435D01*
X0097373Y0182278D01*
X0097403Y0182120D01*
X0097429Y0181961D01*
X0097450Y0181802D01*
X0097468Y0181642D01*
X0097482Y0181482D01*
X0097492Y0181321D01*
X0097498Y0181161D01*
X0097500Y0181000D01*
X0097498Y0180839D01*
X0097492Y0180679D01*
X0097482Y0180518D01*
X0097468Y0180358D01*
X0097450Y0180198D01*
X0097429Y0180039D01*
X0097403Y0179880D01*
X0097373Y0179722D01*
X0097340Y0179565D01*
X0097302Y0179408D01*
X0097261Y0179253D01*
X0097216Y0179099D01*
X0097167Y0178946D01*
X0097114Y0178794D01*
X0097058Y0178643D01*
X0096997Y0178494D01*
X0096934Y0178346D01*
X0096866Y0178200D01*
X0096795Y0178056D01*
X0096721Y0177914D01*
X0096643Y0177773D01*
X0096561Y0177635D01*
X0096476Y0177498D01*
X0096388Y0177364D01*
X0096296Y0177232D01*
X0096201Y0177102D01*
X0096103Y0176974D01*
X0096002Y0176849D01*
X0095898Y0176727D01*
X0095791Y0176607D01*
X0095681Y0176490D01*
X0095568Y0176375D01*
X0095452Y0176264D01*
X0095333Y0176155D01*
X0095212Y0176050D01*
X0095088Y0175947D01*
X0094962Y0175847D01*
X0094834Y0175751D01*
X0094703Y0175658D01*
X0094569Y0175568D01*
X0094434Y0175481D01*
X0094296Y0175398D01*
X0094157Y0175318D01*
X0094015Y0175242D01*
X0093872Y0175169D01*
X0093727Y0175100D01*
X0093580Y0175034D01*
X0093432Y0174972D01*
X0093282Y0174914D01*
X0093131Y0174859D01*
X0092978Y0174808D01*
X0092824Y0174761D01*
X0092669Y0174718D01*
X0092513Y0174679D01*
X0092357Y0174643D01*
X0092199Y0174612D01*
X0092041Y0174584D01*
X0091882Y0174560D01*
X0091722Y0174540D01*
X0091562Y0174524D01*
X0091402Y0174512D01*
X0091241Y0174504D01*
X0091080Y0174500D01*
X0090920Y0174500D01*
X0090759Y0174504D01*
X0090598Y0174512D01*
X0090438Y0174524D01*
X0090278Y0174540D01*
X0090118Y0174560D01*
X0089959Y0174584D01*
X0089801Y0174612D01*
X0089643Y0174643D01*
X0089487Y0174679D01*
X0089331Y0174718D01*
X0089176Y0174761D01*
X0089022Y0174808D01*
X0088869Y0174859D01*
X0088718Y0174914D01*
X0088568Y0174972D01*
X0088420Y0175034D01*
X0088273Y0175100D01*
X0088128Y0175169D01*
X0087985Y0175242D01*
X0087843Y0175318D01*
X0087704Y0175398D01*
X0087566Y0175481D01*
X0087431Y0175568D01*
X0087297Y0175658D01*
X0087166Y0175751D01*
X0087038Y0175847D01*
X0086912Y0175947D01*
X0086788Y0176050D01*
X0086667Y0176155D01*
X0086548Y0176264D01*
X0086432Y0176375D01*
X0086319Y0176490D01*
X0086209Y0176607D01*
X0086102Y0176727D01*
X0085998Y0176849D01*
X0085897Y0176974D01*
X0085799Y0177102D01*
X0085704Y0177232D01*
X0085612Y0177364D01*
X0085524Y0177498D01*
X0085439Y0177635D01*
X0085357Y0177773D01*
X0085279Y0177914D01*
X0085205Y0178056D01*
X0085134Y0178200D01*
X0085066Y0178346D01*
X0085003Y0178494D01*
X0084942Y0178643D01*
X0084886Y0178794D01*
X0084833Y0178946D01*
X0084784Y0179099D01*
X0084739Y0179253D01*
X0084698Y0179408D01*
X0084660Y0179565D01*
X0084627Y0179722D01*
X0084597Y0179880D01*
X0084571Y0180039D01*
X0084550Y0180198D01*
X0084532Y0180358D01*
X0084518Y0180518D01*
X0084508Y0180679D01*
X0084502Y0180839D01*
X0084500Y0181000D01*
X0009500Y0181000D02*
X0009502Y0181161D01*
X0009508Y0181321D01*
X0009518Y0181482D01*
X0009532Y0181642D01*
X0009550Y0181802D01*
X0009571Y0181961D01*
X0009597Y0182120D01*
X0009627Y0182278D01*
X0009660Y0182435D01*
X0009698Y0182592D01*
X0009739Y0182747D01*
X0009784Y0182901D01*
X0009833Y0183054D01*
X0009886Y0183206D01*
X0009942Y0183357D01*
X0010003Y0183506D01*
X0010066Y0183654D01*
X0010134Y0183800D01*
X0010205Y0183944D01*
X0010279Y0184086D01*
X0010357Y0184227D01*
X0010439Y0184365D01*
X0010524Y0184502D01*
X0010612Y0184636D01*
X0010704Y0184768D01*
X0010799Y0184898D01*
X0010897Y0185026D01*
X0010998Y0185151D01*
X0011102Y0185273D01*
X0011209Y0185393D01*
X0011319Y0185510D01*
X0011432Y0185625D01*
X0011548Y0185736D01*
X0011667Y0185845D01*
X0011788Y0185950D01*
X0011912Y0186053D01*
X0012038Y0186153D01*
X0012166Y0186249D01*
X0012297Y0186342D01*
X0012431Y0186432D01*
X0012566Y0186519D01*
X0012704Y0186602D01*
X0012843Y0186682D01*
X0012985Y0186758D01*
X0013128Y0186831D01*
X0013273Y0186900D01*
X0013420Y0186966D01*
X0013568Y0187028D01*
X0013718Y0187086D01*
X0013869Y0187141D01*
X0014022Y0187192D01*
X0014176Y0187239D01*
X0014331Y0187282D01*
X0014487Y0187321D01*
X0014643Y0187357D01*
X0014801Y0187388D01*
X0014959Y0187416D01*
X0015118Y0187440D01*
X0015278Y0187460D01*
X0015438Y0187476D01*
X0015598Y0187488D01*
X0015759Y0187496D01*
X0015920Y0187500D01*
X0016080Y0187500D01*
X0016241Y0187496D01*
X0016402Y0187488D01*
X0016562Y0187476D01*
X0016722Y0187460D01*
X0016882Y0187440D01*
X0017041Y0187416D01*
X0017199Y0187388D01*
X0017357Y0187357D01*
X0017513Y0187321D01*
X0017669Y0187282D01*
X0017824Y0187239D01*
X0017978Y0187192D01*
X0018131Y0187141D01*
X0018282Y0187086D01*
X0018432Y0187028D01*
X0018580Y0186966D01*
X0018727Y0186900D01*
X0018872Y0186831D01*
X0019015Y0186758D01*
X0019157Y0186682D01*
X0019296Y0186602D01*
X0019434Y0186519D01*
X0019569Y0186432D01*
X0019703Y0186342D01*
X0019834Y0186249D01*
X0019962Y0186153D01*
X0020088Y0186053D01*
X0020212Y0185950D01*
X0020333Y0185845D01*
X0020452Y0185736D01*
X0020568Y0185625D01*
X0020681Y0185510D01*
X0020791Y0185393D01*
X0020898Y0185273D01*
X0021002Y0185151D01*
X0021103Y0185026D01*
X0021201Y0184898D01*
X0021296Y0184768D01*
X0021388Y0184636D01*
X0021476Y0184502D01*
X0021561Y0184365D01*
X0021643Y0184227D01*
X0021721Y0184086D01*
X0021795Y0183944D01*
X0021866Y0183800D01*
X0021934Y0183654D01*
X0021997Y0183506D01*
X0022058Y0183357D01*
X0022114Y0183206D01*
X0022167Y0183054D01*
X0022216Y0182901D01*
X0022261Y0182747D01*
X0022302Y0182592D01*
X0022340Y0182435D01*
X0022373Y0182278D01*
X0022403Y0182120D01*
X0022429Y0181961D01*
X0022450Y0181802D01*
X0022468Y0181642D01*
X0022482Y0181482D01*
X0022492Y0181321D01*
X0022498Y0181161D01*
X0022500Y0181000D01*
X0022498Y0180839D01*
X0022492Y0180679D01*
X0022482Y0180518D01*
X0022468Y0180358D01*
X0022450Y0180198D01*
X0022429Y0180039D01*
X0022403Y0179880D01*
X0022373Y0179722D01*
X0022340Y0179565D01*
X0022302Y0179408D01*
X0022261Y0179253D01*
X0022216Y0179099D01*
X0022167Y0178946D01*
X0022114Y0178794D01*
X0022058Y0178643D01*
X0021997Y0178494D01*
X0021934Y0178346D01*
X0021866Y0178200D01*
X0021795Y0178056D01*
X0021721Y0177914D01*
X0021643Y0177773D01*
X0021561Y0177635D01*
X0021476Y0177498D01*
X0021388Y0177364D01*
X0021296Y0177232D01*
X0021201Y0177102D01*
X0021103Y0176974D01*
X0021002Y0176849D01*
X0020898Y0176727D01*
X0020791Y0176607D01*
X0020681Y0176490D01*
X0020568Y0176375D01*
X0020452Y0176264D01*
X0020333Y0176155D01*
X0020212Y0176050D01*
X0020088Y0175947D01*
X0019962Y0175847D01*
X0019834Y0175751D01*
X0019703Y0175658D01*
X0019569Y0175568D01*
X0019434Y0175481D01*
X0019296Y0175398D01*
X0019157Y0175318D01*
X0019015Y0175242D01*
X0018872Y0175169D01*
X0018727Y0175100D01*
X0018580Y0175034D01*
X0018432Y0174972D01*
X0018282Y0174914D01*
X0018131Y0174859D01*
X0017978Y0174808D01*
X0017824Y0174761D01*
X0017669Y0174718D01*
X0017513Y0174679D01*
X0017357Y0174643D01*
X0017199Y0174612D01*
X0017041Y0174584D01*
X0016882Y0174560D01*
X0016722Y0174540D01*
X0016562Y0174524D01*
X0016402Y0174512D01*
X0016241Y0174504D01*
X0016080Y0174500D01*
X0015920Y0174500D01*
X0015759Y0174504D01*
X0015598Y0174512D01*
X0015438Y0174524D01*
X0015278Y0174540D01*
X0015118Y0174560D01*
X0014959Y0174584D01*
X0014801Y0174612D01*
X0014643Y0174643D01*
X0014487Y0174679D01*
X0014331Y0174718D01*
X0014176Y0174761D01*
X0014022Y0174808D01*
X0013869Y0174859D01*
X0013718Y0174914D01*
X0013568Y0174972D01*
X0013420Y0175034D01*
X0013273Y0175100D01*
X0013128Y0175169D01*
X0012985Y0175242D01*
X0012843Y0175318D01*
X0012704Y0175398D01*
X0012566Y0175481D01*
X0012431Y0175568D01*
X0012297Y0175658D01*
X0012166Y0175751D01*
X0012038Y0175847D01*
X0011912Y0175947D01*
X0011788Y0176050D01*
X0011667Y0176155D01*
X0011548Y0176264D01*
X0011432Y0176375D01*
X0011319Y0176490D01*
X0011209Y0176607D01*
X0011102Y0176727D01*
X0010998Y0176849D01*
X0010897Y0176974D01*
X0010799Y0177102D01*
X0010704Y0177232D01*
X0010612Y0177364D01*
X0010524Y0177498D01*
X0010439Y0177635D01*
X0010357Y0177773D01*
X0010279Y0177914D01*
X0010205Y0178056D01*
X0010134Y0178200D01*
X0010066Y0178346D01*
X0010003Y0178494D01*
X0009942Y0178643D01*
X0009886Y0178794D01*
X0009833Y0178946D01*
X0009784Y0179099D01*
X0009739Y0179253D01*
X0009698Y0179408D01*
X0009660Y0179565D01*
X0009627Y0179722D01*
X0009597Y0179880D01*
X0009571Y0180039D01*
X0009550Y0180198D01*
X0009532Y0180358D01*
X0009518Y0180518D01*
X0009508Y0180679D01*
X0009502Y0180839D01*
X0009500Y0181000D01*
M02*
