%
M48
M72
T01C0.0315
T02C0.0394
T03C0.1181
T04C0.1300
%
T01
X4872Y5230
X4872Y6230
X4872Y7230
X4872Y8230
X4872Y9230
X4872Y10230
X4872Y11230
X4872Y12230
T02
X2800Y11800
X2800Y10800
X2800Y9800
X2800Y8800
X2800Y7800
X2800Y6800
X2800Y5800
X2800Y4800
X2800Y3800
X8800Y3800
X8800Y4800
X8800Y5800
X8800Y6800
X8800Y7800
X8800Y8800
X8800Y9800
X8800Y10800
X8800Y11800
X8800Y12800
X8800Y13800
X8800Y14800
X2800Y14800
X2800Y13800
X2800Y12800
T03
X10383Y15813
X10383Y1639
T04
X1600Y1600
X1600Y18100
X9100Y18100
M30
