%TF.GenerationSoftware,KiCad,Pcbnew,(6.0.1)*%
%TF.CreationDate,2023-03-08T21:06:12-08:00*%
%TF.ProjectId,Ultrasonic,556c7472-6173-46f6-9e69-632e6b696361,rev?*%
%TF.SameCoordinates,Original*%
%TF.FileFunction,Copper,L1,Top*%
%TF.FilePolarity,Positive*%
%FSLAX46Y46*%
G04 Gerber Fmt 4.6, Leading zero omitted, Abs format (unit mm)*
G04 Created by KiCad (PCBNEW (6.0.1)) date 2023-03-08 21:06:12*
%MOMM*%
%LPD*%
G01*
G04 APERTURE LIST*
G04 Aperture macros list*
%AMRoundRect*
0 Rectangle with rounded corners*
0 $1 Rounding radius*
0 $2 $3 $4 $5 $6 $7 $8 $9 X,Y pos of 4 corners*
0 Add a 4 corners polygon primitive as box body*
4,1,4,$2,$3,$4,$5,$6,$7,$8,$9,$2,$3,0*
0 Add four circle primitives for the rounded corners*
1,1,$1+$1,$2,$3*
1,1,$1+$1,$4,$5*
1,1,$1+$1,$6,$7*
1,1,$1+$1,$8,$9*
0 Add four rect primitives between the rounded corners*
20,1,$1+$1,$2,$3,$4,$5,0*
20,1,$1+$1,$4,$5,$6,$7,0*
20,1,$1+$1,$6,$7,$8,$9,0*
20,1,$1+$1,$8,$9,$2,$3,0*%
G04 Aperture macros list end*
%TA.AperFunction,ComponentPad*%
%ADD10C,1.530000*%
%TD*%
%TA.AperFunction,SMDPad,CuDef*%
%ADD11RoundRect,0.237500X-0.250000X-0.237500X0.250000X-0.237500X0.250000X0.237500X-0.250000X0.237500X0*%
%TD*%
%TA.AperFunction,ComponentPad*%
%ADD12R,1.600000X1.600000*%
%TD*%
%TA.AperFunction,ComponentPad*%
%ADD13C,1.600000*%
%TD*%
%TA.AperFunction,ViaPad*%
%ADD14C,0.800000*%
%TD*%
%TA.AperFunction,Conductor*%
%ADD15C,0.250000*%
%TD*%
G04 APERTURE END LIST*
D10*
%TO.P,U2,1,VCC*%
%TO.N,Net-(U1-Pad21)*%
X163250000Y-94610000D03*
%TO.P,U2,2,TRIG*%
%TO.N,Net-(U1-Pad15)*%
X163250000Y-92070000D03*
%TO.P,U2,3,ECHO*%
%TO.N,Net-(R2-Pad2)*%
X163250000Y-89530000D03*
%TO.P,U2,4,GND*%
%TO.N,GND*%
X163250000Y-86990000D03*
%TD*%
D11*
%TO.P,R2,1*%
%TO.N,Net-(R1-Pad2)*%
X159162500Y-81700000D03*
%TO.P,R2,2*%
%TO.N,Net-(R2-Pad2)*%
X160987500Y-81700000D03*
%TD*%
D12*
%TO.P,U1,1,TX*%
%TO.N,unconnected-(U1-Pad1)*%
X131705000Y-76980000D03*
D13*
%TO.P,U1,2,RX*%
%TO.N,unconnected-(U1-Pad2)*%
X131705000Y-79520000D03*
%TO.P,U1,3,GND*%
%TO.N,GND*%
X131705000Y-82060000D03*
%TO.P,U1,4,GND*%
X131705000Y-84600000D03*
%TO.P,U1,5,SDA*%
%TO.N,unconnected-(U1-Pad5)*%
X131705000Y-87140000D03*
%TO.P,U1,6,SCL*%
%TO.N,unconnected-(U1-Pad6)*%
X131705000Y-89680000D03*
%TO.P,U1,7,D4*%
%TO.N,unconnected-(U1-Pad7)*%
X131705000Y-92220000D03*
%TO.P,U1,8,C6*%
%TO.N,unconnected-(U1-Pad8)*%
X131705000Y-94760000D03*
%TO.P,U1,9,D7*%
%TO.N,unconnected-(U1-Pad9)*%
X131705000Y-97300000D03*
%TO.P,U1,10,E6*%
%TO.N,unconnected-(U1-Pad10)*%
X131705000Y-99840000D03*
%TO.P,U1,11,B4*%
%TO.N,unconnected-(U1-Pad11)*%
X131705000Y-102380000D03*
%TO.P,U1,12,B5*%
%TO.N,unconnected-(U1-Pad12)*%
X131705000Y-104920000D03*
%TO.P,U1,13,B6*%
%TO.N,unconnected-(U1-Pad13)*%
X146945000Y-104920000D03*
%TO.P,U1,14,B2*%
%TO.N,Net-(R1-Pad2)*%
X146945000Y-102380000D03*
%TO.P,U1,15,B3*%
%TO.N,Net-(U1-Pad15)*%
X146945000Y-99840000D03*
%TO.P,U1,16,B1*%
%TO.N,unconnected-(U1-Pad16)*%
X146945000Y-97300000D03*
%TO.P,U1,17,F7*%
%TO.N,unconnected-(U1-Pad17)*%
X146945000Y-94760000D03*
%TO.P,U1,18,F6*%
%TO.N,unconnected-(U1-Pad18)*%
X146945000Y-92220000D03*
%TO.P,U1,19,F5*%
%TO.N,unconnected-(U1-Pad19)*%
X146945000Y-89680000D03*
%TO.P,U1,20,F4*%
%TO.N,unconnected-(U1-Pad20)*%
X146945000Y-87140000D03*
%TO.P,U1,21,VCC*%
%TO.N,Net-(U1-Pad21)*%
X146945000Y-84600000D03*
%TO.P,U1,22,RST*%
%TO.N,unconnected-(U1-Pad22)*%
X146945000Y-82060000D03*
%TO.P,U1,23,GND*%
%TO.N,GND*%
X146945000Y-79520000D03*
%TO.P,U1,24,RAW*%
%TO.N,unconnected-(U1-Pad24)*%
X146945000Y-76980000D03*
%TD*%
D11*
%TO.P,R1,1*%
%TO.N,GND*%
X154212500Y-81775000D03*
%TO.P,R1,2*%
%TO.N,Net-(R1-Pad2)*%
X156037500Y-81775000D03*
%TD*%
D14*
%TO.N,Net-(R1-Pad2)*%
X156300000Y-85700000D03*
X150000000Y-99275000D03*
%TO.N,Net-(U1-Pad15)*%
X154950000Y-91800000D03*
X159125000Y-87925000D03*
%TD*%
D15*
%TO.N,Net-(R1-Pad2)*%
X159162500Y-81700000D02*
X156112500Y-81700000D01*
X156112500Y-81700000D02*
X156037500Y-81775000D01*
X156300000Y-85700000D02*
X159162500Y-82837500D01*
X150000000Y-99275000D02*
X150000000Y-99325000D01*
X159162500Y-82837500D02*
X159162500Y-81700000D01*
X150000000Y-99325000D02*
X146945000Y-102380000D01*
%TO.N,Net-(U1-Pad15)*%
X152950000Y-93835000D02*
X146945000Y-99840000D01*
X159815489Y-88635489D02*
X163250000Y-92070000D01*
X159125000Y-87925000D02*
X159815489Y-88615489D01*
X152950000Y-93800000D02*
X152950000Y-93835000D01*
X154950000Y-91800000D02*
X152950000Y-93800000D01*
X159815489Y-88615489D02*
X159815489Y-88635489D01*
%TO.N,Net-(U1-Pad21)*%
X153240000Y-84600000D02*
X163250000Y-94610000D01*
X146945000Y-84600000D02*
X153240000Y-84600000D01*
%TO.N,Net-(R2-Pad2)*%
X160987500Y-87267500D02*
X163250000Y-89530000D01*
X160987500Y-81700000D02*
X160987500Y-87267500D01*
%TD*%
%TA.AperFunction,Conductor*%
%TO.N,GND*%
G36*
X166234121Y-68315502D02*
G01*
X166280614Y-68369158D01*
X166292000Y-68421500D01*
X166292000Y-112928500D01*
X166271998Y-112996621D01*
X166218342Y-113043114D01*
X166166000Y-113054500D01*
X126909000Y-113054500D01*
X126840879Y-113034498D01*
X126794386Y-112980842D01*
X126783000Y-112928500D01*
X126783000Y-104920000D01*
X130391502Y-104920000D01*
X130411457Y-105148087D01*
X130470716Y-105369243D01*
X130473039Y-105374224D01*
X130473039Y-105374225D01*
X130565151Y-105571762D01*
X130565154Y-105571767D01*
X130567477Y-105576749D01*
X130698802Y-105764300D01*
X130860700Y-105926198D01*
X130865208Y-105929355D01*
X130865211Y-105929357D01*
X130943389Y-105984098D01*
X131048251Y-106057523D01*
X131053233Y-106059846D01*
X131053238Y-106059849D01*
X131250775Y-106151961D01*
X131255757Y-106154284D01*
X131261065Y-106155706D01*
X131261067Y-106155707D01*
X131471598Y-106212119D01*
X131471600Y-106212119D01*
X131476913Y-106213543D01*
X131705000Y-106233498D01*
X131933087Y-106213543D01*
X131938400Y-106212119D01*
X131938402Y-106212119D01*
X132148933Y-106155707D01*
X132148935Y-106155706D01*
X132154243Y-106154284D01*
X132159225Y-106151961D01*
X132356762Y-106059849D01*
X132356767Y-106059846D01*
X132361749Y-106057523D01*
X132466611Y-105984098D01*
X132544789Y-105929357D01*
X132544792Y-105929355D01*
X132549300Y-105926198D01*
X132711198Y-105764300D01*
X132842523Y-105576749D01*
X132844846Y-105571767D01*
X132844849Y-105571762D01*
X132936961Y-105374225D01*
X132936961Y-105374224D01*
X132939284Y-105369243D01*
X132998543Y-105148087D01*
X133018498Y-104920000D01*
X145631502Y-104920000D01*
X145651457Y-105148087D01*
X145710716Y-105369243D01*
X145713039Y-105374224D01*
X145713039Y-105374225D01*
X145805151Y-105571762D01*
X145805154Y-105571767D01*
X145807477Y-105576749D01*
X145938802Y-105764300D01*
X146100700Y-105926198D01*
X146105208Y-105929355D01*
X146105211Y-105929357D01*
X146183389Y-105984098D01*
X146288251Y-106057523D01*
X146293233Y-106059846D01*
X146293238Y-106059849D01*
X146490775Y-106151961D01*
X146495757Y-106154284D01*
X146501065Y-106155706D01*
X146501067Y-106155707D01*
X146711598Y-106212119D01*
X146711600Y-106212119D01*
X146716913Y-106213543D01*
X146945000Y-106233498D01*
X147173087Y-106213543D01*
X147178400Y-106212119D01*
X147178402Y-106212119D01*
X147388933Y-106155707D01*
X147388935Y-106155706D01*
X147394243Y-106154284D01*
X147399225Y-106151961D01*
X147596762Y-106059849D01*
X147596767Y-106059846D01*
X147601749Y-106057523D01*
X147706611Y-105984098D01*
X147784789Y-105929357D01*
X147784792Y-105929355D01*
X147789300Y-105926198D01*
X147951198Y-105764300D01*
X148082523Y-105576749D01*
X148084846Y-105571767D01*
X148084849Y-105571762D01*
X148176961Y-105374225D01*
X148176961Y-105374224D01*
X148179284Y-105369243D01*
X148238543Y-105148087D01*
X148258498Y-104920000D01*
X148238543Y-104691913D01*
X148179284Y-104470757D01*
X148176961Y-104465775D01*
X148084849Y-104268238D01*
X148084846Y-104268233D01*
X148082523Y-104263251D01*
X147951198Y-104075700D01*
X147789300Y-103913802D01*
X147784792Y-103910645D01*
X147784789Y-103910643D01*
X147706611Y-103855902D01*
X147601749Y-103782477D01*
X147596767Y-103780154D01*
X147596762Y-103780151D01*
X147562543Y-103764195D01*
X147509258Y-103717278D01*
X147489797Y-103649001D01*
X147510339Y-103581041D01*
X147562543Y-103535805D01*
X147596762Y-103519849D01*
X147596767Y-103519846D01*
X147601749Y-103517523D01*
X147706611Y-103444098D01*
X147784789Y-103389357D01*
X147784792Y-103389355D01*
X147789300Y-103386198D01*
X147951198Y-103224300D01*
X148082523Y-103036749D01*
X148084846Y-103031767D01*
X148084849Y-103031762D01*
X148176961Y-102834225D01*
X148176961Y-102834224D01*
X148179284Y-102829243D01*
X148238543Y-102608087D01*
X148258498Y-102380000D01*
X148238543Y-102151913D01*
X148237119Y-102146598D01*
X148237118Y-102146591D01*
X148221541Y-102088459D01*
X148223230Y-102017483D01*
X148254152Y-101966752D01*
X150000499Y-100220405D01*
X150062811Y-100186379D01*
X150082328Y-100184281D01*
X150082318Y-100184190D01*
X150088885Y-100183500D01*
X150095487Y-100183500D01*
X150101939Y-100182128D01*
X150101944Y-100182128D01*
X150188887Y-100163647D01*
X150282288Y-100143794D01*
X150440392Y-100073402D01*
X150450722Y-100068803D01*
X150450724Y-100068802D01*
X150456752Y-100066118D01*
X150611253Y-99953866D01*
X150615675Y-99948955D01*
X150734621Y-99816852D01*
X150734622Y-99816851D01*
X150739040Y-99811944D01*
X150834527Y-99646556D01*
X150893542Y-99464928D01*
X150897555Y-99426752D01*
X150912814Y-99281565D01*
X150913504Y-99275000D01*
X150893542Y-99085072D01*
X150834527Y-98903444D01*
X150739040Y-98738056D01*
X150690544Y-98684195D01*
X150615675Y-98601045D01*
X150615674Y-98601044D01*
X150611253Y-98596134D01*
X150456752Y-98483882D01*
X150450724Y-98481198D01*
X150450722Y-98481197D01*
X150288319Y-98408891D01*
X150288318Y-98408891D01*
X150282288Y-98406206D01*
X150188887Y-98386353D01*
X150101944Y-98367872D01*
X150101939Y-98367872D01*
X150095487Y-98366500D01*
X149904513Y-98366500D01*
X149898061Y-98367872D01*
X149898056Y-98367872D01*
X149811112Y-98386353D01*
X149717712Y-98406206D01*
X149711682Y-98408891D01*
X149711681Y-98408891D01*
X149549279Y-98481197D01*
X149543248Y-98483882D01*
X149542522Y-98482252D01*
X149482029Y-98496927D01*
X149414937Y-98473707D01*
X149371050Y-98417900D01*
X149364301Y-98347225D01*
X149398929Y-98281975D01*
X153342247Y-94338657D01*
X153350537Y-94331113D01*
X153357018Y-94327000D01*
X153403659Y-94277332D01*
X153406413Y-94274491D01*
X153426134Y-94254770D01*
X153428612Y-94251575D01*
X153436318Y-94242553D01*
X153461158Y-94216101D01*
X153466586Y-94210321D01*
X153476346Y-94192568D01*
X153487199Y-94176045D01*
X153493601Y-94167791D01*
X153499613Y-94160041D01*
X153502762Y-94152764D01*
X153506796Y-94145943D01*
X153508122Y-94146727D01*
X153527099Y-94118805D01*
X154900500Y-92745405D01*
X154962812Y-92711379D01*
X154989595Y-92708500D01*
X155045487Y-92708500D01*
X155051939Y-92707128D01*
X155051944Y-92707128D01*
X155138887Y-92688647D01*
X155232288Y-92668794D01*
X155243206Y-92663933D01*
X155400722Y-92593803D01*
X155400724Y-92593802D01*
X155406752Y-92591118D01*
X155561253Y-92478866D01*
X155689040Y-92336944D01*
X155784527Y-92171556D01*
X155843542Y-91989928D01*
X155863504Y-91800000D01*
X155860907Y-91775293D01*
X155844232Y-91616635D01*
X155844232Y-91616633D01*
X155843542Y-91610072D01*
X155784527Y-91428444D01*
X155689040Y-91263056D01*
X155675739Y-91248283D01*
X155565675Y-91126045D01*
X155565674Y-91126044D01*
X155561253Y-91121134D01*
X155406752Y-91008882D01*
X155400724Y-91006198D01*
X155400722Y-91006197D01*
X155238319Y-90933891D01*
X155238318Y-90933891D01*
X155232288Y-90931206D01*
X155138888Y-90911353D01*
X155051944Y-90892872D01*
X155051939Y-90892872D01*
X155045487Y-90891500D01*
X154854513Y-90891500D01*
X154848061Y-90892872D01*
X154848056Y-90892872D01*
X154761112Y-90911353D01*
X154667712Y-90931206D01*
X154661682Y-90933891D01*
X154661681Y-90933891D01*
X154499278Y-91006197D01*
X154499276Y-91006198D01*
X154493248Y-91008882D01*
X154338747Y-91121134D01*
X154334326Y-91126044D01*
X154334325Y-91126045D01*
X154224262Y-91248283D01*
X154210960Y-91263056D01*
X154115473Y-91428444D01*
X154056458Y-91610072D01*
X154055768Y-91616633D01*
X154055768Y-91616635D01*
X154039093Y-91775293D01*
X154012080Y-91840950D01*
X154002878Y-91851218D01*
X152557747Y-93296348D01*
X152549461Y-93303888D01*
X152542982Y-93308000D01*
X152537557Y-93313777D01*
X152496357Y-93357651D01*
X152493602Y-93360493D01*
X152473865Y-93380230D01*
X152471385Y-93383427D01*
X152463682Y-93392447D01*
X152433414Y-93424679D01*
X152429595Y-93431625D01*
X152429593Y-93431628D01*
X152423652Y-93442434D01*
X152412801Y-93458953D01*
X152400386Y-93474959D01*
X152397238Y-93482235D01*
X152393203Y-93489057D01*
X152391877Y-93488273D01*
X152372900Y-93516195D01*
X148471589Y-97417506D01*
X148409277Y-97451532D01*
X148338462Y-97446467D01*
X148281626Y-97403920D01*
X148256815Y-97337400D01*
X148256974Y-97317428D01*
X148258019Y-97305485D01*
X148258019Y-97305475D01*
X148258498Y-97300000D01*
X148238543Y-97071913D01*
X148179284Y-96850757D01*
X148176961Y-96845775D01*
X148084849Y-96648238D01*
X148084846Y-96648233D01*
X148082523Y-96643251D01*
X147951198Y-96455700D01*
X147789300Y-96293802D01*
X147784792Y-96290645D01*
X147784789Y-96290643D01*
X147706611Y-96235902D01*
X147601749Y-96162477D01*
X147596767Y-96160154D01*
X147596762Y-96160151D01*
X147562543Y-96144195D01*
X147509258Y-96097278D01*
X147489797Y-96029001D01*
X147510339Y-95961041D01*
X147562543Y-95915805D01*
X147596762Y-95899849D01*
X147596767Y-95899846D01*
X147601749Y-95897523D01*
X147706611Y-95824098D01*
X147784789Y-95769357D01*
X147784792Y-95769355D01*
X147789300Y-95766198D01*
X147951198Y-95604300D01*
X147959501Y-95592443D01*
X148009098Y-95521611D01*
X148082523Y-95416749D01*
X148084846Y-95411767D01*
X148084849Y-95411762D01*
X148176961Y-95214225D01*
X148176961Y-95214224D01*
X148179284Y-95209243D01*
X148221362Y-95052209D01*
X148237119Y-94993402D01*
X148237119Y-94993400D01*
X148238543Y-94988087D01*
X148258498Y-94760000D01*
X148238543Y-94531913D01*
X148237119Y-94526598D01*
X148180707Y-94316067D01*
X148180706Y-94316065D01*
X148179284Y-94310757D01*
X148163435Y-94276769D01*
X148084849Y-94108238D01*
X148084846Y-94108233D01*
X148082523Y-94103251D01*
X147951198Y-93915700D01*
X147789300Y-93753802D01*
X147784792Y-93750645D01*
X147784789Y-93750643D01*
X147706611Y-93695902D01*
X147601749Y-93622477D01*
X147596767Y-93620154D01*
X147596762Y-93620151D01*
X147562543Y-93604195D01*
X147509258Y-93557278D01*
X147489797Y-93489001D01*
X147510339Y-93421041D01*
X147562543Y-93375805D01*
X147596762Y-93359849D01*
X147596767Y-93359846D01*
X147601749Y-93357523D01*
X147731917Y-93266378D01*
X147784789Y-93229357D01*
X147784792Y-93229355D01*
X147789300Y-93226198D01*
X147951198Y-93064300D01*
X147959501Y-93052443D01*
X148009098Y-92981611D01*
X148082523Y-92876749D01*
X148084846Y-92871767D01*
X148084849Y-92871762D01*
X148176961Y-92674225D01*
X148176961Y-92674224D01*
X148179284Y-92669243D01*
X148221362Y-92512209D01*
X148237119Y-92453402D01*
X148237119Y-92453400D01*
X148238543Y-92448087D01*
X148258498Y-92220000D01*
X148238543Y-91991913D01*
X148236253Y-91983365D01*
X148180707Y-91776067D01*
X148180706Y-91776065D01*
X148179284Y-91770757D01*
X148117418Y-91638083D01*
X148084849Y-91568238D01*
X148084846Y-91568233D01*
X148082523Y-91563251D01*
X147951198Y-91375700D01*
X147789300Y-91213802D01*
X147784792Y-91210645D01*
X147784789Y-91210643D01*
X147663970Y-91126045D01*
X147601749Y-91082477D01*
X147596767Y-91080154D01*
X147596762Y-91080151D01*
X147562543Y-91064195D01*
X147509258Y-91017278D01*
X147489797Y-90949001D01*
X147510339Y-90881041D01*
X147562543Y-90835805D01*
X147596762Y-90819849D01*
X147596767Y-90819846D01*
X147601749Y-90817523D01*
X147731917Y-90726378D01*
X147784789Y-90689357D01*
X147784792Y-90689355D01*
X147789300Y-90686198D01*
X147951198Y-90524300D01*
X147959501Y-90512443D01*
X148009098Y-90441611D01*
X148082523Y-90336749D01*
X148084846Y-90331767D01*
X148084849Y-90331762D01*
X148176961Y-90134225D01*
X148176961Y-90134224D01*
X148179284Y-90129243D01*
X148221362Y-89972209D01*
X148237119Y-89913402D01*
X148237119Y-89913400D01*
X148238543Y-89908087D01*
X148258498Y-89680000D01*
X148238543Y-89451913D01*
X148237119Y-89446598D01*
X148180707Y-89236067D01*
X148180706Y-89236065D01*
X148179284Y-89230757D01*
X148176961Y-89225775D01*
X148084849Y-89028238D01*
X148084846Y-89028233D01*
X148082523Y-89023251D01*
X147951198Y-88835700D01*
X147789300Y-88673802D01*
X147784792Y-88670645D01*
X147784789Y-88670643D01*
X147682408Y-88598955D01*
X147601749Y-88542477D01*
X147596767Y-88540154D01*
X147596762Y-88540151D01*
X147562543Y-88524195D01*
X147509258Y-88477278D01*
X147489797Y-88409001D01*
X147510339Y-88341041D01*
X147562543Y-88295805D01*
X147596762Y-88279849D01*
X147596767Y-88279846D01*
X147601749Y-88277523D01*
X147783589Y-88150197D01*
X147784789Y-88149357D01*
X147784792Y-88149355D01*
X147789300Y-88146198D01*
X147951198Y-87984300D01*
X147992721Y-87925000D01*
X148009098Y-87901611D01*
X148082523Y-87796749D01*
X148084846Y-87791767D01*
X148084849Y-87791762D01*
X148176961Y-87594225D01*
X148176961Y-87594224D01*
X148179284Y-87589243D01*
X148188877Y-87553444D01*
X148237119Y-87373402D01*
X148237119Y-87373400D01*
X148238543Y-87368087D01*
X148258498Y-87140000D01*
X148238543Y-86911913D01*
X148179284Y-86690757D01*
X148149388Y-86626644D01*
X148084849Y-86488238D01*
X148084846Y-86488233D01*
X148082523Y-86483251D01*
X147993460Y-86356056D01*
X147954357Y-86300211D01*
X147954355Y-86300208D01*
X147951198Y-86295700D01*
X147789300Y-86133802D01*
X147784792Y-86130645D01*
X147784789Y-86130643D01*
X147691428Y-86065271D01*
X147601749Y-86002477D01*
X147596767Y-86000154D01*
X147596762Y-86000151D01*
X147562543Y-85984195D01*
X147509258Y-85937278D01*
X147489797Y-85869001D01*
X147510339Y-85801041D01*
X147562543Y-85755805D01*
X147596762Y-85739849D01*
X147596767Y-85739846D01*
X147601749Y-85737523D01*
X147742156Y-85639209D01*
X147784789Y-85609357D01*
X147784792Y-85609355D01*
X147789300Y-85606198D01*
X147951198Y-85444300D01*
X148027921Y-85334729D01*
X148061181Y-85287229D01*
X148116638Y-85242901D01*
X148164394Y-85233500D01*
X152925406Y-85233500D01*
X152993527Y-85253502D01*
X153014501Y-85270405D01*
X161969424Y-94225329D01*
X162003450Y-94287641D01*
X162002036Y-94347034D01*
X161992480Y-94382697D01*
X161992479Y-94382704D01*
X161991056Y-94388014D01*
X161971635Y-94610000D01*
X161991056Y-94831986D01*
X161992480Y-94837299D01*
X162034308Y-94993402D01*
X162048730Y-95047227D01*
X162051052Y-95052208D01*
X162051053Y-95052209D01*
X162140577Y-95244195D01*
X162140580Y-95244200D01*
X162142903Y-95249182D01*
X162146060Y-95253690D01*
X162263392Y-95421257D01*
X162270716Y-95431717D01*
X162428283Y-95589284D01*
X162432792Y-95592441D01*
X162432794Y-95592443D01*
X162455293Y-95608197D01*
X162610817Y-95717097D01*
X162615799Y-95719420D01*
X162615804Y-95719423D01*
X162807791Y-95808947D01*
X162812773Y-95811270D01*
X162818081Y-95812692D01*
X162818083Y-95812693D01*
X162884465Y-95830480D01*
X163028014Y-95868944D01*
X163250000Y-95888365D01*
X163471986Y-95868944D01*
X163615535Y-95830480D01*
X163681917Y-95812693D01*
X163681919Y-95812692D01*
X163687227Y-95811270D01*
X163692209Y-95808947D01*
X163884196Y-95719423D01*
X163884201Y-95719420D01*
X163889183Y-95717097D01*
X164044707Y-95608197D01*
X164067206Y-95592443D01*
X164067208Y-95592441D01*
X164071717Y-95589284D01*
X164229284Y-95431717D01*
X164236609Y-95421257D01*
X164353940Y-95253690D01*
X164357097Y-95249182D01*
X164359420Y-95244200D01*
X164359423Y-95244195D01*
X164448947Y-95052209D01*
X164448948Y-95052208D01*
X164451270Y-95047227D01*
X164465693Y-94993402D01*
X164507520Y-94837299D01*
X164508944Y-94831986D01*
X164528365Y-94610000D01*
X164508944Y-94388014D01*
X164451270Y-94172773D01*
X164434030Y-94135802D01*
X164359423Y-93975805D01*
X164359420Y-93975800D01*
X164357097Y-93970818D01*
X164229284Y-93788283D01*
X164071717Y-93630716D01*
X164064460Y-93625634D01*
X163921763Y-93525716D01*
X163889183Y-93502903D01*
X163884201Y-93500580D01*
X163884196Y-93500577D01*
X163784728Y-93454195D01*
X163731443Y-93407278D01*
X163711982Y-93339001D01*
X163732524Y-93271041D01*
X163784728Y-93225805D01*
X163884196Y-93179423D01*
X163884201Y-93179420D01*
X163889183Y-93177097D01*
X164044707Y-93068197D01*
X164067206Y-93052443D01*
X164067208Y-93052441D01*
X164071717Y-93049284D01*
X164229284Y-92891717D01*
X164236609Y-92881257D01*
X164353940Y-92713690D01*
X164357097Y-92709182D01*
X164359420Y-92704200D01*
X164359423Y-92704195D01*
X164448947Y-92512209D01*
X164448948Y-92512208D01*
X164451270Y-92507227D01*
X164465693Y-92453402D01*
X164496897Y-92336944D01*
X164508944Y-92291986D01*
X164528365Y-92070000D01*
X164508944Y-91848014D01*
X164451270Y-91632773D01*
X164443745Y-91616635D01*
X164359423Y-91435805D01*
X164359420Y-91435800D01*
X164357097Y-91430818D01*
X164243632Y-91268774D01*
X164232443Y-91252794D01*
X164232441Y-91252791D01*
X164229284Y-91248283D01*
X164071717Y-91090716D01*
X164064460Y-91085634D01*
X163954847Y-91008882D01*
X163889183Y-90962903D01*
X163884201Y-90960580D01*
X163884196Y-90960577D01*
X163784728Y-90914195D01*
X163731443Y-90867278D01*
X163711982Y-90799001D01*
X163732524Y-90731041D01*
X163784728Y-90685805D01*
X163884196Y-90639423D01*
X163884201Y-90639420D01*
X163889183Y-90637097D01*
X164044707Y-90528197D01*
X164067206Y-90512443D01*
X164067208Y-90512441D01*
X164071717Y-90509284D01*
X164229284Y-90351717D01*
X164236609Y-90341257D01*
X164353940Y-90173690D01*
X164357097Y-90169182D01*
X164359420Y-90164200D01*
X164359423Y-90164195D01*
X164448947Y-89972209D01*
X164448948Y-89972208D01*
X164451270Y-89967227D01*
X164465693Y-89913402D01*
X164507520Y-89757299D01*
X164508944Y-89751986D01*
X164528365Y-89530000D01*
X164508944Y-89308014D01*
X164454430Y-89104566D01*
X164452693Y-89098083D01*
X164452692Y-89098081D01*
X164451270Y-89092773D01*
X164420530Y-89026851D01*
X164359423Y-88895805D01*
X164359420Y-88895800D01*
X164357097Y-88890818D01*
X164285528Y-88788608D01*
X164232443Y-88712794D01*
X164232441Y-88712791D01*
X164229284Y-88708283D01*
X164071717Y-88550716D01*
X164064460Y-88545634D01*
X163951948Y-88466852D01*
X163889183Y-88422903D01*
X163884201Y-88420580D01*
X163884196Y-88420577D01*
X163784136Y-88373919D01*
X163730851Y-88327002D01*
X163711390Y-88258725D01*
X163731932Y-88190765D01*
X163784136Y-88145529D01*
X163883953Y-88098984D01*
X163893431Y-88093512D01*
X163937920Y-88062359D01*
X163946294Y-88051883D01*
X163939226Y-88038436D01*
X162891922Y-86991132D01*
X163614408Y-86991132D01*
X163614539Y-86992965D01*
X163618790Y-86999580D01*
X164299157Y-87679947D01*
X164310932Y-87686377D01*
X164322947Y-87677081D01*
X164353505Y-87633439D01*
X164358988Y-87623944D01*
X164448475Y-87432037D01*
X164452221Y-87421745D01*
X164507025Y-87217214D01*
X164508928Y-87206419D01*
X164527384Y-86995475D01*
X164527384Y-86984525D01*
X164508928Y-86773581D01*
X164507025Y-86762786D01*
X164452221Y-86558255D01*
X164448475Y-86547963D01*
X164358988Y-86356056D01*
X164353505Y-86346561D01*
X164322360Y-86302081D01*
X164311883Y-86293706D01*
X164298436Y-86300774D01*
X163622022Y-86977188D01*
X163614408Y-86991132D01*
X162891922Y-86991132D01*
X162200843Y-86300053D01*
X162189068Y-86293623D01*
X162177053Y-86302919D01*
X162146495Y-86346561D01*
X162141012Y-86356056D01*
X162051525Y-86547963D01*
X162047779Y-86558255D01*
X161992975Y-86762786D01*
X161991072Y-86773581D01*
X161972616Y-86984525D01*
X161972616Y-86995476D01*
X161977078Y-87046481D01*
X161963088Y-87116086D01*
X161913689Y-87167078D01*
X161844563Y-87183268D01*
X161777657Y-87159515D01*
X161762462Y-87146557D01*
X161657905Y-87042000D01*
X161623879Y-86979688D01*
X161621000Y-86952905D01*
X161621000Y-85928117D01*
X162553706Y-85928117D01*
X162560774Y-85941564D01*
X163237188Y-86617978D01*
X163251132Y-86625592D01*
X163252965Y-86625461D01*
X163259580Y-86621210D01*
X163939947Y-85940843D01*
X163946377Y-85929068D01*
X163937084Y-85917055D01*
X163893431Y-85886488D01*
X163883953Y-85881016D01*
X163692038Y-85791525D01*
X163681745Y-85787779D01*
X163477214Y-85732975D01*
X163466419Y-85731072D01*
X163255475Y-85712616D01*
X163244525Y-85712616D01*
X163033581Y-85731072D01*
X163022786Y-85732975D01*
X162818255Y-85787779D01*
X162807963Y-85791525D01*
X162616056Y-85881012D01*
X162606561Y-85886495D01*
X162562081Y-85917640D01*
X162553706Y-85928117D01*
X161621000Y-85928117D01*
X161621000Y-82647699D01*
X161641002Y-82579578D01*
X161680699Y-82540554D01*
X161704031Y-82526116D01*
X161726347Y-82503761D01*
X161821758Y-82408184D01*
X161821762Y-82408179D01*
X161826929Y-82403003D01*
X161857442Y-82353502D01*
X161914369Y-82261150D01*
X161914370Y-82261148D01*
X161918209Y-82254920D01*
X161972974Y-82089809D01*
X161974716Y-82072812D01*
X161983172Y-81990271D01*
X161983500Y-81987072D01*
X161983500Y-81412928D01*
X161983163Y-81409678D01*
X161973419Y-81315765D01*
X161973418Y-81315761D01*
X161972707Y-81308907D01*
X161917654Y-81143893D01*
X161826116Y-80995969D01*
X161811062Y-80980941D01*
X161708184Y-80878242D01*
X161708179Y-80878238D01*
X161703003Y-80873071D01*
X161680557Y-80859235D01*
X161561150Y-80785631D01*
X161561148Y-80785630D01*
X161554920Y-80781791D01*
X161389809Y-80727026D01*
X161382973Y-80726326D01*
X161382970Y-80726325D01*
X161328700Y-80720765D01*
X161287072Y-80716500D01*
X160687928Y-80716500D01*
X160684682Y-80716837D01*
X160684678Y-80716837D01*
X160590765Y-80726581D01*
X160590761Y-80726582D01*
X160583907Y-80727293D01*
X160577371Y-80729474D01*
X160577369Y-80729474D01*
X160503005Y-80754284D01*
X160418893Y-80782346D01*
X160270969Y-80873884D01*
X160265796Y-80879066D01*
X160164253Y-80980786D01*
X160101970Y-81014865D01*
X160031150Y-81009862D01*
X159986063Y-80980941D01*
X159883188Y-80878246D01*
X159883183Y-80878242D01*
X159878003Y-80873071D01*
X159855557Y-80859235D01*
X159736150Y-80785631D01*
X159736148Y-80785630D01*
X159729920Y-80781791D01*
X159564809Y-80727026D01*
X159557973Y-80726326D01*
X159557970Y-80726325D01*
X159503700Y-80720765D01*
X159462072Y-80716500D01*
X158862928Y-80716500D01*
X158859682Y-80716837D01*
X158859678Y-80716837D01*
X158765765Y-80726581D01*
X158765761Y-80726582D01*
X158758907Y-80727293D01*
X158752371Y-80729474D01*
X158752369Y-80729474D01*
X158678005Y-80754284D01*
X158593893Y-80782346D01*
X158445969Y-80873884D01*
X158440796Y-80879066D01*
X158328242Y-80991816D01*
X158328238Y-80991821D01*
X158323071Y-80996997D01*
X158319231Y-81003227D01*
X158319230Y-81003228D01*
X158317143Y-81006614D01*
X158315114Y-81008441D01*
X158314693Y-81008973D01*
X158314602Y-81008901D01*
X158264372Y-81054108D01*
X158209882Y-81066500D01*
X156923766Y-81066500D01*
X156855645Y-81046498D01*
X156834749Y-81029673D01*
X156758188Y-80953246D01*
X156758183Y-80953242D01*
X156753003Y-80948071D01*
X156746772Y-80944230D01*
X156611150Y-80860631D01*
X156611148Y-80860630D01*
X156604920Y-80856791D01*
X156439809Y-80802026D01*
X156432973Y-80801326D01*
X156432970Y-80801325D01*
X156381474Y-80796049D01*
X156337072Y-80791500D01*
X155737928Y-80791500D01*
X155734682Y-80791837D01*
X155734678Y-80791837D01*
X155640765Y-80801581D01*
X155640761Y-80801582D01*
X155633907Y-80802293D01*
X155627371Y-80804474D01*
X155627369Y-80804474D01*
X155540374Y-80833498D01*
X155468893Y-80857346D01*
X155320969Y-80948884D01*
X155213899Y-81056141D01*
X155151618Y-81090220D01*
X155080798Y-81085217D01*
X155035709Y-81056296D01*
X154932871Y-80953637D01*
X154921460Y-80944625D01*
X154785937Y-80861088D01*
X154772759Y-80854944D01*
X154621234Y-80804685D01*
X154607868Y-80801819D01*
X154515230Y-80792328D01*
X154508815Y-80792000D01*
X154484615Y-80792000D01*
X154469376Y-80796475D01*
X154468171Y-80797865D01*
X154466500Y-80805548D01*
X154466500Y-82739885D01*
X154470975Y-82755124D01*
X154472365Y-82756329D01*
X154480048Y-82758000D01*
X154508766Y-82758000D01*
X154515282Y-82757663D01*
X154609132Y-82747925D01*
X154622528Y-82745032D01*
X154773953Y-82694512D01*
X154787115Y-82688347D01*
X154922492Y-82604574D01*
X154933890Y-82595540D01*
X155035393Y-82493860D01*
X155097676Y-82459781D01*
X155168496Y-82464784D01*
X155213583Y-82493704D01*
X155321997Y-82601929D01*
X155328227Y-82605769D01*
X155328228Y-82605770D01*
X155377212Y-82635964D01*
X155470080Y-82693209D01*
X155635191Y-82747974D01*
X155642027Y-82748674D01*
X155642030Y-82748675D01*
X155689370Y-82753525D01*
X155737928Y-82758500D01*
X156337072Y-82758500D01*
X156340318Y-82758163D01*
X156340322Y-82758163D01*
X156434235Y-82748419D01*
X156434239Y-82748418D01*
X156441093Y-82747707D01*
X156447629Y-82745526D01*
X156447631Y-82745526D01*
X156580395Y-82701232D01*
X156606107Y-82692654D01*
X156754031Y-82601116D01*
X156761797Y-82593336D01*
X156871758Y-82483184D01*
X156871762Y-82483179D01*
X156876929Y-82478003D01*
X156909966Y-82424408D01*
X156929089Y-82393384D01*
X156981861Y-82345891D01*
X157036349Y-82333500D01*
X158210036Y-82333500D01*
X158278157Y-82353502D01*
X158317179Y-82393196D01*
X158323884Y-82404031D01*
X158403176Y-82483184D01*
X158422888Y-82502862D01*
X158456967Y-82565144D01*
X158451964Y-82635964D01*
X158422965Y-82681130D01*
X156349500Y-84754595D01*
X156287188Y-84788621D01*
X156260405Y-84791500D01*
X156204513Y-84791500D01*
X156198061Y-84792872D01*
X156198056Y-84792872D01*
X156111112Y-84811353D01*
X156017712Y-84831206D01*
X156011682Y-84833891D01*
X156011681Y-84833891D01*
X155849278Y-84906197D01*
X155849276Y-84906198D01*
X155843248Y-84908882D01*
X155688747Y-85021134D01*
X155684326Y-85026044D01*
X155684325Y-85026045D01*
X155659107Y-85054053D01*
X155560960Y-85163056D01*
X155508741Y-85253502D01*
X155489269Y-85287229D01*
X155465473Y-85328444D01*
X155406458Y-85510072D01*
X155405769Y-85516631D01*
X155405768Y-85516634D01*
X155399786Y-85573553D01*
X155372773Y-85639209D01*
X155314551Y-85679839D01*
X155243606Y-85682542D01*
X155185381Y-85649477D01*
X154561950Y-85026045D01*
X153743652Y-84207747D01*
X153736112Y-84199461D01*
X153732000Y-84192982D01*
X153682348Y-84146356D01*
X153679507Y-84143602D01*
X153659770Y-84123865D01*
X153656573Y-84121385D01*
X153647551Y-84113680D01*
X153621100Y-84088841D01*
X153615321Y-84083414D01*
X153608375Y-84079595D01*
X153608372Y-84079593D01*
X153597566Y-84073652D01*
X153581047Y-84062801D01*
X153580583Y-84062441D01*
X153565041Y-84050386D01*
X153557772Y-84047241D01*
X153557768Y-84047238D01*
X153524463Y-84032826D01*
X153513813Y-84027609D01*
X153475060Y-84006305D01*
X153455437Y-84001267D01*
X153436734Y-83994863D01*
X153425420Y-83989967D01*
X153425419Y-83989967D01*
X153418145Y-83986819D01*
X153410322Y-83985580D01*
X153410312Y-83985577D01*
X153374476Y-83979901D01*
X153362856Y-83977495D01*
X153327711Y-83968472D01*
X153327710Y-83968472D01*
X153320030Y-83966500D01*
X153299776Y-83966500D01*
X153280065Y-83964949D01*
X153267886Y-83963020D01*
X153260057Y-83961780D01*
X153252165Y-83962526D01*
X153216039Y-83965941D01*
X153204181Y-83966500D01*
X148164394Y-83966500D01*
X148096273Y-83946498D01*
X148061181Y-83912771D01*
X147954357Y-83760211D01*
X147954355Y-83760208D01*
X147951198Y-83755700D01*
X147789300Y-83593802D01*
X147784792Y-83590645D01*
X147784789Y-83590643D01*
X147658920Y-83502509D01*
X147601749Y-83462477D01*
X147596767Y-83460154D01*
X147596762Y-83460151D01*
X147562543Y-83444195D01*
X147509258Y-83397278D01*
X147489797Y-83329001D01*
X147510339Y-83261041D01*
X147562543Y-83215805D01*
X147596762Y-83199849D01*
X147596767Y-83199846D01*
X147601749Y-83197523D01*
X147770296Y-83079505D01*
X147784789Y-83069357D01*
X147784792Y-83069355D01*
X147789300Y-83066198D01*
X147951198Y-82904300D01*
X147956117Y-82897276D01*
X148043688Y-82772211D01*
X148082523Y-82716749D01*
X148084846Y-82711767D01*
X148084849Y-82711762D01*
X148176961Y-82514225D01*
X148176961Y-82514224D01*
X148179284Y-82509243D01*
X148183448Y-82493705D01*
X148237119Y-82293402D01*
X148237119Y-82293400D01*
X148238543Y-82288087D01*
X148258498Y-82060000D01*
X148258390Y-82058766D01*
X153217000Y-82058766D01*
X153217337Y-82065282D01*
X153227075Y-82159132D01*
X153229968Y-82172528D01*
X153280488Y-82323953D01*
X153286653Y-82337115D01*
X153370426Y-82472492D01*
X153379460Y-82483890D01*
X153492129Y-82596363D01*
X153503540Y-82605375D01*
X153639063Y-82688912D01*
X153652241Y-82695056D01*
X153803766Y-82745315D01*
X153817132Y-82748181D01*
X153909770Y-82757672D01*
X153916185Y-82758000D01*
X153940385Y-82758000D01*
X153955624Y-82753525D01*
X153956829Y-82752135D01*
X153958500Y-82744452D01*
X153958500Y-82047115D01*
X153954025Y-82031876D01*
X153952635Y-82030671D01*
X153944952Y-82029000D01*
X153235115Y-82029000D01*
X153219876Y-82033475D01*
X153218671Y-82034865D01*
X153217000Y-82042548D01*
X153217000Y-82058766D01*
X148258390Y-82058766D01*
X148238543Y-81831913D01*
X148201981Y-81695461D01*
X148180707Y-81616067D01*
X148180706Y-81616065D01*
X148179284Y-81610757D01*
X148136089Y-81518124D01*
X148128983Y-81502885D01*
X153217000Y-81502885D01*
X153221475Y-81518124D01*
X153222865Y-81519329D01*
X153230548Y-81521000D01*
X153940385Y-81521000D01*
X153955624Y-81516525D01*
X153956829Y-81515135D01*
X153958500Y-81507452D01*
X153958500Y-80810115D01*
X153954025Y-80794876D01*
X153952635Y-80793671D01*
X153944952Y-80792000D01*
X153916234Y-80792000D01*
X153909718Y-80792337D01*
X153815868Y-80802075D01*
X153802472Y-80804968D01*
X153651047Y-80855488D01*
X153637885Y-80861653D01*
X153502508Y-80945426D01*
X153491110Y-80954460D01*
X153378637Y-81067129D01*
X153369625Y-81078540D01*
X153286088Y-81214063D01*
X153279944Y-81227241D01*
X153229685Y-81378766D01*
X153226819Y-81392132D01*
X153217328Y-81484770D01*
X153217000Y-81491185D01*
X153217000Y-81502885D01*
X148128983Y-81502885D01*
X148084849Y-81408238D01*
X148084846Y-81408233D01*
X148082523Y-81403251D01*
X147951198Y-81215700D01*
X147789300Y-81053802D01*
X147784792Y-81050645D01*
X147784789Y-81050643D01*
X147658920Y-80962509D01*
X147601749Y-80922477D01*
X147596767Y-80920154D01*
X147596762Y-80920151D01*
X147561951Y-80903919D01*
X147508666Y-80857002D01*
X147489205Y-80788725D01*
X147509747Y-80720765D01*
X147561951Y-80675529D01*
X147596511Y-80659414D01*
X147606006Y-80653931D01*
X147658048Y-80617491D01*
X147666424Y-80607012D01*
X147659356Y-80593566D01*
X146957812Y-79892022D01*
X146943868Y-79884408D01*
X146942035Y-79884539D01*
X146935420Y-79888790D01*
X146229923Y-80594287D01*
X146223493Y-80606062D01*
X146232789Y-80618077D01*
X146283994Y-80653931D01*
X146293489Y-80659414D01*
X146328049Y-80675529D01*
X146381334Y-80722446D01*
X146400795Y-80790723D01*
X146380253Y-80858683D01*
X146328049Y-80903919D01*
X146293238Y-80920151D01*
X146293233Y-80920154D01*
X146288251Y-80922477D01*
X146231080Y-80962509D01*
X146105211Y-81050643D01*
X146105208Y-81050645D01*
X146100700Y-81053802D01*
X145938802Y-81215700D01*
X145807477Y-81403251D01*
X145805154Y-81408233D01*
X145805151Y-81408238D01*
X145753911Y-81518124D01*
X145710716Y-81610757D01*
X145709294Y-81616065D01*
X145709293Y-81616067D01*
X145688019Y-81695461D01*
X145651457Y-81831913D01*
X145631502Y-82060000D01*
X145651457Y-82288087D01*
X145652881Y-82293400D01*
X145652881Y-82293402D01*
X145706553Y-82493705D01*
X145710716Y-82509243D01*
X145713039Y-82514224D01*
X145713039Y-82514225D01*
X145805151Y-82711762D01*
X145805154Y-82711767D01*
X145807477Y-82716749D01*
X145846312Y-82772211D01*
X145933884Y-82897276D01*
X145938802Y-82904300D01*
X146100700Y-83066198D01*
X146105208Y-83069355D01*
X146105211Y-83069357D01*
X146119704Y-83079505D01*
X146288251Y-83197523D01*
X146293233Y-83199846D01*
X146293238Y-83199849D01*
X146327457Y-83215805D01*
X146380742Y-83262722D01*
X146400203Y-83330999D01*
X146379661Y-83398959D01*
X146327457Y-83444195D01*
X146293238Y-83460151D01*
X146293233Y-83460154D01*
X146288251Y-83462477D01*
X146231080Y-83502509D01*
X146105211Y-83590643D01*
X146105208Y-83590645D01*
X146100700Y-83593802D01*
X145938802Y-83755700D01*
X145807477Y-83943251D01*
X145805154Y-83948233D01*
X145805151Y-83948238D01*
X145724409Y-84121392D01*
X145710716Y-84150757D01*
X145709294Y-84156065D01*
X145709293Y-84156067D01*
X145688019Y-84235461D01*
X145651457Y-84371913D01*
X145631502Y-84600000D01*
X145651457Y-84828087D01*
X145652881Y-84833400D01*
X145652881Y-84833402D01*
X145690025Y-84972022D01*
X145710716Y-85049243D01*
X145713039Y-85054224D01*
X145713039Y-85054225D01*
X145805151Y-85251762D01*
X145805154Y-85251767D01*
X145807477Y-85256749D01*
X145938802Y-85444300D01*
X146100700Y-85606198D01*
X146105208Y-85609355D01*
X146105211Y-85609357D01*
X146147844Y-85639209D01*
X146288251Y-85737523D01*
X146293233Y-85739846D01*
X146293238Y-85739849D01*
X146327457Y-85755805D01*
X146380742Y-85802722D01*
X146400203Y-85870999D01*
X146379661Y-85938959D01*
X146327457Y-85984195D01*
X146293238Y-86000151D01*
X146293233Y-86000154D01*
X146288251Y-86002477D01*
X146198572Y-86065271D01*
X146105211Y-86130643D01*
X146105208Y-86130645D01*
X146100700Y-86133802D01*
X145938802Y-86295700D01*
X145935645Y-86300208D01*
X145935643Y-86300211D01*
X145896540Y-86356056D01*
X145807477Y-86483251D01*
X145805154Y-86488233D01*
X145805151Y-86488238D01*
X145740612Y-86626644D01*
X145710716Y-86690757D01*
X145651457Y-86911913D01*
X145631502Y-87140000D01*
X145651457Y-87368087D01*
X145652881Y-87373400D01*
X145652881Y-87373402D01*
X145701124Y-87553444D01*
X145710716Y-87589243D01*
X145713039Y-87594224D01*
X145713039Y-87594225D01*
X145805151Y-87791762D01*
X145805154Y-87791767D01*
X145807477Y-87796749D01*
X145880902Y-87901611D01*
X145897280Y-87925000D01*
X145938802Y-87984300D01*
X146100700Y-88146198D01*
X146105208Y-88149355D01*
X146105211Y-88149357D01*
X146106411Y-88150197D01*
X146288251Y-88277523D01*
X146293233Y-88279846D01*
X146293238Y-88279849D01*
X146327457Y-88295805D01*
X146380742Y-88342722D01*
X146400203Y-88410999D01*
X146379661Y-88478959D01*
X146327457Y-88524195D01*
X146293238Y-88540151D01*
X146293233Y-88540154D01*
X146288251Y-88542477D01*
X146207592Y-88598955D01*
X146105211Y-88670643D01*
X146105208Y-88670645D01*
X146100700Y-88673802D01*
X145938802Y-88835700D01*
X145807477Y-89023251D01*
X145805154Y-89028233D01*
X145805151Y-89028238D01*
X145713039Y-89225775D01*
X145710716Y-89230757D01*
X145709294Y-89236065D01*
X145709293Y-89236067D01*
X145652881Y-89446598D01*
X145651457Y-89451913D01*
X145631502Y-89680000D01*
X145651457Y-89908087D01*
X145652881Y-89913400D01*
X145652881Y-89913402D01*
X145668639Y-89972209D01*
X145710716Y-90129243D01*
X145713039Y-90134224D01*
X145713039Y-90134225D01*
X145805151Y-90331762D01*
X145805154Y-90331767D01*
X145807477Y-90336749D01*
X145880902Y-90441611D01*
X145930500Y-90512443D01*
X145938802Y-90524300D01*
X146100700Y-90686198D01*
X146105208Y-90689355D01*
X146105211Y-90689357D01*
X146158083Y-90726378D01*
X146288251Y-90817523D01*
X146293233Y-90819846D01*
X146293238Y-90819849D01*
X146327457Y-90835805D01*
X146380742Y-90882722D01*
X146400203Y-90950999D01*
X146379661Y-91018959D01*
X146327457Y-91064195D01*
X146293238Y-91080151D01*
X146293233Y-91080154D01*
X146288251Y-91082477D01*
X146226030Y-91126045D01*
X146105211Y-91210643D01*
X146105208Y-91210645D01*
X146100700Y-91213802D01*
X145938802Y-91375700D01*
X145807477Y-91563251D01*
X145805154Y-91568233D01*
X145805151Y-91568238D01*
X145772582Y-91638083D01*
X145710716Y-91770757D01*
X145709294Y-91776065D01*
X145709293Y-91776067D01*
X145653747Y-91983365D01*
X145651457Y-91991913D01*
X145631502Y-92220000D01*
X145651457Y-92448087D01*
X145652881Y-92453400D01*
X145652881Y-92453402D01*
X145668639Y-92512209D01*
X145710716Y-92669243D01*
X145713039Y-92674224D01*
X145713039Y-92674225D01*
X145805151Y-92871762D01*
X145805154Y-92871767D01*
X145807477Y-92876749D01*
X145880902Y-92981611D01*
X145930500Y-93052443D01*
X145938802Y-93064300D01*
X146100700Y-93226198D01*
X146105208Y-93229355D01*
X146105211Y-93229357D01*
X146158083Y-93266378D01*
X146288251Y-93357523D01*
X146293233Y-93359846D01*
X146293238Y-93359849D01*
X146327457Y-93375805D01*
X146380742Y-93422722D01*
X146400203Y-93490999D01*
X146379661Y-93558959D01*
X146327457Y-93604195D01*
X146293238Y-93620151D01*
X146293233Y-93620154D01*
X146288251Y-93622477D01*
X146183389Y-93695902D01*
X146105211Y-93750643D01*
X146105208Y-93750645D01*
X146100700Y-93753802D01*
X145938802Y-93915700D01*
X145807477Y-94103251D01*
X145805154Y-94108233D01*
X145805151Y-94108238D01*
X145726565Y-94276769D01*
X145710716Y-94310757D01*
X145709294Y-94316065D01*
X145709293Y-94316067D01*
X145652881Y-94526598D01*
X145651457Y-94531913D01*
X145631502Y-94760000D01*
X145651457Y-94988087D01*
X145652881Y-94993400D01*
X145652881Y-94993402D01*
X145668639Y-95052209D01*
X145710716Y-95209243D01*
X145713039Y-95214224D01*
X145713039Y-95214225D01*
X145805151Y-95411762D01*
X145805154Y-95411767D01*
X145807477Y-95416749D01*
X145880902Y-95521611D01*
X145930500Y-95592443D01*
X145938802Y-95604300D01*
X146100700Y-95766198D01*
X146105208Y-95769355D01*
X146105211Y-95769357D01*
X146183389Y-95824098D01*
X146288251Y-95897523D01*
X146293233Y-95899846D01*
X146293238Y-95899849D01*
X146327457Y-95915805D01*
X146380742Y-95962722D01*
X146400203Y-96030999D01*
X146379661Y-96098959D01*
X146327457Y-96144195D01*
X146293238Y-96160151D01*
X146293233Y-96160154D01*
X146288251Y-96162477D01*
X146183389Y-96235902D01*
X146105211Y-96290643D01*
X146105208Y-96290645D01*
X146100700Y-96293802D01*
X145938802Y-96455700D01*
X145807477Y-96643251D01*
X145805154Y-96648233D01*
X145805151Y-96648238D01*
X145713039Y-96845775D01*
X145710716Y-96850757D01*
X145651457Y-97071913D01*
X145631502Y-97300000D01*
X145651457Y-97528087D01*
X145710716Y-97749243D01*
X145713039Y-97754224D01*
X145713039Y-97754225D01*
X145805151Y-97951762D01*
X145805154Y-97951767D01*
X145807477Y-97956749D01*
X145938802Y-98144300D01*
X146100700Y-98306198D01*
X146105208Y-98309355D01*
X146105211Y-98309357D01*
X146159292Y-98347225D01*
X146288251Y-98437523D01*
X146293233Y-98439846D01*
X146293238Y-98439849D01*
X146327457Y-98455805D01*
X146380742Y-98502722D01*
X146400203Y-98570999D01*
X146379661Y-98638959D01*
X146327457Y-98684195D01*
X146293238Y-98700151D01*
X146293233Y-98700154D01*
X146288251Y-98702477D01*
X146237439Y-98738056D01*
X146105211Y-98830643D01*
X146105208Y-98830645D01*
X146100700Y-98833802D01*
X145938802Y-98995700D01*
X145807477Y-99183251D01*
X145805154Y-99188233D01*
X145805151Y-99188238D01*
X145713039Y-99385775D01*
X145710716Y-99390757D01*
X145709294Y-99396065D01*
X145709293Y-99396067D01*
X145652883Y-99606591D01*
X145651457Y-99611913D01*
X145631502Y-99840000D01*
X145651457Y-100068087D01*
X145710716Y-100289243D01*
X145713039Y-100294224D01*
X145713039Y-100294225D01*
X145805151Y-100491762D01*
X145805154Y-100491767D01*
X145807477Y-100496749D01*
X145938802Y-100684300D01*
X146100700Y-100846198D01*
X146105208Y-100849355D01*
X146105211Y-100849357D01*
X146183389Y-100904098D01*
X146288251Y-100977523D01*
X146293233Y-100979846D01*
X146293238Y-100979849D01*
X146327457Y-100995805D01*
X146380742Y-101042722D01*
X146400203Y-101110999D01*
X146379661Y-101178959D01*
X146327457Y-101224195D01*
X146293238Y-101240151D01*
X146293233Y-101240154D01*
X146288251Y-101242477D01*
X146183389Y-101315902D01*
X146105211Y-101370643D01*
X146105208Y-101370645D01*
X146100700Y-101373802D01*
X145938802Y-101535700D01*
X145807477Y-101723251D01*
X145805154Y-101728233D01*
X145805151Y-101728238D01*
X145713039Y-101925775D01*
X145710716Y-101930757D01*
X145709294Y-101936065D01*
X145709293Y-101936067D01*
X145652883Y-102146591D01*
X145651457Y-102151913D01*
X145631502Y-102380000D01*
X145651457Y-102608087D01*
X145710716Y-102829243D01*
X145713039Y-102834224D01*
X145713039Y-102834225D01*
X145805151Y-103031762D01*
X145805154Y-103031767D01*
X145807477Y-103036749D01*
X145938802Y-103224300D01*
X146100700Y-103386198D01*
X146105208Y-103389355D01*
X146105211Y-103389357D01*
X146183389Y-103444098D01*
X146288251Y-103517523D01*
X146293233Y-103519846D01*
X146293238Y-103519849D01*
X146327457Y-103535805D01*
X146380742Y-103582722D01*
X146400203Y-103650999D01*
X146379661Y-103718959D01*
X146327457Y-103764195D01*
X146293238Y-103780151D01*
X146293233Y-103780154D01*
X146288251Y-103782477D01*
X146183389Y-103855902D01*
X146105211Y-103910643D01*
X146105208Y-103910645D01*
X146100700Y-103913802D01*
X145938802Y-104075700D01*
X145807477Y-104263251D01*
X145805154Y-104268233D01*
X145805151Y-104268238D01*
X145713039Y-104465775D01*
X145710716Y-104470757D01*
X145651457Y-104691913D01*
X145631502Y-104920000D01*
X133018498Y-104920000D01*
X132998543Y-104691913D01*
X132939284Y-104470757D01*
X132936961Y-104465775D01*
X132844849Y-104268238D01*
X132844846Y-104268233D01*
X132842523Y-104263251D01*
X132711198Y-104075700D01*
X132549300Y-103913802D01*
X132544792Y-103910645D01*
X132544789Y-103910643D01*
X132466611Y-103855902D01*
X132361749Y-103782477D01*
X132356767Y-103780154D01*
X132356762Y-103780151D01*
X132322543Y-103764195D01*
X132269258Y-103717278D01*
X132249797Y-103649001D01*
X132270339Y-103581041D01*
X132322543Y-103535805D01*
X132356762Y-103519849D01*
X132356767Y-103519846D01*
X132361749Y-103517523D01*
X132466611Y-103444098D01*
X132544789Y-103389357D01*
X132544792Y-103389355D01*
X132549300Y-103386198D01*
X132711198Y-103224300D01*
X132842523Y-103036749D01*
X132844846Y-103031767D01*
X132844849Y-103031762D01*
X132936961Y-102834225D01*
X132936961Y-102834224D01*
X132939284Y-102829243D01*
X132998543Y-102608087D01*
X133018498Y-102380000D01*
X132998543Y-102151913D01*
X132997117Y-102146591D01*
X132940707Y-101936067D01*
X132940706Y-101936065D01*
X132939284Y-101930757D01*
X132936961Y-101925775D01*
X132844849Y-101728238D01*
X132844846Y-101728233D01*
X132842523Y-101723251D01*
X132711198Y-101535700D01*
X132549300Y-101373802D01*
X132544792Y-101370645D01*
X132544789Y-101370643D01*
X132466611Y-101315902D01*
X132361749Y-101242477D01*
X132356767Y-101240154D01*
X132356762Y-101240151D01*
X132322543Y-101224195D01*
X132269258Y-101177278D01*
X132249797Y-101109001D01*
X132270339Y-101041041D01*
X132322543Y-100995805D01*
X132356762Y-100979849D01*
X132356767Y-100979846D01*
X132361749Y-100977523D01*
X132466611Y-100904098D01*
X132544789Y-100849357D01*
X132544792Y-100849355D01*
X132549300Y-100846198D01*
X132711198Y-100684300D01*
X132842523Y-100496749D01*
X132844846Y-100491767D01*
X132844849Y-100491762D01*
X132936961Y-100294225D01*
X132936961Y-100294224D01*
X132939284Y-100289243D01*
X132998543Y-100068087D01*
X133018498Y-99840000D01*
X132998543Y-99611913D01*
X132997117Y-99606591D01*
X132940707Y-99396067D01*
X132940706Y-99396065D01*
X132939284Y-99390757D01*
X132936961Y-99385775D01*
X132844849Y-99188238D01*
X132844846Y-99188233D01*
X132842523Y-99183251D01*
X132711198Y-98995700D01*
X132549300Y-98833802D01*
X132544792Y-98830645D01*
X132544789Y-98830643D01*
X132412561Y-98738056D01*
X132361749Y-98702477D01*
X132356767Y-98700154D01*
X132356762Y-98700151D01*
X132322543Y-98684195D01*
X132269258Y-98637278D01*
X132249797Y-98569001D01*
X132270339Y-98501041D01*
X132322543Y-98455805D01*
X132356762Y-98439849D01*
X132356767Y-98439846D01*
X132361749Y-98437523D01*
X132490708Y-98347225D01*
X132544789Y-98309357D01*
X132544792Y-98309355D01*
X132549300Y-98306198D01*
X132711198Y-98144300D01*
X132842523Y-97956749D01*
X132844846Y-97951767D01*
X132844849Y-97951762D01*
X132936961Y-97754225D01*
X132936961Y-97754224D01*
X132939284Y-97749243D01*
X132998543Y-97528087D01*
X133018498Y-97300000D01*
X132998543Y-97071913D01*
X132939284Y-96850757D01*
X132936961Y-96845775D01*
X132844849Y-96648238D01*
X132844846Y-96648233D01*
X132842523Y-96643251D01*
X132711198Y-96455700D01*
X132549300Y-96293802D01*
X132544792Y-96290645D01*
X132544789Y-96290643D01*
X132466611Y-96235902D01*
X132361749Y-96162477D01*
X132356767Y-96160154D01*
X132356762Y-96160151D01*
X132322543Y-96144195D01*
X132269258Y-96097278D01*
X132249797Y-96029001D01*
X132270339Y-95961041D01*
X132322543Y-95915805D01*
X132356762Y-95899849D01*
X132356767Y-95899846D01*
X132361749Y-95897523D01*
X132466611Y-95824098D01*
X132544789Y-95769357D01*
X132544792Y-95769355D01*
X132549300Y-95766198D01*
X132711198Y-95604300D01*
X132719501Y-95592443D01*
X132769098Y-95521611D01*
X132842523Y-95416749D01*
X132844846Y-95411767D01*
X132844849Y-95411762D01*
X132936961Y-95214225D01*
X132936961Y-95214224D01*
X132939284Y-95209243D01*
X132981362Y-95052209D01*
X132997119Y-94993402D01*
X132997119Y-94993400D01*
X132998543Y-94988087D01*
X133018498Y-94760000D01*
X132998543Y-94531913D01*
X132997119Y-94526598D01*
X132940707Y-94316067D01*
X132940706Y-94316065D01*
X132939284Y-94310757D01*
X132923435Y-94276769D01*
X132844849Y-94108238D01*
X132844846Y-94108233D01*
X132842523Y-94103251D01*
X132711198Y-93915700D01*
X132549300Y-93753802D01*
X132544792Y-93750645D01*
X132544789Y-93750643D01*
X132466611Y-93695902D01*
X132361749Y-93622477D01*
X132356767Y-93620154D01*
X132356762Y-93620151D01*
X132322543Y-93604195D01*
X132269258Y-93557278D01*
X132249797Y-93489001D01*
X132270339Y-93421041D01*
X132322543Y-93375805D01*
X132356762Y-93359849D01*
X132356767Y-93359846D01*
X132361749Y-93357523D01*
X132491917Y-93266378D01*
X132544789Y-93229357D01*
X132544792Y-93229355D01*
X132549300Y-93226198D01*
X132711198Y-93064300D01*
X132719501Y-93052443D01*
X132769098Y-92981611D01*
X132842523Y-92876749D01*
X132844846Y-92871767D01*
X132844849Y-92871762D01*
X132936961Y-92674225D01*
X132936961Y-92674224D01*
X132939284Y-92669243D01*
X132981362Y-92512209D01*
X132997119Y-92453402D01*
X132997119Y-92453400D01*
X132998543Y-92448087D01*
X133018498Y-92220000D01*
X132998543Y-91991913D01*
X132996253Y-91983365D01*
X132940707Y-91776067D01*
X132940706Y-91776065D01*
X132939284Y-91770757D01*
X132877418Y-91638083D01*
X132844849Y-91568238D01*
X132844846Y-91568233D01*
X132842523Y-91563251D01*
X132711198Y-91375700D01*
X132549300Y-91213802D01*
X132544792Y-91210645D01*
X132544789Y-91210643D01*
X132423970Y-91126045D01*
X132361749Y-91082477D01*
X132356767Y-91080154D01*
X132356762Y-91080151D01*
X132322543Y-91064195D01*
X132269258Y-91017278D01*
X132249797Y-90949001D01*
X132270339Y-90881041D01*
X132322543Y-90835805D01*
X132356762Y-90819849D01*
X132356767Y-90819846D01*
X132361749Y-90817523D01*
X132491917Y-90726378D01*
X132544789Y-90689357D01*
X132544792Y-90689355D01*
X132549300Y-90686198D01*
X132711198Y-90524300D01*
X132719501Y-90512443D01*
X132769098Y-90441611D01*
X132842523Y-90336749D01*
X132844846Y-90331767D01*
X132844849Y-90331762D01*
X132936961Y-90134225D01*
X132936961Y-90134224D01*
X132939284Y-90129243D01*
X132981362Y-89972209D01*
X132997119Y-89913402D01*
X132997119Y-89913400D01*
X132998543Y-89908087D01*
X133018498Y-89680000D01*
X132998543Y-89451913D01*
X132997119Y-89446598D01*
X132940707Y-89236067D01*
X132940706Y-89236065D01*
X132939284Y-89230757D01*
X132936961Y-89225775D01*
X132844849Y-89028238D01*
X132844846Y-89028233D01*
X132842523Y-89023251D01*
X132711198Y-88835700D01*
X132549300Y-88673802D01*
X132544792Y-88670645D01*
X132544789Y-88670643D01*
X132442408Y-88598955D01*
X132361749Y-88542477D01*
X132356767Y-88540154D01*
X132356762Y-88540151D01*
X132322543Y-88524195D01*
X132269258Y-88477278D01*
X132249797Y-88409001D01*
X132270339Y-88341041D01*
X132322543Y-88295805D01*
X132356762Y-88279849D01*
X132356767Y-88279846D01*
X132361749Y-88277523D01*
X132543589Y-88150197D01*
X132544789Y-88149357D01*
X132544792Y-88149355D01*
X132549300Y-88146198D01*
X132711198Y-87984300D01*
X132752721Y-87925000D01*
X132769098Y-87901611D01*
X132842523Y-87796749D01*
X132844846Y-87791767D01*
X132844849Y-87791762D01*
X132936961Y-87594225D01*
X132936961Y-87594224D01*
X132939284Y-87589243D01*
X132948877Y-87553444D01*
X132997119Y-87373402D01*
X132997119Y-87373400D01*
X132998543Y-87368087D01*
X133018498Y-87140000D01*
X132998543Y-86911913D01*
X132939284Y-86690757D01*
X132909388Y-86626644D01*
X132844849Y-86488238D01*
X132844846Y-86488233D01*
X132842523Y-86483251D01*
X132753460Y-86356056D01*
X132714357Y-86300211D01*
X132714355Y-86300208D01*
X132711198Y-86295700D01*
X132549300Y-86133802D01*
X132544792Y-86130645D01*
X132544789Y-86130643D01*
X132451428Y-86065271D01*
X132361749Y-86002477D01*
X132356767Y-86000154D01*
X132356762Y-86000151D01*
X132321951Y-85983919D01*
X132268666Y-85937002D01*
X132249205Y-85868725D01*
X132269747Y-85800765D01*
X132321951Y-85755529D01*
X132356511Y-85739414D01*
X132366008Y-85733930D01*
X132418048Y-85697491D01*
X132426424Y-85687012D01*
X132419356Y-85673566D01*
X131717812Y-84972022D01*
X131703868Y-84964408D01*
X131702035Y-84964539D01*
X131695420Y-84968790D01*
X130989923Y-85674287D01*
X130983493Y-85686062D01*
X130992789Y-85698077D01*
X131043992Y-85733930D01*
X131053489Y-85739414D01*
X131088049Y-85755529D01*
X131141334Y-85802446D01*
X131160795Y-85870723D01*
X131140253Y-85938683D01*
X131088049Y-85983919D01*
X131053238Y-86000151D01*
X131053233Y-86000154D01*
X131048251Y-86002477D01*
X130958572Y-86065271D01*
X130865211Y-86130643D01*
X130865208Y-86130645D01*
X130860700Y-86133802D01*
X130698802Y-86295700D01*
X130695645Y-86300208D01*
X130695643Y-86300211D01*
X130656540Y-86356056D01*
X130567477Y-86483251D01*
X130565154Y-86488233D01*
X130565151Y-86488238D01*
X130500612Y-86626644D01*
X130470716Y-86690757D01*
X130411457Y-86911913D01*
X130391502Y-87140000D01*
X130411457Y-87368087D01*
X130412881Y-87373400D01*
X130412881Y-87373402D01*
X130461124Y-87553444D01*
X130470716Y-87589243D01*
X130473039Y-87594224D01*
X130473039Y-87594225D01*
X130565151Y-87791762D01*
X130565154Y-87791767D01*
X130567477Y-87796749D01*
X130640902Y-87901611D01*
X130657280Y-87925000D01*
X130698802Y-87984300D01*
X130860700Y-88146198D01*
X130865208Y-88149355D01*
X130865211Y-88149357D01*
X130866411Y-88150197D01*
X131048251Y-88277523D01*
X131053233Y-88279846D01*
X131053238Y-88279849D01*
X131087457Y-88295805D01*
X131140742Y-88342722D01*
X131160203Y-88410999D01*
X131139661Y-88478959D01*
X131087457Y-88524195D01*
X131053238Y-88540151D01*
X131053233Y-88540154D01*
X131048251Y-88542477D01*
X130967592Y-88598955D01*
X130865211Y-88670643D01*
X130865208Y-88670645D01*
X130860700Y-88673802D01*
X130698802Y-88835700D01*
X130567477Y-89023251D01*
X130565154Y-89028233D01*
X130565151Y-89028238D01*
X130473039Y-89225775D01*
X130470716Y-89230757D01*
X130469294Y-89236065D01*
X130469293Y-89236067D01*
X130412881Y-89446598D01*
X130411457Y-89451913D01*
X130391502Y-89680000D01*
X130411457Y-89908087D01*
X130412881Y-89913400D01*
X130412881Y-89913402D01*
X130428639Y-89972209D01*
X130470716Y-90129243D01*
X130473039Y-90134224D01*
X130473039Y-90134225D01*
X130565151Y-90331762D01*
X130565154Y-90331767D01*
X130567477Y-90336749D01*
X130640902Y-90441611D01*
X130690500Y-90512443D01*
X130698802Y-90524300D01*
X130860700Y-90686198D01*
X130865208Y-90689355D01*
X130865211Y-90689357D01*
X130918083Y-90726378D01*
X131048251Y-90817523D01*
X131053233Y-90819846D01*
X131053238Y-90819849D01*
X131087457Y-90835805D01*
X131140742Y-90882722D01*
X131160203Y-90950999D01*
X131139661Y-91018959D01*
X131087457Y-91064195D01*
X131053238Y-91080151D01*
X131053233Y-91080154D01*
X131048251Y-91082477D01*
X130986030Y-91126045D01*
X130865211Y-91210643D01*
X130865208Y-91210645D01*
X130860700Y-91213802D01*
X130698802Y-91375700D01*
X130567477Y-91563251D01*
X130565154Y-91568233D01*
X130565151Y-91568238D01*
X130532582Y-91638083D01*
X130470716Y-91770757D01*
X130469294Y-91776065D01*
X130469293Y-91776067D01*
X130413747Y-91983365D01*
X130411457Y-91991913D01*
X130391502Y-92220000D01*
X130411457Y-92448087D01*
X130412881Y-92453400D01*
X130412881Y-92453402D01*
X130428639Y-92512209D01*
X130470716Y-92669243D01*
X130473039Y-92674224D01*
X130473039Y-92674225D01*
X130565151Y-92871762D01*
X130565154Y-92871767D01*
X130567477Y-92876749D01*
X130640902Y-92981611D01*
X130690500Y-93052443D01*
X130698802Y-93064300D01*
X130860700Y-93226198D01*
X130865208Y-93229355D01*
X130865211Y-93229357D01*
X130918083Y-93266378D01*
X131048251Y-93357523D01*
X131053233Y-93359846D01*
X131053238Y-93359849D01*
X131087457Y-93375805D01*
X131140742Y-93422722D01*
X131160203Y-93490999D01*
X131139661Y-93558959D01*
X131087457Y-93604195D01*
X131053238Y-93620151D01*
X131053233Y-93620154D01*
X131048251Y-93622477D01*
X130943389Y-93695902D01*
X130865211Y-93750643D01*
X130865208Y-93750645D01*
X130860700Y-93753802D01*
X130698802Y-93915700D01*
X130567477Y-94103251D01*
X130565154Y-94108233D01*
X130565151Y-94108238D01*
X130486565Y-94276769D01*
X130470716Y-94310757D01*
X130469294Y-94316065D01*
X130469293Y-94316067D01*
X130412881Y-94526598D01*
X130411457Y-94531913D01*
X130391502Y-94760000D01*
X130411457Y-94988087D01*
X130412881Y-94993400D01*
X130412881Y-94993402D01*
X130428639Y-95052209D01*
X130470716Y-95209243D01*
X130473039Y-95214224D01*
X130473039Y-95214225D01*
X130565151Y-95411762D01*
X130565154Y-95411767D01*
X130567477Y-95416749D01*
X130640902Y-95521611D01*
X130690500Y-95592443D01*
X130698802Y-95604300D01*
X130860700Y-95766198D01*
X130865208Y-95769355D01*
X130865211Y-95769357D01*
X130943389Y-95824098D01*
X131048251Y-95897523D01*
X131053233Y-95899846D01*
X131053238Y-95899849D01*
X131087457Y-95915805D01*
X131140742Y-95962722D01*
X131160203Y-96030999D01*
X131139661Y-96098959D01*
X131087457Y-96144195D01*
X131053238Y-96160151D01*
X131053233Y-96160154D01*
X131048251Y-96162477D01*
X130943389Y-96235902D01*
X130865211Y-96290643D01*
X130865208Y-96290645D01*
X130860700Y-96293802D01*
X130698802Y-96455700D01*
X130567477Y-96643251D01*
X130565154Y-96648233D01*
X130565151Y-96648238D01*
X130473039Y-96845775D01*
X130470716Y-96850757D01*
X130411457Y-97071913D01*
X130391502Y-97300000D01*
X130411457Y-97528087D01*
X130470716Y-97749243D01*
X130473039Y-97754224D01*
X130473039Y-97754225D01*
X130565151Y-97951762D01*
X130565154Y-97951767D01*
X130567477Y-97956749D01*
X130698802Y-98144300D01*
X130860700Y-98306198D01*
X130865208Y-98309355D01*
X130865211Y-98309357D01*
X130919292Y-98347225D01*
X131048251Y-98437523D01*
X131053233Y-98439846D01*
X131053238Y-98439849D01*
X131087457Y-98455805D01*
X131140742Y-98502722D01*
X131160203Y-98570999D01*
X131139661Y-98638959D01*
X131087457Y-98684195D01*
X131053238Y-98700151D01*
X131053233Y-98700154D01*
X131048251Y-98702477D01*
X130997439Y-98738056D01*
X130865211Y-98830643D01*
X130865208Y-98830645D01*
X130860700Y-98833802D01*
X130698802Y-98995700D01*
X130567477Y-99183251D01*
X130565154Y-99188233D01*
X130565151Y-99188238D01*
X130473039Y-99385775D01*
X130470716Y-99390757D01*
X130469294Y-99396065D01*
X130469293Y-99396067D01*
X130412883Y-99606591D01*
X130411457Y-99611913D01*
X130391502Y-99840000D01*
X130411457Y-100068087D01*
X130470716Y-100289243D01*
X130473039Y-100294224D01*
X130473039Y-100294225D01*
X130565151Y-100491762D01*
X130565154Y-100491767D01*
X130567477Y-100496749D01*
X130698802Y-100684300D01*
X130860700Y-100846198D01*
X130865208Y-100849355D01*
X130865211Y-100849357D01*
X130943389Y-100904098D01*
X131048251Y-100977523D01*
X131053233Y-100979846D01*
X131053238Y-100979849D01*
X131087457Y-100995805D01*
X131140742Y-101042722D01*
X131160203Y-101110999D01*
X131139661Y-101178959D01*
X131087457Y-101224195D01*
X131053238Y-101240151D01*
X131053233Y-101240154D01*
X131048251Y-101242477D01*
X130943389Y-101315902D01*
X130865211Y-101370643D01*
X130865208Y-101370645D01*
X130860700Y-101373802D01*
X130698802Y-101535700D01*
X130567477Y-101723251D01*
X130565154Y-101728233D01*
X130565151Y-101728238D01*
X130473039Y-101925775D01*
X130470716Y-101930757D01*
X130469294Y-101936065D01*
X130469293Y-101936067D01*
X130412883Y-102146591D01*
X130411457Y-102151913D01*
X130391502Y-102380000D01*
X130411457Y-102608087D01*
X130470716Y-102829243D01*
X130473039Y-102834224D01*
X130473039Y-102834225D01*
X130565151Y-103031762D01*
X130565154Y-103031767D01*
X130567477Y-103036749D01*
X130698802Y-103224300D01*
X130860700Y-103386198D01*
X130865208Y-103389355D01*
X130865211Y-103389357D01*
X130943389Y-103444098D01*
X131048251Y-103517523D01*
X131053233Y-103519846D01*
X131053238Y-103519849D01*
X131087457Y-103535805D01*
X131140742Y-103582722D01*
X131160203Y-103650999D01*
X131139661Y-103718959D01*
X131087457Y-103764195D01*
X131053238Y-103780151D01*
X131053233Y-103780154D01*
X131048251Y-103782477D01*
X130943389Y-103855902D01*
X130865211Y-103910643D01*
X130865208Y-103910645D01*
X130860700Y-103913802D01*
X130698802Y-104075700D01*
X130567477Y-104263251D01*
X130565154Y-104268233D01*
X130565151Y-104268238D01*
X130473039Y-104465775D01*
X130470716Y-104470757D01*
X130411457Y-104691913D01*
X130391502Y-104920000D01*
X126783000Y-104920000D01*
X126783000Y-84605475D01*
X130392483Y-84605475D01*
X130411472Y-84822519D01*
X130413375Y-84833312D01*
X130469764Y-85043761D01*
X130473510Y-85054053D01*
X130565586Y-85251511D01*
X130571069Y-85261006D01*
X130607509Y-85313048D01*
X130617988Y-85321424D01*
X130631434Y-85314356D01*
X131332978Y-84612812D01*
X131339356Y-84601132D01*
X132069408Y-84601132D01*
X132069539Y-84602965D01*
X132073790Y-84609580D01*
X132779287Y-85315077D01*
X132791062Y-85321507D01*
X132803077Y-85312211D01*
X132838931Y-85261006D01*
X132844414Y-85251511D01*
X132936490Y-85054053D01*
X132940236Y-85043761D01*
X132996625Y-84833312D01*
X132998528Y-84822519D01*
X133017517Y-84605475D01*
X133017517Y-84594525D01*
X132998528Y-84377481D01*
X132996625Y-84366688D01*
X132940236Y-84156239D01*
X132936490Y-84145947D01*
X132844414Y-83948489D01*
X132838931Y-83938994D01*
X132802491Y-83886952D01*
X132792012Y-83878576D01*
X132778566Y-83885644D01*
X132077022Y-84587188D01*
X132069408Y-84601132D01*
X131339356Y-84601132D01*
X131340592Y-84598868D01*
X131340461Y-84597035D01*
X131336210Y-84590420D01*
X130630713Y-83884923D01*
X130618938Y-83878493D01*
X130606923Y-83887789D01*
X130571069Y-83938994D01*
X130565586Y-83948489D01*
X130473510Y-84145947D01*
X130469764Y-84156239D01*
X130413375Y-84366688D01*
X130411472Y-84377481D01*
X130392483Y-84594525D01*
X130392483Y-84605475D01*
X126783000Y-84605475D01*
X126783000Y-83146062D01*
X130983493Y-83146062D01*
X130992789Y-83158077D01*
X131043994Y-83193931D01*
X131053489Y-83199414D01*
X131088641Y-83215805D01*
X131141926Y-83262722D01*
X131161387Y-83330999D01*
X131140845Y-83398959D01*
X131088641Y-83444195D01*
X131053489Y-83460586D01*
X131043994Y-83466069D01*
X130991952Y-83502509D01*
X130983576Y-83512988D01*
X130990644Y-83526434D01*
X131692188Y-84227978D01*
X131706132Y-84235592D01*
X131707965Y-84235461D01*
X131714580Y-84231210D01*
X132420077Y-83525713D01*
X132426507Y-83513938D01*
X132417211Y-83501923D01*
X132366006Y-83466069D01*
X132356511Y-83460586D01*
X132321359Y-83444195D01*
X132268074Y-83397278D01*
X132248613Y-83329001D01*
X132269155Y-83261041D01*
X132321359Y-83215805D01*
X132356511Y-83199414D01*
X132366006Y-83193931D01*
X132418048Y-83157491D01*
X132426424Y-83147012D01*
X132419356Y-83133566D01*
X131717812Y-82432022D01*
X131703868Y-82424408D01*
X131702035Y-82424539D01*
X131695420Y-82428790D01*
X130989923Y-83134287D01*
X130983493Y-83146062D01*
X126783000Y-83146062D01*
X126783000Y-82065475D01*
X130392483Y-82065475D01*
X130411472Y-82282519D01*
X130413375Y-82293312D01*
X130469764Y-82503761D01*
X130473510Y-82514053D01*
X130565586Y-82711511D01*
X130571069Y-82721006D01*
X130607509Y-82773048D01*
X130617988Y-82781424D01*
X130631434Y-82774356D01*
X131332978Y-82072812D01*
X131339356Y-82061132D01*
X132069408Y-82061132D01*
X132069539Y-82062965D01*
X132073790Y-82069580D01*
X132779287Y-82775077D01*
X132791062Y-82781507D01*
X132803077Y-82772211D01*
X132838931Y-82721006D01*
X132844414Y-82711511D01*
X132936490Y-82514053D01*
X132940236Y-82503761D01*
X132996625Y-82293312D01*
X132998528Y-82282519D01*
X133017517Y-82065475D01*
X133017517Y-82054525D01*
X132998528Y-81837481D01*
X132996625Y-81826688D01*
X132940236Y-81616239D01*
X132936490Y-81605947D01*
X132844414Y-81408489D01*
X132838931Y-81398994D01*
X132802491Y-81346952D01*
X132792012Y-81338576D01*
X132778566Y-81345644D01*
X132077022Y-82047188D01*
X132069408Y-82061132D01*
X131339356Y-82061132D01*
X131340592Y-82058868D01*
X131340461Y-82057035D01*
X131336210Y-82050420D01*
X130630713Y-81344923D01*
X130618938Y-81338493D01*
X130606923Y-81347789D01*
X130571069Y-81398994D01*
X130565586Y-81408489D01*
X130473510Y-81605947D01*
X130469764Y-81616239D01*
X130413375Y-81826688D01*
X130411472Y-81837481D01*
X130392483Y-82054525D01*
X130392483Y-82065475D01*
X126783000Y-82065475D01*
X126783000Y-79520000D01*
X130391502Y-79520000D01*
X130411457Y-79748087D01*
X130412881Y-79753400D01*
X130412881Y-79753402D01*
X130450025Y-79892022D01*
X130470716Y-79969243D01*
X130473039Y-79974224D01*
X130473039Y-79974225D01*
X130565151Y-80171762D01*
X130565154Y-80171767D01*
X130567477Y-80176749D01*
X130698802Y-80364300D01*
X130860700Y-80526198D01*
X130865208Y-80529355D01*
X130865211Y-80529357D01*
X130943389Y-80584098D01*
X131048251Y-80657523D01*
X131053233Y-80659846D01*
X131053238Y-80659849D01*
X131088049Y-80676081D01*
X131141334Y-80722998D01*
X131160795Y-80791275D01*
X131140253Y-80859235D01*
X131088049Y-80904471D01*
X131053489Y-80920586D01*
X131043994Y-80926069D01*
X130991952Y-80962509D01*
X130983576Y-80972988D01*
X130990644Y-80986434D01*
X131692188Y-81687978D01*
X131706132Y-81695592D01*
X131707965Y-81695461D01*
X131714580Y-81691210D01*
X132420077Y-80985713D01*
X132426507Y-80973938D01*
X132417211Y-80961923D01*
X132366006Y-80926069D01*
X132356511Y-80920586D01*
X132321951Y-80904471D01*
X132268666Y-80857554D01*
X132249205Y-80789277D01*
X132269747Y-80721317D01*
X132321951Y-80676081D01*
X132356762Y-80659849D01*
X132356767Y-80659846D01*
X132361749Y-80657523D01*
X132466611Y-80584098D01*
X132544789Y-80529357D01*
X132544792Y-80529355D01*
X132549300Y-80526198D01*
X132711198Y-80364300D01*
X132842523Y-80176749D01*
X132844846Y-80171767D01*
X132844849Y-80171762D01*
X132936961Y-79974225D01*
X132936961Y-79974224D01*
X132939284Y-79969243D01*
X132959976Y-79892022D01*
X132997119Y-79753402D01*
X132997119Y-79753400D01*
X132998543Y-79748087D01*
X133018019Y-79525475D01*
X145632483Y-79525475D01*
X145651472Y-79742519D01*
X145653375Y-79753312D01*
X145709764Y-79963761D01*
X145713510Y-79974053D01*
X145805586Y-80171511D01*
X145811069Y-80181006D01*
X145847509Y-80233048D01*
X145857988Y-80241424D01*
X145871434Y-80234356D01*
X146572978Y-79532812D01*
X146579356Y-79521132D01*
X147309408Y-79521132D01*
X147309539Y-79522965D01*
X147313790Y-79529580D01*
X148019287Y-80235077D01*
X148031062Y-80241507D01*
X148043077Y-80232211D01*
X148078931Y-80181006D01*
X148084414Y-80171511D01*
X148176490Y-79974053D01*
X148180236Y-79963761D01*
X148236625Y-79753312D01*
X148238528Y-79742519D01*
X148257517Y-79525475D01*
X148257517Y-79514525D01*
X148238528Y-79297481D01*
X148236625Y-79286688D01*
X148180236Y-79076239D01*
X148176490Y-79065947D01*
X148084414Y-78868489D01*
X148078931Y-78858994D01*
X148042491Y-78806952D01*
X148032012Y-78798576D01*
X148018566Y-78805644D01*
X147317022Y-79507188D01*
X147309408Y-79521132D01*
X146579356Y-79521132D01*
X146580592Y-79518868D01*
X146580461Y-79517035D01*
X146576210Y-79510420D01*
X145870713Y-78804923D01*
X145858938Y-78798493D01*
X145846923Y-78807789D01*
X145811069Y-78858994D01*
X145805586Y-78868489D01*
X145713510Y-79065947D01*
X145709764Y-79076239D01*
X145653375Y-79286688D01*
X145651472Y-79297481D01*
X145632483Y-79514525D01*
X145632483Y-79525475D01*
X133018019Y-79525475D01*
X133018498Y-79520000D01*
X132998543Y-79291913D01*
X132961981Y-79155461D01*
X132940707Y-79076067D01*
X132940706Y-79076065D01*
X132939284Y-79070757D01*
X132844966Y-78868489D01*
X132844849Y-78868238D01*
X132844846Y-78868233D01*
X132842523Y-78863251D01*
X132711198Y-78675700D01*
X132549300Y-78513802D01*
X132544789Y-78510643D01*
X132540576Y-78507108D01*
X132541527Y-78505974D01*
X132501529Y-78455929D01*
X132494224Y-78385310D01*
X132526258Y-78321951D01*
X132587462Y-78285970D01*
X132604517Y-78282918D01*
X132615316Y-78281745D01*
X132751705Y-78230615D01*
X132868261Y-78143261D01*
X132955615Y-78026705D01*
X133006745Y-77890316D01*
X133013500Y-77828134D01*
X133013500Y-76980000D01*
X145631502Y-76980000D01*
X145651457Y-77208087D01*
X145710716Y-77429243D01*
X145713039Y-77434224D01*
X145713039Y-77434225D01*
X145805151Y-77631762D01*
X145805154Y-77631767D01*
X145807477Y-77636749D01*
X145938802Y-77824300D01*
X146100700Y-77986198D01*
X146105208Y-77989355D01*
X146105211Y-77989357D01*
X146146542Y-78018297D01*
X146288251Y-78117523D01*
X146293233Y-78119846D01*
X146293238Y-78119849D01*
X146328049Y-78136081D01*
X146381334Y-78182998D01*
X146400795Y-78251275D01*
X146380253Y-78319235D01*
X146328049Y-78364471D01*
X146293489Y-78380586D01*
X146283994Y-78386069D01*
X146231952Y-78422509D01*
X146223576Y-78432988D01*
X146230644Y-78446434D01*
X146932188Y-79147978D01*
X146946132Y-79155592D01*
X146947965Y-79155461D01*
X146954580Y-79151210D01*
X147660077Y-78445713D01*
X147666507Y-78433938D01*
X147657211Y-78421923D01*
X147606006Y-78386069D01*
X147596511Y-78380586D01*
X147561951Y-78364471D01*
X147508666Y-78317554D01*
X147489205Y-78249277D01*
X147509747Y-78181317D01*
X147561951Y-78136081D01*
X147596762Y-78119849D01*
X147596767Y-78119846D01*
X147601749Y-78117523D01*
X147743458Y-78018297D01*
X147784789Y-77989357D01*
X147784792Y-77989355D01*
X147789300Y-77986198D01*
X147951198Y-77824300D01*
X148082523Y-77636749D01*
X148084846Y-77631767D01*
X148084849Y-77631762D01*
X148176961Y-77434225D01*
X148176961Y-77434224D01*
X148179284Y-77429243D01*
X148238543Y-77208087D01*
X148258498Y-76980000D01*
X148238543Y-76751913D01*
X148179284Y-76530757D01*
X148176961Y-76525775D01*
X148084849Y-76328238D01*
X148084846Y-76328233D01*
X148082523Y-76323251D01*
X147951198Y-76135700D01*
X147789300Y-75973802D01*
X147784792Y-75970645D01*
X147784789Y-75970643D01*
X147706611Y-75915902D01*
X147601749Y-75842477D01*
X147596767Y-75840154D01*
X147596762Y-75840151D01*
X147399225Y-75748039D01*
X147399224Y-75748039D01*
X147394243Y-75745716D01*
X147388935Y-75744294D01*
X147388933Y-75744293D01*
X147178402Y-75687881D01*
X147178400Y-75687881D01*
X147173087Y-75686457D01*
X146945000Y-75666502D01*
X146716913Y-75686457D01*
X146711600Y-75687881D01*
X146711598Y-75687881D01*
X146501067Y-75744293D01*
X146501065Y-75744294D01*
X146495757Y-75745716D01*
X146490776Y-75748039D01*
X146490775Y-75748039D01*
X146293238Y-75840151D01*
X146293233Y-75840154D01*
X146288251Y-75842477D01*
X146183389Y-75915902D01*
X146105211Y-75970643D01*
X146105208Y-75970645D01*
X146100700Y-75973802D01*
X145938802Y-76135700D01*
X145807477Y-76323251D01*
X145805154Y-76328233D01*
X145805151Y-76328238D01*
X145713039Y-76525775D01*
X145710716Y-76530757D01*
X145651457Y-76751913D01*
X145631502Y-76980000D01*
X133013500Y-76980000D01*
X133013500Y-76131866D01*
X133006745Y-76069684D01*
X132955615Y-75933295D01*
X132868261Y-75816739D01*
X132751705Y-75729385D01*
X132615316Y-75678255D01*
X132553134Y-75671500D01*
X130856866Y-75671500D01*
X130794684Y-75678255D01*
X130658295Y-75729385D01*
X130541739Y-75816739D01*
X130454385Y-75933295D01*
X130403255Y-76069684D01*
X130396500Y-76131866D01*
X130396500Y-77828134D01*
X130403255Y-77890316D01*
X130454385Y-78026705D01*
X130541739Y-78143261D01*
X130658295Y-78230615D01*
X130794684Y-78281745D01*
X130805474Y-78282917D01*
X130807606Y-78283803D01*
X130810222Y-78284425D01*
X130810121Y-78284848D01*
X130871035Y-78310155D01*
X130911463Y-78368517D01*
X130913922Y-78439471D01*
X130877629Y-78500490D01*
X130868969Y-78507489D01*
X130865207Y-78510646D01*
X130860700Y-78513802D01*
X130698802Y-78675700D01*
X130567477Y-78863251D01*
X130565154Y-78868233D01*
X130565151Y-78868238D01*
X130565034Y-78868489D01*
X130470716Y-79070757D01*
X130469294Y-79076065D01*
X130469293Y-79076067D01*
X130448019Y-79155461D01*
X130411457Y-79291913D01*
X130391502Y-79520000D01*
X126783000Y-79520000D01*
X126783000Y-68421500D01*
X126803002Y-68353379D01*
X126856658Y-68306886D01*
X126909000Y-68295500D01*
X166166000Y-68295500D01*
X166234121Y-68315502D01*
G37*
%TD.AperFunction*%
%TD*%
M02*
