%TF.GenerationSoftware,KiCad,Pcbnew,7.0.7*%
%TF.CreationDate,2024-04-10T23:56:20-07:00*%
%TF.ProjectId,USBTTL,55534254-544c-42e6-9b69-6361645f7063,rev?*%
%TF.SameCoordinates,Original*%
%TF.FileFunction,Copper,L2,Bot*%
%TF.FilePolarity,Positive*%
%FSLAX46Y46*%
G04 Gerber Fmt 4.6, Leading zero omitted, Abs format (unit mm)*
G04 Created by KiCad (PCBNEW 7.0.7) date 2024-04-10 23:56:20*
%MOMM*%
%LPD*%
G01*
G04 APERTURE LIST*
%TA.AperFunction,ComponentPad*%
%ADD10C,1.400000*%
%TD*%
%TA.AperFunction,ComponentPad*%
%ADD11R,1.700000X1.700000*%
%TD*%
%TA.AperFunction,ComponentPad*%
%ADD12O,1.700000X1.700000*%
%TD*%
%TA.AperFunction,ComponentPad*%
%ADD13R,1.524000X1.524000*%
%TD*%
%TA.AperFunction,ComponentPad*%
%ADD14C,1.524000*%
%TD*%
%TA.AperFunction,ComponentPad*%
%ADD15C,2.800000*%
%TD*%
%TA.AperFunction,ViaPad*%
%ADD16C,0.800000*%
%TD*%
%TA.AperFunction,Conductor*%
%ADD17C,0.250000*%
%TD*%
G04 APERTURE END LIST*
D10*
%TO.P,Y1,1,1*%
%TO.N,/Xi*%
X72500000Y-59500000D03*
%TO.P,Y1,2,2*%
%TO.N,/Xo*%
X67600000Y-59500000D03*
%TD*%
D11*
%TO.P,J1,1,Pin_1*%
%TO.N,/Xo*%
X59000000Y-61000000D03*
D12*
%TO.P,J1,2,Pin_2*%
%TO.N,/Xi*%
X59000000Y-58460000D03*
%TO.P,J1,3,Pin_3*%
%TO.N,/D-*%
X59000000Y-55920000D03*
%TO.P,J1,4,Pin_4*%
%TO.N,/D+*%
X59000000Y-53380000D03*
%TO.P,J1,5,Pin_5*%
%TO.N,/V3*%
X59000000Y-50840000D03*
%TO.P,J1,6,Pin_6*%
%TO.N,/Rx*%
X59000000Y-48300000D03*
%TO.P,J1,7,Pin_7*%
%TO.N,/Tx*%
X59000000Y-45760000D03*
%TO.P,J1,8,Pin_8*%
%TO.N,GND*%
X59000000Y-43220000D03*
%TD*%
D11*
%TO.P,J2,1,Pin_1*%
%TO.N,/VCC*%
X81000000Y-43000000D03*
D12*
%TO.P,J2,2,Pin_2*%
%TO.N,/R232*%
X81000000Y-45540000D03*
%TO.P,J2,3,Pin_3*%
%TO.N,/RTS*%
X81000000Y-48080000D03*
%TO.P,J2,4,Pin_4*%
%TO.N,/DTR*%
X81000000Y-50620000D03*
%TO.P,J2,5,Pin_5*%
%TO.N,/DCD*%
X81000000Y-53160000D03*
%TO.P,J2,6,Pin_6*%
%TO.N,/RI*%
X81000000Y-55700000D03*
%TO.P,J2,7,Pin_7*%
%TO.N,/DSR*%
X81000000Y-58240000D03*
%TO.P,J2,8,Pin_8*%
%TO.N,/CTS*%
X81000000Y-60780000D03*
%TD*%
D13*
%TO.P,USB1,1,VCC*%
%TO.N,/VCC*%
X73500000Y-39715000D03*
D14*
%TO.P,USB1,2,D-*%
%TO.N,/Data-*%
X71000000Y-39715000D03*
%TO.P,USB1,3,D+*%
%TO.N,/Data+*%
X69000000Y-39715000D03*
%TO.P,USB1,4,GND*%
%TO.N,GND*%
X66500000Y-39715000D03*
D15*
%TO.P,USB1,5,Shield*%
X63450000Y-37005000D03*
%TO.P,USB1,6,Shield*%
X76550000Y-37005000D03*
%TD*%
D16*
%TO.N,/V3*%
X64000000Y-42000000D03*
%TO.N,GND*%
X61500000Y-61500000D03*
X66500000Y-44000000D03*
X78500000Y-60500000D03*
%TD*%
D17*
%TO.N,/V3*%
X64000000Y-48000000D02*
X64000000Y-42000000D01*
X62500000Y-49500000D02*
X64000000Y-48000000D01*
X59000000Y-50840000D02*
X61160000Y-50840000D01*
X61160000Y-50840000D02*
X62500000Y-49500000D01*
%TD*%
%TA.AperFunction,Conductor*%
%TO.N,GND*%
G36*
X82443039Y-33019685D02*
G01*
X82488794Y-33072489D01*
X82500000Y-33124000D01*
X82500000Y-41797216D01*
X82480315Y-41864255D01*
X82427511Y-41910010D01*
X82358353Y-41919954D01*
X82294797Y-41890929D01*
X82276734Y-41871527D01*
X82213262Y-41786741D01*
X82213263Y-41786741D01*
X82213261Y-41786739D01*
X82096204Y-41699111D01*
X81959203Y-41648011D01*
X81898654Y-41641500D01*
X81898638Y-41641500D01*
X80101362Y-41641500D01*
X80101345Y-41641500D01*
X80040797Y-41648011D01*
X80040795Y-41648011D01*
X79903795Y-41699111D01*
X79786739Y-41786739D01*
X79699111Y-41903795D01*
X79648011Y-42040795D01*
X79648011Y-42040797D01*
X79641500Y-42101345D01*
X79641500Y-43898654D01*
X79648011Y-43959202D01*
X79648011Y-43959204D01*
X79693670Y-44081617D01*
X79699111Y-44096204D01*
X79786739Y-44213261D01*
X79903796Y-44300889D01*
X79955737Y-44320262D01*
X80021595Y-44344827D01*
X80077528Y-44386699D01*
X80101944Y-44452163D01*
X80087092Y-44520436D01*
X80069490Y-44544991D01*
X79924279Y-44702730D01*
X79924276Y-44702734D01*
X79801140Y-44891207D01*
X79710703Y-45097385D01*
X79655436Y-45315628D01*
X79655434Y-45315640D01*
X79636844Y-45539994D01*
X79636844Y-45540005D01*
X79655434Y-45764359D01*
X79655436Y-45764371D01*
X79710703Y-45982614D01*
X79801140Y-46188792D01*
X79924276Y-46377265D01*
X79924284Y-46377276D01*
X80076756Y-46542902D01*
X80076760Y-46542906D01*
X80254424Y-46681189D01*
X80254429Y-46681191D01*
X80254431Y-46681193D01*
X80290930Y-46700946D01*
X80340520Y-46750165D01*
X80355628Y-46818382D01*
X80331457Y-46883937D01*
X80290930Y-46919054D01*
X80254431Y-46938806D01*
X80254422Y-46938812D01*
X80076761Y-47077092D01*
X80076756Y-47077097D01*
X79924284Y-47242723D01*
X79924276Y-47242734D01*
X79801140Y-47431207D01*
X79710703Y-47637385D01*
X79655436Y-47855628D01*
X79655434Y-47855640D01*
X79636844Y-48079994D01*
X79636844Y-48080005D01*
X79655434Y-48304359D01*
X79655436Y-48304371D01*
X79710703Y-48522614D01*
X79801140Y-48728792D01*
X79924276Y-48917265D01*
X79924284Y-48917276D01*
X80050191Y-49054045D01*
X80076760Y-49082906D01*
X80254424Y-49221189D01*
X80254429Y-49221191D01*
X80254431Y-49221193D01*
X80290930Y-49240946D01*
X80340520Y-49290165D01*
X80355628Y-49358382D01*
X80331457Y-49423937D01*
X80290930Y-49459054D01*
X80254431Y-49478806D01*
X80254422Y-49478812D01*
X80076761Y-49617092D01*
X80076756Y-49617097D01*
X79924284Y-49782723D01*
X79924276Y-49782734D01*
X79801140Y-49971207D01*
X79710703Y-50177385D01*
X79655436Y-50395628D01*
X79655434Y-50395640D01*
X79636844Y-50619994D01*
X79636844Y-50620005D01*
X79655434Y-50844359D01*
X79655436Y-50844371D01*
X79710703Y-51062614D01*
X79801140Y-51268792D01*
X79924276Y-51457265D01*
X79924284Y-51457276D01*
X80076756Y-51622902D01*
X80076760Y-51622906D01*
X80254424Y-51761189D01*
X80254429Y-51761191D01*
X80254431Y-51761193D01*
X80290930Y-51780946D01*
X80340520Y-51830165D01*
X80355628Y-51898382D01*
X80331457Y-51963937D01*
X80290930Y-51999054D01*
X80254431Y-52018806D01*
X80254422Y-52018812D01*
X80076761Y-52157092D01*
X80076756Y-52157097D01*
X79924284Y-52322723D01*
X79924276Y-52322734D01*
X79801140Y-52511207D01*
X79710703Y-52717385D01*
X79655436Y-52935628D01*
X79655434Y-52935640D01*
X79636844Y-53159994D01*
X79636844Y-53160005D01*
X79655434Y-53384359D01*
X79655436Y-53384371D01*
X79710703Y-53602614D01*
X79801140Y-53808792D01*
X79924276Y-53997265D01*
X79924284Y-53997276D01*
X80076756Y-54162902D01*
X80076760Y-54162906D01*
X80254424Y-54301189D01*
X80254429Y-54301191D01*
X80254431Y-54301193D01*
X80290930Y-54320946D01*
X80340520Y-54370165D01*
X80355628Y-54438382D01*
X80331457Y-54503937D01*
X80290930Y-54539054D01*
X80254431Y-54558806D01*
X80254422Y-54558812D01*
X80076761Y-54697092D01*
X80076756Y-54697097D01*
X79924284Y-54862723D01*
X79924276Y-54862734D01*
X79801140Y-55051207D01*
X79710703Y-55257385D01*
X79655436Y-55475628D01*
X79655434Y-55475640D01*
X79636844Y-55699994D01*
X79636844Y-55700005D01*
X79655434Y-55924359D01*
X79655436Y-55924371D01*
X79710703Y-56142614D01*
X79801140Y-56348792D01*
X79924276Y-56537265D01*
X79924284Y-56537276D01*
X80076756Y-56702902D01*
X80076760Y-56702906D01*
X80254424Y-56841189D01*
X80254429Y-56841191D01*
X80254431Y-56841193D01*
X80290930Y-56860946D01*
X80340520Y-56910165D01*
X80355628Y-56978382D01*
X80331457Y-57043937D01*
X80290930Y-57079054D01*
X80254431Y-57098806D01*
X80254422Y-57098812D01*
X80076761Y-57237092D01*
X80076756Y-57237097D01*
X79924284Y-57402723D01*
X79924276Y-57402734D01*
X79801140Y-57591207D01*
X79710703Y-57797385D01*
X79655436Y-58015628D01*
X79655434Y-58015640D01*
X79636844Y-58239994D01*
X79636844Y-58240005D01*
X79655434Y-58464359D01*
X79655436Y-58464371D01*
X79710703Y-58682614D01*
X79801140Y-58888792D01*
X79924276Y-59077265D01*
X79924284Y-59077276D01*
X80076756Y-59242902D01*
X80076760Y-59242906D01*
X80254424Y-59381189D01*
X80254429Y-59381191D01*
X80254431Y-59381193D01*
X80290930Y-59400946D01*
X80340520Y-59450165D01*
X80355628Y-59518382D01*
X80331457Y-59583937D01*
X80290930Y-59619054D01*
X80254431Y-59638806D01*
X80254422Y-59638812D01*
X80076761Y-59777092D01*
X80076756Y-59777097D01*
X79924284Y-59942723D01*
X79924276Y-59942734D01*
X79801140Y-60131207D01*
X79710703Y-60337385D01*
X79655436Y-60555628D01*
X79655434Y-60555640D01*
X79636844Y-60779994D01*
X79636844Y-60780005D01*
X79655434Y-61004359D01*
X79655436Y-61004371D01*
X79710703Y-61222614D01*
X79801140Y-61428792D01*
X79924276Y-61617265D01*
X79924284Y-61617276D01*
X80076756Y-61782902D01*
X80076760Y-61782906D01*
X80254424Y-61921189D01*
X80254425Y-61921189D01*
X80254427Y-61921191D01*
X80381135Y-61989761D01*
X80452426Y-62028342D01*
X80665365Y-62101444D01*
X80887431Y-62138500D01*
X81112569Y-62138500D01*
X81334635Y-62101444D01*
X81547574Y-62028342D01*
X81745576Y-61921189D01*
X81923240Y-61782906D01*
X82075722Y-61617268D01*
X82198860Y-61428791D01*
X82262443Y-61283833D01*
X82307399Y-61230346D01*
X82374135Y-61209656D01*
X82441463Y-61228330D01*
X82488007Y-61280440D01*
X82500000Y-61333642D01*
X82500000Y-63876000D01*
X82480315Y-63943039D01*
X82427511Y-63988794D01*
X82376000Y-64000000D01*
X57624000Y-64000000D01*
X57556961Y-63980315D01*
X57511206Y-63927511D01*
X57500000Y-63876000D01*
X57500000Y-62202783D01*
X57519685Y-62135744D01*
X57572489Y-62089989D01*
X57641647Y-62080045D01*
X57705203Y-62109070D01*
X57723264Y-62128469D01*
X57786739Y-62213261D01*
X57903796Y-62300889D01*
X58040799Y-62351989D01*
X58068050Y-62354918D01*
X58101345Y-62358499D01*
X58101362Y-62358500D01*
X59898638Y-62358500D01*
X59898654Y-62358499D01*
X59925692Y-62355591D01*
X59959201Y-62351989D01*
X60096204Y-62300889D01*
X60213261Y-62213261D01*
X60300889Y-62096204D01*
X60351989Y-61959201D01*
X60356076Y-61921187D01*
X60358499Y-61898654D01*
X60358500Y-61898637D01*
X60358500Y-60101362D01*
X60358499Y-60101345D01*
X60355157Y-60070270D01*
X60351989Y-60040799D01*
X60300889Y-59903796D01*
X60213261Y-59786739D01*
X60096204Y-59699111D01*
X60096204Y-59699110D01*
X59978404Y-59655172D01*
X59922471Y-59613300D01*
X59898055Y-59547835D01*
X59908461Y-59500001D01*
X66386884Y-59500001D01*
X66405313Y-59710649D01*
X66405315Y-59710660D01*
X66460041Y-59914902D01*
X66460043Y-59914906D01*
X66460044Y-59914910D01*
X66473018Y-59942732D01*
X66549410Y-60106556D01*
X66549411Y-60106558D01*
X66670700Y-60279778D01*
X66820221Y-60429299D01*
X66820224Y-60429301D01*
X66993442Y-60550589D01*
X67185090Y-60639956D01*
X67389345Y-60694686D01*
X67539812Y-60707850D01*
X67599998Y-60713116D01*
X67600000Y-60713116D01*
X67600002Y-60713116D01*
X67652663Y-60708508D01*
X67810655Y-60694686D01*
X68014910Y-60639956D01*
X68206558Y-60550589D01*
X68379776Y-60429301D01*
X68529301Y-60279776D01*
X68650589Y-60106558D01*
X68739956Y-59914910D01*
X68794686Y-59710655D01*
X68813116Y-59500001D01*
X71286884Y-59500001D01*
X71305313Y-59710649D01*
X71305315Y-59710660D01*
X71360041Y-59914902D01*
X71360043Y-59914906D01*
X71360044Y-59914910D01*
X71373018Y-59942732D01*
X71449410Y-60106556D01*
X71449411Y-60106558D01*
X71570700Y-60279778D01*
X71720221Y-60429299D01*
X71720224Y-60429301D01*
X71893442Y-60550589D01*
X72085090Y-60639956D01*
X72289345Y-60694686D01*
X72439812Y-60707850D01*
X72499998Y-60713116D01*
X72500000Y-60713116D01*
X72500002Y-60713116D01*
X72552663Y-60708508D01*
X72710655Y-60694686D01*
X72914910Y-60639956D01*
X73106558Y-60550589D01*
X73279776Y-60429301D01*
X73429301Y-60279776D01*
X73550589Y-60106558D01*
X73639956Y-59914910D01*
X73694686Y-59710655D01*
X73713116Y-59500000D01*
X73694686Y-59289345D01*
X73639956Y-59085090D01*
X73550589Y-58893442D01*
X73429301Y-58720224D01*
X73429299Y-58720221D01*
X73279778Y-58570700D01*
X73106558Y-58449411D01*
X73106556Y-58449410D01*
X73085071Y-58439391D01*
X72914910Y-58360044D01*
X72914906Y-58360043D01*
X72914902Y-58360041D01*
X72710660Y-58305315D01*
X72710656Y-58305314D01*
X72710655Y-58305314D01*
X72710654Y-58305313D01*
X72710649Y-58305313D01*
X72500002Y-58286884D01*
X72499998Y-58286884D01*
X72289350Y-58305313D01*
X72289339Y-58305315D01*
X72085097Y-58360041D01*
X72085088Y-58360045D01*
X71893443Y-58449410D01*
X71893441Y-58449411D01*
X71720221Y-58570700D01*
X71570700Y-58720221D01*
X71449411Y-58893441D01*
X71449410Y-58893443D01*
X71416587Y-58963833D01*
X71363692Y-59077268D01*
X71360045Y-59085088D01*
X71360041Y-59085097D01*
X71305315Y-59289339D01*
X71305313Y-59289350D01*
X71286884Y-59499998D01*
X71286884Y-59500001D01*
X68813116Y-59500001D01*
X68813116Y-59500000D01*
X68794686Y-59289345D01*
X68739956Y-59085090D01*
X68650589Y-58893442D01*
X68529301Y-58720224D01*
X68529299Y-58720221D01*
X68379778Y-58570700D01*
X68206558Y-58449411D01*
X68206556Y-58449410D01*
X68185071Y-58439391D01*
X68014910Y-58360044D01*
X68014906Y-58360043D01*
X68014902Y-58360041D01*
X67810660Y-58305315D01*
X67810656Y-58305314D01*
X67810655Y-58305314D01*
X67810654Y-58305313D01*
X67810649Y-58305313D01*
X67600002Y-58286884D01*
X67599998Y-58286884D01*
X67389350Y-58305313D01*
X67389339Y-58305315D01*
X67185097Y-58360041D01*
X67185088Y-58360045D01*
X66993443Y-58449410D01*
X66993441Y-58449411D01*
X66820221Y-58570700D01*
X66670700Y-58720221D01*
X66549411Y-58893441D01*
X66549410Y-58893443D01*
X66516587Y-58963833D01*
X66463692Y-59077268D01*
X66460045Y-59085088D01*
X66460041Y-59085097D01*
X66405315Y-59289339D01*
X66405313Y-59289350D01*
X66386884Y-59499998D01*
X66386884Y-59500001D01*
X59908461Y-59500001D01*
X59912908Y-59479562D01*
X59930504Y-59455014D01*
X60075722Y-59297268D01*
X60198860Y-59108791D01*
X60289296Y-58902616D01*
X60344564Y-58684368D01*
X60344709Y-58682616D01*
X60363156Y-58460005D01*
X60363156Y-58459994D01*
X60344565Y-58235640D01*
X60344563Y-58235628D01*
X60341876Y-58225018D01*
X60289296Y-58017384D01*
X60198860Y-57811209D01*
X60189828Y-57797385D01*
X60075723Y-57622734D01*
X60075715Y-57622723D01*
X59923243Y-57457097D01*
X59923238Y-57457092D01*
X59745577Y-57318812D01*
X59745578Y-57318812D01*
X59745576Y-57318811D01*
X59709070Y-57299055D01*
X59659479Y-57249836D01*
X59644371Y-57181619D01*
X59668541Y-57116064D01*
X59709070Y-57080945D01*
X59712564Y-57079054D01*
X59745576Y-57061189D01*
X59923240Y-56922906D01*
X60075722Y-56757268D01*
X60198860Y-56568791D01*
X60289296Y-56362616D01*
X60344564Y-56144368D01*
X60344709Y-56142616D01*
X60363156Y-55920005D01*
X60363156Y-55919994D01*
X60344565Y-55695640D01*
X60344563Y-55695628D01*
X60341876Y-55685018D01*
X60289296Y-55477384D01*
X60198860Y-55271209D01*
X60189828Y-55257385D01*
X60075723Y-55082734D01*
X60075715Y-55082723D01*
X59923243Y-54917097D01*
X59923238Y-54917092D01*
X59745577Y-54778812D01*
X59745578Y-54778812D01*
X59745576Y-54778811D01*
X59709070Y-54759055D01*
X59659479Y-54709836D01*
X59644371Y-54641619D01*
X59668541Y-54576064D01*
X59709070Y-54540945D01*
X59712564Y-54539054D01*
X59745576Y-54521189D01*
X59923240Y-54382906D01*
X60075722Y-54217268D01*
X60198860Y-54028791D01*
X60289296Y-53822616D01*
X60344564Y-53604368D01*
X60344709Y-53602616D01*
X60363156Y-53380005D01*
X60363156Y-53379994D01*
X60344565Y-53155640D01*
X60344563Y-53155628D01*
X60341876Y-53145018D01*
X60289296Y-52937384D01*
X60198860Y-52731209D01*
X60189828Y-52717385D01*
X60075723Y-52542734D01*
X60075715Y-52542723D01*
X59923243Y-52377097D01*
X59923238Y-52377092D01*
X59745577Y-52238812D01*
X59745578Y-52238812D01*
X59745576Y-52238811D01*
X59709070Y-52219055D01*
X59659479Y-52169836D01*
X59644371Y-52101619D01*
X59668541Y-52036064D01*
X59709070Y-52000945D01*
X59712564Y-51999054D01*
X59745576Y-51981189D01*
X59923240Y-51842906D01*
X60075722Y-51677268D01*
X60129123Y-51595531D01*
X60172148Y-51529678D01*
X60225294Y-51484321D01*
X60275956Y-51473500D01*
X61076366Y-51473500D01*
X61092113Y-51475238D01*
X61092139Y-51474968D01*
X61099905Y-51475701D01*
X61099909Y-51475702D01*
X61169958Y-51473500D01*
X61199856Y-51473500D01*
X61199857Y-51473500D01*
X61201222Y-51473327D01*
X61206862Y-51472614D01*
X61212685Y-51472156D01*
X61238708Y-51471338D01*
X61259890Y-51470673D01*
X61269681Y-51467827D01*
X61279481Y-51464980D01*
X61298538Y-51461032D01*
X61318797Y-51458474D01*
X61362721Y-51441082D01*
X61368221Y-51439199D01*
X61413593Y-51426018D01*
X61431165Y-51415625D01*
X61448632Y-51407068D01*
X61467617Y-51399552D01*
X61505826Y-51371790D01*
X61510704Y-51368585D01*
X61551362Y-51344542D01*
X61565802Y-51330100D01*
X61580592Y-51317470D01*
X61597107Y-51305472D01*
X61627222Y-51269067D01*
X61631126Y-51264776D01*
X62976134Y-49919770D01*
X62976133Y-49919769D01*
X63012440Y-49883464D01*
X63012453Y-49883449D01*
X63674715Y-49221187D01*
X64388814Y-48507088D01*
X64401180Y-48497183D01*
X64401006Y-48496973D01*
X64407012Y-48492003D01*
X64407018Y-48492000D01*
X64454999Y-48440904D01*
X64476134Y-48419770D01*
X64480463Y-48414187D01*
X64484242Y-48409763D01*
X64516586Y-48375321D01*
X64526423Y-48357424D01*
X64537097Y-48341174D01*
X64549613Y-48325041D01*
X64568372Y-48281689D01*
X64570933Y-48276462D01*
X64593695Y-48235060D01*
X64598774Y-48215274D01*
X64605072Y-48196882D01*
X64613181Y-48178145D01*
X64620568Y-48131501D01*
X64621750Y-48125790D01*
X64633500Y-48080030D01*
X64633499Y-48059612D01*
X64635027Y-48040209D01*
X64638218Y-48020062D01*
X64638219Y-48020058D01*
X64633775Y-47973041D01*
X64633500Y-47967204D01*
X64633500Y-42701756D01*
X64653185Y-42634717D01*
X64665346Y-42618788D01*
X64739040Y-42536944D01*
X64834527Y-42371556D01*
X64893542Y-42189928D01*
X64913504Y-42000000D01*
X64893542Y-41810072D01*
X64834527Y-41628444D01*
X64739040Y-41463056D01*
X64611253Y-41321134D01*
X64456752Y-41208882D01*
X64282288Y-41131206D01*
X64282286Y-41131205D01*
X64095487Y-41091500D01*
X63904513Y-41091500D01*
X63717714Y-41131205D01*
X63543246Y-41208883D01*
X63388745Y-41321135D01*
X63260959Y-41463057D01*
X63165473Y-41628443D01*
X63165470Y-41628450D01*
X63110635Y-41797216D01*
X63106458Y-41810072D01*
X63086496Y-42000000D01*
X63106458Y-42189928D01*
X63106459Y-42189931D01*
X63165470Y-42371549D01*
X63165473Y-42371556D01*
X63260960Y-42536944D01*
X63324667Y-42607698D01*
X63334649Y-42618784D01*
X63364879Y-42681775D01*
X63366499Y-42701756D01*
X63366499Y-47686232D01*
X63346814Y-47753271D01*
X63330180Y-47773913D01*
X62050053Y-49054039D01*
X62050049Y-49054045D01*
X60933914Y-50170181D01*
X60872591Y-50203666D01*
X60846233Y-50206500D01*
X60275956Y-50206500D01*
X60208917Y-50186815D01*
X60172148Y-50150322D01*
X60075723Y-50002734D01*
X60075715Y-50002723D01*
X59923243Y-49837097D01*
X59923238Y-49837092D01*
X59745577Y-49698812D01*
X59745578Y-49698812D01*
X59745576Y-49698811D01*
X59709070Y-49679055D01*
X59659479Y-49629836D01*
X59644371Y-49561619D01*
X59668541Y-49496064D01*
X59709070Y-49460945D01*
X59712564Y-49459054D01*
X59745576Y-49441189D01*
X59923240Y-49302906D01*
X60075722Y-49137268D01*
X60198860Y-48948791D01*
X60289296Y-48742616D01*
X60344564Y-48524368D01*
X60344709Y-48522616D01*
X60363156Y-48300005D01*
X60363156Y-48299994D01*
X60344565Y-48075640D01*
X60344563Y-48075628D01*
X60317106Y-47967204D01*
X60289296Y-47857384D01*
X60198860Y-47651209D01*
X60189828Y-47637385D01*
X60075723Y-47462734D01*
X60075715Y-47462723D01*
X59923243Y-47297097D01*
X59923238Y-47297092D01*
X59745577Y-47158812D01*
X59745578Y-47158812D01*
X59745576Y-47158811D01*
X59709070Y-47139055D01*
X59659479Y-47089836D01*
X59644371Y-47021619D01*
X59668541Y-46956064D01*
X59709070Y-46920945D01*
X59712564Y-46919054D01*
X59745576Y-46901189D01*
X59923240Y-46762906D01*
X60075722Y-46597268D01*
X60198860Y-46408791D01*
X60289296Y-46202616D01*
X60344564Y-45984368D01*
X60344709Y-45982616D01*
X60363156Y-45760005D01*
X60363156Y-45759994D01*
X60344565Y-45535640D01*
X60344563Y-45535628D01*
X60341876Y-45525018D01*
X60289296Y-45317384D01*
X60198860Y-45111209D01*
X60189828Y-45097385D01*
X60075723Y-44922734D01*
X60075715Y-44922723D01*
X59923243Y-44757097D01*
X59923238Y-44757092D01*
X59745577Y-44618812D01*
X59745577Y-44618811D01*
X59702303Y-44595393D01*
X59652713Y-44546173D01*
X59637605Y-44477957D01*
X59661775Y-44412401D01*
X59690198Y-44384763D01*
X59871079Y-44258108D01*
X60038105Y-44091082D01*
X60173600Y-43897578D01*
X60273429Y-43683492D01*
X60273432Y-43683486D01*
X60330636Y-43470000D01*
X59613347Y-43470000D01*
X59546308Y-43450315D01*
X59500553Y-43397511D01*
X59490609Y-43328353D01*
X59494369Y-43311067D01*
X59500000Y-43291888D01*
X59500000Y-43148111D01*
X59494369Y-43128933D01*
X59494370Y-43059064D01*
X59532145Y-43000286D01*
X59595701Y-42971262D01*
X59613347Y-42970000D01*
X60330636Y-42970000D01*
X60330635Y-42969999D01*
X60273432Y-42756513D01*
X60273429Y-42756507D01*
X60173600Y-42542422D01*
X60173599Y-42542420D01*
X60038113Y-42348926D01*
X60038108Y-42348920D01*
X59871082Y-42181894D01*
X59677578Y-42046399D01*
X59463492Y-41946570D01*
X59463486Y-41946567D01*
X59249999Y-41889364D01*
X59249999Y-42607698D01*
X59230314Y-42674737D01*
X59177510Y-42720492D01*
X59108353Y-42730436D01*
X59035764Y-42720000D01*
X59035763Y-42720000D01*
X58964237Y-42720000D01*
X58964233Y-42720000D01*
X58891645Y-42730436D01*
X58822487Y-42720492D01*
X58769684Y-42674736D01*
X58750000Y-42607698D01*
X58750000Y-41889364D01*
X58749999Y-41889364D01*
X58536513Y-41946567D01*
X58536507Y-41946570D01*
X58322422Y-42046399D01*
X58322420Y-42046400D01*
X58128926Y-42181886D01*
X58128920Y-42181891D01*
X57961891Y-42348920D01*
X57961886Y-42348926D01*
X57826400Y-42542420D01*
X57826399Y-42542422D01*
X57736382Y-42735465D01*
X57690210Y-42787904D01*
X57623016Y-42807056D01*
X57556135Y-42786840D01*
X57510800Y-42733675D01*
X57500000Y-42683060D01*
X57500000Y-39715000D01*
X65233179Y-39715000D01*
X65252424Y-39934976D01*
X65252426Y-39934986D01*
X65309575Y-40148270D01*
X65309580Y-40148284D01*
X65402899Y-40348407D01*
X65402900Y-40348409D01*
X65448258Y-40413187D01*
X65917697Y-39943748D01*
X65979020Y-39910263D01*
X66048711Y-39915247D01*
X66102325Y-39954116D01*
X66142940Y-40005045D01*
X66183586Y-40056013D01*
X66255526Y-40105061D01*
X66299828Y-40159089D01*
X66307888Y-40228492D01*
X66277145Y-40291235D01*
X66273356Y-40295195D01*
X65801811Y-40766740D01*
X65801811Y-40766741D01*
X65866582Y-40812094D01*
X65866592Y-40812100D01*
X66066715Y-40905419D01*
X66066729Y-40905424D01*
X66280013Y-40962573D01*
X66280023Y-40962575D01*
X66499999Y-40981821D01*
X66500001Y-40981821D01*
X66719976Y-40962575D01*
X66719986Y-40962573D01*
X66933270Y-40905424D01*
X66933284Y-40905419D01*
X67133408Y-40812100D01*
X67133420Y-40812093D01*
X67198186Y-40766742D01*
X67198187Y-40766741D01*
X66729548Y-40298102D01*
X66696063Y-40236779D01*
X66701047Y-40167087D01*
X66742919Y-40111154D01*
X66759750Y-40100933D01*
X66762051Y-40099365D01*
X66762052Y-40099363D01*
X66762054Y-40099363D01*
X66863705Y-40005045D01*
X66885353Y-39967548D01*
X66935918Y-39919334D01*
X67004525Y-39906110D01*
X67069390Y-39932077D01*
X67080421Y-39941868D01*
X67551740Y-40413187D01*
X67551742Y-40413186D01*
X67597093Y-40348420D01*
X67597097Y-40348413D01*
X67632927Y-40271575D01*
X67679099Y-40219135D01*
X67746292Y-40199982D01*
X67813174Y-40220197D01*
X67857692Y-40271572D01*
X67866861Y-40291235D01*
X67895512Y-40352677D01*
X68023023Y-40534781D01*
X68180219Y-40691977D01*
X68362323Y-40819488D01*
X68563804Y-40913440D01*
X68778537Y-40970978D01*
X68936724Y-40984817D01*
X68999998Y-40990353D01*
X69000000Y-40990353D01*
X69000002Y-40990353D01*
X69055483Y-40985499D01*
X69221463Y-40970978D01*
X69436196Y-40913440D01*
X69637677Y-40819488D01*
X69819781Y-40691977D01*
X69912319Y-40599438D01*
X69973642Y-40565954D01*
X70043334Y-40570938D01*
X70087681Y-40599439D01*
X70180219Y-40691977D01*
X70362323Y-40819488D01*
X70563804Y-40913440D01*
X70778537Y-40970978D01*
X70936724Y-40984817D01*
X70999998Y-40990353D01*
X71000000Y-40990353D01*
X71000002Y-40990353D01*
X71055483Y-40985499D01*
X71221463Y-40970978D01*
X71436196Y-40913440D01*
X71637677Y-40819488D01*
X71819781Y-40691977D01*
X71976977Y-40534781D01*
X72007201Y-40491615D01*
X72061775Y-40447993D01*
X72131274Y-40440799D01*
X72193629Y-40472321D01*
X72229043Y-40532551D01*
X72232063Y-40549484D01*
X72236011Y-40586202D01*
X72236011Y-40586204D01*
X72275462Y-40691972D01*
X72287111Y-40723204D01*
X72374739Y-40840261D01*
X72491796Y-40927889D01*
X72628799Y-40978989D01*
X72655141Y-40981821D01*
X72689345Y-40985499D01*
X72689362Y-40985500D01*
X74310638Y-40985500D01*
X74310654Y-40985499D01*
X74337692Y-40982591D01*
X74371201Y-40978989D01*
X74508204Y-40927889D01*
X74625261Y-40840261D01*
X74712889Y-40723204D01*
X74763989Y-40586201D01*
X74769517Y-40534783D01*
X74770499Y-40525654D01*
X74770500Y-40525637D01*
X74770500Y-38904362D01*
X74770499Y-38904345D01*
X74767157Y-38873270D01*
X74763989Y-38843799D01*
X74759051Y-38830561D01*
X74741522Y-38783564D01*
X74712889Y-38706796D01*
X74625261Y-38589739D01*
X74508204Y-38502111D01*
X74371203Y-38451011D01*
X74310654Y-38444500D01*
X74310638Y-38444500D01*
X72689362Y-38444500D01*
X72689345Y-38444500D01*
X72628797Y-38451011D01*
X72628795Y-38451011D01*
X72491795Y-38502111D01*
X72374739Y-38589739D01*
X72287111Y-38706795D01*
X72236011Y-38843795D01*
X72236011Y-38843797D01*
X72232063Y-38880514D01*
X72205324Y-38945065D01*
X72147931Y-38984912D01*
X72078106Y-38987405D01*
X72018018Y-38951751D01*
X72007199Y-38938380D01*
X71976978Y-38895220D01*
X71912318Y-38830560D01*
X71819781Y-38738023D01*
X71679677Y-38639921D01*
X71637676Y-38610511D01*
X71536936Y-38563536D01*
X71436196Y-38516560D01*
X71436193Y-38516559D01*
X71436191Y-38516558D01*
X71221465Y-38459022D01*
X71221457Y-38459021D01*
X71000002Y-38439647D01*
X70999998Y-38439647D01*
X70778542Y-38459021D01*
X70778535Y-38459022D01*
X70563800Y-38516561D01*
X70362323Y-38610512D01*
X70362319Y-38610514D01*
X70180220Y-38738021D01*
X70087680Y-38830561D01*
X70026356Y-38864045D01*
X69956665Y-38859061D01*
X69912318Y-38830560D01*
X69819785Y-38738027D01*
X69819781Y-38738023D01*
X69674097Y-38636014D01*
X69637676Y-38610511D01*
X69536936Y-38563536D01*
X69436196Y-38516560D01*
X69436193Y-38516559D01*
X69436191Y-38516558D01*
X69221465Y-38459022D01*
X69221457Y-38459021D01*
X69000002Y-38439647D01*
X68999998Y-38439647D01*
X68778542Y-38459021D01*
X68778535Y-38459022D01*
X68563800Y-38516561D01*
X68362323Y-38610512D01*
X68362319Y-38610514D01*
X68180217Y-38738023D01*
X68023023Y-38895217D01*
X67895514Y-39077319D01*
X67895509Y-39077329D01*
X67857691Y-39158428D01*
X67811518Y-39210867D01*
X67744325Y-39230018D01*
X67677444Y-39209801D01*
X67632928Y-39158426D01*
X67597100Y-39081593D01*
X67597099Y-39081591D01*
X67551740Y-39016811D01*
X67082301Y-39486250D01*
X67020978Y-39519735D01*
X66951286Y-39514751D01*
X66897673Y-39475882D01*
X66857064Y-39424961D01*
X66816414Y-39373987D01*
X66744469Y-39324936D01*
X66700169Y-39270909D01*
X66692110Y-39201505D01*
X66722853Y-39138763D01*
X66726642Y-39134803D01*
X67198187Y-38663258D01*
X67133409Y-38617900D01*
X67133407Y-38617899D01*
X66933284Y-38524580D01*
X66933270Y-38524575D01*
X66719986Y-38467426D01*
X66719976Y-38467424D01*
X66500001Y-38448179D01*
X66499999Y-38448179D01*
X66280023Y-38467424D01*
X66280013Y-38467426D01*
X66066729Y-38524575D01*
X66066720Y-38524579D01*
X65866586Y-38617903D01*
X65801812Y-38663257D01*
X65801812Y-38663258D01*
X66270451Y-39131897D01*
X66303936Y-39193220D01*
X66298952Y-39262912D01*
X66257080Y-39318845D01*
X66240254Y-39329063D01*
X66237948Y-39330634D01*
X66136295Y-39424955D01*
X66136290Y-39424961D01*
X66114645Y-39462451D01*
X66064078Y-39510666D01*
X65995471Y-39523888D01*
X65930606Y-39497920D01*
X65919578Y-39488131D01*
X65448258Y-39016811D01*
X65448257Y-39016812D01*
X65402903Y-39081586D01*
X65309579Y-39281720D01*
X65309575Y-39281729D01*
X65252426Y-39495013D01*
X65252424Y-39495023D01*
X65233179Y-39714999D01*
X65233179Y-39715000D01*
X57500000Y-39715000D01*
X57500000Y-37005001D01*
X61545147Y-37005001D01*
X61564536Y-37276090D01*
X61564537Y-37276097D01*
X61622305Y-37541654D01*
X61717285Y-37796306D01*
X61717287Y-37796310D01*
X61847532Y-38034835D01*
X61847537Y-38034843D01*
X61941320Y-38160124D01*
X62447837Y-37653608D01*
X62509160Y-37620123D01*
X62578852Y-37625107D01*
X62631371Y-37662624D01*
X62703944Y-37751055D01*
X62792374Y-37823627D01*
X62831708Y-37881372D01*
X62833579Y-37951217D01*
X62801390Y-38007161D01*
X62294874Y-38513677D01*
X62294874Y-38513678D01*
X62420156Y-38607462D01*
X62420164Y-38607467D01*
X62658689Y-38737712D01*
X62658693Y-38737714D01*
X62913345Y-38832694D01*
X63178902Y-38890462D01*
X63178909Y-38890463D01*
X63449999Y-38909853D01*
X63450001Y-38909853D01*
X63721090Y-38890463D01*
X63721097Y-38890462D01*
X63986654Y-38832694D01*
X64241306Y-38737714D01*
X64241310Y-38737712D01*
X64479835Y-38607467D01*
X64479843Y-38607462D01*
X64605123Y-38513678D01*
X64605124Y-38513677D01*
X64098609Y-38007162D01*
X64065124Y-37945839D01*
X64070108Y-37876147D01*
X64107625Y-37823628D01*
X64196055Y-37751055D01*
X64268628Y-37662625D01*
X64326373Y-37623291D01*
X64396218Y-37621420D01*
X64452162Y-37653609D01*
X64958677Y-38160124D01*
X64958678Y-38160123D01*
X65052462Y-38034843D01*
X65052467Y-38034835D01*
X65182712Y-37796310D01*
X65182714Y-37796306D01*
X65277694Y-37541654D01*
X65335462Y-37276097D01*
X65335463Y-37276090D01*
X65354853Y-37005001D01*
X74645147Y-37005001D01*
X74664536Y-37276090D01*
X74664537Y-37276097D01*
X74722305Y-37541654D01*
X74817285Y-37796306D01*
X74817287Y-37796310D01*
X74947532Y-38034835D01*
X74947537Y-38034843D01*
X75041320Y-38160124D01*
X75547837Y-37653608D01*
X75609160Y-37620123D01*
X75678852Y-37625107D01*
X75731371Y-37662624D01*
X75803944Y-37751055D01*
X75892374Y-37823627D01*
X75931708Y-37881372D01*
X75933579Y-37951217D01*
X75901390Y-38007161D01*
X75394874Y-38513677D01*
X75394874Y-38513678D01*
X75520156Y-38607462D01*
X75520164Y-38607467D01*
X75758689Y-38737712D01*
X75758693Y-38737714D01*
X76013345Y-38832694D01*
X76278902Y-38890462D01*
X76278909Y-38890463D01*
X76549999Y-38909853D01*
X76550001Y-38909853D01*
X76821090Y-38890463D01*
X76821097Y-38890462D01*
X77086654Y-38832694D01*
X77341306Y-38737714D01*
X77341310Y-38737712D01*
X77579835Y-38607467D01*
X77579843Y-38607462D01*
X77705123Y-38513678D01*
X77705124Y-38513677D01*
X77198609Y-38007162D01*
X77165124Y-37945839D01*
X77170108Y-37876147D01*
X77207625Y-37823628D01*
X77296055Y-37751055D01*
X77368628Y-37662625D01*
X77426373Y-37623291D01*
X77496218Y-37621420D01*
X77552162Y-37653609D01*
X78058677Y-38160124D01*
X78058678Y-38160123D01*
X78152462Y-38034843D01*
X78152467Y-38034835D01*
X78282712Y-37796310D01*
X78282714Y-37796306D01*
X78377694Y-37541654D01*
X78435462Y-37276097D01*
X78435463Y-37276090D01*
X78454853Y-37005001D01*
X78454853Y-37004998D01*
X78435463Y-36733909D01*
X78435462Y-36733902D01*
X78377694Y-36468345D01*
X78282714Y-36213693D01*
X78282712Y-36213689D01*
X78152467Y-35975164D01*
X78152462Y-35975156D01*
X78058678Y-35849874D01*
X78058677Y-35849874D01*
X77552161Y-36356390D01*
X77490838Y-36389875D01*
X77421146Y-36384891D01*
X77368627Y-36347374D01*
X77296055Y-36258944D01*
X77207624Y-36186371D01*
X77168290Y-36128626D01*
X77166419Y-36058781D01*
X77198608Y-36002837D01*
X77705124Y-35496320D01*
X77579843Y-35402537D01*
X77579835Y-35402532D01*
X77341310Y-35272287D01*
X77341306Y-35272285D01*
X77086654Y-35177305D01*
X76821097Y-35119537D01*
X76821090Y-35119536D01*
X76550001Y-35100147D01*
X76549999Y-35100147D01*
X76278909Y-35119536D01*
X76278902Y-35119537D01*
X76013345Y-35177305D01*
X75758693Y-35272285D01*
X75758689Y-35272287D01*
X75520164Y-35402532D01*
X75394874Y-35496321D01*
X75901391Y-36002838D01*
X75934876Y-36064161D01*
X75929892Y-36133853D01*
X75892375Y-36186372D01*
X75803944Y-36258944D01*
X75731372Y-36347375D01*
X75673627Y-36386709D01*
X75603782Y-36388580D01*
X75547838Y-36356391D01*
X75041321Y-35849875D01*
X74947532Y-35975164D01*
X74817287Y-36213689D01*
X74817285Y-36213693D01*
X74722305Y-36468345D01*
X74664537Y-36733902D01*
X74664536Y-36733909D01*
X74645147Y-37004998D01*
X74645147Y-37005001D01*
X65354853Y-37005001D01*
X65354853Y-37004998D01*
X65335463Y-36733909D01*
X65335462Y-36733902D01*
X65277694Y-36468345D01*
X65182714Y-36213693D01*
X65182712Y-36213689D01*
X65052467Y-35975164D01*
X65052462Y-35975156D01*
X64958678Y-35849874D01*
X64958677Y-35849874D01*
X64452161Y-36356390D01*
X64390838Y-36389875D01*
X64321146Y-36384891D01*
X64268627Y-36347374D01*
X64196055Y-36258944D01*
X64107624Y-36186371D01*
X64068290Y-36128626D01*
X64066419Y-36058781D01*
X64098608Y-36002837D01*
X64605124Y-35496320D01*
X64479843Y-35402537D01*
X64479835Y-35402532D01*
X64241310Y-35272287D01*
X64241306Y-35272285D01*
X63986654Y-35177305D01*
X63721097Y-35119537D01*
X63721090Y-35119536D01*
X63450001Y-35100147D01*
X63449999Y-35100147D01*
X63178909Y-35119536D01*
X63178902Y-35119537D01*
X62913345Y-35177305D01*
X62658693Y-35272285D01*
X62658689Y-35272287D01*
X62420164Y-35402532D01*
X62294874Y-35496321D01*
X62801391Y-36002838D01*
X62834876Y-36064161D01*
X62829892Y-36133853D01*
X62792375Y-36186372D01*
X62703944Y-36258944D01*
X62631372Y-36347375D01*
X62573627Y-36386709D01*
X62503782Y-36388580D01*
X62447838Y-36356391D01*
X61941321Y-35849875D01*
X61847532Y-35975164D01*
X61717287Y-36213689D01*
X61717285Y-36213693D01*
X61622305Y-36468345D01*
X61564537Y-36733902D01*
X61564536Y-36733909D01*
X61545147Y-37004998D01*
X61545147Y-37005001D01*
X57500000Y-37005001D01*
X57500000Y-33124000D01*
X57519685Y-33056961D01*
X57572489Y-33011206D01*
X57624000Y-33000000D01*
X82376000Y-33000000D01*
X82443039Y-33019685D01*
G37*
%TD.AperFunction*%
%TD*%
M02*
