%TF.GenerationSoftware,KiCad,Pcbnew,7.0.7*%
%TF.CreationDate,2024-04-10T23:56:21-07:00*%
%TF.ProjectId,USBTTL,55534254-544c-42e6-9b69-6361645f7063,rev?*%
%TF.SameCoordinates,Original*%
%TF.FileFunction,Legend,Top*%
%TF.FilePolarity,Positive*%
%FSLAX46Y46*%
G04 Gerber Fmt 4.6, Leading zero omitted, Abs format (unit mm)*
G04 Created by KiCad (PCBNEW 7.0.7) date 2024-04-10 23:56:21*
%MOMM*%
%LPD*%
G01*
G04 APERTURE LIST*
%ADD10C,0.150000*%
%ADD11C,0.152000*%
%ADD12C,0.254000*%
%ADD13C,0.120000*%
G04 APERTURE END LIST*
D10*
X69573809Y-62928628D02*
X69573809Y-63404819D01*
X69240476Y-62404819D02*
X69573809Y-62928628D01*
X69573809Y-62928628D02*
X69907142Y-62404819D01*
X70764285Y-63404819D02*
X70192857Y-63404819D01*
X70478571Y-63404819D02*
X70478571Y-62404819D01*
X70478571Y-62404819D02*
X70383333Y-62547676D01*
X70383333Y-62547676D02*
X70288095Y-62642914D01*
X70288095Y-62642914D02*
X70192857Y-62690533D01*
X69238095Y-55454819D02*
X69238095Y-56264342D01*
X69238095Y-56264342D02*
X69285714Y-56359580D01*
X69285714Y-56359580D02*
X69333333Y-56407200D01*
X69333333Y-56407200D02*
X69428571Y-56454819D01*
X69428571Y-56454819D02*
X69619047Y-56454819D01*
X69619047Y-56454819D02*
X69714285Y-56407200D01*
X69714285Y-56407200D02*
X69761904Y-56359580D01*
X69761904Y-56359580D02*
X69809523Y-56264342D01*
X69809523Y-56264342D02*
X69809523Y-55454819D01*
X70809523Y-56454819D02*
X70238095Y-56454819D01*
X70523809Y-56454819D02*
X70523809Y-55454819D01*
X70523809Y-55454819D02*
X70428571Y-55597676D01*
X70428571Y-55597676D02*
X70333333Y-55692914D01*
X70333333Y-55692914D02*
X70238095Y-55740533D01*
X76833333Y-58859580D02*
X76785714Y-58907200D01*
X76785714Y-58907200D02*
X76642857Y-58954819D01*
X76642857Y-58954819D02*
X76547619Y-58954819D01*
X76547619Y-58954819D02*
X76404762Y-58907200D01*
X76404762Y-58907200D02*
X76309524Y-58811961D01*
X76309524Y-58811961D02*
X76261905Y-58716723D01*
X76261905Y-58716723D02*
X76214286Y-58526247D01*
X76214286Y-58526247D02*
X76214286Y-58383390D01*
X76214286Y-58383390D02*
X76261905Y-58192914D01*
X76261905Y-58192914D02*
X76309524Y-58097676D01*
X76309524Y-58097676D02*
X76404762Y-58002438D01*
X76404762Y-58002438D02*
X76547619Y-57954819D01*
X76547619Y-57954819D02*
X76642857Y-57954819D01*
X76642857Y-57954819D02*
X76785714Y-58002438D01*
X76785714Y-58002438D02*
X76833333Y-58050057D01*
X77166667Y-57954819D02*
X77785714Y-57954819D01*
X77785714Y-57954819D02*
X77452381Y-58335771D01*
X77452381Y-58335771D02*
X77595238Y-58335771D01*
X77595238Y-58335771D02*
X77690476Y-58383390D01*
X77690476Y-58383390D02*
X77738095Y-58431009D01*
X77738095Y-58431009D02*
X77785714Y-58526247D01*
X77785714Y-58526247D02*
X77785714Y-58764342D01*
X77785714Y-58764342D02*
X77738095Y-58859580D01*
X77738095Y-58859580D02*
X77690476Y-58907200D01*
X77690476Y-58907200D02*
X77595238Y-58954819D01*
X77595238Y-58954819D02*
X77309524Y-58954819D01*
X77309524Y-58954819D02*
X77214286Y-58907200D01*
X77214286Y-58907200D02*
X77166667Y-58859580D01*
X66833333Y-43454819D02*
X66500000Y-42978628D01*
X66261905Y-43454819D02*
X66261905Y-42454819D01*
X66261905Y-42454819D02*
X66642857Y-42454819D01*
X66642857Y-42454819D02*
X66738095Y-42502438D01*
X66738095Y-42502438D02*
X66785714Y-42550057D01*
X66785714Y-42550057D02*
X66833333Y-42645295D01*
X66833333Y-42645295D02*
X66833333Y-42788152D01*
X66833333Y-42788152D02*
X66785714Y-42883390D01*
X66785714Y-42883390D02*
X66738095Y-42931009D01*
X66738095Y-42931009D02*
X66642857Y-42978628D01*
X66642857Y-42978628D02*
X66261905Y-42978628D01*
X67214286Y-42550057D02*
X67261905Y-42502438D01*
X67261905Y-42502438D02*
X67357143Y-42454819D01*
X67357143Y-42454819D02*
X67595238Y-42454819D01*
X67595238Y-42454819D02*
X67690476Y-42502438D01*
X67690476Y-42502438D02*
X67738095Y-42550057D01*
X67738095Y-42550057D02*
X67785714Y-42645295D01*
X67785714Y-42645295D02*
X67785714Y-42740533D01*
X67785714Y-42740533D02*
X67738095Y-42883390D01*
X67738095Y-42883390D02*
X67166667Y-43454819D01*
X67166667Y-43454819D02*
X67785714Y-43454819D01*
X72833333Y-43454819D02*
X72500000Y-42978628D01*
X72261905Y-43454819D02*
X72261905Y-42454819D01*
X72261905Y-42454819D02*
X72642857Y-42454819D01*
X72642857Y-42454819D02*
X72738095Y-42502438D01*
X72738095Y-42502438D02*
X72785714Y-42550057D01*
X72785714Y-42550057D02*
X72833333Y-42645295D01*
X72833333Y-42645295D02*
X72833333Y-42788152D01*
X72833333Y-42788152D02*
X72785714Y-42883390D01*
X72785714Y-42883390D02*
X72738095Y-42931009D01*
X72738095Y-42931009D02*
X72642857Y-42978628D01*
X72642857Y-42978628D02*
X72261905Y-42978628D01*
X73785714Y-43454819D02*
X73214286Y-43454819D01*
X73500000Y-43454819D02*
X73500000Y-42454819D01*
X73500000Y-42454819D02*
X73404762Y-42597676D01*
X73404762Y-42597676D02*
X73309524Y-42692914D01*
X73309524Y-42692914D02*
X73214286Y-42740533D01*
X77833333Y-39859580D02*
X77785714Y-39907200D01*
X77785714Y-39907200D02*
X77642857Y-39954819D01*
X77642857Y-39954819D02*
X77547619Y-39954819D01*
X77547619Y-39954819D02*
X77404762Y-39907200D01*
X77404762Y-39907200D02*
X77309524Y-39811961D01*
X77309524Y-39811961D02*
X77261905Y-39716723D01*
X77261905Y-39716723D02*
X77214286Y-39526247D01*
X77214286Y-39526247D02*
X77214286Y-39383390D01*
X77214286Y-39383390D02*
X77261905Y-39192914D01*
X77261905Y-39192914D02*
X77309524Y-39097676D01*
X77309524Y-39097676D02*
X77404762Y-39002438D01*
X77404762Y-39002438D02*
X77547619Y-38954819D01*
X77547619Y-38954819D02*
X77642857Y-38954819D01*
X77642857Y-38954819D02*
X77785714Y-39002438D01*
X77785714Y-39002438D02*
X77833333Y-39050057D01*
X78214286Y-39050057D02*
X78261905Y-39002438D01*
X78261905Y-39002438D02*
X78357143Y-38954819D01*
X78357143Y-38954819D02*
X78595238Y-38954819D01*
X78595238Y-38954819D02*
X78690476Y-39002438D01*
X78690476Y-39002438D02*
X78738095Y-39050057D01*
X78738095Y-39050057D02*
X78785714Y-39145295D01*
X78785714Y-39145295D02*
X78785714Y-39240533D01*
X78785714Y-39240533D02*
X78738095Y-39383390D01*
X78738095Y-39383390D02*
X78166667Y-39954819D01*
X78166667Y-39954819D02*
X78785714Y-39954819D01*
X58666666Y-62954819D02*
X58666666Y-63669104D01*
X58666666Y-63669104D02*
X58619047Y-63811961D01*
X58619047Y-63811961D02*
X58523809Y-63907200D01*
X58523809Y-63907200D02*
X58380952Y-63954819D01*
X58380952Y-63954819D02*
X58285714Y-63954819D01*
X59666666Y-63954819D02*
X59095238Y-63954819D01*
X59380952Y-63954819D02*
X59380952Y-62954819D01*
X59380952Y-62954819D02*
X59285714Y-63097676D01*
X59285714Y-63097676D02*
X59190476Y-63192914D01*
X59190476Y-63192914D02*
X59095238Y-63240533D01*
X62833333Y-58859580D02*
X62785714Y-58907200D01*
X62785714Y-58907200D02*
X62642857Y-58954819D01*
X62642857Y-58954819D02*
X62547619Y-58954819D01*
X62547619Y-58954819D02*
X62404762Y-58907200D01*
X62404762Y-58907200D02*
X62309524Y-58811961D01*
X62309524Y-58811961D02*
X62261905Y-58716723D01*
X62261905Y-58716723D02*
X62214286Y-58526247D01*
X62214286Y-58526247D02*
X62214286Y-58383390D01*
X62214286Y-58383390D02*
X62261905Y-58192914D01*
X62261905Y-58192914D02*
X62309524Y-58097676D01*
X62309524Y-58097676D02*
X62404762Y-58002438D01*
X62404762Y-58002438D02*
X62547619Y-57954819D01*
X62547619Y-57954819D02*
X62642857Y-57954819D01*
X62642857Y-57954819D02*
X62785714Y-58002438D01*
X62785714Y-58002438D02*
X62833333Y-58050057D01*
X63690476Y-58288152D02*
X63690476Y-58954819D01*
X63452381Y-57907200D02*
X63214286Y-58621485D01*
X63214286Y-58621485D02*
X63833333Y-58621485D01*
X80666666Y-62954819D02*
X80666666Y-63669104D01*
X80666666Y-63669104D02*
X80619047Y-63811961D01*
X80619047Y-63811961D02*
X80523809Y-63907200D01*
X80523809Y-63907200D02*
X80380952Y-63954819D01*
X80380952Y-63954819D02*
X80285714Y-63954819D01*
X81095238Y-63050057D02*
X81142857Y-63002438D01*
X81142857Y-63002438D02*
X81238095Y-62954819D01*
X81238095Y-62954819D02*
X81476190Y-62954819D01*
X81476190Y-62954819D02*
X81571428Y-63002438D01*
X81571428Y-63002438D02*
X81619047Y-63050057D01*
X81619047Y-63050057D02*
X81666666Y-63145295D01*
X81666666Y-63145295D02*
X81666666Y-63240533D01*
X81666666Y-63240533D02*
X81619047Y-63383390D01*
X81619047Y-63383390D02*
X81047619Y-63954819D01*
X81047619Y-63954819D02*
X81666666Y-63954819D01*
D11*
X58654571Y-33092869D02*
X58654571Y-34018155D01*
X58654571Y-34018155D02*
X58709000Y-34127012D01*
X58709000Y-34127012D02*
X58763429Y-34181441D01*
X58763429Y-34181441D02*
X58872286Y-34235869D01*
X58872286Y-34235869D02*
X59090000Y-34235869D01*
X59090000Y-34235869D02*
X59198857Y-34181441D01*
X59198857Y-34181441D02*
X59253286Y-34127012D01*
X59253286Y-34127012D02*
X59307714Y-34018155D01*
X59307714Y-34018155D02*
X59307714Y-33092869D01*
X59797572Y-34181441D02*
X59960858Y-34235869D01*
X59960858Y-34235869D02*
X60233000Y-34235869D01*
X60233000Y-34235869D02*
X60341858Y-34181441D01*
X60341858Y-34181441D02*
X60396286Y-34127012D01*
X60396286Y-34127012D02*
X60450715Y-34018155D01*
X60450715Y-34018155D02*
X60450715Y-33909298D01*
X60450715Y-33909298D02*
X60396286Y-33800441D01*
X60396286Y-33800441D02*
X60341858Y-33746012D01*
X60341858Y-33746012D02*
X60233000Y-33691583D01*
X60233000Y-33691583D02*
X60015286Y-33637155D01*
X60015286Y-33637155D02*
X59906429Y-33582726D01*
X59906429Y-33582726D02*
X59852000Y-33528298D01*
X59852000Y-33528298D02*
X59797572Y-33419441D01*
X59797572Y-33419441D02*
X59797572Y-33310583D01*
X59797572Y-33310583D02*
X59852000Y-33201726D01*
X59852000Y-33201726D02*
X59906429Y-33147298D01*
X59906429Y-33147298D02*
X60015286Y-33092869D01*
X60015286Y-33092869D02*
X60287429Y-33092869D01*
X60287429Y-33092869D02*
X60450715Y-33147298D01*
X61321571Y-33637155D02*
X61484857Y-33691583D01*
X61484857Y-33691583D02*
X61539286Y-33746012D01*
X61539286Y-33746012D02*
X61593714Y-33854869D01*
X61593714Y-33854869D02*
X61593714Y-34018155D01*
X61593714Y-34018155D02*
X61539286Y-34127012D01*
X61539286Y-34127012D02*
X61484857Y-34181441D01*
X61484857Y-34181441D02*
X61376000Y-34235869D01*
X61376000Y-34235869D02*
X60940571Y-34235869D01*
X60940571Y-34235869D02*
X60940571Y-33092869D01*
X60940571Y-33092869D02*
X61321571Y-33092869D01*
X61321571Y-33092869D02*
X61430429Y-33147298D01*
X61430429Y-33147298D02*
X61484857Y-33201726D01*
X61484857Y-33201726D02*
X61539286Y-33310583D01*
X61539286Y-33310583D02*
X61539286Y-33419441D01*
X61539286Y-33419441D02*
X61484857Y-33528298D01*
X61484857Y-33528298D02*
X61430429Y-33582726D01*
X61430429Y-33582726D02*
X61321571Y-33637155D01*
X61321571Y-33637155D02*
X60940571Y-33637155D01*
X62682286Y-34235869D02*
X62029143Y-34235869D01*
X62355714Y-34235869D02*
X62355714Y-33092869D01*
X62355714Y-33092869D02*
X62246857Y-33256155D01*
X62246857Y-33256155D02*
X62138000Y-33365012D01*
X62138000Y-33365012D02*
X62029143Y-33419441D01*
D10*
X67690476Y-35814819D02*
X67690476Y-36624342D01*
X67690476Y-36624342D02*
X67738095Y-36719580D01*
X67738095Y-36719580D02*
X67785714Y-36767200D01*
X67785714Y-36767200D02*
X67880952Y-36814819D01*
X67880952Y-36814819D02*
X68071428Y-36814819D01*
X68071428Y-36814819D02*
X68166666Y-36767200D01*
X68166666Y-36767200D02*
X68214285Y-36719580D01*
X68214285Y-36719580D02*
X68261904Y-36624342D01*
X68261904Y-36624342D02*
X68261904Y-35814819D01*
X68690476Y-36767200D02*
X68833333Y-36814819D01*
X68833333Y-36814819D02*
X69071428Y-36814819D01*
X69071428Y-36814819D02*
X69166666Y-36767200D01*
X69166666Y-36767200D02*
X69214285Y-36719580D01*
X69214285Y-36719580D02*
X69261904Y-36624342D01*
X69261904Y-36624342D02*
X69261904Y-36529104D01*
X69261904Y-36529104D02*
X69214285Y-36433866D01*
X69214285Y-36433866D02*
X69166666Y-36386247D01*
X69166666Y-36386247D02*
X69071428Y-36338628D01*
X69071428Y-36338628D02*
X68880952Y-36291009D01*
X68880952Y-36291009D02*
X68785714Y-36243390D01*
X68785714Y-36243390D02*
X68738095Y-36195771D01*
X68738095Y-36195771D02*
X68690476Y-36100533D01*
X68690476Y-36100533D02*
X68690476Y-36005295D01*
X68690476Y-36005295D02*
X68738095Y-35910057D01*
X68738095Y-35910057D02*
X68785714Y-35862438D01*
X68785714Y-35862438D02*
X68880952Y-35814819D01*
X68880952Y-35814819D02*
X69119047Y-35814819D01*
X69119047Y-35814819D02*
X69261904Y-35862438D01*
X70023809Y-36291009D02*
X70166666Y-36338628D01*
X70166666Y-36338628D02*
X70214285Y-36386247D01*
X70214285Y-36386247D02*
X70261904Y-36481485D01*
X70261904Y-36481485D02*
X70261904Y-36624342D01*
X70261904Y-36624342D02*
X70214285Y-36719580D01*
X70214285Y-36719580D02*
X70166666Y-36767200D01*
X70166666Y-36767200D02*
X70071428Y-36814819D01*
X70071428Y-36814819D02*
X69690476Y-36814819D01*
X69690476Y-36814819D02*
X69690476Y-35814819D01*
X69690476Y-35814819D02*
X70023809Y-35814819D01*
X70023809Y-35814819D02*
X70119047Y-35862438D01*
X70119047Y-35862438D02*
X70166666Y-35910057D01*
X70166666Y-35910057D02*
X70214285Y-36005295D01*
X70214285Y-36005295D02*
X70214285Y-36100533D01*
X70214285Y-36100533D02*
X70166666Y-36195771D01*
X70166666Y-36195771D02*
X70119047Y-36243390D01*
X70119047Y-36243390D02*
X70023809Y-36291009D01*
X70023809Y-36291009D02*
X69690476Y-36291009D01*
X70690476Y-36433866D02*
X71452381Y-36433866D01*
X71880952Y-36529104D02*
X72357142Y-36529104D01*
X71785714Y-36814819D02*
X72119047Y-35814819D01*
X72119047Y-35814819D02*
X72452380Y-36814819D01*
X61833333Y-39859580D02*
X61785714Y-39907200D01*
X61785714Y-39907200D02*
X61642857Y-39954819D01*
X61642857Y-39954819D02*
X61547619Y-39954819D01*
X61547619Y-39954819D02*
X61404762Y-39907200D01*
X61404762Y-39907200D02*
X61309524Y-39811961D01*
X61309524Y-39811961D02*
X61261905Y-39716723D01*
X61261905Y-39716723D02*
X61214286Y-39526247D01*
X61214286Y-39526247D02*
X61214286Y-39383390D01*
X61214286Y-39383390D02*
X61261905Y-39192914D01*
X61261905Y-39192914D02*
X61309524Y-39097676D01*
X61309524Y-39097676D02*
X61404762Y-39002438D01*
X61404762Y-39002438D02*
X61547619Y-38954819D01*
X61547619Y-38954819D02*
X61642857Y-38954819D01*
X61642857Y-38954819D02*
X61785714Y-39002438D01*
X61785714Y-39002438D02*
X61833333Y-39050057D01*
X62785714Y-39954819D02*
X62214286Y-39954819D01*
X62500000Y-39954819D02*
X62500000Y-38954819D01*
X62500000Y-38954819D02*
X62404762Y-39097676D01*
X62404762Y-39097676D02*
X62309524Y-39192914D01*
X62309524Y-39192914D02*
X62214286Y-39240533D01*
D12*
%TO.C,Y1*%
X73098000Y-61278000D02*
X67002000Y-61278000D01*
X73098000Y-57722000D02*
X67002000Y-57722000D01*
X66900000Y-61850000D02*
X73199000Y-61850000D01*
X66900000Y-57150000D02*
X73199000Y-57150000D01*
X73198751Y-61850990D02*
G75*
G03*
X73199000Y-57149000I92249J2350990D01*
G01*
X73098321Y-61279025D02*
G75*
G03*
X73098000Y-57721000I139679J1779025D01*
G01*
X67000437Y-57721889D02*
G75*
G03*
X67002000Y-61278000I-126437J-1778111D01*
G01*
X66900700Y-57151030D02*
G75*
G03*
X66900000Y-61850999I-98700J-2349970D01*
G01*
D13*
%TO.C,U1*%
X70000000Y-44940000D02*
X66550000Y-44940000D01*
X70000000Y-44940000D02*
X71950000Y-44940000D01*
X70000000Y-55060000D02*
X68050000Y-55060000D01*
X70000000Y-55060000D02*
X71950000Y-55060000D01*
%TO.C,C3*%
X77510000Y-60859420D02*
X77510000Y-61140580D01*
X76490000Y-60859420D02*
X76490000Y-61140580D01*
%TO.C,R2*%
X69522500Y-42762742D02*
X69522500Y-43237258D01*
X68477500Y-42762742D02*
X68477500Y-43237258D01*
%TO.C,R1*%
X71522500Y-42762742D02*
X71522500Y-43237258D01*
X70477500Y-42762742D02*
X70477500Y-43237258D01*
%TO.C,C2*%
X77490000Y-42140580D02*
X77490000Y-41859420D01*
X78510000Y-42140580D02*
X78510000Y-41859420D01*
%TO.C,J1*%
X60330000Y-62330000D02*
X59000000Y-62330000D01*
X60330000Y-61000000D02*
X60330000Y-62330000D01*
X60330000Y-59730000D02*
X60330000Y-41890000D01*
X60330000Y-59730000D02*
X57670000Y-59730000D01*
X60330000Y-41890000D02*
X57670000Y-41890000D01*
X57670000Y-59730000D02*
X57670000Y-41890000D01*
%TO.C,C4*%
X62490000Y-61140580D02*
X62490000Y-60859420D01*
X63510000Y-61140580D02*
X63510000Y-60859420D01*
%TO.C,J2*%
X79670000Y-41670000D02*
X81000000Y-41670000D01*
X79670000Y-43000000D02*
X79670000Y-41670000D01*
X79670000Y-44270000D02*
X79670000Y-62110000D01*
X79670000Y-44270000D02*
X82330000Y-44270000D01*
X79670000Y-62110000D02*
X82330000Y-62110000D01*
X82330000Y-44270000D02*
X82330000Y-62110000D01*
D12*
%TO.C,USB1*%
X76604000Y-40985000D02*
X76604000Y-38535000D01*
X76604000Y-40985000D02*
X63396000Y-40985000D01*
X76604000Y-27015000D02*
X76604000Y-35460000D01*
X73782000Y-34119000D02*
X73200000Y-29072000D01*
X73449000Y-34145000D02*
X73782000Y-34119000D01*
X73353000Y-33213000D02*
X71270000Y-33213000D01*
X73200000Y-29072000D02*
X71346000Y-29072000D01*
X73023000Y-31460000D02*
X71575000Y-31460000D01*
X72794000Y-29580000D02*
X73449000Y-34145000D01*
X71854000Y-29580000D02*
X72794000Y-29580000D01*
X71346000Y-29072000D02*
X70762000Y-34127000D01*
X71067000Y-34178000D02*
X71854000Y-29580000D01*
X70762000Y-34127000D02*
X71067000Y-34178000D01*
X69312000Y-34170000D02*
X68979000Y-34196000D01*
X68979000Y-34196000D02*
X68324000Y-29631000D01*
X68882000Y-33263000D02*
X66800000Y-33263000D01*
X68730000Y-29123000D02*
X69312000Y-34170000D01*
X68552000Y-31511000D02*
X67104000Y-31511000D01*
X68324000Y-29631000D02*
X67384000Y-29631000D01*
X67384000Y-29631000D02*
X66596000Y-34229000D01*
X66876000Y-29123000D02*
X68730000Y-29123000D01*
X66596000Y-34229000D02*
X66292000Y-34178000D01*
X66292000Y-34178000D02*
X66876000Y-29123000D01*
X63396000Y-40985000D02*
X63396000Y-38560000D01*
X63396000Y-27015000D02*
X76604000Y-27015000D01*
X63396000Y-27015000D02*
X63396000Y-35460000D01*
D13*
%TO.C,C1*%
X62510000Y-41859420D02*
X62510000Y-42140580D01*
X61490000Y-41859420D02*
X61490000Y-42140580D01*
%TD*%
M02*
