M48
;GenerationSoftware,Autodesk,EAGLE,9.3.0*%
;CreationDate,2019-07-15T01:52:32Z*%
FMAT,2
ICI,OFF
METRIC,TZ,000.000
T9C0.381
T8C0.450
T7C0.457
T6C1.000
T5C1.016
T4C2.200
T3C2.667
T2C3.000
T1C4.572
%
G90
M71
T1
X17272Y8763
X10160Y8763
T2
X13038Y53003
X59266Y53257
X28405Y53130
X43391Y53384
T3
X10160Y36830
X18034Y36830
X10033Y23622
X17907Y23622
T4
X58166Y58657
X11938Y65103
X11938Y58403
X42291Y65484
X42291Y58784
X27305Y65230
X27305Y58530
X58166Y65357
T5
X86233Y16510
X90170Y9652
X90170Y6858
X87630Y9652
X87630Y6858
X85090Y9652
X85090Y6858
X82550Y9652
X82550Y6858
X80010Y9652
X80010Y6858
X74549Y17780
X72009Y17780
X74549Y20320
X72009Y20320
X74549Y22860
X72009Y22860
X74549Y25400
X72009Y25400
X72009Y27940
X48133Y8001
X45593Y8001
X43053Y8001
X83693Y16510
X81153Y16510
X74549Y27940
X40513Y8001
X71120Y40640
X71120Y38100
T6
X64603Y6390
X64603Y11390
X80772Y67310
X80772Y64770
X80772Y62230
X80772Y59690
X80772Y57150
X59603Y6390
X80772Y52070
X80772Y49530
X80772Y46990
X80772Y44450
X88392Y44450
X88392Y46990
X88392Y49530
X80772Y54610
X88392Y54610
X88392Y57150
X88392Y59690
X88392Y62230
X88392Y64770
X88392Y67310
X59603Y11390
X88392Y52070
T7
X64516Y22606
X67691Y30861
X40894Y20955
X67056Y26416
X2032Y3556
X2286Y16256
X2667Y30226
X2667Y43942
X10033Y30988
X10668Y14986
X61087Y24130
X66040Y20574
X29210Y29337
X30734Y29337
X32258Y29337
X33782Y29337
X3175Y61722
X1651Y55753
X5334Y52451
X11684Y47879
X19431Y49276
X21082Y56642
X19050Y45085
X25654Y42164
X24892Y39243
X29210Y26416
X30734Y26416
X32258Y26416
X33782Y26416
X40132Y39878
X29718Y47752
X36195Y54229
X35814Y47371
X41148Y49149
X47625Y48133
X40767Y45466
X47879Y50292
X47879Y52705
X48006Y54483
X47879Y56642
X48006Y58420
X48133Y59944
X47752Y45720
X55753Y45339
X56007Y47371
X55753Y49276
X55753Y50546
X55626Y52578
X55626Y54229
X55753Y42164
X59690Y42926
X51943Y31496
X45466Y33782
X26543Y26924
X25146Y24765
X29210Y27813
X30734Y27813
X32258Y27813
X33782Y27813
X29210Y24892
X30734Y24892
X32258Y24892
X33782Y24892
X29210Y23495
X30734Y23495
X32258Y23495
X33782Y23495
X39116Y29591
X40640Y29591
X42164Y29591
X43688Y29591
X39116Y28067
X40640Y28067
X42164Y28067
X43688Y28067
X39116Y26670
X40640Y26670
X42164Y26670
X43688Y26670
X39116Y25146
X40640Y25146
X42164Y25146
X43688Y25146
X39116Y23749
X40640Y23749
X42164Y23749
X43688Y23749
X50292Y36830
X50927Y36068
X48387Y35433
X47625Y36195
X85979Y40386
X78105Y15827
X81153Y25761
X83185Y35941
X84582Y40132
X80264Y27432
X80645Y22479
X78359Y30607
X18415Y17780
X25146Y19050
X24257Y14859
X24765Y9398
X36195Y11176
X34798Y9652
X33782Y8255
X32385Y7112
X30734Y6477
X28575Y6223
X26670Y5969
X28194Y2159
X32004Y2286
X34671Y3937
X36195Y5588
X37592Y6731
X48895Y17653
X52451Y11430
X44450Y1524
X54991Y2032
X50927Y7620
X55753Y7366
X54483Y11684
X62103Y9017
X70358Y6985
X71247Y4572
X57277Y23749
X57277Y20701
X67818Y24130
X50673Y27940
X79248Y19431
X77089Y17653
X88011Y22225
X85725Y26543
X42799Y35052
X80518Y34798
X86233Y34417
X85598Y25019
X98552Y12954
X99187Y22733
X99187Y38735
X97790Y49530
X92456Y40894
X94742Y48514
X98552Y62357
X65659Y66929
X66167Y60960
X65278Y55880
X67945Y51562
X66548Y47371
X65913Y44196
X65532Y38989
X75565Y40259
X77978Y42799
X80391Y38862
X81788Y40386
X85090Y44069
X54737Y24892
X55499Y20828
X52451Y20447
X60071Y23495
X59436Y22733
X58166Y21844
X58293Y24638
X55753Y22860
T8
X62103Y14986
X34544Y15748
X64516Y14732
X28321Y15748
T9
X39751Y42418
X82537Y32385
X81153Y32385
X43053Y42164
X76073Y33020
X45720Y43688
M30