M48
;GenerationSoftware,Autodesk,EAGLE,9.3.0*%
;CreationDate,2019-10-05T22:53:06Z*%
FMAT,2
ICI,OFF
METRIC,TZ,000.000
T14C0.381
T13C0.400
T12C0.450
T11C0.457
T10C0.600
T9C0.800
T8C0.914
T7C1.000
T6C1.016
T5C2.200
T4C2.286
T3C2.667
T2C3.000
T1C4.572
%
G90
M71
T1
X10287Y11049
X17399Y11049
T2
X25738Y67354
X40597Y67354
X56345Y67354
X10117Y67354
T3
X8763Y42418
X16510Y54864
X16637Y42418
X8636Y54864
X8509Y29083
X16383Y29083
T4
X71577Y9918
X83617Y9918
T5
X9017Y79454
X9017Y72754
X39497Y79454
X39497Y72754
X24638Y79454
X24638Y72754
X55245Y79454
X55245Y72754
T6
X60579Y39370
X60579Y44450
X48133Y5715
X45593Y5715
X43053Y5715
X40513Y5715
X97409Y2413
X60579Y41910
X94869Y2413
X99949Y2413
X94869Y4953
X97409Y4953
X99949Y4953
X76581Y22479
X79121Y22479
X81661Y22479
T7
X76708Y56642
X84328Y59182
X84328Y61722
X84328Y64262
X84328Y66802
X84328Y71882
X84328Y74422
X84328Y76962
X84328Y56642
X56832Y7036
X76708Y61722
X84328Y54102
X64325Y12014
X76708Y76962
X76708Y71882
X76708Y69342
X76708Y66802
X76708Y64262
X76708Y59182
X76708Y54102
X76708Y74422
X84328Y69342
T8
X78847Y14617
X76347Y14617
X76347Y12636
X78847Y12636
T9
X47752Y74422
X47752Y76922
X17399Y77557
X17399Y75057
T10
X59271Y9525
X61882Y9525
X98171Y53721
X105771Y53721
T11
X100838Y27305
X103124Y28956
X101346Y34798
X103251Y38100
X100965Y41402
X99441Y36449
X108839Y44704
X91059Y46228
X92837Y48133
X94615Y49911
X91186Y49911
X93218Y51943
X81534Y43053
X83185Y39370
X73533Y43688
X74930Y41783
X3175Y62611
X8509Y62357
X17018Y62484
X17272Y66167
X4572Y67056
X17018Y70485
X35687Y65786
X35687Y63500
X35814Y61214
X35687Y59055
X48387Y62484
X27051Y57150
X80899Y36449
X74295Y25273
X55118Y32385
X57658Y32385
X61087Y32639
X63881Y32639
X38100Y49022
X39116Y49022
X42037Y51943
X49276Y48387
X57785Y59436
X57658Y56896
X57785Y54483
X57785Y52070
X60452Y52197
X60452Y54356
X60452Y56896
X60452Y59436
X35687Y57023
X35687Y55118
X27051Y59182
X27051Y61214
X27051Y63246
X48768Y56261
X53594Y43561
X27051Y38989
X29972Y38862
X33147Y38862
X36068Y38735
X39116Y38735
X42037Y39116
X88519Y21336
X74803Y7874
X68199Y32893
X77343Y29718
X57912Y61722
X60452Y61722
X86995Y4318
X108204Y40767
X92456Y41148
X92837Y32512
X101346Y62357
X102870Y67945
X102743Y73025
X40259Y49022
X41275Y49022
X42037Y50927
X84328Y15240
X84328Y13589
X86741Y15875
X86741Y13208
X86614Y10541
X85598Y6985
X88265Y7112
X89789Y6223
X67691Y30861
X40894Y20955
X2032Y3556
X2286Y16256
X2794Y26924
X3175Y35306
X10033Y30988
X10668Y14986
X8890Y35306
X3048Y48260
X8509Y48768
X2667Y58166
X65532Y38989
X29210Y29337
X30734Y29337
X32258Y29337
X33782Y29337
X21971Y42926
X29210Y26416
X30734Y26416
X32258Y26416
X33782Y26416
X26543Y26924
X25146Y24765
X29210Y27813
X30734Y27813
X32258Y27813
X33782Y27813
X29210Y24892
X30734Y24892
X32258Y24892
X33782Y24892
X29210Y23495
X30734Y23495
X32258Y23495
X33782Y23495
X39116Y29591
X40640Y29591
X42164Y29591
X43688Y29591
X39116Y28067
X40640Y28067
X42164Y28067
X43688Y28067
X39116Y26670
X40640Y26670
X42164Y26670
X43688Y26670
X39116Y25146
X40640Y25146
X42164Y25146
X43688Y25146
X39116Y23749
X40640Y23749
X42164Y23749
X43688Y23749
X20447Y23622
X15748Y37338
X19304Y35560
X22098Y38227
X18415Y17780
X25146Y19050
X24257Y14859
X24765Y9398
X36195Y11176
X34798Y9652
X33782Y8255
X32385Y7112
X30734Y6477
X28575Y6223
X26670Y5969
X28194Y2159
X32004Y2286
X34417Y4064
X36195Y5588
X37592Y6731
X48895Y17653
X52451Y11430
X44450Y1524
X51689Y2159
X50927Y7620
X54102Y8509
X61087Y24130
X54483Y11684
X63500Y8382
X68199Y4191
X75692Y2159
X57277Y23749
X57277Y20701
X65786Y25527
X50673Y27940
X51943Y31496
X91440Y19304
X93472Y59817
X89408Y48133
X89281Y58420
X69469Y67818
X64516Y60071
X64770Y52451
X67310Y46482
X66040Y49022
X66802Y43307
X55753Y25400
X55499Y20828
X52578Y19812
X60071Y23876
X59436Y22987
X58166Y21844
X58293Y24638
X55753Y22860
X66548Y21082
X73406Y17145
X108458Y8255
X108204Y19812
X97155Y19685
X107950Y15367
X87757Y29337
X89662Y30988
X81280Y30353
X85217Y32131
X92456Y29337
X96647Y24384
X98425Y26035
T12
X79375Y44958
X81407Y27940
X70485Y44323
X79121Y31750
X80391Y32639
X71247Y45212
X72263Y43434
X90678Y34925
X81153Y33528
X85725Y13970
X88519Y37338
X94869Y39116
X85725Y43434
X99568Y28067
X62103Y14986
X90170Y41148
X78613Y45974
X88477Y44323
X69596Y42291
X90678Y33782
X97028Y39116
X93980Y27940
X34544Y15748
X98425Y38100
X72898Y28194
X96647Y34417
X71374Y29083
X64516Y14732
X28321Y15748
X65913Y23669
X68453Y29718
X97282Y36957
T13
X32385Y47498
X35433Y47498
X29083Y45974
X32385Y45974
X43434Y50292
X66802Y37211
X44577Y50292
X42291Y46863
X58166Y48895
X49403Y46687
X29210Y47498
X35433Y45974
X42291Y47879
X43307Y47879
X43307Y46863
T14
X90202Y36417
X92329Y31115
X101854Y36957
X101981Y27813
X87249Y18669
X97409Y35306
X86148Y21505
X89408Y18796
X87122Y23114
X67056Y26416
M30